<svg width="24" height="14" viewBox="0 0 24 14" fill="none" xmlns="http://www.w3.org/2000/svg">
  <path d="M5.4178 11.4141H5.4178C5.80838 11.8045 6.44155 11.8044 6.83201 11.4138C7.01943 11.2264 7.12474 10.9721 7.12479 10.7071V7.41605C7.12479 7.27798 7.23672 7.16605 7.37479 7.16605H20.9168C21.0549 7.16605 21.1668 7.27798 21.1668 7.41605V12.6241C21.1668 13.3144 21.7264 13.8741 22.4168 13.8741C23.1071 13.8741 23.6668 13.3144 23.6668 12.6241V5.91605C23.6668 5.2257 23.1071 4.66605 22.4168 4.66605H7.37479H7.37479C7.23672 4.66605 7.12479 4.55412 7.12479 4.41605V1.12405L7.12479 1.12427C7.12479 0.571983 6.67708 0.124268 6.12479 0.124268C5.8597 0.124268 5.60546 0.229524 5.41794 0.416903L0.625794 5.20905H0.625794C0.235412 5.59955 0.235412 6.23255 0.625794 6.62305L5.4178 11.4141Z" fill="#0C0548"/>
  </svg>
