<?xml version="1.0" encoding="utf-8"?>
<!-- Generator: Adobe Illustrator 23.0.2, SVG Export Plug-In . SVG Version: 6.00 Build 0)  -->
<svg version="1.1" id="Capa_1" xmlns="http://www.w3.org/2000/svg" xmlns:xlink="http://www.w3.org/1999/xlink" x="0px" y="0px"
	 viewBox="0 0 256 256" style="enable-background:new 0 0 256 256;" xml:space="preserve">
<style type="text/css">
	.st0{fill:#6A5F7A;}
</style>
<g>
	<g>
		<g>
			<path class="st0" d="M236,41.5h-60.5V30c0-16.5-13.5-30-30-30h-35c-16.5,0-30,13.5-30,30v11.5H20c-5.5,0-10,4.5-10,10
				s4.5,10,10,10h10.4l12.2,158v0.1c0.9,10,5.5,19.2,12.9,25.9s17,10.5,27,10.5h91.2c20.8,0,38-15.5,39.8-36.1
				c0.5-5.5-3.6-10.4-9.1-10.9s-10.4,3.6-10.9,9.1c-0.9,10.2-9.5,17.9-19.9,17.9H82.4c-10.4,0-18.9-7.8-19.9-18.1L50.4,61.5h155.2
				L197,172.2c-0.4,5.5,3.7,10.3,9.2,10.7c0.3,0,0.5,0,0.8,0c5.2,0,9.6-4,10-9.2l8.7-112.3H236c5.5,0,10-4.5,10-10
				S241.5,41.5,236,41.5z M155.5,41.5h-55V30c0-5.5,4.5-10,10-10h35c5.5,0,10,4.5,10,10V41.5z"/>
			<path class="st0" d="M82.6,81.5c-5.5,0.2-9.8,4.9-9.6,10.4l5,114.5c0.2,5.4,4.7,9.6,10,9.6c0.1,0,0.3,0,0.4,0
				c5.5-0.2,9.8-4.9,9.6-10.4L93,91.1C92.7,85.5,88.1,81.3,82.6,81.5z"/>
			<path class="st0" d="M163,91.1l-5,114.5c-0.2,5.5,4,10.2,9.6,10.4c0.1,0,0.3,0,0.4,0c5.3,0,9.7-4.2,10-9.6l5-114.5
				c0.2-5.5-4-10.2-9.6-10.4C167.9,81.3,163.3,85.5,163,91.1z"/>
			<path class="st0" d="M118,91.5V206c0,5.5,4.5,10,10,10s10-4.5,10-10V91.5c0-5.5-4.5-10-10-10S118,86,118,91.5z"/>
		</g>
	</g>
</g>
</svg>
