<svg id="f225d9ec-0493-4956-bf60-95817c86af21" data-name="Layer 1" xmlns="http://www.w3.org/2000/svg" viewBox="0 0 24 24"><title>delete-icon</title><path d="M5.16,22.84A1.2,1.2,0,0,0,6.36,24H17.64a1.2,1.2,0,0,0,1.2-1.16l.81-17H4.35Zm9.39-12.77A.49.49,0,0,1,15,9.58h.79a.49.49,0,0,1,.49.49v9.71a.49.49,0,0,1-.49.49H15a.49.49,0,0,1-.49-.49Zm-3.43,0a.49.49,0,0,1,.49-.49h.78a.49.49,0,0,1,.49.49v9.71a.49.49,0,0,1-.49.49h-.78a.49.49,0,0,1-.49-.49V10.07Zm-3.44,0a.49.49,0,0,1,.49-.49H9a.49.49,0,0,1,.49.49v9.71a.49.49,0,0,1-.49.49H8.17a.49.49,0,0,1-.49-.49Z" fill="#715c99"/><path d="M20.19,1.24H15v-1A.25.25,0,0,0,14.73,0H9.27A.25.25,0,0,0,9,.25v1H3.81A.76.76,0,0,0,3.06,2V4.38H20.94V2A.76.76,0,0,0,20.19,1.24Z" fill="#715c99"/></svg>