<svg xmlns="http://www.w3.org/2000/svg" viewBox="0 0 320 240"><style><![CDATA[.B{fill:#976ae2}.C{fill:#4d1e9a}.D{fill:#d8b28d}.E{fill:#c69c79}.F{fill:#cbd5e0}.G{fill-rule:evenodd}.H{fill:#975a16}]]></style><path d="M234.22 157.8c-19.3 24.86-47 44.88-72.42 55.74-32.7 14-73 19.5-106.28 4.44-1-.43-1.9-.88-2.82-1.34C31.18 206 13.54 185.9 9.83 162.16a57.68 57.68 0 0 1 12.27-44.84c12.57-15.2 26.32-12.4 44.38-13.7 28.23-2 51.5-15.42 71.9-34.33 19.5-18.1 38.9-43.3 68.55-40.3 20.13 2 39.32 17 46.65 36 12.73 32.94 1.67 65.74-19.35 92.8z" fill="#edf2f7"/><ellipse cx="286.87" cy="96.6" rx="2.05" ry="3.24" fill="#e2e8f0"/><g class="F"><path d="M281.07 185.25a4 4 0 0 1-1.33-.26l-65.3-24.64c-6.64-2.68-7.32-3.65-5.62-8l23.25-52.78c2-5.15 3-6.35 7.9-6.35l66.6 6.36c4.14.24 6.8 1.22 7.88 2.9a4.09 4.09 0 0 1 .14 3.83l-28.28 72.38c-1.38 3.3-2.68 6.56-5.25 6.56zm-71.64-32.7c-1.48 3.83-1.26 4.55 5.26 7.18l65.3 24.64c2.7 1 4-1.6 5.74-6L314 106a3.48 3.48 0 0 0-.08-3.24c-1-1.47-3.5-2.37-7.38-2.6L240 93.82c-4.56 0-5.34 1-7.28 6z"/><path d="M199.2 143.76L222.44 91c2-5.1 2.85-6.16 7.62-6.16l66.55 6.36c6.76.4 9.14 2.7 7.75 6.3l-28.2 72.38c-1.72 4.24-3.1 7.28-6.16 6.16l-65.3-24.66c-6.56-2.7-7.02-3.57-5.5-7.6z"/></g><path d="M203.84 142.43l20.85-47.35c1.8-4.57 2.52-5.5 6.83-5.5l59.73 5.7c6.1.33 8.2 2.45 6.95 5.63l-25.3 64.9c-1.52 3.77-2.7 6.5-5.5 5.5l-58.54-22.05c-5.87-2.45-6.3-3.18-5.03-6.82z" fill="#fff"/><path fill="#edf2f7" d="M278.3 151.46l-58.4-11.23-13.7 1.5 45.74 14.4 26.38-4.67z"/><path d="M278.42 174.65a3.72 3.72 0 0 1-1.32-.26l-65.3-24.63c-6.64-2.68-7.32-3.66-5.62-8L229.43 89c2-5.15 3-6.36 7.9-6.36l66.6 6.36c4.14.24 6.8 1.22 7.88 2.9a4.1 4.1 0 0 1 .14 3.84l-28.28 72.38c-1.37 3.32-2.67 6.54-5.25 6.54zM206.8 142c-1.5 3.83-1.27 4.56 5.25 7.2l65.28 24.63c2.7 1 4-1.6 5.74-6l28.28-72.37a3.48 3.48 0 0 0-.08-3.24c-.95-1.48-3.5-2.38-7.38-2.6l-66.57-6.36c-4.56 0-5.34 1-7.28 6zm48.7-17.54a.74.74 0 0 0 .67-.45l2.75-6.76a.72.72 0 0 0-.39-1 .73.73 0 0 0-1 .4l-2.76 6.76a.73.73 0 0 0 .4 1 .69.69 0 0 0 .33.05zm11 8.1a.79.79 0 0 0 .44-.16l7.55-5.88a.72.72 0 0 0 .13-1 .73.73 0 0 0-1-.13l-7.55 5.9a.73.73 0 0 0-.13 1 .75.75 0 0 0 .56.28zm-24.3-6.14a.64.64 0 0 0 .41-.14.72.72 0 0 0 .17-1l-4.26-5.92a.724.724 0 0 0-1.18.84l4.26 5.93a.73.73 0 0 0 .6.29z" class="F"/><path d="M234 141.45l31.6 8.88a2.89 2.89 0 0 0 3.14-1.88l2.95-6.85c.58-1.36.1-2.73-1-3l-32-6.74c-1.15-.32-2.57.95-3.15 2.3L233 138.4c-.6 1.35-.13 2.73 1 3.05z" fill="#2f855a" class="G"/><g fill="#276749"><path d="M238.07 131.76l-15 .7-3.86 6.82 15.55 1.7 3.32-9.22z"/><path d="M271.53 139.13l-15.1.64-5.9 11.23 14.87-.56c2.2.15 3.52-1.17 4.3-3.25l2-5.6a2.65 2.65 0 0 0-.19-2.46z" class="G"/></g><path d="M255.6 139.23l-11.7-2.45a3.06 3.06 0 0 1-1.26 1.94 3.35 3.35 0 0 1-2 .54 5.31 5.31 0 0 1-.69 0l-4.13-.76a17.32 17.32 0 0 1-3.83-.95 2.16 2.16 0 0 1-1.59-1.91 2.94 2.94 0 0 1 .62-1.54l-7.45-1.57c-1.15-.32-2.57.95-3.15 2.3l-2.5 4.28c-.58 1.35-.12 2.72 1 3l31.6 8.88a2.89 2.89 0 0 0 3.15-1.87l2.94-6.86c.6-1.34.12-2.7-1.03-3.04z" fill="#68d391" class="G"/><path d="M163.37 132.15l29.3 7.6a2.67 2.67 0 0 0 2.86-1.78l2.6-6.38c.5-1.26.06-2.5-1-2.8l-29.66-5.6c-1.06-.28-2.35.92-2.86 2.18l-2.22 4c-.52 1.25-.06 2.5 1 2.78z" fill="#b7791f" class="G"/><path d="M166.93 123.15l-13.83.92-3.42 6.36 14.36 1.28 2.9-8.56z" class="H"/><g class="F"><path d="M190.34 139.08a5.25 5.25 0 0 1-2.08-.48l-19.33-8.2c-2.55-1.2-3.36-3.2-2.3-5.66l18.8-42.38c1.2-2.5 2.37-2.6 5.63-2.25l22.2 2.05a3.09 3.09 0 0 1 2.54 1.33c.63 1 .55 2.55-.22 4.42L194 136.38c-.85 1.78-2.1 2.7-3.66 2.7zM167.24 125c-.92 2.1-.25 3.76 2 4.8l19.32 8.2c2.2.95 3.84.32 4.87-1.9L215 87.64c.68-1.66.78-3 .26-3.82a2.47 2.47 0 0 0-2-1l-22.2-2c-3.23-.34-4-.22-5 1.87L167.24 125z"/><path d="M164.55 123l18.8-42.4c1.12-2.3 2.12-2.38 5.3-2.05l22.18 2.05c2.65.2 3.3 2.26 2 5.3l-21.53 48.5c-1.06 2.25-2.85 3.1-5.3 2l-19.34-8.2c-2.45-1.14-3.04-3.06-2.12-5.2z"/></g><path d="M158.46 124.86l18.8-42.38c1.12-2.32 2.12-2.4 5.3-2l22.2 2c2.65.2 3.3 2.25 2.05 5.3l-21.6 48.47c-1.06 2.25-2.84 3.1-5.3 2.05l-19.34-8.2c-2.52-1.2-3.05-3.1-2.12-5.23z" fill="#fff"/><path d="M182.78 85.9c1.92.73 2.32 3.18 1.4 5.36a4.55 4.55 0 0 1-5.43 2.65c-1.92-.73-2.25-3.18-1.4-5.36a4.39 4.39 0 0 1 5.43-2.65zm17.62 6.83h-.1L187.8 91a.66.66 0 1 1 .18-1.3l12.5 1.73a.64.64 0 0 1 .56.73.66.66 0 0 1-.65.57zm-1.32 2.17H199l-12.52-1.72a.66.66 0 0 1-.56-.73.65.65 0 0 1 .74-.56l12.52 1.72a.65.65 0 0 1 .55.74.65.65 0 0 1-.65.55zm-21.86 3.04c1.92.73 2.32 3.18 1.4 5.36s-3.58 3.38-5.43 2.65-2.25-3.17-1.4-5.36 3.5-3.44 5.43-2.65zm17.55 6.84h-.1l-12.5-1.72a.65.65 0 0 1-.56-.74.64.64 0 0 1 .74-.55l12.5 1.72a.652.652 0 0 1-.09 1.3zm-1.25 2.22h-.1l-12.52-1.72a.66.66 0 1 1 .18-1.3l12.5 1.72a.65.65 0 0 1 .56.74.64.64 0 0 1-.64.56zm-23.65 3.85c1.92.73 2.25 3.18 1.4 5.37s-3.58 3.38-5.43 2.65-2.25-3.18-1.4-5.37a4.53 4.53 0 0 1 5.43-2.65zm17.63 6.9h-.1L174.88 116a.64.64 0 0 1-.55-.74.65.65 0 0 1 .74-.55l12.5 1.8a.65.65 0 0 1 .56.74.66.66 0 0 1-.65.52zm-1.34 2.12h-.1l-12.5-1.72a.66.66 0 0 1 .18-1.3l12.5 1.73a.64.64 0 0 1 .56.73.65.65 0 0 1-.65.56z" class="F"/><g class="G"><path d="M197.9 129.32l-13.9.87-5.22 10.47 13.7-.8c2 .1 3.22-1.14 3.9-3.06l1.72-5.2a2.44 2.44 0 0 0-.2-2.27z" class="H"/><path d="M183.23 129.7l-10.82-2.05a2.86 2.86 0 0 1-1.13 1.82 3.11 3.11 0 0 1-1.85.53 3.43 3.43 0 0 1-.64 0l-3.82-.6a17.24 17.24 0 0 1-3.55-.81 2 2 0 0 1-1.5-1.74 2.67 2.67 0 0 1 .55-1.43l-6.9-1.3c-1.07-.28-2.35.92-2.86 2.18l-2.22 4a2 2 0 0 0 1 2.79l29.28 7.6a2.66 2.66 0 0 0 2.87-1.78l2.6-6.38a2 2 0 0 0-1-2.81z" fill="#ecc94b"/></g><path d="M144.93 135.58l3.62.28 1.27-4.06-4.9 3.78z" class="H"/><g class="C"><path d="M129.14 224.14l-6.9-54-26.08-5.22 27.92 60.2 5.05-.97z"/><path d="M87.8 160.78l-2.93 4.58 28.42 61.25a83.29 83.29 0 0 0 10.86-1.5L94.5 161.16c-1-2.18-4.24-2.8-7.2-1.43zm-14.7 58.87l.6 4.13C86.43 228 101 228 113.23 226.6L84.8 165.3c-10.8 8.33-12.75 21.1-13.35 27.1-.6 6.5 1.64 27.26 1.64 27.26z"/></g><path d="M70.47 101C71.38 92.24 85 84.35 85 84.35c-17 15.5-13.83 39.56-13.83 39.56 3.8-28 16.35-35.56 16.35-35.56-13.5 20.34 10.54 59 10.54 59s6-46.4 23.75-54.55 21.45-23.2 21.45-23.2c.5 12.64-6 27.92-6 27.92 7.57-11.9 7.48-18.66 7.36-34.12s-7.4-25-11.24-28-15.8-6.9-27.38 5.5-3.72 31-3.72 31C68 84.6 70.4 100.84 70.47 101z"/><path d="M87.88 163.2c8.2 2.8 35.6 9.32 35.6 9.32l-3.94-37.63-21.6-1c5.57 12.18-10.06 29.38-10.06 29.3z" class="D"/><path d="M116.2 157.62c1.75 2.42 5.9 14.2 1.8 11.8s-14-1.4-14-1.4c-19.5-4.57-17.1-44.55-17.1-44.55 2.97 9.74 22.9 24.94 29.3 34.16z" class="B"/><path d="M150.25 122.48l-19.64 13.24s-12.36 20.9-3.55 16.12 30.05-24.37 30.05-24.37zM106.52 86c2.18-3 6.4-20.7 6.4-20.7.5 8.7 9.27 12.7 9.27 12.7s-2.3 7.25-2.22 9.8 7.68 17.4 7.68 17.4c-12.1-17.85-23.24-16.27-21.13-19.2z" class="D"/><path d="M126.58 133.3c-1.58-15.2 1.86 15.54 5.92 7s2.12-14.67 1.1-21.13-9.6-19.6-9.6-19.6c-20.12-22.5-25.75-10.52-25.75-10.52l-15.08 11.4a77.66 77.66 0 0 1 4.7 18.39l7.75-2.33s2.55 14 2.64 16.85" class="B"/><g class="C"><path d="M123.2 199s4.4-17.15 4-22 3.15-32 5.4-36.67a42.67 42.67 0 0 0 3.32-18.85 23.15 23.15 0 0 0-8.09-15.6c-21.3-30.7-29.1-17-29.1-17C122 93.23 123.2 199 123.2 199z"/><path d="M122.86 201.9v-2.94c0-1.06-1.52-105.47-24.2-109.8l-.53-.1.27-.47a7.06 7.06 0 0 1 5.74-3.21h.1c8-.27 17.36 10.8 23.88 20.17a23.82 23.82 0 0 1 8.18 15.83 42.88 42.88 0 0 1-3.35 19.06c-2.33 4.84-5.78 31.84-5.37 36.47.43 4.88-3.78 21.45-4 22.15zM99.36 88.53c9.53 2.5 16.5 21.67 20.7 57 2.56 21.5 3.28 42.86 3.47 50.5 1.22-5.08 3.55-15.47 3.24-19-.4-4.67 3.08-32 5.44-36.86a42 42 0 0 0 3.28-18.66 22.88 22.88 0 0 0-7.93-15.32l-.1-.1c-11.58-16.67-19-20-23.25-19.9h-.06a6.43 6.43 0 0 0-4.81 2.31z"/></g><path d="M73.16 219.65c39.06-3.05 38.63-35.9 38.63-35.9-11 37.65-38.7 35.97-38.63 35.9z" class="B"/><g class="C"><path d="M119.53 134.88l-21.6-1 .4-2.16 20.47-.42.72 3.6z"/><path d="M120 135.3l-22.53-1.06.54-2.9 21.1-.43zm-21.6-1.8l20.66 1-.56-2.78-19.84.4z"/><path d="M113.78 111c5.6 13 8.94 51.12 9.88 59.2a59.86 59.86 0 0 1-.34 15.74l5.13 37.32-8-28C124.32 162.92 98.68 88.8 98.68 88.8c7.78-.6 9.58 9.2 15.1 22.2z"/></g><path d="M102.7 65.55s1.82-3.8 13.88-15.32 19.27-2.4 19.27-2.4c-12.12-16.13-33.15 17.7-33.15 17.7z" fill="#4a5568"/><path d="M109.67 52c11.9-18.88 25.2-6.93 25.2-6.93C120.42 35 109.67 52 109.67 52z" fill="#718096"/><g fill="#ecc94b"><path d="M106.43 71.25c-.3-1.06-1.75-.14-3.13.38 1-.64 2.14-1.95 1.52-2.46-1.24-1-3.14 2.1-2.63 1.5s1.16-3.45.08-3.55-1 3.24-1 3.24-2.12-3.4-3-2.7 1.85 3.15 1.85 3.15-3.13-1.37-3.43-.28 2.12 1.33 2.94 1.57c-1.8.33-2.8 2-2.33 2.5s1.72-.46 2.45-.82c-.76 1.43-.4 3.76.73 3.8 1.13-.3 1-1.5.9-3.24.1.87 1.52 3.36 2.44 2.8s-.27-2.2-.84-3.12c.62.65 2.6 2 3.4 1.16s-2.9-2.32-2.9-2.32c.94.04 3.2-.77 2.96-1.57z"/><path d="M101.68 73.3a1 1 0 0 1-1.24-1.1c.1-.8.84-.76 1.24-.7.2 0 .4.2.55.38.36.66-.3 1.22-.55 1.43z"/></g><path d="M104.77 214c-.35-.66.37-1.08 1.15-1.7a.85.85 0 0 1-1-.64c-.18-1.53 3-.43 3.4 1s0 2.88-1 2.84c-1.14-.16-.73-1.85-.73-1.85-.65.9-1.66.93-1.8.36zm-14.65 8.23c-.23-.8.63-1 1.5-1.4a.8.8 0 0 1-.83-.84c.22-1.48 3 .3 2.94 1.77s-.72 2.64-1.6 2.4-.2-1.87-.2-1.87c-.85.63-1.73.4-1.8-.07zM121.48 163a1.63 1.63 0 0 0 .57-2.83c-1-1-2-.13-2.53.42a1.69 1.69 0 0 0-.36 1.22c.18 1.2 1.72 1.4 2.32 1.2zm.9 6.94a1.42 1.42 0 0 0 .45-2.43c-.83-.84-1.68-.14-2.13.34a1.15 1.15 0 0 0-.3 1c.17 1 1.5 1.15 1.98 1.1zm-1.95-14.27a1.63 1.63 0 0 0 .57-2.83c-1-1-2-.13-2.53.42a1.69 1.69 0 0 0-.36 1.22c.18 1.2 1.72 1.35 2.32 1.2zm-5.33-23.25a1.65 1.65 0 0 0 .31-2.89c-1-.9-2 0-2.46.62a1.53 1.53 0 0 0-.23 1.21c.28 1.13 1.85 1.15 2.38 1.06zm1.56 6.7a1.39 1.39 0 0 0 .26-2.42c-.9-.77-1.67.06-2.06.54a1.11 1.11 0 0 0-.23 1c.23 1 1.57 1.03 2.03.88zm-3.26-13.95a1.64 1.64 0 0 0 .3-2.89c-1-.9-2 0-2.46.62a1.57 1.57 0 0 0-.22 1.21c.3 1.2 1.85 1.2 2.38 1.06zm-6.65-20.4a1.62 1.62 0 0 0 .17-2.88c-1.1-.83-2 .13-2.45.75a1.3 1.3 0 0 0-.23 1.21c.37 1.14 1.9 1.08 2.5.92zm1.82 6.57a1.36 1.36 0 0 0 .12-2.41c-1-.7-1.67.12-2 .67a1.31 1.31 0 0 0-.17 1c.25 1 1.6.96 2.05.74zm-3.87-13.73a1.62 1.62 0 0 0 .17-2.88c-1.1-.84-2 .13-2.45.75a1.3 1.3 0 0 0-.23 1.21c.38 1.2 1.9 1.14 2.5.92z" class="B"/><g fill="#262323"><path d="M154.44 130.64a.78.78 0 0 1-.56-.26l.28-.26a.47.47 0 0 0 .29.13.45.45 0 0 0 .3-.16.76.76 0 0 0 .2-.59c-.06-1.48-3-4.13-4.55-5.55-.82-.76-1.27-.82-1.5-.73s-.46.68-.46.7h-.38a1.31 1.31 0 0 1 .71-1c.5-.17 1.12.1 1.9.82 2.23 2 4.62 4.3 4.68 5.82a1.18 1.18 0 0 1-.31.87.82.82 0 0 1-.59.22z"/><path d="M153.92 131.06a.78.78 0 0 1-.56-.26l.28-.26a.47.47 0 0 0 .29.13.45.45 0 0 0 .29-.16.8.8 0 0 0 .2-.59c-.06-1.48-3-4.13-4.56-5.55-.8-.76-1.26-.82-1.5-.73s-.46.68-.46.7h-.38a1.27 1.27 0 0 1 .71-1c.48-.17 1.12.1 1.9.82 2.23 2 4.62 4.3 4.68 5.8a1.15 1.15 0 0 1-.31.87.79.79 0 0 1-.58.23z"/><path d="M152.88 132a.78.78 0 0 1-.56-.26l.28-.26a.47.47 0 0 0 .29.13.41.41 0 0 0 .29-.16.76.76 0 0 0 .2-.59c-.06-1.48-3-4.13-4.56-5.55a2.06 2.06 0 0 0-1.68-.74 1.49 1.49 0 0 0-1 .78l-.35-.17a1.87 1.87 0 0 1 1.23-1 2.4 2.4 0 0 1 2 .84c2.23 2 4.62 4.3 4.68 5.82a1.18 1.18 0 0 1-.31.87.82.82 0 0 1-.51.29z"/></g><path d="M121.08 94.36c-.82 0-2.3-1.52-4.83-4.26-2.3-2.48-5.16-5.56-7.6-7a2 2 0 0 1-1.18-1.58c0-1.12 1.4-2 1.47-2l.2.33s-1.3.8-1.28 1.7c0 .44.34.86 1 1.24 2.47 1.5 5.36 4.62 7.67 7.12 1.92 2.07 4.1 4.4 4.6 4.1.16-.08.42-.63-.48-3.78l.38-.1c.95 3.33.68 4 .3 4.22a.49.49 0 0 1-.26-.01z" fill="#b7791f"/><path d="M126.1 52.52c-1.8-.14-3 2.5-5.52 3.2s-4.1 5.7-4 7.43-1.33 12.3.47 12.24 6.43 3.93 7.25 4.64 5.07 1.5 5.6-1 1.8-2.34 1.8-2.34a10.55 10.55 0 0 1-2.1-2.67l5.1-1.64-.4-.46c-.42-.45 0-1.07 2.5-1.42s1-2.7.56-3.43 0-5.42 0-5.42l.94-4c3.32-8.68-.72-9.48-.72-9.48-.9 1.52-9.64 4.5-11.45 4.35z" class="D"/><path fill="#fff" d="M137.6 56.02l-.55 1.76-.88-.37-18.02-.2.57-1.1 17.92-.6.96.5z"/><g class="B"><path d="M138.9 61.13L137.72 64c-2.1 3.3-3.9 4-4.34 2.36s3.25-10.82 3.25-10.82l1 .5 1.62 4.5z"/><path d="M139 61.13l.56.52-2.44 4.35c-.12-1 1.78-4.8 1.88-4.87z"/></g><path d="M131.65 76.7c-1.15-.3-2.1-2.67-2.1-2.67l5.1-1.64s.74.1 0 1.07-3.66.86-3.66.86c3.07.43 1.8 2.6.66 2.38z" fill="#c53030"/><path d="M133.85 70.47l2.13-.54c-.57.96-2.13.54-2.13.54z" class="E"/><path d="M132.66 60.8l1.57.82.37-.68-.3-1.13a26.26 26.26 0 0 0-3-.5c-.94 0-1.53-1.76-1.53-1.76 1.4 3.04 2.9 3.32 2.9 3.25z"/><path d="M131.16 60.2c-.1.87 1.82 2.08 1.82 2.08-.9-1.1-1.7-2.96-1.82-2.08z"/><ellipse cx="117.34" cy="61.18" rx="4.68" ry="2.48" transform="matrix(.124467 -.992224 .992224 .124467 42.03 170)" class="D"/><path d="M113 65.2s-5 17.64-4.1 16 12.6-3.9 12-4-6.16-6.1-6.16-6.1c-.75-.72-1.75-5.9-1.75-5.9zm3-1.2c-.54-.18-.22-2.54-.22-2.54.3-4.83 3.26-2.8 3.26-2.8-3.13-.12-2.54 5.55-3.04 5.33z" class="E"/><path d="M126.64 176.9c-3.1-41.13-23.46-89.65-23.67-90.14l.7-.3c.2.5 20.63 49.12 23.74 90.38z" class="B"/><path d="M133.38 66.34c-.47-2 3.25-10.82 3.25-10.82l1 .5c-1.18-.1-4.25 10.32-4.25 10.32z" fill="#fff"/><path d="M133.06 70.64a1.5 1.5 0 0 1-.67-1.38c.17-1 1.58-1.5 1.64-1.52l.14.36c-.35.13-1.3.62-1.4 1.23q-.08.48.54 1z" class="E"/><path d="M117.45 225.34l-.77.01-.48-56.42.77-.03 3.5 56.2-.78.04-2.58-41.72.35 41.93zm-45.08-9.5v-.77c30.5-1.6 41.32-43.06 41.43-43.48l.75.2c-.15.42-11.1 42.43-42.18 44.06zM130.3 151l-.76-.14c0-.17 2.78-16.87-21.9-63.15l.68-.37c24.85 46.66 22.1 63 21.97 63.66z" class="B"/><path d="M97.4 123.77a33.31 33.31 0 0 0-3.12-7.06l8.83-2.17s-5.12 12.22-5.7 9.23z" class="C"/><path d="M132.12 140.35c-.06-.3-5.93-29.4-12.18-44.5l.72-.3c6.28 15.18 12.16 44.36 12.22 44.65zm-21.8 27.38c-1.4 1.85 2 32.2 5.55 33.75 2.1.94 3.62 8.25 15.94 12.33s-5.8-8.92-8.66-14.9 10.1 6.3 15.9 7.17-12.32-8.16-10.93-14.5 8.25 6.42 10.06 4.35c3.82-4.48-22.03-36.15-27.86-28.2z" class="B"/><g class="C"><path d="M128.1 193.24c1.07 3.92 11.17 11.68 11.17 11.68l-8.28-15.2c-1.36-2.73-4-.4-2.9 3.5z"/><path d="M140.5 206.34l-1.5-1.1c-.4-.32-10.2-7.9-11.3-11.9-.72-2.6.1-4.64 1.3-5.1.33-.12 1.46-.4 2.3 1.32zm-10.95-17.42a.78.78 0 0 0-.22 0c-.76.3-1.47 1.9-.85 4.18.78 2.85 6.7 8 9.54 10.28l-7.35-13.5c-.33-.63-.73-.97-1.12-.96zm-6.5 7.44l8.9 6.33 3.78 10.72c-15.16-8.74-12.7-17.05-12.7-17.05z"/><path d="M136.46 214.26l-.9-.52c-15.24-8.78-13-17.14-12.86-17.5l.15-.52 9.46 6.7v.12zM123.34 197c-.2 1.93.15 8.53 11.7 15.5l-3.38-9.6zm-8.7-31.35c0-.12-5.18-12.1-16.76-18.06-12-6.15-11.23-12.23-11.2-12.48l.77.1c0 .06-.64 5.8 10.77 11.7 11.84 6.1 17.08 18.3 17.13 18.44zm-4.5-.23c-3.38-11.37-21.53-20.23-21.7-20.32l.34-.7a71.24 71.24 0 0 1 9.71 5.93c4.65 3.4 10.58 8.73 12.4 14.86z"/></g><path d="M113.025 226.185l.664-57.666.77.01-.664 57.666z" class="B"/><g class="C"><path d="M127.87 193.55c-.14-.12-14.17-11.4-14.16-25.08h.77c0 13.32 13.73 24.36 13.87 24.47zm-5 5.68c-.32-.2-7.8-5-13.07-31.5l.76-.15c2.7 13.63 6 21.33 8.33 25.4 2.5 4.4 4.36 5.58 4.38 5.6zm2.12-20a1.17 1.17 0 0 0-.66-1.92c-1-.23-1.25.58-1.37 1.12a.82.82 0 0 0 .16.86c.45.66 1.44.22 1.87-.06z"/><path d="M123.87 180a1.24 1.24 0 0 1-1.09-.49 1.18 1.18 0 0 1-.21-1.23 1.79 1.79 0 0 1 .74-1.23 1.32 1.32 0 0 1 1.08-.13 1.52 1.52 0 0 1 1.18 1.06 1.68 1.68 0 0 1-.32 1.5h-.06a2.53 2.53 0 0 1-1.32.52zm.1-2.36a.4.4 0 0 0-.24.07 1.17 1.17 0 0 0-.41.78.48.48 0 0 0 .08.54c.32.42 1.07.05 1.3-.1a.92.92 0 0 0 .13-.73.8.8 0 0 0-.64-.52zm3.87 5.36a.94.94 0 0 0-.53-1.59c-.8-.17-1 .57-1.17 1a.92.92 0 0 0 .16.73c.42.5 1.28.15 1.54-.14z"/><path d="M126.94 183.78h-.1a1.09 1.09 0 0 1-.84-.41 1.35 1.35 0 0 1-.24-1.05c.3-1 .86-1.45 1.64-1.28a1.38 1.38 0 0 1 1.07 1 1.36 1.36 0 0 1-.37 1.25 1.83 1.83 0 0 1-1.16.49zm.12-2c-.2 0-.38.17-.55.73a.51.51 0 0 0 .11.39.29.29 0 0 0 .25.1 1 1 0 0 0 .68-.26.57.57 0 0 0 .13-.5.62.62 0 0 0-.5-.42zm-5.3-6.6a1.17 1.17 0 0 0-.67-1.92c-.94-.24-1.25.58-1.36 1.12a.8.8 0 0 0 .16.86c.5.65 1.54.22 1.87-.06z"/><path d="M120.68 176h-.24a1.23 1.23 0 0 1-.87-.49 1.18 1.18 0 0 1-.22-1.23 1.82 1.82 0 0 1 .74-1.22 1.35 1.35 0 0 1 1.09-.14 1.56 1.56 0 0 1 1.18 1.07 1.67 1.67 0 0 1-.33 1.49 2.34 2.34 0 0 1-1.35.52zm.07-2.37a.61.61 0 0 0-.25.07 1.27 1.27 0 0 0-.41.79.48.48 0 0 0 .09.54.48.48 0 0 0 .35.19 1.58 1.58 0 0 0 1-.29.9.9 0 0 0 .13-.74.81.81 0 0 0-.63-.53z"/></g><path d="M170.15 100.86a39.17 39.17 0 0 1-1.25 4.66c-.62 1.56-6 6-6 6h-1.7l-1 .64-1.4-.16-3.92 2.74-.95 3.78-3.68 3.94 6.86 4.92a6.17 6.17 0 0 1 3.16-1.58c7.73-1.12 8.2-3.42 8.2-3.42.88-1.7 4-1.87 4-1.87l2.75.18.1-1.15c-2.78-3.32-6.73-1-9.17 0s-2.6 0-2.5-.72 5.62-8.28 7.48-12.7.3-5.1.3-5.1zm-82.28 18A137.32 137.32 0 0 0 72.48 125c-6.13 3.15 15.13 32.23 15.13 32.23L83 164c-24.43-20.52-32.92-40-31.5-43.45s31.66-20.07 31.66-20.07z" class="D"/><path d="M71.66 126.78l-5-5c2.4 2.12 14.83-.9 14.83-.9-11.7 5.7-9.83 5.9-9.83 5.9z" class="E"/><path d="M87.6 156.7c2.53 1.46 8.46.8 8.93.64s7.44.3 7.64.35 6.53 3.06 7.63 3.76 2.5.92.85 1.45-6.14-1.4-7.3-1.9a7.5 7.5 0 0 0-2.83-.58l4.5 2.53c.62.38 2.5 5 2.5 5s1.28 2.23 1.16 2.7-1.28 0-2-.6a64.16 64.16 0 0 1-4.12-4.95l2.34 3.87c.64 1.18 2.5 4.34.8 3.86s-5.15-5.8-5.77-6.44-4.6-1.32-4.6-1.32l2.3 2.27 2.65 3.26c1.33 1.63 1.22 2.5.62 2.52a12 12 0 0 1-3.9-2.2l-4.16-4.42c-.62-.6-4.23-.12-8.06-.6S81 161.08 81 161.08c.2-1.68 6.46-4.3 6.6-4.38z" class="D"/><path d="M87.6 157.17s-3.6 10.43-3.8 6.22a116.11 116.11 0 0 0-2-14.46z" class="E"/><g fill="#5b4b4b"><path d="M83.06 165.56h-.12c-1.15-.35-1-2.44-1-2.52h.38c-.05.52 0 1.9.68 2.1 0 0 .1 0 .3-.25 1.3-1.55 3.86-8.44 3.6-9.7a1.14 1.14 0 0 0-1.47-1l-.1-.38a1.8 1.8 0 0 1 1.24.17 1.64 1.64 0 0 1 .71 1.13c.3 1.46-2.54 9-3.85 10.2a.64.64 0 0 1-.37.23z"/><path d="M82.37 164.9a.25.25 0 0 1-.12 0c-1.16-.35-1-2-.94-2.06h.4s-.18 1.4.66 1.64c0 0 .1 0 .3-.26 1.3-1.55 3.86-8.44 3.6-9.7a1.27 1.27 0 0 0-.54-.87 1.33 1.33 0 0 0-.93-.13l-.1-.37a1.69 1.69 0 0 1 1.23.16 1.66 1.66 0 0 1 .72 1.13c.3 1.47-2.54 9-3.85 10.22a.67.67 0 0 1-.42.24z"/><path d="M81.66 163.6a.22.22 0 0 1-.12 0 1.37 1.37 0 0 1-1.05-1.44h.38a1 1 0 0 0 .78 1s.1 0 .3-.25c1.3-1.55 3.86-8.44 3.6-9.7a1.14 1.14 0 0 0-1.47-1l-.1-.38a1.8 1.8 0 0 1 1.24.17 1.62 1.62 0 0 1 .72 1.13c.3 1.46-2.54 9-3.86 10.2a.65.65 0 0 1-.41.26zm2.1 2.6h-.12c-1.15-.34-1-2.43-.95-2.52h.4c-.06.52 0 1.9.67 2.1 0 0 .1 0 .3-.26 1.3-1.55 3.86-8.43 3.6-9.7a1.27 1.27 0 0 0-.54-.88 1.33 1.33 0 0 0-.93-.13l-.1-.37a1.69 1.69 0 0 1 1.24.17 1.64 1.64 0 0 1 .71 1.13c.3 1.46-2.54 9-3.85 10.2a.76.76 0 0 1-.42.23z"/></g><path d="M85.8 119.47l2.06-.67c1.3-3.2-4.7-18.38-4.7-18.38l-2.3 1.28z" class="C"/><path d="M86.34 115.17a.84.84 0 0 0 .15-1.48c-.55-.5-1 0-1.26.3a.63.63 0 0 0-.11.61c.15.6.95.64 1.22.56zm-1.64-4.97a.84.84 0 0 0 .15-1.48c-.55-.52-1 0-1.26.3a.62.62 0 0 0-.11.6c.15.6.95.58 1.22.57zM83 105a.83.83 0 0 0 .15-1.47c-.55-.52-1 0-1.26.3a.63.63 0 0 0-.12.6c.15.56.95.56 1.23.56zm26.6 29.08a.84.84 0 0 0 .15-1.48c-.55-.52-1 0-1.26.3a.63.63 0 0 0-.11.61c.15.6.95.57 1.22.56zm-6.7-.45a.84.84 0 0 0 .15-1.48c-.55-.5-1 0-1.26.3a.63.63 0 0 0-.11.61c.15.6.95.57 1.22.56zM93 181c-.36-.66.36-1.08 1.14-1.7-.8.23-1-.64-1-.64-.2-1.53 3-.43 3.38 1s0 2.88-1 2.84c-1.14-.16-.73-1.85-.73-1.85-.68.82-1.68.85-1.8.36zm-17.2 27.3c-.35-.66.37-1.08 1.15-1.7-.8.23-1-.63-1-.63-.2-1.54 3-.44 3.38 1s0 2.88-1 2.84c-1.14-.16-.73-1.85-.73-1.85-.6.85-1.6.88-1.8.35zm.66-20.1c-.36-.66.37-1.1 1.15-1.72a.84.84 0 0 1-1-.63c-.18-1.53 3-.44 3.4 1s0 2.88-1 2.85c-1.14-.16-.73-1.85-.73-1.85-.65.84-1.66.88-1.8.35z" class="B"/><path d="M140.17 129.3c-2.2 2.75-1.86 14.45-1.86 14.45l-7.9 6s1-5.92 2.13-8.43a87.89 87.89 0 0 0 2.78-8.73z" class="E"/><path d="M155.6 129.66a.84.84 0 0 1-.57-.25l.28-.27a.49.49 0 0 0 .29.14.45.45 0 0 0 .3-.17.71.71 0 0 0 .2-.58c-.06-1.48-3-4.13-4.55-5.55-.8-.76-1.27-.82-1.5-.74s-.45.7-.45.7l-.4-.05s.12-.8.7-1 1.13.1 1.9.82c2.23 2 4.62 4.3 4.68 5.82a1.14 1.14 0 0 1-.31.87.76.76 0 0 1-.58.27z" fill="#262323"/><path d="M117 73.44a1.77 1.77 0 0 0 1.31-2.92c-.85-1.3-2.16-.66-2.82-.17a1.78 1.78 0 0 0-.69 1.23c-.02 1.27 1.6 1.88 2.2 1.86zm.33-4.56a1.78 1.78 0 0 0 1.31-2.88c-.85-1.3-2.17-.66-2.82-.17a1.75 1.75 0 0 0-.69 1.22c-.03 1.3 1.6 1.85 2.2 1.83zm-.6 8.06a1.37 1.37 0 0 0 .93-2.18c-.64-1-1.56-.48-2.08-.13a1 1 0 0 0-.51.89c-.07.94 1.12 1.37 1.66 1.42z" fill="#fff"/><ellipse cx="264.17" cy="58.83" rx="3.2" ry="5.06" fill="#e2e8f0"/><ellipse cx="204.85" cy="192.79" rx="3.2" ry="5.06" class="F"/></svg>