
<svg width="300" height="300" viewBox="0 0 300 300" fill="none" xmlns="http://www.w3.org/2000/svg">
<g clip-path="url(#clip0_10_2)">
<rect width="300" height="300" fill="white"/>
<path d="M300 150C300 230.494 234.747 295.747 154.254 295.747C73.7599 295.747 8.50684 230.494 8.50684 150C8.50684 69.5063 73.7599 4.2533 154.254 4.2533C234.747 4.2533 300 69.5063 300 150Z" fill="#E5E7EB"/>
<mask id="mask0_10_2" style="mask-type:alpha" maskUnits="userSpaceOnUse" x="8" y="4" width="292" height="292">
<path d="M300 150C300 230.494 234.747 295.747 154.254 295.747C73.7599 295.747 8.50684 230.494 8.50684 150C8.50684 69.5063 73.7599 4.2533 154.254 4.2533C234.747 4.2533 300 69.5063 300 150Z" fill="#E5E7EB"/>
</mask>
<g mask="url(#mask0_10_2)">
<g filter="url(#filter0_d_10_2)">
<path d="M3.23553 82.9137C1.56887 76.6936 5.26014 70.3001 11.4802 68.6335L116.324 40.5408L146.967 58.2912L176.272 74.9186L221.99 245.54C223.657 251.76 219.966 258.153 213.745 259.82L72.826 297.579C66.606 299.246 60.2125 295.555 58.5459 289.335L3.23553 82.9137Z" fill="url(#paint0_linear_10_2)"/>
<path d="M116.971 40.7115L146.503 58.0465L176.282 74.9546L140.204 84.6216C134.295 86.2049 128.221 82.6982 126.638 76.7891L116.971 40.7115Z" fill="url(#paint1_linear_10_2)"/>
</g>
<path d="M41.4689 127.875C40.8418 125.534 42.2307 123.129 44.5709 122.502L79.4772 113.149C81.8175 112.521 84.223 113.91 84.8501 116.251V116.251C85.4772 118.591 84.0883 120.996 81.7481 121.623L46.8418 130.977C44.5015 131.604 42.096 130.215 41.4689 127.875V127.875Z" fill="#E9EBEE"/>
<path d="M60.3703 198.414C59.7432 196.074 61.132 193.669 63.4723 193.041L98.3786 183.688C100.719 183.061 103.124 184.45 103.751 186.79V186.79C104.379 189.131 102.99 191.536 100.649 192.163L65.7432 201.516C63.4029 202.143 60.9974 200.755 60.3703 198.414V198.414Z" fill="#E9EBEE"/>
<path d="M44.8356 140.44C44.5642 139.427 45.1653 138.386 46.1782 138.115L154.642 109.052C155.654 108.78 156.696 109.382 156.967 110.394V110.394C157.238 111.407 156.637 112.448 155.624 112.72L47.161 141.782C46.1481 142.054 45.107 141.453 44.8356 140.44V140.44Z" fill="#E9EBEE"/>
<path d="M63.7365 210.979C63.4651 209.967 64.0662 208.926 65.079 208.654L173.542 179.591C174.555 179.32 175.596 179.921 175.868 180.934V180.934C176.139 181.947 175.538 182.988 174.525 183.259L66.0619 212.322C65.049 212.593 64.0079 211.992 63.7365 210.979V210.979Z" fill="#E9EBEE"/>
<path d="M46.8635 148.008C46.5921 146.995 47.1932 145.954 48.206 145.683L156.669 116.62C157.682 116.349 158.723 116.95 158.995 117.963V117.963C159.266 118.975 158.665 120.017 157.652 120.288L49.1888 149.351C48.176 149.622 47.1349 149.021 46.8635 148.008V148.008Z" fill="#E9EBEE"/>
<path d="M65.7648 218.548C65.4934 217.535 66.0945 216.494 67.1074 216.222L175.571 187.16C176.584 186.888 177.625 187.489 177.896 188.502V188.502C178.167 189.515 177.566 190.556 176.554 190.828L68.0902 219.89C67.0773 220.162 66.0362 219.561 65.7648 218.548V218.548Z" fill="#E9EBEE"/>
<path d="M48.8918 155.576C48.6204 154.563 49.2215 153.522 50.2343 153.251L151.463 126.127C152.475 125.855 153.517 126.456 153.788 127.469V127.469C154.059 128.482 153.458 129.523 152.445 129.795L51.2171 156.919C50.2043 157.19 49.1632 156.589 48.8918 155.576V155.576Z" fill="#E9EBEE"/>
<path d="M67.7927 226.116C67.5213 225.103 68.1223 224.062 69.1352 223.791L170.364 196.667C171.376 196.395 172.417 196.996 172.689 198.009V198.009C172.96 199.022 172.359 200.063 171.346 200.335L70.118 227.459C69.1052 227.73 68.0641 227.129 67.7927 226.116V226.116Z" fill="#E9EBEE"/>
<path d="M50.9196 163.144C50.6482 162.132 51.2493 161.091 52.2622 160.819L101.361 147.663C102.373 147.392 103.415 147.993 103.686 149.006V149.006C103.957 150.019 103.356 151.06 102.343 151.331L53.245 164.487C52.2321 164.758 51.191 164.157 50.9196 163.144V163.144Z" fill="#E9EBEE"/>
<path d="M69.8205 233.684C69.5491 232.671 70.1502 231.63 71.163 231.359L120.261 218.203C121.274 217.932 122.315 218.533 122.587 219.545V219.545C122.858 220.558 122.257 221.599 121.244 221.871L72.1458 235.027C71.133 235.298 70.0919 234.697 69.8205 233.684V233.684Z" fill="#E9EBEE"/>
</g>
<path d="M3.1923 82.8884C1.5481 76.6767 5.2394 70.3056 11.4461 68.6425L116.324 40.5407L146.967 58.291L176.272 74.9185L58.1754 96.4525C55.2811 96.9803 52.6933 98.5827 50.9309 100.938L19.1973 143.355L3.1923 82.8884Z" fill="url(#paint2_linear_10_2)"/>
<path d="M116.971 40.7114L146.503 58.0464L176.282 74.9545L140.204 84.6214C134.295 86.2048 128.221 82.6981 126.638 76.789L116.971 40.7114Z" fill="url(#paint3_linear_10_2)"/>
<g filter="url(#filter1_d_10_2)">
<path d="M98.2549 52.525C98.2549 46.0855 103.475 40.8652 109.915 40.8652H218.456L243.461 65.9418L267.465 89.5875V266.228C267.465 272.667 262.245 277.887 255.805 277.887H109.915C103.475 277.887 98.2549 272.667 98.2549 266.228V52.525Z" fill="url(#paint4_linear_10_2)"/>
<path d="M219.038 41.1981L243.077 65.5859L267.465 89.6251H230.114C223.997 89.6251 219.038 84.6659 219.038 78.5484V41.1981Z" fill="url(#paint5_linear_10_2)"/>
</g>
<path d="M123.549 105.85C123.549 103.427 125.513 101.463 127.936 101.463H164.073C166.496 101.463 168.46 103.427 168.46 105.85V105.85C168.46 108.273 166.496 110.237 164.073 110.237H127.936C125.513 110.237 123.549 108.273 123.549 105.85V105.85Z" fill="#E9EBEE"/>
<path d="M123.549 178.878C123.549 176.455 125.513 174.491 127.936 174.491H164.073C166.496 174.491 168.46 176.455 168.46 178.878V178.878C168.46 181.301 166.496 183.265 164.073 183.265H127.936C125.513 183.265 123.549 181.301 123.549 178.878V178.878Z" fill="#E9EBEE"/>
<path d="M123.549 118.858C123.549 117.81 124.399 116.96 125.447 116.96H237.737C238.786 116.96 239.636 117.81 239.636 118.858V118.858C239.636 119.907 238.786 120.757 237.737 120.757H125.447C124.399 120.757 123.549 119.907 123.549 118.858V118.858Z" fill="#E9EBEE"/>
<path d="M123.549 191.886C123.549 190.838 124.399 189.988 125.447 189.988H237.737C238.786 189.988 239.636 190.838 239.636 191.886V191.886C239.636 192.935 238.786 193.785 237.737 193.785H125.447C124.399 193.785 123.549 192.935 123.549 191.886V191.886Z" fill="#E9EBEE"/>
<path d="M123.549 126.693C123.549 125.645 124.399 124.795 125.447 124.795H237.737C238.786 124.795 239.636 125.645 239.636 126.693V126.693C239.636 127.742 238.786 128.592 237.737 128.592H125.447C124.399 128.592 123.549 127.742 123.549 126.693V126.693Z" fill="#E9EBEE"/>
<path d="M123.549 199.721C123.549 198.673 124.399 197.823 125.447 197.823H237.737C238.786 197.823 239.636 198.673 239.636 199.721V199.721C239.636 200.77 238.786 201.62 237.737 201.62H125.447C124.399 201.62 123.549 200.77 123.549 199.721V199.721Z" fill="#E9EBEE"/>
<path d="M123.549 134.529C123.549 133.48 124.399 132.63 125.447 132.63H230.247C231.295 132.63 232.145 133.48 232.145 134.529V134.529C232.145 135.577 231.295 136.427 230.247 136.427H125.447C124.399 136.427 123.549 135.577 123.549 134.529V134.529Z" fill="#E9EBEE"/>
<path d="M123.549 207.557C123.549 206.508 124.399 205.658 125.447 205.658H230.247C231.295 205.658 232.145 206.508 232.145 207.557V207.557C232.145 208.605 231.295 209.455 230.247 209.455H125.447C124.399 209.455 123.549 208.605 123.549 207.557V207.557Z" fill="#E9EBEE"/>
<path d="M123.549 142.364C123.549 141.315 124.399 140.465 125.447 140.465H176.278C177.326 140.465 178.177 141.315 178.177 142.364V142.364C178.177 143.412 177.326 144.262 176.278 144.262H125.447C124.399 144.262 123.549 143.412 123.549 142.364V142.364Z" fill="#E9EBEE"/>
<path d="M123.549 215.392C123.549 214.343 124.399 213.493 125.447 213.493H176.278C177.326 213.493 178.177 214.343 178.177 215.392V215.392C178.177 216.44 177.326 217.29 176.278 217.29H125.447C124.399 217.29 123.549 216.44 123.549 215.392V215.392Z" fill="#E9EBEE"/>
<path d="M263.639 194.266C263.639 213.906 247.718 229.828 228.077 229.828C208.437 229.828 192.515 213.906 192.515 194.266C192.515 174.626 208.437 158.704 228.077 158.704C247.718 158.704 263.639 174.626 263.639 194.266Z" fill="white" fill-opacity="0.49"/>
<path fill-rule="evenodd" clip-rule="evenodd" d="M215.324 192.157C215.353 192.157 215.38 192.146 215.401 192.125C215.421 192.105 215.433 192.077 215.433 192.048C215.433 192.019 215.421 191.991 215.401 191.971C215.38 191.95 215.353 191.939 215.324 191.939C215.295 191.939 215.267 191.95 215.246 191.971C215.226 191.991 215.214 192.019 215.214 192.048C215.214 192.077 215.226 192.105 215.246 192.125C215.267 192.146 215.295 192.157 215.324 192.157ZM212.103 188.827C212.957 187.973 214.116 187.493 215.324 187.493C216.532 187.493 217.69 187.973 218.544 188.827C219.398 189.681 219.878 190.84 219.878 192.048C219.878 193.256 219.398 194.414 218.544 195.268C217.69 196.123 216.532 196.602 215.324 196.602C214.116 196.602 212.957 196.123 212.103 195.268C211.249 194.414 210.769 193.256 210.769 192.048C210.769 190.84 211.249 189.681 212.103 188.827ZM241.995 192.157C242.024 192.157 242.052 192.146 242.073 192.125C242.093 192.105 242.105 192.077 242.105 192.048C242.105 192.019 242.093 191.991 242.073 191.971C242.052 191.95 242.024 191.939 241.995 191.939C241.966 191.939 241.938 191.95 241.918 191.971C241.897 191.991 241.886 192.019 241.886 192.048C241.886 192.077 241.897 192.105 241.918 192.125C241.938 192.146 241.966 192.157 241.995 192.157ZM238.775 188.827C239.629 187.973 240.787 187.493 241.995 187.493C243.203 187.493 244.362 187.973 245.216 188.827C246.07 189.681 246.55 190.84 246.55 192.048C246.55 193.256 246.07 194.414 245.216 195.268C244.362 196.123 243.203 196.602 241.995 196.602C240.787 196.602 239.629 196.123 238.775 195.268C237.921 194.414 237.441 193.256 237.441 192.048C237.441 190.84 237.921 189.681 238.775 188.827ZM223.103 205.384L221.454 203.735C220.787 204.402 220.587 205.405 220.948 206.276C221.309 207.147 222.16 207.716 223.103 207.716H234.216C235.159 207.716 236.01 207.147 236.37 206.276C236.731 205.405 236.532 204.402 235.865 203.735L234.216 205.384C235.865 203.735 235.864 203.734 235.864 203.734L235.862 203.732L235.86 203.73L235.854 203.723L235.839 203.709C235.834 203.704 235.829 203.699 235.824 203.694C235.816 203.687 235.808 203.679 235.799 203.67C235.767 203.64 235.727 203.602 235.677 203.558C235.578 203.468 235.443 203.351 235.273 203.215C234.936 202.945 234.454 202.596 233.845 202.248C232.637 201.557 230.848 200.829 228.659 200.829C226.471 200.829 224.682 201.557 223.474 202.248C222.865 202.596 222.383 202.945 222.045 203.215C221.876 203.351 221.741 203.468 221.642 203.558C221.592 203.602 221.552 203.64 221.52 203.67C221.505 203.685 221.491 203.698 221.48 203.709L221.465 203.723L221.459 203.73L221.456 203.732L221.455 203.734C221.455 203.734 221.454 203.735 223.103 205.384Z" fill="#374151"/>
<g filter="url(#filter2_di_10_2)">
<path fill-rule="evenodd" clip-rule="evenodd" d="M259.044 177.405C268.702 194.132 262.97 215.521 246.243 225.178C229.516 234.835 208.127 229.104 198.47 212.377C188.813 195.65 194.544 174.261 211.271 164.604C227.998 154.946 249.387 160.677 259.044 177.405ZM255.162 231.19C273.53 217.862 279.225 192.537 267.627 172.449C255.233 150.982 227.783 143.627 206.315 156.021C184.848 168.415 177.493 195.865 189.887 217.333C201.409 237.29 225.943 245.05 246.586 236.086C246.649 236.22 246.718 236.353 246.793 236.484L271.176 278.717C272.545 281.087 275.575 281.899 277.946 280.531C280.316 279.162 281.128 276.132 279.759 273.762L255.376 231.529C255.309 231.412 255.237 231.299 255.162 231.19Z" fill="#4B5563"/>
</g>
</g>
<defs>
<filter id="filter0_d_10_2" x="-42.1646" y="-0.459229" width="309.555" height="347.439" filterUnits="userSpaceOnUse" color-interpolation-filters="sRGB">
<feFlood flood-opacity="0" result="BackgroundImageFix"/>
<feColorMatrix in="SourceAlpha" type="matrix" values="0 0 0 0 0 0 0 0 0 0 0 0 0 0 0 0 0 0 127 0" result="hardAlpha"/>
<feOffset dy="4"/>
<feGaussianBlur stdDeviation="22.5"/>
<feComposite in2="hardAlpha" operator="out"/>
<feColorMatrix type="matrix" values="0 0 0 0 0.294118 0 0 0 0 0.333333 0 0 0 0 0.388235 0 0 0 0.23 0"/>
<feBlend mode="normal" in2="BackgroundImageFix" result="effect1_dropShadow_10_2"/>
<feBlend mode="normal" in="SourceGraphic" in2="effect1_dropShadow_10_2" result="shape"/>
</filter>
<filter id="filter1_d_10_2" x="53.2549" y="-0.134766" width="259.21" height="327.022" filterUnits="userSpaceOnUse" color-interpolation-filters="sRGB">
<feFlood flood-opacity="0" result="BackgroundImageFix"/>
<feColorMatrix in="SourceAlpha" type="matrix" values="0 0 0 0 0 0 0 0 0 0 0 0 0 0 0 0 0 0 127 0" result="hardAlpha"/>
<feOffset dy="4"/>
<feGaussianBlur stdDeviation="22.5"/>
<feComposite in2="hardAlpha" operator="out"/>
<feColorMatrix type="matrix" values="0 0 0 0 0.294118 0 0 0 0 0.333333 0 0 0 0 0.388235 0 0 0 0.23 0"/>
<feBlend mode="normal" in2="BackgroundImageFix" result="effect1_dropShadow_10_2"/>
<feBlend mode="normal" in="SourceGraphic" in2="effect1_dropShadow_10_2" result="shape"/>
</filter>
<filter id="filter2_di_10_2" x="137.866" y="127" width="146.558" height="179.196" filterUnits="userSpaceOnUse" color-interpolation-filters="sRGB">
<feFlood flood-opacity="0" result="BackgroundImageFix"/>
<feColorMatrix in="SourceAlpha" type="matrix" values="0 0 0 0 0 0 0 0 0 0 0 0 0 0 0 0 0 0 127 0" result="hardAlpha"/>
<feOffset dx="-22" dy="1"/>
<feGaussianBlur stdDeviation="12"/>
<feComposite in2="hardAlpha" operator="out"/>
<feColorMatrix type="matrix" values="0 0 0 0 0.294118 0 0 0 0 0.333333 0 0 0 0 0.388235 0 0 0 0.28 0"/>
<feBlend mode="normal" in2="BackgroundImageFix" result="effect1_dropShadow_10_2"/>
<feBlend mode="normal" in="SourceGraphic" in2="effect1_dropShadow_10_2" result="shape"/>
<feColorMatrix in="SourceAlpha" type="matrix" values="0 0 0 0 0 0 0 0 0 0 0 0 0 0 0 0 0 0 127 0" result="hardAlpha"/>
<feOffset dx="7" dy="4"/>
<feGaussianBlur stdDeviation="2"/>
<feComposite in2="hardAlpha" operator="arithmetic" k2="-1" k3="1"/>
<feColorMatrix type="matrix" values="0 0 0 0 0.898039 0 0 0 0 0.905882 0 0 0 0 0.921569 0 0 0 0.19 0"/>
<feBlend mode="normal" in2="shape" result="effect2_innerShadow_10_2"/>
</filter>
<linearGradient id="paint0_linear_10_2" x1="140.903" y1="54.0685" x2="63.8634" y2="293.663" gradientUnits="userSpaceOnUse">
<stop stop-color="#F9FAFB"/>
<stop offset="1" stop-color="white"/>
</linearGradient>
<linearGradient id="paint1_linear_10_2" x1="129.505" y1="87.4884" x2="153.36" y2="47.6336" gradientUnits="userSpaceOnUse">
<stop stop-color="#D1D5DB"/>
<stop offset="1" stop-color="#D1D5DB" stop-opacity="0"/>
</linearGradient>
<linearGradient id="paint2_linear_10_2" x1="140.903" y1="54.0683" x2="63.8635" y2="293.662" gradientUnits="userSpaceOnUse">
<stop stop-color="#F9FAFB"/>
<stop offset="1" stop-color="white"/>
</linearGradient>
<linearGradient id="paint3_linear_10_2" x1="129.505" y1="87.4883" x2="153.36" y2="47.6335" gradientUnits="userSpaceOnUse">
<stop stop-color="#D1D5DB"/>
<stop offset="1" stop-color="#D1D5DB" stop-opacity="0"/>
</linearGradient>
<linearGradient id="paint4_linear_10_2" x1="238.698" y1="60.2937" x2="102.271" y2="271.785" gradientUnits="userSpaceOnUse">
<stop stop-color="#F9FAFB"/>
<stop offset="1" stop-color="white"/>
</linearGradient>
<linearGradient id="paint5_linear_10_2" x1="219.038" y1="89.6251" x2="252.395" y2="57.3023" gradientUnits="userSpaceOnUse">
<stop stop-color="#D1D5DB"/>
<stop offset="1" stop-color="#D1D5DB" stop-opacity="0"/>
</linearGradient>
<clipPath id="clip0_10_2">
<rect width="300" height="300" fill="white"/>
</clipPath>
</defs>
</svg>
