<svg xmlns="http://www.w3.org/2000/svg" viewBox="0 0 340 140"><defs><style>.cls-1{isolation:isolate;}.cls-2{opacity:0.3;}.cls-3{fill:#a6e0ed;}.cls-4{fill:#e2e2e2;mix-blend-mode:soft-light;}.cls-5{opacity:0.7;}.cls-6{opacity:0.6;}.cls-7{fill:#eff5f8;}.cls-8{fill:#cdebfc;}.cls-9{opacity:0.4;}.cls-10{fill:#e3b462;}.cls-11{fill:#0aa5e3;}.cls-12{fill:#32b475;}.cls-13{fill:#fff;stroke-miterlimit:10;}.cls-13,.cls-20,.cls-21{stroke:#3273ad;}.cls-13,.cls-21{stroke-width:0.75px;}.cls-14{fill:#3273ad;}.cls-15{opacity:0.5;}.cls-16{fill:#8bb7d8;}.cls-17{fill:#fad264;}.cls-18{fill:#ffe592;}.cls-19{fill:#104d7a;}.cls-20{fill:none;}.cls-20,.cls-21{stroke-linecap:round;stroke-linejoin:round;}.cls-21{fill:#caedff;}</style></defs><title>accepted-icon</title><g class="cls-1"><g id="Layer_1" data-name="Layer 1"><g class="cls-2"><path class="cls-3" d="M218.81,36.59a4.18,4.18,0,0,0-2.94-1.25h-82a3.9,3.9,0,0,0-2.81,1.25,4,4,0,0,0-1.06,3V84.39a4.88,4.88,0,0,0,1.06,3.33,4.36,4.36,0,0,0,2.81,1.61h82a4.64,4.64,0,0,0,2.94-1.61A5,5,0,0,0,220,84.39V39.56A4.13,4.13,0,0,0,218.81,36.59Z"/><path class="cls-4" d="M133.87,35.33a3.9,3.9,0,0,0-2.81,1.25,4,4,0,0,0-1.06,3V84.39a4.88,4.88,0,0,0,1.06,3.33,4.36,4.36,0,0,0,2.81,1.61h10.56s3.06-4.35,7.89-9.88a209.38,209.38,0,0,1,20.44-20.81c1.38-1.19,2.85-2.44,4.34-3.58.57-.43,1.14-.91,1.73-1.33,1.45-1.06,2.93-2.12,4.43-3.12.65-.43,1.3-.91,2-1.34a215.17,215.17,0,0,1,25.6-14Z"/></g><g class="cls-5"><g class="cls-6"><path class="cls-7" d="M248.35,99.09h-21a1.84,1.84,0,1,0,0,3.69h2.73a1.84,1.84,0,0,1,0,3.69h-6a1.84,1.84,0,1,0,0,3.69h21a1.84,1.84,0,0,0,0-3.69h-5.72a1.84,1.84,0,1,1,0-3.69h9a1.84,1.84,0,0,0,0-3.69Z"/><path class="cls-7" d="M65,102.32H92.41a2.06,2.06,0,0,0,0-4.12h-7a2.06,2.06,0,0,1,0-4.12h4.4a2.06,2.06,0,0,0,0-4.12H72a2.06,2.06,0,0,0,0,4.12h3a2.06,2.06,0,0,1,0,4.12H65a2.06,2.06,0,0,0,0,4.12Z"/><path class="cls-7" d="M268.49,49.39h22.14a1.66,1.66,0,0,0,0-3.33h-5.68a1.66,1.66,0,0,1,0-3.33h3.56a1.66,1.66,0,0,0,0-3.33H274.17a1.66,1.66,0,0,0,0,3.33h2.41a1.66,1.66,0,0,1,0,3.33h-8.09a1.66,1.66,0,0,0,0,3.33Z"/><g class="cls-5"><path class="cls-8" d="M45.48,56.57h5.81a.47.47,0,0,0,.47-.49,4.27,4.27,0,0,1,1.14-3.26c1.77-1.82,5-1.8,5-1.81a.53.53,0,0,0,.36-.16.48.48,0,0,0,.11-.38,9.84,9.84,0,0,1,2-6.76,7.79,7.79,0,0,1,6.14-2.43A7.2,7.2,0,0,1,72,43.33c2.4,2.51,2.26,6.5,2.26,6.54a.48.48,0,0,0,.19.4.48.48,0,0,0,.44.07,6.65,6.65,0,0,1,5.61.26c2.84,1.65,3.64,5.54,3.65,5.58a.48.48,0,0,0,.47.38H96a.48.48,0,1,0,0-1H85c-.29-1.1-1.32-4.27-4-5.83a7.29,7.29,0,0,0-5.78-.53,10.44,10.44,0,0,0-2.51-6.57,8.1,8.1,0,0,0-6.09-2.36,8.72,8.72,0,0,0-6.86,2.75,10.73,10.73,0,0,0-2.31,7,8.31,8.31,0,0,0-5.19,2.08,5.06,5.06,0,0,0-1.41,3.47H45.48a.48.48,0,0,0,0,1Z"/></g><g class="cls-5"><path class="cls-8" d="M127,26.76h2.9a.24.24,0,0,0,.24-.25,2.14,2.14,0,0,1,.57-1.63,4,4,0,0,1,2.5-.91.26.26,0,0,0,.18-.08.24.24,0,0,0,.06-.19,4.92,4.92,0,0,1,1-3.38,3.89,3.89,0,0,1,3.07-1.21,3.6,3.6,0,0,1,2.7,1,5,5,0,0,1,1.13,3.27.24.24,0,0,0,.09.2.24.24,0,0,0,.22,0,3.32,3.32,0,0,1,2.81.13,4.61,4.61,0,0,1,1.82,2.79.24.24,0,0,0,.23.19h5.71a.24.24,0,0,0,0-.48h-5.52a4.88,4.88,0,0,0-2-2.92,3.64,3.64,0,0,0-2.89-.26,5.22,5.22,0,0,0-1.25-3.29,4.05,4.05,0,0,0-3-1.18A4.36,4.36,0,0,0,134.12,20a5.36,5.36,0,0,0-1.16,3.5,4.15,4.15,0,0,0-2.59,1,2.53,2.53,0,0,0-.71,1.73H127a.24.24,0,0,0,0,.48Z"/></g><g class="cls-5"><path class="cls-8" d="M229.15,25.22h0l10-.45a1.16,1.16,0,0,0,.73-.1,1.2,1.2,0,0,0,.36-.87c0-.07,0-.13,0-.16a8.69,8.69,0,0,1,.34-1,6.56,6.56,0,0,1,.89-1.54,5.56,5.56,0,0,1,2.34-1.73,6.88,6.88,0,0,1,2.26-.45,7.46,7.46,0,0,1,.83,0,1.25,1.25,0,0,0,.67,0c.35-.13.48-.52.71-1.46,0-.15.07-.27.09-.34a17.94,17.94,0,0,1,1-2.28,11.87,11.87,0,0,1,2.28-3.15,8.76,8.76,0,0,1,5.19-2.42,11.55,11.55,0,0,1,10.6,5.07,12.59,12.59,0,0,1,1.87,7.8.48.48,0,0,0,.95.1,13.57,13.57,0,0,0-2-8.41,12.37,12.37,0,0,0-11.5-5.5A9.7,9.7,0,0,0,251,11a12.8,12.8,0,0,0-2.46,3.4,18.81,18.81,0,0,0-1,2.4c0,.08-.07.23-.11.42s-.13.52-.2.74L247,18a9,9,0,0,0-.93,0,7.85,7.85,0,0,0-2.57.52,6.52,6.52,0,0,0-2.74,2,7.48,7.48,0,0,0-1,1.77,9.69,9.69,0,0,0-.38,1.11c0,.06,0,.16-.05.27l0,.17h-.17l-10,.45a.47.47,0,0,0,0,.95Z"/></g></g><g class="cls-9"><g class="cls-2"><path class="cls-10" d="M281.1,99.49a4,4,0,1,1,4-4A4,4,0,0,1,281.1,99.49Zm0-6.8a2.83,2.83,0,1,0,2.83,2.83A2.84,2.84,0,0,0,281.1,92.69Z"/></g><path class="cls-11" d="M251,56.17a3.5,3.5,0,1,1,3.5-3.5A3.5,3.5,0,0,1,251,56.17Zm0-6.07a2.57,2.57,0,1,0,2.57,2.57A2.57,2.57,0,0,0,251,50.11Z"/><path class="cls-12" d="M83.47,66.65A4.63,4.63,0,1,1,88.1,62,4.63,4.63,0,0,1,83.47,66.65Zm0-8a3.4,3.4,0,1,0,3.4,3.4A3.4,3.4,0,0,0,83.47,58.62Z"/><path class="cls-12" d="M269.16,69.71a3.5,3.5,0,1,1,3.5-3.5A3.5,3.5,0,0,1,269.16,69.71Zm0-6.07a2.57,2.57,0,1,0,2.57,2.57A2.57,2.57,0,0,0,269.16,63.64Z"/><path class="cls-12" d="M249.86,76.78A2.11,2.11,0,1,1,252,74.68,2.11,2.11,0,0,1,249.86,76.78Zm0-3.28A1.18,1.18,0,1,0,251,74.68,1.18,1.18,0,0,0,249.86,73.5Z"/><path class="cls-12" d="M104.83,87.87a2.79,2.79,0,1,1,2.79-2.79A2.79,2.79,0,0,1,104.83,87.87Zm0-4.34a1.56,1.56,0,1,0,1.56,1.56A1.56,1.56,0,0,0,104.83,83.52Z"/><path class="cls-10" d="M176.55,26a1.64,1.64,0,1,1,1.64-1.64A1.64,1.64,0,0,1,176.55,26Zm0-2.77a1.12,1.12,0,1,0,1.12,1.12A1.12,1.12,0,0,0,176.55,23.23Z"/><path class="cls-11" d="M243.53,103.95a3.5,3.5,0,1,1,3.5-3.5A3.5,3.5,0,0,1,243.53,103.95Zm0-6.07a2.57,2.57,0,1,0,2.57,2.57A2.57,2.57,0,0,0,243.53,97.88Z"/><path class="cls-10" d="M86.87,107.59A4.63,4.63,0,1,1,91.5,103,4.63,4.63,0,0,1,86.87,107.59Zm0-8a3.4,3.4,0,1,0,3.4,3.4A3.4,3.4,0,0,0,86.87,99.56Z"/><path class="cls-11" d="M59.56,110.36a4.29,4.29,0,1,1,4.29-4.29A4.3,4.3,0,0,1,59.56,110.36Zm0-7.36a3.07,3.07,0,1,0,3.07,3.07A3.07,3.07,0,0,0,59.56,103Z"/></g></g><path class="cls-13" d="M152.58,79.36V55.46A1.47,1.47,0,0,1,154.06,54h40.53a1.47,1.47,0,0,1,1.48,1.45V79.7"/><path class="cls-14" d="M218.79,36.25a4.61,4.61,0,0,0-3.28-1.36h-82a4.64,4.64,0,0,0-4.64,4.64v45.7a4.64,4.64,0,0,0,4.64,4.64h20l-.45-.83H133.5a3.81,3.81,0,0,1-3.81-3.81V39.54a3.81,3.81,0,0,1,3.81-3.81h82a3.81,3.81,0,0,1,3.81,3.81v45.7a3.81,3.81,0,0,1-3.81,3.81H196.67l-.45.83H215.5a4.64,4.64,0,0,0,4.64-4.64V39.54A4.61,4.61,0,0,0,218.79,36.25Z"/><g class="cls-15"><path class="cls-14" d="M216.63,43.06a.42.42,0,1,1-.85,0A3.8,3.8,0,0,0,212,39.26a.42.42,0,0,1,0-.85,4.65,4.65,0,0,1,4.65,4.65Z"/></g><path class="cls-16" d="M166.86,64l2-12a.39.39,0,0,0-.09-.33v0l-.09-.05c-.14,0-.27.08-.3.26l-2,12a.34.34,0,0,0,.19.4h.06A.29.29,0,0,0,166.86,64Z"/><path class="cls-16" d="M168.81,51.63v0Z"/><path class="cls-16" d="M169.24,50.83l.59-3.47a.34.34,0,0,0-.19-.4c-.14,0-.27.08-.3.26l-.59,3.47a.34.34,0,0,0,.19.4H169A.29.29,0,0,0,169.24,50.83Z"/><path class="cls-16" d="M170.11,46.34l.17-1a.34.34,0,0,0-.19-.4c-.13,0-.27.08-.3.26l-.17,1a.34.34,0,0,0,.19.4h.06A.29.29,0,0,0,170.11,46.34Z"/><path class="cls-16" d="M181.59,51.51c0-.18-.17-.29-.3-.25a.36.36,0,0,0-.19.41l.56,3.27.61.53Z"/><path class="cls-16" d="M183.61,63.4l-1.35-7.93-.61-.53,1.46,8.62a.27.27,0,0,0,.24.26h.06A.36.36,0,0,0,183.61,63.4Z"/><path class="cls-16" d="M181,50.79a.27.27,0,0,1-.24-.26l-.58-3.44a.36.36,0,0,1,.19-.41c.14,0,.27.07.3.25l.58,3.44a.36.36,0,0,1-.19.41Z"/><path class="cls-16" d="M180.16,46.35a.27.27,0,0,1-.24-.26l-.16-1a.36.36,0,0,1,.19-.41c.13,0,.27.07.3.25l.16,1a.36.36,0,0,1-.19.41Z"/><path class="cls-16" d="M175.62,61.37V58.74l-.5-.54v3.18c0,.19.11.33.25.33A.31.31,0,0,0,175.62,61.37Z"/><path class="cls-16" d="M175.63,51.54c0-.19-.11-.33-.25-.33a.31.31,0,0,0-.25.34V58.2l.5.54Z"/><path class="cls-16" d="M175.13,46.68v2.69l.49.53a.43.43,0,0,0,0-.06V46.67c0-.19-.11-.33-.25-.33A.31.31,0,0,0,175.13,46.68Z"/><path class="cls-16" d="M175.38,50.19c.12,0,.22-.13.24-.28l-.49-.53v.49C175.13,50,175.24,50.19,175.38,50.19Z"/><path class="cls-16" d="M175.38,45.88c-.14,0-.25-.14-.25-.33v-.76a.31.31,0,0,1,.25-.34c.14,0,.25.14.25.33v.76A.31.31,0,0,1,175.38,45.88Z"/><path class="cls-16" d="M175.39,44.27c-.14,0-.25-.14-.25-.33v-.76a.31.31,0,0,1,.25-.34c.14,0,.25.14.25.33v.76A.31.31,0,0,1,175.39,44.27Z"/><path class="cls-17" d="M182,71.36a11.82,11.82,0,1,0,4.12,8.93A11.77,11.77,0,0,0,182,71.36Z"/><path class="cls-18" d="M172.2,77.5c2.62-2.53,6.61-4.67,9.83-6.14a11.82,11.82,0,0,0-17.16,16.06A48,48,0,0,1,172.2,77.5Z"/><path class="cls-19" d="M174.29,68.15A12.17,12.17,0,1,0,186.5,80.29,12.19,12.19,0,0,0,174.29,68.15Zm.07,23.65A11.47,11.47,0,1,1,185.8,80.29,11.49,11.49,0,0,1,174.36,91.8Z"/><path class="cls-19" d="M175.53,92.44a.35.35,0,0,1-.15-.66c.11-.05,8.67-4.46,4.36-21.69a.35.35,0,1,1,.68-.17c4.46,17.84-4.35,22.31-4.73,22.49A.35.35,0,0,1,175.53,92.44Z"/><path class="cls-19" d="M183.56,88.06a.35.35,0,0,1-.34-.29c-.18-1-1-3.75-2.36-4-1.8-.27-3.8.07-7.65,1.31l-1.47.48a20.49,20.49,0,0,1-7.35,1.48.35.35,0,0,1,0-.7h.15a19.9,19.9,0,0,0,7-1.45l1.48-.49c4-1.28,6-1.63,8-1.34,2.2.33,2.92,4.36,2.95,4.54a.35.35,0,0,1-.28.4Z"/><path class="cls-19" d="M181.21,76.94c-1.43,0-3.32-1.24-5.51-2.69-2.52-1.66-5.37-3.54-7.73-3.53a.35.35,0,1,1,0-.7c2.57,0,5.52,1.93,8.12,3.65,2,1.33,3.91,2.58,5.13,2.57,2.64,0,3.21-1.51,3.24-1.58a.35.35,0,0,1,.66.23C185.07,75,184.36,76.93,181.21,76.94Z"/><path class="cls-19" d="M186,82.33l-.12,0c-.1,0-9.75-3.55-14-4s-8.39,1-9,3.28a.35.35,0,1,1-.67-.19c.74-2.63,4.94-4.25,9.77-3.78,4.37.42,13.81,3.86,14.21,4a.35.35,0,0,1-.12.68Z"/><path class="cls-20" d="M154.14,85.39s11,15.54,9.58,30.54"/><path class="cls-20" d="M194.57,85.39s-11,15.54-9.58,30.54"/><line class="cls-20" x1="163.85" y1="107.98" x2="167.52" y2="115.93"/><line class="cls-20" x1="161.38" y1="85.04" x2="174.47" y2="115.93"/><line class="cls-20" x1="168.24" y1="85.04" x2="181.34" y2="115.93"/><line class="cls-20" x1="175.11" y1="85.04" x2="184.86" y2="108.05"/><line class="cls-20" x1="181.62" y1="85.04" x2="187.59" y2="99.12"/><line class="cls-20" x1="188.85" y1="85.04" x2="191.3" y2="90.83"/><line class="cls-20" x1="184.86" y1="108.05" x2="181.34" y2="115.93"/><line class="cls-20" x1="187.49" y1="85.04" x2="174.39" y2="115.93"/><line class="cls-20" x1="180.62" y1="85.04" x2="167.52" y2="115.93"/><line class="cls-20" x1="174.11" y1="85.04" x2="163.69" y2="109.62"/><line class="cls-20" x1="167.24" y1="85.04" x2="161.19" y2="99.31"/><line class="cls-20" x1="160.01" y1="85.04" x2="157.49" y2="90.99"/><rect class="cls-21" x="149.5" y="80.9" width="50" height="5" rx="2.24" ry="2.24"/></g></g></svg>