<svg xmlns="http://www.w3.org/2000/svg" viewBox="0 0 330 150"><defs><style>.cls-1{isolation:isolate;}.cls-2{opacity:0.7;}.cls-3{fill:#cdebfc;}.cls-4{fill:#eff5f8;}.cls-12,.cls-5{opacity:0.6;}.cls-6{opacity:0.3;}.cls-7{fill:#e3b462;}.cls-8{opacity:0.39;}.cls-9{fill:#0aa5e3;}.cls-10{fill:#32b475;}.cls-11,.cls-19{fill:#fff;}.cls-11,.cls-13{stroke:#3273ad;stroke-miterlimit:10;}.cls-11{stroke-width:0.27px;}.cls-12,.cls-15{fill:#eaeaea;}.cls-13,.cls-20{fill:#caedff;}.cls-13{stroke-width:0.3px;}.cls-14{fill:#92cfe8;}.cls-16{fill:#d1d1d1;}.cls-17,.cls-18{fill:#d3d3d3;}.cls-18{opacity:0.3;mix-blend-mode:multiply;}.cls-19{stroke:#165e93;stroke-linecap:round;stroke-linejoin:round;stroke-width:0.25px;}.cls-21{fill:#3273ad;}.cls-22{fill:#fad264;}.cls-23{fill:#a0d9ea;mix-blend-mode:darken;}</style></defs><title>Artboard 1</title><g class="cls-1"><g id="Layer_1" data-name="Layer 1"><g class="cls-2"><path class="cls-3" d="M118,23.94h2.9a.24.24,0,0,0,.24-.25,2.14,2.14,0,0,1,.57-1.63,4,4,0,0,1,2.5-.91.26.26,0,0,0,.18-.08.24.24,0,0,0,.06-.19,4.92,4.92,0,0,1,1-3.38,3.89,3.89,0,0,1,3.07-1.21,3.6,3.6,0,0,1,2.7,1,5,5,0,0,1,1.13,3.27.24.24,0,0,0,.09.2.24.24,0,0,0,.22,0,3.32,3.32,0,0,1,2.81.13,4.61,4.61,0,0,1,1.82,2.79.24.24,0,0,0,.23.19h5.71a.24.24,0,0,0,0-.48h-5.52a4.88,4.88,0,0,0-2-2.92,3.64,3.64,0,0,0-2.89-.26A5.22,5.22,0,0,0,131.62,17a4.05,4.05,0,0,0-3-1.18,4.36,4.36,0,0,0-3.43,1.38,5.36,5.36,0,0,0-1.16,3.5,4.15,4.15,0,0,0-2.59,1,2.53,2.53,0,0,0-.71,1.73H118a.24.24,0,0,0,0,.48Z"/></g><g class="cls-2"><path class="cls-4" d="M188.06,98.85h35.7a3.14,3.14,0,0,0,0-6.27h-4.65a3.14,3.14,0,0,1,0-6.27h10.17a3.14,3.14,0,1,0,0-6.27h-35.7a3.14,3.14,0,1,0,0,6.27h9.74a3.14,3.14,0,1,1,0,6.27H188.06a3.14,3.14,0,0,0,0,6.27Z"/></g><g class="cls-2"><path class="cls-4" d="M87.87,95.07H46.75a3.09,3.09,0,1,0,0,6.18H57.3a3.09,3.09,0,0,1,0,6.18h-6.6a3.09,3.09,0,0,0,0,6.18H77.32a3.09,3.09,0,0,0,0-6.18H72.85a3.09,3.09,0,0,1,0-6.18h15a3.09,3.09,0,1,0,0-6.18Z"/></g><g class="cls-2"><path class="cls-4" d="M271.74,34.51H218.28a4,4,0,0,0,0,8H232a4,4,0,1,1,0,8H223.4a4,4,0,1,0,0,8H258a4,4,0,0,0,0-8h-5.82a4,4,0,0,1,0-8h19.53a4,4,0,1,0,0-8Z"/></g><g class="cls-5"><path class="cls-4" d="M111.48,41.4H61.34a3.77,3.77,0,0,0,0,7.53H74.2a3.77,3.77,0,1,1,0,7.53H66.15a3.77,3.77,0,0,0,0,7.53H98.62a3.77,3.77,0,1,0,0-7.53H93.16a3.77,3.77,0,0,1,0-7.53h18.31a3.77,3.77,0,0,0,0-7.53Z"/></g><g class="cls-2"><path class="cls-3" d="M39,39.22h5.81a.47.47,0,0,0,.47-.49,4.27,4.27,0,0,1,1.14-3.26c1.77-1.82,5-1.8,5-1.81a.53.53,0,0,0,.36-.16.48.48,0,0,0,.11-.38,9.84,9.84,0,0,1,2-6.76,7.79,7.79,0,0,1,6.14-2.43A7.2,7.2,0,0,1,65.55,26c2.4,2.51,2.26,6.5,2.26,6.54a.48.48,0,0,0,.19.4.48.48,0,0,0,.44.07,6.65,6.65,0,0,1,5.61.26c2.84,1.65,3.64,5.54,3.65,5.58a.48.48,0,0,0,.47.38H89.58a.48.48,0,1,0,0-1h-11c-.29-1.1-1.32-4.27-4-5.83a7.29,7.29,0,0,0-5.78-.53,10.44,10.44,0,0,0-2.51-6.57A8.1,8.1,0,0,0,60.15,23a8.72,8.72,0,0,0-6.86,2.75,10.73,10.73,0,0,0-2.31,7,8.31,8.31,0,0,0-5.19,2.08,5.06,5.06,0,0,0-1.41,3.47H39a.48.48,0,1,0,0,1Z"/></g><g class="cls-2"><path class="cls-3" d="M264.26,51.84h0l10-.45a1.16,1.16,0,0,0,.73-.1,1.2,1.2,0,0,0,.36-.87c0-.07,0-.13,0-.16a8.69,8.69,0,0,1,.34-1,6.56,6.56,0,0,1,.89-1.54A5.56,5.56,0,0,1,279,46a6.88,6.88,0,0,1,2.26-.45,7.46,7.46,0,0,1,.83,0,1.25,1.25,0,0,0,.67,0c.35-.13.48-.52.71-1.46,0-.15.07-.27.09-.34a17.94,17.94,0,0,1,1-2.28,11.87,11.87,0,0,1,2.28-3.15A8.76,8.76,0,0,1,292,35.93,11.55,11.55,0,0,1,302.56,41a12.59,12.59,0,0,1,1.87,7.8.48.48,0,0,0,.95.1,13.57,13.57,0,0,0-2-8.41,12.37,12.37,0,0,0-11.5-5.5,9.7,9.7,0,0,0-5.75,2.68,12.8,12.8,0,0,0-2.46,3.4,18.81,18.81,0,0,0-1,2.4c0,.08-.07.23-.11.42s-.13.52-.2.74l-.19,0a9,9,0,0,0-.93,0,7.85,7.85,0,0,0-2.57.52,6.52,6.52,0,0,0-2.74,2,7.48,7.48,0,0,0-1,1.77,9.69,9.69,0,0,0-.38,1.11c0,.06,0,.16-.05.27l0,.17h-.17l-10,.45a.47.47,0,0,0,0,.95Z"/></g><g class="cls-6"><path class="cls-7" d="M260.81,116.86a5.25,5.25,0,1,1,5.25-5.25A5.26,5.26,0,0,1,260.81,116.86Zm0-9a3.75,3.75,0,1,0,3.75,3.75A3.75,3.75,0,0,0,260.81,107.86Z"/></g><g class="cls-8"><path class="cls-9" d="M234.65,57.5a5.66,5.66,0,1,1,5.66-5.66A5.66,5.66,0,0,1,234.65,57.5Zm0-9.82a4.16,4.16,0,1,0,4.16,4.16A4.16,4.16,0,0,0,234.65,47.68Z"/><path class="cls-10" d="M58.66,82a5.66,5.66,0,1,1,5.66-5.66A5.66,5.66,0,0,1,58.66,82Zm0-9.82a4.16,4.16,0,1,0,4.16,4.16A4.16,4.16,0,0,0,58.66,72.2Z"/><path class="cls-10" d="M264,79.4a5.66,5.66,0,1,1,5.66-5.66A5.66,5.66,0,0,1,264,79.4Zm0-9.82a4.16,4.16,0,1,0,4.16,4.16A4.16,4.16,0,0,0,264,69.58Z"/><path class="cls-10" d="M232.74,90.84a3.41,3.41,0,1,1,3.41-3.41A3.41,3.41,0,0,1,232.74,90.84Zm0-5.31a1.91,1.91,0,1,0,1.91,1.91A1.91,1.91,0,0,0,232.74,85.53Z"/><path class="cls-10" d="M95.79,88.94a3.41,3.41,0,1,1,3.41-3.41A3.41,3.41,0,0,1,95.79,88.94Zm0-5.31a1.91,1.91,0,1,0,1.91,1.91A1.91,1.91,0,0,0,95.79,83.62Z"/><path class="cls-7" d="M157,17.83a2,2,0,1,1,2-2A2,2,0,0,1,157,17.83Zm0-3.38a1.37,1.37,0,1,0,1.37,1.37A1.38,1.38,0,0,0,157,14.45Z"/><path class="cls-9" d="M222.51,130.82a5.66,5.66,0,1,1,5.66-5.66A5.66,5.66,0,0,1,222.51,130.82Zm0-9.82a4.16,4.16,0,1,0,4.16,4.16A4.16,4.16,0,0,0,222.51,121Z"/><path class="cls-7" d="M108.81,125.16a5.66,5.66,0,1,1,5.66-5.66A5.66,5.66,0,0,1,108.81,125.16Zm0-9.82a4.16,4.16,0,1,0,4.16,4.16A4.16,4.16,0,0,0,108.81,115.35Z"/><path class="cls-9" d="M38.41,129.55a5.25,5.25,0,1,1,5.25-5.25A5.26,5.26,0,0,1,38.41,129.55Zm0-9a3.75,3.75,0,1,0,3.75,3.75A3.75,3.75,0,0,0,38.41,120.55Z"/></g><path class="cls-11" d="M190,106.37l-40.89,5.09a6.82,6.82,0,0,1-7.13-4.94l-14.2-52.17A4.84,4.84,0,0,1,131.86,48l40.89-5.09a6.82,6.82,0,0,1,7.13,4.94L194.07,100A4.84,4.84,0,0,1,190,106.37Z"/><path class="cls-12" d="M197.08,107.74,177.76,94.38c-1-.7-4.21-1-7.13-.64L126.54,99c-2.92.35-4.47,1.2-3.45,1.91l19.33,13.36c1,.7,4.21,1,7.13.64l44.08-5.29C196.56,109.29,198.1,108.44,197.08,107.74Z"/><path class="cls-13" d="M197.93,103.2,181.81,44A6.82,6.82,0,0,0,174.68,39L128,44.85a4.84,4.84,0,0,0-4.07,6.33l16.11,59.22a6.82,6.82,0,0,0,7.13,4.94l46.67-5.81A4.84,4.84,0,0,0,197.93,103.2Z"/><path class="cls-14" d="M190.49,108.13l-39.73,4.94a6.82,6.82,0,0,1-7.13-4.94L129.43,56a4.84,4.84,0,0,1,4.07-6.33l39.73-4.94a6.82,6.82,0,0,1,7.13,4.94l14.2,52.17A4.84,4.84,0,0,1,190.49,108.13Z"/><path class="cls-11" d="M190.74,106.88,149.86,112a6.82,6.82,0,0,1-7.13-4.94l-14.2-52.17a4.84,4.84,0,0,1,4.07-6.33l40.89-5.09a6.82,6.82,0,0,1,7.13,4.94l14.2,52.17A4.84,4.84,0,0,1,190.74,106.88Z"/><path class="cls-15" d="M179.41,63.66l-42.06,5.23A2.24,2.24,0,0,1,135,67.27l-3.54-13a1.59,1.59,0,0,1,1.33-2.08l42.06-5.23a2.24,2.24,0,0,1,2.34,1.62l3.54,13A1.59,1.59,0,0,1,179.41,63.66Z"/><polygon class="cls-16" points="164.17 51.95 145.43 54.28 145.2 53.44 163.94 51.11 164.17 51.95"/><path class="cls-16" d="M161.36,58.42A4.27,4.27,0,0,1,157.77,64a6,6,0,0,1-6.3-4.36,4.27,4.27,0,0,1,3.59-5.59A6,6,0,0,1,161.36,58.42Z"/><polygon class="cls-17" points="180.64 74.35 141.44 79.23 141.12 78.06 180.32 73.19 180.64 74.35"/><polygon class="cls-17" points="181.49 77.48 142.29 82.36 141.97 81.2 181.17 76.32 181.49 77.48"/><polygon class="cls-17" points="182.34 80.61 143.14 85.49 142.82 84.33 182.03 79.45 182.34 80.61"/><polygon class="cls-17" points="183.19 83.75 144 88.63 143.68 87.46 182.88 82.58 183.19 83.75"/><polygon class="cls-17" points="184.05 86.88 144.85 91.76 144.53 90.59 183.73 85.71 184.05 86.88"/><polygon class="cls-17" points="184.9 90.01 145.7 94.89 145.38 93.72 184.58 88.84 184.9 90.01"/><polygon class="cls-17" points="185.75 93.14 146.55 98.02 146.23 96.86 185.43 91.98 185.75 93.14"/><polygon class="cls-17" points="172.36 98.05 147.4 101.15 147.09 99.99 172.05 96.88 172.36 98.05"/><polygon class="cls-17" points="179.78 71.22 140.59 76.1 140.27 74.93 179.47 70.05 179.78 71.22"/><polygon class="cls-17" points="178.93 68.09 139.73 72.97 139.42 71.8 178.62 66.92 178.93 68.09"/><path class="cls-18" d="M196.33,106.35l.9,1.23.6-1.15.29-.74L188.68,100c-.83-.54-1.3-.39-1.44-.33l-.07-.06-1-.65c-.11-.07-.14,0-.06.07a1.35,1.35,0,0,0,.16.18l.19.15,1,.65h0l.45.44a23.88,23.88,0,0,0,2.64,2.3l6.67,4.87Z"/><path class="cls-19" d="M180.4,103.46a.28.28,0,0,0,.37-.16.82.82,0,0,0,0-.44l-.35-2.43a12.23,12.23,0,0,0,1.74,2,9.64,9.64,0,0,1,0-1.29c.15.32.65.3.9,0a1.67,1.67,0,0,0,.35-1l1,.52a6.38,6.38,0,0,0,1.63-1.81"/><path class="cls-20" d="M205.49,69.74a2.09,2.09,0,0,0-3,.55L187.55,92.72c-.9,1.35-.4,4.4-.4,4.4,3.19-.41,4.1-1.64,4.1-1.64l15.26-22.78A2.39,2.39,0,0,0,205.49,69.74Z"/><path class="cls-21" d="M205.59,69.6a2.39,2.39,0,0,0-1.79-.43,2.53,2.53,0,0,0-1.47,1L187.4,92.63C186.48,94,187,97,187,97.15a.17.17,0,0,0,.19.14q.49-.06.9-.15c2.5-.5,3.28-1.51,3.32-1.57l15.27-22.81A2.57,2.57,0,0,0,205.59,69.6Zm.78,3L191.11,95.37s-.9,1.14-3.82,1.55c-.09-.64-.34-3,.4-4.11l14.92-22.43a2.22,2.22,0,0,1,1.26-.88,2,2,0,0,1,1.53.38A2.21,2.21,0,0,1,206.37,72.6Z"/><path class="cls-22" d="M199.73,79.78a.91.91,0,0,1-.94-1.4l6.59-9.9a.91.91,0,1,1,1.52,1l-6.59,9.9A.91.91,0,0,1,199.73,79.78Z"/><path class="cls-21" d="M206,68.26a.74.74,0,0,1,.76,1.14l-6.59,9.9a.74.74,0,0,1-1.24-.82l6.59-9.9a.74.74,0,0,1,.47-.32m-.07-.34a1.08,1.08,0,0,0-.69.46l-6.59,9.9a1.09,1.09,0,0,0,.3,1.51h0a1.09,1.09,0,0,0,1.51-.3l6.59-9.9a1.09,1.09,0,0,0-.3-1.51h0a1.08,1.08,0,0,0-.82-.16Z"/><path class="cls-21" d="M186.27,98.87a.34.34,0,0,1-.35-.53l.94-1.41a.34.34,0,1,1,.57.38l-.94,1.41A.34.34,0,0,1,186.27,98.87Z"/><rect class="cls-21" x="197.06" y="80.03" width="0.34" height="4.65" transform="translate(19.4 200.94) rotate(-56.36)"/><path class="cls-23" d="M187.15,97.12a19.5,19.5,0,0,0,3.66-2.87c1.38-1.5,7.41-11,7.41-11l8.09-11.9a.94.94,0,0,1,.06,1.29c-.5.84-13,19.38-13,19.38s-2.35,4.67-4.29,4.9Z"/></g></g></svg>