<?xml version="1.0" encoding="utf-8"?>
<!-- Generator: Adobe Illustrator 20.1.0, SVG Export Plug-In . SVG Version: 6.00 Build 0)  -->
<svg version="1.1" id="Layer_1" xmlns="http://www.w3.org/2000/svg" xmlns:xlink="http://www.w3.org/1999/xlink" x="0px" y="0px"
	 viewBox="0 0 230 130" style="enable-background:new 0 0 230 130;" xml:space="preserve">
<style type="text/css">
	.st0{fill:none;stroke:#3273AD;stroke-width:0.75;stroke-linecap:round;stroke-linejoin:round;stroke-miterlimit:10;}
	.st1{fill:#3273AD;}
	.st2{fill:#EFF5F8;}
	.st3{opacity:0.7;}
	.st4{fill:#CDEBFC;}
	.st5{opacity:0.3;}
	.st6{fill:#E3B462;}
	.st7{fill:#0AA5E3;}
	.st8{fill:#32B475;}
	.st9{fill:#1E9B5A;}
	.st10{fill:#CAEDFF;stroke:#3273AD;stroke-width:0.75;stroke-linecap:round;stroke-linejoin:round;}
	.st11{fill:#F9D165;stroke:#3174AD;stroke-width:0.75;stroke-miterlimit:10;}
	.st12{fill:#FFFFFF;stroke:#3273AD;stroke-width:0.75;stroke-miterlimit:10;}
	.st13{fill:none;stroke:#3273AD;stroke-linecap:round;stroke-linejoin:round;}
	.st14{fill:#F9D165;stroke:#3174AD;stroke-width:0.5;stroke-miterlimit:10;}
</style>
<title>batch-closed</title>
<g>
	<line class="st0" x1="43.5" y1="127" x2="180.5" y2="127"/>
	<g>
		<path class="st1" d="M94.8,121.9L94.8,121.9c0,1.2-0.2,2.4-0.4,3.6c-0.1,0.4-0.5,0.7-0.9,0.7c-0.9,0-1.9,0-2.9,0c0-0.2,0-1,0-2.1
			c0-0.7,0-1.6,0-2.6C92,121.6,93.4,121.7,94.8,121.9z"/>
		<path class="st1" d="M90.4,121.7c0,0.9,0,1.8,0,2.6c0,1.1,0,1.8,0,2.1l0,0c-1.4,0-2.8,0.1-4.2,0.1c0-1.1,0.1-2.9,0.2-4.7h0.4
			C88,121.6,89.3,121.6,90.4,121.7z"/>
		<path class="st1" d="M86.2,121.6c-0.1,1.9-0.2,3.6-0.2,4.7l0,0c-1.4,0-2.7,0-3.9-0.1l0,0c-0.1-1.6,0-3.1,0.1-4.7
			C83.5,121.6,84.8,121.6,86.2,121.6z"/>
		<path class="st1" d="M82.1,121.6c-0.1,1.6-0.2,3.2-0.1,4.7c-1.1,0-2.1-0.2-3.2-0.4c-0.4-0.1-0.6-0.5-0.6-0.9c0-1,0.1-2.3,0.2-3.6
			c0.4,0.1,0.9,0.1,1.5,0.1C80.5,121.5,81.3,121.6,82.1,121.6z"/>
		<g>
			<path class="st2" d="M119.2,73.3H92.1c-1.3,0-2.4,1.1-2.4,2.4s1.1,2.4,2.4,2.4c0,0,0,0,0,0h3.5c1.3,0,2.4,1.1,2.4,2.4
				c0,1.3-1.1,2.4-2.4,2.4H88c-1.3,0-2.4,1.1-2.4,2.4c0,1.3,1.1,2.4,2.4,2.4c0,0,0,0,0,0H115c1.3,0,2.4-1.1,2.4-2.4
				c0-1.3-1.1-2.4-2.4-2.4h-7.4c-1.3,0-2.4-1.1-2.4-2.4c0-1.3,1.1-2.4,2.4-2.4h11.6c1.3,0,2.4-1.1,2.4-2.4
				C121.6,74.3,120.5,73.3,119.2,73.3C119.2,73.3,119.2,73.3,119.2,73.3z"/>
			<path class="st2" d="M121.3,39.3h25.2c1,0,1.9-0.8,1.9-1.9c0-1-0.8-1.9-1.9-1.9H140c-1,0-1.9-0.8-1.9-1.9c0-1,0.8-1.9,1.9-1.9
				c0,0,0,0,0,0h4.1c1,0.1,1.9-0.7,2-1.8c0.1-1-0.7-1.9-1.8-2c-0.1,0-0.2,0-0.2,0h-16.3c-1,0-1.9,0.8-1.9,1.9c0,1,0.8,1.9,1.9,1.9
				c0,0,0,0,0,0h2.7c1,0,1.9,0.8,1.9,1.9s-0.8,1.9-1.9,1.9c0,0,0,0,0,0h-9.2c-1,0-1.9,0.8-1.9,1.9C119.4,38.5,120.2,39.3,121.3,39.3
				C121.3,39.3,121.3,39.3,121.3,39.3L121.3,39.3z"/>
			<g class="st3">
				<path class="st4" d="M90.8,17.2L90.8,17.2l7.6-0.3c0.2,0,0.4,0,0.6-0.1c0.2-0.2,0.3-0.4,0.3-0.7c0,0,0-0.1,0-0.1
					c0.1-0.3,0.2-0.5,0.3-0.8c0.2-0.4,0.4-0.8,0.7-1.2c0.5-0.6,1.1-1,1.8-1.3c0.5-0.2,1.1-0.3,1.7-0.3c0.2,0,0.4,0,0.6,0
					c0.2,0,0.3,0,0.5,0c0.3-0.1,0.4-0.4,0.5-1.1c0-0.1,0-0.2,0.1-0.3c0.2-0.6,0.4-1.2,0.7-1.7c0.4-0.9,1-1.7,1.7-2.4
					c1.1-1,2.5-1.7,3.9-1.8c3.2-0.3,6.3,1.2,8,3.8c1.1,1.8,1.6,3.8,1.4,5.9c0,0.2,0.2,0.3,0.4,0.3c0.1,0,0.2-0.1,0.3-0.2
					c0.2-2.2-0.3-4.5-1.5-6.4c-1.9-2.9-5.3-4.5-8.7-4.2c-1.6,0.2-3.2,0.9-4.4,2c-0.8,0.8-1.4,1.6-1.9,2.6c-0.3,0.6-0.6,1.2-0.8,1.8
					c0,0.1,0,0.2-0.1,0.3c0,0.1-0.1,0.4-0.2,0.6h-0.1c-0.2,0-0.5,0-0.7,0c-0.7,0-1.3,0.2-1.9,0.4c-0.8,0.3-1.5,0.9-2.1,1.5
					c-0.3,0.4-0.6,0.9-0.8,1.3c-0.1,0.3-0.2,0.6-0.3,0.8c0,0,0,0.1,0,0.2v0.1h-0.1l-7.6,0.3c-0.2,0.1-0.3,0.3-0.2,0.4
					C90.5,17.1,90.6,17.2,90.8,17.2L90.8,17.2z"/>
			</g>
			<g class="st5">
				<g class="st5">
					<path class="st6" d="M129.2,85.9c-2.2,0-4-1.8-4-4c0-2.2,1.8-4,4-4c2.2,0,4,1.8,4,4v0C133.2,84.1,131.4,85.9,129.2,85.9z
						 M129.2,79.1c-1.6,0-2.8,1.3-2.8,2.8s1.3,2.8,2.8,2.8c1.6,0,2.8-1.3,2.8-2.8C132.1,80.3,130.8,79.1,129.2,79.1L129.2,79.1z"/>
				</g>
				<path class="st7" d="M109.4,40.9c-2.4,0-4.3-1.9-4.3-4.3s1.9-4.3,4.3-4.3s4.3,1.9,4.3,4.3C113.7,38.9,111.7,40.9,109.4,40.9
					L109.4,40.9z M109.4,33.4c-1.7,0-3.2,1.4-3.2,3.2c0,1.7,1.4,3.2,3.2,3.2c1.7,0,3.2-1.4,3.2-3.2c0,0,0,0,0,0
					C112.5,34.8,111.1,33.4,109.4,33.4z"/>
				<path class="st8" d="M131.6,57.5c-2.4,0-4.3-1.9-4.3-4.3c0-2.4,1.9-4.3,4.3-4.3c2.4,0,4.3,1.9,4.3,4.3c0,0,0,0,0,0
					C135.9,55.6,134,57.5,131.6,57.5z M131.6,50c-1.7,0-3.2,1.4-3.2,3.2c0,1.7,1.4,3.2,3.2,3.2c1.7,0,3.2-1.4,3.2-3.2
					C134.8,51.4,133.4,50,131.6,50L131.6,50z"/>
				<path class="st8" d="M107.9,66.2c-1.4,0-2.6-1.1-2.6-2.6c0-1.4,1.1-2.6,2.6-2.6c1.4,0,2.6,1.1,2.6,2.6c0,0,0,0,0,0
					C110.5,65,109.3,66.2,107.9,66.2z M107.9,62.1c-0.8,0-1.4,0.6-1.4,1.4c0,0.8,0.6,1.4,1.4,1.4c0.8,0,1.4-0.6,1.4-1.4
					C109.4,62.8,108.7,62.1,107.9,62.1C107.9,62.1,107.9,62.1,107.9,62.1z"/>
			</g>
			<g class="st3">
				<path class="st4" d="M44.4,53.8h4.8c0.2,0,0.4-0.2,0.4-0.4c0,0,0,0,0,0c-0.1-1,0.3-2,0.9-2.7c1.5-1.5,4.1-1.5,4.1-1.5
					c0.1,0,0.2-0.1,0.3-0.1c0.1-0.1,0.1-0.2,0.1-0.3c-0.1-2,0.5-4,1.7-5.6c1.2-1.3,2.9-2,5.1-2c1.7-0.1,3.3,0.5,4.5,1.7
					c2,2.1,1.9,5.4,1.9,5.4c0,0.1,0.1,0.3,0.2,0.3c0.1,0.1,0.2,0.1,0.4,0.1c1.5-0.6,3.2-0.5,4.6,0.2c2.3,1.4,3,4.6,3,4.6
					c0,0.2,0.2,0.3,0.4,0.3h9.5c0.2,0,0.4-0.2,0.4-0.4c0-0.2-0.2-0.4-0.4-0.4H77c-0.2-0.9-1.1-3.5-3.3-4.8c-1.5-0.8-3.2-1-4.8-0.4
					c0-2-0.8-3.9-2.1-5.4c-1.3-1.3-3.2-2-5-2c-2.4,0-4.3,0.8-5.7,2.3c-1.3,1.6-2,3.7-1.9,5.8c-0.9,0.1-3,0.4-4.3,1.7
					c-0.7,0.8-1.2,1.8-1.2,2.9h-4.4c-0.2,0-0.4,0.2-0.4,0.4C44,53.6,44.2,53.8,44.4,53.8L44.4,53.8L44.4,53.8z"/>
			</g>
			<g class="st5">
				<path class="st8" d="M65.8,60.5c-0.8,1.3-2.5,1.8-3.8,1.1c-1.3-0.8-1.8-2.5-1.1-3.8c0.8-1.3,2.4-1.8,3.8-1.1
					C66.1,57.4,66.6,59.1,65.8,60.5C65.8,60.5,65.8,60.5,65.8,60.5z M62,58.4c-0.4,0.8-0.2,1.7,0.6,2.1c0.8,0.4,1.7,0.2,2.1-0.6
					c0.4-0.8,0.2-1.7-0.6-2.1c0,0,0,0,0,0C63.4,57.4,62.4,57.6,62,58.4L62,58.4z"/>
			</g>
			<g class="st5">
				<path class="st6" d="M73.4,91.5c-1.3,2.3-4.1,3.1-6.4,1.8c-2.3-1.3-3.1-4.1-1.8-6.4c1.3-2.3,4.1-3.1,6.4-1.8c0,0,0,0,0,0
					C73.9,86.4,74.7,89.2,73.4,91.5z M66.4,87.5c-0.9,1.7-0.3,3.7,1.3,4.7c1.7,0.9,3.7,0.3,4.7-1.3c0.9-1.7,0.3-3.7-1.3-4.7
					c0,0,0,0,0,0C69.4,85.3,67.3,85.9,66.4,87.5z"/>
			</g>
			<g class="st5">
				<path class="st7" d="M165.3,104.8c-2.4,0-4.3-1.9-4.3-4.3s1.9-4.3,4.3-4.3s4.3,1.9,4.3,4.3C169.7,102.9,167.7,104.8,165.3,104.8
					z M165.3,97.4c-1.7,0-3.1,1.4-3.1,3.1c0,1.7,1.4,3.1,3.1,3.1c1.7,0,3.1-1.4,3.1-3.1C168.4,98.8,167.1,97.4,165.3,97.4
					L165.3,97.4L165.3,97.4z"/>
			</g>
			<path class="st9" d="M96.2,84.8v0.5C96.2,85.2,96.2,85,96.2,84.8z"/>
			<path class="st9" d="M96.2,84.8v0.5C96.2,85.2,96.2,85,96.2,84.8z"/>
			<path class="st9" d="M109.6,85.7L109.6,85.7z"/>
			<path class="st1" d="M92.2,105.3c-1.4-0.2-2.9-0.4-4.3-0.4c0,1.4,0,3,0,4.5c4.2,0,4.3,0.2,4.3,0.3c0,0,0,0.1-0.1,0.1c0,0,0,0,0,0
				l0,0c0,0-0.1,0-0.1,0c-1.4-0.2-2.8-0.3-4.1-0.2c0,1.7,0,3.2-0.1,4.3c1.4,0,2.8-0.1,4.2-0.3C92.1,113.4,92.2,108.9,92.2,105.3
				L92.2,105.3L92.2,105.3z"/>
			<path class="st1" d="M69.2,124.2c0,0.1,0.1,0.1,0.1,0.1h0.4c0.1,0,0.1,0.1,0.1,0.1c0,0,0,0,0,0l-0.1,0.9c0,0.1,0,0.1,0.1,0.1
				c0,0,0,0,0,0h5.6c0,0,0,0,0,0.1c0,0.5,0.4,1,1,1c0,0,0,0,0,0c0.6,0,1-0.5,1-1c0-0.2-0.1-0.5-0.3-0.6v-17.1h0.2v-1.1
				c0-0.1-0.1-0.2-0.2-0.2h0h-0.7c-0.1,0-0.2,0.1-0.2,0.2l0,0v1.1h0.2v2c0,0.1,0.1,0.1,0.1,0.1c0.1,0,0.1,0.1,0.1,0.1v5
				c0,0.1-0.1,0.1-0.1,0.1c-0.1,0-0.1,0.1-0.1,0.1v0.5c0,0.1-0.1,0.1-0.1,0.1h-5.8c-0.1,0-0.1,0-0.1,0.1l-0.1,1.9
				c0,0.1-0.1,0.1-0.1,0.1h-0.5c-0.1,0-0.1,0-0.1,0.1c0,0,0,0,0,0L69.2,124.2z M76,125.6C76,125.6,76,125.6,76,125.6
				c0-0.3,0.2-0.5,0.5-0.5s0.4,0.2,0.4,0.5c0,0.2-0.2,0.4-0.5,0.4C76.2,126,76,125.9,76,125.6z M71.4,121.9c0-0.3,0.2-0.5,0.5-0.5h3
				c0.3,0,0.5,0.2,0.5,0.5v1.6c0,0.3-0.2,0.5-0.5,0.5h-3c-0.3,0-0.5-0.2-0.5-0.5V121.9z"/>
			<path class="st1" d="M82.7,117.6C82.7,117.6,82.7,117.5,82.7,117.6c-0.1-0.1-0.1-0.1-0.1-0.1l-0.1,0c0.1-1.6,0.2-2.7,0.2-2.7l0,0
				c1.2,0,2.5,0,3.9,0c-0.1,0.7-0.2,1.8-0.2,3C85.2,117.6,83.9,117.6,82.7,117.6z"/>
			<path class="st1" d="M82.4,117.4c0,0-0.1,0-0.1,0.1c-0.2-0.1-0.4-0.1-0.5,0c0,0-0.1,0.1-0.1,0.1c-1,0-2.1,0-3.1,0.2
				c0-0.9,0.1-1.6,0.1-2.1c0-0.5,0.4-0.9,0.9-0.9l3,0C82.6,114.8,82.5,115.9,82.4,117.4L82.4,117.4z"/>
			<path class="st1" d="M94.9,117.6C94.9,117.7,94.9,117.7,94.9,117.6c0,0.3,0,0.4,0,0.6c-1.4-0.2-2.8-0.4-4.3-0.4
				c0-1.2,0.1-2.3,0.2-3l0,0c1.2,0,2.3,0.2,3.4,0.5c0.4,0.1,0.7,0.5,0.7,0.9C94.9,116.5,94.9,117,94.9,117.6
				C94.9,117.6,94.9,117.6,94.9,117.6z"/>
			<path class="st1" d="M90.5,117.8c-1.1-0.1-2.4-0.1-3.6-0.1h-0.3c0.1-1.2,0.2-2.3,0.3-3c1.3,0,2.7,0.1,3.9,0.1
				C90.6,115.5,90.5,116.6,90.5,117.8z"/>
			<path class="st1" d="M78.6,117.9c1-0.2,2-0.2,3-0.2c0,0.1,0,0.2,0,0.3c0,0.5-0.1,1-0.4,1.5c0,0,0,0.1,0,0.1h0c0,0,0,0,0.1,0
				c0.3-0.5,0.4-1,0.4-1.6c0-0.1,0-0.2,0-0.3h0.3l0,0c0,0.1,0,0.1,0.2,0.1h0.1c-0.1,1.1-0.2,2.3-0.3,3.5c-1.3,0-2.5-0.1-3.7-0.2
				C78.4,120,78.5,118.9,78.6,117.9L78.6,117.9L78.6,117.9z"/>
			<path class="st1" d="M90.6,121.5c0-1.2,0-2.4,0.1-3.5c1.4,0,2.8,0.2,4.3,0.4l0,0c0,1,0,2.2-0.1,3.4
				C93.4,121.6,92,121.5,90.6,121.5z"/>
			<path class="st1" d="M82.6,117.9c0.2,0.2,0.3,0.5,0.2,0.7c0,0.3,0,0.6-0.1,0.9c-0.1,0.4-0.1,0.8,0,1.1c0,0,0,0,0.1,0h0
				c0,0,0-0.1,0-0.1c-0.1-0.3-0.1-0.7,0-1.1c0-0.3,0.1-0.6,0.1-0.9c0-0.3-0.1-0.6-0.3-0.9l0,0c1.1,0,2.4,0,3.7,0.1
				c-0.1,1.2-0.1,2.4-0.2,3.7c-1.3,0-2.7,0-3.9,0C82.3,120.2,82.4,119,82.6,117.9L82.6,117.9L82.6,117.9z"/>
			<path class="st1" d="M90.5,118c0,1.1,0,2.4-0.1,3.5l-3.7,0h-0.4c0.1-1.2,0.1-2.5,0.2-3.7C87.9,117.8,89.3,117.9,90.5,118z"/>
			<path class="st1" d="M95.7,119.2c-0.1,0-0.1,0.1-0.2,0.1l-0.3,0.4c-0.1,0.1-0.1,0.2,0,0.3l0.6,1.6c0.1,0.1,0.2,0.2,0.4,0.2
				l0.7-0.2c0.1-0.1,0.2-0.2,0.2-0.4l-0.6-1.7c0-0.1-0.1-0.2-0.2-0.2l-0.4-0.1c0-0.7-0.4-1.3-0.9-1.6c0,0,0,0-0.1,0c0,0,0,0.1,0,0.1
				l0,0C95.4,118,95.7,118.6,95.7,119.2z M95.7,119.5C95.7,119.5,95.8,119.5,95.7,119.5L95.7,119.5c0.1,0,0.1,0,0.1,0l0,0
				c0,0,0.1,0,0.1,0.1c0,0.1,0,0.2-0.1,0.2c-0.1,0-0.2,0-0.2-0.1C95.6,119.6,95.7,119.5,95.7,119.5L95.7,119.5z"/>
			<path class="st1" d="M83.1,109.6l-0.1,1.2c-0.1,1.6-0.2,2.8-0.2,3l0,0c1.8,0.1,3.4,0.1,4.8,0c0.1-1,0.1-2.6,0.1-4.3
				C86.3,109.6,84.6,109.6,83.1,109.6z"/>
			<path class="st1" d="M82.9,109.6c-2.1,0-4,0.1-4.7,0.2c0.1,1.1,0.2,2.2,0.5,3.2c0.1,0.3,0.3,0.5,0.6,0.5c1.1,0.1,2.3,0.2,3.3,0.3
				c0-0.2,0.1-1.4,0.2-3L82.9,109.6z"/>
			<path class="st1" d="M83.4,104.8c-0.1,1.5-0.2,3.2-0.3,4.6h2.7h1.9c0-1.5,0-3.1,0-4.5C86.3,104.8,84.8,104.8,83.4,104.8z"/>
			<path class="st1" d="M92.2,105.2c0-1.3,0-2.6-0.2-3.9c-0.1-0.2-1.9-0.4-4.2-0.6c0,0.2,0,0.6,0,1.1H91v1.7h-3.2c0,0.4,0,0.8,0,1.3
				C89.3,104.8,90.7,104.9,92.2,105.2z"/>
			<path class="st1" d="M83.2,104.6c0.1-1.7,0.2-3.2,0.2-4.1c-1.4-0.1-2.7,0-4.1,0.1c-0.3,0-0.6,0.3-0.6,0.6
				c-0.1,0.6-0.3,1.9-0.4,3.4C78.5,104.6,80.6,104.6,83.2,104.6z"/>
			<path class="st1" d="M86.9,101.8h0.7c0-0.5,0-0.9,0-1.1l0,0c-1.3-0.1-2.7-0.1-4.1-0.2c0,0.9-0.1,2.4-0.2,4.1
				c1.4,0,2.9,0.1,4.3,0.1c0-0.4,0-0.9,0-1.3h-0.8L86.9,101.8z"/>
			<path class="st1" d="M83.2,104.8c-2.7,0-4.8,0-4.9,0l0,0c-0.1,1.6-0.2,3.3-0.1,4.9c0.7-0.1,2.6-0.2,4.7-0.2
				C83,108,83.1,106.3,83.2,104.8z"/>
			<path class="st9" d="M110.9,79.5c2,0.2,3.8-2.1,3.9-5.1c0.1-3-1.4-5.6-3.4-5.8c-2-0.2-3.8,2.1-3.9,5.1
				C107.3,76.8,108.8,79.3,110.9,79.5z"/>
			<path class="st9" d="M111.9,81l-0.4,0.7h-1.2l-0.6-0.9c-7.6,0.6-12.7,4.8-12.9,8.1c-0.2,3.3,3,6.7,5.2,8.3
				c0.7,0.5,1.7,0.3,2.2-0.4c0,0,0.1-0.1,0.1-0.1c0.1-0.1,0.1-0.2,0.1-0.4v-0.5c-0.1-0.3-0.2-0.6-0.5-0.8c-1.5-1.2-3.5-3.5-3.5-5
				c0-2,3.2-3.2,3.7-2.7c0.4,0.5,0.2,5.6,0.2,5.6c0,0.8,0,1.8,0.1,2.8c0,0.2,0,0.3,0,0.5c0.2,8.4,0.4,21.7,0.6,27.3
				c0,1.3-3.2,1.9-3.2,2.5s6.8,0,6.9-0.7c0.2-0.7,0.9-10.3,0.9-10.3s0.6-12.5,1.2-12.5c0.9,0,0.9,12.8,0.9,12.8s-0.5,9.4,0.4,10.1
				c0.8,0.7,5.6,0.7,5.7,0.5c0.2-0.9-2.3-1.9-2.3-2.3c0-0.4,1.7-20.7,1.8-22.5c0-0.7,0-2.5-0.1-4.6c-0.1-0.2-0.1-0.4,0-0.6
				c-0.1-2-0.1-4.2-0.1-5.7c0-2,0.1-2.6,0.7-2.9c0.6-0.3,4.2,1.2,4.2,3c0,1.3-2.2,3.6-4.2,4.8c-0.3,0.2-0.6,0.5-0.6,0.9v0.6
				c0.1,0.2,0.2,0.4,0.3,0.5l0,0c0.5,0.5,1.2,0.6,1.8,0.3c2.4-1.3,6.4-5,6.3-7.3C125.4,87,121.8,81.2,111.9,81z"/>
			<path class="st10" d="M142.2,45.8h10.2c0.7,0,1.3,0.6,1.3,1.3l0,0c0,0.7-0.6,1.3-1.3,1.3h-10.2c-0.7,0-1.3-0.6-1.3-1.3l0,0
				C140.9,46.4,141.5,45.8,142.2,45.8z"/>
			<circle class="st11" cx="162" cy="47.1" r="10"/>
			<path class="st1" d="M157.6,45.1h0.3v1.8h-0.3c-0.2,0-0.3-0.1-0.3-0.3v-1.2C157.3,45.2,157.5,45.1,157.6,45.1z M166.4,45.1h-0.3
				v1.8h0.3c0.2,0,0.3-0.1,0.3-0.3v-1.2C166.7,45.2,166.6,45.1,166.4,45.1z M165.6,44.5v5.3c0,0.3-0.3,0.6-0.6,0.6v0.6
				c0,0.3-0.3,0.6-0.6,0.6h-0.6c-0.3,0-0.6-0.3-0.6-0.6v-0.6h-2.3v0.6c0,0.3-0.3,0.6-0.6,0.6h-0.6c-0.3,0-0.6-0.3-0.6-0.6v-0.6
				c-0.3,0-0.6-0.3-0.6-0.6v-5.3c0-1,0.8-1.8,1.8-1.8l0,0h3.5C164.7,42.7,165.5,43.5,165.6,44.5C165.5,44.5,165.5,44.5,165.6,44.5
				L165.6,44.5z M160.9,43.9h2.3v-0.6h-2.3V43.9z M160.3,49.2c0-0.3-0.3-0.6-0.6-0.6s-0.6,0.3-0.6,0.6c0,0.3,0.3,0.6,0.6,0.6l0,0
				C160,49.8,160.3,49.5,160.3,49.2z M165,49.2c0-0.3-0.3-0.6-0.6-0.6s-0.6,0.3-0.6,0.6c0,0.3,0.3,0.6,0.6,0.6l0,0
				C164.7,49.8,165,49.5,165,49.2z M165,44.5h-5.9V48h5.9L165,44.5z"/>
			<rect x="140.1" y="38" class="st12" width="2.3" height="89"/>
			<path class="st10" d="M139.5,57.7h3.5c1,0,1.8,0.8,1.8,1.8v57.9c0,1-0.8,1.8-1.8,1.8h-3.5c-1,0-1.8-0.8-1.8-1.8V59.5
				C137.7,58.5,138.5,57.7,139.5,57.7z"/>
			<line class="st13" x1="141.3" y1="17" x2="141.3" y2="14.6"/>
			<polygon class="st10" points="144.2,17 147.4,22.4 145.4,36.2 137.1,36.2 135.2,22.4 138.4,17 			"/>
			<path class="st14" d="M141.3,30.5L141.3,30.5c1.2,0,2.1,0.9,2.1,2.1v2.6l0,0h-4.2l0,0v-2.6C139.1,31.4,140.1,30.5,141.3,30.5
				C141.2,30.5,141.3,30.5,141.3,30.5z"/>
			<rect x="138.5" y="36.2" class="st10" width="5.5" height="2.4"/>
			<line class="st13" x1="133.8" y1="22.4" x2="148.7" y2="22.4"/>
		</g>
	</g>
	<line class="st0" x1="184.7" y1="127" x2="193.7" y2="127"/>
	<line class="st0" x1="40.2" y1="127" x2="36.3" y2="127"/>
</g>
</svg>
