<svg id="Layer_1" data-name="Layer 1" xmlns="http://www.w3.org/2000/svg" viewBox="0 0 230 190"><defs><style>.cls-1{fill:#eff5f8;}.cls-2{opacity:0.7;}.cls-3{fill:#cdebfc;}.cls-4{opacity:0.3;}.cls-5{opacity:0.3;}.cls-6{fill:#e3b462;}.cls-7{fill:#0aa5e3;}.cls-8{fill:#32b475;}.cls-9{fill:#1e9b5a;}.cls-10{fill:#3273ad;}.cls-11{fill:none;}.cls-11,.cls-12,.cls-14,.cls-15{stroke:#3273ad;}.cls-11,.cls-13,.cls-14,.cls-16{stroke-miterlimit:10;}.cls-11,.cls-12,.cls-13,.cls-14{stroke-width:0.75px;}.cls-12,.cls-15{fill:#caedff;stroke-linecap:round;stroke-linejoin:round;}.cls-13,.cls-16{fill:#f9d165;stroke:#3174ad;}.cls-14{fill:#fff;}.cls-16{stroke-width:0.5px;}</style></defs><title>batch-closed</title><path class="cls-1" d="M125.49,105.83H86.71a3.41,3.41,0,1,0,0,6.82h5.05a3.41,3.41,0,0,1,0,6.82h-11a3.41,3.41,0,1,0,0,6.82H119.5a3.41,3.41,0,0,0,0-6.82H108.92a3.41,3.41,0,0,1,0-6.82h16.57a3.41,3.41,0,1,0,0-6.82Z"/><path class="cls-1" d="M128.4,57.25h36.05a2.71,2.71,0,0,0,0-5.42H155.2a2.71,2.71,0,1,1,0-5.42H161A2.71,2.71,0,1,0,161,41H137.65a2.71,2.71,0,1,0,0,5.42h3.92a2.71,2.71,0,1,1,0,5.42H128.4a2.71,2.71,0,1,0,0,5.42Z"/><g class="cls-2"><path class="cls-3" d="M84.76,25.59h0l10.85-.49a1.26,1.26,0,0,0,.8-.11,1.31,1.31,0,0,0,.39-.94c0-.07,0-.14,0-.18a9.44,9.44,0,0,1,.37-1.08,7.13,7.13,0,0,1,1-1.68,6,6,0,0,1,2.54-1.88,7.48,7.48,0,0,1,2.45-.49,8.1,8.1,0,0,1,.9,0,1.36,1.36,0,0,0,.73,0c.38-.14.52-.57.77-1.58,0-.16.07-.3.1-.36a19.49,19.49,0,0,1,1-2.48,12.9,12.9,0,0,1,2.47-3.42,9.52,9.52,0,0,1,5.64-2.63,12.55,12.55,0,0,1,11.52,5.5,13.68,13.68,0,0,1,2,8.47.52.52,0,0,0,1,.1,14.74,14.74,0,0,0-2.19-9.13,13.44,13.44,0,0,0-12.5-6,10.54,10.54,0,0,0-6.25,2.91,13.9,13.9,0,0,0-2.68,3.7,20.44,20.44,0,0,0-1.1,2.61c0,.09-.07.26-.12.46s-.14.57-.22.81l-.2,0a9.73,9.73,0,0,0-1,0,8.53,8.53,0,0,0-2.79.56,7.08,7.08,0,0,0-3,2.21,8.13,8.13,0,0,0-1.11,1.92,10.52,10.52,0,0,0-.41,1.2c0,.06,0,.17-.06.3l0,.18h-.19l-10.85.49a.52.52,0,0,0,0,1Z"/></g><g class="cls-4"><g class="cls-5"><path class="cls-6" d="M139.81,123.93a5.7,5.7,0,1,1,5.7-5.7A5.71,5.71,0,0,1,139.81,123.93Zm0-9.78a4.07,4.07,0,1,0,4.07,4.07A4.08,4.08,0,0,0,139.81,114.16Z"/></g><path class="cls-7" d="M111.38,59.45a6.15,6.15,0,1,1,6.15-6.15A6.15,6.15,0,0,1,111.38,59.45Zm0-10.66a4.52,4.52,0,1,0,4.52,4.52A4.52,4.52,0,0,0,111.38,48.79Z"/><path class="cls-8" d="M143.24,83.24a6.15,6.15,0,1,1,6.15-6.15A6.15,6.15,0,0,1,143.24,83.24Zm0-10.66a4.52,4.52,0,1,0,4.52,4.52A4.52,4.52,0,0,0,143.24,72.58Z"/><path class="cls-8" d="M109.31,95.67A3.7,3.7,0,1,1,113,92,3.7,3.7,0,0,1,109.31,95.67Zm0-5.77A2.07,2.07,0,1,0,111.38,92,2.07,2.07,0,0,0,109.31,89.9Z"/></g><g class="cls-2"><path class="cls-3" d="M18.33,78h6.87a.56.56,0,0,0,.56-.58,5.06,5.06,0,0,1,1.35-3.86c2.09-2.15,5.9-2.13,5.93-2.15a.63.63,0,0,0,.43-.19.56.56,0,0,0,.13-.45,11.64,11.64,0,0,1,2.42-8c1.67-1.92,4.17-2.88,7.27-2.87a8.52,8.52,0,0,1,6.39,2.44c2.83,3,2.67,7.69,2.67,7.74a.56.56,0,0,0,.22.47.57.57,0,0,0,.52.08,7.86,7.86,0,0,1,6.64.3c3.36,2,4.31,6.56,4.31,6.6a.56.56,0,0,0,.55.45H78.13a.56.56,0,1,0,0-1.12H65.06c-.34-1.3-1.56-5-4.74-6.9a8.62,8.62,0,0,0-6.84-.63,12.36,12.36,0,0,0-3-7.78,9.59,9.59,0,0,0-7.21-2.8c-3.45,0-6.22,1.08-8.12,3.26a12.7,12.7,0,0,0-2.73,8.28c-1.27.09-4.23.51-6.14,2.46a6,6,0,0,0-1.67,4.1H18.33a.56.56,0,1,0,0,1.12Z"/></g><g class="cls-4"><path class="cls-8" d="M49,87.59a4,4,0,1,1-1.56-5.48A4,4,0,0,1,49,87.59Zm-5.49-3.06a2.26,2.26,0,1,0,3.07-.87A2.26,2.26,0,0,0,43.53,84.53Z"/></g><g class="cls-4"><path class="cls-6" d="M59.91,131.91a6.7,6.7,0,1,1-2.59-9.11A6.7,6.7,0,0,1,59.91,131.91Zm-10.14-5.66a4.92,4.92,0,1,0,6.69-1.9A4.93,4.93,0,0,0,49.77,126.25Z"/></g><g class="cls-4"><path class="cls-7" d="M191.52,151.08a6.21,6.21,0,1,1,6.21-6.21A6.22,6.22,0,0,1,191.52,151.08Zm0-10.65a4.44,4.44,0,1,0,4.44,4.44A4.44,4.44,0,0,0,191.52,140.43Z"/></g><path class="cls-9" d="M92.53,122.43v.75A2,2,0,0,0,92.53,122.43Z"/><path class="cls-9" d="M92.53,122.43v.75A2,2,0,0,0,92.53,122.43Z"/><path class="cls-9" d="M111.68,123.71h0Z"/><path class="cls-10" d="M86.74,151.76a42.61,42.61,0,0,0-6.19-.58c0,2,.07,4.3.07,6.44,6.06.06,6.12.34,6.14.45a.11.11,0,0,1-.09.13h0a.11.11,0,0,1-.1-.06,37,37,0,0,0-5.94-.3c0,2.41-.06,4.63-.19,6.12a47,47,0,0,0,6-.5c.27-.09.38-6.64.31-11.71h0Z"/><path class="cls-10" d="M53.8,178.86A.18.18,0,0,0,54,179l.56,0a.18.18,0,0,1,.17.19l-.1,1.3a.18.18,0,0,0,.18.19h8.06s0,.06,0,.09a1.41,1.41,0,0,0,1.43,1.41,1.45,1.45,0,0,0,1.39-1.5,1.4,1.4,0,0,0-.41-.91V155.26h.28v-1.57a.32.32,0,0,0-.32-.32h-1a.32.32,0,0,0-.32.32v1.57h.3v2.85a.18.18,0,0,0,.18.18.18.18,0,0,1,.17.18v7.09a.18.18,0,0,1-.18.18.18.18,0,0,0-.17.18v.67a.18.18,0,0,1-.18.18H55.8a.18.18,0,0,0-.18.16l-.2,2.72a.18.18,0,0,1-.19.16l-.78,0a.18.18,0,0,0-.19.17Zm9.8,2a.63.63,0,0,1,0-.09.62.62,0,1,1,0,.09Zm-6.53-5.31a.65.65,0,0,1,.65-.65H62a.65.65,0,0,1,.65.65v2.26a.65.65,0,0,1-.65.65H57.72a.65.65,0,0,1-.65-.65Z"/><path class="cls-10" d="M73.18,169.31a.17.17,0,0,0-.08-.08.19.19,0,0,0,0-.07L73,169.1c.17-2.24.31-3.89.32-3.93a.1.1,0,0,0,0,0c1.7,0,3.61,0,5.53,0-.12,1-.24,2.55-.35,4.26C76.7,169.35,74.85,169.32,73.18,169.31Z"/><path class="cls-10" d="M72.75,169.09a.85.85,0,0,0-.2.09c-.34-.15-.59-.17-.74-.05a.38.38,0,0,0-.12.17,22.85,22.85,0,0,0-4.4.26c.07-1.23.13-2.3.18-3.07a1.35,1.35,0,0,1,1.33-1.27l4.3-.07c0,.2-.16,1.79-.33,3.93Z"/><path class="cls-10" d="M90.63,169.37a.11.11,0,0,0,.05.14q0,.33,0,.69a44.56,44.56,0,0,0-6.13-.55c.05-1.78.14-3.33.26-4.3h0a23.43,23.43,0,0,1,4.9.72,1.36,1.36,0,0,1,.95,1.27c0,.49,0,1.17,0,2A.11.11,0,0,0,90.63,169.37Z"/><path class="cls-10" d="M84.33,169.63c-1.64-.08-3.44-.16-5.18-.21h-.44c.11-1.72.24-3.23.36-4.27,1.91,0,3.81.08,5.53.19C84.47,166.31,84.39,167.86,84.33,169.63Z"/><path class="cls-10" d="M67.33,169.78a21.1,21.1,0,0,1,4.32-.26,1.6,1.6,0,0,0,.07.44,4.08,4.08,0,0,1-.57,2.12.11.11,0,0,0,0,.15l.06,0a.11.11,0,0,0,.09,0,4.2,4.2,0,0,0,.61-2.31,1.41,1.41,0,0,1-.06-.38h.4a.19.19,0,0,0,0,0c0,.09.07.19.32.2h.14c-.12,1.56-.25,3.33-.36,5a50.24,50.24,0,0,1-5.36-.3c.09-1.64.18-3.28.27-4.71h.06Z"/><path class="cls-10" d="M84.46,174.94c0-1.69,0-3.46.09-5.07a45,45,0,0,1,6.09.53h0c0,1.48,0,3.2-.13,4.87A44.24,44.24,0,0,0,84.46,174.94Z"/><path class="cls-10" d="M73,169.7a1.47,1.47,0,0,1,.33,1.06,9.51,9.51,0,0,1-.08,1.29,3.65,3.65,0,0,0,0,1.63.11.11,0,0,0,.09.06h.06a.11.11,0,0,0,0-.15,3.83,3.83,0,0,1,0-1.51,9.63,9.63,0,0,0,.08-1.33,1.62,1.62,0,0,0-.4-1.22h0c1.63,0,3.46,0,5.31.11-.11,1.65-.21,3.48-.29,5.25-1.93,0-3.86,0-5.6-.07.11-1.73.24-3.53.36-5.1l.06,0Z"/><path class="cls-10" d="M84.33,169.86c0,1.61-.07,3.39-.09,5.07L79,174.88h-.57c.09-1.77.19-3.6.29-5.24C80.64,169.69,82.58,169.78,84.33,169.86Z"/><path class="cls-10" d="M90.52,175.51h0a29.6,29.6,0,0,1-.63,5.22,1.35,1.35,0,0,1-1.3,1c-1.29,0-2.71,0-4.19.06,0-.35,0-1.45,0-3,0-1.07,0-2.34,0-3.67A44.51,44.51,0,0,1,90.52,175.51Z"/><path class="cls-10" d="M84.24,175.16c0,1.33,0,2.59,0,3.67,0,1.53,0,2.63,0,3h0c-2,0-4,.08-6,.09,0-1.59.11-4.12.24-6.79H79C80.77,175.12,82.58,175.13,84.24,175.16Z"/><path class="cls-10" d="M78.18,175.1c-.13,2.68-.22,5.21-.24,6.79h0c-2,0-3.88,0-5.53-.09a.11.11,0,0,0,0,0,48.12,48.12,0,0,1,.18-6.75C74.31,175.06,76.24,175.08,78.18,175.1Z"/><path class="cls-10" d="M72.35,175a48.92,48.92,0,0,0-.17,6.77,18.4,18.4,0,0,1-4.55-.63,1.35,1.35,0,0,1-.9-1.34c.07-1.5.17-3.29.27-5.1.52.08,1.25.14,2.12.19S71.15,175,72.35,175Z"/><path class="cls-10" d="M91.83,171.61a.4.4,0,0,0-.24.15l-.36.51a.4.4,0,0,0-.05.37L92,175a.4.4,0,0,0,.51.24l1-.34a.4.4,0,0,0,.24-.51L92.89,172a.4.4,0,0,0-.27-.25l-.58-.16a2.89,2.89,0,0,0-1.28-2.31.11.11,0,0,0-.09,0c0,.06,0,.13,0,.2h0A2.74,2.74,0,0,1,91.83,171.61Zm0,.4a.11.11,0,0,0,.08.06h0A.11.11,0,0,0,92,172h0a.19.19,0,0,1,.12.12.2.2,0,1,1-.33-.07Z"/><path class="cls-10" d="M73.7,157.87l-.12,1.74c-.16,2.24-.28,4-.28,4.31h0c2.56.12,4.92.11,6.91,0,.14-1.48.19-3.71.19-6.13C78.28,157.82,75.9,157.83,73.7,157.87Z"/><path class="cls-10" d="M73.48,157.87c-3,.05-5.67.16-6.68.31a25.47,25.47,0,0,0,.65,4.6,1,1,0,0,0,.87.76c1.64.18,3.24.3,4.76.37,0-.33.12-2,.28-4.32Z"/><path class="cls-10" d="M74.15,151c-.13,2.18-.29,4.54-.43,6.65l3.92,0H80.4c0-2.14,0-4.41-.07-6.45C78.32,151.08,76.15,151,74.15,151Z"/><path class="cls-10" d="M86.76,151.54a34.81,34.81,0,0,0-.3-5.58c-.17-.28-2.79-.58-6-.8,0,.28,0,.82,0,1.55H85.1v2.41H80.5c0,.58,0,1.19,0,1.83A43.43,43.43,0,0,1,86.76,151.54Z"/><path class="cls-10" d="M73.94,150.78c.14-2.39.24-4.54.24-5.89a44,44,0,0,0-5.8.14,1,1,0,0,0-.86.84c-.14.9-.4,2.68-.58,4.87C67.13,150.74,70.21,150.72,73.94,150.78Z"/><path class="cls-10" d="M79.18,146.72h1c0-.74,0-1.28,0-1.56h0c-1.86-.12-3.91-.21-5.8-.26,0,1.35-.1,3.5-.24,5.89,2,0,4.16.08,6.16.17,0-.64,0-1.25,0-1.82h-1.1Z"/><path class="cls-10" d="M73.93,151c-3.8-.06-6.92,0-7,0h0a53.26,53.26,0,0,0-.15,7c1-.15,3.71-.26,6.71-.31C73.64,155.54,73.8,153.18,73.93,151Z"/><path class="cls-9" d="M113.52,114.81c2.9.26,5.41-3,5.61-7.31s-2-8-4.91-8.26-5.41,3-5.61,7.31S110.62,114.55,113.52,114.81Z"/><path class="cls-9" d="M115,116.94l-.62,1-1.74,0-.81-1.25c-10.89.92-18.19,6.94-18.44,11.65s4.29,9.63,7.48,11.82a2.22,2.22,0,0,0,3.19-.77,1.89,1.89,0,0,0,.17-.54v-.71a2,2,0,0,0-.7-1.12c-2.12-1.73-5-5-5-7.12.06-2.81,4.64-4.62,5.25-3.87s.33,8.07.33,8.07c0,1.21,0,2.56.08,4a1.87,1.87,0,0,1,0,.71c.23,12,.57,31.13.87,39.11.07,1.86-4.53,2.77-4.53,3.63s9.67,0,9.93-.94,1.22-14.82,1.22-14.82.85-17.87,1.74-17.84c1.36.05,1.27,18.33,1.27,18.33s-.65,13.44.52,14.42,8.08,1,8.17.65c.3-1.22-3.36-2.65-3.36-3.26s2.38-29.64,2.51-32.21c0-.95-.05-3.57-.15-6.56a1.82,1.82,0,0,1,0-.91c-.1-2.91-.18-6-.12-8.22,0-2.82.13-3.77,1-4.16s6,1.69,6,4.32c0,1.89-3.19,5.1-6,6.82a1.94,1.94,0,0,0-.91,1.25l0,.91a1.88,1.88,0,0,0,.45.77l0,0a2.18,2.18,0,0,0,2.6.37c3.37-1.84,9.23-7.18,9.08-10.4C134.39,125.55,129.16,117.28,115,116.94Z"/><line class="cls-11" x1="2.5" y1="182.8" x2="227.5" y2="182.8"/><rect class="cls-12" x="156.5" y="66.54" width="18.37" height="3.78" rx="1.89" ry="1.89"/><circle class="cls-13" cx="186.79" cy="68.43" r="14.26"/><path class="cls-10" d="M180.49,65.49h.42V68h-.42a.42.42,0,0,1-.42-.42V65.91a.42.42,0,0,1,.42-.42Zm12.6,0h-.42V68h.42a.42.42,0,0,0,.42-.42V65.91a.42.42,0,0,0-.42-.42Zm-1.26-.84v7.56a.84.84,0,0,1-.84.84v.84a.84.84,0,0,1-.84.84h-.84a.84.84,0,0,1-.84-.84v-.84h-3.36v.84a.84.84,0,0,1-.84.84h-.84a.84.84,0,0,1-.84-.84v-.84a.84.84,0,0,1-.84-.84V64.65a2.52,2.52,0,0,1,2.52-2.52h5a2.52,2.52,0,0,1,2.52,2.52Zm-6.72-.84h3.36V63h-3.36Zm-.84,7.56a.84.84,0,1,0-.84.84.84.84,0,0,0,.84-.84Zm6.72,0a.84.84,0,1,0-.84.84.84.84,0,0,0,.84-.84Zm0-6.72h-8.4v5H191Zm0,0"/><rect class="cls-14" x="155.34" y="55.28" width="3.25" height="127.52"/><rect class="cls-12" x="151.91" y="83.58" width="10.11" height="88.04" rx="2.58" ry="2.58"/><line class="cls-15" x1="157.06" y1="25.24" x2="157.06" y2="21.8"/><polygon class="cls-12" points="161.25 25.24 165.79 33.07 163 52.82 151.12 52.82 148.34 33.07 152.88 25.24 161.25 25.24"/><path class="cls-16" d="M157.06,44.58h0a3,3,0,0,1,3,3v3.74a0,0,0,0,1,0,0H154a0,0,0,0,1,0,0V47.61A3,3,0,0,1,157.06,44.58Z"/><rect class="cls-12" x="153.12" y="52.82" width="7.88" height="3.44"/><line class="cls-15" x1="146.38" y1="33" x2="167.74" y2="33"/></svg>