<svg id="Layer_1" data-name="Layer 1" xmlns="http://www.w3.org/2000/svg" viewBox="0 0 40 35"><defs><style>.cls-1{fill:#31b375;}</style></defs><title>car-love-task</title><path class="cls-1" d="M27.9,18.3H12.1a.63.63,0,1,0,0,1.27H27.9a.63.63,0,1,0,0-1.27Zm0,0"/><path class="cls-1" d="M5.51,21.17H3.17a.63.63,0,1,0,0,1.27H5.51a2.5,2.5,0,0,1,2.41,1.86H3.33a.63.63,0,0,0,0,1.27h5.3a.63.63,0,0,0,.63-.63,3.76,3.76,0,0,0-3.76-3.76Zm0,0"/><path class="cls-1" d="M34.49,22.43h2.34a.63.63,0,0,0,0-1.27H34.49a3.76,3.76,0,0,0-3.76,3.76.63.63,0,0,0,.63.63h5.3a.63.63,0,0,0,0-1.27H32.08a2.5,2.5,0,0,1,2.41-1.86Zm0,0"/><path class="cls-1" d="M38.71,18.39a4.65,4.65,0,0,0-3.39-1.44l-.17,0-2,.56-3-5.76a3.7,3.7,0,0,0-3-1.84H12.91a3.7,3.7,0,0,0-3,1.84l-3,5.76-2-.56-.17,0A4.66,4.66,0,0,0,0,21.84L.46,31a.63.63,0,0,0,.63.6h.21v2.76a.63.63,0,0,0,.63.63H8.6a.63.63,0,0,0,.63-.63V33.5A.63.63,0,0,0,8,33.5v.23H2.57V31.6H37.43v2.13H32V33.5a.63.63,0,0,0-1.27,0v.86a.63.63,0,0,0,.63.63h6.66a.63.63,0,0,0,.63-.63V31.6h.21a.63.63,0,0,0,.63-.6L40,21.84a4.65,4.65,0,0,0-1.29-3.45Zm0,3.39-.43,8.56H1.7l-.43-8.55A3.39,3.39,0,0,1,4.6,18.22L7,18.89H7l2.36.65a.63.63,0,1,0,.34-1.22l-1.61-.44L11,12.36a2.43,2.43,0,0,1,1.91-1.16H27.09A2.43,2.43,0,0,1,29,12.36l2.87,5.52-1.61.44a.63.63,0,1,0,.34,1.22l4.8-1.33a3.39,3.39,0,0,1,3.33,3.56Zm0,0"/><path class="cls-1" d="M35.32,15.68h2.21a.63.63,0,1,0,0-1.27H35.32a.63.63,0,1,0,0,1.27Zm0,0"/><path class="cls-1" d="M2.48,15.68h2.2a.63.63,0,1,0,0-1.27H2.48a.63.63,0,1,0,0,1.27Zm0,0"/><path class="cls-1" d="M27,26.11H13a.63.63,0,0,0-.63.63v1.69a.63.63,0,1,0,1.27,0V27.38H26.39v1.06a.63.63,0,1,0,1.27,0V26.75a.63.63,0,0,0-.63-.63Zm0,0"/><path class="cls-1" d="M23.51,22.94a.63.63,0,0,0,0-1.27h-7a.63.63,0,0,0,0,1.27Zm0,0"/></svg>