<svg id="Layer_1" data-name="Layer 1" xmlns="http://www.w3.org/2000/svg" viewBox="0 0 395 190"><defs><style>.cls-1{opacity:0.6;}.cls-2{fill:#eff5f8;}.cls-3{opacity:0.7;}.cls-4{fill:#cdebfc;}.cls-5{opacity:0.3;}.cls-6{fill:#e3b462;}.cls-7{opacity:0.39;}.cls-8{fill:#0aa5e3;}.cls-9{fill:#32b475;}.cls-10{fill:#a6d9ed;}.cls-11{fill:#3273ad;}.cls-12,.cls-13,.cls-18,.cls-24{fill:#caedff;}.cls-13,.cls-17,.cls-18,.cls-23,.cls-24{stroke:#3273ad;}.cls-13,.cls-17,.cls-18,.cls-20,.cls-23,.cls-24{stroke-linecap:round;stroke-linejoin:round;}.cls-13{stroke-width:0.75px;}.cls-14{fill:#58bfe8;}.cls-15{fill:#165482;}.cls-16{fill:#fff;}.cls-17,.cls-23{fill:none;}.cls-17,.cls-18{stroke-width:0.5px;}.cls-19{fill:#3174ad;}.cls-20,.cls-21{fill:#f9d165;stroke:#3174ad;}.cls-20,.cls-21,.cls-23,.cls-24{stroke-width:0.25px;}.cls-21{stroke-miterlimit:10;}.cls-22{fill:#1e9b5a;}</style></defs><title>code-video-accepted</title><g class="cls-1"><path class="cls-2" d="M289.14,123.09h-35.7a3.14,3.14,0,0,0,0,6.27h4.65a3.14,3.14,0,0,1,0,6.27H247.93a3.14,3.14,0,0,0,0,6.27h35.7a3.14,3.14,0,0,0,0-6.27h-9.74a3.14,3.14,0,0,1,0-6.27h15.25a3.14,3.14,0,1,0,0-6.27Z"/><path class="cls-2" d="M78.52,132.5h41.12a3.09,3.09,0,1,0,0-6.18H109.1a3.09,3.09,0,0,1,0-6.18h6.6a3.09,3.09,0,0,0,0-6.18H89.07a3.09,3.09,0,1,0,0,6.18h4.47a3.09,3.09,0,0,1,0,6.18h-15a3.09,3.09,0,0,0,0,6.18Z"/><path class="cls-2" d="M291.82,78.37H325a2.49,2.49,0,0,0,0-5h-8.51a2.49,2.49,0,0,1,0-5h5.33a2.49,2.49,0,0,0,0-5H300.33a2.49,2.49,0,0,0,0,5h3.61a2.49,2.49,0,0,1,0,5H291.82a2.49,2.49,0,0,0,0,5Z"/><g class="cls-3"><path class="cls-4" d="M68,80.57h5.81a.47.47,0,0,0,.47-.49,4.27,4.27,0,0,1,1.14-3.26c1.77-1.82,5-1.8,5-1.81a.53.53,0,0,0,.36-.16.48.48,0,0,0,.11-.38,9.84,9.84,0,0,1,2-6.76,7.79,7.79,0,0,1,6.14-2.43,7.2,7.2,0,0,1,5.4,2.06c2.4,2.51,2.26,6.5,2.26,6.54a.48.48,0,0,0,.19.4.48.48,0,0,0,.44.07,6.65,6.65,0,0,1,5.61.26c2.84,1.65,3.64,5.54,3.65,5.58a.48.48,0,0,0,.47.38h11.42a.48.48,0,1,0,0-1h-11c-.29-1.1-1.32-4.27-4-5.83a7.29,7.29,0,0,0-5.78-.53,10.44,10.44,0,0,0-2.51-6.57,8.1,8.1,0,0,0-6.09-2.36,8.72,8.72,0,0,0-6.86,2.75,10.73,10.73,0,0,0-2.31,7,8.31,8.31,0,0,0-5.19,2.08,5.06,5.06,0,0,0-1.41,3.47H68a.48.48,0,0,0,0,1Z"/></g><g class="cls-3"><path class="cls-4" d="M170.5,40.76h2.9a.24.24,0,0,0,.24-.25,2.14,2.14,0,0,1,.57-1.63,4,4,0,0,1,2.5-.91.26.26,0,0,0,.18-.08.24.24,0,0,0,.06-.19,4.92,4.92,0,0,1,1-3.38A3.89,3.89,0,0,1,181,33.12a3.6,3.6,0,0,1,2.7,1,5,5,0,0,1,1.13,3.27.24.24,0,0,0,.09.2.24.24,0,0,0,.22,0,3.32,3.32,0,0,1,2.81.13,4.61,4.61,0,0,1,1.82,2.79.24.24,0,0,0,.23.19h5.71a.24.24,0,0,0,0-.48h-5.52a4.88,4.88,0,0,0-2-2.92,3.64,3.64,0,0,0-2.89-.26,5.22,5.22,0,0,0-1.25-3.29,4.05,4.05,0,0,0-3-1.18A4.36,4.36,0,0,0,177.62,34a5.36,5.36,0,0,0-1.16,3.5,4.15,4.15,0,0,0-2.59,1,2.53,2.53,0,0,0-.71,1.73H170.5a.24.24,0,0,0,0,.48Z"/></g><g class="cls-3"><path class="cls-4" d="M251.65,49.22h0l10-.45a1.16,1.16,0,0,0,.73-.1,1.2,1.2,0,0,0,.36-.87c0-.07,0-.13,0-.16a8.69,8.69,0,0,1,.34-1A6.56,6.56,0,0,1,264,45.1a5.56,5.56,0,0,1,2.34-1.73,6.88,6.88,0,0,1,2.26-.45,7.46,7.46,0,0,1,.83,0,1.25,1.25,0,0,0,.67,0c.35-.13.48-.52.71-1.46,0-.15.07-.27.09-.34a17.94,17.94,0,0,1,1-2.28,11.87,11.87,0,0,1,2.28-3.15,8.76,8.76,0,0,1,5.19-2.42,11.55,11.55,0,0,1,10.6,5.07,12.59,12.59,0,0,1,1.87,7.8.48.48,0,0,0,.95.1,13.57,13.57,0,0,0-2-8.41,12.37,12.37,0,0,0-11.5-5.5A9.7,9.7,0,0,0,273.49,35a12.8,12.8,0,0,0-2.46,3.4,18.81,18.81,0,0,0-1,2.4c0,.08-.07.23-.11.42s-.13.52-.2.74l-.19,0a9,9,0,0,0-.93,0,7.85,7.85,0,0,0-2.57.52,6.52,6.52,0,0,0-2.74,2,7.48,7.48,0,0,0-1,1.77,9.69,9.69,0,0,0-.38,1.11c0,.06,0,.16-.05.27l0,.17h-.17l-10,.45a.47.47,0,0,0,0,.95Z"/></g><g class="cls-5"><path class="cls-6" d="M302.32,139.75a5.25,5.25,0,1,1,5.25-5.25A5.26,5.26,0,0,1,302.32,139.75Zm0-9a3.75,3.75,0,1,0,3.75,3.75A3.75,3.75,0,0,0,302.32,130.75Z"/></g><g class="cls-7"><path class="cls-8" d="M276.16,80.39a5.66,5.66,0,1,1,5.66-5.66A5.66,5.66,0,0,1,276.16,80.39Zm0-9.82a4.16,4.16,0,1,0,4.16,4.16A4.16,4.16,0,0,0,276.16,70.58Z"/><path class="cls-9" d="M109.17,99a5.66,5.66,0,1,1,5.66-5.66A5.66,5.66,0,0,1,109.17,99Zm0-9.82a4.16,4.16,0,1,0,4.16,4.16A4.16,4.16,0,0,0,109.17,89.18Z"/><path class="cls-9" d="M305.48,102.29a5.66,5.66,0,1,1,5.66-5.66A5.66,5.66,0,0,1,305.48,102.29Zm0-9.82a4.16,4.16,0,1,0,4.16,4.16A4.16,4.16,0,0,0,305.48,92.48Z"/><path class="cls-9" d="M274.25,113.74a3.41,3.41,0,1,1,3.41-3.41A3.41,3.41,0,0,1,274.25,113.74Zm0-5.31a1.91,1.91,0,1,0,1.91,1.91A1.91,1.91,0,0,0,274.25,108.43Z"/><path class="cls-9" d="M135.29,124.95a3.41,3.41,0,1,1,3.41-3.41A3.41,3.41,0,0,1,135.29,124.95Zm0-5.31a1.91,1.91,0,1,0,1.91,1.91A1.91,1.91,0,0,0,135.29,119.64Z"/><path class="cls-6" d="M198.53,40.72a2,2,0,1,1,2-2A2,2,0,0,1,198.53,40.72Zm0-3.38a1.37,1.37,0,1,0,1.37,1.37A1.38,1.38,0,0,0,198.53,37.34Z"/><path class="cls-8" d="M264,157.7a5.66,5.66,0,1,1,5.66-5.66A5.66,5.66,0,0,1,264,157.7Zm0-9.82a4.16,4.16,0,1,0,4.16,4.16A4.16,4.16,0,0,0,264,147.88Z"/><path class="cls-6" d="M113.32,149.06A5.66,5.66,0,1,1,119,143.4,5.66,5.66,0,0,1,113.32,149.06Zm0-9.82a4.16,4.16,0,1,0,4.16,4.16A4.16,4.16,0,0,0,113.32,139.25Z"/><path class="cls-8" d="M79.92,152.45a5.25,5.25,0,1,1,5.25-5.25A5.26,5.26,0,0,1,79.92,152.45Zm0-9a3.75,3.75,0,1,0,3.75,3.75A3.75,3.75,0,0,0,79.92,143.45Z"/></g></g><polygon class="cls-10" points="218 140.59 217.63 114.97 211 114.97 214.21 142.63 218 140.59"/><path class="cls-11" d="M209.64,113.69h8v26.9a.38.38,0,0,0,.75,0V113.31a.38.38,0,0,0-.37-.37h-8.74a.38.38,0,0,0-.37.38V131s0,0,.07,0"/><path class="cls-12" d="M203,113v28l2,0V128c0-.3.7-.54,1-.54s1,.24,1,.54v13h1V131.3c0-.16.34-.3.5-.3s.5.13.5.3v9.76l2.38.87,2.33.69L214,113Z"/><path class="cls-11" d="M214.21,112.94H203.58a.38.38,0,0,0-.37.38v27.28a.38.38,0,0,0,.75,0v-26.9h9.88v28.9a.38.38,0,1,0,.75,0V113.31A.38.38,0,0,0,214.21,112.94Z"/><path class="cls-13" d="M189.47,61H230.8a23.62,23.62,0,0,1,23.62,23.62v29.76a0,0,0,0,1,0,0H165.85a0,0,0,0,1,0,0V84.61A23.62,23.62,0,0,1,189.47,61Z"/><path class="cls-11" d="M188.68,61.26h0a22.83,22.83,0,0,1,22.83,22.83v26.23a0,0,0,0,1,0,0H165.85a0,0,0,0,1,0,0V84.09a22.83,22.83,0,0,1,22.83-22.83Z"/><path class="cls-14" d="M169,110V80s4-19,26.54-17.22a20.77,20.77,0,0,0-15.3-.37c-8.31,3.09-14.58,9.18-15.56,19.32l-.16,28.61"/><path class="cls-15" d="M200,110V83s-2-20.22-20.25-20.22a21.22,21.22,0,0,1,15.45-.37c8.31,3.09,14.65,9.18,15.64,19.32l-.1,28.59"/><path class="cls-13" d="M154,109.65H258a0,0,0,0,1,0,0v1.66A3.66,3.66,0,0,1,254.3,115H157.7a3.66,3.66,0,0,1-3.66-3.66v-1.66A0,0,0,0,1,154,109.65Z"/><path class="cls-16" d="M191.21,75.29A3.52,3.52,0,0,1,189.06,79L182.18,82l-.4-3.19s2.14-.07,1.71-3.6-.33-3.3,3.73-4.93,7.31-2.77,7.31-2.77,1.33,1.48-.9,3.2C194.16,73.07,192.71,74.48,191.21,75.29Z"/><path class="cls-17" d="M189.43,72.73a13.32,13.32,0,0,0,4.21-2c2.23-1.72.9-3.2.9-3.2s-3.25,1.13-7.31,2.77-4.16,1.4-3.73,4.93-1.71,3.6-1.71,3.6l.4,3.19L189.06,79a3.52,3.52,0,0,0,2.15-3.68"/><path class="cls-17" d="M188.45,76.28a10.56,10.56,0,0,0,2.76-1c1.5-.81,3-2.22,2.43-4.53"/><path class="cls-17" d="M140.3,77.87a13.6,13.6,0,0,1-4.53-1c-2.55-1.22-1.56-2.94-1.56-2.94s3.41.41,7.73,1.12,4.36.48,4.7,4,2.45,3.15,2.45,3.15l.3,3.2L142,83.87a3.53,3.53,0,0,1-2.91-3.13"/><path class="cls-17" d="M142,81.12a10.49,10.49,0,0,1-2.92-.38c-1.64-.47-3.35-1.53-3.34-3.89"/><rect class="cls-18" x="149.1" y="73.16" width="32.93" height="16.72" transform="translate(-7.55 17.59) rotate(-5.95)"/><polyline class="cls-17" points="147.82 74.91 165.06 81.51 180.57 71.49"/><circle class="cls-12" cx="165.57" cy="81.51" r="4.46" transform="translate(-7.55 17.59) rotate(-5.95)"/><path class="cls-11" d="M170.2,78.29a5.69,5.69,0,0,0-2.28-1.85,5.75,5.75,0,0,0-5.7.59,5.69,5.69,0,0,0-1.85,2.28,5.72,5.72,0,0,0,4,7.92.33.33,0,0,0,.29-.08.29.29,0,0,0,.07-.23l0-.4q0-.38-.07-.66l-.17,0A2.16,2.16,0,0,1,164,86a3.12,3.12,0,0,1-.52,0,1.15,1.15,0,0,1-.52-.17.94.94,0,0,1-.37-.42l-.09-.16a1.86,1.86,0,0,0-.27-.35.9.9,0,0,0-.35-.25l-.06,0-.11-.08a.39.39,0,0,1-.08-.1s0-.06,0-.09a.48.48,0,0,1,.21-.06H162a1.08,1.08,0,0,1,.38.14,1.2,1.2,0,0,1,.4.35,1.31,1.31,0,0,0,.46.42.88.88,0,0,0,.5.11,2.13,2.13,0,0,0,.42-.08,1.49,1.49,0,0,0,.32-.15,1.21,1.21,0,0,1,.28-.8,5.07,5.07,0,0,1-.77-.05,3,3,0,0,1-.72-.22,2,2,0,0,1-.65-.43,2.4,2.4,0,0,1-.47-.74,3.71,3.71,0,0,1-.27-1.09,2.17,2.17,0,0,1,.43-1.58,2,2,0,0,1-.11-1.51,1,1,0,0,1,.65,0,4.51,4.51,0,0,1,.65.22l.34.17a5.37,5.37,0,0,1,2.84-.3l.26-.21a4,4,0,0,1,.65-.4,1,1,0,0,1,.59-.14,2,2,0,0,1,.22,1.5,2.17,2.17,0,0,1,.74,1.46,3.75,3.75,0,0,1,0,1.13,2.29,2.29,0,0,1-.31.82,2.08,2.08,0,0,1-.55.55,3,3,0,0,1-.66.36,5.07,5.07,0,0,1-.74.21,1.32,1.32,0,0,1,.49,1l.16,1.56a.3.3,0,0,0,.12.21.32.32,0,0,0,.3,0,5.72,5.72,0,0,0,2.26-8.57Z"/><path class="cls-16" d="M153.92,104.8a3.51,3.51,0,0,1-2.74,3.27L143.89,110l.14-3.21s2.13.29,2.29-3.26.22-3.31,4.5-4.25,7.66-1.51,7.66-1.51,1.07,1.67-1.41,3C157.2,103.11,155.53,104.25,153.92,104.8Z"/><path class="cls-17" d="M152.59,102a13.8,13.8,0,0,0,4.48-1.24c2.48-1.34,1.41-3,1.41-3s-3.38.57-7.66,1.51-4.34.69-4.5,4.25-2.29,3.26-2.29,3.26l-.14,3.21,7.29-1.89a3.51,3.51,0,0,0,2.74-3.27"/><path class="cls-17" d="M151,105.32a10.46,10.46,0,0,0,2.88-.52c1.61-.55,3.28-1.69,3.15-4.06"/><path class="cls-16" d="M101.52,102.47c-1.55-.69-3.11-2-2.77-4.32C96.38,96.6,97.61,95,97.61,95s3.31.87,7.49,2.19,4.26,1.07,4.11,4.63,2,3.46,2,3.46l-.15,3.2L104,106A3.51,3.51,0,0,1,101.52,102.47Z"/><path class="cls-17" d="M103.09,99.78a13.76,13.76,0,0,1-4.34-1.63C96.38,96.6,97.61,95,97.61,95s3.31.87,7.49,2.19,4.26,1.07,4.11,4.63,2,3.46,2,3.46l-.15,3.2L104,106a3.51,3.51,0,0,1-2.44-3.5"/><path class="cls-17" d="M104.35,103.24a10.38,10.38,0,0,1-2.83-.77c-1.55-.69-3.11-2-2.77-4.32"/><rect class="cls-18" x="111.08" y="99.04" width="32.84" height="18.54" rx="3.81" ry="3.81" transform="translate(4.94 -5.56) rotate(2.55)"/><polygon class="cls-19" points="132.6 108.54 124.19 112.91 124.61 103.44 132.6 108.54"/><ellipse class="cls-11" cx="228" cy="85.13" rx="3.77" ry="4.71"/><ellipse class="cls-20" cx="228.69" cy="85.13" rx="3.77" ry="4.71"/><path class="cls-21" d="M228,44.64h2a0,0,0,0,1,0,0V85.1a1,1,0,0,1-1,1h0a1,1,0,0,1-1-1V44.64a0,0,0,0,1,0,0Z"/><polygon class="cls-22" points="244.99 54.65 230.12 54.65 230.12 44.52 244.99 44.52 239.89 49.58 244.99 54.65"/><line class="cls-17" x1="254.14" y1="97.61" x2="243.47" y2="97.61"/><line class="cls-17" x1="254.42" y1="101.34" x2="235.5" y2="101.34"/><line class="cls-17" x1="254.42" y1="81.65" x2="247.75" y2="81.65"/><path class="cls-16" d="M192.3,60.54A1.63,1.63,0,0,1,190.92,62l-3.44.62.18-1.48s1,.2,1.18-1.43.22-1.52,2.23-1.81,3.6-.43,3.6-.43.43.81-.76,1.34a1.85,1.85,0,0,1-1.6,1.77Z"/><path class="cls-23" d="M191.78,59.19a6.13,6.13,0,0,0,2.12-.42c1.19-.53.76-1.34.76-1.34s-1.59.15-3.6.43-2,.17-2.23,1.81-1.18,1.43-1.18,1.43l-.18,1.48,3.44-.62a1.63,1.63,0,0,0,1.38-1.41"/><path class="cls-23" d="M190.95,60.67a4.89,4.89,0,0,0,1.36-.13h0a1.85,1.85,0,0,0,1.6-1.77"/><path class="cls-16" d="M167.15,55h0c-1-.83-.38-1.5-.38-1.5s1.49.56,3.36,1.37,1.91.7,1.66,2.33.76,1.69.76,1.69l-.23,1.48-3.14-1.52a1.64,1.64,0,0,1-1-1.74A1.85,1.85,0,0,1,167.15,55Z"/><path class="cls-23" d="M167.15,55c-1-.83-.38-1.5-.38-1.5s1.49.56,3.36,1.37,1.91.7,1.66,2.33.76,1.69.76,1.69l-.23,1.48-3.14-1.52a1.64,1.64,0,0,1-1-1.74"/><path class="cls-23" d="M169.07,56a6.13,6.13,0,0,1-1.92-1"/><path class="cls-23" d="M169.49,57.66a4.66,4.66,0,0,1-1.27-.49A1.85,1.85,0,0,1,167.15,55h0"/><rect class="cls-24" x="172.41" y="56.59" width="15.28" height="7.76" transform="translate(10.15 -24.43) rotate(7.99)"/><polyline class="cls-23" points="172.53 55.57 179.55 60.47 187.66 57.69"/><circle class="cls-12" cx="180.09" cy="60.48" r="0.9" transform="matrix(1, -0.02, 0.02, 1, -0.98, 3)"/><path class="cls-11" d="M181.38,61.82a2.8,2.8,0,0,1-3-.57l-.06,0,0,0q0,.59,0,.89a.66.66,0,0,0,.12.21.85.85,0,0,0,.19.17l.21.12.23.1a4,4,0,0,0,.58.17,2.54,2.54,0,0,0,.6,0,2.1,2.1,0,0,0,.59-.1.46.46,0,0,0,.2-.13.64.64,0,0,0,.12-.19l.09-.24a1.68,1.68,0,0,1,.09-.21l0-.1a.31.31,0,0,0,0-.13.09.09,0,0,0-.06-.08Zm0,0"/><path class="cls-11" d="M182.45,59.11a1.25,1.25,0,0,0-.56-.48,5.3,5.3,0,0,0-1.95-.53,3.78,3.78,0,0,0-1,0l-.15,0-.15,0-.15.06-.11.09a.33.33,0,0,0-.08.13q0,.22,0,.47t0,.44q0,.19,0,.49t0,.45s0,.05,0,.11,0,.09,0,.12a.86.86,0,0,0,0,.1.36.36,0,0,0,0,.11l.06.09a2.3,2.3,0,0,0,1.07.63,3.24,3.24,0,0,0,1.83.09l.18-.06.15-.09a.34.34,0,0,0,.11-.15q.52-1.38.69-1.85a.61.61,0,0,0,0-.15.24.24,0,0,0,0-.16ZM180.53,61a.66.66,0,0,1-1.08-.59.69.69,0,0,1,.52-.56.61.61,0,0,1,.57.15.64.64,0,0,1,.24.54.65.65,0,0,1-.24.46Zm1-1.82-.22,0-.27,0a5.27,5.27,0,0,1-1.31-.26l-.25-.08-.2-.11a.68.68,0,0,1-.2-.18.41.41,0,0,1,.17-.1l.17,0h.2a5,5,0,0,1,1.66.31l.2.08.16.1a.44.44,0,0,1,.14.16.62.62,0,0,1-.25.09Zm0,0"/><path class="cls-11" d="M180.39,60.31a.33.33,0,0,0-.17-.14.35.35,0,0,0-.22,0,.28.28,0,0,0-.18.14.36.36,0,0,0,0,.24.28.28,0,0,0,.12.2.33.33,0,0,0,.53-.22.29.29,0,0,0,0-.21Zm0,0"/><path class="cls-16" d="M194.87,131a2.26,2.26,0,0,1-2,2.14,2,2,0,0,1-1.71,1.71l-4.2.7.24-1.8s1.19.26,1.45-1.73.29-1.84,2.75-2.16,4.39-.47,4.39-.47S196.34,130.37,194.87,131Z"/><path class="cls-23" d="M192.28,131.47a7.4,7.4,0,0,0,2.58-.48c1.47-.62.94-1.62.94-1.62s-1.94.16-4.39.47-2.48.16-2.75,2.16-1.45,1.73-1.45,1.73l-.24,1.8,4.2-.7a2,2,0,0,0,1.71-1.71"/><path class="cls-23" d="M191.24,133.27a5.69,5.69,0,0,0,1.65-.15,2.26,2.26,0,0,0,2-2.14"/><path class="cls-16" d="M163.57,128.66A2.25,2.25,0,0,1,162.3,126c-1.22-1-.44-1.83-.44-1.83s1.81.71,4.07,1.73,2.32.89,2,2.87.89,2.07.89,2.07l-.29,1.8-3.82-1.89A2,2,0,0,1,163.57,128.66Z"/><path class="cls-23" d="M164.64,127.25A7.66,7.66,0,0,1,162.3,126c-1.22-1-.44-1.83-.44-1.83s1.81.71,4.07,1.73,2.32.89,2,2.87.89,2.07.89,2.07l-.29,1.8-3.82-1.89a2,2,0,0,1-1.14-2.13"/><path class="cls-23" d="M165.11,129.28a5.69,5.69,0,0,1-1.54-.62A2.25,2.25,0,0,1,162.3,126"/><rect class="cls-24" x="168.64" y="128.13" width="18.64" height="9.46" transform="matrix(0.99, 0.15, -0.15, 0.99, 22.1, -25.35)"/><polyline class="cls-23" points="168.96 126.78 177.46 132.86 187.38 129.59"/><polygon class="cls-12" points="177.93 130.43 175.42 132.25 177.68 134.05 179.9 132.94 177.93 130.43"/><path class="cls-19" d="M177.73,133.71l-1.62-1.44a.16.16,0,0,0-.19,0l-1.36.79a.16.16,0,0,0,0,.26l1.62,1.44a.16.16,0,0,0,.19,0l1.36-.79a.16.16,0,0,0,0-.26Zm0,0"/><path class="cls-19" d="M178.18,134l1.06,1.16a.16.16,0,0,0,.19,0l2-.88a.16.16,0,0,0,.05-.26l-1.06-1.16a.16.16,0,0,0-.19,0l-2,.88a.16.16,0,0,0-.05.26Zm0,0"/><path class="cls-19" d="M178.17,130.93l-1.06-1.16a.16.16,0,0,0-.19,0l-2,.88a.16.16,0,0,0-.05.26L176,132a.16.16,0,0,0,.19,0l2-.88a.16.16,0,0,0,.05-.26Zm0,0"/><path class="cls-19" d="M181.82,131.67l-1.62-1.44a.16.16,0,0,0-.19,0l-1.36.79a.16.16,0,0,0,0,.26l1.62,1.44a.16.16,0,0,0,.19,0l1.36-.79a.16.16,0,0,0,0-.26Zm0,0"/><path class="cls-19" d="M177.83,134.17l-1.52.87a.15.15,0,0,1-.17,0l-.3-.27a.15.15,0,0,0-.24.09l0,.12a.15.15,0,0,0,.05.14l1.83,1.53a.15.15,0,0,0,.15,0l2.2-.91a.15.15,0,0,0,.09-.11l0-.1a.15.15,0,0,0-.21-.16l-.35.15a.15.15,0,0,1-.17,0L178,134.2a.15.15,0,0,0-.18,0Zm0,0"/></svg>