<svg id="Layer_1" data-name="Layer 1" xmlns="http://www.w3.org/2000/svg" viewBox="0 0 100 100"><defs><style>.cls-1{fill:#fcc54e;}</style></defs><title>graduate</title><path class="cls-1" d="M7.5,43.27c4-.52,19.22-5.27,20.73-11.52,0,0,11,12.64,21.77,11.52S71.77,30.75,71.77,30.75,84.25,42.54,91.25,43.27L89,50H8.75Z"/><path d="M93.54,47.76H91.89V44.41q.82,0,1.65.05a1.46,1.46,0,1,0,0-2.92c-11.2,0-20.31-7.72-20.31-17.2V19.68a1.46,1.46,0,1,0-2.92,0v4.67c0,9.49-9.11,17.2-20.31,17.2s-20.31-7.72-20.31-17.2V19.68a1.46,1.46,0,1,0-2.92,0v4.67c0,9.49-9.11,17.2-20.31,17.2a1.46,1.46,0,1,0,0,2.92q.83,0,1.65-.05v3.36H6.46a1.46,1.46,0,0,0,0,2.92H93.54a1.46,1.46,0,0,0,0-2.92Zm-4.57,0H85.67v-4.5a25.88,25.88,0,0,0,3.31.8Zm-6.22,0H79.45V40.32a24.13,24.13,0,0,0,3.31,1.83ZM76.53,38v9.74h-3.3V34.09A20.65,20.65,0,0,0,76.53,38Zm-6.22-3.94V47.76H67V38a20.63,20.63,0,0,0,3.31-3.94Zm-9.52,8.06a23.94,23.94,0,0,0,3.3-1.83v7.44h-3.3Zm-2.92,5.61H54.57v-3.7a26.05,26.05,0,0,0,3.31-.8Zm-6.22-3.36v3.36H48.35V44.41q.82,0,1.65.05t1.65-.05Zm-9.52-1.14a25.86,25.86,0,0,0,3.3.8v3.7h-3.3Zm-2.92,4.5H35.91V40.32a24,24,0,0,0,3.31,1.83ZM33,38v9.74h-3.3V34.09A20.62,20.62,0,0,0,33,38Zm-6.22-3.94V47.76H23.47V38a20.67,20.67,0,0,0,3.31-3.94ZM20.55,47.76H17.25V42.15a23.9,23.9,0,0,0,3.31-1.83ZM11,44.07a26,26,0,0,0,3.3-.8v4.5H11Zm0,0"/><path d="M93.54,56.9a1.46,1.46,0,0,0,0-2.92H6.46a1.46,1.46,0,1,0,0,2.92H26.77v3.31h-.1a3,3,0,0,0-3,3v3.21H6.46a1.46,1.46,0,0,0,0,2.92H93.54a1.46,1.46,0,0,0,0-2.92H76.34V63.22a3,3,0,0,0-3-3h-.1V56.9Zm-67,6.32a.1.1,0,0,1,.1-.1h3.11a.1.1,0,0,1,.1.1v3.21h-3.3Zm46.85,0v3.21H70.12V63.22a.1.1,0,0,1,.1-.1h3.11a.1.1,0,0,1,.1.1Zm-3.11-3h-.1a3,3,0,0,0-3,3v3.21H32.8V63.22a3,3,0,0,0-3-3h-.1V56.9H70.31Zm0,0"/><path d="M65.55,72.65h-28a1.46,1.46,0,0,0,0,2.92h28a1.46,1.46,0,1,0,0-2.92Zm0,0"/><path d="M31.34,72.65H18.9a1.46,1.46,0,1,0,0,2.92H31.34a1.46,1.46,0,1,0,0-2.92Zm0,0"/><path d="M74.88,72.65H71.77a1.46,1.46,0,0,0,0,2.92h3.11a1.46,1.46,0,1,0,0-2.92Zm0,0"/><path d="M62.44,78.87H46.89a1.46,1.46,0,1,0,0,2.92H62.44a1.46,1.46,0,1,0,0-2.92Zm0,0"/><path d="M40.67,78.87H37.56a1.46,1.46,0,0,0,0,2.92h3.11a1.46,1.46,0,0,0,0-2.92Zm0,0"/></svg>