<svg id="Layer_1" data-name="Layer 1" xmlns="http://www.w3.org/2000/svg" viewBox="0 0 40 35"><defs><style>.cls-1{fill:#32b475;}</style></defs><title>group-study</title><path class="cls-1" d="M26.33,17A2.32,2.32,0,1,0,24,14.66,2.33,2.33,0,0,0,26.33,17Zm0-3.72a1.39,1.39,0,1,1-1.39,1.39,1.4,1.4,0,0,1,1.39-1.39Zm0,0"/><path class="cls-1" d="M26.33,17.91a3.84,3.84,0,0,0-1.81.45.46.46,0,0,0,.44.82,2.9,2.9,0,0,1,4.24,2.1H26.33a.46.46,0,0,0,0,.93H29.7a.46.46,0,0,0,.46-.46,3.84,3.84,0,0,0-3.83-3.83Zm0,0"/><path class="cls-1" d="M13.71,21.28H10.81A2.9,2.9,0,0,1,15,19.18a.46.46,0,1,0,.44-.82,3.83,3.83,0,0,0-5.64,3.38.46.46,0,0,0,.46.46h3.41a.46.46,0,0,0,0-.93Zm0,0"/><path class="cls-1" d="M13.67,17a2.32,2.32,0,1,0-2.32-2.32A2.32,2.32,0,0,0,13.67,17Zm0-3.72a1.39,1.39,0,1,1-1.39,1.39,1.4,1.4,0,0,1,1.39-1.39Zm0,0"/><path class="cls-1" d="M20,17.15a3,3,0,1,0-3-3,3,3,0,0,0,3,3Zm0-5.05a2.06,2.06,0,1,1-2.06,2.06A2.06,2.06,0,0,1,20,12.1Zm0,0"/><path class="cls-1" d="M20,18.08a5,5,0,0,0-5,5,.46.46,0,0,0,.46.46h9.16a.46.46,0,0,0,.46-.46,5,5,0,0,0-5-5Zm-4.09,4.58a4.11,4.11,0,0,1,8.18,0Zm0,0"/><path class="cls-1" d="M1.15,30.17V4.94l.46,0A20.57,20.57,0,0,0,6,3.69a22.32,22.32,0,0,1,7.14-1.61,6.75,6.75,0,0,1,6.7,4.4.13.13,0,0,0,.23,0,6.81,6.81,0,0,1,6.7-4.4A22.32,22.32,0,0,1,34,3.69h0a20.58,20.58,0,0,0,4.43,1.2l.46,0V30.17l-.57-.07A21.34,21.34,0,0,1,34,28.93a22.51,22.51,0,0,0-7.22-1.62,7.2,7.2,0,0,0-5.53,2.28l-.15.17H18.87l-.15-.17a7.21,7.21,0,0,0-5.53-2.28A22.5,22.5,0,0,0,6,28.93a21.41,21.41,0,0,1-4.25,1.17Zm25.66-3.88A23.29,23.29,0,0,1,34.37,28a26.73,26.73,0,0,0,3.46,1V5.85a24.41,24.41,0,0,1-4.2-1.19h0A21.54,21.54,0,0,0,26.81,3.1a5.75,5.75,0,0,0-5.72,3.68,1.14,1.14,0,0,1-2.19,0A5.72,5.72,0,0,0,13.19,3.1,21.54,21.54,0,0,0,6.38,4.66a24.47,24.47,0,0,1-4.21,1.2V29a26.82,26.82,0,0,0,3.46-1,23.29,23.29,0,0,1,7.56-1.68,8.23,8.23,0,0,1,6.13,2.45h1.36A8.23,8.23,0,0,1,26.81,26.29Z"/><path class="cls-1" d="M39,32.92a17.44,17.44,0,0,1-5.35-1.29,21.53,21.53,0,0,0-6.81-1.55A6,6,0,0,0,22.21,32a1.15,1.15,0,0,1-.84.37H18.63a1.15,1.15,0,0,1-.84-.37,6,6,0,0,0-4.6-1.87,21.51,21.51,0,0,0-6.81,1.55A17.46,17.46,0,0,1,1,32.92v-1a16.83,16.83,0,0,0,5-1.23,22.29,22.29,0,0,1,7.14-1.61,6.93,6.93,0,0,1,5.36,2.2l2.83,0a7.15,7.15,0,0,1,5.44-2.24A22.29,22.29,0,0,1,34,30.67a16.82,16.82,0,0,0,5,1.23Z"/></svg>