<?xml version="1.0" encoding="utf-8"?>
<!-- Generator: Adobe Illustrator 20.0.0, SVG Export Plug-In . SVG Version: 6.00 Build 0)  -->
<svg version="1.1" id="Capa_1" xmlns="http://www.w3.org/2000/svg" xmlns:xlink="http://www.w3.org/1999/xlink" x="0px" y="0px"
	 viewBox="0 0 53 81" style="enable-background:new 0 0 53 81;" xml:space="preserve">
<style type="text/css">
	.st0{fill:#0AA5E3;}
</style>
<g>
	<path class="st0" d="M42.7,8.5H9.3C6.9,8.5,5,10.4,5,12.8v55.4c0,2.4,1.9,4.3,4.3,4.3h33.4c2.4,0,4.3-1.9,4.3-4.3V12.8
		C47,10.4,45.1,8.5,42.7,8.5z M7,19.4h38v42.3H7V19.4z M9.3,10.5h33.4c1.3,0,2.3,1,2.3,2.3v4.5H7v-4.5C7,11.6,8,10.5,9.3,10.5z
		 M42.7,70.5H9.3c-1.3,0-2.3-1-2.3-2.3v-4.5h38v4.5C45,69.4,44,70.5,42.7,70.5z"/>
	<path class="st0" d="M34.3,15c0.6,0,1.1-0.5,1.1-1.1c0-0.6-0.5-1.1-1.1-1.1c-0.6,0-1.1,0.5-1.1,1.1C33.2,14.5,33.7,15,34.3,15z"/>
	<path class="st0" d="M28.9,66.1h-5.8c-0.6,0-1,0.5-1,1s0.5,1,1,1h5.8c0.6,0,1-0.5,1-1S29.5,66.1,28.9,66.1z"/>
	<path class="st0" d="M23.1,15h5.8c0.6,0,1-0.5,1-1s-0.5-1-1-1h-5.8c-0.6,0-1,0.5-1,1S22.5,15,23.1,15z"/>
	<path class="st0" d="M25.2,50.7c0.2,0.3,0.5,0.4,0.8,0.4c0.3,0,0.6-0.1,0.8-0.4l10.6-14c1-1.3,1.5-2.8,1.5-4.4c0-4-3.3-7.3-7.3-7.3
		c-2.1,0-4.2,0.9-5.5,2.5C24.6,26,22.7,25,20.5,25c-4,0-7.3,3.3-7.3,7.3c0,1.6,0.5,3.1,1.5,4.4L25.2,50.7z M20.5,27
		c2.9,0,5.2,2.4,5.2,5.2c0,0.6,0.5,1,1,1c0.6,0,1-0.5,1-1c0-1-0.2-2-0.6-2.9c1-1.4,2.6-2.3,4.4-2.3c2.9,0,5.3,2.4,5.3,5.3
		c0,1.2-0.4,2.3-1.1,3.2L26,48.4l-9.8-12.9c-0.7-0.9-1.1-2-1.1-3.2C15.2,29.4,17.6,27,20.5,27z"/>
	<path class="st0" d="M37.8,54H14.2c-0.6,0-1,0.5-1,1c0,0.6,0.5,1,1,1h23.7c0.6,0,1-0.5,1-1C38.9,54.4,38.4,54,37.8,54z"/>
</g>
</svg>
