<?xml version="1.0" encoding="utf-8"?>
<!-- Generator: Adobe Illustrator 20.0.0, SVG Export Plug-In . SVG Version: 6.00 Build 0)  -->
<svg version="1.1" id="Layer_1" xmlns="http://www.w3.org/2000/svg" xmlns:xlink="http://www.w3.org/1999/xlink" x="0px" y="0px"
	 viewBox="0 0 64 64" style="enable-background:new 0 0 64 64;" xml:space="preserve">
<style type="text/css">
	.st0{fill:#0AA5E3;}
</style>
<g id="Video-media">
	<path class="st0" d="M42.4,36.1l-16-8c-0.3-0.2-0.7-0.1-1,0C25.2,28.3,25,28.7,25,29v16c0,0.3,0.2,0.7,0.5,0.9
		C25.6,46,25.8,46,26,46c0.2,0,0.3,0,0.4-0.1l16-8c0.3-0.2,0.6-0.5,0.6-0.9S42.8,36.3,42.4,36.1z M27,43.4V30.6L39.8,37L27,43.4z"/>
	<path class="st0" d="M60,5H4C1.8,5,0,6.8,0,9v46c0,2.2,1.8,4,4,4h56c2.2,0,4-1.8,4-4V9C64,6.8,62.2,5,60,5z M62,9v8h-8.3l2.7-10H60
		C61.1,7,62,7.9,62,9z M21.3,7l-2.7,10h-9l2.7-10H21.3z M23.4,7h8.9l-2.7,10h-8.9L23.4,7z M34.4,7h8.9l-2.7,10h-8.9L34.4,7z M45.4,7
		h8.9l-2.7,10h-8.9L45.4,7z M4,7h6.3L7.6,17H2V9C2,7.9,2.9,7,4,7z M60,57H4c-1.1,0-2-0.9-2-2V19h60v36C62,56.1,61.1,57,60,57z"/>
</g>
</svg>
