<svg id="Layer_1" data-name="Layer 1" xmlns="http://www.w3.org/2000/svg" viewBox="0 0 330 150"><defs><style>.cls-1{fill:#eff5f8;}.cls-2{opacity:0.7;}.cls-3{fill:#cdebfc;}.cls-4{opacity:0.3;}.cls-5{fill:#e3b462;}.cls-6{opacity:0.39;}.cls-7{fill:#0aa5e3;}.cls-8{fill:#32b475;}.cls-18,.cls-9{fill:#caedff;}.cls-11,.cls-9{stroke:#3273ad;stroke-miterlimit:10;}.cls-9{stroke-width:0.31px;}.cls-10{fill:#92cfe8;}.cls-11,.cls-19{fill:#fff;}.cls-11{stroke-width:0.28px;}.cls-12{fill:#fad264;}.cls-13{fill:#3273ad;}.cls-14{fill:#deedfc;}.cls-15{fill:#96d778;}.cls-16{fill:#ff877d;}.cls-17{fill:#e25b54;}.cls-20{fill:#ddb450;}</style></defs><title>interview-result-waiting</title><path class="cls-1" d="M238.63,98.2h-35.7a3.14,3.14,0,0,0,0,6.27h4.65a3.14,3.14,0,1,1,0,6.27H197.42a3.14,3.14,0,0,0,0,6.27h35.7a3.14,3.14,0,1,0,0-6.27h-9.74a3.14,3.14,0,1,1,0-6.27h15.25a3.14,3.14,0,0,0,0-6.27Z"/><path class="cls-1" d="M48,107.61H89.13a3.09,3.09,0,0,0,0-6.18H78.59a3.09,3.09,0,0,1,0-6.18h6.6a3.09,3.09,0,1,0,0-6.18H58.56a3.09,3.09,0,1,0,0,6.18H63a3.09,3.09,0,0,1,0,6.18H48a3.09,3.09,0,1,0,0,6.18Z"/><path class="cls-1" d="M229.28,56.6h53.46a4,4,0,0,0,0-8H269a4,4,0,1,1,0-8h8.59a4,4,0,0,0,0-8H243a4,4,0,1,0,0,8h5.82a4,4,0,1,1,0,8H229.28a4,4,0,0,0,0,8Z"/><path class="cls-1" d="M155.49,45.3H105.35a3.77,3.77,0,1,0,0,7.53h12.86a3.77,3.77,0,0,1,0,7.53h-8.05a3.77,3.77,0,1,0,0,7.53h32.47a3.77,3.77,0,0,0,0-7.53h-5.46a3.77,3.77,0,1,1,0-7.53h18.31a3.77,3.77,0,1,0,0-7.53Z"/><g class="cls-2"><path class="cls-3" d="M50,37.22h5.81a.47.47,0,0,0,.47-.49,4.27,4.27,0,0,1,1.14-3.26c1.77-1.82,5-1.8,5-1.81a.53.53,0,0,0,.36-.16.48.48,0,0,0,.11-.38,9.84,9.84,0,0,1,2-6.76,7.79,7.79,0,0,1,6.14-2.43A7.2,7.2,0,0,1,76.55,24c2.4,2.51,2.26,6.5,2.26,6.54a.48.48,0,0,0,.19.4.48.48,0,0,0,.44.07,6.65,6.65,0,0,1,5.61.26c2.84,1.65,3.64,5.54,3.65,5.58a.48.48,0,0,0,.47.38h11.42a.48.48,0,0,0,0-1h-11c-.29-1.1-1.32-4.27-4-5.83a7.29,7.29,0,0,0-5.78-.53,10.44,10.44,0,0,0-2.51-6.57A8.1,8.1,0,0,0,71.15,21a8.72,8.72,0,0,0-6.86,2.75,10.73,10.73,0,0,0-2.31,7,8.31,8.31,0,0,0-5.19,2.08,5.06,5.06,0,0,0-1.41,3.47H50a.48.48,0,1,0,0,1Z"/></g><g class="cls-2"><path class="cls-3" d="M275.26,49.84h0l10-.45a1.16,1.16,0,0,0,.73-.1,1.2,1.2,0,0,0,.36-.87c0-.07,0-.13,0-.16a8.69,8.69,0,0,1,.34-1,6.56,6.56,0,0,1,.89-1.54A5.56,5.56,0,0,1,290,44a6.88,6.88,0,0,1,2.26-.45,7.46,7.46,0,0,1,.83,0,1.25,1.25,0,0,0,.67,0c.35-.13.48-.52.71-1.46,0-.15.07-.27.09-.34a17.94,17.94,0,0,1,1-2.28,11.87,11.87,0,0,1,2.28-3.15A8.76,8.76,0,0,1,303,33.93,11.55,11.55,0,0,1,313.56,39a12.59,12.59,0,0,1,1.87,7.8.48.48,0,0,0,.95.1,13.57,13.57,0,0,0-2-8.41,12.37,12.37,0,0,0-11.5-5.5,9.7,9.7,0,0,0-5.75,2.68,12.8,12.8,0,0,0-2.46,3.4,18.81,18.81,0,0,0-1,2.4c0,.08-.07.23-.11.42s-.13.52-.2.74l-.19,0a9,9,0,0,0-.93,0,7.85,7.85,0,0,0-2.57.52,6.52,6.52,0,0,0-2.74,2,7.48,7.48,0,0,0-1,1.77,9.69,9.69,0,0,0-.38,1.11c0,.06,0,.16-.05.27l0,.17h-.17l-10,.45a.47.47,0,0,0,0,.95Z"/></g><g class="cls-4"><path class="cls-5" d="M271.81,114.86a5.25,5.25,0,1,1,5.25-5.25A5.26,5.26,0,0,1,271.81,114.86Zm0-9a3.75,3.75,0,1,0,3.75,3.75A3.75,3.75,0,0,0,271.81,105.86Z"/></g><g class="cls-6"><path class="cls-7" d="M245.65,55.5a5.66,5.66,0,1,1,5.66-5.66A5.66,5.66,0,0,1,245.65,55.5Zm0-9.82a4.16,4.16,0,1,0,4.16,4.16A4.16,4.16,0,0,0,245.65,45.68Z"/><path class="cls-8" d="M69.66,80a5.66,5.66,0,1,1,5.66-5.66A5.66,5.66,0,0,1,69.66,80Zm0-9.82a4.16,4.16,0,1,0,4.16,4.16A4.16,4.16,0,0,0,69.66,70.2Z"/><path class="cls-8" d="M275,77.4a5.66,5.66,0,1,1,5.66-5.66A5.66,5.66,0,0,1,275,77.4Zm0-9.82a4.16,4.16,0,1,0,4.16,4.16A4.16,4.16,0,0,0,275,67.58Z"/><path class="cls-8" d="M243.74,88.84a3.41,3.41,0,1,1,3.41-3.41A3.41,3.41,0,0,1,243.74,88.84Zm0-5.31a1.91,1.91,0,1,0,1.91,1.91A1.91,1.91,0,0,0,243.74,83.53Z"/><path class="cls-8" d="M106.79,86.94a3.41,3.41,0,1,1,3.41-3.41A3.41,3.41,0,0,1,106.79,86.94Zm0-5.31a1.91,1.91,0,1,0,1.91,1.91A1.91,1.91,0,0,0,106.79,81.62Z"/><path class="cls-5" d="M168,15.83a2,2,0,1,1,2-2A2,2,0,0,1,168,15.83Zm0-3.38a1.37,1.37,0,1,0,1.37,1.37A1.38,1.38,0,0,0,168,12.45Z"/><path class="cls-7" d="M233.51,132.8a5.66,5.66,0,1,1,5.66-5.66A5.66,5.66,0,0,1,233.51,132.8Zm0-9.82a4.16,4.16,0,1,0,4.16,4.16A4.16,4.16,0,0,0,233.51,123Z"/><path class="cls-5" d="M82.81,124.16a5.66,5.66,0,1,1,5.66-5.66A5.66,5.66,0,0,1,82.81,124.16Zm0-9.82A4.16,4.16,0,1,0,87,118.51,4.16,4.16,0,0,0,82.81,114.35Z"/><path class="cls-7" d="M49.41,127.55a5.25,5.25,0,1,1,5.25-5.25A5.26,5.26,0,0,1,49.41,127.55Zm0-9a3.75,3.75,0,1,0,3.75,3.75A3.75,3.75,0,0,0,49.41,118.55Z"/></g><rect class="cls-9" x="136.26" y="36.55" width="62.01" height="75.03" rx="6" ry="6"/><rect class="cls-10" x="140.6" y="42.18" width="54.57" height="67.53" rx="6" ry="6"/><rect class="cls-11" x="139.98" y="40.93" width="55.81" height="67.53" rx="6" ry="6"/><rect class="cls-11" x="139.36" y="40.31" width="55.81" height="67.53" rx="6" ry="6"/><rect class="cls-12" x="164.44" y="31.75" width="6.36" height="7.63" rx="2.82" ry="2.82"/><path class="cls-13" d="M168.45,39.67h-1.66A2.64,2.64,0,0,1,164.14,37V34.09a2.64,2.64,0,0,1,2.64-2.64h1.66a2.64,2.64,0,0,1,2.64,2.64V37A2.64,2.64,0,0,1,168.45,39.67ZM166.78,32a2.06,2.06,0,0,0-2.05,2.05V37a2.06,2.06,0,0,0,2.05,2.05h1.66A2.06,2.06,0,0,0,170.5,37V34.09A2.06,2.06,0,0,0,168.45,32Z"/><rect class="cls-12" x="155.2" y="36.24" width="24.84" height="6.06"/><path class="cls-13" d="M180,42.6H155.2a.29.29,0,0,1-.29-.29V36.24a.29.29,0,0,1,.29-.29H180a.29.29,0,0,1,.29.29v6.06A.29.29,0,0,1,180,42.6ZM155.49,42h24.25V36.54H155.49Z"/><path class="cls-14" d="M124.84,102.75l2.88,5.36,0,.05h0l.1.06h0l.12,0a.32.32,0,0,0,.13,0,.35.35,0,0,0,.11-.08l0-.06,2.76-5.46"/><polyline class="cls-15" points="129.63 105.55 128 108.33 126.42 105.5"/><path class="cls-13" d="M130.74,102.47l.65.33-2.76,5.46a.72.72,0,0,1-.33.31.67.67,0,0,1-.29.06.7.7,0,0,1-.24,0,.77.77,0,0,1-.25-.16l-.1-.12-2.89-5.39.64-.34,2.88,5.36Z"/><path class="cls-15" d="M124.83,80.59a2.83,2.83,0,0,1,2.68-2.13,2.82,2.82,0,0,1,2.75,2Z"/><path class="cls-13" d="M129.3,79.47h0a2.52,2.52,0,0,1,.53.73l-4.58.08a2.54,2.54,0,0,1,2.26-1.52,2.5,2.5,0,0,1,1.79.71m.41-.43a3.11,3.11,0,0,0-5.24,1.85l6.16-.11a3.11,3.11,0,0,0-.91-1.74Z"/><polyline class="cls-15" points="124.84 102.75 124.52 85.34 130.74 85.23 131.06 102.63"/><path class="cls-13" d="M131.1,84.86l.33,17.77a.36.36,0,0,1-.73,0l-.32-17-5.5.1.31,17a.36.36,0,0,1-.73,0L124.15,85Z"/><line class="cls-7" x1="126.85" y1="102.64" x2="126.71" y2="87.43"/><path class="cls-13" d="M126.82,87.09a.36.36,0,0,1,.25.34l.15,15.21a.36.36,0,0,1-.73,0l-.15-15.21a.36.36,0,0,1,.36-.37Z"/><line class="cls-7" x1="128.93" y1="102.62" x2="128.78" y2="87.41"/><path class="cls-13" d="M128.89,87.06a.36.36,0,0,1,.25.34l.15,15.21a.36.36,0,0,1-.73,0l-.15-15.21a.36.36,0,0,1,.36-.37Z"/><line class="cls-7" x1="124.41" y1="83.92" x2="130.64" y2="83.76"/><path class="cls-13" d="M130.75,83.42a.36.36,0,0,1-.1.71l-6.22.16a.36.36,0,0,1,0-.73l6.22-.16Z"/><line class="cls-7" x1="124.37" y1="82.35" x2="130.6" y2="82.18"/><path class="cls-13" d="M130.71,81.84a.36.36,0,0,1-.1.71l-6.22.16a.36.36,0,0,1,0-.73l6.22-.16Z"/><path class="cls-15" d="M155.57,54.67c-.28-.15-.6.14-.79.32-.43.42-.79.9-1.19,1.33s-.86,1-1.32,1.43a4,4,0,0,0-.72.88,14.34,14.34,0,0,0-1.17-1.14c-.32-.24-.84-.42-.83.16a3.71,3.71,0,0,0,1.18,2.08,1.25,1.25,0,0,0,.8.46c.38,0,.78-.44,1-.69.4-.44.73-.93,1.11-1.38s1-1.17,1.44-1.77c.3-.37,1.23-1.29.49-1.68ZM150,57.61h0l-.12,0s.09,0,.16,0Zm0,0"/><path class="cls-15" d="M155.68,86.38c-.28-.15-.6.14-.79.32-.43.42-.79.9-1.19,1.33s-.86,1-1.32,1.43a4,4,0,0,0-.72.88,14.34,14.34,0,0,0-1.17-1.14c-.32-.24-.84-.42-.83.16a3.71,3.71,0,0,0,1.18,2.08,1.25,1.25,0,0,0,.8.46c.38,0,.78-.44,1-.69.4-.44.73-.93,1.11-1.38s1-1.17,1.44-1.77c.3-.37,1.23-1.29.49-1.68Zm-5.55,2.94h0l-.12,0s.09,0,.16,0Zm0,0"/><path class="cls-16" d="M154.6,74.14c-.38-.45-.87-.79-1.27-1.22l-.12-.13c.37-.44.76-.87,1.15-1.31.21-.23.46-.79.05-1s-.83.08-1.16.34a8.06,8.06,0,0,0-.94.89,13.23,13.23,0,0,0-1-1.07c-.26-.24-1-.91-1.35-.53s-.08.88.22,1.17a.12.12,0,0,0,.12,0,9,9,0,0,1,1.28,1.3c-.5.65-1,1.34-1.46,2a.09.09,0,0,0,0,.08.5.5,0,0,0-.13.7c.35.37.8.15,1.13-.12a8.34,8.34,0,0,0,1.4-1.56,7.62,7.62,0,0,0,1.06,1c.32.24.82.6,1.22.36s0-.69-.17-.89Zm-2.92-2.54a.08.08,0,0,0,0-.05l-.14-.19h0l.26.34-.1-.09Zm1.12.07-.09.11-.11.08.2-.21Zm0,0"/><path class="cls-14" d="M114.64,102.7l2.79,5.4,0,.05h0l.1.07h0l.12,0a.32.32,0,0,0,.13,0,.35.35,0,0,0,.11-.07l.05-.06,2.85-5.42"/><polyline class="cls-16" points="119.39 105.57 117.72 108.34 116.17 105.48"/><path class="cls-13" d="M120.54,102.51l.64.34-2.85,5.42a.72.72,0,0,1-.34.3.67.67,0,0,1-.29.06.7.7,0,0,1-.24,0,.77.77,0,0,1-.25-.16l-.1-.12-2.81-5.43.64-.33,2.79,5.4Z"/><path class="cls-16" d="M115,80.55a2.83,2.83,0,0,1,2.71-2.08,2.82,2.82,0,0,1,2.72,2.07Z"/><path class="cls-13" d="M119.46,79.5h0a2.52,2.52,0,0,1,.52.74h-4.58a2.54,2.54,0,0,1,2.29-1.49,2.5,2.5,0,0,1,1.78.73m.42-.42a3.11,3.11,0,0,0-5.27,1.77l6.16,0a3.11,3.11,0,0,0-.89-1.75Z"/><polyline class="cls-16" points="114.64 102.7 114.59 85.3 120.81 85.28 120.87 102.68"/><path class="cls-13" d="M121.17,84.91l.06,17.77a.36.36,0,1,1-.73,0l-.06-17-5.5,0,.05,17a.36.36,0,0,1-.73,0l-.05-17.77Z"/><line class="cls-7" x1="116.66" y1="102.63" x2="116.74" y2="87.42"/><path class="cls-13" d="M116.86,87.07a.36.36,0,0,1,.25.35L117,102.63a.36.36,0,1,1-.73,0l.08-15.21a.36.36,0,0,1,.36-.36Z"/><line class="cls-7" x1="118.73" y1="102.64" x2="118.82" y2="87.43"/><path class="cls-13" d="M118.93,87.08a.36.36,0,0,1,.25.35l-.08,15.21a.36.36,0,0,1-.73,0l.08-15.21a.36.36,0,0,1,.36-.36Z"/><line class="cls-7" x1="114.5" y1="83.87" x2="120.73" y2="83.81"/><path class="cls-13" d="M120.84,83.46a.36.36,0,0,1-.11.71l-6.23.07a.36.36,0,0,1,0-.73l6.23-.07Z"/><line class="cls-7" x1="114.49" y1="82.3" x2="120.71" y2="82.23"/><path class="cls-13" d="M120.83,81.88a.36.36,0,0,1-.11.71l-6.23.07a.36.36,0,0,1,0-.73l6.23-.07Z"/><rect class="cls-8" x="159.33" y="53.3" width="11.32" height="1.78" rx="0.79" ry="0.79"/><rect class="cls-15" x="159.33" y="56.78" width="25.81" height="1.24"/><rect class="cls-15" x="159.33" y="59.26" width="25.81" height="1.24"/><rect class="cls-17" x="159.33" y="69.42" width="11.32" height="1.78" rx="0.79" ry="0.79"/><rect class="cls-16" x="159.33" y="72.91" width="25.81" height="1.24"/><rect class="cls-16" x="159.33" y="75.39" width="25.81" height="1.24"/><rect class="cls-8" x="159.33" y="85.54" width="11.32" height="1.78" rx="0.79" ry="0.79"/><rect class="cls-15" x="159.33" y="89.03" width="25.81" height="1.24"/><rect class="cls-15" x="159.33" y="91.51" width="25.81" height="1.24"/><path class="cls-13" d="M191.44,116.87a17.92,17.92,0,0,1-7.2-2.86.19.19,0,1,1,.21-.31,17.58,17.58,0,0,0,7.06,2.8,20.19,20.19,0,1,0-13.61-9.61.19.19,0,0,1-.32.19,20.56,20.56,0,1,1,13.86,9.79Z"/><path d="M195.75,92.78a1.54,1.54,0,0,0-1.91-1.38A3.71,3.71,0,0,0,191.4,93l-3.22-2.39A7.72,7.72,0,0,1,193.76,87c3.63-.37,6.67.89,7.08,4.84.39,3.76-4.08,5.23-3.41,8.64l-4.7.48C191.69,97,196,94.79,195.75,92.78Zm-.54,9.48a3.28,3.28,0,1,1-2.79,3.58A3.15,3.15,0,0,1,195.21,102.27Z"/><path class="cls-18" d="M184.35,113.86c-2.45.72-4.62,4.5-4.62,4.5s-4-6.54-2-11.37a20.37,20.37,0,1,1,13.73,9.7A17.76,17.76,0,0,1,184.35,113.86Z"/><path class="cls-13" d="M179.7,118.54a.19.19,0,0,1-.12-.09c-.16-.27-4-6.6-2-11.45a20.56,20.56,0,1,1,13.9,9.86,17.93,17.93,0,0,1-7.12-2.81c-2.32.75-4.41,4.35-4.43,4.39a.19.19,0,0,1-.16.09Zm19.42-41.69a20.19,20.19,0,0,0-21.21,30,.18.18,0,0,1,0,.16c-1.71,4.13,1.11,9.66,1.82,10.93.56-.9,2.43-3.68,4.56-4.31a.19.19,0,0,1,.16,0,17.58,17.58,0,0,0,7.06,2.8,20.19,20.19,0,1,0,7.61-39.65Z"/><path class="cls-19" d="M211.47,85c-2.32.87-.79,3.45-3.1,4.32s-3.38-1.94-5.69-1.07-1.25,3.68-3.57,4.56-3.37-1.94-5.68-1.07-1.25,3.68-3.57,4.56-3.37-1.94-5.69-1.07-1.25,3.68-3.57,4.55-3-2-5.34-1.18l.19,1.51a17.55,17.55,0,0,0,2.68,7.09,20.14,20.14,0,0,0,34.34-21"/><path class="cls-12" d="M195.71,92.75a1.54,1.54,0,0,0-1.92-1.39,3.71,3.71,0,0,0-2.43,1.58l-3.22-2.39A7.72,7.72,0,0,1,193.73,87c3.63-.37,6.67.89,7.08,4.84.39,3.76-4.08,5.23-3.41,8.64l-4.7.48C191.66,97,195.92,94.76,195.71,92.75Zm-.54,9.48a3.28,3.28,0,1,1-2.79,3.58A3.15,3.15,0,0,1,195.17,102.24Z"/><path class="cls-13" d="M194.87,108.89a3.2,3.2,0,0,1-1.49-.72,3.53,3.53,0,0,1-1.19-2.34,3.32,3.32,0,0,1,3-3.78h0a3.32,3.32,0,0,1,3.67,3.1,3.53,3.53,0,0,1-.68,2.53,3.26,3.26,0,0,1-2.28,1.25A3.41,3.41,0,0,1,194.87,108.89Zm.32-6.47a3,3,0,0,0-2.63,3.38,3.17,3.17,0,0,0,1.06,2.1,3,3,0,0,0,4.22-.44,3.16,3.16,0,0,0,.61-2.27,3,3,0,0,0-3.26-2.77Zm-2.53-1.27a.19.19,0,0,1-.14-.14c-.66-2.51.71-4.35,1.81-5.82.68-.92,1.28-1.71,1.2-2.43h0a1.28,1.28,0,0,0-.56-1,1.81,1.81,0,0,0-1.15-.21,3.53,3.53,0,0,0-2.31,1.52.19.19,0,0,1-.25,0L188,90.71a.19.19,0,0,1,0-.25,7.91,7.91,0,0,1,5.72-3.63c4.25-.44,6.91,1.38,7.28,5,.2,2-.84,3.29-1.85,4.58s-1.89,2.42-1.57,4a.18.18,0,0,1-.16.22l-4.7.48Zm1.88-9.95a1.79,1.79,0,0,1,.62.24,1.65,1.65,0,0,1,.73,1.29h0c.09.86-.54,1.71-1.27,2.69-1.08,1.45-2.3,3.09-1.78,5.35l4.34-.45c-.24-1.69.73-2.94,1.67-4.14s2-2.51,1.77-4.31c-.48-4.63-4.51-4.92-6.88-4.67a7.51,7.51,0,0,0-5.35,3.32l2.94,2.18a3.7,3.7,0,0,1,2.44-1.51A2.64,2.64,0,0,1,194.55,91.21Z"/><path class="cls-19" d="M184.37,113.64A9.86,9.86,0,0,0,179.8,118s-3.9-6.22-1.84-11"/><path class="cls-18" d="M179.8,118s-.21-4.69,2-6.72a9.78,9.78,0,0,0,2.53,2.38A10.07,10.07,0,0,0,179.8,118Z"/><rect class="cls-20" x="155.49" y="36.58" width="24.25" height="0.85"/><g class="cls-2"><path class="cls-3" d="M145,90.87h2.9a.24.24,0,0,0,.24-.25A2.14,2.14,0,0,1,148.7,89a4,4,0,0,1,2.5-.91.26.26,0,0,0,.18-.08.24.24,0,0,0,.06-.19,4.92,4.92,0,0,1,1-3.38,3.89,3.89,0,0,1,3.07-1.21,3.6,3.6,0,0,1,2.7,1,5,5,0,0,1,1.13,3.27.24.24,0,0,0,.09.2.24.24,0,0,0,.22,0,3.32,3.32,0,0,1,2.81.13,4.61,4.61,0,0,1,1.82,2.79.24.24,0,0,0,.23.19h5.71a.24.24,0,0,0,0-.48h-5.52a4.88,4.88,0,0,0-2-2.92,3.64,3.64,0,0,0-2.89-.26,5.22,5.22,0,0,0-1.25-3.29,4.05,4.05,0,0,0-3-1.18,4.36,4.36,0,0,0-3.43,1.38,5.36,5.36,0,0,0-1.16,3.5,4.15,4.15,0,0,0-2.59,1,2.53,2.53,0,0,0-.71,1.73H145a.24.24,0,0,0,0,.48Z"/></g></svg>