<svg id="Layer_1" data-name="Layer 1" xmlns="http://www.w3.org/2000/svg" viewBox="0 0 330 150"><defs><style>.cls-1{fill:#eff5f8;}.cls-2{opacity:0.7;}.cls-3{fill:#cdebfc;}.cls-4{opacity:0.3;}.cls-5{fill:#e3b462;}.cls-6{opacity:0.39;}.cls-7{fill:#0aa5e3;}.cls-8{fill:#32b475;}.cls-9{fill:#3273ad;}.cls-10,.cls-14,.cls-18{fill:#caedff;}.cls-10,.cls-11,.cls-12,.cls-13,.cls-16,.cls-17,.cls-18,.cls-20{stroke:#3273ad;}.cls-10,.cls-11,.cls-17,.cls-18,.cls-20,.cls-21{stroke-miterlimit:10;}.cls-10,.cls-11,.cls-17{stroke-width:0.45px;}.cls-11,.cls-12,.cls-13,.cls-15,.cls-16{fill:#fff;}.cls-12,.cls-13,.cls-16{stroke-linecap:round;stroke-linejoin:round;}.cls-12{stroke-width:0.52px;}.cls-13{stroke-width:0.45px;}.cls-16{stroke-width:0.89px;}.cls-17,.cls-20,.cls-21{fill:none;}.cls-18{stroke-width:0.44px;}.cls-19{fill:#1e9b5a;}.cls-20,.cls-21{stroke-width:0.22px;}.cls-21{stroke:#fff;}</style></defs><title>interview-expired</title><path class="cls-1" d="M245.62,82.51H212.24a2.93,2.93,0,1,0,0,5.87h4.35a2.93,2.93,0,1,1,0,5.87h-9.51a2.93,2.93,0,0,0,0,5.87h33.38a2.93,2.93,0,0,0,0-5.87h-9.1a2.93,2.93,0,1,1,0-5.87h14.26a2.93,2.93,0,1,0,0-5.87Z"/><path class="cls-1" d="M55.1,94.24H93.55a2.89,2.89,0,1,0,0-5.78H83.68a2.89,2.89,0,0,1,0-5.78h6.18a2.89,2.89,0,1,0,0-5.78H65a2.89,2.89,0,1,0,0,5.78h4.18a2.89,2.89,0,0,1,0,5.78h-14a2.89,2.89,0,1,0,0,5.78Z"/><path class="cls-1" d="M198.36,47.61h50a3.76,3.76,0,1,0,0-7.51H235.53a3.76,3.76,0,0,1,0-7.51h8a3.76,3.76,0,1,0,0-7.51H211.18a3.76,3.76,0,0,0,0,7.51h5.44a3.76,3.76,0,1,1,0,7.51H198.36a3.76,3.76,0,1,0,0,7.51Z"/><path class="cls-1" d="M146,44.85H99.15a3.52,3.52,0,0,0,0,7h12a3.52,3.52,0,1,1,0,7h-7.53a3.52,3.52,0,0,0,0,7H134a3.52,3.52,0,0,0,0-7h-5.1a3.52,3.52,0,0,1,0-7H146a3.52,3.52,0,1,0,0-7Z"/><g class="cls-2"><path class="cls-3" d="M42.13,48.16h5.43A.44.44,0,0,0,48,47.7a4,4,0,0,1,1.07-3c1.65-1.7,4.66-1.69,4.68-1.7a.49.49,0,0,0,.34-.15.44.44,0,0,0,.11-.35,9.2,9.2,0,0,1,1.91-6.32,7.28,7.28,0,0,1,5.74-2.27,6.73,6.73,0,0,1,5.05,1.93C69.15,38.13,69,41.86,69,41.9a.45.45,0,0,0,.18.37.45.45,0,0,0,.41.07,6.21,6.21,0,0,1,5.25.24c2.66,1.55,3.4,5.18,3.41,5.22a.44.44,0,0,0,.44.36H89.38a.44.44,0,1,0,0-.89H79.05c-.27-1-1.24-4-3.74-5.45a6.81,6.81,0,0,0-5.4-.49,9.76,9.76,0,0,0-2.35-6.15A7.58,7.58,0,0,0,61.86,33a8.15,8.15,0,0,0-6.42,2.58,10,10,0,0,0-2.16,6.54A7.77,7.77,0,0,0,48.44,44a4.73,4.73,0,0,0-1.32,3.24h-5a.44.44,0,1,0,0,.89Z"/></g><g class="cls-2"><path class="cls-3" d="M150.45,8.46h2.72a.22.22,0,0,0,.22-.23,2,2,0,0,1,.53-1.52,3.72,3.72,0,0,1,2.34-.85.25.25,0,0,0,.17-.08.22.22,0,0,0,.05-.18,4.6,4.6,0,0,1,1-3.16,3.64,3.64,0,0,1,2.87-1.14,3.36,3.36,0,0,1,2.53,1,4.68,4.68,0,0,1,1.05,3.06.22.22,0,0,0,.09.19.23.23,0,0,0,.2,0,3.11,3.11,0,0,1,2.62.12,4.32,4.32,0,0,1,1.7,2.61.22.22,0,0,0,.22.18h5.34a.22.22,0,1,0,0-.44h-5.16A4.56,4.56,0,0,0,167,5.29a3.41,3.41,0,0,0-2.7-.25A4.88,4.88,0,0,0,163.16,2a3.79,3.79,0,0,0-2.85-1.1,4.08,4.08,0,0,0-3.21,1.29A5,5,0,0,0,156,5.42a3.88,3.88,0,0,0-2.42,1A2.36,2.36,0,0,0,152.94,8h-2.49a.22.22,0,1,0,0,.44Z"/></g><g class="cls-2"><path class="cls-3" d="M276.93,40.23h0l9.34-.42a1.08,1.08,0,0,0,.69-.1,1.12,1.12,0,0,0,.34-.81c0-.06,0-.12,0-.15a8.13,8.13,0,0,1,.32-.93,6.14,6.14,0,0,1,.83-1.44,5.2,5.2,0,0,1,2.19-1.62,6.44,6.44,0,0,1,2.11-.42,7,7,0,0,1,.77,0,1.17,1.17,0,0,0,.63,0c.33-.12.45-.49.66-1.36,0-.14.06-.25.08-.31a16.78,16.78,0,0,1,.9-2.13A11.1,11.1,0,0,1,298,27.61a8.19,8.19,0,0,1,4.86-2.26,10.8,10.8,0,0,1,9.91,4.74,11.77,11.77,0,0,1,1.75,7.29.44.44,0,0,0,.88.09,12.69,12.69,0,0,0-1.89-7.86,11.56,11.56,0,0,0-10.76-5.14,9.07,9.07,0,0,0-5.38,2.5,12,12,0,0,0-2.3,3.18,17.59,17.59,0,0,0-1,2.25c0,.07-.06.22-.11.39s-.12.49-.19.69l-.18,0a8.37,8.37,0,0,0-.87,0,7.34,7.34,0,0,0-2.4.48,6.1,6.1,0,0,0-2.56,1.9,7,7,0,0,0-1,1.65,9.06,9.06,0,0,0-.35,1c0,.05,0,.15,0,.26l0,.16h-.16l-9.34.42a.44.44,0,0,0,0,.89Z"/></g><g class="cls-4"><path class="cls-5" d="M273.71,101a4.91,4.91,0,1,1,4.91-4.91A4.91,4.91,0,0,1,273.71,101Zm0-8.42a3.51,3.51,0,1,0,3.51,3.51A3.51,3.51,0,0,0,273.71,92.61Z"/></g><g class="cls-6"><path class="cls-7" d="M248.54,44.12a4.59,4.59,0,1,1,4.59-4.59A4.59,4.59,0,0,1,248.54,44.12Zm0-8a3.37,3.37,0,1,0,3.37,3.37A3.38,3.38,0,0,0,248.54,36.15Z"/><path class="cls-8" d="M81.36,41.63A4.66,4.66,0,1,1,86,37,4.66,4.66,0,0,1,81.36,41.63Zm0-8.08A3.42,3.42,0,1,0,84.78,37,3.43,3.43,0,0,0,81.36,33.55Z"/><path class="cls-8" d="M275.27,63.21a3.9,3.9,0,1,1,3.9-3.9A3.9,3.9,0,0,1,275.27,63.21Zm0-6.76a2.87,2.87,0,1,0,2.87,2.87A2.87,2.87,0,0,0,275.27,56.45Z"/><path class="cls-8" d="M247.46,76.7a3.19,3.19,0,1,1,3.19-3.19A3.19,3.19,0,0,1,247.46,76.7Zm0-5a1.78,1.78,0,1,0,1.78,1.78A1.78,1.78,0,0,0,247.46,71.73Z"/><path class="cls-8" d="M164.52,69.17A3.19,3.19,0,1,1,167.7,66,3.19,3.19,0,0,1,164.52,69.17Zm0-5A1.78,1.78,0,1,0,166.3,66,1.78,1.78,0,0,0,164.52,64.2Z"/><path class="cls-5" d="M176.66,8.43a1.88,1.88,0,1,1,1.88-1.88A1.88,1.88,0,0,1,176.66,8.43Zm0-3.16a1.28,1.28,0,1,0,1.28,1.28A1.29,1.29,0,0,0,176.66,5.26Z"/><path class="cls-5" d="M38.58,77a3.2,3.2,0,1,1,3.2-3.2A3.2,3.2,0,0,1,38.58,77Zm0-5.55a2.35,2.35,0,1,0,2.35,2.35A2.35,2.35,0,0,0,38.58,71.47Z"/><path class="cls-7" d="M42.39,113.5a4.21,4.21,0,1,1,4.21-4.21A4.21,4.21,0,0,1,42.39,113.5Zm0-7.22a3,3,0,1,0,3,3A3,3,0,0,0,42.39,106.28Z"/></g><path class="cls-9" d="M46.76,126.15H42.35c-.22,0-.39-.09-.39-.2s.18-.2.39-.2h4.41c.22,0,.39.09.39.2S47,126.15,46.76,126.15Z"/><path class="cls-9" d="M294,126.15H50.41c-.23,0-.42-.09-.42-.21s.19-.21.42-.21H294c.23,0,.42.09.42.21S294.21,126.15,294,126.15Z"/><path class="cls-9" d="M301.54,126.15h-3c-.23,0-.42-.09-.42-.21s.19-.21.42-.21h3c.23,0,.42.09.42.21S301.77,126.15,301.54,126.15Z"/><path class="cls-10" d="M188.4,123.78s7.85,1.78,10.24,0S201,110.88,200,108.32s-1.24-8.27-26.63-19.63c0,0-17-17.64-37.84-22.88-17.8-5.82-56.16-8-61.88-8.59l1.22,7.42S64.1,71.77,61.75,87.43c0,0-11.48,10.42-.94,21l7.49,1.33S71.17,92.5,89,94.21s15.91,19.64,15.91,19.64L151,119.33s3.73-17.81,20.85-16C190.37,105.38,188.4,123.78,188.4,123.78Z"/><path class="cls-11" d="M114.22,106.36l-10.39-1.31c-7.12-16.18-25.14-9.34-25.14-9.34-9.27-7.86-3.59-18.94-3.59-18.94C82,64,92.36,65,118.56,68.93a110,110,0,0,1,44.89,17.95l1.06,17a20.17,20.17,0,0,0-10,7.48l-40.29-5L119,69"/><path class="cls-10" d="M163.59,88.27l-46.27-5.85L75.1,76.77S69.51,87.83,78.69,95.9c0,0,17.72-6.7,25.14,9.34l50.6,6.23a19.38,19.38,0,0,1,10.08-7.61l-1-16.69"/><path class="cls-12" d="M200,108.32s-12.68-.57-14.37-13.56C185.6,94.77,198.3,101.27,200,108.32Z"/><line class="cls-12" x1="200.62" y1="115.49" x2="187.46" y2="113.9"/><line class="cls-11" x1="130.12" y1="89.42" x2="121.15" y2="88.46"/><path class="cls-11" d="M86.22,84.57c-.37,0-8.45-.85-8.45-.85"/><path class="cls-13" d="M163.93,87.48s4.48,8-10,3.77C141.4,87.56,158.58,78.39,163.93,87.48Z"/><circle class="cls-9" cx="86.73" cy="112.53" r="13.3" transform="translate(-43.88 168.46) rotate(-75.56)"/><path class="cls-14" d="M86.74,118.19a5.72,5.72,0,0,1-1.42-.18,5.66,5.66,0,0,1,1.41-11.14,5.67,5.67,0,0,1,5.49,7.07,5.66,5.66,0,0,1-5.48,4.25Z"/><path class="cls-15" d="M86.73,108.21a4.32,4.32,0,1,1-4.18,3.25,4.34,4.34,0,0,1,4.18-3.25m0-2.68a7,7,0,1,0,1.75.22,7,7,0,0,0-1.75-.22Z"/><circle class="cls-16" cx="170.04" cy="118.54" r="7" transform="translate(12.84 253.64) rotate(-75.56)"/><line class="cls-17" x1="117.32" y1="82.42" x2="114.22" y2="106.36"/><polygon class="cls-18" points="118.81 82.61 115.58 82.19 117.85 68.82 120.27 69.2 118.81 82.61"/><path class="cls-19" d="M222.6,74.86s-2,45.72-1.92,46.67c.11,1.64,3.6,2,3.38,2.95s-6.55.65-7-.11-1.41-26.19-2.17-26-2.54,25-2.76,26-7.49,2.07-8.26,1.31,3.93-2.29,3.93-3.49c0-.8.05-20.74.08-33.63v-6.2c0-2.63,0-5.73,0-5.73A5.5,5.5,0,0,0,205.28,81a8.43,8.43,0,0,0,1.79,4.35,1.72,1.72,0,0,1,.54,1.39h0A1.74,1.74,0,0,1,204.78,88a10,10,0,0,1-3.41-7A11.16,11.16,0,0,1,206,71.83a13.48,13.48,0,0,1,8.55-2.66h.57c2.82,0,6.62.18,7.72-2,1.66-3.31-4.13-8.61-6.7-9.83a1.57,1.57,0,0,1-.84-1.86l0-.05a1.56,1.56,0,0,1,2-1c2.45.88,9.61,6.68,10.16,11.33C227.93,69.45,226.75,72.45,222.6,74.86Z"/><ellipse class="cls-19" cx="212.52" cy="61.29" rx="4.07" ry="6.32" transform="translate(-7.61 39.71) rotate(-10.49)"/><line class="cls-20" x1="266.36" y1="120.67" x2="261.23" y2="120.12"/><line class="cls-20" x1="264.93" y1="113.07" x2="260.41" y2="115.57"/><line class="cls-20" x1="259.39" y1="107.67" x2="257.13" y2="112.3"/><line class="cls-20" x1="251.76" y1="106.42" x2="252.56" y2="111.52"/><line class="cls-20" x1="244.79" y1="109.77" x2="248.37" y2="113.49"/><path class="cls-9" d="M252.77,125.46H234.62a4.33,4.33,0,0,1-4.32-4.32h0a4.33,4.33,0,0,1,4.32-4.32,52.8,52.8,0,0,1,18.16,0,4.33,4.33,0,0,1,4.32,4.32h0A4.33,4.33,0,0,1,252.77,125.46Z"/><path class="cls-21" d="M257.35,119.82q-1.28-.15-2.52-.37-1,.81-2,1.58-1.25-.28-2.46-.64-1,.71-2.14,1.36-1.21-.41-2.37-.89-1.1.59-2.26,1.13-1.16-.53-2.26-1.13-1.16.48-2.37.89-1.1-.65-2.14-1.36-1.21.35-2.46.64-1-.77-2-1.58-1.24.22-2.53.37"/><path class="cls-21" d="M257.95,122.43q-1.34-.13-2.63-.34-1,.82-2.12,1.59-1.31-.27-2.57-.62-1.1.71-2.26,1.36-1.27-.41-2.49-.88-1.16.59-2.38,1.12-1.22-.53-2.38-1.13-1.22.47-2.49.87-1.16-.66-2.26-1.37-1.27.34-2.58.6-1.09-.77-2.12-1.6-1.3.2-2.64.33"/><path class="cls-15" d="M235.23,112.64s1.92,1.69,9.25,1.69,8.87-1.69,8.87-1.69C253,113.13,244.54,114.81,235.23,112.64Z"/><path class="cls-15" d="M238.31,117.39s.66-.13,1.67-.24a36.6,36.6,0,0,1,3.71-.21,32.43,32.43,0,0,1,3.71.2c.5.05.92.13,1.21.18l.46.08s-2.69-.26-5.38-.23S238.31,117.39,238.31,117.39Z"/><path class="cls-15" d="M234.62,116.83a3.5,3.5,0,0,0,.73.3,13.06,13.06,0,0,0,2,.43c.85.14,1.85.2,2.93.26s2.23.08,3.37.06,2.3,0,3.38-.09,2.08-.15,2.93-.29a16,16,0,0,0,2-.42,5.11,5.11,0,0,0,.75-.27,3.76,3.76,0,0,1-.7.39,11.53,11.53,0,0,1-2,.67,22.37,22.37,0,0,1-3,.5c-1.09.1-2.27.16-3.42.18s-2.33-.05-3.42-.15a21.86,21.86,0,0,1-3-.47,10.08,10.08,0,0,1-2-.68A2.84,2.84,0,0,1,234.62,116.83Z"/></svg>