<?xml version="1.0" encoding="utf-8"?>
<!-- Generator: Adobe Illustrator 20.1.0, SVG Export Plug-In . SVG Version: 6.00 Build 0)  -->
<svg version="1.1" id="Layer_1" xmlns="http://www.w3.org/2000/svg" xmlns:xlink="http://www.w3.org/1999/xlink" x="0px" y="0px"
	 viewBox="0 0 340 140" style="enable-background:new 0 0 340 140;" xml:space="preserve">
<style type="text/css">
	.st0{opacity:0.6;}
	.st1{fill:#EFF5F8;}
	.st2{opacity:0.7;}
	.st3{fill:#CDEBFC;}
	.st4{opacity:0.3;}
	.st5{fill:#E3B462;}
	.st6{opacity:0.39;}
	.st7{fill:#0AA5E3;}
	.st8{fill:#32B475;}
	.st9{fill:#A6E0ED;}
	.st10{fill:#E2E2E2;}
	.st11{fill:#3273AD;}
	.st12{opacity:0.5;}
	.st13{fill:#FFFFFF;}
	.st14{fill:#8BB7D8;}
	.st15{fill:#FAD264;}
	.st16{fill:#FFE592;}
	.st17{fill:#104D7A;}
	.st18{fill:none;stroke:#3273AD;stroke-linecap:round;stroke-linejoin:round;}
	.st19{fill:#CAEDFF;stroke:#3273AD;stroke-width:0.75;stroke-linecap:round;stroke-linejoin:round;}
</style>
<title>just-missed</title>
<g>
	<g id="Layer_1_1_">
		<g class="st0">
			<path class="st1" d="M261.6,98.1h-35.7c-1.7,0.1-3.1,1.6-3,3.3c0.1,1.6,1.4,2.9,3,3h4.6c1.7-0.1,3.2,1.2,3.3,3
				c0.1,1.7-1.2,3.2-3,3.3c-0.1,0-0.2,0-0.4,0h-10.2c-1.7,0.1-3.1,1.6-3,3.3c0.1,1.6,1.4,2.9,3,3h35.7c1.7,0.1,3.2-1.2,3.3-3
				c0.1-1.7-1.2-3.2-3-3.3c-0.1,0-0.2,0-0.4,0h-9.7c-1.7-0.1-3.1-1.6-3-3.3c0.1-1.6,1.4-2.9,3-3h15.3c1.7-0.1,3.1-1.6,3-3.3
				C264.5,99.5,263.2,98.2,261.6,98.1z"/>
			<path class="st1" d="M51,107.5h41.1c1.7,0,3.1-1.4,3.1-3.1c0-1.7-1.4-3.1-3.1-3.1H81.6c-1.7,0-3.1-1.4-3.1-3.1
				c0-1.7,1.4-3.1,3.1-3.1h6.6c1.7,0,3.1-1.4,3.1-3.1c0-1.7-1.4-3.1-3.1-3.1H61.6c-1.7,0-3.1,1.4-3.1,3.1c0,1.7,1.4,3.1,3.1,3.1l0,0
				H66c1.7,0,3.1,1.4,3.1,3.1c0,1.7-1.4,3.1-3.1,3.1H51c-1.7,0-3.1,1.4-3.1,3.1C47.9,106.1,49.3,107.5,51,107.5L51,107.5z"/>
			<path class="st1" d="M264.3,53.4h33.2c1.4,0,2.5-1.1,2.5-2.5s-1.1-2.5-2.5-2.5H289c-1.4,0-2.5-1.1-2.5-2.5s1.1-2.5,2.5-2.5h5.3
				c1.4,0,2.5-1.1,2.5-2.5s-1.1-2.5-2.5-2.5h-21.5c-1.4,0-2.5,1.1-2.5,2.5s1.1,2.5,2.5,2.5h3.6c1.4,0,2.5,1.1,2.5,2.5
				s-1.1,2.5-2.5,2.5h-12.1c-1.4,0-2.5,1.1-2.5,2.5S262.9,53.4,264.3,53.4z"/>
			<g class="st2">
				<path class="st3" d="M40.5,55.6h5.8c0.3,0,0.5-0.2,0.5-0.5c0,0,0,0,0,0c-0.1-1.2,0.3-2.4,1.1-3.3c1.8-1.8,5-1.8,5-1.8
					c0.1,0,0.3-0.1,0.4-0.2c0.1-0.1,0.1-0.2,0.1-0.4c-0.2-2.4,0.5-4.8,2-6.8c1.6-1.7,3.8-2.6,6.1-2.4c2-0.1,4,0.6,5.5,2.1
					c2.4,2.5,2.3,6.5,2.3,6.5c0,0.2,0.1,0.3,0.2,0.4c0.1,0.1,0.3,0.1,0.4,0.1c1.8-0.7,3.9-0.7,5.6,0.3c2.8,1.7,3.6,5.5,3.7,5.6
					c0,0.2,0.2,0.4,0.5,0.4H91c0.3,0,0.5-0.2,0.5-0.5s-0.2-0.5-0.5-0.5H80c-0.3-1.1-1.3-4.3-4-5.8c-1.8-1-3.9-1.2-5.8-0.5
					c-0.1-2.4-0.9-4.7-2.5-6.6c-1.6-1.6-3.8-2.5-6.1-2.4c-2.6-0.1-5.1,0.9-6.9,2.8c-1.6,2-2.4,4.5-2.3,7c-1.9,0.1-3.8,0.8-5.2,2.1
					c-0.9,0.9-1.4,2.2-1.4,3.5h-5.4c-0.3,0-0.5,0.2-0.5,0.5S40.2,55.6,40.5,55.6z"/>
			</g>
			<g class="st2">
				<path class="st3" d="M143,15.8h2.9c0.1,0,0.2-0.1,0.2-0.2c0,0,0,0,0,0c0-0.6,0.2-1.2,0.6-1.6c0.7-0.6,1.6-0.9,2.5-0.9
					c0.1,0,0.1,0,0.2-0.1c0-0.1,0.1-0.1,0.1-0.2c-0.1-1.2,0.3-2.4,1-3.4c0.8-0.8,1.9-1.3,3.1-1.2c1-0.1,2,0.3,2.7,1
					c0.8,0.9,1.2,2.1,1.1,3.3c0,0.1,0,0.2,0.1,0.2c0.1,0,0.2,0,0.2,0c0.9-0.4,1.9-0.3,2.8,0.1c0.9,0.7,1.6,1.7,1.8,2.8
					c0,0.1,0.1,0.2,0.2,0.2h5.7c0.1,0,0.2-0.1,0.2-0.2c0-0.1-0.1-0.2-0.2-0.2h-5.5c-0.3-1.2-1-2.2-2-2.9c-0.9-0.5-1.9-0.6-2.9-0.3
					c0-1.2-0.5-2.4-1.2-3.3c-0.8-0.8-1.9-1.2-3-1.2C152.3,7.5,151,8,150.1,9c-0.8,1-1.2,2.2-1.2,3.5c-1,0-1.9,0.4-2.6,1
					c-0.4,0.5-0.7,1.1-0.7,1.7H143c-0.1,0-0.2,0.1-0.2,0.2C142.8,15.6,142.9,15.7,143,15.8L143,15.8z"/>
			</g>
			<g class="st2">
				<path class="st3" d="M224.1,24.2L224.1,24.2l10-0.5c0.2,0,0.5,0,0.7-0.1c0.2-0.2,0.4-0.5,0.4-0.9c0-0.1,0-0.1,0-0.2
					c0.1-0.3,0.2-0.7,0.3-1c0.2-0.6,0.5-1.1,0.9-1.5c0.6-0.8,1.4-1.4,2.3-1.7c0.7-0.3,1.5-0.4,2.3-0.5c0.3,0,0.6,0,0.8,0
					c0.2,0.1,0.5,0.1,0.7,0c0.4-0.1,0.5-0.5,0.7-1.5c0-0.1,0.1-0.3,0.1-0.3c0.3-0.8,0.6-1.5,1-2.3c0.6-1.2,1.4-2.2,2.3-3.2
					c1.4-1.4,3.2-2.2,5.2-2.4c4.2-0.4,8.3,1.6,10.6,5.1c1.5,2.3,2.1,5.1,1.9,7.8c0,0.3,0.2,0.5,0.5,0.5c0.2,0,0.4-0.2,0.5-0.4
					c0.3-2.9-0.4-5.9-2-8.4c-2.5-3.8-6.9-5.9-11.5-5.5c-2.2,0.2-4.2,1.2-5.8,2.7c-1,1-1.8,2.1-2.5,3.4c-0.4,0.8-0.7,1.6-1,2.4
					c0,0.1-0.1,0.2-0.1,0.4s-0.1,0.5-0.2,0.7l-0.2,0c-0.3,0-0.6,0-0.9,0c-0.9,0-1.7,0.2-2.6,0.5c-1.1,0.4-2,1.1-2.7,2
					c-0.4,0.5-0.7,1.1-1,1.8c-0.1,0.4-0.3,0.7-0.4,1.1c0,0.1,0,0.2-0.1,0.3v0.2h-0.2l-10,0.5c-0.3,0-0.5,0.2-0.5,0.5
					S223.9,24.2,224.1,24.2L224.1,24.2z"/>
			</g>
			<g class="st4">
				<path class="st5" d="M274.8,114.8c-2.9,0-5.2-2.4-5.2-5.2s2.4-5.2,5.2-5.2s5.2,2.4,5.2,5.2C280.1,112.4,277.7,114.7,274.8,114.8
					z M274.8,105.8c-2.1,0-3.8,1.7-3.8,3.8s1.7,3.8,3.8,3.8s3.8-1.7,3.8-3.8S276.9,105.8,274.8,105.8z"/>
			</g>
			<g class="st6">
				<path class="st7" d="M248.7,55.4c-3.1,0-5.7-2.5-5.7-5.7c0-3.1,2.5-5.7,5.7-5.7s5.7,2.5,5.7,5.7S251.8,55.4,248.7,55.4
					L248.7,55.4z M248.7,45.6c-2.3,0-4.2,1.9-4.2,4.2c0,2.3,1.9,4.2,4.2,4.2c2.3,0,4.2-1.9,4.2-4.2C252.8,47.4,251,45.6,248.7,45.6
					L248.7,45.6z"/>
				<path class="st8" d="M81.7,74c-3.1,0-5.7-2.5-5.7-5.7s2.5-5.7,5.7-5.7s5.7,2.5,5.7,5.7S84.8,74,81.7,74L81.7,74z M81.7,64.2
					c-2.3,0-4.2,1.9-4.2,4.2s1.9,4.2,4.2,4.2c2.3,0,4.2-1.9,4.2-4.2l0,0C85.8,66,84,64.2,81.7,64.2z"/>
				<path class="st8" d="M278,77.3c-3.1,0-5.7-2.5-5.7-5.7s2.5-5.7,5.7-5.7c3.1,0,5.7,2.5,5.7,5.7l0,0
					C283.7,74.8,281.1,77.3,278,77.3z M278,67.5c-2.3,0-4.2,1.9-4.2,4.2s1.9,4.2,4.2,4.2c2.3,0,4.2-1.9,4.2-4.2
					C282.2,69.3,280.3,67.5,278,67.5L278,67.5z"/>
				<path class="st8" d="M246.8,88.7c-1.9,0-3.4-1.5-3.4-3.4c0-1.9,1.5-3.4,3.4-3.4c1.9,0,3.4,1.5,3.4,3.4
					C250.2,87.2,248.6,88.7,246.8,88.7L246.8,88.7z M246.8,83.4c-1.1,0-1.9,0.9-1.9,1.9c0,1.1,0.9,1.9,1.9,1.9
					c1.1,0,1.9-0.9,1.9-1.9S247.8,83.4,246.8,83.4L246.8,83.4z"/>
				<path class="st8" d="M107.8,99.9c-1.9,0-3.4-1.5-3.4-3.4s1.5-3.4,3.4-3.4c1.9,0,3.4,1.5,3.4,3.4
					C111.2,98.4,109.7,99.9,107.8,99.9L107.8,99.9z M107.8,94.6c-1.1,0-1.9,0.9-1.9,1.9s0.9,1.9,1.9,1.9s1.9-0.9,1.9-1.9
					S108.8,94.6,107.8,94.6L107.8,94.6z"/>
				<path class="st5" d="M171,15.7c-1.1,0-2-0.9-2-2s0.9-2,2-2s2,0.9,2,2S172.1,15.7,171,15.7z M171,12.3c-0.8,0-1.4,0.6-1.4,1.4
					c0,0.8,0.6,1.4,1.4,1.4c0.8,0,1.4-0.6,1.4-1.4c0,0,0,0,0,0C172.4,13,171.8,12.3,171,12.3z"/>
				<path class="st7" d="M236.5,132.7c-3.1,0-5.7-2.5-5.7-5.7c0-3.1,2.5-5.7,5.7-5.7s5.7,2.5,5.7,5.7S239.6,132.7,236.5,132.7
					L236.5,132.7z M236.5,122.9c-2.3,0-4.2,1.9-4.2,4.2c0,2.3,1.9,4.2,4.2,4.2c2.3,0,4.2-1.9,4.2-4.2l0,0
					C240.7,124.7,238.8,122.9,236.5,122.9z"/>
				<path class="st5" d="M85.8,124.1c-3.1,0-5.7-2.5-5.7-5.7s2.5-5.7,5.7-5.7s5.7,2.5,5.7,5.7l0,0C91.5,121.5,88.9,124.1,85.8,124.1
					z M85.8,114.2c-2.3,0-4.2,1.9-4.1,4.2s1.9,4.2,4.2,4.1c2.3,0,4.1-1.9,4.1-4.2C90,116.1,88.1,114.2,85.8,114.2
					C85.8,114.2,85.8,114.2,85.8,114.2L85.8,114.2z"/>
				<path class="st7" d="M52.4,127.4c-2.9,0-5.2-2.4-5.2-5.2s2.4-5.2,5.2-5.2s5.2,2.4,5.2,5.2l0,0C57.7,125.1,55.3,127.4,52.4,127.4
					z M52.4,118.4c-2.1,0-3.8,1.7-3.8,3.8s1.7,3.8,3.8,3.8s3.8-1.7,3.8-3.8l0,0C56.2,120.1,54.5,118.4,52.4,118.4z"/>
			</g>
		</g>
		<g class="st4">
			<path class="st9" d="M218.8,36.6c-0.8-0.8-1.8-1.3-2.9-1.3h-82c-1.1,0-2.1,0.5-2.8,1.3c-0.7,0.8-1.1,1.9-1.1,3v45.7
				c-0.1,1.2,0.3,2.4,1.1,3.4c0.7,0.9,1.7,1.5,2.8,1.6h82c1.1-0.1,2.2-0.7,2.9-1.6c0.8-0.9,1.2-2.1,1.2-3.3V39.6
				C220,38.5,219.6,37.4,218.8,36.6z"/>
			<path class="st10" d="M133.9,35.3c-1.1,0-2.1,0.5-2.8,1.3c-0.7,0.8-1.1,1.9-1.1,3v45.7c-0.1,1.2,0.3,2.4,1.1,3.4
				c0.7,0.9,1.7,1.5,2.8,1.6h10.6c0,0,3.1-4.4,7.9-10c6.3-7.5,13.1-14.6,20.4-21.2c1.4-1.2,2.9-2.5,4.3-3.6c0.6-0.4,1.1-0.9,1.7-1.3
				c1.4-1.1,2.9-2.2,4.4-3.2c0.6-0.4,1.3-0.9,2-1.4c8.2-5.3,16.8-10.1,25.6-14.2L133.9,35.3z"/>
		</g>
		<path class="st11" d="M218.8,36.2c-0.9-0.9-2-1.4-3.3-1.4h-82c-2.6,0-4.6,2.1-4.6,4.6v45.7c0,2.6,2.1,4.6,4.6,4.6h20l-0.4-0.8
			h-19.6c-2.1,0-3.8-1.7-3.8-3.8V39.5c0-2.1,1.7-3.8,3.8-3.8h82c2.1,0,3.8,1.7,3.8,3.8v45.7c0,2.1-1.7,3.8-3.8,3.8h-18.8l-0.4,0.8
			h19.3c2.6,0,4.6-2.1,4.6-4.6V39.5C220.1,38.3,219.7,37.1,218.8,36.2z"/>
		<g class="st12">
			<path class="st11" d="M216.6,43.1c0,0.2-0.2,0.4-0.4,0.4s-0.4-0.2-0.4-0.4l0,0c0-2.1-1.7-3.8-3.8-3.8c-0.2,0-0.4-0.2-0.4-0.4
				s0.2-0.4,0.4-0.4C214.6,38.4,216.6,40.5,216.6,43.1L216.6,43.1z"/>
		</g>
		<path class="st13" d="M196.2,55.3c-0.1-0.6-0.6-1-1.2-1h-40.5c-0.7-0.1-1.4,0.4-1.5,1.2c0,0,0,0.1,0,0.1v25.7h43V55.6
			C196,55.5,196.2,55.4,196.2,55.3z"/>
		<polygon class="st11" points="191.9,54.4 190,53.7 177.9,53.7 179.4,54.4 		"/>
		<polygon class="st11" points="175.1,54.4 173.6,53.7 164.7,53.7 165.9,54.4 		"/>
		<path class="st11" d="M154.1,53.7c-1,0-1.8,0.8-1.9,1.8v25.3h0.8V55.5c0-0.6,0.5-1.1,1.1-1.1h7.8l-1.1-0.8H154.1z"/>
		<path class="st11" d="M195.7,56.1c0,0.1,0.1,0.2,0.1,0.4v25.3h0.8V56.5c0-0.1,0-0.3-0.1-0.4L195.7,56.1z"/>
		<path class="st14" d="M187.8,69.5L169.7,58c-0.2-0.1-0.4-0.2-0.6-0.2l0,0c0,0-0.1,0-0.1,0c-0.1,0.1,0,0.3,0.3,0.5l18.1,11.5
			c0.3,0.2,0.6,0.2,0.7,0.2l0,0C188.2,69.8,188,69.6,187.8,69.5z"/>
		<path class="st14" d="M169.1,57.8L169.1,57.8z"/>
		<path class="st14" d="M168,56.8l-5.2-3.3c-0.3-0.2-0.6-0.2-0.7-0.2s0,0.3,0.3,0.5l5.2,3.3c0.3,0.2,0.6,0.2,0.7,0.2l0,0
			C168.4,57.1,168.3,56.9,168,56.8z"/>
		<path class="st14" d="M161.3,52.4l-1.5-0.9c-0.3-0.2-0.6-0.2-0.7-0.2s0,0.3,0.3,0.5l1.5,0.9c0.3,0.2,0.6,0.2,0.7,0.2l0,0
			C161.7,52.7,161.6,52.5,161.3,52.4z"/>
		<path class="st14" d="M175.2,46.5c-0.3-0.1-0.6-0.1-0.5,0.1s0.2,0.4,0.6,0.5l5.5,2.2l1.1-0.1L175.2,46.5z"/>
		<path class="st14" d="M195.2,54.4l-13.3-5.2l-1.1,0.1l14.4,5.7c0.3,0.1,0.5,0.1,0.5,0c0,0,0,0,0-0.1
			C195.7,54.8,195.5,54.5,195.2,54.4z"/>
		<path class="st14" d="M173.8,46.5c-0.1,0.1-0.3,0.1-0.5,0l-5.8-2.3c-0.3-0.1-0.6-0.3-0.6-0.5s0.2-0.2,0.5-0.1l5.8,2.3
			C173.6,46,173.8,46.2,173.8,46.5C173.8,46.4,173.8,46.4,173.8,46.5z"/>
		<path class="st14" d="M166.3,43.6c-0.1,0.1-0.3,0.1-0.5,0l-1.6-0.6c-0.3-0.1-0.6-0.3-0.6-0.5s0.2-0.2,0.5-0.1l1.6,0.6
			C166.1,43.2,166.3,43.4,166.3,43.6C166.3,43.6,166.3,43.6,166.3,43.6z"/>
		<path class="st14" d="M188,59.7l-4.2-2.1h-1.1l5.1,2.6c0.3,0.2,0.6,0.2,0.6,0S188.3,59.9,188,59.7z"/>
		<path class="st14" d="M172.3,51.8c-0.3-0.2-0.6-0.2-0.6,0s0.1,0.3,0.4,0.5l10.6,5.3h1.1L172.3,51.8z"/>
		<path class="st14" d="M164.4,48.3l4.3,2.2h1.1l-0.1-0.1l-5.1-2.6c-0.3-0.2-0.6-0.2-0.6,0S164.1,48.1,164.4,48.3z"/>
		<path class="st14" d="M170.1,50.9c0.1-0.1-0.1-0.3-0.3-0.4h-1.1l0.8,0.4C169.7,51,170,51,170.1,50.9z"/>
		<path class="st14" d="M163.2,47.4c-0.1,0.1-0.4,0.1-0.6,0l-1.2-0.6c-0.3-0.2-0.5-0.4-0.4-0.5s0.4-0.1,0.6,0l1.2,0.6
			C163.1,47,163.3,47.3,163.2,47.4z"/>
		<path class="st14" d="M160.6,46.1c-0.1,0.1-0.4,0.1-0.6,0l-1.2-0.6c-0.3-0.2-0.5-0.4-0.4-0.5s0.4-0.1,0.6,0l1.2,0.6
			C160.5,45.7,160.7,46,160.6,46.1z"/>
		<path class="st15" d="M209.1,58.4c-4.9-4.3-12.4-3.7-16.7,1.2c-4.3,4.9-3.7,12.4,1.2,16.7c4.9,4.3,12.4,3.7,16.7-1.2
			c1.9-2.1,2.9-4.9,2.9-7.7C213.2,63.9,211.7,60.6,209.1,58.4z"/>
		<g>
			<path class="st16" d="M199.2,64.5c2.6-2.5,6.6-4.7,9.8-6.1c-4.9-4.3-12.4-3.7-16.7,1.2c-3.6,4.2-3.8,10.3-0.5,14.8
				C193.9,70.8,196.3,67.5,199.2,64.5z"/>
		</g>
		<path class="st17" d="M201.3,55.2c-6.7,0-12.2,5.4-12.2,12.2s5.4,12.2,12.2,12.2c6.7,0,12.2-5.4,12.2-12.2
			C213.5,60.6,208.1,55.2,201.3,55.2z M201.3,78.8c-6.3,0-11.5-5.1-11.5-11.5s5.1-11.5,11.5-11.5s11.5,5.1,11.5,11.5
			C212.8,73.7,207.7,78.8,201.3,78.8z"/>
		<path class="st17" d="M202.5,79.4c-0.2,0-0.3-0.2-0.3-0.4c0-0.1,0.1-0.2,0.2-0.3c0.1-0.1,8.7-4.4,4.4-21.7c0-0.2,0.1-0.4,0.3-0.4
			c0.2,0,0.4,0.1,0.4,0.3l0,0c4.4,17.9-4.4,22.3-4.8,22.5C202.6,79.4,202.6,79.4,202.5,79.4z"/>
		<path class="st17" d="M210.5,75.1c-0.2,0-0.3-0.1-0.3-0.3c-0.2-1-0.9-3.8-2.4-4c-1.8-0.3-3.8,0.1-7.6,1.3l-1.5,0.5
			c-2.3,0.9-4.8,1.4-7.4,1.5c-0.2,0-0.3-0.2-0.3-0.4c0-0.2,0.2-0.3,0.3-0.3h0.1c2.4-0.1,4.8-0.5,7-1.4l1.5-0.5c4-1.3,6-1.6,8-1.3
			c2.2,0.3,2.9,4.4,2.9,4.5c0,0.2-0.1,0.4-0.3,0.4L210.5,75.1z"/>
		<path class="st17" d="M208.2,64c-1.4,0-3.3-1.2-5.5-2.7c-2.5-1.7-5.4-3.6-7.7-3.6c-0.2,0-0.4-0.2-0.4-0.3c0-0.2,0.2-0.4,0.4-0.4
			c2.6,0,5.5,2,8.1,3.7c2,1.3,3.9,2.6,5.1,2.6c2.6,0,3.2-1.5,3.2-1.6c0.1-0.2,0.3-0.3,0.5-0.2c0.2,0.1,0.3,0.2,0.2,0.4
			C212.1,62,211.4,64,208.2,64z"/>
		<path class="st17" d="M213,69.4h-0.1c-0.1,0-9.7-3.6-14-4s-8.4,1-9,3.2c0,0.2-0.2,0.3-0.4,0.3c-0.2,0-0.3-0.2-0.3-0.4
			c0,0,0,0,0-0.1c0.8-2.6,5-4.2,9.8-3.8c4.4,0.4,13.8,3.9,14.2,4c0.2,0.1,0.3,0.3,0.2,0.4C213.4,69.3,213.2,69.4,213,69.4L213,69.4z
			"/>
		<path class="st18" d="M154.1,85.4c0,0,11,15.5,9.6,30.5"/>
		<path class="st18" d="M194.6,85.4c0,0-11,15.5-9.6,30.5"/>
		<line class="st18" x1="163.9" y1="108" x2="167.5" y2="115.9"/>
		<line class="st18" x1="161.4" y1="85" x2="174.5" y2="115.9"/>
		<line class="st18" x1="168.2" y1="85" x2="181.3" y2="115.9"/>
		<line class="st18" x1="175.1" y1="85" x2="184.9" y2="108.1"/>
		<line class="st18" x1="181.6" y1="85" x2="187.6" y2="99.1"/>
		<line class="st18" x1="188.9" y1="85" x2="191.3" y2="90.8"/>
		<line class="st18" x1="184.9" y1="108.1" x2="181.3" y2="115.9"/>
		<line class="st18" x1="187.5" y1="85" x2="174.4" y2="115.9"/>
		<line class="st18" x1="180.6" y1="85" x2="167.5" y2="115.9"/>
		<line class="st18" x1="174.1" y1="85" x2="163.7" y2="109.6"/>
		<line class="st18" x1="167.2" y1="85" x2="161.2" y2="99.3"/>
		<line class="st18" x1="160" y1="85" x2="157.5" y2="91"/>
		<path class="st19" d="M151.7,80.9h45.5c1.2,0,2.2,1,2.2,2.2v0.5c0,1.2-1,2.2-2.2,2.2h-45.5c-1.2,0-2.2-1-2.2-2.2v-0.5
			C149.5,81.9,150.5,80.9,151.7,80.9z"/>
	</g>
</g>
</svg>
