<svg xmlns="http://www.w3.org/2000/svg" viewBox="0 0 340 140"><defs><style>.cls-1{isolation:isolate;}.cls-2{opacity:0.6;}.cls-3{fill:#eff5f8;}.cls-4{opacity:0.7;}.cls-5{fill:#cdebfc;}.cls-6{opacity:0.3;}.cls-7{fill:#e3b462;}.cls-8{opacity:0.39;}.cls-9{fill:#0aa5e3;}.cls-10{fill:#32b475;}.cls-11{fill:#a6e0ed;}.cls-12,.cls-19{fill:#e2e2e2;}.cls-12,.cls-18{mix-blend-mode:soft-light;}.cls-13{fill:#3273ad;}.cls-14{opacity:0.5;}.cls-15{fill:#fff;}.cls-16{fill:#8bb7d8;}.cls-17{fill:#fad264;}.cls-20{fill:#104d7a;}.cls-21{fill:none;}.cls-21,.cls-22{stroke:#3273ad;stroke-linecap:round;stroke-linejoin:round;}.cls-22{fill:#caedff;stroke-width:0.75px;}</style></defs><title>just-missed</title><g class="cls-1"><g id="Layer_1" data-name="Layer 1"><g class="cls-2"><path class="cls-3" d="M261.64,98.09h-35.7a3.14,3.14,0,0,0,0,6.27h4.65a3.14,3.14,0,1,1,0,6.27H220.43a3.14,3.14,0,0,0,0,6.27h35.7a3.14,3.14,0,1,0,0-6.27h-9.74a3.14,3.14,0,0,1,0-6.27h15.25a3.14,3.14,0,0,0,0-6.27Z"/><path class="cls-3" d="M51,107.5H92.14a3.09,3.09,0,0,0,0-6.18H81.6a3.09,3.09,0,0,1,0-6.18h6.6a3.09,3.09,0,0,0,0-6.18H61.57a3.09,3.09,0,0,0,0,6.18H66a3.09,3.09,0,1,1,0,6.18H51a3.09,3.09,0,0,0,0,6.18Z"/><path class="cls-3" d="M264.32,53.37h33.19a2.49,2.49,0,0,0,0-5H289a2.49,2.49,0,0,1,0-5h5.33a2.49,2.49,0,0,0,0-5H272.83a2.49,2.49,0,0,0,0,5h3.61a2.49,2.49,0,0,1,0,5H264.32a2.49,2.49,0,0,0,0,5Z"/><g class="cls-4"><path class="cls-5" d="M40.48,55.57h5.81a.47.47,0,0,0,.47-.49,4.27,4.27,0,0,1,1.14-3.26c1.77-1.82,5-1.8,5-1.81a.53.53,0,0,0,.36-.16.48.48,0,0,0,.11-.38,9.84,9.84,0,0,1,2-6.76,7.79,7.79,0,0,1,6.14-2.43A7.2,7.2,0,0,1,67,42.33c2.4,2.51,2.26,6.5,2.26,6.54a.48.48,0,0,0,.19.4.48.48,0,0,0,.44.07,6.65,6.65,0,0,1,5.61.26c2.84,1.65,3.64,5.54,3.65,5.58a.48.48,0,0,0,.47.38H91a.48.48,0,1,0,0-1H80c-.29-1.1-1.32-4.27-4-5.83a7.29,7.29,0,0,0-5.78-.53,10.44,10.44,0,0,0-2.51-6.57,8.1,8.1,0,0,0-6.09-2.36,8.72,8.72,0,0,0-6.86,2.75,10.73,10.73,0,0,0-2.31,7,8.31,8.31,0,0,0-5.19,2.08,5.06,5.06,0,0,0-1.41,3.47H40.48a.48.48,0,0,0,0,1Z"/></g><g class="cls-4"><path class="cls-5" d="M143,15.76h2.9a.24.24,0,0,0,.24-.25,2.14,2.14,0,0,1,.57-1.63,4,4,0,0,1,2.5-.91.26.26,0,0,0,.18-.08.24.24,0,0,0,.06-.19,4.92,4.92,0,0,1,1-3.38,3.89,3.89,0,0,1,3.07-1.21,3.6,3.6,0,0,1,2.7,1,5,5,0,0,1,1.13,3.27.24.24,0,0,0,.09.2.24.24,0,0,0,.22,0,3.32,3.32,0,0,1,2.81.13,4.61,4.61,0,0,1,1.82,2.79.24.24,0,0,0,.23.19h5.71a.24.24,0,0,0,0-.48h-5.52a4.88,4.88,0,0,0-2-2.92,3.64,3.64,0,0,0-2.89-.26,5.22,5.22,0,0,0-1.25-3.29,4.05,4.05,0,0,0-3-1.18A4.36,4.36,0,0,0,150.12,9a5.36,5.36,0,0,0-1.16,3.5,4.15,4.15,0,0,0-2.59,1,2.53,2.53,0,0,0-.71,1.73H143a.24.24,0,0,0,0,.48Z"/></g><g class="cls-4"><path class="cls-5" d="M224.15,24.22h0l10-.45a1.16,1.16,0,0,0,.73-.1,1.2,1.2,0,0,0,.36-.87c0-.07,0-.13,0-.16a8.69,8.69,0,0,1,.34-1,6.56,6.56,0,0,1,.89-1.54,5.56,5.56,0,0,1,2.34-1.73,6.88,6.88,0,0,1,2.26-.45,7.46,7.46,0,0,1,.83,0,1.25,1.25,0,0,0,.67,0c.35-.13.48-.52.71-1.46,0-.15.07-.27.09-.34a17.94,17.94,0,0,1,1-2.28,11.87,11.87,0,0,1,2.28-3.15,8.76,8.76,0,0,1,5.19-2.42,11.55,11.55,0,0,1,10.6,5.07,12.59,12.59,0,0,1,1.87,7.8.48.48,0,0,0,.95.1,13.57,13.57,0,0,0-2-8.41,12.37,12.37,0,0,0-11.5-5.5A9.7,9.7,0,0,0,246,10a12.8,12.8,0,0,0-2.46,3.4,18.81,18.81,0,0,0-1,2.4c0,.08-.07.23-.11.42s-.13.52-.2.74L242,17a9,9,0,0,0-.93,0,7.85,7.85,0,0,0-2.57.52,6.52,6.52,0,0,0-2.74,2,7.48,7.48,0,0,0-1,1.77,9.69,9.69,0,0,0-.38,1.11c0,.06,0,.16-.05.27l0,.17h-.17l-10,.45a.47.47,0,0,0,0,.95Z"/></g><g class="cls-6"><path class="cls-7" d="M274.82,114.75a5.25,5.25,0,1,1,5.25-5.25A5.26,5.26,0,0,1,274.82,114.75Zm0-9a3.75,3.75,0,1,0,3.75,3.75A3.75,3.75,0,0,0,274.82,105.75Z"/></g><g class="cls-8"><path class="cls-9" d="M248.66,55.39a5.66,5.66,0,1,1,5.66-5.66A5.66,5.66,0,0,1,248.66,55.39Zm0-9.82a4.16,4.16,0,1,0,4.16,4.16A4.16,4.16,0,0,0,248.66,45.58Z"/><path class="cls-10" d="M81.67,74a5.66,5.66,0,1,1,5.66-5.66A5.66,5.66,0,0,1,81.67,74Zm0-9.82a4.16,4.16,0,1,0,4.16,4.16A4.16,4.16,0,0,0,81.67,64.18Z"/><path class="cls-10" d="M278,77.29a5.66,5.66,0,1,1,5.66-5.66A5.66,5.66,0,0,1,278,77.29Zm0-9.82a4.16,4.16,0,1,0,4.16,4.16A4.16,4.16,0,0,0,278,67.48Z"/><path class="cls-10" d="M246.75,88.74a3.41,3.41,0,1,1,3.41-3.41A3.41,3.41,0,0,1,246.75,88.74Zm0-5.31a1.91,1.91,0,1,0,1.91,1.91A1.91,1.91,0,0,0,246.75,83.43Z"/><path class="cls-10" d="M107.79,99.95a3.41,3.41,0,1,1,3.41-3.41A3.41,3.41,0,0,1,107.79,99.95Zm0-5.31a1.91,1.91,0,1,0,1.91,1.91A1.91,1.91,0,0,0,107.79,94.64Z"/><path class="cls-7" d="M171,15.72a2,2,0,1,1,2-2A2,2,0,0,1,171,15.72Zm0-3.38a1.37,1.37,0,1,0,1.37,1.37A1.38,1.38,0,0,0,171,12.34Z"/><path class="cls-9" d="M236.52,132.7a5.66,5.66,0,1,1,5.66-5.66A5.66,5.66,0,0,1,236.52,132.7Zm0-9.82a4.16,4.16,0,1,0,4.16,4.16A4.16,4.16,0,0,0,236.52,122.88Z"/><path class="cls-7" d="M85.82,124.06a5.66,5.66,0,1,1,5.66-5.66A5.66,5.66,0,0,1,85.82,124.06Zm0-9.82A4.16,4.16,0,1,0,90,118.4,4.16,4.16,0,0,0,85.82,114.25Z"/><path class="cls-9" d="M52.42,127.45a5.25,5.25,0,1,1,5.25-5.25A5.26,5.26,0,0,1,52.42,127.45Zm0-9a3.75,3.75,0,1,0,3.75,3.75A3.75,3.75,0,0,0,52.42,118.45Z"/></g></g><g class="cls-6"><path class="cls-11" d="M218.81,36.61a4.14,4.14,0,0,0-2.94-1.28h-82a3.86,3.86,0,0,0-2.81,1.28,4.14,4.14,0,0,0-1.06,3v45.7a5,5,0,0,0,1.06,3.37,4.31,4.31,0,0,0,2.81,1.62h82a4.59,4.59,0,0,0,2.94-1.62A5.09,5.09,0,0,0,220,85.34V39.64A4.25,4.25,0,0,0,218.81,36.61Z"/><path class="cls-12" d="M133.87,35.33a3.86,3.86,0,0,0-2.81,1.28,4.14,4.14,0,0,0-1.06,3v45.7a5,5,0,0,0,1.06,3.37,4.31,4.31,0,0,0,2.81,1.62h10.56s3.06-4.41,7.89-10a211.55,211.55,0,0,1,20.44-21.2c1.38-1.21,2.85-2.48,4.34-3.64.57-.44,1.14-.92,1.73-1.35,1.45-1.08,2.93-2.16,4.43-3.18.65-.44,1.3-.93,2-1.36a213.78,213.78,0,0,1,25.6-14.22Z"/></g><path class="cls-13" d="M218.79,36.25a4.61,4.61,0,0,0-3.28-1.36h-82a4.64,4.64,0,0,0-4.64,4.64v45.7a4.64,4.64,0,0,0,4.64,4.64h20l-.45-.83H133.5a3.81,3.81,0,0,1-3.81-3.81V39.54a3.81,3.81,0,0,1,3.81-3.81h82a3.81,3.81,0,0,1,3.81,3.81v45.7a3.81,3.81,0,0,1-3.81,3.81H196.67l-.45.83H215.5a4.64,4.64,0,0,0,4.64-4.64V39.54A4.61,4.61,0,0,0,218.79,36.25Z"/><g class="cls-14"><path class="cls-13" d="M216.63,43.06a.42.42,0,1,1-.85,0A3.8,3.8,0,0,0,212,39.26a.42.42,0,0,1,0-.85,4.65,4.65,0,0,1,4.65,4.65Z"/></g><path class="cls-15" d="M196.18,55.31a1.13,1.13,0,0,0-1.17-1H154.47A1.32,1.32,0,0,0,153,55.61V81.33h43V55.61C196,55.47,196.22,55.44,196.18,55.31Z"/><polygon class="cls-13" points="191.92 54.4 190.04 53.65 177.88 53.65 179.37 54.4 191.92 54.4"/><polygon class="cls-13" points="175.05 54.4 173.57 53.65 164.69 53.65 165.85 54.4 175.05 54.4"/><path class="cls-13" d="M154.1,53.65a1.86,1.86,0,0,0-1.85,1.85V80.8H153V55.5a1.11,1.11,0,0,1,1.1-1.1h7.79l-1.15-.75Z"/><path class="cls-13" d="M195.67,56.14a1.08,1.08,0,0,1,.07.36V81.8h.75V56.5a1.84,1.84,0,0,0-.06-.43Z"/><path class="cls-16" d="M187.8,69.46,169.71,58a1.15,1.15,0,0,0-.57-.19h0a.25.25,0,0,0-.12,0c-.13.09,0,.3.27.47l18.09,11.49c.27.17.6.24.73.16l0,0C188.16,69.79,188,69.61,187.8,69.46Z"/><path class="cls-16" d="M169.11,57.78h0Z"/><path class="cls-16" d="M168,56.75l-5.24-3.33c-.27-.17-.6-.24-.73-.16s0,.3.27.47l5.24,3.33c.27.17.6.24.73.16l0,0C168.4,57.08,168.28,56.9,168,56.75Z"/><path class="cls-16" d="M161.33,52.36l-1.47-.93c-.27-.17-.6-.24-.73-.16s0,.3.27.47l1.47.93c.27.17.6.24.73.16l0,0C161.69,52.69,161.57,52.51,161.33,52.36Z"/><path class="cls-16" d="M175.24,46.54c-.3-.12-.55-.09-.54.06s.25.38.55.49l5.48,2.16,1.15-.1Z"/><path class="cls-16" d="M195.17,54.41l-13.29-5.25-1.15.1L195.18,55c.26.1.48.1.53,0a.12.12,0,0,0,0-.06C195.72,54.75,195.47,54.53,195.17,54.41Z"/><path class="cls-16" d="M173.81,46.46c-.05.1-.27.11-.53,0l-5.77-2.28c-.3-.12-.55-.34-.55-.49s.24-.18.54-.06l5.77,2.28c.3.12.55.34.55.49A.12.12,0,0,1,173.81,46.46Z"/><path class="cls-16" d="M166.31,43.62c-.05.1-.27.11-.53,0L164.17,43c-.3-.12-.55-.34-.55-.49s.24-.18.54-.06l1.62.64c.3.12.55.34.55.49A.12.12,0,0,1,166.31,43.62Z"/><path class="cls-16" d="M188,59.73l-4.18-2.13H182.7l5.06,2.58c.3.15.59.17.65,0S188.28,59.88,188,59.73Z"/><path class="cls-16" d="M172.33,51.76c-.3-.15-.59-.17-.65,0s.13.35.42.5L182.7,57.6h1.11Z"/><path class="cls-16" d="M164.35,48.26l4.29,2.18h1.09l-.09-.06-5.06-2.58c-.3-.15-.59-.17-.65,0S164.06,48.11,164.35,48.26Z"/><path class="cls-16" d="M170.06,50.89c.06-.11-.09-.3-.33-.44h-1.09l.77.39C169.71,51,170,51,170.06,50.89Z"/><path class="cls-16" d="M163.21,47.4c-.06.12-.35.1-.65,0l-1.21-.62c-.3-.15-.48-.37-.42-.5s.35-.1.65,0l1.21.62C163.08,47.05,163.27,47.27,163.21,47.4Z"/><path class="cls-16" d="M160.64,46.09c-.06.12-.35.1-.65,0l-1.21-.62c-.3-.15-.48-.37-.42-.5s.35-.1.65,0l1.21.62C160.51,45.74,160.7,46,160.64,46.09Z"/><path class="cls-17" d="M209.05,58.38a11.82,11.82,0,1,0,4.1,8.95A11.77,11.77,0,0,0,209.05,58.38Z"/><g class="cls-18"><path class="cls-19" d="M199.21,64.49c2.63-2.53,6.63-4.65,9.84-6.11a11.82,11.82,0,0,0-17.21,16A48,48,0,0,1,199.21,64.49Z"/></g><path class="cls-20" d="M201.33,55.15A12.17,12.17,0,1,0,213.5,67.33,12.19,12.19,0,0,0,201.33,55.15Zm0,23.65A11.47,11.47,0,1,1,212.8,67.33,11.49,11.49,0,0,1,201.33,78.8Z"/><path class="cls-20" d="M202.5,79.44a.35.35,0,0,1-.15-.66c.11-.05,8.68-4.44,4.42-21.68a.35.35,0,1,1,.68-.17c4.41,17.86-4.42,22.3-4.8,22.48A.35.35,0,0,1,202.5,79.44Z"/><path class="cls-20" d="M210.54,75.09a.35.35,0,0,1-.34-.29c-.18-1-.94-3.75-2.35-4-1.8-.28-3.8.06-7.65,1.29l-1.47.48a20.49,20.49,0,0,1-7.35,1.46.35.35,0,0,1,0-.7h.15a19.9,19.9,0,0,0,7-1.43l1.48-.48c4-1.27,6-1.61,8-1.31,2.19.34,2.9,4.37,2.93,4.54a.35.35,0,0,1-.29.4Z"/><path class="cls-20" d="M208.22,64c-1.43,0-3.32-1.25-5.51-2.7-2.51-1.67-5.36-3.56-7.72-3.56a.35.35,0,1,1,0-.7c2.57,0,5.51,2,8.11,3.67,2,1.33,3.9,2.59,5.12,2.59,2.64,0,3.22-1.5,3.24-1.57a.35.35,0,0,1,.66.23C212.09,62,211.38,64,208.22,64Z"/><path class="cls-20" d="M213,69.37l-.12,0c-.1,0-9.74-3.58-14-4s-8.4,1-9,3.25a.35.35,0,1,1-.67-.19c.75-2.62,5-4.24,9.79-3.75,4.37.44,13.8,3.9,14.2,4a.35.35,0,0,1-.12.68Z"/><path class="cls-21" d="M154.14,85.39s11,15.54,9.58,30.54"/><path class="cls-21" d="M194.57,85.39s-11,15.54-9.58,30.54"/><line class="cls-21" x1="163.85" y1="107.98" x2="167.52" y2="115.93"/><line class="cls-21" x1="161.38" y1="85.04" x2="174.47" y2="115.93"/><line class="cls-21" x1="168.24" y1="85.04" x2="181.34" y2="115.93"/><line class="cls-21" x1="175.11" y1="85.04" x2="184.86" y2="108.05"/><line class="cls-21" x1="181.62" y1="85.04" x2="187.59" y2="99.12"/><line class="cls-21" x1="188.85" y1="85.04" x2="191.3" y2="90.83"/><line class="cls-21" x1="184.86" y1="108.05" x2="181.34" y2="115.93"/><line class="cls-21" x1="187.49" y1="85.04" x2="174.39" y2="115.93"/><line class="cls-21" x1="180.62" y1="85.04" x2="167.52" y2="115.93"/><line class="cls-21" x1="174.11" y1="85.04" x2="163.69" y2="109.62"/><line class="cls-21" x1="167.24" y1="85.04" x2="161.19" y2="99.31"/><line class="cls-21" x1="160.01" y1="85.04" x2="157.49" y2="90.99"/><rect class="cls-22" x="149.5" y="80.9" width="50" height="5" rx="2.24" ry="2.24"/></g></g></svg>