<svg id="Layer_1" data-name="Layer 1" xmlns="http://www.w3.org/2000/svg" viewBox="0 0 100 100"><defs><style>.cls-1{fill:#e64c3d;}.cls-2{fill:#2c2f33;}</style></defs><title>launch</title><rect class="cls-1" x="12.91" y="67.24" width="74.65" height="12.22"/><path class="cls-2" d="M50,85.68a1.68,1.68,0,0,0-1.67,1.67v4.3H33.94a1.67,1.67,0,0,0,0,3.35H66.08a1.67,1.67,0,1,0,0-3.35H51.68v-4.3A1.67,1.67,0,0,0,50,85.68Zm0,0"/><path class="cls-2" d="M14.79,81.12H85.21a4,4,0,0,0,4-4V28.62a4,4,0,0,0-4-4H65.51a1.67,1.67,0,0,0,0,3.35H85.21a.7.7,0,0,1,.7.7V77.13a.7.7,0,0,1-.7.7H14.79a.7.7,0,0,1-.7-.7V69.06H80.52a1.67,1.67,0,0,0,0-3.35h-8.4a10,10,0,0,0-9.89-8.57,1.67,1.67,0,1,0,0,3.35,6.68,6.68,0,0,1,6.51,5.22H61.13a11.43,11.43,0,0,0-9.85-9.87V44.25a1.67,1.67,0,1,0-3.35,0V55.92a11.45,11.45,0,0,0-9.43,9.8H30.86a6.68,6.68,0,0,1,6.51-5.22,1.67,1.67,0,0,0,0-3.35,10,10,0,0,0-9.89,8.57H13.24a1.72,1.72,0,0,0-.81-.22,1.68,1.68,0,0,0-1.67,1.67v9.95a4,4,0,0,0,4,4ZM49.84,59.06a8.09,8.09,0,0,1,7.94,6.64H41.92a8,8,0,0,1,7.92-6.64Zm0,0"/><path class="cls-2" d="M12.44,62.08a1.68,1.68,0,0,0,1.67-1.67V28.6a.7.7,0,0,1,.7-.7H34.57a1.67,1.67,0,0,0,0-3.35H14.79a4,4,0,0,0-4,4v31.8a1.68,1.68,0,0,0,1.67,1.69Zm0,0"/><path class="cls-2" d="M51.79,73.64a1.93,1.93,0,1,1-1.93-1.93,1.93,1.93,0,0,1,1.93,1.93Zm0,0"/><path class="cls-2" d="M35.1,46.86a1.68,1.68,0,0,0,1.67,1.67h3.42v3.86a1.67,1.67,0,1,0,3.35,0V48.53h.22a1.67,1.67,0,0,0,0-3.35H38.43V43.33A3,3,0,0,1,39,41.58l3-4.32a6.12,6.12,0,0,0,1.1-3.51V19.28a5.73,5.73,0,0,1,1.38-3.71L49.9,9.23l5.44,6.32a5.73,5.73,0,0,1,1.4,3.73V33.84a6.18,6.18,0,0,0,1,3.29l2.81,4.43A3,3,0,0,1,61,43.2v2H55.93a1.67,1.67,0,0,0-.2,3.33v3.88a1.67,1.67,0,1,0,3.35,0V48.51h3.57a1.68,1.68,0,0,0,1.67-1.67V43.2a6.44,6.44,0,0,0-1-3.42l-2.81-4.43a2.77,2.77,0,0,1-.44-1.51V19.3a9.11,9.11,0,0,0-2.21-5.92L51.13,5.57A1.65,1.65,0,0,0,49.86,5a1.69,1.69,0,0,0-1.27.59L41.92,13.4a9.08,9.08,0,0,0-2.17,5.88V33.77a2.74,2.74,0,0,1-.5,1.6l-3,4.32a6.34,6.34,0,0,0-1.14,3.66Zm0,0"/></svg>