<svg id="Layer_1" data-name="Layer 1" xmlns="http://www.w3.org/2000/svg" viewBox="0 0 40 35"><defs><style>.cls-1{fill:#32b475;}</style></defs><title>money-manager</title><path class="cls-1" d="M37.82,17.38h-.43V7.75a2.84,2.84,0,0,0-2.67-2.83l-.73-3A1.7,1.7,0,0,0,31.95.66L14.3,4.93l-.15,0H5.08A2.84,2.84,0,0,0,2.25,7.75V31.55a2.84,2.84,0,0,0,2.83,2.83H34.56a2.84,2.84,0,0,0,2.83-2.83v-5.1h.43a.71.71,0,0,0,.71-.71V18.09a.71.71,0,0,0-.71-.71ZM36.26,7.75h0a2.82,2.82,0,0,0-1-.47L35,6.11a1.7,1.7,0,0,1,1.25,1.64ZM5.08,6H9.7L5,7.19H4.89l0,0h0l0,0h0l0,0h0l0,0h0l0,0h0l0,0h0l0,0h0l0,0v.24h0v.12h0V8l0,0h0l0,0h0l0,0h0l0,0h0l0,0h0l0,0h0l0,0h0l0,0H31.73a.57.57,0,0,0,0-1.13H9.84L32.21,1.76a.57.57,0,0,1,.68.42l1.21,5H34a.57.57,0,1,0,0,1.13h.8A1.7,1.7,0,0,1,36.26,10h0a2.82,2.82,0,0,0-1.7-.57H5.08a1.7,1.7,0,1,1,0-3.4ZM36.26,31.55a1.7,1.7,0,0,1-1.7,1.7H5.08a1.7,1.7,0,0,1-1.7-1.7V10a2.82,2.82,0,0,0,1.7.57H34.56a1.7,1.7,0,0,1,1.7,1.7v5.1H28a.78.78,0,0,0-.78.78v7.51a.78.78,0,0,0,.78.78h8.29Zm1.13-6.24H28.32v-6.8h9.07Zm0,0"/><path class="cls-1" d="M32.86,21.35a.57.57,0,0,0-.57.57.57.57,0,1,1-.57-.57.57.57,0,0,0,0-1.13,1.7,1.7,0,1,0,1.7,1.7.57.57,0,0,0-.57-.57Zm0,0"/></svg>