<svg id="Layer_1" data-name="Layer 1" xmlns="http://www.w3.org/2000/svg" viewBox="0 0 330 152"><defs><style>.cls-1{fill:#eff5f8;}.cls-2{opacity:0.7;}.cls-3{fill:#cdebfc;}.cls-4{opacity:0.3;}.cls-5{fill:#e3b462;}.cls-6{opacity:0.39;}.cls-7{fill:#0aa5e3;}.cls-8{fill:#32b475;}.cls-14,.cls-9{fill:#fff;}.cls-10,.cls-11,.cls-13,.cls-9{stroke:#3273ad;stroke-linecap:round;stroke-linejoin:round;stroke-width:0.75px;}.cls-10{fill:#caedff;}.cls-11{fill:none;}.cls-12{fill:#3273ad;}.cls-13{fill:#fad264;}</style></defs><title>prepare-for-interview</title><path class="cls-1" d="M232.62,100.51H199.24a2.93,2.93,0,1,0,0,5.87h4.35a2.93,2.93,0,1,1,0,5.87h-9.51a2.93,2.93,0,0,0,0,5.87h33.38a2.93,2.93,0,1,0,0-5.87h-9.1a2.93,2.93,0,1,1,0-5.87h14.26a2.93,2.93,0,1,0,0-5.87Z"/><path class="cls-1" d="M42.1,112.24H80.55a2.89,2.89,0,0,0,0-5.78H70.68a2.89,2.89,0,0,1,0-5.78h6.18a2.89,2.89,0,0,0,0-5.78H52a2.89,2.89,0,1,0,0,5.78h4.18a2.89,2.89,0,0,1,0,5.78h-14a2.89,2.89,0,1,0,0,5.78Z"/><path class="cls-1" d="M185.36,65.61h50a3.76,3.76,0,1,0,0-7.51H222.53a3.76,3.76,0,0,1,0-7.51h8a3.76,3.76,0,1,0,0-7.51H198.18a3.76,3.76,0,0,0,0,7.51h5.44a3.76,3.76,0,1,1,0,7.51H185.36a3.76,3.76,0,1,0,0,7.51Z"/><path class="cls-1" d="M133,62.85H86.15a3.52,3.52,0,0,0,0,7h12a3.52,3.52,0,1,1,0,7H90.65a3.52,3.52,0,0,0,0,7H121a3.52,3.52,0,0,0,0-7h-5.1a3.52,3.52,0,0,1,0-7H133a3.52,3.52,0,1,0,0-7Z"/><g class="cls-2"><path class="cls-3" d="M29.13,66.16h5.43A.44.44,0,0,0,35,65.7a4,4,0,0,1,1.07-3c1.65-1.7,4.66-1.69,4.68-1.7a.49.49,0,0,0,.34-.15.44.44,0,0,0,.11-.35,9.2,9.2,0,0,1,1.91-6.32,7.28,7.28,0,0,1,5.74-2.27,6.73,6.73,0,0,1,5.05,1.93C56.15,56.13,56,59.86,56,59.9a.45.45,0,0,0,.18.37.45.45,0,0,0,.41.07,6.21,6.21,0,0,1,5.25.24c2.66,1.55,3.4,5.18,3.41,5.22a.44.44,0,0,0,.44.36H76.38a.44.44,0,1,0,0-.89H66.05c-.27-1-1.24-4-3.74-5.45a6.81,6.81,0,0,0-5.4-.49,9.76,9.76,0,0,0-2.35-6.15A7.58,7.58,0,0,0,48.86,51a8.15,8.15,0,0,0-6.42,2.58,10,10,0,0,0-2.16,6.54A7.77,7.77,0,0,0,35.44,62a4.73,4.73,0,0,0-1.32,3.24h-5a.44.44,0,1,0,0,.89Z"/></g><g class="cls-2"><path class="cls-3" d="M137.45,26.46h2.72a.22.22,0,0,0,.22-.23,2,2,0,0,1,.53-1.52,3.72,3.72,0,0,1,2.34-.85.25.25,0,0,0,.17-.08.22.22,0,0,0,.05-.18,4.6,4.6,0,0,1,1-3.16,3.64,3.64,0,0,1,2.87-1.14,3.36,3.36,0,0,1,2.53,1,4.68,4.68,0,0,1,1.05,3.06.22.22,0,0,0,.09.19.23.23,0,0,0,.2,0,3.11,3.11,0,0,1,2.62.12,4.32,4.32,0,0,1,1.7,2.61.22.22,0,0,0,.22.18h5.34a.22.22,0,1,0,0-.44h-5.16A4.56,4.56,0,0,0,154,23.29a3.41,3.41,0,0,0-2.7-.25A4.88,4.88,0,0,0,150.16,20a3.79,3.79,0,0,0-2.85-1.1,4.08,4.08,0,0,0-3.21,1.29A5,5,0,0,0,143,23.42a3.88,3.88,0,0,0-2.42,1,2.36,2.36,0,0,0-.66,1.62h-2.49a.22.22,0,1,0,0,.44Z"/></g><g class="cls-2"><path class="cls-3" d="M263.93,58.23h0l9.34-.42a1.08,1.08,0,0,0,.69-.1,1.12,1.12,0,0,0,.34-.81c0-.06,0-.12,0-.15a8.13,8.13,0,0,1,.32-.93,6.14,6.14,0,0,1,.83-1.44,5.2,5.2,0,0,1,2.19-1.62,6.44,6.44,0,0,1,2.11-.42,7,7,0,0,1,.77,0,1.17,1.17,0,0,0,.63,0c.33-.12.45-.49.66-1.36,0-.14.06-.25.08-.31a16.78,16.78,0,0,1,.9-2.13A11.1,11.1,0,0,1,285,45.61a8.19,8.19,0,0,1,4.86-2.26,10.8,10.8,0,0,1,9.91,4.74,11.77,11.77,0,0,1,1.75,7.29.44.44,0,0,0,.88.09,12.69,12.69,0,0,0-1.89-7.86,11.56,11.56,0,0,0-10.76-5.14,9.07,9.07,0,0,0-5.38,2.5,12,12,0,0,0-2.3,3.18,17.59,17.59,0,0,0-1,2.25c0,.07-.06.22-.11.39s-.12.49-.19.69l-.18,0a8.37,8.37,0,0,0-.87,0,7.34,7.34,0,0,0-2.4.48,6.1,6.1,0,0,0-2.56,1.9,7,7,0,0,0-1,1.65,9.06,9.06,0,0,0-.35,1c0,.05,0,.15,0,.26l0,.16h-.16l-9.34.42a.44.44,0,0,0,0,.89Z"/></g><g class="cls-4"><path class="cls-5" d="M260.71,119a4.91,4.91,0,1,1,4.91-4.91A4.91,4.91,0,0,1,260.71,119Zm0-8.42a3.51,3.51,0,1,0,3.51,3.51A3.51,3.51,0,0,0,260.71,110.61Z"/></g><g class="cls-6"><path class="cls-7" d="M236.25,63.52a5.29,5.29,0,1,1,5.29-5.29A5.3,5.3,0,0,1,236.25,63.52Zm0-9.18a3.89,3.89,0,1,0,3.89,3.89A3.89,3.89,0,0,0,236.25,54.34Z"/><path class="cls-8" d="M71.68,86.44A5.29,5.29,0,1,1,77,81.15,5.3,5.3,0,0,1,71.68,86.44Zm0-9.18a3.89,3.89,0,1,0,3.89,3.89A3.89,3.89,0,0,0,71.68,77.26Z"/><path class="cls-8" d="M263.66,84A5.29,5.29,0,1,1,269,78.7,5.3,5.3,0,0,1,263.66,84Zm0-9.18a3.89,3.89,0,1,0,3.89,3.89A3.89,3.89,0,0,0,263.66,74.82Z"/><path class="cls-8" d="M234.46,94.7a3.19,3.19,0,1,1,3.19-3.19A3.19,3.19,0,0,1,234.46,94.7Zm0-5a1.78,1.78,0,1,0,1.78,1.78A1.78,1.78,0,0,0,234.46,89.73Z"/><path class="cls-8" d="M106.41,92.91a3.19,3.19,0,1,1,3.19-3.19A3.19,3.19,0,0,1,106.41,92.91Zm0-5a1.78,1.78,0,1,0,1.78,1.78A1.78,1.78,0,0,0,106.41,87.95Z"/><path class="cls-5" d="M163.66,26.43a1.88,1.88,0,1,1,1.88-1.88A1.88,1.88,0,0,1,163.66,26.43Zm0-3.16a1.28,1.28,0,1,0,1.28,1.28A1.29,1.29,0,0,0,163.66,23.26Z"/><path class="cls-7" d="M224.89,135.8a5.29,5.29,0,1,1,5.29-5.29A5.3,5.3,0,0,1,224.89,135.8Zm0-9.18a3.89,3.89,0,1,0,3.89,3.89A3.89,3.89,0,0,0,224.89,126.62Z"/><path class="cls-5" d="M84,127.73a5.29,5.29,0,1,1,5.29-5.29A5.3,5.3,0,0,1,84,127.73Zm0-9.18a3.89,3.89,0,1,0,3.89,3.89A3.89,3.89,0,0,0,84,118.55Z"/><path class="cls-7" d="M52.75,130.89A4.91,4.91,0,1,1,57.66,126,4.91,4.91,0,0,1,52.75,130.89Zm0-8.42A3.51,3.51,0,1,0,56.26,126,3.51,3.51,0,0,0,52.75,122.48Z"/></g><path class="cls-9" d="M134.2,58l6.11,5.78c16.51,13.54,10.86,17.88,10.86,17.88s8,1.41,10.33,0,5.39-1.16,5.36-14.14c0,0-15.49-20.25-16.65-22.07"/><path class="cls-10" d="M183.89,78.27l-40.45,40.12s-6.77-3.14-2.31-16.18c4.79-10.9,9.41-20.64,9.41-20.64s3.47.33,6.44.33,10.24,0,9.24-9.41c0-3,.5-5.78,1.49-6.27C167.71,66.22,174.64,67.21,183.89,78.27Z"/><line class="cls-11" x1="181.8" y1="75.91" x2="141.19" y2="116.2"/><polygon class="cls-12" points="143.1 98.25 147.63 98.25 154.78 81.86 150.54 81.58 143.1 98.25"/><line class="cls-11" x1="119.34" y1="124.55" x2="202.21" y2="124.55"/><polyline class="cls-13" points="142.34 124.55 169.97 96.05 197.26 124.11"/><path class="cls-11" d="M173.13,84.51S169,83,171.88,80.25s-2.62-6.34-.37-8.17-.64-4.59-.64-4.59"/><circle class="cls-14" cx="151.39" cy="84.28" r="0.9"/><circle class="cls-14" cx="148.78" cy="89.56" r="0.9"/><circle class="cls-14" cx="146.28" cy="95.4" r="0.9"/></svg>