<svg id="Layer_1" data-name="Layer 1" xmlns="http://www.w3.org/2000/svg" viewBox="0 0 240 150"><defs><style>.cls-1{fill:#cdebfc;}.cls-2{opacity:0.4;}.cls-3{fill:#0aa5e3;}.cls-4{fill:#32b475;}.cls-5{fill:#e3b462;}.cls-6{fill:#caedff;}.cls-7{fill:#3273ad;}.cls-8{fill:#b7d1e5;}.cls-9{fill:#ede0d6;}.cls-10{fill:#fff;}.cls-11{fill:#fad264;}</style></defs><title>Artboard 1</title><path class="cls-1" d="M64.4,41.17h0l-10-.45a1.16,1.16,0,0,1-.73-.1,1.2,1.2,0,0,1-.36-.87c0-.07,0-.13,0-.16a8.69,8.69,0,0,0-.34-1A6.56,6.56,0,0,0,52,37a5.56,5.56,0,0,0-2.34-1.73,6.88,6.88,0,0,0-2.26-.45,7.46,7.46,0,0,0-.83,0,1.25,1.25,0,0,1-.67,0c-.35-.13-.48-.52-.71-1.46,0-.15-.07-.27-.09-.34a17.94,17.94,0,0,0-1-2.28,11.87,11.87,0,0,0-2.28-3.15,8.76,8.76,0,0,0-5.19-2.42,11.55,11.55,0,0,0-10.6,5.07,12.59,12.59,0,0,0-1.87,7.8.48.48,0,0,1-.95.1,13.57,13.57,0,0,1,2-8.41,12.37,12.37,0,0,1,11.5-5.5A9.7,9.7,0,0,1,42.56,27,12.8,12.8,0,0,1,45,30.39a18.81,18.81,0,0,1,1,2.4c0,.08.07.23.11.42s.13.52.2.74l.19,0a9,9,0,0,1,.93,0,7.85,7.85,0,0,1,2.57.52,6.52,6.52,0,0,1,2.74,2,7.48,7.48,0,0,1,1,1.77,9.69,9.69,0,0,1,.38,1.11c0,.06,0,.16.05.27l0,.17h.17l10,.45a.47.47,0,0,1,0,.95Z"/><path class="cls-1" d="M135.13,20.83h-5.81a.47.47,0,0,1-.47-.49,4.27,4.27,0,0,0-1.14-3.26c-1.77-1.82-5-1.8-5-1.81a.53.53,0,0,1-.36-.16.48.48,0,0,1-.11-.38,9.84,9.84,0,0,0-2-6.76A7.79,7.79,0,0,0,114,5.53a7.2,7.2,0,0,0-5.4,2.06c-2.4,2.51-2.26,6.5-2.26,6.54a.48.48,0,0,1-.19.4.48.48,0,0,1-.44.07,6.65,6.65,0,0,0-5.61.26c-2.84,1.65-3.64,5.54-3.65,5.58a.48.48,0,0,1-.47.38H84.6a.48.48,0,0,1,0-1h11c.29-1.1,1.32-4.27,4-5.83a7.29,7.29,0,0,1,5.78-.53,10.44,10.44,0,0,1,2.51-6.57A8.1,8.1,0,0,1,114,4.58a8.72,8.72,0,0,1,6.86,2.75,10.73,10.73,0,0,1,2.31,7,8.31,8.31,0,0,1,5.19,2.08,5.06,5.06,0,0,1,1.41,3.47h5.33a.48.48,0,0,1,0,1Z"/><g class="cls-2"><path class="cls-3" d="M16.95,46.48a5.66,5.66,0,1,1,5.66,5.66A5.66,5.66,0,0,1,16.95,46.48Zm1.5,0a4.16,4.16,0,1,0,4.16-4.16A4.16,4.16,0,0,0,18.45,46.48Z"/><path class="cls-4" d="M40.47,88.68a3.58,3.58,0,1,1,3.58,3.58A3.58,3.58,0,0,1,40.47,88.68Zm.95,0A2.63,2.63,0,1,0,44.05,86,2.63,2.63,0,0,0,41.42,88.68Z"/><path class="cls-4" d="M26.41,112.71a3.41,3.41,0,1,1,3.41,3.41A3.41,3.41,0,0,1,26.41,112.71Zm1.5,0a1.91,1.91,0,1,0,1.91-1.91A1.91,1.91,0,0,0,27.91,112.71Z"/><path class="cls-5" d="M18,71.24a4.37,4.37,0,1,1,4.37,4.37A4.37,4.37,0,0,1,18,71.24Zm1.92,0a2.44,2.44,0,1,0,2.44-2.44A2.45,2.45,0,0,0,19.89,71.24Z"/><path class="cls-3" d="M3,108.27a5.66,5.66,0,1,1,5.66,5.66A5.66,5.66,0,0,1,3,108.27Zm1.5,0a4.16,4.16,0,1,0,4.16-4.16A4.16,4.16,0,0,0,4.53,108.27Z"/><path class="cls-5" d="M59.63,66.18a5.25,5.25,0,1,1,5.25,5.25A5.26,5.26,0,0,1,59.63,66.18Zm1.5,0a3.75,3.75,0,1,0,3.75-3.75A3.75,3.75,0,0,0,61.13,66.18Z"/><path class="cls-4" d="M208.83,27.52a5.66,5.66,0,1,1,5.66,5.66A5.66,5.66,0,0,1,208.83,27.52Zm1.5,0a4.16,4.16,0,1,0,4.16-4.16A4.16,4.16,0,0,0,210.33,27.52Z"/><path class="cls-4" d="M180.08,103.23a3.41,3.41,0,1,1,3.41,3.41A3.41,3.41,0,0,1,180.08,103.23Zm1.5,0a1.91,1.91,0,1,0,1.91-1.91A1.91,1.91,0,0,0,181.58,103.23Z"/><path class="cls-5" d="M191.18,53.12a4.75,4.75,0,1,1,4.54,4.95A4.76,4.76,0,0,1,191.18,53.12Zm1.5.06a3.25,3.25,0,1,0,3.39-3.11A3.25,3.25,0,0,0,192.68,53.18Z"/><path class="cls-5" d="M160.93,77.05a5.66,5.66,0,1,1,5.66,5.66A5.66,5.66,0,0,1,160.93,77.05Zm1.5,0a4.16,4.16,0,1,0,4.16-4.16A4.16,4.16,0,0,0,162.43,77.05Z"/><path class="cls-3" d="M226.47,62.51a5.25,5.25,0,1,1,5.25,5.25A5.26,5.26,0,0,1,226.47,62.51Zm1.5,0a3.75,3.75,0,1,0,3.75-3.75A3.75,3.75,0,0,0,228,62.51Z"/><path class="cls-4" d="M149.7,29a3.41,3.41,0,1,1,3.41,3.41A3.41,3.41,0,0,1,149.7,29Zm1.5,0A1.91,1.91,0,1,0,153.11,27,1.91,1.91,0,0,0,151.2,29Z"/><path class="cls-4" d="M216.7,97a3.41,3.41,0,1,1,3.41,3.41A3.41,3.41,0,0,1,216.7,97Zm1.5,0A1.91,1.91,0,1,0,220.11,95,1.91,1.91,0,0,0,218.2,97Z"/><path class="cls-4" d="M199.31,80.32a3.41,3.41,0,1,1,3.41,3.41A3.41,3.41,0,0,1,199.31,80.32Zm1.5,0a1.91,1.91,0,1,0,1.91-1.91A1.91,1.91,0,0,0,200.81,80.32Z"/></g><rect class="cls-6" x="24.05" y="125.78" width="172.1" height="6.88" rx="3.44" ry="3.44"/><path class="cls-7" d="M192.71,133H27.49a3.76,3.76,0,1,1,0-7.53H192.71a3.76,3.76,0,1,1,0,7.53ZM27.49,126.11a3.12,3.12,0,1,0,0,6.24H192.71a3.12,3.12,0,1,0,0-6.24Z"/><polygon class="cls-7" points="29.2 145.42 28.56 145.42 28.56 132.34 39.5 132.34 39.5 139.04 38.86 139.04 38.86 132.99 29.2 132.99 29.2 145.42"/><polygon class="cls-7" points="192.07 145.42 191.43 145.42 191.43 132.99 181.77 132.99 181.77 139.04 181.13 139.04 181.13 132.34 192.07 132.34 192.07 145.42"/><path class="cls-8" d="M122.57,90.05s18.61-1.85,17,19.33L95.29,109s1.33-20.05,19.94-19.06Z"/><path class="cls-7" d="M139.92,109.77l-45-.39,0-.41c0-.21,1.57-20.42,20.35-19.42l7.3.11c.55-.05,7.87-.62,12.92,4.31,3.49,3.41,5,8.6,4.47,15.44Zm-44.2-1.15,43.49.38c.43-6.42-1-11.29-4.27-14.47-4.88-4.77-12.25-4.1-12.33-4.09h0l-7.34-.11C98.68,89.43,96,105.8,95.71,108.61Z"/><path class="cls-9" d="M112.91,87l0,3.39A5.9,5.9,0,0,0,118,93a4.72,4.72,0,0,0,4.53-3l0-3.42"/><path class="cls-7" d="M117.82,93.4a6.22,6.22,0,0,1-5.27-2.86l-.05-.09,0-3.49h.77l0,3.28A5.51,5.51,0,0,0,118,92.63,4.38,4.38,0,0,0,122.19,90l0-3.35H123l0,3.53a5.15,5.15,0,0,1-4.88,3.23Z"/><polygon class="cls-7" points="118.29 109.19 117.52 109.19 117.61 98.42 109.19 90.64 109.71 90.07 118.38 98.09 118.29 109.19"/><rect class="cls-7" x="116.44" y="93.99" width="11.21" height="0.77" transform="translate(-31.39 110.49) rotate(-43.71)"/><rect class="cls-7" x="98.33" y="105.64" width="6.04" height="0.77" transform="matrix(0.01, -1, 1, 0.01, -5.55, 206.45)"/><rect class="cls-7" x="131.88" y="106.22" width="5.47" height="0.77" transform="translate(26.85 240.29) rotate(-89.5)"/><path class="cls-3" d="M103.18,70.27s-2.43-.61-2.45-8.78c0,0-6.76-1.65-2.26-10.64s28.19-16.7,30.88-1.43c0,0,13.39-1.3,4.54,19.9"/><path class="cls-7" d="M103.17,70.68h-.1c-.28-.07-2.68-.9-2.76-8.88A5.71,5.71,0,0,1,97,58.88c-1-2.11-.62-4.87,1.06-8.22,3.11-6.21,14.43-11.34,22.45-10.17,3.51.51,7.9,2.41,9.13,8.51a7.44,7.44,0,0,1,6.09,2.79c2.49,3.38,2,9.33-1.51,17.69a.41.41,0,0,1-.75-.31c3.33-8,3.88-13.81,1.61-16.89-2-2.76-5.7-2.44-5.73-2.44a.4.4,0,0,1-.44-.34c-1-5.9-5.2-7.71-8.51-8.19-7.73-1.13-18.63,3.78-21.61,9.73-1.56,3.11-1.91,5.64-1,7.51a5,5,0,0,0,3,2.56.41.41,0,0,1,.31.4c0,7.52,2.12,8.38,2.14,8.39a.41.41,0,0,1-.1.81Z"/><circle class="cls-7" cx="125.59" cy="70.46" r="1.09" transform="translate(54.04 195.44) rotate(-89.5)"/><path class="cls-9" d="M129,51.86s-8.18,9.53-24.33,5.62c0,0-1.5-.39-1.74,5.07S102.76,88,116.49,88.46s19.69-12.82,16.61-27.15c0,0-1.28-7.58-4.27-7.19Z"/><path class="cls-7" d="M117,88.88h-.57a11.54,11.54,0,0,1-8.36-3.76c-5.63-6.09-5.76-17.81-5.55-22.57.12-2.86.61-4.62,1.44-5.24a1,1,0,0,1,.81-.21c15.72,3.8,23.84-5.4,23.92-5.49a.41.41,0,0,1,.72.3l-.17,1.81c2.91.31,4.09,6.76,4.22,7.53,1.87,8.7.41,17-3.91,22.12A15.6,15.6,0,0,1,117,88.88Zm-12.43-31s-1,.19-1.23,4.69c-.2,4.65-.08,16.11,5.34,22a10.75,10.75,0,0,0,7.79,3.5A15,15,0,0,0,129,82.83c4.15-5,5.55-13,3.73-21.44-.34-2-1.67-7.13-3.81-6.87a.4.4,0,0,1-.34-.11.41.41,0,0,1-.12-.33l.11-1.14C126.06,55.18,118,61.11,104.62,57.88Z"/><path class="cls-10" d="M113.38,78.83l9.76.08s0,4.72-4.85,4.63S113.36,80.63,113.38,78.83Z"/><path class="cls-7" d="M118.35,84h-.07c-5.36-.09-5.33-3.62-5.31-5.13a.41.41,0,0,1,.41-.4l9.76.08a.41.41,0,0,1,.4.41A5.75,5.75,0,0,1,122,82.65,5,5,0,0,1,118.35,84Zm-4.56-4.72c0,1.52.36,3.83,4.51,3.9h.06a4.17,4.17,0,0,0,3.07-1.07,4.76,4.76,0,0,0,1.27-2.75Z"/><path class="cls-7" d="M129.79,63.95a.41.41,0,0,1-.36-.21,3,3,0,0,0-1.81-1.55,5.16,5.16,0,0,0-3.44.62.41.41,0,0,1-.42-.7,6,6,0,0,1,4.07-.7,3.75,3.75,0,0,1,2.32,1.94.41.41,0,0,1-.36.6Z"/><path class="cls-7" d="M107.2,63.75a.41.41,0,0,1-.35-.62c1.65-2.81,5.5-1.77,7.31-.84a.41.41,0,0,1-.38.73s-4.55-2.31-6.23.53A.41.41,0,0,1,107.2,63.75Z"/><path class="cls-7" d="M116.64,71.64a.41.41,0,0,1,.37.25c.29.68.63,1,1,1.09.7.08,1.58-.8,1.85-1.15a.41.41,0,0,1,.65.5c-.13.17-1.28,1.63-2.6,1.47-.7-.09-1.27-.62-1.68-1.59a.41.41,0,0,1,.38-.57Z"/><circle class="cls-7" cx="111.04" cy="68.27" r="1.09" transform="matrix(0.01, -1, 1, 0.01, 41.81, 178.71)"/><circle class="cls-7" cx="126.1" cy="68.4" r="1.09" transform="translate(56.6 193.9) rotate(-89.5)"/><rect class="cls-6" x="89.25" y="95.46" width="57.71" height="30.51" rx="1.29" ry="1.29" transform="translate(0.97 -1.02) rotate(0.5)"/><path class="cls-7" d="M145.54,126.54l-55.13-.48a1.61,1.61,0,0,1-1.6-1.62l.24-27.94a1.61,1.61,0,0,1,1.62-1.6l55.13.48A1.61,1.61,0,0,1,147.4,97l-.24,27.94A1.61,1.61,0,0,1,145.54,126.54Zm-54.86-31a1,1,0,0,0-1,1l-.24,27.94a1,1,0,0,0,1,1l55.13.48a1,1,0,0,0,1-1L146.76,97a1,1,0,0,0-1-1Z"/><circle class="cls-10" cx="118.11" cy="110.72" r="4.16" transform="translate(6.36 227.86) rotate(-89.5)"/><path class="cls-7" d="M60.23,122.8A3.78,3.78,0,0,1,56.49,119l0-3a3.77,3.77,0,1,1,7.55.07l0,3A3.78,3.78,0,0,1,60.23,122.8Zm.09-9.87a3.13,3.13,0,0,0-3.16,3.1l0,3a3.13,3.13,0,0,0,6.26.05l0-3A3.13,3.13,0,0,0,60.32,112.93Z"/><rect class="cls-11" x="60.41" y="108.81" width="14.23" height="16.72" rx="1.29" ry="1.29" transform="translate(1.02 -0.58) rotate(0.5)"/><path class="cls-7" d="M73.28,125.91l-11.66-.1a1.61,1.61,0,0,1-1.6-1.62L60.15,110a1.61,1.61,0,0,1,1.62-1.6l11.66.1a1.61,1.61,0,0,1,1.6,1.62l-.12,14.15A1.61,1.61,0,0,1,73.28,125.91ZM61.77,109.08a1,1,0,0,0-1,1l-.12,14.15a1,1,0,0,0,1,1l11.66.1a1,1,0,0,0,1-1l.12-14.15a1,1,0,0,0-1-1Z"/></svg>