<svg id="Layer_1" data-name="Layer 1" xmlns="http://www.w3.org/2000/svg" viewBox="0 0 100 100"><defs><style>.cls-1{fill:#fff;}.cls-2{fill:#ffd248;}.cls-3{fill:#231f20;}.cls-4{fill:#afb6bb;}</style></defs><title>prototyping</title><path class="cls-1" d="M93.16,19.69V91.33a1.84,1.84,0,0,1-1.84,1.84H8.67a1.84,1.84,0,0,1-1.84-1.84V19.69Zm0,0"/><path class="cls-2" d="M93.16,8.67v11H6.84v-11A1.84,1.84,0,0,1,8.67,6.84H91.33a1.84,1.84,0,0,1,1.84,1.84Zm0,0"/><path class="cls-3" d="M91.33,5H8.67A3.68,3.68,0,0,0,5,8.67V91.33A3.68,3.68,0,0,0,8.67,95H91.33A3.68,3.68,0,0,0,95,91.33V8.67A3.68,3.68,0,0,0,91.33,5Zm0,3.67v9.18H8.67V8.67ZM8.67,91.33V21.53H91.33v69.8Zm0,0"/><rect class="cls-3" x="12.35" y="11.43" width="6.43" height="3.67"/><rect class="cls-3" x="21.53" y="11.43" width="6.43" height="3.67"/><rect class="cls-3" x="81.22" y="11.43" width="6.43" height="3.67"/><rect class="cls-4" x="40.82" y="61.94" width="22.04" height="14.69"/><rect class="cls-4" x="13.27" y="61.94" width="22.04" height="14.69"/><rect class="cls-4" x="13.27" y="25.2" width="49.59" height="31.22"/><rect class="cls-4" x="68.37" y="25.2" width="18.37" height="62.45"/><rect class="cls-3" x="12.35" y="80.31" width="14.69" height="3.67"/><rect class="cls-3" x="29.8" y="80.31" width="6.43" height="3.67"/><rect class="cls-3" x="12.35" y="85.82" width="14.69" height="3.67"/><rect class="cls-3" x="29.8" y="85.82" width="6.43" height="3.67"/><rect class="cls-3" x="39.9" y="80.31" width="14.69" height="3.67"/><rect class="cls-3" x="57.35" y="80.31" width="6.43" height="3.67"/><rect class="cls-3" x="39.9" y="85.82" width="14.69" height="3.67"/><rect class="cls-3" x="57.35" y="85.82" width="6.43" height="3.67"/><path class="cls-3" d="M62.86,23.37H13.27a1.84,1.84,0,0,0-1.84,1.84V56.43a1.84,1.84,0,0,0,1.84,1.84H62.86a1.84,1.84,0,0,0,1.84-1.84V25.2a1.84,1.84,0,0,0-1.84-1.84ZM34.61,40.82,15.1,53.1V28.53ZM19.63,27H56.49L38.06,38.65ZM38.06,43,56.49,54.59H19.63Zm3.45-2.17L61,28.53V53.1Zm0,0"/><path class="cls-3" d="M35.31,60.1h-22a1.84,1.84,0,0,0-1.84,1.84V76.63a1.84,1.84,0,0,0,1.84,1.84h22a1.84,1.84,0,0,0,1.84-1.84V61.94a1.84,1.84,0,0,0-1.84-1.84ZM21,69.29,15.1,73.2V65.37Zm-1.64-5.51h9.91l-5,3.3Zm5,7.72,5,3.3H19.33Zm3.31-2.21,5.87-3.91V73.2Zm0,0"/><path class="cls-3" d="M62.86,60.1h-22A1.84,1.84,0,0,0,39,61.94V76.63a1.84,1.84,0,0,0,1.84,1.84h22a1.84,1.84,0,0,0,1.84-1.84V61.94a1.84,1.84,0,0,0-1.84-1.84ZM48.53,69.29,42.65,73.2V65.37Zm-1.64-5.51h9.91l-5,3.3Zm5,7.72,5,3.3H46.88Zm3.31-2.21L61,65.37V73.2Zm0,0"/><path class="cls-3" d="M86.73,23.37H68.37a1.84,1.84,0,0,0-1.84,1.84V87.65a1.84,1.84,0,0,0,1.84,1.84H86.73a1.84,1.84,0,0,0,1.84-1.84V25.2a1.84,1.84,0,0,0-1.84-1.84ZM75.64,56.43,70.2,74.9V38ZM70.82,27H84.28L77.55,49.92Zm6.73,35.9,6.73,22.88H70.82Zm1.91-6.51L84.9,38V74.9Zm0,0"/></svg>