<svg id="Layer_1" data-name="Layer 1" xmlns="http://www.w3.org/2000/svg" xmlns:xlink="http://www.w3.org/1999/xlink" viewBox="0 0 400 100"><defs><style>.cls-1{fill:none;}.cls-2{clip-path:url(#clip-path);}.cls-3,.cls-7{fill:#0aa5e3;}.cls-3,.cls-4,.cls-6{opacity:0.05;}.cls-4{fill:#0f9d58;}.cls-5{fill:#008ac1;}.cls-5,.cls-7{opacity:0.08;}.cls-6{fill:#32b475;}</style><clipPath id="clip-path"><rect class="cls-1" width="400" height="100"/></clipPath></defs><title>screening-bg</title><g class="cls-2"><path class="cls-3" d="M420.5,75.13s-79.55.5-106.94-13.94c-63.43-33.45-78.79-46.54-149.89-9.62C71.55,99.4-39,80.13-39,80.13V130H420V75"/><path class="cls-4" d="M374.61,108.74c-94.49,4.11-205.79-16.43-237.53-29.88C47.82,36.66,36.24,46.74,17.32,51.72S-28,67.66-28,67.66V109Z"/><path class="cls-5" d="M420.5,38.78C349.42,7.4,336,11.39,219,51.23,72.89,101-28,87.12-28,87.12V116H421Z"/><path class="cls-6" d="M-28,77.12S25,81,96.4,46c34.81-17.07,47.71-27.42,113.18,15.58S411,98.4,411,98.4V125H-28V78"/><path class="cls-7" d="M-1.15,92.4s130,10.6,256.27-24.75C356.87,39.18,420-16,420-16V142H-1Z"/></g></svg>