<svg id="Layer_1" data-name="Layer 1" xmlns="http://www.w3.org/2000/svg" xmlns:xlink="http://www.w3.org/1999/xlink" viewBox="0 0 395 160"><defs><style>.cls-1,.cls-13,.cls-21{fill:none;}.cls-12,.cls-2,.cls-20{fill:#fff;}.cls-2{stroke:#1e9b5a;stroke-miterlimit:10;}.cls-11,.cls-12,.cls-13,.cls-2,.cls-3{stroke-width:0.75px;}.cls-3{fill:#caedff;}.cls-11,.cls-12,.cls-13,.cls-20,.cls-21,.cls-3{stroke:#3273ad;stroke-linecap:round;stroke-linejoin:round;}.cls-4{fill:#eff5f8;}.cls-5{opacity:0.7;}.cls-6{fill:#cdebfc;}.cls-7{opacity:0.3;}.cls-8{fill:#0aa5e3;}.cls-9{fill:#32b475;}.cls-10{fill:#e3b462;}.cls-11{fill:#fad264;}.cls-14{fill:#1e9b5a;}.cls-15{clip-path:url(#clip-path);}.cls-16{clip-path:url(#clip-path-2);}.cls-17{clip-path:url(#clip-path-3);}.cls-18{clip-path:url(#clip-path-4);}.cls-19{fill:#3273ad;}.cls-20,.cls-21{stroke-width:0.5px;}</style><clipPath id="clip-path"><rect class="cls-1" x="188.48" y="58.18" width="22.55" height="22.55" rx="3.64" ry="3.64"/></clipPath><clipPath id="clip-path-2"><rect class="cls-1" x="216.48" y="58.25" width="22.55" height="22.55" rx="3.64" ry="3.64"/></clipPath><clipPath id="clip-path-3"><rect class="cls-1" x="268.48" y="58.25" width="22.55" height="22.55" rx="3.64" ry="3.64"/></clipPath><clipPath id="clip-path-4"><rect class="cls-1" x="298.48" y="58.56" width="22.55" height="22.55" rx="3.64" ry="3.64"/></clipPath></defs><title>you-are-late-icon</title><rect class="cls-2" x="201.99" y="29.19" width="22.79" height="13.27" rx="6.64" ry="6.64"/><rect class="cls-2" x="224.78" y="23.79" width="23.14" height="18.68"/><path class="cls-2" d="M249.92,20.15h2.35a4.35,4.35,0,0,1,4.35,4.35v18a0,0,0,0,1,0,0h-8.69a0,0,0,0,1,0,0V22.15A2,2,0,0,1,249.92,20.15Z"/><rect class="cls-2" x="256.61" y="31.89" width="23.49" height="10.57"/><line class="cls-2" x1="232.36" y1="23.79" x2="232.36" y2="42.46"/><line class="cls-2" x1="224.78" y1="35.83" x2="247.92" y2="35.83"/><line class="cls-2" x1="259.67" y1="39.53" x2="276.76" y2="39.53"/><line class="cls-2" x1="276.76" y1="33.89" x2="276.76" y2="39.53"/><rect class="cls-3" x="192.24" y="41.99" width="102.67" height="12.92"/><path class="cls-4" d="M87.07,54.28h27.41a2.06,2.06,0,1,0,0-4.12h-7a2.06,2.06,0,1,1,0-4.12h4.4a2.06,2.06,0,1,0,0-4.12H94.1a2.06,2.06,0,1,0,0,4.12h3a2.06,2.06,0,1,1,0,4.12h-10a2.06,2.06,0,1,0,0,4.12Z"/><path class="cls-4" d="M160.48,65.35h24a1.8,1.8,0,0,0,0-3.6H178.3a1.8,1.8,0,0,1,0-3.6h3.85a1.8,1.8,0,0,0,0-3.6H166.63a1.8,1.8,0,0,0,0,3.6h2.61a1.8,1.8,0,1,1,0,3.6h-8.75a1.8,1.8,0,0,0,0,3.6Z"/><g class="cls-5"><path class="cls-6" d="M65.14,34.58h0l7-.31a.81.81,0,0,0,.51-.07.84.84,0,0,0,.25-.6s0-.09,0-.11a6.06,6.06,0,0,1,.24-.69,4.58,4.58,0,0,1,.62-1.08,3.88,3.88,0,0,1,1.63-1.21A4.8,4.8,0,0,1,77,30.18a5.2,5.2,0,0,1,.58,0,.87.87,0,0,0,.47,0c.24-.09.33-.36.5-1,0-.1,0-.19.06-.23a12.51,12.51,0,0,1,.67-1.59,8.28,8.28,0,0,1,1.59-2.2,6.11,6.11,0,0,1,3.62-1.69A8.06,8.06,0,0,1,91.84,27a8.78,8.78,0,0,1,1.3,5.44.33.33,0,0,0,.66.07,9.46,9.46,0,0,0-1.41-5.86,8.62,8.62,0,0,0-8-3.83,6.76,6.76,0,0,0-4,1.87,8.92,8.92,0,0,0-1.72,2.37,13.12,13.12,0,0,0-.71,1.68c0,.06,0,.16-.08.29s-.09.36-.14.52l-.13,0a6.24,6.24,0,0,0-.65,0,5.48,5.48,0,0,0-1.79.36,4.55,4.55,0,0,0-1.91,1.42,5.22,5.22,0,0,0-.71,1.23,6.76,6.76,0,0,0-.26.77s0,.11,0,.19l0,.12h-.12l-7,.31a.33.33,0,0,0,0,.66Z"/></g><g class="cls-5"><path class="cls-6" d="M320.17,33.34h3a.24.24,0,0,0,.24-.25,2.18,2.18,0,0,1,.58-1.67,4.06,4.06,0,0,1,2.56-.93.27.27,0,0,0,.18-.08.24.24,0,0,0,.06-.19,5,5,0,0,1,1-3.45A4,4,0,0,1,331,25.52a3.68,3.68,0,0,1,2.76,1.05,5.12,5.12,0,0,1,1.15,3.34.24.24,0,0,0,.1.2.25.25,0,0,0,.22,0,3.4,3.4,0,0,1,2.87.13,4.72,4.72,0,0,1,1.86,2.85.24.24,0,0,0,.24.2H346a.24.24,0,1,0,0-.49h-5.65a5,5,0,0,0-2-3,3.72,3.72,0,0,0-3-.27,5.34,5.34,0,0,0-1.28-3.36A4.14,4.14,0,0,0,331,25a4.46,4.46,0,0,0-3.51,1.41A5.48,5.48,0,0,0,326.27,30a4.25,4.25,0,0,0-2.65,1.06,2.59,2.59,0,0,0-.72,1.77h-2.73a.24.24,0,1,0,0,.49Z"/></g><g class="cls-5"><path class="cls-6" d="M153.3,33.53H156a.22.22,0,0,0,.22-.23,2,2,0,0,1,.52-1.49A3.64,3.64,0,0,1,159,31a.24.24,0,0,0,.17-.07.22.22,0,0,0,.05-.17,4.51,4.51,0,0,1,.94-3.1A3.57,3.57,0,0,1,163,26.52a3.3,3.3,0,0,1,2.47.95,4.59,4.59,0,0,1,1,3,.22.22,0,0,0,.09.18.22.22,0,0,0,.2,0,3,3,0,0,1,2.57.12A4.23,4.23,0,0,1,171,33.35a.22.22,0,0,0,.21.18h5.23a.22.22,0,1,0,0-.44h-5.06a4.47,4.47,0,0,0-1.83-2.67,3.34,3.34,0,0,0-2.65-.24,4.78,4.78,0,0,0-1.15-3A3.71,3.71,0,0,0,163,26.09a4,4,0,0,0-3.14,1.26,4.91,4.91,0,0,0-1.06,3.2,3.81,3.81,0,0,0-2.37,1,2.32,2.32,0,0,0-.65,1.59H153.3a.22.22,0,0,0,0,.44Z"/></g><g class="cls-7"><path class="cls-8" d="M349.18,49.1a3.66,3.66,0,1,1,3.66-3.66A3.66,3.66,0,0,1,349.18,49.1Zm0-6.35a2.69,2.69,0,1,0,2.69,2.69A2.69,2.69,0,0,0,349.18,42.75Z"/><path class="cls-9" d="M154.18,61.84a3.66,3.66,0,1,1,3.66-3.66A3.66,3.66,0,0,1,154.18,61.84Zm0-6.35a2.69,2.69,0,1,0,2.69,2.69A2.69,2.69,0,0,0,154.18,55.49Z"/><path class="cls-9" d="M181.91,28.7A3.66,3.66,0,1,1,185.57,25,3.66,3.66,0,0,1,181.91,28.7Zm0-6.35A2.69,2.69,0,1,0,184.6,25,2.69,2.69,0,0,0,181.91,22.35Z"/><path class="cls-9" d="M360.93,73.36a2.2,2.2,0,1,1,2.2-2.2A2.21,2.21,0,0,1,360.93,73.36Zm0-3.44a1.23,1.23,0,1,0,1.23,1.23A1.23,1.23,0,0,0,360.93,69.92Z"/><path class="cls-9" d="M168.24,70.62a2.2,2.2,0,1,1,2.2-2.2A2.21,2.21,0,0,1,168.24,70.62Zm0-3.44a1.23,1.23,0,1,0,1.23,1.23A1.23,1.23,0,0,0,168.24,67.18Z"/><path class="cls-10" d="M311.94,26.12a1.3,1.3,0,1,1,1.3-1.3A1.3,1.3,0,0,1,311.94,26.12Zm0-2.19a.89.89,0,1,0,.89.89A.89.89,0,0,0,311.94,23.93Z"/><path class="cls-8" d="M359.3,89.48A3.66,3.66,0,1,0,363,93.14,3.66,3.66,0,0,0,359.3,89.48Zm0,6.35A2.69,2.69,0,1,1,362,93.14,2.69,2.69,0,0,1,359.3,95.83Z"/><path class="cls-10" d="M163.83,89.81a3.66,3.66,0,1,1,3.66-3.66A3.66,3.66,0,0,1,163.83,89.81Zm0-6.35a2.69,2.69,0,1,0,2.69,2.69A2.69,2.69,0,0,0,163.83,83.46Z"/><path class="cls-8" d="M268.48,16.24a3.4,3.4,0,1,1,3.4-3.4A3.4,3.4,0,0,1,268.48,16.24Zm0-5.82a2.43,2.43,0,1,0,2.43,2.43A2.43,2.43,0,0,0,268.48,10.42Z"/></g><path class="cls-3" d="M330.52,55.1c0-3.86-4.13-7-8-7H185.26a7,7,0,0,0-7,7V114a7,7,0,0,0,7,7h8.87v0a15.74,15.74,0,1,1,31.48,0v0h72.13v0a15.74,15.74,0,1,1,31.48,0v0h9.32a7,7,0,0,0,7-7V84.54Z"/><circle class="cls-11" cx="313.57" cy="120.53" r="11.16"/><circle class="cls-12" cx="313.57" cy="120.53" r="4.47"/><circle class="cls-11" cx="209.97" cy="120.53" r="11.16"/><circle class="cls-12" cx="209.97" cy="120.53" r="4.47"/><rect class="cls-12" x="296.65" y="58.56" width="26.35" height="22.55" rx="3.64" ry="3.64"/><rect class="cls-12" x="188.48" y="58.56" width="22.55" height="22.55" rx="3.64" ry="3.64"/><rect class="cls-12" x="215.97" y="58.56" width="22.55" height="22.55" rx="3.64" ry="3.64"/><rect class="cls-12" x="268.13" y="58.56" width="22.55" height="22.55" rx="3.64" ry="3.64"/><line class="cls-13" x1="181.91" y1="89.22" x2="214.43" y2="89.22"/><line class="cls-13" x1="178.26" y1="93.21" x2="345.52" y2="93.21"/><line class="cls-13" x1="178.26" y1="98.85" x2="345.52" y2="98.85"/><rect class="cls-12" x="242.4" y="58.56" width="22.2" height="53.57" rx="3.52" ry="3.52"/><path class="cls-13" d="M249,63.31h7.15a3.53,3.53,0,0,1,3.52,3.52v36.52"/><path class="cls-14" d="M91.2,94.47c-2.09.22-4.58-2.11-5.66-5.32s-.33-6,2-6,5.09,2.66,6,5.72S93.32,94.29,91.2,94.47Z"/><path class="cls-14" d="M88.89,101.72c-.17-1.45-1-1.7-1-1.7s-3.29-1.32-4.18-1.74a2.81,2.81,0,0,0-2,0l-6,3a1.09,1.09,0,0,1-1.43-.41h0a1.09,1.09,0,0,1,.28-1.44l5.28-3.93a4.18,4.18,0,0,1,2.54-.63l6.42.67,1.92.2.11,0,8.09-.46,0,0c.59-.12,4.85-.86,6.92-1.31l.42,0h0l.17,0a6.29,6.29,0,0,1,1.42,0,.94.94,0,0,1,.77.58c.2.69-1.36,1.34-1.36,1.34h0c-2,.89-5,2.27-5.57,2.49a6,6,0,0,1-1.48.42l-4.52,1a1.18,1.18,0,0,0-.53.39,1.37,1.37,0,0,0-.2,1.07l.06.24h0l.74,3.24c.58,1.73,1.8,1.8,1.8,1.8l3.63.48a4,4,0,0,1,2.5,1.63l2.87,4.61c.19.29,1,1.38,1.93.94s5-2.27,3.44,0c-.2.18-2.88,2.36-3.24,2.62l-.09.06-.6.52a1.51,1.51,0,0,1-1.21.5,2,2,0,0,1-.71-.39l-5-4.13a2.65,2.65,0,0,0-3.42-.38s-11,7.22-12.38,8.42a1.47,1.47,0,0,1-2.33-.07s-3.66-3.85-4.56-4.62-1.39.06-1.39.06l-1.55,2.85c-.53.71-.45-1.5-.45-1.5l.22-5.58c.12-1.75,1.11-.78,1.11-.78s6.47,3.61,7.24,3.87a1.31,1.31,0,0,0,1.13,0l.05,0s3.16-3,4-3.87a2.24,2.24,0,0,0,.82-1.66Z"/><path class="cls-3" d="M179.32,106.13h0a5,5,0,0,0-4.93,4.93h0a5,5,0,0,0,4.93,4.93h0"/><path class="cls-12" d="M338.67,81.11h-7.53a3.64,3.64,0,0,1-3.64-3.64V58.56Z"/><line class="cls-13" x1="316.94" y1="76.56" x2="316.94" y2="81.11"/><line class="cls-13" x1="319.8" y1="74.99" x2="313.44" y2="77.8"/><g class="cls-15"><path class="cls-14" d="M191.31,89.65a2.16,2.16,0,0,0,2.14,2.44l8.77.3a.56.56,0,0,1,.54.63l-.83,9.24a.66.66,0,0,0,.52.71l4.92.36a.39.39,0,0,0,.34-.66l-3-1.05a.56.56,0,0,1-.15-.55l2.3-9.85a2.15,2.15,0,0,0-1.75-2.69l-6.57-.84-.65-6.06a.11.11,0,0,1,.2-.06l2.41,3.15a.87.87,0,0,0,1,.3l6.43-2.29a.8.8,0,0,0,.44-1.13h0a.8.8,0,0,0-.77-.42l-4.92.41a.46.46,0,0,1-.5-.24l-2.71-4.56A3.43,3.43,0,0,0,197,75.08c-.88-.15-1.73-.27-1.73-.27a2.58,2.58,0,0,0-2.66,2.14Z"/><ellipse class="cls-14" cx="196.64" cy="69.13" rx="2.78" ry="4.31" transform="translate(-3.85 12.13) rotate(-3.5)"/></g><g class="cls-16"><path class="cls-14" d="M219.31,89.71a2.16,2.16,0,0,0,2.14,2.44l8.77.3a.56.56,0,0,1,.54.63l-.83,9.24a.66.66,0,0,0,.52.71l4.92.36a.39.39,0,0,0,.34-.66l-3-1.05a.56.56,0,0,1-.15-.55l2.3-9.85a2.15,2.15,0,0,0-1.75-2.69l-6.57-.84-.65-6.06a.11.11,0,0,1,.2-.06l2.41,3.15a.87.87,0,0,0,1,.3l6.43-2.29a.8.8,0,0,0,.44-1.13h0a.8.8,0,0,0-.77-.42l-4.92.41a.46.46,0,0,1-.5-.24l-2.71-4.56A3.43,3.43,0,0,0,225,75.14c-.88-.15-1.73-.27-1.73-.27A2.58,2.58,0,0,0,220.59,77Z"/><ellipse class="cls-14" cx="224.64" cy="69.19" rx="2.78" ry="4.31" transform="translate(-3.8 13.84) rotate(-3.5)"/></g><g class="cls-17"><path class="cls-14" d="M271.31,89.71a2.16,2.16,0,0,0,2.14,2.44l8.77.3a.56.56,0,0,1,.54.63l-.83,9.24a.66.66,0,0,0,.52.71l4.92.36a.39.39,0,0,0,.34-.66l-3-1.05a.56.56,0,0,1-.15-.55l2.3-9.85a2.15,2.15,0,0,0-1.75-2.69l-6.57-.84-.65-6.06a.11.11,0,0,1,.2-.06l2.41,3.15a.87.87,0,0,0,1,.3l6.43-2.29a.8.8,0,0,0,.44-1.13h0a.8.8,0,0,0-.77-.42l-4.92.41a.46.46,0,0,1-.5-.24l-2.71-4.56A3.43,3.43,0,0,0,277,75.14c-.88-.15-1.73-.27-1.73-.27A2.58,2.58,0,0,0,272.59,77Z"/><ellipse class="cls-14" cx="276.64" cy="69.19" rx="2.78" ry="4.31" transform="translate(-3.71 17.01) rotate(-3.5)"/></g><g class="cls-18"><path class="cls-19" d="M300.31,84.66a1.9,1.9,0,0,0,1.88,2.14l7.72.26a.49.49,0,0,1,.48.55l-.73,8.14a.58.58,0,0,0,.46.63l4.33.31a.34.34,0,0,0,.3-.58l-2.67-.93a.49.49,0,0,1-.14-.49L314,86a1.9,1.9,0,0,0-1.54-2.37l-5.79-.74-.57-5.33a.1.1,0,0,1,.17-.06l2.12,2.77a.77.77,0,0,0,.86.27l5.66-2a.7.7,0,0,0,.39-1h0a.7.7,0,0,0-.68-.37l-4.33.36a.41.41,0,0,1-.44-.21l-2.39-4a3,3,0,0,0-2.12-1.49c-.78-.13-1.53-.24-1.53-.24a2.27,2.27,0,0,0-2.34,1.88Z"/><ellipse class="cls-19" cx="305" cy="66.59" rx="2.44" ry="3.79" transform="translate(-3.5 18.73) rotate(-3.5)"/></g><path class="cls-20" d="M155.21,118.16a3.46,3.46,0,0,1-6.92.19l-.16,0a3.81,3.81,0,0,1-1.76-7.19,2.16,2.16,0,0,1,3.39-2.64,3.91,3.91,0,0,1,2.22-.69,4,4,0,0,1,4,4"/><line class="cls-20" x1="170.13" y1="117.93" x2="151.97" y2="117.93"/><line class="cls-20" x1="151.97" y1="112.17" x2="167.13" y2="112.17"/><line class="cls-21" x1="149.63" y1="114.73" x2="155.66" y2="114.73"/><line class="cls-21" x1="158.07" y1="114.73" x2="160.71" y2="114.73"/><line class="cls-21" x1="43.5" y1="115.97" x2="54.5" y2="115.97"/><line class="cls-21" x1="51.5" y1="110.68" x2="64.5" y2="110.68"/><line class="cls-21" x1="42.5" y1="110.68" x2="38.67" y2="110.68"/><line class="cls-21" x1="31.67" y1="121.07" x2="58" y2="121.07"/><line class="cls-21" x1="25.33" y1="121.07" x2="27.83" y2="121.07"/><line class="cls-13" x1="39.39" y1="134.55" x2="357.57" y2="134.55"/><line class="cls-13" x1="27.48" y1="134.55" x2="34.67" y2="134.55"/><line class="cls-13" x1="362.48" y1="134.55" x2="369.67" y2="134.55"/></svg>