<svg width="512" height="512" viewBox="0 0 512 512" fill="none" xmlns="http://www.w3.org/2000/svg">
<g clip-path="url(#clip0_4_26)">
<path d="M456.801 256C456.801 366.341 367.352 455.79 257.011 455.79C146.67 455.79 57.2209 366.341 57.2209 256C57.2209 145.659 146.67 56.2097 257.011 56.2097C367.352 56.2097 456.801 145.659 456.801 256Z" fill="#E5E7EB"/>
<g filter="url(#filter0_d_4_26)">
<path d="M344.122 114.659C347.497 108.813 354.972 106.81 360.817 110.185L459.35 167.073L468.907 202.943L478.304 236.989L385.724 397.341C382.349 403.187 374.875 405.19 369.029 401.815L236.591 325.351C230.745 321.976 228.742 314.502 232.117 308.656L344.122 114.659Z" fill="url(#paint0_linear_4_26)"/>
<path d="M459.705 167.68L468.745 202.418L478.285 237.023L444.379 217.447C438.825 214.241 436.923 207.14 440.129 201.586L459.705 167.68Z" fill="url(#paint1_linear_4_26)"/>
</g>
<path d="M316.78 292.308C318.05 290.109 320.863 289.355 323.062 290.625L355.867 309.565C358.067 310.835 358.82 313.647 357.551 315.847V315.847C356.281 318.046 353.468 318.8 351.269 317.53L318.464 298.59C316.264 297.32 315.511 294.508 316.78 292.308V292.308Z" fill="#E9EBEE"/>
<path d="M278.978 283.175C279.528 282.223 280.745 281.897 281.697 282.446L383.632 341.299C384.584 341.848 384.91 343.065 384.361 344.017V344.017C383.811 344.969 382.594 345.295 381.642 344.746L279.707 285.893C278.755 285.344 278.429 284.127 278.978 283.175V283.175Z" fill="#E9EBEE"/>
<path d="M278.187 292.397C278.737 291.445 279.954 291.119 280.906 291.669L376.041 346.596C376.993 347.145 377.319 348.362 376.77 349.314V349.314C376.22 350.266 375.003 350.592 374.051 350.043L278.915 295.116C277.964 294.566 277.637 293.349 278.187 292.397V292.397Z" fill="#E9EBEE"/>
<path d="M298.491 313.8C299.041 312.848 300.258 312.522 301.21 313.072L347.353 339.713C348.305 340.262 348.631 341.479 348.082 342.431V342.431C347.532 343.383 346.315 343.709 345.363 343.16L299.22 316.519C298.268 315.969 297.942 314.752 298.491 313.8V313.8Z" fill="#E9EBEE"/>
<path d="M377.41 269.945L377.309 270.139C376.647 271.287 375.387 271.679 374.375 271.993C373.966 272.121 373.345 272.314 373.187 272.474C373.005 272.654 372.81 273.269 372.668 273.716L372.574 274.014C372.274 274.942 371.853 275.999 370.843 276.575C369.708 277.22 368.427 276.935 367.398 276.707C366.94 276.604 366.314 276.466 366.085 276.528C365.856 276.589 365.382 277.015 365.039 277.323C364.265 278.027 363.306 278.889 361.988 278.893C361.417 278.885 360.859 278.723 360.37 278.426C359.856 278.106 359.377 277.732 358.942 277.312C358.652 277.036 358.339 276.785 358.005 276.564C357.957 276.534 357.905 276.51 357.85 276.493C357.634 276.435 356.999 276.571 356.575 276.659C355.537 276.879 354.247 277.156 353.086 276.486C351.926 275.816 351.521 274.56 351.192 273.552C351.061 273.142 350.86 272.525 350.698 272.364C350.66 272.329 350.619 272.299 350.574 272.273C350.215 272.098 349.841 271.955 349.457 271.845C348.875 271.679 348.313 271.451 347.778 271.165C347.276 270.891 346.857 270.488 346.565 269.998C345.904 268.863 346.177 267.593 346.399 266.571C346.496 266.116 346.63 265.496 346.564 265.267C346.499 265.037 346.068 264.562 345.753 264.22C345.041 263.443 344.154 262.475 344.145 261.17C344.136 259.866 345.008 258.928 345.708 258.161C346.024 257.813 346.46 257.337 346.524 257.09C346.582 256.876 346.438 256.242 346.346 255.821C346.113 254.787 345.822 253.5 346.485 252.352L346.594 252.163L346.639 252.086C346.654 252.06 346.678 252.018 346.71 251.992C346.741 251.966 346.758 251.933 346.784 251.904L346.838 251.844L346.927 251.746C347.621 251.046 348.591 250.743 349.403 250.49C349.812 250.361 350.433 250.169 350.591 250.01C350.772 249.83 350.967 249.215 351.11 248.768C351.422 247.781 351.816 246.548 352.935 245.909C354.054 245.27 355.351 245.549 356.38 245.777C356.838 245.878 357.463 246.018 357.692 245.956C357.921 245.895 358.397 245.467 358.739 245.161C359.513 244.457 360.477 243.584 361.79 243.591C362.36 243.599 362.919 243.761 363.407 244.058C363.922 244.378 364.4 244.752 364.836 245.172C365.123 245.449 365.434 245.701 365.765 245.925C365.813 245.955 365.866 245.978 365.92 245.994C366.136 246.053 366.771 245.918 367.195 245.83C368.234 245.608 369.523 245.333 370.684 246.003C371.844 246.673 372.25 247.927 372.578 248.937C372.709 249.347 372.91 249.964 373.073 250.123C373.114 250.163 373.16 250.196 373.21 250.224C373.57 250.398 373.943 250.541 374.327 250.652C374.909 250.819 375.472 251.047 376.006 251.332C376.508 251.606 376.927 252.009 377.219 252.499C377.881 253.632 377.607 254.904 377.385 255.926C377.289 256.379 377.154 257.001 377.22 257.23C377.285 257.46 377.717 257.935 378.031 258.277C378.743 259.055 379.622 260.017 379.639 261.327C379.657 262.636 378.776 263.57 378.076 264.337C377.76 264.684 377.325 265.16 377.26 265.407C377.203 265.62 377.347 266.253 377.438 266.676C377.624 267.505 377.847 268.497 377.588 269.448C377.575 269.49 377.562 269.534 377.548 269.575C377.534 269.616 377.532 269.626 377.523 269.651C377.513 269.676 377.498 269.723 377.484 269.759C377.47 269.796 377.453 269.833 377.438 269.868C377.422 269.903 377.416 269.914 377.41 269.945V269.945ZM342.97 270.172L336.89 280.704L349.061 283.475L357.546 292.63L363.627 282.098L351.456 279.326L342.97 270.172ZM349.811 210.256C349.382 210.999 349.269 211.883 349.497 212.714C349.725 213.546 350.275 214.257 351.026 214.69L407.648 247.381C408.399 247.814 409.289 247.935 410.123 247.717C410.957 247.498 411.667 246.958 412.095 246.216C412.524 245.473 412.637 244.589 412.409 243.757C412.181 242.926 411.631 242.215 410.88 241.782L354.258 209.091C353.508 208.657 352.617 208.537 351.783 208.755C350.949 208.974 350.24 209.514 349.811 210.256ZM432.006 221.536L361.229 180.673C358.6 179.159 355.485 178.738 352.566 179.502C349.648 180.267 347.165 182.154 345.663 184.75L319.397 230.244C317.9 232.843 317.507 235.937 318.304 238.847C319.101 241.756 321.023 244.243 323.649 245.763L342.978 256.923C343.176 256.687 343.366 256.475 343.536 256.288C343.249 255.007 342.835 252.946 344.008 250.913C344.134 250.698 344.273 250.49 344.425 250.293L326.881 240.164C325.755 239.514 324.931 238.448 324.589 237.2C324.247 235.953 324.416 234.626 325.059 233.513L351.325 188.02C351.968 186.906 353.032 186.096 354.283 185.768C355.534 185.44 356.87 185.622 357.996 186.272L428.773 227.135C429.9 227.786 430.724 228.852 431.066 230.099C431.408 231.346 431.239 232.673 430.596 233.787L404.33 279.28C403.687 280.393 402.623 281.203 401.372 281.531C400.121 281.859 398.785 281.677 397.659 281.027L380.115 270.898C380.02 271.129 379.91 271.353 379.786 271.569C378.613 273.603 376.621 274.273 375.368 274.666L375.097 275.467L394.426 286.626C397.055 288.14 400.17 288.561 403.089 287.797C406.007 287.032 408.49 285.145 409.992 282.549L436.258 237.056C437.755 234.456 438.148 231.362 437.351 228.453C436.554 225.543 434.632 223.056 432.006 221.536V221.536ZM357.351 232.34L389.2 250.728C389.951 251.162 390.842 251.282 391.676 251.064C392.51 250.845 393.219 250.306 393.648 249.563C394.077 248.821 394.189 247.936 393.962 247.105C393.734 246.273 393.184 245.563 392.433 245.129L360.583 226.74C359.832 226.307 358.942 226.186 358.108 226.405C357.274 226.623 356.564 227.163 356.136 227.906C355.707 228.648 355.594 229.532 355.822 230.364C356.05 231.195 356.6 231.906 357.351 232.34V232.34ZM406.631 232.796C407.382 233.23 408.273 233.35 409.107 233.132C409.941 232.913 410.65 232.374 411.079 231.631C411.507 230.889 411.62 230.004 411.392 229.173C411.165 228.341 410.615 227.63 409.864 227.197L367.397 202.679C366.647 202.245 365.756 202.125 364.922 202.343C364.088 202.562 363.379 203.101 362.95 203.844C362.521 204.586 362.408 205.471 362.636 206.302C362.864 207.134 363.414 207.845 364.165 208.278L406.631 232.796Z" fill="#D1D5DB"/>
<path d="M349.811 210.256C349.382 210.999 349.269 211.883 349.497 212.714C349.725 213.546 350.275 214.257 351.026 214.69L407.648 247.381C408.399 247.814 409.289 247.935 410.123 247.717C410.957 247.498 411.667 246.958 412.095 246.216C412.524 245.473 412.637 244.589 412.409 243.757C412.181 242.926 411.631 242.215 410.88 241.782L354.258 209.091C353.508 208.657 352.617 208.537 351.783 208.755C350.949 208.974 350.24 209.514 349.811 210.256ZM432.006 221.536L361.229 180.673C358.6 179.159 355.485 178.738 352.566 179.502C349.648 180.267 347.165 182.154 345.663 184.75L319.397 230.244C317.9 232.843 317.507 235.937 318.304 238.847C319.101 241.756 321.023 244.243 323.649 245.763L342.978 256.923C343.176 256.687 343.366 256.475 343.536 256.288C343.249 255.007 342.835 252.946 344.008 250.913C344.134 250.698 344.273 250.49 344.425 250.293L326.881 240.164C325.755 239.514 324.931 238.448 324.589 237.2C324.247 235.953 324.416 234.626 325.059 233.513L351.325 188.02C351.968 186.906 353.032 186.096 354.283 185.768C355.534 185.44 356.87 185.622 357.996 186.272L428.773 227.135C429.9 227.786 430.724 228.852 431.066 230.099C431.408 231.346 431.239 232.673 430.596 233.787L404.33 279.28C403.687 280.393 402.623 281.203 401.372 281.531C400.121 281.859 398.785 281.677 397.659 281.027L380.115 270.898C380.02 271.129 379.91 271.353 379.786 271.569C378.613 273.603 376.621 274.273 375.368 274.666L375.097 275.467L394.426 286.626C397.055 288.14 400.17 288.561 403.089 287.797C406.007 287.032 408.49 285.145 409.992 282.549L436.258 237.056C437.755 234.456 438.148 231.362 437.351 228.453C436.554 225.543 434.632 223.056 432.006 221.536ZM357.351 232.34L389.2 250.728C389.951 251.162 390.842 251.282 391.676 251.064C392.51 250.845 393.219 250.306 393.648 249.563C394.077 248.821 394.189 247.936 393.962 247.105C393.734 246.273 393.184 245.563 392.433 245.129L360.583 226.74C359.832 226.307 358.942 226.186 358.108 226.405C357.274 226.623 356.564 227.163 356.136 227.906C355.707 228.648 355.594 229.532 355.822 230.364C356.05 231.195 356.6 231.906 357.351 232.34ZM406.631 232.796C407.382 233.23 408.273 233.35 409.107 233.132C409.941 232.913 410.65 232.374 411.079 231.631C411.507 230.889 411.62 230.004 411.392 229.173C411.165 228.341 410.615 227.63 409.864 227.197L367.397 202.679C366.647 202.245 365.756 202.125 364.922 202.343C364.088 202.562 363.379 203.101 362.95 203.844C362.521 204.586 362.408 205.471 362.636 206.302C362.864 207.134 363.414 207.845 364.165 208.278L406.631 232.796Z" fill="#E5E7EB"/>
<g filter="url(#filter1_d_4_26)">
<path d="M36.0453 203.344C32.6703 197.498 34.6732 190.024 40.5189 186.649L139.052 129.76L174.894 139.419L209.078 148.304L301.657 308.656C305.032 314.502 303.029 321.977 297.183 325.352L164.745 401.815C158.9 405.19 151.425 403.187 148.05 397.341L36.0453 203.344Z" fill="url(#paint2_linear_4_26)"/>
<path d="M139.754 129.758L174.359 139.298L209.097 148.338L175.191 167.914C169.638 171.12 162.536 169.218 159.33 163.664L139.754 129.758Z" fill="url(#paint3_linear_4_26)"/>
</g>
<path d="M74.7934 217.43C73.5235 215.231 74.2771 212.418 76.4766 211.149L128.89 180.887C131.09 179.618 133.902 180.371 135.172 182.571C136.442 184.77 135.688 187.582 133.489 188.852L81.075 219.113C78.8756 220.383 76.0632 219.63 74.7934 217.43Z" fill="#E9EBEE"/>
<path d="M91.8166 225.06C91.2671 224.109 91.5932 222.891 92.5451 222.342L167.247 179.213C168.199 178.663 169.416 178.989 169.965 179.941C170.515 180.893 170.189 182.11 169.237 182.66L94.5353 225.789C93.5834 226.339 92.3662 226.012 91.8166 225.06Z" fill="#E9EBEE"/>
<path d="M96.7051 233.528C96.1555 232.576 96.4816 231.359 97.4335 230.809L172.135 187.68C173.087 187.13 174.304 187.457 174.854 188.409C175.403 189.36 175.077 190.578 174.125 191.127L99.4237 234.256C98.4718 234.806 97.2546 234.48 96.7051 233.528Z" fill="#E9EBEE"/>
<path d="M101.594 241.996C101.044 241.044 101.37 239.826 102.322 239.277L177.024 196.148C177.976 195.598 179.193 195.924 179.743 196.876C180.292 197.828 179.966 199.045 179.014 199.595L104.312 242.724C103.36 243.274 102.143 242.947 101.594 241.996Z" fill="#D1D5DB"/>
<path d="M106.482 250.462C105.933 249.51 106.259 248.293 107.211 247.744L181.913 204.615C182.864 204.065 184.082 204.391 184.631 205.343C185.181 206.295 184.855 207.512 183.903 208.062L109.201 251.191C108.249 251.74 107.032 251.414 106.482 250.462Z" fill="#E9EBEE"/>
<circle cx="85.9144" cy="228.468" r="2.27361" transform="rotate(-30 85.9144 228.468)" stroke="#E9EBEE" stroke-width="3"/>
<circle cx="90.8028" cy="236.936" r="2.27361" transform="rotate(-30 90.8028 236.936)" stroke="#E9EBEE" stroke-width="3"/>
<circle cx="100.58" cy="253.87" r="2.27361" transform="rotate(-30 100.58 253.87)" stroke="#E9EBEE" stroke-width="3"/>
<path d="M97.5105 242.096L96.4354 246.119C96.4073 246.223 96.3393 246.311 96.2463 246.364V246.364C96.2004 246.391 96.1496 246.408 96.0969 246.416C96.0442 246.423 95.9907 246.419 95.9393 246.405L94.5033 246.021C94.4005 245.992 94.3132 245.924 94.2602 245.832C94.2072 245.739 94.193 245.629 94.2206 245.526C94.2482 245.423 94.3154 245.335 94.4076 245.282C94.4997 245.228 94.6094 245.213 94.7126 245.24L95.7586 245.52L96.7575 241.783C96.2672 241.638 95.7525 241.594 95.2447 241.655C94.737 241.715 94.2469 241.879 93.8044 242.135C91.9997 243.177 91.3812 245.485 92.4232 247.29C93.4651 249.094 95.7733 249.713 97.578 248.671C99.3828 247.629 100.001 245.321 98.9593 243.516C98.6158 242.919 98.1146 242.428 97.5105 242.096Z" fill="#9CA3AF"/>
<path d="M107.495 274.07C106.225 271.871 106.978 269.058 109.178 267.789L161.591 237.528C163.791 236.258 166.603 237.011 167.873 239.211C169.143 241.41 168.389 244.223 166.19 245.492L113.776 275.753C111.577 277.023 108.764 276.27 107.495 274.07Z" fill="#E9EBEE"/>
<path d="M124.518 281.701C123.968 280.749 124.294 279.532 125.246 278.982L199.948 235.853C200.9 235.304 202.117 235.63 202.667 236.582C203.216 237.534 202.89 238.751 201.938 239.3L127.236 282.429C126.285 282.979 125.067 282.653 124.518 281.701Z" fill="#E9EBEE"/>
<path d="M129.406 290.168C128.857 289.216 129.183 287.999 130.135 287.449L204.837 244.32C205.789 243.771 207.006 244.097 207.555 245.049C208.105 246.001 207.779 247.218 206.827 247.768L132.125 290.897C131.173 291.446 129.956 291.12 129.406 290.168Z" fill="#E9EBEE"/>
<path d="M134.295 298.635C133.746 297.683 134.072 296.466 135.024 295.917L209.725 252.787C210.677 252.238 211.894 252.564 212.444 253.516C212.994 254.468 212.667 255.685 211.715 256.235L137.014 299.364C136.062 299.913 134.845 299.587 134.295 298.635Z" fill="#D1D5DB"/>
<path d="M139.184 307.103C138.634 306.151 138.96 304.934 139.912 304.384L214.614 261.255C215.566 260.705 216.783 261.032 217.333 261.983C217.882 262.935 217.556 264.153 216.604 264.702L141.902 307.831C140.951 308.381 139.733 308.055 139.184 307.103Z" fill="#E9EBEE"/>
<circle cx="118.616" cy="285.109" r="2.27361" transform="rotate(-30 118.616 285.109)" stroke="#E9EBEE" stroke-width="3"/>
<circle cx="123.504" cy="293.576" r="2.27361" transform="rotate(-30 123.504 293.576)" stroke="#E9EBEE" stroke-width="3"/>
<circle cx="133.281" cy="310.51" r="2.27361" transform="rotate(-30 133.281 310.51)" stroke="#E9EBEE" stroke-width="3"/>
<path d="M130.212 298.736L129.137 302.759C129.109 302.863 129.041 302.951 128.948 303.005V303.005C128.902 303.031 128.851 303.049 128.798 303.056C128.746 303.063 128.692 303.059 128.641 303.046L127.205 302.661C127.102 302.632 127.015 302.564 126.962 302.472C126.909 302.379 126.894 302.27 126.922 302.167C126.95 302.064 127.017 301.976 127.109 301.922C127.201 301.868 127.311 301.853 127.414 301.88L128.46 302.16L129.459 298.423C128.969 298.278 128.454 298.235 127.946 298.295C127.438 298.356 126.948 298.519 126.506 298.775C124.701 299.817 124.083 302.125 125.125 303.93C126.167 305.735 128.475 306.353 130.279 305.311C132.084 304.269 132.703 301.961 131.661 300.156C131.317 299.559 130.816 299.068 130.212 298.736Z" fill="#9CA3AF"/>
<path d="M140.195 330.71C138.926 328.511 139.679 325.699 141.879 324.429L194.292 294.168C196.492 292.898 199.304 293.651 200.574 295.851C201.844 298.05 201.09 300.863 198.891 302.133L146.477 332.394C144.278 333.663 141.465 332.91 140.195 330.71Z" fill="#E9EBEE"/>
<path d="M157.219 338.341C156.67 337.389 156.996 336.172 157.948 335.622L232.649 292.493C233.601 291.944 234.818 292.27 235.368 293.222C235.918 294.174 235.591 295.391 234.64 295.94L159.938 339.069C158.986 339.619 157.769 339.293 157.219 338.341Z" fill="#E9EBEE"/>
<path d="M162.108 346.808C161.558 345.856 161.884 344.639 162.836 344.089L237.538 300.96C238.49 300.411 239.707 300.737 240.256 301.689C240.806 302.641 240.48 303.858 239.528 304.407L164.826 347.536C163.874 348.086 162.657 347.76 162.108 346.808Z" fill="#E9EBEE"/>
<path d="M166.996 355.275C166.446 354.323 166.773 353.106 167.725 352.557L242.426 309.428C243.378 308.878 244.595 309.204 245.145 310.156C245.694 311.108 245.368 312.325 244.416 312.875L169.715 356.004C168.763 356.553 167.546 356.227 166.996 355.275Z" fill="#D1D5DB"/>
<path d="M171.885 363.743C171.335 362.791 171.661 361.574 172.613 361.024L247.315 317.895C248.267 317.346 249.484 317.672 250.034 318.624C250.583 319.576 250.257 320.793 249.305 321.342L174.603 364.471C173.652 365.021 172.434 364.695 171.885 363.743Z" fill="#E9EBEE"/>
<circle cx="151.317" cy="341.749" r="2.27361" transform="rotate(-30 151.317 341.749)" stroke="#E9EBEE" stroke-width="3"/>
<circle cx="156.205" cy="350.216" r="2.27361" transform="rotate(-30 156.205 350.216)" stroke="#E9EBEE" stroke-width="3"/>
<circle cx="165.983" cy="367.151" r="2.27361" transform="rotate(-30 165.983 367.151)" stroke="#E9EBEE" stroke-width="3"/>
<path d="M162.913 355.377L161.838 359.4C161.81 359.503 161.742 359.591 161.649 359.645V359.645C161.603 359.672 161.552 359.689 161.5 359.696C161.447 359.703 161.394 359.7 161.342 359.686L159.906 359.301C159.803 359.273 159.716 359.205 159.663 359.112C159.61 359.02 159.596 358.91 159.623 358.807C159.651 358.704 159.718 358.616 159.81 358.562C159.903 358.509 160.012 358.493 160.115 358.52L161.161 358.8L162.16 355.064C161.67 354.919 161.155 354.875 160.648 354.935C160.14 354.996 159.65 355.159 159.207 355.415C157.403 356.457 156.784 358.766 157.826 360.57C158.868 362.375 161.176 362.993 162.981 361.952C164.786 360.91 165.404 358.601 164.362 356.797C164.019 356.199 163.517 355.708 162.913 355.377Z" fill="#9CA3AF"/>
<g filter="url(#filter2_d_4_26)">
<path d="M175.057 126.253C175.057 119.503 180.529 114.031 187.279 114.031H301.056L327.266 140.317L352.428 165.103V350.262C352.428 357.012 346.956 362.484 340.206 362.484H187.279C180.529 362.484 175.057 357.012 175.057 350.262V126.253Z" fill="url(#paint4_linear_4_26)"/>
<path d="M301.665 114.38L326.864 139.944L352.428 165.142H313.276C306.864 165.142 301.665 159.944 301.665 153.531V114.38Z" fill="url(#paint5_linear_4_26)"/>
</g>
<path d="M201.571 257.122C201.571 254.582 203.63 252.523 206.17 252.523H244.05C246.59 252.523 248.649 254.582 248.649 257.122V257.122C248.649 259.662 246.59 261.72 244.05 261.72H206.17C203.63 261.72 201.571 259.662 201.571 257.122V257.122Z" fill="#E9EBEE"/>
<path d="M201.571 157.826C201.571 155.286 203.63 153.227 206.17 153.227H266.692C269.232 153.227 271.29 155.286 271.29 157.826C271.29 160.365 269.232 162.424 266.692 162.424H206.17C203.63 162.424 201.571 160.365 201.571 157.826Z" fill="#E9EBEE"/>
<path d="M201.571 270.757C201.571 269.658 202.462 268.767 203.561 268.767H321.266C322.366 268.767 323.257 269.658 323.257 270.757V270.757C323.257 271.856 322.365 272.747 321.266 272.747H203.561C202.462 272.747 201.571 271.856 201.571 270.757V270.757Z" fill="#E9EBEE"/>
<path d="M201.571 278.971C201.571 277.872 202.462 276.981 203.561 276.981H321.266C322.366 276.981 323.257 277.872 323.257 278.971V278.971C323.257 280.07 322.365 280.961 321.266 280.961H203.561C202.462 280.961 201.571 280.07 201.571 278.971V278.971Z" fill="#E9EBEE"/>
<path d="M201.571 287.184C201.571 286.085 202.462 285.194 203.561 285.194H313.415C314.514 285.194 315.405 286.085 315.405 287.184V287.184C315.405 288.283 314.514 289.174 313.415 289.174H203.561C202.462 289.174 201.571 288.283 201.571 287.184V287.184Z" fill="#E9EBEE"/>
<path d="M201.571 311.822C201.571 310.723 202.462 309.832 203.561 309.832H313.415C314.514 309.832 315.405 310.723 315.405 311.822V311.822C315.405 312.922 314.514 313.813 313.415 313.813H203.561C202.462 313.813 201.571 312.922 201.571 311.822V311.822Z" fill="#E9EBEE"/>
<path d="M201.571 295.397C201.571 294.298 202.462 293.407 203.561 293.407H256.843C257.942 293.407 258.833 294.298 258.833 295.397V295.397C258.833 296.496 257.942 297.387 256.843 297.387H203.561C202.462 297.387 201.571 296.496 201.571 295.397V295.397Z" fill="#E9EBEE"/>
<path d="M201.571 320.036C201.571 318.937 202.462 318.046 203.561 318.046H256.843C257.942 318.046 258.833 318.937 258.833 320.036V320.036C258.833 321.135 257.942 322.026 256.843 322.026H203.561C202.462 322.026 201.571 321.135 201.571 320.036V320.036Z" fill="#E9EBEE"/>
<rect x="201.571" y="174.87" width="124.343" height="63.3879" rx="12" fill="#E9EBEE"/>
<path d="M301.283 238.257H209.119C204.95 238.257 201.571 234.878 201.571 230.71V218.04L226.743 192.868C228.708 190.904 231.894 190.904 233.859 192.868L256.473 215.483L264.125 207.831C266.09 205.867 269.276 205.867 271.241 207.831L300.296 236.887C300.719 237.309 301.045 237.772 301.283 238.257Z" fill="#F3F4F6"/>
<circle cx="305.164" cy="192.76" r="9.64639" fill="#D1D5DB"/>
<g filter="url(#filter3_d_4_26)">
<circle cx="263.278" cy="362.89" r="38.6419" fill="#9CA3AF"/>
</g>
<path fill-rule="evenodd" clip-rule="evenodd" d="M275.516 344.534H251.041C250.365 344.534 249.817 345.082 249.817 345.758V380.023C249.817 380.699 250.365 381.247 251.041 381.247H275.516C276.192 381.247 276.74 380.699 276.74 380.023V345.758C276.74 345.082 276.192 344.534 275.516 344.534ZM251.041 340.863C248.338 340.863 246.146 343.054 246.146 345.758V380.023C246.146 382.726 248.338 384.918 251.041 384.918H275.516C278.219 384.918 280.411 382.726 280.411 380.023V345.758C280.411 343.054 278.219 340.863 275.516 340.863H251.041Z" fill="white"/>
<path fill-rule="evenodd" clip-rule="evenodd" d="M263.327 352.236C264.341 352.236 265.162 353.058 265.162 354.072L265.162 362.638C265.162 363.652 264.341 364.474 263.327 364.474C262.313 364.474 261.491 363.652 261.491 362.638L261.491 354.072C261.491 353.058 262.313 352.236 263.327 352.236Z" fill="white"/>
<path fill-rule="evenodd" clip-rule="evenodd" d="M269.397 358.35C269.397 359.364 268.575 360.186 267.562 360.186L258.995 360.186C257.982 360.186 257.16 359.364 257.16 358.35C257.16 357.337 257.982 356.515 258.995 356.515L267.562 356.515C268.575 356.515 269.397 357.337 269.397 358.35Z" fill="white"/>
<path fill-rule="evenodd" clip-rule="evenodd" d="M274.292 376.351H252.265C250.913 376.351 249.817 377.447 249.817 378.799C249.817 380.151 250.913 381.246 252.265 381.246H274.292C275.644 381.246 276.74 380.151 276.74 378.799C276.74 377.447 275.644 376.351 274.292 376.351ZM252.265 372.68C248.885 372.68 246.146 375.42 246.146 378.799C246.146 382.178 248.885 384.918 252.265 384.918H274.292C277.672 384.918 280.411 382.178 280.411 378.799C280.411 375.42 277.672 372.68 274.292 372.68H252.265Z" fill="white"/>
</g>
<defs>
<filter id="filter0_d_4_26" x="185.478" y="67.5454" width="337.826" height="384.909" filterUnits="userSpaceOnUse" color-interpolation-filters="sRGB">
<feFlood flood-opacity="0" result="BackgroundImageFix"/>
<feColorMatrix in="SourceAlpha" type="matrix" values="0 0 0 0 0 0 0 0 0 0 0 0 0 0 0 0 0 0 127 0" result="hardAlpha"/>
<feOffset dy="4"/>
<feGaussianBlur stdDeviation="22.5"/>
<feComposite in2="hardAlpha" operator="out"/>
<feColorMatrix type="matrix" values="0 0 0 0 0.294118 0 0 0 0 0.333333 0 0 0 0 0.388235 0 0 0 0.23 0"/>
<feBlend mode="normal" in2="BackgroundImageFix" result="effect1_dropShadow_4_26"/>
<feBlend mode="normal" in="SourceGraphic" in2="effect1_dropShadow_4_26" result="shape"/>
</filter>
<filter id="filter1_d_4_26" x="-10.5942" y="88.7581" width="358.891" height="363.697" filterUnits="userSpaceOnUse" color-interpolation-filters="sRGB">
<feFlood flood-opacity="0" result="BackgroundImageFix"/>
<feColorMatrix in="SourceAlpha" type="matrix" values="0 0 0 0 0 0 0 0 0 0 0 0 0 0 0 0 0 0 127 0" result="hardAlpha"/>
<feOffset dy="4"/>
<feGaussianBlur stdDeviation="22.5"/>
<feComposite in2="hardAlpha" operator="out"/>
<feColorMatrix type="matrix" values="0 0 0 0 0.294118 0 0 0 0 0.333333 0 0 0 0 0.388235 0 0 0 0.23 0"/>
<feBlend mode="normal" in2="BackgroundImageFix" result="effect1_dropShadow_4_26"/>
<feBlend mode="normal" in="SourceGraphic" in2="effect1_dropShadow_4_26" result="shape"/>
</filter>
<filter id="filter2_d_4_26" x="130.057" y="73.0312" width="267.37" height="338.453" filterUnits="userSpaceOnUse" color-interpolation-filters="sRGB">
<feFlood flood-opacity="0" result="BackgroundImageFix"/>
<feColorMatrix in="SourceAlpha" type="matrix" values="0 0 0 0 0 0 0 0 0 0 0 0 0 0 0 0 0 0 127 0" result="hardAlpha"/>
<feOffset dy="4"/>
<feGaussianBlur stdDeviation="22.5"/>
<feComposite in2="hardAlpha" operator="out"/>
<feColorMatrix type="matrix" values="0 0 0 0 0.294118 0 0 0 0 0.333333 0 0 0 0 0.388235 0 0 0 0.23 0"/>
<feBlend mode="normal" in2="BackgroundImageFix" result="effect1_dropShadow_4_26"/>
<feBlend mode="normal" in="SourceGraphic" in2="effect1_dropShadow_4_26" result="shape"/>
</filter>
<filter id="filter3_d_4_26" x="179.636" y="283.249" width="167.284" height="167.284" filterUnits="userSpaceOnUse" color-interpolation-filters="sRGB">
<feFlood flood-opacity="0" result="BackgroundImageFix"/>
<feColorMatrix in="SourceAlpha" type="matrix" values="0 0 0 0 0 0 0 0 0 0 0 0 0 0 0 0 0 0 127 0" result="hardAlpha"/>
<feOffset dy="4"/>
<feGaussianBlur stdDeviation="22.5"/>
<feComposite in2="hardAlpha" operator="out"/>
<feColorMatrix type="matrix" values="0 0 0 0 0.294118 0 0 0 0 0.333333 0 0 0 0 0.388235 0 0 0 0.23 0"/>
<feBlend mode="normal" in2="BackgroundImageFix" result="effect1_dropShadow_4_26"/>
<feBlend mode="normal" in="SourceGraphic" in2="effect1_dropShadow_4_26" result="shape"/>
</filter>
<linearGradient id="paint0_linear_4_26" x1="467.542" y1="195.319" x2="232.851" y2="315.805" gradientUnits="userSpaceOnUse">
<stop stop-color="#F9FAFB"/>
<stop offset="1" stop-color="white"/>
</linearGradient>
<linearGradient id="paint1_linear_4_26" x1="434.323" y1="211.642" x2="481.545" y2="199.782" gradientUnits="userSpaceOnUse">
<stop stop-color="#D1D5DB"/>
<stop offset="1" stop-color="#D1D5DB" stop-opacity="0"/>
</linearGradient>
<linearGradient id="paint2_linear_4_26" x1="167.61" y1="136.789" x2="154.608" y2="400.281" gradientUnits="userSpaceOnUse">
<stop stop-color="#F9FAFB"/>
<stop offset="1" stop-color="white"/>
</linearGradient>
<linearGradient id="paint3_linear_4_26" x1="165.136" y1="173.72" x2="178.476" y2="126.894" gradientUnits="userSpaceOnUse">
<stop stop-color="#D1D5DB"/>
<stop offset="1" stop-color="#D1D5DB" stop-opacity="0"/>
</linearGradient>
<linearGradient id="paint4_linear_4_26" x1="322.273" y1="134.397" x2="179.267" y2="356.087" gradientUnits="userSpaceOnUse">
<stop stop-color="#F9FAFB"/>
<stop offset="1" stop-color="white"/>
</linearGradient>
<linearGradient id="paint5_linear_4_26" x1="301.665" y1="165.142" x2="336.631" y2="131.26" gradientUnits="userSpaceOnUse">
<stop stop-color="#D1D5DB"/>
<stop offset="1" stop-color="#D1D5DB" stop-opacity="0"/>
</linearGradient>
<clipPath id="clip0_4_26">
<rect width="512" height="512" fill="white"/>
</clipPath>
</defs>
</svg>
