<?xml version="1.0" encoding="utf-8"?>
<!-- Generator: Adobe Illustrator 23.0.2, SVG Export Plug-In . SVG Version: 6.00 Build 0)  -->
<svg version="1.1" id="Capa_1" xmlns="http://www.w3.org/2000/svg" xmlns:xlink="http://www.w3.org/1999/xlink" x="0px" y="0px"
	 viewBox="0 0 256 256" style="enable-background:new 0 0 256 256;" xml:space="preserve">
<style type="text/css">
	.st0{fill:#6A5F7A;}
</style>
<g>
	<g>
		<path class="st0" d="M241,15c-9.7-9.7-22.5-15-36.2-15s-26.5,5.3-36.2,15L25.4,158.2c-1.2,1.2-2.1,2.7-2.6,4.4L0.4,243.3
			c-1,3.5,0,7.2,2.6,9.8c1.8,1.9,4.4,2.9,7,2.9c0.9,0,1.8-0.1,2.7-0.4l80.8-22.9c3.4-1,6.1-3.7,6.9-7.1s-0.1-7.1-2.6-9.6l-50.9-51.1
			L165.6,46.3l44.1,44.1L118.9,181c-3.9,3.9-3.9,10.2,0,14.1c3.9,3.9,10.2,3.9,14.1,0L241,87.4c9.7-9.7,15-22.5,15-36.2
			S250.7,24.7,241,15z M71.7,218.1l-47.3,13.4l13.2-47.6L71.7,218.1z M226.9,73.3l-3,3l-44.1-44.1l3-3c5.9-5.9,13.7-9.1,22.1-9.1
			s16.2,3.2,22.1,9.1c5.9,5.9,9.1,13.7,9.1,22.1S232.8,67.4,226.9,73.3z"/>
	</g>
</g>
</svg>
