<svg width="512" height="512" viewBox="0 0 512 512" fill="none" xmlns="http://www.w3.org/2000/svg">
<g clip-path="url(#clip0_65_20)">
<path d="M504.741 256C504.741 393.376 393.376 504.741 256 504.741C118.624 504.741 7.25888 393.376 7.25888 256C7.25888 118.624 118.624 7.25903 256 7.25903C393.376 7.25903 504.741 118.624 504.741 256Z" fill="#E5E7EB"/>
<g filter="url(#filter0_d_65_20)">
<path d="M226.776 120.996L239.44 156.298L226.043 207.498L272.188 156.298L268.467 131.612L276.974 120.996H474.895C486.91 120.996 496.65 130.737 496.65 142.752L496.65 385.549C496.65 397.565 486.91 407.305 474.894 407.305H37.1054C25.0901 407.305 15.3498 397.565 15.3498 385.549L15.3499 142.752C15.3499 130.737 25.0902 120.996 37.1055 120.996H226.776Z" fill="url(#paint0_linear_65_20)"/>
</g>
<path fill-rule="evenodd" clip-rule="evenodd" d="M226.776 120.996L239.44 156.298L236.177 168.768H15.3498V140.996C15.3498 129.951 24.3041 120.996 35.3498 120.996H226.776ZM276.973 120.996L268.466 131.612L272.188 156.298L260.948 168.768H496.65V140.996C496.65 129.951 487.696 120.996 476.65 120.996H276.973Z" fill="white"/>
<path fill-rule="evenodd" clip-rule="evenodd" d="M224.022 272.938C224.08 272.938 224.137 272.915 224.178 272.873C224.22 272.832 224.243 272.775 224.243 272.717C224.243 272.658 224.22 272.602 224.178 272.56C224.137 272.519 224.08 272.495 224.022 272.495C223.963 272.495 223.907 272.519 223.865 272.56C223.824 272.602 223.8 272.658 223.8 272.717C223.8 272.775 223.824 272.832 223.865 272.873C223.907 272.915 223.963 272.938 224.022 272.938ZM217.501 266.196C219.231 264.467 221.576 263.495 224.022 263.495C226.467 263.495 228.813 264.467 230.542 266.196C232.271 267.926 233.243 270.271 233.243 272.717C233.243 275.162 232.271 277.508 230.542 279.237C228.813 280.967 226.467 281.938 224.022 281.938C221.576 281.938 219.231 280.967 217.501 279.237C215.772 277.508 214.8 275.162 214.8 272.717C214.8 270.271 215.772 267.926 217.501 266.196ZM278.022 272.938C278.08 272.938 278.137 272.915 278.178 272.873C278.22 272.832 278.243 272.775 278.243 272.717C278.243 272.658 278.22 272.602 278.178 272.56C278.137 272.519 278.08 272.495 278.022 272.495C277.963 272.495 277.907 272.519 277.865 272.56C277.824 272.602 277.8 272.658 277.8 272.717C277.8 272.775 277.824 272.832 277.865 272.873C277.907 272.915 277.963 272.938 278.022 272.938ZM271.501 266.196C273.231 264.467 275.576 263.495 278.022 263.495C280.467 263.495 282.813 264.467 284.542 266.196C286.271 267.926 287.243 270.271 287.243 272.717C287.243 275.162 286.271 277.508 284.542 279.237C282.813 280.967 280.467 281.938 278.022 281.938C275.576 281.938 273.231 280.967 271.501 279.237C269.772 277.508 268.8 275.162 268.8 272.717C268.8 270.271 269.772 267.926 271.501 266.196ZM239.772 314.294L236.433 310.956C235.083 312.306 234.679 314.337 235.41 316.101C236.141 317.865 237.862 319.015 239.772 319.015H262.272C264.181 319.015 265.903 317.865 266.634 316.101C267.364 314.337 266.96 312.306 265.61 310.956L262.272 314.294C265.61 310.956 265.608 310.953 265.608 310.953L265.605 310.95L265.599 310.945L265.587 310.933L265.557 310.903C265.548 310.894 265.538 310.884 265.527 310.874C265.511 310.859 265.494 310.842 265.476 310.825C265.412 310.764 265.33 310.687 265.23 310.597C265.03 310.416 264.756 310.179 264.412 309.904C263.729 309.357 262.753 308.649 261.52 307.945C259.074 306.547 255.453 305.073 251.022 305.073C246.59 305.073 242.969 306.547 240.523 307.945C239.29 308.649 238.315 309.357 237.631 309.904C237.288 310.179 237.014 310.416 236.814 310.597C236.713 310.687 236.631 310.764 236.568 310.825C236.536 310.855 236.509 310.881 236.486 310.903L236.456 310.933L236.444 310.945L236.438 310.95L236.436 310.953C236.436 310.953 236.433 310.956 239.772 314.294Z" fill="#374151"/>
<circle cx="39.5153" cy="146.796" r="5.9949" fill="#E2E4E8"/>
<circle cx="58.5613" cy="146.796" r="5.9949" fill="#E2E4E8"/>
<circle cx="77.6073" cy="146.796" r="5.9949" fill="#E2E4E8"/>
<g filter="url(#filter1_d_65_20)">
<path d="M471.661 224.719C471.661 241.995 457.656 256 440.38 256C423.104 256 409.099 241.995 409.099 224.719C409.099 207.443 440.38 180.609 440.38 180.609C440.38 180.609 471.661 207.443 471.661 224.719Z" fill="#D1D5DB"/>
</g>
</g>
<defs>
<filter id="filter0_d_65_20" x="-10.6502" y="98.9964" width="533.3" height="338.309" filterUnits="userSpaceOnUse" color-interpolation-filters="sRGB">
<feFlood flood-opacity="0" result="BackgroundImageFix"/>
<feColorMatrix in="SourceAlpha" type="matrix" values="0 0 0 0 0 0 0 0 0 0 0 0 0 0 0 0 0 0 127 0" result="hardAlpha"/>
<feOffset dy="4"/>
<feGaussianBlur stdDeviation="13"/>
<feComposite in2="hardAlpha" operator="out"/>
<feColorMatrix type="matrix" values="0 0 0 0 0 0 0 0 0 0 0 0 0 0 0 0 0 0 0.09 0"/>
<feBlend mode="normal" in2="BackgroundImageFix" result="effect1_dropShadow_65_20"/>
<feBlend mode="normal" in="SourceGraphic" in2="effect1_dropShadow_65_20" result="shape"/>
</filter>
<filter id="filter1_d_65_20" x="399.099" y="179.609" width="82.562" height="95.3913" filterUnits="userSpaceOnUse" color-interpolation-filters="sRGB">
<feFlood flood-opacity="0" result="BackgroundImageFix"/>
<feColorMatrix in="SourceAlpha" type="matrix" values="0 0 0 0 0 0 0 0 0 0 0 0 0 0 0 0 0 0 127 0" result="hardAlpha"/>
<feOffset dy="9"/>
<feGaussianBlur stdDeviation="5"/>
<feComposite in2="hardAlpha" operator="out"/>
<feColorMatrix type="matrix" values="0 0 0 0 0 0 0 0 0 0 0 0 0 0 0 0 0 0 0.08 0"/>
<feBlend mode="normal" in2="BackgroundImageFix" result="effect1_dropShadow_65_20"/>
<feBlend mode="normal" in="SourceGraphic" in2="effect1_dropShadow_65_20" result="shape"/>
</filter>
<linearGradient id="paint0_linear_65_20" x1="412.308" y1="144.357" x2="320.405" y2="479.255" gradientUnits="userSpaceOnUse">
<stop stop-color="#F9FAFB"/>
<stop offset="1" stop-color="white"/>
</linearGradient>
<clipPath id="clip0_65_20">
<rect width="512" height="512" fill="white"/>
</clipPath>
</defs>
</svg>
