<svg id="bcf96e99-c175-4a79-b3a1-bb5942b07d2c" data-name="Layer 1" xmlns="http://www.w3.org/2000/svg" viewBox="0 0 25 25"><title>Artboard 1</title><path d="M17.55,0H7.45A7.46,7.46,0,0,0,0,7.45v10.1A7.46,7.46,0,0,0,7.45,25h10.1A7.46,7.46,0,0,0,25,17.55V7.45A7.46,7.46,0,0,0,17.55,0Zm4.94,17.55a4.93,4.93,0,0,1-4.94,4.93H7.45a4.93,4.93,0,0,1-4.94-4.93V7.45A4.94,4.94,0,0,1,7.45,2.51h10.1a4.93,4.93,0,0,1,4.93,4.94v10.1Z" fill="#7392d9"/><path d="M12.5,6A6.47,6.47,0,1,0,19,12.5,6.47,6.47,0,0,0,12.5,6Zm0,10.42a3.95,3.95,0,1,1,3.95-3.95A4,4,0,0,1,12.5,16.45Z" fill="#7392d9"/><circle cx="18.98" cy="6.08" r="1.55" fill="#7392d9"/></svg>