<?xml version="1.0" encoding="utf-8"?>
<!-- Generator: Adobe Illustrator 23.0.2, SVG Export Plug-In . SVG Version: 6.00 Build 0)  -->
<svg version="1.1" id="bec80adc-807f-4517-b06e-277725ba251a"
	 xmlns="http://www.w3.org/2000/svg" xmlns:xlink="http://www.w3.org/1999/xlink" x="0px" y="0px" viewBox="0 0 124 24"
	 style="enable-background:new 0 0 124 24;" xml:space="preserve">
<style type="text/css">
	.st0{fill:#7392D9;}
</style>
<title>Artboard 3</title>
<g>
	<g>
		<path class="st0" d="M40.1,4.4c-1.1-0.8-2.6-1.2-4.6-1.2h-5v15.2H34v-5.5h1.3c2,0,3.6-0.4,4.7-1.3c1.2-0.9,1.8-2.1,1.8-3.7
			C41.8,6.4,41.2,5.2,40.1,4.4z M34,5.8h1.4c1,0,1.7,0.2,2.2,0.6c0.5,0.4,0.7,0.9,0.7,1.6c0,1.6-1,2.3-3.1,2.3H34V5.8z"/>
		<path class="st0" d="M50.1,14.8c-0.9,0.8-1.7,1.2-2.5,1.2c-0.9,0-1.3-0.4-1.3-1.4v-7h-3.1v7.6c0,1,0.3,1.9,0.9,2.4
			c0.6,0.6,1.4,0.9,2.5,0.9c1.2,0,2.5-0.5,3.7-1.5l0.2,1.3h2.7V7.7h-3.1V14.8z"/>
		<path class="st0" d="M62,7.4c-1.2,0-2.4,0.5-3.4,1.5l-0.2-1.3h-2.7v14.8l3.1-0.4v-3.9c0.7,0.2,1.6,0.4,2.5,0.4
			c0.7,0,1.3-0.1,1.9-0.3c0.6-0.2,1.2-0.6,1.6-1c0.5-0.5,0.9-1.1,1.1-1.8c0.3-0.7,0.4-1.6,0.4-2.6c0-1.7-0.4-3-1.2-3.9
			C64.4,7.9,63.3,7.4,62,7.4z M61.2,10c0.6,0,1.1,0.2,1.5,0.7c0.4,0.5,0.6,1.2,0.6,2.1c0,1.1-0.2,1.9-0.7,2.4
			c-0.5,0.6-1,0.8-1.8,0.8c-0.7,0-1.4-0.1-2.1-0.4v-4.3C59.6,10.5,60.4,10,61.2,10z"/>
		<path class="st0" d="M69.6,2.9c-0.5,0-0.9,0.2-1.3,0.5c-0.4,0.3-0.5,0.7-0.5,1.2c0,0.5,0.2,0.9,0.5,1.2c0.3,0.3,0.8,0.4,1.3,0.4
			c0.4,0,0.8-0.2,1.1-0.5c0.3-0.3,0.5-0.7,0.5-1.2c0-0.5-0.2-0.9-0.5-1.2C70.5,3.1,70.1,2.9,69.6,2.9z"/>
		<rect x="68" y="7.7" class="st0" width="3.1" height="10.7"/>
		<polygon class="st0" points="73.7,18.4 76.8,18.4 76.8,2.5 73.7,2.9 		"/>
		<polygon class="st0" points="79.3,18.4 82.8,18.4 82.8,12.2 87.9,12.2 87.4,9.5 82.8,9.5 82.8,5.9 88.8,5.9 88.8,3.2 79.3,3.2 		
			"/>
		<rect x="90.4" y="7.7" class="st0" width="3.1" height="10.7"/>
		<path class="st0" d="M92,2.9c-0.5,0-0.9,0.2-1.3,0.5c-0.4,0.3-0.5,0.7-0.5,1.2c0,0.5,0.2,0.9,0.5,1.2C91,6,91.5,6.2,92,6.2
			c0.4,0,0.8-0.2,1.1-0.5c0.3-0.3,0.5-0.7,0.5-1.2c0-0.5-0.2-0.9-0.5-1.2C92.8,3.1,92.4,2.9,92,2.9z"/>
		<path class="st0" d="M102.5,7.4c-1.5,0.1-2.7,0.8-3.6,2.1l-0.3-1.8h-2.7v10.7h3.1v-6.1c0.4-0.6,1-1,1.6-1.4
			c0.7-0.4,1.5-0.6,2.3-0.6l0.2,0l-0.5-2.8L102.5,7.4z"/>
		<path class="st0" d="M112.8,12.9c-0.7-0.5-1.8-0.9-3.4-1.3c-0.8-0.2-1.4-0.4-1.7-0.6c-0.3-0.2-0.4-0.3-0.4-0.6
			c0-0.2,0.1-0.4,0.3-0.6c0.2-0.2,0.6-0.2,1.1-0.2c1.2,0,2.4,0.3,3.7,0.9l0.2,0.1l0.5-2.5l-0.1,0c-1.2-0.5-2.7-0.7-4.2-0.7
			c-1.4,0-2.5,0.3-3.3,0.9c-0.8,0.6-1.3,1.4-1.3,2.3c0,1,0.3,1.7,1,2.2c0.7,0.5,1.8,0.9,3.3,1.2c0.9,0.2,1.5,0.4,1.8,0.6
			c0.3,0.2,0.4,0.4,0.4,0.7c0,0.3-0.1,0.5-0.4,0.7c-0.3,0.2-0.8,0.3-1.3,0.3c-1.5,0-2.9-0.4-4.3-1.2l-0.2-0.1l-0.4,2.5l0.1,0
			c0.6,0.3,1.4,0.5,2.2,0.7c0.8,0.2,1.7,0.3,2.5,0.3c1.6,0,2.8-0.3,3.7-0.9c0.9-0.6,1.3-1.4,1.3-2.5
			C113.8,14.2,113.5,13.4,112.8,12.9z"/>
		<path class="st0" d="M121.6,15.9l-0.1,0c-0.2,0.1-0.5,0.1-0.9,0.1c-0.5,0-0.9-0.1-1.1-0.3c-0.2-0.2-0.3-0.5-0.3-0.9v-4.8h2.7
			l-0.4-2.4h-2.3V3.9l-3.1,0.4v3.3h-1.6v2.4h1.6v5.2c0,1.2,0.4,2,1.1,2.5c0.7,0.5,1.7,0.8,2.9,0.8c0.6,0,1.2-0.1,1.8-0.2l0.1,0
			L121.6,15.9z"/>
	</g>
	<path class="st0" d="M20.7,17.4C20.7,17.4,20.7,17.4,20.7,17.4l3.8-4.1c0.1-0.1,0.1-0.1,0.2-0.2l0,0l0,0c0.5-0.5,0.7-1.3,0.7-2
		c0-0.9-0.4-1.7-0.9-2.2l0,0l-3.8-4.1h0c-1.7-1.9-4.2-3.1-7-3.1c-2.9,0-5.4,1.3-7.2,3.3l0,0L3,8.7C2.9,8.8,2.7,8.9,2.6,9.1l0,0l0,0
		C2.2,9.6,2,10.3,2,11c0,0.9,0.4,1.7,0.9,2.3l0,0L6.3,17l0,0c0.1,0.1,0.2,0.2,0.2,0.3V11c0-3.9,3.2-7.1,7.1-7.1s7.1,3.2,7.1,7.1
		s-3.2,7.1-7.1,7.1c-0.8,0-1.6-0.1-2.4-0.4v-2.6c0.7,0.4,1.5,0.6,2.4,0.6c2.6,0,4.7-2.1,4.7-4.7s-2.1-4.7-4.7-4.7
		c-2.6,0-4.7,2.1-4.7,4.7h0v5.3v2.4v0.5c1.4,0.8,3,1.3,4.7,1.3C16.4,20.4,18.9,19.3,20.7,17.4L20.7,17.4L20.7,17.4z M11.3,11
		c0-1.3,1.1-2.4,2.4-2.4S16,9.7,16,11s-1.1,2.4-2.4,2.4S11.3,12.3,11.3,11z"/>
</g>
</svg>
