<?xml version="1.0" encoding="utf-8"?>
<!-- Generator: Adobe Illustrator 23.0.2, SVG Export Plug-In . SVG Version: 6.00 Build 0)  -->
<svg version="1.1" id="fe2599e6-2718-415e-ab5e-779d265d604b"
	 xmlns="http://www.w3.org/2000/svg" xmlns:xlink="http://www.w3.org/1999/xlink" x="0px" y="0px" viewBox="0 0 1050 200"
	 style="enable-background:new 0 0 1050 200;" xml:space="preserve">
<style type="text/css">
	.st0{fill:#4D1E9A;}
</style>
<title>Outlined Logo copy</title>
<g>
	<path class="st0" d="M281.9,52.9h15.4v8.8c6.8-7.6,17.6-10.7,27.7-10.7c26.9,0,41.6,21.5,41.6,45.9c0,24.6-14.7,45.9-41.9,45.9
		c-10.4,0-20.5-3-27.3-10.6v45.4h-24.5V62C272.9,57,276.9,52.9,281.9,52.9z M342.7,97c0-14.7-7.3-26-23.6-26s-23.9,11.2-23.9,26
		s7.6,26.4,23.9,26.4S342.7,111.6,342.7,97z"/>
	<path class="st0" d="M380.1,105.9V62c0-5,4.1-9,9-9h14.4v50.2c0,11.6,6.4,19.9,18.5,19.9c13.3,0,21.8-6.5,21.8-21.9V62
		c0-5,4.1-9,9-9h14.4v88.2h-23.5v-10.3c-7.8,8.7-19,12.1-28.6,12.1C389.8,142.9,380.1,124.4,380.1,105.9z"/>
	<path class="st0" d="M495.7,52.9h15.4v8.8c6.8-7.6,17.6-10.7,27.7-10.7c26.9,0,41.6,21.5,41.6,45.9c0,24.6-14.7,45.9-41.9,45.9
		c-10.4,0-20.5-3-27.3-10.6v45.4h-24.5V62C486.6,57,490.7,52.9,495.7,52.9z M556.4,97c0-14.7-7.3-26-23.6-26
		C516.5,71,509,82.2,509,97s7.6,26.4,23.9,26.4C549.2,123.4,556.4,111.6,556.4,97z"/>
	<path class="st0" d="M606.1,16.4h6.8c5,0,9,4.1,9,9v1.8c0,5-4.1,9-9,9h-6.8c-5,0-9-4.1-9-9v-1.8C597.1,20.5,601.1,16.4,606.1,16.4z
		 M606.7,52.9h14.6v88.2h-23.7V62C597.6,57,601.7,52.9,606.7,52.9z"/>
	<path class="st0" d="M642.7,123.6V25.4c0-5,4.1-9,9-9h14.6v101.3c0,4.1,3,5.9,7.8,5.9c1.4,0,4-0.2,6.5-0.5v18.1
		c-5,0.9-12,1.8-17.7,1.8C651.8,142.9,642.7,139.1,642.7,123.6z"/>
	<path class="st0" d="M702.3,71h-17.8v-9c0-5,4.1-9,9-9h8.9V41.1c0-17.1,14.7-26.6,31-26.6c6.4,0,12.3,1.5,17.6,3.6l-7.8,17.7
		c-2.2-1.2-5-2.2-7.6-2.2c-4.8,0-8.9,2.7-8.9,9.6v9.6h22.6v18h-22.6v70.2h-24.5V71z"/>
	<path class="st0" d="M775.3,16.4h6.8c5,0,9,4.1,9,9v1.8c0,5-4.1,9-9,9h-6.8c-5,0-9-4.1-9-9v-1.8C766.3,20.5,770.3,16.4,775.3,16.4z
		 M775.9,52.9h14.6v88.2h-23.7V62C766.8,57,770.9,52.9,775.9,52.9z"/>
	<path class="st0" d="M821.7,52.9h14.1v14.8c4.2-10.7,15.1-16.7,26-16.7c6.4,0,13.1,2,17.8,6.4l-10.8,17.7c-3.2-1.9-6.8-3-10.6-3
		c-11.1,0-22.6,9.4-22.6,31.8v37.3h-22.9V62C812.6,57,816.7,52.9,821.7,52.9z"/>
	<path class="st0" d="M882.7,116l13.5-5.4c2.6,6.4,7.8,14.5,20.7,14.5c11,0,15.7-5.8,15.7-10.5c0-14.8-48.7-4.9-48.7-36
		c0-18.6,17.3-27.5,36-27.5c13.9,0,25,5,32.6,13.5c2.4,2.7,1.6,6.9-1.6,8.5l-12.5,6.2c-3.3-5.5-8.7-11.2-19.2-11.2
		c-7.8,0-12.5,3.4-12.5,7.6c0,13.3,49.3,5.4,49.3,37.8c0,20.4-19.5,29.4-37.9,29.4c-17.4,0-31.3-8.1-38-19
		C878.3,121,879.6,117.3,882.7,116z"/>
	<path class="st0" d="M982,116.8V71h-15.6v-9c0-5,4.1-9,9-9h7v-17c0-3,1.5-5.9,4.1-7.6l19.2-12.7v37.3h24.3v18h-24.3v42
		c0,8.5,4.6,10.9,10.8,10.9c5,0,10.3-1.8,13.5-3.2v19.5c-3.6,1.2-10.6,2.6-17.7,2.6C993.4,142.9,982,132.8,982,116.8z"/>
</g>
<path class="st0" d="M181.1,158.8c0,0,0.1-0.1,0.1-0.1l32.6-35.4c0.6-0.6,1.2-1.3,1.8-1.9l0,0l0,0c3.9-4.7,6.3-10.8,6.3-17.5
	c0-7.6-3.1-14.5-8.1-19.4l0,0L181.1,49h0c-14.9-16.4-36.4-26.6-60.3-26.6c-24.8,0-46.9,11-61.9,28.5l0,0L28.7,83.9
	c-1.1,1-2.1,2.1-3,3.3l0,0.1l0,0c-3.5,4.6-5.7,10.4-5.7,16.6c0,7.6,3.1,14.5,8.1,19.4l0,0l29.4,32l0,0c0.7,0.8,1.4,1.7,2.1,2.5
	v-53.9c0-33.7,27.4-61.2,61.2-61.2S182,70.2,182,103.9s-27.4,61.2-61.2,61.2c-7.1,0-14-1.2-20.4-3.5v-22.3c6,3.5,13,5.5,20.4,5.5
	c22.5,0,40.8-18.3,40.8-40.8s-18.3-40.8-40.8-40.8C98.3,63.1,80,81.4,80,103.9h0v45.6v20.6v4.5c12,6.9,25.9,10.9,40.8,10.9
	c23.7,0,45-10.1,59.9-26.3l0,0L181.1,158.8z M100.4,103.9c0-11.2,9.1-20.4,20.4-20.4s20.4,9.1,20.4,20.4s-9.1,20.4-20.4,20.4
	S100.4,115.1,100.4,103.9z"/>
</svg>
