<svg id="bfff2aed-27ed-471f-9320-92d6a5ba664e" data-name="Layer 1" xmlns="http://www.w3.org/2000/svg" viewBox="0 0 968 216"><title>pupilfirst-logo copy</title><path d="M363,93.75c0,23.8-14.89,37.52-40.88,37.52H301.85v29.2H278.78V58.28h43.36C348.13,58.28,363,71.12,363,93.75Zm-21.9.73c0-11.38-7.3-17.08-20.15-17.08H301.85V112H321C333.82,112,341.12,106.16,341.12,94.48Z" fill="#3a3f52"/><path d="M450.47,81.59v78.55H428.14V146.27C422.73,156.2,413.68,161,401.86,161c-17.38,0-28.33-11.54-28.33-30.08V81.59H396v42.93c0,9.93,5.69,15.91,14.74,15.91,10.81-.14,17.38-8.61,17.38-20V81.59Z" fill="#3a3f52"/><path d="M549.75,121.26c0,23.8-14.45,39.71-36.5,39.71-10.95,0-19.56-4.38-25.25-12.26v39.71H465.51V81.55H488V93.08c5.54-7.88,14.16-12.26,24.81-12.26C534.86,80.82,549.75,97,549.75,121.26ZM527,120.53c0-12.55-7.89-21.61-19.42-21.61S488,107.83,488,120.53c0,13,8,21.75,19.56,21.75S527,133.38,527,120.53Z" fill="#3a3f52"/><path d="M583.92,59.44c0,7.3-5,12.56-12.12,12.56s-12.12-5.26-12.12-12.56,5-12.55,12.12-12.55S583.92,52.15,583.92,59.44ZM583,81.93v78.54H560.56V81.93Z" fill="#3a3f52"/><path d="M628.15,141.49a18.22,18.22,0,0,0,7.59-2.19L637.93,158A35.13,35.13,0,0,1,623,161.5c-13.14,0-24.23-8.76-24.23-27V52.15h22.33V133C621.14,138.87,624.06,141.49,628.15,141.49Z" fill="#3a3f52"/><path d="M670.34,92.77v11.54h38.84v19.12H670.34v37.38H647.13V92.33c0-21.17,14.31-34.74,36.5-34.74,12.56,0,25.84,2.63,34.45,6.57L712.68,84c-8.17-3.5-19-6.27-27-6.27C676.48,77.74,670.34,83.57,670.34,92.77Z" fill="#3a3f52"/><path d="M750.94,59.37c0,7.3-5,12.56-12.12,12.56S726.7,66.67,726.7,59.37s5-12.55,12.12-12.55S750.94,52.07,750.94,59.37Zm-.88,22.48V160.4H727.58V81.85Z" fill="#3a3f52"/><path d="M813.27,81.05v21.17c-16.06-1.46-26,7.16-26,20.44v37.81H764.8V81.93h22.49V96.09C792.69,86.45,801.59,81.2,813.27,81.05Z" fill="#3a3f52"/><path d="M851.06,97.4c-5.26,0-9,1.76-9,5.84,0,11.83,41.46,5.84,41.31,33.58,0,16.06-14.16,24.53-32,24.53-12.7,0-25.11-3.8-34-10.95l7.3-15.18c8.18,6.27,18.69,9.78,27.3,9.78,5.7,0,9.93-1.9,9.93-6.13,0-12.56-40.73-5.84-40.73-33.44,0-16.2,13.87-24.52,31-24.52a58.57,58.57,0,0,1,30.66,8.76L875,105C866.39,100.18,857.63,97.4,851.06,97.4Z" fill="#3a3f52"/><path d="M940.26,156.09a41.43,41.43,0,0,1-20,5.41c-14.45,0-25.11-9.2-25.11-26V63.82h22.34V85.43H939v15.62H917.49v30.66c0,7.45,2.92,10.95,7.88,10.81,2.63,0,6.28-1,10.22-2.92Z" fill="#3a3f52"/><path d="M238.64,97.93l-9.58-9.58L191.71,51h0A79.93,79.93,0,0,0,78.65,51h0L41.29,88.35l-9.58,9.58h0a13.58,13.58,0,0,0,0,19.19l9.58,9.58,37.36,37.35h0c1.21,1.22,2.48,2.38,3.77,3.51v-60h0A52.62,52.62,0,0,1,94.46,74q1.62-2,3.41-3.74a52.76,52.76,0,1,1,37.31,90.07h0c-1.71,0-3.39-.09-5.06-.25-.55-.05-1.1-.15-1.65-.22-1.11-.14-2.22-.3-3.3-.51-.64-.12-1.26-.27-1.89-.42q-1.25-.28-2.46-.63V137.83a33.56,33.56,0,1,0-19.19-30.3v72.55a80,80,0,0,0,90.11-16l37.35-37.35,9.58-9.58a13.56,13.56,0,0,0,0-19.19ZM135.18,93.14a14.39,14.39,0,1,1-14.39,14.39A14.39,14.39,0,0,1,135.18,93.14Z" fill="#3f46ad"/></svg>