<svg id="bec80adc-807f-4517-b06e-277725ba251a" data-name="Layer 1" xmlns="http://www.w3.org/2000/svg" viewBox="0 0 124 24"><title>Artboard 3</title><path d="M27.58,9.6,26.42,8.44,21.89,3.91h0a9.71,9.71,0,0,0-13.72,0h0L3.64,8.44,2.48,9.6h0a1.65,1.65,0,0,0,0,2.33l1.16,1.16,4.53,4.53h0c.15.15.31.29.46.42V10.76h0a6.41,6.41,0,0,1,1.46-4.07,5.89,5.89,0,0,1,.42-.45A6.4,6.4,0,1,1,15,17.16h0c-.21,0-.41,0-.62,0l-.2,0a2.76,2.76,0,0,1-.4-.06L13.58,17l-.29-.07V14.44a4,4,0,0,0,1.74.4A4.08,4.08,0,1,0,11,10.76v8.8a9.58,9.58,0,0,0,4.07.9,9.7,9.7,0,0,0,6.86-2.84l4.53-4.53,1.16-1.16a1.65,1.65,0,0,0,0-2.33ZM15,9a1.75,1.75,0,1,1-1.74,1.74A1.75,1.75,0,0,1,15,9Z" fill="#7392d9"/><path d="M51.39,13.83a1.64,1.64,0,0,1-.56,1.25,2,2,0,0,1-1.37.51,1.74,1.74,0,0,1-1.78-1.76V8.11h-3v6.07A4,4,0,0,0,45.84,17a3.77,3.77,0,0,0,2.8,1.17,3.83,3.83,0,0,0,2.91-1.27L51.7,18h2.65V8.11h-3Z" fill="#7392d9"/><path d="M62.16,7.92a3.79,3.79,0,0,0-2.62,1V8.11H56.6v14.8l2.94,0v-5.7a3.79,3.79,0,0,0,2.62,1,4.24,4.24,0,0,0,3.31-1.47,5.39,5.39,0,0,0,1.29-3.67,5.4,5.4,0,0,0-1.29-3.68A4.24,4.24,0,0,0,62.16,7.92Zm-2.62,4.14A2.38,2.38,0,0,1,60.35,11a2.08,2.08,0,0,1,2.85.3,2.7,2.7,0,0,1,.62,1.82,2.66,2.66,0,0,1-.62,1.8,2.12,2.12,0,0,1-2.86.3,2.34,2.34,0,0,1-.8-1.1Z" fill="#7392d9"/><rect x="68.62" y="8.11" width="2.98" height="9.91" fill="#7392d9"/><path d="M70.11,3.22a1.59,1.59,0,0,0-1.17.49,1.57,1.57,0,0,0-.5,1.17,1.59,1.59,0,0,0,.5,1.18,1.63,1.63,0,0,0,1.17.49,1.66,1.66,0,0,0,1.19-.49,1.59,1.59,0,0,0,.49-1.18,1.56,1.56,0,0,0-.49-1.17A1.62,1.62,0,0,0,70.11,3.22Z" fill="#7392d9"/><path d="M78.66,15.35a1.11,1.11,0,0,1-.84.34.89.89,0,0,1-.7-.29,1.23,1.23,0,0,1-.26-.85V3.22h-3V14.53a3.65,3.65,0,0,0,1,2.7,4.08,4.08,0,0,0,3,1,3.37,3.37,0,0,0,2.27-.73l0,0L78.71,15.3Z" fill="#7392d9"/><polygon points="81.13 18.02 84.2 18.02 84.2 11.97 89.14 11.97 89.14 9.27 84.2 9.27 84.2 5.9 89.96 5.9 89.96 3.22 81.13 3.22 81.13 18.02" fill="#7392d9"/><path d="M92.74,3.22a1.59,1.59,0,0,0-1.17.49,1.57,1.57,0,0,0-.5,1.17,1.59,1.59,0,0,0,.5,1.18,1.63,1.63,0,0,0,1.17.49,1.66,1.66,0,0,0,1.18-.49,1.59,1.59,0,0,0,.5-1.18,1.57,1.57,0,0,0-.5-1.17A1.62,1.62,0,0,0,92.74,3.22Z" fill="#7392d9"/><rect x="91.25" y="8.11" width="2.98" height="9.91" fill="#7392d9"/><path d="M102.05,7.92A3.24,3.24,0,0,0,99.3,9.51l-.15-1.4H96.47V18h3V13.07a2.54,2.54,0,0,1,.68-1.85,2.15,2.15,0,0,1,1.57-.7,2.48,2.48,0,0,1,1.49.44l.06,0,1.25-2.19,0,0A3.34,3.34,0,0,0,102.05,7.92Z" fill="#7392d9"/><path d="M112.29,12.91a6.46,6.46,0,0,0-1-.55c-.31-.13-.69-.26-1.14-.41l-.37-.12-.37-.11-.33-.11-.31-.12-.26-.12a1.51,1.51,0,0,1-.21-.14l-.17-.15a.59.59,0,0,1-.1-.16.48.48,0,0,1,0-.18c0-.25.15-.43.46-.54a2.63,2.63,0,0,1,1.14-.09,4.4,4.4,0,0,1,2.22.81l0,0L113.32,9l-.06,0a7.28,7.28,0,0,0-4-1.06,4.74,4.74,0,0,0-3,.88,2.79,2.79,0,0,0-1.15,2.33,2.11,2.11,0,0,0,.22,1,2.65,2.65,0,0,0,.51.72,3.55,3.55,0,0,0,.81.52,5.58,5.58,0,0,0,.87.37l.94.28a8.55,8.55,0,0,1,1.53.55.71.71,0,0,1,.46.65.59.59,0,0,1-.41.55,2.41,2.41,0,0,1-1.13.15,5.49,5.49,0,0,1-1.57-.34,4.28,4.28,0,0,1-1.31-.68l-.06-.05L104.62,17l0,0a7.72,7.72,0,0,0,4.71,1.22,4.53,4.53,0,0,0,2.9-.85A2.84,2.84,0,0,0,113.35,15a2.68,2.68,0,0,0-.27-1.23A2.38,2.38,0,0,0,112.29,12.91Z" fill="#7392d9"/><path d="M120.56,15.3l0,0a1.11,1.11,0,0,1-.84.34.89.89,0,0,1-.7-.29,1.23,1.23,0,0,1-.26-.85V10.36h2.45V8.11h-2.45V4.78h-3V8.11h-1.17v2.25h1.17v4.17a3.65,3.65,0,0,0,1,2.7,4.08,4.08,0,0,0,3,1,3.37,3.37,0,0,0,2.27-.73l0,0Z" fill="#7392d9"/><path d="M35.78,18V13.2h.07l.47,0h.53A12.54,12.54,0,0,0,39,13a5.57,5.57,0,0,0,2-.76,4.41,4.41,0,0,0,1.45-1.52A5.1,5.1,0,0,0,43,8.23a5.14,5.14,0,0,0-.56-2.54A4.35,4.35,0,0,0,41,4.17a5.68,5.68,0,0,0-2-.75,12.88,12.88,0,0,0-2.21-.2H32.7V18Zm3.83-8.48a2.26,2.26,0,0,1-.67.82,2.68,2.68,0,0,1-.95.44,4.46,4.46,0,0,1-1.09.14h-.56a4.75,4.75,0,0,1-.51,0h0V5.61h.06l.6,0h.46A4.46,4.46,0,0,1,38,5.68a2.53,2.53,0,0,1,.95.45,2.37,2.37,0,0,1,.67.85,3.12,3.12,0,0,1,.25,1.29A2.93,2.93,0,0,1,39.61,9.52Z" fill="#7392d9"/></svg>