<?xml version="1.0" encoding="utf-8"?>
<!-- Generator: Adobe Illustrator 23.0.2, SVG Export Plug-In . SVG Version: 6.00 Build 0)  -->
<svg version="1.1" id="fe2599e6-2718-415e-ab5e-779d265d604b"
	 xmlns="http://www.w3.org/2000/svg" xmlns:xlink="http://www.w3.org/1999/xlink" x="0px" y="0px" viewBox="0 0 1050 200"
	 style="enable-background:new 0 0 1050 200;" xml:space="preserve">
<style type="text/css">
	.st0{fill:#312E3A;}
	.st1{fill:#4D1E9A;}
</style>
<title>Outlined Logo copy</title>
<g>
	<g>
		<path class="st0" d="M344.8,43.8c-9-6.7-21.8-10-38-10h-41.5v126.7H294v-45.9h10.6c16.4,0,29.6-3.6,39.2-10.6
			c9.7-7.1,14.6-17.5,14.6-30.8C358.5,60.5,353.9,50.6,344.8,43.8z M294,55.3h11.3c8.1,0,14.3,1.6,18.5,4.7
			c4.1,3.1,6.1,7.6,6.1,13.7c0,13.1-8.3,19.4-25.5,19.4H294V55.3z"/>
		<path class="st0" d="M428.4,130.7c-7.3,6.8-14.3,10.2-20.8,10.2c-7.4,0-10.9-3.6-10.9-11.4V71.1h-26.2v63.7
			c0,8.6,2.5,15.4,7.3,20.3c4.9,4.8,12,7.3,21.2,7.3c10.3,0,20.8-4.3,31.2-12.8l2,11.1h22.4V71.1h-26.2V130.7z"/>
		<path class="st0" d="M527,69.3c-10.3,0-19.9,4.2-28.6,12.5l-1.9-10.6h-22.4v123.1l26.2-3.6v-32.2c6.2,2,13.2,3,21,3
			c5.7,0,11.2-1,16.2-2.9c5-1.9,9.6-4.8,13.6-8.6c4-3.8,7.2-8.9,9.6-15.2c2.3-6.2,3.4-13.4,3.4-21.4c0-14.2-3.5-25.2-10.4-32.8
			C546.8,73.1,537.8,69.3,527,69.3z M520.7,90.7c5.2,0,9.3,2,12.4,6c3.2,4.1,4.8,10.1,4.8,17.9c0,8.9-1.9,15.7-5.7,20.3
			c-3.8,4.6-8.6,6.8-14.7,6.8c-6.2,0-12-1.1-17.2-3.4v-36.1C507,94.6,513.9,90.7,520.7,90.7z"/>
		<path class="st0" d="M590.6,31.6c-4.2,0-7.9,1.3-10.8,3.9c-3,2.6-4.5,6-4.5,10c0,3.9,1.5,7.2,4.5,9.7c2.9,2.5,6.5,3.7,10.7,3.7
			c3.7,0,6.9-1.3,9.5-3.8c2.6-2.5,3.9-5.8,3.9-9.6c0-3.9-1.3-7.3-3.9-9.9C597.5,32.9,594.3,31.6,590.6,31.6z"/>
		<rect x="577.3" y="71.1" class="st0" width="26.2" height="89.4"/>
		<polygon class="st0" points="624.1,160.5 650.3,160.5 650.3,27.8 624.1,31.6 		"/>
		<polygon class="st0" points="671.3,160.5 700.1,160.5 700.1,109.1 742.5,109.1 738.3,86.1 700.1,86.1 700.1,56.9 750.2,56.9 
			750.2,33.8 671.3,33.8 		"/>
		<rect x="763.2" y="71.1" class="st0" width="26.2" height="89.4"/>
		<path class="st0" d="M776.5,31.6c-4.2,0-7.9,1.3-10.8,3.9c-3,2.6-4.5,6-4.5,10c0,3.9,1.5,7.2,4.5,9.7c2.9,2.5,6.5,3.7,10.7,3.7
			c3.7,0,6.9-1.3,9.5-3.8c2.6-2.5,3.9-5.8,3.9-9.6c0-3.9-1.3-7.3-3.9-9.9C783.5,32.9,780.3,31.6,776.5,31.6z"/>
		<path class="st0" d="M864.6,69.3c-12.2,0.6-22.2,6.3-30,17.2L832,71.1h-22.4v89.4h26.2v-50.8c3.4-4.6,8-8.4,13.6-11.5
			c5.7-3.1,12.2-4.9,19.2-5.3l1.3-0.1l-4.2-23.6L864.6,69.3z"/>
		<path class="st0" d="M949.8,114.9c-5.6-4-15.2-7.6-28.4-10.6c-6.8-1.7-11.4-3.2-13.8-4.7c-2.1-1.3-3.1-2.9-3.1-4.8
			c0-2,0.9-3.6,2.8-4.8c2-1.3,5.2-1.9,9.3-1.9c10,0,20.4,2.6,30.8,7.8l1.4,0.7l3.9-20.5l-0.9-0.4c-10.3-4.1-22.2-6.2-35.3-6.2
			c-11.7,0-21,2.5-27.9,7.3c-6.9,4.9-10.5,11.5-10.5,19.4c0,8.1,2.9,14.2,8.5,18.4c5.5,4,14.6,7.4,27.1,10.2
			c7.5,1.7,12.6,3.3,15.1,4.9c2.3,1.5,3.4,3.5,3.4,6.1c0,2.4-1.1,4.2-3.5,5.6c-2.5,1.5-6.3,2.2-11.1,2.2c-12.2,0-24.3-3.4-36-10.2
			l-1.5-0.8l-3.5,20.6l0.8,0.4c5.1,2.4,11.3,4.5,18.3,6.1c7.1,1.6,14.2,2.5,21.1,2.5c13.3,0,23.6-2.5,30.7-7.3
			c7.2-5,10.9-12.1,10.9-21.1C958.5,125.4,955.6,119.1,949.8,114.9z"/>
		<path class="st0" d="M1023.5,139.5l-1.2,0.3c-1.9,0.4-4.4,0.7-7.3,0.7c-4.1,0-7.1-0.8-8.9-2.4c-1.8-1.6-2.6-3.9-2.6-7.2V91.1h22.8
			l-3.3-20h-19.5v-31l-26.2,3.5v27.5h-13.5v20h13.5v43.5c0,9.8,3,16.9,8.8,21.1c5.7,4.2,13.9,6.3,24.3,6.3c5,0,10.1-0.5,15.2-1.4
			l1.1-0.2L1023.5,139.5z"/>
	</g>
	<path class="st1" d="M182.9,151.9c0,0,0.1-0.1,0.1-0.1l31.4-34.1c0.6-0.6,1.2-1.2,1.7-1.9l0,0l0,0c3.8-4.6,6.1-10.4,6.1-16.8
		c0-7.3-3-14-7.8-18.7l0,0l-31.5-34.3h0c-14.4-15.8-35.1-25.7-58.2-25.7c-23.9,0-45.3,10.7-59.7,27.5l0,0l-29.1,32c-1,1-2,2-2.9,3.2
		l0,0l0,0c-3.4,4.4-5.5,10-5.5,16c0,7.3,3,14,7.8,18.7l0,0l28.4,30.9l0,0c0.7,0.8,1.3,1.6,2,2.4v-52c0-32.5,26.5-59,59-59
		s59,26.5,59,59s-26.5,59-59,59c-6.9,0-13.5-1.2-19.7-3.4V133c5.8,3.3,12.5,5.3,19.7,5.3c21.7,0,39.3-17.6,39.3-39.3
		s-17.6-39.3-39.3-39.3c-21.7,0-39.3,17.6-39.3,39.3h0v44v19.9v4.3c11.6,6.7,25,10.6,39.3,10.6c22.9,0,43.4-9.8,57.8-25.3l0,0
		L182.9,151.9z M105,98.9c0-10.8,8.8-19.7,19.7-19.7s19.7,8.8,19.7,19.7s-8.8,19.7-19.7,19.7S105,109.8,105,98.9z"/>
</g>
</svg>
