<?xml version="1.0" encoding="utf-8"?>
<!-- Generator: Adobe Illustrator 23.0.3, SVG Export Plug-In . SVG Version: 6.00 Build 0)  -->
<svg version="1.1" id="fe2599e6-2718-415e-ab5e-779d265d604b"
	 xmlns="http://www.w3.org/2000/svg" xmlns:xlink="http://www.w3.org/1999/xlink" x="0px" y="0px" viewBox="0 0 1050 200"
	 style="enable-background:new 0 0 1050 200;" xml:space="preserve">
<style type="text/css">
	.st0{fill:#4D1E9A;}
</style>
<title>Outlined Logo copy</title>
<g>
	<path class="st0" d="M252.7,55.2h16v9.2c7.1-7.9,18.3-11.1,28.8-11.1c27.9,0,43.2,22.4,43.2,47.7c0,25.6-15.2,47.7-43.6,47.7
		c-10.8,0-21.3-3.1-28.3-11v47.1h-25.4V64.6C243.3,59.4,247.5,55.2,252.7,55.2L252.7,55.2z M315.8,100.9c0-15.2-7.6-27.1-24.5-27.1
		s-24.8,11.7-24.8,27.1s7.9,27.4,24.8,27.4S315.8,116.1,315.8,100.9z"/>
	<path class="st0" d="M354.7,110.2V64.6c0-5.2,4.2-9.4,9.4-9.4h14.9v52.2c0,12,6.7,20.6,19.3,20.6c13.8,0,22.7-6.8,22.7-22.7V64.6
		c0-5.2,4.2-9.4,9.4-9.4h15v91.7H421V136c-8.1,9.1-19.8,12.6-29.8,12.6C364.8,148.6,354.7,129.4,354.7,110.2z"/>
	<path class="st0" d="M474.8,55.2h16v9.2c7.1-7.9,18.3-11.1,28.8-11.1c27.9,0,43.2,22.4,43.2,47.7c0,25.6-15.2,47.7-43.6,47.7
		c-10.8,0-21.3-3.1-28.4-11v47.1h-25.4V64.6C465.4,59.4,469.6,55.2,474.8,55.2z M537.9,100.9c0-15.2-7.6-27.1-24.5-27.1
		c-16.9,0-24.8,11.7-24.8,27.1s7.9,27.4,24.8,27.4C530.4,128.3,537.9,116.1,537.9,100.9z"/>
	<path class="st0" d="M589.6,17.2h7c5.2,0,9.4,4.2,9.4,9.4c0,0,0,0,0,0v1.8c0,5.2-4.2,9.4-9.4,9.4h-7c-5.2,0-9.4-4.2-9.4-9.4v-1.8
		C580.1,21.4,584.3,17.2,589.6,17.2C589.5,17.2,589.5,17.2,589.6,17.2z M590.2,55.2h15.2v91.7h-24.6V64.6
		C580.8,59.4,585,55.2,590.2,55.2z"/>
	<path class="st0" d="M627.5,128.5V26.6c0-5.2,4.2-9.4,9.4-9.4h15.2v105.2c0,4.3,3.1,6.1,8.1,6.1c2.3,0,4.5-0.2,6.8-0.5v18.8
		c-6.1,1.1-12.2,1.7-18.4,1.8C637,148.6,627.5,144.7,627.5,128.5z"/>
	<path class="st0" d="M689.5,73.8H671v-9.3c0-5.2,4.2-9.4,9.4-9.4h9.3V42.9c0-17.8,15.2-27.6,32.2-27.6c6.3,0.1,12.5,1.3,18.3,3.8
		l-8.1,18.4c-2.4-1.4-5.1-2.2-7.9-2.3c-4.9,0-9.3,2.8-9.3,10v10h23.5v18.7h-23.5v72.9h-25.4L689.5,73.8z"/>
	<path class="st0" d="M765.4,17.2h7c5.2,0,9.4,4.2,9.4,9.4c0,0,0,0,0,0v1.8c0,5.2-4.2,9.4-9.4,9.4l0,0h-7c-5.2,0-9.4-4.2-9.4-9.4
		c0,0,0,0,0,0v-1.8C755.9,21.4,760.1,17.2,765.4,17.2C765.3,17.2,765.4,17.2,765.4,17.2z M766,55.2h15.2v91.7h-24.6V64.6
		C756.6,59.4,760.8,55.2,766,55.2C766,55.2,766,55.2,766,55.2z"/>
	<path class="st0" d="M813.5,55.2h14.6v15.4c4.3-11.1,15.7-17.4,27-17.4c6.7,0,13.6,2.1,18.5,6.6l-11.2,18.3c-3.3-2-7.1-3.1-11-3.1
		c-11.5,0-23.5,9.7-23.5,33v38.7h-23.8V64.6C804.1,59.4,808.3,55.2,813.5,55.2C813.5,55.1,813.5,55.2,813.5,55.2z"/>
	<path class="st0" d="M876.9,120.7l14-5.7c2.7,6.6,8.1,15,21.5,15c11.4,0,16.3-6.1,16.3-10.9c0-15.4-50.6-5-50.6-37.4
		c0-19.4,18-28.5,37.4-28.5c14.4,0,26,5.2,33.9,14.1c2.1,2.3,1.9,5.9-0.4,8c-0.4,0.3-0.8,0.6-1.3,0.9l-13,6.5
		c-3.4-5.7-9.1-11.6-20-11.6c-8.1,0-13,3.6-13,7.9c0,13.8,51.3,5.6,51.3,39.3c0,21.2-20.3,30.6-39.4,30.6
		c-18.1,0-32.5-8.5-39.4-19.7c-1.6-2.7-0.8-6.1,1.9-7.8C876.4,120.9,876.6,120.8,876.9,120.7z"/>
	<path class="st0" d="M980.2,121.5V73.8h-16.2v-9.3c0-5.2,4.2-9.4,9.4-9.4l0,0h7.2V37.5c0-3.2,1.6-6.1,4.2-7.9l20-13.2v38.7h25.2
		v18.7h-25.2v43.7c0,8.8,4.7,11.4,11.2,11.4c5.1,0,10.7-1.8,14-3.3v20.3c-5.9,1.8-12.1,2.8-18.4,2.8
		C992,148.6,980.2,138.2,980.2,121.5z"/>
	<circle class="st0" cx="110.5" cy="103.4" r="25.4"/>
	<path class="st0" d="M201.1,103.4c0-7-2.8-13.8-7.8-18.7l0,0l-27.9-30.4l0,0c-27.1-30.2-73.5-32.8-103.7-5.7
		c-2,1.8-3.9,3.7-5.7,5.7l0,0l-28,30.4l0,0c-9.7,9.6-10.5,25.1-1.8,35.6l0,0l0,0c0.5,0.6,1.1,1.3,1.7,1.9l27.9,30.4l0,0
		c1.7,1.9,3.4,3.6,5.3,5.3v-52.8c0-0.6,0-1.1,0-1.7c0-27.4,22.1-49.6,49.5-49.6c27.4,0,49.6,22.1,49.6,49.5
		c0,27.4-22.1,49.6-49.5,49.6c-8.9,0-17.7-2.4-25.4-7v26.6c28.3,10.4,60,2.4,80-20l0,0l27.9-30.4c0.6-0.6,1.2-1.2,1.7-1.9l0,0l0,0
		C198.9,115.5,201.1,109.6,201.1,103.4z"/>
</g>
</svg>
