<?xml version="1.0" encoding="utf-8"?>
<!-- Generator: Adobe Illustrator 23.0.3, SVG Export Plug-In . SVG Version: 6.00 Build 0)  -->
<svg version="1.1" id="bec80adc-807f-4517-b06e-277725ba251a"
	 xmlns="http://www.w3.org/2000/svg" xmlns:xlink="http://www.w3.org/1999/xlink" x="0px" y="0px" viewBox="0 0 124 24"
	 style="enable-background:new 0 0 124 24;" xml:space="preserve">
<style type="text/css">
	.st0{fill:#7392D9;}
</style>
<title>Artboard 3</title>
<g>
	<path class="st0" d="M29.6,6.7h1.9v1.1c0.8-0.9,2.2-1.3,3.4-1.3c3.3,0,5.1,2.7,5.1,5.7c0,3-1.8,5.7-5.2,5.7c-1.3,0-2.5-0.4-3.4-1.3
		v5.6h-3V7.8C28.5,7.2,29,6.7,29.6,6.7L29.6,6.7z M37.1,12.1c0-1.8-0.9-3.2-2.9-3.2c-2,0-2.9,1.4-2.9,3.2s0.9,3.3,2.9,3.3
		C36.2,15.4,37.1,13.9,37.1,12.1z"/>
	<path class="st0" d="M41.8,13.2V7.8c0-0.6,0.5-1.1,1.1-1.1h1.8v6.2c0,1.4,0.8,2.5,2.3,2.5c1.6,0,2.7-0.8,2.7-2.7V7.8
		c0-0.6,0.5-1.1,1.1-1.1h1.8v10.9h-2.9v-1.3c-1,1.1-2.3,1.5-3.5,1.5C43,17.8,41.8,15.5,41.8,13.2z"/>
	<path class="st0" d="M56,6.7h1.9v1.1c0.8-0.9,2.2-1.3,3.4-1.3c3.3,0,5.1,2.7,5.1,5.7c0,3-1.8,5.7-5.2,5.7c-1.3,0-2.5-0.4-3.4-1.3
		v5.6h-3V7.8C54.9,7.2,55.4,6.7,56,6.7z M63.5,12.1c0-1.8-0.9-3.2-2.9-3.2s-2.9,1.4-2.9,3.2s0.9,3.3,2.9,3.3S63.5,13.9,63.5,12.1z"
		/>
	<path class="st0" d="M69.7,2.2h0.8c0.6,0,1.1,0.5,1.1,1.1c0,0,0,0,0,0v0.2c0,0.6-0.5,1.1-1.1,1.1h-0.8c-0.6,0-1.1-0.5-1.1-1.1V3.3
		C68.6,2.7,69,2.2,69.7,2.2C69.7,2.2,69.7,2.2,69.7,2.2z M69.7,6.7h1.8v10.9h-2.9V7.8C68.6,7.2,69.1,6.7,69.7,6.7z"/>
	<path class="st0" d="M74.2,15.4V3.3c0-0.6,0.5-1.1,1.1-1.1h1.8v12.5c0,0.5,0.4,0.7,1,0.7c0.3,0,0.5,0,0.8-0.1v2.2
		c-0.7,0.1-1.5,0.2-2.2,0.2C75.3,17.8,74.2,17.3,74.2,15.4z"/>
	<path class="st0" d="M81.5,8.9h-2.2V7.8c0-0.6,0.5-1.1,1.1-1.1h1.1V5.2c0-2.1,1.8-3.3,3.8-3.3c0.7,0,1.5,0.2,2.2,0.4l-1,2.2
		c-0.3-0.2-0.6-0.3-0.9-0.3c-0.6,0-1.1,0.3-1.1,1.2v1.2h2.8v2.2h-2.8v8.7h-3L81.5,8.9z"/>
	<path class="st0" d="M90.6,2.2h0.8c0.6,0,1.1,0.5,1.1,1.1c0,0,0,0,0,0v0.2c0,0.6-0.5,1.1-1.1,1.1l0,0h-0.8c-0.6,0-1.1-0.5-1.1-1.1
		c0,0,0,0,0,0V3.3C89.4,2.7,89.9,2.2,90.6,2.2C90.6,2.2,90.6,2.2,90.6,2.2z M90.6,6.7h1.8v10.9h-2.9V7.8C89.5,7.2,90,6.7,90.6,6.7
		C90.6,6.7,90.6,6.7,90.6,6.7z"/>
	<path class="st0" d="M96.3,6.7H98v1.8c0.5-1.3,1.9-2.1,3.2-2.1c0.8,0,1.6,0.2,2.2,0.8l-1.3,2.2c-0.4-0.2-0.8-0.4-1.3-0.4
		C99.4,9,98,10.2,98,13v4.6h-2.8V7.8C95.2,7.2,95.7,6.7,96.3,6.7C96.3,6.7,96.3,6.7,96.3,6.7z"/>
	<path class="st0" d="M103.8,14.5l1.7-0.7c0.3,0.8,1,1.8,2.6,1.8c1.4,0,1.9-0.7,1.9-1.3c0-1.8-6-0.6-6-4.4c0-2.3,2.1-3.4,4.4-3.4
		c1.7,0,3.1,0.6,4,1.7c0.2,0.3,0.2,0.7-0.1,0.9c0,0-0.1,0.1-0.2,0.1l-1.5,0.8c-0.4-0.7-1.1-1.4-2.4-1.4c-1,0-1.5,0.4-1.5,0.9
		c0,1.6,6.1,0.7,6.1,4.7c0,2.5-2.4,3.6-4.7,3.6c-2.2,0-3.9-1-4.7-2.3C103.3,15.1,103.4,14.7,103.8,14.5
		C103.7,14.5,103.8,14.5,103.8,14.5z"/>
	<path class="st0" d="M116.1,14.6V8.9h-1.9V7.8c0-0.6,0.5-1.1,1.1-1.1l0,0h0.9V4.6c0-0.4,0.2-0.7,0.5-0.9l2.4-1.6v4.6h3v2.2h-3v5.2
		c0,1,0.6,1.4,1.3,1.4c0.6,0,1.3-0.2,1.7-0.4v2.4c-0.7,0.2-1.4,0.3-2.2,0.3C117.5,17.8,116.1,16.5,116.1,14.6z"/>
	<circle class="st0" cx="12.8" cy="12.4" r="3"/>
	<path class="st0" d="M23.5,12.4c0-0.8-0.3-1.6-0.9-2.2l0,0l-3.3-3.6l0,0C16,3,10.5,2.7,6.9,5.9C6.7,6.1,6.5,6.3,6.3,6.6l0,0
		l-3.3,3.6l0,0c-1.2,1.1-1.2,3-0.2,4.2l0,0l0,0c0.1,0.1,0.1,0.1,0.2,0.2l3.3,3.6l0,0c0.2,0.2,0.4,0.4,0.6,0.6v-6.3
		c0-0.1,0-0.1,0-0.2c0-3.3,2.6-5.9,5.9-5.9c3.3,0,5.9,2.6,5.9,5.9c0,3.3-2.6,5.9-5.9,5.9c-1.1,0-2.1-0.3-3-0.8v3.2
		c3.4,1.2,7.1,0.3,9.5-2.4l0,0l3.3-3.6c0.1-0.1,0.1-0.1,0.2-0.2l0,0l0,0C23.3,13.8,23.5,13.1,23.5,12.4z"/>
</g>
</svg>
