<svg id="fe2599e6-2718-415e-ab5e-779d265d604b" data-name="Layer 1" xmlns="http://www.w3.org/2000/svg" viewBox="0 0 1050 200"><title>Outlined Logo copy</title><path d="M236.94,83l-9.74-9.73-37.95-38h0a81.25,81.25,0,0,0-114.89,0h0l-37.95,38L26.67,83h0a13.79,13.79,0,0,0,0,19.5l9.74,9.73,38,38h0c1.24,1.23,2.52,2.41,3.83,3.56v-61h0A53.38,53.38,0,0,1,90.44,58.6a49.94,49.94,0,0,1,3.46-3.81,53.61,53.61,0,1,1,37.91,91.52h0c-1.74,0-3.45-.1-5.14-.26-.57-.05-1.12-.15-1.68-.22-1.13-.15-2.25-.3-3.36-.52-.64-.12-1.28-.28-1.91-.43-.85-.19-1.68-.41-2.51-.64V123.49A34.1,34.1,0,1,0,97.69,92.7v73.72a81.25,81.25,0,0,0,91.56-16.28l37.95-38,9.74-9.73a13.79,13.79,0,0,0,0-19.5ZM131.81,78.08A14.62,14.62,0,1,1,117.18,92.7,14.62,14.62,0,0,1,131.81,78.08Z" fill="#3f46ad"/><path d="M436.48,118.38a13.59,13.59,0,0,1-4.75,10.45,16.68,16.68,0,0,1-11.48,4.3,14.5,14.5,0,0,1-10.63-4.28,14.3,14.3,0,0,1-4.28-10.47V70.48H380.39v50.85a33.2,33.2,0,0,0,9.57,24,31.57,31.57,0,0,0,23.4,9.82,32.25,32.25,0,0,0,24.42-10.68l1.22,9h22.26v-83H436.48Z" fill="#3a3f52"/><path d="M526.68,68.84a31.75,31.75,0,0,0-22,8.21V70.48H480.1v124l24.62.17V146.92a31.79,31.79,0,0,0,22,8.2,35.39,35.39,0,0,0,27.69-12.38c7.21-8.21,10.86-18.55,10.86-30.76s-3.65-22.55-10.86-30.75A35.4,35.4,0,0,0,526.68,68.84Zm-22,34.7a20.1,20.1,0,0,1,6.77-9.28,17.48,17.48,0,0,1,23.92,2.55A22.85,22.85,0,0,1,540.62,112a22.52,22.52,0,0,1-5.21,15.09,17.81,17.81,0,0,1-24,2.55,19.76,19.76,0,0,1-6.69-9.2Z" fill="#3a3f52"/><rect x="580.8" y="70.48" width="24.94" height="83" fill="#3a3f52"/><path d="M593.27,29.48a13.56,13.56,0,0,0-9.78,4.08,13.77,13.77,0,0,0,0,19.74,13.56,13.56,0,0,0,9.78,4.08,13.76,13.76,0,0,0,9.94-4.08,13.77,13.77,0,0,0,0-19.74A13.76,13.76,0,0,0,593.27,29.48Z" fill="#3a3f52"/><path d="M664.9,131.15a9.22,9.22,0,0,1-7,2.8,7.44,7.44,0,0,1-5.86-2.38c-1.44-1.59-2.17-4-2.17-7.12v-95H624.91v94.8c0,9.5,2.81,17.1,8.35,22.58s13.88,8.26,24.79,8.26c7.84,0,14.25-2.08,19-6.19l.34-.29L665.33,130.7Z" fill="#3a3f52"/><polygon points="685.59 153.48 711.35 153.48 711.35 102.81 752.68 102.81 752.68 80.16 711.35 80.16 711.35 51.97 759.57 51.97 759.57 29.48 685.59 29.48 685.59 153.48" fill="#3a3f52"/><path d="M782.85,29.48a13.56,13.56,0,0,0-9.78,4.08,13.77,13.77,0,0,0,0,19.74,13.56,13.56,0,0,0,9.78,4.08,13.76,13.76,0,0,0,9.94-4.08,13.77,13.77,0,0,0,0-19.74A13.76,13.76,0,0,0,782.85,29.48Z" fill="#3a3f52"/><rect x="770.38" y="70.48" width="24.94" height="83" fill="#3a3f52"/><path d="M860.91,68.84c-9.25,0-17,4.49-23.1,13.34l-1.21-11.7H814.16v83h25V112c0-6.39,1.91-11.6,5.68-15.47A17.87,17.87,0,0,1,858,90.67a21,21,0,0,1,12.5,3.68l.45.32,10.47-18.36L881.1,76C876.22,71.26,869.43,68.84,860.91,68.84Z" fill="#3a3f52"/><path d="M946.72,110.67a47.61,47.61,0,0,0-8.12-4.56c-2.57-1.09-5.76-2.25-9.49-3.46-.76-.22-1.8-.55-3.1-1s-2.36-.77-3.13-1-1.69-.52-2.77-.9-2-.7-2.59-1-1.37-.62-2.17-1a9.68,9.68,0,0,1-1.8-1.17c-.42-.37-.88-.81-1.37-1.29a3.39,3.39,0,0,1-.86-1.28,5.15,5.15,0,0,1-.22-1.56c0-2.08,1.26-3.54,3.85-4.45a21.36,21.36,0,0,1,9.54-.8A37,37,0,0,1,943.1,94l.41.3,11.76-16.25-.44-.29c-9.12-5.93-20.52-8.94-33.9-8.94-10.34,0-18.8,2.49-25.15,7.4a23.63,23.63,0,0,0-9.62,19.51A18.35,18.35,0,0,0,888,104a21,21,0,0,0,4.29,6,29.49,29.49,0,0,0,6.76,4.43,49.2,49.2,0,0,0,7.29,3.06q3,.92,7.89,2.38a72.32,72.32,0,0,1,12.86,4.56c2.58,1.34,3.83,3.13,3.83,5.46,0,2.1-1.14,3.61-3.47,4.62a21,21,0,0,1-9.45,1.28,48.19,48.19,0,0,1-13.15-2.85,35.73,35.73,0,0,1-11-5.73l-.45-.37-11,17.77.36.27c8.9,6.82,22.19,10.27,39.5,10.27,10.12,0,18.28-2.41,24.25-7.16s9-11.36,9-19.58a22.56,22.56,0,0,0-2.27-10.31A19.89,19.89,0,0,0,946.72,110.67Z" fill="#3a3f52"/><path d="M1016,130.7l-.43.46a9.24,9.24,0,0,1-7,2.79,7.43,7.43,0,0,1-5.86-2.38c-1.44-1.59-2.17-4-2.17-7.12V89.36H1021V70.48h-20.5V42.6h-25V70.48h-9.84V89.36h9.84v34.92c0,9.5,2.81,17.1,8.35,22.58s13.88,8.26,24.79,8.26c7.85,0,14.25-2.08,19-6.19l.34-.29Z" fill="#3a3f52"/><path d="M305.69,153.29V113.07l.54.05c1.2.12,2.52.2,3.93.26s2.84.08,4.49.08a102.6,102.6,0,0,0,18.22-1.68,46.84,46.84,0,0,0,16.66-6.37,36.69,36.69,0,0,0,12.16-12.78c3.13-5.37,4.72-12.49,4.72-21.16s-1.59-15.82-4.72-21.25a35.54,35.54,0,0,0-12.25-12.77,48.91,48.91,0,0,0-16.94-6.28,106,106,0,0,0-18.59-1.69H279.82V153.29Zm32-71a18.67,18.67,0,0,1-5.58,6.87,22.21,22.21,0,0,1-8,3.72A37.67,37.67,0,0,1,315,94h-4.69a27.58,27.58,0,0,1-4.22-.35l-.42-.06v-44l.45,0c2.2-.23,3.91-.37,5.08-.43S313.69,49,315,49a37.79,37.79,0,0,1,9.13,1.12,21.68,21.68,0,0,1,8,3.81A19.07,19.07,0,0,1,337.73,61a25.32,25.32,0,0,1,2.08,10.79A23.78,23.78,0,0,1,337.73,82.27Z" fill="#3a3f52"/></svg>