<svg id="f23475a9-4a50-42b5-81cb-9aa4f6048b62" data-name="Layer 1" xmlns="http://www.w3.org/2000/svg" viewBox="0 0 25 25"><title>slack-social-icon</title><rect x="10.74" y="10.82" width="3.52" height="3.4" transform="translate(-3.33 4.62) rotate(-18.52)" fill="#7392d9"/><rect x="10.74" y="10.82" width="3.52" height="3.4" transform="translate(-3.33 4.62) rotate(-18.52)" fill="#7392d9"/><path d="M24,9.06C21.37.47,17.66-1.53,9.06,1.05s-10.59,6.29-8,14.89,6.29,10.59,14.89,8S26.53,17.66,24,9.06Zm-4.33,5.58L18,15.18l.56,1.68a1.3,1.3,0,0,1-.82,1.64,1.12,1.12,0,0,1-.44.06,1.33,1.33,0,0,1-1.2-.88L15.54,16,12.2,17.12l.56,1.68a1.29,1.29,0,0,1-.82,1.63,1.12,1.12,0,0,1-.44.06,1.34,1.34,0,0,1-1.2-.87l-.56-1.68-1.62.54a1.12,1.12,0,0,1-.44.06,1.33,1.33,0,0,1-1.2-.88A1.3,1.3,0,0,1,7.3,16l1.62-.54L7.84,12.26l-1.62.54a1.12,1.12,0,0,1-.44.06A1.32,1.32,0,0,1,4.59,12a1.3,1.3,0,0,1,.81-1.64L7,9.8,6.46,8.12A1.3,1.3,0,0,1,8.92,7.3L9.48,9l3.34-1.12-.56-1.68a1.29,1.29,0,0,1,.82-1.63,1.3,1.3,0,0,1,1.64.81L15.28,7,16.9,6.5A1.3,1.3,0,0,1,17.72,9L16.1,9.5l1.08,3.22,1.62-.54a1.29,1.29,0,0,1,1.63.82A1.3,1.3,0,0,1,19.62,14.64Z" fill="#7392d9"/></svg>