<svg xmlns="http://www.w3.org/2000/svg" viewBox="0 0 1440 230"><defs><style>.cls-1{isolation:isolate;}.cls-2{opacity:0.7;}.cls-3,.cls-5{mix-blend-mode:multiply;}.cls-4,.cls-5{fill:#f6f6fa;}</style></defs><title>application-process-stages-bg</title><g class="cls-1"><g id="Layer_1" data-name="Layer 1"><g class="cls-2"><g class="cls-3"><path class="cls-4" d="M1256.21,310.64a7.85,7.85,0,0,1-7.85-7.85V117.61q0-.38,0-.76A60.16,60.16,0,0,1,1255.11,96c7.88-14.36,20.63-22,36.86-22h48a7.85,7.85,0,0,1,0,15.7h-48c-10.3,0-17.79,4.39-22.89,13.43a44.87,44.87,0,0,0-5,15V302.79A7.85,7.85,0,0,1,1256.21,310.64Z"/></g><g class="cls-3"><path class="cls-4" d="M1157,309.94s-.07-54.37-.07-56.28c0-15.72,8.56-27.82,24.11-34.07a66.53,66.53,0,0,1,22.08-4.46h161.38c10.3,0,17.79-4.39,22.89-13.43a44.87,44.87,0,0,0,5-15V79.67a7.85,7.85,0,1,1,15.7,0V187.23q0,.38,0,.76a60.16,60.16,0,0,1-6.71,20.89c-7.88,14.36-20.63,22-36.86,22H1203.17a50.91,50.91,0,0,0-16.6,3.46c-12.48,5.16-13.93,13.52-13.93,19.37,0,1.8.11,56.49.11,56.49Z"/></g><path class="cls-5" d="M1194.4-58.63a7.85,7.85,0,0,0-7.85,7.85V56.32a44.86,44.86,0,0,1-4.81,14.57c-4.45,8.11-10.78,12.58-19.27,13.59h-89.26c-1.52,0-3,.09-4.44.22h-1.71a7.81,7.81,0,0,0-3.29.73c-11.77,2.43-21.15,9.56-27.43,21a60.16,60.16,0,0,0-6.71,20.89q0,.38,0,.76V305.41a7.85,7.85,0,0,0,15.7,0V128.54a44.86,44.86,0,0,1,4.81-14.57c4.45-8.11,10.78-12.58,19.27-13.59h89.26c1.52,0,3-.09,4.44-.22h1.71a7.81,7.81,0,0,0,3.29-.73c11.77-2.43,21.15-9.56,27.43-21a60.16,60.16,0,0,0,6.71-20.89q0-.38,0-.76V-50.78A7.85,7.85,0,0,0,1194.4-58.63Z"/><path class="cls-4" d="M1314.72,139.25c-12.68-12.2-33.46-12-35.79-11.93H834.54c-16.23,0-29,7.59-36.86,22A60.16,60.16,0,0,0,791,170.16q0,.38,0,.76V356.1a7.85,7.85,0,1,0,15.7,0V171.4a44.87,44.87,0,0,1,5-15c5.1-9,12.59-13.43,22.89-13.43h444.81c.16,0,16.22-.4,24.48,7.55,3.27,3.15,4.87,7.29,4.87,12.66V301.61a7.85,7.85,0,0,0,15.7,0V163.23C1324.4,153.5,1321.14,145.43,1314.72,139.25Z"/><g class="cls-3"><path class="cls-4" d="M1111.59,312.39a7.85,7.85,0,0,1-7.85-7.79L1102-2.55a7.85,7.85,0,0,1,7.79-7.91h.06a7.85,7.85,0,0,1,7.85,7.79l1.74,307.14a7.85,7.85,0,0,1-7.79,7.91Z"/></g><path class="cls-4" d="M1243.52,116.07c3.42-31.27-26.37-26.37-26.37-26.37S1212.26,119.49,1243.52,116.07Z"/><path class="cls-4" d="M1206.68,60.23c-3.42-31.27,26.37-26.37,26.37-26.37S1237.95,63.65,1206.68,60.23Z"/><path class="cls-4" d="M1412.8,102.61c-3.42-31.27,26.37-26.37,26.37-26.37S1444.07,106,1412.8,102.61Z"/><path class="cls-4" d="M1097,32.34C1100.42,1.07,1070.63,6,1070.63,6S1065.73,35.76,1097,32.34Z"/><path class="cls-4" d="M1025.19,199.62c3.42-31.27-26.37-26.37-26.37-26.37S993.93,203,1025.19,199.62Z"/><g class="cls-3"><path class="cls-4" d="M686,309.94s-.07-54.37-.07-56.28c0-15.72,8.56-27.82,24.11-34.07a66.53,66.53,0,0,1,22.08-4.46H893.55c10.3,0,17.79-4.39,22.89-13.43a44.87,44.87,0,0,0,5-15V79.67a7.85,7.85,0,1,1,15.7,0V187.23q0,.38,0,.76a60.16,60.16,0,0,1-6.71,20.89c-7.88,14.36-20.63,22-36.86,22H732.2a50.91,50.91,0,0,0-16.6,3.46c-12.48,5.16-13.93,13.52-13.93,19.37,0,1.8.11,56.49.11,56.49Z"/></g><path class="cls-4" d="M941.83,102.61c-3.42-31.27,26.37-26.37,26.37-26.37S973.1,106,941.83,102.61Z"/><path class="cls-4" d="M786.13,180.89c3.42-31.27-26.37-26.37-26.37-26.37S754.86,184.31,786.13,180.89Z"/><g class="cls-3"><path class="cls-4" d="M401.49,310.64a7.85,7.85,0,0,1-7.85-7.85V117.61q0-.38,0-.76A60.16,60.16,0,0,1,400.39,96c7.88-14.36,20.63-22,36.86-22h48a7.85,7.85,0,0,1,0,15.7h-48c-10.3,0-17.79,4.39-22.89,13.43a44.87,44.87,0,0,0-5,15V302.79A7.85,7.85,0,0,1,401.49,310.64Z"/></g><g class="cls-3"><path class="cls-4" d="M302.3,309.94s-.07-54.37-.07-56.28c0-15.72,8.56-27.82,24.11-34.07a66.53,66.53,0,0,1,22.08-4.46H509.8c10.3,0,17.79-4.39,22.89-13.43a44.87,44.87,0,0,0,5-15V79.67a7.85,7.85,0,1,1,15.7,0V187.23q0,.38,0,.76a60.16,60.16,0,0,1-6.71,20.89c-7.88,14.36-20.63,22-36.86,22H348.45a50.91,50.91,0,0,0-16.6,3.46c-12.48,5.16-13.93,13.52-13.93,19.37,0,1.8.11,56.49.11,56.49Z"/></g><path class="cls-5" d="M339.69-58.63a7.85,7.85,0,0,0-7.85,7.85V56.32A44.86,44.86,0,0,1,327,70.88c-4.45,8.11-10.78,12.58-19.27,13.59H218.5c-1.52,0-3,.09-4.44.22h-1.71a7.81,7.81,0,0,0-3.29.73c-11.77,2.43-21.15,9.56-27.43,21a60.16,60.16,0,0,0-6.71,20.89q0,.38,0,.76V305.41a7.85,7.85,0,1,0,15.7,0V128.54A44.86,44.86,0,0,1,195.4,114c4.45-8.11,10.78-12.58,19.27-13.59h89.26c1.52,0,3-.09,4.44-.22h1.71a7.81,7.81,0,0,0,3.29-.73c11.77-2.43,21.15-9.56,27.43-21a60.16,60.16,0,0,0,6.71-20.89q0-.38,0-.76V-50.78A7.85,7.85,0,0,0,339.69-58.63Z"/><path class="cls-4" d="M460,139.25c-12.68-12.2-33.46-12-35.79-11.93H-20.17c-16.23,0-29,7.59-36.86,22a60.16,60.16,0,0,0-6.71,20.89q0,.38,0,.76V356.1A7.85,7.85,0,0,0-55.93,364a7.85,7.85,0,0,0,7.85-7.85V171.4a44.87,44.87,0,0,1,5-15c5.1-9,12.59-13.43,22.89-13.43H424.64c.16,0,16.22-.4,24.48,7.55,3.27,3.15,4.87,7.29,4.87,12.66V301.61a7.85,7.85,0,0,0,15.7,0V163.23C469.68,153.5,466.42,145.43,460,139.25Z"/><g class="cls-3"><path class="cls-4" d="M256.87,312.39a7.85,7.85,0,0,1-7.85-7.79L247.28-2.55a7.85,7.85,0,0,1,7.79-7.91h.06A7.85,7.85,0,0,1,263-2.66l1.74,307.14a7.85,7.85,0,0,1-7.79,7.91Z"/></g><g class="cls-3"><path class="cls-4" d="M598.76,310.36a7.85,7.85,0,0,1-7.85-7.85V225.76a7.85,7.85,0,1,1,15.7,0v76.75A7.85,7.85,0,0,1,598.76,310.36Z"/></g><g class="cls-3"><path class="cls-4" d="M644.11,310.36a7.85,7.85,0,0,1-7.85-7.85V195.23a7.85,7.85,0,0,1,15.7,0V302.51A7.85,7.85,0,0,1,644.11,310.36Z"/></g><path class="cls-4" d="M388.81,116.07c3.42-31.27-26.37-26.37-26.37-26.37S357.54,119.49,388.81,116.07Z"/><path class="cls-4" d="M631.76,214c3.42-31.27-26.37-26.37-26.37-26.37S600.49,217.45,631.76,214Z"/><path class="cls-4" d="M352,60.23C348.54,29,378.33,33.86,378.33,33.86S383.23,63.65,352,60.23Z"/><path class="cls-4" d="M558.08,102.61c-3.42-31.27,26.37-26.37,26.37-26.37S589.35,106,558.08,102.61Z"/><path class="cls-4" d="M242.28,32.34C245.7,1.07,215.91,6,215.91,6S211,35.76,242.28,32.34Z"/><path class="cls-4" d="M170.47,199.62c3.42-31.27-26.37-26.37-26.37-26.37S139.21,203,170.47,199.62Z"/><g class="cls-3"><path class="cls-4" d="M-168.67,309.94s-.07-54.37-.07-56.28c0-15.72,8.56-27.82,24.11-34.07a66.53,66.53,0,0,1,22.08-4.46H38.84c10.3,0,17.79-4.39,22.89-13.43a44.87,44.87,0,0,0,5-15V79.67a7.85,7.85,0,0,1,15.7,0V187.23q0,.38,0,.76a60.16,60.16,0,0,1-6.71,20.89c-7.88,14.36-20.63,22-36.86,22H-122.51a50.91,50.91,0,0,0-16.6,3.46C-151.6,239.46-153,247.82-153,253.67c0,1.8.11,56.49.11,56.49Z"/></g><path class="cls-4" d="M87.12,102.61c-3.42-31.27,26.37-26.37,26.37-26.37S118.38,106,87.12,102.61Z"/></g></g></g></svg>