<svg xmlns="http://www.w3.org/2000/svg" viewBox="0 0 1440 400"><defs><style>.cls-1{isolation:isolate;}.cls-2{opacity:0.7;}.cls-3,.cls-5{mix-blend-mode:multiply;}.cls-4,.cls-5{fill:#f6f6fa;}.cls-6{fill:#eff5f8;}.cls-7{fill:#b7d1e5;}.cls-8{fill:#3273ad;}.cls-9{fill:#fff;}.cls-10{fill:#0aa5e3;}.cls-11{fill:#caedff;}.cls-12{fill:#e3b462;}.cls-13{fill:#cdebfc;}.cls-14{fill:none;stroke:#3273ad;stroke-linecap:round;stroke-linejoin:round;stroke-width:0.75px;stroke-dasharray:1 6;}.cls-15{fill:#c3f1fc;}.cls-16{fill:#fad264;}.cls-17{fill:#63d398;}</style></defs><title>Artboard 1</title><g class="cls-1"><g id="Layer_1" data-name="Layer 1"><g class="cls-2"><g class="cls-3"><path class="cls-4" d="M1332.08,472.59a9,9,0,0,1-9-9V251.26q0-.44,0-.87a69,69,0,0,1,7.69-24c9-16.47,23.65-25.17,42.26-25.17h55a9,9,0,0,1,0,18h-55c-11.81,0-20.4,5-26.25,15.4a51.44,51.44,0,0,0-5.75,17.15V463.59A9,9,0,0,1,1332.08,472.59Z"/></g><g class="cls-3"><path class="cls-4" d="M1218.34,471.79s-.08-62.33-.08-64.52c0-18,9.82-31.9,27.65-39.06a76.28,76.28,0,0,1,25.32-5.11h185c11.81,0,20.4-5,26.25-15.4a51.44,51.44,0,0,0,5.75-17.15V207.76a9,9,0,1,1,18,0V331.09q0,.44,0,.87a69,69,0,0,1-7.69,24c-9,16.47-23.65,25.17-42.26,25.17h-185a58.37,58.37,0,0,0-19,4c-14.31,5.91-16,15.5-16,22.21,0,2.07.13,64.77.13,64.77Z"/></g><path class="cls-5" d="M1261.21,49.19a9,9,0,0,0-9,9V181a51.44,51.44,0,0,1-5.51,16.7c-5.1,9.3-12.36,14.43-22.09,15.58H1122.26c-1.74,0-3.43.1-5.09.25h-2a9,9,0,0,0-3.77.83c-13.49,2.79-24.25,11-31.45,24.08a69,69,0,0,0-7.69,24q0,.44,0,.87V466.59a9,9,0,1,0,18,0V263.79a51.44,51.44,0,0,1,5.51-16.7c5.1-9.3,12.36-14.43,22.09-15.58h102.35c1.74,0,3.43-.1,5.09-.25h2a9,9,0,0,0,3.77-.83c13.49-2.79,24.25-11,31.45-24.08a69,69,0,0,0,7.69-24q0-.44,0-.87V58.19A9,9,0,0,0,1261.21,49.19Z"/><path class="cls-4" d="M1399.16,276.08c-14.54-14-38.36-13.75-41-13.68H848.6c-18.61,0-33.23,8.7-42.26,25.17a69,69,0,0,0-7.69,24q0,.44,0,.87V524.71a9,9,0,0,0,18,0V312.93a51.44,51.44,0,0,1,5.75-17.15c5.85-10.36,14.43-15.4,26.25-15.4h510c.18,0,18.59-.46,28.07,8.66,3.75,3.61,5.58,8.36,5.58,14.51V462.23a9,9,0,1,0,18,0V303.56C1410.26,292.41,1406.53,283.16,1399.16,276.08Z"/><g class="cls-3"><path class="cls-4" d="M1166.26,474.59a9,9,0,0,1-9-8.93l-2-352.16a9,9,0,0,1,8.93-9.07h.07a9,9,0,0,1,9,8.93l2,352.16a9,9,0,0,1-8.93,9.07Z"/></g><path class="cls-4" d="M1246.53,96.49c3.92-35.85-30.24-30.24-30.24-30.24S1210.68,100.41,1246.53,96.49Z"/><path class="cls-4" d="M1317.53,249.49c3.92-35.85-30.24-30.24-30.24-30.24S1281.68,253.41,1317.53,249.49Z"/><path class="cls-4" d="M1275.28,185.47c-3.92-35.85,30.24-30.24,30.24-30.24S1311.13,189.39,1275.28,185.47Z"/><path class="cls-4" d="M1149.53,153.49c3.92-35.85-30.24-30.24-30.24-30.24S1113.68,157.41,1149.53,153.49Z"/><path class="cls-4" d="M1067.2,345.29c3.92-35.85-30.24-30.24-30.24-30.24S1031.35,349.21,1067.2,345.29Z"/><g class="cls-3"><path class="cls-4" d="M678.34,471.79s-.08-62.33-.08-64.52c0-18,9.82-31.9,27.65-39.06a76.28,76.28,0,0,1,25.32-5.11h185c11.81,0,20.4-5,26.25-15.4a51.44,51.44,0,0,0,5.75-17.15V207.76a9,9,0,0,1,18,0V331.09q0,.44,0,.87a69,69,0,0,1-7.69,24c-9,16.47-23.65,25.17-42.26,25.17h-185a58.37,58.37,0,0,0-19,4c-14.31,5.91-16,15.5-16,22.21,0,2.07.13,64.77.13,64.77Z"/></g><path class="cls-4" d="M971.62,234.06c-3.92-35.85,30.24-30.24,30.24-30.24S1007.47,238,971.62,234.06Z"/><path class="cls-4" d="M793.09,323.82c3.92-35.85-30.24-30.24-30.24-30.24S757.24,327.74,793.09,323.82Z"/><g class="cls-3"><path class="cls-4" d="M352.08,472.59a9,9,0,0,1-9-9V251.26q0-.44,0-.87a69,69,0,0,1,7.69-24c9-16.47,23.65-25.17,42.26-25.17h55a9,9,0,0,1,0,18h-55c-11.81,0-20.4,5-26.25,15.4a51.44,51.44,0,0,0-5.75,17.15V463.59A9,9,0,0,1,352.08,472.59Z"/></g><g class="cls-3"><path class="cls-4" d="M238.34,471.79s-.08-62.33-.08-64.52c0-18,9.82-31.9,27.65-39.06a76.28,76.28,0,0,1,25.32-5.11h185c11.81,0,20.4-5,26.25-15.4a51.44,51.44,0,0,0,5.75-17.15V207.76a9,9,0,0,1,18,0V331.09q0,.44,0,.87a69,69,0,0,1-7.69,24c-9,16.47-23.65,25.17-42.26,25.17h-185a58.37,58.37,0,0,0-19,4c-14.31,5.91-16,15.5-16,22.21,0,2.07.13,64.77.13,64.77Z"/></g><path class="cls-5" d="M281.21,49.19a9,9,0,0,0-9,9V181a51.44,51.44,0,0,1-5.51,16.7c-5.1,9.3-12.36,14.43-22.09,15.58H142.26c-1.74,0-3.43.1-5.09.25h-2a9,9,0,0,0-3.77.83c-13.49,2.79-24.25,11-31.45,24.08a69,69,0,0,0-7.69,24q0,.44,0,.87V466.59a9,9,0,0,0,18,0V263.79a51.44,51.44,0,0,1,5.51-16.7c5.1-9.3,12.36-14.43,22.09-15.58H240.21c1.74,0,3.43-.1,5.09-.25h2a9,9,0,0,0,3.77-.83c13.49-2.79,24.25-11,31.45-24.08a69,69,0,0,0,7.69-24q0-.44,0-.87V58.19A9,9,0,0,0,281.21,49.19Z"/><path class="cls-4" d="M419.16,276.08c-14.54-14-38.36-13.75-41-13.68H-131.4c-18.61,0-33.23,8.7-42.26,25.17a69,69,0,0,0-7.69,24q0,.44,0,.87V524.71a9,9,0,0,0,9,9,9,9,0,0,0,9-9V312.93a51.44,51.44,0,0,1,5.75-17.15c5.85-10.36,14.43-15.4,26.25-15.4h510c.18,0,18.59-.46,28.07,8.66,3.75,3.61,5.58,8.36,5.58,14.51V462.23a9,9,0,0,0,18,0V303.56C430.26,292.41,426.53,283.16,419.16,276.08Z"/><g class="cls-3"><path class="cls-4" d="M186.26,474.59a9,9,0,0,1-9-8.93l-2-352.16a9,9,0,0,1,8.93-9.07h.07a9,9,0,0,1,9,8.93l2,352.16a9,9,0,0,1-8.93,9.07Z"/></g><g class="cls-3"><path class="cls-4" d="M578.26,472.26a9,9,0,0,1-9-9v-88a9,9,0,0,1,18,0v88A9,9,0,0,1,578.26,472.26Z"/></g><g class="cls-3"><path class="cls-4" d="M630.26,472.26a9,9,0,0,1-9-9v-123a9,9,0,0,1,18,0v123A9,9,0,0,1,630.26,472.26Z"/></g><path class="cls-4" d="M266.53,96.49c3.92-35.85-30.24-30.24-30.24-30.24S230.68,100.41,266.53,96.49Z"/><path class="cls-4" d="M337.53,249.49c3.92-35.85-30.24-30.24-30.24-30.24S301.68,253.41,337.53,249.49Z"/><path class="cls-4" d="M616.09,361.82c3.92-35.85-30.24-30.24-30.24-30.24S580.24,365.74,616.09,361.82Z"/><path class="cls-4" d="M295.28,185.47c-3.92-35.85,30.24-30.24,30.24-30.24S331.13,189.39,295.28,185.47Z"/><path class="cls-4" d="M531.62,234.06c-3.92-35.85,30.24-30.24,30.24-30.24S567.47,238,531.62,234.06Z"/><path class="cls-4" d="M169.53,153.49c3.92-35.85-30.24-30.24-30.24-30.24S133.68,157.41,169.53,153.49Z"/><path class="cls-4" d="M87.2,345.29C91.11,309.44,57,315.05,57,315.05S51.35,349.21,87.2,345.29Z"/><path class="cls-4" d="M-8.38,234.06c-3.92-35.85,30.24-30.24,30.24-30.24S27.47,238-8.38,234.06Z"/></g><path class="cls-6" d="M1047.65,293.41h42.86a3.77,3.77,0,0,1,0,7.53h-5.59a3.77,3.77,0,1,0,0,7.53h12.21a3.77,3.77,0,0,1,0,7.53h-42.86a3.77,3.77,0,0,1,0-7.53H1066a3.77,3.77,0,0,0,0-7.53h-18.31a3.77,3.77,0,0,1,0-7.53Z"/><path class="cls-6" d="M1133,249.08h53.09a3.3,3.3,0,0,0,0-6.59h-20.47a3.3,3.3,0,0,1,0-6.59h10.68a3.3,3.3,0,0,0,0-6.59h-37.51a3.3,3.3,0,0,0,0,6.59H1149a3.3,3.3,0,0,1,0,6.59h-16a3.3,3.3,0,0,0,0,6.59Z"/><path class="cls-6" d="M1353.51,317.86h-50.14a3.77,3.77,0,0,1,0-7.53h12.86a3.77,3.77,0,0,0,0-7.53h-8.05a3.77,3.77,0,0,1,0-7.53h32.47a3.77,3.77,0,0,1,0,7.53h-5.46a3.77,3.77,0,1,0,0,7.53h18.31a3.77,3.77,0,0,1,0,7.53Z"/><path class="cls-6" d="M1248.2,242.44h50.14a3.77,3.77,0,1,1,0,7.53h-12.86a3.77,3.77,0,0,0,0,7.53h8.05a3.77,3.77,0,0,1,0,7.53h-32.47a3.77,3.77,0,0,1,0-7.53h5.46a3.77,3.77,0,0,0,0-7.53H1248.2a3.77,3.77,0,1,1,0-7.53Z"/><path class="cls-6" d="M441.49,304.53H398.63a3.77,3.77,0,0,0,0,7.53h5.59a3.77,3.77,0,1,1,0,7.53H392a3.77,3.77,0,0,0,0,7.53h42.86a3.77,3.77,0,0,0,0-7.53H423.18a3.77,3.77,0,0,1,0-7.53h18.31a3.77,3.77,0,0,0,0-7.53Z"/><path class="cls-6" d="M356.16,260.21H303.06a3.3,3.3,0,1,1,0-6.59h20.47a3.3,3.3,0,0,0,0-6.59H312.85a3.3,3.3,0,0,1,0-6.59h37.51a3.3,3.3,0,1,1,0,6.59H340.13a3.3,3.3,0,0,0,0,6.59h16a3.3,3.3,0,1,1,0,6.59Z"/><path class="cls-6" d="M135.63,329h50.14a3.77,3.77,0,0,0,0-7.53H172.91a3.77,3.77,0,0,1,0-7.53H181a3.77,3.77,0,0,0,0-7.53H148.49a3.77,3.77,0,0,0,0,7.53h5.46a3.77,3.77,0,1,1,0,7.53H135.63a3.77,3.77,0,0,0,0,7.53Z"/><path class="cls-6" d="M240.94,253.56H190.81a3.77,3.77,0,0,0,0,7.53h12.86a3.77,3.77,0,1,1,0,7.53h-8.05a3.77,3.77,0,0,0,0,7.53h32.47a3.77,3.77,0,1,0,0-7.53h-5.46a3.77,3.77,0,0,1,0-7.53h18.31a3.77,3.77,0,0,0,0-7.53Z"/><path class="cls-7" d="M306.46,319.8v4.58a9.21,9.21,0,0,0,7.89,3.54c5.46-.15,6.85-4.06,6.85-4.06v-4.62"/><path class="cls-8" d="M314,328.35a9.51,9.51,0,0,1-7.91-3.74l-.07-.11v-4.7h.85v4.44a8.73,8.73,0,0,0,7.45,3.25c4.77-.13,6.23-3.21,6.43-3.71v-4.54h.85l0,4.76c-.06.17-1.55,4.18-7.24,4.34Z"/><path class="cls-7" d="M321.2,323.86s28.29-2.72,26.11,25.92H279.93s-.52-27.1,26.53-25.41"/><path class="cls-8" d="M347.71,350.21H279.51v-.42c0-.12-.14-12.32,7.76-19.89,4.65-4.46,11.12-6.46,19.22-6l-.05.85c-7.85-.49-14.1,1.43-18.57,5.71-6.82,6.53-7.45,16.67-7.5,18.84h66.55c.55-8.18-1.4-14.5-5.78-18.8-7.51-7.37-19.77-6.29-19.89-6.27l-.08-.85c.13,0,12.77-1.13,20.57,6.51,4.64,4.55,6.67,11.24,6,19.87Z"/><rect class="cls-8" x="288.69" y="341.62" width="0.85" height="8.16"/><rect class="cls-8" x="339.33" y="342.39" width="0.85" height="7.39"/><path class="cls-7" d="M299.83,324.58s14.49,26.12,29.11-.28"/><path class="cls-8" d="M314.8,336.54c-8.73,0-15.08-11.27-15.35-11.75l.75-.41c.06.11,6.38,11.31,14.6,11.31h0c4.87,0,9.5-3.9,13.75-11.59l.75.41c-4.42,8-9.29,12-14.5,12Z"/><path class="cls-9" d="M331.53,268.2s2.26,13.11,0,21.21-25.1,40.48-34.64-2.7a134.69,134.69,0,0,1,.75-18.74Z"/><path class="cls-8" d="M311.77,309.11h-.25c-6.76-.18-11.82-7.69-15-22.3a134.56,134.56,0,0,1,.75-18.89l.05-.37,34.62.24.06.35c.09.54,2.25,13.3,0,21.39C330.57,294.46,321.27,309.11,311.77,309.11ZM298,268.4a137,137,0,0,0-.7,18.3c3.12,14.1,7.91,21.38,14.22,21.55h.23c8.92,0,18.06-14.33,19.35-19,2-7.18.38-18.53,0-20.67Z"/><path class="cls-10" d="M332.53,281.73s6-6,3.82-14.58l-4.81,1.05Z"/><path class="cls-8" d="M332.17,282.69l-1.09-14.83,5.57-1.22.1.4c2.24,8.67-3.86,14.93-3.93,15ZM332,268.54l.89,12.12a15.64,15.64,0,0,0,3.15-13Z"/><path class="cls-10" d="M296.89,284s-5.63-8.11-3.58-16.63l4.33.59Z"/><path class="cls-8" d="M297.26,285.3l-.72-1c-.23-.34-5.71-8.37-3.64-17l.09-.38,5.1.69Zm-3.62-17.44c-1.34,6.25,1.49,12.28,2.89,14.74l.67-14.26Z"/><rect class="cls-8" x="287.89" y="276.92" width="18.76" height="0.86" transform="translate(7.98 563) rotate(-87.65)"/><path class="cls-10" d="M293.94,267c18.07-9.79,46.25-1.52,46.25-1.52-9.41,6.52-46.88,1.95-46.88,1.95a23.45,23.45,0,0,1,2.82-10c2.64-4.33,16.38-7.53,16.38-7.53s16.94-.68,22.59,14.19"/><path class="cls-8" d="M318.54,269.39a235.89,235.89,0,0,1-25.27-1.58l-.39,0v-.39a23.62,23.62,0,0,1,2.89-10.19c2.7-4.43,16.08-7.59,16.65-7.73.26,0,17.36-.53,23.07,14.41,2.95.62,4.75,1.14,4.82,1.16l.86.25-.74.51C336.41,268.58,327.53,269.39,318.54,269.39Zm-23.95-2.29c6.32.69,35.26,3.5,44.53-1.51C334.12,264.29,310.45,258.85,294.59,267.1Zm-.82-.09.21,0-.19-.34Zm19-16.71h-.25c-.06,0-13.52,3.2-16,7.33a22.38,22.38,0,0,0-2.7,8.92c13-7,31.42-4.72,40.68-2.88C329.2,250.78,314.87,250.3,312.79,250.3Z"/><path class="cls-8" d="M302.32,264.07l-.68-.52,10.8-14.27.34.26c.4.3,9.73,7.38,11.26,12.92l-.82.23c-1.29-4.69-8.91-10.86-10.62-12.2Z"/><path class="cls-8" d="M311.57,274.77c-5.18-4.26-9.12-.21-9.28,0l-.62-.59s4.65-4.8,10.45,0Z"/><path class="cls-8" d="M328,273.75a5.63,5.63,0,0,0-7.47,0l-.57-.64s4.23-3.67,8.58,0Z"/><path class="cls-8" d="M132.72,350.43h-5.46a.49.49,0,1,1,0-1h5.46a.49.49,0,1,1,0,1Z"/><path class="cls-8" d="M438.57,350.43H137.23a.52.52,0,1,1,0-1H438.57a.52.52,0,0,1,0,1Z"/><path class="cls-8" d="M447.92,350.43h-3.76a.52.52,0,0,1,0-1h3.76a.52.52,0,0,1,0,1Z"/><path class="cls-7" d="M241.22,328.41s20.71-2.24,19.12,21.37H211s1.29-22.35,22-21.43Z"/><path class="cls-8" d="M260.74,350.21H210.55l0-.45c0-.23,1.55-22.77,22.48-21.83l8.14.06c.61-.06,8.76-.77,14.43,4.67,3.92,3.77,5.65,9.54,5.13,17.16Zm-49.26-.85h48.46c.41-7.16-1.23-12.57-4.9-16.08-5.48-5.27-13.69-4.45-13.77-4.44h0l-8.18-.06C214.59,328,211.81,346.23,211.47,349.36Z"/><path class="cls-10" d="M212.4,300s-7.3-23.11,5-25.64c0,0,1.94-15.23,16-7.62,0,0,10.16-7,14.6.76a7.73,7.73,0,0,1,6.73,7.24s4.06-.76,4.7,4.7-1.08,20.18-1.08,20.18"/><path class="cls-8" d="M212,300.15c-.19-.6-4.61-14.82-.29-22.17a8.18,8.18,0,0,1,5.36-4c.23-1.35,1.39-6.79,5.59-9,2.87-1.47,6.5-1.07,10.79,1.2,1.09-.7,5.95-3.61,10.26-2.62a7.15,7.15,0,0,1,4.63,3.48,8.17,8.17,0,0,1,6.84,7.17,4.24,4.24,0,0,1,2.66.81,5.92,5.92,0,0,1,2.1,4.3c.63,5.45-1,19.67-1.08,20.28l-.85-.1c0-.15,1.7-14.73,1.08-20.08a5.12,5.12,0,0,0-1.75-3.71,3.43,3.43,0,0,0-2.44-.61l-.45.09-.05-.46c-.71-6.29-6.11-6.84-6.34-6.86l-.22,0-.11-.19a6.38,6.38,0,0,0-4.18-3.26c-4.44-1-9.75,2.6-9.8,2.64l-.22.15-.23-.12c-4.13-2.23-7.56-2.67-10.22-1.31-4.32,2.21-5.18,8.54-5.19,8.6l0,.3-.3.06a7.39,7.39,0,0,0-5.09,3.61c-4.13,7,.32,21.34.37,21.48Z"/><path class="cls-9" d="M217.45,307s-8.09.72-5-7c0,0,2-2.29,4.07-1.4"/><path class="cls-8" d="M216.91,307.49c-1.12,0-3.59-.21-4.86-1.9-1-1.34-1-3.26,0-5.72l.08-.13c.09-.1,2.27-2.5,4.56-1.5l-.34.78c-1.56-.68-3.22.92-3.53,1.24-.82,2.13-.84,3.75,0,4.82,1.35,1.81,4.64,1.55,4.68,1.54l.08.85S217.24,307.49,216.91,307.49Z"/><path class="cls-9" d="M230.43,325.07v3.77a6.57,6.57,0,0,0,5.78,2.92,5.26,5.26,0,0,0,5-3.34v-3.81"/><path class="cls-8" d="M236,332.19a6.93,6.93,0,0,1-5.9-3.14L230,329v-3.89h.85v3.65a6.14,6.14,0,0,0,5.33,2.62,4.88,4.88,0,0,0,4.6-3v-3.73h.85l0,3.94a5.74,5.74,0,0,1-5.41,3.64Z"/><path class="cls-9" d="M254.13,299.89s4.36-1.78,5.5,1,1.82,7-5.5,6.15"/><path class="cls-8" d="M255.84,307.59a15.74,15.74,0,0,1-1.76-.11l.1-.85c2.71.31,4.48-.06,5.26-1.09s.37-3.07-.2-4.47c-1-2.37-4.9-.8-4.94-.78l-.32-.79c.19-.08,4.77-1.9,6.06,1.25,1,2.34,1,4.13.09,5.31C259.35,307.08,257.91,307.59,255.84,307.59Z"/><path class="cls-9" d="M216.72,289.1s-3.81,37.58,18.28,36.31c0,0,23.87,3,18.28-37.83,0,0-9,.63-11.3-5.08,0,0-1.4-1.4-1.65,2s-3.55,8.38-10.79,3.68c0,0-5.71,5.33-10.92.89C218.62,289.1,216.86,287.05,216.72,289.1Z"/><path class="cls-8" d="M236.14,325.9a10.22,10.22,0,0,1-1.2-.06,14.26,14.26,0,0,1-11.63-4.36c-3.88-4.05-6.24-10.75-7-19.9a76.07,76.07,0,0,1,0-12.51c.05-.7.29-1.12.71-1.26.77-.25,1.69.71,1.95,1,4.8,4.09,10.08-.72,10.3-.92l.24-.23.28.18c2.84,1.84,5.33,2.32,7.22,1.39a5.86,5.86,0,0,0,2.91-4.74c.12-1.57.47-2.41,1.12-2.65a1.27,1.27,0,0,1,1.26.35l.09.14c2.14,5.35,10.78,4.82,10.87,4.81l.4,0,.05.4c2.19,16,.18,27.3-6,33.51A16.37,16.37,0,0,1,236.14,325.9ZM235,325a15.71,15.71,0,0,0,12.17-4.57c5.9-6,7.83-16.86,5.77-32.39-1.81.06-9.11-.07-11.28-5.27-.09-.07-.22-.14-.31-.1s-.44.21-.56,1.91a6.67,6.67,0,0,1-3.39,5.45c-1.48.73-4,1.09-7.79-1.27-1.2,1-6.43,4.78-11.23.68a2.41,2.41,0,0,0-1.08-.81.94.94,0,0,0-.12.51h0c0,.22-2.15,22.4,6.79,31.74A13.52,13.52,0,0,0,235,325Z"/><rect class="cls-8" x="220.31" y="297.24" width="10.21" height="0.85" transform="translate(-51.33 47) rotate(-10.7)"/><rect class="cls-8" x="244.73" y="292.38" width="0.86" height="10.58" transform="translate(-91.77 485.27) rotate(-79.63)"/><path class="cls-8" d="M235.47,308.58h-.2c-2.67-.29-3.21-3.28-3.23-3.4l.84-.14c0,.1.45,2.48,2.46,2.69h0a3.4,3.4,0,0,0,2.28-.73,2.36,2.36,0,0,0,.63-1.87l.85,0a3.18,3.18,0,0,1-.89,2.52A4.09,4.09,0,0,1,235.47,308.58Z"/><path class="cls-8" d="M237.49,318.22h-3.65l-2.06-4.28h9Zm-3.11-.85h2.7l2-2.57h-5.94Z"/><polygon class="cls-8" points="236.63 349.79 235.78 349.79 235.78 337.79 226.31 329.19 226.89 328.56 236.63 337.41 236.63 349.79"/><rect class="cls-8" x="234.43" y="332.81" width="12.5" height="0.85" transform="translate(-164.2 262.19) rotate(-44.21)"/><rect class="cls-8" x="217.31" y="343.06" width="0.85" height="6.73"/><rect class="cls-8" x="254.38" y="343.69" width="0.85" height="6.09"/><circle class="cls-8" cx="225.61" cy="302.57" r="1.28"/><circle class="cls-8" cx="243.89" cy="302.57" r="1.28"/><rect class="cls-11" x="265.76" y="275.68" width="98.32" height="61.57" rx="2.27" ry="2.27"/><path class="cls-8" d="M361.81,337.68H268a2.7,2.7,0,0,1-2.69-2.69v-57a2.7,2.7,0,0,1,2.69-2.69h93.79a2.7,2.7,0,0,1,2.69,2.69v57A2.7,2.7,0,0,1,361.81,337.68ZM268,276.11a1.84,1.84,0,0,0-1.84,1.84v57a1.84,1.84,0,0,0,1.84,1.84h93.79a1.84,1.84,0,0,0,1.84-1.84v-57a1.84,1.84,0,0,0-1.84-1.84Z"/><rect class="cls-10" x="302.8" y="296.52" width="24.24" height="27.46" rx="2.27" ry="2.27"/><path class="cls-8" d="M324.77,324.41H305.06a2.7,2.7,0,0,1-2.69-2.69V298.79a2.7,2.7,0,0,1,2.69-2.69h19.71a2.7,2.7,0,0,1,2.69,2.69v22.93A2.7,2.7,0,0,1,324.77,324.41ZM305.06,297a1.84,1.84,0,0,0-1.84,1.84v22.93a1.84,1.84,0,0,0,1.84,1.84h19.71a1.84,1.84,0,0,0,1.84-1.84V298.79a1.84,1.84,0,0,0-1.84-1.84Z"/><rect class="cls-8" x="266.85" y="327.82" width="97.68" height="0.85"/><rect class="cls-9" x="307.9" y="303.32" width="14.05" height="46.37" rx="2.27" ry="2.27"/><path class="cls-8" d="M319.68,350.11h-9.51a2.7,2.7,0,0,1-2.69-2.69V305.58a2.7,2.7,0,0,1,2.69-2.69h9.51a2.7,2.7,0,0,1,2.69,2.69v41.84A2.7,2.7,0,0,1,319.68,350.11Zm-9.51-46.37a1.84,1.84,0,0,0-1.84,1.84v41.84a1.84,1.84,0,0,0,1.84,1.84h9.51a1.84,1.84,0,0,0,1.84-1.84V305.58a1.84,1.84,0,0,0-1.84-1.84Z"/><path class="cls-10" d="M418.75,292.24l-3.05,13.07s-24.18-19.39-39.22,3.49c0,0-12.61-33.12,19.61-33.12C403.72,275.68,414.83,277.42,418.75,292.24Z"/><path class="cls-8" d="M376.38,309.73l-.3-.78a44.24,44.24,0,0,1-2.16-9.15c-.6-4.76-.57-11.52,3-16.68s10.05-7.87,19.18-7.87c4.6,0,18.6,0,23.07,16.88l0,.1L416,306.07l-.53-.42c-.12-.09-11.64-9.18-23.46-7.32-6,.95-11.09,4.55-15.14,10.71Zm19.71-33.62c-8.83,0-15,2.52-18.47,7.49-5.68,8.24-2.09,21-1,24.25,4.11-5.93,9.23-9.42,15.24-10.37,10.72-1.7,21.14,5.31,23.59,7.1l2.88-12.33C414.43,277.79,403.78,276.11,396.09,276.11Z"/><path class="cls-8" d="M414.33,315.39l-.17-.84c2.77-.58,4.31-1.51,4.58-2.76.42-2-2.46-4.55-3.6-5.37l.5-.69c.19.13,4.56,3.32,3.94,6.24C419.23,313.59,417.47,314.74,414.33,315.39Z"/><path class="cls-9" d="M376.48,308.8s-4.65,5.45,2.18,7.77"/><path class="cls-8" d="M378.52,317c-2.16-.74-3.47-1.87-3.88-3.36-.68-2.49,1.42-5,1.51-5.1l.65.55s-1.9,2.27-1.34,4.32c.33,1.2,1.45,2.13,3.33,2.77Z"/><path class="cls-10" d="M387.76,324.43l-11.27.13.35-8.84a33.39,33.39,0,0,0,3.85,1.71h0"/><path class="cls-8" d="M376,325l.4-10,.6.33a33.27,33.27,0,0,0,3.79,1.69l1,.36-.3.8-1-.36a35,35,0,0,1-3.3-1.43l-.31,7.73,10.82-.13v.85Z"/><path class="cls-10" d="M407.31,322.61h10.86l-2.47-8s-2.33-.29-3.91,3.29"/><path class="cls-8" d="M418.75,323H407.31v-.85h10.28l-2.2-7.15c-.6.06-2.07.47-3.2,3l-.78-.35c1.69-3.82,4.25-3.55,4.35-3.54l.27,0Z"/><path class="cls-7" d="M376.8,348.81V337.92s3.9-7,9-7.12c0,0-3.61-4.14,4.36-4.35s19.48-4.8,20.13,4.35c0,0,7.18,1.45,7.91,6.83v11.18"/><path class="cls-8" d="M418.6,348.82h-.85V337.63c-.67-5-7.5-6.39-7.57-6.41l-.32-.06,0-.32a5.3,5.3,0,0,0-1.77-4c-2.42-2-7.13-1.28-11.69-.62a56.34,56.34,0,0,1-6.24.67c-3.34.09-4.38.86-4.66,1.49-.41.94.6,2.14.61,2.15l.59.68-.9,0c-4.47.13-8.08,6-8.56,6.8v10.78h-.85v-11l.05-.1c.16-.28,3.71-6.53,8.59-7.27a2.72,2.72,0,0,1-.3-2.41c.56-1.27,2.33-1.92,5.42-2a55.59,55.59,0,0,0,6.14-.66c4.74-.68,9.63-1.38,12.35.8a6,6,0,0,1,2.06,4.28c1.44.36,7.25,2.1,7.93,7.12Z"/><rect class="cls-8" x="411.79" y="342.28" width="0.85" height="6.54"/><rect class="cls-8" x="397.06" y="336.97" width="0.85" height="11.85"/><rect class="cls-8" x="383.17" y="342.28" width="0.85" height="6.54"/><path class="cls-8" d="M397.68,337h0c-5.54,0-9.42-4.7-9.58-4.9l.66-.54s3.8,4.57,8.93,4.58h0c3.25,0,6.38-1.79,9.3-5.31l.66.55C404.55,335.1,401.2,337,397.68,337Z"/><path class="cls-9" d="M392.82,326.45v2.17s-6-.15-2.54,2.47,10.2,5.37,14.9-1.16c0,0-.23-2.47-3.21-2.32v-2.24"/><path class="cls-8" d="M397.95,334.4a14.08,14.08,0,0,1-7.92-3c-.37-.28-1.52-1.14-1.2-2s2.47-1.19,3.57-1.21v-1.74h.85v2.61h-.44c-1.39,0-3,.23-3.18.63,0,0-.1.32.91,1.07,1.34,1,4.87,3.28,8.64,2.7a8.48,8.48,0,0,0,5.56-3.63c-.1-.49-.58-1.87-2.74-1.79l-.45,0v-2.69h.85v1.81a3.14,3.14,0,0,1,3.21,2.71l0,.16-.09.13a9.37,9.37,0,0,1-6.23,4.11A9,9,0,0,1,397.95,334.4Z"/><path class="cls-9" d="M376.48,308.8s5.45,18.08,19.17,17.65,19.83-11.55,20-21.13l-2-7.19h-6.1l-5.23-12.42L400,296.16,378.23,299Z"/><path class="cls-8" d="M395.17,326.88c-13.53,0-19-17.78-19.1-18l0-.1,1.82-10.21,21.8-2.83,2.63-11.46,5.63,13.38h6.14l2.06,7.56v.06c-.23,10.07-6.73,21.12-20.46,21.55Zm-18.25-18.11c.45,1.4,6,17.67,18.72,17.25,13.15-.42,19.38-11,19.63-20.65l-1.86-6.81h-6.06l-4.83-11.46-2.17,9.46-21.77,2.83Z"/><path class="cls-8" d="M401.31,303.94l-.42-.74a15.79,15.79,0,0,1,9.44-1.78l-.15.84C405.69,301.48,401.36,303.92,401.31,303.94Z"/><path class="cls-8" d="M382,305l-.53-.67c5.38-4.26,9.65-2.17,9.83-2.08l-.39.76C390.73,302.93,386.91,301.09,382,305Z"/><path class="cls-8" d="M396.05,314.33c-1.86,0-3.48-1.91-3.56-2l.65-.55s1.57,1.84,3.1,1.68a2.58,2.58,0,0,0,1.86-1.6l.76.4a3.35,3.35,0,0,1-2.53,2.05Z"/><path class="cls-8" d="M397.15,321.74a6.73,6.73,0,0,1-4.16-1.58l.58-.63a5.32,5.32,0,0,0,7.41-.31l.58.63A6.46,6.46,0,0,1,397.15,321.74Z"/><circle class="cls-8" cx="387.76" cy="307.87" r="1.36"/><circle class="cls-8" cx="405.19" cy="307.87" r="1.36"/><path class="cls-7" d="M185.88,328.41s20.71-2.24,19.12,21.37H155.67s-.38-22.34,19.42-20.95"/><path class="cls-8" d="M205.4,350.21H155.25v-.42c0-.44-.11-11,6.41-17.16,3.37-3.2,7.9-4.62,13.47-4.22l-.06.85c-5.32-.37-9.63,1-12.82,4-5.54,5.25-6.09,14.08-6.15,16.1h48.5c.41-7.15-1.23-12.56-4.89-16.08-5.47-5.26-13.7-4.45-13.78-4.44l-.09-.85c.35,0,8.69-.87,14.46,4.67,3.92,3.77,5.65,9.54,5.13,17.16Z"/><path class="cls-10" d="M164.75,308.15s-10.73-.39-7.68-8.13c0,0,3.5-2.29,5.53-1.4,0,0-18-13.48-.2-18.33,0,0,4.5-19.9,27.05-7.52,0,0,22.58-7.54,7.65,27.25,0,0,6-1.9,7.19.89s-1.48,7-8.81,6.15"/><path class="cls-8" d="M164.73,308.58c-.24,0-5.82-.24-7.89-3.4-.94-1.43-1-3.22-.18-5.31l.05-.13.11-.08a11.07,11.07,0,0,1,4.32-1.65c-2.47-2.1-7.84-7.27-7-11.91.53-2.76,3.16-4.83,7.84-6.15.36-1.37,2.35-7.75,8.39-10.46,5-2.27,11.45-1.32,19.07,2.82,1.17-.35,7.42-2,10.9,1.78,3.68,4,2.82,12.51-2.56,25.3,1.8-.43,5.84-1.09,6.85,1.37a4.22,4.22,0,0,1-.65,4.16c-1.57,2.08-4.7,3-8.6,2.58l.1-.85c3.59.41,6.44-.41,7.82-2.24a3.38,3.38,0,0,0,.54-3.32c-.81-2-5.09-1.14-6.67-.64l-.89.28.37-.86c5.46-12.72,6.52-21.43,3.06-25.19s-10.12-1.51-10.19-1.49l-.18.06-.16-.09c-7.44-4.08-13.65-5.05-18.47-2.88-6.25,2.81-7.95,10.05-8,10.12l-.06.25-.25.07c-4.49,1.22-7,3.09-7.47,5.55-1,5.35,7.72,12,7.81,12l3,2.22-3.4-1.49c-1.43-.63-4,.66-5,1.29a4.71,4.71,0,0,0,.15,4.4c1.83,2.79,7.15,3,7.2,3Z"/><path class="cls-9" d="M175.09,325.07v3.77a6.57,6.57,0,0,0,5.78,2.92,5.26,5.26,0,0,0,5-3.34v-3.81"/><path class="cls-8" d="M180.62,332.19a6.93,6.93,0,0,1-5.9-3.14l-.06-.1v-3.89h.85v3.65a6.09,6.09,0,0,0,5.34,2.62,4.87,4.87,0,0,0,4.6-3v-3.73h.85l0,3.94a5.74,5.74,0,0,1-5.41,3.64Z"/><path class="cls-9" d="M197.94,287.58c-.25,3.43-16.5,5.33-23.74.63,0,0-5.71,5.33-10.92.89,0,0-1.76-2.05-1.9,0,0,0,2.51,37.38,18.28,36.31,0,0,17.62,3.36,18.28-37.83"/><path class="cls-8" d="M180.63,325.91a6.43,6.43,0,0,1-1-.07,10,10,0,0,1-7.35-2.65c-4-3.5-7.13-10.3-9.28-20.22a107.45,107.45,0,0,1-2-13.84c0-.76.29-1.18.71-1.32.78-.25,1.69.71,1.95,1,4.81,4.1,10.25-.87,10.3-.92l.24-.23.28.18c5.6,3.63,17.27,3.25,21.64,1.08.9-.44,1.41-.94,1.44-1.39l.85,0c-.36,22.6-5.9,31.79-10.48,35.51A11.56,11.56,0,0,1,180.63,325.91Zm-.94-.93h.05s3.7.64,7.64-2.58c4.32-3.54,9.53-12.2,10.1-33.35a5.66,5.66,0,0,1-1,.64c-4.57,2.27-16.21,2.7-22.21-1-1.2,1-6.44,4.78-11.23.68a2.38,2.38,0,0,0-1.08-.81.94.94,0,0,0-.12.51c0,.19,1.81,25.35,11,33.42a9.12,9.12,0,0,0,6.78,2.43Z"/><path class="cls-8" d="M180.13,308.58h-.2c-2.67-.29-3.21-3.28-3.23-3.4l.84-.14c0,.1.45,2.48,2.46,2.69h0a3.38,3.38,0,0,0,2.29-.73,2.37,2.37,0,0,0,.63-1.87l.85,0a3.18,3.18,0,0,1-.89,2.52A4.09,4.09,0,0,1,180.13,308.58Z"/><rect class="cls-8" x="161.97" y="343.06" width="0.85" height="6.73"/><rect class="cls-8" x="199.04" y="343.69" width="0.85" height="6.09"/><circle class="cls-8" cx="170.28" cy="302.57" r="1.28"/><circle class="cls-8" cx="188.56" cy="302.57" r="1.28"/><path class="cls-8" d="M181.4,318h0c-3.76,0-6.51-3.26-6.63-3.4l.66-.55s2.62,3.09,6,3.09h0c2,0,3.83-1,5.55-3.09l.66.55C185.72,316.89,183.63,318,181.4,318Z"/><path class="cls-8" d="M165.75,301.5l-.74-.43c0-.06,3.66-6.16,10.26-3l-.36.77C169,296,165.88,301.28,165.75,301.5Z"/><path class="cls-8" d="M193.19,298.84a4.29,4.29,0,0,0-2.82-2.23c-2.33-.47-4.75,1.28-4.77,1.3l-.51-.69c.11-.08,2.76-2,5.45-1.45a5.1,5.1,0,0,1,3.39,2.63Z"/><path class="cls-8" d="M181.2,338.94c-6.47,0-11.15-9.35-11.35-9.74l.77-.38c0,.09,4.64,9.27,10.58,9.27h0c3.51,0,6.86-3.2,10-9.5l.77.38c-3.25,6.62-6.86,10-10.73,10Z"/><polygon class="cls-8" points="179.57 319.53 178.19 321.79 184.17 321.79 183.35 319.53 179.57 319.53"/><path class="cls-12" d="M142.42,337a5.74,5.74,0,1,1,5.74-5.74A5.75,5.75,0,0,1,142.42,337Zm0-10.2a4.46,4.46,0,1,0,4.46,4.46A4.46,4.46,0,0,0,142.42,326.82Z"/><path class="cls-10" d="M436.53,341.58a5.74,5.74,0,1,1,5.74-5.74A5.75,5.75,0,0,1,436.53,341.58Zm0-10.2a4.46,4.46,0,1,0,4.46,4.46A4.46,4.46,0,0,0,436.53,331.38Z"/><path class="cls-13" d="M180.29,217.64h-5.81a.47.47,0,0,1-.47-.49,4.27,4.27,0,0,0-1.14-3.26c-1.77-1.82-5-1.8-5-1.81a.53.53,0,0,1-.36-.16.48.48,0,0,1-.11-.38,9.84,9.84,0,0,0-2-6.76,7.79,7.79,0,0,0-6.14-2.43,7.2,7.2,0,0,0-5.4,2.06c-2.4,2.51-2.26,6.5-2.26,6.54a.48.48,0,0,1-.19.4.48.48,0,0,1-.44.07,6.65,6.65,0,0,0-5.61.26c-2.84,1.65-3.64,5.54-3.65,5.58a.48.48,0,0,1-.47.38H129.76a.48.48,0,1,1,0-1h11c.29-1.1,1.32-4.27,4-5.83a7.29,7.29,0,0,1,5.78-.53,10.44,10.44,0,0,1,2.51-6.57,8.1,8.1,0,0,1,6.09-2.36,8.72,8.72,0,0,1,6.86,2.75,10.73,10.73,0,0,1,2.31,7,8.31,8.31,0,0,1,5.19,2.08,5.06,5.06,0,0,1,1.41,3.47h5.33a.48.48,0,0,1,0,1Z"/><path class="cls-13" d="M468.81,251.54h0l-10-.45a1.16,1.16,0,0,1-.73-.1,1.2,1.2,0,0,1-.36-.87c0-.07,0-.13,0-.16a8.69,8.69,0,0,0-.34-1,6.56,6.56,0,0,0-.89-1.54,5.56,5.56,0,0,0-2.34-1.73,6.88,6.88,0,0,0-2.26-.45,7.46,7.46,0,0,0-.83,0,1.25,1.25,0,0,1-.67,0c-.35-.13-.48-.52-.71-1.46,0-.15-.07-.27-.09-.34a17.94,17.94,0,0,0-1-2.28,11.87,11.87,0,0,0-2.28-3.15,8.76,8.76,0,0,0-5.19-2.42,11.55,11.55,0,0,0-10.6,5.07,12.59,12.59,0,0,0-1.87,7.8.48.48,0,0,1-.95.1,13.57,13.57,0,0,1,2-8.41,12.37,12.37,0,0,1,11.5-5.5,9.7,9.7,0,0,1,5.75,2.68,12.8,12.8,0,0,1,2.46,3.4,18.81,18.81,0,0,1,1,2.4c0,.08.07.23.11.42s.13.52.2.74l.19,0a9,9,0,0,1,.93,0,7.85,7.85,0,0,1,2.57.52,6.52,6.52,0,0,1,2.74,2,7.48,7.48,0,0,1,1,1.77,9.69,9.69,0,0,1,.38,1.11c0,.06,0,.16.05.27l0,.17h.17l10,.45a.47.47,0,0,1,0,.95Z"/><path class="cls-13" d="M239.53,179.09a.48.48,0,0,1-.42-.69,11.88,11.88,0,0,1,18-3.78.47.47,0,1,1-.6.74A10.93,10.93,0,0,0,240,178.83.47.47,0,0,1,239.53,179.09Z"/><path class="cls-13" d="M256.18,175.16a.48.48,0,0,1-.41-.71A13.78,13.78,0,0,1,277,171.17a.47.47,0,0,1-.64.7,12.83,12.83,0,0,0-19.77,3.05A.47.47,0,0,1,256.18,175.16Z"/><path class="cls-13" d="M342.76,201.64h5.81a.47.47,0,0,0,.47-.49,4.27,4.27,0,0,1,1.14-3.26c1.77-1.82,5-1.8,5-1.81a.53.53,0,0,0,.36-.16.48.48,0,0,0,.11-.38,9.84,9.84,0,0,1,2-6.76,7.79,7.79,0,0,1,6.14-2.43,7.2,7.2,0,0,1,5.4,2.06c2.4,2.51,2.26,6.5,2.26,6.54a.48.48,0,0,0,.19.4.48.48,0,0,0,.44.07,6.65,6.65,0,0,1,5.61.26c2.84,1.65,3.64,5.54,3.65,5.58a.48.48,0,0,0,.47.38h11.42a.48.48,0,0,0,0-1h-11c-.29-1.1-1.32-4.27-4-5.83a7.29,7.29,0,0,0-5.78-.53,10.44,10.44,0,0,0-2.51-6.57,8.1,8.1,0,0,0-6.09-2.36,8.72,8.72,0,0,0-6.86,2.75,10.73,10.73,0,0,0-2.31,7,8.31,8.31,0,0,0-5.19,2.08,5.06,5.06,0,0,0-1.41,3.47h-5.33a.48.48,0,1,0,0,1Z"/><path class="cls-8" d="M1003.93,101.27a61.1,61.1,0,0,1-7.7-.65c-2.08-.36-4.09-.85-5.78-1.28a181.21,181.21,0,0,1-49.92-21.22l.26-.42a180.71,180.71,0,0,0,49.78,21.16c1.68.43,3.68.91,5.74,1.27a60.53,60.53,0,0,0,7.63.65Z"/><path class="cls-8" d="M1005.56,105.33a9.81,9.81,0,0,1,3.86-9l.3.4a9.29,9.29,0,0,0-3.66,8.48Z"/><path class="cls-8" d="M926.46,79.87c-2.26,0-4.54-.34-6-2a.71.71,0,0,1-.23-.72c.11-.31,1.08-.63,1.19-.66,4.46-1.43,12.29-3.27,12.65-3.35l.1.49c-.57.12-8.39,2-12.6,3.33a4.53,4.53,0,0,0-.89.4s0,.06.15.17c1.73,1.89,4.63,2,7.25,1.76a91.51,91.51,0,0,0,14.22-2.14l.11.49a92,92,0,0,1-14.3,2.15C927.54,79.84,927,79.87,926.46,79.87Z"/><path class="cls-8" d="M942.64,77.52l-.5,0a1,1,0,0,0-.35-.77,3,3,0,0,0-.86-.49,69.16,69.16,0,0,0-7.05-2.64l.15-.48a69.64,69.64,0,0,1,7.1,2.66,3.55,3.55,0,0,1,1,.58A1.48,1.48,0,0,1,942.64,77.52Z"/><path class="cls-8" d="M934.16,73.51l-.46-.2.4-.86c.15-.32.3-.64.4-.86l.46.2-.4.87C934.4,73,934.25,73.29,934.16,73.51Z"/><path class="cls-8" d="M934.49,71.78c-.25-1.38-.51-2.66-.76-3.93s-.51-2.55-.76-3.94-.46-2.54-.72-3.79a58.41,58.41,0,0,0-2.16-7.77l.47-.16A58.84,58.84,0,0,1,932.74,60c.26,1.26.49,2.55.72,3.79s.51,2.67.76,3.94.51,2.55.76,3.94Z"/><rect class="cls-8" x="942.21" y="65.19" width="0.5" height="15.57" transform="translate(719.85 991.68) rotate(-80.81)"/><path class="cls-8" d="M950,74.3l-.61-1c-6.07-10.4-10.35-17.42-12.71-20.85A4.58,4.58,0,0,0,935.4,51a4.79,4.79,0,0,0-3.23-.2,2.84,2.84,0,0,0-1.31.44.89.89,0,0,0-.31,1.05l-.42.26a1.37,1.37,0,0,1,.42-1.71,3.27,3.27,0,0,1,1.54-.55,5.16,5.16,0,0,1,3.57.27,5.07,5.07,0,0,1,1.47,1.56c2.37,3.44,6.65,10.47,12.73,20.88l.6,1Z"/><path class="cls-8" d="M956,92.87c-5.79-3.21-11-7.46-16.08-11.57l-3.26-2.65.32-.39,3.26,2.65c5,4.1,10.25,8.33,16,11.52Z"/><path class="cls-8" d="M999.65,106.71h-1.18a68.69,68.69,0,0,1-17.13-2.55l.14-.48a68.18,68.18,0,0,0,17,2.53h.25a18.61,18.61,0,0,0,7.9-1.45,6.29,6.29,0,0,0,2.9-2.1c1.34-2,.43-4.78-.24-6.24a24,24,0,0,0-7.2-8.84c-7.59-6-17.4-8-26-9.51-8.79-1.51-17.55-2.58-26.51-3.63l.06-.5c9,1.05,17.74,2.12,26.54,3.63s18.54,3.58,26.23,9.61a24.45,24.45,0,0,1,7.35,9c.71,1.56,1.68,4.5.2,6.73a6.74,6.74,0,0,1-3.12,2.28A19.17,19.17,0,0,1,999.65,106.71Z"/><path class="cls-8" d="M1005.51,93.88a.57.57,0,0,1-.28-.07.77.77,0,0,1-.27-.28l-.86-1.34a.42.42,0,0,1,.09-.62l1.55-1.24,1.92,2.12-.12.16a3.21,3.21,0,0,1-1.79,1.23A1.05,1.05,0,0,1,1005.51,93.88Zm-1-1.94.85,1.32a.47.47,0,0,0,.09.11s0,0,.16,0a2.74,2.74,0,0,0,1.39-.88L1005.7,91Z"/><path class="cls-8" d="M1001.07,95.42a5.53,5.53,0,0,1-1.78-.27l-.2-.07.33-2.2a.47.47,0,0,1,.11-.26.45.45,0,0,1,.37-.12,7.29,7.29,0,0,0,3.24-.43l.09.23.16-.15a4.68,4.68,0,0,1,1.09,1.93l.06.18-.15.11A5.91,5.91,0,0,1,1001.07,95.42Zm-1.43-.68a5.36,5.36,0,0,0,4.29-.68,4,4,0,0,0-.81-1.44,7.88,7.88,0,0,1-3.23.39v.09Z"/><path class="cls-8" d="M992.28,82c-.12-1.22-.26-2.55-.4-3.89s-.28-2.67-.4-3.89a4.21,4.21,0,0,0-.81-2.52,3.15,3.15,0,0,0-2.55-.72,2,2,0,0,0-.68.11,2.42,2.42,0,0,0-.64.45c-1.38,1.2-2.69,2.32-4,3.43s-2.61,2.23-4,3.43l-.33-.38c1.38-1.2,2.69-2.32,4-3.43s2.61-2.23,4-3.43a2.84,2.84,0,0,1,.79-.54,2.5,2.5,0,0,1,.85-.14,3.68,3.68,0,0,1,2.93.88,4.58,4.58,0,0,1,.94,2.82c.12,1.22.26,2.55.4,3.89s.28,2.67.4,3.89Z"/><path class="cls-8" d="M981.8,79.13l-.28-.41a41.1,41.1,0,0,0,5.94-8l.45.22A40.53,40.53,0,0,1,981.8,79.13Z"/><path class="cls-8" d="M934.27,112.41h-.13v-.5h.13c6-.07,11.89-1.58,17.63-3.05,1.61-.41,3.27-.84,4.91-1.22a135,135,0,0,1,15.75-2.74l1.1-.12c1.49-.16,3-.33,4.52-.6a32.56,32.56,0,0,0,4.74-1.24.63.63,0,0,0,.32-.18.56.56,0,0,0,0-.44,4.84,4.84,0,0,0-2.65-2.36,69.42,69.42,0,0,0-24.83-7.11l0-.5a69.93,69.93,0,0,1,25,7.17,5.24,5.24,0,0,1,2.9,2.64,1,1,0,0,1,0,.88,1,1,0,0,1-.57.38,33.13,33.13,0,0,1-4.81,1.26c-1.51.27-3.06.44-4.55.61l-1.1.12a134.54,134.54,0,0,0-15.69,2.73c-1.63.39-3.3.81-4.9,1.22C946.25,110.82,940.28,112.34,934.27,112.41Z"/><path class="cls-8" d="M934.08,112.47a3.6,3.6,0,0,1-.47,0,16,16,0,0,1-2.38-.65l-.43-.14a8.66,8.66,0,0,1-3.31-2.27,2.86,2.86,0,0,1-.81-2.53l.49.11a2.39,2.39,0,0,0,.69,2.08,8.15,8.15,0,0,0,3.1,2.14l.43.14a15.69,15.69,0,0,0,2.3.63c.17,0,1,0,1.41,0h.26v.5h-.26Z"/><path class="cls-8" d="M926.94,107.23l-.26-.42a50,50,0,0,1,4.87-2.68c1.53-.73,3.12-1.39,4.66-2l.73-.3c5.23-2.19,10.31-4.78,15.23-7.29l4-2,.22.45-4,2c-4.93,2.51-10,5.11-15.27,7.31l-.73.3c-1.53.64-3.11,1.3-4.63,2A49.56,49.56,0,0,0,926.94,107.23Z"/><path class="cls-8" d="M927.34,108.55l-.21-.46c10.09-4.56,20.83-9.67,31.9-15.17l.22.45C948.18,98.87,937.44,104,927.34,108.55Z"/><rect class="cls-8" x="959.65" y="108.22" width="2.17" height="0.5" transform="translate(710.74 1042.43) rotate(-81.46)"/><path class="cls-8" d="M960.11,109.87a5.34,5.34,0,0,1-3.9-1.55l.38-.32a5,5,0,0,0,4,1.34l.07.5A4.32,4.32,0,0,1,960.11,109.87Z"/><path class="cls-8" d="M960.44,119.22a19.07,19.07,0,0,1-5.25-2,9.44,9.44,0,0,1-3.9-4.13,4.44,4.44,0,0,1,0-4.22l.42.27a3.94,3.94,0,0,0,0,3.74,9.06,9.06,0,0,0,3.69,3.91,18.59,18.59,0,0,0,5.11,1.9Z"/><path class="cls-8" d="M960.68,119.27a3.06,3.06,0,0,1-.44,0l0-.23a1.34,1.34,0,0,1-.51-.82,6.74,6.74,0,0,1,1.38-6.08,3.33,3.33,0,0,1,1.28-1,1.74,1.74,0,0,1,1.65.15c.59.42.82,1.31.69,2.64a7.38,7.38,0,0,1-1,3.29A4,4,0,0,1,960.68,119.27Zm-.21-.51a3.39,3.39,0,0,0,2.88-1.81,6.93,6.93,0,0,0,.91-3.08c.11-1.12-.06-1.87-.49-2.18a1.26,1.26,0,0,0-1.17-.09,2.86,2.86,0,0,0-1.08.83,6.23,6.23,0,0,0-1.28,5.62.87.87,0,0,0,.31.54Z"/><path class="cls-8" d="M959.26,118.76a3,3,0,0,1-.91-1.87,6.8,6.8,0,0,1,.11-2,8.6,8.6,0,0,1,.77-2.5,4.24,4.24,0,0,1,1.83-1.9,3,3,0,0,1,2.46-.11,1.88,1.88,0,0,1,1.06,1.26l-.48.13a1.37,1.37,0,0,0-.78-.94,2.54,2.54,0,0,0-2,.1,3.74,3.74,0,0,0-1.6,1.68,8.14,8.14,0,0,0-.72,2.36,6.31,6.31,0,0,0-.11,1.89,2.47,2.47,0,0,0,.74,1.56Z"/><path class="cls-8" d="M963.75,111a7.36,7.36,0,0,0-2.91-2.58l.22-.45a7.86,7.86,0,0,1,3.11,2.76Z"/><rect class="cls-8" x="972.86" y="105.88" width="2.17" height="0.5" transform="translate(724.31 1053.5) rotate(-81.46)"/><path class="cls-8" d="M973.4,107.52a7.59,7.59,0,0,1-2.25-.38,5.32,5.32,0,0,1-1.06-.48l-.06,0a2.34,2.34,0,0,1-.85-.71l.43-.25a2,2,0,0,0,.67.53l.07,0a4.85,4.85,0,0,0,1,.44,6.47,6.47,0,0,0,2.44.33l.07.5Z"/><path class="cls-8" d="M973.65,116.87a19.06,19.06,0,0,1-5.25-2,9.46,9.46,0,0,1-3.9-4.13,5.08,5.08,0,0,1,.11-4.51l.42.27a4.62,4.62,0,0,0-.08,4,9.06,9.06,0,0,0,3.7,3.91,18.61,18.61,0,0,0,5.11,1.9Z"/><path class="cls-8" d="M973.71,117v-.12a1.93,1.93,0,0,1-.74-1,6.74,6.74,0,0,1,1.38-6.08,3.34,3.34,0,0,1,1.28-1,1.76,1.76,0,0,1,1.65.15c.61.44.84,1.25.72,2.5a7.76,7.76,0,0,1-1,3.43A4.51,4.51,0,0,1,973.71,117Zm2.62-7.81a1.49,1.49,0,0,0-.52.1,2.86,2.86,0,0,0-1.08.84,6.23,6.23,0,0,0-1.28,5.62,1.49,1.49,0,0,0,.5.69l0,0a4.09,4.09,0,0,0,2.63-1.83,7.31,7.31,0,0,0,.94-3.21c.1-1-.07-1.73-.52-2A1.09,1.09,0,0,0,976.33,109.15Z"/><path class="cls-8" d="M972.47,116.42a3,3,0,0,1-.91-1.87,6.85,6.85,0,0,1,.11-2,8.89,8.89,0,0,1,.77-2.5,4.24,4.24,0,0,1,1.83-1.9,3.2,3.2,0,0,1,1.91-.27,2.17,2.17,0,0,1,1.62,1l.07.13a1.1,1.1,0,0,1,.16.43,4.38,4.38,0,0,1,0,1l-.49-.07a3.94,3.94,0,0,0,0-.9.72.72,0,0,0-.1-.24l-.08-.17a1.73,1.73,0,0,0-1.25-.71,2.68,2.68,0,0,0-1.61.23,3.73,3.73,0,0,0-1.6,1.68,8.45,8.45,0,0,0-.72,2.36,6.39,6.39,0,0,0-.11,1.89,2.47,2.47,0,0,0,.74,1.56Z"/><path class="cls-8" d="M977.22,108.73a8.2,8.2,0,0,0-3.17-2.62l.22-.45a8.72,8.72,0,0,1,3.37,2.79Z"/><path class="cls-8" d="M1003.7,105.88c-.81-2-.12-4.91.93-6.84a7.17,7.17,0,0,1,1.63-2.25,5.15,5.15,0,0,1,3-1.45h0v.5h0a4.66,4.66,0,0,0-2.69,1.32,6.78,6.78,0,0,0-1.53,2.12c-1,1.83-1.66,4.52-.91,6.42Z"/><path class="cls-8" d="M938,72.22c-1-3.54-2-7.18-3-10.81s-2-7.25-3-10.79l.48-.13c1,3.53,2,7.16,3,10.79s2,7.27,3,10.81Z"/><path class="cls-8" d="M950.87,74.34c-.32-.7-.64-1.37-1-2s-.65-1.36-1-2.08A14.9,14.9,0,0,0,947,67l-.29-.35c-.45-.56-.47-.59-1.33-.59v-.5c1.06,0,1.22.15,1.72.77l.28.34a15.43,15.43,0,0,1,2,3.36c.32.71.64,1.39,1,2.06s.64,1.34,1,2.05Z"/><path class="cls-8" d="M921.25,78.3l-.12-.49c4.32-1,9.13-2.34,14.7-4l.14.48C930.4,76,925.58,77.27,921.25,78.3Z"/><path class="cls-8" d="M947.59,80l-.21,0-.49-.12a.84.84,0,0,1-.52-.39.85.85,0,0,1-.09-.66l.07-.28.11-.42a.85.85,0,0,1,1-.63l.45.1a.86.86,0,0,1,.64,1c-.06.22-.11.46-.16.68h0a.85.85,0,0,1-.83.68Zm-.3-2a.36.36,0,0,0-.34.27c0,.14-.07.29-.11.43l-.07.28a.36.36,0,0,0,0,.28.35.35,0,0,0,.22.16l.48.12a.35.35,0,0,0,.27,0,.35.35,0,0,0,.15-.23h0c0-.24.1-.48.17-.71a.35.35,0,0,0,0-.27.36.36,0,0,0-.23-.16l-.45-.1Z"/><path class="cls-8" d="M951.66,81.7l-.21,0-.49-.12a.85.85,0,0,1-.52-.39.86.86,0,0,1-.1-.66l.07-.25.12-.45a.86.86,0,0,1,1-.63l.45.1a.86.86,0,0,1,.64,1c-.06.22-.11.46-.16.68a.86.86,0,0,1-.83.68Zm-.3-2a.36.36,0,0,0-.34.27l-.12.46-.07.25a.36.36,0,0,0,0,.28.35.35,0,0,0,.22.16l.48.12a.35.35,0,0,0,.27,0,.35.35,0,0,0,.16-.23h0c0-.24.1-.48.17-.71a.35.35,0,0,0,0-.27.35.35,0,0,0-.23-.16l-.45-.1Z"/><path class="cls-8" d="M955.72,83.48l-.21,0-.49-.12a.86.86,0,0,1-.62-1l.08-.29.11-.41a.85.85,0,0,1,1-.63l.45.1a.86.86,0,0,1,.64,1c-.06.22-.11.46-.16.68h0a.84.84,0,0,1-.37.55A.85.85,0,0,1,955.72,83.48Zm-.3-2a.36.36,0,0,0-.34.27l-.11.42-.08.29a.36.36,0,0,0,0,.27.35.35,0,0,0,.22.16l.48.12a.36.36,0,0,0,.27,0,.35.35,0,0,0,.16-.23c0-.24.1-.48.17-.71a.35.35,0,0,0,0-.27.36.36,0,0,0-.23-.16l-.45-.1Z"/><path class="cls-8" d="M959.76,85.3l-.21,0-.49-.12a.86.86,0,0,1-.62-1l.08-.3.1-.4a.86.86,0,0,1,1-.63l.46.1a.86.86,0,0,1,.64,1.05c-.06.22-.11.45-.16.68h0a.84.84,0,0,1-.37.55A.85.85,0,0,1,959.76,85.3Zm-.3-2a.36.36,0,0,0-.34.27l-.11.41-.08.3a.36.36,0,0,0,0,.28.35.35,0,0,0,.22.16l.48.12a.36.36,0,0,0,.27,0,.35.35,0,0,0,.16-.23c0-.24.1-.48.16-.71a.35.35,0,0,0,0-.27.36.36,0,0,0-.23-.16l-.46-.1Z"/><path class="cls-8" d="M963.78,87.21l-.21,0-.49-.12a.85.85,0,0,1-.52-.39.86.86,0,0,1-.1-.66l.07-.25.12-.45a.86.86,0,0,1,1-.63l.45.1a.86.86,0,0,1,.64,1c-.06.22-.11.46-.16.68a.86.86,0,0,1-.83.68Zm-.3-2a.36.36,0,0,0-.34.27l-.12.46-.07.25a.36.36,0,0,0,0,.28.35.35,0,0,0,.22.16l.48.11a.36.36,0,0,0,.43-.27h0c0-.24.1-.48.17-.71a.35.35,0,0,0,0-.27.35.35,0,0,0-.23-.16l-.45-.1Z"/><path class="cls-8" d="M967.88,88.76l-.21,0-.49-.12a.84.84,0,0,1-.52-.39.85.85,0,0,1-.09-.66l.07-.28.11-.42a.86.86,0,0,1,1-.63l.45.1a.86.86,0,0,1,.64,1c-.06.22-.11.46-.16.68h0a.86.86,0,0,1-.83.68Zm-.3-2a.36.36,0,0,0-.34.27l-.11.43-.07.28a.36.36,0,0,0,0,.28.35.35,0,0,0,.22.16l.48.12a.35.35,0,0,0,.43-.27h0c0-.24.1-.48.17-.71a.35.35,0,0,0,0-.27.36.36,0,0,0-.23-.16l-.45-.1Z"/><path class="cls-8" d="M972,90.39l-.21,0-.49-.12a.85.85,0,0,1-.52-.39.86.86,0,0,1-.09-.66l.07-.28.11-.42a.86.86,0,0,1,1-.63l.45.1a.86.86,0,0,1,.64,1c-.06.22-.11.46-.16.68h0a.84.84,0,0,1-.37.55A.85.85,0,0,1,972,90.39Zm-.3-2a.36.36,0,0,0-.34.27l-.11.43-.07.28a.36.36,0,0,0,0,.28.35.35,0,0,0,.22.16l.48.11a.35.35,0,0,0,.27,0,.35.35,0,0,0,.15-.23h0c0-.24.1-.48.17-.71a.35.35,0,0,0,0-.27.35.35,0,0,0-.23-.16l-.45-.1Z"/><path class="cls-8" d="M976.08,91.85l-.21,0-.49-.12a.84.84,0,0,1-.52-.39.85.85,0,0,1-.09-.66l.08-.3.1-.4a.86.86,0,0,1,1-.63l.46.1a.85.85,0,0,1,.64,1.05c-.06.22-.11.45-.16.68h0a.84.84,0,0,1-.37.55A.85.85,0,0,1,976.08,91.85Zm-.3-2a.35.35,0,0,0-.34.27l-.11.41-.08.3a.36.36,0,0,0,0,.28.35.35,0,0,0,.22.16l.48.12a.36.36,0,0,0,.43-.27c0-.24.1-.48.16-.71a.35.35,0,0,0,0-.27.35.35,0,0,0-.23-.16l-.46-.1Z"/><path class="cls-8" d="M980.23,93.21l-.21,0-.49-.12a.86.86,0,0,1-.62-1l.08-.3.1-.4a.86.86,0,0,1,1-.63l.45.1a.86.86,0,0,1,.64,1c-.06.22-.11.46-.16.68h0a.86.86,0,0,1-.83.68Zm-.3-2a.36.36,0,0,0-.34.27l-.11.41-.08.3a.36.36,0,0,0,0,.27.35.35,0,0,0,.22.16l.48.12a.36.36,0,0,0,.43-.27h0c0-.24.1-.48.17-.71a.35.35,0,0,0,0-.27.36.36,0,0,0-.23-.16l-.45-.1Z"/><path class="cls-8" d="M984.4,94.43l-.21,0-.49-.12a.84.84,0,0,1-.52-.39.85.85,0,0,1-.09-.66l.08-.3.1-.4a.86.86,0,0,1,1-.63l.46.1a.86.86,0,0,1,.64,1c-.06.22-.11.46-.16.68h0a.84.84,0,0,1-.37.55A.85.85,0,0,1,984.4,94.43Zm-.3-2a.36.36,0,0,0-.34.27l-.11.41-.08.3a.36.36,0,0,0,0,.28.35.35,0,0,0,.22.16l.48.12a.36.36,0,0,0,.43-.27c0-.24.1-.48.16-.71a.36.36,0,0,0-.27-.44l-.46-.1Z"/><path class="cls-8" d="M988.57,95.66l-.21,0-.49-.12a.86.86,0,0,1-.62-1l.08-.29.11-.41a.86.86,0,0,1,1-.63l.45.1a.86.86,0,0,1,.64,1c-.06.22-.11.46-.16.68h0a.84.84,0,0,1-.37.55A.85.85,0,0,1,988.57,95.66Zm-.3-2a.36.36,0,0,0-.34.27l-.11.42-.08.29a.36.36,0,0,0,0,.27A.35.35,0,0,0,988,95l.48.12a.35.35,0,0,0,.27,0,.35.35,0,0,0,.16-.23h0c0-.24.1-.48.17-.71a.35.35,0,0,0,0-.27.36.36,0,0,0-.23-.16l-.45-.1Z"/><path class="cls-8" d="M974.92,113.54a2.24,2.24,0,0,1-.79-.15,4.13,4.13,0,0,1-1.13-.63l.31-.39a3.59,3.59,0,0,0,1,.55,1.19,1.19,0,0,0,1.07,0,.82.82,0,0,0,.15-.92,2.08,2.08,0,0,0-.79-.85,1.6,1.6,0,0,0-.62-.3l.08-.49a2,2,0,0,1,.83.38,2.65,2.65,0,0,1,1,1.07,1.32,1.32,0,0,1-.29,1.5A1.22,1.22,0,0,1,974.92,113.54Z"/><path class="cls-8" d="M961.54,116.23a2.32,2.32,0,0,1-.7-.11,4.12,4.12,0,0,1-1.16-.57l.29-.41a3.63,3.63,0,0,0,1,.5,1.19,1.19,0,0,0,1.07-.09.82.82,0,0,0,.1-.93,2.08,2.08,0,0,0-.84-.81,1.59,1.59,0,0,0-.63-.26l.05-.5a2.05,2.05,0,0,1,.84.34,2.64,2.64,0,0,1,1,1,1.32,1.32,0,0,1-.21,1.52A1.25,1.25,0,0,1,961.54,116.23Z"/><path class="cls-14" d="M497.67,76.33S737-23,920.24,61.94"/><path class="cls-8" d="M484.38,83.62l0,0h0c-10.4,2.75-20.77,5.59-31.16,8.4-3,.8-6,1.5-8.93,2.46a.65.65,0,0,0-.1.59,34.85,34.85,0,0,0,8.82,7.13.18.18,0,0,0,.14.18,105.18,105.18,0,0,0,2.1,11.54v0a.16.16,0,0,0,.19.22,5.37,5.37,0,0,0,1.5-.89q.8-.56,1.57-1.15a14.7,14.7,0,0,0,2.88-2.6.18.18,0,0,0,0-.15l1,.78c1.12.86,2.22,1.73,3.29,2.65s2.15,2.08,3.32,3a2.75,2.75,0,0,1,.62-.27,126.27,126.27,0,0,1,10.93-24.87q1.85-3.21,3.9-6.29l.17-.14a.2.2,0,0,0,.06-.21C484.82,83.81,484.62,83.48,484.38,83.62ZM453.15,101.9c-1.5-1-3-2-4.43-3.16a40.34,40.34,0,0,1-4.17-3.89c2.57-.57,5.12-1.36,7.66-2l7.9-2.14,15.55-4.21,7.32-2L459.92,98c-2.22,1.3-4.49,2.54-6.64,3.95A.15.15,0,0,0,453.15,101.9Zm.25.38c2-1.05,4-2.27,5.94-3.42l6.11-3.58,12.23-7.17,4.08-2.39c-.9.69-1.8,1.39-2.7,2.07l-5.46,4.08L462.69,100l-3,2.24-1.6,1.2a8.57,8.57,0,0,0-1.15.93l-.12,0a.34.34,0,0,0-.29.18.24.24,0,0,0-.33.19c-.37,2.54-.58,5.11-.87,7.66C454.6,109.1,454,105.69,453.4,102.28Zm7.62,7a17.31,17.31,0,0,0-1.43,1.27q-.67.59-1.38,1.15t-1.44,1.08c-.33.23-.72.44-1.06.69.36-2.76.79-5.57.94-8.35a3.88,3.88,0,0,0,1,1q.75.72,1.53,1.41c.66.58,1.35,1.13,2,1.67A.22.22,0,0,0,461,109.29Zm10.7-1.24q-1.38,3.62-2.51,7.32v0a25.71,25.71,0,0,0-3-2.7q-1.61-1.38-3.29-2.67c-1.17-.9-2.35-1.79-3.46-2.75q-.74-.64-1.44-1.32c-.36-.34-.75-.91-1.23-1.09l.1-.06h0a11.58,11.58,0,0,0,2.56-1.77l2.78-2.08,5.35-4,10.81-8.08c1.58-1.18,3.24-2.32,4.81-3.54A122.43,122.43,0,0,0,471.71,108Z"/><path class="cls-14" d="M359.45,189s29.75-44,80.11-71.33"/><path class="cls-14" d="M1103.35,186.28s-15.93-35.89-79.7-71.79"/><path class="cls-8" d="M1030.81,241.65a18.13,18.13,0,0,1-2.7-.17.5.5,0,0,1-.41-.58.51.51,0,0,1,.58-.41c.19,0,19.06,3,25.59-18.43a.5.5,0,1,1,1,.29C1049.56,239.68,1036.49,241.65,1030.81,241.65Z"/><path class="cls-8" d="M1050.14,248.55a.5.5,0,0,1-.5-.5V231.69a.5.5,0,1,1,1,0v16.36A.5.5,0,0,1,1050.14,248.55Z"/><path class="cls-8" d="M1045.71,248.55a.5.5,0,0,1-.5-.5V236.51a.5.5,0,1,1,1,0v11.55A.5.5,0,0,1,1045.71,248.55Z"/><path class="cls-8" d="M1040.26,248.55a.5.5,0,0,1-.5-.5v-8.72a.5.5,0,1,1,1,0v8.72A.5.5,0,0,1,1040.26,248.55Z"/><path class="cls-8" d="M1084.62,242.78c-20.82,0-26-20.24-26-20.45a.5.5,0,0,1,.37-.6.49.49,0,0,1,.6.37c0,.2,5,19.68,25,19.68,19.11,0,24.25-20.53,24.3-20.74a.5.5,0,1,1,1,.23C1109.84,221.49,1104.51,242.78,1084.62,242.78Z"/><path class="cls-8" d="M1062.66,248.55a.5.5,0,0,1-.5-.5V230.14a.5.5,0,0,1,1,0v17.91A.5.5,0,0,1,1062.66,248.55Z"/><path class="cls-8" d="M1067,248.63a.5.5,0,0,1-.5-.5V235.59a.5.5,0,0,1,1,0v12.54A.5.5,0,0,1,1067,248.63Z"/><path class="cls-8" d="M1071.36,248.51a.5.5,0,0,1-.5-.5v-9.19a.5.5,0,1,1,1,0V248A.5.5,0,0,1,1071.36,248.51Z"/><path class="cls-8" d="M1075.72,248.63a.5.5,0,0,1-.5-.5v-7.28a.5.5,0,1,1,1,0v7.28A.5.5,0,0,1,1075.72,248.63Z"/><path class="cls-8" d="M1080.07,248.66a.5.5,0,0,1-.5-.5V242a.5.5,0,0,1,1,0v6.16A.5.5,0,0,1,1080.07,248.66Z"/><path class="cls-8" d="M1084.42,248.33a.5.5,0,0,1-.5-.5v-5.55a.5.5,0,1,1,1,0v5.55A.5.5,0,0,1,1084.42,248.33Z"/><path class="cls-8" d="M1088.77,248.41a.5.5,0,0,1-.5-.5V242a.5.5,0,1,1,1,0v5.89A.5.5,0,0,1,1088.77,248.41Z"/><path class="cls-8" d="M1093.12,248.49a.5.5,0,0,1-.5-.5v-7.15a.5.5,0,0,1,1,0V248A.5.5,0,0,1,1093.12,248.49Z"/><path class="cls-8" d="M1097.48,248.58a.5.5,0,0,1-.5-.5v-9.43a.5.5,0,0,1,1,0v9.43A.5.5,0,0,1,1097.48,248.58Z"/><path class="cls-8" d="M1101.83,248.66a.5.5,0,0,1-.5-.5V234.89a.5.5,0,1,1,1,0v13.27A.5.5,0,0,1,1101.83,248.66Z"/><path class="cls-8" d="M1106.18,248.61a.5.5,0,0,1-.5-.5v-19a.5.5,0,1,1,1,0v19A.5.5,0,0,1,1106.18,248.61Z"/><path class="cls-8" d="M1118.2,248.49a.5.5,0,0,1-.5-.5V230.9a.5.5,0,0,1,1,0V248A.5.5,0,0,1,1118.2,248.49Z"/><path class="cls-8" d="M1123.27,248.51a.5.5,0,0,1-.5-.5V236.34a.5.5,0,0,1,1,0V248A.5.5,0,0,1,1123.27,248.51Z"/><path class="cls-8" d="M1128.33,248.43a.5.5,0,0,1-.5-.5v-8.56a.5.5,0,0,1,1,0v8.56A.5.5,0,0,1,1128.33,248.43Z"/><path class="cls-8" d="M1137.8,241.65c-5.67,0-18.74-2-24-19.29a.5.5,0,1,1,1-.29c2.75,9,7.89,14.87,15.29,17.37a23.28,23.28,0,0,0,10.3,1.06.49.49,0,0,1,.58.41.5.5,0,0,1-.41.58A18.15,18.15,0,0,1,1137.8,241.65Z"/><path class="cls-8" d="M1143.69,248.66H1031.15a.5.5,0,0,1,0-1h112.53a.5.5,0,0,1,0,1Z"/><rect class="cls-8" x="1058.61" y="219.68" width="1.37" height="9.83" rx="0.69" ry="0.69"/><rect class="cls-8" x="1058.35" y="227.29" width="1.89" height="11.08" rx="0.94" ry="0.94"/><rect class="cls-8" x="1058.22" y="235.92" width="2.15" height="13.14" rx="1.07" ry="1.07"/><path class="cls-8" d="M1059.6,246.2H1059a1,1,0,0,0-1,1v6.18a8.88,8.88,0,0,1,2.6.76V247.2A1,1,0,0,0,1059.6,246.2Z"/><rect class="cls-8" x="1053.55" y="219.68" width="1.37" height="9.07" rx="0.69" ry="0.69"/><rect class="cls-8" x="1053.29" y="227.29" width="1.89" height="10.32" rx="0.91" ry="0.91"/><rect class="cls-8" x="1053.16" y="235.92" width="2.15" height="12.45" rx="1.07" ry="1.07"/><path class="cls-8" d="M1054.54,246.2h-.61a1,1,0,0,0-1,1v6.94a1,1,0,0,0,0,.15,8.3,8.3,0,0,1,2.58-.87V247.2A1,1,0,0,0,1054.54,246.2Z"/><rect class="cls-8" x="1108.6" y="219.68" width="1.37" height="9.07" rx="0.69" ry="0.69"/><rect class="cls-8" x="1108.34" y="227.29" width="1.89" height="10.32" rx="0.91" ry="0.91"/><rect class="cls-8" x="1108.21" y="235.92" width="2.15" height="12.56" rx="1.07" ry="1.07"/><path class="cls-8" d="M1108,253.4v-6.2a1,1,0,0,1,1-1h.61a1,1,0,0,1,1,1v5.47Z"/><rect class="cls-8" x="1113.66" y="219.68" width="1.37" height="9.07" rx="0.69" ry="0.69"/><rect class="cls-8" x="1113.4" y="227.29" width="1.89" height="10.32" rx="0.91" ry="0.91"/><rect class="cls-8" x="1113.27" y="235.92" width="2.15" height="12.24" rx="1.06" ry="1.06"/><path class="cls-8" d="M1115.65,253V247.2a1,1,0,0,0-1-1H1114a1,1,0,0,0-1,1v5.19Z"/><rect class="cls-8" x="1054.36" y="221.16" width="4.75" height="1.53"/><rect class="cls-8" x="1054.36" y="228.75" width="4.75" height="1.53"/><rect class="cls-8" x="1054.36" y="237.61" width="4.75" height="1.53"/><rect class="cls-8" x="1110.04" y="221.16" width="4.75" height="1.53"/><rect class="cls-8" x="1110.04" y="228.75" width="4.75" height="1.53"/><rect class="cls-8" x="1110.04" y="237.61" width="4.75" height="1.53"/><path class="cls-8" d="M1025.46,286.73a.5.5,0,0,1-.45-.73,8.8,8.8,0,0,1,10.61-4.34.5.5,0,1,1-.32.95,7.67,7.67,0,0,0-3.4-.34,7.79,7.79,0,0,0-6,4.19A.5.5,0,0,1,1025.46,286.73Z"/><path class="cls-8" d="M1021.9,285.46a.5.5,0,0,1-.49-.38,9.6,9.6,0,0,0-10.5-7.31,9.79,9.79,0,0,0-1.39.27.5.5,0,0,1-.26-1,10.62,10.62,0,0,1,13.13,7.77.5.5,0,0,1-.37.6Z"/><path class="cls-8" d="M1057.33,284.82a.5.5,0,0,1-.5-.44,4.87,4.87,0,0,0-1.88-3.44,4.27,4.27,0,0,0-3.53-.55.5.5,0,0,1-.22-1,5.31,5.31,0,0,1,4.33.71,5.87,5.87,0,0,1,2.29,4.13.5.5,0,0,1-.44.56Z"/><path class="cls-8" d="M1035.24,283.24h0a.5.5,0,0,1-.48-.52,8.54,8.54,0,0,1,7.62-8.51c4.44-.54,8.7,2.29,9.54,6.29a.5.5,0,1,1-1,.21c-.74-3.51-4.52-6-8.44-5.5a7.56,7.56,0,0,0-6.74,7.55A.5.5,0,0,1,1035.24,283.24Z"/><path class="cls-8" d="M1026,287a.5.5,0,0,1-.27-.08l-.45-.28a10.92,10.92,0,0,0-4.07-1.19.5.5,0,1,1,.11-1,11.77,11.77,0,0,1,4.46,1.32l.5.31a.5.5,0,0,1-.27.92Z"/><path class="cls-9" d="M1049.81,287.48s14-7.75,21.73,7.48c0,0,6.94-1.9,9.65,1,0,0,5.17-6.12,9.25,1.36,0,0,3.81-2,5.3,1"/><path class="cls-8" d="M1095.74,298.72a.5.5,0,0,1-.45-.28,2.26,2.26,0,0,0-1.36-1.23,5,5,0,0,0-3.26.5.5.5,0,0,1-.67-.2c-1.16-2.13-2.51-3.29-4-3.44-2.37-.24-4.41,2.14-4.43,2.16a.5.5,0,0,1-.37.18.52.52,0,0,1-.38-.16c-2.48-2.61-9.09-.83-9.16-.81a.5.5,0,0,1-.58-.26c-2.31-4.54-5.41-7.43-9.2-8.59-6-1.84-11.78,1.29-11.84,1.33a.5.5,0,1,1-.48-.87c.25-.14,6.2-3.37,12.61-1.41,4,1.21,7.21,4.16,9.63,8.75,1.48-.35,6.69-1.37,9.37.83.77-.76,2.66-2.37,4.94-2.13,1.73.17,3.25,1.37,4.54,3.55a5.52,5.52,0,0,1,3.59-.36,3.25,3.25,0,0,1,2,1.74.5.5,0,0,1-.45.72Z"/><path class="cls-8" d="M1064.46,258.64a.36.36,0,0,0,.35.28,6.6,6.6,0,0,0-.21-.66A.37.37,0,0,0,1064.46,258.64Z"/><path class="cls-8" d="M1069,258.89a5.17,5.17,0,0,0-4.22-.69.37.37,0,0,0-.14.06,6.6,6.6,0,0,1,.21.66h.09a4.4,4.4,0,0,1,3.64.57,5,5,0,0,1,1.93,3.53.37.37,0,0,0,.37.32h0a.37.37,0,0,0,.32-.41A5.74,5.74,0,0,0,1069,258.89Z"/><path class="cls-8" d="M1065.27,259.19c-.83-3.94-5-6.71-9.4-6.19a8.3,8.3,0,0,0-7.23,6.43.37.37,0,0,0,.27.45h.09a.37.37,0,0,0,.36-.28,7.58,7.58,0,0,1,6.6-5.87c4-.49,7.83,2,8.59,5.61a.37.37,0,1,0,.72-.15Zm-9.35-5.82a7.94,7.94,0,0,0-6.92,6.15,7.94,7.94,0,0,1,6.92-6.15c3.94-.48,8.17,2,9,5.9C1064.08,255.35,1059.86,252.89,1055.91,253.37Z"/><path class="cls-9" d="M1049.8,259.63a2.26,2.26,0,0,0-.8-.12l2.62,1.5A3.3,3.3,0,0,0,1049.8,259.63Z"/><path class="cls-8" d="M1048.63,259.53a.35.35,0,0,0,.38.36,1.82,1.82,0,0,1,.67.1,2.93,2.93,0,0,1,1.62,1.22.37.37,0,0,0,.63-.39,3.65,3.65,0,0,0-2-1.54,2.65,2.65,0,0,0-.82-.13c0,.12-.07.24-.1.36,0-.12.07-.24.1-.36H1049A.37.37,0,0,0,1048.63,259.53Z"/><path class="cls-8" d="M1011.13,244.36a.5.5,0,0,1-.45-.28c-2.36-4.86-9-4.22-9.08-4.21a.49.49,0,0,1-.55-.44.5.5,0,0,1,.44-.55c.3,0,7.42-.72,10.08,4.77a.5.5,0,0,1-.45.72Z"/><path class="cls-8" d="M1038.4,257.14h0a.5.5,0,0,1-.5-.5,2.75,2.75,0,0,0-.86-2.17c-1.36-1.24-3.87-1-3.9-1a.5.5,0,0,1-.54-.42c-.6-3.78-2.32-5.7-5.57-6.25-2.23-.38-4.37.91-5.77,2a.5.5,0,1,1-.63-.78c1.56-1.27,4-2.69,6.57-2.26,3.56.6,5.57,2.71,6.32,6.64a6.35,6.35,0,0,1,4.2,1.28,3.74,3.74,0,0,1,1.19,2.91A.5.5,0,0,1,1038.4,257.14Z"/><path class="cls-8" d="M1019.22,250.61h-.08a.5.5,0,0,1-.38-.31c-1.51-3.83-6.37-2.23-6.58-2.16a.5.5,0,0,1-.66-.45,9.1,9.1,0,0,0-.84-3.61.5.5,0,0,1,.9-.44,9.78,9.78,0,0,1,.9,3.37c2-.5,5.34-.5,6.88,2.22a15.67,15.67,0,0,1,1.27-1.16.5.5,0,1,1,.63.78,13.37,13.37,0,0,0-1.65,1.59A.5.5,0,0,1,1019.22,250.61Z"/><path class="cls-8" d="M1006.31,299.5h-4.48a.4.4,0,1,1,0-.8h4.48a.4.4,0,1,1,0,.8Z"/><path class="cls-8" d="M1257.24,299.5H1010a.43.43,0,1,1,0-.85h247.23a.43.43,0,1,1,0,.85Z"/><path class="cls-8" d="M1264.91,299.5h-3.09a.43.43,0,1,1,0-.85h3.09a.43.43,0,1,1,0,.85Z"/><rect class="cls-9" x="1173.74" y="210.91" width="34.24" height="88.17"/><path class="cls-8" d="M1208,299.58h-34.24a.5.5,0,0,1-.5-.5V210.91a.5.5,0,0,1,.5-.5H1208a.5.5,0,0,1,.5.5v88.17A.5.5,0,0,1,1208,299.58Zm-33.74-1h33.24V211.41h-33.24Z"/><rect class="cls-15" x="1181.23" y="215.64" width="6.42" height="11.98"/><path class="cls-8" d="M1187.65,228.13h-6.42a.5.5,0,0,1-.5-.5v-12a.5.5,0,0,1,.5-.5h6.42a.5.5,0,0,1,.5.5v12A.5.5,0,0,1,1187.65,228.13Zm-5.92-1h5.42v-11h-5.42Z"/><rect class="cls-15" x="1194.73" y="215.64" width="6.42" height="11.98"/><path class="cls-8" d="M1201.16,228.13h-6.42a.5.5,0,0,1-.5-.5v-12a.5.5,0,0,1,.5-.5h6.42a.5.5,0,0,1,.5.5v12A.5.5,0,0,1,1201.16,228.13Zm-5.92-1h5.42v-11h-5.42Z"/><rect class="cls-15" x="1180.9" y="235.54" width="6.42" height="11.98"/><path class="cls-8" d="M1187.32,248h-6.42a.5.5,0,0,1-.5-.5v-12a.5.5,0,0,1,.5-.5h6.42a.5.5,0,0,1,.5.5v12A.5.5,0,0,1,1187.32,248Zm-5.92-1h5.42V236h-5.42Z"/><rect class="cls-15" x="1194.4" y="235.54" width="6.42" height="11.98"/><path class="cls-8" d="M1200.82,248h-6.42a.5.5,0,0,1-.5-.5v-12a.5.5,0,0,1,.5-.5h6.42a.5.5,0,0,1,.5.5v12A.5.5,0,0,1,1200.82,248Zm-5.92-1h5.42V236h-5.42Z"/><rect class="cls-15" x="1180.57" y="255.45" width="6.42" height="11.98"/><path class="cls-8" d="M1187,267.93h-6.42a.5.5,0,0,1-.5-.5v-12a.5.5,0,0,1,.5-.5H1187a.5.5,0,0,1,.5.5v12A.5.5,0,0,1,1187,267.93Zm-5.92-1h5.42v-11h-5.42Z"/><rect class="cls-15" x="1194.07" y="255.45" width="6.42" height="11.98"/><path class="cls-8" d="M1200.49,267.93h-6.42a.5.5,0,0,1-.5-.5v-12a.5.5,0,0,1,.5-.5h6.42a.5.5,0,0,1,.5.5v12A.5.5,0,0,1,1200.49,267.93Zm-5.92-1H1200v-11h-5.42Z"/><rect class="cls-15" x="1180.9" y="272.57" width="19.59" height="23.11"/><path class="cls-8" d="M1200.49,296.18H1180.9a.5.5,0,0,1-.5-.5V272.57a.5.5,0,0,1,.5-.5h19.59a.5.5,0,0,1,.5.5v23.11A.5.5,0,0,1,1200.49,296.18Zm-19.09-1H1200V273.07H1181.4Z"/><path class="cls-8" d="M1190.86,296.18a.5.5,0,0,1-.5-.5V273a.5.5,0,0,1,1,0v22.68A.5.5,0,0,1,1190.86,296.18Z"/><rect class="cls-9" x="1207.98" y="246.88" width="34.46" height="52.2"/><path class="cls-8" d="M1242.44,299.58H1208a.5.5,0,0,1-.5-.5v-52.2a.5.5,0,0,1,.5-.5h34.46a.5.5,0,0,1,.5.5v52.2A.5.5,0,0,1,1242.44,299.58Zm-34-1h33.46v-51.2h-33.46Z"/><rect class="cls-9" x="1223.6" y="241.31" width="12.84" height="5.56"/><path class="cls-8" d="M1236.45,247.38h-12.84a.5.5,0,0,1-.5-.5v-5.56a.5.5,0,0,1,.5-.5h12.84a.5.5,0,0,1,.5.5v5.56A.5.5,0,0,1,1236.45,247.38Zm-12.34-1h11.84v-4.56h-11.84Z"/><rect class="cls-15" x="1213.33" y="253.3" width="7.7" height="7.7"/><path class="cls-8" d="M1221,261.5h-7.7a.5.5,0,0,1-.5-.5v-7.7a.5.5,0,0,1,.5-.5h7.7a.5.5,0,0,1,.5.5V261A.5.5,0,0,1,1221,261.5Zm-7.2-1h6.7v-6.7h-6.7Z"/><rect class="cls-15" x="1228.74" y="253.3" width="7.7" height="7.7"/><path class="cls-8" d="M1236.45,261.5h-7.7a.5.5,0,0,1-.5-.5v-7.7a.5.5,0,0,1,.5-.5h7.7a.5.5,0,0,1,.5.5V261A.5.5,0,0,1,1236.45,261.5Zm-7.2-1h6.7v-6.7h-6.7Z"/><rect class="cls-15" x="1228.74" y="267.42" width="7.7" height="7.7"/><path class="cls-8" d="M1236.45,275.63h-7.7a.5.5,0,0,1-.5-.5v-7.7a.5.5,0,0,1,.5-.5h7.7a.5.5,0,0,1,.5.5v7.7A.5.5,0,0,1,1236.45,275.63Zm-7.2-1h6.7v-6.7h-6.7Z"/><rect class="cls-15" x="1213.33" y="267.42" width="7.7" height="7.7"/><path class="cls-8" d="M1221,275.63h-7.7a.5.5,0,0,1-.5-.5v-7.7a.5.5,0,0,1,.5-.5h7.7a.5.5,0,0,1,.5.5v7.7A.5.5,0,0,1,1221,275.63Zm-7.2-1h6.7v-6.7h-6.7Z"/><rect class="cls-15" x="1213.33" y="280.29" width="23.11" height="15.62"/><path class="cls-8" d="M1236.45,296.41h-23.11a.5.5,0,0,1-.5-.5V280.29a.5.5,0,0,1,.5-.5h23.11a.5.5,0,0,1,.5.5v15.62A.5.5,0,0,1,1236.45,296.41Zm-22.61-1h22.11V280.79h-22.11Z"/><path class="cls-8" d="M1236.45,286.35h-23.11a.5.5,0,0,1,0-1h23.11a.5.5,0,0,1,0,1Z"/><path class="cls-8" d="M1144.08,269.27a.5.5,0,0,1-.5-.49,4.13,4.13,0,0,0-1.32-3.38,4,4,0,0,0-3-.51.5.5,0,0,1-.62-.52c.22-3.42-1.11-5.64-3.94-6.6-3.86-1.3-7.06,4.33-7.09,4.38a.5.5,0,0,1-.43.26.49.49,0,0,1-.44-.24c-2.14-3.49-6.23-2.17-6.27-2.16a.5.5,0,0,1-.65-.38c-.9-5-3.88-7.21-8.81-6.7-6.68.69-6.66,7.34-6.66,7.62a.5.5,0,0,1-.78.42,3.63,3.63,0,0,0-3.07-.72,4.53,4.53,0,0,0-2.42,2.36.5.5,0,0,1-.78.19c-1.78-1.45-3.5-2-5.09-1.63-2.87.66-4.48,4-4.5,4.07a.5.5,0,0,1-.31.27.49.49,0,0,1-.4-.05c-2.15-1.31-4-1.64-5.37-1-2.28,1-2.85,4.36-2.86,4.39a.5.5,0,0,1-1-.16c0-.16.66-3.87,3.42-5.14,1.62-.75,3.58-.48,5.85.78.6-1.06,2.27-3.53,4.92-4.14a6.61,6.61,0,0,1,5.46,1.46,5.09,5.09,0,0,1,2.76-2.36,4.21,4.21,0,0,1,3.2.42c.23-2.05,1.42-7.15,7.5-7.77,5.3-.55,8.68,1.87,9.79,7a6.41,6.41,0,0,1,6.45,2.07c1.07-1.61,4.1-5.45,7.87-4.18,2.18.74,4.71,2.55,4.64,7a4.67,4.67,0,0,1,3.25.79,5.06,5.06,0,0,1,1.72,4.15.5.5,0,0,1-.49.51Z"/><path class="cls-8" d="M1249,299.81a.5.5,0,0,1-.5-.5V261.53c-.08-1.7.59-5.08,3.7-5.54.15,0,4.53-1,7.42,1.28a6.9,6.9,0,0,1,2.4,5.61.5.5,0,0,1-.49.51h0a.5.5,0,0,1-.5-.49,6,6,0,0,0-2-4.85c-2.52-2-6.58-1.1-6.62-1.08-3,.45-2.88,4.49-2.88,4.54v37.8A.5.5,0,0,1,1249,299.81Z"/><path class="cls-16" d="M1257.91,265.9h7.23s1.09-4.09-1.91-4.09h-4.09S1257.37,261.67,1257.91,265.9Z"/><path class="cls-8" d="M1265.14,266.4h-7.23a.5.5,0,0,1-.5-.44c-.26-2,0-3.43.65-4.16a1.45,1.45,0,0,1,1.12-.49h4.05a2.38,2.38,0,0,1,2,.89c1,1.35.42,3.73.39,3.83A.5.5,0,0,1,1265.14,266.4Zm-6.78-1h6.38a3.7,3.7,0,0,0-.3-2.59,1.42,1.42,0,0,0-1.21-.5h-4.09a.52.52,0,0,0-.38.21C1258.53,262.79,1258.18,263.52,1258.36,265.4Z"/><rect class="cls-9" x="1048.85" y="266.9" width="72.44" height="32.16"/><path class="cls-8" d="M1121.29,299.56h-72.44a.5.5,0,0,1-.5-.5V266.9a.5.5,0,0,1,.5-.5h72.44a.5.5,0,0,1,.5.5v32.16A.5.5,0,0,1,1121.29,299.56Zm-71.94-1h71.44V267.4h-71.44Z"/><rect class="cls-9" x="1072.04" y="274.86" width="24.2" height="24.2"/><path class="cls-8" d="M1096.24,299.56H1072a.5.5,0,0,1-.5-.5v-24.2a.5.5,0,0,1,.5-.5h24.2a.5.5,0,0,1,.5.5v24.2A.5.5,0,0,1,1096.24,299.56Zm-23.7-1h23.2v-23.2h-23.2Z"/><rect class="cls-15" x="1075.06" y="282.98" width="18.2" height="16.08"/><path class="cls-8" d="M1093.26,299.56h-18.2a.5.5,0,0,1-.5-.5V283a.5.5,0,0,1,.5-.5h18.2a.5.5,0,0,1,.5.5v16.08A.5.5,0,0,1,1093.26,299.56Zm-17.7-1h17.2V283.48h-17.2Z"/><rect class="cls-15" x="1074.85" y="276.72" width="18.62" height="3.22"/><path class="cls-8" d="M1093.47,280.44h-18.62a.5.5,0,0,1-.5-.5v-3.22a.5.5,0,0,1,.5-.5h18.62a.5.5,0,0,1,.5.5v3.22A.5.5,0,0,1,1093.47,280.44Zm-18.12-1H1093v-2.22h-17.62Z"/><line class="cls-9" x1="1061.88" y1="281.29" x2="1056.3" y2="286.96"/><path class="cls-8" d="M1056.3,287.46a.5.5,0,0,1-.36-.85l5.59-5.67a.5.5,0,1,1,.71.7l-5.59,5.67A.5.5,0,0,1,1056.3,287.46Z"/><line class="cls-9" x1="1065.44" y1="282.98" x2="1055.96" y2="292.12"/><path class="cls-8" d="M1056,292.62a.5.5,0,0,1-.35-.86l9.48-9.14a.5.5,0,1,1,.69.72l-9.48,9.14A.5.5,0,0,1,1056,292.62Z"/><line class="cls-9" x1="1109.95" y1="281.29" x2="1104.36" y2="286.96"/><path class="cls-8" d="M1104.37,287.46a.5.5,0,0,1-.36-.85l5.58-5.67a.5.5,0,1,1,.71.7l-5.58,5.67A.5.5,0,0,1,1104.37,287.46Z"/><line class="cls-9" x1="1113.34" y1="282.98" x2="1103.86" y2="292.63"/><path class="cls-8" d="M1103.86,293.13a.5.5,0,0,1-.36-.85l9.48-9.65a.5.5,0,1,1,.71.7l-9.48,9.65A.5.5,0,0,1,1103.86,293.13Z"/><rect class="cls-9" x="1137.67" y="234.91" width="31.82" height="64.15"/><path class="cls-8" d="M1169.49,299.56h-31.82a.5.5,0,0,1-.5-.5V234.91a.5.5,0,0,1,.5-.5h31.82a.5.5,0,0,1,.5.5v64.15A.5.5,0,0,1,1169.49,299.56Zm-31.32-1H1169V235.41h-30.82Z"/><rect class="cls-15" x="1141.39" y="281.46" width="10.49" height="17.6"/><path class="cls-8" d="M1151.89,299.56h-10.49a.5.5,0,0,1-.5-.5v-17.6a.5.5,0,0,1,.5-.5h10.49a.5.5,0,0,1,.5.5v17.6A.5.5,0,0,1,1151.89,299.56Zm-10-1h9.49V282h-9.49Z"/><rect class="cls-15" x="1155.26" y="281.46" width="9.66" height="11.34"/><path class="cls-8" d="M1164.92,293.3h-9.66a.5.5,0,0,1-.5-.5V281.46a.5.5,0,0,1,.5-.5h9.66a.5.5,0,0,1,.5.5V292.8A.5.5,0,0,1,1164.92,293.3Zm-9.16-1h8.66V282h-8.66Z"/><rect class="cls-15" x="1141.39" y="239.15" width="23.53" height="6.09"/><path class="cls-8" d="M1164.92,245.74h-23.53a.5.5,0,0,1-.5-.5v-6.09a.5.5,0,0,1,.5-.5h23.53a.5.5,0,0,1,.5.5v6.09A.5.5,0,0,1,1164.92,245.74Zm-23-1h22.53v-5.09h-22.53Z"/><path class="cls-8" d="M1149.69,245.74a.5.5,0,0,1-.5-.5v-6.09a.5.5,0,1,1,1,0v6.09A.5.5,0,0,1,1149.69,245.74Z"/><path class="cls-8" d="M1156.46,245.74a.5.5,0,0,1-.5-.5v-6.09a.5.5,0,1,1,1,0v6.09A.5.5,0,0,1,1156.46,245.74Z"/><rect class="cls-15" x="1141.39" y="249.3" width="23.53" height="6.09"/><path class="cls-8" d="M1164.92,255.89h-23.53a.5.5,0,0,1-.5-.5V249.3a.5.5,0,0,1,.5-.5h23.53a.5.5,0,0,1,.5.5v6.09A.5.5,0,0,1,1164.92,255.89Zm-23-1h22.53V249.8h-22.53Z"/><path class="cls-8" d="M1149.69,255.89a.5.5,0,0,1-.5-.5V249.3a.5.5,0,0,1,1,0v6.09A.5.5,0,0,1,1149.69,255.89Z"/><path class="cls-8" d="M1156.46,255.89a.5.5,0,0,1-.5-.5V249.3a.5.5,0,0,1,1,0v6.09A.5.5,0,0,1,1156.46,255.89Z"/><rect class="cls-15" x="1141.39" y="259.46" width="23.53" height="6.09"/><path class="cls-8" d="M1164.92,266h-23.53a.5.5,0,0,1-.5-.5v-6.09a.5.5,0,0,1,.5-.5h23.53a.5.5,0,0,1,.5.5v6.09A.5.5,0,0,1,1164.92,266Zm-23-1h22.53V260h-22.53Z"/><path class="cls-8" d="M1149.69,266a.5.5,0,0,1-.5-.5v-6.09a.5.5,0,0,1,1,0v6.09A.5.5,0,0,1,1149.69,266Z"/><path class="cls-8" d="M1156.46,266a.5.5,0,0,1-.5-.5v-6.09a.5.5,0,1,1,1,0v6.09A.5.5,0,0,1,1156.46,266Z"/><rect class="cls-15" x="1141.39" y="270.63" width="23.53" height="6.09"/><path class="cls-8" d="M1164.92,277.22h-23.53a.5.5,0,0,1-.5-.5v-6.09a.5.5,0,0,1,.5-.5h23.53a.5.5,0,0,1,.5.5v6.09A.5.5,0,0,1,1164.92,277.22Zm-23-1h22.53v-5.09h-22.53Z"/><path class="cls-8" d="M1149.69,277.22a.5.5,0,0,1-.5-.5v-6.09a.5.5,0,0,1,1,0v6.09A.5.5,0,0,1,1149.69,277.22Z"/><path class="cls-8" d="M1156.46,277.22a.5.5,0,0,1-.5-.5v-6.09a.5.5,0,0,1,1,0v6.09A.5.5,0,0,1,1156.46,277.22Z"/><rect class="cls-15" x="1064.19" y="262.97" width="41.36" height="3.93"/><path class="cls-8" d="M1105.55,267.4h-41.36a.5.5,0,0,1-.5-.5V263a.5.5,0,0,1,.5-.5h41.36a.5.5,0,0,1,.5.5v3.93A.5.5,0,0,1,1105.55,267.4Zm-40.86-1H1105v-2.93h-40.36Z"/><circle class="cls-17" cx="1129.92" cy="279.69" r="12.54"/><path class="cls-8" d="M1129.92,292.73a13,13,0,1,1,13-13A13.05,13.05,0,0,1,1129.92,292.73Zm0-25.07a12,12,0,1,0,12,12A12,12,0,0,0,1129.92,267.66Z"/><circle class="cls-17" cx="1117.55" cy="285.03" r="7.28"/><path class="cls-8" d="M1117.55,292.81a7.78,7.78,0,1,1,7.78-7.78A7.79,7.79,0,0,1,1117.55,292.81Zm0-14.56a6.78,6.78,0,1,0,6.78,6.78A6.79,6.79,0,0,0,1117.55,278.25Z"/><path class="cls-8" d="M1117.55,299.51a.5.5,0,0,1-.5-.5V287.38a.5.5,0,0,1,1,0V299A.5.5,0,0,1,1117.55,299.51Z"/><path class="cls-8" d="M1130.08,299.68a.5.5,0,0,1-.5-.5V282a.5.5,0,1,1,1,0v17.15A.5.5,0,0,1,1130.08,299.68Z"/><line class="cls-9" x1="1134.37" y1="280.91" x2="1130.37" y2="285.03"/><path class="cls-8" d="M1130.37,285.53a.5.5,0,0,1-.36-.85l4-4.12a.5.5,0,1,1,.72.7l-4,4.12A.5.5,0,0,1,1130.37,285.53Z"/><line class="cls-9" x1="1129.8" y1="289.32" x2="1126.28" y2="286.08"/><path class="cls-8" d="M1129.8,289.82a.5.5,0,0,1-.34-.13l-3.52-3.24a.5.5,0,1,1,.68-.74l3.52,3.24a.5.5,0,0,1-.34.87Z"/><path class="cls-8" d="M1019,266.39h-.08a.5.5,0,0,1-.41-.57,4.25,4.25,0,0,1,2-3,3.55,3.55,0,0,1,3.2.33,4.69,4.69,0,0,1,2.72-2.18,3.71,3.71,0,0,1,3,.69,2.89,2.89,0,0,1,1.5-1.18,2.42,2.42,0,0,1,1.61.11,4.64,4.64,0,0,1,4.26-4.12c2.95-.31,4.85,1,5.53,3.77a3.7,3.7,0,0,1,3.33,1c.72-1,2.36-2.81,4.39-2.12a3.82,3.82,0,0,1,2.68,3.79,2.73,2.73,0,0,1,1.68.49,3,3,0,0,1,1,2.44.5.5,0,0,1-.49.51h0a.5.5,0,0,1-.5-.49,2,2,0,0,0-.63-1.67,2,2,0,0,0-1.46-.24.5.5,0,0,1-.62-.52c.11-1.75-.56-2.88-2-3.37-1.93-.65-3.58,2.26-3.6,2.29a.5.5,0,0,1-.43.26.48.48,0,0,1-.44-.24,2.75,2.75,0,0,0-3.16-1.08.5.5,0,0,1-.41,0,.5.5,0,0,1-.24-.34c-.47-2.6-2-3.74-4.56-3.47a3.8,3.8,0,0,0-3.43,3.92.5.5,0,0,1-.78.42,1.78,1.78,0,0,0-1.49-.36,2.25,2.25,0,0,0-1.17,1.16.5.5,0,0,1-.34.29.51.51,0,0,1-.44-.1,3,3,0,0,0-2.57-.85,4.12,4.12,0,0,0-2.3,2.1.5.5,0,0,1-.31.27.51.51,0,0,1-.4-.05,3,3,0,0,0-2.71-.53c-1.12.51-1.42,2.21-1.43,2.22A.5.5,0,0,1,1019,266.39Z"/><path class="cls-8" d="M1018.3,306h-8.85a.5.5,0,0,1,0-1h8.85a.5.5,0,0,1,0,1Z"/><path class="cls-8" d="M1068.34,309.72h-41.26a.5.5,0,0,1,0-1h41.26a.5.5,0,0,1,0,1Z"/><path class="cls-8" d="M1077.2,304.62H1069a.5.5,0,0,1,0-1h8.17a.5.5,0,0,1,0,1Z"/><path class="cls-8" d="M1121.12,309.72H1081.5a.5.5,0,0,1,0-1h39.62a.5.5,0,0,1,0,1Z"/><path class="cls-8" d="M1134.06,304.62h-18.39a.5.5,0,0,1,0-1h18.39a.5.5,0,0,1,0,1Z"/><path class="cls-8" d="M1140.86,309.72h-11.58a.5.5,0,0,1,0-1h11.58a.5.5,0,0,1,0,1Z"/><path class="cls-8" d="M1202.66,309.72h-55a.5.5,0,0,1,0-1h55a.5.5,0,0,1,0,1Z"/><path class="cls-8" d="M1189.78,305.75h-14.61a.5.5,0,0,1,0-1h14.61a.5.5,0,0,1,0,1Z"/><path class="cls-8" d="M1196.25,305.75h-3.52a.5.5,0,0,1,0-1h3.52a.5.5,0,0,1,0,1Z"/><path class="cls-8" d="M1237,305.75h-6.58a.5.5,0,0,1,0-1H1237a.5.5,0,0,1,0,1Z"/><path class="cls-8" d="M1218.6,309.72h-10.21a.5.5,0,0,1,0-1h10.21a.5.5,0,0,1,0,1Z"/><path class="cls-8" d="M1268.31,309.72h-25.19a.5.5,0,0,1,0-1h25.19a.5.5,0,0,1,0,1Z"/><path class="cls-8" d="M1240.62,315.28h-11.8a.5.5,0,0,1,0-1h11.8a.5.5,0,0,1,0,1Z"/><path class="cls-8" d="M1200.79,316.65h-23.61a.5.5,0,0,1,0-1h23.61a.5.5,0,0,1,0,1Z"/><path class="cls-8" d="M1162.31,316.65h-28.25a.5.5,0,0,1,0-1h28.25a.5.5,0,0,1,0,1Z"/><path class="cls-8" d="M1123.27,316.65h-3.4a.5.5,0,0,1,0-1h3.4a.5.5,0,0,1,0,1Z"/><path class="cls-8" d="M1110.56,315.51h-20.2a.5.5,0,0,1,0-1h20.2a.5.5,0,0,1,0,1Z"/><path class="cls-8" d="M1076.29,319.6h-11.67a.5.5,0,0,1,0-1h11.67a.5.5,0,0,1,0,1Z"/><path class="cls-8" d="M1061.48,319.6H1058a.5.5,0,0,1,0-1h3.46a.5.5,0,0,1,0,1Z"/><path class="cls-8" d="M1052.8,315.51h-1.36a.5.5,0,0,1,0-1h1.36a.5.5,0,0,1,0,1Z"/><path class="cls-8" d="M1048,315.51h-8.29a.5.5,0,0,1,0-1H1048a.5.5,0,0,1,0,1Z"/><path class="cls-8" d="M1032.37,315.51h-17.14a.5.5,0,0,1,0-1h17.14a.5.5,0,0,1,0,1Z"/><path class="cls-8" d="M1006.38,313.24h-7.26a.5.5,0,0,1,0-1h7.26a.5.5,0,0,1,0,1Z"/><path class="cls-8" d="M1020.23,324.14h-13.85a.5.5,0,0,1,0-1h13.85a.5.5,0,0,1,0,1Z"/><path class="cls-8" d="M1039.75,333.21h-7.38a.5.5,0,0,1,0-1h7.38a.5.5,0,0,1,0,1Z"/><path class="cls-8" d="M1083.13,340.93h-11.32a.5.5,0,0,1,0-1h11.32a.5.5,0,0,1,0,1Z"/><path class="cls-8" d="M1084.53,326.63h-22.85a.5.5,0,0,1,0-1h22.85a.5.5,0,0,1,0,1Z"/><path class="cls-8" d="M1047.71,322.55h-3.83a.5.5,0,0,1,0-1h3.83a.5.5,0,0,1,0,1Z"/><path class="cls-8" d="M1110.56,334.8h-17a.5.5,0,0,1,0-1h17a.5.5,0,0,1,0,1Z"/><path class="cls-8" d="M1137.12,340.93h-16a.5.5,0,0,1,0-1h16a.5.5,0,0,1,0,1Z"/><path class="cls-8" d="M1147.67,325h-18.38a.5.5,0,0,1,0-1h18.38a.5.5,0,0,1,0,1Z"/><path class="cls-8" d="M1168.89,334.8h-18.38a.5.5,0,0,1,0-1h18.38a.5.5,0,0,1,0,1Z"/><path class="cls-8" d="M1164.81,328.9h-7a.5.5,0,0,1,0-1h7a.5.5,0,0,1,0,1Z"/><path class="cls-8" d="M1178.65,325h-9.08a.5.5,0,0,1,0-1h9.08a.5.5,0,0,1,0,1Z"/><path class="cls-8" d="M1200.79,324.36h-8.06a.5.5,0,0,1,0-1h8.06a.5.5,0,0,1,0,1Z"/><path class="cls-8" d="M1213.5,335.94h-12.71a.5.5,0,0,1,0-1h12.71a.5.5,0,0,1,0,1Z"/><path class="cls-8" d="M1244.7,323.23h-29.05a.5.5,0,0,1,0-1h29.05a.5.5,0,0,1,0,1Z"/><path class="cls-8" d="M995.19,350.43h-4.83a.43.43,0,1,1,0-.86h4.83a.43.43,0,0,1,0,.86Z"/><path class="cls-8" d="M1266.09,350.43H999.18a.46.46,0,0,1,0-.92h266.9a.46.46,0,1,1,0,.92Z"/><path class="cls-8" d="M1274.37,350.43H1271a.46.46,0,0,1,0-.92h3.33a.46.46,0,0,1,0,.92Z"/><path class="cls-13" d="M1240.29,197.73h-5.81a.47.47,0,0,1-.47-.49,4.27,4.27,0,0,0-1.14-3.26c-1.77-1.82-5-1.8-5-1.81a.53.53,0,0,1-.36-.16.48.48,0,0,1-.11-.38,9.84,9.84,0,0,0-2-6.76,7.79,7.79,0,0,0-6.14-2.43,7.2,7.2,0,0,0-5.4,2.06c-2.4,2.51-2.26,6.5-2.26,6.54a.48.48,0,0,1-.19.4.48.48,0,0,1-.44.07,6.65,6.65,0,0,0-5.61.26c-2.84,1.65-3.64,5.54-3.65,5.58a.48.48,0,0,1-.47.38h-11.42a.48.48,0,0,1,0-1h11c.29-1.1,1.32-4.27,4-5.83a7.29,7.29,0,0,1,5.78-.53,10.44,10.44,0,0,1,2.51-6.57,8.1,8.1,0,0,1,6.09-2.36,8.72,8.72,0,0,1,6.86,2.75,10.73,10.73,0,0,1,2.31,7,8.31,8.31,0,0,1,5.19,2.08,5.06,5.06,0,0,1,1.41,3.47h5.33a.48.48,0,1,1,0,1Z"/><path class="cls-13" d="M1050.52,203.08h0l8.15-.37a1,1,0,0,0,.6-.08,1,1,0,0,0,.29-.71c0-.06,0-.1,0-.13a7.09,7.09,0,0,1,.28-.81,5.35,5.35,0,0,1,.73-1.26,4.54,4.54,0,0,1,1.91-1.41,5.62,5.62,0,0,1,1.84-.37,6.09,6.09,0,0,1,.68,0,1,1,0,0,0,.55,0c.29-.1.39-.43.58-1.19,0-.12.05-.22.07-.27a14.64,14.64,0,0,1,.79-1.86,9.69,9.69,0,0,1,1.86-2.57,7.15,7.15,0,0,1,4.24-2,9.43,9.43,0,0,1,8.65,4.13,10.27,10.27,0,0,1,1.53,6.36.39.39,0,0,0,.77.08,11.07,11.07,0,0,0-1.65-6.86,10.09,10.09,0,0,0-9.39-4.49,7.91,7.91,0,0,0-4.69,2.19,10.44,10.44,0,0,0-2,2.78,15.35,15.35,0,0,0-.83,2c0,.07-.05.19-.09.34s-.11.43-.17.6l-.15,0a7.3,7.3,0,0,0-.76,0,6.41,6.41,0,0,0-2.1.42,5.32,5.32,0,0,0-2.24,1.66,6.11,6.11,0,0,0-.83,1.44,7.9,7.9,0,0,0-.31.9s0,.13,0,.22l0,.14h-.14l-8.15.37a.39.39,0,0,0,0,.77Z"/><path class="cls-13" d="M1245.64,233.77h4a.33.33,0,0,0,.33-.34,3,3,0,0,1,.79-2.25,5.49,5.49,0,0,1,3.46-1.25.37.37,0,0,0,.25-.11.33.33,0,0,0,.08-.26,6.8,6.8,0,0,1,1.42-4.67,5.38,5.38,0,0,1,4.25-1.68,5,5,0,0,1,3.74,1.43,6.93,6.93,0,0,1,1.56,4.52.33.33,0,0,0,.13.28.34.34,0,0,0,.3,0,4.59,4.59,0,0,1,3.88.18,6.38,6.38,0,0,1,2.52,3.86.33.33,0,0,0,.32.26h7.9a.33.33,0,0,0,0-.66h-7.64a6.74,6.74,0,0,0-2.77-4,5,5,0,0,0-4-.37,7.22,7.22,0,0,0-1.73-4.54,5.6,5.6,0,0,0-4.21-1.63,6,6,0,0,0-4.75,1.9,7.42,7.42,0,0,0-1.6,4.84,5.74,5.74,0,0,0-3.59,1.44,3.5,3.5,0,0,0-1,2.4h-3.69a.33.33,0,1,0,0,.66Z"/></g></g></svg>