<?xml version="1.0" encoding="utf-8"?>
<!-- Generator: Adobe Illustrator 20.0.0, SVG Export Plug-In . SVG Version: 6.00 Build 0)  -->
<svg version="1.1" id="Capa_1" xmlns="http://www.w3.org/2000/svg" xmlns:xlink="http://www.w3.org/1999/xlink" x="0px" y="0px"
	 viewBox="0 0 58 58" style="enable-background:new 0 0 58 58;" xml:space="preserve">
<style type="text/css">
	.st0{fill:#32B475;}
	.st1{fill:#FFFFFF;}
</style>
<circle class="st0" cx="29" cy="29" r="29"/>
<g>
	<polygon class="st1" points="43,29 22,42.6 22,29.2 22,15.4 	"/>
	<path class="st1" d="M22,43.6c-0.2,0-0.3,0-0.4-0.1C21.2,43.3,21,43,21,42.6V15.4c0-0.3,0.2-0.6,0.5-0.8c0.3-0.2,0.7-0.1,1,0.1
		l21.1,13.6c0.3,0.2,0.4,0.5,0.4,0.8c0,0.3-0.2,0.6-0.4,0.8L22.5,43.4C22.3,43.5,22.1,43.6,22,43.6z M22.9,17.1v23.8L41.3,29
		L22.9,17.1z"/>
</g>
</svg>
