<svg xmlns="http://www.w3.org/2000/svg" viewBox="0 0 90 45.22"><defs><style>.cls-1{fill:#caedff;}.cls-2{fill:#3273ad;}.cls-3{fill:#fad264;}</style></defs><title>Asset 3</title><g id="Layer_2" data-name="Layer 2"><g id="Layer_1-2" data-name="Layer 1"><circle class="cls-1" cx="15.29" cy="29.93" r="15.06"/><path class="cls-2" d="M15.29,45.22A15.29,15.29,0,1,1,30.58,29.93,15.31,15.31,0,0,1,15.29,45.22Zm0-30.12A14.83,14.83,0,1,0,30.12,29.93,14.85,14.85,0,0,0,15.29,15.09Z"/><circle class="cls-3" cx="15.29" cy="29.93" r="2.1"/><path class="cls-2" d="M15.29,32.25a2.33,2.33,0,1,1,2.33-2.33A2.33,2.33,0,0,1,15.29,32.25Zm0-4.19a1.87,1.87,0,1,0,1.87,1.87A1.87,1.87,0,0,0,15.29,28.06Z"/><circle class="cls-1" cx="74.71" cy="29.93" r="15.06"/><path class="cls-2" d="M74.71,45.22A15.29,15.29,0,1,1,90,29.93,15.31,15.31,0,0,1,74.71,45.22Zm0-30.12A14.83,14.83,0,1,0,89.54,29.93,14.85,14.85,0,0,0,74.71,15.09Z"/><circle class="cls-3" cx="74.71" cy="29.93" r="2.1"/><path class="cls-2" d="M74.71,32.25A2.33,2.33,0,1,1,77,29.93,2.33,2.33,0,0,1,74.71,32.25Zm0-4.19a1.87,1.87,0,1,0,1.87,1.87A1.87,1.87,0,0,0,74.71,28.06Z"/><path class="cls-2" d="M74.71,30.16a.22.22,0,0,1-.13,0c-3.22-2.11-5.43-6.68-5.52-6.87L59.88,2.9a.23.23,0,0,1,.1-.3c.25-.14,6.19-3.3,8.41-2.45a1.29,1.29,0,0,1,.79.78c1,2.68-3.15,4.22-3.33,4.28a.23.23,0,0,1-.16-.43s3.86-1.45,3.05-3.7a.83.83,0,0,0-.52-.51c-1.82-.69-6.8,1.79-7.84,2.33l9.09,20.15s2.24,4.64,5.35,6.68a.23.23,0,0,1-.13.42Z"/><path class="cls-2" d="M52.12,30.36H15.31a.23.23,0,0,1-.16-.4L30.21,15.55a.23.23,0,0,1,.16-.06H46.68L62.5,8.15a.23.23,0,0,1,.3.31L52.32,30.23A.23.23,0,0,1,52.12,30.36ZM15.88,29.9H52L62.11,8.84,46.83,15.93l-.1,0H30.46Z"/><path class="cls-2" d="M35.75,30.36a.23.23,0,0,1-.21-.15L27,8.44a.22.22,0,0,1,0-.08V5a.23.23,0,1,1,.46,0V8.31L36,30a.23.23,0,0,1-.13.3Z"/><path class="cls-2" d="M51.31,30.36a.23.23,0,0,1-.21-.15L42.53,8.44a.22.22,0,0,1,0-.08V5A.23.23,0,0,1,43,5V8.31L51.52,30a.23.23,0,0,1-.13.3Z"/><path class="cls-3" d="M32.57,5S35.16,2.8,26.18,2.8,24.39,5,24.39,5Z"/><path class="cls-2" d="M32.57,5.23H24.32c-1.12-.34-3-1-2.88-1.76.07-.46.69-.89,4.74-.89,4.29,0,6.55.48,6.91,1.47a1.11,1.11,0,0,1-.38,1.13A.23.23,0,0,1,32.57,5.23Zm-8.14-.46h8.05a.59.59,0,0,0,.19-.56c-.13-.35-1-1.17-6.48-1.17-4,0-4.27.45-4.29.5C21.91,3.77,23.11,4.36,24.42,4.77Z"/><path class="cls-3" d="M48.13,5S50.72,2.8,41.74,2.8,39.95,5,39.95,5Z"/><path class="cls-2" d="M48.13,5.23H39.88c-1.12-.34-3-1-2.88-1.76.07-.46.69-.89,4.74-.89,4.29,0,6.55.48,6.91,1.47a1.11,1.11,0,0,1-.38,1.13A.23.23,0,0,1,48.13,5.23ZM40,4.77H48a.59.59,0,0,0,.19-.56C48.09,3.85,47.2,3,41.74,3c-4,0-4.27.45-4.29.5C37.47,3.77,38.67,4.36,40,4.77Z"/></g></g></svg>