<svg id="Layer_1" data-name="Layer 1" xmlns="http://www.w3.org/2000/svg" viewBox="0 0 90 80"><defs><style>.cls-1{fill:#c3f1fc;}.cls-1,.cls-2,.cls-3{stroke:#3273ad;stroke-miterlimit:10;stroke-width:0.5px;}.cls-2{fill:#f7f7f7;}.cls-3{fill:#fad264;}</style></defs><title>startincollege-initiative-icon</title><path class="cls-1" d="M50.22,63.23c-1.38-.43-5.44-2.18-5.92-2.4C43.86,59,44.07,46.44,44.11,45a1,1,0,0,0,0-.25c-.23-1.08-2.44-7.31-2.91-9.23a1.18,1.18,0,0,1,.12-.87l7-13.06a.5.5,0,0,1,.71-.16l4,3.1a.93.93,0,0,0,.31.18l9.06,4.57a.55.55,0,0,0,.56-.91L48.18,14.07a2.17,2.17,0,0,0-3.21.19c-2.56,3.2-9.89,12.9-13.41,17.58a4.34,4.34,0,0,0,0,5.17c2.39,3.28,6.22,8.6,6.58,9.47a1.11,1.11,0,0,1,.08.28c.23,1.59,2.29,15.95,2.55,16.73a1.44,1.44,0,0,0,1.83.92c.55-.12,5.75-.14,7.61-.43A.38.38,0,0,0,50.22,63.23Z"/><path class="cls-1" d="M53.68,15.77c2.78.67,5.31-1.13,6.63-5.35,1.11-3.57-.66-7.12-3.44-7.8S50.66,4.26,50.24,8C49.85,11.32,50.9,15.09,53.68,15.77Z"/><path class="cls-2" d="M74.9,18.61c-2-2.73-8.82-1.36-10.71-.92a.29.29,0,0,0-.14.48l9.88,10.37a.24.24,0,0,0,.39-.08C74.89,27,76.88,21.37,74.9,18.61Z"/><path class="cls-2" d="M62.93,19.21a1.37,1.37,0,0,0-1.45-.34,36.35,36.35,0,0,0-3.77,1.55.49.49,0,0,0-.12.79c1.68,1.62,5.46,5.67,6.85,7.4a1.36,1.36,0,0,1-1.39,2.07L51.32,25.55a1.14,1.14,0,0,0-1.36.34l-6.88,8.65a.85.85,0,0,0-.17.73l2.93,8.92V59.48a.73.73,0,0,0,.39.65l2.89,1.38a.27.27,0,0,0,.39-.29,8.43,8.43,0,0,0-.94-2.6.65.65,0,0,1,.2-.88c7-4.58,21.2-17.19,23.89-27.18a1.78,1.78,0,0,0-.45-1.69Z"/><path class="cls-2" d="M47.47,65.42l-6.71.48a1.21,1.21,0,0,1-1.27-1L36.65,47.41a1,1,0,0,0-.09-.29c-.18-.37-1.46-2.36-1.55-2.54a1.42,1.42,0,0,0-.38-.48c-8-6.05-15.52,6.17-17.62,11.15a.25.25,0,0,0,.38.3c5.3-3.69,8.07-1,9,.24a.69.69,0,0,1-.11.92l-2.4,2.09A.8.8,0,0,0,23.79,60l8,8.33a.53.53,0,0,0,.78,0c.47-.53,1.33-1.49,2.38-2.55a.77.77,0,0,1,.94-.13c3.33,2,2.1,6.56.38,9.47a.24.24,0,0,0,.32.34A34.74,34.74,0,0,0,47.77,66,.36.36,0,0,0,47.47,65.42Z"/><path class="cls-3" d="M22.66,61a.63.63,0,0,0-.82-.07c-1.1.78-3.94,3-5,5.86a.16.16,0,0,0,.25.17c.84-.77,2.12-1.23,1.45.19-.78,1.64-4,5.7-4.29,9.61a.69.69,0,0,0,.72.73c5.26-.26,8.66-3.22,9.62-3.74s1.33-.47.47,1.73a.18.18,0,0,0,.26.23c4.09-2.27,5.34-4.46,5.72-5.48a.93.93,0,0,0-.21-1Z"/><path class="cls-1" d="M27.11,25.93l3.3,2.49a1,1,0,0,0,1.33-.16L42.06,15.71a.7.7,0,0,0-.05-.95l-2.09-2a1.85,1.85,0,0,0-2.62,0L26.91,23.32A1.74,1.74,0,0,0,27.11,25.93Z"/></svg>