<?xml version="1.0" encoding="UTF-8" standalone="no"?>
<svg width="40px" height="40px" viewBox="0 0 40 40" version="1.1" xmlns="http://www.w3.org/2000/svg" xmlns:xlink="http://www.w3.org/1999/xlink">
    <!-- Generator: Sketch 3.7 (28169) - http://www.bohemiancoding.com/sketch -->
    <title>Page 1</title>
    <desc>Created with Sketch.</desc>
    <defs></defs>
    <g id="Page-1" stroke="none" stroke-width="1" fill="none" fill-rule="evenodd">
        <g transform="translate(1.000000, 1.000000)">
            <path d="M19,38 C29.493,38 38,29.493 38,19 C38,8.507 29.493,0 19,0 C8.507,0 0,8.507 0,19 C0,29.493 8.507,38 19,38 L19,38 Z" id="Stroke-1" stroke="#497EA8" stroke-width="2"></path>
            <path d="M16.7245,24.5409 C16.7245,24.5409 14.8695,24.8219 14.7975,26.0349 C14.7265,27.2479 15.7615,30.6019 15.7615,30.6019 L17.2955,29.3179 L18.9995,32.3869 L20.5065,29.8129 L21.5055,30.8169 C21.5055,30.8169 23.1935,27.7089 23.0755,26.1069 C22.9585,24.5039 21.0775,24.2509 21.0775,24.2509 L20.2925,24.9139 L17.5805,24.9139 L16.7245,24.5409 Z" id="Fill-3" fill="#B0D8F1"></path>
            <path d="M21.5055,29.8131 C21.3755,29.5321 21.2335,29.2131 21.0955,28.8831 C21.0075,28.6721 20.7975,28.5371 20.5685,28.5421 C20.3395,28.5491 20.1375,28.6941 20.0605,28.9101 C19.7455,29.7861 19.3245,30.7311 18.9995,31.4231 C18.6755,30.7311 18.2545,29.7861 17.9395,28.9101 C17.8625,28.6941 17.6605,28.5491 17.4315,28.5431 C17.2015,28.5371 16.9925,28.6721 16.9045,28.8841 C16.7665,29.2131 16.6235,29.5321 16.4945,29.8131 C15.9525,28.6341 15.3895,27.2131 15.3895,26.6031 C15.3895,25.6891 15.9535,24.9171 16.5515,24.9141 L16.6515,25.2531 C16.7205,25.4901 16.9385,25.6521 17.1845,25.6521 L20.8155,25.6521 C21.0615,25.6521 21.2785,25.4901 21.3485,25.2541 L21.4485,24.9141 C22.0465,24.9171 22.6105,25.6891 22.6105,26.6031 C22.6105,27.2121 22.0475,28.6331 21.5055,29.8131 L21.5055,29.8131 Z M18.9715,24.5411 L18.4415,20.4211 L19.5585,20.4211 L19.0275,24.5411 L18.9715,24.5411 Z M15.7395,20.6951 C15.7235,20.6791 14.1095,19.0541 14.1095,17.2861 C14.1095,14.5821 16.3035,12.3831 18.9995,12.3831 C21.6965,12.3831 23.8905,14.5821 23.8905,17.2861 C23.8905,19.0451 22.2765,20.6791 22.2605,20.6961 C21.6825,21.2711 21.0495,22.3341 20.8195,23.1151 L20.3995,24.5411 L20.1485,24.5411 L20.6795,20.4211 L21.3805,20.4211 C21.6875,20.4211 21.9365,20.1721 21.9365,19.8651 C21.9365,19.5581 21.6875,19.3091 21.3805,19.3091 L16.6195,19.3091 C16.3125,19.3091 16.0635,19.5581 16.0635,19.8651 C16.0635,20.1721 16.3125,20.4211 16.6195,20.4211 L17.3205,20.4211 L17.8515,24.5411 L17.6005,24.5411 L17.1805,23.1151 C16.9505,22.3331 16.3175,21.2701 15.7395,20.6951 L15.7395,20.6951 Z M21.7695,23.8231 L21.8855,23.4291 C22.0615,22.8321 22.6025,21.9231 23.0445,21.4831 C23.1245,21.4041 25.0015,19.5121 25.0015,17.2861 C25.0015,13.9701 22.3095,11.2721 18.9995,11.2721 C15.6905,11.2721 12.9975,13.9701 12.9975,17.2861 C12.9975,19.5121 14.8765,21.4041 14.9555,21.4831 C15.3975,21.9221 15.9385,22.8321 16.1145,23.4291 L16.2305,23.8231 C15.1325,23.9891 14.2785,25.1721 14.2785,26.6031 C14.2785,27.9381 15.8245,31.0001 16.0005,31.3451 C16.0955,31.5301 16.2865,31.6471 16.4955,31.6471 C16.7035,31.6471 16.8955,31.5301 16.9905,31.3451 C17.0015,31.3221 17.1645,31.0041 17.3845,30.5341 C17.9185,31.7991 18.4745,32.8881 18.5045,32.9481 C18.6005,33.1341 18.7915,33.2511 18.9995,33.2511 C19.2085,33.2511 19.3995,33.1341 19.4945,32.9481 C19.5255,32.8881 20.0815,31.7981 20.6145,30.5341 C20.8355,31.0041 20.9985,31.3221 21.0095,31.3451 C21.1045,31.5301 21.2955,31.6471 21.5045,31.6471 C21.7135,31.6471 21.9045,31.5301 21.9995,31.3451 C22.1755,31.0001 23.7215,27.9381 23.7215,26.6031 C23.7215,25.1721 22.8675,23.9891 21.7695,23.8231 L21.7695,23.8231 Z" id="Fill-5" fill="#497FAB"></path>
            <path d="M9.3876,20.8573 L6.8406,21.9813 C6.4556,22.1513 6.2816,22.6013 6.4516,22.9863 C6.5366,23.1783 6.6916,23.3183 6.8736,23.3883 C7.0546,23.4593 7.2646,23.4603 7.4566,23.3753 L10.0036,22.2513 C10.3886,22.0813 10.5626,21.6313 10.3926,21.2463 C10.2226,20.8613 9.7726,20.6873 9.3876,20.8573" id="Fill-7" fill="#497FAB"></path>
            <path d="M10.3375,14.5696 C10.4895,14.1776 10.2955,13.7356 9.9035,13.5836 L7.3935,12.6086 C7.0015,12.4556 6.5595,12.6506 6.4075,13.0426 C6.2545,13.4356 6.4495,13.8766 6.8415,14.0286 L9.3515,15.0036 C9.7435,15.1566 10.1845,14.9626 10.3375,14.5696" id="Fill-9" fill="#497FAB"></path>
            <path d="M12.6264,8.8033 C12.7114,8.9963 12.8664,9.1363 13.0484,9.2073 C13.2294,9.2773 13.4384,9.2793 13.6314,9.1943 C14.0164,9.0253 14.1914,8.5753 14.0224,8.1903 L12.9034,5.6423 C12.7344,5.2573 12.2844,5.0823 11.8994,5.2513 C11.5144,5.4203 11.3384,5.8703 11.5084,6.2553 L12.6264,8.8033 Z" id="Fill-11" fill="#497FAB"></path>
            <path d="M30.2436,21.4861 L27.7336,20.5111 C27.3416,20.3581 26.8996,20.5531 26.7476,20.9451 C26.5946,21.3381 26.7896,21.7791 27.1816,21.9321 L29.6916,22.9071 C30.0836,23.0591 30.5256,22.8651 30.6776,22.4721 C30.8306,22.0801 30.6356,21.6381 30.2436,21.4861" id="Fill-13" fill="#497FAB"></path>
            <path d="M28.0604,15.0398 C28.2424,15.1108 28.4514,15.1118 28.6444,15.0268 L31.1904,13.9018 C31.5754,13.7318 31.7494,13.2818 31.5794,12.8968 C31.4094,12.5118 30.9594,12.3378 30.5744,12.5078 L28.0284,13.6328 C27.6434,13.8028 27.4694,14.2528 27.6394,14.6378 C27.7244,14.8298 27.8794,14.9698 28.0604,15.0398" id="Fill-15" fill="#497FAB"></path>
            <path d="M21.8919,8.9497 C22.2849,9.1027 22.7259,8.9077 22.8779,8.5157 L23.9379,5.7877 C24.0909,5.3947 23.8969,4.9537 23.5039,4.8007 C23.1119,4.6487 22.6699,4.8427 22.5179,5.2357 L21.4579,7.9637 C21.3049,8.3557 21.4999,8.7977 21.8919,8.9497" id="Fill-17" fill="#497FAB"></path>
        </g>
    </g>
</svg>