<?xml version="1.0" encoding="UTF-8" standalone="no"?>
<svg width="41px" height="40px" viewBox="0 0 41 40" version="1.1" xmlns="http://www.w3.org/2000/svg" xmlns:xlink="http://www.w3.org/1999/xlink">
    <!-- Generator: Sketch 3.7 (28169) - http://www.bohemiancoding.com/sketch -->
    <title>Page 1</title>
    <desc>Created with Sketch.</desc>
    <defs>
        <path d="M0,19 C0,29.494 8.507,38 19,38 C29.493,38 38,29.494 38,19 C38,8.507 29.493,0 19,0 C8.507,0 0,8.507 0,19 L0,19 Z" id="path-1"></path>
    </defs>
    <g id="Page-1" stroke="none" stroke-width="1" fill="none" fill-rule="evenodd">
        <g transform="translate(1.000000, 1.000000)">
            <g id="Group-3">
                <mask id="mask-2" fill="white">
                    <use xlink:href="#path-1"></use>
                </mask>
                <g id="Clip-2"></g>
                <polygon id="Fill-1" fill="#FFFFFF" mask="url(#mask-2)" points="-5 43 43 43 43 -5 -5 -5"></polygon>
            </g>
            <g id="Group-12">
                <path d="M19.4071,38 C29.9001,38 38.4071,29.493 38.4071,19 C38.4071,8.507 29.9001,0 19.4071,0 C8.9141,0 0.4071,8.507 0.4071,19 C0.4071,29.493 8.9141,38 19.4071,38 L19.4071,38 Z" id="Stroke-4" stroke="#497EA8" stroke-width="2"></path>
                <path d="M16.2127,10.9719 L14.8217,9.9679 C14.8217,9.9679 13.9017,8.1569 14.6637,7.4799 C15.4257,6.8029 16.2167,6.4519 16.2167,6.4519 C16.2167,6.4519 16.7787,7.3069 17.3657,7.8489 C17.9527,8.3899 19.3537,8.2529 19.8897,7.9319 C20.4257,7.6109 21.9197,6.6779 21.9197,6.6779 L21.3897,9.8339 L20.4357,11.5309 L18.5997,11.9669 L16.2127,10.9719 Z" id="Fill-6" fill="#B0D8F1"></path>
                <path d="M19.336,11.7764 C19.336,11.7764 14.593,12.7344 12.38,16.1014 C10.167,19.4694 6.578,30.9534 19.335,31.5104 C28.783,31.9234 29.675,21.6624 27.917,19.0934 C27.917,19.0934 25.476,12.6774 19.336,11.7764" id="Fill-8" fill="#B0D8F1"></path>
                <path d="M20.8378,10.9846 C21.1148,11.0676 21.2058,11.2596 21.1118,11.5586 C21.0068,11.6026 20.8598,11.5816 20.7508,11.5746 C20.6448,11.5676 20.5398,11.5506 20.4358,11.5306 C20.5398,11.3546 20.6498,11.1666 20.7628,10.9716 C20.7868,10.9746 20.8128,10.9786 20.8378,10.9846 L20.8378,10.9846 Z M21.8878,11.7766 C22.0528,12.0556 21.5398,12.1316 21.3248,12.1556 C21.3118,12.1576 21.3018,12.1576 21.2888,12.1586 C21.1458,12.0906 21.0018,12.0276 20.8588,11.9646 C21.2678,12.0116 21.6648,11.9756 21.8878,11.7766 L21.8878,11.7766 Z M21.6128,12.3156 C22.0358,12.2066 22.3528,11.9616 21.9648,11.5486 C21.9168,11.5006 21.8418,11.5176 21.8068,11.5686 C21.6958,11.7396 21.4398,11.7966 21.1408,11.7876 C21.2328,11.7606 21.3058,11.7126 21.3488,11.6366 C21.4998,11.3576 21.3558,11.1216 21.1368,10.9226 C21.0578,10.8506 20.9678,10.8056 20.8728,10.7796 C21.4628,9.7406 22.1008,8.5006 22.5278,7.3376 C23.5298,4.6196 19.3818,9.1966 17.9528,8.3906 C16.5218,7.5836 17.0948,5.0486 14.6638,7.4796 C12.9508,9.1926 15.6118,10.7616 17.3358,11.5416 C16.9858,11.5896 16.6378,11.6206 16.2948,11.6206 C15.9068,11.6206 15.5218,11.6086 15.1348,11.5776 C14.8228,11.5516 14.0328,11.5236 13.8848,11.1626 C13.8368,11.0446 13.6438,11.0966 13.6928,11.2146 C13.8568,11.6166 14.4248,11.6906 14.7988,11.7396 C15.2078,11.7916 15.6228,11.8176 16.0378,11.8216 C16.0318,11.8216 16.0278,11.8226 16.0228,11.8246 C15.0048,11.9566 13.9778,12.1176 12.9948,12.4176 C12.6448,12.5256 11.7598,12.7666 11.8278,13.2816 C11.8448,13.4076 12.0448,13.4086 12.0278,13.2816 C11.9508,12.7016 13.6888,12.4326 14.0468,12.3556 C15.0508,12.1376 16.0738,12.0016 17.0948,11.8996 C14.1948,13.3236 10.1668,17.4886 10.1668,22.5826 C10.1668,28.7466 14.2718,31.5106 19.3348,31.5106 C24.3988,31.5106 28.5048,28.7466 28.5048,22.5826 C28.5048,17.5336 25.0848,14.0476 21.6128,12.3156 L21.6128,12.3156 Z" id="Stroke-10" stroke="#497FAB" stroke-linecap="round"></path>
            </g>
            <text id="$" font-family="nevis-Bold, nevis" font-size="12.8888" font-weight="bold" fill="#497FAB">
                <tspan x="14.8208" y="24.8473938">$</tspan>
            </text>
        </g>
    </g>
</svg>