<?xml version="1.0" encoding="UTF-8" standalone="no"?>
<svg width="47px" height="45px" viewBox="0 0 47 45" version="1.1" xmlns="http://www.w3.org/2000/svg" xmlns:xlink="http://www.w3.org/1999/xlink">
    <!-- Generator: Sketch 3.6.1 (26313) - http://www.bohemiancoding.com/sketch -->
    <title>Group</title>
    <desc>Created with Sketch.</desc>
    <defs></defs>
    <g id="Page-1" stroke="none" stroke-width="1" fill="none" fill-rule="evenodd">
        <g id="Group" fill="#0089D0">
            <path d="M16.2361484,38.1579231 L13.9121703,37.0873187 L12.7953791,36.1466703 L11.0012143,37.9305495 L10.9997308,37.9305495 L10.7936209,37.9305495 L10.7924341,37.9305495 L8.99817033,36.1466703 L7.88157692,37.0873187 L5.55700549,38.1579231 C5.21322527,38.2984615 4.87518132,38.5122857 4.70339011,38.8862308 C4.70339011,38.8862308 2.17696154,44.9012967 3.54733516,44.9012967 L18.2463132,44.9012967 C19.6165879,44.9012967 17.0903571,38.8862308 17.0903571,38.8862308 C16.9404231,38.5275165 16.5804231,38.2984615 16.2361484,38.1579231" id="Fill-1"></path>
            <path d="M10.896478,26.575833 C7.9065989,26.575833 6.67913736,28.1178 6.70504945,30.6949648 C6.7455,34.4086022 8.82182967,36.6242835 10.896478,36.6242835 C12.669478,36.6242835 15.0481484,34.4086022 15.0880055,30.6949648 C15.114511,28.1177011 13.8863571,26.575833 10.896478,26.575833" id="Fill-3"></path>
            <path d="M29.8096121,38.1576956 L27.4851396,37.0870912 L26.3686451,36.1464429 L24.5742824,37.930322 L24.5732934,37.930322 L24.3670846,37.930322 L24.3657989,37.930322 L22.5719308,36.1464429 L21.4549418,37.0870912 L19.1310626,38.1576956 C18.7871835,38.2982341 18.4493374,38.5120582 18.2767549,38.8860033 C18.2767549,38.8860033 15.7506231,44.9010692 17.1208978,44.9010692 L31.819678,44.9010692 C33.1900516,44.9010692 30.6634253,38.8860033 30.6634253,38.8860033 C30.5134912,38.527289 30.1532934,38.2982341 29.8096121,38.1576956" id="Fill-5"></path>
            <path d="M24.4700505,36.6244912 C26.2429516,36.6244912 28.6212264,34.4088099 28.661578,30.6951725 C28.6873912,28.1176121 27.4601275,26.5760407 24.4700505,26.5760407 C21.4801714,26.5760407 20.2520176,28.1179088 20.2788198,30.6951725 C20.3184791,34.4086121 22.394611,36.6244912 24.4700505,36.6244912" id="Fill-7"></path>
            <path d="M22.0293099,16.1975176 C22.0896396,16.2273857 22.1548154,16.2419242 22.2197934,16.2419242 C22.3122659,16.2419242 22.4045407,16.2121549 22.4807934,16.1539022 L26.9090901,12.769111 C27.0156066,12.6878143 27.0779143,12.5615176 27.0779143,12.4275066 C27.0779143,12.2934956 27.0154088,12.1672978 26.9090901,12.0858033 L22.4807934,8.70120989 C22.3509363,8.60201209 22.1758813,8.5849022 22.029211,8.6574956 C21.8825407,8.72989121 21.7897714,8.87933077 21.7897714,9.04291319 L21.7897714,15.8120011 C21.7898703,15.9755835 21.8825407,16.1248253 22.0293099,16.1975176" id="Fill-9"></path>
            <path d="M23.4810989,5.65457143 C19.7464945,5.65457143 16.7081538,8.69291209 16.7081538,12.4275165 C16.7081538,16.1621209 19.7464945,19.2003626 23.4810989,19.2003626 C27.2157033,19.2003626 30.254044,16.1621209 30.254044,12.4275165 C30.254044,8.69291209 27.2157033,5.65457143 23.4810989,5.65457143 L23.4810989,5.65457143 Z M23.4810989,19.595967 C19.5283187,19.595967 16.3125495,16.3802967 16.3125495,12.4275165 C16.3125495,8.47483516 19.5283187,5.25896703 23.4810989,5.25896703 C27.4337802,5.25896703 30.6496484,8.47483516 30.6496484,12.4275165 C30.6496484,16.3802967 27.4337802,19.595967 23.4810989,19.595967 L23.4810989,19.595967 Z M0.797043956,0.395604396 C0.575703297,0.395604396 0.395604396,0.575703297 0.395604396,0.797142857 L0.395604396,24.057989 C0.395604396,24.2793297 0.575703297,24.4595275 0.797043956,24.4595275 L46.1648571,24.4595275 C46.3861978,24.4595275 46.5662967,24.2793297 46.5662967,24.057989 L46.5662967,0.797142857 C46.5662967,0.575703297 46.3861978,0.395604396 46.1648571,0.395604396 L0.797043956,0.395604396 Z M46.1648571,24.8551319 L0.797043956,24.8551319 C0.357527473,24.8551319 0,24.4975055 0,24.057989 L0,0.797142857 C0,0.357626374 0.357527473,0 0.797043956,0 L46.1648571,0 C46.6043736,0 46.9619011,0.357626374 46.9619011,0.797142857 L46.9619011,24.057989 C46.9619011,24.4975055 46.6043736,24.8551319 46.1648571,24.8551319 L46.1648571,24.8551319 Z" id="Fill-11"></path>
            <path d="M43.3830857,38.1576956 L41.0587121,37.0870912 L39.9421187,36.1464429 L38.147756,37.930322 L38.146767,37.930322 L37.9405582,37.930322 L37.9392725,37.930322 L36.1454044,36.1464429 L35.0284154,37.0870912 L32.7045363,38.1576956 C32.3606571,38.2982341 32.022811,38.5120582 31.8502286,38.8860033 C31.8502286,38.8860033 29.3240967,44.9010692 30.6943714,44.9010692 L45.3931516,44.9010692 C46.7635253,44.9010692 44.2369978,38.8860033 44.2369978,38.8860033 C44.0869648,38.527289 43.726767,38.2982341 43.3830857,38.1576956" id="Fill-13"></path>
            <path d="M38.0435341,36.6244912 C39.8164352,36.6244912 42.1947099,34.4088099 42.2350615,30.6951725 C42.2608747,28.1176121 41.033611,26.5760407 38.0435341,26.5760407 C35.0536549,26.5760407 33.8255011,28.1179088 33.8523033,30.6951725 C33.8919626,34.4086121 35.9680945,36.6244912 38.0435341,36.6244912" id="Fill-15"></path>
        </g>
    </g>
</svg>