<svg id="Layer_1" data-name="Layer 1" xmlns="http://www.w3.org/2000/svg" viewBox="0 0 50 50"><defs><style>.cls-1{fill:#fff;}</style></defs><title>application-fee</title><path class="cls-1" d="M36,25.3H34.29a8.37,8.37,0,0,0-2.38-3,14.33,14.33,0,0,0-.27-2.88c-.25-1.07-.72-1.62-1.41-1.62s-2.33.93-3.55,2.3A12,12,0,0,0,25,20a11,11,0,0,0-7,2.38,7.72,7.72,0,0,0-2.92,5.16,1.92,1.92,0,0,1-1.31-1.82.64.64,0,1,0-1.28,0,3.2,3.2,0,0,0,2.58,3.13,7.78,7.78,0,0,0,3,5.37l-.55,3.11a.64.64,0,0,0,.52.74l2.39.42a.64.64,0,0,0,.74-.52l.34-1.94a11.92,11.92,0,0,0,7,0L28.84,38a.64.64,0,0,0,.63.53h.11L32,38.1a.64.64,0,0,0,.52-.74l-.55-3.11a8.36,8.36,0,0,0,2.36-3H36a1.46,1.46,0,0,0,1.46-1.46V26.76A1.46,1.46,0,0,0,36,25.3ZM36,30H33.87a.64.64,0,0,0-.59.4,7.06,7.06,0,0,1-2.42,3,.64.64,0,0,0-.25.62l.5,2.86-1.13.2-.36-2.05a.64.64,0,0,0-.86-.48,10.56,10.56,0,0,1-7.51,0,.64.64,0,0,0-.86.48L20,37.15,18.9,37l.5-2.86a.64.64,0,0,0-.25-.62,6.5,6.5,0,0,1-2.83-5.17c0-3.86,3.89-7,8.68-7a10.75,10.75,0,0,1,1.81.15.64.64,0,0,0,.6-.23,7,7,0,0,1,2.74-2.11c.11.16.45.86.47,3.53a.64.64,0,0,0,.26.51,7.06,7.06,0,0,1,2.39,3,.64.64,0,0,0,.59.4H36a.18.18,0,0,1,.18.18v.29h-.06a.64.64,0,0,0,0,1.28h.06v1.51A.18.18,0,0,1,36,30Zm0,0"/><path class="cls-1" d="M25,18.3a3.41,3.41,0,1,0-3.41-3.41A3.42,3.42,0,0,0,25,18.3Zm0-5.55a2.14,2.14,0,1,1-2.14,2.14A2.14,2.14,0,0,1,25,12.74Zm0,0"/><path class="cls-1" d="M27.5,22.81a8.36,8.36,0,0,0-5,0A.64.64,0,1,0,22.9,24a7.08,7.08,0,0,1,4.22,0,.64.64,0,0,0,.39-1.22Zm0,0"/></svg>