<?xml version="1.0" encoding="utf-8"?>
<!-- Generator: Adobe Illustrator 20.0.0, SVG Export Plug-In . SVG Version: 6.00 Build 0)  -->
<svg version="1.1" id="Layer_1" xmlns="http://www.w3.org/2000/svg" xmlns:xlink="http://www.w3.org/1999/xlink" x="0px" y="0px"
	 viewBox="0 0 50 50" style="enable-background:new 0 0 50 50;" xml:space="preserve">
<style type="text/css">
	.st0{fill:#0AA5E3;}
	.st1{fill:#1EA3DD;}
</style>
<title>application-fee-</title>
<g>
	<path class="st0" d="M36,25.3h-1.7c-0.6-1.2-1.4-2.2-2.4-3c0-1-0.1-1.9-0.3-2.9c-0.2-1.1-0.7-1.6-1.4-1.6s-2.3,0.9-3.5,2.3
		C26.1,20,25.6,20,25,20c-2.5,0-5,0.8-7,2.4c-1.6,1.3-2.7,3.1-2.9,5.2c-0.8-0.3-1.3-1-1.3-1.8c0-0.4-0.3-0.6-0.6-0.6
		s-0.6,0.3-0.6,0.6c0,0,0,0,0,0c0,1.5,1.1,2.8,2.6,3.1c0.2,2.1,1.3,4.1,3,5.4l-0.5,3.1c-0.1,0.3,0.2,0.7,0.5,0.7l2.4,0.4
		c0.3,0.1,0.7-0.2,0.7-0.5l0.3-1.9c2.3,0.7,4.7,0.7,7,0l0.3,2c0.1,0.3,0.3,0.5,0.6,0.5h0.1l2.4-0.4c0.3-0.1,0.6-0.4,0.5-0.7L32,34.2
		c1-0.8,1.8-1.8,2.4-3H36c0.8,0,1.5-0.7,1.5-1.5v-3C37.5,26,36.8,25.3,36,25.3z M36,30h-2.1c-0.3,0-0.5,0.2-0.6,0.4
		c-0.5,1.2-1.4,2.2-2.4,3c-0.2,0.1-0.3,0.4-0.2,0.6l0.5,2.9L30,37.1l-0.4-2c-0.1-0.3-0.4-0.6-0.7-0.5c0,0-0.1,0-0.1,0
		c-2.4,0.9-5.1,0.9-7.5,0c-0.3-0.1-0.7,0-0.8,0.4c0,0,0,0.1,0,0.1L20,37.2L18.9,37l0.5-2.9c0-0.2-0.1-0.5-0.2-0.6
		c-1.7-1.2-2.8-3.1-2.8-5.2c0-3.9,3.9-7,8.7-7c0.6,0,1.2,0,1.8,0.1c0.2,0,0.5-0.1,0.6-0.2c0.7-0.9,1.7-1.6,2.7-2.1
		c0.1,0.2,0.5,0.9,0.5,3.5c0,0.2,0.1,0.4,0.3,0.5c1.1,0.8,1.9,1.8,2.4,3c0.1,0.2,0.3,0.4,0.6,0.4H36c0.1,0,0.2,0.1,0.2,0.2l0,0v0.3
		h-0.1c-0.4,0-0.6,0.3-0.6,0.6c0,0.4,0.3,0.6,0.6,0.6h0.1v1.5C36.2,29.9,36.1,30,36,30z"/>
	<path class="st0" d="M25,18.3c1.9,0,3.4-1.5,3.4-3.4s-1.5-3.4-3.4-3.4s-3.4,1.5-3.4,3.4l0,0C21.6,16.8,23.1,18.3,25,18.3z M25,12.7
		c1.2,0,2.1,1,2.1,2.1S26.2,17,25,17c-1.2,0-2.1-1-2.1-2.1l0,0C22.9,13.7,23.8,12.7,25,12.7C25,12.7,25,12.7,25,12.7L25,12.7z"/>
</g>
<path class="st1" d="M27.5,22.8c-1.6-0.5-3.4-0.5-5,0c-0.4,0-0.6,0.4-0.6,0.7c0,0.4,0.4,0.6,0.7,0.6c0.1,0,0.2,0,0.2-0.1
	c1.4-0.4,2.8-0.4,4.2,0c0.3,0.1,0.7-0.1,0.8-0.4C28,23.2,27.8,22.9,27.5,22.8L27.5,22.8L27.5,22.8z"/>
</svg>
