<svg id="Layer_1" data-name="Layer 1" xmlns="http://www.w3.org/2000/svg" viewBox="0 0 50 50"><defs><style>.cls-1{fill:#0aa5e3;}</style></defs><title>interview-blue</title><path class="cls-1" d="M34.71,30.92l-4.24-1.06-.05-.07-1.26-1.26V27.32l.31-.33a8.62,8.62,0,0,0,2-5.17v-.24c0-.26,0-.51.05-.76l.42-4.19a4.61,4.61,0,0,0-4.59-5.07H22.65a4.61,4.61,0,0,0-4.59,5.07l.42,4.18c0,.25,0,.5.05.76v.23a8.62,8.62,0,0,0,2,5.17l.31.33v1.21L19.59,29.8l-.05.07-4.25,1.06c-1.8.45-2.79,1.55-2.79,3.11v3a1.36,1.36,0,0,0,1.36,1.36H36.14a1.36,1.36,0,0,0,1.36-1.36V34c0-1.56-1-2.66-2.79-3.11ZM24.54,35.64h1l.33,1.92H24.11l.33-1.92ZM26,34.28a.49.49,0,0,1-.49.49h-.93a.49.49,0,0,1-.49-.49v-.7l1-.64,1,.64Zm-4.23-6.21a5.51,5.51,0,0,0,6.55,0v.46L25,31.81l-3.28-3.28ZM26.64,33h0l-1-.63,3-3,.85.85-1.92,3.45h0ZM19.88,13.67a3.75,3.75,0,0,1,2.77-1.23h4.69a3.74,3.74,0,0,1,3.72,4.11L30.8,19.2a12.43,12.43,0,0,0-1.28-2.35.44.44,0,0,0-.6-.1c-1.14.78-6.23.88-8.1.85a.43.43,0,0,0-.33.14,9.39,9.39,0,0,0-1.26,1.85l-.3-3a3.75,3.75,0,0,1,.95-2.88Zm-.46,8.1v-.39A10.17,10.17,0,0,1,21,18.48c1.2,0,6.12,0,8-.8a12.72,12.72,0,0,1,1.57,3.69v.4c-.2,3.65-2.65,6.5-5.58,6.5s-5.38-2.86-5.58-6.5Zm1.87,7.56,3,3-1,.63h0l-1,.65h0l-1.92-3.45Zm-7.92,7.74V34c0-1.15.72-1.91,2.13-2.26l4.23-1.06,1.86,3.34a.9.9,0,0,0,.57.44l.21,0a.9.9,0,0,0,.5-.15l.3-.2v.12a1.36,1.36,0,0,0,.44,1l-.39,2.27H17.55V35.21a.44.44,0,0,0-.87,0v2.35H13.86a.49.49,0,0,1-.49-.49Zm23.26,0a.49.49,0,0,1-.49.49H33.32V35.21a.44.44,0,0,0-.87,0v2.35H26.77l-.39-2.27a1.36,1.36,0,0,0,.44-1v-.12l.3.2a.9.9,0,0,0,.5.15l.21,0a.9.9,0,0,0,.57-.44l1.86-3.34,4.23,1.06c1.41.35,2.13,1.12,2.13,2.26Zm0,0"/></svg>