<?xml version="1.0" encoding="utf-8"?>
<!-- Generator: Adobe Illustrator 20.0.0, SVG Export Plug-In . SVG Version: 6.00 Build 0)  -->
<svg version="1.1" id="Layer_1" xmlns="http://www.w3.org/2000/svg" xmlns:xlink="http://www.w3.org/1999/xlink" x="0px" y="0px"
	 viewBox="0 0 50 50" style="enable-background:new 0 0 50 50;" xml:space="preserve">
<style type="text/css">
	.st0{fill:#0AA5E3;}
	.st1{fill:#259FDA;}
</style>
<title>pre-selection-blue</title>
<path class="st0" d="M34,33.3L34,33.3L34,33.3L34,33.3L34,33.3L34,33.3L34,33.3L34,33.3L34,33.3L34,33.3L34,33.3L34,33.3
	C34,33.3,34,33.3,34,33.3V13.1c0-0.3-0.3-0.6-0.6-0.6h-17c-0.3,0-0.6,0.3-0.6,0.6v23.9c0,0.3,0.3,0.6,0.6,0.6h13.3l0,0l0,0l0,0l0,0
	l0,0l0,0l0,0l0,0l0,0l0,0l4-4l0,0l0,0L34,33.3z M17,13.6h16v18.8h-3.4c-0.3,0-0.6,0.2-0.6,0.6c0,0,0,0,0,0v3.4H17V13.6z M32.2,33.5
	l-2,2v-2H32.2z"/>
<path class="st1" d="M22.5,25.4c-0.2-0.2-0.6-0.1-0.8,0.1l-1.5,1.9l-0.6-0.5c-0.2-0.2-0.6-0.2-0.8,0s-0.2,0.6,0,0.8
	c0,0,0.1,0.1,0.1,0.1l1,0.8c0.1,0.1,0.2,0.1,0.4,0.1h0.1c0.1,0,0.3-0.1,0.4-0.2l1.8-2.3C22.7,25.9,22.7,25.6,22.5,25.4L22.5,25.4z"
	/>
<path class="st1" d="M22.5,21.4c-0.2-0.2-0.6-0.1-0.8,0.1l-1.5,1.9l-0.6-0.5c-0.2-0.2-0.6-0.2-0.8,0s-0.2,0.6,0,0.8
	c0,0,0.1,0.1,0.1,0.1l1,0.8c0.1,0.1,0.2,0.1,0.4,0.1h0.1c0.1,0,0.3-0.1,0.4-0.2l1.8-2.3C22.7,22,22.7,21.6,22.5,21.4L22.5,21.4z"/>
<path class="st1" d="M22.5,17.5c-0.2-0.2-0.6-0.1-0.8,0.1l-1.5,1.9L19.6,19c-0.3-0.2-0.6-0.1-0.8,0.2c-0.1,0.2-0.1,0.5,0.1,0.7
	l1,0.8c0.1,0.1,0.2,0.1,0.4,0.1h0.1c0.1,0,0.3-0.1,0.4-0.2l1.8-2.3C22.7,18,22.7,17.7,22.5,17.5L22.5,17.5z"/>
<path class="st1" d="M23.8,19.6h6.3c0.3,0,0.5-0.3,0.5-0.6c0-0.3-0.2-0.5-0.5-0.5h-6.3c-0.3,0-0.5,0.3-0.5,0.6
	C23.4,19.4,23.6,19.6,23.8,19.6z"/>
<path class="st1" d="M23.8,23.6h6.3c0.3,0,0.5-0.3,0.5-0.6c0-0.3-0.2-0.5-0.5-0.5h-6.3c-0.3,0-0.5,0.3-0.5,0.6
	C23.4,23.4,23.6,23.6,23.8,23.6z"/>
<path class="st1" d="M30.1,27.5c0.3,0,0.5-0.3,0.5-0.6c0-0.3-0.2-0.5-0.5-0.5h-6.3c-0.3,0-0.6,0.2-0.6,0.5s0.2,0.6,0.5,0.6
	c0.1,0,0.1,0,0.2,0H30.1z"/>
</svg>
