<svg id="Layer_1" data-name="Layer 1" xmlns="http://www.w3.org/2000/svg" viewBox="0 0 50 50"><defs><style>.cls-1{fill:#0aa5e3;}</style></defs><title>screening-blue</title><path class="cls-1" d="M33.69,29.76H27.41a.68.68,0,0,0-.68.68v.13H23.27v-.12a.68.68,0,0,0-.68-.68H16.32a.68.68,0,1,0,0,1.36H22a1.37,1.37,0,0,0,1.24.8h3.45a1.36,1.36,0,0,0,1.24-.8h5.72a.68.68,0,0,0,.68-.68A.67.67,0,0,0,33.69,29.76Z"/><path class="cls-1" d="M37.83,29.76H36.55V17.45a.27.27,0,0,0,0-.07,1.86,1.86,0,0,0-1.83-1.71H15.23a1.78,1.78,0,0,0-1.77,1.77v12.3H12.18a.68.68,0,0,0-.68.68v1.28a2.6,2.6,0,0,0,2.6,2.6H35.9a2.6,2.6,0,0,0,2.6-2.6V30.44A.66.66,0,0,0,37.83,29.76Zm-.67,2A1.25,1.25,0,0,1,35.91,33H14.11a1.26,1.26,0,0,1-1.25-1.25v-.6h1.28a.68.68,0,0,0,.68-.68v-13a.42.42,0,0,1,.42-.42H34.72a.51.51,0,0,1,.48.46V30.43a.68.68,0,0,0,.68.68h1.28Z"/><path class="cls-1" d="M25,28.23c4.31,0,7.3-4.19,7.43-4.37a.67.67,0,0,0,0-.78c-.13-.18-3.12-4.37-7.43-4.37s-7.3,4.19-7.43,4.37a.67.67,0,0,0,0,.78C17.7,24,20.69,28.23,25,28.23Zm0-8.16c2.91,0,5.21,2.44,6,3.41-.8,1-3.1,3.4-6,3.4s-5.21-2.44-6-3.41C19.79,22.5,22.09,20.06,25,20.06Z"/><path class="cls-1" d="M25,25.82a2.46,2.46,0,1,0-2.46-2.46A2.47,2.47,0,0,0,25,25.82Zm0-3.57a1.11,1.11,0,1,1-1.11,1.11A1.11,1.11,0,0,1,25,22.25Z"/></svg>