<svg id="Layer_1" data-name="Layer 1" xmlns="http://www.w3.org/2000/svg" viewBox="0 0 50 50"><defs><style>.cls-1{fill:#fff;}</style></defs><title>video-task-white</title><path class="cls-1" d="M29.33,22.54H13.23a1.74,1.74,0,0,0-1.73,1.73V35.47a1.74,1.74,0,0,0,1.73,1.73H29.33a1.74,1.74,0,0,0,1.73-1.73V24.27A1.74,1.74,0,0,0,29.33,22.54Zm-16.09,1H29.33a.74.74,0,0,1,.74.74v9.46H12.49V24.27A.74.74,0,0,1,13.23,23.53ZM29.33,36.21H13.23a.74.74,0,0,1-.74-.74v-.74H30.07v.74A.74.74,0,0,1,29.33,36.21Z"/><path class="cls-1" d="M36.67,23.51c-.17.07-4.11,1.81-4.11,4.74S36.5,32.91,36.67,33a1.54,1.54,0,0,0,.61.13,1.24,1.24,0,0,0,1.22-1.34V24.71A1.27,1.27,0,0,0,36.67,23.51Zm.84,8.27c0,.33-.18.41-.44.29,0,0-3.51-1.54-3.51-3.83s3.47-3.81,3.51-3.83a.57.57,0,0,1,.22-.05c.15,0,.23.12.23.35Z"/><path class="cls-1" d="M15.67,21.14A4.17,4.17,0,1,0,11.5,17,4.18,4.18,0,0,0,15.67,21.14Zm0-7.35A3.18,3.18,0,1,1,12.49,17,3.18,3.18,0,0,1,15.67,13.79Z"/><path class="cls-1" d="M25.5,21.14A4.17,4.17,0,1,0,21.33,17,4.18,4.18,0,0,0,25.5,21.14Zm0-7.35A3.18,3.18,0,1,1,22.32,17,3.18,3.18,0,0,1,25.5,13.79Z"/><path class="cls-1" d="M19,32.43a1.38,1.38,0,0,0,.78-.27l4.14-2.82a1.17,1.17,0,0,0-.12-2.12l-4-2.09A1.19,1.19,0,0,0,18,26.24v5C18,32.06,18.46,32.43,19,32.43Zm0-6.2c0-.13,0-.29.14-.29a.51.51,0,0,1,.23.07l4,2.09c.16.08.21.17.21.2s0,.12-.18.22l-4.14,2.82a.52.52,0,0,1-.21.1.5.5,0,0,1,0-.23v-5Z"/></svg>