<svg id="Layer_1" data-name="Layer 1" xmlns="http://www.w3.org/2000/svg" viewBox="0 0 55 30"><defs><style>.cls-1{fill:#008ac1;}</style></defs><title>scholarship-icon</title><path class="cls-1" d="M37,8.05c4.45,0,7.8-1.73,7.8-4S41.41,0,37,0s-7.8,1.73-7.8,4,3.35,4,7.8,4Zm0-6.32C40.67,1.73,43,3.09,43,4S40.67,6.34,37,6.34,30.88,5,30.88,4s2.37-2.3,6.08-2.3Zm0,0"/><path class="cls-1" d="M44.11,8.13A.86.86,0,0,0,43,8.64c-.37,1-2.78,2.07-6,2.07s-5.55-1-6-2a.86.86,0,1,0-1.57.73c.84,1.79,3.88,3,7.57,3a13.58,13.58,0,0,0,4.82-.82,4.55,4.55,0,0,0,2.84-2.39.87.87,0,0,0-.52-1.1Zm0,0"/><path class="cls-1" d="M44.11,12.53A.86.86,0,0,0,43,13c-.37,1-2.78,2.07-6,2.07s-5.55-1-6-2a.86.86,0,0,0-1.57.73c.84,1.79,3.88,3,7.57,3A13.59,13.59,0,0,0,41.79,16a4.55,4.55,0,0,0,2.84-2.39.87.87,0,0,0-.52-1.1Zm0,0"/><path class="cls-1" d="M44.11,16.91a.86.86,0,0,0-1.11.51c-.37,1-2.78,2.07-6,2.07s-5.55-1-6-2a.86.86,0,1,0-1.57.73c.84,1.79,3.88,3,7.57,3a13.58,13.58,0,0,0,4.82-.82A4.55,4.55,0,0,0,44.63,18a.87.87,0,0,0-.52-1.1Zm0,0"/><path class="cls-1" d="M44.11,21.31a.86.86,0,0,0-1.11.51c-.37,1-2.78,2.07-6,2.07s-5.55-1-6-2a.86.86,0,0,0-1.57.73c.84,1.79,3.88,3,7.57,3a13.59,13.59,0,0,0,4.82-.82,4.55,4.55,0,0,0,2.84-2.39.86.86,0,0,0-.52-1.1Zm0,0"/><path class="cls-1" d="M44.11,25.69A.86.86,0,0,0,43,26.2c-.37,1-2.78,2.07-6,2.07s-5.55-1-6-2A.86.86,0,1,0,29.4,27c.84,1.79,3.88,3,7.57,3a13.58,13.58,0,0,0,4.82-.82,4.55,4.55,0,0,0,2.84-2.39.87.87,0,0,0-.52-1.1Zm0,0"/><path class="cls-1" d="M25.18,16.91a.86.86,0,0,0-1.11.51c-.37,1-2.78,2.07-6,2.07s-5.55-1-6-2a.86.86,0,1,0-1.57.73c.84,1.79,3.88,3,7.57,3a13.58,13.58,0,0,0,4.82-.82A4.55,4.55,0,0,0,25.7,18a.87.87,0,0,0-.52-1.1Zm0,0"/><path class="cls-1" d="M25.18,21.31a.86.86,0,0,0-1.11.51c-.37,1-2.78,2.07-6,2.07s-5.55-1-6-2a.86.86,0,0,0-1.57.73c.84,1.79,3.88,3,7.57,3a13.59,13.59,0,0,0,4.82-.82A4.55,4.55,0,0,0,25.7,22.4a.86.86,0,0,0-.52-1.1Zm0,0"/><path class="cls-1" d="M25.18,25.69a.86.86,0,0,0-1.11.51c-.37,1-2.78,2.07-6,2.07s-5.55-1-6-2a.86.86,0,1,0-1.57.73c.84,1.79,3.88,3,7.57,3a13.58,13.58,0,0,0,4.82-.82,4.55,4.55,0,0,0,2.84-2.39.87.87,0,0,0-.52-1.1Zm0,0"/><path class="cls-1" d="M18,8.78c-4.45,0-7.8,1.73-7.8,4s3.35,4,7.8,4,7.8-1.73,7.8-4-3.35-4-7.8-4Zm0,6.33c-3.71,0-6.08-1.36-6.08-2.3s2.37-2.3,6.08-2.3,6.08,1.36,6.08,2.3-2.37,2.3-6.08,2.3Zm0,0"/></svg>