<svg id="Layer_1" data-name="Layer 1" xmlns="http://www.w3.org/2000/svg" viewBox="0 0 55 30"><defs><style>.cls-1{fill:#008ac1;}</style></defs><title>startup-partner-icon</title><path class="cls-1" d="M16.33,9.52h1.13l-.82-2.79H14.7l.92,3.12a.93.93,0,0,1,.71-.33Zm0,0"/><path class="cls-1" d="M29.68,6.72H27.73l.82,2.79H30.5Zm0,0"/><path class="cls-1" d="M42.21,6.75a.93.93,0,0,1,1.14.66l-.8-3A1.86,1.86,0,0,0,40.75,3h-3a.93.93,0,0,0,0,1.86h3l.8,3a.93.93,0,0,1,.66-1.14Zm0,0"/><path class="cls-1" d="M15.33,20.69h1.88a8.37,8.37,0,0,0-2.94-5.48l-1,1.56a6.51,6.51,0,0,1,2.1,3.92Zm0,0"/><path class="cls-1" d="M8.88,28.14a6.52,6.52,0,1,1,2.8-12.4l1-1.56a8.38,8.38,0,1,0,4.48,8.37H15.33a6.53,6.53,0,0,1-6.45,5.59Zm0,0"/><path class="cls-1" d="M46.12,13.24a8.35,8.35,0,0,0-1.22.09l.48,1.82a6.66,6.66,0,0,1,.74,0,6.52,6.52,0,1,1-2.54.52l-.48-1.81a8.37,8.37,0,1,0,3-.57Zm0,0"/><path class="cls-1" d="M45.22,21.86a.93.93,0,0,0,.9.69.92.92,0,0,0,.24,0A.93.93,0,0,0,47,21.38l-1.64-6.24-.48-1.82L43.35,7.42a.93.93,0,0,0-1.8.48L42,9.52H16.33a.93.93,0,0,0-.71.33l-.06.09-2.83,4.25L8.1,21.1a.93.93,0,0,0,.78,1.45H33.24l.09,0h0l.05,0,0,0,0,0,0,0,0,0,.05,0,0,0,.05,0,0,0,.06-.06h0l8.75-10.5.55,2.09.48,1.81ZM20.75,20.69,18,11.38H29.1l2.74,9.31Zm-7.52-3.92,1-1.56,2-3,2.51,8.52H10.62Zm20.26,2.91L31,11.38h9.36Zm0,0"/><path class="cls-1" d="M18.19,6.72a.93.93,0,0,0,0-1.86H14.41a1.19,1.19,0,0,1-.83-.35l-.31-.31a.93.93,0,0,0-1.32,1.32l.31.31a3,3,0,0,0,2.15.89Zm0,0"/><path class="cls-1" d="M31.22,6.72a.93.93,0,1,0,0-1.86H27.44a1.19,1.19,0,0,1-.83-.35L26.3,4.2A.93.93,0,0,0,25,5.52l.31.31a3,3,0,0,0,2.15.89Zm0,0"/></svg>