<svg id="Layer_1" data-name="Layer 1" xmlns="http://www.w3.org/2000/svg" viewBox="0 0 50 50"><defs><style>.cls-1{fill:#fff;}</style></defs><title>coding-video-white</title><path class="cls-1" d="M33.69,29.76H27.41a.68.68,0,0,0-.68.68v.13H23.27v-.12a.68.68,0,0,0-.68-.68H16.32a.68.68,0,1,0,0,1.36H22a1.37,1.37,0,0,0,1.24.8h3.45a1.36,1.36,0,0,0,1.24-.8h5.72a.68.68,0,0,0,.68-.68.67.67,0,0,0-.67-.68Zm0,0"/><path class="cls-1" d="M37.83,29.76H36.55V17.45a.26.26,0,0,0,0-.07,1.86,1.86,0,0,0-1.83-1.71H15.23a1.78,1.78,0,0,0-1.77,1.77v12.3H12.18a.68.68,0,0,0-.68.68v1.28a2.6,2.6,0,0,0,2.6,2.6H35.9a2.6,2.6,0,0,0,2.6-2.6V30.44a.66.66,0,0,0-.67-.68Zm-.67,2A1.25,1.25,0,0,1,35.91,33H14.11a1.26,1.26,0,0,1-1.25-1.25v-.6h1.28a.68.68,0,0,0,.68-.68v-13a.42.42,0,0,1,.42-.42H34.72a.51.51,0,0,1,.48.46V30.43a.68.68,0,0,0,.68.68h1.28Zm0,0"/><path class="cls-1" d="M27.91,27a.67.67,0,0,0,.52.24.69.69,0,0,0,.44-.16l3.38-2.87a.68.68,0,0,0,0-1l-3.38-2.86a.68.68,0,1,0-.88,1l2.77,2.35L28,26a.68.68,0,0,0-.08,1Zm0,0"/><path class="cls-1" d="M21.14,27.08a.66.66,0,0,0,.44.16A.68.68,0,0,0,22,26L19.24,23.7,22,21.35a.68.68,0,1,0-.88-1l-3.38,2.86a.67.67,0,0,0,0,1Zm0,0"/><path class="cls-1" d="M23.31,27.91a.66.66,0,0,0,.25,0,.68.68,0,0,0,.63-.43l2.87-7.16a.68.68,0,1,0-1.25-.5L22.93,27a.67.67,0,0,0,.38.88Zm0,0"/></svg>