<svg id="Layer_1" data-name="Layer 1" xmlns="http://www.w3.org/2000/svg" viewBox="0 0 50 50"><defs><style>.cls-1{fill:#fff;}</style></defs><title>complete-white</title><path class="cls-1" d="M16.89,32.71a.58.58,0,0,0-.82,0L13,35.81a.58.58,0,1,0,.82.82l3.11-3.11a.58.58,0,0,0,0-.82Zm0,0"/><path class="cls-1" d="M29.66,16.16a2.72,2.72,0,1,0,3.85,0,2.71,2.71,0,0,0-3.85,0Zm3,3a1.56,1.56,0,1,1,.46-1.11,1.57,1.57,0,0,1-.46,1.11Zm0,0"/><path class="cls-1" d="M37.13,13a.58.58,0,0,0-.4-.4,10.86,10.86,0,0,0-6.62.33,12.89,12.89,0,0,0-4.59,2.86l-1.8,1.8-6.54,1a.58.58,0,0,0-.32.16l-4.18,4.18a.58.58,0,0,0,.39,1l4.12.17-1,1a.58.58,0,0,0,0,.82l.6.6-1.8,2.76A.58.58,0,0,0,15,30l4.63,4.63a.58.58,0,0,0,.73.08l2.76-1.8.6.6a.58.58,0,0,0,.82,0l1-1,.17,4.12a.58.58,0,0,0,1,.39L31,32.83a.58.58,0,0,0,.16-.32l1-6.54,1.8-1.8a12.89,12.89,0,0,0,2.86-4.59A10.86,10.86,0,0,0,37.13,13Zm-17,20.55-4-4,1.41-2.16,1.95,2-.23.23a.58.58,0,0,0,.82.82l.23-.23,2,2Zm13-10.16-1.94,1.94h0l-2,2a.58.58,0,0,0,.82.82l.76-.76L30,32.14l-3.11,3.11-.16-3.87,1.62-1.62a.58.58,0,0,0-.82-.82l-1.8,1.8h0L24.16,32.3l-.52-.52,0,0-2.45-2.45,7-7a.58.58,0,1,0-.82-.82l-7,7-2.45-2.45,0,0-.52-.52L18.93,24h0l1.8-1.8a.58.58,0,1,0-.82-.82L18.3,23l-3.87-.16,3.11-3.11,4.78-.75-.76.76.82.82,2-2h0l1.93-1.93c1.61-1.61,5.45-4,9.76-3,1,4.31-1.36,8.15-3,9.76Zm0,0"/><path class="cls-1" d="M18,34.62l-2.22,2.21a.58.58,0,0,0,.82.82l2.21-2.21a.58.58,0,0,0-.82-.82Zm0,0"/></svg>