<svg id="Layer_1" data-name="Layer 1" xmlns="http://www.w3.org/2000/svg" viewBox="0 0 50 50"><defs><style>.cls-1{fill:#fff;}</style></defs><title>pre-selection-white</title><path class="cls-1" d="M34,33.32l0,0h0l0,0h0l0,0h0l0,0h0v0h0v0a.56.56,0,0,0,0-.06V13.07a.57.57,0,0,0-.57-.57H16.46a.57.57,0,0,0-.57.57V36.93a.57.57,0,0,0,.57.57H29.75l0,0h0l0,0h0l0,0h0l0,0h0l0,0h0l4-4h0l0,0ZM17,13.63H33V32.41H29.58A.57.57,0,0,0,29,33v3.39H17ZM32.18,33.54l-2,2v-2Zm0,0"/><path class="cls-1" d="M22.46,25.37a.57.57,0,0,0-.79.1l-1.46,1.88-.57-.45a.57.57,0,1,0-.7.89l1,.81a.57.57,0,0,0,.35.12h.07a.57.57,0,0,0,.38-.21l1.81-2.33a.57.57,0,0,0-.1-.79Zm0,0"/><path class="cls-1" d="M22.46,21.41a.57.57,0,0,0-.79.1l-1.46,1.88-.57-.45a.57.57,0,1,0-.7.89l1,.81a.57.57,0,0,0,.35.12h.07a.57.57,0,0,0,.38-.21l1.81-2.33a.57.57,0,0,0-.1-.79Zm0,0"/><path class="cls-1" d="M22.46,17.45a.57.57,0,0,0-.79.1l-1.46,1.88L19.64,19a.57.57,0,0,0-.7.89l1,.81a.57.57,0,0,0,.35.12h.07a.57.57,0,0,0,.38-.21l1.81-2.33a.57.57,0,0,0-.1-.79Zm0,0"/><path class="cls-1" d="M23.81,19.63h6.33a.57.57,0,0,0,0-1.13H23.81a.57.57,0,0,0,0,1.13Zm0,0"/><path class="cls-1" d="M23.81,23.59h6.33a.57.57,0,0,0,0-1.13H23.81a.57.57,0,0,0,0,1.13Zm0,0"/><path class="cls-1" d="M30.15,27.55a.57.57,0,0,0,0-1.13H23.81a.57.57,0,1,0,0,1.13Zm0,0"/></svg>