<svg id="Layer_1" data-name="Layer 1" xmlns="http://www.w3.org/2000/svg" viewBox="0 0 12 10.85"><defs><style>.cls-1{fill:#60686e;}</style></defs><title>experience-icon</title><path class="cls-1" d="M6.59,6V5.77a0.59,0.59,0,0,0-1.18,0V6A0.59,0.59,0,0,0,6.59,6Z"/><path class="cls-1" d="M7,6.36a1,1,0,0,1-2,0H1A1.66,1.66,0,0,1,.24,6.2V9.89a1,1,0,0,0,1,1H10.8a1,1,0,0,0,1-1V6.2a1.66,1.66,0,0,1-.71.16H7Z"/><path class="cls-1" d="M11,1.53H8.71A1.82,1.82,0,0,0,6.92,0H5.08A1.82,1.82,0,0,0,3.29,1.53H1a1,1,0,0,0-1,1V4.69a1,1,0,0,0,1,1H5a1,1,0,0,1,.32-0.7l0,0,0.13-.1,0.05,0L5.6,4.73l0.1,0,0.09,0L6,4.65l0.21,0,0.09,0,0.1,0L6.52,4.8l0.05,0L6.7,4.93l0,0a1,1,0,0,1,.32.7h4a1,1,0,0,0,1-1V2.49A1,1,0,0,0,11,1.53Zm-6.8,0A0.92,0.92,0,0,1,5.08.89H6.92a0.92,0.92,0,0,1,.87.64H4.21Z"/></svg>