<svg xmlns="http://www.w3.org/2000/svg" xmlns:xlink="http://www.w3.org/1999/xlink" width="132" height="60" fill="none" xmlns:v="https://vecta.io/nano"><g fill="#4f46e5"><path d="M91.51 13.061v38.763c-.006 1.951-.783 3.82-2.162 5.199s-3.248 2.157-5.199 2.163H47.341c-1.951-.006-3.82-.783-5.199-2.163s-2.157-3.248-2.163-5.199V13.061c.006-1.951.783-3.82 2.163-5.199S45.39 5.706 47.341 5.7h3.681v3.681h-3.681c-.974.006-1.907.396-2.596 1.085s-1.079 1.622-1.085 2.596v38.763c.006.974.396 1.907 1.085 2.596s1.622 1.079 2.596 1.085h36.808c.974-.006 1.907-.396 2.596-1.085s1.079-1.622 1.085-2.596V13.061c-.006-.974-.396-1.907-1.085-2.596s-1.622-1.079-2.596-1.085h-3.681V5.7h3.681c1.951.006 3.82.783 5.199 2.163s2.157 3.248 2.162 5.199zM54.527 9.496V5.815c.004-1.463.587-2.865 1.622-3.899S58.585.298 60.048.294h11.394c1.463.004 2.865.587 3.899 1.622s1.618 2.436 1.622 3.899v3.681c-.004 1.463-.587 2.865-1.622 3.899s-2.436 1.618-3.899 1.622H60.048c-1.463-.004-2.865-.587-3.899-1.622s-1.617-2.436-1.622-3.899zm3.681 0c.007.486.203.95.546 1.294s.808.54 1.294.546h11.394c.486-.007.95-.203 1.294-.546s.54-.808.546-1.294V5.815c-.007-.486-.203-.95-.546-1.294s-.808-.54-1.294-.546H60.048c-.486.007-.95.203-1.294.546s-.54.808-.546 1.294v3.681z"/><use xlink:href="#I"/><use xlink:href="#I" x="8.393"/><use xlink:href="#I" x="16.786"/></g><rect x=".514" y="35.745" width="53.297" height="18.083" rx="9.042" fill="url(#A)"/><rect x="19.289" y="41.035" width="27.495" height="7.505" rx="3.752" fill="url(#B)"/><g clip-path="url(#G)"><path d="M14.324 40.425h-6.68c-.271.001-.531.109-.722.3s-.3.451-.3.722v5.044c.001.271.109.53.3.722s.451.3.722.3h2.731l1.873 1.572.009.007.012.009.008.005.013.008.009.005.014.007.009.004.014.005.01.003.015.004.01.002.017.002.034.002c.01 0 .019-.001.029-.002h.003c.008-.001.017-.002.025-.004l.006-.001.021-.006.008-.003.017-.007.01-.005.015-.008.01-.006.013-.009.01-.008.013-.011.008-.008c.005-.005.01-.011.015-.017l.018-.023.002-.003c.005-.008.01-.015.014-.023l.012-.024.009-.025.007-.026.004-.026v-.005l.001-.022v-1.364h1.63c.271-.001.531-.109.722-.3s.3-.451.3-.722v-5.044c-.001-.271-.109-.531-.3-.722s-.451-.299-.722-.3h0zm-5.788 4.302c0-.072.029-.142.08-.193s.12-.08.193-.08h2.4c.072 0 .142.029.193.08s.08.12.08.193-.029.142-.08.193-.12.08-.193.08h-2.4c-.072 0-.142-.029-.193-.08s-.08-.12-.08-.193zm4.513-1.295h-4.24c-.072 0-.142-.029-.193-.08s-.08-.12-.08-.193.029-.142.08-.193.12-.08.193-.08h4.24c.072 0 .142.029.193.08s.08.12.08.193-.029.142-.08.193-.12.08-.193.08z" fill="url(#C)"/></g><rect x="78.425" y="14.005" width="53.297" height="18.083" rx="9.042" fill="url(#D)"/><rect width="27.495" height="7.505" rx="3.752" transform="matrix(-1 0 0 1 124.955 19.2944)" fill="url(#E)"/><g clip-path="url(#H)"><path d="M85.553 18.684h6.68c.271.001.531.109.722.3s.3.451.3.722v5.044c-.001.271-.109.531-.3.722s-.451.3-.722.3h-2.731l-1.873 1.572-.009.006-.012.009-.009.005-.013.008-.009.005-.014.007-.01.004-.014.005-.01.003-.015.004-.01.002-.017.003-.034.002c-.01 0-.019-.001-.029-.002h-.003c-.008-.001-.017-.002-.025-.004l-.006-.001-.022-.006-.008-.003-.017-.007-.01-.005-.015-.008-.01-.006-.013-.009-.01-.008-.013-.011-.009-.008-.015-.017-.017-.023-.002-.003a.26.26 0 0 1-.014-.023l-.012-.024-.009-.025-.007-.026-.004-.027v-.005l-.001-.022v-1.364h-1.629c-.271-.001-.531-.109-.722-.3s-.3-.451-.3-.722v-5.044c.001-.271.109-.53.3-.722s.451-.3.722-.3h0zm5.788 4.302c0-.072-.029-.142-.08-.193s-.121-.08-.193-.08h-2.4c-.072 0-.142.029-.193.08s-.08.12-.08.193.029.142.08.193.12.08.193.08h2.4c.072 0 .142-.029.193-.08s.08-.12.08-.193zm-4.513-1.295h4.24c.072 0 .142-.029.193-.08s.08-.12.08-.193-.029-.142-.08-.193-.121-.08-.193-.08h-4.24c-.072 0-.142.029-.193.08s-.08.12-.08.193.029.142.08.193.121.08.193.08z" fill="url(#F)"/></g><defs><linearGradient id="A" x1="5.51" y1="40.094" x2="60.2" y2="43.601" xlink:href="#J"><stop stop-color="#fff"/></linearGradient><linearGradient id="B" x1="21.867" y1="42.839" x2="50.017" y2="45.084" xlink:href="#J"><stop stop-color="#d1d1d1"/><stop offset="1" stop-color="#ababab"/></linearGradient><linearGradient id="C" x1="10.984" y1="40.425" x2="10.984" y2="49.149" xlink:href="#J"><stop stop-color="#6025c0"/><stop offset="1" stop-color="#200151"/></linearGradient><linearGradient id="D" x1="83.421" y1="18.354" x2="138.111" y2="21.861" xlink:href="#J"><stop stop-color="#fff"/></linearGradient><linearGradient id="E" x1="2.577" y1="1.805" x2="30.728" y2="4.049" xlink:href="#J"><stop stop-color="#d1d1d1"/><stop offset="1" stop-color="#ababab"/></linearGradient><linearGradient id="F" x1="88.893" y1="18.684" x2="88.893" y2="27.408" xlink:href="#J"><stop stop-color="#6025c0"/><stop offset="1" stop-color="#200151"/></linearGradient><clipPath id="G"><path fill="#fff" transform="translate(6.225 40.028)" d="M0 0h9.517v9.517H0z"/></clipPath><clipPath id="H"><path fill="#fff" transform="matrix(-1 0 0 1 93.6523 18.2876)" d="M0 0h9.517v9.517H0z"/></clipPath><path id="I" d="M60.149 32.537a2.8 2.8 0 0 1-2.798 2.798 2.8 2.8 0 0 1-2.798-2.798 2.8 2.8 0 0 1 2.798-2.798 2.8 2.8 0 0 1 2.798 2.798z"/><linearGradient id="J" gradientUnits="userSpaceOnUse"/></defs></svg>