<svg id="ba15f55e-e292-4f5f-93ea-4fb76e0e8158" data-name="Layer 1" xmlns="http://www.w3.org/2000/svg" viewBox="0 0 320 240"><title>course-ended</title><path d="M16.89,154.24c-5.46-14.56-5.8-54.16,23.64-95.65,39.79-56,92.24-33.58,112.2-17.41C182.18,65,182.18,90.19,238.27,88c53-2,67.7,47.08,67.7,59.55,0,19.77-9.24,68.78-69.21,68.13-88.09-.95-73.64.66-122.73,1.5C39,218.5,25.51,177.22,16.89,154.24Z" fill="#f6ede1"/><path d="M40.08,73.91v-.42a2.21,2.21,0,0,1,2.22-2.22H88.92a2.21,2.21,0,0,1,2.22,2.22v.42a2.21,2.21,0,0,1-2.22,2.22H42.3A2.23,2.23,0,0,1,40.08,73.91Z" fill="#e0c7bd"/><path d="M87.94,52.85V63.07a8,8,0,0,1-8,8H74.65a8,8,0,0,1-8-8V52.85" fill="#e0c7bd"/><path d="M83,52.93c0-.09-3-9.29,3-13.57l.29.4c-5.72,4.08-2.82,12.92-2.79,13Z" fill="#030404"/><path d="M78.55,52.89c-.1-.57-2.37-14.18,2.4-20.49l.4.3C76.71,38.84,79,52.67,79,52.81Z" fill="#030404"/><circle cx="82.44" cy="30.25" r="3.09" fill="#f3c47f"/><circle cx="87.94" cy="37.78" r="3.09" fill="#f3c47f"/><path d="M75.39,52.67V39.28A48.15,48.15,0,0,1,72.33,44c-1,1.07,1.71,1.57,1.53,3.15s-1.35,1.08-1.73,3.06a2.2,2.2,0,0,0,1.63,2.52h1.63Z" fill="#229d54"/><ellipse cx="95.39" cy="215.13" rx="74.23" ry="13.11" fill="#ede0d1"/><path d="M68.6,106.48s-5.7,16.06-3.17,21.76A71,71,0,0,0,72,139.44S70.5,107.54,68.6,106.48Z" fill="#d0cde1"/><path d="M68.6,106.48s-5.7,16.06-3.17,21.76A71,71,0,0,0,72,139.44S70.5,107.54,68.6,106.48Z" fill="#d39e40"/><path d="M72.62,143.67a34.45,34.45,0,0,1-.64,4.22c-.21.21.21.63,0,1.27s-.42,1.48,0,1.69-2.32,18.8-2.32,18.8-6.76,8.87-4,22.81l.85,14.16S73,207,73,204.72a39,39,0,0,1-.42-4c0-1.26,1-1.26.42-1.9s-.64-1.05-.64-1.05,1.06-.85.85-1.06,1.9-15.21,1.9-15.21,2.32-2.32,2.32-3.59v-1.27s1.06-2.75,1.06-3,5.7-13.09,5.7-13.09l2.33,9.29,2.53,13.31s1.27,12,3.81,16.69c0,0,4.43,15.21,4.43,14.79s7.4-1.48,7.18-3.38-4.43-28.52-4.43-28.52l1-39.51Z" fill="#e4362f"/><path d="M66.91,205.56s-5.7,11.2-1.9,11.62,5.28.42,7-1.27a28.74,28.74,0,0,1,4.3-3.09,5.56,5.56,0,0,0,2.64-5.29c-.11-1-.5-1.89-1.45-2C74.94,205.35,72,203,72,203Z" fill="#2f2e41"/><path d="M98.39,213.8s-5.71,11.2-1.9,11.62,5.28.42,7-1.27a27.73,27.73,0,0,1,4.3-3.09,5.57,5.57,0,0,0,2.64-5.29c-.11-1-.5-1.89-1.45-2-2.53-.21-5.49-2.53-5.49-2.53Z" fill="#2f2e41"/><circle cx="92.36" cy="79.28" r="8.88" fill="#f0c5bf"/><path d="M86.65,82.2S80.31,93.87,79.8,93.87s11.42,3.81,11.42,3.81S94.52,86.51,95,85.5Z" fill="#f0c5bf"/><path d="M96.38,95s-12.67-7-13.94-6.76-14.79,12-14.58,16.9A104.31,104.31,0,0,0,69.76,118s.64,22.39,1.9,22.6-.21,4,.22,4,29.57,0,29.78-.64S96.38,95,96.38,95Z" fill="#fec550"/><path d="M103.46,145.14s4,12.26.63,11.83-4.86-10.56-4.86-10.56Z" fill="#f0c5bf"/><path d="M92.68,94.23s-7.81,1.69-6.54,12.25,3.59,21.13,3.59,21.13l7.81,17.11.85,3.17,5.7-1.48-4.22-24.5s-1.48-26.2-3.38-27A8.16,8.16,0,0,0,92.68,94.23Z" fill="#fec550"/><polygon points="87.93 127.29 97.65 144.62 89.46 126.36 87.93 127.29" fill="#d39e40"/><path d="M101.2,76.67l0-.68,1.35.33a1.53,1.53,0,0,0-.6-1.11l1.43-.08A15.51,15.51,0,0,0,93,68.72c-3.11-.45-6.58.2-8.71,2.51a10.63,10.63,0,0,0-2.15,4c-.85,2.67-1,5.86.75,8s5,2.64,7.8,2.91a6.07,6.07,0,0,0,3-.2,7.15,7.15,0,0,0-.39-3.14,2,2,0,0,1-.22-1c.13-.84,1.26-1,2.1-.94s1.87.29,2.43-.36A2.9,2.9,0,0,0,98,78.86C98.17,77.26,101.19,77,101.2,76.67Z" fill="#2f2e41"/><path d="M253.65,175.17l-121-25.72a7.85,7.85,0,0,1-6-7.29V35.06a4.72,4.72,0,0,1,6-4.73l121,25.72a7.86,7.86,0,0,1,6,7.29v107.1A4.73,4.73,0,0,1,253.65,175.17Z" fill="#f9f6f2"/><path d="M143.52,57.14l99.26,21.1a3.92,3.92,0,0,1,3,3.64V96.67a2.36,2.36,0,0,1-3,2.36l-99.26-21.1a3.9,3.9,0,0,1-3-3.64V59.51A2.36,2.36,0,0,1,143.52,57.14Z" fill="#efd9bd"/><ellipse cx="151.58" cy="69.39" rx="5.58" ry="6.9" transform="translate(-7.52 119.16) rotate(-41.97)" fill="#fff"/><polygon points="166.43 70.11 227.7 83.14 227.7 84.48 166.43 71.46 166.43 70.11" fill="#fff"/><polygon points="166.43 73.62 227.7 86.64 227.7 87.99 166.43 74.97 166.43 73.62" fill="#fff"/><path d="M143.52,85.38l99.26,21.1a3.9,3.9,0,0,1,3,3.64V124.9a2.36,2.36,0,0,1-3,2.37l-99.26-21.1a3.91,3.91,0,0,1-3-3.64V87.75A2.36,2.36,0,0,1,143.52,85.38Z" fill="#efd9bd"/><ellipse cx="151.58" cy="97.62" rx="5.58" ry="6.9" transform="translate(-26.41 126.4) rotate(-41.97)" fill="#fff"/><polygon points="166.43 98.35 227.7 111.37 227.7 112.72 166.43 99.7 166.43 98.35" fill="#fff"/><polygon points="166.43 101.86 227.7 114.88 227.7 116.23 166.43 103.21 166.43 101.86" fill="#fff"/><path d="M143.52,113.62l99.26,21.1a3.9,3.9,0,0,1,3,3.64v14.78a2.35,2.35,0,0,1-3,2.36l-99.26-21.1a3.9,3.9,0,0,1-3-3.63V116A2.36,2.36,0,0,1,143.52,113.62Z" fill="#efd9bd"/><ellipse cx="151.58" cy="125.86" rx="5.58" ry="6.9" transform="translate(-45.29 133.64) rotate(-41.97)" fill="#fff"/><polygon points="166.43 126.59 227.7 139.61 227.7 140.96 166.43 127.94 166.43 126.59" fill="#fff"/><polygon points="166.43 130.1 227.7 143.12 227.7 144.47 166.43 131.45 166.43 130.1" fill="#fff"/><path d="M259.66,65l-133-28.27V35.06a4.72,4.72,0,0,1,6-4.73l121,25.72a7.86,7.86,0,0,1,6,7.29Z" fill="#f3c47f"/></svg>