<svg id="b5a9ab56-9b41-4608-9aa5-dc19d7274b82" data-name="Layer 1" xmlns="http://www.w3.org/2000/svg" viewBox="0 0 320 240"><title>level-up</title><path d="M303.11,157.52c5.46-14.56,5.8-54.16-23.64-95.65-39.79-56-92.24-33.58-112.2-17.41-29.45,23.86-29.45,49-85.54,46.84-53-2-67.7,47.08-67.7,59.55,0,19.77,9.24,68.78,69.21,68.13,88.09-.95,73.64.66,122.73,1.5C281,221.78,294.49,180.5,303.11,157.52Z" fill="#f6ede1"/><path d="M188.89,104.21s-7.62,6.18-4.65,22.47c0,0-1.6,7.46,6.9,18.45,0,0,9,.64,15.89-3.85,0,0-3.13,8.26-7.38,9.95l-.48,8.67s11.64-4.17,13.57-7.54l-3-17.81,2.8-2.49.33-11-3.64-5.68s-5.51,4.16-3.67.54,1.2-9.7-1.6-11.55S194.83,102,188.89,104.21Z" fill="#f0c5bf"/><path d="M211.77,133.85s-3.52-5.12-3.29-6.1,5.12-5.87,2.54-8.83-6.2,3.29-6.2,3.29l-1.6-.47s-2.11-6.71-.66-8.08,5.63-9.25-1.88-9.86-13.76,1.55-14.18,3.94-1.92-2.91,0-5.45,13.85-9.34,24.79,0,10.09,17.93,7.89,22.82S211.77,133.85,211.77,133.85Z" fill="#0e2227"/><path d="M211.53,103.86l-1.43-6.33s2.34-.1,4.54,8S211.53,103.86,211.53,103.86Z" fill="#0e2227"/><path d="M210.1,106.61a11.64,11.64,0,0,1,10.46,4.77" fill="#5f469c"/><path d="M243.38,155.44a2.9,2.9,0,0,1,2.86.91c1.06,1.37.28,35,0,37s-4.09,1.05-4.09,1.05Z" fill="#0d87aa"/><path d="M238.5,146.55s3.37-1.7,4.45,3.12.54,29.6,0,37.48,1.56,8.83,2.17,10.73-5.68,10.28-8.23,5.11-.56-13.52-.56-13.52Z" fill="#621c19"/><path d="M231.21,144s6.21-4.23,7.3,2.51,1.74,33-1.93,48.16C236.57,194.68,229.21,148.3,231.21,144Z" fill="#e4362f"/><path d="M229.81,118.49s-23.75,13.37-19.9,17.42C209.92,135.91,225.58,131.21,229.81,118.49Z" fill="#b96a28"/><path d="M227.73,19.64s.4,3.61-1,26c0,0-1.6,20.22-1.44,40.44v40s-7.21,7.86-12.83,8.51l.58-19.11,1.51-49.89A26.44,26.44,0,0,1,212.49,51s-1.44,3-2.09,2.57-3-3.53-1.6-11.23a23.07,23.07,0,0,0,9.28-6.42c3.79-4.57,6,.64,6,.64S225.56,17.63,227.73,19.64Z" fill="#f0c5bf"/><path d="M229.81,118.49s7.09,85.61,12.36,97.88c0,0-20.21,3.93-26.95,3.81-6.43-.11-25.68-.69-25.68-.69s4.66-26,3.37-29.59c-1.58-4.39-7.47-11.71-9.35-11.71,0,0,5.5-19.66,8.07-21.66s5.78-5.86,8-5.3V162s11.51-3.21,13.22-7.38l-3-18.69S225.32,131.49,229.81,118.49Z" fill="#fec550"/><path d="M176.38,207.07s-.32,3.61,16.53-17.17c0,0-5.38-12.2-9.35-11.71l-3.16,6.1s-7.78-15.49-7.54-18.29S177,153.8,177,153.8s-1.21-5.62-4.18-6.74-1.44,4-1.44,4l-3.85-1.6s.88.72,1.44-.64-4.81-5.46-6.9-3.05a3.44,3.44,0,0,0,0,4.65l-.93,9.47a32,32,0,0,1,5.74,7C168.75,170.32,173.49,205.07,176.38,207.07Z" fill="#f0c5bf"/><path d="M199.64,162l-.48-2.09s12.35-5.92,13.57-7.54l.13,2.25S210.07,160.53,199.64,162Z" fill="#805823"/><path d="M192.91,189.9l1-13.38S190.4,185,190,184.36,192.91,189.9,192.91,189.9Z" fill="#b96a28"/><path d="M202,143.67s.59,5.37,0,6.37,8.72-9.36,8.52-10.67Z" fill="#e0a19c"/><path d="M212.94,152.35s11.9,28.62,24.45,23.82l.72,9.23s-23.68-14.9-27-29.86A3.58,3.58,0,0,0,212.94,152.35Z" fill="#805823"/><path d="M199.64,151.23s2.24,38.91-6.74,47.4l.22-7.1s5.12-38,4.19-39.73S199.64,151.23,199.64,151.23Z" fill="#805823"/><path d="M240,179.11h-1.15a2.43,2.43,0,0,1-2.43-2.43v-9.09a2.43,2.43,0,0,1,2.43-2.43H240a2.43,2.43,0,0,1,2.43,2.43v9.09A2.42,2.42,0,0,1,240,179.11Z" fill="#0e2227"/><rect x="238.1" y="163.32" width="2.65" height="4.89" fill="#0e2227"/><rect x="237.66" y="163.32" width="3.62" height="0.47" fill="#0e2227"/><rect x="235.7" y="174.46" width="7.31" height="11.9" fill="#444a9d"/><path d="M212.89,121.06s3.17,11.14,5.19,11.14c0,0-5.67,4.83-5.59,2.34S212.89,121.06,212.89,121.06Z" fill="#e0a19c"/><path d="M193.32,135.18A7.74,7.74,0,0,1,187.8,133l.37-.34c.14.16,3.45,3.78,9.45,1l.21.46A10.68,10.68,0,0,1,193.32,135.18Z" fill="#030404"/><path d="M199.27,135.16a3.39,3.39,0,0,1-2.12-2.29l.49-.1a2.9,2.9,0,0,0,1.8,1.93Z" fill="#030404"/><path d="M187.39,134.05l-.35-.36c1.43-1.41.56-2.47.52-2.52l.39-.32S189.15,132.32,187.39,134.05Z" fill="#030404"/><path d="M199.12,118.61c-1.36-2.88-5.22-1.33-5.39-1.26l-.19-.46c.05,0,4.47-1.8,6,1.5Z" fill="#030404"/><path d="M185.79,118.12l-.37-.34a3.48,3.48,0,0,1,2.56-1.31h0a3.81,3.81,0,0,1,2.55,1.15l-.37.34a3.36,3.36,0,0,0-2.18-1h0A3,3,0,0,0,185.79,118.12Z" fill="#030404"/><path d="M192.09,129.47a3.59,3.59,0,0,1-1.7-.42c-.5-.27-.76-.62-.75-1s.13-.5.63-.71c1-.44,1.11-4.06.93-6.61-2.37,2.46-5.74.33-5.78.31l.27-.42c.14.09,3.42,2.15,5.51-.66l.38-.52.07.65c.06.7.6,6.94-1.19,7.71-.2.09-.31.19-.32.28s.15.31.49.5a2.89,2.89,0,0,0,2.86,0l.29.4A2.91,2.91,0,0,1,192.09,129.47Z" fill="#030404"/><path d="M197.89,121.84a5.26,5.26,0,0,1-3.33-.8,1.31,1.31,0,0,1-.54-.87l.5,0a.86.86,0,0,0,.39.54c.51.4,1.91,1,5.57.46l.07.5A20.33,20.33,0,0,1,197.89,121.84Z" fill="#030404"/><path d="M141.58,167.68H55.09a3.85,3.85,0,0,1-3.85-3.85V146.4a3.85,3.85,0,0,1,3.85-3.85h86.49a3.85,3.85,0,0,1,3.85,3.85v17.43A3.85,3.85,0,0,1,141.58,167.68Z" fill="#f3c47f"/><path d="M123.7,198H37.21a3.85,3.85,0,0,1-3.85-3.85V176.7a3.85,3.85,0,0,1,3.85-3.85H123.7a3.85,3.85,0,0,1,3.85,3.85v17.43A3.85,3.85,0,0,1,123.7,198Z" fill="#f3c47f"/><path d="M156.15,137.71H69.66a3.85,3.85,0,0,1-3.85-3.85V116.43a3.85,3.85,0,0,1,3.85-3.85h86.49a3.85,3.85,0,0,1,3.85,3.85v17.43A3.85,3.85,0,0,1,156.15,137.71Z" fill="#f3c47f"/><path d="M199.85,121.6c0,.41-.48.74-1.06.74s-1.06-.33-1.06-.74" fill="#050404"/><path d="M198.79,122.59c-.74,0-1.31-.43-1.31-1h.5c0,.26.37.49.81.49s.81-.23.81-.49h.5C200.1,122.16,199.52,122.59,198.79,122.59Z" fill="#030404"/><path d="M189.79,121.42c.05.4-.38.79-1,.87s-1.1-.19-1.15-.59" fill="#050404"/><path d="M188.63,122.55a1.42,1.42,0,0,1-.86-.26.82.82,0,0,1-.34-.56l.49-.06a.36.36,0,0,0,.15.22,1,1,0,0,0,.72.15c.48-.06.78-.36.75-.59l.49-.06c.07.54-.44,1-1.17,1.15Z" fill="#030404"/><circle cx="85.64" cy="125.15" r="9.59" fill="#fff"/><polygon points="83.84 131.56 79.18 126.91 80.59 125.49 83.84 128.74 90.68 121.89 92.09 123.31 83.84 131.56" fill="#219d53"/><circle cx="72.64" cy="155.15" r="9.59" fill="#fff"/><polygon points="70.84 161.56 66.18 156.91 67.59 155.49 70.84 158.74 77.68 151.89 79.09 153.31 70.84 161.56" fill="#219d53"/><circle cx="53.64" cy="185.15" r="9.59" fill="#fff"/><polygon points="51.84 191.56 47.18 186.91 48.59 185.49 51.84 188.74 58.68 181.89 60.09 183.31 51.84 191.56" fill="#219d53"/><path d="M121,218l-.32-.26a2.21,2.21,0,0,1-.34-3.12l29.19-36.35a2.21,2.21,0,0,1,3.12-.34l.32.26a2.21,2.21,0,0,1,.34,3.12l-29.19,36.35A2.22,2.22,0,0,1,121,218Z" fill="#e4362f"/><path d="M152.63,94.48V104.7a8,8,0,0,1-8,8h-5.32a8,8,0,0,1-8-8V94.48" fill="#e0c7bd"/><path d="M147.68,94.56c0-.09-3.05-9.29,3-13.56l.29.4c-5.72,4.07-2.82,12.91-2.79,13Z" fill="#030404"/><path d="M143.23,94.52c-.1-.57-2.36-14.18,2.41-20.49l.4.3c-4.64,6.14-2.34,20-2.32,20.11Z" fill="#030404"/><circle cx="147.13" cy="71.88" r="3.09" fill="#f3c47f"/><circle cx="152.63" cy="79.4" r="3.09" fill="#f3c47f"/><path d="M140.08,94.3V80.9A48.15,48.15,0,0,1,137,85.57c-.94,1.08,1.71,1.57,1.53,3.15s-1.35,1.08-1.73,3.06a2.2,2.2,0,0,0,1.63,2.52Z" fill="#229d54"/><path d="M167.55,149.46s3.19,4.67,0,9.23,4.32,1.46,4.32,1.46l-.46-9.08Z" fill="#e0a19c"/><path d="M214.57,65.54s2.73,5.23,6,3.25c0,0-4.27,10.07-5.4,12.12S214.57,65.54,214.57,65.54Z" fill="#e0a19c"/><path d="M180.39,184.28s1.55,4.35,1.55,6.63,1.62-12.72,1.62-12.72Z" fill="#e0a19c"/><path d="M200.53,191.15A125.93,125.93,0,0,0,196.4,210c-.2,1.76-2.13,9.62-2.13,9.62l2.13-24.89L199.65,162l-.48-2.09S203.06,183.11,200.53,191.15Z" fill="#b96a28"/><path d="M192.5,137.08a9.65,9.65,0,0,1-3.88-1l.22-.44s4,1.95,6.28,0l.33.38A4.49,4.49,0,0,1,192.5,137.08Z" fill="#030404"/><circle cx="118.45" cy="200.46" r="9.55" fill="#0d87aa"/></svg>