<svg xmlns="http://www.w3.org/2000/svg" viewBox="0 0 1080 1080"><defs><filter id="A" filterUnits="userSpaceOnUse"><feOffset dx="10.08" dy="10.08"/><feGaussianBlur result="A" stdDeviation="14.41"/><feFlood flood-color="#c0dbfc" flood-opacity=".75"/><feComposite in2="A" operator="in"/><feComposite in="SourceGraphic"/></filter></defs><circle cx="571.07" cy="540" r="466.18" fill="#e8edf8"/><rect x="175.14" y="119.41" width="827.88" height="248.12" rx="14" fill="#fff" filter="url(#A)" stroke="#e8edf8" stroke-miterlimit="10" stroke-width="1.44"/><rect x="42.75" y="420.61" width="827.88" height="248.12" rx="14" fill="#fff" filter="url(#A)" stroke="#e8edf8" stroke-miterlimit="10" stroke-width="1.44"/><rect x="175.14" y="718.73" width="827.88" height="248.12" rx="14" fill="#fff" filter="url(#A)" stroke="#e8edf8" stroke-miterlimit="10" stroke-width="1.44"/><path d="M144.01 521.9c.48-.72 1.11-2.25-.06-4.48-1.11-2.12-2.48-3.36-4.08-3.67-2.02-.4-3.56.85-3.62.91a1.09 1.09 0 0 0-.13 1.53c.37.45 1.05.52 1.51.14.03-.01.85-.65 1.83-.45.91.2 1.8 1.08 2.56 2.55.33.65.65 1.58.17 2.28-.32.48-.98.76-1.6.71-.33-.03-.75-.16-.95-.62-.33-.79-.13-1.2.13-1.5a1.09 1.09 0 0 0-.12-1.53 1.09 1.09 0 0 0-1.53.12c-.89 1.05-1.07 2.38-.48 3.76.48 1.08 1.5 1.8 2.74 1.92.13.01.26.01.37.01 1.28 0 2.54-.63 3.23-1.67zm42.49-6.54c0-1.8-1.08-3.26-2.41-3.26s-2.41 1.46-2.41 3.26 1.08 3.26 2.41 3.26 2.41-1.46 2.41-3.26zm-21.4 0c0-1.8-1.08-3.26-2.41-3.26s-2.41 1.46-2.41 3.26 1.08 3.26 2.41 3.26 2.41-1.46 2.41-3.26zm7.95-.7c0-7.51-5.72-13.61-12.76-13.61s-12.78 6.11-12.78 13.61c0 7.51 5.73 13.61 12.78 13.61 7.04 0 12.76-6.11 12.76-13.61zm-2.88 0c0 5.92-4.42 10.73-9.88 10.73s-9.9-4.81-9.9-10.73 4.44-10.73 9.9-10.73c3.44 0 6.48 1.93 8.26 4.86-.27-.33-1.92-2.05-5.63-2.22-3.85-.19-5.73 1.41-5.95 1.58-.59.53-.63 1.46-.12 2.05.53.59 1.44.63 2.05.1.03-.01 1.24-.99 3.88-.86 2.58.13 3.57 1.2 3.62 1.24a1.47 1.47 0 0 0 1.08.49c.33 0 .66-.12.94-.35.45-.39.61-.98.45-1.51.84 1.58 1.33 3.4 1.33 5.36zm7.67 31.58c.75-.24 1.17-1.05.92-1.82-.23-.75-1.02-1.17-1.77-.94-.12.03-2.46.5-6.76-2.39-.66-.45-1.56-.27-2 .39s-.27 1.56.39 2c3.63 2.46 6.3 2.94 7.81 2.94.81 0 1.28-.13 1.41-.17h0zm-95.55-.97c0 41.71 33.93 75.64 75.64 75.64s75.64-33.93 75.64-75.64-33.93-75.64-75.64-75.64c-4.03 0-8 .33-11.86.94-1.46-.99-3.26-1.79-5.52-2.06-5.53-.66-10.82 2.56-13.28 7.64-26.47 11.78-44.98 38.32-44.98 69.12zm43.78-65.39a14.58 14.58 0 0 0-.13 4.49c.85 6.77 7.53 9.12 13.51 9.05-.2 2.13-.19 4.06-.06 5.71-.26 2.35-.32 4.52-.3 6.3-.71-.22-1.44-.33-2.19-.3-1.8.04-3.4.92-4.62 2.55-2.58 3.44-3.47 8.96-2.28 14.06.94 3.96 2.95 6.9 5.66 8.26 1.63.82 3.2 1.14 4.64 1.14a1.76 1.76 0 0 0 .33-.03v33.35h-13.38c-14.28 0-26.75 6.56-32.76 16.41-5.92-10.53-9.32-22.66-9.32-35.59 0-28.7 16.71-53.56 40.9-65.39zm63.6 28.24s-.52-.65-1.43-1.24c-.89-.59-2.22-1.17-3.9-1.17-3.64 0-5.71 2.26-6.09 2.75 1.79-2.74 4.73-4.54 8.05-4.54 1.43 0 2.78.35 4.01.94a57.2 57.2 0 0 1 .78 3.9c.81 4.78 1.34 9.54 1.61 14.06-1.71 1.6-3.95 2.56-6.4 2.56-5.45 0-9.88-4.81-9.88-10.73 0-2.16.58-4.16 1.6-5.85-.29.62-.12 1.37.45 1.79.24.19.55.27.85.27.43 0 .86-.19 1.15-.56.03-.04.37-.48 1.02-.89a5.27 5.27 0 0 1 2.85-.82c1.96 0 3.04 1.28 3.1 1.33.5.61 1.41.71 2.02.2.61-.49.71-1.38.22-2zm-3.38 20.15c2.41 0 4.65-.72 6.57-1.96.45 12.17-1.02 21.97-4.11 24.29-4.15 3.11-23.45 5.78-34.33 1.33-.73-.3-1.58.04-1.87.78-.3.73.04 1.58.78 1.89 4.11 1.67 9.38 2.45 14.68 2.56v9.36c0 5.34-4.26 8.01-8.26 8.72-5.98 1.07-13.43-1.69-16.24-8.98v-35.67c1.74-.59 3.13-1.53 3.9-2.31.56-.56.56-1.48 0-2.05s-1.48-.56-2.05 0c-.14.14-3.69 3.54-8.41 1.18-1.92-.97-3.43-3.28-4.15-6.35-1.01-4.24-.29-8.92 1.77-11.67.71-.94 1.46-1.38 2.39-1.4.03-.01.06-.01.09-.01 2.59 0 5.78 3.13 6.79 4.35.52.62 1.43.69 2.03.19s.69-1.43.19-2.03c-.27-.33-1.86-2.19-4.02-3.63a29.51 29.51 0 0 1-.03-1.87c2.16-.22 6.15-.72 7.82-1.41 2.35-.98 3.33-9.6 5.92-9.55 2.59.06 10.33 1.71 17.19 1.71 5.1 0 11.02-.95 13.72-1.43 1.04 2.09 1.96 4.47 2.75 7.16-.99-.27-2.05-.43-3.13-.43-7.04 0-12.76 6.11-12.76 13.61 0 1.64.27 3.2.78 4.65-.42.43-.55 1.09-.24 1.66 2.42 4.62 5 10.14 5.11 11.37.06.56-.07.98-.4 1.35-1.05 1.15-3.75 1.43-4.61 1.43-.79 0-1.44.65-1.43 1.44a1.42 1.42 0 0 0 1.43 1.44c.48 0 4.64-.06 6.74-2.36.88-.98 1.27-2.2 1.14-3.57-.1-1.07-1.01-3.28-2.06-5.58 1.87 1.14 4.02 1.79 6.31 1.79h0zm-36.26-53.43c-.33-.55-.75-1.14-1.22-1.73a74.85 74.85 0 0 1 6.19-.52c-1.8.58-3.47 1.33-4.97 2.25zm20.83 92.49h2.9c-.43 8.1-7.26 13.89-16.57 13.89-8.7 0-16.22-5.17-19.18-13.2-.07-.23-.14-.46-.19-.69h3.03c2.92 7.52 9.93 11.01 16.38 11.01 1.02 0 2.05-.09 3.03-.26 6.15-1.09 10.23-5.27 10.6-10.75zm9.11-91.38c29.38 9.35 50.71 36.9 50.71 69.33 0 15.92-5.14 30.64-13.85 42.63l-1.64-3.76c-5.16-11.78-19-19.69-34.49-19.69h-9.81v-7.29c8.46-.19 16.51-1.94 19.59-4.25 4.91-3.69 5.86-16.5 5.16-29 2.12-2.43 3.43-5.68 3.43-9.25 0-4.97-2.54-9.32-6.28-11.7-1.24-4.91-2.94-9.21-5.11-12.81-.66-5.24-1.9-10.49-7.71-14.21h0zm16.22 38.71c0 1.58-.33 3.08-.89 4.44a155.75 155.75 0 0 0-1.37-10.79c-.04-.22-.09-.4-.12-.61 1.47 1.87 2.38 4.31 2.38 6.96z" fill="#8592aa"/><g fill="#e8edf8"><rect x="286.37" y="489.7" width="510.65" height="37.9" rx="13.15"/><rect x="286.37" y="561.74" width="403.39" height="37.9" rx="13.15"/><rect x="417.78" y="787.82" width="510.65" height="37.9" rx="13.15"/><rect x="417.78" y="859.86" width="403.39" height="37.9" rx="13.15"/><rect x="417.78" y="188.5" width="510.65" height="37.9" rx="13.15"/><rect x="417.78" y="260.53" width="403.39" height="37.9" rx="13.15"/></g><path d="M320.37 831.78c-.23-2.39-4.57-10.76-5.43-12.42-.37-.71-1.24-.98-1.94-.61-.71.37-.98 1.24-.61 1.94 2.42 4.64 5 10.14 5.11 11.37.06.56-.07.98-.4 1.35-1.05 1.15-3.75 1.43-4.61 1.43a1.45 1.45 0 0 0-1.44 1.44 1.45 1.45 0 0 0 1.44 1.44c.46 0 4.64-.07 6.73-2.38.88-.97 1.27-2.2 1.14-3.57h.01zm-14.57-20.92a1.39 1.39 0 0 0 .92-.33c.61-.5.69-1.38.2-1.99-.17-.22-1.8-2.09-5.69-2.28-3.86-.17-5.75 1.41-5.95 1.6a1.44 1.44 0 0 0-.12 2.03 1.44 1.44 0 0 0 2.03.12c.03-.03 1.24-1.01 3.88-.86 2.58.13 3.56 1.2 3.6 1.24.29.32.69.49 1.09.49h.03zm18.49-1.23a1.45 1.45 0 0 0 2.02.2c.61-.49.71-1.38.22-2-.07-.1-1.94-2.41-5.33-2.41h0c-4.01 0-6.09 2.75-6.18 2.87-.48.63-.33 1.54.3 2.02.26.2.56.29.86.29a1.45 1.45 0 0 0 1.15-.58c.07-.09 1.38-1.71 3.88-1.71h0a4.32 4.32 0 0 1 3.1 1.33h-.01zm-3.34 8.7c1.33 0 2.41-1.46 2.41-3.26s-1.08-3.26-2.41-3.26-2.41 1.46-2.41 3.26 1.08 3.26 2.41 3.26zm-22.35-3.27c0 1.8 1.08 3.26 2.41 3.26s2.41-1.46 2.41-3.26-1.08-3.26-2.41-3.26-2.41 1.46-2.41 3.26zm16.7 28.14c-.12.03-2.48.5-6.76-2.39-.66-.45-1.56-.27-2 .39s-.27 1.56.39 2c3.63 2.46 6.3 2.94 7.81 2.94.81 0 1.28-.13 1.41-.17.75-.24 1.17-1.05.92-1.82-.23-.75-1.02-1.15-1.77-.94h0zm-94.7 1.79c0 41.71 33.93 75.64 75.64 75.64s75.64-33.93 75.64-75.64c0-33.4-21.75-61.78-51.84-71.78-5.72-5.52-12.82-8.26-21.44-8.26-5.33 0-17.39.01-27.29 8.63-29.49 10.33-50.71 38.42-50.71 71.4zm46.07-66.45c-4.08 5.3-7.41 12.71-9.15 22.99-4.55 26.91 4.11 49.42 6.8 55.54-4.67 1.53-11.01 5.96-12.51 9.25-8.28 2.69-15.04 7.77-19 14.26-5.94-10.53-9.34-22.68-9.34-35.6 0-29.59 17.78-55.09 43.19-66.44zm62.59 27.49c1.67 7.25-2.36 38.61-6.86 44.23-4.9 6.09-17.33 7.1-29.58-.52-9.05-6.77-11.44-15.67-12.43-23.99 0 0 4.75-14.87 8.21-21.48 5.91-11.3 13.53-20.95 21.57-22.22 10.33-1.61 17.2 12.03 19.09 23.97zm-27.55 60.75c-.07.75-.69 1.31-1.43 1.31h-.13c-.45-.04-10.93-1.07-21.64-10.17-8.46-7.19-10.03-13.48-10.08-13.74-.19-.78.29-1.54 1.07-1.73a1.43 1.43 0 0 1 1.73 1.05c.01.06 1.48 5.71 9.16 12.23 9.96 8.47 19.92 9.48 20.03 9.48.78.09 1.37.78 1.3 1.57zm67.28-21.79c0 15.92-5.14 30.64-13.85 42.63l-1.64-3.76c-2.84-6.48-8.33-11.78-15.26-15.24-1.7-2.68-5.75-8.08-11.58-9.67 6.79-21.41 12.48-44.14 4.61-66.7-2-5.75-4.42-10.57-7.29-14.49 26.39 10.92 45.01 36.94 45.01 67.24zm-134.5 38.41c3.37-6.41 9.74-11.45 17.66-14.15 2.46 4.83 13.46 21.61 47.69 21.62 22.91 0 34.86-14.95 37.86-19.32 5.98 3.16 10.69 7.81 13.17 13.46l2.28 5.23c-3.33 4.18-7.1 8-11.27 11.35a22.14 22.14 0 0 0-1.38-3.07c-2.56-4.74-5.96-7.2-6.11-7.3-.65-.46-1.54-.3-2.02.35a1.45 1.45 0 0 0 .33 2c.3.22 4.78 3.56 6.79 9.88-12.1 8.98-27.06 14.29-43.25 14.29-26.02 0-48.88-13.74-61.75-34.35zm77.98-648.03a1.45 1.45 0 0 0 1.44 1.44c.46 0 4.64-.07 6.73-2.38.88-.97 1.27-2.2 1.14-3.57-.24-2.43-3.7-8.15-4.39-9.28-.42-.68-1.31-.89-1.99-.48s-.89 1.31-.48 1.99c1.58 2.55 3.85 6.73 3.98 8.04.06.56-.07.98-.4 1.35-1.04 1.15-3.73 1.43-4.6 1.43a1.45 1.45 0 0 0-1.44 1.44h.01zm-6.53 1.5a.64.64 0 0 0-1.01.46c-.16 1.76.13 5.17 4.44 6.64 3.99 1.37 7.06-.26 8.56-1.38.45-.33.29-1.04-.26-1.15-1.44-.3-3.85-.88-6.02-1.63-2.56-.89-4.64-2.19-5.72-2.94h.01zm-25.42-11.61c1.28 0 2.52-.63 3.23-1.67.48-.72 1.11-2.25-.06-4.48-1.11-2.12-2.48-3.36-4.08-3.67-2.02-.4-3.56.85-3.62.91a1.09 1.09 0 0 0-.13 1.53c.37.46 1.05.52 1.51.14.03-.01.85-.65 1.83-.45.91.2 1.8 1.08 2.56 2.55.33.65.65 1.58.17 2.28-.32.48-.97.76-1.6.71-.33-.03-.75-.16-.95-.62-.33-.79-.13-1.2.13-1.5a1.09 1.09 0 0 0-.12-1.53 1.09 1.09 0 0 0-1.53.12c-.89 1.05-1.07 2.38-.48 3.76.46 1.08 1.48 1.8 2.72 1.92.13.01.24.01.37.01h.01zm22.14-17.02c-3.83-.19-5.75 1.41-5.95 1.6a1.44 1.44 0 0 0-.12 2.03 1.44 1.44 0 0 0 2.03.12c.03-.03 1.24-.99 3.88-.86 2.58.13 3.56 1.2 3.6 1.24.29.32.69.49 1.09.49a1.41 1.41 0 0 0 .92-.35c.61-.5.69-1.38.2-1.99-.17-.22-1.8-2.09-5.69-2.28h.03zm21.38 2.03h0c1.96 0 3.05 1.27 3.1 1.33.5.61 1.41.71 2.02.2.61-.49.71-1.38.22-2-.07-.1-1.94-2.41-5.33-2.41h0c-4.01 0-6.09 2.75-6.18 2.87-.48.63-.33 1.54.3 2.02.26.2.56.29.86.29a1.45 1.45 0 0 0 1.15-.58c.07-.09 1.38-1.71 3.88-1.71h-.01zm-2.64 6.76c0 1.8 1.08 3.26 2.41 3.26s2.41-1.46 2.41-3.26-1.08-3.26-2.41-3.26-2.41 1.46-2.41 3.26zm-21.39 0c0 1.8 1.08 3.26 2.41 3.26s2.41-1.46 2.41-3.26-1.08-3.26-2.41-3.26-2.41 1.46-2.41 3.26zm-78 29.92c0 41.71 33.93 75.64 75.64 75.64s75.64-33.93 75.64-75.64c0-27.19-14.42-51.07-36.02-64.4-.56-3.05-1.5-5.98-2.98-8.46-3.36-5.59-12.89-2.22-12.89-2.22s-2.35-3.21-14.19-6.44c-11.54-3.13-23.45.56-32.11 9.32-30.72 9.61-53.08 38.34-53.08 72.19zm49.2-67.75c-5.79 7.53-6.41 13.72-6.41 20.75 0 5.27 2.68 12.29 3.07 13.83.37 1.56.81 12.63 4.9 20.05 2.55 4.64 5.76 7.87 7.59 9.48v22.82h-13.38c-14.28 0-26.75 6.56-32.76 16.41-5.92-10.53-9.32-22.66-9.32-35.59 0-30.79 19.25-57.15 46.32-67.76zm15.93 48.72c-.56-.56-1.48-.56-2.05 0-.14.14-3.69 3.54-8.41 1.18-1.92-.97-3.43-3.28-4.15-6.35-1.01-4.24-.29-8.92 1.77-11.67.71-.94 1.46-1.38 2.39-1.4.03-.01.06-.01.09-.01 2.59 0 5.78 3.13 6.79 4.35.5.61 1.41.69 2.03.19.61-.5.69-1.43.19-2.03a15.92 15.92 0 0 0-.81-.89c2.75-.62 5.5-3.49 8.02-4.34 2.69-.89 9.55 2.72 12.74-1.67 3.17-4.39 1.41-17.88 4.49-19.03s7.94 2.25 7.94 2.25 2.67-4.08 5.47-1.35c2.79 2.71-.26 11.35 2.56 15.76 1.34 2.09 3.77 2.54 5.98 2.43 2.32 17.14-2.03 42.14-6.84 45.74-4.12 3.08-24.02-.27-31.23-9.49-.49-.62-1.38-.73-2.02-.24-.62.5-.73 1.4-.24 2.03 3.47 4.42 9.61 7.69 15.88 9.61v15.23c0 5.34-4.26 8.01-8.26 8.72-5.98 1.07-13.43-1.69-16.24-8.98v-35.67c1.74-.59 3.13-1.53 3.9-2.31.56-.56.56-1.48 0-2.05zm83.26 19.03c0 15.92-5.14 30.64-13.85 42.63l-1.64-3.76c-5.16-11.78-19-19.69-34.49-19.69h-9.81v-12.35c3.3.79 6.54 1.21 9.32 1.21 3.13 0 5.69-.52 7.15-1.61 6.19-4.65 10.37-30.73 7.97-48.46 1.04-.23 1.73-.49 1.73-.49s1.83-8.98.99-18.12c19.65 13.04 32.63 35.35 32.63 60.65zm-134.49 38.44c5.11-9.77 17.14-16.38 31.06-16.38h7.69c.06.58.17 1.14.37 1.69 3.37 9.16 11.94 15.08 21.87 15.08 10.98 0 19-7 19.42-16.77h4.09c14.35 0 27.16 7.22 31.85 17.97l2.28 5.23c-13.34 16.74-33.89 27.5-56.91 27.5-26.02 0-48.87-13.73-61.73-34.32z" fill="#8592aa"/></svg>
