<svg xmlns="http://www.w3.org/2000/svg" viewBox="0 0 512 512"><path d="M300.4 84.8c-21.3.2-42.5 3.1-63.1 8.6-54.6 14.3-107.6 45.4-149.2 87.6-42.2 42.8-68.6 93.1-74.3 141.7C7 380.3 28.9 429.5 74 457.7m102.2 24.5c19.9-.8 39.6-3.8 58.9-8.9C301 456 359.8 418.4 403.2 365.9c41.5-50.5 61.8-109 55.6-160.5-4.6-39.8-24.7-72.3-58.1-94" fill="none" stroke="#b08ee6" stroke-width="4" stroke-miterlimit="10"/><g fill-rule="evenodd"><path d="M238.4 304.4c2.6-7.8 7.1-14.8 13-20.4 2.2 5.1 6.9 8.7 12.4 9.7 6.4 1.1 12.9-1.8 16.3-7.3 2.8-4.6 3.2-10.4 1-15.3 7.7-.5 15.3 1 22.3 4.2 21.8 10.2 32.5 36.7 24.6 60-8.6 25.3-35.6 39.4-60.6 30.7-24.1-8.5-37.5-36.3-29-61.6zM197 161.9c6.9-3.3 9-11.6 4.9-18.7l-43.5-74.5c-4.4-7.6-14.1-11.5-21.6-8.6s-10 11.6-5.4 19.3l45.1 75.5c2.7 4.6 7.5 7.6 12.8 8.2 2.7.4 5.3 0 7.7-1.2zm98.8-24.1v-73c-.2-7.5-5.4-13.9-12.7-15.6-7.1-1.4-12.9 3.3-12.9 10.7v74.5c.1 7.5 5.6 13.7 12.9 14.9 6.1.9 11.7-3.4 12.6-9.4.1-.7.2-1.4.1-2.1zm78.5 38.8l31.2-53.5c3-5.1 1.4-12.7-3.5-16.9-4.9-4.3-11.5-3.6-14.6 1.5l-32.2 54c-3.3 5.5-1.6 13.3 3.8 17.4 1.7 1.3 3.7 2.2 5.8 2.4 3.9.4 7.6-1.5 9.5-4.9z" fill="#4d1e9a"/><path d="M420 290.4c-24.4-38.4-79.5-111.7-150.3-118.8-79.6-8-157.2 68.6-197.2 116.1-16.6 19.7-16.6 46.8 0 66.1 40 46.4 117.5 120.7 197.2 110.3 70.8-9.2 125.9-84 150.3-123.3 9.5-15.5 9.5-35 0-50.4zm-62.5 35.3c-3.8 42.7-35.9 79.9-78.1 88.2-61.9 12-118.5-38.4-111.5-105.4 5.1-49.1 45.4-86.5 92.1-88.3 58.1-2.3 102.6 48.4 97.5 105.5z" fill="#d69e2e"/><g stroke-width="4" stroke-miterlimit="10" stroke="#1f0d40"><path d="M246.1 304.4c2.6-7.8 7-14.8 13-20.4a16.86 16.86 0 0 0 12.4 9.7c6.4 1.1 12.9-1.8 16.3-7.3 2.8-4.6 3.2-10.4 1-15.3 7.7-.5 15.3 1 22.3 4.2 21.8 10.2 32.5 36.7 24.7 60-8.6 25.3-35.6 39.4-60.6 30.7-24.2-8.5-37.6-36.3-29.1-61.6z" fill="#976ae2"/><path d="M443 292.3c-24.4-38.4-79.5-111.7-150.3-118.8-79.6-8-157.2 68.6-197.2 116.1-16.6 19.7-16.6 46.8 0 66 40 46.4 117.5 120.7 197.2 110.3 70.8-9.2 125.9-84 150.3-123.3 9.5-15.4 9.5-34.9 0-50.3zm-62.5 35.3c-3.8 42.7-35.9 79.9-78.1 88.1-61.9 12.1-118.5-38.4-111.5-105.4 5.1-49.1 45.4-86.5 92.1-88.3 58-2.2 102.6 48.5 97.5 105.6z" fill="#ecc94b"/><path d="M206.5 158.1c6.9-3.3 9-11.6 4.9-18.7L168 64.9c-4.4-7.6-14.1-11.5-21.6-8.6s-10 11.6-5.4 19.3l45.1 75.5c2.7 4.6 7.5 7.6 12.8 8.2 2.6.4 5.3-.1 7.6-1.2zm98.9-24.1V61c-.2-7.5-5.4-13.9-12.7-15.6-5.6-1.4-11.3 2-12.6 7.6-.2 1-.3 2-.3 3.1v74.5c.1 7.5 5.6 13.7 12.9 14.9 6.1.9 11.7-3.4 12.6-9.5.1-.7.1-1.3.1-2zm78.5 38.8l31.2-53.5c3-5.1 1.4-12.7-3.5-16.9-4.9-4.3-11.5-3.6-14.6 1.5l-32.2 54c-3.3 5.5-1.5 13.3 3.8 17.4 1.7 1.3 3.7 2.2 5.8 2.4 3.9.4 7.6-1.5 9.5-4.9z" fill="#976ae2"/></g></g></svg>