<svg id="efdf27bc-6876-4a8a-8310-c562c9652034" data-name="Layer 1" xmlns="http://www.w3.org/2000/svg" viewBox="0 0 300 240"><title>mail-sent-icon</title><path d="M289.1,168.43c5-13.37,5.31-49.64-21.61-87.56C231,29.49,183,50.1,164.72,64.93c-27,21.89-27,44.88-78.31,42.87-48.54-1.83-62,43.14-62,54.58,0,18.14,8.43,63,63.38,62.38,80.69-.92,67.41.64,112.38,1.37C268.86,227.23,281.22,189.49,289.1,168.43Z" fill="#f6ede1"/><polygon points="224.99 56.05 224.99 41.03 219.22 41.95 218.76 56.05 224.99 56.05" fill="#fbc0ad"/><path d="M215.1,25.28s-3.57,12.45,3.2,16.66c0,0,9.34,2.29,12.64-4.94,0,0,5.41-.28,4.86-3.21,0,0,.64-1.74-2.2-1l-1.74-5.68-2.75-6.78L225,19.51h-6.5A12.75,12.75,0,0,0,215.1,25.28Z" fill="#fcd2c0"/><path d="M231.67,14.29s-11.81-7.7-16.94,8.79l-1.37,2,4.94-2.56s6.51,3.66,8.52,4l.09-5.41s2.75,4.86,2.75,5.41a14.86,14.86,0,0,0,1,2.75,8.73,8.73,0,0,1,0,4.85L233.51,33s6-3,4.3-11.36C236.44,15,231.67,14.29,231.67,14.29Z" fill="#514d38"/><path d="M221.87,26s-1.37-2.57-4.67-.83Z" fill="#644e40"/><circle cx="218.58" cy="28.39" r="0.92" fill="#644e40"/><ellipse cx="221.69" cy="32.69" rx="1.47" ry="1.1" fill="#f09f95"/><path d="M218.58,36.45l4.58,1.19a8.87,8.87,0,0,1-2.29.82A2,2,0,0,1,218.58,36.45Z" fill="#ca5c4c"/><path d="M229.66,28.12s-1.37-2.57-4.67-.83Z" fill="#644e40"/><circle cx="225.9" cy="30.22" r="0.92" fill="#644e40"/><path d="M233.32,20.15s-.27,8.24-3.66,12.27Z" fill="#615b4a"/><path d="M183.5,221.09s-3.3-1.65.91-3.39,4.4-.91,6.05-2.47,6.32-6.14,6.69-7,1-2.2,3.66-.46,4.21,3.57,5.31,3.57,2.57-2.74,4.4-3.2,3.2-.92,4,3a18.67,18.67,0,0,1,.64,5.22S189.91,221.83,183.5,221.09Z" fill="#412d2d"/><path d="M214.64,221.28s2-3.3.55-4.86c0,0-29.31,4.4-32.7,3.85a4.61,4.61,0,0,0,2.75,3.39C187.53,224.76,214.64,221.28,214.64,221.28Z" fill="#9b776a"/><path d="M199.34,208.45l1.56-9.71,10.9-1.92s.64,11.91.46,13C212,211.11,205.48,213.58,199.34,208.45Z" fill="#fdd4c0"/><path d="M200.08,115.22v-9s9.34-.82,10.53-.82,2.29,3.75,2.29,3.75,6.41,10.63,7,15.2-1.74,23.27-1.74,23.27l-3.66,35.08-.92,19.05s-11.81,5.31-14.65,0,2.29-9.16,2.56-30S200.08,115.22,200.08,115.22Z" fill="#20597e"/><path d="M223.71,223.47,300,220.54C299.91,220.45,244.86,213.4,223.71,223.47Z" fill="#f4ecdf"/><path d="M231.4,42.22s2-2.75,4.76-1.56,7.6,1.93,7.42,4.31.83-4.4.83-4.4,7.14-1.1,8.06,2,8.24,6.68,5.31,17.4.64,29.58-2.29,32.51-12.92,3.3-13.1,1.83a16.87,16.87,0,0,1,.37-4S242,77.12,240,72.72a60.28,60.28,0,0,0-4.67-8.34s-4.21-9.06-3.76-11.72S228.74,43,231.4,42.22Z" fill="#1285a9"/><path d="M207.77,71.25s-.92,28.21-4.3,37.74,9.34,2.2,9.34,2.2l3.48-50.74C216.38,60.45,210.7,58.06,207.77,71.25Z" fill="#7e1618"/><path d="M218.3,48.08s-6.68,5-6.68,5.31a39.88,39.88,0,0,0-.83,7.79c0,3.75.46,3.48.46,3.48l5.31-10.35,3.76-2.66-1.1-4.21Z" fill="#7e1618"/><path d="M209.05,86.55s-.09,21.16.46,24.73S220,112.93,220,112.93l2.57-.28,8-9.34,8.7-10.72,2.74-10-.73-11.72L232.68,50.1a10,10,0,0,0-11.45-.83c-6.5,3.67-10.53,16.67-10.53,16.67l-1.56,14.47Z" fill="#e4372e"/><path d="M203,224.66s-3.3-1.64.91-3.38,4.4-.92,6.05-2.48,6.32-6.13,6.68-7,1-2.2,3.67-.46,4.21,3.58,5.31,3.58,2.56-2.75,4.4-3.21,3.2-.92,4,3a18.67,18.67,0,0,1,.64,5.22S209.42,225.4,203,224.66Z" fill="#412d2d"/><path d="M234.15,224.94s2-3.3.55-4.85c0,0-29.31,4.39-32.7,3.84a4.58,4.58,0,0,0,2.75,3.39C207.13,228.33,234.15,224.94,234.15,224.94Z" fill="#9b776a"/><path d="M220,212.85l1.38-10.17,12,.83s-.64,7-.55,10.16C231.58,213.4,227.46,217.61,220,212.85Z" fill="#fdd4c0"/><path d="M241.29,132.16,242,122l1.29-37.36-.19-13-4-9.89-12,32.42-8.52,12.64,11.54,19C230,125.75,235.89,134.08,241.29,132.16Z" fill="#e4372e"/><path d="M210.61,120.25l-1.1-9s9.25-1.93,10.35-2,2.75,3.48,2.75,3.48,7.78,9.71,9,14.29,1.29,23.26,1.29,23.26l.82,35.27,1.47,19s-11,6.68-14.57,1.74,1.1-9.35-1.37-30.14S210.61,120.25,210.61,120.25Z" fill="#366e8f"/><path d="M224.44,44.14s5.22-4.39,7.05-.82-3.75,8.24-3.75,8.24l-6.05,8.7-2-5.49S225.17,45.79,224.44,44.14Z" fill="#7e1618"/><path d="M212.62,110.09c0-.64-.09-1.19-.09-1.83h.19c0,.64.09,1.19.09,1.83Zm.19-12.83h-.19c.19-3.38.55-7.14,1-11h.18C213.36,90.12,213,93.88,212.81,97.26Zm1.65-15.47h-.19c.09-.65.19-1.19.28-1.84h.18C214.64,80.5,214.55,81.14,214.46,81.79Zm.55-3.67h-.19c.09-.64.19-1.19.28-1.83h.18C215.19,76.93,215.1,77.48,215,78.12Zm2.29-12.64-.19-.09c1.38-6.41,2.48-10.71,2.48-10.71l.18.09C219.77,54.86,218.67,59.07,217.3,65.48Z" fill="#fff"/><path d="M233.41,86.18a5.69,5.69,0,0,0-2.56-3.75,6.28,6.28,0,0,0-4.58-.37l-.09-.18a6.78,6.78,0,0,1,4.76.36,5.86,5.86,0,0,1,2.66,3.85Z" fill="#50575d"/><path d="M244.59,50.37c-.64-3.3-1.1-5.31-1.1-5.4l.18-.09s.46,2.1,1.1,5.4Z" fill="#20597e"/><path d="M246.79,62.37c-.09-.46-.19-.92-.28-1.37h.19l.27,1.37Zm-.46-2.66c-.09-.45-.18-.91-.28-1.37h.19l.27,1.37Z" fill="#20597e"/><path d="M249.81,86.09a7,7,0,0,0-.09-1.37h.18c0,.45.09.91.09,1.37Zm-.18-2.75c0-.45-.1-.91-.1-1.37h.19c0,.46.09.92.09,1.37Zm-1-9.52c-.37-2.48-.73-5.22-1.19-8.06h.18c.46,2.93.92,5.58,1.19,8.06Z" fill="#20597e"/><path d="M249.26,95l-.18-.09a17.25,17.25,0,0,0,.82-5.4h.18A15.66,15.66,0,0,1,249.26,95Z" fill="#20597e"/><path d="M244.68,88.11l-.09-.19,2.38-.64.09.18Zm6.87-1.74-.09-.19,1.74-.46.09.19Zm3.48-.92v-.09h-.09l-.09-1.74H255l.09,1.83Zm-.55-12.91v-1l-9.71.36v-.18l10-.37.09,1.29Z" fill="#20597e"/><path d="M186.52,71.07a40.93,40.93,0,0,1-1.46-10.72v-.18h.18v.18a40.93,40.93,0,0,0,1.46,10.72Z" fill="#fff"/><path d="M229.11,53.12c-.64,1.1-1.28,2.38-1.92,3.66A7.82,7.82,0,0,0,229,54.13,2.93,2.93,0,0,0,229.11,53.12Z" fill="none"/><path d="M225.45,61.18A29,29,0,0,0,224,73.82a16.28,16.28,0,0,0,2.2,6.23c-.09-2.48-.18-6.42-.18-7.15A102.43,102.43,0,0,1,225.45,61.18Z" fill="none"/><path d="M229,54.13a9.37,9.37,0,0,1-1.83,2.65,30.76,30.76,0,0,0-1.74,4.4c-.09,3.75.55,10.81.55,11.72,0,.73.18,4.76.18,7.15,2.93,4.76,8.06,7.23,12.18,8.61l2.11-16.58S243,59.9,242.21,55.87c-.46-2.38-2.84-7.06-4.77-8.52A11.47,11.47,0,0,0,234.15,46a46.68,46.68,0,0,0-5,7.24A8.31,8.31,0,0,1,229,54.13Z" fill="#7e1618"/><path d="M222.33,90.3l5.22,9.25s4.58,2.94,6.51,2c1.37-.73,2.93-6.5,3.66-9.53-4.49-1.74-10.17-4.12-13.19-6.41Z" fill="#7e1618"/><path d="M227.19,46.71s.36.91.73,2c.64-1.28,1.28-2.47,1.74-3.48C228.38,45.43,227.37,45.79,227.19,46.71Z" fill="#cb9581"/><path d="M234.06,45.88a9.08,9.08,0,0,1,.64-.73l-3.3-2.93s-.64,1.28-1.65,3.11A15,15,0,0,1,234.06,45.88Z" fill="#1285a9"/><path d="M226.18,80.05a16.28,16.28,0,0,1-2.2-6.23,27.76,27.76,0,0,1,1.47-12.64,5.36,5.36,0,0,1,.27-2,10.8,10.8,0,0,1,1.47-2.38c.64-1.28,1.28-2.56,1.92-3.66a21.93,21.93,0,0,0-1.1-4.4c-2.65,5.22-6.23,12.09-7.88,15.57-2.83,5.86-.36,15.66,2.94,19.88a10.27,10.27,0,0,0,1.46,1.37l1.74-3.66A14.83,14.83,0,0,1,226.18,80.05Z" fill="#1285a9"/><path d="M244.77,90a36.76,36.76,0,0,1-6.41-1.37l-.18,1.55s-.19.73-.46,1.93c3.57,1.37,6.32,2.29,6.32,2.29Z" fill="#1285a9"/><path d="M234.06,45.88a15,15,0,0,0-4.31-.55c-.55,1-1.1,2.2-1.74,3.48a20.53,20.53,0,0,1,1.1,4.4A53.26,53.26,0,0,1,234.06,45.88Z" fill="#1285a9"/><path d="M225.63,59.16a18.25,18.25,0,0,0-.27,2,44.31,44.31,0,0,1,1.74-4.4A10.8,10.8,0,0,0,225.63,59.16Z" fill="#1285a9"/><path d="M238.36,88.66c-4.12-1.29-9.25-3.85-12.18-8.61,0,1.09.09,1.92.09,1.92l-1.74,3.66c3,2.29,8.7,4.67,13.19,6.41.27-1.1.46-1.92.46-1.92Z" fill="#7e1618"/><path d="M232.5,104.41l-.09-.18L222.15,90.3v-.09L224,86.27,235.8,98.73v.09ZM222.42,90.3,232.5,104l3.11-5.22-11.45-12Z" fill="#50575d"/><path d="M230.12,203.69l-.19-1.83h.19l.18,1.83ZM228.84,191l-1.1-10.9h.18L229,191Zm-1.56-15.48-.18-1.83h.18l.18,1.83Zm-.37-3.66-.18-1.83h.18l.19,1.83Zm-1.28-12.73-1.1-10.9h.18l1.1,10.9Zm-1.56-15.48-.18-1.83h.18l.19,1.83Zm-.36-3.67-.19-1.83h.19l.18,1.83Zm-1.19-12.73-1.1-10.89h.18l1.1,10.89Z" fill="#20597e"/><polygon points="192.93 62 223.52 77.57 212.35 80.14 193.3 70.7 192.93 62" fill="#efc4bd"/><polygon points="157.76 69.7 188.81 85.36 185.15 125.57 154.56 110.27 157.76 69.7" fill="#f7dbe0"/><polygon points="192.93 62 157.76 69.7 170.77 76.29 193.3 70.7 192.93 62" fill="#efc4bd"/><polygon points="203.83 48.08 192.93 62 223.52 77.57 233.78 65.12 203.83 48.08" fill="#f7dbe0"/><polygon points="188.81 85.36 170.59 71.62 141.92 57.61 157.76 69.7 188.81 85.36" fill="#efc4bd"/><path d="M157.4,111.64s.18,7,5.13,6.87,8.06-.27,8.06-.27Z" fill="#efc4bd"/><path d="M115.54,43.32c-1-3.48-1.92-6.87-2.93-10.35,10.62,1.92,21.16,3.75,31.69,5.59v.18C134.68,40.2,125.16,41.76,115.54,43.32Z" fill="#fdc20f"/><path d="M109.13,19.6c11.26,5.86,22.44,11.72,33.61,17.49v.09c-.64-.18-1.19-.36-1.83-.55C131.29,33.79,121.59,31,112,28.12a1.27,1.27,0,0,1-.83-.83c-.55-2.38-1.19-4.67-1.83-7A2.92,2.92,0,0,1,109.13,19.6Z" fill="#fdc20f"/><path d="M107.21,35.35l2.47-4.4a20.8,20.8,0,0,0,1-1.83.75.75,0,0,1,1.1-.46c5.67,1.74,11.44,3.48,17.12,5.13,3.48,1,7,2.11,10.44,3.12.19.09.37.09.46.27-.18,0-.37-.09-.55-.09l-26.38-4.67a1.82,1.82,0,0,0-1.37.27c-1.47,1-2.84,1.93-4.3,2.84C107.3,35.44,107.3,35.44,107.21,35.35Z" fill="#efac18"/><path d="M107.3,36.17c1.55-1,3.11-2,4.76-3.11.37,1.19.64,2.29,1,3.57l-5.68-.27A.29.29,0,0,1,107.3,36.17Z" fill="#efac18"/><polygon points="188.81 85.36 219.86 77.57 192.93 62 163.17 68.51 188.81 85.36" fill="#aa8a93"/><circle cx="223.8" cy="37.37" r="0.46" fill="#f8bfac"/><circle cx="218.03" cy="36.08" r="0.46" fill="#f8bfac"/><polygon points="192.93 62 190.28 92.87 219.77 77.67 192.93 62" fill="#a0808a"/><polygon points="185.15 125.57 221.69 117.69 223.52 77.57 188.81 85.36 185.15 125.57" fill="#ead3d8"/><path d="M224.16,93.6,220,102.21,216.29,111s2.56,5.86,5.22,5.22S231,101.29,231,101.29Z" fill="#efc4bd"/><path d="M216.29,111l-8.89,9.71a10.8,10.8,0,0,0,7.7.92c4-1.19,5.4-1.93,6.41-5.5S216.29,111,216.29,111Z" fill="#efc4bd"/><path d="M80,206.62V216a7.34,7.34,0,0,1-7.32,7.33H67.82A7.34,7.34,0,0,1,60.5,216v-9.34" fill="#e0c7bd"/><path d="M65,206.78l-.44-.14c0-.08,2.63-8.22-2.57-11.92l.27-.38C67.75,198.24,65.05,206.7,65,206.78Z" fill="#030404"/><path d="M69.15,206.66l-.45-.08c0-.12,2.13-12.79-2.16-18.41l.37-.28C71.31,193.67,69.24,206.13,69.15,206.66Z" fill="#030404"/><circle cx="65.53" cy="185.92" r="2.84" fill="#f3c47f"/><circle cx="60.5" cy="192.88" r="2.84" fill="#f3c47f"/><path d="M71.94,206.53h1.47a2,2,0,0,0,1.46-2.29c-.36-1.83-1.46-1.37-1.55-2.84s2.29-1.92,1.37-2.93-2.84-4.3-2.84-4.3v12.36Z" fill="#229d54"/><path d="M21.87,70.89v-.45c1.23,0,2.46-.08,3.65-.16l0,.46C24.34,70.82,23.11,70.87,21.87,70.89Zm-3.67,0c-1.2,0-2.44-.09-3.67-.18l0-.45c1.23.08,2.46.14,3.65.18Zm11-.47-.05-.46c1.22-.14,2.43-.33,3.61-.54l.08.45C31.65,70.07,30.43,70.25,29.2,70.4Zm-18.33,0c-1.2-.13-2.42-.29-3.64-.46l.06-.45c1.22.17,2.44.32,3.63.45Zm-7.27-1c-1.18-.21-2.4-.44-3.6-.69l.09-.45c1.2.25,2.41.48,3.59.69Zm32.84-.24-.11-.44c1.19-.3,2.37-.63,3.51-1l.14.43C38.83,68.46,37.64,68.8,36.44,69.09Zm7-2.23-.17-.43c1.13-.45,2.26-1,3.33-1.47l.2.41C45.72,65.9,44.58,66.4,43.44,66.86Zm6.61-3.23-.24-.39c1-.59,2-1.22,2.95-1.88l.12-.09.27.38-.13.08C52.06,62.4,51.06,63,50.05,63.63Zm6-4.21-.3-.35c.88-.72,1.78-1.51,2.76-2.4l.31.34C57.87,57.91,57,58.7,56.08,59.42Zm5.44-4.93-.32-.33,1.42-1.37,1.21-1.18.32.33-1.21,1.17Zm5.28-5.07-.31-.33c1-.91,1.89-1.7,2.76-2.43l.3.36C68.68,47.73,67.78,48.52,66.8,49.42Zm5.63-4.63-.26-.37c.89-.64,1.79-1.23,2.68-1.76l.41-.24.23.4-.41.24C74.2,43.58,73.31,44.16,72.43,44.79Zm6.29-3.67-.2-.41c1.09-.53,2.22-1,3.36-1.49l.17.43C80.92,40.1,79.8,40.59,78.72,41.12Zm6.76-2.72L85.34,38c1.15-.37,2.33-.72,3.53-1l.11.44C87.8,37.68,86.62,38,85.48,38.4Zm7.06-1.85-.09-.45c1.17-.24,2.38-.45,3.61-.64l.07.45C94.91,36.1,93.7,36.31,92.54,36.55Z" fill="#aa8a93"/></svg>