<svg width="500" height="501" viewBox="0 0 500 501" fill="none" xmlns="http://www.w3.org/2000/svg">
<path fill-rule="evenodd" clip-rule="evenodd" d="M250.012 199.995C270.386 199.989 288.757 212.263 296.56 231.093C304.364 249.928 300.056 271.611 285.645 286.028C271.234 300.446 249.561 304.756 230.735 296.948C211.908 289.141 199.639 270.754 199.651 250.365C199.651 237.001 204.959 224.185 214.407 214.738C223.851 205.294 236.659 199.992 250.012 199.995ZM249.998 100.1C322.658 100.1 386.301 164.97 421.364 209.453H421.31C440.201 233.406 440.223 267.19 421.364 291.168C386.219 335.678 322.631 400.548 249.998 400.548C232.737 400.371 215.662 396.969 199.651 390.517V337.558C239.224 360.482 289.256 353.935 321.605 321.6C353.955 289.266 360.543 239.217 337.666 199.605C314.788 159.994 268.156 140.71 223.999 152.601C179.843 164.492 149.187 204.589 149.276 250.338V361.816C120.315 340.284 95.9857 313.218 78.6311 291.223C59.7271 267.247 59.7271 233.429 78.6311 209.453C113.776 164.97 177.337 100.1 249.998 100.1Z" fill="#6025C0"/>
<g clip-path="url(#clip0_8_321)">
<g filter="url(#filter0_i_8_321)">
<path fill-rule="evenodd" clip-rule="evenodd" d="M250.012 199.995C270.386 199.989 288.757 212.263 296.56 231.093C304.364 249.928 300.056 271.611 285.645 286.028C271.234 300.446 249.561 304.756 230.735 296.948C211.908 289.141 199.639 270.754 199.651 250.365C199.651 237.001 204.959 224.185 214.407 214.738C223.851 205.294 236.659 199.992 250.012 199.995ZM249.998 100.1C322.658 100.1 386.301 164.97 421.364 209.453H421.31C440.201 233.406 440.223 267.19 421.364 291.168C386.219 335.678 322.631 400.548 249.998 400.548C232.737 400.371 215.662 396.969 199.651 390.517V337.558C239.224 360.482 289.256 353.935 321.605 321.6C353.955 289.266 360.543 239.217 337.666 199.605C314.788 159.994 268.156 140.71 223.999 152.601C179.843 164.492 149.187 204.589 149.276 250.338V361.816C120.315 340.284 95.9857 313.218 78.6311 291.223C59.7271 267.247 59.7271 233.429 78.6311 209.453C113.776 164.97 177.337 100.1 249.998 100.1Z" fill="url(#paint0_linear_8_321)"/>
</g>
<mask id="mask0_8_321" style="mask-type:alpha" maskUnits="userSpaceOnUse" x="64" y="100" width="372" height="301">
<path fill-rule="evenodd" clip-rule="evenodd" d="M250.012 199.995C270.386 199.989 288.757 212.263 296.56 231.093C304.364 249.928 300.056 271.611 285.645 286.028C271.234 300.446 249.561 304.756 230.735 296.948C211.908 289.141 199.639 270.754 199.651 250.365C199.651 237.001 204.959 224.185 214.407 214.738C223.851 205.294 236.659 199.992 250.012 199.995ZM249.998 100.1C322.658 100.1 386.301 164.97 421.364 209.453H421.31C440.201 233.406 440.223 267.19 421.364 291.168C386.219 335.678 322.631 400.548 249.998 400.548C232.737 400.371 215.662 396.969 199.651 390.517V337.558C239.224 360.482 289.256 353.935 321.605 321.6C353.955 289.266 360.543 239.217 337.666 199.605C314.788 159.994 268.156 140.71 223.999 152.601C179.843 164.492 149.187 204.589 149.276 250.338V361.816C120.315 340.284 95.9857 313.218 78.6311 291.223C59.7271 267.247 59.7271 233.429 78.6311 209.453C113.776 164.97 177.337 100.1 249.998 100.1Z" fill="#8F52F3"/>
</mask>
<g mask="url(#mask0_8_321)">
<path fill-rule="evenodd" clip-rule="evenodd" d="M278.675 94.373H248.265V124.783H278.675V94.373ZM247.832 93.9395V125.216H279.109V93.9395H247.832Z" fill="#6025C0" fill-opacity="0.63"/>
<path fill-rule="evenodd" clip-rule="evenodd" d="M278.675 125.649H248.265V156.059H278.675V125.649ZM247.832 125.216V156.493H279.109V125.216H247.832Z" fill="#6025C0" fill-opacity="0.63"/>
<path fill-rule="evenodd" clip-rule="evenodd" d="M278.675 156.927H248.265V187.337H278.675V156.927ZM247.832 156.494V187.771H279.109V156.494H247.832Z" fill="#6025C0" fill-opacity="0.63"/>
<path fill-rule="evenodd" clip-rule="evenodd" d="M278.675 188.204H248.265V218.613H278.675V188.204ZM247.832 187.77V219.047H279.109V187.77H247.832Z" fill="#6025C0" fill-opacity="0.63"/>
<path fill-rule="evenodd" clip-rule="evenodd" d="M278.675 219.481H248.265V249.891H278.675V219.481ZM247.832 219.047V250.324H279.109V219.047H247.832Z" fill="#6025C0" fill-opacity="0.63"/>
<path fill-rule="evenodd" clip-rule="evenodd" d="M309.952 94.373H279.542V124.783H309.952V94.373ZM279.108 93.9395V125.216H310.385V93.9395H279.108Z" fill="#6025C0" fill-opacity="0.63"/>
<path fill-rule="evenodd" clip-rule="evenodd" d="M309.952 125.649H279.542V156.059H309.952V125.649ZM279.108 125.216V156.493H310.385V125.216H279.108Z" fill="#6025C0" fill-opacity="0.63"/>
<path fill-rule="evenodd" clip-rule="evenodd" d="M309.952 156.927H279.542V187.337H309.952V156.927ZM279.108 156.494V187.771H310.385V156.494H279.108Z" fill="#6025C0" fill-opacity="0.63"/>
<path fill-rule="evenodd" clip-rule="evenodd" d="M309.952 188.204H279.542V218.613H309.952V188.204ZM279.108 187.77V219.047H310.385V187.77H279.108Z" fill="#6025C0" fill-opacity="0.63"/>
<path fill-rule="evenodd" clip-rule="evenodd" d="M309.952 219.481H279.542V249.891H309.952V219.481ZM279.108 219.047V250.324H310.385V219.047H279.108Z" fill="#6025C0" fill-opacity="0.63"/>
<path fill-rule="evenodd" clip-rule="evenodd" d="M341.229 94.373H310.819V124.783H341.229V94.373ZM310.386 93.9395V125.216H341.663V93.9395H310.386Z" fill="#6025C0" fill-opacity="0.63"/>
<path fill-rule="evenodd" clip-rule="evenodd" d="M341.229 125.649H310.819V156.059H341.229V125.649ZM310.386 125.216V156.493H341.663V125.216H310.386Z" fill="#6025C0" fill-opacity="0.63"/>
<path fill-rule="evenodd" clip-rule="evenodd" d="M341.229 156.927H310.819V187.337H341.229V156.927ZM310.386 156.494V187.771H341.663V156.494H310.386Z" fill="#6025C0" fill-opacity="0.63"/>
<path fill-rule="evenodd" clip-rule="evenodd" d="M341.229 188.204H310.819V218.613H341.229V188.204ZM310.386 187.77V219.047H341.663V187.77H310.386Z" fill="#6025C0" fill-opacity="0.63"/>
<path fill-rule="evenodd" clip-rule="evenodd" d="M341.229 219.481H310.819V249.891H341.229V219.481ZM310.386 219.047V250.324H341.663V219.047H310.386Z" fill="#6025C0" fill-opacity="0.63"/>
<path fill-rule="evenodd" clip-rule="evenodd" d="M372.506 94.373H342.096V124.783H372.506V94.373ZM341.663 93.9395V125.216H372.94V93.9395H341.663Z" fill="#6025C0" fill-opacity="0.63"/>
<path fill-rule="evenodd" clip-rule="evenodd" d="M372.506 125.649H342.096V156.059H372.506V125.649ZM341.663 125.216V156.493H372.94V125.216H341.663Z" fill="#6025C0" fill-opacity="0.63"/>
<path fill-rule="evenodd" clip-rule="evenodd" d="M372.506 156.927H342.096V187.337H372.506V156.927ZM341.663 156.494V187.771H372.94V156.494H341.663Z" fill="#6025C0" fill-opacity="0.63"/>
<path fill-rule="evenodd" clip-rule="evenodd" d="M372.506 188.204H342.096V218.613H372.506V188.204ZM341.663 187.77V219.047H372.94V187.77H341.663Z" fill="#6025C0" fill-opacity="0.63"/>
<path fill-rule="evenodd" clip-rule="evenodd" d="M372.506 219.481H342.096V249.891H372.506V219.481ZM341.663 219.047V250.324H372.94V219.047H341.663Z" fill="#6025C0" fill-opacity="0.63"/>
<path fill-rule="evenodd" clip-rule="evenodd" d="M403.783 94.373H373.373V124.783H403.783V94.373ZM372.939 93.9395V125.216H404.216V93.9395H372.939Z" fill="#6025C0" fill-opacity="0.63"/>
<path fill-rule="evenodd" clip-rule="evenodd" d="M403.783 125.649H373.373V156.059H403.783V125.649ZM372.939 125.216V156.493H404.216V125.216H372.939Z" fill="#6025C0" fill-opacity="0.63"/>
<path fill-rule="evenodd" clip-rule="evenodd" d="M403.783 156.927H373.373V187.337H403.783V156.927ZM372.939 156.494V187.771H404.216V156.494H372.939Z" fill="#6025C0" fill-opacity="0.63"/>
<path fill-rule="evenodd" clip-rule="evenodd" d="M403.783 188.204H373.373V218.613H403.783V188.204ZM372.939 187.77V219.047H404.216V187.77H372.939Z" fill="#6025C0" fill-opacity="0.63"/>
<path fill-rule="evenodd" clip-rule="evenodd" d="M403.783 219.481H373.373V249.891H403.783V219.481ZM372.939 219.047V250.324H404.216V219.047H372.939Z" fill="#6025C0" fill-opacity="0.63"/>
<path fill-rule="evenodd" clip-rule="evenodd" d="M435.06 94.373H404.65V124.783H435.06V94.373ZM404.217 93.9395V125.216H435.494V93.9395H404.217Z" fill="#6025C0" fill-opacity="0.63"/>
<path fill-rule="evenodd" clip-rule="evenodd" d="M435.06 125.649H404.65V156.059H435.06V125.649ZM404.217 125.216V156.493H435.494V125.216H404.217Z" fill="#6025C0" fill-opacity="0.63"/>
<path fill-rule="evenodd" clip-rule="evenodd" d="M435.06 156.927H404.65V187.337H435.06V156.927ZM404.217 156.494V187.771H435.494V156.494H404.217Z" fill="#6025C0" fill-opacity="0.63"/>
<path fill-rule="evenodd" clip-rule="evenodd" d="M435.06 188.204H404.65V218.613H435.06V188.204ZM404.217 187.77V219.047H435.494V187.77H404.217Z" fill="#6025C0" fill-opacity="0.63"/>
<path fill-rule="evenodd" clip-rule="evenodd" d="M435.06 219.481H404.65V249.891H435.06V219.481ZM404.217 219.047V250.324H435.494V219.047H404.217Z" fill="#6025C0" fill-opacity="0.63"/>
<path fill-rule="evenodd" clip-rule="evenodd" d="M278.675 250.758H248.265V281.168H278.675V250.758ZM247.832 250.324V281.601H279.109V250.324H247.832Z" fill="#6025C0" fill-opacity="0.63"/>
<path fill-rule="evenodd" clip-rule="evenodd" d="M278.675 282.035H248.265V312.444H278.675V282.035ZM247.832 281.601V312.878H279.109V281.601H247.832Z" fill="#6025C0" fill-opacity="0.63"/>
<path fill-rule="evenodd" clip-rule="evenodd" d="M278.675 313.312H248.265V343.722H278.675V313.312ZM247.832 312.878V344.155H279.109V312.878H247.832Z" fill="#6025C0" fill-opacity="0.63"/>
<path fill-rule="evenodd" clip-rule="evenodd" d="M278.675 344.589H248.265V374.999H278.675V344.589ZM247.832 344.155V375.432H279.109V344.155H247.832Z" fill="#6025C0" fill-opacity="0.63"/>
<path fill-rule="evenodd" clip-rule="evenodd" d="M278.675 375.866H248.265V406.276H278.675V375.866ZM247.832 375.432V406.709H279.109V375.432H247.832Z" fill="#6025C0" fill-opacity="0.63"/>
<path fill-rule="evenodd" clip-rule="evenodd" d="M309.952 250.758H279.542V281.168H309.952V250.758ZM279.108 250.324V281.601H310.385V250.324H279.108Z" fill="#6025C0" fill-opacity="0.63"/>
<path fill-rule="evenodd" clip-rule="evenodd" d="M309.952 282.035H279.542V312.444H309.952V282.035ZM279.108 281.601V312.878H310.385V281.601H279.108Z" fill="#6025C0" fill-opacity="0.63"/>
<path fill-rule="evenodd" clip-rule="evenodd" d="M309.952 313.312H279.542V343.722H309.952V313.312ZM279.108 312.878V344.155H310.385V312.878H279.108Z" fill="#6025C0" fill-opacity="0.63"/>
<path fill-rule="evenodd" clip-rule="evenodd" d="M309.952 344.589H279.542V374.999H309.952V344.589ZM279.108 344.155V375.432H310.385V344.155H279.108Z" fill="#6025C0" fill-opacity="0.63"/>
<path fill-rule="evenodd" clip-rule="evenodd" d="M309.952 375.866H279.542V406.276H309.952V375.866ZM279.108 375.432V406.709H310.385V375.432H279.108Z" fill="#6025C0" fill-opacity="0.63"/>
<path fill-rule="evenodd" clip-rule="evenodd" d="M341.229 250.758H310.819V281.168H341.229V250.758ZM310.386 250.324V281.601H341.663V250.324H310.386Z" fill="#6025C0" fill-opacity="0.63"/>
<path fill-rule="evenodd" clip-rule="evenodd" d="M341.229 282.035H310.819V312.444H341.229V282.035ZM310.386 281.601V312.878H341.663V281.601H310.386Z" fill="#6025C0" fill-opacity="0.63"/>
<path fill-rule="evenodd" clip-rule="evenodd" d="M341.229 313.312H310.819V343.722H341.229V313.312ZM310.386 312.878V344.155H341.663V312.878H310.386Z" fill="#6025C0" fill-opacity="0.63"/>
<path fill-rule="evenodd" clip-rule="evenodd" d="M341.229 344.589H310.819V374.999H341.229V344.589ZM310.386 344.155V375.432H341.663V344.155H310.386Z" fill="#6025C0" fill-opacity="0.63"/>
<path fill-rule="evenodd" clip-rule="evenodd" d="M341.229 375.866H310.819V406.276H341.229V375.866ZM310.386 375.432V406.709H341.663V375.432H310.386Z" fill="#6025C0" fill-opacity="0.63"/>
<path fill-rule="evenodd" clip-rule="evenodd" d="M372.506 250.758H342.096V281.168H372.506V250.758ZM341.663 250.324V281.601H372.94V250.324H341.663Z" fill="#6025C0" fill-opacity="0.63"/>
<path fill-rule="evenodd" clip-rule="evenodd" d="M372.506 282.035H342.096V312.444H372.506V282.035ZM341.663 281.601V312.878H372.94V281.601H341.663Z" fill="#6025C0" fill-opacity="0.63"/>
<path fill-rule="evenodd" clip-rule="evenodd" d="M372.506 313.312H342.096V343.722H372.506V313.312ZM341.663 312.878V344.155H372.94V312.878H341.663Z" fill="#6025C0" fill-opacity="0.63"/>
<path fill-rule="evenodd" clip-rule="evenodd" d="M372.506 344.589H342.096V374.999H372.506V344.589ZM341.663 344.155V375.432H372.94V344.155H341.663Z" fill="#6025C0" fill-opacity="0.63"/>
<path fill-rule="evenodd" clip-rule="evenodd" d="M372.506 375.866H342.096V406.276H372.506V375.866ZM341.663 375.432V406.709H372.94V375.432H341.663Z" fill="#6025C0" fill-opacity="0.63"/>
<path fill-rule="evenodd" clip-rule="evenodd" d="M403.783 250.758H373.373V281.168H403.783V250.758ZM372.939 250.324V281.601H404.216V250.324H372.939Z" fill="#6025C0" fill-opacity="0.63"/>
<path fill-rule="evenodd" clip-rule="evenodd" d="M403.783 282.035H373.373V312.444H403.783V282.035ZM372.939 281.601V312.878H404.216V281.601H372.939Z" fill="#6025C0" fill-opacity="0.63"/>
<path fill-rule="evenodd" clip-rule="evenodd" d="M403.783 313.312H373.373V343.722H403.783V313.312ZM372.939 312.878V344.155H404.216V312.878H372.939Z" fill="#6025C0" fill-opacity="0.63"/>
<path fill-rule="evenodd" clip-rule="evenodd" d="M403.783 344.589H373.373V374.999H403.783V344.589ZM372.939 344.155V375.432H404.216V344.155H372.939Z" fill="#6025C0" fill-opacity="0.63"/>
<path fill-rule="evenodd" clip-rule="evenodd" d="M403.783 375.866H373.373V406.276H403.783V375.866ZM372.939 375.432V406.709H404.216V375.432H372.939Z" fill="#6025C0" fill-opacity="0.63"/>
<path fill-rule="evenodd" clip-rule="evenodd" d="M435.06 250.758H404.65V281.168H435.06V250.758ZM404.217 250.324V281.601H435.494V250.324H404.217Z" fill="#6025C0" fill-opacity="0.63"/>
<path fill-rule="evenodd" clip-rule="evenodd" d="M435.06 282.035H404.65V312.444H435.06V282.035ZM404.217 281.601V312.878H435.494V281.601H404.217Z" fill="#6025C0" fill-opacity="0.63"/>
<path fill-rule="evenodd" clip-rule="evenodd" d="M435.06 313.312H404.65V343.722H435.06V313.312ZM404.217 312.878V344.155H435.494V312.878H404.217Z" fill="#6025C0" fill-opacity="0.63"/>
<path fill-rule="evenodd" clip-rule="evenodd" d="M435.06 344.589H404.65V374.999H435.06V344.589ZM404.217 344.155V375.432H435.494V344.155H404.217Z" fill="#6025C0" fill-opacity="0.63"/>
<path fill-rule="evenodd" clip-rule="evenodd" d="M435.06 375.866H404.65V406.276H435.06V375.866ZM404.217 375.432V406.709H435.494V375.432H404.217Z" fill="#6025C0" fill-opacity="0.63"/>
<path fill-rule="evenodd" clip-rule="evenodd" d="M308.79 150.1V109.155H312.258V150.1C312.258 152.494 314.199 154.435 316.594 154.435H335.45C339.761 154.435 343.255 157.93 343.255 162.24V186.595H339.786V162.24C339.786 159.845 337.845 157.904 335.45 157.904H316.594C312.284 157.904 308.79 154.41 308.79 150.1Z" fill="url(#paint1_linear_8_321)"/>
<path fill-rule="evenodd" clip-rule="evenodd" d="M373.025 248.502H398.153C402.464 248.502 405.958 251.996 405.958 256.306V275.025C405.958 277.42 407.899 279.361 410.294 279.361H433.06V282.83H410.294C405.983 282.83 402.489 279.336 402.489 275.025V256.306C402.489 253.912 400.548 251.971 398.153 251.971H373.025V248.502Z" fill="url(#paint2_linear_8_321)"/>
<path fill-rule="evenodd" clip-rule="evenodd" d="M343.469 344.02V375.675H340V344.02H343.469Z" fill="url(#paint3_linear_8_321)"/>
<path d="M231.953 99.1685H268.519V446.54H231.953V99.1685Z" fill="url(#paint4_linear_8_321)"/>
</g>
<path d="M346.765 187.921C346.765 190.742 344.478 193.03 341.656 193.03C338.835 193.03 336.548 190.742 336.548 187.921C336.548 185.1 338.835 182.812 341.656 182.812C344.478 182.812 346.765 185.1 346.765 187.921Z" fill="#BA99EF"/>
<path d="M377.936 250.324C377.936 253.146 375.649 255.433 372.827 255.433C370.006 255.433 367.719 253.146 367.719 250.324C367.719 247.503 370.006 245.216 372.827 245.216C375.649 245.216 377.936 247.503 377.936 250.324Z" fill="#CBACFF"/>
<path d="M346.83 343.75C346.83 346.571 344.543 348.858 341.722 348.858C338.9 348.858 336.613 346.571 336.613 343.75C336.613 340.928 338.9 338.641 341.722 338.641C344.543 338.641 346.83 340.928 346.83 343.75Z" fill="#C5A6F9"/>
</g>
<path fill-rule="evenodd" clip-rule="evenodd" d="M1.30208 100.1H0V99.2329H1.30208V100.1ZM6.51042 100.1H3.90625V99.2329H6.51042V100.1ZM11.7187 100.1H9.11458V99.2329H11.7187V100.1ZM16.9271 100.1H14.3229V99.2329H16.9271V100.1ZM22.1354 100.1H19.5312V99.2329H22.1354V100.1ZM27.3438 100.1H24.7396V99.2329H27.3438V100.1ZM32.5521 100.1H29.9479V99.2329H32.5521V100.1ZM37.7604 100.1H35.1562V99.2329H37.7604V100.1ZM42.9687 100.1H40.3646V99.2329H42.9687V100.1ZM48.1771 100.1H45.5729V99.2329H48.1771V100.1ZM53.3854 100.1H50.7812V99.2329H53.3854V100.1ZM58.5937 100.1H55.9896V99.2329H58.5937V100.1ZM63.8021 100.1H61.1979V99.2329H63.8021V100.1ZM69.0104 100.1H66.4062V99.2329H69.0104V100.1ZM74.2188 100.1H71.6146V99.2329H74.2188V100.1ZM79.4271 100.1H76.8229V99.2329H79.4271V100.1ZM84.6354 100.1H82.0313V99.2329H84.6354V100.1ZM89.8438 100.1H87.2396V99.2329H89.8438V100.1ZM95.0521 100.1H92.4479V99.2329H95.0521V100.1ZM100.26 100.1H97.6563V99.2329H100.26V100.1ZM105.469 100.1H102.865V99.2329H105.469V100.1ZM110.677 100.1H108.073V99.2329H110.677V100.1ZM115.885 100.1H113.281V99.2329H115.885V100.1ZM121.094 100.1H118.49V99.2329H121.094V100.1ZM126.302 100.1H123.698V99.2329H126.302V100.1ZM131.51 100.1H128.906V99.2329H131.51V100.1ZM136.719 100.1H134.115V99.2329H136.719V100.1ZM141.927 100.1H139.323V99.2329H141.927V100.1ZM147.135 100.1H144.531V99.2329H147.135V100.1ZM152.344 100.1H149.74V99.2329H152.344V100.1ZM157.552 100.1H154.948V99.2329H157.552V100.1ZM162.76 100.1H160.156V99.2329H162.76V100.1ZM167.969 100.1H165.365V99.2329H167.969V100.1ZM173.177 100.1H170.573V99.2329H173.177V100.1ZM178.385 100.1H175.781V99.2329H178.385V100.1ZM183.594 100.1H180.99V99.2329H183.594V100.1ZM188.802 100.1H186.198V99.2329H188.802V100.1ZM194.01 100.1H191.406V99.2329H194.01V100.1ZM199.219 100.1H196.614V99.2329H199.219V100.1ZM204.427 100.1H201.823V99.2329H204.427V100.1ZM209.635 100.1H207.031V99.2329H209.635V100.1ZM214.844 100.1H212.239V99.2329H214.844V100.1ZM220.052 100.1H217.448V99.2329H220.052V100.1ZM225.26 100.1H222.656V99.2329H225.26V100.1ZM230.469 100.1H227.864V99.2329H230.469V100.1ZM235.677 100.1H233.073V99.2329H235.677V100.1ZM240.885 100.1H238.281V99.2329H240.885V100.1ZM246.094 100.1H243.49V99.2329H246.094V100.1ZM251.302 100.1H248.698V99.2329H251.302V100.1ZM256.51 100.1H253.906V99.2329H256.51V100.1ZM261.719 100.1H259.115V99.2329H261.719V100.1ZM266.927 100.1H264.323V99.2329H266.927V100.1ZM272.135 100.1H269.531V99.2329H272.135V100.1ZM277.344 100.1H274.74V99.2329H277.344V100.1ZM282.552 100.1H279.948V99.2329H282.552V100.1ZM287.761 100.1H285.156V99.2329H287.761V100.1ZM292.969 100.1H290.365V99.2329H292.969V100.1ZM298.177 100.1H295.573V99.2329H298.177V100.1ZM303.386 100.1H300.781V99.2329H303.386V100.1ZM308.594 100.1H305.99V99.2329H308.594V100.1ZM313.802 100.1H311.198V99.2329H313.802V100.1ZM319.011 100.1H316.406V99.2329H319.011V100.1ZM324.219 100.1H321.615V99.2329H324.219V100.1ZM329.427 100.1H326.823V99.2329H329.427V100.1ZM334.636 100.1H332.031V99.2329H334.636V100.1ZM339.844 100.1H337.24V99.2329H339.844V100.1ZM345.052 100.1H342.448V99.2329H345.052V100.1ZM350.261 100.1H347.657V99.2329H350.261V100.1ZM355.469 100.1H352.865V99.2329H355.469V100.1ZM360.677 100.1H358.073V99.2329H360.677V100.1ZM365.886 100.1H363.282V99.2329H365.886V100.1ZM371.094 100.1H368.49V99.2329H371.094V100.1ZM376.302 100.1H373.698V99.2329H376.302V100.1ZM381.511 100.1H378.907V99.2329H381.511V100.1ZM386.719 100.1H384.115V99.2329H386.719V100.1ZM391.927 100.1H389.323V99.2329H391.927V100.1ZM397.136 100.1H394.532V99.2329H397.136V100.1ZM402.344 100.1H399.74V99.2329H402.344V100.1ZM407.553 100.1H404.948V99.2329H407.553V100.1ZM412.761 100.1H410.157V99.2329H412.761V100.1ZM417.969 100.1H415.365V99.2329H417.969V100.1ZM423.178 100.1H420.573V99.2329H423.178V100.1ZM428.386 100.1H425.782V99.2329H428.386V100.1ZM433.594 100.1H430.99V99.2329H433.594V100.1ZM438.803 100.1H436.199V99.2329H438.803V100.1ZM444.011 100.1H441.407V99.2329H444.011V100.1ZM449.219 100.1H446.615V99.2329H449.219V100.1ZM454.428 100.1H451.823V99.2329H454.428V100.1ZM459.636 100.1H457.032V99.2329H459.636V100.1ZM464.844 100.1H462.24V99.2329H464.844V100.1ZM470.052 100.1H467.448V99.2329H470.052V100.1ZM475.261 100.1H472.657V99.2329H475.261V100.1ZM480.469 100.1H477.865V99.2329H480.469V100.1ZM485.677 100.1H483.073V99.2329H485.677V100.1ZM490.886 100.1H488.282V99.2329H490.886V100.1ZM496.094 100.1H493.49V99.2329H496.094V100.1ZM500 100.1H498.698V99.2329H500V100.1Z" fill="url(#paint5_linear_8_321)"/>
<path fill-rule="evenodd" clip-rule="evenodd" d="M1.30208 400.344H0V399.477H1.30208V400.344ZM6.51042 400.344H3.90625V399.477H6.51042V400.344ZM11.7187 400.344H9.11458V399.477H11.7187V400.344ZM16.9271 400.344H14.3229V399.477H16.9271V400.344ZM22.1354 400.344H19.5312V399.477H22.1354V400.344ZM27.3438 400.344H24.7396V399.477H27.3438V400.344ZM32.5521 400.344H29.9479V399.477H32.5521V400.344ZM37.7604 400.344H35.1562V399.477H37.7604V400.344ZM42.9687 400.344H40.3646V399.477H42.9687V400.344ZM48.1771 400.344H45.5729V399.477H48.1771V400.344ZM53.3854 400.344H50.7812V399.477H53.3854V400.344ZM58.5937 400.344H55.9896V399.477H58.5937V400.344ZM63.8021 400.344H61.1979V399.477H63.8021V400.344ZM69.0104 400.344H66.4062V399.477H69.0104V400.344ZM74.2188 400.344H71.6146V399.477H74.2188V400.344ZM79.4271 400.344H76.8229V399.477H79.4271V400.344ZM84.6354 400.344H82.0313V399.477H84.6354V400.344ZM89.8438 400.344H87.2396V399.477H89.8438V400.344ZM95.0521 400.344H92.4479V399.477H95.0521V400.344ZM100.26 400.344H97.6563V399.477H100.26V400.344ZM105.469 400.344H102.865V399.477H105.469V400.344ZM110.677 400.344H108.073V399.477H110.677V400.344ZM115.885 400.344H113.281V399.477H115.885V400.344ZM121.094 400.344H118.49V399.477H121.094V400.344ZM126.302 400.344H123.698V399.477H126.302V400.344ZM131.51 400.344H128.906V399.477H131.51V400.344ZM136.719 400.344H134.115V399.477H136.719V400.344ZM141.927 400.344H139.323V399.477H141.927V400.344ZM147.135 400.344H144.531V399.477H147.135V400.344ZM152.344 400.344H149.74V399.477H152.344V400.344ZM157.552 400.344H154.948V399.477H157.552V400.344ZM162.76 400.344H160.156V399.477H162.76V400.344ZM167.969 400.344H165.365V399.477H167.969V400.344ZM173.177 400.344H170.573V399.477H173.177V400.344ZM178.385 400.344H175.781V399.477H178.385V400.344ZM183.594 400.344H180.99V399.477H183.594V400.344ZM188.802 400.344H186.198V399.477H188.802V400.344ZM194.01 400.344H191.406V399.477H194.01V400.344ZM199.219 400.344H196.614V399.477H199.219V400.344ZM204.427 400.344H201.823V399.477H204.427V400.344ZM209.635 400.344H207.031V399.477H209.635V400.344ZM214.844 400.344H212.239V399.477H214.844V400.344ZM220.052 400.344H217.448V399.477H220.052V400.344ZM225.26 400.344H222.656V399.477H225.26V400.344ZM230.469 400.344H227.864V399.477H230.469V400.344ZM235.677 400.344H233.073V399.477H235.677V400.344ZM240.885 400.344H238.281V399.477H240.885V400.344ZM246.094 400.344H243.49V399.477H246.094V400.344ZM251.302 400.344H248.698V399.477H251.302V400.344ZM256.51 400.344H253.906V399.477H256.51V400.344ZM261.719 400.344H259.115V399.477H261.719V400.344ZM266.927 400.344H264.323V399.477H266.927V400.344ZM272.135 400.344H269.531V399.477H272.135V400.344ZM277.344 400.344H274.74V399.477H277.344V400.344ZM282.552 400.344H279.948V399.477H282.552V400.344ZM287.761 400.344H285.156V399.477H287.761V400.344ZM292.969 400.344H290.365V399.477H292.969V400.344ZM298.177 400.344H295.573V399.477H298.177V400.344ZM303.386 400.344H300.781V399.477H303.386V400.344ZM308.594 400.344H305.99V399.477H308.594V400.344ZM313.802 400.344H311.198V399.477H313.802V400.344ZM319.011 400.344H316.406V399.477H319.011V400.344ZM324.219 400.344H321.615V399.477H324.219V400.344ZM329.427 400.344H326.823V399.477H329.427V400.344ZM334.636 400.344H332.031V399.477H334.636V400.344ZM339.844 400.344H337.24V399.477H339.844V400.344ZM345.052 400.344H342.448V399.477H345.052V400.344ZM350.261 400.344H347.657V399.477H350.261V400.344ZM355.469 400.344H352.865V399.477H355.469V400.344ZM360.677 400.344H358.073V399.477H360.677V400.344ZM365.886 400.344H363.282V399.477H365.886V400.344ZM371.094 400.344H368.49V399.477H371.094V400.344ZM376.302 400.344H373.698V399.477H376.302V400.344ZM381.511 400.344H378.907V399.477H381.511V400.344ZM386.719 400.344H384.115V399.477H386.719V400.344ZM391.927 400.344H389.323V399.477H391.927V400.344ZM397.136 400.344H394.532V399.477H397.136V400.344ZM402.344 400.344H399.74V399.477H402.344V400.344ZM407.553 400.344H404.948V399.477H407.553V400.344ZM412.761 400.344H410.157V399.477H412.761V400.344ZM417.969 400.344H415.365V399.477H417.969V400.344ZM423.178 400.344H420.573V399.477H423.178V400.344ZM428.386 400.344H425.782V399.477H428.386V400.344ZM433.594 400.344H430.99V399.477H433.594V400.344ZM438.803 400.344H436.199V399.477H438.803V400.344ZM444.011 400.344H441.407V399.477H444.011V400.344ZM449.219 400.344H446.615V399.477H449.219V400.344ZM454.428 400.344H451.823V399.477H454.428V400.344ZM459.636 400.344H457.032V399.477H459.636V400.344ZM464.844 400.344H462.24V399.477H464.844V400.344ZM470.052 400.344H467.448V399.477H470.052V400.344ZM475.261 400.344H472.657V399.477H475.261V400.344ZM480.469 400.344H477.865V399.477H480.469V400.344ZM485.677 400.344H483.073V399.477H485.677V400.344ZM490.886 400.344H488.282V399.477H490.886V400.344ZM496.094 400.344H493.49V399.477H496.094V400.344ZM500 400.344H498.698V399.477H500V400.344Z" fill="url(#paint6_linear_8_321)"/>
<path fill-rule="evenodd" clip-rule="evenodd" d="M435.513 1.52425L435.513 0.222168L436.38 0.222168L436.38 1.52425L435.513 1.52425ZM435.513 6.73258L435.513 4.12842L436.38 4.12842L436.38 6.73258L435.513 6.73258ZM435.513 11.9409L435.513 9.33675L436.38 9.33675L436.38 11.9409L435.513 11.9409ZM435.513 17.1493L435.513 14.5451L436.38 14.5451L436.38 17.1493L435.513 17.1493ZM435.513 22.3576L435.513 19.7534L436.38 19.7534L436.38 22.3576L435.513 22.3576ZM435.513 27.5659L435.513 24.9618L436.38 24.9618L436.38 27.5659L435.513 27.5659ZM435.513 32.7743L435.513 30.1701L436.38 30.1701L436.38 32.7743L435.513 32.7743ZM435.513 37.9826L435.513 35.3784L436.38 35.3784L436.38 37.9826L435.513 37.9826ZM435.513 43.1909L435.513 40.5867L436.38 40.5867L436.38 43.1909L435.513 43.1909ZM435.513 48.3992L435.513 45.7951L436.38 45.7951L436.38 48.3992L435.513 48.3992ZM435.513 53.6076L435.513 51.0034L436.38 51.0034L436.38 53.6076L435.513 53.6076ZM435.513 58.8159L435.513 56.2117L436.38 56.2117L436.38 58.8159L435.513 58.8159ZM435.513 64.0242L435.513 61.4201L436.38 61.4201L436.38 64.0242L435.513 64.0242ZM435.513 69.2326L435.513 66.6284L436.38 66.6284L436.38 69.2326L435.513 69.2326ZM435.513 74.4409L435.513 71.8368L436.38 71.8368L436.38 74.4409L435.513 74.4409ZM435.513 79.6493L435.513 77.0451L436.38 77.0451L436.38 79.6493L435.513 79.6493ZM435.513 84.8576L435.513 82.2534L436.38 82.2534L436.38 84.8576L435.513 84.8576ZM435.513 90.0659L435.513 87.4618L436.38 87.4618L436.38 90.0659L435.513 90.0659ZM435.513 95.2743L435.513 92.6701L436.38 92.6701L436.38 95.2743L435.513 95.2743ZM435.513 100.483L435.513 97.8784L436.38 97.8784L436.38 100.483L435.513 100.483ZM435.513 105.691L435.513 103.087L436.38 103.087L436.38 105.691L435.513 105.691ZM435.513 110.899L435.513 108.295L436.38 108.295L436.38 110.899L435.513 110.899ZM435.513 116.108L435.513 113.503L436.38 113.503L436.38 116.108L435.513 116.108ZM435.513 121.316L435.513 118.712L436.38 118.712L436.38 121.316L435.513 121.316ZM435.513 126.524L435.513 123.92L436.38 123.92L436.38 126.524L435.513 126.524ZM435.513 131.733L435.513 129.128L436.38 129.128L436.38 131.733L435.513 131.733ZM435.513 136.941L435.513 134.337L436.38 134.337L436.38 136.941L435.513 136.941ZM435.513 142.149L435.513 139.545L436.38 139.545L436.38 142.149L435.513 142.149ZM435.513 147.358L435.513 144.753L436.38 144.753L436.38 147.358L435.513 147.358ZM435.513 152.566L435.513 149.962L436.38 149.962L436.38 152.566L435.513 152.566ZM435.513 157.774L435.513 155.17L436.38 155.17L436.38 157.774L435.513 157.774ZM435.513 162.983L435.513 160.378L436.38 160.378L436.38 162.983L435.513 162.983ZM435.513 168.191L435.513 165.587L436.38 165.587L436.38 168.191L435.513 168.191ZM435.513 173.399L435.513 170.795L436.38 170.795L436.38 173.399L435.513 173.399ZM435.513 178.608L435.513 176.003L436.38 176.003L436.38 178.608L435.513 178.608ZM435.513 183.816L435.513 181.212L436.38 181.212L436.38 183.816L435.513 183.816ZM435.513 189.024L435.513 186.42L436.38 186.42L436.38 189.024L435.513 189.024ZM435.513 194.232L435.513 191.628L436.38 191.628L436.38 194.232L435.513 194.232ZM435.513 199.441L435.513 196.837L436.38 196.837L436.38 199.441L435.513 199.441ZM435.513 204.649L435.513 202.045L436.38 202.045L436.38 204.649L435.513 204.649ZM435.513 209.857L435.513 207.253L436.38 207.253L436.38 209.857L435.513 209.857ZM435.513 215.066L435.513 212.462L436.38 212.462L436.38 215.066L435.513 215.066ZM435.513 220.274L435.513 217.67L436.38 217.67L436.38 220.274L435.513 220.274ZM435.513 225.482L435.513 222.878L436.38 222.878L436.38 225.482L435.513 225.482ZM435.513 230.691L435.513 228.087L436.38 228.087L436.38 230.691L435.513 230.691ZM435.513 235.899L435.513 233.295L436.38 233.295L436.38 235.899L435.513 235.899ZM435.513 241.108L435.513 238.503L436.38 238.503L436.38 241.108L435.513 241.108ZM435.513 246.316L435.513 243.712L436.38 243.712L436.38 246.316L435.513 246.316ZM435.513 251.524L435.513 248.92L436.38 248.92L436.38 251.524L435.513 251.524ZM435.513 256.733L435.513 254.128L436.38 254.128L436.38 256.733L435.513 256.733ZM435.513 261.941L435.513 259.337L436.38 259.337L436.38 261.941L435.513 261.941ZM435.513 267.149L435.513 264.545L436.38 264.545L436.38 267.149L435.513 267.149ZM435.513 272.358L435.513 269.753L436.38 269.753L436.38 272.358L435.513 272.358ZM435.513 277.566L435.513 274.962L436.38 274.962L436.38 277.566L435.513 277.566ZM435.513 282.774L435.513 280.17L436.38 280.17L436.38 282.774L435.513 282.774ZM435.513 287.983L435.513 285.378L436.38 285.378L436.38 287.983L435.513 287.983ZM435.513 293.191L435.513 290.587L436.38 290.587L436.38 293.191L435.513 293.191ZM435.513 298.399L435.513 295.795L436.38 295.795L436.38 298.399L435.513 298.399ZM435.513 303.608L435.513 301.004L436.38 301.004L436.38 303.608L435.513 303.608ZM435.513 308.816L435.513 306.212L436.38 306.212L436.38 308.816L435.513 308.816ZM435.513 314.024L435.513 311.42L436.38 311.42L436.38 314.024L435.513 314.024ZM435.513 319.233L435.513 316.629L436.38 316.629L436.38 319.233L435.513 319.233ZM435.513 324.441L435.513 321.837L436.38 321.837L436.38 324.441L435.513 324.441ZM435.513 329.649L435.513 327.045L436.38 327.045L436.38 329.649L435.513 329.649ZM435.513 334.858L435.513 332.254L436.38 332.254L436.38 334.858L435.513 334.858ZM435.513 340.066L435.513 337.462L436.38 337.462L436.38 340.066L435.513 340.066ZM435.513 345.275L435.513 342.67L436.38 342.67L436.38 345.275L435.513 345.275ZM435.513 350.483L435.513 347.879L436.38 347.879L436.38 350.483L435.513 350.483ZM435.513 355.691L435.513 353.087L436.38 353.087L436.38 355.691L435.513 355.691ZM435.513 360.9L435.513 358.295L436.38 358.295L436.38 360.9L435.513 360.9ZM435.513 366.108L435.513 363.504L436.38 363.504L436.38 366.108L435.513 366.108ZM435.513 371.316L435.513 368.712L436.38 368.712L436.38 371.316L435.513 371.316ZM435.513 376.525L435.513 373.92L436.38 373.92L436.38 376.525L435.513 376.525ZM435.513 381.733L435.513 379.129L436.38 379.129L436.38 381.733L435.513 381.733ZM435.513 386.941L435.513 384.337L436.38 384.337L436.38 386.941L435.513 386.941ZM435.513 392.15L435.513 389.546L436.38 389.546L436.38 392.15L435.513 392.15ZM435.513 397.358L435.513 394.754L436.38 394.754L436.38 397.358L435.513 397.358ZM435.513 402.566L435.513 399.962L436.38 399.962L436.38 402.566L435.513 402.566ZM435.513 407.775L435.513 405.171L436.38 405.171L436.38 407.775L435.513 407.775ZM435.513 412.983L435.513 410.379L436.38 410.379L436.38 412.983L435.513 412.983ZM435.513 418.191L435.513 415.587L436.38 415.587L436.38 418.191L435.513 418.191ZM435.513 423.4L435.513 420.796L436.38 420.796L436.38 423.4L435.513 423.4ZM435.513 428.608L435.513 426.004L436.38 426.004L436.38 428.608L435.513 428.608ZM435.513 433.817L435.513 431.212L436.38 431.212L436.38 433.817L435.513 433.817ZM435.513 439.025L435.513 436.421L436.38 436.421L436.38 439.025L435.513 439.025ZM435.513 444.233L435.513 441.629L436.38 441.629L436.38 444.233L435.513 444.233ZM435.513 449.441L435.513 446.837L436.38 446.837L436.38 449.441L435.513 449.441ZM435.513 454.65L435.513 452.046L436.38 452.046L436.38 454.65L435.513 454.65ZM435.513 459.858L435.513 457.254L436.38 457.254L436.38 459.858L435.513 459.858ZM435.513 465.066L435.513 462.462L436.38 462.462L436.38 465.066L435.513 465.066ZM435.513 470.275L435.513 467.671L436.38 467.671L436.38 470.275L435.513 470.275ZM435.513 475.483L435.513 472.879L436.38 472.879L436.38 475.483L435.513 475.483ZM435.513 480.691L435.513 478.087L436.38 478.087L436.38 480.691L435.513 480.691ZM435.513 485.9L435.513 483.295L436.38 483.295L436.38 485.9L435.513 485.9ZM435.513 491.108L435.513 488.504L436.38 488.504L436.38 491.108L435.513 491.108ZM435.513 496.316L435.513 493.712L436.38 493.712L436.38 496.316L435.513 496.316ZM435.513 500.222L435.513 498.92L436.38 498.92L436.38 500.222L435.513 500.222Z" fill="url(#paint7_linear_8_321)"/>
<path fill-rule="evenodd" clip-rule="evenodd" d="M64.4531 1.52425L64.4531 0.222168L65.3203 0.222168L65.3203 1.52425L64.4531 1.52425ZM64.4531 6.73258L64.4531 4.12842L65.3203 4.12842L65.3203 6.73258L64.4531 6.73258ZM64.4531 11.9409L64.4531 9.33675L65.3203 9.33675L65.3203 11.9409L64.4531 11.9409ZM64.4531 17.1493L64.4531 14.5451L65.3203 14.5451L65.3203 17.1493L64.4531 17.1493ZM64.4531 22.3576L64.4531 19.7534L65.3203 19.7534L65.3203 22.3576L64.4531 22.3576ZM64.4531 27.5659L64.4531 24.9618L65.3203 24.9618L65.3203 27.5659L64.4531 27.5659ZM64.4531 32.7743L64.4531 30.1701L65.3203 30.1701L65.3203 32.7743L64.4531 32.7743ZM64.4531 37.9826L64.4531 35.3784L65.3203 35.3784L65.3203 37.9826L64.4531 37.9826ZM64.4531 43.1909L64.4531 40.5867L65.3203 40.5867L65.3203 43.1909L64.4531 43.1909ZM64.4531 48.3992L64.4531 45.7951L65.3203 45.7951L65.3203 48.3992L64.4531 48.3992ZM64.4531 53.6076L64.4531 51.0034L65.3203 51.0034L65.3203 53.6076L64.4531 53.6076ZM64.4531 58.8159L64.4531 56.2117L65.3203 56.2117L65.3203 58.8159L64.4531 58.8159ZM64.4531 64.0242L64.4531 61.4201L65.3203 61.4201L65.3203 64.0242L64.4531 64.0242ZM64.4531 69.2326L64.4531 66.6284L65.3203 66.6284L65.3203 69.2326L64.4531 69.2326ZM64.4531 74.4409L64.4531 71.8368L65.3203 71.8368L65.3203 74.4409L64.4531 74.4409ZM64.4531 79.6493L64.4531 77.0451L65.3203 77.0451L65.3203 79.6493L64.4531 79.6493ZM64.4531 84.8576L64.4531 82.2534L65.3203 82.2534L65.3203 84.8576L64.4531 84.8576ZM64.4531 90.0659L64.4531 87.4618L65.3203 87.4618L65.3203 90.0659L64.4531 90.0659ZM64.4531 95.2743L64.4531 92.6701L65.3203 92.6701L65.3203 95.2743L64.4531 95.2743ZM64.4531 100.483L64.4531 97.8784L65.3203 97.8784L65.3203 100.483L64.4531 100.483ZM64.4531 105.691L64.4531 103.087L65.3203 103.087L65.3203 105.691L64.4531 105.691ZM64.4531 110.899L64.4531 108.295L65.3203 108.295L65.3203 110.899L64.4531 110.899ZM64.4531 116.108L64.4531 113.503L65.3203 113.503L65.3203 116.108L64.4531 116.108ZM64.4531 121.316L64.4531 118.712L65.3203 118.712L65.3203 121.316L64.4531 121.316ZM64.4531 126.524L64.4531 123.92L65.3203 123.92L65.3203 126.524L64.4531 126.524ZM64.4531 131.733L64.4531 129.128L65.3203 129.128L65.3203 131.733L64.4531 131.733ZM64.4531 136.941L64.4531 134.337L65.3203 134.337L65.3203 136.941L64.4531 136.941ZM64.4531 142.149L64.4531 139.545L65.3203 139.545L65.3203 142.149L64.4531 142.149ZM64.4531 147.358L64.4531 144.753L65.3203 144.753L65.3203 147.358L64.4531 147.358ZM64.4531 152.566L64.4531 149.962L65.3203 149.962L65.3203 152.566L64.4531 152.566ZM64.4531 157.774L64.4531 155.17L65.3203 155.17L65.3203 157.774L64.4531 157.774ZM64.4531 162.983L64.4531 160.378L65.3203 160.378L65.3203 162.983L64.4531 162.983ZM64.4531 168.191L64.4531 165.587L65.3203 165.587L65.3203 168.191L64.4531 168.191ZM64.4531 173.399L64.4531 170.795L65.3203 170.795L65.3203 173.399L64.4531 173.399ZM64.4531 178.608L64.4531 176.003L65.3203 176.003L65.3203 178.608L64.4531 178.608ZM64.4531 183.816L64.4531 181.212L65.3203 181.212L65.3203 183.816L64.4531 183.816ZM64.4531 189.024L64.4531 186.42L65.3203 186.42L65.3203 189.024L64.4531 189.024ZM64.4531 194.232L64.4531 191.628L65.3203 191.628L65.3203 194.232L64.4531 194.232ZM64.4531 199.441L64.4531 196.837L65.3203 196.837L65.3203 199.441L64.4531 199.441ZM64.4531 204.649L64.4531 202.045L65.3203 202.045L65.3203 204.649L64.4531 204.649ZM64.4531 209.857L64.4531 207.253L65.3203 207.253L65.3203 209.857L64.4531 209.857ZM64.4531 215.066L64.4531 212.462L65.3203 212.462L65.3203 215.066L64.4531 215.066ZM64.4531 220.274L64.4531 217.67L65.3203 217.67L65.3203 220.274L64.4531 220.274ZM64.4531 225.482L64.4531 222.878L65.3203 222.878L65.3203 225.482L64.4531 225.482ZM64.4531 230.691L64.4531 228.087L65.3203 228.087L65.3203 230.691L64.4531 230.691ZM64.4531 235.899L64.4531 233.295L65.3203 233.295L65.3203 235.899L64.4531 235.899ZM64.4531 241.108L64.4531 238.503L65.3203 238.503L65.3203 241.108L64.4531 241.108ZM64.4531 246.316L64.4531 243.712L65.3203 243.712L65.3203 246.316L64.4531 246.316ZM64.4531 251.524L64.4531 248.92L65.3203 248.92L65.3203 251.524L64.4531 251.524ZM64.4531 256.733L64.4531 254.128L65.3203 254.128L65.3203 256.733L64.4531 256.733ZM64.4531 261.941L64.4531 259.337L65.3203 259.337L65.3203 261.941L64.4531 261.941ZM64.4531 267.149L64.4531 264.545L65.3203 264.545L65.3203 267.149L64.4531 267.149ZM64.4531 272.358L64.4531 269.753L65.3203 269.753L65.3203 272.358L64.4531 272.358ZM64.4531 277.566L64.4531 274.962L65.3203 274.962L65.3203 277.566L64.4531 277.566ZM64.4531 282.774L64.4531 280.17L65.3203 280.17L65.3203 282.774L64.4531 282.774ZM64.4531 287.983L64.4531 285.378L65.3203 285.378L65.3203 287.983L64.4531 287.983ZM64.4531 293.191L64.4531 290.587L65.3203 290.587L65.3203 293.191L64.4531 293.191ZM64.4531 298.399L64.4531 295.795L65.3203 295.795L65.3203 298.399L64.4531 298.399ZM64.4531 303.608L64.4531 301.004L65.3203 301.004L65.3203 303.608L64.4531 303.608ZM64.4531 308.816L64.4531 306.212L65.3203 306.212L65.3203 308.816L64.4531 308.816ZM64.4531 314.024L64.4531 311.42L65.3203 311.42L65.3203 314.024L64.4531 314.024ZM64.4531 319.233L64.4531 316.629L65.3203 316.629L65.3203 319.233L64.4531 319.233ZM64.4531 324.441L64.4531 321.837L65.3203 321.837L65.3203 324.441L64.4531 324.441ZM64.4531 329.649L64.4531 327.045L65.3203 327.045L65.3203 329.649L64.4531 329.649ZM64.4531 334.858L64.4531 332.254L65.3203 332.254L65.3203 334.858L64.4531 334.858ZM64.4531 340.066L64.4531 337.462L65.3203 337.462L65.3203 340.066L64.4531 340.066ZM64.4531 345.275L64.4531 342.67L65.3203 342.67L65.3203 345.275L64.4531 345.275ZM64.4531 350.483L64.4531 347.879L65.3203 347.879L65.3203 350.483L64.4531 350.483ZM64.4531 355.691L64.4531 353.087L65.3203 353.087L65.3203 355.691L64.4531 355.691ZM64.4531 360.9L64.4531 358.295L65.3203 358.295L65.3203 360.9L64.4531 360.9ZM64.4531 366.108L64.4531 363.504L65.3203 363.504L65.3203 366.108L64.4531 366.108ZM64.4531 371.316L64.4531 368.712L65.3203 368.712L65.3203 371.316L64.4531 371.316ZM64.4531 376.525L64.4531 373.92L65.3203 373.92L65.3203 376.525L64.4531 376.525ZM64.4531 381.733L64.4531 379.129L65.3203 379.129L65.3203 381.733L64.4531 381.733ZM64.4531 386.941L64.4531 384.337L65.3203 384.337L65.3203 386.941L64.4531 386.941ZM64.4531 392.15L64.4531 389.546L65.3203 389.546L65.3203 392.15L64.4531 392.15ZM64.4531 397.358L64.4531 394.754L65.3203 394.754L65.3203 397.358L64.4531 397.358ZM64.4531 402.566L64.4531 399.962L65.3203 399.962L65.3203 402.566L64.4531 402.566ZM64.4531 407.775L64.4531 405.171L65.3203 405.171L65.3203 407.775L64.4531 407.775ZM64.4531 412.983L64.4531 410.379L65.3203 410.379L65.3203 412.983L64.4531 412.983ZM64.4531 418.191L64.4531 415.587L65.3203 415.587L65.3203 418.191L64.4531 418.191ZM64.4531 423.4L64.4531 420.796L65.3203 420.796L65.3203 423.4L64.4531 423.4ZM64.4531 428.608L64.4531 426.004L65.3203 426.004L65.3203 428.608L64.4531 428.608ZM64.4531 433.817L64.4531 431.212L65.3203 431.212L65.3203 433.817L64.4531 433.817ZM64.4531 439.025L64.4531 436.421L65.3203 436.421L65.3203 439.025L64.4531 439.025ZM64.4531 444.233L64.4531 441.629L65.3203 441.629L65.3203 444.233L64.4531 444.233ZM64.4531 449.441L64.4531 446.837L65.3203 446.837L65.3203 449.441L64.4531 449.441ZM64.4531 454.65L64.4531 452.046L65.3203 452.046L65.3203 454.65L64.4531 454.65ZM64.4531 459.858L64.4531 457.254L65.3203 457.254L65.3203 459.858L64.4531 459.858ZM64.4531 465.066L64.4531 462.462L65.3203 462.462L65.3203 465.066L64.4531 465.066ZM64.4531 470.275L64.4531 467.671L65.3203 467.671L65.3203 470.275L64.4531 470.275ZM64.4531 475.483L64.4531 472.879L65.3203 472.879L65.3203 475.483L64.4531 475.483ZM64.4531 480.691L64.4531 478.087L65.3203 478.087L65.3203 480.691L64.4531 480.691ZM64.4531 485.9L64.4531 483.295L65.3203 483.295L65.3203 485.9L64.4531 485.9ZM64.4531 491.108L64.4531 488.504L65.3203 488.504L65.3203 491.108L64.4531 491.108ZM64.4531 496.316L64.4531 493.712L65.3203 493.712L65.3203 496.316L64.4531 496.316ZM64.4531 500.222L64.4531 498.92L65.3203 498.92L65.3203 500.222L64.4531 500.222Z" fill="url(#paint8_linear_8_321)"/>
<defs>
<filter id="filter0_i_8_321" x="64.4531" y="100.1" width="371.04" height="304.448" filterUnits="userSpaceOnUse" color-interpolation-filters="sRGB">
<feFlood flood-opacity="0" result="BackgroundImageFix"/>
<feBlend mode="normal" in="SourceGraphic" in2="BackgroundImageFix" result="shape"/>
<feColorMatrix in="SourceAlpha" type="matrix" values="0 0 0 0 0 0 0 0 0 0 0 0 0 0 0 0 0 0 127 0" result="hardAlpha"/>
<feOffset dy="4"/>
<feGaussianBlur stdDeviation="11.5"/>
<feComposite in2="hardAlpha" operator="arithmetic" k2="-1" k3="1"/>
<feColorMatrix type="matrix" values="0 0 0 0 0.0863839 0 0 0 0 0 0 0 0 0 0.225 0 0 0 1 0"/>
<feBlend mode="normal" in2="shape" result="effect1_innerShadow_8_321"/>
</filter>
<linearGradient id="paint0_linear_8_321" x1="249.973" y1="100.1" x2="249.973" y2="400.548" gradientUnits="userSpaceOnUse">
<stop stop-color="#3E1383"/>
<stop offset="1" stop-color="#0E0024"/>
</linearGradient>
<linearGradient id="paint1_linear_8_321" x1="341.463" y1="191.387" x2="293.554" y2="133.491" gradientUnits="userSpaceOnUse">
<stop stop-color="#CCACFF"/>
<stop offset="1" stop-color="#3B127D"/>
</linearGradient>
<linearGradient id="paint2_linear_8_321" x1="432.948" y1="283.005" x2="426.517" y2="245.231" gradientUnits="userSpaceOnUse">
<stop stop-color="#3B127D"/>
<stop offset="1" stop-color="#CCACFF"/>
</linearGradient>
<linearGradient id="paint3_linear_8_321" x1="342.6" y1="377.634" x2="341.77" y2="347.8" gradientUnits="userSpaceOnUse">
<stop stop-color="#3B127D"/>
<stop offset="1" stop-color="#CCACFF"/>
</linearGradient>
<linearGradient id="paint4_linear_8_321" x1="231.953" y1="272.854" x2="268.519" y2="272.854" gradientUnits="userSpaceOnUse">
<stop/>
<stop offset="1" stop-opacity="0"/>
</linearGradient>
<linearGradient id="paint5_linear_8_321" x1="500" y1="100.103" x2="3.64576" y2="100.103" gradientUnits="userSpaceOnUse">
<stop stop-color="#6025C0" stop-opacity="0"/>
<stop offset="0.5" stop-color="#6025C0"/>
<stop offset="1" stop-color="#6025C0" stop-opacity="0"/>
</linearGradient>
<linearGradient id="paint6_linear_8_321" x1="500" y1="400.347" x2="3.64576" y2="400.347" gradientUnits="userSpaceOnUse">
<stop stop-color="#6025C0" stop-opacity="0"/>
<stop offset="0.5" stop-color="#6025C0"/>
<stop offset="1" stop-color="#6025C0" stop-opacity="0"/>
</linearGradient>
<linearGradient id="paint7_linear_8_321" x1="435.51" y1="500.222" x2="435.51" y2="3.86793" gradientUnits="userSpaceOnUse">
<stop stop-color="#6025C0" stop-opacity="0"/>
<stop offset="0.5" stop-color="#6025C0"/>
<stop offset="1" stop-color="#6025C0" stop-opacity="0"/>
</linearGradient>
<linearGradient id="paint8_linear_8_321" x1="64.4503" y1="500.222" x2="64.4503" y2="3.86793" gradientUnits="userSpaceOnUse">
<stop stop-color="#6025C0" stop-opacity="0"/>
<stop offset="0.5" stop-color="#6025C0"/>
<stop offset="1" stop-color="#6025C0" stop-opacity="0"/>
</linearGradient>
<clipPath id="clip0_8_321">
<rect width="185.574" height="300.04" fill="white" transform="translate(249.973 100.304)"/>
</clipPath>
</defs>
</svg>
