<svg id="Layer_1" data-name="Layer 1" xmlns="http://www.w3.org/2000/svg" viewBox="0 0 500 500"><defs><style>.cls-1{opacity:0.3;}.cls-2{fill:#caedff;}.cls-3{opacity:0.4;}.cls-4{fill:#0aa5e3;}.cls-5{fill:#32b475;}.cls-6{fill:#e3b462;}.cls-7{fill:#cdebfc;}.cls-8{fill:#a2dff2;}.cls-9{fill:#fad264;}.cls-10{fill:#fff;}.cls-11{fill:#e5e5e5;}.cls-12{fill:#3273ad;}.cls-13{fill:#e9495b;}.cls-14{fill:#92be33;}.cls-15{fill:#ec6646;}.cls-16{fill:#f7be15;}.cls-17{fill:#0f95bc;}.cls-18{fill:#fdfbf8;}.cls-19{fill:#b77917;}.cls-20{fill:#ffdfca;}.cls-21{fill:#f4c3a8;}.cls-22{fill:#f9d3c0;}.cls-23{fill:#0f3356;}.cls-24{fill:#c6c;}</style></defs><title>hipster-icon</title><g class="cls-1"><path class="cls-2" d="M293.29,358.31a513,513,0,0,0,91.13-16.78c16.51-4.52,76.07-23.41,102.52-72.8,35.39-66.09-56.91-24.11-70.31-52.23s41.52-38.84,33.48-69.65-72.32,8-81.7-13.39,9.38-54.91-46.88-44.2c-35.4,6.74-31.83-5.78-54.91-33.48-26.79-32.14-42.93-29.29-71,45.54-20.09,53.57-52.23-34.82-101.79-20.09s-13.39,67-14.73,96.43S19.59,181.58,6.8,231.23c-8.64,33.51,15.79,56.23,41.52,75,49.56,36.16,116.26,49.55,173,53A490.21,490.21,0,0,0,293.29,358.31Z"/></g><g class="cls-3"><path class="cls-4" d="M390,157.48a8.22,8.22,0,1,1,7.44-8.93A8.23,8.23,0,0,1,390,157.48Zm-1.29-14.2a6,6,0,1,0,6.56,5.47A6,6,0,0,0,388.76,143.28Z"/><path class="cls-5" d="M357,200.9a5.2,5.2,0,1,1,4.71-5.65A5.2,5.2,0,0,1,357,200.9Zm-.82-9a3.82,3.82,0,1,0,4.15,3.46A3.82,3.82,0,0,0,356.21,191.91Z"/><path class="cls-4" d="M411,227.6a8.22,8.22,0,1,1,7.44-8.93A8.23,8.23,0,0,1,411,227.6Zm-1.29-14.2a6,6,0,1,0,6.56,5.47A6,6,0,0,0,409.74,213.4Z"/><path class="cls-6" d="M324.17,173.5a7.63,7.63,0,1,1,6.91-8.28A7.64,7.64,0,0,1,324.17,173.5Zm-1.18-13a5.45,5.45,0,1,0,5.92,4.93A5.45,5.45,0,0,0,323,160.48Z"/><path class="cls-5" d="M82.38,132a8.22,8.22,0,1,1,7.44-8.93A8.23,8.23,0,0,1,82.38,132Zm-1.29-14.2a6,6,0,1,0,6.56,5.47A6,6,0,0,0,81.09,117.79Z"/><path class="cls-5" d="M174.63,195a4.95,4.95,0,1,1,4.48-5.37A5,5,0,0,1,174.63,195Zm-.7-7.69a2.77,2.77,0,1,0,3,2.51A2.77,2.77,0,0,0,173.94,187.28Z"/><path class="cls-6" d="M160.73,161.18a6.9,6.9,0,1,1,5.92-7.76A6.91,6.91,0,0,1,160.73,161.18Zm-1.55-11.52a4.72,4.72,0,1,0,5.31,4.05A4.73,4.73,0,0,0,159.18,149.66Z"/><path class="cls-4" d="M69.26,179.92a7.63,7.63,0,1,1,6.91-8.28A7.63,7.63,0,0,1,69.26,179.92Zm-1.18-13A5.45,5.45,0,1,0,74,171.83,5.45,5.45,0,0,0,68.08,166.9Z"/><path class="cls-5" d="M191.4,128.56a4.95,4.95,0,1,1,4.48-5.37A5,5,0,0,1,191.4,128.56Zm-.7-7.69a2.77,2.77,0,1,0,3,2.51A2.77,2.77,0,0,0,190.7,120.88Z"/><path class="cls-5" d="M93.23,256.06a4.95,4.95,0,1,1,4.48-5.37A5,5,0,0,1,93.23,256.06Zm-.7-7.69a2.77,2.77,0,1,0,3,2.51A2.77,2.77,0,0,0,92.54,248.38Z"/><path class="cls-5" d="M126.38,209.38a4.95,4.95,0,1,1,4.48-5.37A5,5,0,0,1,126.38,209.38Zm-.7-7.69a2.77,2.77,0,1,0,3,2.51A2.77,2.77,0,0,0,125.68,201.7Z"/><path class="cls-5" d="M290.18,101a4.95,4.95,0,1,1,4.48-5.37A5,5,0,0,1,290.18,101Zm-.7-7.69a2.77,2.77,0,1,0,3,2.51A2.77,2.77,0,0,0,289.48,93.28Z"/></g><path class="cls-7" d="M401.46,201.62h-4.22a.34.34,0,0,1-.34-.36,3.1,3.1,0,0,0-.83-2.37,5.77,5.77,0,0,0-3.64-1.32.38.38,0,0,1-.26-.12.35.35,0,0,1-.08-.28,7.15,7.15,0,0,0-1.49-4.91,5.66,5.66,0,0,0-4.46-1.76,5.23,5.23,0,0,0-3.92,1.5,7.28,7.28,0,0,0-1.64,4.75.35.35,0,0,1-.14.29.35.35,0,0,1-.32.05,4.83,4.83,0,0,0-4.08.19c-2.06,1.2-2.64,4-2.65,4.05a.35.35,0,0,1-.34.28h-8.3a.35.35,0,1,1,0-.69h8a7.08,7.08,0,0,1,2.91-4.24,5.29,5.29,0,0,1,4.2-.38,7.58,7.58,0,0,1,1.82-4.77,5.89,5.89,0,0,1,4.42-1.72,6.33,6.33,0,0,1,5,2,7.79,7.79,0,0,1,1.68,5.08,6,6,0,0,1,3.77,1.51,3.67,3.67,0,0,1,1,2.52h3.87a.35.35,0,0,1,0,.69Z"/><path class="cls-2" d="M250,327A126.38,126.38,0,1,1,376.38,200.61,126.52,126.52,0,0,1,250,327Zm0-251.3A124.92,124.92,0,1,0,374.92,200.61,125.06,125.06,0,0,0,250,75.69Z"/><path class="cls-2" d="M150.5,167.93h0a32.78,32.78,0,0,1-32.68-32.68h0a32.78,32.78,0,0,1,32.68-32.68h0a32.78,32.78,0,0,1,32.68,32.68h0A32.78,32.78,0,0,1,150.5,167.93Z"/><path class="cls-8" d="M165.34,119.9l-1.55-1.28-1.17-.83L162,120l-12.29,6.44-10.36,1.09s-6.08,1.28-6.59,5.54c-.72,5.92,3.79,5.47,3.79,5.47l.26,1.67,12.35,27.62c.51,0,1,0,1.55,0a32.78,32.78,0,0,0,32.51-32.68h0a32.53,32.53,0,0,0-.63-6.38Z"/><path class="cls-9" d="M136.7,128.71v10.17s-4.36,0-4.36-4.36S135.25,128.71,136.7,128.71Z"/><polygon class="cls-10" points="139.69 140.51 142.4 147.96 143.86 151.5 145.01 152.75 146.41 153.12 147.51 152.44 147.87 150.93 146.94 148.38 143.91 140.72 139.69 140.51"/><polygon class="cls-10" points="148.97 126.75 160.92 120.5 161.08 148.17 148.97 141.21 148.97 126.75"/><polygon class="cls-11" points="148.97 126.75 148.97 141.21 136.23 139.96 136.07 127.77 148.97 126.75"/><polygon class="cls-11" points="161.16 118.94 160.93 121.83 160.93 148.71 161.78 150.04 163.19 150.04 164.36 148.95 164.21 119.33 163.58 118 162.02 117.92 161.16 118.94"/><path class="cls-9" d="M164.52,128.06c1,0,1.8,2.8,1.8,6.24s-.8,6.24-1.8,6.24"/><path class="cls-12" d="M158.43,146.64a.44.44,0,0,1-.21-.05l-9.48-5-12.48-1.13a.44.44,0,0,1-.4-.43l-.18-10.75a.44.44,0,0,1,.89,0l.18,10.35,12,1.09a.42.42,0,0,1,.29,0l9.62,5a.44.44,0,0,1-.21.84"/><path class="cls-12" d="M138.51,128.09a.44.44,0,0,1,0-.88l10.28-.93L160.66,120a.44.44,0,0,1,.65.39v4.15a.44.44,0,0,1-.89,0v-3.41l-11.41,6a.44.44,0,0,1-.32,0l-10.14.92h0"/><path class="cls-12" d="M160.87,145.17a.44.44,0,0,1-.44-.44V129.29a.44.44,0,0,1,.89,0v15.44a.44.44,0,0,1-.44.44"/><path class="cls-12" d="M162.62,150.66a2.09,2.09,0,0,1-2.08-2.08.44.44,0,0,1,.89,0,1.2,1.2,0,1,0,2.4,0V119.51a1.2,1.2,0,1,0-2.4,0,.44.44,0,0,1-.89,0,2.08,2.08,0,0,1,4.17,0v29.07a2.09,2.09,0,0,1-2.08,2.08"/><path class="cls-12" d="M149,139.3a.31.31,0,0,1-.31-.31v-2.18a.31.31,0,1,1,.62,0V139a.31.31,0,0,1-.31.31"/><path class="cls-12" d="M149,136.16a.31.31,0,0,1-.31-.31v-6.94a.31.31,0,0,1,.62,0v6.94a.31.31,0,0,1-.31.31"/><path class="cls-12" d="M135.73,139.12c-2.06,0-3.74-2.32-3.74-5.17s1.68-5.17,3.74-5.17a.44.44,0,1,1,0,.89c-1.57,0-2.85,1.92-2.85,4.29s1.28,4.29,2.85,4.29a.44.44,0,1,1,0,.89"/><path class="cls-12" d="M146.06,153.56a2.87,2.87,0,0,1-2.52-1.93l-2.67-6.8a.44.44,0,1,1,.82-.32l2.67,6.8a1.55,1.55,0,1,0,2.76-1.09l-3.56-8.87a.44.44,0,1,1,.82-.33l3.56,8.87a2.65,2.65,0,0,1-1.16,3.53,2,2,0,0,1-.73.14"/><path class="cls-12" d="M144.82,143.71a2.54,2.54,0,0,0,2.56-2.65c0-.57-.91-.57-.89,0a1.65,1.65,0,0,1-1.68,1.77.44.44,0,0,0,0,.89"/><path class="cls-12" d="M142,130.85a.31.31,0,0,1,0-.62l3.71-.26a.31.31,0,0,1,.33.29.31.31,0,0,1-.29.33l-3.71.26h0"/><path class="cls-12" d="M138.89,131.07a.31.31,0,0,1,0-.62l2.22-.15a.31.31,0,1,1,0,.62l-2.22.16h0"/><path class="cls-12" d="M145.62,134.1h0l-2.47,0a.31.31,0,0,1,0-.62h0l2.47,0a.31.31,0,0,1,0,.62"/><path class="cls-12" d="M142.06,134h0l-3.12,0a.31.31,0,0,1-.31-.31.3.3,0,0,1,.31-.31l3.12,0a.31.31,0,0,1,0,.62"/><path class="cls-12" d="M145.77,137.79h0l-3.81-.31a.31.31,0,0,1,.05-.62l3.81.31a.31.31,0,0,1,0,.62"/><path class="cls-12" d="M140.73,137.38h0l-1.94-.16a.31.31,0,0,1,.05-.62l1.94.16a.31.31,0,0,1,0,.62"/><path class="cls-12" d="M164.52,140.86a.31.31,0,1,1,0-.62c.61,0,1.49-2.31,1.49-5.93s-.88-5.93-1.49-5.93a.31.31,0,1,1,0-.62c1.38,0,2.11,3.3,2.11,6.55s-.72,6.55-2.11,6.55"/><path class="cls-12" d="M160.48,126.28v.52a.31.31,0,0,0,.63,0v-.52a.31.31,0,0,0-.63,0"/><path class="cls-12" d="M140.47,142l-.5-1.47c-.13-.38-.73-.22-.6.17l.5,1.47c.13.38.73.22.6-.17"/><path class="cls-2" d="M369.11,274.69h0A32.78,32.78,0,0,1,336.43,242h0a32.78,32.78,0,0,1,32.68-32.68h0A32.78,32.78,0,0,1,401.8,242h0A32.78,32.78,0,0,1,369.11,274.69Z"/><path class="cls-8" d="M376,225.89l-4.75-1L361.8,226s-1.17-1.06-.52-4.24c-3.84,1.69-3.51,6.81-3.51,6.81s-6.36,7.14-6.9,10.13a24.8,24.8,0,0,0-.33,9.28c.62,3.25,5,9.13,5,9.13l11.86,17.56q.84,0,1.69,0h0A32.78,32.78,0,0,0,401.8,242h0a32.49,32.49,0,0,0-.59-6.11Z"/><path class="cls-10" d="M377.81,252.11a10.11,10.11,0,0,0,7.47-4c2.52-3.16,2.87-6.77,1.78-10.52a17.12,17.12,0,0,0-11.87-12c-1.37-.44-4.25-1.6-10.13-.23a12.47,12.47,0,0,0-2.53.8s-5.52,3-7.13,4.68a19,19,0,0,0-4.92,10.71,18.65,18.65,0,0,0,7.92,17.27,18.07,18.07,0,0,0,10,3.31c1.91,0,3.57-.69,4.15-2.68a3.6,3.6,0,0,0-.5-3c-.51-.85-1.33-1.45-.76-2.54"/><path class="cls-12" d="M377.71,252.7a.4.4,0,0,1,0-.8,9.72,9.72,0,0,0,7.19-3.8c2.27-2.85,2.84-6.26,1.71-10.16A16.73,16.73,0,0,0,375,226.16l-.25-.08c-1.48-.49-4.23-1.4-9.66-.14a12.14,12.14,0,0,0-2.47.78.4.4,0,1,1-.3-.74,12.76,12.76,0,0,1,2.6-.82c5.64-1.31,8.65-.31,10.09.16l.25.08a17.5,17.5,0,0,1,12.13,12.32c1.21,4.16.59,7.82-1.85,10.88a10.49,10.49,0,0,1-7.76,4.11h0"/><path class="cls-12" d="M368.34,262.72h-.06a18.4,18.4,0,0,1-10.19-3.38A18.93,18.93,0,0,1,350,241.68a19.49,19.49,0,0,1,5-10.94.4.4,0,0,1,.59.55,18.68,18.68,0,0,0-4.81,10.49,18.36,18.36,0,0,0,7.75,16.89,17.59,17.59,0,0,0,9.74,3.24c2,0,3.29-.79,3.76-2.39a3.2,3.2,0,0,0-.46-2.71c-.11-.18-.23-.34-.34-.5a2.06,2.06,0,0,1-.42-2.43.4.4,0,0,1,.71.38c-.32.6-.11.94.36,1.59.13.18.26.36.38.56a4,4,0,0,1,.55,3.35c-.56,1.92-2.14,3-4.47,3"/><path class="cls-13" d="M382.73,241a2.91,2.91,0,1,1-2.91-2.91,2.91,2.91,0,0,1,2.91,2.91"/><path class="cls-12" d="M379.82,244.21A3.19,3.19,0,1,1,383,241a3.19,3.19,0,0,1-3.19,3.19m0-5.82a2.63,2.63,0,1,0,2.63,2.63,2.63,2.63,0,0,0-2.63-2.63"/><path class="cls-14" d="M375.85,232.09a2.91,2.91,0,1,1-2.91-2.91,2.91,2.91,0,0,1,2.91,2.91"/><path class="cls-12" d="M372.94,235.27a3.19,3.19,0,1,1,3.19-3.19,3.19,3.19,0,0,1-3.19,3.19m0-5.82a2.63,2.63,0,1,0,2.63,2.63,2.63,2.63,0,0,0-2.63-2.63"/><path class="cls-15" d="M359.1,232.43a2.91,2.91,0,1,0,3.87,4.3l-.93-3.51Z"/><path class="cls-12" d="M360.81,238a3.19,3.19,0,0,1-1.88-5.77.28.28,0,0,1,.33.46,2.63,2.63,0,1,0,3.5,3.88.28.28,0,1,1,.42.38,3.19,3.19,0,0,1-2.37,1.05"/><path class="cls-16" d="M359.89,245.06a2.91,2.91,0,1,1-2.91-2.91,2.91,2.91,0,0,1,2.91,2.91"/><path class="cls-12" d="M357,248.25a3.19,3.19,0,1,1,3.19-3.19,3.19,3.19,0,0,1-3.19,3.19m0-5.82a2.63,2.63,0,1,0,2.63,2.63,2.63,2.63,0,0,0-2.63-2.63"/><path class="cls-17" d="M365.56,253.93a2.91,2.91,0,1,1-2.91-2.91,2.91,2.91,0,0,1,2.91,2.91"/><path class="cls-12" d="M362.66,257.12a3.19,3.19,0,1,1,3.19-3.19,3.19,3.19,0,0,1-3.19,3.19m0-5.82a2.63,2.63,0,1,0,2.63,2.63,2.63,2.63,0,0,0-2.63-2.63"/><path class="cls-12" d="M384.2,245.48a.28.28,0,0,1-.25-.42,8.27,8.27,0,0,0,.8-2,.28.28,0,0,1,.55.14,8.85,8.85,0,0,1-.85,2.14.28.28,0,0,1-.25.15"/><path class="cls-12" d="M385.22,242.23h0a.28.28,0,0,1-.25-.31,11.89,11.89,0,0,0-3.22-9,.28.28,0,1,1,.42-.37A12.44,12.44,0,0,1,385.5,242a.28.28,0,0,1-.28.26"/><path class="cls-18" d="M371.58,244.62a87.46,87.46,0,0,0-4.52-7.57l-3.52,1.88c1,2.41,2.33,5.23,3.92,8.2,4.21,7.87,8.58,13.75,9.76,13.12s-.94-6.53-4.59-13.65"/><path class="cls-12" d="M373,246.42a.4.4,0,1,0-.72.37c4.25,8.29,5.2,12.7,4.76,13.11-.73.17-4.43-4-9.22-13-1.46-2.72-2.76-5.42-3.76-7.83l2.88-1.54c1.44,2.16,2.84,4.53,4.29,7.24a.4.4,0,0,0,.71-.38,88.06,88.06,0,0,0-4.54-7.61.4.4,0,0,0-.52-.13l-3.52,1.88a.4.4,0,0,0-.18.51c1,2.51,2.39,5.36,3.93,8.24.31.57,7.19,13.37,9.94,13.37a.75.75,0,0,0,.36-.09C379.58,259.44,373.67,247.75,373,246.42Z"/><polygon class="cls-11" points="363.57 238.96 367.05 237.1 371.38 244.4 371.38 244.73 367.41 246.81 363.57 238.96"/><polygon class="cls-18" points="362.07 233.57 363.4 232.86 367.05 237.1 363.57 238.96 362.07 233.57"/><path class="cls-12" d="M363.58,239.36a.4.4,0,0,1-.16,0,.41.41,0,0,1-.23-.26l-1.51-5.39a.4.4,0,0,1,.2-.46l1.33-.71a.4.4,0,0,1,.49.09l3.64,4.24a.4.4,0,0,1-.12.62l-3.47,1.86a.39.39,0,0,1-.19,0m-1-5.59,1.29,4.59,2.59-1.38-3.11-3.62Z"/><path class="cls-12" d="M367.42,247.15a.4.4,0,0,1-.19-.76l4.1-2.11a.4.4,0,0,1,.37.71l-4.1,2.11a.4.4,0,0,1-.18,0"/><path class="cls-9" d="M358.39,231.44a3.37,3.37,0,1,0,5.94-3.18,3.6,3.6,0,0,0-1.45-1.47,14.53,14.53,0,0,1-1.64-1.27,2.58,2.58,0,0,1,.39-3.65,3,3,0,0,0-3.06,1.89c-1.58,4.21-.45,7.15-.17,7.68"/><path class="cls-12" d="M367,242.63c-.39-.83-.79-1.63-1.25-2.42a.28.28,0,0,0-.49.29c.46.79.86,1.6,1.25,2.42.15.33.64,0,.49-.29"/><path class="cls-12" d="M368.1,244.69c-.18-.28-.34-.57-.49-.87s-.65,0-.49.29.31.58.49.86.68,0,.49-.29"/><path class="cls-12" d="M364.68,228.07a4,4,0,0,0-1.58-1.61c-.22-.18-.45-.33-.67-.48a4.72,4.72,0,0,1-.9-.72,2.18,2.18,0,0,1,.32-3.05.4.4,0,0,0-.18-.72,3.28,3.28,0,0,0-3,1.24s-.06,0-.08.09v0a3.25,3.25,0,0,0-.44.78c-1.81,4.81-.16,8-.15,8h0a3.93,3.93,0,0,0,3.45,2.1,3.64,3.64,0,0,0,1.72-.43A3.85,3.85,0,0,0,364.68,228.07Zm-1.86,4.52a3,3,0,0,1-4.08-1.34h0a7.07,7.07,0,0,1-.56-2.32c.22.54.47,1.07.74,1.59.17.32.66,0,.49-.29a7.84,7.84,0,0,1-1.14-3.71,11.75,11.75,0,0,1,.25-1.26,11.89,11.89,0,0,0,1.84,4.05c.19.31.69,0,.49-.29-1-1.62-2.05-3.36-1.83-5.29a2.65,2.65,0,0,1,1.66-1.41,3,3,0,0,0-.41,1.24,2.87,2.87,0,0,0,.66,2.21,5.37,5.37,0,0,0,1.05.85,7.62,7.62,0,0,1,.63.46l.07,0a3.19,3.19,0,0,1,1.29,1.3A3,3,0,0,1,362.82,232.59Z"/><path class="cls-12" d="M352.82,239.86h-.08a.28.28,0,0,1-.19-.35,18.62,18.62,0,0,1,4.26-7.54.28.28,0,0,1,.41.38,18.06,18.06,0,0,0-4.13,7.31.28.28,0,0,1-.27.2"/><path class="cls-12" d="M352.11,244.9h0a.28.28,0,0,1-.28-.28,18.8,18.8,0,0,1,.35-3.55.28.28,0,1,1,.55.11,18.22,18.22,0,0,0-.34,3.44.28.28,0,0,1-.28.28"/><path class="cls-12" d="M363.13,259.93l-.1,0a15.44,15.44,0,0,1-2.6-1.33.28.28,0,1,1,.3-.47,14.84,14.84,0,0,0,2.5,1.28.28.28,0,0,1-.1.54"/><path class="cls-12" d="M367.79,261a12.53,12.53,0,0,1-3.66-.67.28.28,0,1,1,.17-.54c3.65,1.15,5.86.74,6.56-1.2a.28.28,0,0,1,.53.19c-.53,1.47-1.73,2.21-3.6,2.21"/><path class="cls-12" d="M363.58,239.36a.4.4,0,0,1-.19-.76l3.47-1.86a.4.4,0,1,1,.38.71l-3.47,1.86a.4.4,0,0,1-.19,0"/><path class="cls-2" d="M360.4,167.93h0a32.78,32.78,0,0,1-32.68-32.68h0a32.78,32.78,0,0,1,32.68-32.68h0a32.78,32.78,0,0,1,32.68,32.68h0A32.78,32.78,0,0,1,360.4,167.93Z"/><path class="cls-8" d="M393.08,135.25h0a32.47,32.47,0,0,0-.62-6.32l-24.22-11.23-11.08-.52-.2,1.43-5.74-.32-.52,8.25-5,1.23-1.63,1.75v1.56l3.58,22.36,11.17,14.45c.53,0,1.06,0,1.59,0h0A32.78,32.78,0,0,0,393.08,135.25Z"/><path class="cls-11" d="M371,123.21l-11.44,1.86c-4.13.67-8.43,1.08-12.51,2-2.16.51-3.27,1.54-3.13,3.83L367,127.35l3.3-.51a3.35,3.35,0,0,1-.47-2C369.89,123.94,370.26,123.78,371,123.21Z"/><path class="cls-10" d="M372.83,135.28l-1.05-6.59a2.3,2.3,0,0,0-2.68-1.81l-25.26,4,3.55,22.28,25.26-4a2.3,2.3,0,0,0,2-2.55l-1-6.54"/><path class="cls-12" d="M347.4,153.58a.38.38,0,0,1-.38-.32L343.46,131a.38.38,0,0,1,.32-.44l25.26-4a2.68,2.68,0,0,1,3.12,2.13l1.05,6.59a.38.38,0,1,1-.76.12l-1.05-6.59a1.91,1.91,0,0,0-2.25-1.49l-24.88,4,3.43,21.53,24.88-4a1.91,1.91,0,0,0,1.67-2.12l-1-6.54A.38.38,0,1,1,374,140l1,6.54a2.68,2.68,0,0,1-2.31,3l-25.26,4h-.06"/><polygon class="cls-4" points="367.31 127.05 367.71 118.21 356.6 117.67 355.52 128.96 367.31 127.05"/><polyline class="cls-4" points="350.34 129.78 350.77 118.61 361.88 119.05 361.53 128.05"/><path class="cls-12" d="M350.34,130h0a.27.27,0,0,1-.26-.28l.44-11.17a.27.27,0,0,1,.28-.26l11.11.44a.27.27,0,0,1,.26.28l-.35,9a.28.28,0,0,1-.28.26.27.27,0,0,1-.26-.28l.34-8.74L351,118.89l-.43,10.9a.27.27,0,0,1-.27.26"/><path class="cls-12" d="M343.84,131.29a.38.38,0,0,1-.38-.31,3.23,3.23,0,0,1,.53-2.66,4.8,4.8,0,0,1,3.14-1.54l2.87-.47a.38.38,0,1,1,.12.75l-2.9.47a4.11,4.11,0,0,0-2.62,1.25,2.35,2.35,0,0,0-.43,1.69l1.77-.28a.38.38,0,0,1,.12.76l-2.15.34h-.06"/><path class="cls-12" d="M348.13,141.92a.27.27,0,0,1-.26-.23l-1.43-8.94a.27.27,0,0,1,.22-.31l17.23-2.75a.27.27,0,0,1,.08.53l-17,2.71,1.38,8.68a.27.27,0,0,1-.22.31h0"/><path class="cls-12" d="M370.32,136.07a.38.38,0,0,1-.38-.32l-.76-4.79a.38.38,0,1,1,.76-.12l.76,4.79a.38.38,0,0,1-.32.44h-.06"/><path class="cls-12" d="M349.56,150.86a.27.27,0,0,1-.26-.23l-.33-2.08a.27.27,0,1,1,.53-.08l.29,1.82L370.17,147a1.61,1.61,0,0,0,1.4-1.78l-.76-4.74a.27.27,0,1,1,.53-.08l.76,4.74a2.14,2.14,0,0,1-1.85,2.4l-20.66,3.3h0"/><path class="cls-11" d="M373.63,140.07l-5.49.88a2.42,2.42,0,0,1-.76-4.79l5.49-.88a2.42,2.42,0,0,1,.76,4.79"/><path class="cls-12" d="M367.75,141.35a2.81,2.81,0,0,1-.44-5.58l5.49-.88a2.81,2.81,0,0,1,.88,5.54l-5.49.88a2.86,2.86,0,0,1-.44,0m5.49-5.73-.32,0-5.49.88a2,2,0,1,0,.64,4l5.49-.88h0a2,2,0,0,0-.32-4.06"/><path class="cls-9" d="M369,138.17a1.06,1.06,0,1,1-1.21-.88,1.06,1.06,0,0,1,1.21.88"/><path class="cls-12" d="M367.93,139.66a1.33,1.33,0,0,1-.21-2.64,1.33,1.33,0,1,1,.42,2.62l-.21,0m0-2.12h-.13a.79.79,0,0,0-.34,1.42.78.78,0,0,0,.59.14.79.79,0,0,0-.12-1.57"/><path class="cls-12" d="M351.68,129.74h0a.27.27,0,0,1-.26-.28l.29-7.44a.27.27,0,0,1,.23-.25,2,2,0,0,0,1.74-1.64.26.26,0,0,1,.27-.22l4.81.19a.27.27,0,0,1,.26.24,2,2,0,0,0,1.47,1.74.27.27,0,0,1,.2.27l-.23,5.78a.27.27,0,1,1-.53,0l.22-5.58a2.55,2.55,0,0,1-1.62-1.9l-4.37-.17a2.55,2.55,0,0,1-1.92,1.8l-.28,7.22a.27.27,0,0,1-.27.26"/><path class="cls-9" d="M364.69,127.48c0-1.07-1.3-2-3-2.06l.1,2.61Z"/><path class="cls-9" d="M353.54,129.38a1.59,1.59,0,0,1-.66-1.26c0-1.07,1.45-1.89,3.15-1.82s3.19,1,3,2.24"/><path class="cls-12" d="M353.54,129.64a.27.27,0,0,1-.17-.06,1.85,1.85,0,0,1-.75-1.48,1.93,1.93,0,0,1,1.09-1.56A4.41,4.41,0,0,1,356,126a4,4,0,0,1,2.86,1.21,1.67,1.67,0,0,1,.4,1.34.27.27,0,1,1-.53-.08,1.14,1.14,0,0,0-.29-.92,3.47,3.47,0,0,0-2.47-1A3.85,3.85,0,0,0,354,127a1.42,1.42,0,0,0-.82,1.11,1.34,1.34,0,0,0,.56,1,.27.27,0,0,1,0,.38.26.26,0,0,1-.21.1"/><path class="cls-12" d="M367.25,127.38h0a.27.27,0,0,1-.26-.28l.34-8.74-10.57-.41,0,.89a.28.28,0,0,1-.28.26.27.27,0,0,1-.26-.28l0-1.16a.27.27,0,0,1,.09-.19.25.25,0,0,1,.19-.07l11.11.44a.27.27,0,0,1,.19.09.27.27,0,0,1,.07.19l-.35,9a.27.27,0,0,1-.27.26"/><path class="cls-12" d="M365.92,127.45h0a.27.27,0,0,1-.26-.28l.22-5.58a2.55,2.55,0,0,1-1.62-1.9l-2.33-.09a.27.27,0,0,1,0-.54l2.55.1a.27.27,0,0,1,.26.24,2,2,0,0,0,1.48,1.74.27.27,0,0,1,.2.27l-.23,5.78a.27.27,0,0,1-.27.26"/><path class="cls-12" d="M364.76,127.68h0a.27.27,0,0,1-.26-.28c0-.91-1.22-1.72-2.74-1.78a.27.27,0,0,1-.26-.28.27.27,0,0,1,.28-.26c1.88.07,3.31,1.1,3.26,2.34a.27.27,0,0,1-.27.26"/><path class="cls-12" d="M367.63,124.26a.38.38,0,0,1-.06-.76l3.3-.52a.38.38,0,1,1,.12.76l-3.3.52h-.06"/><path class="cls-12" d="M370.22,123.26c-.72.4-.72,1.32-.71,2.06a2.29,2.29,0,0,0,.93,2c.28.2.55-.27.27-.47a1.76,1.76,0,0,1-.66-1.5c0-.48,0-1.33.44-1.6.3-.17,0-.63-.27-.47"/><path class="cls-12" d="M348.21,134.57a.27.27,0,0,1,0-.53l.93-.15a.27.27,0,0,1,.08.53l-.93.15h0"/><path class="cls-12" d="M350.61,134.18a.27.27,0,0,1,0-.53l1.8-.29a.27.27,0,0,1,.08.53l-1.8.29h0m3.26-.52a.27.27,0,0,1,0-.53l1.8-.29a.27.27,0,0,1,.08.53l-1.8.29h0m3.27-.52a.27.27,0,0,1,0-.53l1.8-.29a.27.27,0,0,1,.08.53l-1.8.29h0m3.27-.52a.27.27,0,0,1,0-.53l1.8-.29a.27.27,0,0,1,.08.53l-1.8.29h0m3.27-.52a.27.27,0,0,1,0-.53l1.8-.29a.27.27,0,0,1,.08.53l-1.8.29h0"/><path class="cls-12" d="M366.93,131.58a.27.27,0,0,1,0-.53l.93-.15a.27.27,0,0,1,.08.53l-.93.15h0"/><path class="cls-12" d="M350.52,149a.27.27,0,0,1,0-.53l.93-.15a.27.27,0,0,1,.08.53l-.93.15h0"/><path class="cls-12" d="M352.91,148.61a.27.27,0,0,1,0-.53l1.8-.29a.27.27,0,0,1,.08.53l-1.8.29h0m3.27-.52a.27.27,0,0,1,0-.53l1.8-.29a.27.27,0,0,1,.08.53l-1.8.29h0m3.26-.52a.27.27,0,0,1,0-.53l1.8-.29a.27.27,0,0,1,.08.53l-1.8.29h0m3.27-.52a.27.27,0,0,1,0-.53l1.8-.29a.27.27,0,0,1,.08.53l-1.8.29h0m3.27-.52a.27.27,0,0,1,0-.53l1.8-.29a.27.27,0,0,1,.08.53l-1.8.29h0"/><path class="cls-12" d="M369.23,146a.27.27,0,0,1,0-.53l.93-.15a.27.27,0,0,1,.08.53l-.93.15h0"/><path class="cls-12" d="M373,136.55a1.73,1.73,0,0,1,.9,1.8c-.06.34.46.48.52.14a2.27,2.27,0,0,0-1.15-2.4c-.3-.16-.57.3-.27.46"/><path class="cls-12" d="M372.52,141.95l.44,2.74c.05.34.57.2.52-.14l-.44-2.74c-.05-.34-.57-.2-.52.14"/><path class="cls-12" d="M373.07,145.75l.18,1.11c.05.34.57.2.52-.14l-.18-1.11c-.05-.34-.57-.2-.52.14"/><path class="cls-2" d="M250.36,110.55h0a32.78,32.78,0,0,1-32.68-32.68h0a32.78,32.78,0,0,1,32.68-32.68h0A32.78,32.78,0,0,1,283,77.87h0A32.78,32.78,0,0,1,250.36,110.55Z"/><path class="cls-8" d="M283,77.87h0a32.53,32.53,0,0,0-.54-5.85l-28.93-8.61-4.47-.94s-8.69,0-11.06,10.2c-1.67,7.2,6.07,11.4,6.07,11.4s-.86,4.45,1,4.71A5.1,5.1,0,0,0,244,90.32l1.25,1.46L245,93.7l4.61,16.83.79,0h0A32.78,32.78,0,0,0,283,77.87Z"/><path class="cls-9" d="M253.59,87.68a2.67,2.67,0,0,0,.8-1.9l-.25-2a11.3,11.3,0,1,0-10.28,0l-.25,2a2.68,2.68,0,0,0,2.67,2.67h5.43"/><path class="cls-19" d="M247.6,87.48h0a.28.28,0,0,1-.25-.3,18.88,18.88,0,0,0-.35-6.9,2.47,2.47,0,0,1-2.21-.28,2,2,0,0,1-.8-1.51,1.71,1.71,0,0,1,.51-1.37,1.11,1.11,0,0,1,.56-.3c.31-.05.78,0,1.28.76a8.71,8.71,0,0,1,1,1.93l.1-.06a2.88,2.88,0,0,0,.6-.57,2.08,2.08,0,0,1-.39-1.92,1.28,1.28,0,0,1,.82-.82.7.7,0,0,1,.68.16,1.06,1.06,0,0,1,.19,1.11,5.23,5.23,0,0,1-.59,1.42,1.76,1.76,0,0,0,1.29.47,1.91,1.91,0,0,0,1.11-.5,2.49,2.49,0,0,1-.49-1.87,1.4,1.4,0,0,1,.74-1,.71.71,0,0,1,.71.06,1,1,0,0,1,.39.79,2.9,2.9,0,0,1-.59,2h0a2,2,0,0,0,1.84.56.28.28,0,0,1,.13.55,2.59,2.59,0,0,1-2.35-.69h0a2.46,2.46,0,0,1-1.44.64,2.32,2.32,0,0,1-1.66-.57,3.38,3.38,0,0,1-.67.62l-.24.15a19.23,19.23,0,0,1,.39,7.18.28.28,0,0,1-.28.26m-2.42-10.12h-.05a.57.57,0,0,0-.28.16,1.14,1.14,0,0,0-.33.93,1.48,1.48,0,0,0,.57,1.09,1.93,1.93,0,0,0,1.71.2,8.15,8.15,0,0,0-.94-1.86c-.14-.2-.4-.52-.67-.52m3.46-.7h-.06a.73.73,0,0,0-.43.45,1.48,1.48,0,0,0,.19,1.24,4.81,4.81,0,0,0,.43-1.1c.07-.28.06-.47,0-.55a.13.13,0,0,0-.09,0m3-.27-.08,0a.86.86,0,0,0-.41.59,1.9,1.9,0,0,0,.32,1.35,2.36,2.36,0,0,0,.41-1.54.54.54,0,0,0-.15-.39.14.14,0,0,0-.09,0"/><path class="cls-19" d="M251.77,80a11.8,11.8,0,0,0-.86,7.24c.07.35.61.2.54-.15a11.14,11.14,0,0,1,.81-6.81c.15-.33-.33-.61-.49-.28"/><path class="cls-8" d="M252.27,91.46h-6.85A1.47,1.47,0,0,1,244,90h0a1.47,1.47,0,0,1,1.43-1.5h7.17A1.47,1.47,0,0,1,254,90h0a1,1,0,0,1-.3.86"/><path class="cls-8" d="M252.74,94.33h-7.47a.79.79,0,0,1-.78-.78V92.25a.79.79,0,0,1,.78-.78h7.47a.79.79,0,0,1,.78.78v1.29a.79.79,0,0,1-.78.78"/><path class="cls-19" d="M253.45,65.56a8.06,8.06,0,0,1,4,7.73c0,.36.53.36.56,0a8.61,8.61,0,0,0-4.3-8.21.28.28,0,0,0-.28.49"/><path class="cls-19" d="M257.41,74.7a1.91,1.91,0,0,1-.22,1.26c-.17.32.31.6.49.28a2.54,2.54,0,0,0,.28-1.69c-.06-.36-.6-.2-.54.15"/><path class="cls-19" d="M240.84,68.71A8.31,8.31,0,0,0,239.48,73c0,.36.55.36.56,0a7.72,7.72,0,0,1,1.28-4c.2-.3-.29-.59-.49-.28"/><path class="cls-19" d="M239.53,74.42a2.68,2.68,0,0,0,.38,2c.2.3.68,0,.49-.28a2.1,2.1,0,0,1-.32-1.54c.07-.35-.48-.51-.54-.15"/><path class="cls-12" d="M251.72,88.85h-5.43a3.08,3.08,0,0,1-3.07-3.07l.22-1.79a11.7,11.7,0,1,1,11.14,0l.21,1.74a3.06,3.06,0,0,1-.91,2.23.4.4,0,0,1-.56-.57,2.26,2.26,0,0,0,.68-1.62l-.24-2,.21-.4a10.9,10.9,0,1,0-9.92,0l.21.4-.25,2a2.27,2.27,0,0,0,2.28,2.23h5.43a.4.4,0,1,1,0,.8"/><path class="cls-12" d="M252.27,91.86h-6.85a1.9,1.9,0,0,1,0-3.8h7.17a1.87,1.87,0,0,1,1.83,1.9,1.36,1.36,0,0,1-.37,1.1.4.4,0,1,1-.64-.47c.22-.31.22-.31.22-.63a1.07,1.07,0,0,0-1-1.11h-7.17a1.11,1.11,0,0,0,0,2.21h6.85a.4.4,0,1,1,0,.8"/><path class="cls-12" d="M252.09,94.72h-6.18a1.83,1.83,0,1,1,0-3.66h6.18a1.83,1.83,0,1,1,0,3.66m-6.18-2.86a1,1,0,0,0,0,2.07h6.18a1,1,0,0,0,0-2.07Z"/><path class="cls-12" d="M248.22,59.25V57.47a.28.28,0,0,0-.56,0v1.78a.28.28,0,0,0,.56,0"/><path class="cls-12" d="M261.09,66.08l2-1.34c.3-.2,0-.69-.28-.49l-2,1.34c-.3.2,0,.69.28.49"/><path class="cls-12" d="M234.37,68l1.43,1.43a.28.28,0,0,0,.4-.4l-1.43-1.43a.28.28,0,0,0-.4.4"/><path class="cls-12" d="M239.68,61.35l1.08,1.59c.2.3.69,0,.49-.28l-1.08-1.59c-.2-.3-.69,0-.49.28"/><path class="cls-12" d="M255.79,62.12l1-1.28c.22-.28-.17-.68-.4-.4l-1,1.28c-.22.28.17.68.4.4"/><path class="cls-12" d="M249.19,97c-1.81,0-3.22-1-3.22-2.24a.4.4,0,0,1,.8,0c0,.78,1.11,1.45,2.42,1.45a3.47,3.47,0,0,0,1.57-.35.4.4,0,0,1,.37.71,4.23,4.23,0,0,1-1.93.44"/><path class="cls-2" d="M130.89,274.69h0A32.78,32.78,0,0,1,98.2,242h0a32.78,32.78,0,0,1,32.68-32.68h0A32.78,32.78,0,0,1,163.57,242h0A32.78,32.78,0,0,1,130.89,274.69Z"/><path class="cls-8" d="M145.65,223.87h-32.2s-4.28-.15-4.28,4.16v20l.24,3.18,1.88,2.11,18.29,21.38c.44,0,.88,0,1.32,0h0A32.78,32.78,0,0,0,163.57,242h0a32.48,32.48,0,0,0-.62-6.28Z"/><path class="cls-10" d="M145.35,252.91H110.79a1.7,1.7,0,0,1-1.7-1.7V225.88a1.7,1.7,0,0,1,1.7-1.7h34.56a1.7,1.7,0,0,1,1.7,1.7v25.33a1.7,1.7,0,0,1-1.7,1.7"/><polyline class="cls-9" points="142.08 245.37 138.89 242.26 143.3 241.62 145.27 237.62 147.25 241.62 151.65 242.26 148.46 245.37 149.22 249.76 145.27 247.69 143.24 248.75"/><path class="cls-12" d="M149.22,250.12a.36.36,0,0,1-.17,0l-3.77-2-1.86,1a.36.36,0,0,1-.34-.64l2-1.07a.36.36,0,0,1,.34,0l3.29,1.73-.63-3.67a.36.36,0,0,1,.1-.32l2.66-2.6-3.68-.53a.36.36,0,0,1-.27-.2l-1.65-3.34-1.65,3.34a.36.36,0,0,1-.27.2l-3.68.53,2.66,2.6a.36.36,0,1,1-.51.52l-3.19-3.11a.36.36,0,0,1,.2-.62l4.22-.61,1.89-3.83a.38.38,0,0,1,.65,0l1.89,3.83,4.22.61a.36.36,0,0,1,.2.62l-3.05,3,.72,4.2a.36.36,0,0,1-.36.42Z"/><path class="cls-11" d="M144.13,224.31h-32a2.53,2.53,0,0,0-2.61,2.42v1.62h37.26v-1.62a2.53,2.53,0,0,0-2.61-2.42"/><path class="cls-9" d="M112.64,226.33a.62.62,0,1,1-.62-.62.62.62,0,0,1,.62.62"/><path class="cls-12" d="M112,227.21a.88.88,0,1,1,.89-.88.89.89,0,0,1-.89.88m0-1.24a.36.36,0,1,0,.36.36A.36.36,0,0,0,112,226"/><path class="cls-9" d="M115.52,226.33a.62.62,0,1,1-.62-.62.62.62,0,0,1,.62.62"/><path class="cls-12" d="M114.9,227.21a.88.88,0,1,1,.88-.88.89.89,0,0,1-.88.88m0-1.24a.36.36,0,1,0,.36.36.36.36,0,0,0-.36-.36"/><path class="cls-9" d="M118.4,226.33a.62.62,0,1,1-.62-.62.62.62,0,0,1,.62.62"/><path class="cls-12" d="M144.43,253.24h-5.28a.38.38,0,1,1,0-.75h5.28a2.29,2.29,0,0,0,2.28-2.28l0-1.3a.38.38,0,0,1,.37-.39.37.37,0,0,1,.39.37l0,1.31a3,3,0,0,1-3,3"/><path class="cls-12" d="M132.1,253.24H111.79a3,3,0,0,1-3-3V226.79a3,3,0,0,1,3-3h32.63a3,3,0,0,1,3,3v12.26a.38.38,0,1,1-.75,0V226.79a2.29,2.29,0,0,0-2.28-2.28H111.79a2.29,2.29,0,0,0-2.28,2.28V250.2a2.29,2.29,0,0,0,2.28,2.28H132.1a.38.38,0,1,1,0,.75"/><path class="cls-12" d="M145.77,228.83h0l-36.63-.16a.26.26,0,0,1,0-.53h0l36.63.16a.26.26,0,0,1,0,.53"/><path class="cls-12" d="M117.78,227.21a.88.88,0,1,1,.89-.88.89.89,0,0,1-.89.88m0-1.24a.36.36,0,1,0,.36.36.36.36,0,0,0-.36-.36"/><path class="cls-12" d="M135.91,250.2H133a.26.26,0,1,1,0-.53h2.9a.26.26,0,1,1,0,.53"/><path class="cls-12" d="M120.22,250.27c-3.59,0-7.19,0-10.91-.07a.26.26,0,0,1,0-.53h0c7.44.09,14.37.09,21.8,0h0a.26.26,0,0,1,0,.53c-3.72,0-7.31.07-10.9.07"/><path class="cls-4" d="M117.74,235.54a3.19,3.19,0,1,1-3.19-3.19,3.19,3.19,0,0,1,3.19,3.19"/><path class="cls-12" d="M114.54,239a3.46,3.46,0,1,1,3.46-3.46,3.46,3.46,0,0,1-3.46,3.46m0-6.38a2.93,2.93,0,1,0,2.93,2.93,2.93,2.93,0,0,0-2.93-2.93"/><path class="cls-4" d="M131.3,235.54a3.19,3.19,0,1,1-3.19-3.19,3.19,3.19,0,0,1,3.19,3.19"/><path class="cls-12" d="M128.11,239a3.46,3.46,0,1,1,3.46-3.46,3.46,3.46,0,0,1-3.46,3.46m0-6.38a2.93,2.93,0,1,0,2.93,2.93,2.93,2.93,0,0,0-2.93-2.93"/><path class="cls-4" d="M144.87,235.54a3.19,3.19,0,1,1-3.19-3.19,3.19,3.19,0,0,1,3.19,3.19"/><path class="cls-12" d="M141.68,239a3.46,3.46,0,1,1,3.46-3.46,3.46,3.46,0,0,1-3.46,3.46m0-6.38a2.93,2.93,0,1,0,2.93,2.93,2.93,2.93,0,0,0-2.93-2.93"/><path class="cls-12" d="M124.09,235.69h-.35a.26.26,0,0,1,0-.53h.35a.26.26,0,0,1,0,.53m-1.26,0h-.35a.26.26,0,0,1,0-.53h.35a.26.26,0,0,1,0,.53m-1.26,0h-.35a.26.26,0,0,1,0-.53h.35a.26.26,0,0,1,0,.53m-1.26,0H120a.26.26,0,0,1,0-.53h.35a.26.26,0,0,1,0,.53m-1.26,0h-.35a.26.26,0,0,1,0-.53h.35a.26.26,0,0,1,0,.53"/><path class="cls-12" d="M137.66,235.65h-.36a.26.26,0,0,1,0-.53h.36a.26.26,0,0,1,0,.53m-1.26,0H136a.26.26,0,0,1,0-.53h.36a.26.26,0,0,1,0,.53m-1.26,0h-.36a.26.26,0,0,1,0-.53h.36a.26.26,0,0,1,0,.53m-1.26,0h-.36a.26.26,0,0,1,0-.53h.36a.26.26,0,0,1,0,.53m-1.26,0h-.36a.26.26,0,0,1,0-.53h.36a.26.26,0,0,1,0,.53"/><path class="cls-12" d="M137.51,242.22H118.62a.26.26,0,0,1,0-.53h18.89a.26.26,0,1,1,0,.53"/><path class="cls-12" d="M119.51,244.44a.26.26,0,0,1,0-.53l16.33,0h0a.26.26,0,0,1,0,.53l-16.33,0h0Z"/><path class="cls-11" d="M129.81,259.95h0a1.47,1.47,0,0,1,0-2.07l14.59-14.59a1.46,1.46,0,0,1,2.07,2.07l-14.59,14.59a1.47,1.47,0,0,1-2.07,0"/><path class="cls-12" d="M130.84,260.74a1.81,1.81,0,0,1-1.29-.53h0a1.83,1.83,0,0,1,0-2.58L144.14,243a1.83,1.83,0,1,1,2.58,2.58l-14.59,14.59A1.81,1.81,0,0,1,130.84,260.74Zm14.59-17.52a1.1,1.1,0,0,0-.78.32l-14.59,14.59a1.1,1.1,0,0,0,0,1.56h0a1.13,1.13,0,0,0,1.56,0l14.59-14.59a1.1,1.1,0,0,0-.78-1.88Z"/><path class="cls-12" d="M142.86,249.23a.26.26,0,0,1-.19-.08l-2.07-2.07a.26.26,0,1,1,.37-.37l2.07,2.07a.26.26,0,0,1-.19.45"/><polygon class="cls-9" points="152.01 239.98 150.59 239.5 149.39 240.4 149.41 238.9 148.18 238.03 149.62 237.59 150.06 236.16 150.93 237.38 152.43 237.36 151.53 238.56 152.01 239.98"/><path class="cls-12" d="M149.39,240.58l-.08,0a.18.18,0,0,1-.1-.16l0-1.4-1.15-.81A.18.18,0,0,1,148,238a.18.18,0,0,1,.13-.14l1.34-.42.42-1.34A.18.18,0,0,1,150,236a.18.18,0,0,1,.18.07l.81,1.15,1.4,0a.15.15,0,0,1,.16.1.18.18,0,0,1,0,.19l-.84,1.12.45,1.33a.18.18,0,0,1,0,.19.18.18,0,0,1-.19,0l-1.33-.45-1.12.84A.18.18,0,0,1,149.39,240.58Zm-.8-2.48.92.65a.18.18,0,0,1,.08.15V240l.91-.68a.18.18,0,0,1,.17,0l1.07.36-.36-1.07a.18.18,0,0,1,0-.17l.68-.91h-1.13a.18.18,0,0,1-.15-.08l-.65-.92-.34,1.08a.18.18,0,0,1-.12.12Z"/><path class="cls-18" d="M146.27,243.49a1.29,1.29,0,0,0-1.79.17l-3.3,3.3,1.62,1.62,3.3-3.3a1.29,1.29,0,0,0,.17-1.79"/><path class="cls-20" d="M129.47,363.49c-.49-.61-1-1.16-1.4-1.75-.25-.35-.4-.76-.63-1.12a1.56,1.56,0,0,0-2.21-.74,1.83,1.83,0,0,0-1,2.31,7.92,7.92,0,0,0,3.43,4.37,18.94,18.94,0,0,0,2.44,1.06.87.87,0,0,1,.38.24l-.61.23a6,6,0,0,1-4.9-.57,14.13,14.13,0,0,1-4.13-3.43,1.85,1.85,0,0,0-2.62-.39,1.88,1.88,0,0,0-.32,2.67c2.32,2.75,5,4.92,8.65,5.61a9.88,9.88,0,0,0,4.32-.26l.18,0,0,.15a19.07,19.07,0,0,1-2.36.49,14.53,14.53,0,0,1-9.33-2.8,1.89,1.89,0,0,0-2.23,0,1.79,1.79,0,0,0-.63,2.18,2.52,2.52,0,0,0,.88,1c4.28,2.83,8.86,4.24,14.05,3.05-.24.1-.48.21-.73.3a8.83,8.83,0,0,1-4.81.57,1.85,1.85,0,0,0-2.09,1.44,1.79,1.79,0,0,0,1.33,2.18,13.22,13.22,0,0,0,3.35.16,14.29,14.29,0,0,0,6.28-2.2c1.45-.9,2.95-1.74,4.37-2.69A14.18,14.18,0,0,0,143.8,371a9.13,9.13,0,0,0,.14-10.23,14.34,14.34,0,0,0-9-6.94,10.22,10.22,0,0,0-8.83,1.34,3.37,3.37,0,0,0-1.55,2.21,1.92,1.92,0,0,0,1.15,2,1.74,1.74,0,0,0,2.14-.56A3.48,3.48,0,0,1,131.7,357a4.15,4.15,0,0,1,3.55,3.13,3.12,3.12,0,0,1-2.83,4,3.39,3.39,0,0,1-2.13-.31Z"/><path class="cls-12" d="M127.49,381a14.74,14.74,0,0,1-2.42-.21,2.12,2.12,0,0,1-1.41-.92,2.48,2.48,0,0,1-.36-1.92,2.45,2.45,0,0,1,1.15-1.57,21.17,21.17,0,0,1-7.36-3.22,3.06,3.06,0,0,1-1.08-1.23,2.35,2.35,0,0,1,.8-2.84,2.42,2.42,0,0,1,2.86,0l.25.16a22.89,22.89,0,0,1-2.46-2.52,2.38,2.38,0,0,1-.53-1.79,2.4,2.4,0,0,1,4.3-1.2,13.56,13.56,0,0,0,4,3.3,5.74,5.74,0,0,0,3.74.72,10,10,0,0,1-1.59-.74,8.45,8.45,0,0,1-3.66-4.66,2.36,2.36,0,0,1,1.13-2.9,2.41,2.41,0,0,1-.82-2.13,3.9,3.9,0,0,1,1.78-2.57,10.74,10.74,0,0,1,9.28-1.42,14.88,14.88,0,0,1,9.34,7.2,10.81,10.81,0,0,1,1.49,4,10.65,10.65,0,0,1-1.63,6.75,14.73,14.73,0,0,1-4.81,4.64c-.89.59-1.81,1.14-2.73,1.69l-1.66,1a14.88,14.88,0,0,1-6.51,2.28Q128,381,127.49,381Zm-1.88-3.85a1.34,1.34,0,0,0-1.25,1,1.41,1.41,0,0,0,.2,1.07,1,1,0,0,0,.69.46,12.81,12.81,0,0,0,3.21.15,13.81,13.81,0,0,0,6-2.12c.55-.35,1.12-.68,1.68-1,.9-.54,1.8-1.08,2.68-1.66a13.77,13.77,0,0,0,4.47-4.28,8.6,8.6,0,0,0,.13-9.68,13.82,13.82,0,0,0-8.68-6.68,9.68,9.68,0,0,0-8.37,1.26,2.82,2.82,0,0,0-1.33,1.85,1.39,1.39,0,0,0,.83,1.37,1.21,1.21,0,0,0,1.46-.33,4,4,0,0,1,4.41-2.11,4.68,4.68,0,0,1,4,3.52,3.58,3.58,0,0,1-.47,3,3.84,3.84,0,0,1-2.83,1.64,3.89,3.89,0,0,1-2.46-.38l-.88-.27-.53-.65c-.34-.42-.68-.83-1-1.25a5,5,0,0,1-.4-.7c-.08-.15-.16-.31-.25-.45-.51-.8-1-.8-1.52-.54a1.3,1.3,0,0,0-.73,1.64,7.39,7.39,0,0,0,3.2,4.08,10,10,0,0,0,1.59.72l.78.31a1.38,1.38,0,0,1,.57.38l.53.59-.91.35-.46.17a6.53,6.53,0,0,1-5.32-.61,14.6,14.6,0,0,1-4.28-3.56,1.3,1.3,0,0,0-1.87-.31,1.33,1.33,0,0,0-.51.92,1.31,1.31,0,0,0,.28,1c2.64,3.13,5.29,4.85,8.33,5.43a9.23,9.23,0,0,0,4.09-.25l.67-.13.3,1-.51.27-.72.17a10.77,10.77,0,0,1-1.71.33c-3.2.27-6.28-.65-9.68-2.89a1.35,1.35,0,0,0-1.61-.06,1.25,1.25,0,0,0-.46,1.52,2,2,0,0,0,.68.77c4.61,3.05,9.07,4,13.63,3l.33,1-.23.1-.52.21a9.29,9.29,0,0,1-5.1.59Zm4.18-14.1.68.22a3,3,0,0,0,1.91.28,2.76,2.76,0,0,0,2-1.16,2.47,2.47,0,0,0,.32-2.1,3.61,3.61,0,0,0-3.12-2.74,3,3,0,0,0-3.3,1.57,1.91,1.91,0,0,1-.79.73,3.54,3.54,0,0,1,.38.49c.11.18.21.36.3.55a4,4,0,0,0,.31.55c.3.41.62.8.95,1.2Z"/><path class="cls-20" d="M218,239.11s5.94,32,32,36.31,34.86-36.31,34.86-36.31S251.45,230.39,218,239.11Z"/><path class="cls-21" d="M218,239.11s34.86-8.72,66.82,0l-1,2.6s-25.15-12.76-64.37-1.14Z"/><path class="cls-2" d="M195.53,308.1c-5.81,17.43-49.39,55.2-49.39,55.2l-7.26-8.72,24.69-40.67,5.81-13.07.73-2.18c10.17-59.56,48-59.56,48-59.56,39.16,42.13,67.79,0,67.79,0,41.1,11.62,44,58.1,44,58.1l.73,2.18,5.81,14.53,24.69,40.67-7.26,8.72s-40.67-37.77-49.39-55.2l-.73-2.18L295,281.23l-4.36,108.94L251.62,393l-40.84-4.27L205,281.23l-9.44,26.87"/><path class="cls-12" d="M251.67,393.72l-41-4.27a.73.73,0,0,1-.65-.68l-5.61-103.84-8.23,23.42c-5.81,17.42-47.81,54-49.6,55.51a.75.75,0,0,1-.53.17.73.73,0,0,1-.5-.26l-7.26-8.72a.73.73,0,0,1-.06-.84L163,313.54l5.77-13,.7-2.11c2.9-17,10.14-40,28.09-52.48,10.79-7.49,20.2-7.57,20.6-7.57a.72.72,0,0,1,.53.23c12.21,13.14,24.61,19.32,36.83,18.4,18.09-1.37,29.71-18.14,29.82-18.31a.73.73,0,0,1,.8-.29c40.2,11.37,44.33,56.23,44.52,58.66l.7,2.09,5.79,14.49,24.64,40.56a.73.73,0,0,1-.06.84l-7.26,8.72a.72.72,0,0,1-.51.26.72.72,0,0,1-.54-.19c-1.67-1.54-40.87-38.06-49.54-55.41l-.77-2.27L295.6,285,291.4,390.2a.73.73,0,0,1-.67.7Zm-40.2-5.65,40.22,4.21L290,389.5l4.33-108.3a.73.73,0,0,1,1.41-.21l9.45,26.88c8,15.92,43.71,49.75,48.63,54.37l6.44-7.73-24.43-40.23-5.86-14.63-.74-2.22a.74.74,0,0,1,0-.18c0-.46-3.33-45.74-43-57.31-2,2.7-13.47,17.21-30.59,18.51-12.62,1-25.33-5.3-37.79-18.61-3.59.2-37.52,3.56-47,58.94l-.75,2.29-5.84,13.14-24.47,40.31,6.45,7.75c5.09-4.47,43.29-38.41,48.62-54.39h0L204.28,281a.73.73,0,0,1,1.41.2Z"/><path class="cls-20" d="M235.24,219.15l-.1,18.18a19,19,0,0,0,16.65,8.6c11.58-.27,14.6-9.56,14.6-9.56l.1-18.28"/><path class="cls-22" d="M235.31,219.15c.25,3,.35,6.06.44,9.09s.09,6.06,0,9.09l-.08-.31a18,18,0,0,0,6.54,6.45,17,17,0,0,0,9.05,2A17.68,17.68,0,0,0,260,243a14.83,14.83,0,0,0,5.65-6.83l0,.23c0-3,.15-6.09.26-9.14s.29-6.09.54-9.14h.15c.22,3,.34,6.1.44,9.14s.16,6.1.16,9.14v.13l0,.1a15,15,0,0,1-6.39,7.52,16.85,16.85,0,0,1-9.46,2.18A21.9,21.9,0,0,1,242,243.9a19.27,19.27,0,0,1-7.39-6.26l-.08-.11v-.19c-.05-3,0-6.06.11-9.09s.25-6.06.53-9.09Z"/><path class="cls-12" d="M253,383,178.73,346.6s62.08,18,74.87,18,73.37-18,73.37-18Z"/><path class="cls-10" d="M178.73,451.54l18.37-9.18c5.42-2.64,7.7-7.73,5.07-13.14l-1.95-4c-2.64-5.42-9.51-6.48-14.93-3.85l-19.68,10.49c-10.49,6.56-10.49,14.43-8.49,17.41h0C159.05,452.86,165.61,456.79,178.73,451.54Z"/><path class="cls-23" d="M167.27,454.81c-5.72,0-9.26-2.37-10.79-5.19a8.83,8.83,0,0,1-.87-6.57c.65-3.05,2.85-7.58,9.61-11.81l19.72-10.52a14,14,0,0,1,9-1.16,9.9,9.9,0,0,1,6.91,5.33l1.95,4c2.7,5.55.53,11.23-5.4,14.11L179,452.22A32,32,0,0,1,167.27,454.81Zm23.94-34.09a12.91,12.91,0,0,0-5.6,1.31L166,432.51c-6.29,3.93-8.33,8.08-8.92,10.85a7.4,7.4,0,0,0,.69,5.51c2.13,3.93,8.8,6.76,20.71,2l18.34-9.17c5.24-2.55,7.1-7.33,4.74-12.18l-1.95-4a8.48,8.48,0,0,0-5.93-4.55A11,11,0,0,0,191.2,420.72Z"/><rect class="cls-24" x="177.81" y="421.45" width="17.23" height="25.84" rx="3.94" ry="3.94" transform="translate(-122.55 792.1) rotate(-115.95)"/><path class="cls-10" d="M181.32,443.41a1.15,1.15,0,0,1-1-.66l-4.52-9.48a1.15,1.15,0,1,1,2.08-1l4.52,9.48a1.15,1.15,0,0,1-.54,1.53A1.17,1.17,0,0,1,181.32,443.41Z"/><path class="cls-10" d="M185.88,441.29a1.15,1.15,0,0,1-1-.66l-4.52-9.48a1.15,1.15,0,1,1,2.08-1l4.52,9.48a1.15,1.15,0,0,1-.54,1.53A1.17,1.17,0,0,1,185.88,441.29Z"/><path class="cls-10" d="M324.92,447.61l-18.37-9.18c-5.42-2.64-7.7-7.73-5.07-13.14l1.95-4c2.64-5.42,9.51-6.48,14.93-3.85L338,427.93c10.49,6.56,11.23,13.12,8.49,17.41h0C344.6,448.92,338,452.86,324.92,447.61Z"/><path class="cls-23" d="M336.39,450.88a32,32,0,0,1-11.74-2.6l-.06,0-18.37-9.18c-5.93-2.89-8.1-8.56-5.4-14.11l1.95-4c2.94-6,10.39-6.86,15.9-4.18l19.7,10.51c5.75,3.59,9.1,7.42,10,11.42a9.09,9.09,0,0,1-1.24,7C345.64,448.52,342.1,450.88,336.39,450.88Zm-11.18-3.94c11.91,4.75,18.58,1.92,20.67-1.95a7.7,7.7,0,0,0,1.07-6c-.8-3.55-4-7.18-9.31-10.48L318,418.08c-4.85-2.36-11.4-1.69-13.93,3.52l-1.95,4a8.49,8.49,0,0,0-.47,7,10.12,10.12,0,0,0,5.2,5.15Z"/><rect class="cls-24" x="308.61" y="417.52" width="17.23" height="25.84" rx="3.94" ry="3.94" transform="translate(-208.63 527.28) rotate(-64.05)"/><path class="cls-10" d="M322.32,439.48a1.15,1.15,0,0,1-1-1.65l4.52-9.48a1.15,1.15,0,0,1,2.08,1l-4.52,9.48A1.15,1.15,0,0,1,322.32,439.48Z"/><path class="cls-10" d="M317.77,437.36a1.15,1.15,0,0,1-1-1.65l4.52-9.48a1.15,1.15,0,1,1,2.08,1l-4.52,9.48A1.15,1.15,0,0,1,317.77,437.36Z"/><path class="cls-4" d="M307.91,441.56,167.92,392s-19.94-10.61-10.7-31c9.39-20.75,31.67-9.83,31.67-9.83L321.23,416Z"/><path class="cls-12" d="M307.91,442.28a.72.72,0,0,1-.24,0l-140-49.58c-.3-.15-20.53-11.22-11.12-32,2.72-6,6.76-10,12-11.89,9.79-3.51,20.2,1.49,20.64,1.71l132.35,64.86a.73.73,0,0,1,.32,1l-13.32,25.55A.73.73,0,0,1,307.91,442.28ZM176,349a20.53,20.53,0,0,0-7,1.15c-4.86,1.75-8.62,5.49-11.17,11.12-8.84,19.53,9.59,29.65,10.38,30.07l139.3,49.32,12.69-24.33L188.56,351.79A32.19,32.19,0,0,0,176,349Z"/><g class="cls-3"><path class="cls-12" d="M309.57,439.59,169.71,382.14s-13.41-6.94-13.48-18.95c0,0-4.38,22,15,28.86l134.42,48Z"/></g><path class="cls-4" d="M196.09,448.54,334.66,391.8s19.77-11.83,9.9-31.28c-10.3-20.31-31.91-9-31.91-9L182,419.74Z"/><path class="cls-12" d="M196.09,449.27a.73.73,0,0,1-.65-.41l-14.08-28.8a.73.73,0,0,1,.32-1l130.64-68.23c.42-.22,10.42-5.35,20.25-2.21,5.38,1.72,9.63,5.6,12.64,11.54,5.26,10.36,2.19,18.59-1.3,23.67a31.84,31.84,0,0,1-8.88,8.56l-138.67,56.8A.72.72,0,0,1,196.09,449.27ZM183,420.06l13.47,27.56,137.94-56.49c.69-.42,19-11.67,9.53-30.27-2.83-5.57-6.79-9.21-11.79-10.81-9.26-3-19,2.06-19.13,2.11Z"/><path class="cls-20" d="M370.53,363.49c.49-.61,1-1.16,1.4-1.75.25-.35.4-.76.63-1.12a1.56,1.56,0,0,1,2.21-.74,1.83,1.83,0,0,1,1,2.31,7.92,7.92,0,0,1-3.43,4.37,18.94,18.94,0,0,1-2.44,1.06.87.87,0,0,0-.38.24l.61.23a6,6,0,0,0,4.9-.57,14.13,14.13,0,0,0,4.13-3.43,1.85,1.85,0,0,1,2.62-.39,1.88,1.88,0,0,1,.32,2.67c-2.32,2.75-5,4.92-8.65,5.61a9.88,9.88,0,0,1-4.32-.26l-.18,0,0,.15a19.07,19.07,0,0,0,2.36.49,14.53,14.53,0,0,0,9.33-2.8,1.89,1.89,0,0,1,2.23,0,1.79,1.79,0,0,1,.63,2.18,2.52,2.52,0,0,1-.88,1c-4.28,2.83-8.86,4.24-14.05,3.05.24.1.48.21.73.3a8.83,8.83,0,0,0,4.81.57,1.85,1.85,0,0,1,2.09,1.44,1.79,1.79,0,0,1-1.33,2.18,13.22,13.22,0,0,1-3.35.16,14.29,14.29,0,0,1-6.28-2.2c-1.45-.9-2.95-1.74-4.37-2.69A14.18,14.18,0,0,1,356.2,371a9.13,9.13,0,0,1-.14-10.23,14.34,14.34,0,0,1,9-6.94,10.22,10.22,0,0,1,8.83,1.34,3.37,3.37,0,0,1,1.55,2.21,1.92,1.92,0,0,1-1.15,2,1.74,1.74,0,0,1-2.14-.56A3.48,3.48,0,0,0,368.3,357a4.15,4.15,0,0,0-3.55,3.13,3.12,3.12,0,0,0,2.83,4,3.39,3.39,0,0,0,2.13-.31Z"/><path class="cls-12" d="M372.51,381q-.55,0-1.07,0a14.88,14.88,0,0,1-6.51-2.28l-1.66-1c-.92-.55-1.84-1.1-2.73-1.69a14.72,14.72,0,0,1-4.81-4.64,10.65,10.65,0,0,1-1.63-6.75,10.8,10.8,0,0,1,1.49-4,14.87,14.87,0,0,1,9.34-7.19,10.73,10.73,0,0,1,9.28,1.42,3.9,3.9,0,0,1,1.78,2.57,2.39,2.39,0,0,1-.82,2.13,2.36,2.36,0,0,1,1.13,2.9,8.44,8.44,0,0,1-3.66,4.66,10.1,10.1,0,0,1-1.59.74,5.74,5.74,0,0,0,3.74-.72,13.59,13.59,0,0,0,4-3.3,2.38,2.38,0,0,1,3.37-.46,2.41,2.41,0,0,1,.93,1.66,2.39,2.39,0,0,1-.53,1.79,22.82,22.82,0,0,1-2.46,2.52l.25-.16a2.41,2.41,0,0,1,2.86,0,2.35,2.35,0,0,1,.8,2.85,3,3,0,0,1-1.08,1.23,21.18,21.18,0,0,1-7.36,3.22,2.45,2.45,0,0,1,1.15,1.57,2.48,2.48,0,0,1-.36,1.92,2.12,2.12,0,0,1-1.41.92A14.73,14.73,0,0,1,372.51,381Zm-4.28-27a11.51,11.51,0,0,0-3,.42,13.82,13.82,0,0,0-8.68,6.68,9.83,9.83,0,0,0-1.35,3.61,9.62,9.62,0,0,0,1.49,6.07,13.75,13.75,0,0,0,4.47,4.28c.87.58,1.77,1.12,2.68,1.66.56.33,1.12.67,1.68,1a13.8,13.8,0,0,0,6,2.12,12.68,12.68,0,0,0,3.21-.15,1,1,0,0,0,.69-.46,1.4,1.4,0,0,0,.2-1.07,1.31,1.31,0,0,0-1.45-1,9.32,9.32,0,0,1-5.1-.59l-.51-.21-.24-.1.33-1c4.56,1.05,9,.08,13.63-3a1.94,1.94,0,0,0,.68-.77,1.25,1.25,0,0,0-.46-1.52,1.34,1.34,0,0,0-1.61.06c-3.4,2.24-6.48,3.16-9.68,2.89a10.78,10.78,0,0,1-1.71-.33l-.72-.17-.54-.11.27-1.21.73.16a9.19,9.19,0,0,0,4.08.25c3-.58,5.69-2.3,8.34-5.43a1.33,1.33,0,0,0-.24-1.89,1.3,1.3,0,0,0-1.87.31A14.61,14.61,0,0,1,375.3,368a6.55,6.55,0,0,1-5.32.6l-.45-.17-.93-.35.54-.59a1.34,1.34,0,0,1,.54-.37l.81-.32a10,10,0,0,0,1.59-.72,7.38,7.38,0,0,0,3.2-4.08,1.29,1.29,0,0,0-.72-1.64c-.56-.26-1-.27-1.52.54-.09.14-.17.3-.25.45a5.08,5.08,0,0,1-.41.7c-.3.42-.64.83-1,1.24l-.53.66-1,.32a3.73,3.73,0,0,1-2.35.33,3.84,3.84,0,0,1-2.83-1.64,3.58,3.58,0,0,1-.47-3,4.68,4.68,0,0,1,4-3.52,4,4,0,0,1,4.41,2.11,1.21,1.21,0,0,0,1.46.33,1.39,1.39,0,0,0,.83-1.37,2.82,2.82,0,0,0-1.32-1.85A9.28,9.28,0,0,0,368.23,354Zm.83,3.48a4.24,4.24,0,0,0-.67.06,3.61,3.61,0,0,0-3.12,2.74,2.46,2.46,0,0,0,.32,2.1,2.76,2.76,0,0,0,2,1.16,2.88,2.88,0,0,0,1.8-.23l.79-.27.34-.41c.33-.4.65-.79.94-1.19a4,4,0,0,0,.31-.55c.1-.19.19-.37.3-.55a3.43,3.43,0,0,1,.38-.49,1.9,1.9,0,0,1-.79-.73A2.89,2.89,0,0,0,369.05,357.46Z"/><g class="cls-3"><path class="cls-12" d="M194.62,446.43l135.28-62.07s12.61-10.24,12-22.24c0,0,7,24.51-12,32.4L196.78,446.78Z"/></g><path class="cls-20" d="M219.91,169.25s-10.19,31.47,17.28,51.85c3.55,3.1,13.73,10.19,24.37,1.33,13.13-10.93,19.52-20.26,20-43.59,0,0-.45-22-28.37-29.09C231.87,146.21,219.91,169.25,219.91,169.25Z"/><path class="cls-12" d="M250.65,227.43c-6.6,0-11.93-4-13.93-5.78-27.53-20.42-17.6-52.3-17.5-52.62l0-.11c.12-.23,12.46-23.46,34-19.88,14.73,3.74,21.81,11.61,25.17,17.57a28.35,28.35,0,0,1,3.81,12.23c-.44,23.62-6.87,33.05-20.21,44.16A17.5,17.5,0,0,1,250.65,227.43Zm-30.07-57.9c-.46,1.52-9.13,31.57,17,51,3.71,3.24,13.33,9.79,23.48,1.35,13-10.82,19.26-20,19.69-43,0-.19-.8-21.51-27.83-28.38C233,147.14,221.24,168.3,220.58,169.53Z"/><path class="cls-4" d="M251.67,134.52c-32.06,1.35-44.36,33.38-46.65,61.15-.83,10-.05,20.19,7.21,30.36,12,16.84,29.45,22.43,27.6,5.81-.73-6.54-6.34-9.84-11.62-18.88-10.17-17.43-10.17-32-1.45-45,18.72-28.07,40.89,23.07,53.75,4.36,2.91,43.58-18.12,41.83-18.88,56.65-1.07,20.64,18.7,11.72,28-.6C312.79,197.68,285.5,134.24,251.67,134.52Z"/><path class="cls-12" d="M233.82,242.58c-6.25,0-15.2-6.36-22.18-16.13-7.81-10.93-8.09-21.72-7.34-30.84,1.16-14.08,8-60.16,47.34-61.82h.25c14.45,0,28.73,11.27,38.26,30.21,9.75,19.38,13.54,46.92.05,64.77-6.12,8.1-17.16,15.13-23.86,12.69-2.73-1-5.89-4-5.45-12.57.28-5.49,3.22-8.81,6.62-12.67,6.15-7,13.76-15.59,12.38-42a8.49,8.49,0,0,1-5,2.89c-5.07.84-10.73-3.4-16.73-7.89-6.7-5-13.62-10.2-20.35-9-3.84.66-7.26,3.32-10.47,8.13-8.74,13.1-8.25,27.58,1.48,44.26a67.45,67.45,0,0,0,6.07,8.55c2.9,3.62,5.19,6.48,5.65,10.62.78,7-1.78,9.48-4.05,10.36A7.47,7.47,0,0,1,233.82,242.58Zm17.87-107.33c-38.14,1.62-44.81,46.71-45.94,60.49-.73,8.85-.46,19.33,7.08,29.88C219.3,234.68,230,243,236,240.76c3.26-1.25,3.5-5.49,3.13-8.84-.41-3.73-2.48-6.31-5.34-9.88a68.8,68.8,0,0,1-6.19-8.72c-10-17.21-10.5-32.19-1.43-45.8,3.44-5.16,7.18-8,11.43-8.76,7.35-1.26,14.52,4.12,21.46,9.32,5.74,4.3,11.15,8.36,15.62,7.62,2-.33,3.69-1.58,5.24-3.83a.73.73,0,0,1,1.32.36c1.9,28.5-6.49,38-12.62,45-3.35,3.8-6,6.8-6.26,11.78-.32,6.1,1.24,9.95,4.49,11.13,6,2.18,16.52-4.68,22.21-12.2,13.11-17.35,9.35-44.27-.19-63.24-9.14-18.16-23.28-29.41-37-29.41Z"/><circle class="cls-12" cx="239.07" cy="188.55" r="1.84" transform="matrix(0.04, -1, 1, 0.04, 42.21, 420.83)"/><circle class="cls-12" cx="262.48" cy="188.55" r="1.84" transform="translate(64.79 444.22) rotate(-87.98)"/><path class="cls-10" d="M244.87,210.78h14.51S252.09,219.5,244.87,210.78Z"/><path class="cls-12" d="M251.84,215.38h0c-2.72,0-5.24-1.4-7.51-4.14a.73.73,0,0,1,.56-1.19h14.51a.73.73,0,0,1,.56,1.19C259.79,211.41,256.42,215.38,251.84,215.38Zm-5.31-3.87a7.65,7.65,0,0,0,5.29,2.42h0a9.34,9.34,0,0,0,5.75-2.42Z"/><path class="cls-12" d="M251.61,202.39c-3,0-5.05-3.43-5.14-3.58a.73.73,0,0,1,1.24-.75s1.76,2.88,3.9,2.88h0c1.23,0,2.43-1,3.57-2.88a.73.73,0,0,1,1.25.75C255,201.18,253.39,202.39,251.61,202.39Z"/><path class="cls-12" d="M245.61,183.18a.72.72,0,0,1-.45-.16c-6.68-5.34-11.89-.27-12.11-.05a.73.73,0,1,1-1-1c.06-.06,6.36-6.2,14-.05a.73.73,0,0,1-.45,1.29Z"/><path class="cls-12" d="M269,183.18a.72.72,0,0,1-.45-.16c-6.67-5.34-11.89-.27-12.11-.05a.73.73,0,1,1-1-1c.06-.06,6.36-6.2,14-.05a.73.73,0,0,1-.45,1.29Z"/><path class="cls-21" d="M241.28,227.48s4.36,10.17.73,12.35C242,239.83,248.55,239.11,241.28,227.48Z"/><path class="cls-12" d="M274.12,171.65c-2.59,0-6-1.47-10.1-4.4a71.65,71.65,0,0,1-8.08-6.8.73.73,0,1,1,1-1c3.92,3.92,15,13.37,19.39,10.1a.73.73,0,1,1,.87,1.16A5,5,0,0,1,274.12,171.65Z"/><path class="cls-12" d="M281.14,228.94a.73.73,0,0,1-.32-1.38c8.28-4.14,9.76-13.88,9.77-14a.73.73,0,0,1,1.44.21c-.06.43-1.61,10.6-10.56,15.07A.73.73,0,0,1,281.14,228.94Z"/><g class="cls-3"><polygon class="cls-12" points="207.04 405.79 252.81 382.91 251.36 381.46 203.43 404.7 207.04 405.79"/></g><g class="cls-3"><polygon class="cls-12" points="302.2 406.15 264.44 426.49 258.63 423.58 300.75 406.15 302.2 406.15"/></g></svg>