<svg id="Layer_1" data-name="Layer 1" xmlns="http://www.w3.org/2000/svg" viewBox="0 0 500 500"><defs><style>.cls-1{fill:#caedff;}.cls-1,.cls-2{opacity:0.4;}.cls-3{fill:#0aa5e3;}.cls-4{fill:#32b475;}.cls-5{fill:#e3b462;}.cls-6{fill:#cdebfc;}.cls-7{fill:#b7d1e5;}.cls-8{fill:#3273ad;}.cls-9{fill:#e8e8e8;}.cls-10{fill:#fff;}.cls-11{fill:#ffdfca;}.cls-12{fill:#0f3356;}.cls-13{fill:#e97b70;}.cls-14{opacity:0.3;}.cls-15{fill:#f2cbb6;}</style></defs><title>programmer-icon</title><path class="cls-1" d="M209.1,417.21A482.25,482.25,0,0,1,118,400.43c-38.61-11.06-96.83-30.36-111.24-72.8-24.11-71,65.63-24.11,79-52.23s-41.52-38.84-33.48-69.65,72.32,8,81.7-13.39-9.38-54.91,46.88-44.2c35.4,6.74,31.83-5.78,54.91-33.48,26.79-32.14,42.93-29.29,71,45.54,20.09,53.57,52.23-34.82,101.79-20.09s13.39,67,14.73,96.43,59.53,3.92,72.32,53.57c8.64,33.51-15.79,56.23-41.52,75-49.56,36.16-116.26,49.55-173,53A490.21,490.21,0,0,1,209.1,417.21Z"/><g class="cls-2"><path class="cls-3" d="M105.71,156.61a8.22,8.22,0,1,1,7.44,8.93A8.23,8.23,0,0,1,105.71,156.61Zm2.17.2a6,6,0,1,0,6.56-5.47A6,6,0,0,0,107.88,156.81Z"/><path class="cls-4" d="M134.2,220.74a5.2,5.2,0,1,1,4.71,5.65A5.2,5.2,0,0,1,134.2,220.74Zm1.37.12a3.82,3.82,0,1,0,4.15-3.46A3.82,3.82,0,0,0,135.57,220.87Z"/><path class="cls-4" d="M110.7,253.66a4.95,4.95,0,1,1,4.48,5.37A5,5,0,0,1,110.7,253.66Zm2.17.2a2.77,2.77,0,1,0,3-2.51A2.77,2.77,0,0,0,112.87,253.86Z"/><path class="cls-5" d="M103.93,192.56a6.34,6.34,0,1,1,5.74,6.89A6.35,6.35,0,0,1,103.93,192.56Zm2.78.25a3.55,3.55,0,1,0,3.85-3.21A3.55,3.55,0,0,0,106.71,192.81Z"/><path class="cls-3" d="M77.47,244.16a8.22,8.22,0,1,1,7.44,8.93A8.23,8.23,0,0,1,77.47,244.16Zm2.17.2a6,6,0,1,0,6.56-5.47A6,6,0,0,0,79.64,244.36Z"/><path class="cls-5" d="M164.86,190.71a7.63,7.63,0,1,1,6.91,8.28A7.64,7.64,0,0,1,164.86,190.71Zm2.17.2A5.45,5.45,0,1,0,173,186,5.45,5.45,0,0,0,167,190.91Z"/><path class="cls-4" d="M385.78,154.37a8.22,8.22,0,1,1,7.44,8.93A8.23,8.23,0,0,1,385.78,154.37Zm2.17.2a6,6,0,1,0,6.56-5.47A6,6,0,0,0,388,154.56Z"/><path class="cls-4" d="M334.26,260.12a4.95,4.95,0,1,1,4.48,5.37A5,5,0,0,1,334.26,260.12Zm2.17.2a2.77,2.77,0,1,0,3-2.51A2.77,2.77,0,0,0,336.43,260.31Z"/><path class="cls-5" d="M356.89,189.08a6.9,6.9,0,1,1,5.92,7.76A6.91,6.91,0,0,1,356.89,189.08Zm2.16.29a4.72,4.72,0,1,0,5.31-4.05A4.73,4.73,0,0,0,359,189.37Z"/><path class="cls-5" d="M310,219.74a8.22,8.22,0,1,1,7.44,8.93A8.23,8.23,0,0,1,310,219.74Zm2.17.2a6,6,0,1,0,6.56-5.47A6,6,0,0,0,312.16,219.93Z"/><path class="cls-3" d="M406.7,207.3a7.63,7.63,0,1,1,6.91,8.28A7.63,7.63,0,0,1,406.7,207.3Zm2.17.2a5.45,5.45,0,1,0,5.92-4.93A5.45,5.45,0,0,0,408.87,207.49Z"/><path class="cls-4" d="M300.06,148.68a4.95,4.95,0,1,1,4.48,5.37A5,5,0,0,1,300.06,148.68Zm2.17.2a2.77,2.77,0,1,0,3-2.51A2.77,2.77,0,0,0,302.23,148.88Z"/><path class="cls-4" d="M388.05,255.85a4.95,4.95,0,1,1,4.48,5.37A5,5,0,0,1,388.05,255.85Zm2.17.2a2.77,2.77,0,1,0,3-2.51A2.77,2.77,0,0,0,390.22,256Z"/><path class="cls-4" d="M365.08,229.5a4.95,4.95,0,1,1,4.48,5.37A5,5,0,0,1,365.08,229.5Zm2.17.2a2.77,2.77,0,1,0,3-2.51A2.77,2.77,0,0,0,367.25,229.7Z"/></g><path class="cls-6" d="M338.7,189.32h8.44a.69.69,0,0,0,.69-.71,6.21,6.21,0,0,1,1.66-4.74c2.57-2.64,7.24-2.62,7.28-2.63a.77.77,0,0,0,.52-.24.69.69,0,0,0,.16-.55c-.16-1.09-.12-6.27,3-9.82,2.06-2.36,5.12-3.53,8.92-3.53a10.45,10.45,0,0,1,7.85,3c3.48,3.65,3.28,9.44,3.28,9.5a.69.69,0,0,0,.27.58.7.7,0,0,0,.63.1c3.17-1.06,5.91-.93,8.15.37,4.13,2.4,5.28,8,5.3,8.11a.69.69,0,0,0,.68.56H412.1a.69.69,0,0,0,0-1.38h-16c-.42-1.6-1.92-6.2-5.82-8.47a10.58,10.58,0,0,0-8.39-.77c-.08-1.94-.62-6.37-3.64-9.55a11.77,11.77,0,0,0-8.85-3.43c-4.24,0-7.64,1.32-10,4-3,3.43-3.42,8.11-3.36,10.16-1.56.11-5.2.62-7.53,3a7.35,7.35,0,0,0-2.05,5H338.7a.69.69,0,0,0,0,1.38Z"/><path class="cls-7" d="M255.09,226.68s59.56-4.36,60.63,64.84l1.84,19.41L288.5,357.42H198.44l-32-46.48,2.35-20.69s2-63.56,63-63.56Z"/><path class="cls-8" d="M288.9,358.14H198.05l-32.33-47,2.38-21c0-.58,2.73-64.2,63.73-64.2h23.22c1-.07,24.64-1.32,42.18,14.72,12.39,11.34,18.85,28.44,19.2,50.83l1.86,19.6Zm-90.08-1.45h89.28l28.71-45.93L315,291.59c-.34-22-6.64-38.78-18.73-49.84-17.36-15.88-40.89-14.36-41.12-14.34H231.84c-59.61,0-62.27,62.23-62.29,62.86l-2.33,20.48Z"/><path class="cls-9" d="M292,357.78l-98-1.07c-1.94,0-3.9-2-4.34-4.45l-10.3-58.61a3.61,3.61,0,0,1,3.68-4.37l123.21.6c2.42,0,3.41,2.5,2.87,4.92l-12.7,58.61C295.93,355.83,293.94,357.8,292,357.78Z"/><path class="cls-8" d="M292,358.87h0l-98-1.07c-2.48,0-4.86-2.37-5.4-5.34l-10.3-58.62a4.84,4.84,0,0,1,1-4,4.66,4.66,0,0,1,3.73-1.63l123.21.6a3.87,3.87,0,0,1,3.06,1.46,5.74,5.74,0,0,1,.86,4.79l-12.7,58.6C296.89,356.58,294.5,358.87,292,358.87Zm-109-68.5a2.6,2.6,0,0,0-2,.87,2.69,2.69,0,0,0-.55,2.24l10.3,58.6c.34,1.87,1.88,3.53,3.28,3.55l98,1.07h0c1.38,0,2.93-1.63,3.33-3.51l12.7-58.62a3.63,3.63,0,0,0-.44-3,1.66,1.66,0,0,0-1.37-.64l-123.21-.6Z"/><path class="cls-10" d="M257.61,323.35c-.06,4.51-5.85,8.14-13,8.09s-12.81-3.75-12.75-8.26,5.85-8.14,13-8.09S257.66,318.83,257.61,323.35Z"/><path class="cls-11" d="M230.45,216.89s3.39,6.67-1.22,15.92c0,0,2.53,5.62,13.62,5.62s13.91-5.62,13.91-5.62-4.83-12.29-1.1-18.26Z"/><path class="cls-8" d="M242.86,239.13c-11.42,0-14.15-5.79-14.26-6a.7.7,0,0,1,0-.6c4.4-8.83,1.26-15.22,1.22-15.29a.7.7,0,0,1,.56-1l25.21-2.34a.69.69,0,0,1,.66.33.7.7,0,0,1,0,.74c-3.5,5.61,1.11,17.51,1.16,17.63a.7.7,0,0,1,0,.57C257.27,233.37,254.25,239.13,242.86,239.13ZM230,232.79c.68,1.06,3.78,4.94,12.83,4.94,9.2,0,12.44-4,13.13-5-.71-1.92-4-11.47-1.53-17.38l-23,2.14C232.23,219.67,233.59,225.39,230,232.79Z"/><path class="cls-10" d="M300.1,413.82h28.73A16.16,16.16,0,0,1,345,430v0a19,19,0,0,1-19,19H300.1a14.61,14.61,0,0,1-14.61-14.61v-5.93a14.61,14.61,0,0,1,14.61-14.61Z" transform="translate(233.92 -96.68) rotate(27.4)"/><path class="cls-12" d="M325.4,454.78a19.58,19.58,0,0,1-9-2.21l-23-11.92A15.35,15.35,0,0,1,286.84,420l2.73-5.26a15.33,15.33,0,0,1,20.64-6.55l25.51,13.22a16.91,16.91,0,0,1,7.21,22.72A19.72,19.72,0,0,1,325.4,454.78ZM317,451.32a18.35,18.35,0,0,0,24.66-7.82,15.5,15.5,0,0,0-6.61-20.83l-25.51-13.22a14,14,0,0,0-18.75,5.95l-2.73,5.26A14,14,0,0,0,294,439.41Z"/><rect class="cls-13" x="295.84" y="411.29" width="27.51" height="34.46" rx="3.89" ry="3.89" transform="translate(-213.34 506.15) rotate(-62.6)"/><path class="cls-10" d="M313.17,442.17a1.06,1.06,0,0,1-.94-1.53l8.15-16a1.06,1.06,0,0,1,1.88,1l-8.15,16A1.06,1.06,0,0,1,313.17,442.17Z"/><path class="cls-10" d="M307.16,439.2a1.06,1.06,0,0,1-.94-1.53l8.15-16a1.06,1.06,0,1,1,1.88,1l-8.15,16A1.06,1.06,0,0,1,307.16,439.2Z"/><path class="cls-10" d="M301.15,436.24a1.06,1.06,0,0,1-.94-1.53l8.15-16a1.06,1.06,0,0,1,1.88,1l-8.15,16A1.06,1.06,0,0,1,301.15,436.24Z"/><polygon class="cls-8" points="193.28 357.45 303.04 357.45 244.6 385.55 193.28 357.45"/><path class="cls-3" d="M286.93,449.1,162.78,382.3a24,24,0,0,1-12.09-31.56h0a24,24,0,0,1,31.56-12.09l127.16,65Z"/><path class="cls-8" d="M286.93,449.83a.74.74,0,0,1-.34-.09l-124.15-66.8A24.62,24.62,0,0,1,182.54,338l127.2,65a.73.73,0,0,1,.32,1l-22.48,45.45a.73.73,0,0,1-.43.37A.74.74,0,0,1,286.93,449.83ZM172.58,337.31a23.35,23.35,0,0,0-8.35,1.56,23.17,23.17,0,0,0-1.16,42.77l123.54,66.47L308.43,404,181.91,339.3A22.87,22.87,0,0,0,172.58,337.31Z"/><g class="cls-2"><polygon class="cls-8" points="191.9 397.36 244.19 371.21 242.74 369.76 186.09 395.91 191.9 397.36"/></g><g class="cls-14"><path class="cls-8" d="M294.07,437.17,165.5,368.65s-15-9.87-12.55-18.46c0,0-8.64,20.66,11.64,31.63s122.76,67.25,122.76,67.25Z"/></g><path class="cls-10" d="M159.27,413.81h25.89a19,19,0,0,1,19,19v0A16.16,16.16,0,0,1,188,449H159.27a14.61,14.61,0,0,1-14.61-14.61v-5.93A14.61,14.61,0,0,1,159.27,413.81Z" transform="translate(520.02 742.94) rotate(154.05)"/><path class="cls-12" d="M164.17,454.51a19.84,19.84,0,0,1-6.48-1.1,19.55,19.55,0,0,1-11.29-10,16.9,16.9,0,0,1,7.78-22.53L180,408.33a15.35,15.35,0,0,1,20.47,7.07l2.6,5.33A15.35,15.35,0,0,1,196,441.19l-23.28,11.33A19.51,19.51,0,0,1,164.17,454.51Zm22.5-46.32a13.78,13.78,0,0,0-6,1.4L154.8,422.16a15.5,15.5,0,0,0-7.13,20.66,18.35,18.35,0,0,0,24.45,8.44l23.28-11.33a14,14,0,0,0,6.42-18.59l-2.6-5.33a13.81,13.81,0,0,0-8-7A14,14,0,0,0,186.67,408.19Z"/><rect class="cls-13" x="167.43" y="411.25" width="26.51" height="34.46" rx="3.82" ry="3.82" transform="translate(-125.51 778.47) rotate(-115.95)"/><path class="cls-10" d="M176.15,442a1,1,0,0,1-.88-.56l-8.21-17.21a1,1,0,1,1,1.76-.84L177,440.56a1,1,0,0,1-.88,1.4Z"/><path class="cls-10" d="M182.23,439.15a1,1,0,0,1-.88-.56l-8.21-17.21a1,1,0,1,1,1.76-.84l8.21,17.21a1,1,0,0,1-.88,1.4Z"/><path class="cls-10" d="M188.32,436.34a1,1,0,0,1-.88-.56l-8.21-17.21a1,1,0,1,1,1.76-.84l8.21,17.21a1,1,0,0,1-.88,1.4Z"/><path class="cls-3" d="M202.7,449.1l124.15-66.8a24,24,0,0,0,12.09-31.56h0a24,24,0,0,0-31.56-12.09l-127.16,65Z"/><path class="cls-8" d="M202.7,449.83a.72.72,0,0,1-.65-.4L179.57,404a.73.73,0,0,1,.32-1l127.16-65a24.62,24.62,0,0,1,20.09,45L203,449.74A.73.73,0,0,1,202.7,449.83ZM181.19,404,203,448.11,326.5,381.66a23.17,23.17,0,1,0-18.82-42.34Z"/><g class="cls-14"><path class="cls-8" d="M199.12,441.87,328.45,371.5s12.22-8.87,10.49-20.76c0,0,7.62,21.08-10.53,30.78L202.7,449.1Z"/></g><rect class="cls-8" x="191.17" y="273.89" width="1.45" height="14.53"/><rect class="cls-8" x="295.76" y="273.89" width="1.45" height="14.53"/><polygon class="cls-8" points="244.92 255.28 216.09 227.94 217.09 226.88 244.92 253.28 271.29 228.33 272.29 229.39 244.92 255.28"/><rect class="cls-8" x="244.19" y="254.28" width="1.45" height="36.31"/><path class="cls-11" d="M208.78,177.5a2,2,0,0,0-2.15-1,4,4,0,0,0-2.17,1.22c-2,2.07-2.57,5-2.49,7.82a7.78,7.78,0,0,0,.87,3.75,4.07,4.07,0,0,0,3.35,2.07c1.69,0,3.05-1.19,4.21-2.31"/><path class="cls-8" d="M206.21,192.1h0a4.78,4.78,0,0,1-4-2.42,8.54,8.54,0,0,1-1-4.09c-.11-3.62.8-6.43,2.69-8.34a4.59,4.59,0,0,1,2.57-1.42,2.74,2.74,0,0,1,2.9,1.4.7.7,0,1,1-1.29.55,1.37,1.37,0,0,0-1.41-.56,3.23,3.23,0,0,0-1.77,1c-1.61,1.63-2.38,4.09-2.29,7.31a7.15,7.15,0,0,0,.77,3.42,3.35,3.35,0,0,0,2.75,1.72h0c1.39,0,2.59-1,3.7-2.12a.7.7,0,0,1,1,1C209.63,190.81,208.13,192.1,206.21,192.1Z"/><path class="cls-11" d="M271.34,179.3c.08-2.78,3.14-2.9,4.12-2.78a4.72,4.72,0,0,1,2.48,1.23c2.34,2.07,2.95,5,2.85,7.82a7,7,0,0,1-1,3.76A4.78,4.78,0,0,1,276,191.4c-1.94,0-3.5-1.19-4.82-2.31"/><path class="cls-8" d="M275.93,192.1c-2.13,0-3.83-1.28-5.25-2.48a.7.7,0,0,1,.91-1.07c1.3,1.09,2.64,2.18,4.37,2.15a4.06,4.06,0,0,0,3.26-1.76,6.34,6.34,0,0,0,.87-3.39c.11-3.2-.77-5.65-2.61-7.27a4,4,0,0,0-2.11-1.06,3.85,3.85,0,0,0-2.69.64,1.88,1.88,0,0,0-.63,1.47.7.7,0,0,1-1.4,0,3.3,3.3,0,0,1,1.12-2.49,5.24,5.24,0,0,1,3.78-1,5.37,5.37,0,0,1,2.86,1.4c2.17,1.91,3.21,4.73,3.09,8.38a7.72,7.72,0,0,1-1.11,4.12A5.5,5.5,0,0,1,276,192.1Z"/><path class="cls-11" d="M259.44,149.7c-45-21.79-49.42,16.61-49.42,16.61-1.22,4.61-1.23,7.41-1.23,12.58,0,17.3,11.32,32.26,21.61,39.43,4.15,2.89,8.13,4.51,11.15,4.51,11.36,0,27.11-14.24,31.55-33.44h0S272.78,156.15,259.44,149.7Z"/><path class="cls-8" d="M241.55,223.53c-3.15,0-7.25-1.64-11.55-4.63-10.91-7.59-21.92-22.9-21.92-40,0-5.18,0-8,1.26-12.76,0-.49,1.77-14.49,13.31-20.84,9.1-5,21.58-3.74,37.1,3.77,13.57,6.57,14,38.94,14.05,40.31a.65.65,0,0,1,0,.17C269.15,209.57,253.08,223.53,241.55,223.53Zm-6.39-79.83a24.16,24.16,0,0,0-11.82,2.82c-10.9,6-12.6,19.73-12.62,19.87-1.23,4.65-1.23,7.44-1.23,12.5,0,16.59,10.7,31.47,21.31,38.85,4.06,2.83,7.88,4.38,10.74,4.38,11,0,26.46-14,30.85-32.81,0-1.83-.79-32.95-13.26-39C250,145.91,242,143.7,235.16,143.7Z"/><path class="cls-3" d="M274.49,141.17c-3.1-2.9-7.61-1.62-11.37-.2.6-1.27,2.81-5.15,3.41-6.43-2.5-2.19-7.66,0-10.48,1.51.79-1.8,2.31-5.52,4-5.87-3.32-7-11.28-6.59-18.08-5.79a38.92,38.92,0,0,0-23.23,11.85c-2.34-2.06-5.88-1-7.9,1.41s-2.86,5.89-3.45,9.22c-1.38,7.8-1.18,21.15-.66,29.11l2.92,0c0-12.75,7.1-26.41,20-30.12,1-.28,3,2.27,2.6,3,1.06,4.78,6.89,6.34,10.82,8.27s12.41,6.42,14-.11a1,1,0,0,1,1.72-.45c2,1.6,2.88,3.75,4.55,5.67,1.47,1.69,3.24,3.07,4.67,4.82a18.83,18.83,0,0,1,4.18,8.44l4.71,0c5.61-16.15-.2-32.11-2.47-34.24"/><path class="cls-8" d="M206.74,176.7A.73.73,0,0,1,206,176c-.45-6.93-.81-20.9.67-29.28.61-3.44,1.47-7,3.6-9.56a7.54,7.54,0,0,1,5.05-2.76,5.16,5.16,0,0,1,3.34.84,39.56,39.56,0,0,1,23.21-11.6c7.29-.85,15.35-1.14,18.82,6.2a.73.73,0,0,1-.51,1c-.9.19-1.93,2-2.67,3.6,3-1.38,7.1-2.56,9.46-.5a.73.73,0,0,1,.18.86c-.3.65-1,1.89-1.7,3.21l-.87,1.61c3.66-1.19,7.53-1.7,10.38,1s8.15,19.18,2.66,35a.73.73,0,0,1-.68.49l-4.71,0h0a.72.72,0,0,1-.71-.59,18.13,18.13,0,0,0-4-8.12,29.72,29.72,0,0,0-2.44-2.55c-.74-.71-1.51-1.45-2.21-2.26a23.8,23.8,0,0,1-1.74-2.35,13.45,13.45,0,0,0-2.71-3.22.5.5,0,0,0-.44-.1s-.1,0-.13.16a4.87,4.87,0,0,1-2.62,3.49c-3.37,1.57-8.72-1.08-11.92-2.66l-.5-.25c-.71-.35-1.49-.69-2.28-1-3.74-1.63-8-3.47-8.92-7.73a.73.73,0,0,1,.07-.5c-.05-.41-1.32-1.89-1.8-1.92-9.39,2.7-19.52,13.05-19.46,29.41a.73.73,0,0,1-.72.73l-2.92,0ZM277,175.4h0ZM215.8,135.86h-.34a6.08,6.08,0,0,0-4,2.24c-1.92,2.32-2.72,5.64-3.29,8.89-1.41,8-1.12,21.18-.7,28.25h1.52c.24-16.69,10.75-27.29,20.55-30.09,1.08-.31,2.2.9,2.63,1.43a3.29,3.29,0,0,1,.92,2.25c.88,3.42,4.68,5.07,8,6.54.82.36,1.61.7,2.34,1.06l.5.25c3,1.46,7.92,3.91,10.67,2.64a3.45,3.45,0,0,0,1.82-2.52,1.64,1.64,0,0,1,1.07-1.19,1.93,1.93,0,0,1,1.81.33,14.74,14.74,0,0,1,3,3.55,22.77,22.77,0,0,0,1.64,2.22c.66.76,1.4,1.47,2.12,2.17a30.55,30.55,0,0,1,2.56,2.67,19.78,19.78,0,0,1,4.21,8.17l3.6,0c5.29-15.86-.39-31.06-2.45-33h0c-2.72-2.55-6.71-1.53-10.61-.05a.73.73,0,0,1-.91-1c.31-.66,1-1.94,1.74-3.29.52-.95,1-1.92,1.39-2.59-2.56-1.44-7.64,1.07-9.2,1.91a.73.73,0,0,1-1-.93l.13-.3c1-2.37,2.14-4.71,3.56-5.63-3.23-5.79-10.16-5.52-17-4.72a38.2,38.2,0,0,0-22.79,11.63.73.73,0,0,1-1,0A3.67,3.67,0,0,0,215.8,135.86Z"/><path class="cls-8" d="M215.19,140.11c-5.72,1.18-6.14,11.7-6.09,16.1a1,1,0,0,0,2.06,0c0-3,.15-13.2,4.58-14.12,1.3-.27.75-2.25-.55-2"/><path class="cls-8" d="M273.29,161.94c0,1.76-.17,3.52-.28,5.27-.09,1.32,2,1.32,2.06,0,.12-1.75.26-3.51.28-5.27a1,1,0,0,0-2.06,0"/><path class="cls-8" d="M248.74,155.08a26.6,26.6,0,0,0,2.73.92,1,1,0,0,0,.55-2,26.59,26.59,0,0,1-2.73-.92c-1.23-.49-1.76,1.5-.55,2"/><path class="cls-8" d="M230.48,141.69c4.57,3.89,9,8.22,14.18,11.37,1.13.69,2.17-1.08,1-1.78-5-3.06-9.33-7.26-13.76-11-1-.86-2.47.59-1.46,1.45"/><path class="cls-8" d="M260.3,178.36a.7.7,0,0,1-.61-.37,5.07,5.07,0,0,0-3.11-2.65c-2.77-.77-5.87,1-5.9,1.06a.7.7,0,0,1-.71-1.2c.15-.09,3.64-2.12,7-1.2a6.42,6.42,0,0,1,4,3.33.7.7,0,0,1-.62,1Z"/><path class="cls-8" d="M221.6,178A.7.7,0,0,1,221,177c2.83-4.81,9.43-3,12.52-1.43a.7.7,0,0,1-.65,1.24c-.08,0-7.8-4-10.67.9A.7.7,0,0,1,221.6,178Z"/><circle class="cls-8" cx="228.18" cy="185.77" r="1.87" transform="translate(40.43 412.32) rotate(-89.5)"/><circle class="cls-8" cx="253.97" cy="185.99" r="1.87" transform="translate(65.78 438.34) rotate(-89.5)"/><path class="cls-10" d="M233.25,206h17.42S242,216.51,233.25,206Z"/><path class="cls-8" d="M241.66,211.38c-3.22,0-6.24-1.67-9-5a.73.73,0,0,1,.56-1.19h17.41a.73.73,0,0,1,.56,1.19c-.17.2-4.11,4.94-9.54,5Zm-6.77-4.69a9.55,9.55,0,0,0,6.78,3.24h0c3.15,0,5.81-1.93,7.25-3.24Z"/><path class="cls-8" d="M240.83,197.83h-.13c-2.17-.1-3.52-2.76-3.58-2.88a.54.54,0,0,1,1-.49s1.13,2.21,2.66,2.28c1,0,1.93-.74,2.92-2.32a.54.54,0,1,1,.92.58C243.42,196.87,242.15,197.83,240.83,197.83Z"/><path class="cls-15" d="M234.75,223.78A11.11,11.11,0,0,1,233.3,231S236.93,228.86,234.75,223.78Z"/><g class="cls-2"><polygon class="cls-8" points="301.57 400.99 253.63 431.5 244.92 427.14 298.66 398.09 301.57 400.99"/></g><path class="cls-6" d="M94.48,227.11h4.22a.34.34,0,0,0,.34-.36,3.1,3.1,0,0,1,.83-2.37,5.77,5.77,0,0,1,3.64-1.32.38.38,0,0,0,.26-.12.35.35,0,0,0,.08-.28,7.15,7.15,0,0,1,1.49-4.91A5.66,5.66,0,0,1,109.8,216a5.23,5.23,0,0,1,3.92,1.5,7.28,7.28,0,0,1,1.64,4.75.35.35,0,0,0,.14.29.35.35,0,0,0,.32.05,4.83,4.83,0,0,1,4.08.19c2.06,1.2,2.64,4,2.65,4.05a.35.35,0,0,0,.34.28h8.3a.35.35,0,1,0,0-.69h-8a7.08,7.08,0,0,0-2.91-4.24,5.29,5.29,0,0,0-4.2-.38,7.58,7.58,0,0,0-1.82-4.77,5.89,5.89,0,0,0-4.42-1.72,6.33,6.33,0,0,0-5,2,7.79,7.79,0,0,0-1.68,5.08,6,6,0,0,0-3.77,1.51,3.67,3.67,0,0,0-1,2.52H94.48a.35.35,0,1,0,0,.69Z"/></svg>