<svg id="bfbdf21b-f200-4b1e-a12a-2cfa4511f04b" data-name="Layer 1" xmlns="http://www.w3.org/2000/svg" viewBox="0 0 100 140"><title>Artboard 3 copy 3</title><path d="M71.59,81.66l-7.45,5.77a5.83,5.83,0,0,1-7.3-.07l3.06-2.22a2.41,2.41,0,0,0,.58-3.21,2.07,2.07,0,0,0-3-.62l-3,2.14a6.81,6.81,0,0,1,2.41-6.71L64.39,71A5.88,5.88,0,0,1,73,72.45,6.91,6.91,0,0,1,71.59,81.66ZM42.87,102.37l-7.45,5.77a5.87,5.87,0,0,1-8.58-1.48,6.91,6.91,0,0,1,1.38-9.21l7.45-5.77a5.84,5.84,0,0,1,7.34.11l-3.56,2.57a2.43,2.43,0,0,0-.58,3.21,2.13,2.13,0,0,0,1.79,1,2.1,2.1,0,0,0,1.21-.39l3.43-2.49A6.84,6.84,0,0,1,42.87,102.37ZM76.42,69.78a10,10,0,0,0-14.6-2.52L54.47,73a11.71,11.71,0,0,0-3.63,13.17l-4.2,3A9.93,9.93,0,0,0,33.1,88l-7.35,5.7a11.75,11.75,0,0,0-2.36,15.66A10,10,0,0,0,38,111.85l7.35-5.69A11.71,11.71,0,0,0,49,93L53.21,90a9.94,9.94,0,0,0,13.5,1.15l7.35-5.7A11.75,11.75,0,0,0,76.42,69.78Z" fill="#715c99"/><rect x="54.3" y="31.78" width="4.44" height="4.44" rx="2.22" fill="#715c99"/><rect x="67.63" y="31.78" width="4.44" height="4.44" rx="2.22" fill="#715c99"/><rect x="76.52" y="31.78" width="4.44" height="4.44" rx="2.22" fill="#715c99"/><rect x="18.75" y="31.78" width="31.11" height="4.44" rx="2.22" fill="#715c99"/><path d="M85.21,132.68H14.79a7.05,7.05,0,0,1-7-7V26.36a7.05,7.05,0,0,1,7-7H85.21a7.05,7.05,0,0,1,7,7v99.28A7.05,7.05,0,0,1,85.21,132.68ZM14.79,24a2.35,2.35,0,0,0-2.35,2.34v99.28A2.35,2.35,0,0,0,14.79,128H85.21a2.35,2.35,0,0,0,2.35-2.35V26.36A2.35,2.35,0,0,0,85.21,24Z" fill="#715c99"/><rect x="9.9" y="45.07" width="79.81" height="4.69" fill="#715c99"/><path d="M64.25,21.67H59.56a9.66,9.66,0,1,0-19.31,0H35.56a14.35,14.35,0,1,1,28.69,0Z" fill="#715c99"/></svg>