<svg id="a85dde66-2955-4ba3-9563-bfd65f650e3c" data-name="Layer 1" xmlns="http://www.w3.org/2000/svg" viewBox="0 0 100 140"><title>Artboard 3 copy 5</title><path d="M85.21,132.68H14.79a7.05,7.05,0,0,1-7-7V26.36a7.05,7.05,0,0,1,7-7H85.21a7.05,7.05,0,0,1,7,7v99.28A7.05,7.05,0,0,1,85.21,132.68ZM14.79,24a2.35,2.35,0,0,0-2.35,2.34v99.28A2.35,2.35,0,0,0,14.79,128H85.21a2.35,2.35,0,0,0,2.35-2.35V26.36A2.35,2.35,0,0,0,85.21,24Z" fill="#715c99"/><path d="M64.35,21.67H59.66a9.66,9.66,0,0,0-19.32,0H35.65a14.35,14.35,0,1,1,28.7,0Z" fill="#715c99"/><path d="M37.22,44.77a2.5,2.5,0,0,0-2.5,2.49,5.49,5.49,0,1,1-5.48-5.48,2.5,2.5,0,0,0,0-5A10.48,10.48,0,1,0,39.71,47.26,2.5,2.5,0,0,0,37.22,44.77Z" fill="#715c99"/><path d="M79.77,40.27H47.85a2.5,2.5,0,0,0,0,5H79.77a2.5,2.5,0,1,0,0-5Z" fill="#715c99"/><path d="M73.33,49.27H47.39a2.55,2.55,0,0,0,0,5H73.33a2.55,2.55,0,0,0,0-5Z" fill="#715c99"/><path d="M37.22,73.9a2.5,2.5,0,0,0-2.5,2.49,5.49,5.49,0,1,1-5.48-5.48,2.5,2.5,0,0,0,0-5A10.48,10.48,0,1,0,39.71,76.39,2.5,2.5,0,0,0,37.22,73.9Z" fill="#715c99"/><path d="M79.77,69.4H47.85a2.5,2.5,0,0,0,0,5H79.77a2.5,2.5,0,1,0,0-5Z" fill="#715c99"/><path d="M73.33,78.4H47.39a2.55,2.55,0,0,0,0,5H73.33a2.55,2.55,0,0,0,0-5Z" fill="#715c99"/><path d="M37.22,103.53a2.49,2.49,0,0,0-2.5,2.49,5.49,5.49,0,1,1-5.48-5.48,2.5,2.5,0,0,0,0-5A10.47,10.47,0,1,0,39.71,106,2.49,2.49,0,0,0,37.22,103.53Z" fill="#715c99"/><path d="M79.77,99H47.85a2.49,2.49,0,1,0,0,5H79.77a2.49,2.49,0,1,0,0-5Z" fill="#715c99"/><path d="M73.33,108H47.39a2.54,2.54,0,0,0,0,5H73.33a2.54,2.54,0,0,0,0-5Z" fill="#715c99"/></svg>