<svg xmlns="http://www.w3.org/2000/svg" viewBox="0 0 309.96 148.15"><defs><style>.cls-1{fill:#eff5f8;}.cls-2{fill:#cdebfc;}.cls-3{fill:#3273ad;}.cls-4{fill:#046ca3;}.cls-5{opacity:0.5;}.cls-6{fill:#0aa5e3;}.cls-7{fill:#32b475;}.cls-8{fill:#e3b462;}.cls-9{fill:#fad264;}.cls-10{fill:#caedff;}</style></defs><title>first-target</title><g id="Layer_2" data-name="Layer 2"><g id="Layer_1-2" data-name="Layer 1"><path class="cls-1" d="M71.25,117.18h35.7a3.14,3.14,0,1,1,0,6.27h-4.65a3.14,3.14,0,1,0,0,6.27h10.17a3.14,3.14,0,0,1,0,6.27H76.76a3.14,3.14,0,0,1,0-6.27H86.5a3.14,3.14,0,1,0,0-6.27H71.25a3.14,3.14,0,1,1,0-6.27Z"/><path class="cls-1" d="M284.42,116.41H243.3a3.09,3.09,0,1,1,0-6.18h10.55a3.09,3.09,0,0,0,0-6.18h-6.6a3.09,3.09,0,0,1,0-6.18h26.63a3.09,3.09,0,1,1,0,6.18H269.4a3.09,3.09,0,0,0,0,6.18h15a3.09,3.09,0,0,1,0,6.18Z"/><path class="cls-1" d="M57.61,80.27H16.32a3.1,3.1,0,1,1,0-6.2H26.91a3.1,3.1,0,1,0,0-6.2H20.28a3.1,3.1,0,0,1,0-6.2H47a3.1,3.1,0,0,1,0,6.2H42.53a3.1,3.1,0,0,0,0,6.2H57.61a3.1,3.1,0,0,1,0,6.2Z"/><path class="cls-1" d="M221.45,32.43h50.14a3.77,3.77,0,1,1,0,7.53H258.73a3.77,3.77,0,1,0,0,7.53h8.05a3.77,3.77,0,1,1,0,7.53H234.31a3.77,3.77,0,0,1,0-7.53h5.46a3.77,3.77,0,1,0,0-7.53H221.45a3.77,3.77,0,1,1,0-7.53Z"/><path class="cls-2" d="M305,56.06h-5.81a.47.47,0,0,1-.47-.49,4.27,4.27,0,0,0-1.14-3.26c-1.77-1.82-5-1.8-5-1.81a.53.53,0,0,1-.36-.16.48.48,0,0,1-.11-.38,9.84,9.84,0,0,0-2-6.76,7.79,7.79,0,0,0-6.14-2.43,7.2,7.2,0,0,0-5.4,2.06c-2.4,2.51-2.26,6.5-2.26,6.54a.48.48,0,0,1-.19.4.48.48,0,0,1-.44.07,6.65,6.65,0,0,0-5.61.26c-2.84,1.65-3.64,5.54-3.65,5.58a.48.48,0,0,1-.47.38H254.45a.48.48,0,0,1,0-1h11c.29-1.1,1.32-4.27,4-5.83a7.29,7.29,0,0,1,5.78-.53,10.44,10.44,0,0,1,2.51-6.57,8.1,8.1,0,0,1,6.09-2.36,8.72,8.72,0,0,1,6.86,2.75,10.73,10.73,0,0,1,2.31,7,8.31,8.31,0,0,1,5.19,2.08,5.06,5.06,0,0,1,1.41,3.47H305a.48.48,0,1,1,0,1Z"/><path class="cls-2" d="M67.37,51.59h0l-10-.45a1.16,1.16,0,0,1-.73-.1,1.2,1.2,0,0,1-.36-.87c0-.07,0-.13,0-.16a8.69,8.69,0,0,0-.34-1A6.56,6.56,0,0,0,55,47.47a5.56,5.56,0,0,0-2.34-1.73,6.88,6.88,0,0,0-2.26-.45,7.46,7.46,0,0,0-.83,0,1.25,1.25,0,0,1-.67,0c-.35-.13-.48-.52-.71-1.46,0-.15-.07-.27-.09-.34a17.94,17.94,0,0,0-1-2.28,11.87,11.87,0,0,0-2.28-3.15,8.76,8.76,0,0,0-5.19-2.42,11.55,11.55,0,0,0-10.6,5.07,12.59,12.59,0,0,0-1.87,7.8.48.48,0,0,1-.95.1,13.57,13.57,0,0,1,2-8.41,12.37,12.37,0,0,1,11.5-5.5,9.7,9.7,0,0,1,5.75,2.68A12.8,12.8,0,0,1,48,40.81a18.81,18.81,0,0,1,1,2.4c0,.08.07.23.11.42s.13.52.2.74l.19,0a9,9,0,0,1,.93,0,7.85,7.85,0,0,1,2.57.52,6.52,6.52,0,0,1,2.74,2,7.48,7.48,0,0,1,1,1.77,9.69,9.69,0,0,1,.38,1.11c0,.06,0,.16.05.27l0,.17h.17l10,.45a.47.47,0,0,1,0,.95Z"/><path class="cls-2" d="M177.45,16.25h-5.81a.47.47,0,0,1-.47-.49A4.27,4.27,0,0,0,170,12.49c-1.77-1.82-5-1.8-5-1.81a.53.53,0,0,1-.36-.16.48.48,0,0,1-.11-.38,9.84,9.84,0,0,0-2-6.76A7.79,7.79,0,0,0,156.35,1,7.2,7.2,0,0,0,151,3c-2.4,2.51-2.26,6.5-2.26,6.54a.48.48,0,0,1-.19.4.48.48,0,0,1-.44.07,6.65,6.65,0,0,0-5.61.26c-2.84,1.65-3.64,5.54-3.65,5.58a.48.48,0,0,1-.47.38H126.92a.48.48,0,1,1,0-1h11c.29-1.1,1.32-4.27,4-5.83a7.29,7.29,0,0,1,5.78-.53,10.44,10.44,0,0,1,2.51-6.57A8.1,8.1,0,0,1,156.35,0a8.72,8.72,0,0,1,6.86,2.75,10.73,10.73,0,0,1,2.31,7,8.31,8.31,0,0,1,5.19,2.08,5.06,5.06,0,0,1,1.41,3.47h5.33a.48.48,0,0,1,0,1Z"/><path class="cls-3" d="M5.92,147.95H.67c-.26,0-.47-.1-.47-.23s.21-.23.47-.23H5.92c.26,0,.47.1.47.23S6.18,147.95,5.92,147.95Z"/><path class="cls-4" d="M5.92,148.15H.67c-.39,0-.67-.18-.67-.43s.28-.43.67-.43H5.92c.39,0,.67.18.67.43S6.31,148.15,5.92,148.15Zm-5.46-.43a.61.61,0,0,0,.21,0H5.92a.11.11,0,1,0,0-.07H.67A.61.61,0,0,0,.46,147.71Z"/><path class="cls-3" d="M300.26,147.95h-290c-.28,0-.5-.11-.5-.25s.22-.25.5-.25h290c.28,0,.5.11.5.25S300.53,147.95,300.26,147.95Z"/><path class="cls-4" d="M300.26,148.15h-290c-.41,0-.7-.19-.7-.45s.29-.45.7-.45h290c.41,0,.7.19.7.45S300.66,148.15,300.26,148.15ZM10,147.69a.61.61,0,0,0,.26,0h290a.61.61,0,0,0,.26,0,.63.63,0,0,0-.26,0h-290A.63.63,0,0,0,10,147.69Z"/><path class="cls-3" d="M309.26,147.95h-3.62c-.28,0-.5-.11-.5-.25s.22-.25.5-.25h3.62c.28,0,.5.11.5.25S309.53,147.95,309.26,147.95Z"/><path class="cls-4" d="M309.26,148.15h-3.62c-.41,0-.7-.19-.7-.45s.29-.45.7-.45h3.62c.41,0,.7.19.7.45S309.66,148.15,309.26,148.15Zm-3.88-.45a.61.61,0,0,0,.26,0h3.62a.61.61,0,0,0,.26,0,.63.63,0,0,0-.26,0h-3.62A.63.63,0,0,0,305.38,147.69Z"/><g class="cls-5"><path class="cls-6" d="M74.32,47.5A5.66,5.66,0,1,1,80,53.16,5.66,5.66,0,0,1,74.32,47.5Zm1.5,0A4.16,4.16,0,1,0,80,43.34,4.16,4.16,0,0,0,75.82,47.5Z"/><path class="cls-7" d="M223.94,45.31A5.66,5.66,0,1,1,229.6,51,5.66,5.66,0,0,1,223.94,45.31Zm1.5,0a4.16,4.16,0,1,0,4.16-4.16A4.16,4.16,0,0,0,225.44,45.31Z"/><path class="cls-7" d="M46.85,83.38A3.58,3.58,0,1,1,50.43,87,3.58,3.58,0,0,1,46.85,83.38Zm.95,0a2.63,2.63,0,1,0,2.63-2.63A2.63,2.63,0,0,0,47.8,83.38Z"/><path class="cls-7" d="M57.31,101.83a3.41,3.41,0,1,1,3.41,3.41A3.41,3.41,0,0,1,57.31,101.83Zm1.5,0a1.91,1.91,0,1,0,1.91-1.91A1.91,1.91,0,0,0,58.81,101.83Z"/><path class="cls-7" d="M234.9,105.24a3.41,3.41,0,1,1,3.41,3.41A3.41,3.41,0,0,1,234.9,105.24Zm1.5,0a1.91,1.91,0,1,0,1.91-1.91A1.91,1.91,0,0,0,236.4,105.24Z"/><path class="cls-8" d="M76.74,81.24A4.37,4.37,0,1,1,81.1,85.6,4.37,4.37,0,0,1,76.74,81.24Zm1.92,0A2.44,2.44,0,1,0,81.1,78.8,2.45,2.45,0,0,0,78.66,81.24Z"/><path class="cls-8" d="M224.86,85.8a4.75,4.75,0,1,1,4.54,4.95A4.76,4.76,0,0,1,224.86,85.8Zm1.5.06a3.25,3.25,0,1,0,3.39-3.11A3.25,3.25,0,0,0,226.35,85.87Z"/><path class="cls-6" d="M81.41,117.18a5.66,5.66,0,1,1,5.66,5.66A5.66,5.66,0,0,1,81.41,117.18Zm1.5,0A4.16,4.16,0,1,0,87.07,113,4.16,4.16,0,0,0,82.91,117.18Z"/><path class="cls-8" d="M213.83,122.51a5.66,5.66,0,1,1,5.66,5.66A5.66,5.66,0,0,1,213.83,122.51Zm1.5,0a4.16,4.16,0,1,0,4.16-4.16A4.16,4.16,0,0,0,215.33,122.51Z"/><path class="cls-8" d="M55.47,61.28a5.25,5.25,0,1,1,5.25,5.25A5.26,5.26,0,0,1,55.47,61.28Zm1.5,0a3.75,3.75,0,1,0,3.75-3.75A3.75,3.75,0,0,0,57,61.28Z"/><path class="cls-6" d="M236.46,65a5.25,5.25,0,1,1,5.25,5.25A5.26,5.26,0,0,1,236.46,65Zm1.5,0a3.75,3.75,0,1,0,3.75-3.75A3.75,3.75,0,0,0,238,65Z"/><path class="cls-7" d="M254.73,84.93a3.41,3.41,0,1,1,3.41,3.41A3.41,3.41,0,0,1,254.73,84.93Zm1.5,0A1.91,1.91,0,1,0,258.13,83,1.91,1.91,0,0,0,256.23,84.93Z"/></g><rect class="cls-3" x="157.11" y="17.31" width="1" height="29"/><rect class="cls-3" x="157.11" y="102.31" width="1" height="29"/><rect class="cls-3" x="186.11" y="73.31" width="29" height="1"/><rect class="cls-3" x="100.11" y="73.31" width="29" height="1"/><path class="cls-9" d="M157.62,33.41a41,41,0,1,0,41,41A41,41,0,0,0,157.62,33.41Zm0,75.17a34.17,34.17,0,1,1,34.17-34.17A34.17,34.17,0,0,1,157.62,108.58Z"/><path class="cls-3" d="M157.62,115.91a41.5,41.5,0,1,1,41.5-41.5A41.55,41.55,0,0,1,157.62,115.91Zm0-82a40.5,40.5,0,1,0,40.5,40.5A40.55,40.55,0,0,0,157.62,33.91Zm0,75.17a34.67,34.67,0,1,1,34.67-34.67A34.71,34.71,0,0,1,157.62,109.08Zm0-68.33a33.67,33.67,0,1,0,33.67,33.67A33.7,33.7,0,0,0,157.62,40.75Z"/><circle class="cls-10" cx="157.62" cy="74.41" r="17.08"/><path class="cls-3" d="M157.62,92A17.58,17.58,0,1,1,175.2,74.41,17.6,17.6,0,0,1,157.62,92Zm0-34.17A16.58,16.58,0,1,0,174.2,74.41,16.6,16.6,0,0,0,157.62,57.83Z"/><path class="cls-3" d="M156.79,71h0l-2.48,1.18-.5-2.28,3.44-1.6h2.52v13h-2.94Z"/></g></g></svg>