<svg xmlns="http://www.w3.org/2000/svg" viewBox="0 0 309.56 161.5"><defs><style>.cls-1{fill:#eff5f8;}.cls-2{fill:#cdebfc;}.cls-3{fill:#3273ad;}.cls-4{opacity:0.5;}.cls-5{fill:#0aa5e3;}.cls-6{fill:#32b475;}.cls-7{fill:#e3b462;}.cls-8{fill:#349b67;}.cls-9{fill:#ede0d6;}.cls-10{fill:#ffeec5;}.cls-11{fill:#caedff;}.cls-12{fill:#b7d1e5;}.cls-13{fill:#fff;}</style></defs><title>interview</title><g id="Layer_2" data-name="Layer 2"><g id="Layer_1-2" data-name="Layer 1"><path class="cls-1" d="M253.44,126.15h-35.7a3.14,3.14,0,0,0,0,6.27h4.65a3.14,3.14,0,0,1,0,6.27H212.22a3.14,3.14,0,0,0,0,6.27h35.7a3.14,3.14,0,0,0,0-6.27h-9.74a3.14,3.14,0,0,1,0-6.27h15.25a3.14,3.14,0,1,0,0-6.27Z"/><path class="cls-1" d="M65.93,103.91H15.79a3.77,3.77,0,1,0,0,7.53H28.65a3.77,3.77,0,1,1,0,7.53H20.6a3.77,3.77,0,0,0,0,7.53H53.07a3.77,3.77,0,0,0,0-7.53H47.61a3.77,3.77,0,1,1,0-7.53H65.93a3.77,3.77,0,1,0,0-7.53Z"/><path class="cls-1" d="M276.66,82.36H246.48a2.27,2.27,0,1,0,0,4.53h7.74a2.27,2.27,0,1,1,0,4.53h-4.85a2.27,2.27,0,1,0,0,4.53h19.55a2.27,2.27,0,1,0,0-4.53h-3.28a2.27,2.27,0,0,1,0-4.53h11a2.27,2.27,0,1,0,0-4.53Z"/><path class="cls-1" d="M101.4,59.76H51.26a3.77,3.77,0,1,0,0,7.53H64.12a3.77,3.77,0,0,1,0,7.53H56.07a3.77,3.77,0,0,0,0,7.53H88.54a3.77,3.77,0,1,0,0-7.53H83.09a3.77,3.77,0,0,1,0-7.53H101.4a3.77,3.77,0,1,0,0-7.53Z"/><path class="cls-2" d="M9.2,42.25H15a.47.47,0,0,0,.47-.49,4.27,4.27,0,0,1,1.14-3.26c1.77-1.82,5-1.8,5-1.81a.53.53,0,0,0,.36-.16.48.48,0,0,0,.11-.38,9.84,9.84,0,0,1,2-6.76A7.79,7.79,0,0,1,30.3,27,7.2,7.2,0,0,1,35.7,29c2.4,2.51,2.26,6.5,2.26,6.54a.48.48,0,0,0,.19.4.48.48,0,0,0,.44.07,6.65,6.65,0,0,1,5.61.26c2.84,1.65,3.64,5.54,3.65,5.58a.48.48,0,0,0,.47.38H59.73a.48.48,0,1,0,0-1h-11c-.29-1.1-1.32-4.27-4-5.83a7.29,7.29,0,0,0-5.78-.53,10.44,10.44,0,0,0-2.51-6.57A8.1,8.1,0,0,0,30.3,26a8.72,8.72,0,0,0-6.86,2.75,10.73,10.73,0,0,0-2.31,7,8.31,8.31,0,0,0-5.19,2.08,5.06,5.06,0,0,0-1.41,3.47H9.2a.48.48,0,0,0,0,1Z"/><path class="cls-2" d="M308.25,66.14h0l-10-.45a1.16,1.16,0,0,1-.73-.1,1.2,1.2,0,0,1-.36-.87c0-.07,0-.13,0-.16a8.69,8.69,0,0,0-.34-1,6.56,6.56,0,0,0-.89-1.54,5.56,5.56,0,0,0-2.34-1.73,6.88,6.88,0,0,0-2.26-.45,7.46,7.46,0,0,0-.83,0,1.25,1.25,0,0,1-.67,0c-.35-.13-.48-.52-.71-1.46,0-.15-.07-.27-.09-.34a17.94,17.94,0,0,0-1-2.28,11.87,11.87,0,0,0-2.28-3.15,8.76,8.76,0,0,0-5.19-2.42,11.55,11.55,0,0,0-10.6,5.07,12.59,12.59,0,0,0-1.87,7.8.48.48,0,0,1-.95.1,13.57,13.57,0,0,1,2-8.41,12.37,12.37,0,0,1,11.5-5.5A9.7,9.7,0,0,1,286.4,52a12.8,12.8,0,0,1,2.46,3.4,18.81,18.81,0,0,1,1,2.4c0,.08.07.23.11.42s.13.52.2.74l.19,0a9,9,0,0,1,.93,0,7.85,7.85,0,0,1,2.57.52,6.52,6.52,0,0,1,2.74,2,7.48,7.48,0,0,1,1,1.77,9.69,9.69,0,0,1,.38,1.11c0,.06,0,.16.05.27l0,.17h.17l10,.45a.47.47,0,0,1,0,.95Z"/><path class="cls-2" d="M99,13.69a.48.48,0,0,1-.42-.69,11.88,11.88,0,0,1,18-3.78.47.47,0,1,1-.6.74,10.93,10.93,0,0,0-16.55,3.48A.47.47,0,0,1,99,13.69Z"/><path class="cls-2" d="M115.62,9.76a.48.48,0,0,1-.41-.71,13.78,13.78,0,0,1,21.23-3.28.47.47,0,1,1-.64.7A12.83,12.83,0,0,0,116,9.52.47.47,0,0,1,115.62,9.76Z"/><path class="cls-2" d="M232.73,16.25h-5.81a.47.47,0,0,1-.47-.49,4.27,4.27,0,0,0-1.14-3.26c-1.77-1.82-5-1.8-5-1.81a.53.53,0,0,1-.36-.16.48.48,0,0,1-.11-.38,9.84,9.84,0,0,0-2-6.76A7.79,7.79,0,0,0,211.63,1,7.2,7.2,0,0,0,206.23,3c-2.4,2.51-2.26,6.5-2.26,6.54a.48.48,0,0,1-.19.4.48.48,0,0,1-.44.07,6.65,6.65,0,0,0-5.61.26c-2.84,1.65-3.64,5.54-3.65,5.58a.48.48,0,0,1-.47.38H182.2a.48.48,0,1,1,0-1h11c.29-1.1,1.32-4.27,4-5.83A7.29,7.29,0,0,1,203,8.93a10.44,10.44,0,0,1,2.51-6.57A8.1,8.1,0,0,1,211.62,0a8.72,8.72,0,0,1,6.86,2.75,10.73,10.73,0,0,1,2.31,7A8.31,8.31,0,0,1,226,11.83a5.06,5.06,0,0,1,1.41,3.47h5.33a.48.48,0,1,1,0,1Z"/><path class="cls-3" d="M5.72,161.5H.47c-.26,0-.47-.1-.47-.23s.21-.23.47-.23H5.72c.26,0,.47.1.47.23S6,161.5,5.72,161.5Z"/><path class="cls-3" d="M300.06,161.5h-290c-.28,0-.5-.11-.5-.25s.22-.25.5-.25h290c.28,0,.5.11.5.25S300.33,161.5,300.06,161.5Z"/><path class="cls-3" d="M309.06,161.5h-3.62c-.28,0-.5-.11-.5-.25s.22-.25.5-.25h3.62c.28,0,.5.11.5.25S309.33,161.5,309.06,161.5Z"/><g class="cls-4"><path class="cls-5" d="M227.93,71.8a5.66,5.66,0,1,1,5.66-5.66A5.66,5.66,0,0,1,227.93,71.8Zm0-9.82a4.16,4.16,0,1,0,4.16,4.16A4.16,4.16,0,0,0,227.93,62Z"/><path class="cls-6" d="M24.55,82.1a5.66,5.66,0,1,1,5.66-5.66A5.66,5.66,0,0,1,24.55,82.1Zm0-9.82a4.16,4.16,0,1,0,4.16,4.16A4.16,4.16,0,0,0,24.55,72.28Z"/><path class="cls-6" d="M226,105.14a3.41,3.41,0,1,1,3.41-3.41A3.41,3.41,0,0,1,226,105.14Zm0-5.31a1.91,1.91,0,1,0,1.91,1.91A1.91,1.91,0,0,0,226,99.83Z"/><path class="cls-6" d="M60.2,116a3.41,3.41,0,1,1,3.41-3.41A3.41,3.41,0,0,1,60.2,116Zm0-5.31a1.91,1.91,0,1,0,1.91,1.91A1.91,1.91,0,0,0,60.2,110.7Z"/><path class="cls-7" d="M261.57,48.74A4.75,4.75,0,1,1,266.32,44,4.76,4.76,0,0,1,261.57,48.74Zm0-8A3.25,3.25,0,1,0,264.82,44,3.25,3.25,0,0,0,261.57,40.74Z"/><path class="cls-5" d="M271.44,141.22a5.66,5.66,0,1,1,5.66-5.66A5.66,5.66,0,0,1,271.44,141.22Zm0-9.82a4.16,4.16,0,1,0,4.16,4.16A4.16,4.16,0,0,0,271.44,131.4Z"/><path class="cls-7" d="M24.55,144.62A5.66,5.66,0,1,1,30.2,139,5.66,5.66,0,0,1,24.55,144.62Zm0-9.82A4.16,4.16,0,1,0,28.7,139,4.16,4.16,0,0,0,24.55,134.81Z"/><path class="cls-7" d="M261.57,102.59a5.25,5.25,0,1,1,5.25-5.25A5.26,5.26,0,0,1,261.57,102.59Zm0-9a3.75,3.75,0,1,0,3.75,3.75A3.75,3.75,0,0,0,261.57,93.59Z"/><path class="cls-5" d="M62.93,62.36a5.25,5.25,0,1,1,5.25-5.25A5.26,5.26,0,0,1,62.93,62.36Zm0-9a3.75,3.75,0,1,0,3.75,3.75A3.75,3.75,0,0,0,62.93,53.36Z"/></g><path class="cls-8" d="M177.39,43.43a2.06,2.06,0,1,1,2.06-2.06A2.06,2.06,0,0,1,177.39,43.43Zm0-3.12a1.06,1.06,0,1,0,1.06,1.06A1.06,1.06,0,0,0,177.39,40.31Z"/><path class="cls-9" d="M178.82,120.43s3.18,4.83.25,9.35l19.32.59s-3.21-1.84-.81-9.19C197.59,121.19,192,111.89,178.82,120.43Z"/><path class="cls-3" d="M200.38,130.93l-22.21-.68.48-.74c2.71-4.19-.22-8.76-.25-8.81l-.27-.42.42-.27c4.85-3.14,9.26-4.29,13.11-3.4a10.46,10.46,0,0,1,6.36,4.32l.12.2-.07.22c-2.25,6.88.55,8.58.58,8.6Zm-20.46-1.63,17.27.53c-.83-1.22-1.67-3.76-.15-8.57a9.72,9.72,0,0,0-5.63-3.69c-3.46-.79-7.47.22-11.91,3C180.18,121.84,181.85,125.55,179.93,129.3Z"/><path class="cls-5" d="M186.28,124.73c-5.06,0-7.57-1.18-7.67-1.23a23.22,23.22,0,0,1-5.41-4.58,49.46,49.46,0,0,1-5-7.34c-.38-.82-8.92-19.5-3.77-27.57,1.53-2.4,4.11-3.61,7.66-3.61.42,0,.87,0,1.32.05.61-2.21,3.92-12.11,14.69-12.11a23,23,0,0,1,6.66,1.08.5.5,0,0,1,.23.81l-.43.49,4.71,0,.15,0c.34.11,8.31,2.78,12.23,10.51,2.6,5.13,2.77,11.23.51,18.14a49.87,49.87,0,0,1-5.41,13.64c-.44.69-4.24,6.55-6.56,7.71-.41.52-2.2,2.45-7,3.3A39.68,39.68,0,0,1,186.28,124.73Z"/><path class="cls-3" d="M188.09,68.84a22.31,22.31,0,0,1,6.51,1.06l-1.16,1.31,5.81,0s19.51,6.36,12.42,28a49,49,0,0,1-5.36,13.53s-4.23,6.6-6.46,7.58c0,0-1.45,2.26-6.8,3.21a39,39,0,0,1-6.78.63c-5,0-7.45-1.18-7.45-1.18a23,23,0,0,1-5.25-4.46,49.59,49.59,0,0,1-4.95-7.25S154.54,80.9,172.08,80.9c.54,0,1.1,0,1.7.09,0,0,2.51-12.15,14.31-12.15m0-1c-10.57,0-14.18,9.2-15.06,12.09l-1,0c-3.73,0-6.45,1.29-8.08,3.84-5.3,8.3,3.35,27.21,3.72,28l0,.06a50,50,0,0,0,5.07,7.42,23.88,23.88,0,0,0,5.51,4.67l.06,0c.11.05,2.71,1.28,7.89,1.28a40.2,40.2,0,0,0,7-.65c4.78-.84,6.7-2.7,7.28-3.4,2.39-1.31,5.94-6.72,6.64-7.83a49.58,49.58,0,0,0,5.49-13.81c2.29-7,2.1-13.24-.56-18.48-4-7.91-12.18-10.65-12.52-10.76a1,1,0,0,0-.3,0l-3.71,0a1,1,0,0,0-.65-1.28,23.44,23.44,0,0,0-6.8-1.11Z"/><path class="cls-10" d="M151.41,156.54a25.73,25.73,0,0,1,6.79-17.08c6.44-6.88,16.83-10.37,30.88-10.37h.11c13,0,22.41,3.32,28.06,9.83,6.08,7,5.77,15.62,5.61,17.62Z"/><path class="cls-3" d="M189.1,128.59v1h.09c12.8,0,22.11,3.26,27.66,9.63s5.67,14.24,5.54,16.82H151.91a25.18,25.18,0,0,1,6.63-16.22c6.34-6.79,16.61-10.23,30.53-10.23l0-1m0,0c-40.1,0-38.16,28.45-38.16,28.45H223.3s4-28.4-34.12-28.45Z"/><rect class="cls-3" x="165.6" y="150.56" width="1" height="6.34"/><rect class="cls-3" x="210.07" y="151.16" width="1" height="6.01"/><path class="cls-11" d="M158.23,25.66h42.5a4.86,4.86,0,0,1,4.84,4.84V54.17A4.86,4.86,0,0,1,200.73,59H168.22l.73,5.3L159.77,59h-1.54a4.86,4.86,0,0,1-4.84-4.84V30.5A4.86,4.86,0,0,1,158.23,25.66Z"/><path class="cls-3" d="M169.27,64.78l-9.57-5.52h-1.47a5.1,5.1,0,0,1-5.09-5.09V30.5a5.1,5.1,0,0,1,5.09-5.09h42.5a5.1,5.1,0,0,1,5.09,5.09V54.17a5.1,5.1,0,0,1-5.09,5.09H168.51Zm-11-38.87a4.6,4.6,0,0,0-4.59,4.59V54.17a4.6,4.6,0,0,0,4.59,4.59h1.6l.06,0,8.75,5-.7-5.07h32.79a4.6,4.6,0,0,0,4.59-4.59V30.5a4.6,4.6,0,0,0-4.59-4.59Z"/><rect class="cls-3" x="158.91" y="38.24" width="41.68" height="0.5"/><rect class="cls-3" x="158.91" y="44.63" width="41.68" height="0.5"/><rect class="cls-3" x="158.91" y="51.03" width="41.68" height="0.5"/><rect class="cls-3" x="158.91" y="32.56" width="21.66" height="0.5"/><path class="cls-12" d="M106.57,133.39s22.6-2.45,20.86,23.32H73.61s1.4-24.39,24-23.38Z"/><path class="cls-3" d="M127.87,157.17H73.11l0-.49c0-.25,1.69-24.84,24.53-23.82l8.88.06c.67-.07,9.56-.84,15.75,5.1,4.28,4.11,6.16,10.41,5.6,18.72Zm-53.75-.93H127c.45-7.81-1.35-13.71-5.34-17.55-6-5.75-14.94-4.85-15-4.84h-.05l-8.92-.06C77.52,132.88,74.48,152.82,74.12,156.24Z"/><path class="cls-9" d="M94.8,129.73v4.12a7.17,7.17,0,0,0,6.3,3.19,5.74,5.74,0,0,0,5.47-3.65v-4.15"/><path class="cls-3" d="M100.83,137.51a7.56,7.56,0,0,1-6.44-3.42l-.06-.11v-4.24h.93v4a6.69,6.69,0,0,0,5.82,2.85,5.32,5.32,0,0,0,5-3.26v-4.07H107l0,4.29a6.26,6.26,0,0,1-5.9,4Z"/><polygon class="cls-3" points="101.57 156.71 100.64 156.71 100.64 143.62 90.31 134.24 90.93 133.55 101.57 143.2 101.57 156.71"/><rect class="cls-3" x="99.17" y="138.18" width="13.63" height="0.93" transform="translate(-66.66 113.17) rotate(-44.21)"/><rect class="cls-3" x="80.48" y="149.36" width="0.93" height="7.34"/><rect class="cls-3" x="120.93" y="150.06" width="0.93" height="6.65"/><path class="cls-5" d="M82.79,109.54s-3-.71-3.07-10.65c0,0-8.24-1.93-2.86-12.92s34.1-20.6,37.53-2.06c0,0,16.27-1.72,5.73,24.14"/><path class="cls-3" d="M82.79,110h-.12c-.34-.08-3.26-1.07-3.45-10.77a6.94,6.94,0,0,1-4-3.5c-1.21-2.55-.81-5.91,1.2-10,3.71-7.58,17.42-13.94,27.19-12.61,4.27.58,9.63,2.84,11.19,10.24a9,9,0,0,1,7.44,3.32c3.07,4.08,2.51,11.32-1.65,21.53a.5.5,0,1,1-.92-.37c4-9.72,4.57-16.83,1.77-20.56-2.51-3.34-7-2.91-7-2.91a.49.49,0,0,1-.54-.4c-1.33-7.16-6.41-9.32-10.43-9.87-9.4-1.29-22.61,4.8-26.16,12.06C75.44,90,75,93.07,76.11,95.33a6,6,0,0,0,3.72,3.08.5.5,0,0,1,.38.48c.11,9.14,2.67,10.17,2.69,10.18a.5.5,0,0,1-.12,1Z"/><circle class="cls-3" cx="110.04" cy="109.54" r="1.32"/><path class="cls-9" d="M114,86.89S104.2,98.56,84.52,94c0,0-1.83-.46-2.06,6.18s0,30.89,16.71,31.35,23.8-15.79,19.91-33.18c0,0-1.64-9.2-5.26-8.7Z"/><path class="cls-3" d="M99.85,132h-.69A14,14,0,0,1,89,127.52c-6.91-7.35-7.19-21.6-7-27.38.12-3.47.69-5.62,1.7-6.38a1.18,1.18,0,0,1,1-.26c19.16,4.45,28.92-6.82,29-6.93a.5.5,0,0,1,.87.36l-.18,2.2c3.54.35,5,8.18,5.21,9.11,2.36,10.55.67,20.63-4.52,26.93A19,19,0,0,1,99.85,132ZM84.41,94.47s-1.26.24-1.45,5.71c-.2,5.66.07,19.59,6.72,26.67a13.07,13.07,0,0,0,9.5,4.17c6.23.16,11.47-2.07,15.1-6.47,5-6.07,6.61-15.83,4.31-26.1-.44-2.45-2.11-8.65-4.71-8.31a.49.49,0,0,1-.41-.13.5.5,0,0,1-.15-.4l.12-1.39C110.44,91,100.68,98.25,84.41,94.47Z"/><rect class="cls-13" x="86.12" y="104.51" width="13.04" height="10.07" rx="5.03" ry="5.03"/><path class="cls-3" d="M94.13,115.08h-3a5.53,5.53,0,0,1,0-11.06h3a5.53,5.53,0,1,1,0,11.06Zm-3-10.07a4.54,4.54,0,0,0,0,9.08h3a4.54,4.54,0,1,0,0-9.08Z"/><rect class="cls-13" x="103.52" y="104.51" width="13.04" height="10.07" rx="5.03" ry="5.03"/><path class="cls-3" d="M111.52,115.08h-3a5.53,5.53,0,0,1,0-11.06h3a5.53,5.53,0,0,1,0,11.06Zm-3-10.07a4.54,4.54,0,0,0,0,9.08h3a4.54,4.54,0,1,0,0-9.08Z"/><path class="cls-13" d="M95.28,119.84h11.87s0,5.74-5.85,5.68S95.28,122,95.28,119.84Z"/><path class="cls-3" d="M101.38,126h-.08c-6.51-.06-6.51-4.35-6.51-6.18a.5.5,0,0,1,.5-.5h11.87a.5.5,0,0,1,.5.5,7,7,0,0,1-1.85,4.55A6,6,0,0,1,101.38,126Zm-5.6-5.68c0,1.85.47,4.65,5.52,4.69h.07a5.07,5.07,0,0,0,3.72-1.34,5.78,5.78,0,0,0,1.51-3.35Z"/><path class="cls-3" d="M115.07,101.57a.5.5,0,0,1-.43-.26,3.6,3.6,0,0,0-2.22-1.86,6.28,6.28,0,0,0-4.18.79.5.5,0,0,1-.51-.85,7.23,7.23,0,0,1,4.95-.9,4.55,4.55,0,0,1,2.84,2.34.5.5,0,0,1-.43.74Z"/><path class="cls-3" d="M87.61,101.57a.5.5,0,0,1-.43-.75c2-3.43,6.67-2.21,8.87-1.09a.5.5,0,0,1-.45.89c-.06,0-5.56-2.77-7.56.7A.5.5,0,0,1,87.61,101.57Z"/><path class="cls-3" d="M103.52,110a.5.5,0,0,1-.46-.3c-.36-.82-.78-1.26-1.26-1.32-.86-.09-1.91,1-2.24,1.42a.5.5,0,0,1-.79-.6c.16-.2,1.54-2,3.14-1.81.86.1,1.55.74,2.06,1.91a.5.5,0,0,1-.46.69Z"/><circle class="cls-3" cx="93.46" cy="109.54" r="1.32"/><circle class="cls-3" cx="111.76" cy="109.54" r="1.32"/><path class="cls-11" d="M123.47,37.14H89a3.94,3.94,0,0,0-3.93,3.93V60.25A3.94,3.94,0,0,0,89,64.18h26.36l-.6,4.29,7.45-4.29h1.24a3.94,3.94,0,0,0,3.93-3.93V41.06A3.94,3.94,0,0,0,123.47,37.14Z"/><path class="cls-3" d="M114.46,68.94l.63-4.52H89a4.18,4.18,0,0,1-4.17-4.18V41.06A4.18,4.18,0,0,1,89,36.89h34.46a4.18,4.18,0,0,1,4.17,4.18V60.25a4.18,4.18,0,0,1-4.17,4.18H122.3ZM89,37.39a3.68,3.68,0,0,0-3.67,3.68V60.25A3.68,3.68,0,0,0,89,63.93h26.64L115.1,68l7.07-4.07h1.31a3.68,3.68,0,0,0,3.67-3.68V41.06a3.68,3.68,0,0,0-3.67-3.68Z"/><rect class="cls-3" x="91.58" y="48.05" width="29.34" height="0.5"/><rect class="cls-3" x="91.58" y="52.55" width="29.34" height="0.5"/><rect class="cls-3" x="91.58" y="57.05" width="29.34" height="0.5"/><rect class="cls-3" x="91.58" y="44.05" width="15.25" height="0.5"/><path class="cls-3" d="M116.56,110a.5.5,0,0,1-.35-.85l3.2-3.2a.5.5,0,1,1,.71.71l-3.2,3.2A.5.5,0,0,1,116.56,110Z"/><path class="cls-3" d="M85.76,110a.5.5,0,0,1-.35-.15l-3.2-3.2a.5.5,0,1,1,.71-.71l3.2,3.2a.5.5,0,0,1-.35.85Z"/></g></g></svg>