<svg xmlns="http://www.w3.org/2000/svg" viewBox="0 0 309.56 150.7"><defs><style>.cls-1{fill:#eff5f8;}.cls-2{fill:#cdebfc;}.cls-3{fill:#3273ad;}.cls-4{fill:#0aa5e3;}.cls-5{fill:#32b475;}.cls-6{fill:#e3b462;}.cls-7{fill:#fff;}.cls-8{fill:#caedff;}.cls-9{fill:#fad264;}</style></defs><title>legal-agreement</title><g id="Layer_2" data-name="Layer 2"><g id="Layer_1-2" data-name="Layer 1"><path class="cls-1" d="M258.9,107.08H223.2a3.14,3.14,0,1,0,0,6.27h4.65a3.14,3.14,0,1,1,0,6.27H217.69a3.14,3.14,0,0,0,0,6.27h35.7a3.14,3.14,0,0,0,0-6.27h-9.74a3.14,3.14,0,0,1,0-6.27H258.9a3.14,3.14,0,1,0,0-6.27Z"/><path class="cls-1" d="M20.3,113.11H61.42a3.09,3.09,0,0,0,0-6.18H50.87a3.09,3.09,0,0,1,0-6.18h6.6a3.09,3.09,0,1,0,0-6.18H30.85a3.09,3.09,0,1,0,0,6.18h4.47a3.09,3.09,0,0,1,0,6.18h-15a3.09,3.09,0,0,0,0,6.18Z"/><path class="cls-1" d="M211.57,62.11H265a4,4,0,0,0,0-8H251.31a4,4,0,1,1,0-8h8.59a4,4,0,0,0,0-8H225.28a4,4,0,1,0,0,8h5.82a4,4,0,1,1,0,8H211.57a4,4,0,1,0,0,8Z"/><path class="cls-1" d="M80.35,56.65H30.22a3.77,3.77,0,0,0,0,7.53H43.07a3.77,3.77,0,0,1,0,7.53H35a3.77,3.77,0,1,0,0,7.53H67.49a3.77,3.77,0,1,0,0-7.53H62a3.77,3.77,0,0,1,0-7.53H80.35a3.77,3.77,0,0,0,0-7.53Z"/><path class="cls-2" d="M9.94,47.81h5.81a.47.47,0,0,0,.47-.49,4.27,4.27,0,0,1,1.14-3.26c1.77-1.82,5-1.8,5-1.81a.53.53,0,0,0,.36-.16.48.48,0,0,0,.11-.38,9.84,9.84,0,0,1,2-6.76A7.79,7.79,0,0,1,31,32.52a7.2,7.2,0,0,1,5.4,2.06c2.4,2.51,2.26,6.5,2.26,6.54a.48.48,0,0,0,.19.4.48.48,0,0,0,.44.07,6.65,6.65,0,0,1,5.61.26c2.84,1.65,3.64,5.54,3.65,5.58a.48.48,0,0,0,.47.38H60.47a.48.48,0,0,0,0-1h-11c-.29-1.1-1.32-4.27-4-5.83a7.29,7.29,0,0,0-5.78-.53,10.44,10.44,0,0,0-2.51-6.57A8.1,8.1,0,0,0,31,31.57a8.72,8.72,0,0,0-6.86,2.75,10.73,10.73,0,0,0-2.31,7,8.31,8.31,0,0,0-5.19,2.08,5.06,5.06,0,0,0-1.41,3.47H9.94a.48.48,0,1,0,0,1Z"/><path class="cls-2" d="M257.55,55.34h0l10-.45a1.16,1.16,0,0,0,.73-.1,1.2,1.2,0,0,0,.36-.87c0-.07,0-.13,0-.16a8.69,8.69,0,0,1,.34-1,6.56,6.56,0,0,1,.89-1.54,5.56,5.56,0,0,1,2.34-1.73,6.88,6.88,0,0,1,2.26-.45,7.46,7.46,0,0,1,.83,0,1.25,1.25,0,0,0,.67,0c.35-.13.48-.52.71-1.46,0-.15.07-.27.09-.34a17.94,17.94,0,0,1,1-2.28A11.87,11.87,0,0,1,280,41.85a8.76,8.76,0,0,1,5.19-2.42,11.55,11.55,0,0,1,10.6,5.07,12.59,12.59,0,0,1,1.87,7.8.48.48,0,0,0,.95.1,13.57,13.57,0,0,0-2-8.41,12.37,12.37,0,0,0-11.5-5.5,9.7,9.7,0,0,0-5.75,2.68,12.8,12.8,0,0,0-2.46,3.4,18.81,18.81,0,0,0-1,2.4c0,.08-.07.23-.11.42s-.13.52-.2.74l-.19,0a9,9,0,0,0-.93,0,7.85,7.85,0,0,0-2.57.52,6.52,6.52,0,0,0-2.74,2,7.48,7.48,0,0,0-1,1.77,9.69,9.69,0,0,0-.38,1.11c0,.06,0,.16-.05.27l0,.17h-.17l-10,.45a.47.47,0,0,0,0,.95Z"/><path class="cls-2" d="M157.66,16.25h-5.81a.47.47,0,0,1-.47-.49,4.27,4.27,0,0,0-1.14-3.26c-1.77-1.82-5-1.8-5-1.81a.53.53,0,0,1-.36-.16.48.48,0,0,1-.11-.38,9.84,9.84,0,0,0-2-6.76A7.79,7.79,0,0,0,136.56,1,7.2,7.2,0,0,0,131.16,3c-2.4,2.51-2.26,6.5-2.26,6.54a.48.48,0,0,1-.19.4.48.48,0,0,1-.44.07,6.65,6.65,0,0,0-5.61.26c-2.84,1.65-3.64,5.54-3.65,5.58a.48.48,0,0,1-.47.38H107.13a.48.48,0,1,1,0-1h11c.29-1.1,1.32-4.27,4-5.83A7.29,7.29,0,0,1,128,8.93a10.44,10.44,0,0,1,2.51-6.57A8.1,8.1,0,0,1,136.56,0a8.72,8.72,0,0,1,6.86,2.75,10.73,10.73,0,0,1,2.31,7,8.31,8.31,0,0,1,5.19,2.08,5.06,5.06,0,0,1,1.41,3.47h5.33a.48.48,0,1,1,0,1Z"/><path class="cls-3" d="M5.72,150.7H.47c-.26,0-.47-.1-.47-.23s.21-.23.47-.23H5.72c.26,0,.47.1.47.23S6,150.7,5.72,150.7Z"/><path class="cls-3" d="M300.06,150.7h-290c-.28,0-.5-.11-.5-.25s.22-.25.5-.25h290c.28,0,.5.11.5.25S300.33,150.7,300.06,150.7Z"/><path class="cls-3" d="M309.06,150.7h-3.62c-.28,0-.5-.11-.5-.25s.22-.25.5-.25h3.62c.28,0,.5.11.5.25S309.33,150.7,309.06,150.7Z"/><path class="cls-4" d="M227.93,61a5.66,5.66,0,1,1,5.66-5.66A5.66,5.66,0,0,1,227.93,61Zm0-9.82a4.16,4.16,0,1,0,4.16,4.16A4.16,4.16,0,0,0,227.93,51.19Z"/><path class="cls-5" d="M51.94,85.52a5.66,5.66,0,1,1,5.66-5.66A5.66,5.66,0,0,1,51.94,85.52Zm0-9.82a4.16,4.16,0,1,0,4.16,4.16A4.16,4.16,0,0,0,51.94,75.7Z"/><path class="cls-5" d="M257.26,82.9a5.66,5.66,0,1,1,5.66-5.66A5.66,5.66,0,0,1,257.26,82.9Zm0-9.82a4.16,4.16,0,1,0,4.16,4.16A4.16,4.16,0,0,0,257.26,73.08Z"/><path class="cls-5" d="M226,94.35a3.41,3.41,0,1,1,3.41-3.41A3.41,3.41,0,0,1,226,94.35ZM226,89a1.91,1.91,0,1,0,1.91,1.91A1.91,1.91,0,0,0,226,89Z"/><path class="cls-5" d="M89.08,92.44A3.41,3.41,0,1,1,92.49,89,3.41,3.41,0,0,1,89.08,92.44Zm0-5.31A1.91,1.91,0,1,0,91,89,1.91,1.91,0,0,0,89.08,87.13Z"/><path class="cls-6" d="M181.47,31.57a4.75,4.75,0,1,1,4.75-4.75A4.76,4.76,0,0,1,181.47,31.57Zm0-8a3.25,3.25,0,1,0,3.25,3.25A3.25,3.25,0,0,0,181.47,23.57Z"/><path class="cls-4" d="M219.79,126.31a5.66,5.66,0,1,1,5.66-5.66A5.66,5.66,0,0,1,219.79,126.31Zm0-9.82a4.16,4.16,0,1,0,4.16,4.16A4.16,4.16,0,0,0,219.79,116.49Z"/><path class="cls-6" d="M65.1,129.67A5.66,5.66,0,1,1,70.76,124,5.66,5.66,0,0,1,65.1,129.67Zm0-9.82A4.16,4.16,0,1,0,69.26,124,4.16,4.16,0,0,0,65.1,119.85Z"/><path class="cls-6" d="M158.14,136.81a5.25,5.25,0,1,1,5.25-5.25A5.26,5.26,0,0,1,158.14,136.81Zm0-9a3.75,3.75,0,1,0,3.75,3.75A3.75,3.75,0,0,0,158.14,127.81Z"/><path class="cls-4" d="M77.84,57.26A5.25,5.25,0,1,1,83.09,52,5.26,5.26,0,0,1,77.84,57.26Zm0-9A3.75,3.75,0,1,0,81.59,52,3.75,3.75,0,0,0,77.84,48.26Z"/><path class="cls-7" d="M178.29,113.31h-54a8.32,8.32,0,0,1-8.24-8.32V46.42H153.4a8.32,8.32,0,0,1,16.65,0v58.66A8.32,8.32,0,0,0,178.29,113.31Z"/><path class="cls-3" d="M116.06,46.72H99.11v-.3a8.63,8.63,0,0,1,8.63-8.62v.6a8,8,0,0,0-8,7.72h16.34Z"/><path class="cls-3" d="M170.35,46.42h-.6a8,8,0,0,0-16,0h-.6a8.63,8.63,0,0,1,17.25,0Z"/><path class="cls-3" d="M124.3,113.61a8.65,8.65,0,0,1-8.54-8.62h.6a8,8,0,0,0,7.95,8Z"/><path class="cls-3" d="M178.37,113.61h-.08a8.67,8.67,0,0,1-8.54-8.52v-.3H187v.3A8.65,8.65,0,0,1,178.37,113.61Zm-8-8.22A8.07,8.07,0,0,0,178.3,113h.08a8.05,8.05,0,0,0,8-7.62Z"/><rect class="cls-3" x="169.75" y="46.42" width="0.6" height="58.57"/><rect class="cls-3" x="115.76" y="46.42" width="0.6" height="58.57"/><rect class="cls-3" x="107.73" y="37.8" width="53.99" height="0.6"/><rect class="cls-3" x="116.06" y="46.12" width="37.35" height="0.6"/><rect class="cls-3" x="124.3" y="113.01" width="54" height="0.6"/><rect class="cls-3" x="126.38" y="66.9" width="33.35" height="0.7"/><rect class="cls-3" x="126.38" y="75.36" width="33.35" height="0.7"/><rect class="cls-3" x="126.38" y="58.43" width="17.33" height="0.7"/><rect class="cls-3" x="126.38" y="83.82" width="33.35" height="0.7"/><rect class="cls-3" x="126.38" y="92.28" width="33.35" height="0.7"/><rect class="cls-3" x="142.4" y="100.55" width="17.33" height="0.7"/><path class="cls-8" d="M162,98.25s.22-6.06,2.47-8.3l37.34-37.34a4.09,4.09,0,0,1,6,.11,4.68,4.68,0,0,1,.81,6.06l-38.13,37.9S168.33,98.7,162,98.25Z"/><path class="cls-3" d="M163.82,98.66c-.56,0-1.16,0-1.8-.07a.34.34,0,0,1-.31-.35c0-.25.26-6.21,2.57-8.52l37.34-37.34a5,5,0,0,1,3.22-1.4,4.68,4.68,0,0,1,3.28,1.51A5,5,0,0,1,209,59L170.81,96.92C170.71,97,168.82,98.66,163.82,98.66Zm-1.42-.72c5.77.34,7.92-1.49,7.94-1.51l38.11-37.89a4.33,4.33,0,0,0-.81-5.58,3.82,3.82,0,0,0-2.79-1.31,4.35,4.35,0,0,0-2.76,1.2L164.75,90.19C162.92,92,162.49,96.67,162.4,97.94Z"/><path class="cls-9" d="M192.93,69.79a1.79,1.79,0,0,1-1.27-3.06l16.48-16.48a1.79,1.79,0,1,1,2.54,2.54L194.19,69.26A1.78,1.78,0,0,1,192.93,69.79Z"/><path class="cls-3" d="M209.4,50.06a1.45,1.45,0,0,1,1,2.48L194,69A1.46,1.46,0,0,1,191.89,67l16.48-16.48a1.45,1.45,0,0,1,1-.42m0-.67a2.12,2.12,0,0,0-1.51.62L191.42,66.49a2.14,2.14,0,0,0,0,3h0a2.14,2.14,0,0,0,3,0L210.91,53a2.14,2.14,0,0,0,0-3h0a2.12,2.12,0,0,0-1.51-.62Z"/><path class="cls-3" d="M159.69,101.28a.67.67,0,0,1-.48-1.15l2.35-2.35a.67.67,0,1,1,1,1l-2.35,2.35A.67.67,0,0,1,159.69,101.28Z"/><rect class="cls-3" x="186.8" y="69.22" width="0.67" height="9.12" transform="translate(2.65 153.95) rotate(-45)"/></g></g></svg>