<svg xmlns="http://www.w3.org/2000/svg" viewBox="0 0 325.04 134.86"><defs><style>.cls-1{fill:#eff5f8;}.cls-2{fill:#cdebfc;}.cls-3{opacity:0.5;}.cls-4{fill:#32b475;}.cls-5{fill:#e3b462;}.cls-6{fill:#0aa5e3;}.cls-7{fill:#349b67;}.cls-8{fill:#3273ad;}.cls-9{fill:#ebf6ff;}.cls-10{fill:#fff;}.cls-11{fill:#fad264;}</style></defs><title>pay-apply</title><g id="Layer_2" data-name="Layer 2"><g id="Layer_1-2" data-name="Layer 1"><path class="cls-1" d="M60.38,99.87H10.24a3.77,3.77,0,0,0,0,7.53H23.1a3.77,3.77,0,1,1,0,7.53H15a3.77,3.77,0,1,0,0,7.53H47.52a3.77,3.77,0,1,0,0-7.53H42.06a3.77,3.77,0,1,1,0-7.53H60.38a3.77,3.77,0,0,0,0-7.53Z"/><path class="cls-1" d="M150.75,38.84H100.61a3.77,3.77,0,1,0,0,7.53h12.86a3.77,3.77,0,1,1,0,7.53h-8.05a3.77,3.77,0,1,0,0,7.53h32.47a3.77,3.77,0,0,0,0-7.53h-5.46a3.77,3.77,0,1,1,0-7.53h18.31a3.77,3.77,0,1,0,0-7.53Z"/><path class="cls-1" d="M280.69,120.58h35.7a3.14,3.14,0,1,0,0-6.27h-4.65a3.14,3.14,0,0,1,0-6.27H321.9a3.14,3.14,0,1,0,0-6.27H286.2a3.14,3.14,0,0,0,0,6.27h9.74a3.14,3.14,0,1,1,0,6.27H280.69a3.14,3.14,0,0,0,0,6.27Z"/><path class="cls-1" d="M292.79,80.07H239.7a3.3,3.3,0,0,1,0-6.59h20.47a3.3,3.3,0,0,0,0-6.59H249.49a3.3,3.3,0,1,1,0-6.59H287a3.3,3.3,0,0,1,0,6.59H276.76a3.3,3.3,0,1,0,0,6.59h16a3.3,3.3,0,1,1,0,6.59Z"/><path class="cls-2" d="M258.89,45h4.56a.37.37,0,0,0,.37-.39,3.36,3.36,0,0,1,.9-2.56,6.24,6.24,0,0,1,3.93-1.42.42.42,0,0,0,.28-.13.37.37,0,0,0,.09-.3,7.73,7.73,0,0,1,1.61-5.31A6.12,6.12,0,0,1,275.47,33a5.65,5.65,0,0,1,4.24,1.62,7.87,7.87,0,0,1,1.77,5.14.37.37,0,0,0,.15.31.38.38,0,0,0,.34.06,5.22,5.22,0,0,1,4.41.2c2.23,1.3,2.86,4.35,2.86,4.38a.37.37,0,0,0,.37.3h9a.37.37,0,1,0,0-.75H289.9a7.66,7.66,0,0,0-3.15-4.58,5.72,5.72,0,0,0-4.54-.42,8.2,8.2,0,0,0-2-5.16,6.37,6.37,0,0,0-4.78-1.86,6.85,6.85,0,0,0-5.39,2.16,8.43,8.43,0,0,0-1.81,5.49,6.52,6.52,0,0,0-4.07,1.63,4,4,0,0,0-1.11,2.72h-4.19a.37.37,0,1,0,0,.75Z"/><path class="cls-2" d="M.47,72.39h0l10-.45a1.16,1.16,0,0,0,.73-.1,1.2,1.2,0,0,0,.36-.87c0-.07,0-.13,0-.16a8.69,8.69,0,0,1,.34-1,6.56,6.56,0,0,1,.89-1.54,5.56,5.56,0,0,1,2.34-1.73,6.88,6.88,0,0,1,2.26-.45,7.46,7.46,0,0,1,.83,0,1.25,1.25,0,0,0,.67,0c.35-.13.48-.52.71-1.46,0-.15.07-.27.09-.34a17.94,17.94,0,0,1,1-2.28A11.87,11.87,0,0,1,23,58.89a8.76,8.76,0,0,1,5.19-2.42,11.55,11.55,0,0,1,10.6,5.07,12.59,12.59,0,0,1,1.87,7.8.48.48,0,0,0,.95.1,13.57,13.57,0,0,0-2-8.41,12.37,12.37,0,0,0-11.5-5.5,9.7,9.7,0,0,0-5.75,2.68,12.8,12.8,0,0,0-2.46,3.4,18.81,18.81,0,0,0-1,2.4c0,.08-.07.23-.11.42s-.13.52-.2.74l-.19,0a9,9,0,0,0-.93,0,7.85,7.85,0,0,0-2.57.52,6.52,6.52,0,0,0-2.74,2,7.48,7.48,0,0,0-1,1.77,9.69,9.69,0,0,0-.38,1.11c0,.06,0,.16-.05.27l0,.17h-.17l-10,.45a.47.47,0,0,0,0,.95Z"/><path class="cls-2" d="M211.38,16.25h-5.81a.47.47,0,0,1-.47-.49A4.27,4.27,0,0,0,204,12.49c-1.77-1.82-5-1.8-5-1.81a.53.53,0,0,1-.36-.16.48.48,0,0,1-.11-.38,9.84,9.84,0,0,0-2-6.76A7.79,7.79,0,0,0,190.28,1,7.2,7.2,0,0,0,184.88,3c-2.4,2.51-2.26,6.5-2.26,6.54a.48.48,0,0,1-.19.4A.48.48,0,0,1,182,10a6.65,6.65,0,0,0-5.61.26c-2.84,1.65-3.64,5.54-3.65,5.58a.48.48,0,0,1-.47.38H160.85a.48.48,0,1,1,0-1h11c.29-1.1,1.32-4.27,4-5.83a7.29,7.29,0,0,1,5.78-.53,10.44,10.44,0,0,1,2.51-6.57A8.1,8.1,0,0,1,190.27,0a8.72,8.72,0,0,1,6.86,2.75,10.73,10.73,0,0,1,2.31,7,8.31,8.31,0,0,1,5.19,2.08A5.06,5.06,0,0,1,206,15.3h5.33a.48.48,0,1,1,0,1Z"/><g class="cls-3"><path class="cls-4" d="M72.43,123.63a3.41,3.41,0,1,1,3.41-3.41A3.41,3.41,0,0,1,72.43,123.63Zm0-5.31a1.91,1.91,0,1,0,1.91,1.91A1.91,1.91,0,0,0,72.43,118.32Z"/><path class="cls-5" d="M96.84,104.77a5.66,5.66,0,1,1,5.66-5.66A5.66,5.66,0,0,1,96.84,104.77Zm0-9.82A4.16,4.16,0,1,0,101,99.11,4.16,4.16,0,0,0,96.84,95Z"/><path class="cls-6" d="M58.52,94a5.25,5.25,0,1,1,5.25-5.25A5.26,5.26,0,0,1,58.52,94Zm0-9a3.75,3.75,0,1,0,3.75,3.75A3.75,3.75,0,0,0,58.52,85Z"/><path class="cls-6" d="M256.55,37.66A5.66,5.66,0,1,1,258,29.8,5.66,5.66,0,0,1,256.55,37.66ZM251,29.56a4.16,4.16,0,1,0,5.78,1.08A4.16,4.16,0,0,0,251,29.56Z"/><path class="cls-4" d="M79.93,26.86a5.66,5.66,0,1,1,5.66-5.66A5.66,5.66,0,0,1,79.93,26.86Zm0-9.82a4.16,4.16,0,1,0,4.16,4.16A4.16,4.16,0,0,0,79.93,17Z"/><path class="cls-7" d="M104,35.9A2.06,2.06,0,1,1,106,33.84,2.06,2.06,0,0,1,104,35.9Zm0-3.12A1.06,1.06,0,1,0,105,33.84,1.06,1.06,0,0,0,104,32.78Z"/><path class="cls-4" d="M256.1,59a3.41,3.41,0,1,1,.89-4.74A3.41,3.41,0,0,1,256.1,59Zm-3-4.38a1.91,1.91,0,1,0,2.65.5A1.91,1.91,0,0,0,253.1,54.66Z"/><path class="cls-5" d="M205.84,35.84a4.75,4.75,0,1,1,4.75-4.75A4.76,4.76,0,0,1,205.84,35.84Zm0-8a3.25,3.25,0,1,0,3.25,3.25A3.25,3.25,0,0,0,205.84,27.84Z"/><path class="cls-6" d="M265.28,91a5.66,5.66,0,1,1,1.47-7.87A5.66,5.66,0,0,1,265.28,91Zm-5.55-8.1A4.16,4.16,0,1,0,265.52,84,4.16,4.16,0,0,0,259.74,82.94Z"/><path class="cls-5" d="M294.57,54.47a5.25,5.25,0,1,1,1.37-7.3A5.26,5.26,0,0,1,294.57,54.47ZM289.48,47a3.75,3.75,0,1,0,5.21,1A3.75,3.75,0,0,0,289.48,47Z"/><path class="cls-5" d="M258.84,129.84a4.75,4.75,0,1,1,4.75-4.75A4.76,4.76,0,0,1,258.84,129.84Zm0-8a3.25,3.25,0,1,0,3.25,3.25A3.25,3.25,0,0,0,258.84,121.84Z"/><path class="cls-5" d="M83.57,62.47a5.25,5.25,0,1,1,1.37-7.3A5.26,5.26,0,0,1,83.57,62.47ZM78.48,55a3.75,3.75,0,1,0,5.21,1A3.75,3.75,0,0,0,78.48,55Z"/></g><path class="cls-8" d="M18,134.66H12.79c-.26,0-.47-.1-.47-.23s.21-.23.47-.23H18c.26,0,.47.1.47.23S18.3,134.66,18,134.66Z"/><path class="cls-8" d="M312.38,134.66h-290c-.28,0-.5-.11-.5-.25s.22-.25.5-.25h290c.28,0,.5.11.5.25S312.66,134.66,312.38,134.66Z"/><path class="cls-8" d="M321.38,134.66h-3.62c-.28,0-.5-.11-.5-.25s.22-.25.5-.25h3.62c.28,0,.5.11.5.25S321.66,134.66,321.38,134.66Z"/><path class="cls-9" d="M123.16,77s18.66-31.92,61.67-21.91c0,0,6.76-9.74,25.16-7.84,0,0,4.52,1.31,2.43,7.57C211.34,58.11,207,66.49,207,66.49s6.22,6.76,9.2,12.17H223s4.6-.27,4.6,4.33v20.83s0,4.33-4.87,4.33h-9.2a29.49,29.49,0,0,1-4.87,7.57l-.54,13s.54,5.68-3.79,5.68H190.25s-5.14-1.08-4.87-6.22c0,0-14.88,6.76-28.13.54,0,0,0,5.68-4.33,5.68H137.5s-3.79-1.08-3.79-4.87.27-11.09.27-11.09-16.23-8.39-13.8-29.21c0,0-7.3-3.25-5.14-8.66S123.16,77,123.16,77Z"/><path class="cls-8" d="M204.31,134.59H190.25c-.09,0-5.13-1.14-5.08-6.12-2.14.89-15.64,6-27.74.54-.08,1.21-.64,5.57-4.51,5.57H137.44s-3.93-1.17-3.93-5.06c0-3.48.23-10,.27-11-1.44-.81-16-9.5-13.81-29.21-1-.49-7.15-3.74-5.11-8.85s7.25-3.93,8.21-3.68a52.23,52.23,0,0,1,14.69-14.64c9.18-6.15,24.77-12.39,47-7.26a18.18,18.18,0,0,1,5.67-4.58c3.67-2,10-4.22,19.59-3.24a4.53,4.53,0,0,1,2.58,2.2c.77,1.47.78,3.36,0,5.63-1,3-4.82,10.48-5.36,11.54.79.87,6.3,7,9.07,12H223a5.22,5.22,0,0,1,3.55,1.22A4.35,4.35,0,0,1,227.77,83v20.83a4.65,4.65,0,0,1-5.07,4.53h-9.06a30.85,30.85,0,0,1-4.81,7.45l-.54,12.92c0,.1.27,3.07-1.26,4.75A3.52,3.52,0,0,1,204.31,134.59Zm-18.72-6.74,0,.33c-.26,4.91,4.66,6,4.71,6h14a3.14,3.14,0,0,0,2.43-1c1.42-1.56,1.16-4.45,1.16-4.48l.54-13.08,0-.05a29.74,29.74,0,0,0,4.83-7.51l0-.13h9.34c4.61,0,4.67-4,4.67-4.13V83a4,4,0,0,0-1.12-3A4.89,4.89,0,0,0,223,78.86H216.1l-.06-.1c-2.93-5.33-9.11-12.07-9.17-12.13l-.09-.1.06-.12c0-.08,4.33-8.41,5.4-11.6.72-2.16.72-3.95,0-5.31a4.24,4.24,0,0,0-2.31-2c-9.4-1-15.69,1.2-19.3,3.18A17.56,17.56,0,0,0,185,55.24l-.08.11-.13,0c-22.15-5.15-37.68,1.06-46.81,7.17a51.19,51.19,0,0,0-14.65,14.64l-.08.14-.15,0c-.24-.07-5.8-1.77-7.87,3.4s5,8.37,5,8.4l.13.06,0,.15c-2.39,20.44,13.53,28.93,13.69,29l.11.06v.13c0,.07-.27,7.34-.27,11.08a5,5,0,0,0,3.62,4.67h15.39c4.08,0,4.13-5.43,4.13-5.48v-.31l.29.13c13,6.11,27.82-.47,28-.54Z"/><path class="cls-8" d="M204.31,134.66H190.25c-.11,0-5.13-1.13-5.15-6.08-2.43,1-15.68,5.92-27.6.54-.11,1.35-.74,5.54-4.58,5.54H137.42s-4-1.18-4-5.13c0-3.43.22-9.82.26-10.93-1.65-.93-16-9.66-13.81-29.21-1.13-.56-7.14-3.82-5.1-8.92s7.15-4,8.24-3.73a52.4,52.4,0,0,1,14.68-14.62c9.18-6.15,24.78-12.4,47-7.28a18.4,18.4,0,0,1,5.66-4.57c3.67-2,10.06-4.23,19.63-3.24a4.6,4.6,0,0,1,2.64,2.24c.78,1.48.79,3.4,0,5.69-1,3-4.71,10.27-5.34,11.5.9,1,6.28,7,9,11.94H223a5.28,5.28,0,0,1,3.59,1.24A4.42,4.42,0,0,1,227.84,83v20.83a4.72,4.72,0,0,1-5.14,4.6h-9a31.23,31.23,0,0,1-4.79,7.4l-.54,12.89c0,.09.28,3.09-1.28,4.8A3.58,3.58,0,0,1,204.31,134.66Zm-18.93-6.76a.27.27,0,0,1,.27.28c-.26,4.85,4.6,5.93,4.65,5.94h14a3.07,3.07,0,0,0,2.38-1c1.4-1.54,1.14-4.39,1.14-4.42l.54-13a.28.28,0,0,1,.06-.16,29.63,29.63,0,0,0,4.82-7.49.27.27,0,0,1,.25-.18h9.2c4.55,0,4.6-3.89,4.6-4.06V83a3.9,3.9,0,0,0-1.11-3A4.75,4.75,0,0,0,223,78.93h-6.78a.27.27,0,0,1-.24-.14c-2.93-5.32-9.1-12.05-9.16-12.12a.27.27,0,0,1,0-.31c0-.08,4.33-8.4,5.39-11.59.71-2.14.72-3.91,0-5.26a4.17,4.17,0,0,0-2.27-2c-9.36-1-15.64,1.2-19.24,3.17a17.51,17.51,0,0,0-5.62,4.57.27.27,0,0,1-.28.11c-22.12-5.15-37.64,1.05-46.75,7.16A51.12,51.12,0,0,0,123.4,77.18a.27.27,0,0,1-.32.12c-.23-.07-5.74-1.75-7.78,3.36s4.93,8.28,5,8.31a.27.27,0,0,1,.16.28c-2.38,20.39,13.49,28.86,13.65,28.94a.27.27,0,0,1,.15.25c0,.07-.27,7.34-.27,11.08a5,5,0,0,0,3.56,4.6h15.38c4,0,4.06-5.19,4.06-5.41a.27.27,0,0,1,.13-.23.27.27,0,0,1,.26,0c13,6.1,27.76-.48,27.9-.54Z"/><path class="cls-8" d="M204.31,134.86H190.25c-.08,0-5.13-1.11-5.34-6-3.07,1.22-15.7,5.59-27.24.54-.17,1.58-1,5.44-4.75,5.44H137.5l-.13,0c-.17-.05-4.13-1.27-4.13-5.32,0-3.32.21-9.35.26-10.82-2.08-1.2-15.9-10-13.82-29.21-1.47-.75-7.1-4-5.07-9.11s7-4.19,8.33-3.88a52.58,52.58,0,0,1,14.66-14.56c9.19-6.16,24.81-12.42,47-7.34a18.91,18.91,0,0,1,5.64-4.52c3.7-2,10.13-4.26,19.75-3.27a4.73,4.73,0,0,1,2.79,2.35c.81,1.53.82,3.5,0,5.84a124.8,124.8,0,0,1-5.29,11.41,79.33,79.33,0,0,1,8.91,11.78H223a5.52,5.52,0,0,1,3.73,1.29A4.6,4.6,0,0,1,228,83v20.83a4.91,4.91,0,0,1-5.34,4.8h-8.88a32.08,32.08,0,0,1-4.72,7.28l-.53,12.83s.32,3.11-1.33,4.92A3.77,3.77,0,0,1,204.31,134.86Zm-19-6.58v.3c0,4.84,4.93,5.87,5,5.88h14a3.39,3.39,0,0,0,2.63-1.08c1.51-1.66,1.23-4.61,1.23-4.64l.54-13,0-.05a31.06,31.06,0,0,0,4.76-7.35l.05-.12h9.15a4.54,4.54,0,0,0,4.94-4.4V83a4.22,4.22,0,0,0-1.21-3.21A5.09,5.09,0,0,0,223,78.59h-6.73l-.06-.1c-2.72-4.88-8-10.77-9-11.91l-.09-.1.06-.12c.44-.85,4.31-8.42,5.33-11.48.75-2.24.74-4.1,0-5.53A4.4,4.4,0,0,0,210,47.21c-9.49-1-15.84,1.21-19.49,3.23a18.15,18.15,0,0,0-5.6,4.51l-.08.1-.12,0c-22.15-5.11-37.7,1.13-46.85,7.25a51.9,51.9,0,0,0-14.62,14.56l-.08.12-.14,0c-1-.25-6.06-1.26-8,3.61s3.82,8.08,5,8.66l.13.06,0,.14c-2.17,19.44,12.08,28.09,13.71,29l.11.06v.12c0,1.23-.26,7.52-.26,10.93,0,3.76,3.68,4.89,3.84,4.94h15.44c3.67,0,4.28-4.1,4.38-5.35l0-.28.26.12c11.83,5.33,24.94.48,27.44-.54Zm5,6c-.09,0-5.12-1.14-4.86-6.15a.07.07,0,0,0,0-.06h-.07c-.15.07-15.06,6.65-28.07.54a.07.07,0,0,0-.07,0,.07.07,0,0,0,0,.06c0,.23,0,5.61-4.26,5.61H137.48a5.15,5.15,0,0,1-3.7-4.79c0-3.43.22-9.81.27-11,0-.07,0-.09,0-.1s-16.16-8.62-13.76-29.14a.07.07,0,0,0,0-.07c-.3-.13-7.19-3.34-5.1-8.57s7.79-3.55,8-3.48a.07.07,0,0,0,.08,0,51.15,51.15,0,0,1,14.69-14.69c9.15-6.13,24.71-12.36,46.91-7.19a.07.07,0,0,0,.07,0,17.65,17.65,0,0,1,5.69-4.63c3.63-2,9.93-4.16,19.36-3.2a4.33,4.33,0,0,1,2.42,2.08c.73,1.4.73,3.22,0,5.41-1,2.94-4.66,10.16-5.38,11.58,0,.07,0,.1,0,.12s6.25,6.82,9.19,12.16a.07.07,0,0,0,.06,0H223a4.89,4.89,0,0,1,3.34,1.14A4.09,4.09,0,0,1,227.5,83v20.83c0,.17-.05,4.26-4.8,4.26h-9.2a.07.07,0,0,0-.07,0,30,30,0,0,1-4.86,7.55L208,128.74s.26,2.95-1.19,4.55a3.26,3.26,0,0,1-2.53,1Zm-4.93-6.63a.47.47,0,0,1,.47.5c-.25,4.68,4.45,5.73,4.5,5.74h14a2.88,2.88,0,0,0,2.23-.9c1.34-1.47,1.09-4.24,1.09-4.27l.54-13a.48.48,0,0,1,.11-.28,29.71,29.71,0,0,0,4.79-7.44.47.47,0,0,1,.44-.31h9.2c4.35,0,4.4-3.7,4.4-3.86V83a3.71,3.71,0,0,0-1-2.82,4.6,4.6,0,0,0-3-1h-6.83a.47.47,0,0,1-.41-.24c-2.91-5.29-9.07-12-9.13-12.08a.47.47,0,0,1-.07-.54c.75-1.45,4.41-8.65,5.38-11.56.69-2.09.7-3.8,0-5.1a4,4,0,0,0-2.15-1.87c-9.29-.94-15.51,1.19-19.08,3.16a17.4,17.4,0,0,0-5.55,4.51.46.46,0,0,1-.5.19c-22.05-5.13-37.51,1-46.59,7.13a50.77,50.77,0,0,0-14.56,14.55.47.47,0,0,1-.55.21c-.22-.07-5.57-1.68-7.53,3.24s4.62,7.92,4.9,8.05a.47.47,0,0,1,.28.48C118.29,109.51,134,117.93,134.2,118a.47.47,0,0,1,.25.44c0,1.28-.27,7.65-.27,11.07a4.74,4.74,0,0,0,3.39,4.4h15.35c3.81,0,3.86-5,3.86-5.21a.47.47,0,0,1,.22-.4.48.48,0,0,1,.45,0c12.84,6,27.59-.48,27.74-.54A.49.49,0,0,1,185.38,127.69Z"/><path class="cls-10" d="M173.83,57.79A20.43,20.43,0,1,0,146,63.21,50.77,50.77,0,0,1,173.83,57.79Z"/><path class="cls-8" d="M146,63.44l-.1-.06A20.64,20.64,0,1,1,174,57.9l-.07.1h-.12a50.44,50.44,0,0,0-27.68,5.4Zm11.09-37.61A20.22,20.22,0,0,0,146.05,63a50.76,50.76,0,0,1,27.68-5.4,20.21,20.21,0,0,0-16.61-31.75Z"/><path class="cls-8" d="M137,46.06a20.16,20.16,0,1,1,36.55,11.7l.63.07a20.7,20.7,0,1,0-28.37,5.53l.57-.29A20.15,20.15,0,0,1,137,46.06Z"/><path class="cls-8" d="M145.75,63.58l-.1-.06a20.91,20.91,0,1,1,28.64-5.58l-.07.1-.34,0-.39,0-.35,0,.2-.28a20,20,0,1,0-26.9,5.25l.3.19-.31.16-.56.29Zm11.37-38a20.49,20.49,0,0,0-11.34,37.56l.15-.08a20.37,20.37,0,1,1,27.93-5.45H174a20.48,20.48,0,0,0-16.92-32.05Z"/><path class="cls-11" d="M171.42,46.06A14.3,14.3,0,1,0,153.88,60,50.62,50.62,0,0,1,165.4,57.7,14.27,14.27,0,0,0,171.42,46.06Z"/><path class="cls-8" d="M171.69,46.06a14.57,14.57,0,1,0-18.27,14.08l1-.32a14,14,0,1,1,10.45-2.06l1-.08A14.54,14.54,0,0,0,171.69,46.06Z"/><circle class="cls-11" cx="197.14" cy="79.07" r="3.92"/><path class="cls-8" d="M197.14,83.26a4.19,4.19,0,1,1,4.19-4.19A4.2,4.2,0,0,1,197.14,83.26Zm0-7.84a3.65,3.65,0,1,0,3.65,3.65A3.66,3.66,0,0,0,197.14,75.42Z"/><path class="cls-8" d="M141.3,69.16a.27.27,0,0,1-.17-.48c.17-.13,16.86-13,39.45-8.17a.27.27,0,0,1-.11.53c-22.33-4.79-38.83,7.93-39,8.06A.27.27,0,0,1,141.3,69.16Z"/><path class="cls-10" d="M149.48,114.58a1,1,0,0,1-.43-.1c-18.94-9-12.7-27.77-12.63-28a1,1,0,0,1,1.89.65c-.24.7-5.7,17.28,11.6,25.5a1,1,0,0,1-.43,1.9Z"/></g></g></svg>