<svg xmlns="http://www.w3.org/2000/svg" viewBox="0 0 309.56 157.63"><defs><style>.cls-1{fill:#eff5f8;}.cls-2{fill:#cdebfc;}.cls-3{fill:#3273ad;}.cls-4{opacity:0.5;}.cls-5{fill:#0aa5e3;}.cls-6{fill:#32b475;}.cls-7{fill:#e3b462;}.cls-8{fill:#caedff;}.cls-9{fill:#fad264;}.cls-10{fill:#fff;}</style></defs><title>Asset 1</title><g id="Layer_2" data-name="Layer 2"><g id="Layer_1-2" data-name="Layer 1"><path class="cls-1" d="M248.54,131.69h-35.7a3.14,3.14,0,1,0,0,6.27h4.65a3.14,3.14,0,1,1,0,6.27H207.33a3.14,3.14,0,1,0,0,6.27H243a3.14,3.14,0,0,0,0-6.27h-9.74a3.14,3.14,0,1,1,0-6.27h15.25a3.14,3.14,0,0,0,0-6.27Z"/><path class="cls-1" d="M24.64,134.27H65.76a3.09,3.09,0,0,0,0-6.18H55.22a3.09,3.09,0,1,1,0-6.18h6.6a3.09,3.09,0,0,0,0-6.18H35.19a3.09,3.09,0,0,0,0,6.18h4.47a3.09,3.09,0,1,1,0,6.18h-15a3.09,3.09,0,0,0,0,6.18Z"/><path class="cls-1" d="M251.86,100.27h41.29a3.1,3.1,0,1,0,0-6.2H282.56a3.1,3.1,0,1,1,0-6.2h6.63a3.1,3.1,0,1,0,0-6.2H262.45a3.1,3.1,0,1,0,0,6.2h4.49a3.1,3.1,0,1,1,0,6.2H251.86a3.1,3.1,0,1,0,0,6.2Z"/><path class="cls-1" d="M66,66.17H94.76a2.16,2.16,0,0,0,0-4.33H87.37a2.16,2.16,0,0,1,0-4.33H92a2.16,2.16,0,1,0,0-4.33H73.35a2.16,2.16,0,0,0,0,4.33h3.13a2.16,2.16,0,0,1,0,4.33H66a2.16,2.16,0,0,0,0,4.33Z"/><path class="cls-2" d="M19.94,54.74h5.81a.47.47,0,0,0,.47-.49A4.27,4.27,0,0,1,27.36,51c1.77-1.82,5-1.8,5-1.81a.53.53,0,0,0,.36-.16.48.48,0,0,0,.11-.38,9.84,9.84,0,0,1,2-6.76A7.79,7.79,0,0,1,41,39.45a7.2,7.2,0,0,1,5.4,2.06C48.83,44,48.7,48,48.7,48.05a.48.48,0,0,0,.19.4.48.48,0,0,0,.44.07,6.65,6.65,0,0,1,5.61.26c2.84,1.65,3.64,5.54,3.65,5.58a.48.48,0,0,0,.47.38H70.47a.48.48,0,0,0,0-1h-11c-.29-1.1-1.32-4.27-4-5.83a7.29,7.29,0,0,0-5.78-.53,10.44,10.44,0,0,0-2.51-6.57A8.1,8.1,0,0,0,41,38.5a8.72,8.72,0,0,0-6.86,2.75,10.73,10.73,0,0,0-2.31,7,8.31,8.31,0,0,0-5.19,2.08,5.06,5.06,0,0,0-1.41,3.47H19.94a.48.48,0,1,0,0,1Z"/><path class="cls-2" d="M247.55,62.27h0l10-.45a1.16,1.16,0,0,0,.73-.1,1.2,1.2,0,0,0,.36-.87c0-.07,0-.13,0-.16a8.69,8.69,0,0,1,.34-1,6.56,6.56,0,0,1,.89-1.54,5.56,5.56,0,0,1,2.34-1.73,6.88,6.88,0,0,1,2.26-.45,7.46,7.46,0,0,1,.83,0,1.25,1.25,0,0,0,.67,0c.35-.13.48-.52.71-1.46,0-.15.07-.27.09-.34a17.94,17.94,0,0,1,1-2.28A11.87,11.87,0,0,1,270,48.78a8.76,8.76,0,0,1,5.19-2.42,11.55,11.55,0,0,1,10.6,5.07,12.59,12.59,0,0,1,1.87,7.8.48.48,0,0,0,.95.1,13.57,13.57,0,0,0-2-8.41,12.37,12.37,0,0,0-11.5-5.5,9.7,9.7,0,0,0-5.75,2.68,12.8,12.8,0,0,0-2.46,3.4,18.81,18.81,0,0,0-1,2.4c0,.08-.07.23-.11.42s-.13.52-.2.74l-.19,0a9,9,0,0,0-.93,0,7.85,7.85,0,0,0-2.57.52,6.52,6.52,0,0,0-2.74,2,7.48,7.48,0,0,0-1,1.77,9.69,9.69,0,0,0-.38,1.11c0,.06,0,.16-.05.27l0,.17h-.17l-10,.45a.47.47,0,0,0,0,.95Z"/><path class="cls-2" d="M127.45,26.93h5.81a.47.47,0,0,0,.47-.49,4.27,4.27,0,0,1,1.14-3.26c1.77-1.82,5-1.8,5-1.81a.53.53,0,0,0,.36-.16.48.48,0,0,0,.11-.38,9.84,9.84,0,0,1,2-6.76,7.79,7.79,0,0,1,6.14-2.43A7.2,7.2,0,0,1,154,13.7c2.4,2.51,2.26,6.5,2.26,6.54a.48.48,0,0,0,.19.4.48.48,0,0,0,.44.07,6.65,6.65,0,0,1,5.61.26c2.84,1.65,3.64,5.54,3.65,5.58a.48.48,0,0,0,.47.38H178a.48.48,0,1,0,0-1h-11c-.29-1.1-1.32-4.27-4-5.83a7.29,7.29,0,0,0-5.78-.53A10.44,10.44,0,0,0,154.65,13a8.1,8.1,0,0,0-6.09-2.36,8.72,8.72,0,0,0-6.86,2.75,10.73,10.73,0,0,0-2.31,7,8.31,8.31,0,0,0-5.19,2.08A5.06,5.06,0,0,0,132.79,26h-5.33a.48.48,0,0,0,0,1Z"/><path class="cls-3" d="M5.72,157.63H.47c-.26,0-.47-.1-.47-.23s.21-.23.47-.23H5.72c.26,0,.47.1.47.23S6,157.63,5.72,157.63Z"/><path class="cls-3" d="M300.06,157.63h-290c-.28,0-.5-.11-.5-.25s.22-.25.5-.25h290c.28,0,.5.11.5.25S300.33,157.63,300.06,157.63Z"/><path class="cls-3" d="M309.06,157.63h-3.62c-.28,0-.5-.11-.5-.25s.22-.25.5-.25h3.62c.28,0,.5.11.5.25S309.33,157.63,309.06,157.63Z"/><g class="cls-4"><path class="cls-5" d="M204.19,82.14a5.66,5.66,0,1,1,5.66-5.66A5.66,5.66,0,0,1,204.19,82.14Zm0-9.82a4.16,4.16,0,1,0,4.16,4.16A4.16,4.16,0,0,0,204.19,72.32Z"/><path class="cls-6" d="M67.14,71.74a5.66,5.66,0,1,1,5.66-5.66A5.66,5.66,0,0,1,67.14,71.74Zm0-9.82a4.16,4.16,0,1,0,4.16,4.16A4.16,4.16,0,0,0,67.14,61.92Z"/><path class="cls-6" d="M238.67,63.44a5.66,5.66,0,1,1,5.66-5.66A5.66,5.66,0,0,1,238.67,63.44Zm0-9.82a4.16,4.16,0,1,0,4.16,4.16A4.16,4.16,0,0,0,238.67,53.62Z"/><path class="cls-6" d="M229.44,141a3.58,3.58,0,1,1,3.58-3.58A3.58,3.58,0,0,1,229.44,141Zm0-6.21a2.63,2.63,0,1,0,2.63,2.63A2.63,2.63,0,0,0,229.44,134.78Z"/><path class="cls-6" d="M232.06,91.78a3.41,3.41,0,1,1,3.41-3.41A3.41,3.41,0,0,1,232.06,91.78Zm0-5.31A1.91,1.91,0,1,0,234,88.37,1.91,1.91,0,0,0,232.06,86.46Z"/><path class="cls-6" d="M41.8,89.67a3.41,3.41,0,1,1,3.41-3.41A3.41,3.41,0,0,1,41.8,89.67Zm0-5.31a1.91,1.91,0,1,0,1.91,1.91A1.91,1.91,0,0,0,41.8,84.35Z"/><path class="cls-7" d="M258.66,116.29a3.41,3.41,0,1,1,3.41-3.41A3.41,3.41,0,0,1,258.66,116.29Zm0-5.31a1.91,1.91,0,1,0,1.91,1.91A1.91,1.91,0,0,0,258.66,111Z"/><path class="cls-7" d="M107.74,46.35a4.75,4.75,0,1,1,4.75-4.75A4.76,4.76,0,0,1,107.74,46.35Zm0-8A3.25,3.25,0,1,0,111,41.6,3.25,3.25,0,0,0,107.74,38.35Z"/><path class="cls-5" d="M217,116a4.74,4.74,0,1,1,4.74-4.74A4.75,4.75,0,0,1,217,116Zm0-8.22a3.48,3.48,0,1,0,3.48,3.48A3.49,3.49,0,0,0,217,107.74Z"/><path class="cls-7" d="M76.61,147.23a5.66,5.66,0,1,1,5.66-5.66A5.66,5.66,0,0,1,76.61,147.23Zm0-9.82a4.16,4.16,0,1,0,4.16,4.16A4.16,4.16,0,0,0,76.61,137.41Z"/><path class="cls-7" d="M204.19,46.85a5.25,5.25,0,1,1,5.25-5.25A5.26,5.26,0,0,1,204.19,46.85Zm0-9a3.75,3.75,0,1,0,3.75,3.75A3.75,3.75,0,0,0,204.19,37.85Z"/><path class="cls-5" d="M63.39,106.53a5.25,5.25,0,1,1,5.25-5.25A5.26,5.26,0,0,1,63.39,106.53Zm0-9a3.75,3.75,0,1,0,3.75,3.75A3.75,3.75,0,0,0,63.39,97.53Z"/></g><polyline class="cls-8" points="136.17 62.73 126.32 91.42 176.24 91.42 166.4 62.73"/><path class="cls-3" d="M176.24,91.78H126.32a.36.36,0,0,1-.34-.47l9.85-28.7a.36.36,0,1,1,.67.23l-9.69,28.22h48.92l-9.68-28.22a.36.36,0,1,1,.67-.23l9.84,28.7a.35.35,0,0,1-.34.47Z"/><path class="cls-8" d="M151.28.36C137.41,11,136.34,42,136.34,42V77.55h29.88V42S165.15,11,151.28.36"/><path class="cls-3" d="M166.22,77.9H136.34a.36.36,0,0,1-.36-.36V42a105.14,105.14,0,0,1,2.28-16.88c1.84-8.33,5.55-19.44,12.8-25a.36.36,0,0,1,.43,0c7.25,5.58,11,16.68,12.8,25A105.25,105.25,0,0,1,166.58,42V77.55A.36.36,0,0,1,166.22,77.9Zm-29.52-.36h0Zm0-.36h29.17V42a104.51,104.51,0,0,0-2.26-16.74C161.81,17.1,158.22,6.31,151.28.81c-6.94,5.5-10.53,16.3-12.33,24.44A104.41,104.41,0,0,0,136.69,42Z"/><polygon class="cls-6" points="164.52 99.01 137.49 99.01 142.47 91.42 159.54 91.42 164.52 99.01"/><path class="cls-3" d="M164.52,99.36h-27a.36.36,0,0,1-.3-.55l5-7.59a.36.36,0,0,1,.3-.16h17.07a.36.36,0,0,1,.3.16l5,7.59a.36.36,0,0,1-.3.55Zm-26.38-.71h25.72l-4.51-6.88H142.66Z"/><path class="cls-3" d="M136,107.84a.36.36,0,0,1-.25-.61l6.34-6.34a.36.36,0,1,1,.5.5l-6.34,6.34A.35.35,0,0,1,136,107.84Z"/><path class="cls-3" d="M164.52,108.14a.35.35,0,0,1-.25-.1l-6.4-6.4a.36.36,0,0,1,.5-.5l6.4,6.4a.36.36,0,0,1-.25.61Z"/><path class="cls-9" d="M151,121.42s-14.82-16.6,0-18.85"/><path class="cls-3" d="M151,121.77a.35.35,0,0,1-.27-.12c-.34-.39-8.41-9.51-6.34-15.27.8-2.23,3-3.63,6.55-4.17a.36.36,0,0,1,.11.7c-3.27.5-5.28,1.74-6,3.71-1.93,5.36,6.12,14.46,6.2,14.56a.36.36,0,0,1-.27.59Z"/><path class="cls-9" d="M151,121.42s14.82-16.6,0-18.85"/><path class="cls-3" d="M151,121.77a.36.36,0,0,1-.27-.59c.08-.09,8.13-9.2,6.2-14.56-.71-2-2.72-3.21-6-3.71a.36.36,0,0,1,.11-.7c3.54.54,5.75,1.94,6.55,4.17,2.07,5.76-6,14.88-6.34,15.27A.35.35,0,0,1,151,121.77Z"/><circle class="cls-9" cx="150.64" cy="41.26" r="6.94"/><path class="cls-3" d="M150.64,48.56a7.29,7.29,0,1,1,7.29-7.29A7.3,7.3,0,0,1,150.64,48.56Zm0-13.87a6.58,6.58,0,1,0,6.58,6.58A6.59,6.59,0,0,0,150.64,34.68Z"/><line class="cls-10" x1="145.27" y1="20.28" x2="162.15" y2="20.28"/><path class="cls-3" d="M162.15,20.63H145.27a.36.36,0,1,1,0-.71h16.88a.36.36,0,1,1,0,.71Z"/><rect class="cls-10" x="134.38" y="77.55" width="15.97" height="13.87" rx="1.57" ry="1.57"/><path class="cls-3" d="M148.78,91.78H136A1.93,1.93,0,0,1,134,89.85V79.12A1.93,1.93,0,0,1,136,77.19h12.83a1.93,1.93,0,0,1,1.93,1.93V89.85A1.93,1.93,0,0,1,148.78,91.78ZM136,77.9a1.22,1.22,0,0,0-1.22,1.21V89.85A1.22,1.22,0,0,0,136,91.06h12.83A1.22,1.22,0,0,0,150,89.85V79.12a1.22,1.22,0,0,0-1.21-1.21Z"/><rect class="cls-10" x="152.17" y="77.55" width="15.97" height="13.87" rx="1.57" ry="1.57"/><path class="cls-3" d="M166.56,91.78H153.74a1.93,1.93,0,0,1-1.93-1.93V79.12a1.93,1.93,0,0,1,1.93-1.93h12.83a1.93,1.93,0,0,1,1.93,1.93V89.85A1.93,1.93,0,0,1,166.56,91.78ZM153.74,77.9a1.22,1.22,0,0,0-1.22,1.21V89.85a1.22,1.22,0,0,0,1.22,1.22h12.83a1.22,1.22,0,0,0,1.21-1.22V79.12a1.22,1.22,0,0,0-1.21-1.21Z"/><rect class="cls-10" x="148.21" y="61.54" width="6.09" height="29.88" rx="2.85" ry="2.85"/><path class="cls-3" d="M151.46,91.78h-.4a3.2,3.2,0,0,1-3.2-3.2V64.39a3.2,3.2,0,0,1,3.2-3.2h.4a3.2,3.2,0,0,1,3.2,3.2V88.57A3.2,3.2,0,0,1,151.46,91.78Zm-.4-29.88a2.49,2.49,0,0,0-2.49,2.49V88.57a2.49,2.49,0,0,0,2.49,2.49h.4a2.49,2.49,0,0,0,2.49-2.49V64.39a2.49,2.49,0,0,0-2.49-2.49Z"/><polyline class="cls-9" points="144.9 9.07 149.7 9.07 146.85 14.58 142.23 14.58"/><path class="cls-3" d="M146.85,14.94h-4.62a.36.36,0,1,1,0-.71h4.41l2.48-4.8H144.9a.36.36,0,1,1,0-.71h4.8a.36.36,0,0,1,.32.52l-2.85,5.51A.36.36,0,0,1,146.85,14.94Z"/><path class="cls-3" d="M142.7,20.63h-2.87a.36.36,0,1,1,0-.71h2.87a.36.36,0,1,1,0,.71Z"/><path class="cls-8" d="M123,150.88a19.07,19.07,0,0,1-19-17.63,15.36,15.36,0,0,1,14.15-16.44,12.37,12.37,0,0,1,13.26,11.42,10,10,0,0,1-9.23,10.71,8.1,8.1,0,0,1-8.68-7.47,6.58,6.58,0,0,1,6.07-7.05,5.36,5.36,0,0,1,5.75,4.95,4.39,4.39,0,0,1-4.05,4.71,3.61,3.61,0,0,1-3.87-3.33l1-.07a2.61,2.61,0,0,0,2.8,2.41,3.39,3.39,0,0,0,3.13-3.63,4.36,4.36,0,0,0-4.68-4,5.58,5.58,0,0,0-5.15,6,7.1,7.1,0,0,0,7.61,6.55,9,9,0,0,0,8.3-9.64,11.37,11.37,0,0,0-12.19-10.49A14.34,14.34,0,0,0,105,133.18a18.07,18.07,0,0,0,19.34,16.65,22.71,22.71,0,0,0,20.93-24.31l1-.07a23.71,23.71,0,0,1-21.86,25.39Q123.73,150.88,123,150.88Z"/><path class="cls-8" d="M172.2,151.12a15.46,15.46,0,0,1-7-1.67,19.36,19.36,0,0,1-8.56-26l.89.45a18.36,18.36,0,0,0,8.12,24.63,14.59,14.59,0,0,0,19.57-6.45,11.57,11.57,0,0,0-5.11-15.52,9.16,9.16,0,0,0-12.29,4,7.22,7.22,0,0,0,3.19,9.69,5.68,5.68,0,0,0,7.62-2.51,4.44,4.44,0,0,0-2-6,3.45,3.45,0,0,0-4.64,1.53,2.66,2.66,0,0,0,1.18,3.57,2,2,0,0,0,2.72-.9,1.53,1.53,0,0,0-.67-2,1.13,1.13,0,0,0-.47-.12,1.2,1.2,0,0,1,.35.11,1.33,1.33,0,0,1,.59,1.79,1.54,1.54,0,0,1-2.06.68,1.79,1.79,0,0,1-.79-2.41,2.12,2.12,0,0,1,2.85-.94,2.53,2.53,0,0,1,1.12,3.39,3,3,0,0,1-4.07,1.34,3.67,3.67,0,0,1-1.62-4.92,4.46,4.46,0,0,1,6-2,5.44,5.44,0,0,1,2.41,7.31,6.68,6.68,0,0,1-9,3,8.22,8.22,0,0,1-3.63-11,10.16,10.16,0,0,1,13.63-4.49,12.57,12.57,0,0,1,5.56,16.87A15.59,15.59,0,0,1,172.2,151.12Zm1.54-16.53a.8.8,0,0,0,.39,1,.54.54,0,0,0,.72-.24.33.33,0,0,0-.15-.44.16.16,0,0,0-.22.07Z"/></g></g></svg>