<svg xmlns="http://www.w3.org/2000/svg" xmlns:xlink="http://www.w3.org/1999/xlink" viewBox="0 0 309.96 148.15"><defs><style>.cls-1{fill:none;}.cls-2{fill:#eff5f8;}.cls-3{fill:#cdebfc;}.cls-4{fill:#3273ad;}.cls-5{fill:#046ca3;}.cls-6{fill:#0aa5e3;}.cls-7{clip-path:url(#clip-path);}.cls-8{fill:#fff;}.cls-9{fill:#6ec9db;}.cls-10{fill:#fe3f87;}.cls-11{fill:#ffc486;}.cls-12{fill:#3fb990;}.cls-13{fill:#a2a2a2;}.cls-14{fill:#d0d0d0;}.cls-15{fill:#e4e4e4;}.cls-16{fill:#fff8d9;}.cls-17{fill:#ffefe9;}.cls-18{fill:#ead9ce;}.cls-19{fill:#fff6f3;}.cls-20{fill:#ede0d6;}.cls-21{opacity:0.5;}.cls-22{fill:#32b475;}.cls-23{fill:#e3b462;}</style><clipPath id="clip-path"><rect class="cls-1" x="84.97" y="36.62" width="146.73" height="99.79" rx="3.73" ry="3.73"/></clipPath></defs><title>public-slack</title><g id="Layer_2" data-name="Layer 2"><g id="Layer_1-2" data-name="Layer 1"><path class="cls-2" d="M242.87,117.18h-35.7a3.14,3.14,0,0,0,0,6.27h4.65a3.14,3.14,0,1,1,0,6.27H201.66a3.14,3.14,0,0,0,0,6.27h35.7a3.14,3.14,0,0,0,0-6.27h-9.74a3.14,3.14,0,0,1,0-6.27h15.25a3.14,3.14,0,1,0,0-6.27Z"/><path class="cls-2" d="M19.5,109.36H60.62a3.09,3.09,0,0,0,0-6.18H50.07a3.09,3.09,0,1,1,0-6.18h6.6a3.09,3.09,0,0,0,0-6.18H30A3.09,3.09,0,1,0,30,97h4.47a3.09,3.09,0,1,1,0,6.18h-15a3.09,3.09,0,0,0,0,6.18Z"/><path class="cls-2" d="M261.06,89.58h41.29a3.1,3.1,0,1,0,0-6.2H291.76a3.1,3.1,0,1,1,0-6.2h6.63a3.1,3.1,0,1,0,0-6.2H271.65a3.1,3.1,0,1,0,0,6.2h4.49a3.1,3.1,0,1,1,0,6.2H261.06a3.1,3.1,0,1,0,0,6.2Z"/><path class="cls-2" d="M100.88,36.2H50.74a3.77,3.77,0,0,0,0,7.53H63.6a3.77,3.77,0,0,1,0,7.53H55.55a3.77,3.77,0,0,0,0,7.53H88a3.77,3.77,0,1,0,0-7.53H82.56a3.77,3.77,0,0,1,0-7.53h18.31a3.77,3.77,0,1,0,0-7.53Z"/><path class="cls-3" d="M9.14,44.06h5.81a.47.47,0,0,0,.47-.49,4.27,4.27,0,0,1,1.14-3.26c1.77-1.82,5-1.8,5-1.81a.53.53,0,0,0,.36-.16.48.48,0,0,0,.11-.38,9.84,9.84,0,0,1,2-6.76,7.79,7.79,0,0,1,6.14-2.43,7.2,7.2,0,0,1,5.4,2.06c2.4,2.51,2.26,6.5,2.26,6.54a.48.48,0,0,0,.19.4.48.48,0,0,0,.44.07,6.65,6.65,0,0,1,5.61.26c2.84,1.65,3.64,5.54,3.65,5.58a.48.48,0,0,0,.47.38H59.67a.48.48,0,1,0,0-1h-11c-.29-1.1-1.32-4.27-4-5.83a7.29,7.29,0,0,0-5.78-.53,10.44,10.44,0,0,0-2.51-6.57,8.1,8.1,0,0,0-6.09-2.36,8.72,8.72,0,0,0-6.86,2.75,10.73,10.73,0,0,0-2.31,7,8.31,8.31,0,0,0-5.19,2.08,5.06,5.06,0,0,0-1.41,3.47H9.14a.48.48,0,1,0,0,1Z"/><path class="cls-3" d="M256.75,51.59h0l10-.45a1.16,1.16,0,0,0,.73-.1,1.2,1.2,0,0,0,.36-.87c0-.07,0-.13,0-.16a8.69,8.69,0,0,1,.34-1,6.56,6.56,0,0,1,.89-1.54,5.56,5.56,0,0,1,2.34-1.73,6.88,6.88,0,0,1,2.26-.45,7.46,7.46,0,0,1,.83,0,1.25,1.25,0,0,0,.67,0c.35-.13.48-.52.71-1.46,0-.15.07-.27.09-.34a17.94,17.94,0,0,1,1-2.28,11.87,11.87,0,0,1,2.28-3.15,8.76,8.76,0,0,1,5.19-2.42A11.55,11.55,0,0,1,295,40.74a12.59,12.59,0,0,1,1.87,7.8.48.48,0,0,0,.95.1,13.57,13.57,0,0,0-2-8.41,12.37,12.37,0,0,0-11.5-5.5,9.7,9.7,0,0,0-5.75,2.68,12.8,12.8,0,0,0-2.46,3.4,18.81,18.81,0,0,0-1,2.4c0,.08-.07.23-.11.42s-.13.52-.2.74l-.19,0a9,9,0,0,0-.93,0,7.85,7.85,0,0,0-2.57.52,6.52,6.52,0,0,0-2.74,2,7.48,7.48,0,0,0-1,1.77,9.69,9.69,0,0,0-.38,1.11c0,.06,0,.16-.05.27l0,.17h-.17l-10,.45a.47.47,0,0,0,0,.95Z"/><path class="cls-3" d="M187.19,16.25h-5.81a.47.47,0,0,1-.47-.49,4.27,4.27,0,0,0-1.14-3.26c-1.77-1.82-5-1.8-5-1.81a.53.53,0,0,1-.36-.16.48.48,0,0,1-.11-.38,9.84,9.84,0,0,0-2-6.76A7.79,7.79,0,0,0,166.09,1,7.2,7.2,0,0,0,160.69,3c-2.4,2.51-2.26,6.5-2.26,6.54a.48.48,0,0,1-.19.4.48.48,0,0,1-.44.07,6.65,6.65,0,0,0-5.61.26c-2.84,1.65-3.64,5.54-3.65,5.58a.48.48,0,0,1-.47.38H136.66a.48.48,0,0,1,0-1h11c.29-1.1,1.32-4.27,4-5.83a7.29,7.29,0,0,1,5.78-.53A10.44,10.44,0,0,1,160,2.36,8.1,8.1,0,0,1,166.09,0,8.72,8.72,0,0,1,173,2.75a10.73,10.73,0,0,1,2.31,7,8.31,8.31,0,0,1,5.19,2.08,5.06,5.06,0,0,1,1.41,3.47h5.33a.48.48,0,1,1,0,1Z"/><path class="cls-4" d="M5.92,147.95H.67c-.26,0-.47-.1-.47-.23s.21-.23.47-.23H5.92c.26,0,.47.1.47.23S6.18,147.95,5.92,147.95Z"/><path class="cls-5" d="M5.92,148.15H.67c-.39,0-.67-.18-.67-.43s.28-.43.67-.43H5.92c.39,0,.67.18.67.43S6.31,148.15,5.92,148.15Zm-5.46-.43a.61.61,0,0,0,.21,0H5.92a.11.11,0,1,0,0-.07H.67A.61.61,0,0,0,.46,147.71Z"/><path class="cls-4" d="M300.26,147.95h-290c-.28,0-.5-.11-.5-.25s.22-.25.5-.25h290c.28,0,.5.11.5.25S300.53,147.95,300.26,147.95Z"/><path class="cls-5" d="M300.26,148.15h-290c-.41,0-.7-.19-.7-.45s.29-.45.7-.45h290c.41,0,.7.19.7.45S300.66,148.15,300.26,148.15ZM10,147.69a.61.61,0,0,0,.26,0h290a.61.61,0,0,0,.26,0,.63.63,0,0,0-.26,0h-290A.63.63,0,0,0,10,147.69Z"/><path class="cls-4" d="M309.26,147.95h-3.62c-.28,0-.5-.11-.5-.25s.22-.25.5-.25h3.62c.28,0,.5.11.5.25S309.53,147.95,309.26,147.95Z"/><path class="cls-5" d="M309.26,148.15h-3.62c-.41,0-.7-.19-.7-.45s.29-.45.7-.45h3.62c.41,0,.7.19.7.45S309.66,148.15,309.26,148.15Zm-3.88-.45a.61.61,0,0,0,.26,0h3.62a.61.61,0,0,0,.26,0,.63.63,0,0,0-.26,0h-3.62A.63.63,0,0,0,305.38,147.69Z"/><path class="cls-6" d="M247.74,122.51a5.66,5.66,0,1,1,5.66-5.66A5.66,5.66,0,0,1,247.74,122.51Zm0-9.82a4.16,4.16,0,1,0,4.16,4.16A4.16,4.16,0,0,0,247.74,112.69Z"/><g class="cls-7"><rect class="cls-8" x="85.28" y="36.93" width="146.11" height="99.17" rx="3.42" ry="3.42"/><path class="cls-5" d="M228,37.24a3.11,3.11,0,0,1,3.11,3.11v92.33a3.11,3.11,0,0,1-3.11,3.11H88.7a3.11,3.11,0,0,1-3.11-3.11V40.35a3.11,3.11,0,0,1,3.11-3.11H228m0-.62H88.7A3.74,3.74,0,0,0,85,40.35v92.33a3.74,3.74,0,0,0,3.73,3.73H228a3.74,3.74,0,0,0,3.73-3.73V40.35A3.74,3.74,0,0,0,228,36.62Z"/><rect class="cls-5" x="84.97" y="36.62" width="27.36" height="99.79"/><rect class="cls-9" x="116.36" y="46.25" width="9.02" height="9.02" rx="3.73" ry="3.73"/><rect class="cls-10" x="116.36" y="66.77" width="9.02" height="9.02" rx="3.73" ry="3.73"/><rect class="cls-11" x="116.36" y="98.48" width="9.02" height="9.02" rx="3.73" ry="3.73"/><rect class="cls-12" x="116.36" y="117.13" width="9.02" height="9.02" rx="3.73" ry="3.73"/><rect class="cls-13" x="129.42" y="46.56" width="12.75" height="0.62"/><rect class="cls-14" x="129.42" y="50.36" width="19.27" height="0.62"/><rect class="cls-14" x="152.11" y="50.36" width="9.95" height="0.62"/><rect class="cls-14" x="168.07" y="50.36" width="6.63" height="0.62"/><rect class="cls-14" x="180.71" y="50.36" width="13.68" height="0.62"/><rect class="cls-14" x="198.95" y="50.36" width="8.08" height="0.62"/><rect class="cls-14" x="129.42" y="54.16" width="6.37" height="0.62"/><rect class="cls-14" x="140.09" y="54.16" width="19.9" height="0.62"/><rect class="cls-14" x="162.89" y="54.16" width="8.5" height="0.62"/><rect class="cls-14" x="176.16" y="54.16" width="24.04" height="0.62"/><rect class="cls-14" x="204.34" y="54.16" width="9.53" height="0.62"/><rect class="cls-14" x="129.42" y="57.96" width="18.34" height="0.62"/><rect class="cls-14" x="151.29" y="57.96" width="7.05" height="0.62"/><rect class="cls-14" x="162.06" y="57.96" width="17.2" height="0.62"/><rect class="cls-14" x="182.37" y="57.96" width="20.62" height="0.62"/><rect class="cls-14" x="207.04" y="57.96" width="11.19" height="0.62"/><rect class="cls-15" x="129.42" y="74.85" width="55.65" height="15.96"/><rect class="cls-13" x="129.42" y="67.08" width="12.75" height="0.62"/><rect class="cls-14" x="129.42" y="70.35" width="19.27" height="0.62"/><rect class="cls-14" x="152.11" y="70.35" width="9.95" height="0.62"/><rect class="cls-14" x="168.07" y="70.35" width="6.63" height="0.62"/><rect class="cls-14" x="180.71" y="70.35" width="13.68" height="0.62"/><rect class="cls-14" x="198.95" y="70.35" width="8.08" height="0.62"/><rect class="cls-13" x="129.42" y="99.41" width="12.75" height="0.62"/><rect class="cls-14" x="129.42" y="103.61" width="19.27" height="0.62"/><rect class="cls-14" x="152.11" y="103.61" width="9.95" height="0.62"/><rect class="cls-14" x="168.07" y="103.61" width="6.63" height="0.62"/><rect class="cls-14" x="180.71" y="103.61" width="13.68" height="0.62"/><rect class="cls-14" x="198.95" y="103.61" width="8.08" height="0.62"/><rect class="cls-14" x="129.42" y="107.81" width="6.37" height="0.62"/><rect class="cls-14" x="140.09" y="107.81" width="18.24" height="0.62"/><rect class="cls-13" x="129.42" y="118.06" width="12.75" height="0.62"/><rect class="cls-14" x="129.42" y="122.31" width="19.27" height="0.62"/><rect class="cls-14" x="152.11" y="122.31" width="9.95" height="0.62"/><rect class="cls-14" x="168.07" y="122.31" width="6.63" height="0.62"/><rect class="cls-14" x="180.71" y="122.31" width="13.68" height="0.62"/><rect class="cls-14" x="198.95" y="122.31" width="8.08" height="0.62"/><rect class="cls-14" x="129.42" y="126.56" width="6.37" height="0.62"/><rect class="cls-14" x="140.09" y="126.56" width="18.24" height="0.62"/><rect class="cls-14" x="162.06" y="126.56" width="6.01" height="0.62"/><rect class="cls-14" x="171.39" y="126.56" width="10.98" height="0.62"/><rect class="cls-14" x="186.1" y="126.56" width="16.89" height="0.62"/><rect class="cls-14" x="207.04" y="126.56" width="13.47" height="0.62"/><rect class="cls-8" x="89.94" y="45.94" width="16.17" height="0.62"/><rect class="cls-8" x="89.94" y="50.95" width="7.88" height="0.62"/><rect class="cls-8" x="89.94" y="55.96" width="12.64" height="0.62"/><rect class="cls-8" x="89.94" y="60.97" width="6.01" height="0.62"/><rect class="cls-8" x="89.94" y="65.98" width="16.17" height="0.62"/><rect class="cls-8" x="89.94" y="70.98" width="14.09" height="0.62"/><rect class="cls-8" x="89.94" y="75.99" width="15.08" height="0.62"/><rect class="cls-8" x="89.94" y="81" width="16.17" height="0.62"/><rect class="cls-8" x="89.94" y="86.01" width="17.82" height="0.62"/><rect class="cls-8" x="89.94" y="91.02" width="9.95" height="0.62"/></g><circle class="cls-16" cx="82.13" cy="129.64" r="14.73" transform="matrix(0.96, -0.28, 0.28, 0.96, -33.49, 28.72)"/><path class="cls-4" d="M86.4,144a15,15,0,1,1,10.11-18.65A15,15,0,0,1,86.4,144ZM78,115.78a14.45,14.45,0,1,0,18,9.74A14.47,14.47,0,0,0,78,115.78Z"/><path class="cls-6" d="M74.75,133.3s-5.71,1.47-5.31-3.08c0,0,1.49-1.75,2.69-1.6,0,0-11.59-4.28-3-9.62,0,0-.74-11.18,13.07-8.19,0,0,10.71-7.49,8.28,13.15,0,0,2.89-1.95,3.92-.66s.31,3.9-3.67,4.61"/><path class="cls-4" d="M74.81,133.53c-.13,0-3.1.78-4.68-.56a3.06,3.06,0,0,1-.92-2.77v-.07l0-.06a6.08,6.08,0,0,1,2-1.55c-1.63-.72-5.26-2.61-5.52-5.19-.15-1.54.91-3,3.17-4.46a9,9,0,0,1,2.78-6.82c2.3-2,5.82-2.48,10.48-1.49.56-.37,3.59-2.22,6-.77s3.44,6.14,2.6,13.72c.88-.51,2.91-1.49,3.82-.35a2.32,2.32,0,0,1,.31,2.29c-.5,1.34-2,2.32-4.12,2.7l-.08-.46c2-.35,3.33-1.22,3.77-2.4a1.86,1.86,0,0,0-.24-1.83c-.74-.92-2.86.2-3.61.7l-.42.29.06-.51c.89-7.55.08-12.3-2.32-13.74s-5.56.78-5.59.81l-.08.06-.1,0c-4.55-1-8-.53-10.17,1.37-2.85,2.46-2.61,6.53-2.61,6.57v.14l-.12.07c-2.17,1.34-3.2,2.72-3.06,4.09.3,3,5.93,5.09,6,5.11l1.91.71-2-.25c-.85-.11-2,1-2.44,1.46a2.59,2.59,0,0,0,.76,2.29c1.4,1.18,4.24.47,4.26.46Z"/><path class="cls-17" d="M89,117.29c.4,1.84-7.85,5.38-12.4,4,0,0-2.17,3.7-5.61,2.17,0,0-1.25-.8-1,.3,0,0,7.16,19.29,15.29,16.26,0,0,9.8-1,3.71-22.77"/><path class="cls-4" d="M85.88,140.17a3.53,3.53,0,0,1-.53.12,5.47,5.47,0,0,1-4.28-.24c-2.65-1.21-5.36-4.31-8-9.19a59,59,0,0,1-3.24-7c-.09-.41,0-.67.17-.81.37-.25,1,.11,1.18.23,3.17,1.41,5.26-2.06,5.28-2.1l.09-.16.18.05c3.51,1,9.6-1,11.56-2.81.4-.37.59-.71.54-1l.46-.11c3.34,12,1.86,17.65,0,20.33A6.35,6.35,0,0,1,85.88,140.17Zm-.64-.34h0a5.58,5.58,0,0,0,3.62-2.55c1.72-2.54,3.11-7.91.11-19.13a3.11,3.11,0,0,1-.44.5c-2.05,1.91-8.11,4-11.84,3-.48.7-2.64,3.52-5.81,2.12a1.3,1.3,0,0,0-.69-.26.52.52,0,0,0,0,.29c0,.1,4.91,13.06,11,15.87a5,5,0,0,0,4,.22Z"/><path class="cls-4" d="M82.91,131.12l-.11,0a2.23,2.23,0,0,1-2.23-1.29l.42-.21c0,.05.62,1.23,1.72,1h0a1.86,1.86,0,0,0,1.09-.74,1.3,1.3,0,0,0,0-1.08l.44-.15a1.74,1.74,0,0,1-.07,1.47A2.24,2.24,0,0,1,82.91,131.12Z"/><circle class="cls-4" cx="76.78" cy="129.5" r="0.7" transform="translate(-33.67 27.2) rotate(-16.53)"/><circle class="cls-4" cx="86.41" cy="126.64" r="0.7" transform="translate(-32.46 29.82) rotate(-16.53)"/><path class="cls-4" d="M85.06,135.9h0a5.34,5.34,0,0,1-4-.75l.26-.39a5,5,0,0,0,3.63.69h0A4,4,0,0,0,87.36,133l.43.19A4.47,4.47,0,0,1,85.06,135.9Z"/><path class="cls-4" d="M74.24,129.65l-.46-.11a4.31,4.31,0,0,1,4.93-3.21l-.07.46A3.79,3.79,0,0,0,74.24,129.65Z"/><path class="cls-4" d="M88.26,124a2.35,2.35,0,0,0-1.83-.73,3.87,3.87,0,0,0-2.31,1.43l-.37-.28a4.28,4.28,0,0,1,2.64-1.61,2.8,2.8,0,0,1,2.19.86Z"/><polygon class="cls-4" points="84.33 136.97 83.95 138.38 87.1 137.45 86.32 136.38 84.33 136.97"/><circle class="cls-16" cx="239.46" cy="129.86" r="14.24" transform="translate(65.5 339.48) rotate(-78.78)"/><path class="cls-4" d="M236.64,144.09a14.5,14.5,0,1,1,17-11.4A14.52,14.52,0,0,1,236.64,144.09Zm5.54-27.93a14,14,0,1,0,11,16.42A14,14,0,0,0,242.18,116.16Z"/><path class="cls-6" d="M228.06,124.88s-1.42-12.79,5.28-12.83c0,0,2.58-7.73,9.13-2.31,0,0,6-2.59,7.52,1.9a4.11,4.11,0,0,1,2.76,4.46s2.19,0,2,2.93-2.65,10.4-2.65,10.4"/><path class="cls-4" d="M227.83,124.91c0-.33-.87-8.19,2.14-11.58a4.34,4.34,0,0,1,3.2-1.51c.26-.68,1.42-3.4,3.84-4.09,1.65-.47,3.49.11,5.5,1.74.64-.25,3.47-1.26,5.61-.3a3.8,3.8,0,0,1,2,2.29A4.34,4.34,0,0,1,253,115.9a2.25,2.25,0,0,1,1.3.69,3.14,3.14,0,0,1,.65,2.46c-.23,2.9-2.56,10.14-2.66,10.45l-.43-.14c0-.07,2.41-7.5,2.64-10.34a2.72,2.72,0,0,0-.53-2.11,1.82,1.82,0,0,0-1.21-.57h-.24l0-.24a3.86,3.86,0,0,0-2.59-4.23l-.11,0,0-.11a3.39,3.39,0,0,0-1.84-2.13c-2.21-1-5.35.35-5.38.36l-.13.05-.11-.09c-1.92-1.59-3.66-2.17-5.19-1.74-2.48.71-3.58,3.91-3.59,3.95l-.05.15h-.16a3.92,3.92,0,0,0-3,1.36c-2.87,3.23-2,11.15-2,11.23Z"/><path class="cls-18" d="M230,129.06s-4.29-.46-1.9-4.18c0,0,1.3-1,2.26-.31"/><path class="cls-4" d="M229.63,129.24a3.27,3.27,0,0,1-2.33-1.49,3.08,3.08,0,0,1,.57-3l.05-.06c.06,0,1.44-1.07,2.53-.31l-.26.37c-.74-.52-1.77.15-2,.28a2.65,2.65,0,0,0-.52,2.51c.52,1.08,2.26,1.28,2.28,1.29l0,.45Z"/><path class="cls-18" d="M249.8,129.12s2.45-.48,2.76,1.1.23,3.82-3.5,2.64"/><path class="cls-4" d="M249.9,133.31a8.36,8.36,0,0,1-.91-.24l.14-.43c1.38.44,2.34.43,2.85,0s.51-1.56.36-2.35c-.26-1.34-2.47-.92-2.49-.92l-.09-.45c.11,0,2.68-.5,3,1.28.26,1.32.09,2.25-.5,2.78A2.7,2.7,0,0,1,249.9,133.31Z"/><path class="cls-18" d="M231.44,119.64s-5.86,19.18,5.77,20.8c0,0,12.11,4.05,13.43-17.81,0,0-4.76-.6-5.36-3.81,0,0-.58-.87-1.07.89s-2.72,4-6,.8c0,0-3.53,2.19-5.78-.66C232.43,119.84,231.72,118.59,231.44,119.64Z"/><path class="cls-4" d="M237.75,140.81a5.42,5.42,0,0,1-.62-.16,7.57,7.57,0,0,1-5.6-3.47c-1.6-2.51-2.14-6.24-1.6-11.09a40.39,40.39,0,0,1,1.29-6.52c.1-.36.27-.55.5-.58.43-.05.8.55.91.73,2.08,2.63,5.32.67,5.46.58l.15-.09.13.12c1.29,1.25,2.54,1.76,3.62,1.47a3.11,3.11,0,0,0,2-2.17c.22-.8.49-1.2.86-1.26a.68.68,0,0,1,.62.31l0,.08c.56,3,5.12,3.62,5.17,3.63l.21,0v.21c-.52,8.57-2.72,14.24-6.57,16.83A8.69,8.69,0,0,1,237.75,140.81Zm-.51-.59a8.34,8.34,0,0,0,6.81-1.12c3.69-2.49,5.82-8,6.35-16.27-1-.16-4.74-1-5.33-3.91,0,0-.1-.09-.15-.09s-.25.07-.49.94a3.54,3.54,0,0,1-2.33,2.49c-.84.23-2.2.16-3.93-1.46-.73.39-3.84,1.82-5.92-.8a1.28,1.28,0,0,0-.48-.53s-.06,0-.12.25h0c0,.11-3.43,11.44.26,17.23A7.18,7.18,0,0,0,237.24,140.21Z"/><rect class="cls-4" x="234.85" y="122.29" width="0.45" height="5.42" transform="translate(107.94 358.93) rotate(-89.48)"/><rect class="cls-4" x="245.13" y="124.23" width="0.45" height="5.62" transform="translate(36.97 308.46) rotate(-68.42)"/><path class="cls-4" d="M239.19,131.72l-.11,0a2.15,2.15,0,0,1-1.33-2.11h.45c0,.05,0,1.34,1,1.66h0a1.81,1.81,0,0,0,1.27-.15,1.25,1.25,0,0,0,.52-.91l.45.07a1.69,1.69,0,0,1-.72,1.22A2.17,2.17,0,0,1,239.19,131.72Z"/><polygon class="cls-4" points="239.25 136.95 237.35 136.57 236.71 134.13 241.42 135.06 239.25 136.95"/><polygon class="cls-8" points="237.71 136.18 239.12 136.46 240.43 135.33 237.33 134.72 237.71 136.18"/><circle class="cls-4" cx="234.68" cy="127.57" r="0.68" transform="translate(63.89 332.94) rotate(-78.78)"/><circle class="cls-4" cx="244.2" cy="129.46" r="0.68" transform="translate(69.7 343.8) rotate(-78.78)"/><circle class="cls-16" cx="233.1" cy="36.85" r="14.73" transform="translate(-1.27 64.5) rotate(-15.71)"/><path class="cls-4" d="M237.16,51.29a15,15,0,1,1,10.38-18.5A15,15,0,0,1,237.16,51.29Zm-8-28.35a14.45,14.45,0,1,0,17.82,10A14.47,14.47,0,0,0,229.18,22.94Z"/><path class="cls-6" d="M241.91,23.33l.33,7.36S226.57,24,222,38.37c0,0-11.59-15.63,5.44-20.42C231.5,16.81,237.63,16.08,241.91,23.33Z"/><path class="cls-4" d="M222.11,38.88l-.27-.37a24.29,24.29,0,0,1-2.5-4.51c-1-2.43-2-6-.9-9.26s4.14-5.65,9-7c2.43-.68,9.83-2.77,14.7,5.49l0,.05.35,7.79-.34-.15c-.07,0-7.52-3.12-13.49-.38-3,1.39-5.19,4.06-6.41,7.91Zm5.42-20.7c-4.67,1.31-7.58,3.57-8.65,6.71-1.78,5.2,2,11.39,3.07,13a12.49,12.49,0,0,1,6.51-7.75c5.41-2.49,12-.33,13.52.24l-.31-6.94C237.48,16.33,231.6,17,227.53,18.17Z"/><path class="cls-4" d="M243,36.22l-.22-.42c1.38-.72,2.06-1.44,2-2.14-.07-1.1-2-2-2.7-2.3l.16-.44c.12,0,2.91,1.08,3,2.71C245.34,34.54,244.58,35.41,243,36.22Z"/><path class="cls-19" d="M222,38.37s-1.39,3.7,2.83,3.63"/><path class="cls-19" d="M242.82,31.64s4.17,2,.08,4.17"/><path class="cls-4" d="M224.32,42.39a2.94,2.94,0,0,1-2.55-1.2,3.51,3.51,0,0,1,0-2.92l.43.2a3.1,3.1,0,0,0-.06,2.48,2.52,2.52,0,0,0,2.17,1Z"/><path class="cls-6" d="M230.31,45l-5.94,1.75L223.24,42a18.33,18.33,0,0,0,2.29.33h0"/><path class="cls-4" d="M224.2,47l-1.27-5.33.37.08a18.27,18.27,0,0,0,2.26.33l.57,0,0,.47-.57,0a19.23,19.23,0,0,1-2-.26l1,4.13,5.7-1.68.13.45Z"/><path class="cls-6" d="M240.37,41.09l5.74-1.62-2.5-3.86s-1.27.19-1.58,2.32"/><path class="cls-4" d="M246.49,39.61l-6,1.7-.13-.45,5.44-1.53-2.23-3.45c-.31.12-1,.56-1.24,2.08l-.46-.07c.33-2.27,1.72-2.51,1.77-2.52l.15,0Z"/><path class="cls-19" d="M222,38.37s5.57,8.75,12.76,6.48,8.76-9.05,7.45-14.15l-2.11-3.51-3.22.91L232.3,22.3l.29,5.88-11.1,4.74Z"/><path class="cls-4" d="M234.6,45.15c-7.15,2-12.71-6.57-12.77-6.65l0,0-.56-5.67L232.34,28,232,21.59l5,6.23,3.25-.91,2.22,3.69v0c1.38,5.36-.42,12.16-7.61,14.43Zm-12.34-6.86c.45.67,5.8,8.45,12.46,6.33,6.89-2.18,8.61-8.69,7.3-13.84l-2-3.33-3.2.9L232.57,23l.26,5.32-11.09,4.73Z"/><path class="cls-4" d="M234.43,32.11l-.33-.33a8.67,8.67,0,0,1,4.73-2.34l0,.47A8.3,8.3,0,0,0,234.43,32.11Z"/><path class="cls-4" d="M224.37,35.54l-.38-.27c2.21-3.05,4.78-2.58,4.89-2.56l-.09.46C228.69,33.15,226.39,32.74,224.37,35.54Z"/><path class="cls-4" d="M233.2,38.38a3.08,3.08,0,0,1-2.18-.52l.26-.39s1.11.74,1.89.43a1.41,1.41,0,0,0,.75-1.12l.46.1a1.84,1.84,0,0,1-1,1.46Z"/><path class="cls-4" d="M234.88,42.14a3.69,3.69,0,0,1-2.43-.22l.21-.42a2.92,2.92,0,0,0,3.87-1.27l.4.25A3.55,3.55,0,0,1,234.88,42.14Z"/><circle class="cls-4" cx="227.85" cy="36.2" r="0.75" transform="translate(-1.29 63.05) rotate(-15.71)"/><circle class="cls-4" cx="237.06" cy="33.61" r="0.75" transform="translate(-0.24 65.45) rotate(-15.71)"/><circle class="cls-16" cx="80.83" cy="32.28" r="21.35"/><path class="cls-4" d="M80.83,54a21.75,21.75,0,1,1,21.75-21.75A21.78,21.78,0,0,1,80.83,54Zm0-42.71a21,21,0,1,0,21,21A21,21,0,0,0,80.83,11.33Z"/><path class="cls-6" d="M65.89,30.75s-2.37-.57-2.46-8.54c0,0-6.6-1.55-2.29-10.35S88.47-4.65,91.22,10.21c0,0,13-1.38,4.59,19.35"/><path class="cls-4" d="M65.89,31.15H65.8c-.27-.07-2.62-.86-2.76-8.63a5.56,5.56,0,0,1-3.22-2.81c-1-2-.65-4.74,1-8,3-6.08,14-11.17,21.79-10.1,3.42.47,7.72,2.28,9,8.21a7.25,7.25,0,0,1,6,2.66c2.46,3.27,2,9.07-1.32,17.25a.4.4,0,0,1-.74-.3c3.18-7.79,3.67-13.49,1.42-16.48-2-2.68-5.57-2.33-5.61-2.33a.39.39,0,0,1-.43-.32c-1.06-5.74-5.13-7.47-8.36-7.91-7.54-1-18.12,3.85-21,9.67-1.49,3-1.81,5.51-1,7.33a4.83,4.83,0,0,0,3,2.47.4.4,0,0,1,.31.38c.08,7.33,2.14,8.15,2.16,8.16a.4.4,0,0,1-.09.79Z"/><circle class="cls-4" cx="87.74" cy="30.75" r="1.06"/><path class="cls-20" d="M90.95,12.59s-7.89,9.35-23.66,5.69c0,0-1.47-.37-1.65,5S65.63,48,79,48.36,98.1,35.7,95,21.76c0,0-1.31-7.37-4.22-7Z"/><path class="cls-4" d="M79.57,48.77H79a11.24,11.24,0,0,1-8.18-3.59c-5.54-5.89-5.76-17.31-5.6-21.95.1-2.78.55-4.51,1.36-5.11a.94.94,0,0,1,.78-.21c15.36,3.57,23.18-5.47,23.26-5.56a.4.4,0,0,1,.7.29l-.15,1.76c2.84.28,4,6.55,4.18,7.31,1.89,8.46.54,16.53-3.62,21.59A15.2,15.2,0,0,1,79.57,48.77ZM67.19,18.66s-1,.19-1.16,4.58c-.16,4.54.05,15.7,5.39,21.37A10.47,10.47,0,0,0,79,48a14.59,14.59,0,0,0,12.1-5.19c4-4.86,5.3-12.69,3.46-20.92-.35-2-1.69-6.94-3.78-6.66a.39.39,0,0,1-.33-.1.4.4,0,0,1-.12-.32l.09-1.12C88.06,15.85,80.24,21.7,67.19,18.66Z"/><rect class="cls-8" x="68.57" y="26.71" width="10.46" height="8.07" rx="4.04" ry="4.04"/><path class="cls-4" d="M75,35.18H72.6a4.43,4.43,0,0,1,0-8.87H75a4.43,4.43,0,1,1,0,8.87ZM72.6,27.11a3.64,3.64,0,0,0,0,7.27H75a3.64,3.64,0,1,0,0-7.27Z"/><rect class="cls-8" x="82.51" y="26.71" width="10.46" height="8.07" rx="4.04" ry="4.04"/><path class="cls-4" d="M88.93,35.18H86.54a4.43,4.43,0,0,1,0-8.87h2.38a4.43,4.43,0,1,1,0,8.87Zm-2.38-8.07a3.64,3.64,0,0,0,0,7.27h2.38a3.64,3.64,0,1,0,0-7.27Z"/><path class="cls-8" d="M75.91,39h9.51s0,4.6-4.69,4.56S75.91,40.76,75.91,39Z"/><path class="cls-4" d="M80.79,44h-.07c-5.22,0-5.22-3.49-5.22-5a.4.4,0,0,1,.4-.4h9.51a.4.4,0,0,1,.4.4,5.6,5.6,0,0,1-1.48,3.65A4.83,4.83,0,0,1,80.79,44ZM76.31,39.4c0,1.48.38,3.72,4.43,3.76h.06a4.07,4.07,0,0,0,3-1.07A4.64,4.64,0,0,0,85,39.4Z"/><path class="cls-4" d="M91.77,24.36a.4.4,0,0,1-.35-.2,2.88,2.88,0,0,0-1.78-1.49,5,5,0,0,0-3.35.63.4.4,0,0,1-.41-.68,5.8,5.8,0,0,1,4-.72,3.65,3.65,0,0,1,2.28,1.87.4.4,0,0,1-.35.59Z"/><path class="cls-4" d="M69.76,24.36a.4.4,0,0,1-.34-.6C71,21,74.76,22,76.53,22.89a.4.4,0,0,1-.36.71s-4.45-2.22-6.06.56A.4.4,0,0,1,69.76,24.36Z"/><path class="cls-4" d="M82.51,31.15a.4.4,0,0,1-.37-.24c-.28-.66-.63-1-1-1.06-.69-.08-1.53.79-1.79,1.14a.4.4,0,0,1-.64-.48c.12-.16,1.23-1.6,2.52-1.45.69.08,1.24.6,1.65,1.53a.4.4,0,0,1-.37.56Z"/><circle class="cls-4" cx="73.06" cy="30.75" r="1.06"/><circle class="cls-4" cx="87.74" cy="30.75" r="1.06"/><path class="cls-4" d="M93,31.15a.4.4,0,0,1-.28-.68l2.55-2.55a.4.4,0,1,1,.56.56L93.32,31A.4.4,0,0,1,93,31.15Z"/><path class="cls-4" d="M68.54,31.77a.4.4,0,0,1-.28-.12l-2.55-2.55a.4.4,0,0,1,.56-.56l2.55,2.55a.4.4,0,0,1-.28.68Z"/><g class="cls-21"><path class="cls-22" d="M34.14,112.47a5.66,5.66,0,1,1,5.66-5.66A5.66,5.66,0,0,1,34.14,112.47Zm0-9.82a4.16,4.16,0,1,0,4.16,4.16A4.16,4.16,0,0,0,34.14,102.65Z"/><path class="cls-6" d="M251.9,64a5.66,5.66,0,1,1,5.66-5.66A5.66,5.66,0,0,1,251.9,64Zm0-9.82a4.16,4.16,0,1,0,4.16,4.16A4.16,4.16,0,0,0,251.9,54.13Z"/><path class="cls-22" d="M269.78,97.47a3.58,3.58,0,1,1,3.58-3.58A3.58,3.58,0,0,1,269.78,97.47Zm0-6.21a2.63,2.63,0,1,0,2.63,2.63A2.63,2.63,0,0,0,269.78,91.26Z"/><path class="cls-22" d="M264.89,118a3.41,3.41,0,1,1,3.41-3.41A3.41,3.41,0,0,1,264.89,118Zm0-5.31a1.91,1.91,0,1,0,1.91,1.91A1.91,1.91,0,0,0,264.89,112.73Z"/><path class="cls-22" d="M56.33,99.93a3.41,3.41,0,1,1,3.41-3.41A3.41,3.41,0,0,1,56.33,99.93Zm0-5.31a1.91,1.91,0,1,0,1.91,1.91A1.91,1.91,0,0,0,56.33,94.61Z"/><path class="cls-23" d="M245.78,89.93a3.41,3.41,0,1,1,3.41-3.41A3.41,3.41,0,0,1,245.78,89.93Zm0-5.31a1.91,1.91,0,1,0,1.91,1.91A1.91,1.91,0,0,0,245.78,84.61Z"/><path class="cls-23" d="M67.48,81.85A4.75,4.75,0,1,1,72,76.9,4.76,4.76,0,0,1,67.48,81.85Zm-.34-8A3.25,3.25,0,1,0,70.52,77,3.25,3.25,0,0,0,67.13,73.86Z"/><path class="cls-23" d="M56,122.51a5.66,5.66,0,1,1,5.66-5.66A5.66,5.66,0,0,1,56,122.51Zm0-9.82a4.16,4.16,0,1,0,4.16,4.16A4.16,4.16,0,0,0,56,112.69Z"/><path class="cls-23" d="M275,74.86a5.25,5.25,0,1,1,5.25-5.25A5.26,5.26,0,0,1,275,74.86Zm0-9a3.75,3.75,0,1,0,3.75,3.75A3.75,3.75,0,0,0,275,65.86Z"/><path class="cls-6" d="M53,68.54a5.25,5.25,0,1,1,5.25-5.25A5.26,5.26,0,0,1,53,68.54Zm0-9a3.75,3.75,0,1,0,3.75,3.75A3.75,3.75,0,0,0,53,59.54Z"/><path class="cls-6" d="M289.24,116.22a5.25,5.25,0,1,1,5.25-5.25A5.26,5.26,0,0,1,289.24,116.22Zm0-9A3.75,3.75,0,1,0,293,111,3.75,3.75,0,0,0,289.24,107.22Z"/><path class="cls-22" d="M39.33,84.93a3.41,3.41,0,1,1,3.41-3.41A3.41,3.41,0,0,1,39.33,84.93Zm0-5.31a1.91,1.91,0,1,0,1.91,1.91A1.91,1.91,0,0,0,39.33,79.61Z"/></g></g></g></svg>