<svg xmlns="http://www.w3.org/2000/svg" viewBox="0 0 309.96 148.15"><defs><style>.cls-1{fill:#eff5f8;}.cls-2{fill:#cdebfc;}.cls-3{fill:#3273ad;}.cls-4{fill:#046ca3;}.cls-5{opacity:0.5;}.cls-6{fill:#0aa5e3;}.cls-7{fill:#32b475;}.cls-8{fill:#e3b462;}.cls-9{fill:#63d398;}.cls-10{fill:#fad264;}.cls-11{fill:#fff;}.cls-12{fill:#caedff;}</style></defs><title>signup</title><g id="Layer_2" data-name="Layer 2"><g id="Layer_1-2" data-name="Layer 1"><path class="cls-1" d="M242.87,117.18h-35.7a3.14,3.14,0,0,0,0,6.27h4.65a3.14,3.14,0,1,1,0,6.27H201.66a3.14,3.14,0,0,0,0,6.27h35.7a3.14,3.14,0,0,0,0-6.27h-9.74a3.14,3.14,0,0,1,0-6.27h15.25a3.14,3.14,0,1,0,0-6.27Z"/><path class="cls-1" d="M19.5,109.36H60.62a3.09,3.09,0,0,0,0-6.18H50.07a3.09,3.09,0,1,1,0-6.18h6.6a3.09,3.09,0,0,0,0-6.18H30A3.09,3.09,0,1,0,30,97h4.47a3.09,3.09,0,1,1,0,6.18h-15a3.09,3.09,0,0,0,0,6.18Z"/><path class="cls-1" d="M261.06,89.58h41.29a3.1,3.1,0,1,0,0-6.2H291.76a3.1,3.1,0,1,1,0-6.2h6.63a3.1,3.1,0,1,0,0-6.2H271.65a3.1,3.1,0,1,0,0,6.2h4.49a3.1,3.1,0,1,1,0,6.2H261.06a3.1,3.1,0,1,0,0,6.2Z"/><path class="cls-1" d="M100.88,36.2H50.74a3.77,3.77,0,0,0,0,7.53H63.6a3.77,3.77,0,0,1,0,7.53H55.55a3.77,3.77,0,0,0,0,7.53H88a3.77,3.77,0,1,0,0-7.53H82.56a3.77,3.77,0,0,1,0-7.53h18.31a3.77,3.77,0,1,0,0-7.53Z"/><path class="cls-2" d="M9.14,44.06h5.81a.47.47,0,0,0,.47-.49,4.27,4.27,0,0,1,1.14-3.26c1.77-1.82,5-1.8,5-1.81a.53.53,0,0,0,.36-.16.48.48,0,0,0,.11-.38,9.84,9.84,0,0,1,2-6.76,7.79,7.79,0,0,1,6.14-2.43,7.2,7.2,0,0,1,5.4,2.06c2.4,2.51,2.26,6.5,2.26,6.54a.48.48,0,0,0,.19.4.48.48,0,0,0,.44.07,6.65,6.65,0,0,1,5.61.26c2.84,1.65,3.64,5.54,3.65,5.58a.48.48,0,0,0,.47.38H59.67a.48.48,0,1,0,0-1h-11c-.29-1.1-1.32-4.27-4-5.83a7.29,7.29,0,0,0-5.78-.53,10.44,10.44,0,0,0-2.51-6.57,8.1,8.1,0,0,0-6.09-2.36,8.72,8.72,0,0,0-6.86,2.75,10.73,10.73,0,0,0-2.31,7,8.31,8.31,0,0,0-5.19,2.08,5.06,5.06,0,0,0-1.41,3.47H9.14a.48.48,0,1,0,0,1Z"/><path class="cls-2" d="M256.75,51.59h0l10-.45a1.16,1.16,0,0,0,.73-.1,1.2,1.2,0,0,0,.36-.87c0-.07,0-.13,0-.16a8.69,8.69,0,0,1,.34-1,6.56,6.56,0,0,1,.89-1.54,5.56,5.56,0,0,1,2.34-1.73,6.88,6.88,0,0,1,2.26-.45,7.46,7.46,0,0,1,.83,0,1.25,1.25,0,0,0,.67,0c.35-.13.48-.52.71-1.46,0-.15.07-.27.09-.34a17.94,17.94,0,0,1,1-2.28,11.87,11.87,0,0,1,2.28-3.15,8.76,8.76,0,0,1,5.19-2.42A11.55,11.55,0,0,1,295,40.74a12.59,12.59,0,0,1,1.87,7.8.48.48,0,0,0,.95.1,13.57,13.57,0,0,0-2-8.41,12.37,12.37,0,0,0-11.5-5.5,9.7,9.7,0,0,0-5.75,2.68,12.8,12.8,0,0,0-2.46,3.4,18.81,18.81,0,0,0-1,2.4c0,.08-.07.23-.11.42s-.13.52-.2.74l-.19,0a9,9,0,0,0-.93,0,7.85,7.85,0,0,0-2.57.52,6.52,6.52,0,0,0-2.74,2,7.48,7.48,0,0,0-1,1.77,9.69,9.69,0,0,0-.38,1.11c0,.06,0,.16-.05.27l0,.17h-.17l-10,.45a.47.47,0,0,0,0,.95Z"/><path class="cls-2" d="M187.19,16.25h-5.81a.47.47,0,0,1-.47-.49,4.27,4.27,0,0,0-1.14-3.26c-1.77-1.82-5-1.8-5-1.81a.53.53,0,0,1-.36-.16.48.48,0,0,1-.11-.38,9.84,9.84,0,0,0-2-6.76A7.79,7.79,0,0,0,166.09,1,7.2,7.2,0,0,0,160.69,3c-2.4,2.51-2.26,6.5-2.26,6.54a.48.48,0,0,1-.19.4.48.48,0,0,1-.44.07,6.65,6.65,0,0,0-5.61.26c-2.84,1.65-3.64,5.54-3.65,5.58a.48.48,0,0,1-.47.38H136.66a.48.48,0,0,1,0-1h11c.29-1.1,1.32-4.27,4-5.83a7.29,7.29,0,0,1,5.78-.53A10.44,10.44,0,0,1,160,2.36,8.1,8.1,0,0,1,166.09,0,8.72,8.72,0,0,1,173,2.75a10.73,10.73,0,0,1,2.31,7,8.31,8.31,0,0,1,5.19,2.08,5.06,5.06,0,0,1,1.41,3.47h5.33a.48.48,0,1,1,0,1Z"/><path class="cls-3" d="M5.92,147.95H.67c-.26,0-.47-.1-.47-.23s.21-.23.47-.23H5.92c.26,0,.47.1.47.23S6.18,147.95,5.92,147.95Z"/><path class="cls-4" d="M5.92,148.15H.67c-.39,0-.67-.18-.67-.43s.28-.43.67-.43H5.92c.39,0,.67.18.67.43S6.31,148.15,5.92,148.15Zm-5.46-.43a.61.61,0,0,0,.21,0H5.92a.11.11,0,1,0,0-.07H.67A.61.61,0,0,0,.46,147.71Z"/><path class="cls-3" d="M300.26,147.95h-290c-.28,0-.5-.11-.5-.25s.22-.25.5-.25h290c.28,0,.5.11.5.25S300.53,147.95,300.26,147.95Z"/><path class="cls-4" d="M300.26,148.15h-290c-.41,0-.7-.19-.7-.45s.29-.45.7-.45h290c.41,0,.7.19.7.45S300.66,148.15,300.26,148.15ZM10,147.69a.61.61,0,0,0,.26,0h290a.61.61,0,0,0,.26,0,.63.63,0,0,0-.26,0h-290A.63.63,0,0,0,10,147.69Z"/><path class="cls-3" d="M309.26,147.95h-3.62c-.28,0-.5-.11-.5-.25s.22-.25.5-.25h3.62c.28,0,.5.11.5.25S309.53,147.95,309.26,147.95Z"/><path class="cls-4" d="M309.26,148.15h-3.62c-.41,0-.7-.19-.7-.45s.29-.45.7-.45h3.62c.41,0,.7.19.7.45S309.66,148.15,309.26,148.15Zm-3.88-.45a.61.61,0,0,0,.26,0h3.62a.61.61,0,0,0,.26,0,.63.63,0,0,0-.26,0h-3.62A.63.63,0,0,0,305.38,147.69Z"/><g class="cls-5"><path class="cls-6" d="M250.61,68.11a5.66,5.66,0,1,1,5.66-5.66A5.66,5.66,0,0,1,250.61,68.11Zm0-9.82a4.16,4.16,0,1,0,4.16,4.16A4.16,4.16,0,0,0,250.61,58.29Z"/><path class="cls-7" d="M98.41,44.65A5.66,5.66,0,1,1,104.07,39,5.66,5.66,0,0,1,98.41,44.65Zm0-9.82A4.16,4.16,0,1,0,102.57,39,4.16,4.16,0,0,0,98.41,34.84Z"/><path class="cls-7" d="M281.35,118.2a3.58,3.58,0,1,1,3.58-3.58A3.58,3.58,0,0,1,281.35,118.2Zm0-6.21a2.63,2.63,0,1,0,2.63,2.63A2.63,2.63,0,0,0,281.35,112Z"/><path class="cls-7" d="M203.39,104.87a3.41,3.41,0,1,1,3.41-3.41A3.41,3.41,0,0,1,203.39,104.87Zm0-5.31a1.91,1.91,0,1,0,1.91,1.91A1.91,1.91,0,0,0,203.39,99.56Z"/><path class="cls-7" d="M90.85,93.33a3.41,3.41,0,1,1,3.41-3.41A3.41,3.41,0,0,1,90.85,93.33Zm0-5.31a1.91,1.91,0,1,0,1.91,1.91A1.91,1.91,0,0,0,90.85,88Z"/><path class="cls-8" d="M238.78,89.93a3.41,3.41,0,1,1,3.41-3.41A3.41,3.41,0,0,1,238.78,89.93Zm0-5.31a1.91,1.91,0,1,0,1.91,1.91A1.91,1.91,0,0,0,238.78,84.61Z"/><path class="cls-8" d="M116,71.35a4.75,4.75,0,1,1,4.54-4.95A4.76,4.76,0,0,1,116,71.35Zm-.34-8a3.25,3.25,0,1,0,3.39,3.11A3.25,3.25,0,0,0,115.69,63.36Z"/><path class="cls-6" d="M247.74,122.51a5.66,5.66,0,1,1,5.66-5.66A5.66,5.66,0,0,1,247.74,122.51Zm0-9.82a4.16,4.16,0,1,0,4.16,4.16A4.16,4.16,0,0,0,247.74,112.69Z"/><path class="cls-8" d="M81.47,128.09a5.66,5.66,0,1,1,5.66-5.66A5.66,5.66,0,0,1,81.47,128.09Zm0-9.82a4.16,4.16,0,1,0,4.16,4.16A4.16,4.16,0,0,0,81.47,118.28Z"/><path class="cls-8" d="M212.4,83.51a5.25,5.25,0,1,1,5.25-5.25A5.26,5.26,0,0,1,212.4,83.51Zm0-9a3.75,3.75,0,1,0,3.75,3.75A3.75,3.75,0,0,0,212.4,74.51Z"/><path class="cls-6" d="M56.77,79A5.25,5.25,0,1,1,62,73.71,5.26,5.26,0,0,1,56.77,79Zm0-9a3.75,3.75,0,1,0,3.75,3.75A3.75,3.75,0,0,0,56.77,70Z"/></g><ellipse class="cls-9" cx="127.65" cy="91.95" rx="5.7" ry="3.67" transform="translate(34.62 218.82) rotate(-89.51)"/><path class="cls-4" d="M127.62,98h0a3.5,3.5,0,0,1-2.87-1.85,7.86,7.86,0,0,1-1.09-4.22c0-3.32,1.84-6,4-6h0c2.21,0,4,2.74,4,6.08S129.82,98,127.62,98Zm.06-11.39c-1.83,0-3.33,2.38-3.35,5.32a7.17,7.17,0,0,0,1,3.85,2.85,2.85,0,0,0,2.29,1.53c1.81,0,3.35-2.37,3.37-5.32s-1.45-5.36-3.28-5.38Z"/><path class="cls-9" d="M128.45,100l-.1.59a.16.16,0,0,1-.16.14h-.88a.16.16,0,0,1-.16-.13L127,100a.16.16,0,0,1,.16-.2q.54,0,1.11,0A.17.17,0,0,1,128.45,100Z"/><path class="cls-4" d="M128.19,101.06h-.88a.51.51,0,0,1-.5-.4l-.13-.6a.51.51,0,0,1,.48-.61c.37,0,.74,0,1.13,0a.51.51,0,0,1,.48.59l-.1.59A.51.51,0,0,1,128.19,101.06Zm-.18-.54h0Zm-.55-.15H128l0-.24h-.66Zm.64-.44h0Z"/><path class="cls-9" d="M117.35,111.38c0-7.89,2.24-10.67,7.73-11.36a.2.2,0,0,1,.21.13l1.45,3.81a0,0,0,0,0,.08,0l.46-2.65a.17.17,0,0,1,.17-.14h.64a.17.17,0,0,1,.16.14c.09.48.4,2.12.52,2.69a0,0,0,0,0,.09,0c.19-.71.83-3.18,1-3.87a.2.2,0,0,1,.23-.15c.33.05.89.11,1.24.19a1.58,1.58,0,0,0,1.18-.41,5.07,5.07,0,0,0,.46-.39,20,20,0,0,0,6.19-13.11,1.66,1.66,0,0,1,.76-1.17,1.7,1.7,0,0,1,2.59,1.49c-.08,3.32-2,8.28-2.66,9.93-1.2,2.82-5.3,9.06-5.38,11.27,0,.11,0,.27,0,.47-.11,4.19-.45,27.87-.74,36,0,1.37,3.12,2,3.12,2.68s-6.67,0-6.85-.69-.84-10.94-.84-10.94-.58-13.19-1.2-13.16c-.94,0-.88,13.52-.88,13.52s.45,9.92-.36,10.64-5.57.76-5.64.48c-.21-.9,2.32-2,2.32-2.4s-1.64-21.87-1.73-23.76.22-10.27.08-13.32c-1.13.71-1.81,9-1.95,11.87a1,1,0,0,1-2.08.11A58.51,58.51,0,0,1,117.35,111.38Z"/><path class="cls-4" d="M135.56,147.49c-1.86,0-5.69-.34-5.91-1.21s-.78-9.95-.85-11c-.22-4.88-.58-10.24-.89-12.21a105.27,105.27,0,0,0-.49,12.54c.14,3,.37,10.15-.48,10.9s-5.22.81-5.88.61a.43.43,0,0,1-.32-.31c-.18-.77.76-1.42,1.59-2a4.21,4.21,0,0,0,.73-.57c0-.16-.36-4.68-.71-9.46-.46-6.17-1-13.16-1-14.21,0-.77,0-2.76,0-5.06s.09-5.06.07-6.93a61.1,61.1,0,0,0-1.29,10.53,1.39,1.39,0,0,1-2.21,1.05,1.37,1.37,0,0,1-.55-.91,57.79,57.79,0,0,1-.37-7.89h0c0-7.8,2.17-11,8-11.7a.54.54,0,0,1,.58.35l1.05,2.78.27-1.56a.54.54,0,0,1,.52-.43h.64a.52.52,0,0,1,.5.42c0,.25.15.82.26,1.39l.67-2.58a.54.54,0,0,1,.62-.41l.39.05c.3,0,.63.08.86.13a1.26,1.26,0,0,0,.9-.35,4.76,4.76,0,0,0,.43-.37,19.8,19.8,0,0,0,6.08-12.89,2,2,0,0,1,.94-1.45,2.09,2.09,0,0,1,2.13,0,2,2,0,0,1,1,1.78c-.09,3.92-2.58,9.81-2.69,10.06-.44,1-1.26,2.51-2.12,4.07-1.49,2.69-3.18,5.75-3.23,7.08v.46c0,1.37-.1,4.82-.17,9.12-.16,9-.37,21.4-.57,26.86,0,.6,1,1.14,1.81,1.53s1.31.67,1.31,1.13-.61.54-.84.57A7.13,7.13,0,0,1,135.56,147.49ZM128,121.75c.4,0,.93.44,1.51,13.49.26,4.09.7,10.36.83,10.87.41.38,4.77.87,6,.66-.19-.11-.51-.27-.76-.4-1-.5-2.23-1.13-2.19-2.17.19-5.46.41-17.82.57-26.85.08-4.31.14-7.76.17-9.13v-.47c.06-1.49,1.71-4.49,3.32-7.39.85-1.54,1.66-3,2.09-4,.1-.24,2.54-6,2.63-9.8a1.35,1.35,0,0,0-.64-1.18,1.43,1.43,0,0,0-1.45,0,1.32,1.32,0,0,0-.57.9,20.47,20.47,0,0,1-6.29,13.33,5.41,5.41,0,0,1-.49.42,1.84,1.84,0,0,1-1.46.47c-.22,0-.53-.09-.81-.13l-.28,0-1,3.69c-.06.24-.18.36-.4.35h-.28l-.12-.42c-.11-.59-.36-1.88-.47-2.44h-.34l-.48,2.77-.56.09-.14-.27L125,100.37c-5.4.71-7.32,3.61-7.32,11h0a57.15,57.15,0,0,0,.36,7.79.7.7,0,0,0,.8.58.7.7,0,0,0,.59-.66c0-.11.58-11.18,2.11-12.14l.5-.31,0,.59c.09,1.75,0,5.24,0,8.31,0,2.29-.08,4.27,0,5,0,1,.57,8,1,14.19.43,5.81.7,9.39.7,9.59,0,.36-.38.62-1,1.06a4.77,4.77,0,0,0-1.29,1.11c.94.15,4.48,0,5-.5s.46-5.68.24-10.36c-.06-13.83.86-13.87,1.21-13.88ZM130,100.32h0Zm-5.06-.06h0Zm5.22,0h0Z"/><path class="cls-3" d="M189.34,75.38H142.59a1.4,1.4,0,1,1,0-2.8h46.75a1.4,1.4,0,1,1,0,2.8Zm-46.75-1.92a.52.52,0,1,0,0,1h46.75a.52.52,0,1,0,0-1Z"/><path class="cls-10" d="M144.29,29.37h35.4s4.09,0,6.27,1.62,7,1.55,7,1.55h33s4.54-.52,4.54,4.54V50.16a2.81,2.81,0,0,1-2.93,2.93H189s-3.41.51-4.72-2a3.51,3.51,0,0,0-3.47-1.92l-36.5.37"/><path class="cls-3" d="M188.24,53.58a4.72,4.72,0,0,1-4.38-2.33,3.07,3.07,0,0,0-3-1.68l-36.56.37v-.88l36.5-.37a3.93,3.93,0,0,1,3.86,2.16c1.15,2.25,4.23,1.82,4.26,1.81h38.62a2.41,2.41,0,0,0,1.8-.65,2.86,2.86,0,0,0,.69-1.83V37.07a3.59,3.59,0,0,0-4-4.1H193c-.21,0-5.13,0-7.27-1.64s-6-1.53-6-1.53h-35.4v-.88h35.4c.17,0,4.27,0,6.53,1.71,1.91,1.42,6.69,1.46,6.74,1.46h33a4.46,4.46,0,0,1,5,5V50.16a3.71,3.71,0,0,1-.94,2.46,3.26,3.26,0,0,1-2.43.92H189A5,5,0,0,1,188.24,53.58Z"/><path class="cls-3" d="M184.26,36a.44.44,0,0,1-.44-.44V30a.44.44,0,0,1,.88,0v5.57A.44.44,0,0,1,184.26,36Z"/><path class="cls-3" d="M183.52,50.46a.44.44,0,0,1-.44-.44v-3.1a.44.44,0,0,1,.88,0V50A.44.44,0,0,1,183.52,50.46Z"/><rect class="cls-11" x="141.63" y="24.35" width="2.65" height="120.94" rx="1.33" ry="1.33"/><path class="cls-3" d="M143,145.74a1.77,1.77,0,0,1-1.77-1.77V25.68a1.77,1.77,0,1,1,3.54,0V144A1.77,1.77,0,0,1,143,145.74ZM143,24.8a.89.89,0,0,0-.88.88V144a.88.88,0,1,0,1.77,0V25.68A.89.89,0,0,0,143,24.8Z"/><path class="cls-11" d="M188,36.6a3.72,3.72,0,0,1,2.24,1.48l-.27.24A3.22,3.22,0,0,0,188,37c-2-.4-3.27,1-3.29,3.52s1.2,4.44,3.18,4.83a2.44,2.44,0,0,0,2.31-.68l.27.32a2.7,2.7,0,0,1-2.6.75c-2.17-.43-3.63-2.53-3.61-5.31S185.77,36.15,188,36.6Z"/><path class="cls-11" d="M188.57,45.94a3.73,3.73,0,0,1-.72-.07c-2.24-.44-3.73-2.62-3.71-5.44a4.28,4.28,0,0,1,1.3-3.42,3,3,0,0,1,2.6-.54A3.88,3.88,0,0,1,190.36,38l.07.09-.46.41-.08-.11a3.12,3.12,0,0,0-1.9-1.27,2.4,2.4,0,0,0-2.07.41,3.76,3.76,0,0,0-1.07,3c0,2.49,1.19,4.33,3.08,4.71a2.3,2.3,0,0,0,2.2-.65l.1-.09.42.51-.08.08A2.76,2.76,0,0,1,188.57,45.94Zm-1.3-9.29a2.57,2.57,0,0,0-1.67.56,4,4,0,0,0-1.2,3.23c0,2.69,1.39,4.77,3.51,5.19a2.56,2.56,0,0,0,2.41-.64l-.11-.13a2.53,2.53,0,0,1-2.32.62c-2-.4-3.3-2.34-3.28-5a4,4,0,0,1,1.17-3.18,2.66,2.66,0,0,1,2.28-.46,3.29,3.29,0,0,1,2,1.26l.08-.08a3.6,3.6,0,0,0-2.1-1.34h0A3.77,3.77,0,0,0,187.26,36.64Z"/><path class="cls-11" d="M152.72,34.9h.42l1.09,5,.6,2.68h0c.2-.89.42-1.79.64-2.68l1.34-5h.45l1.34,5,.67,2.68h0c.2-.89.37-1.79.57-2.68l1.09-5h.4l-1.88,8.18h-.4l-1.59-5.88c-.15-.64-.3-1.19-.45-1.83h0c-.15.64-.32,1.19-.47,1.83L155,43.08h-.4Z"/><path class="cls-11" d="M159.64,43.21H159l0-.09-1.59-5.88c-.08-.33-.15-.62-.22-.92l-.13-.51-.14.52c-.08.3-.16.59-.23.91l-1.59,6h-.59l-2-8.43h.68l1.61,7.3c.17-.72.35-1.45.55-2.25l1.36-5.05h.64l0,.09,1.34,5,.57,2.27.19-.92c.09-.45.19-.9.29-1.34l1.11-5.06h.66Zm-.4-.25h.2L161.27,35h-.14l-1.07,4.86c-.1.45-.19.89-.29,1.34s-.19.89-.29,1.34l0,.1h-.25l-.69-2.77L157.21,35H157l-1.31,4.87c-.24,1-.45,1.81-.64,2.67l0,.1h-.25L153,35h-.16L154.73,43h.2l1.54-5.78c.07-.32.16-.62.24-.92s.16-.59.23-.91l0-.1h.25l0,.1c.07.32.15.62.22.91s.15.6.22.92Z"/><path class="cls-11" d="M165.93,34.9h4.39v.35h-4v3.3h3.35v.35h-3.35v3.84h4.12v.35h-4.51Z"/><path class="cls-11" d="M170.57,43.21H165.8V34.78h4.64v.6h-4v3h3.35V39h-3.35v3.59h4.12ZM166.05,43h4.26v-.1H166.2V38.77h3.35v-.1H166.2V35.13h4V35h-4.14Z"/><path class="cls-11" d="M175.12,34.9h.4v7.83h3.84v.35h-4.24Z"/><path class="cls-11" d="M179.49,43.21H175V34.78h.65v7.83h3.84ZM175.25,43h4v-.1h-3.84V35h-.15Z"/><path class="cls-11" d="M194.78,42.58c0-2.58,1.39-4.21,3.32-4.21s3.32,1.64,3.32,4.21-1.39,4.26-3.32,4.26S194.78,45.16,194.78,42.58Zm6.22,0c0-2.36-1.17-3.84-2.9-3.84s-2.9,1.49-2.9,3.84,1.17,3.89,2.9,3.89S201,44.94,201,42.58Z"/><path class="cls-11" d="M198.11,47c-2,0-3.45-1.8-3.45-4.39s1.39-4.34,3.45-4.34,3.45,1.74,3.45,4.34S200.13,47,198.11,47Zm0-8.48c-1.91,0-3.2,1.64-3.2,4.09s1.29,4.14,3.2,4.14,3.2-1.66,3.2-4.14S200,38.49,198.11,38.49Zm0,8.11c-1.81,0-3-1.61-3-4s1.19-4,3-4,3,1.56,3,4S199.92,46.6,198.11,46.6Zm0-7.73c-1.69,0-2.78,1.46-2.78,3.72s1.09,3.77,2.78,3.77,2.78-1.48,2.78-3.77S199.79,38.86,198.11,38.86Z"/><path class="cls-11" d="M206.23,38.52h.64l1.76,5,.67,1.86h0l.64-1.86,1.76-5h.64V46.7H212V41c0-.64,0-1.46,0-2.13h0l-.63,1.78-1.82,5.13h-.47l-1.83-5.13-.64-1.78h0c0,.67,0,1.49,0,2.13v5.7h-.37Z"/><path class="cls-11" d="M212.53,46.82h-.65V41c0-.39,0-.88,0-1.48l-2.27,6.39H209l0-.08L206.7,39.5c0,.6,0,1.1,0,1.49v5.83h-.62V38.39H207l0,.08L209.33,45l.55-1.59,1.79-5h.86Zm-.4-.25h.15V38.64h-.43l-2.4,6.82h-.23l-2.43-6.82h-.43v7.93h.12V41c0-.52,0-1.24,0-2.13v-.13h.27l2.48,6.92h.29l2.45-6.92h.27v.13c0,.92,0,1.61,0,2.13Z"/><path class="cls-11" d="M217.75,38.52h4.39v.35h-4v3.3h3.35v.35h-3.35v3.84h4.12v.35h-4.51Z"/><path class="cls-11" d="M222.39,46.82h-4.76V38.39h4.64V39h-4v3h3.35v.6h-3.35v3.59h4.12Zm-4.51-.25h4.26v-.1H218V42.38h3.35v-.1H218V38.74h4v-.1h-4.14Z"/><rect class="cls-11" x="139.64" y="28.48" width="6.64" height="1.7" rx="0.85" ry="0.85"/><path class="cls-3" d="M145.43,30.62h-4.94a1.29,1.29,0,0,1,0-2.59h4.94a1.29,1.29,0,0,1,0,2.59Zm-4.94-1.7a.41.41,0,0,0,0,.82h4.94a.41.41,0,0,0,0-.82Z"/><rect class="cls-11" x="139.64" y="48.47" width="6.64" height="1.7" rx="0.85" ry="0.85"/><path class="cls-3" d="M145.43,50.61h-4.94a1.29,1.29,0,0,1,0-2.59h4.94a1.29,1.29,0,0,1,0,2.59Zm-4.94-1.7a.41.41,0,0,0,0,.82h4.94a.41.41,0,0,0,0-.82Z"/><rect class="cls-3" x="157.41" y="75.09" width="0.88" height="46.9"/><rect class="cls-3" x="174.23" y="75.09" width="0.88" height="46.9"/><rect class="cls-12" x="153.73" y="121.99" width="24.78" height="4.13" rx="2.06" ry="2.06"/><path class="cls-3" d="M176.44,126.56H155.79a2.51,2.51,0,1,1,0-5h20.65a2.51,2.51,0,0,1,0,5Zm-20.65-4.13a1.62,1.62,0,1,0,0,3.24h20.65a1.62,1.62,0,0,0,0-3.24Z"/><rect class="cls-11" x="154.54" y="73.65" width="6.64" height="1.7" rx="0.85" ry="0.85" transform="translate(232.36 -83.36) rotate(90)"/><path class="cls-3" d="M157.86,78.26A1.29,1.29,0,0,1,156.56,77V72a1.29,1.29,0,0,1,2.59,0V77A1.29,1.29,0,0,1,157.86,78.26Zm0-6.64a.41.41,0,0,0-.41.41V77a.41.41,0,0,0,.82,0V72A.41.41,0,0,0,157.86,71.62Z"/><rect class="cls-11" x="171.24" y="73.33" width="6.64" height="1.7" rx="0.85" ry="0.85" transform="translate(248.74 -100.39) rotate(90)"/><path class="cls-3" d="M174.56,77.94a1.29,1.29,0,0,1-1.29-1.29V71.71a1.29,1.29,0,1,1,2.59,0v4.94A1.29,1.29,0,0,1,174.56,77.94Zm0-6.64a.41.41,0,0,0-.41.41v4.94a.41.41,0,1,0,.82,0V71.71A.41.41,0,0,0,174.56,71.3Z"/><path class="cls-11" d="M136.32,146.77s6.86-6.64,13.5,0"/><path class="cls-4" d="M136.55,147l-.46-.48c.07-.07,7.17-6.79,14,0l-.47.47c-2.65-2.65-5.64-3.46-8.88-2.42A12,12,0,0,0,136.55,147Z"/></g></g></svg>