<svg id="Layer_1" data-name="Layer 1" xmlns="http://www.w3.org/2000/svg" viewBox="0 0 300 200"><defs><style>.cls-1{fill:#3273ad;}.cls-2{fill:#fff;}.cls-3{fill:#c3f1fc;}.cls-4{fill:#fad264;}.cls-5{fill:#63d398;}.cls-6{fill:#cdebfc;}.cls-7{opacity:0.1;}.cls-8,.cls-9{fill:none;stroke:#999;stroke-linejoin:round;}.cls-8{stroke-width:4px;}.cls-9{stroke-width:10px;}</style></defs><title>silicon-valley</title><path class="cls-1" d="M53.14,78.71a16.94,16.94,0,0,1-2.52-.16.47.47,0,0,1-.38-.54.47.47,0,0,1,.54-.38c.18,0,17.81,2.83,23.92-17.22a.47.47,0,1,1,.89.27C70.65,76.87,58.44,78.71,53.14,78.71Z"/><path class="cls-1" d="M71.19,85.16a.47.47,0,0,1-.47-.47V69.4a.47.47,0,1,1,.93,0V84.69A.47.47,0,0,1,71.19,85.16Z"/><path class="cls-1" d="M67.05,85.16a.47.47,0,0,1-.47-.47V73.9a.47.47,0,0,1,.93,0V84.69A.47.47,0,0,1,67.05,85.16Z"/><path class="cls-1" d="M62,85.16a.47.47,0,0,1-.47-.47V76.55a.47.47,0,1,1,.93,0v8.15A.47.47,0,0,1,62,85.16Z"/><path class="cls-1" d="M103.42,79.76C84,79.76,79.16,60.85,79.12,60.65a.47.47,0,0,1,.34-.56.46.46,0,0,1,.56.34c0,.18,4.68,18.39,23.4,18.39,17.85,0,22.66-19.19,22.71-19.38a.47.47,0,0,1,.91.22C127,59.87,122,79.76,103.42,79.76Z"/><path class="cls-1" d="M82.89,85.16a.47.47,0,0,1-.47-.47V68a.47.47,0,0,1,.93,0V84.69A.47.47,0,0,1,82.89,85.16Z"/><path class="cls-1" d="M87,85.24a.47.47,0,0,1-.47-.47V73a.47.47,0,0,1,.93,0V84.77A.47.47,0,0,1,87,85.24Z"/><path class="cls-1" d="M91,85.12a.47.47,0,0,1-.47-.47V76.07a.47.47,0,1,1,.93,0v8.59A.47.47,0,0,1,91,85.12Z"/><path class="cls-1" d="M95.1,85.23a.47.47,0,0,1-.47-.47V78a.47.47,0,1,1,.93,0v6.81A.47.47,0,0,1,95.1,85.23Z"/><path class="cls-1" d="M99.16,85.26a.47.47,0,0,1-.47-.47V79a.47.47,0,0,1,.93,0v5.75A.47.47,0,0,1,99.16,85.26Z"/><path class="cls-1" d="M103.23,85a.47.47,0,0,1-.47-.47V79.3a.47.47,0,0,1,.93,0v5.19A.47.47,0,0,1,103.23,85Z"/><path class="cls-1" d="M107.3,85a.47.47,0,0,1-.47-.47v-5.5a.47.47,0,1,1,.93,0v5.5A.47.47,0,0,1,107.3,85Z"/><path class="cls-1" d="M111.36,85.1a.47.47,0,0,1-.47-.47V78a.47.47,0,0,1,.93,0v6.69A.47.47,0,0,1,111.36,85.1Z"/><path class="cls-1" d="M115.43,85.18a.47.47,0,0,1-.47-.47V75.91a.47.47,0,0,1,.93,0v8.81A.47.47,0,0,1,115.43,85.18Z"/><path class="cls-1" d="M119.5,85.26a.47.47,0,0,1-.47-.47V72.39a.47.47,0,0,1,.93,0v12.4A.47.47,0,0,1,119.5,85.26Z"/><path class="cls-1" d="M123.56,85.21a.47.47,0,0,1-.47-.47V66.94a.47.47,0,0,1,.93,0v17.8A.47.47,0,0,1,123.56,85.21Z"/><path class="cls-1" d="M134.8,85.1a.47.47,0,0,1-.47-.47v-16a.47.47,0,0,1,.93,0v16A.47.47,0,0,1,134.8,85.1Z"/><path class="cls-1" d="M139.53,85.12a.47.47,0,0,1-.47-.47V73.75a.47.47,0,0,1,.93,0V84.65A.47.47,0,0,1,139.53,85.12Z"/><path class="cls-1" d="M144.26,85a.47.47,0,0,1-.47-.47v-8a.47.47,0,0,1,.93,0v8A.47.47,0,0,1,144.26,85Z"/><path class="cls-1" d="M153.11,78.71c-5.3,0-17.51-1.84-22.45-18a.47.47,0,0,1,.89-.27c2.57,8.43,7.38,13.89,14.29,16.23a21.75,21.75,0,0,0,9.63,1A.46.46,0,0,1,156,78a.47.47,0,0,1-.38.54A17,17,0,0,1,153.11,78.71Z"/><path class="cls-1" d="M158.61,85.26H53.45a.47.47,0,1,1,0-.93H158.61a.47.47,0,1,1,0,.93Z"/><rect class="cls-1" x="79.11" y="58.18" width="1.28" height="9.19" rx="0.64" ry="0.64"/><rect class="cls-1" x="78.87" y="65.29" width="1.77" height="10.36" rx="0.88" ry="0.88"/><rect class="cls-1" x="78.75" y="73.35" width="2.01" height="12.28" rx="1" ry="1"/><path class="cls-1" d="M80,83h-.57a.93.93,0,0,0-.93.93v5.78a8.3,8.3,0,0,1,2.43.71V83.89A.93.93,0,0,0,80,83Z"/><rect class="cls-1" x="74.38" y="58.18" width="1.28" height="8.48" rx="0.64" ry="0.64"/><rect class="cls-1" x="74.14" y="65.29" width="1.77" height="9.64" rx="0.85" ry="0.85"/><rect class="cls-1" x="74.02" y="73.35" width="2.01" height="11.64" rx="1" ry="1"/><path class="cls-1" d="M75.3,83h-.57a.93.93,0,0,0-.93.93v6.49a.91.91,0,0,0,0,.14,7.75,7.75,0,0,1,2.41-.81V83.89A.93.93,0,0,0,75.3,83Z"/><rect class="cls-1" x="125.83" y="58.18" width="1.28" height="8.48" rx="0.64" ry="0.64"/><rect class="cls-1" x="125.58" y="65.29" width="1.77" height="9.64" rx="0.85" ry="0.85"/><rect class="cls-1" x="125.46" y="73.35" width="2.01" height="11.74" rx="1" ry="1"/><path class="cls-1" d="M125.25,89.69v-5.8a.93.93,0,0,1,.93-.93h.57a.93.93,0,0,1,.93.93V89Z"/><rect class="cls-1" x="130.56" y="58.18" width="1.28" height="8.48" rx="0.64" ry="0.64"/><rect class="cls-1" x="130.31" y="65.29" width="1.77" height="9.64" rx="0.85" ry="0.85"/><rect class="cls-1" x="130.19" y="73.35" width="2.01" height="11.44" rx="0.99" ry="0.99"/><path class="cls-1" d="M132.41,89.28V83.89a.93.93,0,0,0-.93-.93h-.57a.93.93,0,0,0-.93.93v4.85Z"/><rect class="cls-1" x="75.13" y="59.56" width="4.44" height="1.43"/><rect class="cls-1" x="75.13" y="66.66" width="4.44" height="1.43"/><rect class="cls-1" x="75.13" y="74.93" width="4.44" height="1.43"/><rect class="cls-1" x="127.17" y="59.56" width="4.44" height="1.43"/><rect class="cls-1" x="127.17" y="66.66" width="4.44" height="1.43"/><rect class="cls-1" x="127.17" y="74.93" width="4.44" height="1.43"/><path class="cls-1" d="M48.13,120.83a.47.47,0,0,1-.42-.68,8.23,8.23,0,0,1,9.92-4.06.47.47,0,1,1-.3.89,7.17,7.17,0,0,0-3.18-.32,7.28,7.28,0,0,0-5.61,3.91A.47.47,0,0,1,48.13,120.83Z"/><path class="cls-1" d="M44.8,119.65a.47.47,0,0,1-.45-.36,9,9,0,0,0-9.81-6.83,9.15,9.15,0,0,0-1.3.25.47.47,0,0,1-.25-.9,9.93,9.93,0,0,1,12.27,7.26.47.47,0,0,1-.35.56Z"/><path class="cls-1" d="M77.92,119.05a.47.47,0,0,1-.46-.41,4.55,4.55,0,0,0-1.75-3.21,4,4,0,0,0-3.3-.51.47.47,0,1,1-.2-.91,5,5,0,0,1,4,.66,5.48,5.48,0,0,1,2.14,3.86A.47.47,0,0,1,78,119Z"/><path class="cls-1" d="M57.27,117.57h0a.47.47,0,0,1-.45-.48,8,8,0,0,1,7.12-7.95c4.15-.5,8.13,2.14,8.92,5.88a.47.47,0,1,1-.91.19c-.69-3.28-4.23-5.59-7.89-5.14a7.07,7.07,0,0,0-6.3,7.06A.47.47,0,0,1,57.27,117.57Z"/><path class="cls-1" d="M48.6,121.06a.47.47,0,0,1-.25-.08l-.42-.26a10.2,10.2,0,0,0-3.8-1.12.47.47,0,1,1,.1-.93,11,11,0,0,1,4.17,1.23l.47.29a.47.47,0,0,1-.25.86Z"/><path class="cls-2" d="M70.88,121.54s13.07-7.24,20.31,7c0,0,6.48-1.78,9,.89,0,0,4.83-5.72,8.64,1.27,0,0,3.56-1.91,5,.89"/><path class="cls-1" d="M113.81,132a.47.47,0,0,1-.42-.26,2.11,2.11,0,0,0-1.27-1.15,4.7,4.7,0,0,0-3,.46.47.47,0,0,1-.63-.19c-1.09-2-2.34-3.07-3.73-3.21-2.22-.23-4.12,2-4.14,2a.47.47,0,0,1-.34.17.49.49,0,0,1-.35-.15c-2.32-2.44-8.5-.78-8.56-.76a.47.47,0,0,1-.54-.24c-2.16-4.24-5.05-6.94-8.6-8-5.61-1.72-11,1.21-11.07,1.24a.47.47,0,1,1-.45-.82c.23-.13,5.79-3.15,11.78-1.32,3.71,1.14,6.74,3.88,9,8.17,1.39-.33,6.25-1.28,8.76.78a6.1,6.1,0,0,1,4.62-2c1.62.16,3,1.28,4.24,3.32a5.16,5.16,0,0,1,3.35-.34,3,3,0,0,1,1.83,1.62.47.47,0,0,1-.42.68Z"/><path class="cls-1" d="M84.58,94.58a.34.34,0,0,0,.33.26,6.17,6.17,0,0,0-.2-.61A.34.34,0,0,0,84.58,94.58Z"/><path class="cls-1" d="M88.79,94.81a4.84,4.84,0,0,0-3.95-.64.34.34,0,0,0-.13.06,6.17,6.17,0,0,1,.2.61H85a4.11,4.11,0,0,1,3.4.53,4.67,4.67,0,0,1,1.8,3.3.34.34,0,0,0,.34.3h0a.35.35,0,0,0,.3-.38A5.36,5.36,0,0,0,88.79,94.81Z"/><path class="cls-1" d="M85.33,95.1c-.78-3.68-4.72-6.27-8.78-5.78a7.76,7.76,0,0,0-6.76,6,.35.35,0,0,0,.25.42h.08a.35.35,0,0,0,.34-.26A7.08,7.08,0,0,1,76.63,90c3.71-.45,7.32,1.9,8,5.24a.35.35,0,1,0,.68-.14Zm-8.74-5.44a7.42,7.42,0,0,0-6.46,5.75,7.42,7.42,0,0,1,6.46-5.75c3.68-.45,7.63,1.85,8.4,5.51C84.22,91.51,80.27,89.21,76.59,89.66Z"/><path class="cls-2" d="M70.88,95.51a2.11,2.11,0,0,0-.75-.11l2.45,1.4A3.08,3.08,0,0,0,70.88,95.51Z"/><path class="cls-1" d="M69.78,95.41a.33.33,0,0,0,.36.33,1.7,1.7,0,0,1,.63.09A2.74,2.74,0,0,1,72.28,97a.35.35,0,0,0,.59-.36A3.41,3.41,0,0,0,71,95.19a2.48,2.48,0,0,0-.76-.12c0,.11-.07.22-.09.34,0-.12.06-.23.09-.34h-.11A.35.35,0,0,0,69.78,95.41Z"/><path class="cls-1" d="M34.74,81.24a.47.47,0,0,1-.42-.26C32.11,76.44,25.89,77,25.83,77a.46.46,0,0,1-.51-.42.47.47,0,0,1,.42-.51c.28,0,6.93-.67,9.42,4.46a.47.47,0,0,1-.42.67Z"/><path class="cls-1" d="M60.22,93.19h0a.47.47,0,0,1-.47-.47,2.57,2.57,0,0,0-.8-2c-1.27-1.16-3.62-.94-3.64-.94a.47.47,0,0,1-.51-.39c-.56-3.53-2.17-5.33-5.21-5.84-2.09-.35-4.08.85-5.39,1.91a.47.47,0,1,1-.59-.72c1.46-1.19,3.71-2.52,6.14-2.11,3.32.56,5.21,2.53,5.9,6.2A5.93,5.93,0,0,1,59.58,90a3.5,3.5,0,0,1,1.11,2.72A.47.47,0,0,1,60.22,93.19Z"/><path class="cls-1" d="M42.31,87.09h-.07a.47.47,0,0,1-.36-.29c-1.41-3.57-6-2.08-6.15-2a.47.47,0,0,1-.62-.42A8.5,8.5,0,0,0,34.32,81a.47.47,0,1,1,.84-.41A9.14,9.14,0,0,1,36,83.72c1.91-.47,5-.47,6.43,2.07a14.65,14.65,0,0,1,1.19-1.08.47.47,0,1,1,.59.72,12.49,12.49,0,0,0-1.54,1.48A.47.47,0,0,1,42.31,87.09Z"/><path class="cls-1" d="M30.24,132.77H26.06a.37.37,0,0,1,0-.74h4.18a.37.37,0,0,1,0,.74Z"/><path class="cls-1" d="M264.72,132.77H33.7a.4.4,0,1,1,0-.8h231a.4.4,0,1,1,0,.8Z"/><path class="cls-1" d="M271.89,132.77H269a.4.4,0,1,1,0-.8h2.89a.4.4,0,1,1,0,.8Z"/><rect class="cls-2" x="186.7" y="49.98" width="32" height="82.39"/><path class="cls-1" d="M218.7,132.84h-32a.47.47,0,0,1-.47-.47V50a.47.47,0,0,1,.47-.47h32a.47.47,0,0,1,.47.47v82.39A.47.47,0,0,1,218.7,132.84Zm-31.53-.93h31.06V50.45H187.17Z"/><rect class="cls-3" x="193.7" y="54.4" width="6" height="11.2"/><path class="cls-1" d="M199.7,66.07h-6a.47.47,0,0,1-.47-.47V54.4a.47.47,0,0,1,.47-.47h6a.47.47,0,0,1,.47.47V65.6A.47.47,0,0,1,199.7,66.07Zm-5.53-.93h5.07V54.87h-5.07Z"/><rect class="cls-3" x="206.32" y="54.4" width="6" height="11.2"/><path class="cls-1" d="M212.32,66.07h-6a.47.47,0,0,1-.47-.47V54.4a.47.47,0,0,1,.47-.47h6a.47.47,0,0,1,.47.47V65.6A.47.47,0,0,1,212.32,66.07Zm-5.53-.93h5.06V54.87h-5.06Z"/><rect class="cls-3" x="193.39" y="73" width="6" height="11.2"/><path class="cls-1" d="M199.39,84.67h-6a.47.47,0,0,1-.47-.47V73a.47.47,0,0,1,.47-.47h6a.47.47,0,0,1,.47.47V84.2A.47.47,0,0,1,199.39,84.67Zm-5.53-.93h5.06V73.47h-5.06Z"/><rect class="cls-3" x="206.01" y="73" width="6" height="11.2"/><path class="cls-1" d="M212,84.67h-6a.47.47,0,0,1-.47-.47V73a.47.47,0,0,1,.47-.47h6a.47.47,0,0,1,.47.47V84.2A.47.47,0,0,1,212,84.67Zm-5.53-.93h5.07V73.47h-5.07Z"/><rect class="cls-3" x="193.08" y="91.6" width="6" height="11.2"/><path class="cls-1" d="M199.08,103.27h-6a.47.47,0,0,1-.47-.47V91.6a.47.47,0,0,1,.47-.47h6a.47.47,0,0,1,.47.47v11.2A.47.47,0,0,1,199.08,103.27Zm-5.53-.93h5.07V92.07h-5.07Z"/><rect class="cls-3" x="205.7" y="91.6" width="6" height="11.2"/><path class="cls-1" d="M211.7,103.27h-6a.47.47,0,0,1-.47-.47V91.6a.47.47,0,0,1,.47-.47h6a.47.47,0,0,1,.47.47v11.2A.47.47,0,0,1,211.7,103.27Zm-5.53-.93h5.06V92.07h-5.06Z"/><rect class="cls-3" x="193.39" y="107.6" width="18.31" height="21.6"/><path class="cls-1" d="M211.7,129.67H193.39a.47.47,0,0,1-.47-.47V107.6a.47.47,0,0,1,.47-.47H211.7a.47.47,0,0,1,.47.47v21.6A.47.47,0,0,1,211.7,129.67Zm-17.84-.93h17.37V108.07H193.86Z"/><path class="cls-1" d="M202.7,129.67a.47.47,0,0,1-.47-.47V108a.47.47,0,1,1,.93,0V129.2A.47.47,0,0,1,202.7,129.67Z"/><rect class="cls-2" x="218.7" y="83.59" width="32.2" height="48.78"/><path class="cls-1" d="M250.89,132.84H218.7a.47.47,0,0,1-.47-.47V83.59a.47.47,0,0,1,.47-.47h32.2a.47.47,0,0,1,.47.47v48.78A.47.47,0,0,1,250.89,132.84Zm-31.73-.93h31.26V84.06H219.16Z"/><rect class="cls-2" x="233.3" y="78.39" width="12" height="5.2"/><path class="cls-1" d="M245.3,84.06h-12a.47.47,0,0,1-.47-.47v-5.2a.47.47,0,0,1,.47-.47h12a.47.47,0,0,1,.47.47v5.2A.47.47,0,0,1,245.3,84.06Zm-11.53-.93h11.06V78.86H233.76Z"/><rect class="cls-3" x="223.7" y="89.59" width="7.2" height="7.2"/><path class="cls-1" d="M230.9,97.26h-7.2a.47.47,0,0,1-.47-.47v-7.2a.47.47,0,0,1,.47-.47h7.2a.47.47,0,0,1,.47.47v7.2A.47.47,0,0,1,230.9,97.26Zm-6.73-.93h6.26V90.06h-6.26Z"/><rect class="cls-3" x="238.1" y="89.59" width="7.2" height="7.2"/><path class="cls-1" d="M245.3,97.26h-7.2a.47.47,0,0,1-.47-.47v-7.2a.47.47,0,0,1,.47-.47h7.2a.47.47,0,0,1,.47.47v7.2A.47.47,0,0,1,245.3,97.26Zm-6.73-.93h6.26V90.06h-6.26Z"/><rect class="cls-3" x="238.1" y="102.79" width="7.2" height="7.2"/><path class="cls-1" d="M245.3,110.46h-7.2a.47.47,0,0,1-.47-.47v-7.2a.47.47,0,0,1,.47-.47h7.2a.47.47,0,0,1,.47.47V110A.47.47,0,0,1,245.3,110.46Zm-6.73-.93h6.26v-6.26h-6.26Z"/><rect class="cls-3" x="223.7" y="102.79" width="7.2" height="7.2"/><path class="cls-1" d="M230.9,110.46h-7.2a.47.47,0,0,1-.47-.47v-7.2a.47.47,0,0,1,.47-.47h7.2a.47.47,0,0,1,.47.47V110A.47.47,0,0,1,230.9,110.46Zm-6.73-.93h6.26v-6.26h-6.26Z"/><rect class="cls-3" x="223.7" y="114.82" width="21.6" height="14.6"/><path class="cls-1" d="M245.3,129.88H223.7a.47.47,0,0,1-.47-.47v-14.6a.47.47,0,0,1,.47-.47h21.6a.47.47,0,0,1,.47.47v14.6A.47.47,0,0,1,245.3,129.88Zm-21.13-.93h20.66V115.28H224.16Z"/><path class="cls-1" d="M245.3,120.48H223.7a.47.47,0,0,1,0-.93h21.6a.47.47,0,0,1,0,.93Z"/><path class="cls-1" d="M159,104.52a.47.47,0,0,1-.47-.46,3.86,3.86,0,0,0-1.23-3.16,3.72,3.72,0,0,0-2.84-.48.47.47,0,0,1-.58-.48c.21-3.2-1-5.27-3.68-6.17-3.6-1.22-6.6,4-6.63,4.1a.47.47,0,0,1-.4.24.46.46,0,0,1-.41-.22c-2-3.26-5.82-2-5.86-2a.47.47,0,0,1-.61-.36c-.84-4.63-3.62-6.74-8.23-6.26-6.24.65-6.23,6.86-6.22,7.12a.47.47,0,0,1-.73.4,3.4,3.4,0,0,0-2.87-.68,4.23,4.23,0,0,0-2.26,2.2.47.47,0,0,1-.72.18c-1.67-1.35-3.27-1.86-4.75-1.52-2.68.61-4.19,3.78-4.2,3.81a.47.47,0,0,1-.29.25.46.46,0,0,1-.38,0c-2-1.22-3.7-1.54-5-.93-2.13,1-2.67,4.07-2.67,4.11A.47.47,0,0,1,97,104c0-.15.62-3.61,3.2-4.8,1.51-.7,3.35-.45,5.47.73.56-1,2.12-3.3,4.6-3.87a6.17,6.17,0,0,1,5.1,1.36,4.76,4.76,0,0,1,2.58-2.2,3.94,3.94,0,0,1,3,.39c.22-1.92,1.33-6.68,7-7.27,5-.51,8.11,1.74,9.15,6.54a6,6,0,0,1,6,1.94c1-1.5,3.83-5.09,7.36-3.9,2,.69,4.4,2.38,4.34,6.53a4.36,4.36,0,0,1,3,.74,4.73,4.73,0,0,1,1.6,3.88.47.47,0,0,1-.46.48Z"/><path class="cls-1" d="M257.07,133.06a.47.47,0,0,1-.47-.47V97.29c-.07-1.59.55-4.75,3.46-5.18.14,0,4.23-.92,6.93,1.2a6.45,6.45,0,0,1,2.25,5.25.47.47,0,0,1-.46.48h0a.47.47,0,0,1-.47-.46A5.57,5.57,0,0,0,266.42,94c-2.36-1.85-6.15-1-6.19-1-2.84.42-2.7,4.2-2.69,4.24v35.32A.47.47,0,0,1,257.07,133.06Z"/><path class="cls-4" d="M265.36,101.37h6.75s1-3.82-1.78-3.82H266.5S264.85,97.42,265.36,101.37Z"/><path class="cls-1" d="M272.11,101.83h-6.75a.47.47,0,0,1-.46-.41c-.24-1.9,0-3.21.6-3.89a1.35,1.35,0,0,1,1-.46h3.79a2.22,2.22,0,0,1,1.87.83c1,1.26.39,3.49.36,3.58A.47.47,0,0,1,272.11,101.83Zm-6.34-.93h6a3.46,3.46,0,0,0-.28-2.42,1.32,1.32,0,0,0-1.13-.46H266.5a.49.49,0,0,0-.35.2C265.93,98.47,265.6,99.15,265.77,100.9Z"/><rect class="cls-2" x="69.99" y="102.31" width="67.7" height="30.05"/><path class="cls-1" d="M137.68,132.83H70a.47.47,0,0,1-.47-.47V102.31a.47.47,0,0,1,.47-.47h67.7a.47.47,0,0,1,.47.47v30.05A.47.47,0,0,1,137.68,132.83Zm-67.23-.93h66.76V102.78H70.46Z"/><rect class="cls-2" x="91.66" y="109.74" width="22.62" height="22.62"/><path class="cls-1" d="M114.28,132.83H91.66a.47.47,0,0,1-.47-.47V109.74a.47.47,0,0,1,.47-.47h22.62a.47.47,0,0,1,.47.47v22.62A.47.47,0,0,1,114.28,132.83Zm-22.15-.93h21.68V110.21H92.12Z"/><rect class="cls-3" x="94.48" y="117.33" width="17.01" height="15.03"/><path class="cls-1" d="M111.49,132.83h-17a.47.47,0,0,1-.47-.47v-15a.47.47,0,0,1,.47-.47h17a.47.47,0,0,1,.47.47v15A.47.47,0,0,1,111.49,132.83Zm-16.54-.93H111V117.8H94.95Z"/><rect class="cls-3" x="94.29" y="111.48" width="17.4" height="3.01"/><path class="cls-1" d="M111.68,115H94.29a.47.47,0,0,1-.47-.47v-3a.47.47,0,0,1,.47-.47h17.4a.47.47,0,0,1,.47.47v3A.47.47,0,0,1,111.68,115ZM94.75,114h16.46v-2.07H94.75Z"/><line class="cls-2" x1="82.17" y1="115.75" x2="76.95" y2="121.05"/><path class="cls-1" d="M76.95,121.52a.47.47,0,0,1-.33-.79l5.22-5.3a.47.47,0,0,1,.67.66l-5.22,5.3A.47.47,0,0,1,76.95,121.52Z"/><line class="cls-2" x1="85.49" y1="117.33" x2="76.63" y2="125.87"/><path class="cls-1" d="M76.63,126.34a.47.47,0,0,1-.32-.8L85.16,117a.47.47,0,1,1,.65.67L77,126.21A.47.47,0,0,1,76.63,126.34Z"/><line class="cls-2" x1="127.09" y1="115.75" x2="121.87" y2="121.05"/><path class="cls-1" d="M121.87,121.52a.47.47,0,0,1-.33-.79l5.22-5.3a.47.47,0,0,1,.67.66l-5.22,5.3A.47.47,0,0,1,121.87,121.52Z"/><line class="cls-2" x1="130.25" y1="117.33" x2="121.39" y2="126.35"/><path class="cls-1" d="M121.39,126.82a.47.47,0,0,1-.33-.79l8.86-9a.47.47,0,1,1,.67.66l-8.86,9A.46.46,0,0,1,121.39,126.82Z"/><rect class="cls-2" x="152.99" y="72.41" width="29.74" height="59.95"/><path class="cls-1" d="M182.73,132.83H153a.47.47,0,0,1-.47-.47V72.41a.47.47,0,0,1,.47-.47h29.74a.47.47,0,0,1,.47.47v59.95A.47.47,0,0,1,182.73,132.83Zm-29.27-.93h28.8v-59h-28.8Z"/><rect class="cls-3" x="156.47" y="115.91" width="9.81" height="16.45"/><path class="cls-1" d="M166.28,132.83h-9.81a.47.47,0,0,1-.47-.47V115.91a.47.47,0,0,1,.47-.47h9.81a.47.47,0,0,1,.47.47v16.45A.47.47,0,0,1,166.28,132.83Zm-9.34-.93h8.87V116.38h-8.87Z"/><rect class="cls-3" x="169.43" y="115.91" width="9.03" height="10.6"/><path class="cls-1" d="M178.46,127h-9a.47.47,0,0,1-.47-.47v-10.6a.47.47,0,0,1,.47-.47h9a.47.47,0,0,1,.47.47v10.6A.47.47,0,0,1,178.46,127ZM169.9,126H178v-9.66H169.9Z"/><rect class="cls-3" x="156.47" y="76.37" width="21.99" height="5.69"/><path class="cls-1" d="M178.46,82.53h-22a.47.47,0,0,1-.47-.47V76.37a.47.47,0,0,1,.47-.47h22a.47.47,0,0,1,.47.47v5.69A.47.47,0,0,1,178.46,82.53Zm-21.52-.93H178V76.84H156.94Z"/><path class="cls-1" d="M164.22,82.53a.47.47,0,0,1-.47-.47V76.37a.47.47,0,0,1,.93,0v5.69A.47.47,0,0,1,164.22,82.53Z"/><path class="cls-1" d="M170.55,82.53a.47.47,0,0,1-.47-.47V76.37a.47.47,0,0,1,.93,0v5.69A.47.47,0,0,1,170.55,82.53Z"/><rect class="cls-3" x="156.47" y="85.86" width="21.99" height="5.69"/><path class="cls-1" d="M178.46,92h-22a.47.47,0,0,1-.47-.47V85.86a.47.47,0,0,1,.47-.47h22a.47.47,0,0,1,.47.47v5.69A.47.47,0,0,1,178.46,92Zm-21.52-.93H178V86.33H156.94Z"/><path class="cls-1" d="M164.22,92a.47.47,0,0,1-.47-.47V85.86a.47.47,0,0,1,.93,0v5.69A.47.47,0,0,1,164.22,92Z"/><path class="cls-1" d="M170.55,92a.47.47,0,0,1-.47-.47V85.86a.47.47,0,0,1,.93,0v5.69A.47.47,0,0,1,170.55,92Z"/><rect class="cls-3" x="156.47" y="95.35" width="21.99" height="5.69"/><path class="cls-1" d="M178.46,101.51h-22A.47.47,0,0,1,156,101V95.35a.47.47,0,0,1,.47-.47h22a.47.47,0,0,1,.47.47V101A.47.47,0,0,1,178.46,101.51Zm-21.52-.93H178V95.82H156.94Z"/><path class="cls-1" d="M164.22,101.51a.47.47,0,0,1-.47-.47V95.35a.47.47,0,0,1,.93,0V101A.47.47,0,0,1,164.22,101.51Z"/><path class="cls-1" d="M170.55,101.51a.47.47,0,0,1-.47-.47V95.35a.47.47,0,0,1,.93,0V101A.47.47,0,0,1,170.55,101.51Z"/><rect class="cls-3" x="156.47" y="105.79" width="21.99" height="5.69"/><path class="cls-1" d="M178.46,111.95h-22a.47.47,0,0,1-.47-.47v-5.69a.47.47,0,0,1,.47-.47h22a.47.47,0,0,1,.47.47v5.69A.47.47,0,0,1,178.46,111.95ZM156.94,111H178v-4.76H156.94Z"/><path class="cls-1" d="M164.22,111.95a.47.47,0,0,1-.47-.47v-5.69a.47.47,0,1,1,.93,0v5.69A.47.47,0,0,1,164.22,111.95Z"/><path class="cls-1" d="M170.55,111.95a.47.47,0,0,1-.47-.47v-5.69a.47.47,0,1,1,.93,0v5.69A.47.47,0,0,1,170.55,111.95Z"/><rect class="cls-3" x="84.32" y="98.64" width="38.65" height="3.67"/><path class="cls-1" d="M123,102.78H84.32a.47.47,0,0,1-.47-.47V98.64a.47.47,0,0,1,.47-.47H123a.47.47,0,0,1,.47.47v3.67A.47.47,0,0,1,123,102.78Zm-38.18-.93H122.5V99.1H84.79Z"/><circle class="cls-5" cx="145.75" cy="114.26" r="11.71"/><path class="cls-1" d="M145.75,126.44a12.18,12.18,0,1,1,12.18-12.18A12.2,12.2,0,0,1,145.75,126.44Zm0-23.43A11.25,11.25,0,1,0,157,114.26,11.26,11.26,0,0,0,145.75,103Z"/><circle class="cls-5" cx="134.19" cy="119.25" r="6.8"/><path class="cls-1" d="M134.19,126.52a7.27,7.27,0,1,1,7.27-7.27A7.28,7.28,0,0,1,134.19,126.52Zm0-13.6a6.33,6.33,0,1,0,6.34,6.33A6.34,6.34,0,0,0,134.19,112.91Z"/><path class="cls-1" d="M134.19,132.78a.47.47,0,0,1-.47-.47V121.44a.47.47,0,0,1,.93,0v10.87A.47.47,0,0,1,134.19,132.78Z"/><path class="cls-1" d="M145.9,132.94a.47.47,0,0,1-.47-.47v-16a.47.47,0,1,1,.93,0v16A.47.47,0,0,1,145.9,132.94Z"/><line class="cls-2" x1="149.91" y1="115.39" x2="146.17" y2="119.25"/><path class="cls-1" d="M146.17,119.71a.47.47,0,0,1-.33-.79l3.74-3.85a.47.47,0,0,1,.67.65l-3.74,3.85A.46.46,0,0,1,146.17,119.71Z"/><line class="cls-2" x1="145.64" y1="123.25" x2="142.35" y2="120.23"/><path class="cls-1" d="M145.64,123.72a.47.47,0,0,1-.32-.12l-3.29-3a.47.47,0,0,1,.63-.69l3.29,3a.47.47,0,0,1-.32.81Z"/><path class="cls-1" d="M42.05,101.83H42a.47.47,0,0,1-.39-.54,4,4,0,0,1,1.87-2.78,3.32,3.32,0,0,1,3,.31,4.38,4.38,0,0,1,2.54-2,3.47,3.47,0,0,1,2.77.65,2.7,2.7,0,0,1,1.4-1.1,2.26,2.26,0,0,1,1.5.1,4.34,4.34,0,0,1,4-3.85c2.75-.29,4.53.93,5.17,3.52a3.46,3.46,0,0,1,3.11,1c.68-.94,2.2-2.63,4.1-2a3.57,3.57,0,0,1,2.51,3.54,2.55,2.55,0,0,1,1.57.46,2.77,2.77,0,0,1,1,2.28.47.47,0,0,1-.46.48h0a.47.47,0,0,1-.47-.46,1.91,1.91,0,0,0-.59-1.56,1.84,1.84,0,0,0-1.37-.23.47.47,0,0,1-.58-.48A2.76,2.76,0,0,0,70.73,96c-1.8-.61-3.35,2.11-3.36,2.14a.47.47,0,0,1-.4.24.45.45,0,0,1-.41-.22,2.57,2.57,0,0,0-3-1,.46.46,0,0,1-.38,0,.47.47,0,0,1-.22-.32c-.44-2.43-1.83-3.49-4.26-3.24a3.55,3.55,0,0,0-3.2,3.67.47.47,0,0,1-.73.4,1.66,1.66,0,0,0-1.39-.34,2.11,2.11,0,0,0-1.1,1.08.47.47,0,0,1-.32.27.47.47,0,0,1-.41-.09,2.84,2.84,0,0,0-2.41-.79,3.85,3.85,0,0,0-2.15,2,.47.47,0,0,1-.29.25.48.48,0,0,1-.38,0,2.76,2.76,0,0,0-2.54-.5c-1,.48-1.33,2.06-1.33,2.08A.47.47,0,0,1,42.05,101.83Z"/><path class="cls-1" d="M41.44,138.82H33.17a.47.47,0,0,1,0-.93h8.27a.47.47,0,0,1,0,.93Z"/><path class="cls-1" d="M88.21,142.32H49.65a.47.47,0,0,1,0-.93H88.21a.47.47,0,0,1,0,.93Z"/><path class="cls-1" d="M96.48,137.55H88.84a.47.47,0,1,1,0-.93h7.64a.47.47,0,0,1,0,.93Z"/><path class="cls-1" d="M137.52,142.32h-37a.47.47,0,1,1,0-.93h37a.47.47,0,1,1,0,.93Z"/><path class="cls-1" d="M149.62,137.55H132.43a.47.47,0,0,1,0-.93h17.18a.47.47,0,1,1,0,.93Z"/><path class="cls-1" d="M156,142.32H145.16a.47.47,0,1,1,0-.93H156a.47.47,0,0,1,0,.93Z"/><path class="cls-1" d="M213.72,142.32H162.34a.47.47,0,0,1,0-.93h51.38a.47.47,0,1,1,0,.93Z"/><path class="cls-1" d="M201.68,138.61H188a.47.47,0,0,1,0-.93h13.65a.47.47,0,1,1,0,.93Z"/><path class="cls-1" d="M207.73,138.61h-3.29a.47.47,0,0,1,0-.93h3.29a.47.47,0,1,1,0,.93Z"/><path class="cls-1" d="M245.8,138.61h-6.15a.47.47,0,1,1,0-.93h6.15a.47.47,0,1,1,0,.93Z"/><path class="cls-1" d="M228.62,142.32h-9.54a.47.47,0,0,1,0-.93h9.54a.47.47,0,0,1,0,.93Z"/><path class="cls-1" d="M275.07,142.32H251.53a.47.47,0,1,1,0-.93h23.54a.47.47,0,0,1,0,.93Z"/><path class="cls-1" d="M249.2,147.52h-11a.47.47,0,1,1,0-.93h11a.47.47,0,0,1,0,.93Z"/><path class="cls-1" d="M212,148.79H189.91a.47.47,0,0,1,0-.93H212a.47.47,0,0,1,0,.93Z"/><path class="cls-1" d="M176,148.79h-26.4a.47.47,0,0,1,0-.93H176a.47.47,0,1,1,0,.93Z"/><path class="cls-1" d="M139.54,148.79h-3.18a.47.47,0,1,1,0-.93h3.18a.47.47,0,0,1,0,.93Z"/><path class="cls-1" d="M127.66,147.73H108.78a.47.47,0,1,1,0-.93h18.88a.47.47,0,0,1,0,.93Z"/><path class="cls-1" d="M95.63,151.55H84.72a.47.47,0,1,1,0-.93H95.63a.47.47,0,1,1,0,.93Z"/><path class="cls-1" d="M81.79,151.55H78.56a.47.47,0,1,1,0-.93h3.24a.47.47,0,0,1,0,.93Z"/><path class="cls-1" d="M73.68,147.73H72.41a.47.47,0,1,1,0-.93h1.27a.47.47,0,0,1,0,.93Z"/><path class="cls-1" d="M69.22,147.73H61.48a.47.47,0,0,1,0-.93h7.74a.47.47,0,0,1,0,.93Z"/><path class="cls-1" d="M54.59,147.73h-16a.47.47,0,1,1,0-.93h16a.47.47,0,1,1,0,.93Z"/><path class="cls-1" d="M30.3,145.61H23.51a.47.47,0,0,1,0-.93H30.3a.47.47,0,1,1,0,.93Z"/><path class="cls-1" d="M43.24,155.79H30.3a.47.47,0,1,1,0-.93H43.24a.47.47,0,0,1,0,.93Z"/><path class="cls-1" d="M61.48,164.27H54.59a.47.47,0,0,1,0-.93h6.89a.47.47,0,1,1,0,.93Z"/><path class="cls-1" d="M102,171.49H91.44a.47.47,0,0,1,0-.93H102a.47.47,0,0,1,0,.93Z"/><path class="cls-1" d="M103.33,158.12H82a.47.47,0,1,1,0-.93h21.36a.47.47,0,0,1,0,.93Z"/><path class="cls-1" d="M68.93,154.31H65.35a.47.47,0,1,1,0-.93h3.58a.47.47,0,0,1,0,.93Z"/><path class="cls-1" d="M127.66,165.76H111.75a.47.47,0,0,1,0-.93h15.91a.47.47,0,0,1,0,.93Z"/><path class="cls-1" d="M152.48,171.49h-15a.47.47,0,0,1,0-.93h15a.47.47,0,0,1,0,.93Z"/><path class="cls-1" d="M162.34,156.64H145.16a.47.47,0,1,1,0-.93h17.18a.47.47,0,1,1,0,.93Z"/><path class="cls-1" d="M182.17,165.76H165a.47.47,0,0,1,0-.93h17.18a.47.47,0,0,1,0,.93Z"/><path class="cls-1" d="M178.35,160.24h-6.58a.47.47,0,1,1,0-.93h6.58a.47.47,0,1,1,0,.93Z"/><path class="cls-1" d="M191.29,156.64h-8.48a.47.47,0,1,1,0-.93h8.48a.47.47,0,1,1,0,.93Z"/><path class="cls-1" d="M212,156h-7.53a.47.47,0,0,1,0-.93H212a.47.47,0,0,1,0,.93Z"/><path class="cls-1" d="M223.85,166.82H212a.47.47,0,1,1,0-.93h11.88a.47.47,0,1,1,0,.93Z"/><path class="cls-1" d="M253,154.94H225.86a.47.47,0,1,1,0-.93H253a.47.47,0,0,1,0,.93Z"/><path class="cls-6" d="M248.89,37.67h-5.43a.44.44,0,0,1-.44-.46,4,4,0,0,0-1.07-3c-1.65-1.7-4.66-1.68-4.68-1.69a.49.49,0,0,1-.34-.15.44.44,0,0,1-.11-.35,9.19,9.19,0,0,0-1.91-6.32,7.28,7.28,0,0,0-5.74-2.27,6.72,6.72,0,0,0-5,1.93c-2.24,2.35-2.11,6.07-2.11,6.11a.44.44,0,0,1-.18.37.45.45,0,0,1-.41.07,6.21,6.21,0,0,0-5.24.24c-2.65,1.54-3.4,5.18-3.41,5.21a.44.44,0,0,1-.44.36H201.67a.44.44,0,0,1,0-.89H212c.27-1,1.23-4,3.74-5.45a6.81,6.81,0,0,1,5.4-.49,9.76,9.76,0,0,1,2.34-6.14,7.57,7.57,0,0,1,5.69-2.21,8.15,8.15,0,0,1,6.41,2.57,10,10,0,0,1,2.16,6.54,7.76,7.76,0,0,1,4.85,1.94,4.73,4.73,0,0,1,1.32,3.24h5a.44.44,0,1,1,0,.89Z"/><path class="cls-6" d="M71.56,42.66h0l7.61-.34a.88.88,0,0,0,.56-.08.92.92,0,0,0,.27-.66c0-.05,0-.1,0-.13a6.63,6.63,0,0,1,.26-.76A5,5,0,0,1,81,39.52a4.24,4.24,0,0,1,1.78-1.32,5.25,5.25,0,0,1,1.72-.35,5.69,5.69,0,0,1,.63,0,1,1,0,0,0,.51,0c.27-.1.37-.4.54-1.11,0-.11.05-.21.07-.26A13.68,13.68,0,0,1,87,34.78a9.05,9.05,0,0,1,1.74-2.4,6.68,6.68,0,0,1,4-1.84,8.81,8.81,0,0,1,8.08,3.86,9.6,9.6,0,0,1,1.43,5.95.36.36,0,0,0,.72.07A10.35,10.35,0,0,0,101.37,34a9.43,9.43,0,0,0-8.77-4.19,7.4,7.4,0,0,0-4.39,2,9.76,9.76,0,0,0-1.88,2.59,14.34,14.34,0,0,0-.78,1.83c0,.06-.05.18-.09.32s-.1.4-.16.57l-.14,0a6.83,6.83,0,0,0-.71,0,6,6,0,0,0-2,.4,5,5,0,0,0-2.09,1.55,5.71,5.71,0,0,0-.78,1.35,7.39,7.39,0,0,0-.29.84s0,.12,0,.21l0,.13h-.13l-7.62.34a.36.36,0,0,0,0,.72Z"/><path class="cls-6" d="M253.88,71.34h3.75a.31.31,0,0,0,.31-.32,2.76,2.76,0,0,1,.74-2.11,5.13,5.13,0,0,1,3.24-1.17.34.34,0,0,0,.23-.1.31.31,0,0,0,.07-.25A6.36,6.36,0,0,1,263.55,63a5,5,0,0,1,4-1.57A4.65,4.65,0,0,1,271,62.79,6.47,6.47,0,0,1,272.47,67a.31.31,0,0,0,.12.26.31.31,0,0,0,.28,0,4.29,4.29,0,0,1,3.63.17,6,6,0,0,1,2.36,3.61.31.31,0,0,0,.3.25h7.38a.31.31,0,0,0,0-.61H279.4A6.3,6.3,0,0,0,276.81,67a4.71,4.71,0,0,0-3.73-.34,6.75,6.75,0,0,0-1.62-4.25,5.24,5.24,0,0,0-3.94-1.53,5.63,5.63,0,0,0-4.44,1.78,6.93,6.93,0,0,0-1.49,4.52,5.37,5.37,0,0,0-3.35,1.34,3.27,3.27,0,0,0-.91,2.24h-3.45a.31.31,0,1,0,0,.61Z"/><g class="cls-7"><line class="cls-8" x1="2" y1="9.25" x2="302" y2="9.25"/><line class="cls-8" x1="2" y1="2" x2="302" y2="2"/><line class="cls-9" x1="22.5" y1="2" x2="22.5" y2="9.25"/><line class="cls-9" x1="42.13" y1="2" x2="42.13" y2="9.25"/><line class="cls-9" x1="61.75" y1="2" x2="61.75" y2="9.25"/><line class="cls-9" x1="81.38" y1="2" x2="81.38" y2="9.25"/><line class="cls-9" x1="101.01" y1="2" x2="101.01" y2="9.25"/><line class="cls-9" x1="120.63" y1="2" x2="120.63" y2="9.25"/><line class="cls-9" x1="140.26" y1="2" x2="140.26" y2="9.25"/><line class="cls-9" x1="159.89" y1="2" x2="159.89" y2="9.25"/><line class="cls-9" x1="179.52" y1="2" x2="179.52" y2="9.25"/><line class="cls-9" x1="199.14" y1="2" x2="199.14" y2="9.25"/><line class="cls-9" x1="218.77" y1="2" x2="218.77" y2="9.25"/><line class="cls-9" x1="238.4" y1="2" x2="238.4" y2="9.25"/><line class="cls-9" x1="258.02" y1="2" x2="258.02" y2="9.25"/><line class="cls-9" x1="277.65" y1="2" x2="277.65" y2="9.25"/><line class="cls-9" x1="297.28" y1="2" x2="297.28" y2="9.25"/><line class="cls-9" x1="2.5" y1="2" x2="2.5" y2="9.25"/></g><g class="cls-7"><line class="cls-8" y1="198.25" x2="300" y2="198.25"/><line class="cls-8" y1="191" x2="300" y2="191"/><line class="cls-9" x1="20.5" y1="191" x2="20.5" y2="198.25"/><line class="cls-9" x1="40.13" y1="191" x2="40.13" y2="198.25"/><line class="cls-9" x1="59.75" y1="191" x2="59.75" y2="198.25"/><line class="cls-9" x1="79.38" y1="191" x2="79.38" y2="198.25"/><line class="cls-9" x1="99.01" y1="191" x2="99.01" y2="198.25"/><line class="cls-9" x1="118.63" y1="191" x2="118.63" y2="198.25"/><line class="cls-9" x1="138.26" y1="191" x2="138.26" y2="198.25"/><line class="cls-9" x1="157.89" y1="191" x2="157.89" y2="198.25"/><line class="cls-9" x1="177.52" y1="191" x2="177.52" y2="198.25"/><line class="cls-9" x1="197.14" y1="191" x2="197.14" y2="198.25"/><line class="cls-9" x1="216.77" y1="191" x2="216.77" y2="198.25"/><line class="cls-9" x1="236.4" y1="191" x2="236.4" y2="198.25"/><line class="cls-9" x1="256.02" y1="191" x2="256.02" y2="198.25"/><line class="cls-9" x1="275.65" y1="191" x2="275.65" y2="198.25"/><line class="cls-9" x1="295.28" y1="191" x2="295.28" y2="198.25"/><line class="cls-9" x1="0.5" y1="191" x2="0.5" y2="198.25"/></g></svg>