<svg xmlns="http://www.w3.org/2000/svg" viewBox="0 0 309.96 148.15"><defs><style>.cls-1{fill:#eff5f8;}.cls-2{fill:#cdebfc;}.cls-3{fill:#3273ad;}.cls-4{fill:#046ca3;}.cls-5{opacity:0.5;}.cls-6{fill:#0aa5e3;}.cls-7{fill:#32b475;}.cls-8{fill:#e3b462;}.cls-9{opacity:0.6;}.cls-10{fill:#fff;}.cls-11{fill:#caedff;}.cls-12{fill:#ef8c81;}.cls-13{fill:#d0d0d0;}.cls-14{fill:#fad264;}.cls-15{fill:#63d398;}</style></defs><title>startup-profile</title><g id="Layer_2" data-name="Layer 2"><g id="Layer_1-2" data-name="Layer 1"><path class="cls-1" d="M71.25,117.18h35.7a3.14,3.14,0,1,1,0,6.27h-4.65a3.14,3.14,0,1,0,0,6.27h10.17a3.14,3.14,0,0,1,0,6.27H76.76a3.14,3.14,0,0,1,0-6.27H86.5a3.14,3.14,0,1,0,0-6.27H71.25a3.14,3.14,0,1,1,0-6.27Z"/><path class="cls-1" d="M294.62,109.36H253.5a3.09,3.09,0,1,1,0-6.18H264A3.09,3.09,0,1,0,264,97h-6.6a3.09,3.09,0,1,1,0-6.18h26.63a3.09,3.09,0,1,1,0,6.18H279.6a3.09,3.09,0,1,0,0,6.18h15a3.09,3.09,0,1,1,0,6.18Z"/><path class="cls-1" d="M53.06,89.58H11.76a3.1,3.1,0,0,1,0-6.2H22.35a3.1,3.1,0,0,0,0-6.2H15.72a3.1,3.1,0,1,1,0-6.2H42.47a3.1,3.1,0,1,1,0,6.2H38a3.1,3.1,0,0,0,0,6.2H53.06a3.1,3.1,0,0,1,0,6.2Z"/><path class="cls-1" d="M213.24,36.2h50.14a3.77,3.77,0,1,1,0,7.53H250.52a3.77,3.77,0,1,0,0,7.53h8.05a3.77,3.77,0,1,1,0,7.53H226.1a3.77,3.77,0,0,1,0-7.53h5.46a3.77,3.77,0,1,0,0-7.53H213.24a3.77,3.77,0,1,1,0-7.53Z"/><path class="cls-2" d="M305,44.06h-5.81a.47.47,0,0,1-.47-.49,4.27,4.27,0,0,0-1.14-3.26c-1.77-1.82-5-1.8-5-1.81a.53.53,0,0,1-.36-.16.48.48,0,0,1-.11-.38,9.84,9.84,0,0,0-2-6.76,7.79,7.79,0,0,0-6.14-2.43,7.2,7.2,0,0,0-5.4,2.06c-2.4,2.51-2.26,6.5-2.26,6.54a.48.48,0,0,1-.19.4.48.48,0,0,1-.44.07,6.65,6.65,0,0,0-5.61.26c-2.84,1.65-3.64,5.54-3.65,5.58a.48.48,0,0,1-.47.38H254.45a.48.48,0,0,1,0-1h11c.29-1.1,1.32-4.27,4-5.83a7.29,7.29,0,0,1,5.78-.53,10.44,10.44,0,0,1,2.51-6.57,8.1,8.1,0,0,1,6.09-2.36,8.72,8.72,0,0,1,6.86,2.75,10.73,10.73,0,0,1,2.31,7,8.31,8.31,0,0,1,5.19,2.08,5.06,5.06,0,0,1,1.41,3.47H305a.48.48,0,1,1,0,1Z"/><path class="cls-2" d="M57.37,51.59h0l-10-.45a1.16,1.16,0,0,1-.73-.1,1.2,1.2,0,0,1-.36-.87c0-.07,0-.13,0-.16a8.69,8.69,0,0,0-.34-1A6.56,6.56,0,0,0,45,47.47a5.56,5.56,0,0,0-2.34-1.73,6.88,6.88,0,0,0-2.26-.45,7.46,7.46,0,0,0-.83,0,1.25,1.25,0,0,1-.67,0c-.35-.13-.48-.52-.71-1.46,0-.15-.07-.27-.09-.34a17.94,17.94,0,0,0-1-2.28,11.87,11.87,0,0,0-2.28-3.15,8.76,8.76,0,0,0-5.19-2.42,11.55,11.55,0,0,0-10.6,5.07,12.59,12.59,0,0,0-1.87,7.8.48.48,0,0,1-.95.1,13.57,13.57,0,0,1,2-8.41,12.37,12.37,0,0,1,11.5-5.5,9.7,9.7,0,0,1,5.75,2.68A12.8,12.8,0,0,1,38,40.81a18.81,18.81,0,0,1,1,2.4c0,.08.07.23.11.42s.13.52.2.74l.19,0a9,9,0,0,1,.93,0,7.85,7.85,0,0,1,2.57.52,6.52,6.52,0,0,1,2.74,2,7.48,7.48,0,0,1,1,1.77,9.69,9.69,0,0,1,.38,1.11c0,.06,0,.16.05.27l0,.17h.17l10,.45a.47.47,0,0,1,0,.95Z"/><path class="cls-2" d="M126.92,16.25h5.81a.47.47,0,0,0,.47-.49,4.27,4.27,0,0,1,1.14-3.26c1.77-1.82,5-1.8,5-1.81a.53.53,0,0,0,.36-.16.48.48,0,0,0,.11-.38,9.84,9.84,0,0,1,2-6.76A7.79,7.79,0,0,1,148,1,7.2,7.2,0,0,1,153.43,3c2.4,2.51,2.26,6.5,2.26,6.54a.48.48,0,0,0,.19.4.48.48,0,0,0,.44.07,6.65,6.65,0,0,1,5.61.26c2.84,1.65,3.64,5.54,3.65,5.58a.48.48,0,0,0,.47.38h11.42a.48.48,0,0,0,0-1h-11c-.29-1.1-1.32-4.27-4-5.83a7.29,7.29,0,0,0-5.78-.53,10.44,10.44,0,0,0-2.51-6.57A8.1,8.1,0,0,0,148,0a8.72,8.72,0,0,0-6.86,2.75,10.73,10.73,0,0,0-2.31,7,8.31,8.31,0,0,0-5.19,2.08,5.06,5.06,0,0,0-1.41,3.47h-5.33a.48.48,0,1,0,0,1Z"/><path class="cls-3" d="M5.92,147.95H.67c-.26,0-.47-.1-.47-.23s.21-.23.47-.23H5.92c.26,0,.47.1.47.23S6.18,147.95,5.92,147.95Z"/><path class="cls-4" d="M5.92,148.15H.67c-.39,0-.67-.18-.67-.43s.28-.43.67-.43H5.92c.39,0,.67.18.67.43S6.31,148.15,5.92,148.15Zm-5.46-.43a.61.61,0,0,0,.21,0H5.92a.11.11,0,1,0,0-.07H.67A.61.61,0,0,0,.46,147.71Z"/><path class="cls-3" d="M300.26,147.95h-290c-.28,0-.5-.11-.5-.25s.22-.25.5-.25h290c.28,0,.5.11.5.25S300.53,147.95,300.26,147.95Z"/><path class="cls-4" d="M300.26,148.15h-290c-.41,0-.7-.19-.7-.45s.29-.45.7-.45h290c.41,0,.7.19.7.45S300.66,148.15,300.26,148.15ZM10,147.69a.61.61,0,0,0,.26,0h290a.61.61,0,0,0,.26,0,.63.63,0,0,0-.26,0h-290A.63.63,0,0,0,10,147.69Z"/><path class="cls-3" d="M309.26,147.95h-3.62c-.28,0-.5-.11-.5-.25s.22-.25.5-.25h3.62c.28,0,.5.11.5.25S309.53,147.95,309.26,147.95Z"/><path class="cls-4" d="M309.26,148.15h-3.62c-.41,0-.7-.19-.7-.45s.29-.45.7-.45h3.62c.41,0,.7.19.7.45S309.66,148.15,309.26,148.15Zm-3.88-.45a.61.61,0,0,0,.26,0h3.62a.61.61,0,0,0,.26,0,.63.63,0,0,0-.26,0h-3.62A.63.63,0,0,0,305.38,147.69Z"/><g class="cls-5"><path class="cls-6" d="M56.56,58.29A5.66,5.66,0,1,1,62.22,64,5.66,5.66,0,0,1,56.56,58.29Zm1.5,0a4.16,4.16,0,1,0,4.16-4.16A4.16,4.16,0,0,0,58.06,58.29Z"/><path class="cls-7" d="M235.61,41a5.66,5.66,0,1,1,5.66,5.66A5.66,5.66,0,0,1,235.61,41Zm1.5,0a4.16,4.16,0,1,0,4.16-4.16A4.16,4.16,0,0,0,237.11,41Z"/><path class="cls-7" d="M31.83,98.86a5,5,0,1,1,5,5A5,5,0,0,1,31.83,98.86Zm1.31,0a3.64,3.64,0,1,0,3.64-3.64A3.65,3.65,0,0,0,33.14,98.86Z"/><path class="cls-7" d="M52.75,121a3.41,3.41,0,1,1,3.41,3.41A3.41,3.41,0,0,1,52.75,121Zm1.5,0a1.91,1.91,0,1,0,1.91-1.91A1.91,1.91,0,0,0,54.25,121Z"/><path class="cls-7" d="M270.65,96.52a3.41,3.41,0,1,1,3.41,3.41A3.41,3.41,0,0,1,270.65,96.52Zm1.5,0a1.91,1.91,0,1,0,1.91-1.91A1.91,1.91,0,0,0,272.15,96.52Z"/><path class="cls-8" d="M64.93,86.52a3.41,3.41,0,1,1,3.41,3.41A3.41,3.41,0,0,1,64.93,86.52Zm1.5,0a1.91,1.91,0,1,0,1.91-1.91A1.91,1.91,0,0,0,66.43,86.52Z"/><path class="cls-8" d="M251.1,78.25a4.75,4.75,0,1,1,4.54,4.95A4.76,4.76,0,0,1,251.1,78.25Zm1.5.06A3.25,3.25,0,1,0,256,75.21,3.25,3.25,0,0,0,252.6,78.31Z"/><path class="cls-6" d="M72,114.12a5.66,5.66,0,1,1,5.66,5.66A5.66,5.66,0,0,1,72,114.12Zm1.5,0A4.16,4.16,0,1,0,77.69,110,4.16,4.16,0,0,0,73.53,114.12Z"/><path class="cls-8" d="M254,116.85a5.66,5.66,0,1,1,5.66,5.66A5.66,5.66,0,0,1,254,116.85Zm1.5,0a4.16,4.16,0,1,0,4.16-4.16A4.16,4.16,0,0,0,255.48,116.85Z"/><path class="cls-8" d="M37.58,68.75A5.25,5.25,0,1,1,42.83,74,5.26,5.26,0,0,1,37.58,68.75Zm1.5,0A3.75,3.75,0,1,0,42.83,65,3.75,3.75,0,0,0,39.08,68.75Z"/><path class="cls-6" d="M266.9,59.79A5.25,5.25,0,1,1,272.15,65,5.26,5.26,0,0,1,266.9,59.79Zm1.5,0A3.75,3.75,0,1,0,272.15,56,3.75,3.75,0,0,0,268.4,59.79Z"/><path class="cls-7" d="M281.13,75.58A3.41,3.41,0,1,1,284.53,79,3.41,3.41,0,0,1,281.13,75.58Zm1.5,0a1.91,1.91,0,1,0,1.91-1.91A1.91,1.91,0,0,0,282.63,75.58Z"/></g><g class="cls-9"><rect class="cls-10" x="83.99" y="25.88" width="97.43" height="61.7" rx="4.89" ry="4.89"/><path class="cls-3" d="M176.53,88H88.88a5.31,5.31,0,0,1-5.3-5.3V30.78a5.31,5.31,0,0,1,5.3-5.3h87.65a5.31,5.31,0,0,1,5.3,5.3V82.69A5.31,5.31,0,0,1,176.53,88ZM88.88,26.29a4.49,4.49,0,0,0-4.48,4.48V82.69a4.49,4.49,0,0,0,4.48,4.48h87.65A4.49,4.49,0,0,0,181,82.69V30.78a4.49,4.49,0,0,0-4.48-4.48Z"/><rect class="cls-11" x="89.65" y="34.52" width="21.34" height="21.34" rx="3.35" ry="3.35"/><rect class="cls-12" x="89.65" y="76.46" width="32.61" height="2.49" rx="0.77" ry="0.77"/><path class="cls-3" d="M174.52,79.15H90.89a1.45,1.45,0,1,1,0-2.89h83.63a1.45,1.45,0,1,1,0,2.89ZM90.89,76.67a1,1,0,1,0,0,2.08h83.63a1,1,0,1,0,0-2.08Z"/><rect class="cls-13" x="116.37" y="35.33" width="59.39" height="3.06"/><rect class="cls-13" x="116.37" y="41.04" width="24.46" height="3.06"/><path class="cls-13" d="M95.93,73a6.66,6.66,0,1,1,6.66-6.66A6.67,6.67,0,0,1,95.93,73Zm0-12.5a5.84,5.84,0,1,0,5.84,5.84A5.85,5.85,0,0,0,95.93,60.49Z"/><path class="cls-13" d="M100.77,70.16a6.85,6.85,0,0,0-9.68,0l-.58-.58a7.67,7.67,0,0,1,10.84,0Z"/><path class="cls-13" d="M95.93,68.15a2.88,2.88,0,1,1,2.88-2.88A2.89,2.89,0,0,1,95.93,68.15Zm0-5A2.07,2.07,0,1,0,98,65.27,2.07,2.07,0,0,0,95.93,63.2Z"/></g><rect class="cls-10" x="108.45" y="50.34" width="97.43" height="61.7" rx="4.89" ry="4.89"/><path class="cls-3" d="M201,112.45H113.34a5.31,5.31,0,0,1-5.3-5.3V55.24a5.31,5.31,0,0,1,5.3-5.3H201a5.31,5.31,0,0,1,5.3,5.3v51.92A5.31,5.31,0,0,1,201,112.45Zm-87.65-61.7a4.49,4.49,0,0,0-4.48,4.48v51.92a4.49,4.49,0,0,0,4.48,4.48H201a4.49,4.49,0,0,0,4.48-4.48V55.24A4.49,4.49,0,0,0,201,50.75Z"/><rect class="cls-11" x="114.11" y="58.98" width="21.34" height="21.34" rx="3.35" ry="3.35"/><rect class="cls-14" x="114.11" y="100.92" width="40.77" height="2.49" rx="0.86" ry="0.86"/><path class="cls-3" d="M199,103.61H115.35a1.45,1.45,0,1,1,0-2.89H199a1.45,1.45,0,1,1,0,2.89Zm-83.63-2.49a1,1,0,1,0,0,2.08H199a1,1,0,1,0,0-2.08Z"/><rect class="cls-13" x="140.83" y="59.79" width="59.39" height="3.06"/><rect class="cls-13" x="140.83" y="65.5" width="59.39" height="3.06"/><rect class="cls-13" x="140.83" y="71.21" width="59.39" height="3.06"/><path class="cls-13" d="M120.39,97.45A6.66,6.66,0,1,1,127,90.79,6.67,6.67,0,0,1,120.39,97.45Zm0-12.5a5.84,5.84,0,1,0,5.84,5.84A5.85,5.85,0,0,0,120.39,84.95Z"/><path class="cls-13" d="M125.23,94.62a6.86,6.86,0,0,0-9.68,0L115,94a7.67,7.67,0,0,1,10.84,0Z"/><path class="cls-13" d="M120.39,92.61a2.88,2.88,0,1,1,2.88-2.88A2.89,2.89,0,0,1,120.39,92.61Zm0-5a2.07,2.07,0,1,0,2.07,2.07A2.07,2.07,0,0,0,120.39,87.66Z"/><path class="cls-13" d="M136.68,97.45a6.66,6.66,0,1,1,6.66-6.66A6.67,6.67,0,0,1,136.68,97.45Zm0-12.5a5.84,5.84,0,1,0,5.84,5.84A5.85,5.85,0,0,0,136.68,84.95Z"/><path class="cls-13" d="M131.84,94.62l-.58-.58a7.66,7.66,0,0,1,10.84,0l-.58.58a6.84,6.84,0,0,0-9.68,0Z"/><path class="cls-13" d="M136.68,92.61a2.88,2.88,0,1,1,2.88-2.88A2.89,2.89,0,0,1,136.68,92.61Zm0-5a2.07,2.07,0,1,0,2.07,2.07A2.07,2.07,0,0,0,136.68,87.66Z"/><path class="cls-13" d="M153,97.45a6.66,6.66,0,1,1,6.66-6.66A6.67,6.67,0,0,1,153,97.45Zm0-12.5a5.84,5.84,0,1,0,5.84,5.84A5.85,5.85,0,0,0,153,84.95Z"/><path class="cls-13" d="M157.81,94.62a6.86,6.86,0,0,0-9.68,0l-.58-.58a7.67,7.67,0,0,1,10.84,0Z"/><path class="cls-13" d="M153,92.61a2.88,2.88,0,1,1,2.88-2.88A2.89,2.89,0,0,1,153,92.61Zm0-5A2.07,2.07,0,1,0,155,89.73,2.07,2.07,0,0,0,153,87.66Z"/><path class="cls-13" d="M169.26,97.45a6.66,6.66,0,1,1,6.66-6.66A6.67,6.67,0,0,1,169.26,97.45Zm0-12.5a5.84,5.84,0,1,0,5.84,5.84A5.85,5.85,0,0,0,169.26,84.95Z"/><path class="cls-13" d="M174.1,94.62a6.86,6.86,0,0,0-9.68,0l-.58-.58a7.67,7.67,0,0,1,10.84,0Z"/><path class="cls-13" d="M169.26,92.61a2.88,2.88,0,1,1,2.88-2.88A2.89,2.89,0,0,1,169.26,92.61Zm0-5a2.07,2.07,0,1,0,2.07,2.07A2.07,2.07,0,0,0,169.26,87.66Z"/><path class="cls-13" d="M185.55,97.45a6.66,6.66,0,1,1,6.66-6.66A6.67,6.67,0,0,1,185.55,97.45Zm0-12.5a5.84,5.84,0,1,0,5.84,5.84A5.85,5.85,0,0,0,185.55,84.95Z"/><path class="cls-13" d="M180.71,94.62l-.58-.58A7.66,7.66,0,0,1,191,94l-.58.58a6.84,6.84,0,0,0-9.68,0Z"/><path class="cls-13" d="M185.55,92.61a2.88,2.88,0,1,1,2.88-2.88A2.89,2.89,0,0,1,185.55,92.61Zm0-5a2.07,2.07,0,1,0,2.07,2.07A2.07,2.07,0,0,0,185.55,87.66Z"/><rect class="cls-10" x="141.06" y="65.83" width="97.43" height="61.7" rx="4.89" ry="4.89" transform="translate(-8.7 19.41) rotate(-5.72)"/><path class="cls-3" d="M148.76,132.18a5.31,5.31,0,0,1-5.27-4.77l-5.18-51.66a5.31,5.31,0,0,1,4.74-5.8l87.21-8.74a5.31,5.31,0,0,1,5.8,4.74l5.18,51.66a5.3,5.3,0,0,1-4.74,5.8l0-.41,0,.41-87.21,8.74Zm82-70.18-.45,0-87.21,8.74a4.49,4.49,0,0,0-4,4.91l5.18,51.66a4.49,4.49,0,0,0,4.91,4l87.21-8.74a4.49,4.49,0,0,0,4-4.91L235.25,66a4.5,4.5,0,0,0-4.46-4Z"/><rect class="cls-11" x="145.73" y="77.76" width="21.34" height="21.34" rx="3.35" ry="3.35" transform="translate(-8.04 16.04) rotate(-5.72)"/><rect class="cls-15" x="148.86" y="117.35" width="65.22" height="2.49" rx="1.08" ry="1.08" transform="translate(-10.93 18.69) rotate(-5.72)"/><path class="cls-3" d="M150.26,123.17a1.45,1.45,0,0,1-.14-2.89l83.21-8.34a1.45,1.45,0,0,1,.29,2.88l-83.21,8.34Zm83.21-10.83h-.1l-83.21,8.34a1,1,0,1,0,.21,2.07l83.21-8.34a1,1,0,0,0-.1-2.07Z"/><rect class="cls-13" x="171.4" y="74.05" width="59.39" height="3.06" transform="translate(-6.54 20.44) rotate(-5.72)"/><rect class="cls-13" x="171.96" y="79.73" width="59.39" height="3.06" transform="translate(-7.1 20.52) rotate(-5.72)"/><rect class="cls-13" x="172.53" y="85.41" width="59.39" height="3.06" transform="translate(-7.66 20.61) rotate(-5.72)"/><rect class="cls-13" x="173.18" y="92.56" width="29.69" height="3.06" transform="translate(-8.45 19.23) rotate(-5.72)"/><path class="cls-13" d="M154.14,116.56a6.66,6.66,0,1,1,.67,0A6.52,6.52,0,0,1,154.14,116.56Zm0-12.5-.59,0a5.85,5.85,0,1,0,.59,0Z"/><path class="cls-13" d="M149.71,114.19l-.63-.52a7.66,7.66,0,0,1,10.78-1.08l-.52.63a6.84,6.84,0,0,0-9.63,1Z"/><path class="cls-13" d="M154,111.73a2.89,2.89,0,1,1,.29,0Zm0-5h-.21a2.07,2.07,0,1,0,.21,0Z"/><path class="cls-13" d="M170.35,114.93a6.66,6.66,0,0,1-.66-13.28,6.66,6.66,0,0,1,7.29,6,6.67,6.67,0,0,1-6,7.29A6.52,6.52,0,0,1,170.35,114.93Zm0-12.5q-.3,0-.59,0a5.83,5.83,0,1,0,.59,0Z"/><path class="cls-13" d="M165.92,112.57l-.63-.52A7.67,7.67,0,0,1,176.07,111l-.52.63A6.86,6.86,0,0,0,165.92,112.57Z"/><path class="cls-13" d="M170.24,110.1a2.88,2.88,0,1,1,2.87-3.17h0a2.88,2.88,0,0,1-2.58,3.16Zm0-5H170a2.07,2.07,0,0,0-1.85,2.27,2.08,2.08,0,0,0,2.26,1.85A2.07,2.07,0,0,0,172.3,107h0a2.07,2.07,0,0,0-2.05-1.86Z"/><path class="cls-13" d="M186.55,113.31a6.66,6.66,0,0,1-.66-13.28,6.66,6.66,0,0,1,7.29,6,6.67,6.67,0,0,1-6,7.29A6.52,6.52,0,0,1,186.55,113.31Zm0-12.5q-.3,0-.59,0a5.83,5.83,0,1,0,.59,0Z"/><path class="cls-13" d="M182.12,110.94l-.63-.52a7.67,7.67,0,0,1,10.78-1.08l-.52.63a6.84,6.84,0,0,0-9.63,1Z"/><path class="cls-13" d="M186.45,108.48a2.88,2.88,0,1,1,2.87-3.17h0a2.88,2.88,0,0,1-2.58,3.16Zm0-5h-.21a2.07,2.07,0,0,0-1.85,2.27,2.08,2.08,0,0,0,2.26,1.85,2.07,2.07,0,0,0,1.85-2.27h0a2.07,2.07,0,0,0-2.05-1.86Z"/><path class="cls-13" d="M202.75,111.68a6.66,6.66,0,1,1,6.64-7.32h0a6.67,6.67,0,0,1-6.64,7.32Zm0-12.5q-.3,0-.59,0a5.84,5.84,0,1,0,6.4,5.23h0a5.84,5.84,0,0,0-5.8-5.26Z"/><path class="cls-13" d="M198.33,109.32l-.63-.52a7.67,7.67,0,0,1,10.78-1.08l-.52.63A6.86,6.86,0,0,0,198.33,109.32Z"/><path class="cls-13" d="M202.65,106.85a2.88,2.88,0,1,1,2.88-3.17h0a2.89,2.89,0,0,1-2.58,3.16Zm0-5h-.21a2.07,2.07,0,1,0,.21,0Z"/><path class="cls-13" d="M219,110.06a6.66,6.66,0,1,1,6.64-7.32h0a6.67,6.67,0,0,1-6.64,7.32Zm0-12.5q-.3,0-.59,0a5.84,5.84,0,1,0,6.4,5.23h0a5.84,5.84,0,0,0-5.8-5.26Z"/><path class="cls-13" d="M214.54,107.69l-.63-.52a7.67,7.67,0,0,1,10.78-1.08l-.52.63A6.86,6.86,0,0,0,214.54,107.69Z"/><path class="cls-13" d="M218.86,105.23a2.9,2.9,0,1,1,.29,0Zm0-5h-.21a2.07,2.07,0,1,0,.21,0Z"/></g></g></svg>