<svg xmlns="http://www.w3.org/2000/svg" viewBox="0 0 309.56 142.66"><defs><style>.cls-1{fill:#eff5f8;}.cls-2{fill:#cdebfc;}.cls-3{fill:#3273ad;}.cls-4{opacity:0.5;}.cls-5{fill:#0aa5e3;}.cls-6{fill:#32b475;}.cls-7{fill:#e3b462;}.cls-8{fill:#caedff;}.cls-9{fill:#fff;}.cls-10{fill:#fad264;}</style></defs><title>university-certificate</title><g id="Layer_2" data-name="Layer 2"><g id="Layer_1-2" data-name="Layer 1"><path class="cls-1" d="M248.54,116.72h-35.7a3.14,3.14,0,0,0,0,6.27h4.65a3.14,3.14,0,1,1,0,6.27H207.33a3.14,3.14,0,0,0,0,6.27H243a3.14,3.14,0,0,0,0-6.27h-9.74a3.14,3.14,0,0,1,0-6.27h15.25a3.14,3.14,0,1,0,0-6.27Z"/><path class="cls-1" d="M24.64,119.3H65.76a3.09,3.09,0,0,0,0-6.18H55.22a3.09,3.09,0,1,1,0-6.18h6.6a3.09,3.09,0,0,0,0-6.18H35.19a3.09,3.09,0,0,0,0,6.18h4.47a3.09,3.09,0,1,1,0,6.18h-15a3.09,3.09,0,0,0,0,6.18Z"/><path class="cls-1" d="M251.86,85.29h41.29a3.1,3.1,0,1,0,0-6.2H282.56a3.1,3.1,0,1,1,0-6.2h6.63a3.1,3.1,0,1,0,0-6.2H262.45a3.1,3.1,0,1,0,0,6.2h4.49a3.1,3.1,0,1,1,0,6.2H251.86a3.1,3.1,0,1,0,0,6.2Z"/><path class="cls-1" d="M62.21,76.54H91a2.16,2.16,0,0,0,0-4.33H83.62a2.16,2.16,0,1,1,0-4.33h4.62a2.16,2.16,0,1,0,0-4.33H69.6a2.16,2.16,0,0,0,0,4.33h3.13a2.16,2.16,0,0,1,0,4.33H62.21a2.16,2.16,0,1,0,0,4.33Z"/><path class="cls-2" d="M247.55,47.3h0l10-.45a1.16,1.16,0,0,0,.73-.1,1.2,1.2,0,0,0,.36-.87c0-.07,0-.13,0-.16a8.69,8.69,0,0,1,.34-1,6.56,6.56,0,0,1,.89-1.54,5.56,5.56,0,0,1,2.34-1.73,6.88,6.88,0,0,1,2.26-.45,7.46,7.46,0,0,1,.83,0,1.25,1.25,0,0,0,.67,0c.35-.13.48-.52.71-1.46,0-.15.07-.27.09-.34a17.94,17.94,0,0,1,1-2.28A11.87,11.87,0,0,1,270,33.81a8.76,8.76,0,0,1,5.19-2.42,11.55,11.55,0,0,1,10.6,5.07,12.59,12.59,0,0,1,1.87,7.8.48.48,0,0,0,.95.1,13.57,13.57,0,0,0-2-8.41,12.37,12.37,0,0,0-11.5-5.5,9.7,9.7,0,0,0-5.75,2.68,12.8,12.8,0,0,0-2.46,3.4,18.81,18.81,0,0,0-1,2.4c0,.08-.07.23-.11.42s-.13.52-.2.74l-.19,0a9,9,0,0,0-.93,0,7.85,7.85,0,0,0-2.57.52,6.52,6.52,0,0,0-2.74,2,7.48,7.48,0,0,0-1,1.77,9.69,9.69,0,0,0-.38,1.11c0,.06,0,.16-.05.27l0,.17h-.17l-10,.45a.47.47,0,0,0,0,.95Z"/><path class="cls-2" d="M125.09,16.25h5.81a.47.47,0,0,0,.47-.49,4.27,4.27,0,0,1,1.14-3.26c1.77-1.82,5-1.8,5-1.81a.53.53,0,0,0,.36-.16.48.48,0,0,0,.11-.38,9.84,9.84,0,0,1,2-6.76A7.79,7.79,0,0,1,146.19,1,7.2,7.2,0,0,1,151.59,3c2.4,2.51,2.26,6.5,2.26,6.54a.48.48,0,0,0,.19.4.48.48,0,0,0,.44.07,6.65,6.65,0,0,1,5.61.26c2.84,1.65,3.64,5.54,3.65,5.58a.48.48,0,0,0,.47.38h11.42a.48.48,0,1,0,0-1h-11c-.29-1.1-1.32-4.27-4-5.83a7.29,7.29,0,0,0-5.78-.53,10.44,10.44,0,0,0-2.51-6.57A8.1,8.1,0,0,0,146.19,0a8.72,8.72,0,0,0-6.86,2.75,10.73,10.73,0,0,0-2.31,7,8.31,8.31,0,0,0-5.19,2.08,5.06,5.06,0,0,0-1.41,3.47h-5.33a.48.48,0,0,0,0,1Z"/><path class="cls-2" d="M37,42.26h2.9A.24.24,0,0,0,40.1,42a2.14,2.14,0,0,1,.57-1.63,4,4,0,0,1,2.5-.91.26.26,0,0,0,.18-.08.24.24,0,0,0,.06-.19,4.92,4.92,0,0,1,1-3.38,3.89,3.89,0,0,1,3.07-1.21,3.6,3.6,0,0,1,2.7,1,5,5,0,0,1,1.13,3.27.24.24,0,0,0,.09.2.24.24,0,0,0,.22,0,3.32,3.32,0,0,1,2.81.13,4.61,4.61,0,0,1,1.82,2.79.24.24,0,0,0,.23.19h5.71a.24.24,0,0,0,0-.48H56.7a4.88,4.88,0,0,0-2-2.92,3.64,3.64,0,0,0-2.89-.26,5.22,5.22,0,0,0-1.25-3.29,4.05,4.05,0,0,0-3-1.18,4.36,4.36,0,0,0-3.43,1.38A5.36,5.36,0,0,0,42.92,39a4.15,4.15,0,0,0-2.59,1,2.53,2.53,0,0,0-.71,1.73H37a.24.24,0,0,0,0,.48Z"/><path class="cls-3" d="M5.72,142.66H.47c-.26,0-.47-.1-.47-.23s.21-.23.47-.23H5.72c.26,0,.47.1.47.23S6,142.66,5.72,142.66Z"/><path class="cls-3" d="M300.06,142.66h-290c-.28,0-.5-.11-.5-.25s.22-.25.5-.25h290c.28,0,.5.11.5.25S300.33,142.66,300.06,142.66Z"/><path class="cls-3" d="M309.06,142.66h-3.62c-.28,0-.5-.11-.5-.25s.22-.25.5-.25h3.62c.28,0,.5.11.5.25S309.33,142.66,309.06,142.66Z"/><g class="cls-4"><path class="cls-5" d="M221.48,68.55a5.32,5.32,0,1,1,5.32-5.32A5.33,5.33,0,0,1,221.48,68.55Zm0-9.23a3.91,3.91,0,1,0,3.91,3.91A3.92,3.92,0,0,0,221.48,59.31Z"/><path class="cls-6" d="M67.14,56.76a5.66,5.66,0,1,1,5.66-5.66A5.66,5.66,0,0,1,67.14,56.76Zm0-9.82a4.16,4.16,0,1,0,4.16,4.16A4.16,4.16,0,0,0,67.14,46.95Z"/><path class="cls-6" d="M239.44,126a3.58,3.58,0,1,1,3.58-3.58A3.58,3.58,0,0,1,239.44,126Zm0-6.21a2.63,2.63,0,1,0,2.63,2.63A2.63,2.63,0,0,0,239.44,119.81Z"/><path class="cls-6" d="M248,87.31a3.41,3.41,0,1,1,3.41-3.41A3.41,3.41,0,0,1,248,87.31ZM248,82a1.91,1.91,0,1,0,1.91,1.91A1.91,1.91,0,0,0,248,82Z"/><path class="cls-6" d="M41.8,74.69a3.41,3.41,0,1,1,3.41-3.41A3.41,3.41,0,0,1,41.8,74.69Zm0-5.31a1.91,1.91,0,1,0,1.91,1.91A1.91,1.91,0,0,0,41.8,69.38Z"/><path class="cls-7" d="M271.76,107.41a4.84,4.84,0,1,1,4.84-4.84A4.85,4.85,0,0,1,271.76,107.41Zm0-7.56a2.71,2.71,0,1,0,2.71,2.71A2.71,2.71,0,0,0,271.76,99.86Z"/><path class="cls-7" d="M89.92,101.26a4.75,4.75,0,1,1,4.75-4.75A4.76,4.76,0,0,1,89.92,101.26Zm0-8a3.25,3.25,0,1,0,3.25,3.25A3.25,3.25,0,0,0,89.92,93.26Z"/><path class="cls-5" d="M226.91,105.73a5.66,5.66,0,1,1,5.66-5.66A5.66,5.66,0,0,1,226.91,105.73Zm0-9.82a4.16,4.16,0,1,0,4.16,4.16A4.16,4.16,0,0,0,226.91,95.91Z"/><path class="cls-7" d="M76.61,132.26a5.66,5.66,0,1,1,5.66-5.66A5.66,5.66,0,0,1,76.61,132.26Zm0-9.82a4.16,4.16,0,1,0,4.16,4.16A4.16,4.16,0,0,0,76.61,122.44Z"/><path class="cls-7" d="M239.57,40.88a5.25,5.25,0,1,1,5.25-5.25A5.26,5.26,0,0,1,239.57,40.88Zm0-9a3.75,3.75,0,1,0,3.75,3.75A3.75,3.75,0,0,0,239.57,31.88Z"/><path class="cls-5" d="M63.39,91.56a5.25,5.25,0,1,1,5.25-5.25A5.26,5.26,0,0,1,63.39,91.56Zm0-9a3.75,3.75,0,1,0,3.75,3.75A3.75,3.75,0,0,0,63.39,82.56Z"/></g><rect class="cls-8" x="106.2" y="40.63" width="98.98" height="82.34" rx="7.01" ry="7.01"/><path class="cls-3" d="M198.17,123.41h-85a7.45,7.45,0,0,1-7.45-7.45V47.64a7.45,7.45,0,0,1,7.45-7.45h85a7.45,7.45,0,0,1,7.45,7.45V116A7.45,7.45,0,0,1,198.17,123.41Zm-85-82.34a6.58,6.58,0,0,0-6.57,6.57V116a6.58,6.58,0,0,0,6.57,6.57h85a6.58,6.58,0,0,0,6.57-6.57V47.64a6.58,6.58,0,0,0-6.57-6.57Z"/><path class="cls-9" d="M196.8,59.32a10,10,0,0,1-10-10c0-.29,0-.57,0-.85H124.47a10,10,0,0,1-10,10V105a10,10,0,0,1,10,10s0,.1,0,.15H186.8s0-.1,0-.15a10,10,0,0,1,10-10h.12V59.31Z"/><path class="cls-3" d="M186.79,115.4H124.47a.25.25,0,0,1-.25-.25s0-.06,0-.09a9.78,9.78,0,0,0-9.75-9.82.25.25,0,0,1-.25-.25V58.44a.25.25,0,0,1,.25-.25,9.78,9.78,0,0,0,9.75-9.73.25.25,0,0,1,.25-.25h62.36a.25.25,0,0,1,.25.27c0,.27,0,.55,0,.83a9.77,9.77,0,0,0,9.76,9.76v.24l0-.25h.08a.25.25,0,0,1,.25.25V105a.25.25,0,0,1-.08.18.3.3,0,0,1-.18.07h-.07A9.78,9.78,0,0,0,187,115c0,.09,0,.12,0,.15A.25.25,0,0,1,186.79,115.4Zm-62.07-.5h61.82a10.27,10.27,0,0,1,10.13-10.16V59.57A10.27,10.27,0,0,1,186.54,49.3c0-.2,0-.4,0-.6H124.72a10.28,10.28,0,0,1-10,10v46.05A10.28,10.28,0,0,1,124.72,114.9Z"/><path class="cls-3" d="M184.16,84.42H127.22a.88.88,0,0,1,0-1.75h56.94a.88.88,0,1,1,0,1.75Z"/><path class="cls-3" d="M175.62,91.27H135.76a.88.88,0,0,1,0-1.75h39.86a.88.88,0,1,1,0,1.75Z"/><path class="cls-3" d="M163.79,98.12h-16.2a.88.88,0,1,1,0-1.75h16.2a.88.88,0,1,1,0,1.75Z"/><path class="cls-10" d="M149.35,69.75v3.51a19.6,19.6,0,0,1,6.36-1.4,19.6,19.6,0,0,1,6.35,1.4V69.7a15.88,15.88,0,0,0-6.4-1.7,14.84,14.84,0,0,0-6.31,1.75Zm0,0"/><path class="cls-10" d="M165.63,68.91l1.27-.68-1.27-.7V67.2s.36-1.81-1.67-.86a.38.38,0,0,0-.18.17l-8.34-4.63-11,6.28L148.62,70v-.61a16.57,16.57,0,0,1,7-1.95,17.72,17.72,0,0,1,7.14,1.9v1.06l2.29-1.23v5h-.76v1.77l1-.7,1.12.7V74.18h-.82V68.91Zm-.55-2v.33l-.67-.37c.24-.16.67-.38.67,0Zm-.23,1.95a.53.53,0,1,1,.53-.53.53.53,0,0,1-.53.53Zm0,0"/></g></g></svg>