<?xml version="1.0" encoding="utf-8"?>
<!-- Generator: Adobe Illustrator 21.0.0, SVG Export Plug-In . SVG Version: 6.00 Build 0)  -->
<svg version="1.1" id="Capa_1" xmlns="http://www.w3.org/2000/svg" xmlns:xlink="http://www.w3.org/1999/xlink" x="0px" y="0px"
	 viewBox="0 0 470 470" style="enable-background:new 0 0 470 470;" xml:space="preserve">
<style type="text/css">
	.st0{fill:#7F7F7F;}
</style>
<g>
	<path class="st0" d="M277.2,262c3.8,1.6,8.2-0.3,9.8-4.1c10.2-25.3,34.5-41.7,61.8-41.7s51.5,16.4,61.8,41.7c1.2,2.9,4,4.7,7,4.7
		c0.9,0,1.9-0.2,2.8-0.6c3.8-1.6,5.7-5.9,4.1-9.8c-12.6-31-42.3-51-75.7-51s-63.1,20-75.7,51C271.5,256,273.3,260.4,277.2,262z"/>
	<path class="st0" d="M348.8,186.1c28.9,0,52.5-23.6,52.5-52.5s-23.6-52.5-52.5-52.5s-52.5,23.6-52.5,52.5S319.8,186.1,348.8,186.1z
		 M348.8,96.1c20.7,0,37.5,16.8,37.5,37.5s-16.8,37.5-37.5,37.5s-37.5-16.8-37.5-37.5S328.1,96.1,348.8,96.1z"/>
	<path class="st0" d="M49.7,262c3.8,1.6,8.2-0.3,9.8-4.1c10.2-25.3,34.5-41.7,61.8-41.7s51.5,16.4,61.8,41.7c1.2,2.9,4,4.7,7,4.7
		c0.9,0,1.9-0.2,2.8-0.6c3.8-1.6,5.7-5.9,4.1-9.8c-12.6-31-42.3-51-75.7-51s-63.1,20-75.7,51C44,256,45.8,260.4,49.7,262z"/>
	<path class="st0" d="M121.2,186.1c28.9,0,52.5-23.6,52.5-52.5s-23.6-52.5-52.5-52.5s-52.5,23.6-52.5,52.5S92.3,186.1,121.2,186.1z
		 M121.2,96.1c20.7,0,37.5,16.8,37.5,37.5s-16.8,37.5-37.5,37.5s-37.5-16.8-37.5-37.5S100.6,96.1,121.2,96.1z"/>
	<path class="st0" d="M442.5,27.5h-415C12.3,27.5,0,39.8,0,55v270c0,15.2,12.3,27.5,27.5,27.5h415c15.2,0,27.5-12.3,27.5-27.5V55
		C470,39.8,457.7,27.5,442.5,27.5z M455,55v222.5H242.5v-235h200C449.4,42.5,455,48.1,455,55z M27.5,42.5h200v235H15V55
		C15,48.1,20.6,42.5,27.5,42.5z M442.5,337.5h-415c-6.9,0-12.5-5.6-12.5-12.5v-32.5h440V325C455,331.9,449.4,337.5,442.5,337.5z"/>
	<circle class="st0" cx="235" cy="315" r="7.5"/>
	<path class="st0" d="M385,427.5h-92.5V375c0-4.1-3.4-7.5-7.5-7.5s-7.5,3.4-7.5,7.5v52.5h-85V375c0-4.1-3.4-7.5-7.5-7.5
		s-7.5,3.4-7.5,7.5v52.5H85c-4.1,0-7.5,3.4-7.5,7.5s3.4,7.5,7.5,7.5h300c4.1,0,7.5-3.4,7.5-7.5S389.1,427.5,385,427.5z"/>
</g>
</svg>
