<svg id="Layer_1" data-name="Layer 1" xmlns="http://www.w3.org/2000/svg" xmlns:xlink="http://www.w3.org/1999/xlink" viewBox="0 0 800 300"><defs><style>.cls-1{fill:#32b475;}.cls-2{fill:#0aa5e3;}.cls-3{fill:#e3b462;}.cls-4{opacity:0.5;}.cls-5{fill:#eff5f8;}.cls-6{fill:#cdebfc;}.cls-7{opacity:0.3;}.cls-8{fill:#09a5e2;}</style><symbol id="New_Symbol" data-name="New Symbol" viewBox="0 0 11.32 11.32"><path class="cls-1" d="M5.66,11.32a5.66,5.66,0,1,1,5.66-5.66A5.66,5.66,0,0,1,5.66,11.32Zm0-9.82A4.16,4.16,0,1,0,9.82,5.66,4.16,4.16,0,0,0,5.66,1.5Z"/></symbol><symbol id="New_Symbol_4-5" data-name="New Symbol 4" viewBox="0 0 12.08 12.08"><path class="cls-3" d="M3.33,6.79H.75a.75.75,0,0,1,0-1.5H3.33a.75.75,0,0,1,0,1.5Z"/><path class="cls-3" d="M6,4.08a.75.75,0,0,1-.75-.75V.75a.75.75,0,0,1,1.5,0V3.33A.75.75,0,0,1,6,4.08Z"/><path class="cls-3" d="M11.33,6.79H8.75a.75.75,0,0,1,0-1.5h2.58a.75.75,0,0,1,0,1.5Z"/><path class="cls-3" d="M6,12.08a.75.75,0,0,1-.75-.75V8.75a.75.75,0,0,1,1.5,0v2.58A.75.75,0,0,1,6,12.08Z"/></symbol><symbol id="New_Symbol_2" data-name="New Symbol 2" viewBox="0 0 10.5 10.5"><path class="cls-2" d="M5.25,10.5A5.25,5.25,0,1,1,10.5,5.25,5.26,5.26,0,0,1,5.25,10.5Zm0-9A3.75,3.75,0,1,0,9,5.25,3.75,3.75,0,0,0,5.25,1.5Z"/></symbol></defs><title>level_up_box-bg</title><g class="cls-4"><path class="cls-5" d="M185.43,183.68h52.89a4,4,0,1,0,0-7.95H224.76a4,4,0,0,1,0-7.95h8.49a4,4,0,1,0,0-7.95H199a4,4,0,0,0,0,7.95h5.75a4,4,0,1,1,0,7.95H185.43a4,4,0,0,0,0,7.95Z"/><path class="cls-5" d="M84.81,260.18h85.6a6.43,6.43,0,1,0,0-12.86h-22a6.43,6.43,0,1,1,0-12.86H162.2a6.43,6.43,0,1,0,0-12.86H106.77a6.43,6.43,0,0,0,0,12.86h9.31a6.43,6.43,0,1,1,0,12.86H84.81a6.43,6.43,0,0,0,0,12.86Z"/><path class="cls-5" d="M652.27,237.69H553c-4.8,0-8.73,2.62-8.73,5.82s3.93,5.82,8.73,5.82h12.94c4.8,0,8.73,2.62,8.73,5.82s-3.93,5.82-8.73,5.82H537.63c-4.8,0-8.73,2.62-8.73,5.82s3.93,5.82,8.73,5.82h99.3c4.8,0,8.73-2.62,8.73-5.82s-3.93-5.82-8.73-5.82H609.85c-4.8,0-8.73-2.62-8.73-5.82s3.93-5.82,8.73-5.82h42.43c4.8,0,8.73-2.62,8.73-5.82S657.07,237.69,652.27,237.69Z"/><path class="cls-6" d="M137.59,156.35h5.81a.47.47,0,0,0,.47-.49A4.27,4.27,0,0,1,145,152.6c1.77-1.82,5-1.8,5-1.81a.53.53,0,0,0,.36-.16.48.48,0,0,0,.11-.38,9.84,9.84,0,0,1,2-6.76,7.79,7.79,0,0,1,6.14-2.43,7.2,7.2,0,0,1,5.4,2.06c2.4,2.51,2.26,6.5,2.26,6.54a.48.48,0,0,0,.19.4.48.48,0,0,0,.44.07,6.65,6.65,0,0,1,5.61.26c2.84,1.65,3.64,5.54,3.65,5.58a.48.48,0,0,0,.47.38h11.42a.48.48,0,1,0,0-1h-11c-.29-1.1-1.32-4.27-4-5.83a7.29,7.29,0,0,0-5.78-.53,10.44,10.44,0,0,0-2.51-6.57,8.1,8.1,0,0,0-6.09-2.36,8.72,8.72,0,0,0-6.86,2.75,10.73,10.73,0,0,0-2.31,7,8.31,8.31,0,0,0-5.19,2.08,5.06,5.06,0,0,0-1.41,3.47h-5.33a.48.48,0,1,0,0,1Z"/><path class="cls-6" d="M563.48,152.14h0l10-.45a1.16,1.16,0,0,0,.73-.1,1.2,1.2,0,0,0,.36-.87c0-.07,0-.13,0-.16a8.69,8.69,0,0,1,.34-1,6.56,6.56,0,0,1,.89-1.54,5.56,5.56,0,0,1,2.34-1.73,6.88,6.88,0,0,1,2.26-.45,7.46,7.46,0,0,1,.83,0,1.25,1.25,0,0,0,.67,0c.35-.13.48-.52.71-1.46,0-.15.07-.27.09-.34a17.94,17.94,0,0,1,1-2.28,11.87,11.87,0,0,1,2.28-3.15,8.76,8.76,0,0,1,5.19-2.42,11.55,11.55,0,0,1,10.6,5.07,12.59,12.59,0,0,1,1.87,7.8.48.48,0,0,0,.95.1,13.57,13.57,0,0,0-2-8.41,12.37,12.37,0,0,0-11.5-5.5,9.7,9.7,0,0,0-5.75,2.68,12.8,12.8,0,0,0-2.46,3.4,18.81,18.81,0,0,0-1,2.4c0,.08-.07.23-.11.42s-.13.52-.2.74l-.19,0a9,9,0,0,0-.93,0,7.85,7.85,0,0,0-2.57.52,6.52,6.52,0,0,0-2.74,2,7.48,7.48,0,0,0-1,1.77,9.69,9.69,0,0,0-.38,1.11c0,.06,0,.16-.05.27l0,.17h-.17l-10,.45a.47.47,0,0,0,0,.95Z"/><path class="cls-6" d="M44.62,211h5.81a.47.47,0,0,0,.47-.49A4.27,4.27,0,0,1,52,207.29c1.77-1.82,5-1.8,5-1.81a.53.53,0,0,0,.36-.16.48.48,0,0,0,.11-.38,9.84,9.84,0,0,1,2-6.76,7.79,7.79,0,0,1,6.14-2.43,7.2,7.2,0,0,1,5.4,2.06c2.4,2.51,2.26,6.5,2.26,6.54a.48.48,0,0,0,.19.4.48.48,0,0,0,.44.07,6.65,6.65,0,0,1,5.61.26c2.84,1.65,3.64,5.54,3.65,5.58a.48.48,0,0,0,.47.38H95.15a.48.48,0,1,0,0-1h-11c-.29-1.1-1.32-4.27-4-5.83a7.29,7.29,0,0,0-5.78-.53,10.44,10.44,0,0,0-2.51-6.57,8.1,8.1,0,0,0-6.09-2.36,8.72,8.72,0,0,0-6.86,2.75,10.73,10.73,0,0,0-2.31,7,8.31,8.31,0,0,0-5.19,2.08,5.06,5.06,0,0,0-1.41,3.47H44.62a.48.48,0,1,0,0,1Z"/><path class="cls-5" d="M663.45,173.94H734.9a5.37,5.37,0,0,0,0-10.74H716.57a5.37,5.37,0,1,1,0-10.74H728a5.37,5.37,0,0,0,0-10.74H681.77a5.37,5.37,0,0,0,0,10.74h7.77a5.37,5.37,0,0,1,0,10.74h-26.1a5.37,5.37,0,0,0,0,10.74Z"/></g><g class="cls-7"><path class="cls-2" d="M303.14,247.89a.75.75,0,0,1-.53-1.28l1.79-1.79a.75.75,0,0,1,1.06,1.06l-1.79,1.79A.75.75,0,0,1,303.14,247.89Z"/><path class="cls-2" d="M306.81,250.53h-2.52a.75.75,0,0,1,0-1.5h2.52a.75.75,0,0,1,0,1.5Z"/><path class="cls-2" d="M305,255a.75.75,0,0,1-.53-.22L302.7,253a.75.75,0,1,1,1.06-1.06l1.78,1.79A.75.75,0,0,1,305,255Z"/><path class="cls-2" d="M300.58,256.88a.75.75,0,0,1-.75-.75V253.6a.75.75,0,0,1,1.5,0v2.52A.75.75,0,0,1,300.58,256.88Z"/><path class="cls-2" d="M296.12,255.08a.75.75,0,0,1-.53-1.28l1.79-1.79a.75.75,0,1,1,1.06,1.06l-1.79,1.79A.75.75,0,0,1,296.12,255.08Z"/><path class="cls-2" d="M296.76,250.65h-2.52a.75.75,0,0,1,0-1.5h2.52a.75.75,0,0,1,0,1.5Z"/><path class="cls-2" d="M297.82,248a.75.75,0,0,1-.53-.22L295.5,246a.75.75,0,1,1,1.06-1.06l1.79,1.79a.75.75,0,0,1-.53,1.28Z"/><path class="cls-2" d="M300.46,246.83a.75.75,0,0,1-.75-.75v-2.52a.75.75,0,1,1,1.5,0v2.52A.75.75,0,0,1,300.46,246.83Z"/><path class="cls-2" d="M38.62,74.38a.75.75,0,0,1-.53-1.28l1.79-1.79a.75.75,0,0,1,1.06,1.06l-1.79,1.79A.75.75,0,0,1,38.62,74.38Z"/><path class="cls-2" d="M42.29,77H39.77a.75.75,0,1,1,0-1.5h2.52a.75.75,0,0,1,0,1.5Z"/><path class="cls-2" d="M40.5,81.48a.75.75,0,0,1-.53-.22l-1.78-1.79a.75.75,0,0,1,1.06-1.06L41,80.2a.75.75,0,0,1-.53,1.28Z"/><path class="cls-2" d="M36.07,83.36a.75.75,0,0,1-.75-.75V80.09a.75.75,0,0,1,1.5,0v2.52A.75.75,0,0,1,36.07,83.36Z"/><path class="cls-2" d="M31.61,81.57a.75.75,0,0,1-.53-1.28l1.79-1.79a.75.75,0,0,1,1.06,1.06l-1.79,1.79A.75.75,0,0,1,31.61,81.57Z"/><path class="cls-2" d="M32.25,77.14H29.72a.75.75,0,1,1,0-1.5h2.52a.75.75,0,0,1,0,1.5Z"/><path class="cls-2" d="M33.31,74.46a.75.75,0,0,1-.53-.22L31,72.46a.75.75,0,1,1,1.06-1.06l1.79,1.79a.75.75,0,0,1-.53,1.28Z"/><path class="cls-2" d="M35.95,73.32a.75.75,0,0,1-.75-.75V70a.75.75,0,0,1,1.5,0v2.52A.75.75,0,0,1,35.95,73.32Z"/><path class="cls-3" d="M218.75,234.78a.75.75,0,0,1-.53-1.28l1.79-1.79a.75.75,0,0,1,1.06,1.06l-1.79,1.79A.75.75,0,0,1,218.75,234.78Z"/><path class="cls-3" d="M222.42,237.42H219.9a.75.75,0,0,1,0-1.5h2.52a.75.75,0,0,1,0,1.5Z"/><path class="cls-3" d="M220.62,241.88a.75.75,0,0,1-.53-.22l-1.78-1.79a.75.75,0,1,1,1.06-1.06l1.78,1.79a.75.75,0,0,1-.53,1.28Z"/><path class="cls-3" d="M216.2,243.77a.75.75,0,0,1-.75-.75v-2.52a.75.75,0,0,1,1.5,0V243A.75.75,0,0,1,216.2,243.77Z"/><path class="cls-3" d="M211.74,242a.75.75,0,0,1-.53-1.28l1.79-1.79a.75.75,0,1,1,1.06,1.06l-1.79,1.79A.75.75,0,0,1,211.74,242Z"/><path class="cls-3" d="M212.38,237.54h-2.52a.75.75,0,0,1,0-1.5h2.52a.75.75,0,0,1,0,1.5Z"/><path class="cls-3" d="M213.43,234.87a.75.75,0,0,1-.53-.22l-1.79-1.79a.75.75,0,1,1,1.06-1.06l1.79,1.79a.75.75,0,0,1-.53,1.28Z"/><path class="cls-3" d="M216.08,233.72a.75.75,0,0,1-.75-.75v-2.52a.75.75,0,0,1,1.5,0V233A.75.75,0,0,1,216.08,233.72Z"/><path class="cls-1" d="M92.66,262.08a.75.75,0,0,1-.53-1.28L93.91,259A.75.75,0,1,1,95,260.07l-1.79,1.79A.75.75,0,0,1,92.66,262.08Z"/><path class="cls-1" d="M96.33,264.72H93.8a.75.75,0,0,1,0-1.5h2.52a.75.75,0,0,1,0,1.5Z"/><path class="cls-1" d="M94.53,269.18A.75.75,0,0,1,94,269l-1.78-1.79a.75.75,0,0,1,1.06-1.06l1.78,1.79a.75.75,0,0,1-.53,1.28Z"/><path class="cls-1" d="M90.1,271.06a.75.75,0,0,1-.75-.75v-2.52a.75.75,0,0,1,1.5,0v2.52A.75.75,0,0,1,90.1,271.06Z"/><path class="cls-1" d="M85.64,269.27a.75.75,0,0,1-.53-1.28l1.79-1.79A.75.75,0,0,1,88,267.26L86.17,269A.75.75,0,0,1,85.64,269.27Z"/><path class="cls-1" d="M86.28,264.84H83.76a.75.75,0,0,1,0-1.5h2.52a.75.75,0,0,1,0,1.5Z"/><path class="cls-1" d="M87.34,262.16a.75.75,0,0,1-.53-.22L85,260.16a.75.75,0,0,1,1.06-1.06l1.79,1.79a.75.75,0,0,1-.53,1.28Z"/><path class="cls-1" d="M90,261a.75.75,0,0,1-.75-.75v-2.52a.75.75,0,0,1,1.5,0v2.52A.75.75,0,0,1,90,261Z"/><path class="cls-3" d="M607.49,270.09a.75.75,0,0,1-.53-1.28l1.79-1.79a.75.75,0,0,1,1.06,1.06L608,269.87A.75.75,0,0,1,607.49,270.09Z"/><path class="cls-3" d="M611.16,272.73h-2.52a.75.75,0,0,1,0-1.5h2.52a.75.75,0,0,1,0,1.5Z"/><path class="cls-3" d="M609.36,277.19a.75.75,0,0,1-.53-.22L607,275.19a.75.75,0,0,1,1.06-1.06l1.78,1.79a.75.75,0,0,1-.53,1.28Z"/><path class="cls-3" d="M604.94,279.07a.75.75,0,0,1-.75-.75V275.8a.75.75,0,1,1,1.5,0v2.52A.75.75,0,0,1,604.94,279.07Z"/><path class="cls-3" d="M600.47,277.28a.75.75,0,0,1-.53-1.28l1.79-1.79a.75.75,0,0,1,1.06,1.06L601,277.06A.75.75,0,0,1,600.47,277.28Z"/><path class="cls-3" d="M601.11,272.85h-2.52a.75.75,0,0,1,0-1.5h2.52a.75.75,0,0,1,0,1.5Z"/><path class="cls-3" d="M602.17,270.17a.75.75,0,0,1-.53-.22l-1.79-1.79a.75.75,0,0,1,1.06-1.06l1.79,1.79a.75.75,0,0,1-.53,1.28Z"/><path class="cls-3" d="M604.82,269a.75.75,0,0,1-.75-.75v-2.52a.75.75,0,0,1,1.5,0v2.52A.75.75,0,0,1,604.82,269Z"/><path class="cls-3" d="M692.1,164.4a.75.75,0,0,1-.53-1.28l1.79-1.79a.75.75,0,0,1,1.06,1.06l-1.79,1.79A.75.75,0,0,1,692.1,164.4Z"/><path class="cls-3" d="M695.77,167h-2.52a.75.75,0,0,1,0-1.5h2.52a.75.75,0,0,1,0,1.5Z"/><path class="cls-3" d="M694,171.5a.75.75,0,0,1-.53-.22l-1.78-1.79a.75.75,0,0,1,1.06-1.06l1.78,1.79a.75.75,0,0,1-.53,1.28Z"/><path class="cls-3" d="M689.54,173.38a.75.75,0,0,1-.75-.75v-2.52a.75.75,0,1,1,1.5,0v2.52A.75.75,0,0,1,689.54,173.38Z"/><path class="cls-3" d="M685.08,171.59a.75.75,0,0,1-.53-1.28l1.79-1.79a.75.75,0,0,1,1.06,1.06l-1.79,1.79A.75.75,0,0,1,685.08,171.59Z"/><path class="cls-3" d="M685.72,167.16H683.2a.75.75,0,0,1,0-1.5h2.52a.75.75,0,0,1,0,1.5Z"/><path class="cls-3" d="M686.78,164.48a.75.75,0,0,1-.53-.22l-1.79-1.79a.75.75,0,1,1,1.06-1.06l1.79,1.79a.75.75,0,0,1-.53,1.28Z"/><path class="cls-3" d="M689.42,163.34a.75.75,0,0,1-.75-.75v-2.52a.75.75,0,1,1,1.5,0v2.52A.75.75,0,0,1,689.42,163.34Z"/><path class="cls-1" d="M774.7,142.15a.75.75,0,0,1-.53-1.28l1.79-1.79a.75.75,0,1,1,1.06,1.06l-1.79,1.79A.75.75,0,0,1,774.7,142.15Z"/><path class="cls-1" d="M778.37,144.79h-2.52a.75.75,0,0,1,0-1.5h2.52a.75.75,0,0,1,0,1.5Z"/><path class="cls-1" d="M776.58,149.26A.75.75,0,0,1,776,149l-1.78-1.79a.75.75,0,1,1,1.06-1.06l1.78,1.79a.75.75,0,0,1-.53,1.28Z"/><path class="cls-1" d="M772.15,151.14a.75.75,0,0,1-.75-.75v-2.52a.75.75,0,0,1,1.5,0v2.52A.75.75,0,0,1,772.15,151.14Z"/><path class="cls-1" d="M767.69,149.34a.75.75,0,0,1-.53-1.28l1.79-1.79a.75.75,0,0,1,1.06,1.06l-1.79,1.79A.75.75,0,0,1,767.69,149.34Z"/><path class="cls-1" d="M768.33,144.91H765.8a.75.75,0,0,1,0-1.5h2.52a.75.75,0,0,1,0,1.5Z"/><path class="cls-1" d="M769.38,142.24a.75.75,0,0,1-.53-.22l-1.79-1.79a.75.75,0,0,1,1.06-1.06l1.79,1.79a.75.75,0,0,1-.53,1.28Z"/><path class="cls-1" d="M772,141.09a.75.75,0,0,1-.75-.75v-2.52a.75.75,0,0,1,1.5,0v2.52A.75.75,0,0,1,772,141.09Z"/><path class="cls-1" d="M119.79,117.08a.75.75,0,0,1-.53-1.28L121,114a.75.75,0,1,1,1.06,1.06l-1.79,1.79A.75.75,0,0,1,119.79,117.08Z"/><path class="cls-1" d="M123.46,119.72h-2.52a.75.75,0,0,1,0-1.5h2.52a.75.75,0,0,1,0,1.5Z"/><path class="cls-1" d="M121.67,124.18a.75.75,0,0,1-.53-.22l-1.78-1.79a.75.75,0,1,1,1.06-1.06l1.78,1.79a.75.75,0,0,1-.53,1.28Z"/><path class="cls-1" d="M117.24,126.06a.75.75,0,0,1-.75-.75v-2.52a.75.75,0,0,1,1.5,0v2.52A.75.75,0,0,1,117.24,126.06Z"/><path class="cls-1" d="M112.78,124.27a.75.75,0,0,1-.53-1.28L114,121.2a.75.75,0,0,1,1.06,1.06L113.31,124A.75.75,0,0,1,112.78,124.27Z"/><path class="cls-1" d="M113.42,119.84h-2.52a.75.75,0,0,1,0-1.5h2.52a.75.75,0,0,1,0,1.5Z"/><path class="cls-1" d="M114.48,117.16a.75.75,0,0,1-.53-.22l-1.79-1.79a.75.75,0,1,1,1.06-1.06l1.79,1.79a.75.75,0,0,1-.53,1.28Z"/><path class="cls-1" d="M117.12,116a.75.75,0,0,1-.75-.75v-2.52a.75.75,0,0,1,1.5,0v2.52A.75.75,0,0,1,117.12,116Z"/><path class="cls-3" d="M762.52,265.06a.75.75,0,0,1-.53-1.28l1.79-1.79a.75.75,0,0,1,1.06,1.06L763,264.84A.75.75,0,0,1,762.52,265.06Z"/><path class="cls-3" d="M766.19,267.7h-2.52a.75.75,0,0,1,0-1.5h2.52a.75.75,0,0,1,0,1.5Z"/><path class="cls-3" d="M764.39,272.16a.75.75,0,0,1-.53-.22l-1.78-1.79a.75.75,0,0,1,1.06-1.06l1.78,1.79a.75.75,0,0,1-.53,1.28Z"/><path class="cls-3" d="M760,274a.75.75,0,0,1-.75-.75v-2.52a.75.75,0,1,1,1.5,0v2.52A.75.75,0,0,1,760,274Z"/><path class="cls-3" d="M755.5,272.25A.75.75,0,0,1,755,271l1.79-1.79a.75.75,0,0,1,1.06,1.06L756,272A.75.75,0,0,1,755.5,272.25Z"/><path class="cls-3" d="M756.14,267.82h-2.52a.75.75,0,0,1,0-1.5h2.52a.75.75,0,0,1,0,1.5Z"/><path class="cls-3" d="M757.2,265.15a.75.75,0,0,1-.53-.22l-1.79-1.79a.75.75,0,0,1,1.06-1.06l1.79,1.79a.75.75,0,0,1-.53,1.28Z"/><path class="cls-3" d="M759.84,264a.75.75,0,0,1-.75-.75v-2.52a.75.75,0,0,1,1.5,0v2.52A.75.75,0,0,1,759.84,264Z"/><path class="cls-8" d="M137.44,204h-2.58a.75.75,0,0,1,0-1.5h2.58a.75.75,0,0,1,0,1.5Z"/><path class="cls-8" d="M140.14,201.31a.75.75,0,0,1-.75-.75V198a.75.75,0,0,1,1.5,0v2.58A.75.75,0,0,1,140.14,201.31Z"/><path class="cls-8" d="M145.44,204h-2.58a.75.75,0,0,1,0-1.5h2.58a.75.75,0,0,1,0,1.5Z"/><path class="cls-8" d="M140.14,209.31a.75.75,0,0,1-.75-.75V206a.75.75,0,0,1,1.5,0v2.58A.75.75,0,0,1,140.14,209.31Z"/><path class="cls-3" d="M594.2,224.43h-2.58a.75.75,0,0,1,0-1.5h2.58a.75.75,0,0,1,0,1.5Z"/><path class="cls-3" d="M596.91,221.72a.75.75,0,0,1-.75-.75v-2.58a.75.75,0,0,1,1.5,0V221A.75.75,0,0,1,596.91,221.72Z"/><path class="cls-3" d="M602.2,224.43h-2.58a.75.75,0,0,1,0-1.5h2.58a.75.75,0,0,1,0,1.5Z"/><path class="cls-3" d="M596.91,229.72a.75.75,0,0,1-.75-.75v-2.58a.75.75,0,0,1,1.5,0V229A.75.75,0,0,1,596.91,229.72Z"/><path class="cls-3" d="M746.51,203.27h-2.58a.75.75,0,0,1,0-1.5h2.58a.75.75,0,0,1,0,1.5Z"/><path class="cls-3" d="M749.22,200.56a.75.75,0,0,1-.75-.75v-2.58a.75.75,0,1,1,1.5,0v2.58A.75.75,0,0,1,749.22,200.56Z"/><path class="cls-3" d="M754.51,203.27h-2.58a.75.75,0,0,1,0-1.5h2.58a.75.75,0,0,1,0,1.5Z"/><path class="cls-3" d="M749.22,208.56a.75.75,0,0,1-.75-.75v-2.58a.75.75,0,1,1,1.5,0v2.58A.75.75,0,0,1,749.22,208.56Z"/><path class="cls-1" d="M28.06,140.85H25.48a.75.75,0,0,1,0-1.5h2.58a.75.75,0,1,1,0,1.5Z"/><path class="cls-1" d="M30.77,138.14a.75.75,0,0,1-.75-.75v-2.58a.75.75,0,0,1,1.5,0v2.58A.75.75,0,0,1,30.77,138.14Z"/><path class="cls-1" d="M36.06,140.85H33.48a.75.75,0,0,1,0-1.5h2.58a.75.75,0,1,1,0,1.5Z"/><path class="cls-1" d="M30.77,146.14a.75.75,0,0,1-.75-.75v-2.58a.75.75,0,0,1,1.5,0v2.58A.75.75,0,0,1,30.77,146.14Z"/><path class="cls-2" d="M732.25,112a5.25,5.25,0,1,1,5.25-5.25A5.26,5.26,0,0,1,732.25,112Zm0-9a3.75,3.75,0,1,0,3.75,3.75A3.75,3.75,0,0,0,732.25,103Z"/><path class="cls-2" d="M508.49,263.1a5.66,5.66,0,1,1,5.66-5.66A5.66,5.66,0,0,1,508.49,263.1Zm0-9.82a4.16,4.16,0,1,0,4.16,4.16A4.16,4.16,0,0,0,508.49,253.28Z"/><use width="11.32" height="11.32" transform="translate(215.5 189.14)" xlink:href="#New_Symbol"/><path class="cls-1" d="M629.71,147.26a3.58,3.58,0,1,1,3.58-3.58A3.58,3.58,0,0,1,629.71,147.26Zm0-6.21a2.63,2.63,0,1,0,2.63,2.63A2.63,2.63,0,0,0,629.71,141.05Z"/><path class="cls-3" d="M666.84,212.2a4.26,4.26,0,1,1,4.26-4.26A4.27,4.27,0,0,1,666.84,212.2Zm0-6.65a2.38,2.38,0,1,0,2.38,2.38A2.39,2.39,0,0,0,666.84,205.56Z"/><path class="cls-3" d="M164.75,175.85a4.75,4.75,0,1,1,4.75-4.75A4.76,4.76,0,0,1,164.75,175.85Zm0-8A3.25,3.25,0,1,0,168,171.1,3.25,3.25,0,0,0,164.75,167.85Z"/><path class="cls-3" d="M242,282.84a5.66,5.66,0,1,1,5.66-5.66A5.66,5.66,0,0,1,242,282.84Zm0-9.82a4.16,4.16,0,1,0,4.16,4.16A4.16,4.16,0,0,0,242,273Z"/><path class="cls-3" d="M474.33,223.68a5.25,5.25,0,1,1,5.25-5.25A5.26,5.26,0,0,1,474.33,223.68Zm0-9a3.75,3.75,0,1,0,3.75,3.75A3.75,3.75,0,0,0,474.33,214.68Z"/><path class="cls-2" d="M40.87,269.28A5.25,5.25,0,1,1,46.12,264,5.26,5.26,0,0,1,40.87,269.28Zm0-9A3.75,3.75,0,1,0,44.62,264,3.75,3.75,0,0,0,40.87,260.28Z"/><use width="12.08" height="12.08" transform="translate(351.44 250.65)" xlink:href="#New_Symbol_4-5"/><path class="cls-1" d="M82.68,194.79a4.3,4.3,0,1,1,4.3-4.3A4.3,4.3,0,0,1,82.68,194.79Zm0-7.46a3.16,3.16,0,1,0,3.16,3.16A3.16,3.16,0,0,0,82.68,187.33Z"/><path class="cls-1" d="M754.88,54.66A5.66,5.66,0,1,1,760.53,49,5.66,5.66,0,0,1,754.88,54.66Zm0-9.82A4.16,4.16,0,1,0,759,49,4.16,4.16,0,0,0,754.88,44.84Z"/><path class="cls-1" d="M691.41,269.69a5.66,5.66,0,1,1,5.66-5.66A5.66,5.66,0,0,1,691.41,269.69Zm0-9.82a4.16,4.16,0,1,0,4.16,4.16A4.16,4.16,0,0,0,691.41,259.87Z"/><use width="10.5" height="10.5" transform="translate(159.98 254.99)" xlink:href="#New_Symbol_2"/><use width="10.5" height="10.5" transform="translate(17.43 207.05)" xlink:href="#New_Symbol_2"/><use width="10.5" height="10.5" transform="translate(557.29 182.83) scale(0.83)" xlink:href="#New_Symbol_2"/><use width="10.5" height="10.5" transform="translate(404.17 257.4)" xlink:href="#New_Symbol_2"/></g></svg>