<?xml version="1.0" encoding="utf-8"?>
<!-- Generator: Adobe Illustrator 21.0.0, SVG Export Plug-In . SVG Version: 6.00 Build 0)  -->
<svg version="1.1" id="Capa_1" xmlns="http://www.w3.org/2000/svg" xmlns:xlink="http://www.w3.org/1999/xlink" x="0px" y="0px"
	 viewBox="0 0 57 57" style="enable-background:new 0 0 57 57;" xml:space="preserve">
<style type="text/css">
	.st0{fill:#7F7F7F;}
</style>
<g>
	<path class="st0" d="M49.2,38.5l-5.6,8l-3.9-3.2c-0.4-0.4-1.1-0.3-1.4,0.1c-0.4,0.4-0.3,1.1,0.1,1.4l4.8,3.9
		c0.2,0.1,0.4,0.2,0.6,0.2c0,0,0.1,0,0.1,0c0.3,0,0.5-0.2,0.7-0.4l6.2-8.9c0.3-0.5,0.2-1.1-0.2-1.4C50.1,37.9,49.5,38,49.2,38.5z"/>
	<path class="st0" d="M54,35.7V12.2C54,5.5,48.5,0,41.8,0H12.2C5.5,0,0,5.5,0,12.2v29.6C0,48.5,5.5,54,12.2,54h23.5
		c2.3,1.9,5.1,3,8.3,3c7.2,0,13-5.8,13-13C57,40.8,55.9,38,54,35.7z M12.2,52C6.6,52,2,47.4,2,41.8V12.2C2,6.6,6.6,2,12.2,2h29.6
		C47.4,2,52,6.6,52,12.2v21.6c-0.1-0.1-0.2-0.1-0.2-0.2c-0.2-0.2-0.4-0.3-0.6-0.5c0,0,0,0-0.1,0c-0.5-0.3-1.1-0.6-1.6-0.9
		c-0.1,0-0.2-0.1-0.2-0.1c-0.2-0.1-0.4-0.2-0.7-0.3c-0.1-0.1-0.3-0.1-0.4-0.2c-0.2-0.1-0.4-0.1-0.6-0.2c-0.2,0-0.4-0.1-0.5-0.1
		c-0.2,0-0.4-0.1-0.6-0.1c-0.2,0-0.5-0.1-0.7-0.1c-0.2,0-0.3,0-0.5-0.1C44.8,31,44.4,31,44,31c-6.1,0-11.3,4.3-12.6,10H27
		c-0.6,0-1,0.4-1,1s0.4,1,1,1h4.1c0,0.3-0.1,0.7-0.1,1c0,0.4,0,0.8,0.1,1.2c0,0.2,0,0.3,0.1,0.5c0,0.2,0.1,0.5,0.1,0.7
		c0,0.2,0.1,0.4,0.1,0.6c0,0.2,0.1,0.4,0.1,0.5c0.1,0.2,0.1,0.4,0.2,0.6c0,0.1,0.1,0.3,0.2,0.4c0.1,0.2,0.2,0.5,0.3,0.7
		c0,0.1,0.1,0.1,0.1,0.2c0.3,0.6,0.6,1.1,0.9,1.7c0,0,0,0,0,0c0.1,0.2,0.3,0.4,0.5,0.6c0.1,0.1,0.1,0.2,0.2,0.2
		C33.8,52,12.2,52,12.2,52z M44,55c-2.8,0-5.4-1.1-7.3-2.8c-0.2-0.2-0.5-0.4-0.7-0.7c0-0.1-0.1-0.1-0.1-0.2
		c-0.2-0.2-0.4-0.5-0.6-0.7c0-0.1-0.1-0.1-0.1-0.2c-0.2-0.3-0.4-0.5-0.5-0.8c0-0.1-0.1-0.1-0.1-0.2c-0.2-0.3-0.3-0.6-0.5-0.9
		c0,0,0-0.1-0.1-0.1c-0.1-0.3-0.3-0.6-0.4-0.9c0,0,0-0.1,0-0.1c-0.1-0.3-0.2-0.7-0.3-1c0,0,0-0.1,0-0.1c-0.1-0.3-0.1-0.7-0.2-1
		c0,0,0-0.1,0-0.1c0-0.4-0.1-0.8-0.1-1.2c0-6.1,4.9-11,11-11c0.4,0,0.8,0,1.2,0.1c0,0,0.1,0,0.1,0c0.3,0,0.7,0.1,1,0.2
		c0,0,0.1,0,0.1,0c0.3,0.1,0.7,0.2,1,0.3c0,0,0.1,0,0.1,0c0.3,0.1,0.6,0.2,1,0.4c0,0,0.1,0,0.1,0.1c0.3,0.1,0.6,0.3,0.9,0.5
		c0.1,0,0.1,0.1,0.2,0.1c0.3,0.2,0.5,0.3,0.8,0.5c0.1,0,0.1,0.1,0.2,0.1c0.3,0.2,0.5,0.4,0.7,0.6c0,0,0.1,0.1,0.1,0.1
		c0.2,0.2,0.5,0.5,0.7,0.7c1.7,1.9,2.8,4.5,2.8,7.3C55,50.1,50.1,55,44,55z"/>
	<path class="st0" d="M27,14h18c0.6,0,1-0.4,1-1s-0.4-1-1-1H27c-0.6,0-1,0.4-1,1S26.4,14,27,14z"/>
	<path class="st0" d="M27,28h18c0.6,0,1-0.4,1-1s-0.4-1-1-1H27c-0.6,0-1,0.4-1,1S26.4,28,27,28z"/>
	<path class="st0" d="M19.2,7.3l-6.2,7.3l-3.8-2.9C8.7,11.4,8,11.5,7.7,12c-0.3,0.4-0.2,1.1,0.2,1.4l4.6,3.4
		c0.2,0.1,0.4,0.2,0.6,0.2c0.3,0,0.6-0.1,0.8-0.4l6.9-8C21,8.2,21,7.6,20.6,7.2C20.2,6.9,19.5,6.9,19.2,7.3z"/>
	<path class="st0" d="M19.2,21.4l-6.2,7.3l-3.8-2.9C8.7,25.4,8,25.5,7.7,26c-0.3,0.4-0.2,1.1,0.2,1.4l4.6,3.4
		c0.2,0.1,0.4,0.2,0.6,0.2c0.3,0,0.6-0.1,0.8-0.4l6.9-8c0.4-0.4,0.3-1-0.1-1.4C20.2,20.9,19.5,20.9,19.2,21.4z"/>
	<path class="st0" d="M19.2,36.3l-6.2,7.3l-3.8-2.9C8.7,40.4,8,40.5,7.7,41c-0.3,0.4-0.2,1.1,0.2,1.4l4.6,3.4
		c0.2,0.1,0.4,0.2,0.6,0.2c0.3,0,0.6-0.1,0.8-0.3l6.9-8c0.4-0.4,0.3-1-0.1-1.4C20.2,35.9,19.5,35.9,19.2,36.3z"/>
</g>
</svg>
