<svg id="Layer_1" data-name="Layer 1" xmlns="http://www.w3.org/2000/svg" xmlns:xlink="http://www.w3.org/1999/xlink" viewBox="0 0 150 150"><defs><style>.cls-1{fill:none;}.cls-2{fill:#eff5f8;}.cls-3,.cls-8{fill:#caedff;}.cls-4{fill:#3273ad;}.cls-5{fill:#95d5e8;}.cls-6{fill:#fad264;}.cls-7{fill:#fff;}.cls-8{opacity:0.5;}.cls-9{clip-path:url(#clip-path);}.cls-10{fill-rule:evenodd;}</style><clipPath id="clip-path"><circle class="cls-1" cx="80.17" cy="51.58" r="34.46"/></clipPath></defs><title>no-results-icon</title><path class="cls-2" d="M78.77,22H39.38a3.46,3.46,0,0,0,0,6.92h5.13a3.46,3.46,0,0,1,0,6.92H33.29a3.46,3.46,0,0,0,0,6.92H72.68a3.46,3.46,0,1,0,0-6.92H61.94a3.46,3.46,0,1,1,0-6.92H78.77a3.46,3.46,0,0,0,0-6.92Z"/><path class="cls-2" d="M69.16,76.85H23.05a3.46,3.46,0,0,0,0,6.93H34.88a3.46,3.46,0,1,1,0,6.93H27.47a3.46,3.46,0,0,0,0,6.93H57.33a3.46,3.46,0,0,0,0-6.93h-5a3.46,3.46,0,0,1,0-6.93H69.16a3.46,3.46,0,0,0,0-6.93Z"/><path class="cls-2" d="M72.94,129h53.46a4,4,0,0,0,0-8H112.68a4,4,0,0,1,0-8h8.59a4,4,0,0,0,0-8H86.65a4,4,0,0,0,0,8h5.82a4,4,0,0,1,0,8H72.94a4,4,0,1,0,0,8Z"/><path class="cls-3" d="M32.18,141a5.27,5.27,0,0,1-4.55-7.9L60.29,76.51a5.3,5.3,0,0,1,4.58-2.63,5.26,5.26,0,0,1,4.55,7.9L36.76,138.33A5.29,5.29,0,0,1,32.18,141Z"/><path class="cls-4" d="M64.86,74.25a4.86,4.86,0,0,1,2.44.65h0a4.92,4.92,0,0,1,1.79,6.7L36.44,138.15a4.91,4.91,0,0,1-4.26,2.45,4.86,4.86,0,0,1-2.44-.65,4.92,4.92,0,0,1-1.79-6.7L60.61,76.69a4.91,4.91,0,0,1,4.26-2.45m0-.74h0A5.66,5.66,0,0,0,60,76.32L27.32,132.88a5.64,5.64,0,0,0,9.77,5.64L69.73,82a5.63,5.63,0,0,0-4.87-8.45Z"/><path class="cls-5" d="M63.67,91,36.41,138.17c-2.7,3.34-5.59,1.5-5.59,1.5C30.25,139.35,63.67,91,63.67,91"/><path class="cls-5" d="M55.22,86l-2.54,4.4a40.41,40.41,0,0,0,8.41,5L63.69,91"/><circle class="cls-6" cx="80.17" cy="51.58" r="42.55"/><path class="cls-4" d="M80.17,94.5a42.92,42.92,0,1,1,42.92-42.92A43,43,0,0,1,80.17,94.5Zm0-85.09a42.18,42.18,0,1,0,42.18,42.18A42.23,42.23,0,0,0,80.17,9.4Z"/><circle class="cls-7" cx="80.17" cy="51.58" r="34.81"/><path class="cls-4" d="M80.17,86.76a35.18,35.18,0,1,1,35.18-35.18A35.22,35.22,0,0,1,80.17,86.76Zm0-69.62a34.44,34.44,0,1,0,34.44,34.44A34.48,34.48,0,0,0,80.17,17.14Z"/><circle class="cls-8" cx="81.52" cy="53.87" r="31.44"/><g class="cls-9"><path class="cls-4" d="M85.76,18.61A2.86,2.86,0,0,1,86.14,17h-.42a3.65,3.65,0,0,0-.32,1.59,3.17,3.17,0,0,0,.51,1.86,3.16,3.16,0,0,0-1.49,1.22,3.17,3.17,0,0,0-.68,1.8l-.06,0a3.89,3.89,0,0,0-3,.68,2,2,0,0,0-.5.51,3.68,3.68,0,0,0-3.54-1.13,2,2,0,0,0-.11-.71,3.9,3.9,0,0,0-2-2.27l-.07,0A3.17,3.17,0,0,0,75,18.66,3.56,3.56,0,0,0,74.62,17h-.43a2.73,2.73,0,0,1,.44,1.64c0,1-.29,1.72-.72,1.86l.11.34a.69.69,0,0,1,.43,0,3.54,3.54,0,0,1,1.78,2,1.08,1.08,0,0,1,0,.94l.29.21c.26-.37,1.08-.42,2-.13S80,24.76,80,25.21h.36a1.08,1.08,0,0,1,.53-.78,3.53,3.53,0,0,1,2.64-.63.69.69,0,0,1,.36.24l.29-.21c-.27-.36-.06-1.16.49-1.94s1.25-1.22,1.68-1.08l.11-.34C86.07,20.33,85.76,19.57,85.76,18.61Z"/><path class="cls-4" d="M89.61,18.59A6.78,6.78,0,0,1,89.78,17h-.37a7.39,7.39,0,0,0-.16,1.57,5,5,0,0,0,1,3.26,5,5,0,0,0-2.69,2.08,5,5,0,0,0-1.12,3.22l-.3-.12a6.49,6.49,0,0,0-5,1.14,3,3,0,0,0-.93,1,6,6,0,0,0-6.21-2,3,3,0,0,0-.17-1.37A6.51,6.51,0,0,0,70.49,22L70.17,22a5,5,0,0,0,1-3.27A7.36,7.36,0,0,0,70.94,17h-.37a6.66,6.66,0,0,1,.2,1.65c0,1.69-.54,3.06-1.32,3.32l.11.34a1.31,1.31,0,0,1,.81,0A6.2,6.2,0,0,1,73.52,26a2,2,0,0,1,0,1.73l.29.21c.48-.67,1.94-.78,3.56-.26s2.74,1.45,2.74,2.28h.36a2,2,0,0,1,1-1.43A6.19,6.19,0,0,1,86,27.38a1.31,1.31,0,0,1,.68.45l.29-.21c-.49-.67-.14-2.09.85-3.47s2.23-2.16,3-1.91L91,21.9C90.17,21.65,89.62,20.29,89.61,18.59Z"/><path class="cls-4" d="M93.46,18.58A10.36,10.36,0,0,1,93.57,17h-.36a10.43,10.43,0,0,0-.11,1.55c0,1.81.48,3.77,1.5,4.68-1.35.14-2.88,1.47-3.93,2.94s-1.83,3.33-1.53,4.66a2.86,2.86,0,0,0-.56-.24c-1.8-.58-5,.16-7,1.61a4,4,0,0,0-1.37,1.57c-.56-1.24-2.29-2.28-4-2.83s-3.73-.71-4.9,0a4,4,0,0,0-.21-2.07c-.77-2.33-2.93-4.78-4.73-5.35a2.84,2.84,0,0,0-.59-.13c1-.91,1.46-2.88,1.45-4.69A10.49,10.49,0,0,0,67.14,17h-.36a10.33,10.33,0,0,1,.14,1.67c0,2.06-.58,4.33-1.92,4.77l.11.34a1.93,1.93,0,0,1,1.2,0c1.7.55,3.76,2.89,4.5,5.12a2.92,2.92,0,0,1-.07,2.52l.29.21c.82-1.15,3.17-1,5.12-.4s3.93,1.89,3.94,3.3h.36a2.91,2.91,0,0,1,1.4-2.09c1.89-1.39,4.93-2.1,6.63-1.56a1.93,1.93,0,0,1,1,.66l.29-.21c-.84-1.14,0-3.33,1.2-5s3-3.16,4.35-2.73l.11-.34C94.08,22.9,93.47,20.63,93.46,18.58Z"/><path class="cls-4" d="M97.31,18.56A13.53,13.53,0,0,1,97.39,17H97A13.6,13.6,0,0,0,97,18.56c0,2.38.64,5,2,6.09-1.76.11-3.78,1.86-5.17,3.79s-2.4,4.4-1.95,6.11a3.5,3.5,0,0,0-.82-.37c-2.31-.74-6.41.21-9,2.08a5,5,0,0,0-1.8,2.12c-.65-1.64-2.93-3-5.2-3.75s-4.92-.92-6.41,0a5,5,0,0,0-.24-2.78c-1-3-3.77-6.15-6.09-6.89a3.5,3.5,0,0,0-.88-.17c1.36-1.13,2-3.73,2-6.11A13.65,13.65,0,0,0,63.32,17H63a13.71,13.71,0,0,1,.11,1.69c0,2.68-.76,5.64-2.52,6.23l.11.34a2.54,2.54,0,0,1,1.58.05c2.22.71,4.9,3.76,5.86,6.66a3.82,3.82,0,0,1-.1,3.3l.29.21C69.37,34,72.43,34.16,75,35s5.12,2.47,5.13,4.33h.36a3.82,3.82,0,0,1,1.83-2.75c2.46-1.81,6.41-2.73,8.63-2a2.54,2.54,0,0,1,1.32.88l.29-.21c-1.1-1.5,0-4.36,1.55-6.54S98,24.54,99.78,25.1l.11-.34C98.13,24.2,97.32,21.24,97.31,18.56Z"/><path class="cls-4" d="M101.16,18.54c0-.5,0-1,.06-1.51h-.36c0,.51-.06,1-.06,1.52,0,3,.81,6.19,2.54,7.51-2.17.07-4.7,2.24-6.42,4.64s-3,5.49-2.35,7.57a4.16,4.16,0,0,0-1.08-.51c-2.83-.91-7.84.26-10.95,2.54A6,6,0,0,0,80.3,43c-.74-2-3.58-3.78-6.39-4.68s-6.13-1.14-7.92.1a6,6,0,0,0-.26-3.49c-1.21-3.67-4.62-7.53-7.44-8.43a4.15,4.15,0,0,0-1.18-.21c1.72-1.34,2.48-4.58,2.47-7.54A16.85,16.85,0,0,0,59.48,17h-.36a16.84,16.84,0,0,1,.1,1.71c0,3.3-.94,7-3.12,7.68l.11.34a3.15,3.15,0,0,1,2,.06c2.73.88,6,4.63,7.21,8.2.4,1.22.71,2.93-.13,4.09l.29.21c1.34-1.87,5.11-1.69,8.25-.68S80.12,41.7,80.13,44h.36c0-1.43,1.23-2.64,2.26-3.41,3-2.23,7.89-3.37,10.63-2.49A3.16,3.16,0,0,1,95,39.19l.29-.21c-1.36-1.85,0-5.39,1.9-8.07s4.85-5.07,7-4.37l.11-.34C102.17,25.49,101.18,21.84,101.16,18.54Z"/><path class="cls-4" d="M105,18.52c0-.49,0-1,0-1.5h-.36c0,.5-.05,1,0,1.5,0,3.54,1,7.42,3.08,8.94-2.58,0-5.62,2.61-7.68,5.49s-3.56,6.58-2.76,9a4.82,4.82,0,0,0-1.35-.66c-3.34-1.07-9.27.31-12.95,3a6.94,6.94,0,0,0-2.67,3.26c-.82-2.46-4.22-4.54-7.59-5.62s-7.34-1.36-9.43.17A7,7,0,0,0,63,37.94c-1.43-4.34-5.46-8.9-8.8-10a4.83,4.83,0,0,0-1.49-.25c2.08-1.54,3-5.42,3-9,0-.57,0-1.15-.08-1.72h-.36c.05.58.08,1.16.08,1.73,0,3.93-1.13,8.28-3.73,9.13l.11.34a3.77,3.77,0,0,1,2.36.08c3.25,1,7.17,5.5,8.57,9.75.48,1.46.84,3.49-.16,4.88l.29.21c1.6-2.22,6.08-2,9.82-.82s7.51,3.63,7.52,6.37h.36c0-1.72,1.46-3.16,2.7-4.06,3.6-2.64,9.38-4,12.62-3a3.77,3.77,0,0,1,2,1.31l.29-.21c-1.62-2.21,0-6.42,2.26-9.6s5.77-6,8.37-5.2l.11-.34C106.22,26.79,105,22.45,105,18.52Z"/><path class="cls-4" d="M108.86,18.51c0-.49,0-1,0-1.48h-.36c0,.5,0,1,0,1.48,0,4.13,1.15,8.65,3.62,10.36-3,0-6.54,3-8.95,6.34S99,42.88,100,45.71a5.49,5.49,0,0,0-1.63-.81c-3.86-1.24-10.7.36-14.94,3.47a7.89,7.89,0,0,0-3.1,3.84c-.89-2.87-4.85-5.3-8.78-6.56s-8.57-1.57-11,.24a7.9,7.9,0,0,0-.3-4.93C58.66,36,54,30.68,50.15,29.45a5.48,5.48,0,0,0-1.8-.28c2.45-1.73,3.54-6.26,3.52-10.39,0-.58,0-1.16-.07-1.74h-.36c0,.58.07,1.17.07,1.74,0,4.55-1.31,9.59-4.33,10.59l.11.34a4.38,4.38,0,0,1,2.74.09C53.81,31,58.35,36.16,60,41.07c.56,1.69,1,4-.19,5.66l.29.21c1.86-2.58,7.05-2.34,11.38-1s8.7,4.21,8.72,7.39h.36c0-2,1.7-3.67,3.13-4.72C87.83,45.6,94.52,44,98.28,45.24a4.39,4.39,0,0,1,2.28,1.52l.29-.21c-1.88-2.57,0-7.44,2.61-11.14s6.69-7,9.71-6l.11-.34C110.26,28.08,108.88,23.06,108.86,18.51Z"/><path class="cls-4" d="M112.71,18.49c0-.48,0-1,0-1.46h-.36c0,.49,0,1,0,1.46,0,4.72,1.33,9.89,4.16,11.79-3.41-.1-7.46,3.35-10.22,7.18s-4.73,8.78-3.55,12a6.15,6.15,0,0,0-1.91-1c-4.37-1.4-12.13.4-16.94,3.94a8.84,8.84,0,0,0-3.54,4.43c-1-3.28-5.49-6.07-10-7.51s-9.79-1.79-12.47.32A8.85,8.85,0,0,0,57.6,44c-1.87-5.68-7.14-11.66-11.51-13.06A6.15,6.15,0,0,0,44,30.61C46.79,28.69,48,23.51,48,18.79c0-.58,0-1.17-.07-1.76H47.6c0,.59.06,1.18.07,1.76,0,5.18-1.49,10.91-4.93,12l.11.34a5,5,0,0,1,3.13.1c4.28,1.37,9.44,7.24,11.28,12.83C57.9,46,58.37,48.7,57,50.55l.29.21c2.11-2.94,8-2.67,12.95-1.09s9.89,4.79,9.91,8.42h.36c0-2.27,1.93-4.18,3.56-5.38,4.73-3.48,12.34-5.26,16.62-3.89a5,5,0,0,1,2.6,1.73l.29-.21c-2.14-2.92-.05-8.47,3-12.67s7.6-7.94,11.05-6.84l.11-.34C114.3,29.38,112.74,23.66,112.71,18.49Z"/><polygon class="cls-4" points="80.13 86.41 80.14 25.12 80.49 25.11 80.49 86.41 80.13 86.41"/><polygon class="cls-4" points="47.69 64.23 47.4 64.02 76.26 23.76 76.55 23.97 47.69 64.23"/><polygon class="cls-4" points="34.16 34.05 34.05 33.71 73.88 20.54 74 20.89 34.16 34.05"/><rect class="cls-4" x="98.24" y="18.86" width="0.36" height="49.13" transform="translate(-6.58 66.79) rotate(-36.35)"/><rect class="cls-4" x="106.09" y="6.01" width="0.36" height="41.95" transform="translate(48.14 119.96) rotate(-72.24)"/></g><path class="cls-10" d="M91.1,39.79c-.87-1-2.91-.71-2.91-.71s-.63,2,.24,3,2.18,1.34,2.91.71S92,40.81,91.1,39.79Z"/><ellipse cx="88.32" cy="39.24" rx="1.07" ry="1.19" transform="translate(-4.33 66.73) rotate(-40.48)"/><ellipse cx="87.63" cy="38.39" rx="0.69" ry="0.68" transform="translate(-3.95 66.08) rotate(-40.48)"/><path class="cls-10" d="M87.21,38.15c.07,0,.12.06.08.13h0a.27.27,0,0,1-.27.1c-.24-.1-.21-.28-.28-.51s0-.12,0-.1h0a.25.25,0,0,1,.13.1C87,38,87,38.11,87.21,38.15Z"/><path class="cls-10" d="M87.42,38c0,.07,0,.13.12.09h0a.26.26,0,0,0,.15-.25c-.07-.24-.25-.25-.47-.35s-.11,0-.11,0h0a.25.25,0,0,0,.08.14C87.31,37.72,87.41,37.76,87.42,38Z"/><path class="cls-10" d="M87.4,39c.11,0,.19.09.18.12l-.1.26s-.11,0-.22,0l-3.6-1.32c-.11,0-.19-.09-.18-.12l.1-.26s.11,0,.22,0Z"/><path class="cls-10" d="M83.43,37.57c.07,0,.13.08.12.1l-.09.19s-.08,0-.15,0l-2.42-1.17c-.07,0-.13-.08-.12-.1l.09-.19s.08,0,.15,0Z"/><ellipse cx="83.48" cy="37.75" rx="0.24" ry="0.18" transform="translate(16.39 100.14) rotate(-67.25)"/><ellipse cx="80.75" cy="36.45" rx="0.19" ry="0.14" transform="translate(15.94 96.85) rotate(-67.28)"/><path class="cls-10" d="M80.6,36.48c.07.05.16.06.19,0h0s0-.12-.08-.18l-2.53-1.71c-.08-.05-.15-.07-.17-.05h0s0,.09.11.14Z"/><path class="cls-10" d="M87.34,39.5c.09,0,.16,0,.16,0v.24s-.07,0-.16,0l-2.82-.1c-.09,0-.16,0-.16,0v-.24s.07,0,.16,0Z"/><path class="cls-10" d="M84.18,39.41s.07,0,.08,0l0,.17s0,0-.07,0L83,39.86s-.07,0-.08,0l0-.17s0,0,.06,0Z"/><ellipse cx="84.32" cy="39.52" rx="0.2" ry="0.18" transform="translate(31.24 116.03) rotate(-80.36)"/><ellipse cx="82.83" cy="39.77" rx="0.11" ry="0.15" transform="translate(-7.11 20.96) rotate(-13.84)"/><path class="cls-10" d="M82.69,39.9a.13.13,0,0,0,.1-.13h0c0-.05-.06-.07-.12,0l-2,.77c-.06,0-.11.06-.1.09h0s.06,0,.12,0Z"/><ellipse cx="86.51" cy="43.7" rx="0.14" ry="0.19" transform="translate(38.42 127.85) rotate(-87.06)"/><path class="cls-10" d="M87.44,39.89c0-.06.06-.09.09-.08l.27.11s0,.06,0,.12L87,41.86c0,.06-.06.09-.09.08l-.27-.11s0-.06,0-.12Z"/><path class="cls-10" d="M86.62,42.07s0-.08.05-.08l.21,0s0,0,0,.09l-.24,1.58s0,.09-.05.08l-.21,0s0,0,0-.09Z"/><ellipse cx="86.78" cy="41.95" rx="0.22" ry="0.25" transform="translate(30.18 119.97) rotate(-79.84)"/><path class="cls-10" d="M86.59,43.85a.12.12,0,0,0-.08-.12h0s-.08,0-.08.09l.11,1.92c0,.06,0,.11,0,.11h0s0,0,0-.1Q86.61,44.81,86.59,43.85Z"/><path class="cls-10" d="M88.31,43.45c0,.09,0,.16,0,.16l-.23,0s-.06-.07-.09-.15a9.67,9.67,0,0,1-.4-3.31c0-.12,0-.22.06-.22l.27-.05s0,.09,0,.2A9.91,9.91,0,0,0,88.31,43.45Z"/><path class="cls-10" d="M88.13,43.88c0-.06,0-.12,0-.13l.2-.08s.06,0,.08.1l.82,2.11c0,.06,0,.12,0,.13l-.2.08s-.06,0-.08-.1Z"/><ellipse cx="88.22" cy="43.69" rx="0.24" ry="0.18" transform="translate(-10.13 48.1) rotate(-28.91)"/><ellipse cx="89.1" cy="46.12" rx="0.24" ry="0.18" transform="translate(-11.19 48.8) rotate(-28.89)"/><path class="cls-10" d="M91,48.93S91,49,91,49h0s0-.06,0-.09a12,12,0,0,1-1.74-2.65.1.1,0,0,0-.13,0h0a.09.09,0,0,0-.06.11A12.26,12.26,0,0,0,91,48.93Z"/><path class="cls-10" d="M88.25,38.3c0,.12.06.21.09.2l.28-.05s0-.1,0-.22l-.74-3.76c0-.12-.06-.2-.09-.2l-.28.05s0,.1,0,.22Z"/><path class="cls-10" d="M87.44,34.15c0,.08.06.14.08.13l.2-.06s0-.07,0-.15l-.77-2.58c0-.08-.06-.14-.08-.13l-.2.06s0,.08,0,.15Z"/><ellipse cx="87.6" cy="34.23" rx="0.24" ry="0.18" transform="translate(-5.62 21.75) rotate(-13.72)"/><ellipse cx="86.75" cy="31.33" rx="0.19" ry="0.14" transform="translate(-4.94 21.36) rotate(-13.65)"/><path class="cls-10" d="M86.8,31.19c0,.08,0,.17,0,.19h0c-.05,0-.12,0-.16-.11l-1.29-2.76c0-.08-.05-.16,0-.17h0s.08,0,.12.13Z"/><path class="cls-10" d="M88.72,38.32c0,.09,0,.16,0,.16l.23,0s0-.06.06-.15l.34-2.81c0-.09,0-.16,0-.16l-.23,0s0,.07-.06.15Z"/><path class="cls-10" d="M89.13,35.18s0,.07,0,.08l.17.06s0,0,.05-.06L89.77,34s0-.07,0-.08l-.16-.06s0,0-.05.06Z"/><ellipse cx="89.22" cy="35.33" rx="0.2" ry="0.18" transform="translate(-0.38 0.97) rotate(-0.62)"/><ellipse cx="89.7" cy="33.9" rx="0.11" ry="0.15" transform="translate(23.6 103.37) rotate(-67.13)"/><path class="cls-10" d="M89.85,33.79a.13.13,0,0,1-.14.07h0s-.06-.07,0-.13l1.07-1.85c0-.06.08-.1.1-.09h0s0,.06,0,.12Z"/><ellipse cx="93.01" cy="38.16" rx="0.19" ry="0.14" transform="translate(45.23 126.61) rotate(-83.93)"/><path class="cls-10" d="M89.09,38.47c-.06,0-.1,0-.09.08l.07.28s.06,0,.12,0l1.91-.46c.06,0,.1,0,.1-.07L91.13,38s-.06,0-.12,0Z"/><path class="cls-10" d="M91.38,38s-.09,0-.09,0v.22s0,0,.09,0H93s.09,0,.09,0v-.22s0,0-.09,0Z"/><ellipse cx="91.24" cy="38.15" rx="0.22" ry="0.25" transform="translate(-0.72 1.76) rotate(-1.1)"/><path class="cls-10" d="M93.14,38.26a.12.12,0,0,1-.1-.1h0s0-.07.1-.06l1.88.41c.06,0,.1,0,.1.06h0s0,0-.1,0Z"/><path class="cls-10" d="M92.48,39.89c.08,0,.15.06.16,0l.06-.22s-.05-.07-.13-.12a9.65,9.65,0,0,0-3.2-.91c-.12,0-.22,0-.23,0L89,39s.08.05.2.06A9.9,9.9,0,0,1,92.48,39.89Z"/><path class="cls-10" d="M92.93,39.79c-.06,0-.12,0-.13,0l-.11.19s0,.06.09.1l2,1.14c.06,0,.12,0,.13,0L95,41s0-.06-.09-.1Z"/><ellipse cx="92.73" cy="39.84" rx="0.24" ry="0.18" transform="translate(4.3 88.49) rotate(-52.07)"/><ellipse cx="94.99" cy="41.1" rx="0.24" ry="0.18" transform="translate(4.18 90.75) rotate(-52.07)"/><path class="cls-10" d="M97.47,43.37s0,.08,0,.09h0s-.05,0-.08,0a12,12,0,0,0-2.35-2.13.1.1,0,0,1,0-.13h0a.09.09,0,0,1,.12,0A12.27,12.27,0,0,1,97.47,43.37Z"/></svg>