<svg id="Layer_1" data-name="Layer 1" xmlns="http://www.w3.org/2000/svg" viewBox="0 0 30 30"><defs><style>.cls-1{fill:#999;}</style></defs><title>target-overlay-close-icon</title><path class="cls-1" d="M25.6,4.4a15,15,0,1,0,0,21.2A15,15,0,0,0,25.6,4.4ZM24.5,24.5a13.5,13.5,0,1,1,0-19A13.5,13.5,0,0,1,24.5,24.5Z"/><path class="cls-1" d="M20.4,9.6a.7.7,0,0,0-1.1,0L15,13.9,10.6,9.6a.7.7,0,1,0-1.1,1.1L13.9,15,9.6,19.4a.7.7,0,0,0,0,1.1l.5.2.5-.2L15,16.1l4.4,4.4.5.2.5-.2a.7.7,0,0,0,0-1.1L16.1,15l4.4-4.4A.7.7,0,0,0,20.4,9.6Z"/></svg>