<svg id="Layer_1" data-name="Layer 1" xmlns="http://www.w3.org/2000/svg" viewBox="0 0 30 30"><defs><style>.cls-1{fill:#999;fill-rule:evenodd;}</style></defs><title>target-overlay-back-icon</title><path class="cls-1" d="M8.1,14.2a1.2,1.2,0,0,0,0,1.6l5.5,5.4a.9.9,0,1,0,1.3-1.3l-3.7-3.7c-.2-.2-.1-.3.1-.3H21.6a.9.9,0,1,0,0-1.9H11.4c-.3,0-.3-.1-.1-.3l3.7-3.7a.9.9,0,0,0-1.3-1.3Z"/><path class="cls-1" d="M15,30A15,15,0,1,1,30,15,15,15,0,0,1,15,30M15,1.9A13.1,13.1,0,1,0,28.1,15,13.1,13.1,0,0,0,15,1.9"/></svg>