<svg id="Layer_1" data-name="Layer 1" xmlns="http://www.w3.org/2000/svg" viewBox="0 0 18 18"><defs><style>.cls-1{fill:#057f43;}</style></defs><title>completion-instruction</title><path class="cls-1" d="M17.7,10.5l-.9-.9a1,1,0,0,0-1.4,0l-4.9,4.9L9.8,17l-.2.2a.3.3,0,0,0,0,.5h.5l.2-.2,2.5-.7,4.9-4.9A1,1,0,0,0,17.7,10.5Zm-6.5,4.2,3.3-3.3,1.4,1.4L12.6,16Zm-.3.6,1,1-1.4.4Zm6.3-3.9-.9.9L15,10.9l.9-.9a.3.3,0,0,1,.4,0l.9.9A.3.3,0,0,1,17.3,11.4Z"/><path class="cls-1" d="M8.7,4.1a.3.3,0,0,0,0,.6h5.8a.3.3,0,0,0,0-.6Z"/><path class="cls-1" d="M14.8,9a.3.3,0,0,0-.3-.3H8.7a.3.3,0,0,0,0,.6h5.8A.3.3,0,0,0,14.8,9Z"/><path class="cls-1" d="M6.6,2.6a.3.3,0,0,0-.5,0L4.2,5,2.9,4.1a.3.3,0,1,0-.4.5L4,5.7h.4L6.6,3.1A.3.3,0,0,0,6.6,2.6Z"/><path class="cls-1" d="M6.6,7.1a.3.3,0,0,0-.5,0l-2,2.3L2.9,8.6a.3.3,0,1,0-.4.5L4,10.2h.4L6.6,7.6A.3.3,0,0,0,6.6,7.1Z"/><path class="cls-1" d="M6.2,12l-2,2.3-1.2-.9a.3.3,0,1,0-.4.5L4,15h.4l2.2-2.6a.3.3,0,1,0-.5-.4Z"/><path class="cls-1" d="M8,17H3.9A3.3,3.3,0,0,1,.6,13.7V4.2A3.3,3.3,0,0,1,3.9.9h9.5a3.3,3.3,0,0,1,3.3,3.3V8a.3.3,0,1,0,.6,0V4.2A3.9,3.9,0,0,0,13.4.3H3.9A3.9,3.9,0,0,0,0,4.2v9.5a3.9,3.9,0,0,0,3.9,3.9H8A.3.3,0,1,0,8,17Z"/></svg>