<svg id="Layer_1" data-name="Layer 1" xmlns="http://www.w3.org/2000/svg" viewBox="0 0 18 18"><defs><style>.cls-1{fill:none;}.cls-2{fill:#057f43;}</style></defs><title>skills-icon</title><rect class="cls-1" x="-258" y="-625.4" width="1440" height="2391"/><path class="cls-2" d="M18,6.1h0L15,1H3L0,5.8h0L8.8,17h.5L17.9,6.2H18ZM9.6,1.5h4.6L12.8,5.4Zm2.6,4.2H5.7L9,1.7ZM5.2,5.4,3.7,1.5H8.4Zm7.3.9L8.9,15.8,5.5,6.3Zm2.3-4.4,2.4,3.8H13.3ZM3.2,1.9,4.6,5.7H.8ZM4.8,6.3l3.3,8.9L.9,6.3Zm4.9,9.1,3.4-9.1h4Zm0,0"/></svg>