<svg id="Layer_1" data-name="Layer 1" xmlns="http://www.w3.org/2000/svg" viewBox="0 0 18 18"><defs><style>.cls-1{fill:#057f43;fill-rule:evenodd;}</style></defs><title>description-icon</title><path class="cls-1" d="M13.6,8.1H4a.4.4,0,1,0,0,.8h9.6a.4.4,0,1,0,0-.8"/><path class="cls-1" d="M4,6.2H7.8a.4.4,0,0,0,0-.8H4a.4.4,0,0,0,0,.8"/><path class="cls-1" d="M13.6,10.8H4a.4.4,0,1,0,0,.8h9.6a.4.4,0,1,0,0-.8"/><path class="cls-1" d="M13.6,13.4H4a.4.4,0,1,0,0,.8h9.6a.4.4,0,1,0,0-.8"/><path class="cls-1" d="M12.4,0H0V18H18V5.6Zm.2,1.3,4.1,4.1H12.6ZM.8,17.2V.8H11.9V6.1h5.4V17.2Z"/></svg>