<svg id="Layer_1" data-name="Layer 1" xmlns="http://www.w3.org/2000/svg" viewBox="0 0 18 18"><defs><style>.cls-1{fill:#057f43;}</style></defs><title>video-icon</title><path class="cls-1" d="M11.3,8.7,7.9,6.6H7.6a.3.3,0,0,0-.2.3v4.3a.3.3,0,0,0,.2.3h.3l3.4-2.2a.3.3,0,0,0,0-.5ZM8.1,10.6V7.4L10.6,9Z"/><path class="cls-1" d="M17.7,1.9H.3a.3.3,0,0,0-.3.3V15.8a.3.3,0,0,0,.3.3H17.7a.3.3,0,0,0,.3-.3V2.2A.3.3,0,0,0,17.7,1.9ZM3.1,8.7H.6V5.9H3.1ZM.6,9.3H3.1v2.8H.6Zm3.1,3.1V2.5H14.3v13H3.7ZM17.4,8.7H14.9V5.9h2.5Zm-2.5.6h2.5v2.8H14.9Zm2.5-6.8V5.3H14.9V2.5ZM.6,2.5H3.1V5.3H.6Zm0,13V12.7H3.1v2.8Zm16.8,0H14.9V12.7h2.5Z"/></svg>