<?xml version="1.0" encoding="utf-8"?>
<!-- Generator: Adobe Illustrator 23.0.1, SVG Export Plug-In . SVG Version: 6.00 Build 0)  -->
<svg version="1.1" id="Capa_1" xmlns="http://www.w3.org/2000/svg" xmlns:xlink="http://www.w3.org/1999/xlink" x="0px" y="0px"
	 viewBox="0 0 294 294" style="enable-background:new 0 0 294 294;" xml:space="preserve">
<style type="text/css">
	.st0{fill:#FFFFFF;}
</style>
<path shape-rendering="auto" color-rendering="auto" image-rendering="auto" class="st0" d="M124.9,0c-1.6,0-3.2,0.9-4.1,2.3
	L106.4,24H57c-2.8,0-5,2.2-5,5v50c0,2.8,2.2,5,5,5h50c2.8,0,5-2.2,5-5V39.6l-10,15V74H62V34h37.7L85.6,55.1l-6.1-12.3
	c-1.2-2.5-4.2-3.5-6.7-2.3c-2.5,1.2-3.5,4.2-2.3,6.7c0,0,0,0.1,0.1,0.1l10,20c1.2,2.5,4.2,3.5,6.7,2.2c0.8-0.4,1.4-1,1.9-1.7l40-60
	c1.6-2.3,1-5.4-1.3-7C127,0.3,126,0,124.9,0L124.9,0z M147,49c-2.8,0-5,1.1-5,2.5v5c0,1.4,2.2,2.5,5,2.5h90c2.8,0,5-1.1,5-2.5v-5
	c0-1.4-2.2-2.5-5-2.5H147z M57,94.1c-2.8,0-5,2.2-5,5v50c0,2.8,2.2,5,5,5h50c2.8,0,5-2.2,5-5v-50c0-2.8-2.2-5-5-5H57z M62,104.1h40
	v40H62V104.1z M57,164c-2.8,0-5,2.2-5,5v50c0,2.8,2.2,5,5,5h50c2.8,0,5-2.2,5-5v-50c0-2.8-2.2-5-5-5H57z M62,174h40v40H62V174z
	 M57,234c-2.8,0-5,2.2-5,5v50c0,2.8,2.2,5,5,5h50c2.8,0,5-2.2,5-5v-50c0-2.8-2.2-5-5-5L57,234L57,234z M62,244h40v40H62V244z
	 M147,117c-2.8,0-5,1.1-5,2.5v5c0,1.4,2.2,2.5,5,2.5h90c2.8,0,5-1.1,5-2.5v-5c0-1.4-2.2-2.5-5-2.5H147z M147,187c-2.8,0-5,1.1-5,2.5
	v5c0,1.4,2.2,2.5,5,2.5h90c2.8,0,5-1.1,5-2.5v-5c0-1.4-2.2-2.5-5-2.5H147z M147,259c-2.8,0-5,1.1-5,2.5v5c0,1.4,2.2,2.5,5,2.5h90
	c2.8,0,5-1.1,5-2.5v-5c0-1.4-2.2-2.5-5-2.5H147z"/>
</svg>
