<?xml version="1.0" encoding="utf-8"?>
<!-- Generator: Adobe Illustrator 23.0.1, SVG Export Plug-In . SVG Version: 6.00 Build 0)  -->
<svg version="1.1" id="Capa_1" xmlns="http://www.w3.org/2000/svg" xmlns:xlink="http://www.w3.org/1999/xlink" x="0px" y="0px"
	 viewBox="0 0 290 290" style="enable-background:new 0 0 290 290;" xml:space="preserve">
<style type="text/css">
	.st0{fill:#FFFFFF;}
</style>
<path shape-rendering="auto" color-rendering="auto" image-rendering="auto" class="st0" d="M45,0c-2.8,0-5,2.2-5,5v280
	c0,2.8,2.2,5,5,5h200c2.8,0,5-2.2,5-5V5c0-2.8-2.2-5-5-5H45L45,0z M50,10h50v15c0,2.8,2.2,5,5,5h80c2.8,0,5-2.2,5-5V10h50v130h-50.3
	c-2.5-22.5-21.6-40-44.7-40s-42.2,17.5-44.7,40H50V10z M110,10h70v10h-70V10z M145,110c17.7,0,32.2,13,34.6,30h-69.3
	C112.8,123,127.3,110,145,110z M50,150h50.3c2.5,22.5,21.6,40,44.7,40s42.2-17.5,44.7-40H240v130h-50v-15c0-2.8-2.2-5-5-5h-80
	c-2.8,0-5,2.2-5,5v15H50V150L50,150z M110.4,150h69.3c-2.4,17-17,30-34.6,30C127.3,180,112.8,167,110.4,150z M110,270h70v10h-70V270
	z"/>
</svg>
