<svg id="b46cd0f7-f9eb-47a3-a468-f41df63addda" data-name="Layer 1" xmlns="http://www.w3.org/2000/svg" xmlns:xlink="http://www.w3.org/1999/xlink" viewBox="0 0 540 68.29"><defs><radialGradient id="e2c5c75f-75b3-4c44-8378-b9b4ae678a4b" cx="383.25" cy="836.95" r="23.68" gradientTransform="translate(0 -795.16)" gradientUnits="userSpaceOnUse"><stop offset="0" stop-color="#73bd44"/><stop offset="1" stop-color="#108040"/></radialGradient><radialGradient id="fa20c590-1e28-4f58-a988-8e125d7453e0" cx="394.16" cy="810.19" r="46.67" gradientTransform="translate(0 -795.16)" gradientUnits="userSpaceOnUse"><stop offset="0" stop-color="#14aae2"/><stop offset="1" stop-color="#26225b"/></radialGradient></defs><title>soi-sv-logo</title><path d="M37.19,11.5,10.35,38.28a22.3,22.3,0,0,0,1.49,2.92L40.11,13a15.46,15.46,0,0,0-2.92-1.49" fill="#234091"/><path d="M29.79,9.93,8.85,30.87a18.24,18.24,0,0,0,.5,4L33.78,10.43a18.87,18.87,0,0,0-4-.5" fill="#234091"/><path d="M14.83,15.91a20.11,20.11,0,0,0-5.48,10L24.8,10.43a20.66,20.66,0,0,0-10,5.48" fill="#234091"/><path d="M49.37,34.86a23.79,23.79,0,0,0,.5-4l-9.33-9.33,2.21-2.21L49.37,26A20.78,20.78,0,0,0,45,17.12c-.36-.42-.72-.78-1.07-1.14s-.78-.71-1.14-1.06l-29,28.91c.36.43.72.78,1.07,1.14s.79.71,1.14,1.07L29.36,32.72,42.75,46.11c.43-.36.78-.71,1.14-1.07s.71-.78,1.07-1.14L31.57,30.44l2.21-2.21,13,13a22.3,22.3,0,0,0,1.49-2.92L36.05,26l2.21-2.21Z" fill="#234091"/><path d="M40.11,48,29.36,37.14,18.61,48a22.33,22.33,0,0,0,2.92,1.5l6.19-6.2v14H31v-14l6.19,6.2A22.33,22.33,0,0,0,40.11,48" fill="#1a9fd9"/><path d="M99,53.37c0-2.49,1.21-4.41,3.7-4.41a2.62,2.62,0,0,1,2.57,1.57V49.17h2.63v9h-2.63V56.79a2.62,2.62,0,0,1-2.57,1.57c-2.49,0-3.7-1.85-3.7-4.42Zm2.78.64c0,1.36.5,2.21,1.78,2.21s1.71-.78,1.71-2.06v-.93c0-1.28-.57-2.06-1.71-2.06s-1.78.85-1.78,2.2Z" fill="#234091"/><path d="M113.54,49a5.29,5.29,0,0,1,2.63.57l-.57,1.92a4.08,4.08,0,0,0-1.78-.43c-1.49,0-2.13.86-2.13,2.28v.5c0,1.43.64,2.28,2.13,2.28a3.72,3.72,0,0,0,1.78-.43l.57,1.93a5.4,5.4,0,0,1-2.63.57c-3.21,0-4.63-1.71-4.63-4.49v-.43c0-2.56,1.5-4.27,4.63-4.27" fill="#234091"/><path d="M116.53,54v-.78c0-2.56,1.42-4.2,4.42-4.2,2.77,0,4,1.71,4,4.2v1.43h-5.69c.07,1.21.57,1.78,2.13,1.78a8,8,0,0,0,2.92-.57l.5,1.85a9.37,9.37,0,0,1-3.49.64c-3.49,0-4.77-1.71-4.77-4.35m2.71-1.21h3.27v-.21c0-1-.42-1.78-1.56-1.78s-1.71.78-1.71,2" fill="#234091"/><path d="M135.05,53.94c0,2.5-1.21,4.42-3.71,4.42a2.89,2.89,0,0,1-2.7-1.57v1.36h-2.57V44.69l2.71-.22v6A2.76,2.76,0,0,1,131.27,49c2.5,0,3.71,1.85,3.71,4.41v.5Zm-2.71-.64c0-1.28-.5-2.21-1.78-2.21s-1.71.79-1.71,2.07v.93c0,1.28.57,2.06,1.71,2.06s1.78-.92,1.78-2.21Z" fill="#234091"/><path d="M135.9,53.87v-.43a4.49,4.49,0,0,1,9,0v.43a4.09,4.09,0,0,1-4.48,4.42c-3,.07-4.49-1.78-4.49-4.42m6.27-.64c0-1.21-.5-2.14-1.78-2.14s-1.78.93-1.78,2.14v.86c0,1.21.5,2.13,1.78,2.13s1.78-.92,1.78-2.13Z" fill="#234091"/><path d="M145.8,53.87v-.43a4.49,4.49,0,0,1,9,0v.43a4.09,4.09,0,0,1-4.48,4.42c-3.06.07-4.49-1.78-4.49-4.42m6.2-.64c0-1.21-.5-2.14-1.78-2.14s-1.78.93-1.78,2.14v.86c0,1.21.49,2.13,1.78,2.13S152,55.3,152,54.09Z" fill="#234091"/><polygon points="158.48 53.45 161.11 49.17 164.03 49.17 161.18 53.59 164.1 58.15 161.25 58.15 158.48 53.73 158.48 58.15 155.7 58.15 155.7 44.69 158.48 44.4 158.48 53.45" fill="#234091"/><path d="M97.66,46.61c-.86,0-1.07.35-1.07,1.21v1.35h2.28l-.22,2.21H96.59v6.77H93.88V51.38H92V49.17h1.85V47.82c0-2.28.93-3.42,3.42-3.42.57,0,1.21.07,1.57.07v2.07H97.66Z" fill="#234091"/><path d="M85.91,48.89A3.4,3.4,0,0,0,82.7,51a2.85,2.85,0,0,0-2.92-2.06,3.13,3.13,0,0,0-3,1.92V49.1H75.72v9h1v-3.7c0-2.85,1.14-4.49,2.92-4.49,1.42,0,2.21,1,2.21,2.64v5.63h1.07V54.44c0-2.85,1.14-4.48,2.92-4.48,1.42,0,2.2,1,2.2,2.63v5.63h1.07v-5.7c0-2.35-1.28-3.63-3.2-3.63m-16.38,8.4c-1.93,0-3.28-1.49-3.28-3.77s1.43-3.78,3.28-3.78,3.27,1.5,3.27,3.78-1.35,3.77-3.27,3.77m0,.93a4.36,4.36,0,0,0,4.41-4.63,4.42,4.42,0,1,0-8.83,0,4.37,4.37,0,0,0,4.42,4.63M63.76,49a2.33,2.33,0,0,0-2.35,1.71V49.1h-1v9h1.07v-4C61.55,51,62.33,50,63.69,50a1.16,1.16,0,0,1,.78.21l.43-.93A2.12,2.12,0,0,0,63.76,49m-5.84-2.78a1.54,1.54,0,0,1,1.14.5l.57-.71a2.53,2.53,0,0,0-1.78-.72,2.2,2.2,0,0,0-2.28,2.5V49.1h-1.5V50h1.5v8h1.07V50H59V49.1H56.64V47.68c0-.93.5-1.5,1.28-1.5" fill="#234091"/><path d="M55.57,19.47l1.07-.35a4,4,0,0,0,4.06,3.13c2,0,3.34-1.07,3.34-2.7a2.4,2.4,0,0,0-2.35-2.35l-2.56-.43c-2-.29-3.21-1.43-3.21-3.14,0-2.13,1.86-3.56,4.35-3.56a4.35,4.35,0,0,1,4.49,3.07l-1.07.35a3.13,3.13,0,0,0-3.35-2.35c-1.78,0-3.28.93-3.28,2.49,0,1.22.86,1.93,2.35,2.14L62,16.2c2.06.35,3.2,1.64,3.2,3.42,0,2.28-1.85,3.77-4.56,3.77a5.15,5.15,0,0,1-5-3.92" fill="#1a9fd9"/><path d="M66.75,18.55a4.45,4.45,0,0,1,4.49-4.77,3.91,3.91,0,0,1,4,3.06l-1,.28a3,3,0,0,0-3-2.42c-1.93,0-3.35,1.5-3.35,3.78s1.35,3.84,3.35,3.84A3.24,3.24,0,0,0,74.37,20l1,.36a4.21,4.21,0,0,1-4.13,2.92,4.39,4.39,0,0,1-4.49-4.7" fill="#1a9fd9"/><path d="M85.05,17.34v5.77H84v-5.7c0-1.64-.85-2.71-2.35-2.71-1.92,0-3.13,1.71-3.13,4.56V23H77.43V10.36H78.5v5.55a3.36,3.36,0,0,1,3.28-2.06c1.92-.07,3.27,1.28,3.27,3.49" fill="#1a9fd9"/><path d="M86.48,18.55a4.49,4.49,0,1,1,9,0,4.49,4.49,0,1,1-9,0m7.83,0c0-2.28-1.42-3.85-3.35-3.85s-3.34,1.57-3.34,3.85S89,22.39,91,22.39s3.35-1.56,3.35-3.84" fill="#1a9fd9"/><path d="M96.66,18.55a4.49,4.49,0,1,1,9,0,4.49,4.49,0,1,1-9,0m7.83,0c0-2.28-1.42-3.85-3.34-3.85s-3.35,1.57-3.35,3.85,1.42,3.84,3.35,3.84,3.34-1.56,3.34-3.84" fill="#1a9fd9"/><rect x="107.34" y="10.36" width="1.14" height="12.75" fill="#1a9fd9"/><path d="M114.68,18.55a4.49,4.49,0,1,1,9,0,4.49,4.49,0,1,1-9,0m7.76,0c0-2.28-1.42-3.85-3.35-3.85s-3.34,1.57-3.34,3.85,1.42,3.84,3.34,3.84,3.35-1.56,3.35-3.84" fill="#1a9fd9"/><path d="M127.07,12.57V14h2.42v.93h-2.42v8.19h-1.14V14.92h-1.49V14h1.49V12.71a2.26,2.26,0,0,1,2.42-2.49,2.51,2.51,0,0,1,1.78.71l-.57.71a1.56,1.56,0,0,0-1.14-.5c-.85-.07-1.35.5-1.35,1.43" fill="#1a9fd9"/><rect x="55.92" y="26.95" width="1.14" height="12.75" fill="#1a9fd9"/><path d="M67.32,33.93V39.7H66.25V34c0-1.64-.85-2.7-2.35-2.7-1.92,0-3.13,1.71-3.13,4.55v3.78H59.63V30.58H60.7v1.93A3.35,3.35,0,0,1,64,30.44c2.07-.07,3.35,1.28,3.35,3.49" fill="#1a9fd9"/><path d="M77.29,33.93V39.7H76.22V34c0-1.64-.85-2.7-2.35-2.7-1.92,0-3.13,1.71-3.13,4.55v3.78H69.6V30.58h1.07v1.93a3.35,3.35,0,0,1,3.27-2.07c2-.07,3.35,1.28,3.35,3.49" fill="#1a9fd9"/><path d="M79,35.14a4.49,4.49,0,1,1,9,0,4.49,4.49,0,1,1-9,0m7.83,0c0-2.28-1.42-3.84-3.34-3.84s-3.35,1.56-3.35,3.84S81.56,39,83.49,39s3.34-1.57,3.34-3.85" fill="#1a9fd9"/><polygon points="96.8 30.58 93.39 39.7 91.96 39.7 88.54 30.58 89.68 30.58 92.74 38.63 95.66 30.58 96.8 30.58" fill="#1a9fd9"/><path d="M105.63,34.15v5.48h-1.06V38.06a3.29,3.29,0,0,1-3.07,1.78c-1.71,0-2.85-1-2.85-2.49s1.29-2.42,3.14-2.85l2.7-.64a2.42,2.42,0,0,0-2.56-2.56,3,3,0,0,0-3.06,2.56l-1.07-.28a4,4,0,0,1,4.13-3.14,3.38,3.38,0,0,1,3.7,3.71m-1.06,2.27V34.79l-2.43.57c-1.06.28-2.35.78-2.35,2A1.7,1.7,0,0,0,101.72,39a2.72,2.72,0,0,0,2.85-2.57" fill="#1a9fd9"/><path d="M112.4,39.2a2.24,2.24,0,0,1-1.71.71,2,2,0,0,1-2.14-2.2V31.58H107v-1h1.56V28.66l1.07-.5v2.42h2.28v.93h-2.28v6.27c0,.78.43,1.21,1.07,1.21a1.26,1.26,0,0,0,1.07-.57Z" fill="#1a9fd9"/><path d="M115.25,28.31H114V26.88h1.28Zm-.07,11.39h-1.07V30.58h1.07Z" fill="#1a9fd9"/><path d="M117.1,35.14a4.49,4.49,0,1,1,9,0,4.49,4.49,0,1,1-9,0m7.83,0c0-2.28-1.42-3.84-3.34-3.84s-3.35,1.56-3.35,3.84S119.66,39,121.59,39s3.34-1.57,3.34-3.85" fill="#1a9fd9"/><path d="M135.47,33.93V39.7h-1.06V34c0-1.64-.86-2.7-2.35-2.7-1.93,0-3.14,1.71-3.14,4.55v3.78h-1.07V30.58h1.07v1.93a3.35,3.35,0,0,1,3.28-2.07c2-.07,3.27,1.28,3.27,3.49" fill="#1a9fd9"/><rect x="142.31" y="27.31" width="1.14" height="12.75" fill="#1a9fd9"/><path d="M153.63,34.29v5.77h-1.06v-5.7c0-1.64-.86-2.71-2.35-2.71-1.93,0-3.14,1.71-3.14,4.56V40H146v-9h1.07v1.92a3.36,3.36,0,0,1,3.28-2.06c2-.07,3.27,1.28,3.27,3.49" fill="#1a9fd9"/><path d="M164,27.31V40.06H163V38.35a3.79,3.79,0,0,1-3.34,1.85c-2.57,0-4.2-1.92-4.2-4.7s1.7-4.7,4.2-4.7A3.79,3.79,0,0,1,163,32.65V27.31ZM163,35.5c0-2.28-1.21-3.85-3.2-3.85s-3.28,1.57-3.28,3.85,1.29,3.84,3.28,3.84,3.2-1.56,3.2-3.84" fill="#1a9fd9"/><path d="M167.66,28.66h-1.21V27.24h1.29v1.42Zm-.07,11.4h-1.07V30.94h1.07Z" fill="#1a9fd9"/><path d="M177.35,34.57v5.49h-1.07V38.49a3.29,3.29,0,0,1-3.06,1.78c-1.71,0-2.85-1-2.85-2.49s1.28-2.42,3.13-2.85l2.71-.64a2.43,2.43,0,0,0-2.56-2.57,3,3,0,0,0-3.07,2.57L169.52,34a4,4,0,0,1,4.13-3.13c2.42-.14,3.7,1.42,3.7,3.7m-1.07,2.21V35.14l-2.42.57c-1.07.29-2.35.79-2.35,2a1.69,1.69,0,0,0,1.92,1.63,2.7,2.7,0,0,0,2.85-2.56" fill="#1a9fd9"/><g id="b7e7782c-9cb6-45a5-b9d1-8ffe0b97235b" data-name="add5aba7-cd94-413e-81bc-35293f1e0d72"><path id="ac2e7c05-1cfa-431c-a8c9-41f4b570c36b" data-name="a22a1263-e538-4583-9757-d4f3574542fd" d="M424.47,49.64l.27-1-.55-.28C424.38,49.17,423.91,49.46,424.47,49.64Z" fill="#f0be67"/><path id="b5d0ee0f-8e52-4488-b239-46324bb6535f" data-name="a96713d1-49a1-4839-ba51-794619142ea0" d="M421.23,48.15l.18.64c-.37,0-.46.46-.46.92s.46-.46.65-.73S421.5,47.59,421.23,48.15Z" fill="#f0be67"/><path id="e3f2bb6b-19dd-47de-bbda-68c3369206a3" data-name="fbf840f2-b35b-44a6-96d0-31c7aec8b682" d="M412.15,47.79a2.18,2.18,0,0,0,.92,1.48l.28-.37h-.18l.46-.65C412.89,48,412.73,48.34,412.15,47.79Z" fill="#f0be67"/><path id="b3a2d355-9822-443f-88b3-5260a0dd4584" data-name="f8715e5e-c91b-4289-98ea-42b7bfb7161d" d="M432,48.25c0,.46.84.28,1.21.37S432.16,48,432,48.25Z" fill="#f0be67"/><path id="b9e1d493-c985-4913-b75d-52d03f4af08e" data-name="a69712d6-890c-4dbb-b653-a0eeddb0823b" d="M427.81,48.07h0C427.81,48.15,427.91,48.15,427.81,48.07Z" fill="#f0be67"/><path id="bf2ad197-4aed-42cf-be46-8e1374493ff5" data-name="eb6d7b4d-226e-4759-9316-7574d0893534" d="M438.47,47.79h-.09C438.38,48,438.38,47.88,438.47,47.79Z" fill="#f0be67"/><g id="b800930e-43bf-4bd2-be24-9c43af204eb4" data-name="f11c258d-3b7f-497d-9e83-258730ded19b"><path id="fa9a5569-abd8-4731-9277-aaf59319bd8a" data-name="bf246334-954e-45d6-9f4b-397f6b0248d5" d="M410.39,58c.09.64.64,1,1.56,1s1.4-.37,1.4-1-.37-.75-1.32-1l-.93-.19c-1.2-.27-1.86-.92-1.86-1.94a2.35,2.35,0,0,1,2.64-2,2.3,2.3,0,0,1,2.63,1.92h-1.25a1.21,1.21,0,0,0-1.4-.92c-.83,0-1.31.37-1.31.92s.36.75,1.19.94l.85.18c1.38.28,1.93.92,1.93,1.94a2.43,2.43,0,0,1-2.63,2.13c-1.66,0-2.64-.83-2.64-2Z"/><path id="fc950bd6-1d6d-47aa-b645-94d337d9bd30" data-name="e7a4838c-32eb-46e6-a46e-b25bc3cadb1c" d="M417.34,53.42v1.31h1.11v.94h-1.11V58.3c0,.56.19.74.74.74h.37V60h-.65c-1.21,0-1.67-.37-1.67-1.31V55.58h-.76v-.94h.83V53.42Z"/><path id="f6b503ce-1a58-45cf-aa88-e351c60cb5ed" data-name="bd120bb5-46d8-4a9a-930d-b93fc6794de6" d="M419.32,58.36c0-.94.75-1.49,1.95-1.59h1.39v-.46c0-.55-.38-.83-1-.83s-.93.19-1,.56H419.5c.09-.94.94-1.49,2.23-1.49s2.13.64,2.13,1.76v3.52h-1.2v-.74h-.09a1.77,1.77,0,0,1-1.58.83,1.55,1.55,0,0,1-1.67-1.43v0A.14.14,0,0,1,419.32,58.36Zm3.34-.48v-.37h-1.21c-.64,0-.92.28-.92.75s.37.74.92.74a1.11,1.11,0,0,0,1.2-1h0a.2.2,0,0,0,0-.11Z"/><path id="ee64db9b-4c6e-4eea-bf05-7267f6f2fde0" data-name="aa695648-c98e-4f37-9004-5521d27de372" d="M425.13,54.55h1.1v.84h.1a1.37,1.37,0,0,1,1.39-.93h.46v1.21h-.64a1.2,1.2,0,0,0-1.32,1.07v3.18h-1.11Z"/><path id="b6db3121-fd4b-4269-92bc-49723f586814" data-name="f3fec48f-6650-4e34-86b1-fa5634d8a397" d="M431,53.42v1.31h1.11v.94H431V58.3c0,.56.19.74.74.74h.37V60h-.65c-1.2,0-1.67-.37-1.67-1.31V55.58h-.83v-.94h.83V53.42Z"/><path id="a5c93d01-85a4-4bb5-a18a-91f99ee2099f" data-name="e098cd49-644e-4bf9-9d5c-8a441bcc09f0" d="M437.76,59.83h-1.11V59h-.09a1.58,1.58,0,0,1-1.58.92,1.66,1.66,0,0,1-1.86-1.43h0a1.4,1.4,0,0,1,0-.5V54.55h1.2V57.6c0,.85.37,1.22,1,1.22a1.12,1.12,0,0,0,1.2-1h0V54.55h1.21Z"/><path id="ba44ed01-ae0d-481e-a05c-4c533abbdf84" data-name="bef2bf24-db28-4a0c-a612-06e562039758" d="M444.12,57.24c0,1.67-.83,2.63-2.13,2.63a1.66,1.66,0,0,1-1.58-.83h-.1v2.5h-1.23v-7h1.1v.84h.09a1.76,1.76,0,0,1,1.58-.93C443.29,54.55,444.12,55.58,444.12,57.24Zm-1.21,0c0-1-.46-1.66-1.32-1.66s-1.32.64-1.32,1.66.48,1.67,1.32,1.67S442.91,58.26,442.91,57.24Z"/><path id="aa2a8cf3-e524-4f0f-86b5-f3139dc76b58" data-name="f024e158-24e4-496f-9e6a-23e5e726f911" d="M449.86,59.83,447.45,53h1.4l1.75,5.47h.09L452.46,53h1.21l-2.41,6.85Z"/><path id="e8d3ebc7-0841-4de0-820a-9f4552b384e0" data-name="aa822649-e31d-4c20-be8a-6e05695b18fd" d="M454.5,53.07a.75.75,0,1,1,1.48-.18h0a.72.72,0,0,1-.63.81h-.11a.66.66,0,0,1-.74-.56Zm.18,1.48h1.2v5.19h-1.2Z"/><path id="b2bc4e02-fe09-46e8-ba7a-696b3192ce11" data-name="b25eb604-6467-4684-b53a-2588f4e89d18" d="M457.28,52.6h1.21v7.23h-1.21Z"/><path id="b0133621-6015-48aa-b77e-5a2d1469b04a" data-name="ab2b3b25-04b4-475e-8a14-1bdf98d768a3" d="M460,52.6h1.21v7.23H460Z"/><path id="abc8ab94-ce9f-45a1-8750-068245b42c40" data-name="e86fc4aa-6cf8-47f7-afed-c32c44a4d0af" d="M462.38,58.36c0-.94.73-1.49,1.95-1.59h1.31v-.46c0-.55-.37-.83-1-.83s-.92.19-1,.56H462.5c.09-.94.92-1.49,2.22-1.49s2.14.64,2.14,1.76v3.52h-1.22v-.74h-.09a1.74,1.74,0,0,1-1.57.83,1.57,1.57,0,0,1-1.67-1.47Zm3.33-.48v-.37h-1.2c-.64,0-.93.28-.93.75s.38.74.93.74a1.13,1.13,0,0,0,1.11-1.12Z"/><path id="ef010c51-0a5b-4b63-8fb5-a77c26b28d8d" data-name="a22f0b2d-bbc9-41cf-949d-6035fd1a782d" d="M468.12,60.29h1.25q.13.57,1.11.57c.64,0,1.31-.38,1.31-1v-.92h-.09a1.69,1.69,0,0,1-1.58.83c-1.32,0-2.13-1-2.13-2.64s.83-2.63,2.13-2.63a1.75,1.75,0,0,1,1.58.94h.09v-.85h1.11v5.27c0,1.21-.92,2-2.5,2S468.21,61.23,468.12,60.29Zm3.62-3.15c0-1-.47-1.66-1.32-1.66s-1.31.65-1.31,1.66.46,1.68,1.31,1.68S471.74,58.17,471.74,57.14Z"/><path id="eda9e5c4-9b02-42ed-9f4d-57f0ba6cfabb" data-name="e2bad207-3513-4700-8b2e-9937842103c6" d="M478.87,58.36a2.11,2.11,0,0,1-2.31,1.56,2.38,2.38,0,0,1-2.51-2.25,2.44,2.44,0,0,1,0-.38,2.36,2.36,0,0,1,2.09-2.62l.31,0a2.34,2.34,0,0,1,2.42,2.26,2.41,2.41,0,0,1,0,.38v.37h-3.61a1.3,1.3,0,0,0,1.2,1.39h.1a1.19,1.19,0,0,0,1.2-.55Zm-3.61-1.68h2.5a1.21,1.21,0,0,0-1.1-1.31h-.1a1.18,1.18,0,0,0-1.31,1v.27Z"/><path id="b0924e31-1406-4fb0-b283-7218f963be28" data-name="ef73971c-0215-45a7-8cca-0ebb2ab3eabc" d="M482.4,56.41c0-2.23,1.2-3.61,3.15-3.61a2.77,2.77,0,0,1,2.87,2.49h-1.2a1.69,1.69,0,0,0-1.67-1.39c-1.2,0-1.86.93-1.86,2.51s.75,2.5,1.95,2.5a1.69,1.69,0,0,0,1.67-1.32h1.2a2.63,2.63,0,0,1-2.87,2.32C483.6,60,482.4,58.68,482.4,56.41Z"/><path id="bc55d209-f844-4993-a287-72b97c0ec5ea" data-name="b0680688-0359-4532-997e-b70885f58633" d="M489.44,57.24a2.51,2.51,0,0,1,5-.37,2.29,2.29,0,0,1,0,.37h0a2.51,2.51,0,0,1-5,0Zm3.8,0c0-1.11-.46-1.76-1.32-1.76s-1.32.65-1.32,1.76.46,1.76,1.32,1.76S493.24,58.26,493.24,57.24Z"/><path id="b8ccc40a-baf0-4942-9d4c-8da0e0bdeab4" data-name="bb8bf24e-0cfa-48f3-9cf9-f89d6075ee8f" d="M495.71,52.6h1.2v7.23h-1.2Z"/><path id="f14accdc-ed05-42b5-b8ae-d61e20e3cd5c" data-name="b36d3811-e7cc-49aa-8edf-35c48167b74b" d="M498.35,52.6h1.2v7.23h-1.2Z"/><path id="b0b4621a-8b22-4853-989f-8f3db7957aaf" data-name="ee14fc3a-11d9-44a1-8c24-58580a817833" d="M505.47,58.36a2.12,2.12,0,0,1-2.31,1.56,2.38,2.38,0,0,1-2.52-2.25c0-.12,0-.25,0-.38a2.37,2.37,0,0,1,2.1-2.62l.31,0a2.35,2.35,0,0,1,2.43,2.26,1.62,1.62,0,0,1,0,.38v.37h-3.62a1.31,1.31,0,0,0,1.21,1.39h.1a1.21,1.21,0,0,0,1.2-.55Zm-3.62-1.68h2.51a1.22,1.22,0,0,0-1.1-1.31h-.1a1.19,1.19,0,0,0-1.32,1v.27Z"/><path id="ad6c48c1-a6c1-4b50-a5a4-2b78583a0421" data-name="a1807164-7942-4f89-a2e7-6614bc0dc34b" d="M510,56.31a1.1,1.1,0,0,0-1.11-.83c-.83,0-1.32.65-1.32,1.66s.46,1.77,1.32,1.77a1,1,0,0,0,1.11-.83h1.12a2,2,0,0,1-2.2,1.84h0a2.38,2.38,0,0,1-2.51-2.25,2.44,2.44,0,0,1,0-.38,2.41,2.41,0,0,1,2.15-2.63h.35a2.06,2.06,0,0,1,2.31,1.74v.12Z"/><path id="b590ae22-ae8a-4bc2-84a1-b9d9d01f96d5" data-name="a55f1fd5-4491-4578-b48f-310884a21742" d="M513.9,53.42v1.31H515v.94H513.9V58.3c0,.56.19.74.74.74H515V60h-.64c-1.2,0-1.66-.37-1.66-1.31V55.58h-.85v-.94h.85V53.42Z"/><path id="a7dd2008-720c-4350-946e-92912e416216" data-name="b20c8bc1-c353-4782-9d4b-df6cdba43b7e" d="M516,53.07a.74.74,0,1,1,.83.64h-.08a.67.67,0,0,1-.74-.56Zm.18,1.48h1.2v5.19h-1.2Z"/><path id="b1295edc-6706-4ba8-be6a-3df358e6d5eb" data-name="a9cefe6f-f1d1-44fb-94e3-89db8d80aaac" d="M521.41,59.83H520.1l-1.85-5.19h1.32l1.17,4h.09L522,54.6h1.21Z"/><path id="b89dd748-d6a8-415f-8f73-31b95da87a0f" data-name="a353832b-c5ad-47b6-b119-2a5d06203849" d="M528.55,58.36a2.13,2.13,0,0,1-2.32,1.56,2.38,2.38,0,0,1-2.51-2.25,2.44,2.44,0,0,1,0-.38,2.37,2.37,0,0,1,2.09-2.62l.32,0a2.35,2.35,0,0,1,2.43,2.26,2.42,2.42,0,0,1,0,.38v.37h-3.62a1.31,1.31,0,0,0,1.2,1.39h.1a1.19,1.19,0,0,0,1.2-.55Zm-3.62-1.68h2.5a1.21,1.21,0,0,0-1.1-1.31h-.1a1.18,1.18,0,0,0-1.31,1v.27Z"/></g><path id="ffe82f48-2eec-44cc-b381-b07a1456fcdc" data-name="a5295285-4280-418d-bfb0-5662ba1f4209" d="M418.73,46.21a2.71,2.71,0,0,0,.27.92h-.46a1.37,1.37,0,0,0-.55-.92l-1.32.19h-.46v.09a.19.19,0,0,1-.24,0l0,0-1.49.18a.34.34,0,0,1-.09.37c.48.94,1.32-.92,1.49.46h-1c-.18-.37-.57-.46-.84-.64v.27c-.28,0-.28-.18-.37-.37H412c.29-.09.48.47.66.83L410,48l-.37-.19v.46h3.95c.28.46.83.46,1,1.39s-.29-.1-.2.18.48,0,.66-.09l-.28-.56c.56-1,.56.47,1.2-.09s-.64-.55-.74-.83h.37c.1,0,.19,0,.19.19v-.19h1.32l.19.19v-.19h1.11a.93.93,0,0,1-.37.56c.18-.1.55-.65.65,0s.46-.19.55.18.18-.37.09-.74h.94a1.18,1.18,0,0,1,.09.37c-.09.19-.55-.09-.28.55,0-.83.28.37.46.1s.1-.74.19-1.11h2c0,.18.09.46-.19.37s.28.09.37-.09-.18.64.19.46v-.75h1a1.34,1.34,0,0,1-.37.74h.1c.36.36-.47,1.19.27,1a1.9,1.9,0,0,1,.46-1.66h.48a3.55,3.55,0,0,0,.92,1l-.79-1.1h1c0,.27-.27.55-.09,1.1.74-1.1,1.4.56,2-.64s-.09-.28.19-.28v-.27h1.31c.1.18.19.27.28.18s.29.09.38-.28h2.41a1.22,1.22,0,0,0,1.2,0h.19c.46.65.46,1.11,1.1,1.2l-.18-.74.66-.27a.21.21,0,0,1,0-.19h3v.19c.28-.37.46.64.83-.09l.19-.19h.09c.66.19.84.92,1.4.92s-.1.19-.19.37.46-.46.37-.74.37.65.74.65v1.12c.55.46,1-.29,1.39-.57s-.93-.64-1.21-.64c0-2-1.32-.46-1.57-1.11h2.13c.1.37.65.46.19,1.11s.74,0,1.32.64.37-.73.46-1.31.46.64.75.18l-.43-.34a.47.47,0,0,0,.27-.28h.66v.19c.56-.28,1.11.27,1.66-.19h.84a4.31,4.31,0,0,1,1.32,2c1,.57.56-1.57,1.86-.19-.19-.09.09-.82,0-1.1s.46-.28.74,0l-.37.64c.55.56,1.32-.09,2-.09s0-.64-.37-.83.37-.46.55-.46.19,1.32.74,1.57c5.37-.55,10.66,0,16-.74v-.37c3.35.83,7.14-.09,10.76-.37v.28c1.11-1.67.65,1.95,1.84,0,.85,1.66,2,0,2.88,1.2v-.55c.65,1.39,1.58-1,2.41,0,.27-.47.47-1.11.93-.65s-.09.92.28.46l-.28-.92a.93.93,0,0,1,1.28.25l0,.06h.51l-.18-.36.47-.2h.56l.27.38v-.38h1.2a2.42,2.42,0,0,0-.18.75c.55-.37.37,1.47.93,1v-.64c.46-.09.74.27.92.64v-.37c.74-.36,1.2.47,1.86-.64l.37.37a.45.45,0,0,1,.14-.62h0c.37-.1.74.73.55,1.1s1.32.46,2.5.19.46-.28.37-.93l.37.37c-.09,0,0-.18,0-.27s.19,0,.19.27h.47v.71l.37-.55c-.19-.83-.75-.28-.84-1.11h.65c.19.19.1.19.1.65s.27.74.73.37v-.37l.56.37c.18.18-.19-.46,0-.74h-1.32l.46-.18h1c0,.18.09-.1-.19.18l.74.19c.1.55-.28.73-.09,1.1,3.43.94,5.57-2.41,8.62.28.47-.55,1.48-1.2,1.76-.74l-.19.19c.48.46.75-.74,1,0l.28.92c.18-.19.73-.19.64-.56s1-.18.94,1a5.71,5.71,0,0,1,1.84-.18.67.67,0,0,1,0-.2c.18-.37.28.75.46.11s-.64-.39-.09-.66,1.12,0,1.4-.37a1.2,1.2,0,0,1,.46.64c.27-.09.73-.83.37-1s.93-.55.84.64,1.57-.55,2.21.65a7.69,7.69,0,0,0,3.35-1.32C517.14,47.13,464.1,41.39,418.73,46.21Zm-5.27,1.58h-.73c-.18-.29-.37-.56-.18-.84s.74.37,1.2.55Zm4-.38c.18-.28.27-.55.55-.09Zm4.65-.58a.79.79,0,0,1,.27-.65l.29.56Zm21.69,2.5c0-.92-1.21-.55-.27-1h0c.09.18.46.74.18,1Zm58.55-1.45h.47v.19Zm2.5,0c-.09.19,0,.19,0,.28l-.37-.37h.85l.18.37c-.46.09-.55-.18-.75-.28Z" fill="#f0be67"/><g id="f675c1ff-fd97-42c5-ba71-d27282309c5a" data-name="fd2b37a7-b08a-4ca9-a4c5-77cd9c2eb709"><g id="ac6bb838-8cf0-4063-bda9-3dd3fc60a503" data-name="b9b1ff83-d682-48f3-a4cc-d5b2fbe9a51c"><path id="a4b893ed-8ae3-4670-b198-407837264bb9" data-name="aaf914b4-3966-4133-b2fb-29b8011dfa0c" d="M399.73,39.63h0a11.63,11.63,0,0,1,1.66-4.17l.28-.48v-.19c.2-1.32-2.4-1.67-2.87-1.58h-.19a3.82,3.82,0,0,0-3.15,1.58c-.92,1.57-.64,2.64-3,3.43s-3.15-.1-4.64.27-1.47,2.35-1.56,3.64-.29,3.25-1.95,3.62-3.63.18-4.27,2.63,0,3-.74,4.17-2.78,1.58-4.08,1.76a2.8,2.8,0,0,0-2.69,2.9c0,.14,0,.29.05.43a5.63,5.63,0,0,0,.19,1.22h0a3.62,3.62,0,0,0,2.78,3,13.63,13.63,0,0,0,4.63-.37,43.18,43.18,0,0,1,7.7-.55c7.6,0,9.82-5.85,10.84-12.42C399.18,46.12,399.07,42.69,399.73,39.63Z" fill="url(#e2c5c75f-75b3-4c44-8378-b9b4ae678a4b)"/></g><path id="adf0d81d-c6c9-48b6-8b2f-2acfa784b2d5" data-name="bed43263-ab63-4b36-849d-a33b16a9e1e0" d="M384,40.47h-.48l-3.61-1.67a1.67,1.67,0,0,0-2.13.27s-5.37,6-6.11,7a.94.94,0,0,1-1.28.38h0l-.13-.1-3.42-2a.52.52,0,0,0-.73.07.41.41,0,0,0-.1.21l-.39,1.86c-.13.43-.4-.89-.4-.89l-.74-3.29c-.19-1.11.55-.65.55-.65l4.82,1.12a.85.85,0,0,0,.65-.18h0l1.76-3a1.31,1.31,0,0,0,.19-1.1l-1.81-4.92c-.37-.83-.92-.83-.92-.83l-2.74-.34a1.7,1.7,0,0,0-1.2.28l-1.86,1.82a6.69,6.69,0,0,0-1,4.36l.29,3c2.63,15.29,3.95,17.52,8.52,18.53.74.19.92-.64.83-1.32a8.16,8.16,0,0,1-.19-3.71c.47-1.2,3.06-1.48,4.73-2s1.48-3.07,1.68-5.1,1.84-2.63,3.95-3.16,1.85-3.15,2.13-5.19V39.6l-.28.47A1,1,0,0,1,384,40.47Zm15.94-24.84h0c0-.37-.37-.28-.47-.19l-.84.37c-.64.37-.92.74-.74,1.4s.37.92.28,1.38-.83.09-1-.09a1.8,1.8,0,0,0-1.32-.37,3.07,3.07,0,0,0-1.32,1c-.18.29-.66,1.12-.84.2a13.93,13.93,0,0,1-.09-2c0-.94-.83-1.12-1.66-1.58s-1.57-.65-1.57-1.11.18-.27.55-.18a5.91,5.91,0,0,0,1.68,0h.27a1.32,1.32,0,0,0,1.2-1,6.07,6.07,0,0,1,.66-1.75c.37-.48.92.64,1,.92a3,3,0,0,0,.94,1.32,4.07,4.07,0,0,0,2.12.38h.47a.28.28,0,0,0,.19-.34v0h0c-.82-2-2.5-3.56-6.19-4a21.76,21.76,0,0,0-3.61,0A17.57,17.57,0,0,1,386,9.67c-16.86-4.33-22.15.28-23.26,1.41-2.64,2.5-2.78,7-2.64,8.81a45,45,0,0,0,2.32,12c.09.48.37,1.21.93.57l.14-.16,1-1a2.61,2.61,0,0,1,1.4-.73l5.09-.74h.1l4.75-1.7h0l3.95-1.86h.37l.83-.18a.58.58,0,0,1,.57.18c.18.37-.66,1-.66,1h0l-3,2.32-.83.46h0l-2.51,1.32a.74.74,0,0,0-.18,1h.09l.92,1.85a1.42,1.42,0,0,0,1.4.84l2.22-.28a2.44,2.44,0,0,1,1.76.56l2.41,2.32c.18.18.84.64,1.31.27s2.64-2.13,2-.55a21.72,21.72,0,0,1,3.75-.78c3.33-.55,1.58-3.61,3.52-5.46a4.13,4.13,0,0,1,2.88-.83,1.76,1.76,0,0,0,1.66-1.59V28.6a24.39,24.39,0,0,1,.28-3.42C399.18,22.67,400.38,18.77,399.92,15.63ZM371,28.78c-1.21.47-3.07-.55-4.17-2.31s-1.11-3.52.27-3.89,3.43.83,4.46,2.5S372.29,28.39,371,28.78Z" fill="url(#fa20c590-1e28-4f58-a988-8e125d7453e0)"/></g><g id="a0616035-7bf9-4679-9001-ba25fadeaa57" data-name="e7d8c352-4973-42bb-8a30-0d7ac700b382"><path id="e85af50d-72e3-478c-b329-439fbcf73354" data-name="b3cccbe6-9a97-49a7-b38e-5a3f0469569d" d="M429.1,25.27a9.38,9.38,0,0,0-2.41-1.58l-2.63-1-2.63-.83L419.2,21a5.18,5.18,0,0,1-1.48-1,1.8,1.8,0,0,1-.47-1.32,2.33,2.33,0,0,1,1-1.94,5,5,0,0,1,3.05-.93,8,8,0,0,1,2.23.27l1.67.66,1.39.65a2.51,2.51,0,0,0,2.31.09,2.18,2.18,0,0,0,.74-.74l1.66-2.83-.28-.28a13.14,13.14,0,0,0-4.26-2.78,16.47,16.47,0,0,0-10.54-.27,10.83,10.83,0,0,0-3.64,2,8.48,8.48,0,0,0-3,6.59,8.39,8.39,0,0,0,.65,3.53A7.66,7.66,0,0,0,412,25.11a9.82,9.82,0,0,0,2.42,1.66l2.77,1.12,2.64.83,2.21.83a5,5,0,0,1,1.49,1.12,1.89,1.89,0,0,1,.46,1.38,2.82,2.82,0,0,1-.28,1.21,2.4,2.4,0,0,1-.73,1,4.41,4.41,0,0,1-1.4.75,6.4,6.4,0,0,1-2,.27,8.13,8.13,0,0,1-2.5-.36l-1.62-.78-1.32-.83a2.62,2.62,0,0,0-1.48-.46,2.48,2.48,0,0,0-1.31.27,2.76,2.76,0,0,0-.93.93l-1.85,3,.27.18a11.92,11.92,0,0,0,2.05,1.49l2.63,1.22,2.87.73a16.51,16.51,0,0,0,3.06.28,16,16,0,0,0,5.23-.69,11.41,11.41,0,0,0,3.8-2.13,9.05,9.05,0,0,0,2.41-3.24,10.23,10.23,0,0,0,.83-4.08,6.89,6.89,0,0,0-2.41-5.47"/><path id="f3d9461f-ef4d-4c0e-af1f-f355f07823ad" data-name="ac64e1a9-ed4a-4094-a863-6eb3c1752846" d="M467.57,32.78a4.82,4.82,0,0,0-5.19-1,5,5,0,0,0-1.49,1,4.68,4.68,0,0,0-1,1.47,5,5,0,0,0,0,3.72,4.68,4.68,0,0,0,1,1.47,4.56,4.56,0,0,0,3.34,1.4,5.09,5.09,0,0,0,1.85-.37,5,5,0,0,0,2.5-2.5,4.71,4.71,0,0,0,0-3.72,4.65,4.65,0,0,0-1-1.47"/><path id="ef555e68-c94e-4a17-a6a0-3fd7b45273bb" data-name="a755fa47-b8e3-4750-950b-572ebc0e9c25" d="M494.07,32a2.33,2.33,0,0,0-1.48.47l-1.21.92-1.66.83a6.93,6.93,0,0,1-2.63.37A6.43,6.43,0,0,1,484.2,34a6,6,0,0,1-2.12-1.75,8.6,8.6,0,0,1-1.39-3,15.52,15.52,0,0,1-.47-4.07,16.5,16.5,0,0,1,.47-4A8.31,8.31,0,0,1,482,18.35a5.73,5.73,0,0,1,2.24-1.81,7.24,7.24,0,0,1,3.07-.65,7.61,7.61,0,0,1,2.32.28l1.66.75,1.21.73a2.21,2.21,0,0,0,1.32.37,1.77,1.77,0,0,0,1.12-.27l.64-.74,2-2.87-.3-.24a14.58,14.58,0,0,0-4.54-3.15,15.13,15.13,0,0,0-5.94-1.1,15.8,15.8,0,0,0-6.3,1.19A13.11,13.11,0,0,0,476,14.05,13.92,13.92,0,0,0,473.18,19a19,19,0,0,0-.92,6.12,18.93,18.93,0,0,0,1.1,6.59,14.79,14.79,0,0,0,2.87,4.91,12.32,12.32,0,0,0,4.36,3.06,13.6,13.6,0,0,0,5.27,1l3.15-.28a15.67,15.67,0,0,0,3.16-.84,14.71,14.71,0,0,0,3-1.57,14.06,14.06,0,0,0,2.64-2.41l.18-.28-2.24-2.88a1.84,1.84,0,0,0-1.67-.85"/><path id="b423e340-58e7-4964-9dac-c0431832ff67" data-name="f1abe87a-4c4e-4c5e-8dcf-4d6c32f78bc4" d="M527.71,18.87a13.74,13.74,0,0,0-3-5A13.49,13.49,0,0,0,520,10.84a17.94,17.94,0,0,0-12.22,0,13,13,0,0,0-7.82,8,18.18,18.18,0,0,0-1.12,6.41,18.38,18.38,0,0,0,1.12,6.48A13.94,13.94,0,0,0,503,36.61a13.14,13.14,0,0,0,4.73,3.15,17.71,17.71,0,0,0,12.22,0,13,13,0,0,0,4.77-3.1,13.88,13.88,0,0,0,3-4.91,18.55,18.55,0,0,0,1-6.48,19.06,19.06,0,0,0-1-6.4m-7,6.49a12,12,0,0,1-1.71,7,5.76,5.76,0,0,1-5.1,2.31,6,6,0,0,1-5.19-2.31,12.11,12.11,0,0,1-1.67-7,12.12,12.12,0,0,1,1.67-7,5.84,5.84,0,0,1,5.19-2.32,5.76,5.76,0,0,1,5.1,2.32,12.35,12.35,0,0,1,1.67,7.05"/><path id="adfc71d7-200a-4814-ad3c-019a3d5a06cf" data-name="bdd058e4-add0-459f-9917-5f8eb0bcd88c" d="M457,10.25a2.5,2.5,0,0,0-1.49.46,2.38,2.38,0,0,0-.83,1.12l-5.83,15.81a27,27,0,0,0-.84,2.78l-.19.74-.18-.74a12.85,12.85,0,0,0-.83-2.64L441.16,12a2.35,2.35,0,0,0-.94-1.12,2.58,2.58,0,0,0-1.57-.46h-6.49l11.5,28.53h0a2.38,2.38,0,0,0,.83,1.12,2.49,2.49,0,0,0,1.4.46h3.79a2.52,2.52,0,0,0,1.4-.46,2.46,2.46,0,0,0,.73-1.12h0l11.4-28.68Z"/></g></g></svg>