<svg id="Layer_1" data-name="Layer 1" xmlns="http://www.w3.org/2000/svg" viewBox="0 0 212.8 80"><defs><style>.cls-1{fill:#3c5a98;}.cls-2{fill:#fff;}</style></defs><title>facebook-logo</title><rect class="cls-1" width="212.8" height="80"/><path class="cls-2" d="M115.1,34.27a7.32,7.32,0,0,0-6.83,2.83v-.72h0V22.92l-7,.84V56.59h7V54.64a12.85,12.85,0,0,0,2.92,1.86c4.06,1.45,9.41.27,11.28-5.16a18.09,18.09,0,0,0,.27-10.57C121.74,36.86,119.14,34.7,115.1,34.27Zm1,14.22a3.58,3.58,0,0,1-4.08,3.14,4.83,4.83,0,0,1-1.39-.31,4.74,4.74,0,0,1-2.29-3.53h0c-.11-1.54-.23-4.76.52-6.28a3.58,3.58,0,0,1,3.23-1.85c2.1-.07,3.68,1,4,3.1A20.13,20.13,0,0,1,116.14,48.49Z"/><path class="cls-2" d="M139.78,34.68a13.93,13.93,0,0,0-7.28,0,8.77,8.77,0,0,0-6.82,6.89,23.36,23.36,0,0,0-.4,6.13,9.38,9.38,0,0,0,7.61,9l.19,0h0l.52.09.17,0h0c.22,0,.48.07.75.09a14,14,0,0,0,2.92,0h.16a9.55,9.55,0,0,0,9.14-7.62,16.57,16.57,0,0,0,0-7.36A9.15,9.15,0,0,0,139.78,34.68Zm.29,13.46c0,.14,0,.29-.08.43a3.94,3.94,0,0,1-7.76-.41,26.71,26.71,0,0,1,0-4.72,4,4,0,0,1,7.8-.83A21.24,21.24,0,0,1,140.08,48.14Z"/><path class="cls-2" d="M35.24,34.56h-5V31.26c.36-3.12,5.52-2.53,5.52-2.53V23.35h0c-.18,0-10.27-2.44-12.27,5.24h0v.05a39,39,0,0,0-.29,5.91H18.91v5.88h4.58v16h6.66v-16h5.1l.57-5.88Z"/><path class="cls-2" d="M51.13,37.37l-.23-.25h0l0,0-.16-.17h0c-1.57-1.6-2.16-2-3.39-2.35a8.5,8.5,0,0,0-10.78,5.84,18.84,18.84,0,0,0-.38,8.89c1.13,6.41,5.9,8.55,11,7.5a6.57,6.57,0,0,0,3.79-2.65,2.16,2.16,0,0,0,.22-.35v2.82h6.5v-22h-6.5v2.79Zm-.57,11.08a3.52,3.52,0,0,1-3.81,3.18A3.69,3.69,0,0,1,43,48.58a19.08,19.08,0,0,1,.14-6.22,3.51,3.51,0,0,1,3.8-2.69,3.46,3.46,0,0,1,3.61,3.16A26.37,26.37,0,0,1,50.56,48.46Z"/><path class="cls-2" d="M77.48,55c-.3-1.1-.64-2.19-1-3.24l-.31-1.17S68,54.53,66.78,47.1a16,16,0,0,1,.09-3.7,4,4,0,0,1,3.93-3.72,8.77,8.77,0,0,1,2.27.09c1,.17,2,.47,3.1.75.38-1.18.78-2.34,1.14-3.51.06-.18.11-.34.14-.48h0l.18-.7a.83.83,0,0,0-.31-.28h0a3.65,3.65,0,0,0-1-.47l-.6-.2-.3-.09h0a17.12,17.12,0,0,0-6.57-.42c-4.7.5-7.9,3.27-8.78,7.86a17.84,17.84,0,0,0,.09,7.27,8.83,8.83,0,0,0,6.56,7,16.13,16.13,0,0,0,7.09.35,22.31,22.31,0,0,0,3.46-1l.39-.14L77.48,55Z"/><path class="cls-2" d="M98.93,46.42a37.34,37.34,0,0,0-.23-4.56,8.15,8.15,0,0,0-7.14-7.39,18.46,18.46,0,0,0-4.75-.07c-4.29.41-7.55,3.08-8.22,7.11A25.6,25.6,0,0,0,78.46,49c.5,3.69,2.29,6,5.4,7.17h0c1.42.42,8.36,2.24,14.48-.84l-.25-.9h0c-.28-1.2-.62-2.39-.94-3.58l0-.12-.35.12h0c-.27.07-.53.15-.79.24l-.15,0a26.19,26.19,0,0,1-3.65.76,19.12,19.12,0,0,1-3.56,0c-1.94-.32-3.43-1.36-3.36-3.82H98.09l.85,0s0-.22,0-.24Zm-6.26-3H85.14c0-1.5.23-2.89,1.56-3.74a4.16,4.16,0,0,1,4.43-.13C92.59,40.36,92.7,41.83,92.66,43.41Z"/><polygon class="cls-2" points="193.89 34.82 186.5 34.82 180.09 44.85 180.09 23.92 180.09 23.78 180.09 22.93 173.12 23.78 173.12 56.61 180.09 56.61 180.09 46.56 186.5 56.63 193.89 56.63 186.93 45.7 193.89 34.82"/><path class="cls-2" d="M163.54,34.67a13.92,13.92,0,0,0-7.28,0,8.77,8.77,0,0,0-6.82,6.89,23.36,23.36,0,0,0-.4,6.13,9.37,9.37,0,0,0,7.61,9l.19,0h0l.52.09h.18c.22,0,.48.07.75.09a14,14,0,0,0,2.92,0h.16a9.55,9.55,0,0,0,9.14-7.62,16.6,16.6,0,0,0,0-7.36A9.15,9.15,0,0,0,163.54,34.67Zm.29,13.46c0,.15,0,.29-.08.43a3.94,3.94,0,0,1-7.76-.41,26.7,26.7,0,0,1,0-4.72,4,4,0,0,1,7.8-.83A21.27,21.27,0,0,1,163.83,48.13Z"/></svg>