<svg id="Layer_1" data-name="Layer 1" xmlns="http://www.w3.org/2000/svg" viewBox="0 0 128 40"><defs><style>.cls-1{fill:#1e398c;}.cls-1,.cls-2{fill-rule:evenodd;}.cls-2{fill:#00adee;}</style></defs><title>paytm-logo</title><path class="cls-1" d="M.32,7.82A1.25,1.25,0,0,1,1.65,6.48h13c4,.45,6.79,2.49,7.06,7.84v7.23a10,10,0,0,1-.37,3c-1,3.48-3.52,5.21-7.24,5.46H8.53v8.86c0,.66-.56,1-1.24,1H1.43A1.12,1.12,0,0,1,.2,38.68L.32,7.82Zm8.27,6.87h3.47a1.43,1.43,0,0,1,1.42,1.42v4.18a1.43,1.43,0,0,1-1.42,1.42H8.59v-7Z"/><path class="cls-1" d="M28.15,6.52h9.1c5.33.31,8.21,3.11,8.13,8.91V36.9a3.18,3.18,0,0,1-3.12,2.93H30.34a6.89,6.89,0,0,1-6.61-5.59c-.57-2.66-.15-5.87-.15-8.58,0-4.19,2.78-8.34,7.4-8.34h4.86c1.41-.08,1.35-3.16,0-3.05H28.25a1.26,1.26,0,0,1-1.38-1.19V7.45c0-.72.59-.93,1.28-.93Zm5,18.57h2.78a1.2,1.2,0,0,1,1.19,1.19v4.84a1.2,1.2,0,0,1-1.19,1.19H33.17A1.19,1.19,0,0,1,32,31.12V26.28a1.19,1.19,0,0,1,1.19-1.19Z"/><path class="cls-1" d="M48.18,8V21.6A8.31,8.31,0,0,0,56.48,29h3.84c1.59,0,1.49,2.67,0,2.67H52c-.9,0-1.23.47-1.23,1.27v6A1.07,1.07,0,0,0,51.9,40h7.7C66,40,69.69,36.92,69.68,30V7.51a.9.9,0,0,0-.91-1H62.32c-.6,0-.94.65-.94,1.12V19.94a.74.74,0,0,1-.77.84H57.55a1,1,0,0,1-1.09-1.05V7.82c0-.79-.32-1.37-1.19-1.37H49.06c-.71,0-.88.7-.88,1.58Z"/><path class="cls-2" d="M72.93,13.61V7.74A1.15,1.15,0,0,1,74.07,6.6h1.41c3.64-.76,4.5-2.89,6.73-5.29C83.58-.17,84.78-.56,85.66,1V6.6H89a1.15,1.15,0,0,1,1.14,1.15v5.87A1.15,1.15,0,0,1,89,14.76H85.66v24a1.15,1.15,0,0,1-1.14,1.15H78.65a1.15,1.15,0,0,1-1.14-1.15v-24H74.07a1.15,1.15,0,0,1-1.14-1.15Z"/><path class="cls-2" d="M114.49,38.41a1.43,1.43,0,0,1-1.43,1.42h-5.49a1.43,1.43,0,0,1-1.43-1.42V16.35c0-2.39-4.76-2.76-4.76,0V38.41a1.43,1.43,0,0,1-1.43,1.42H94.44A1.43,1.43,0,0,1,93,38.41V7.82a1.43,1.43,0,0,1,1.44-1.43h5.49a1.43,1.43,0,0,1,1.43,1.43v.42c3.21-3.07,8.78-2.59,11.74.61,5.57-6.39,15.13-.7,14.68,6.32,0,7.75-.07,15.43-.07,23.25a1.43,1.43,0,0,1-1.43,1.42h-5.5a1.43,1.43,0,0,1-1.43-1.42V16.49c-.31-3.06-4.94-2.34-4.93,0,0,7.28.06,14.57.06,21.92Z"/></svg>