<?xml version="1.0" encoding="utf-8"?>
<!-- Generator: Adobe Illustrator 21.0.2, SVG Export Plug-In . SVG Version: 6.00 Build 0)  -->
<svg version="1.1" id="Layer_1" xmlns="http://www.w3.org/2000/svg" xmlns:xlink="http://www.w3.org/1999/xlink" x="0px" y="0px"
	 viewBox="0 0 128 40" style="enable-background:new 0 0 128 40;" xml:space="preserve">
<style type="text/css">
	.st0{fill:#1E398C;}
	.st1{fill:#00ADEE;}
</style>
<title>paytm-logo</title>
<path class="st0" d="M14.7,6.5h-13c-0.1,0-0.1,0-0.2,0C0.8,6.5,0.3,7.1,0.3,7.8L0.2,38.7c0,0.1,0,0.1,0,0.2c0.1,0.6,0.6,1.1,1.2,1
	h5.9c0.7,0,1.2-0.3,1.2-1V30h5.6c3.7-0.2,6.2-2,7.2-5.5c0.3-1,0.4-2,0.4-3v-7.2C21.4,9,18.7,6.9,14.7,6.5z M13.5,20.3
	c0,0.8-0.6,1.4-1.4,1.4H8.6v-7v0h3.5c0.8,0,1.4,0.6,1.4,1.4V20.3z"/>
<path class="st0" d="M37.2,6.5h-9.1c-0.7,0-1.3,0.2-1.3,0.9v5.6c0,0,0,0,0,0.1c0.1,0.7,0.7,1.2,1.4,1.1h7.6c1.3-0.1,1.4,3,0,3H31
	c-4.6,0-7.4,4.1-7.4,8.3c0,2.7-0.4,5.9,0.1,8.6c0.6,3.2,3.4,5.5,6.6,5.6h11.9c1.6,0,3-1.3,3.1-2.9V15.4C45.5,9.6,42.6,6.8,37.2,6.5z
	 M37.1,31.1c0,0.7-0.5,1.2-1.2,1.2h-2.8c-0.6,0-1.2-0.5-1.2-1.2v-4.8c0-0.7,0.5-1.2,1.2-1.2h0h0h2.7c0.7,0,1.2,0.5,1.2,1.2V31.1z"/>
<path class="st0" d="M48.2,8v13.6c0.5,4.2,4,7.4,8.3,7.4h3.8c1.6,0,1.5,2.7,0,2.7H52c-0.9,0-1.2,0.5-1.2,1.3v6
	c0,0.6,0.5,1.1,1.1,1.1c0,0,0,0,0.1,0h7.7c6.4,0,10.1-3.1,10.1-10V7.5c0.1-0.5-0.3-0.9-0.8-1c0,0-0.1,0-0.1,0h-6.4
	c-0.6,0-0.9,0.7-0.9,1.1v12.3c0.1,0.4-0.2,0.8-0.6,0.8c0,0-0.1,0-0.1,0h-3.1c-0.5,0.1-1-0.4-1.1-0.9c0,0,0-0.1,0-0.1V7.8
	c0-0.8-0.3-1.4-1.2-1.4h-6.2C48.4,6.5,48.2,7.2,48.2,8L48.2,8z"/>
<path class="st1" d="M72.9,13.6V7.7c0-0.6,0.5-1.1,1.1-1.1h1.4c3.6-0.8,4.5-2.9,6.7-5.3c1.4-1.5,2.6-1.9,3.4-0.3v5.6H89
	c0.6,0,1.1,0.5,1.1,1.2v5.9c0,0.6-0.5,1.1-1.1,1.1h-3.3v24c0,0.6-0.5,1.1-1.1,1.2h-5.9c-0.6,0-1.1-0.5-1.1-1.2v-24h-3.4
	C73.4,14.8,72.9,14.2,72.9,13.6z"/>
<path class="st1" d="M114.5,38.4c0,0.8-0.6,1.4-1.4,1.4h-5.5c-0.8,0-1.4-0.6-1.4-1.4V16.4c0-2.4-4.8-2.8-4.8,0v22.1
	c0,0.8-0.6,1.4-1.4,1.4h-5.5c-0.8,0-1.4-0.6-1.4-1.4c0,0,0,0,0,0V7.8c0-0.8,0.6-1.4,1.4-1.4c0,0,0,0,0,0h5.5c0.8,0,1.4,0.6,1.4,1.4
	l0,0v0.4c3.2-3.1,8.8-2.6,11.7,0.6c5.6-6.4,15.1-0.7,14.7,6.3c0,7.8-0.1,15.4-0.1,23.2c0,0.8-0.6,1.4-1.4,1.4h-5.5
	c-0.8,0-1.4-0.6-1.4-1.4V16.5c-0.3-3.1-4.9-2.3-4.9,0C114.4,23.8,114.5,31.1,114.5,38.4L114.5,38.4z"/>
</svg>
