<?xml version="1.0" encoding="utf-8"?>
<!-- Generator: Adobe Illustrator 21.0.0, SVG Export Plug-In . SVG Version: 6.00 Build 0)  -->
<svg version="1.1" id="Layer_1" xmlns="http://www.w3.org/2000/svg" xmlns:xlink="http://www.w3.org/1999/xlink" x="0px" y="0px"
	 viewBox="0 0 512 512" style="enable-background:new 0 0 512 512;" xml:space="preserve">
<style type="text/css">
	.st0{fill:#008AC1;}
</style>
<g>
	<g>
		<path class="st0" d="M361.8,177.6L428.6,88c2.7-3.6,3.1-8.4,1.1-12.4s-6.1-6.5-10.6-6.5H131.4V54c9.7-4.5,16.5-14.3,16.5-25.7
			c0-15.6-12.7-28.3-28.3-28.3S91.3,12.7,91.3,28.3c0,11.4,6.8,21.2,16.5,25.7v434.3h-15c-6.5,0-11.8,5.3-11.8,11.8
			S86.3,512,92.8,512h53.5c6.5,0,11.8-5.3,11.8-11.8s-5.3-11.8-11.8-11.8h-15V285.6h287.4c4.5,0,8.5-2.5,10.5-6.5
			c2-4,1.6-8.8-1.1-12.3L361.8,177.6z M119.6,35.4c-3.9,0-7.1-3.2-7.1-7.1c0-3.9,3.2-7.1,7.1-7.1s7.1,3.2,7.1,7.1
			C126.7,32.2,123.5,35.4,119.6,35.4z M131.4,262L131.4,262v-39.2H169c6.5,0,11.8-5.3,11.8-11.8s-5.3-11.8-11.8-11.8h-37.6v-43.7
			h58.9c6.5,0,11.8-5.3,11.8-11.8c0-6.5-5.3-11.8-11.8-11.8h-58.9V92.7h264.3l-58,77.8c-3.1,4.2-3.1,9.9,0,14.1l57.6,77.4L131.4,262
			L131.4,262z"/>
	</g>
</g>
</svg>
