<?xml version="1.0" encoding="utf-8"?>
<!-- Generator: Adobe Illustrator 21.0.0, SVG Export Plug-In . SVG Version: 6.00 Build 0)  -->
<svg version="1.1" id="Layer_1" xmlns="http://www.w3.org/2000/svg" xmlns:xlink="http://www.w3.org/1999/xlink" x="0px" y="0px"
	 viewBox="0 0 512 512" style="enable-background:new 0 0 512 512;" xml:space="preserve">
<style type="text/css">
	.st0{fill:#008AC1;}
</style>
<g>
	<g>
		<path class="st0" d="M489.1,35.9H267.5V23c0-6.3-5.1-11.5-11.5-11.5c-6.3,0-11.5,5.1-11.5,11.5v12.9H22.9C10.3,35.9,0,46.2,0,58.8
			v21.3C0,92.8,10.3,103,22.9,103h3.1v257.8c0,12.6,10.3,22.9,22.9,22.9h195.5v33.7l-85,62.3c-5.1,3.7-6.2,10.9-2.5,16
			c3.7,5.1,10.9,6.2,16,2.5l71.4-52.4V489c0,6.3,5.1,11.5,11.5,11.5c6.3,0,11.5-5.1,11.5-11.5v-43.1l71.4,52.4
			c2,1.5,4.4,2.2,6.8,2.2c3.5,0,7-1.6,9.3-4.7c3.7-5.1,2.6-12.3-2.5-16l-85-62.3v-33.7H463c12.6,0,22.9-10.3,22.9-22.9V103h3.1
			c12.6,0,22.9-10.3,22.9-22.9V58.8C512,46.2,501.7,35.9,489.1,35.9z M463,360.8H49V103h414L463,360.8L463,360.8z M489.1,80.1H22.9
			V58.8h466.1L489.1,80.1L489.1,80.1z"/>
	</g>
</g>
<g>
	<g>
		<path class="st0" d="M255.8,136.3c-5.7,0-10.3,4.6-10.3,10.3v79.2h-79.2c-5.7,0-10.3,4.6-10.3,10.3c0,55,44.8,99.8,99.8,99.8
			s99.8-44.8,99.8-99.8S310.8,136.3,255.8,136.3z M255.8,315.2c-40.2,0-73.4-30-78.5-68.8h78.5c5.7,0,10.3-4.6,10.3-10.3v-78.5
			c38.8,5.1,68.8,38.3,68.8,78.5C334.9,279.7,299.4,315.2,255.8,315.2z"/>
	</g>
</g>
<g>
	<g>
		<path class="st0" d="M220.8,125.6c-41.7,0-75.5,33.9-75.5,75.5c0,5.7,4.6,10.3,10.3,10.3h65.2c5.7,0,10.3-4.6,10.3-10.3v-65.2
			C231.2,130.2,226.5,125.6,220.8,125.6z M210.5,190.8h-43.6c4.2-22,21.6-39.4,43.6-43.6V190.8z"/>
	</g>
</g>
</svg>
