<?xml version="1.0" encoding="UTF-8" standalone="no"?>
<svg width="52px" height="45px" viewBox="0 0 52 45" version="1.1" xmlns="http://www.w3.org/2000/svg" xmlns:xlink="http://www.w3.org/1999/xlink">
    <!-- Generator: Sketch 3.6.1 (26313) - http://www.bohemiancoding.com/sketch -->
    <title>Group</title>
    <desc>Created with Sketch.</desc>
    <defs>
        <path id="path-1" d="M0,44.9787402 L51.9685039,44.9787402 L51.9685039,0 L0,0 L0,44.9787402 Z"></path>
    </defs>
    <g id="Page-1" stroke="none" stroke-width="1" fill="none" fill-rule="evenodd">
        <g id="Group">
            <g id="Page-1">
                <path d="M15.3530315,32.5288701 L36.6153543,32.5288701 C38.5975984,32.5288701 34.9430315,23.8280433 34.9430315,23.8280433 C34.7265354,23.3103661 34.2059055,22.9784764 33.7080709,22.7745 L30.3458268,21.2264291 L28.7304331,19.8643819 L26.1348425,22.4457992 L26.1328346,22.4457992 L27.2527559,29.9335157 C27.2564173,29.9595 27.2502756,29.9853661 27.2348031,30.006626 L26.0638583,31.6093819 C26.0449606,31.6350118 26.015315,31.6500118 25.9835433,31.6500118 C25.9518898,31.6500118 25.9222441,31.6350118 25.9037008,31.6093819 L24.7324016,30.006626 C24.7170472,29.9853661 24.7105512,29.9595 24.714685,29.9335157 L25.8344882,22.4457992 L25.8327165,22.4457992 L23.2373622,19.8643819 L21.6219685,21.2264291 L18.2598425,22.7745 C17.7624803,22.9784764 17.2735039,23.2885157 17.0247638,23.8280433 C17.0252362,23.8280433 13.3707874,32.5288701 15.3530315,32.5288701 L15.3530315,32.5288701 Z" id="Fill-1" fill="#0089D0"></path>
                <path d="M24.7653543,13.4772165 C27.9008268,13.8111142 30.6347244,9.42579921 30.590315,13.3522559 C30.5637402,15.7025315 28.3835433,19.2518622 25.9847244,19.2518622 C23.4669685,19.2518622 21.7294488,16.3020591 21.3788976,13.3535551 C20.998937,10.1557205 26.8684252,10.8844606 24.7653543,13.4772165 M25.984252,20.5565079 C28.5487795,20.5565079 31.9890945,17.3525315 32.0474409,11.9799331 C32.0846457,8.25166535 30.3090945,6.02056299 25.984252,6.02056299 C21.6592913,6.02056299 19.8831496,8.25166535 19.921063,11.9799331 C19.9792913,17.3525315 22.9828346,20.5565079 25.984252,20.5565079" id="Fill-3" fill="#0089D0"></path>
                <mask id="mask-2" fill="white">
                    <use xlink:href="#path-1"></use>
                </mask>
                <g id="Clip-6"></g>
                <path d="M3.8976378,34.6517717 L48.0708661,34.6517717 L48.0708661,3.8976378 L3.8976378,3.8976378 L3.8976378,34.6517717 Z M3.54330709,35.0061024 L48.4251969,35.0061024 L48.4251969,3.54330709 L3.54330709,3.54330709 L3.54330709,35.0061024 Z M2.53937008,0.354330709 C1.33452756,0.354330709 0.354330709,1.33452756 0.354330709,2.53937008 L0.354330709,36.0100394 C0.354330709,37.215 1.33452756,38.1950787 2.53937008,38.1950787 L49.4291339,38.1950787 C50.6339764,38.1950787 51.6141732,37.215 51.6141732,36.0100394 L51.6141732,2.53937008 C51.6141732,1.33452756 50.6339764,0.354330709 49.4291339,0.354330709 L2.53937008,0.354330709 Z M49.4291339,38.5494094 L2.53937008,38.5494094 C1.13917323,38.5494094 0,37.4103543 0,36.0100394 L0,2.53937008 C0,1.13917323 1.13917323,0 2.53937008,0 L49.4291339,0 C50.8293307,0 51.9685039,1.13917323 51.9685039,2.53937008 L51.9685039,36.0100394 C51.9685039,37.4103543 50.8293307,38.5494094 49.4291339,38.5494094 L49.4291339,38.5494094 Z" id="Fill-5" fill="#0089D0" mask="url(#mask-2)"></path>
                <path d="M1.48191732,41.0012835 C0.860185039,41.0012835 0.354318898,41.5071496 0.354318898,42.129 C0.354318898,42.7508504 0.860185039,43.2568346 1.48191732,43.2568346 L13.8676654,43.2568346 L13.8676654,41.0012835 L1.48191732,41.0012835 Z M14.2219961,43.6111654 L1.48191732,43.6111654 C0.664830709,43.6111654 -1.18110236e-05,42.9463228 -1.18110236e-05,42.129 C-1.18110236e-05,41.3117953 0.664830709,40.6469528 1.48191732,40.6469528 L14.2219961,40.6469528 L14.2219961,43.6111654 Z" id="Fill-7" fill="#0089D0" mask="url(#mask-2)"></path>
                <path d="M19.2700157,43.2569173 L50.4864331,43.2569173 C51.1082835,43.2569173 51.6141496,42.7510512 51.6141496,42.1290827 C51.6141496,41.5072323 51.1082835,41.001248 50.4864331,41.001248 L19.2700157,41.001248 L19.2700157,43.2569173 Z M50.4864331,43.611248 L18.915685,43.611248 L18.915685,40.6469173 L50.4864331,40.6469173 C51.3036378,40.6469173 51.9684803,41.3117598 51.9684803,42.1290827 C51.9684803,42.9464055 51.3036378,43.611248 50.4864331,43.611248 L50.4864331,43.611248 Z" id="Fill-8" fill="#0089D0" mask="url(#mask-2)"></path>
                <path d="M16.5692244,39.6335551 C15.801626,39.6335551 15.1771772,40.2580039 15.1771772,41.0256024 L15.1771772,43.2322559 C15.1771772,43.9998543 15.801626,44.6244213 16.5692244,44.6244213 C17.3367047,44.6244213 17.9610354,43.9998543 17.9610354,43.2322559 L17.9610354,41.0256024 C17.9610354,40.2580039 17.3367047,39.6335551 16.5692244,39.6335551 M16.5692244,44.978752 C15.6062717,44.978752 14.8228465,44.1952087 14.8228465,43.2322559 L14.8228465,41.0256024 C14.8228465,40.0626496 15.6062717,39.2792244 16.5692244,39.2792244 C17.5320591,39.2792244 18.3153661,40.0626496 18.3153661,41.0256024 L18.3153661,43.2322559 C18.3153661,44.1952087 17.5320591,44.978752 16.5692244,44.978752" id="Fill-9" fill="#0089D0" mask="url(#mask-2)"></path>
            </g>
        </g>
    </g>
</svg>