<svg id="Layer_1" data-name="Layer 1" xmlns="http://www.w3.org/2000/svg" viewBox="0 0 70 72"><defs><style>.cls-1{fill:#0089d0;}</style></defs><title>Untitled-8</title><rect class="cls-1" x="45.91" y="26.8" width="5.97" height="2.14"/><circle class="cls-1" cx="10.43" cy="46.8" r="3.42"/><circle class="cls-1" cx="18.12" cy="52.12" r="3.42"/><circle class="cls-1" cx="27.18" cy="55.28" r="3.42"/><circle class="cls-1" cx="36.73" cy="56.21" r="3.42"/><circle class="cls-1" cx="46.36" cy="55.14" r="3.42"/><circle class="cls-1" cx="54.48" cy="51.11" r="3.42"/><circle class="cls-1" cx="61.38" cy="45.36" r="3.42"/><circle class="cls-1" cx="5.7" cy="57.28" r="3.7"/><circle class="cls-1" cx="14.28" cy="62.89" r="3.7"/><circle class="cls-1" cx="24.28" cy="66.3" r="3.69"/><circle class="cls-1" cx="35.2" cy="67.28" r="3.69"/><circle class="cls-1" cx="46.08" cy="66.54" r="3.7"/><circle class="cls-1" cx="55.96" cy="63.02" r="3.7"/><circle class="cls-1" cx="64.31" cy="57.59" r="3.69"/><path class="cls-1" d="M37.1,50.58c15,0,21-7.59,23-11.53V37.71C58.75,40.91,53.42,50,37.1,50,17.36,50,10.79,39.38,10.72,39.28l0,0v0.93C12.49,42.58,19.87,50.58,37.1,50.58Z"/><path class="cls-1" d="M36.43,61.4c18.25,0,27.17-10.14,29.65-13.54v-1c-1.49,2.26-10.16,14-29.65,14C15.56,60.82,6.79,50,6.23,49.33v0.88C8.38,52.61,17.53,61.4,36.43,61.4Z"/><circle class="cls-1" cx="34.26" cy="21.77" r="4.11"/><path class="cls-1" d="M30.55,33.36l0.08,1.53h0.22v1.62L31.72,41H30.89v1.29H34V41H33.78V36.51h1V41H34.46v1.29h3.28V41H36.88l0.87-4.47V34.89H38l0.21-3.44H55.46V8.41h-12l-4.6-4.6A1.82,1.82,0,0,0,37.29,1a1.82,1.82,0,0,0-1.82,1.82,1.8,1.8,0,0,0,.21.84L31,8.41H15.29v23H30.37Zm5.6-29.1a1.8,1.8,0,0,0,2.17.08l4.06,4.06H32ZM16.77,30V9.89H54V30H38.31l0.08-1.35,8.24-3.67L45.7,23.15l-6.25,3.07-3.69.29-1.56,1.82L32.68,26.5l-2.53.33-6.93-3.4-1,2,7.92,3.89L30.23,30H16.77Z"/></svg>