<?xml version="1.0" encoding="UTF-8" standalone="no"?>
<svg width="74px" height="66px" viewBox="0 0 74 66" version="1.1" xmlns="http://www.w3.org/2000/svg" xmlns:xlink="http://www.w3.org/1999/xlink">
    <!-- Generator: Sketch 3.6.1 (26313) - http://www.bohemiancoding.com/sketch -->
    <title>Page 1</title>
    <desc>Created with Sketch.</desc>
    <defs></defs>
    <g id="Page-1" stroke="none" stroke-width="1" fill="none" fill-rule="evenodd">
        <g>
            <path d="M44.1983,11.0724 C44.1983,17.1874 40.9323,22.1444 36.9033,22.1444 C32.8743,22.1444 29.6083,17.1874 29.6083,11.0724 C29.6083,4.9574 32.8743,0.0004 36.9033,0.0004 C40.9323,0.0004 44.1983,4.9574 44.1983,11.0724" id="Fill-1" fill="#0089D0"></path>
            <path d="M40.948,30.1878 L39.837,33.9388 L38.329,28.6128 L35.307,28.6398 L33.519,33.9388 L31.666,26.2418 C27.166,26.7288 16.068,30.1078 13.475,51.4818 L20.808,51.4818 C20.808,51.4818 21.71,45.0508 22.838,44.4868 C23.967,43.9228 24.342,49.4508 23.534,53.5118 L42.807,53.5118 L43.597,32.7538 L40.948,30.1878 Z" id="Fill-3" fill="#0089D0"></path>
            <path d="M42.0991,26.3022 L39.8371,33.9382 L38.3281,28.6132 L36.9031,28.6252 L36.9031,32.7542 L37.6931,53.5122 L49.7451,53.5122 C48.9371,49.4502 49.3131,43.9222 50.4411,44.4872 C51.5691,45.0512 52.4721,51.4812 52.4721,51.4812 L59.8051,51.4812 C57.3011,30.8472 46.8691,26.9842 42.0991,26.3022" id="Fill-5" fill="#0089D0"></path>
            <path d="M34.8876,25.9426 L35.6436,27.6616 L37.9816,27.6616 L38.7376,25.9426 C38.7376,25.9426 38.6786,25.7276 36.9116,25.7276 C35.1446,25.7276 34.8876,25.9426 34.8876,25.9426" id="Fill-7" fill="#0089D0"></path>
            <path d="M0.9999,65.0068 C0.8239,65.0068 0.6609,64.9138 0.5709,64.7628 C0.4799,64.6118 0.4769,64.4248 0.5599,64.2698 L7.7009,51.0188 C7.7879,50.8568 7.9569,50.7558 8.1409,50.7558 L65.1389,50.7558 C65.3229,50.7558 65.4919,50.8568 65.5799,51.0188 L72.7199,64.2698 C72.8029,64.4248 72.7989,64.6118 72.7089,64.7628 C72.6189,64.9138 72.4559,65.0068 72.2799,65.0068 L0.9999,65.0068 Z" id="Fill-9" fill="#FFFFFF"></path>
            <g id="Group-13" transform="translate(0.000000, 49.506700)" fill="#0089D0">
                <path d="M65.1391,0.7491 L8.1411,0.7491 C7.7731,0.7491 7.4351,0.9511 7.2601,1.2751 L0.1201,14.5261 C-0.0469,14.8351 -0.0389,15.2101 0.1411,15.5131 C0.3221,15.8151 0.6481,16.0001 1.0001,16.0001 L72.2801,16.0001 C72.6321,16.0001 72.9581,15.8151 73.1381,15.5131 C73.3191,15.2101 73.3271,14.8351 73.1601,14.5261 L66.0191,1.2751 C65.8451,0.9511 65.5071,0.7491 65.1391,0.7491 M65.1391,1.7491 L72.2801,15.0001 L1.0001,15.0001 L8.1411,1.7491 L65.1391,1.7491" id="Fill-11"></path>
            </g>
        </g>
    </g>
</svg>