<svg xmlns="http://www.w3.org/2000/svg" viewBox="0 0 512 320"><style><![CDATA[.B{fill:#ed8936}.C{fill:#feebc8}.D{fill:#f7f5fa}.E{fill:#263238}.F{fill:#fbd38d}.G{fill:#fbfafc}.H{fill:#ffbe9d}.I{fill:#e8505b}.J{fill:#fafafa}.K{fill:#eb996e}]]></style><defs><clipPath id="A"><path d="M412.17,168.2H92.25V21.46A13.22,13.22,0,0,1,105.47,8.24H399a13.22,13.22,0,0,1,13.22,13.22Z" class="F"/></clipPath></defs><rect x="48.66" y="247.59" width="219.12" height="38.93" rx="10.37" transform="matrix(.97 -.26 .26 .97 -63.43 49.75)" class="D"/><path d="M64.27 309.5a9.87 9.87 0 0 1-9.54-7.31L.85 100a9.9 9.9 0 0 1 7-12.06l191.7-51.08a9.74 9.74 0 0 1 2.52-.33 9.87 9.87 0 0 1 9.53 7.31L265.46 246a9.86 9.86 0 0 1-7 12L66.8 309.16a9.8 9.8 0 0 1-2.52.33z" fill="#fff"/><path d="M202.05 37a9.35 9.35 0 0 1 9 6.93L265 246.16a9.36 9.36 0 0 1-6.61 11.42L66.65 308.66a9.16 9.16 0 0 1-2.38.32 9.37 9.37 0 0 1-9-6.93L1.35 99.86A9.36 9.36 0 0 1 8 88.43l191.66-51.08a9.22 9.22 0 0 1 2.39-.31m0-1a10.62 10.62 0 0 0-2.66.35L7.7 87.43a10.4 10.4 0 0 0-7.35 12.69l53.88 202.2a10.4 10.4 0 0 0 10 7.7 10.11 10.11 0 0 0 2.65-.35l191.7-51.08a10.4 10.4 0 0 0 7.43-12.69L212.08 43.7a10.41 10.41 0 0 0-10-7.7z" class="D"/><path d="M237.62 139.55L25.9 196 .35 100.12A10.38 10.38 0 0 1 7.7 87.43l191.7-51.08a10.37 10.37 0 0 1 12.69 7.35z" fill="#f1edf7"/><rect x="334.31" y="157.5" width="38.93" height="219.12" rx="10.37" transform="matrix(.25747 -.966286 .966286 .25747 4.63 540.14)" class="D"/><path d="M447.73 309.5a9.8 9.8 0 0 1-2.52-.33l-191.7-51.08a9.86 9.86 0 0 1-7-12l53.88-202.2a9.87 9.87 0 0 1 9.6-7.36 9.74 9.74 0 0 1 2.52.33l191.7 51.08a9.9 9.9 0 0 1 7 12.06l-53.95 202.2a9.87 9.87 0 0 1-9.54 7.31z" fill="#fff"/><path d="M310 37a9.22 9.22 0 0 1 2.39.31L504 88.43a9.36 9.36 0 0 1 6.62 11.43l-53.85 202.2a9.37 9.37 0 0 1-9 6.93 9.16 9.16 0 0 1-2.38-.32l-191.7-51.08a9.36 9.36 0 0 1-6.69-11.42L300.92 44a9.35 9.35 0 0 1 9.08-7m0-1a10.41 10.41 0 0 0-10 7.7l-54 202.2a10.4 10.4 0 0 0 7.35 12.69l191.7 51.08a10.11 10.11 0 0 0 2.65.35 10.4 10.4 0 0 0 10-7.7l53.88-202.2a10.4 10.4 0 0 0-7.35-12.69L312.6 36.35A10.62 10.62 0 0 0 310 36z" class="D"/><path d="M274.38 139.55L486.1 196l25.54-95.85a10.38 10.38 0 0 0-7.35-12.69l-191.7-51.1a10.37 10.37 0 0 0-12.69 7.35z" fill="#f1edf7"/><g class="G"><rect x="330.68" y="109.87" width="12.08" height="161.08" rx="5.42" transform="matrix(.246492 -.969145 .969145 .246492 69.2 469.83)"/><rect x="347.01" y="119.09" width="6.04" height="201.36" rx="3.02" transform="matrix(.246492 -.969145 .969145 .246492 50.78 504.85)"/><rect x="343.79" y="131.78" width="6.04" height="201.36" rx="3.02" transform="matrix(.246492 -.969145 .969145 .246492 36.06 511.28)"/><rect x="306.17" y="171.99" width="6.04" height="130.88" rx="2.44" transform="matrix(.246492 -.969145 .969145 .246492 2.88 478.57)"/></g><rect x="94.25" y="250.16" width="319.91" height="56.84" rx="13.22" class="D"/><g class="G"><rect x="49.8" y="192.5" width="161.08" height="12.08" rx="5.42" transform="matrix(.965926 -.258819 .258819 .965926 -46.96 40.51)"/><rect x="55.63" y="214.62" width="201.36" height="6.04" rx="3.02" transform="matrix(.97 -.26 .26 .97 -51.01 47.88)"/><rect x="59.02" y="227.26" width="201.36" height="6.04" rx="3.02" transform="matrix(.965926 -.258819 .258819 .965926 -54.17 49.19)"/><rect x="63.87" y="250" width="130.88" height="6.04" rx="2.44" transform="matrix(.97 -.26 .26 .97 -61.09 42.1)"/></g><rect x="93.22" y="8.86" width="318.67" height="294.88" rx="11.79" fill="#fff"/><path d="M400.1 9.48a11.18 11.18 0 0 1 11.17 11.17v271.3a11.19 11.19 0 0 1-11.17 11.18H105a11.19 11.19 0 0 1-11.17-11.18V20.65A11.18 11.18 0 0 1 105 9.48h295.1m0-1.24H105a12.45 12.45 0 0 0-12.4 12.41v271.3a12.46 12.46 0 0 0 12.4 12.42h295.1a12.45 12.45 0 0 0 12.41-12.42V20.65A12.44 12.44 0 0 0 400.1 8.24z" class="D"/><path d="M412.17,168.2H92.25V21.46A13.22,13.22,0,0,1,105.47,8.24H399a13.22,13.22,0,0,1,13.22,13.22Z" class="F"/><g clip-path="url(#A)"><path d="M178.46 23.14h80.82v178.74h-80.82z" class="B"/><g class="C"><path d="M182.3 23.14h77v178.74h-77z"/><path d="M255.23 27.2v170.63h-68.88V27.2z"/></g><g class="B"><path opacity=".5" d="M249.5 32.42v18.4h-57.4v-18.4zm-.02 23.63v18.4h-57.4v-18.4zm.02 23.65v18.4h-57.4V79.7zm-.02 23.62v18.4h-57.4v-18.4zm.02 23.64v18.4h-57.4v-18.4zm-.02 23.64V169h-57.4v-18.4zm.02 23.63v18.4h-57.4v-18.4z"/><path d="M255.22 27.2v170.63h-1.05V27.2z"/></g><path d="M250.84 112.16a3.46 3.46 0 1 1-3.46-3.46 3.46 3.46 0 0 1 3.46 3.46z" class="F"/><path fill="#e3eeff" d="M178.46 201.88h15.42v7h-15.42z"/><path fill="#f3f8ff" d="M274.74 208.88H193.9v-7h80.85z"/><path fill="#e3eeff" d="M178.46 208.87h30.84v7h-30.84z"/><path fill="#f3f8ff" d="M290.16 215.87H209.3v-7h80.85z"/><path d="M281.5 23.14h95.6v95.4h-95.6z" class="B"/><path d="M283.7 23.14h95.6v95.4h-95.6z" class="C"/><path d="M281.5 118.54h95.6v4.43h-95.6z" class="B"/><g class="F"><path d="M296.47 118.54h90.38v4.43h-90.38zm78.83-90.92v86.44h-87.6V27.62z"/></g><g class="B"><path d="M287.7 27.62v86.44h2.6s11.8-28.3 15.1-86.44zm85.94 0v86.44h-2.58S359.24 85.77 356 27.62z" opacity=".5"/><path d="M375.32 27.62v86.44h-1.68V27.62zm-46.82 0v86.44h-1.68V27.62z"/></g><g class="C"><path d="M285.36 67.83h92.3v6h-92.3z"/><path d="M334.5 24.7V117h-6V24.7z"/></g><path d="M105.84 23.14h47.8v95.4h-47.8z" class="B"/><path d="M108.06 23.14h47.8v95.4h-47.8z" class="C"/><path d="M105.84 118.54h47.8v4.43h-47.8z" class="B"/><path d="M120.83 118.54h42.58v4.43h-42.58z" class="C"/><path d="M151.87 27.62v86.44h-39.83V27.62z" class="F"/><g class="B"><path d="M112.05 27.62v86.44h2.58s11.82-28.3 15.1-86.44zm38.15 0v86.44h-2.6s-11.8-28.3-15.1-86.44z" opacity=".5"/><path d="M151.87 27.62v86.44h-1.68V27.62z"/></g><path d="M109.7 67.83h44.5v6h-44.5z" class="C"/><path d="M176.54 40c8.23-10.84 16.9-9.3 22.93-6.7a16.55 16.55 0 0 1 9.67 15.78c-.1 1.73-.48 3.55.23 5.14 1.13 2.55 4.43 3.27 6.34 5.3 2.6 2.78 2 7.2 1.14 10.9s-1.8 8 .38 11.08c2 2.87 5.8 3.63 9 5.16a16.41 16.41 0 0 1 8.7 10.24 14 14 0 0 1-3 12.93c-3.05 3.33-7.64 4.8-12.1 5.46a44.63 44.63 0 0 1-51.08-46.41" class="E"/><path d="M199.9 33.76a20.11 20.11 0 0 0-2.92.16 39 39 0 0 0-6.8 2 19.26 19.26 0 0 1-7 1.31 8.75 8.75 0 0 1-2.14-.35 3.37 3.37 0 0 1-.74-.29 15.76 15.76 0 0 0 2.89.41 20.7 20.7 0 0 0 6.89-1.39 33.24 33.24 0 0 1 6.92-1.92 11 11 0 0 1 2.17 0 2.78 2.78 0 0 1 .73.07z" fill="#455a64"/><path d="M218.83 120c.3.94 6.87 31.9 6.87 31.9l49.84 19.17-2.8 7.27-42.74-3.76c-24.94-3.72-26.33-16-24.82-29.64l2.58-23.45z" class="H"/><path d="M147.2 103.3c5.13-7.78 12.93-12.26 20.07-14.74l26.22 1.87a20 20 0 0 1 16 5.89l2.43 65 6 17.05h-62.38l-8.34-75" class="I"/><path d="M210.4 123l-.15-.1-.42-.32c-.2-.14-.4-.33-.7-.5l-1-.64-1.3-.67a16.81 16.81 0 0 0-1.61-.65 16.34 16.34 0 0 0-4.13-.86 16.92 16.92 0 0 0-5.09.31 15.64 15.64 0 0 0-5.38 2.26 11.4 11.4 0 0 0-4.23 4.76 6.87 6.87 0 0 0-.57 3.3 6.18 6.18 0 0 0 1.24 3.19 4.41 4.41 0 0 0 2.88 1.71 2.8 2.8 0 0 0 2.84-1.22 3.69 3.69 0 0 0 .05-3.1 5.75 5.75 0 0 0-.75-1.38 6.67 6.67 0 0 0-1.05-1.14 11.26 11.26 0 0 0-5.17-2.59 15.65 15.65 0 0 0-5.09-.28 33.11 33.11 0 0 0-7.24 1.7l-1.92.65-.5.16h-.18l.16-.08.5-.2 1.9-.7a31.77 31.77 0 0 1 7.26-1.82 16.41 16.41 0 0 1 5.17.25 11.58 11.58 0 0 1 5.32 2.63 6 6 0 0 1 .57.56 5.17 5.17 0 0 1 .52.62 6.25 6.25 0 0 1 .79 1.46 4 4 0 0 1-.06 3.37 2.73 2.73 0 0 1-1.36 1.17 3.67 3.67 0 0 1-1.8.21 4.75 4.75 0 0 1-3.1-1.83 6.57 6.57 0 0 1-1.31-3.36 7 7 0 0 1 .61-3.45 11.53 11.53 0 0 1 4.35-4.89 15.67 15.67 0 0 1 5.53-2.22 16.75 16.75 0 0 1 5.17-.28 16.47 16.47 0 0 1 4.17.92 14.64 14.64 0 0 1 1.62.68l1.3.7 1 .67a7.75 7.75 0 0 1 .67.54l.4.34c.04.13.1.13.08.13z" class="J"/><path d="M209.46 96.32l15.47 27.83-17.17 5.28 1.7-33.1z" class="I"/><path d="M211.53 161.5a4.41 4.41 0 0 1-.05-.48c0-.35 0-.82-.08-1.4l-.23-5.14-.6-17-.35-17v-6.54a3.14 3.14 0 0 1 0-.49 2.37 2.37 0 0 1 0 .49v1.4l.1 5.14.45 17 .5 16.95.13 5.15v1.4a1.86 1.86 0 0 1 .12.54z" class="E"/><g class="J"><path d="M214 104.8a1.49 1.49 0 0 1-.35.25 10 10 0 0 1-1.09.6 11.49 11.49 0 0 1-10.9-.92 7.6 7.6 0 0 1-1.52-1.28 3.84 3.84 0 0 1-.93-1.88 2.57 2.57 0 0 1 .56-2.11 2.31 2.31 0 0 1 2.15-.62 2.78 2.78 0 0 1 1.85 1.27 3.18 3.18 0 0 1 .33 2.15 4.3 4.3 0 0 1-.87 1.9 5.35 5.35 0 0 1-1.56 1.26 9.72 9.72 0 0 1-3.5 1 16 16 0 0 1-3.16 0 15.36 15.36 0 0 1-4.43-1.07 12.31 12.31 0 0 1-1.13-.52 2.18 2.18 0 0 1-.37-.22 1.7 1.7 0 0 1 .4.16l1.14.46a15.92 15.92 0 0 0 7.52.88 9.68 9.68 0 0 0 3.39-1A4.86 4.86 0 0 0 203 104a3.94 3.94 0 0 0 .8-1.76 2.79 2.79 0 0 0-.3-1.92 2.38 2.38 0 0 0-1.63-1.11 1.94 1.94 0 0 0-1.84.51 2.26 2.26 0 0 0-.48 1.84 3.41 3.41 0 0 0 .85 1.72 7.11 7.11 0 0 0 1.45 1.24 11.18 11.18 0 0 0 6.28 1.9 11.69 11.69 0 0 0 4.4-.85l1.47-.78zm-3.27 56.2s-.07 0-.18-.1l-.5-.37a18.12 18.12 0 0 0-2.06-1.23 18.42 18.42 0 0 0-8.53-1.88 25.78 25.78 0 0 0-12.4 3.72 18 18 0 0 0-3.06 2.18 10.56 10.56 0 0 0-2.41 3 6 6 0 0 0-.57 3.87 3.4 3.4 0 0 0 1 1.72 1.88 1.88 0 0 0 1.82.44 2.56 2.56 0 0 0 1.46-1.29 4.49 4.49 0 0 0 .53-1.93 6.78 6.78 0 0 0-1.21-3.76 9.33 9.33 0 0 0-2.79-2.67 10.91 10.91 0 0 0-3.47-1.36 20 20 0 0 0-6.94-.06 42 42 0 0 0-6 1.29 43.43 43.43 0 0 0-8.15 3.38l-2.1 1.2-.53.32-.2.1a.71.71 0 0 1 .17-.13l.52-.35 2.06-1.26a41.2 41.2 0 0 1 8.14-3.49 43.23 43.23 0 0 1 6-1.35 20.32 20.32 0 0 1 7 0 11.28 11.28 0 0 1 3.57 1.39 9.64 9.64 0 0 1 2.9 2.76 7 7 0 0 1 1.26 4 4.62 4.62 0 0 1-.56 2.08 2.94 2.94 0 0 1-1.66 1.45 2.22 2.22 0 0 1-2.13-.52 3.71 3.71 0 0 1-1.07-1.88 6.34 6.34 0 0 1 .6-4.1 10.92 10.92 0 0 1 2.49-3.12 18.56 18.56 0 0 1 3.12-2.22 25.89 25.89 0 0 1 12.55-3.68 18.29 18.29 0 0 1 8.59 2 12.73 12.73 0 0 1 2.73 1.85z"/></g><path d="M166.2 110.5c-1.9-9.7-15.64-10.07-18.05-.47 0 .14-.07.3-.1.44-3.54 15.13 8.43 59.8 11.65 62.38s6.4 5.5 11.9 3.22c3.2-1.34 36.6-30.85 36.6-30.85s7.72 7.4 10.3 6.76 7.5-8.24 7.5-8.24 4.77 7.16 5.37 7.27a1.79 1.79 0 0 0 1.93-2.57c-.64-1-6.72-14.28-6.72-14.28s4.8-.52 3.83-2.13c0 0-.12-1.48-3.36-1.2s-3.24-3.44-9.25-3.05-18.5 1.9-36 15.34l-8.1 5.72z" class="H"/><g class="K"><path d="M181.78 143.12l.2-.16 2.97-2.24a95.34 95.34 0 0 1 9.39-5.92 62.29 62.29 0 0 1 15.81-6.1l4.95-.83 2.6-.23a11.72 11.72 0 0 1 2.7.12 7.22 7.22 0 0 1 2.58 1c.8.5 1.48 1.17 2.3 1.58a3.1 3.1 0 0 0 1.3.34c.45 0 .94-.06 1.43 0a4.68 4.68 0 0 1 1.47.25 1.58 1.58 0 0 1 1.09 1.12v-.07a.94.94 0 0 1 .13.68 1.14 1.14 0 0 1-.4.57 4 4 0 0 1-1.15.58 12.5 12.5 0 0 1-2.53.53l.13-.22 4.3 9.27 2.3 4.78a2.81 2.81 0 0 1 .31.65 2 2 0 0 1 0 .74 2.13 2.13 0 0 1-.72 1.25 1.89 1.89 0 0 1-1.39.42h-.18a.43.43 0 0 1-.13 0l-.1-.07a3.13 3.13 0 0 1-.26-.25l-.46-.53-4.56-6.45h.28a55.25 55.25 0 0 1-3.72 5 20.22 20.22 0 0 1-2.13 2.21l-.6.48a7.48 7.48 0 0 1-.67.41 2.53 2.53 0 0 1-.77.22 2.9 2.9 0 0 1-.79-.1 10.36 10.36 0 0 1-2.69-1.32l-2.37-1.7-4.3-3.7h.2L182.16 168l-7.66 6.2-2.12 1.53a4.58 4.58 0 0 1-.79.44s.28-.14.76-.48a50.94 50.94 0 0 0 2.09-1.57l7.6-6.27 26.16-22.73.1.1 4.28 3.7 2.35 1.68a9.68 9.68 0 0 0 2.6 1.28c.94.36 1.8-.32 2.54-.94a20.65 20.65 0 0 0 2.1-2.18 54.43 54.43 0 0 0 3.68-5l.14-.2.14.2 4.54 6.42a7.33 7.33 0 0 0 .44.51 2.28 2.28 0 0 0 .22.22h.05v.06c0 .06 0 .1 0 0h.15a1.53 1.53 0 0 0 1.15-.35 1.63 1.63 0 0 0 .32-2.22l-2.33-4.8-4.37-9.47h.22a12.5 12.5 0 0 0 2.46-.52 3.81 3.81 0 0 0 1.05-.52.82.82 0 0 0 .29-.4.57.57 0 0 0-.09-.45v-.2a1.29 1.29 0 0 0-.89-.85A4.19 4.19 0 0 0 228 131c-.47 0-.93.05-1.43 0a3.54 3.54 0 0 1-1.43-.38c-.87-.45-1.53-1.13-2.3-1.6a6.74 6.74 0 0 0-2.48-1 19.38 19.38 0 0 0-5.22.1 49.91 49.91 0 0 0-4.94.81 62.66 62.66 0 0 0-15.77 6 100.51 100.51 0 0 0-9.43 5.87l-2.4 1.74-.6.46a1.86 1.86 0 0 1-.22.12zm-11.1 16.58s-.07-.16-.13-.47a8.3 8.3 0 0 1-.16-1.32 13.28 13.28 0 0 1 .47-4.35 13.46 13.46 0 0 1 1.85-4 9 9 0 0 1 .82-1 1.88 1.88 0 0 1 .35-.34c.05 0-.4.57-1 1.5a15.5 15.5 0 0 0-1.72 3.94 15.31 15.31 0 0 0-.56 4.25l.08 1.78z"/></g><path d="M156.85 93.7c-.3.2-11.43 3.53-13.18 14.93s-.7 31.25-.7 31.25l30.17-2.07-8.65-40.1z" class="I"/><g class="K"><path d="M221 150.4a8.48 8.48 0 0 1 0-1 5.39 5.39 0 0 0-2.21-4.18c-.5-.37-.88-.52-.86-.58a2.17 2.17 0 0 1 1 .39 4.9 4.9 0 0 1 2.31 4.38 2.1 2.1 0 0 1-.24.99zm2.74-3.4a9.26 9.26 0 0 0-1-2.75 9.5 9.5 0 0 0-2.06-2.08 1.78 1.78 0 0 1 .82.36 5.22 5.22 0 0 1 1.52 1.55 5.09 5.09 0 0 1 .76 2 1.71 1.71 0 0 1-.04.92zm0-7.2s.28.1.63.4a4.56 4.56 0 0 1 1 1.47 4.28 4.28 0 0 1 .38 1.77c0 .46-.08.74-.12.73a6.58 6.58 0 0 0-1.94-4.37z"/></g><g class="J"><path d="M169.46 118.88h-.16l-.45-.05a15.75 15.75 0 0 0-1.76-.12 16.64 16.64 0 0 0-6.31 1.17 15.94 15.94 0 0 0-7.37 5.85 8.68 8.68 0 0 0-1.63 5.24 5.84 5.84 0 0 0 .89 2.76 4.23 4.23 0 0 0 2.29 1.82 4 4 0 0 0 2.9-.14 3.27 3.27 0 0 0 1.77-2.14 5.25 5.25 0 0 0-.11-2.78 7.94 7.94 0 0 0-1.2-2.44 12 12 0 0 0-14.32-3.88 15.13 15.13 0 0 0-1.57.78l-.4.24-.14.07a9.08 9.08 0 0 1 2.05-1.21 12.08 12.08 0 0 1 6.4-1 12.22 12.22 0 0 1 8.2 4.77 8.11 8.11 0 0 1 1.26 2.53 5.46 5.46 0 0 1 .12 3 3.61 3.61 0 0 1-1.93 2.35 4.36 4.36 0 0 1-3.14.15 4.58 4.58 0 0 1-2.47-1.95 6.2 6.2 0 0 1-.93-2.92 9 9 0 0 1 1.69-5.43 16.09 16.09 0 0 1 7.54-5.9 16.59 16.59 0 0 1 6.4-1.08 12.17 12.17 0 0 1 2.37.31zm-1.03-16.38a3.54 3.54 0 0 1-.77.36 6.51 6.51 0 0 1-.93.33 11.67 11.67 0 0 1-1.26.35 12.36 12.36 0 0 1-1.56.3 16.81 16.81 0 0 1-1.82.17 21.07 21.07 0 0 1-4.17-.28 20.3 20.3 0 0 1-4-1.19 16.71 16.71 0 0 1-1.64-.79 12.85 12.85 0 0 1-1.36-.82 11.78 11.78 0 0 1-1.06-.77 8.13 8.13 0 0 1-.76-.64 3.89 3.89 0 0 1-.59-.6c.05-.05.9.8 2.53 1.8a14.23 14.23 0 0 0 1.37.78c.5.27 1 .5 1.63.75a21.34 21.34 0 0 0 3.95 1.14 22.06 22.06 0 0 0 4.1.31 12.5 12.5 0 0 0 1.79-.14l1.55-.25c1.87-.4 2.97-.88 3-.82z"/></g><path d="M170.92 121.84a1.48 1.48 0 0 1 .07.3c0 .23.08.52.14.88l.5 3.3 1.65 11.44v.17h-.16l-7.05.5-16.35 1.07-5 .3-1.35.06H143l.47-.07 1.34-.12 4.95-.4 23.35-1.65-.14.18-1.53-11.46-.42-3.32-.1-.9a1 1 0 0 1 0-.3z" class="E"/><g opacity=".2"><path d="M156.3 93.38c-.3 1.06.54 2.06 1.1 3 1.06 1.85 1.12 4.08 1.22 6.2a42.67 42.67 0 0 0 1.79 11.52 19.78 19.78 0 0 0 6.38 9.6 13 13 0 0 0 11 2.57 9.69 9.69 0 0 0 7.27-8.21c.3-3.85-2-7.34-3.36-11a59.77 59.77 0 0 1-2.09-8.69 25.85 25.85 0 0 0-2.9-8.41 10.73 10.73 0 0 0-6.94-5.21c-2.93-.54-6.28.85-7.47 3.58"/></g><path d="M170.86 42.36v3.36l-.2 50.28c0 5.84 5 10.5 11.23 10.5 6.3 0 11.53-4.82 11.65-10.7l.38-12.7s8-1.18 9.83-11.56c.92-5.16.8-13.65.5-20.6a11 11 0 0 0-11.93-10.44z" class="H"/><g class="E"><path d="M201.8 57.27a1.34 1.34 0 0 1-1.31 1.32 1.28 1.28 0 0 1-1.36-1.23 1.34 1.34 0 0 1 1.31-1.36 1.27 1.27 0 0 1 1.36 1.27zm.5-1.95c-.16.17-1.16-.6-2.6-.62s-2.5.68-2.65.5.1-.4.56-.72a3.72 3.72 0 0 1 2.13-.61 3.48 3.48 0 0 1 2.07.71c.43.34.58.66.5.74zM188.18 57a1.33 1.33 0 0 1-1.31 1.33 1.28 1.28 0 0 1-1.35-1.23 1.33 1.33 0 0 1 1.31-1.32 1.26 1.26 0 0 1 1.35 1.22zm.02-1.67c-.17.18-1.16-.6-2.6-.6s-2.5.68-2.65.5.1-.4.56-.72a3.69 3.69 0 0 1 2.13-.61 3.57 3.57 0 0 1 2.07.7c.43.35.58.67.5.74zm5.02 10.75a9.57 9.57 0 0 1 2.34-.38c.36 0 .7-.1.78-.35a1.89 1.89 0 0 0-.23-1.09l-1-2.8-2.3-7.35c.16-.06 1.46 3.14 2.9 7.14l1 2.83a2.19 2.19 0 0 1 .17 1.45.94.94 0 0 1-.61.52 2.58 2.58 0 0 1-.63.08 9.47 9.47 0 0 1-2.4-.04z"/></g><g class="K"><path d="M193.9 83.1a26.42 26.42 0 0 1-13.87-4s3.25 7.2 13.68 6.42zm2.27-11.9a2.59 2.59 0 0 0-2.42.67 2.37 2.37 0 0 0-.75 1.69 1.52 1.52 0 0 0 1 1.45 1.73 1.73 0 0 0 1.78-.78 5.49 5.49 0 0 0 .78-2 1.67 1.67 0 0 0 .06-.59.49.49 0 0 0-.33-.42"/></g><g class="E"><path d="M191.8 71.47c.18-.16 1.14 1.07 2.87 1.13s2.94-1.1 3.08-.94-.1.47-.65.9a3.83 3.83 0 0 1-2.51.85 3.36 3.36 0 0 1-2.33-1c-.45-.48-.55-.9-.46-.95zm-3.14-21.77c-.14.4-1.57.18-3.26.35s-3.06.6-3.28.26c-.1-.17.15-.53.7-.9a5.68 5.68 0 0 1 5-.46c.6.26.9.57.84.75zm13.2 1.45c-.26.32-1.24 0-2.43-.07s-2.2.18-2.43-.17c-.1-.16.07-.5.5-.8a3.53 3.53 0 0 1 3.92.19c.4.35.57.7.43.84zm-17.96-12.2c2.82 3.67 0 8.93-3.2 12.3s-7 7.28-6.1 11.8c1.06 5.25 8.3 8.56 7.28 13.82-.37 1.92-1.87 3.57-1.86 5.53 0 3.53 4.6 5.2 6 8.47 1.85 4.47-3.07 9-3.1 13.85 0 2.74 1.56 5.3 1.67 8 .23 5.63-6.4 9.8-11.86 8.48s-9.27-6.62-10.5-12.1-.42-11.22.4-16.8c-.53 2.37-4.13 2.85-5.9 1.2s-2-4.4-1.64-6.82c.94-6 4.84-11.16 6.67-17 1.6-5.1 1.56-10.53 2.22-15.82s2.25-10.82 6.26-14.34 11-4 14.3.16"/></g><path d="M169.65 119.23s0-.07.12-.2l.4-.6a12.85 12.85 0 0 0 1.21-2.45 13.57 13.57 0 0 0 .84-4.23 12.93 12.93 0 0 0-1-5.58 27.7 27.7 0 0 0-3.83-5.79 27.58 27.58 0 0 1-2.23-3.21 12.7 12.7 0 0 1-1.48-3.88 7.68 7.68 0 0 1 .35-4.36A6.17 6.17 0 0 1 165.3 87a14.71 14.71 0 0 1 1.78-1.46 9.42 9.42 0 0 0 3.25-3.21 6.77 6.77 0 0 0 .29-4.6c-.76-3.18-3-5.62-4.37-8.38a10.7 10.7 0 0 1-1.31-4.35 9.53 9.53 0 0 1 .82-4.29 18.66 18.66 0 0 1 4.9-6.36l5.24-4.6a16.53 16.53 0 0 0 3.47-4.53 10.94 10.94 0 0 0 1.18-4.13 7.38 7.38 0 0 0-.27-2.7l-.3-.9a4.79 4.79 0 0 1 .36.89 7.21 7.21 0 0 1 .34 2.73 10.78 10.78 0 0 1-1.15 4.2 16.64 16.64 0 0 1-3.46 4.62c-1.53 1.5-3.38 3-5.23 4.64a18.52 18.52 0 0 0-4.8 6.27 9.33 9.33 0 0 0-.79 4.16 10.28 10.28 0 0 0 1.29 4.24c.7 1.35 1.58 2.64 2.4 4a15.07 15.07 0 0 1 2 4.44 7 7 0 0 1-.31 4.83 9.67 9.67 0 0 1-3.35 3.32 14.34 14.34 0 0 0-1.75 1.43 5.87 5.87 0 0 0-1.22 1.79 7.36 7.36 0 0 0-.34 4.17 12.24 12.24 0 0 0 1.43 3.8 29.91 29.91 0 0 0 2.2 3.19 27.76 27.76 0 0 1 3.82 5.86 13.07 13.07 0 0 1 1 5.68 13.64 13.64 0 0 1-.91 4.27 12.82 12.82 0 0 1-1.27 2.44l-.43.58z" fill="#455a64"/><path d="M247.12 131.15L223.18 173l-33.9 1.17v3.73h99.06l27-44.16a2.51 2.51 0 0 0-2.14-3.82h-63.9a2.52 2.52 0 0 0-2.18 1.23z" class="E"/><path d="M277.12 153.48c-1.5 2.34-3.82 3.53-5.17 2.66s-1.24-3.47.27-5.8 3.82-3.53 5.17-2.66 1.23 3.47-.27 5.8z" class="C"/></g><g class="G"><rect x="120.36" y="196.62" width="211.51" height="15.86" rx="7.11"/><rect x="120.36" y="233.63" width="264.39" height="7.93" rx="3.97"/><rect x="120.36" y="250.82" width="264.39" height="7.93" rx="3.97"/><rect x="120.36" y="269.33" width="171.85" height="7.93" rx="3.21"/></g></svg>