<?xml version="1.0" standalone="no"?>
<!DOCTYPE svg PUBLIC "-//W3C//DTD SVG 1.1//EN" "http://www.w3.org/Graphics/SVG/1.1/DTD/svg11.dtd">
<svg xmlns="http://www.w3.org/2000/svg">
<defs >
<font id="Barlow" horiz-adv-x="513" ><font-face
    font-family="Barlow"
    units-per-em="1000"
    panose-1="0 0 5 0 0 0 0 0 0 0"
    ascent="1000"
    descent="-200"
    alphabetic="0" />
<glyph unicode=" " glyph-name="space" horiz-adv-x="200" />
<glyph unicode="!" glyph-name="exclam" horiz-adv-x="319" d="M131 228T131 238L126 690Q126 700 136 700H187Q197 700 197 690L191 238Q191 228 181 228H141Q131 228 131 238ZM133 4T118 19T102 59Q102 84 117 99T157 115Q182 115 197 100T213 59Q213 35 198
20T157 4Q133 4 118 19Z" />
<glyph unicode="&quot;" glyph-name="quotedbl" horiz-adv-x="263" d="M37 488T37 498L29 684Q29 694 39 694H91Q101 694 101 684L93 498Q93 488 83 488H47Q37 488 37 498ZM172 488T172 498L164 684Q164 694 174 694H225Q235 694 235 684L227 498Q227 488 217
488H182Q172 488 172 498Z" />
<glyph unicode="#" glyph-name="numbersign" horiz-adv-x="659" d="M586 429T576 429H500Q495 429 495 425L471 266Q471 262 474 262H541Q551 262 551 252L550 210Q550 200 540 200H465Q460 200 460 196L433 25Q432 16 423 16L372 18Q368 18 365 21T363 29L388
196Q388 200 385 200H226Q221 200 221 196L194 25Q193 16 184 16L133 18Q129 18 126 21T124 29L149 196Q149 200 146 200H82Q72 200 72 210L73 252Q73 262 83 262H156Q161 262 161 266L185 425Q185 429 182 429H119Q109 429 109 439V482Q109 492 119 492H192Q197
492 197 496L224 667Q225 676 234 676L285 674Q289 674 292 671T294 663L269 496Q269 492 272 492H430Q435 492 435 496L462 667Q463 676 472 676L523 674Q527 674 530 671T532 663L507 496Q507 492 510 492H577Q587 492 587 482L586 439Q586 429 576 429ZM400
262T400 266L424 425Q424 429 421 429H262Q257 429 257 425L233 266Q233 262 236 262H395Q400 262 400 266Z" />
<glyph unicode="$" glyph-name="dollar" horiz-adv-x="559" d="M504 100T455 51T316 -7Q312 -7 312 -11L313 -83Q313 -93 303 -93H259Q249 -93 249 -83L250 -11Q250 -7 246 -7Q155 3 104 52T53 179V210Q53 220 63 220H108Q118 220 118 210V183Q118 125 163 90T289
54Q361 54 399 86T437 173Q437 208 420 233T366 280T263 331Q191 361 153 383T90 441T65 531Q65 608 112 653T242 707Q246 707 246 711L245 789Q245 799 255 799H298Q308 799 308 789L307 710Q307 706 311 706Q399 696 449 646T499 518V496Q499 486 489 486H442Q432
486 432 496V514Q432 572 389 609T270 646Q203 646 167 617T131 533Q131 497 148 474T198 433T299 387Q368 357 410 331T478 268T504 176Q504 100 455 51Z" />
<glyph unicode="%" glyph-name="percent" horiz-adv-x="848" d="M199 425T166 444T114 495T94 567Q94 606 113 638T166 690T238 709Q277 709 310 690T362 639T381 567Q381 528 362 496T310 444T238 425Q199 425 166 444ZM209 0T207 3T208 12L587 693Q592 700 599
700H631Q637 700 639 697T638 688L260 7Q257 0 248 0H215Q209 0 207 3ZM278 471T305 499T333 567Q333 607 306 635T238 663Q198 663 170 636T142 567Q142 527 170 499T238 471Q278 471 305 499ZM575 -9T542 10T490 62T470 134Q470 172 489 204T542 256T614 275Q652
275 685 256T737 205T756 134Q756 95 737 62T686 10T614 -9Q575 -9 542 10ZM654 37T681 65T709 134Q709 174 681 201T614 229Q573 229 545 202T517 134Q517 93 545 65T614 37Q654 37 681 65Z" />
<glyph unicode="&amp;" glyph-name="ampersand" horiz-adv-x="658" d="M596 10T596 6Q596 4 594 2T588 0H529Q523 0 517 6Q479 49 459 74Q456 77 453 74Q405 31 357 12T250 -8Q161 -8 107 33T52 154Q52 223 91 272T202 369Q207 371 203 374Q145 445 126 481T107
556Q107 623 153 665T275 708Q351 708 400 666T449 555Q449 494 412 449T308 358Q304 357 307 353Q353 296 422 217Q447 186 456 176Q459 173 462 176Q501 225 527 262Q533 270 541 265L579 243Q588 237 582 229Q540 167 502 125V123Q502 120 506 115Q502 120 576
32L594 12Q596 10 596 6ZM232 642T205 618T178 551Q178 527 193 500T258 411Q261 408 264 410Q319 448 348 481T378 555Q378 594 350 618T277 642Q232 642 205 618ZM295 53T333 70T411 123Q414 126 411 129L376 171Q349 204 335 219L251 316Q250 319 246 317Q188
278 157 240T125 154Q125 106 159 80T252 53Q295 53 333 70Z" />
<glyph unicode="&apos;" glyph-name="quotesingle" horiz-adv-x="132" d="M37 493T37 503L29 688Q29 698 39 698H93Q103 698 103 688L95 503Q95 493 85 493H47Q37 493 37 503Z" />
<glyph unicode="(" glyph-name="parenleft" horiz-adv-x="261" d="M109 -104T104 -98Q55 -23 25 89T-5 325Q-5 451 25 566T106 757Q110 763 118 763H166Q172 763 174 760T173 751Q130 674 103 562T76 326Q76 205 103 95T173 -92Q175 -96 175 -98Q175 -104 166
-104H116Q109 -104 104 -98Z" />
<glyph unicode=")" glyph-name="parenright" horiz-adv-x="261" d="M152 763T157 757Q205 682 235 570T265 334Q265 207 235 92T154 -98Q150 -104 142 -104H95Q89 -104 87 -101T88 -92Q131 -15 158 97T185 332Q185 453 158 564T88 751Q86 755 86 757Q86 763 95
763H145Q152 763 157 757Z" />
<glyph unicode="*" glyph-name="asterisk" horiz-adv-x="397" d="M175 393T175 403L176 525Q176 531 171 528L60 464Q58 463 55 463Q49 463 46 468L34 492Q33 494 33 497Q33 503 38 506L148 567Q150 568 150 570T148 573L38 634Q34 636 33 640T34 648L46 672Q48
676 52 677T60 676L171 612Q176 610 176 615L175 737Q175 747 185 747H212Q222 747 222 737L221 615Q221 610 226 612L337 676Q339 677 342 677Q348 677 351 672L363 648Q364 646 364 643Q364 637 359 634L248 573Q247 572 247 570T248 567L359 506Q363 504 364
500T363 492L351 468Q349 464 345 463T337 464L226 528Q221 531 221 525L222 403Q222 393 212 393H185Q175 393 175 403Z" />
<glyph unicode="+" glyph-name="plus" horiz-adv-x="500" d="M461 344T461 334V292Q461 282 451 282H285Q281 282 281 278V116Q281 106 271 106H229Q219 106 219 116V278Q219 282 215 282H49Q39 282 39 292V334Q39 344 49 344H215Q219 344 219 348V518Q219 528
229 528H271Q281 528 281 518V348Q281 344 285 344H451Q461 344 461 334Z" />
<glyph unicode="," glyph-name="comma" horiz-adv-x="264" d="M71 -79T69 -76T67 -68L111 146Q113 155 122 155H166Q171 155 173 152T175 144L119 -70Q117 -79 108 -79H76Q71 -79 69 -76Z" />
<glyph unicode="-" glyph-name="hyphen" horiz-adv-x="394" d="M39 280T39 290V332Q39 342 49 342H345Q355 342 355 332V290Q355 280 345 280H49Q39 280 39 290Z" />
<glyph unicode="." glyph-name="period" horiz-adv-x="278" d="M113 2T98 18T82 58Q82 83 97 98T138 114Q162 114 178 99T194 58Q194 34 178 18T138 2Q113 2 98 18Z" />
<glyph unicode="/" glyph-name="slash" horiz-adv-x="400" d="M30 0T33 11L254 692Q257 700 266 700H316Q327 700 324 689L103 8Q100 0 91 0H41Q30 0 33 11Z" />
<glyph unicode="0" glyph-name="zero" horiz-adv-x="565" d="M185 -10T128 45T71 192V508Q71 600 128 654T281 709Q378 709 436 654T494 508V192Q494 100 436 45T281 -10Q185 -10 128 45ZM345 52T384 89T423 188V511Q423 572 385 609T281 646Q218 646 180 609T142
511V188Q142 126 180 89T281 52Q345 52 384 89Z" />
<glyph unicode="1" glyph-name="one" horiz-adv-x="350" d="M186 700T193 700H247Q257 700 257 690V10Q257 0 247 0H196Q186 0 186 10V619Q186 621 185 622T181 622L75 579L71 578Q65 578 63 586L58 624V626Q58 631 65 636L180 697Q186 700 193 700Z" />
<glyph unicode="2" glyph-name="two" horiz-adv-x="536" d="M149 62T154 62H468Q478 62 478 52V10Q478 0 468 0H69Q59 0 59 10V52Q59 59 64 64Q98 104 217 252L291 344Q385 463 385 529Q385 582 349 614T255 646Q198 646 163 614T129 528V497Q129 487 119 487H67Q57
487 57 497V537Q59 614 114 661T255 708Q315 708 361 685T432 622T457 530Q457 445 363 325Q314 262 174 93L152 67Q149 62 154 62Z" />
<glyph unicode="3" glyph-name="three" horiz-adv-x="515" d="M450 282T450 214Q450 159 435 117Q415 57 368 25T250 -8Q180 -8 130 28T61 127Q52 155 50 203Q50 213 60 213H111Q121 213 121 203Q123 174 128 149Q139 105 170 80T249 54Q339 54 366 134Q378 167
378 216Q378 276 362 314Q330 386 249 386Q234 386 212 375Q208 373 206 373Q202 373 199 378L173 413Q168 421 174 427L350 633Q353 638 348 638H66Q56 638 56 648V690Q56 700 66 700H436Q446 700 446 690V641Q446 636 441 629L281 437Q279 435 280 434T284 432Q391
425 430 331Q450 282 450 214Z" />
<glyph unicode="4" glyph-name="four" horiz-adv-x="551" d="M490 257T490 247V203Q490 193 480 193H437Q433 193 433 189V10Q433 0 423 0H372Q362 0 362 10V189Q362 193 358 193H59Q49 193 49 203V240Q49 245 52 252L257 693Q260 700 268 700H321Q326 700 328
697T329 688L130 262Q129 260 130 259T133 257H358Q362 257 362 261V422Q362 432 372 432H423Q433 432 433 422V261Q433 257 437 257H480Q490 257 490 247Z" />
<glyph unicode="5" glyph-name="five" horiz-adv-x="514" d="M464 262T464 216Q464 167 455 132Q438 68 387 31T264 -7Q193 -7 143 29T75 125Q68 147 66 169V171Q66 179 75 179H128Q138 179 139 169Q139 163 143 149Q153 106 184 81T263 55Q311 55 343 82T386
156Q392 179 392 216Q392 250 387 281Q380 327 347 351T265 375Q221 375 186 355T141 302Q138 293 130 293H76Q66 293 66 303V690Q66 700 76 700H426Q436 700 436 690V648Q436 638 426 638H141Q137 638 137 634L136 392Q136 390 137 389T141 390Q166 413 200 425T272
438Q343 438 392 404T455 306Q464 262 464 216Z" />
<glyph unicode="6" glyph-name="six" horiz-adv-x="515" d="M465 284T465 215Q465 153 449 115Q428 57 382 25T267 -7Q195 -7 146 27T77 123Q65 163 65 217V529Q65 611 119 659T260 708Q345 708 397 661T449 537V523Q449 513 439 513H388Q378 513 378 523V531Q378
582 345 614T260 646Q206 646 171 613T136 524V377Q136 375 138 375T141 376Q185 436 274 436Q337 436 379 408T444 329Q465 284 465 215ZM394 170T394 215Q394 267 380 295Q368 332 338 353T264 374Q220 374 190 353T148 293Q136 262 136 212Q136 168 146 139Q158
101 188 78T265 55Q308 55 339 76T382 139Q394 170 394 215Z" />
<glyph unicode="7" glyph-name="seven" horiz-adv-x="473" d="M146 0T144 3T143 12L374 633Q375 635 374 636T371 638H101Q97 638 97 634V588Q97 578 87 578H46Q36 578 36 588L37 690Q37 700 47 700H441Q451 700 451 690V644Q451 640 449 632L219 8Q216 0 207
0H151Q146 0 144 3Z" />
<glyph unicode="8" glyph-name="eight" horiz-adv-x="521" d="M460 253T460 196Q460 127 431 79Q407 38 363 15T261 -8Q201 -8 156 15T87 84Q59 134 59 197Q59 250 80 297Q103 347 153 372Q158 374 153 377Q120 396 99 428Q69 471 69 526Q69 582 99 628Q123 667
165 688T261 710Q316 710 357 689T422 628Q451 581 451 526Q451 471 421 426Q403 399 368 377Q363 374 368 372Q419 347 441 294Q460 253 460 196ZM139 555T139 526Q139 484 160 453Q176 428 201 415T260 402Q293 402 319 415T361 454Q380 481 380 527Q380 560
365 587Q350 615 323 631T259 648Q224 648 197 631T155 585Q139 555 139 526ZM389 144T389 201Q389 248 373 282Q343 348 260 348Q181 348 150 286Q132 254 132 200Q132 144 154 109Q188 54 261 54Q332 54 364 106Q389 144 389 201Z" />
<glyph unicode="9" glyph-name="nine" horiz-adv-x="521" d="M456 537T456 483V171Q456 89 402 41T261 -8Q177 -8 125 39T72 163V177Q72 187 82 187H133Q143 187 143 177V169Q143 118 176 86T261 54Q315 54 350 87T385 176V322Q385 324 383 324T380 323Q336 264
248 264Q185 264 143 292T78 371Q57 413 57 485Q57 546 72 585Q93 643 139 675T254 707Q326 707 375 673T444 577Q456 537 456 483ZM301 326T331 347T374 407Q385 436 385 488Q385 531 376 561Q364 599 333 622T257 645Q214 645 183 624T139 561Q128 533 128 485Q128
434 141 405Q153 369 183 348T257 326Q301 326 331 347Z" />
<glyph unicode=":" glyph-name="colon" horiz-adv-x="339" d="M144 350T129 366T113 406Q113 431 128 446T169 462Q193 462 209 447T225 406Q225 382 209 366T169 350Q144 350 129 366ZM144 13T129 29T113 69Q113 94 128 109T169 125Q193 125 209 110T225 69Q225
45 209 29T169 13Q144 13 129 29Z" />
<glyph unicode=";" glyph-name="semicolon" horiz-adv-x="311" d="M131 347T114 364T96 407Q96 431 115 448T158 465Q182 465 201 448T221 407Q221 382 203 365T158 347Q131 347 114 364ZM105 -75T102 -72T100 -64L128 142Q129 151 138 151H184Q189 151 191 148T193
140L152 -66Q151 -75 141 -75H110Q105 -75 102 -72Z" />
<glyph unicode="&lt;" glyph-name="less" horiz-adv-x="500" d="M461 50T458 48T449 47L46 235Q39 239 39 246V294Q39 301 46 305L449 493L453 494Q461 494 461 485V436Q461 428 453 425L116 273Q110 270 116 267L453 115Q461 112 461 104V55Q461 50 458 48Z" />
<glyph unicode="=" glyph-name="equal" horiz-adv-x="500" d="M39 390T39 400V442Q39 452 49 452H451Q461 452 461 442V400Q461 390 451 390H49Q39 390 39 400ZM39 437T39 447V489Q39 499 49 499H451Q461 499 461 489V447Q461 437 451 437H49Q39 437 39 447Z" />
<glyph unicode="&gt;" glyph-name="greater" horiz-adv-x="500" d="M47 46Q39 46 39 55V104Q39 112 47 115L384 267Q390 270 384 273L47 425Q39 428 39 436V485Q39 490 42 492T51 493L454 305Q461 301 461 294V246Q461 239 454 235L51 47L47 46Z" />
<glyph unicode="?" glyph-name="question" horiz-adv-x="461" d="M176 200T176 210V269Q176 312 197 339T261 400Q290 423 307 439T335 479T347 533Q347 583 315 613T230 644Q176 644 144 613T111 532V501Q111 491 101 491L50 494Q40 494 40 504V532Q40 611 93
660T232 709Q316 709 367 661T418 533Q418 489 404 457T369 405T316 359Q282 333 265 313T248 265V210Q248 200 238 200H186Q176 200 176 210ZM187 2T171 18T155 58Q155 83 171 98T211 114Q236 114 251 99T267 58Q267 34 251 18T211 2Q187 2 171 18Z" />
<glyph unicode="@" glyph-name="at" horiz-adv-x="827" d="M545 617T615 580T724 476T763 323Q763 307 759 271Q747 179 702 128T589 77Q554 77 528 90T487 128Q486 133 482 129Q463 104 436 91T376 78Q322 78 288 104T249 174Q248 180 248 194Q248 223 254 260Q260
317 272 347Q288 391 325 417T408 443Q436 443 458 434T494 406Q496 404 497 404T499 407L502 429Q503 438 512 438H544Q549 438 552 435T554 427L526 218Q525 213 525 202Q525 168 544 146T594 124Q636 124 665 162T705 268Q709 292 709 321Q709 397 676 453T585
539T450 569Q364 569 288 530T164 413T116 224Q116 146 146 85T233 -10T369 -44Q419 -44 465 -32T537 -3Q540 -1 544 -1Q548 -1 551 -5L567 -25Q570 -28 570 -32Q570 -36 565 -39Q533 -64 477 -78T362 -93Q271 -93 203 -53T99 61T63 229Q63 349 119 437T265 571T454
617Q545 617 615 580ZM470 200T473 213T480 261Q485 313 484 332Q483 360 464 379T412 398Q380 398 356 380T319 333Q314 323 311 306T304 259Q299 223 299 205Q299 194 300 189Q302 160 323 142T377 124Q409 124 432 142T465 189Q470 200 473 213Z" />
<glyph unicode="A" glyph-name="A" horiz-adv-x="607" d="M500 0T497 8L457 134Q456 137 453 137H154Q151 137 150 134L110 8Q107 0 98 0H44Q33 0 36 11L257 692Q260 700 269 700H337Q346 700 349 692L571 11L572 7Q572 0 563 0H509Q500 0 497 8ZM169 198T170
197T174 195H432Q434 195 435 196T436 200L306 608Q305 610 303 610T300 608L170 200Q169 198 170 197Z" />
<glyph unicode="B" glyph-name="B" horiz-adv-x="627" d="M440 362T445 359Q499 337 527 294T555 190Q555 100 498 50T346 0H104Q94 0 94 10V690Q94 700 104 700H339Q436 700 491 652T547 517Q547 462 521 424T445 365Q440 362 445 359ZM165 638T165 634V394Q165
390 169 390H339Q402 390 439 423T477 511Q477 569 440 603T339 638H169Q165 638 165 634ZM409 63T446 99T484 196Q484 257 446 293T342 330H169Q165 330 165 326V67Q165 63 169 63H346Q409 63 446 99Z" />
<glyph unicode="C" glyph-name="C" horiz-adv-x="607" d="M237 -9T184 18T102 96T72 213V488Q72 553 101 603T184 680T307 708Q377 708 430 681T512 605T542 492Q542 487 539 484T532 481L481 478Q471 478 471 487V490Q471 561 426 603T307 646Q233 646 188 603T143
490V210Q143 140 188 97T307 54Q381 54 426 96T471 210V212Q471 221 481 221L532 218Q542 218 542 209Q542 144 513 95T430 18T307 -9Q237 -9 184 18Z" />
<glyph unicode="D" glyph-name="D" horiz-adv-x="618" d="M94 0T94 10V690Q94 700 104 700H340Q439 700 497 648T556 507V193Q556 104 498 52T340 0H104Q94 0 94 10ZM165 62T169 62H343Q408 62 446 100T485 202V497Q485 562 447 600T343 638H169Q165 638 165 634V66Q165
62 169 62Z" />
<glyph unicode="E" glyph-name="E" horiz-adv-x="605" d="M547 638T537 638H169Q165 638 165 634V387Q165 383 169 383H427Q437 383 437 373V331Q437 321 427 321H169Q165 321 165 317V66Q165 62 169 62H537Q547 62 547 52V10Q547 0 537 0H104Q94 0 94 10V690Q94
700 104 700H537Q547 700 547 690V648Q547 638 537 638Z" />
<glyph unicode="F" glyph-name="F" horiz-adv-x="568" d="M546 638T536 638H169Q165 638 165 634V387Q165 383 169 383H426Q436 383 436 373V331Q436 321 426 321H169Q165 321 165 317V10Q165 0 155 0H104Q94 0 94 10V690Q94 700 104 700H536Q546 700 546 690V648Q546
638 536 638Z" />
<glyph unicode="G" glyph-name="G" horiz-adv-x="613" d="M237 -8T184 19T102 97T72 212V488Q72 553 101 603T184 680T307 708Q376 708 429 681T512 606T541 496V483Q541 473 531 473H480Q470 473 470 483V495Q470 562 426 604T307 646Q233 646 188 603T143 490V210Q143
140 189 97T310 54Q383 54 426 94T470 201V292Q470 296 466 296H319Q309 296 309 306V348Q309 358 319 358H531Q541 358 541 348V219Q541 112 478 52T307 -8Q237 -8 184 19Z" />
<glyph unicode="H" glyph-name="H" horiz-adv-x="654" d="M492 700T502 700H553Q563 700 563 690V10Q563 0 553 0H502Q492 0 492 10V317Q492 321 488 321H169Q165 321 165 317V10Q165 0 155 0H104Q94 0 94 10V690Q94 700 104 700H155Q165 700 165 690V387Q165
383 169 383H488Q492 383 492 387V690Q492 700 502 700Z" />
<glyph unicode="I" glyph-name="I" horiz-adv-x="259" d="M94 0T94 10V690Q94 700 104 700H155Q165 700 165 690V10Q165 0 155 0H104Q94 0 94 10Z" />
<glyph unicode="J" glyph-name="J" horiz-adv-x="577" d="M188 -8T137 18T57 91T29 201V277Q29 287 39 287H90Q100 287 100 277V201Q100 135 142 95T256 54Q326 54 369 94T412 201V690Q412 700 422 700H473Q483 700 483 690V201Q483 139 455 92T375 18T256 -8Q188
-8 137 18Z" />
<glyph unicode="K" glyph-name="K" horiz-adv-x="611" d="M94 0T94 10V690Q94 700 104 700H155Q165 700 165 690V351Q165 349 167 348T170 349L486 695Q490 700 498 700H556Q562 700 563 696T561 688L316 411Q314 409 316 405L582 12L584 7Q584 0 575 0H517Q509
0 505 6L268 354Q267 356 265 356T262 355L167 254Q165 252 165 249V10Q165 0 155 0H104Q94 0 94 10Z" />
<glyph unicode="L" glyph-name="L" horiz-adv-x="568" d="M94 0T94 10V690Q94 700 104 700H155Q165 700 165 690V66Q165 62 169 62H522Q532 62 532 52V10Q532 0 522 0H104Q94 0 94 10Z" />
<glyph unicode="M" glyph-name="M" horiz-adv-x="715" d="M553 700T560 700H612Q622 700 622 690V10Q622 0 612 0H561Q551 0 551 10V566Q551 569 549 570T546 568L383 318Q378 311 371 311H345Q338 311 333 317L170 565Q169 568 167 567T165 563V10Q165 0 155
0H104Q94 0 94 10V690Q94 700 104 700H156Q164 700 168 694L356 409Q357 408 359 408T362 409L548 693Q553 700 560 700Z" />
<glyph unicode="N" glyph-name="N" horiz-adv-x="676" d="M511 700T521 700H572Q582 700 582 690V10Q582 0 572 0H522Q515 0 510 7L169 562Q168 565 166 565T164 561L165 10Q165 0 155 0H104Q94 0 94 10V690Q94 700 104 700H154Q161 700 166 693L507 138Q508 135
510 135T512 139L511 690Q511 700 521 700Z" />
<glyph unicode="O" glyph-name="O" horiz-adv-x="622" d="M239 -8T185 21T102 102T72 224V476Q72 545 101 597T185 679T310 708Q381 708 435 679T519 598T549 476V224Q549 155 520 103T436 21T310 -8Q239 -8 185 21ZM386 53T432 99T478 221V477Q478 553 432 599T310
646Q235 646 189 600T143 477V221Q143 145 189 99T310 53Q386 53 432 99Z" />
<glyph unicode="P" glyph-name="P" horiz-adv-x="592" d="M448 701T501 647T555 505Q555 418 501 365T357 312H162Q158 312 158 308V10Q158 0 148 0H97Q87 0 87 10V691Q87 701 97 701H360Q448 701 501 647ZM411 371T448 407T485 504Q485 565 448 602T352 639H162Q158
639 158 635V375Q158 371 162 371H352Q411 371 448 407Z" />
<glyph unicode="Q" glyph-name="Q" horiz-adv-x="576" d="M356 708T408 680T489 600T518 482V214Q518 124 467 65T328 -6Q324 -6 324 -10V-105Q324 -115 314 -115H263Q253 -115 253 -105V-10Q253 -6 249 -6Q162 6 110 65T58 214V482Q58 549 86 600T167 679T288
708Q356 708 408 680ZM447 485Q447 557 403 601T288 646Q217 646 173 602T129 485V215Q129 143 173 99T288 54Q359 54 403 98T447 215V485Z" />
<glyph unicode="R" glyph-name="R" horiz-adv-x="612" d="M493 0T490 7L343 317Q342 320 339 320H169Q165 320 165 316V10Q165 0 155 0H104Q94 0 94 10V690Q94 700 104 700H363Q449 700 502 647T555 507Q555 437 517 388T414 325Q410 323 412 320L562 12Q563 10
563 7Q563 0 555 0H502Q493 0 490 7ZM165 638T165 634V381Q165 377 169 377H355Q413 377 449 413T485 507Q485 565 449 601T355 638H169Q165 638 165 634Z" />
<glyph unicode="S" glyph-name="S" horiz-adv-x="584" d="M183 -8T118 43T52 179V210Q52 220 62 220H111Q121 220 121 210V183Q121 125 169 90T302 54Q379 54 419 86T459 173Q459 208 441 233T384 280T275 331Q200 361 159 383T92 441T66 531Q66 615 124 661T285
708Q396 708 460 656T524 518V496Q524 486 514 486H464Q454 486 454 496V514Q454 572 409 609T282 646Q211 646 173 617T135 533Q135 497 153 474T206 433T313 387Q386 357 430 331T502 268T530 176Q530 92 468 42T296 -8Q183 -8 118 43Z" />
<glyph unicode="T" glyph-name="T" horiz-adv-x="569" d="M526 700T526 690V647Q526 637 516 637H320Q316 637 316 633V10Q316 0 306 0H255Q245 0 245 10V633Q245 637 241 637H53Q43 637 43 647V690Q43 700 53 700H516Q526 700 526 690Z" />
<glyph unicode="U" glyph-name="U" horiz-adv-x="648" d="M254 -8T200 20T116 98T86 216V690Q86 700 96 700H147Q157 700 157 690V214Q157 143 203 99T324 54Q399 54 445 98T491 214V690Q491 700 501 700H552Q562 700 562 690V216Q562 149 533 99T449 20T324 -8Q254
-8 200 20Z" />
<glyph unicode="V" glyph-name="V" horiz-adv-x="589" d="M257 0T254 8L36 689L35 693Q35 700 44 700H98Q107 700 110 692L292 106Q293 104 295 104T298 106L480 692Q483 700 492 700H545Q556 700 553 689L333 8Q330 0 321 0H266Q257 0 254 8Z" />
<glyph unicode="W" glyph-name="W" horiz-adv-x="878" d="M223 0T220 8L28 689L27 692Q27 700 37 700H90Q99 700 101 692L253 144Q254 142 255 142T258 144L399 691Q401 700 410 700H464Q473 700 475 691L622 144Q623 142 624 142T627 144L779 692Q781 700 790
700H841Q846 700 848 697T850 689L661 8Q659 0 650 0H597Q588 0 586 9L440 569Q439 571 438 571T435 569L292 9Q291 0 281 0H231Q223 0 220 8Z" />
<glyph unicode="X" glyph-name="X" horiz-adv-x="589" d="M40 0T39 3T40 12L250 347Q252 350 250 353L40 688Q38 692 38 694Q38 700 46 700H102Q109 700 114 693L292 408Q293 407 295 407T298 408L475 693Q480 700 487 700H542Q548 700 549 697T548 688L339 352Q338
349 339 346L548 12Q550 8 550 6Q550 0 542 0H487Q480 0 475 7L298 291Q297 293 295 293T292 291L114 7Q109 0 102 0H46Q40 0 39 3Z" />
<glyph unicode="Y" glyph-name="Y" horiz-adv-x="567" d="M248 1T248 11V307Q248 311 247 312L39 688Q37 692 37 694Q37 700 46 700H100Q109 700 112 693L280 388Q281 387 283 387T286 388L455 693Q459 700 467 700H521Q527 700 529 697T528 688L320 312Q319 311
319 307V11Q319 1 309 1H258Q248 1 248 11Z" />
<glyph unicode="Z" glyph-name="Z" horiz-adv-x="549" d="M45 0T45 10V58Q45 63 49 71L415 633Q416 634 415 636T412 638H55Q45 638 45 648V690Q45 700 55 700H486Q496 700 496 690V642Q496 637 492 629L127 67Q126 66 127 64T130 62H486Q496 62 496 52V10Q496
0 486 0H55Q45 0 45 10Z" />
<glyph unicode="[" glyph-name="bracketleft" horiz-adv-x="380" d="M32 -121T32 -111V764Q32 774 42 774H235Q245 774 245 764V722Q245 712 235 712H107Q103 712 103 708V-55Q103 -59 107 -59H236Q246 -59 246 -69V-111Q246 -121 236 -121H42Q32 -121 32 -111Z" />
<glyph unicode="\" glyph-name="backslash" horiz-adv-x="400" d="M369 7Q369 0 360 0H310Q301 0 298 8L76 689L75 693Q75 700 84 700H134Q143 700 146 692L368 11L369 7Z" />
<glyph unicode="]" glyph-name="bracketright" horiz-adv-x="380" d="M347 -121T337 -121H144Q134 -121 134 -111V-69Q134 -59 144 -59H272Q276 -59 276 -55V708Q276 712 272 712H145Q135 712 135 722V764Q135 774 145 774H337Q347 774 347 764V-111Q347 -121 337 -121Z" />
<glyph unicode="^" glyph-name="asciicircum" horiz-adv-x="450" d="M46 307T44 310T44 319L190 692Q193 700 201 700H248Q256 700 259 692L406 319Q407 317 407 314Q407 307 399 307H357Q349 307 346 315L228 623Q227 626 225 626T222 623L104 315Q101 307 93
307H51Q46 307 44 310Z" />
<glyph unicode="_" glyph-name="underscore" horiz-adv-x="484" d="M29 0T29 10V47Q29 57 39 57H445Q455 57 455 47V10Q455 0 445 0H39Q29 0 29 10Z" />
<glyph unicode="`" glyph-name="grave" horiz-adv-x="195" d="M162 580T162 578Q162 572 153 572H117Q110 572 105 579L37 688Q35 692 35 694Q35 700 43 700H88Q97 700 100 693L160 584Q162 580 162 578Z" />
<glyph unicode="a" glyph-name="a" horiz-adv-x="511" d="M345 514T394 468T443 346V10Q443 0 433 0H382Q372 0 372 10V51Q372 53 371 54T367 53Q342 23 302 8T213 -8Q142 -8 94 28T46 138Q46 213 100 256T252 300H368Q372 300 372 304V342Q372 393 344 422T255
452Q207 452 177 434T140 382Q137 372 128 373L74 380Q63 382 65 388Q73 444 125 479T255 514Q345 514 394 468ZM286 53T329 82T372 162V240Q372 244 368 244H263Q197 244 157 217T117 142Q117 98 147 76T227 53Q286 53 329 82Z" />
<glyph unicode="b" glyph-name="b" horiz-adv-x="546" d="M481 332T481 253Q481 171 467 126Q448 64 401 28T284 -8Q244 -8 211 8T156 54Q155 56 153 56T151 53V10Q151 0 141 0H90Q80 0 80 10V690Q80 700 90 700H141Q151 700 151 690V454Q151 452 152 452T156
453Q178 482 211 498T284 514Q355 514 403 478T469 377Q481 332 481 253ZM402 153T406 179T410 253Q410 302 405 329T387 379Q374 412 345 432T276 452Q238 452 211 432T171 377Q161 356 157 329T152 253Q152 205 156 179T170 131Q183 96 210 75T277 54Q319 54
349 75T392 132Q402 153 406 179Z" />
<glyph unicode="c" glyph-name="c" horiz-adv-x="520" d="M199 -8T148 29T77 131Q64 175 64 255Q64 327 77 377Q95 439 147 476T271 514Q344 514 397 477T467 385Q472 367 473 355V353Q473 346 464 344L414 337H412Q405 337 403 346L400 361Q391 399 356 425T271
452Q221 452 188 426T144 355Q135 317 135 254Q135 188 144 152Q154 107 187 81T271 54Q320 54 355 79T400 145V149L401 153Q402 163 413 161L462 153Q472 151 471 142L467 122Q452 64 398 28T271 -8Q199 -8 148 29Z" />
<glyph unicode="d" glyph-name="d" horiz-adv-x="546" d="M394 700T404 700H455Q465 700 465 690V10Q465 0 455 0H404Q394 0 394 10V52Q394 54 393 54T389 53Q367 24 335 8T262 -8Q192 -8 145 28T79 126Q65 171 65 253Q65 336 77 377Q95 441 143 477T262 514Q301
514 334 499T389 454Q391 452 392 452T394 455V690Q394 700 404 700ZM385 151T389 178T393 253Q393 301 389 328T375 377Q363 411 336 431T270 452Q230 452 201 432T159 379Q147 357 142 330T136 253Q136 206 140 180T154 132Q166 96 196 75T269 54Q309 54 336
75T376 131Q385 151 389 178Z" />
<glyph unicode="e" glyph-name="e" horiz-adv-x="533" d="M472 310T472 268V236Q472 226 462 226H139Q135 226 135 222Q137 167 141 151Q152 106 188 80T280 54Q322 54 354 73T404 127Q410 136 418 131L457 108Q465 103 461 94Q436 46 386 19T271 -9Q200 -8 152
25T83 117Q65 165 65 255Q65 297 66 323T74 371Q91 436 142 475T267 514Q358 514 407 468T468 338Q472 310 472 268ZM218 452T186 427T143 358Q137 337 135 290Q135 286 139 286H398Q402 286 402 290Q400 335 396 354Q385 399 352 425T267 452Q218 452 186 427Z"
/>
<glyph unicode="f" glyph-name="f" horiz-adv-x="356" d="M225 638T205 614T185 530V510Q185 506 189 506H301Q311 506 311 496V451Q311 441 301 441H189Q185 441 185 437V10Q185 0 175 0H125Q115 0 115 10V437Q115 441 111 441H44Q34 441 34 451V496Q34 506 44
506H111Q115 506 115 510V534Q115 596 129 631T177 683T274 700H303Q313 700 313 690V648Q313 638 303 638H280Q225 638 205 614Z" />
<glyph unicode="g" glyph-name="g" horiz-adv-x="535" d="M392 506T402 506H453Q463 506 463 496V17Q463 -95 399 -147T221 -199Q198 -199 186 -198Q176 -197 176 -187L178 -141Q178 -136 181 -134T188 -132L215 -133Q308 -133 350 -97T392 19V56Q392 58 391 58T387
57Q341 -3 256 -3Q191 -3 141 32T73 131Q61 172 61 253Q61 297 63 327T74 381Q92 441 139 477T252 514Q341 514 387 455Q389 453 390 454T392 457V496Q392 506 402 506ZM390 168T391 190T392 254Q392 305 391 322T386 355Q378 397 347 424T267 452Q220 452 188
425T142 355Q132 323 132 255Q132 182 142 154Q152 112 185 85T267 57Q316 57 347 84T387 153Q390 168 391 190Z" />
<glyph unicode="h" glyph-name="h" horiz-adv-x="539" d="M370 513T417 466T465 340V10Q465 0 455 0H404Q394 0 394 10V326Q394 381 361 416T274 451Q219 451 185 417T151 328V10Q151 0 141 0H90Q80 0 80 10V690Q80 700 90 700H141Q151 700 151 690V453Q151 451
152 450T155 451Q199 513 290 513Q370 513 417 466Z" />
<glyph unicode="i" glyph-name="i" horiz-adv-x="255" d="M104 598T88 614T72 654Q72 679 88 694T128 710Q152 710 168 695T184 654Q184 630 168 614T128 598Q104 598 88 614ZM90 1T90 11V497Q90 507 100 507H151Q161 507 161 497V11Q161 1 151 1H100Q90 1 90 11Z" />
<glyph unicode="j" glyph-name="j" horiz-adv-x="245" d="M93 598T78 614T62 654Q62 679 77 694T118 710Q142 710 158 695T174 654Q174 630 158 614T118 598Q93 598 78 614ZM-35 -208T-35 -198V-157Q-35 -147 -25 -147Q82 -146 82 -44V496Q82 506 92 506H143Q153
506 153 496V-44Q153 -129 111 -168T-25 -208Q-35 -208 -35 -198Z" />
<glyph unicode="k" glyph-name="k" horiz-adv-x="501" d="M80 0T80 10V690Q80 700 90 700H141Q151 700 151 690V281Q151 279 152 278T156 279L368 501Q373 506 380 506H440Q446 506 448 502T446 494L318 352Q316 350 317 347L470 12L471 8Q471 0 462 0H408Q400
0 397 8L268 300Q266 304 263 301L153 185Q151 183 151 180V10Q151 0 141 0H90Q80 0 80 10Z" />
<glyph unicode="l" glyph-name="l" horiz-adv-x="230" d="M80 0T80 10V690Q80 700 90 700H141Q151 700 151 690V10Q151 0 141 0H90Q80 0 80 10Z" />
<glyph unicode="m" glyph-name="m" horiz-adv-x="827" d="M667 513T710 468T754 345V10Q754 0 744 0H694Q684 0 684 10V331Q684 386 653 418T570 451Q517 451 485 419T452 333V10Q452 0 442 0H391Q381 0 381 10V331Q381 386 350 418T267 451Q214 451 183 419T151
333V10Q151 0 141 0H90Q80 0 80 10V496Q80 506 90 506H141Q151 506 151 496V456Q151 454 152 454T156 455Q178 484 212 498T289 513Q341 513 378 492T434 431Q436 426 439 431Q461 472 501 492T592 513Q667 513 710 468Z" />
<glyph unicode="n" glyph-name="n" horiz-adv-x="539" d="M370 513T417 466T465 340V10Q465 0 455 0H404Q394 0 394 10V326Q394 381 361 416T274 451Q219 451 185 417T151 328V10Q151 0 141 0H90Q80 0 80 10V496Q80 506 90 506H141Q151 506 151 496V453Q151 451
152 450T155 451Q199 513 290 513Q370 513 417 466Z" />
<glyph unicode="o" glyph-name="o" horiz-adv-x="545" d="M201 -8T149 29T77 131Q63 177 63 254Q63 331 77 376Q96 440 148 477T274 514Q345 514 396 477T467 377Q481 334 481 254Q481 173 467 131Q448 66 397 29T273 -8Q201 -8 149 29ZM321 54T355 80T401 152Q410
188 410 253Q410 319 402 354Q390 399 356 425T272 452Q223 452 189 426T143 354Q135 319 135 253Q135 187 143 152Q154 107 188 81T273 54Q321 54 355 80Z" />
<glyph unicode="p" glyph-name="p" horiz-adv-x="552" d="M488 332T488 253Q488 173 475 129Q457 65 410 29T290 -8Q251 -8 218 7T163 52Q161 54 160 54T158 51V-184Q158 -194 148 -194H97Q87 -194 87 -184V496Q87 506 97 506H148Q158 506 158 496V454Q158 452
159 452T163 453Q185 482 217 498T290 514Q360 514 407 478T473 380Q488 332 488 253ZM405 149T410 176T416 253Q416 300 412 326T398 374Q386 410 356 431T283 452Q243 452 216 431T176 375Q167 355 163 328T159 253Q159 205 163 178T177 129Q189 95 216 75T282
54Q322 54 351 74T394 127Q405 149 410 176Z" />
<glyph unicode="q" glyph-name="q" horiz-adv-x="552" d="M394 506T404 506H455Q465 506 465 496V-184Q465 -194 455 -194H404Q394 -194 394 -184V51Q394 53 393 53T389 52Q367 23 334 8T262 -8Q191 -8 143 28T77 129Q65 170 65 253Q65 335 79 380Q97 442 144
478T262 514Q302 514 334 498T389 453Q391 451 392 451T394 454V496Q394 506 404 506ZM385 150T389 177T393 253Q393 301 389 328T376 375Q363 410 336 431T269 452Q227 452 197 431T154 374Q144 353 140 327T136 253Q136 204 141 177T159 127Q172 94 201 74T270
54Q308 54 335 74T375 129Q385 150 389 177Z" />
<glyph unicode="r" glyph-name="r" horiz-adv-x="364" d="M317 511T341 498Q349 494 347 485L336 436Q333 426 323 430Q306 437 284 437L271 436Q219 434 185 398T151 305V10Q151 0 141 0H90Q80 0 80 10V496Q80 506 90 506H141Q151 506 151 496V435Q151 432 152
432T155 433Q176 470 208 490T284 511Q317 511 341 498Z" />
<glyph unicode="s" glyph-name="s" horiz-adv-x="481" d="M190 -5T147 13T80 61T56 128V140Q56 150 66 150H114Q124 150 124 140V132Q124 99 158 75T245 50Q297 50 329 73T361 133Q361 158 345 174T306 199T236 222Q180 238 144 254T84 298T59 371Q59 435 109
473T241 511Q296 511 338 493T404 444T427 373V370Q427 360 417 360H370Q360 360 360 370V373Q360 407 328 430T240 453Q189 453 158 433T127 376Q127 342 157 324T250 288Q308 271 344 256T406 213T432 138Q432 73 381 34T246 -5Q190 -5 147 13Z" />
<glyph unicode="t" glyph-name="t" horiz-adv-x="364" d="M307 447T297 447H184Q180 447 180 443V148Q180 100 201 81T269 61H294Q304 61 304 51V10Q304 0 294 0Q282 -1 257 -1Q185 -1 148 26T111 126V443Q111 447 107 447H46Q36 447 36 457V496Q36 506 46 506H107Q111
506 111 510V626Q111 636 121 636H170Q180 636 180 626V510Q180 506 184 506H297Q307 506 307 496V457Q307 447 297 447Z" />
<glyph unicode="u" glyph-name="u" horiz-adv-x="536" d="M386 506T396 506H447Q457 506 457 496V10Q457 0 447 0H396Q386 0 386 10V53Q386 55 384 56T381 55Q339 -7 248 -7Q200 -7 160 12T96 69T72 158V496Q72 506 82 506H133Q143 506 143 496V179Q143 122 175
89T262 55Q319 55 352 89T386 179V496Q386 506 396 506Z" />
<glyph unicode="v" glyph-name="v" horiz-adv-x="475" d="M200 0T197 8L33 495L32 499Q32 506 41 506H98Q107 506 110 498L235 106Q236 104 238 104T241 106L366 498Q369 506 378 506L435 505Q446 505 443 494L279 8Q276 0 267 0H209Q200 0 197 8Z" />
<glyph unicode="w" glyph-name="w" horiz-adv-x="721" d="M177 0T174 8L32 495L31 498Q31 506 41 506H93Q102 506 104 497L210 103Q211 101 212 101T215 103L323 497Q325 506 334 506H382Q391 506 393 498L502 104Q503 102 505 102T508 104L617 497Q619 506 628
506L680 505Q685 505 687 502T689 494L545 8Q542 0 534 0H481Q473 0 470 8L361 382Q360 384 359 384T356 382L250 8Q247 0 239 0H185Q177 0 174 8Z" />
<glyph unicode="x" glyph-name="x" horiz-adv-x="477" d="M31 0T29 4T30 12L197 250Q199 253 197 256L30 494Q28 496 28 499Q28 506 37 506H91Q99 506 103 500L234 311Q235 310 237 310T240 311L370 500Q374 506 382 506H441Q447 506 449 503T447 494L280 256Q279
253 280 250L447 12Q449 10 449 6Q449 4 447 2T441 0H386Q378 0 374 6L244 195Q243 197 241 197T238 195L106 6Q102 0 94 0H37Q31 0 29 4Z" />
<glyph unicode="y" glyph-name="y" horiz-adv-x="461" d="M50 -200T50 -190V-150Q50 -140 60 -140H64Q103 -139 124 -129T161 -90T195 -3Q197 1 195 3L26 495L25 499Q25 506 34 506H87Q96 506 99 498L229 94Q230 92 232 92T235 94L363 498Q366 506 375 506H427Q438
506 435 495L250 -44Q226 -111 205 -143T153 -187T64 -200H57Q50 -200 50 -190Z" />
<glyph unicode="z" glyph-name="z" horiz-adv-x="445" d="M34 0T34 10V58Q34 65 38 70L322 436Q324 438 323 439T320 441H48Q38 441 38 451V496Q38 506 48 506H399Q409 506 409 496V448Q409 441 405 436L118 70Q116 68 117 67T120 65H399Q409 65 409 55V10Q409
0 399 0H44Q34 0 34 10Z" />
<glyph unicode="{" glyph-name="braceleft" horiz-adv-x="302" d="M144 -121T119 -94T94 -7V210Q94 253 82 274T41 300Q32 302 32 310V350Q32 359 41 360Q69 364 81 385T94 449V661Q94 719 119 746T197 774H260Q270 774 270 764V722Q270 712 260 712H222Q193 712
179 694T165 638V444Q165 398 154 372T116 332Q111 330 116 327Q142 314 153 288T165 215V16Q165 -59 222 -59H260Q270 -59 270 -69V-111Q270 -121 260 -121H197Q144 -121 119 -94Z" />
<glyph unicode="|" glyph-name="bar" horiz-adv-x="166" d="M47 -80T47 -70V750Q47 760 57 760H108Q118 760 118 750V-70Q118 -80 108 -80H57Q47 -80 47 -70Z" />
<glyph unicode="}" glyph-name="braceright" horiz-adv-x="302" d="M42 -121Q32 -121 32 -111V-69Q32 -59 42 -59H80Q137 -59 137 16V215Q137 261 149 287T187 327Q192 330 187 332Q161 345 149 371T137 444V638Q137 676 123 694T80 712H42Q32 712 32 722V764Q32
774 42 774H105Q158 774 183 747T208 661V449Q208 407 221 386T261 360Q270 359 270 350V310Q270 302 261 300Q234 295 221 274T208 210V-7Q208 -66 183 -93T105 -121H42Z" />
<glyph unicode="~" glyph-name="asciitilde" horiz-adv-x="501" d="M315 231T294 239T243 265Q220 277 203 284T164 291Q115 291 88 250Q86 246 82 245T74 247L46 266Q39 272 43 279Q58 313 90 333T162 354Q187 354 205 348T248 328Q253 325 270 315T306 300T342
294Q364 294 377 304T408 334Q414 342 422 337L454 316Q462 310 458 303Q439 270 411 251T345 231Q315 231 294 239Z" />
<glyph unicode="&#xa0;" glyph-name="uni00A0" horiz-adv-x="200" />
<glyph unicode="&#xa1;" glyph-name="exclamdown" horiz-adv-x="319" d="M182 708T197 692T213 652Q213 627 198 612T157 596Q133 596 118 611T102 652Q102 676 117 692T157 708Q182 708 197 692ZM131 483T141 483H181Q191 483 191 473L197 22Q197 12 187 12H136Q126
12 126 22L131 473Q131 483 141 483Z" />
<glyph unicode="&#xa2;" glyph-name="cent" horiz-adv-x="520" d="M400 239L401 243Q402 253 413 251L462 243Q472 241 471 232L467 212Q453 159 407 125T296 83Q292 83 292 79L293 8Q293 -2 283 -2H239Q229 -2 229 8L230 81Q230 85 226 86Q170 97 132 132T77
221Q64 265 64 345Q64 417 77 467Q92 519 131 554T225 599Q229 600 229 604L228 677Q228 687 238 687H282Q292 687 292 677L291 607Q291 603 295 603Q360 596 406 561T467 475Q472 457 473 445V443Q473 436 464 434L414 427H412Q405 427 403 436L400 451Q391 489
356 515T271 542Q221 542 188 516T144 445Q135 407 135 344Q135 278 144 242Q154 197 187 171T271 144Q320 144 355 169T400 235V239Z" />
<glyph unicode="&#xa3;" glyph-name="sterling" horiz-adv-x="606" d="M207 62T212 62H562Q572 62 572 52V10Q572 0 562 0H134Q124 0 124 10V54Q124 62 131 66Q156 81 170 113T184 187V304Q184 308 180 308H104Q94 308 94 318V357Q94 367 104 367H180Q184 367
184 371V512Q184 604 238 656T387 708Q453 708 498 674T564 575L565 571Q565 565 557 563L508 554H505Q499 554 496 561Q481 605 454 625T385 646Q323 646 289 612T255 513V371Q255 367 259 367H451Q461 367 461 357V318Q461 308 451 308H259Q255 308 255 304V189Q255
110 210 67Q207 62 212 62Z" />
<glyph unicode="&#xa4;" glyph-name="currency" horiz-adv-x="521" d="M456 238T420 189Q418 186 421 183L486 118Q489 115 489 112Q489 108 485 104L453 76Q450 73 447 73Q443 73 439 77L377 139Q374 142 371 140Q321 104 257 104Q196 104 147 137Q144 139 141
136L82 77Q79 74 75 74T68 76L36 104Q29 112 35 118L96 178Q99 181 97 184Q58 235 58 301Q58 365 94 415Q96 418 93 421L29 485Q26 488 26 491Q26 495 30 499L61 527Q64 530 67 530Q71 530 75 526L136 465Q139 462 142 464Q192 500 257 500Q322 500 375 460Q378
458 381 461L446 526Q449 529 453 529T460 527L492 499Q500 492 493 485L424 417Q421 414 423 411Q456 362 456 301Q456 238 420 189ZM120 265T138 234T188 185T257 166Q294 166 325 184T375 233T394 301Q394 338 375 369T325 419T257 438Q220 438 189 420T139
370T120 301Q120 265 138 234Z" />
<glyph unicode="&#xa5;" glyph-name="yen" horiz-adv-x="688" d="M589 700T591 697T590 688L400 344Q399 342 399 341T402 339H519Q529 339 529 329V306Q529 296 519 296H385Q381 296 381 292V210Q381 206 385 206H519Q529 206 529 196V172Q529 162 519 162H385Q381
162 381 158V11Q381 1 371 1H320Q310 1 310 11V158Q310 162 306 162H167Q157 162 157 172V196Q157 206 167 206H306Q310 206 310 210V292Q310 296 306 296H167Q157 296 157 306V329Q157 339 167 339H289Q291 339 291 340T291 344L101 688Q99 692 99 694Q99 700
108 700H162Q171 700 174 693L342 388Q343 387 345 387T348 388L517 693Q521 700 529 700H583Q589 700 591 697Z" />
<glyph unicode="&#xa6;" glyph-name="brokenbar" horiz-adv-x="166" d="M47 398T47 408V750Q47 760 57 760H108Q118 760 118 750V408Q118 398 108 398H57Q47 398 47 408ZM47 -80T47 -70V272Q47 282 57 282H108Q118 282 118 272V-70Q118 -80 108 -80H57Q47 -80 47 -70Z" />
<glyph unicode="&#xa7;" glyph-name="section" horiz-adv-x="453" d="M151 -207T108 -163T63 -44L62 -21Q62 -11 72 -11H123Q133 -11 133 -21V-34Q134 -86 159 -116T227 -146Q268 -146 295 -116T322 -43Q322 -7 304 15T261 49T194 75Q150 90 122 107T75 155Q52
193 52 243Q52 298 79 340Q109 385 159 398Q162 399 162 400T159 402Q116 420 88 459T60 549Q60 591 81 627T140 685T227 707Q298 707 343 663T391 548V531Q391 521 381 521H330Q320 521 320 531V542Q320 587 294 616T227 646Q185 646 158 615T131 541Q131 497
163 470T254 424Q287 414 315 400T364 360Q398 319 398 255Q398 197 373 157Q360 134 341 119T297 98Q292 97 296 94Q342 74 368 38T394 -49Q394 -94 372 -130T312 -186T224 -207Q151 -207 108 -163ZM284 138T311 182Q327 208 327 248Q327 294 306 321Q276 359
226 359Q199 359 176 345T139 307Q123 278 123 245Q123 206 139 183Q168 138 225 138Q284 138 311 182Z" />
<glyph unicode="&#xa8;" glyph-name="dieresis" horiz-adv-x="341" d="M231 601T216 617T200 657Q200 682 215 697T256 713Q280 713 296 698T312 657Q312 633 296 617T256 601Q231 601 216 617ZM60 601T45 617T29 657Q29 682 44 697T85 713Q109 713 125 698T141
657Q141 633 125 617T85 601Q60 601 45 617Z" />
<glyph unicode="&#xa9;" glyph-name="copyright" horiz-adv-x="869" d="M331 -8T249 38T119 167T72 350Q72 451 119 533T248 661T434 708Q537 708 620 662T749 533T796 350Q796 249 750 167T620 39T434 -8Q331 -8 249 38ZM522 43T592 83T703 193T743 349Q743 436
703 506T593 617T434 657Q345 657 275 617T165 507T125 349Q125 263 164 193T274 83T434 43Q522 43 592 83ZM385 171T355 199T325 274V427Q325 474 355 501T435 529Q485 529 515 502T545 430V429Q545 419 535 419L511 420Q501 420 501 430V431Q501 458 483 474T435
491Q405 491 387 475T369 431V269Q369 242 387 226T435 209Q464 209 482 225T501 269V270Q501 280 511 280L535 281Q545 281 545 271Q545 226 515 199T435 171Q385 171 355 199Z" />
<glyph unicode="&#xaa;" glyph-name="ordfeminine" horiz-adv-x="324" d="M234 564Q238 564 238 568V592Q238 627 218 648T157 669Q127 669 107 657T81 623Q78 614 69 615L45 618Q35 620 36 629Q43 664 76 686T158 708Q216 708 249 678T283 597V379Q283 369 273
369H248Q238 369 238 379V400Q238 402 237 403T233 402Q202 363 134 363Q85 363 54 386T23 456Q23 506 60 535T160 564H234ZM181 400T209 420T238 475V523Q238 527 234 527H164Q120 527 94 510T68 460Q68 430 88 415T141 400Q181 400 209 420ZM23 300T33 300H281Q291
300 291 290V258Q291 248 281 248H33Q23 248 23 258V290Q23 300 33 300Z" />
<glyph unicode="&#xab;" glyph-name="guillemotleft" horiz-adv-x="540" d="M283 117T283 113Q283 107 275 107H226Q218 107 213 113L88 274Q86 277 86 281T88 288L213 449Q218 455 226 455H275Q281 455 283 452T281 443L156 284Q155 281 156 278L281 119Q283
117 283 113ZM441 117T441 113Q441 111 439 109T433 107H384Q376 107 371 113L246 274Q244 277 244 281T246 288L371 449Q376 455 384 455H433Q439 455 441 452T439 443L315 284Q314 281 315 278L439 119Q441 117 441 113Z" />
<glyph unicode="&#xac;" glyph-name="logicalnot" horiz-adv-x="500" d="M39 344T49 344H451Q461 344 461 334V172Q461 162 451 162H408Q398 162 398 172V278Q398 282 394 282H49Q39 282 39 292V334Q39 344 49 344Z" />
<glyph unicode="&#xad;" glyph-name="uni00AD" horiz-adv-x="394" d="M39 280T39 290V332Q39 342 49 342H345Q355 342 355 332V290Q355 280 345 280H49Q39 280 39 290Z" />
<glyph unicode="&#xae;" glyph-name="registered" horiz-adv-x="451" d="M280 714T325 688T396 618T422 520Q422 466 396 421T325 350T226 324Q172 324 127 350T55 421T29 520Q29 573 55 617T127 688T226 714Q280 714 325 688ZM270 361T306 382T364 439T385 520Q385
563 364 599T307 656T226 677Q182 677 146 656T88 599T67 520Q67 476 88 440T145 382T226 361Q270 361 306 382ZM289 539T282 527T263 510Q259 507 260 504L286 441L287 437Q287 429 278 429H265Q257 429 254 437L229 501Q228 504 225 504H209Q205 504 205 500V439Q205
429 195 429H184Q174 429 174 439V598Q174 608 184 608H237Q260 608 274 593T289 555Q289 539 282 527ZM205 581T205 577V532Q205 528 209 528H232Q244 528 251 535T258 554Q258 567 251 574T232 581H209Q205 581 205 577Z" />
<glyph unicode="&#xaf;" glyph-name="overscore" horiz-adv-x="269" d="M0 594T0 604V635Q0 645 10 645H259Q269 645 269 635V604Q269 594 259 594H10Q0 594 0 604Z" />
<glyph unicode="&#xb0;" glyph-name="degree" horiz-adv-x="381" d="M146 487T109 508T51 566T29 648Q29 692 50 729T109 787T190 808Q235 808 272 787T330 729T352 648Q352 603 331 566T272 508T190 487Q146 487 109 508ZM237 537T269 569T301 648Q301 695 269
727T190 759Q144 759 112 727T79 648Q79 601 111 569T190 537Q237 537 269 569Z" />
<glyph unicode="&#xb1;" glyph-name="plusminus" horiz-adv-x="500" d="M461 383T461 373V331Q461 321 451 321H285Q281 321 281 317V155Q281 145 271 145H229Q219 145 219 155V317Q219 321 215 321H49Q39 321 39 331V373Q39 383 49 383H215Q219 383 219 387V557Q219
567 229 567H271Q281 567 281 557V387Q281 383 285 383H451Q461 383 461 373ZM39 0T39 10V52Q39 62 49 62H451Q461 62 461 52V10Q461 0 451 0H49Q39 0 39 10Z" />
<glyph unicode="&#xb2;" glyph-name="uni00B2" horiz-adv-x="326" d="M36 442T36 452V479Q36 486 41 491Q85 542 157 629L174 650Q231 718 231 757Q231 786 211 804T157 822Q125 822 105 804T86 756V742Q86 732 76 732H45Q35 732 35 742V763Q36 810 70 838T157
867Q213 867 247 836T281 758Q281 708 227 637Q164 556 106 491Q103 486 108 486H284Q294 486 294 476V452Q294 442 284 442H46Q36 442 36 452Z" />
<glyph unicode="&#xb3;" glyph-name="uni00B3" horiz-adv-x="322" d="M284 616T284 570Q284 529 270 499Q256 468 228 452T160 435Q118 435 88 457T44 517Q39 530 37 559Q37 569 47 569H78Q88 569 88 559Q90 538 92 532Q97 509 115 495T160 480Q203 480 221 515Q233
538 233 571Q233 610 220 633Q202 668 160 668Q149 668 141 664Q139 663 136 663Q131 663 127 667L113 685Q110 688 110 692T113 699L214 811Q215 813 214 814T211 816H51Q41 816 41 826V850Q41 860 51 860H271Q281 860 281 850V823Q281 818 276 811L186 706Q183
703 189 701Q245 695 269 646Q284 616 284 570Z" />
<glyph unicode="&#xb4;" glyph-name="acute" horiz-adv-x="195" d="M36 572T34 575T35 584L95 693Q98 700 107 700H152Q158 700 159 697T158 688L90 579Q85 572 78 572H42Q36 572 34 575Z" />
<glyph unicode="&#xb5;" glyph-name="uni00B5" horiz-adv-x="546" d="M393 506T403 506H454Q464 506 464 496V10Q464 0 454 0H403Q393 0 393 10V53Q393 55 391 56T388 55Q346 -7 256 -7Q200 -7 156 18Q154 19 153 18T151 15V-190Q151 -200 141 -200H90Q80 -200
80 -190V496Q80 506 90 506H141Q151 506 151 496V160Q156 111 187 83T269 55Q326 55 359 89T393 179V496Q393 506 403 506Z" />
<glyph unicode="&#xb6;" glyph-name="paragraph" horiz-adv-x="577" d="M475 700Q485 700 485 690V-190Q485 -200 475 -200H441Q431 -200 431 -190V643Q431 647 427 647H299Q295 647 295 643V-190Q295 -200 285 -200H250Q240 -200 240 -190V246Q240 250 236 250Q179
253 134 283T62 364T36 475Q36 538 64 589T142 670T254 700H475Z" />
<glyph unicode="&#xb7;" glyph-name="middot" horiz-adv-x="210" d="M81 222T66 238T50 278Q50 303 65 318T106 334Q130 334 146 319T162 278Q162 254 146 238T106 222Q81 222 66 238Z" />
<glyph unicode="&#xb8;" glyph-name="cedilla" horiz-adv-x="140" d="M1 -178T2 -169L6 -146Q7 -141 10 -140T18 -139Q30 -142 40 -142Q58 -142 70 -133T87 -106Q88 -102 88 -94Q88 -55 38 -12Q34 -9 34 -5Q34 0 42 0H68Q76 0 81 -4Q140 -52 140 -105Q140 -119
138 -126Q130 -158 106 -172T50 -186Q29 -186 9 -181Q1 -178 2 -169Z" />
<glyph unicode="&#xb9;" glyph-name="uni00B9" horiz-adv-x="184" d="M87 862T94 862H129Q139 862 139 852V452Q139 442 129 442H98Q88 442 88 452V810Q88 813 84 813L34 804H32Q23 804 23 813V831Q23 840 31 843L82 860Q87 862 94 862Z" />
<glyph unicode="&#xba;" glyph-name="ordmasculine" horiz-adv-x="349" d="M129 367T97 391T50 458Q40 489 40 538Q40 587 49 618Q62 660 95 684T175 708Q220 708 252 684T298 618Q307 590 307 539Q307 486 298 458Q285 416 253 392T175 367Q129 367 97 391ZM204
410T224 427T252 472Q258 491 258 538Q258 584 253 603Q245 632 225 648T174 665Q144 665 124 649T96 603Q90 581 90 538Q90 495 96 472Q103 443 124 427T175 410Q204 410 224 427ZM32 248T32 258V292Q32 302 42 302H307Q317 302 317 292V258Q317 248 307 248H42Q32
248 32 258Z" />
<glyph unicode="&#xbb;" glyph-name="guillemotright" horiz-adv-x="540" d="M104 107T102 110T104 119L228 278Q230 281 228 284L104 443Q102 445 102 449Q102 451 104 453T110 455H158Q167 455 171 449L297 288Q299 285 299 281T297 274L171 113Q167 107 158
107H110Q104 107 102 110ZM262 107T260 110T262 119L386 278Q388 281 386 284L262 443Q260 445 260 449Q260 451 262 453T268 455H316Q325 455 329 449L455 288Q457 285 457 281T455 274L329 113Q325 107 316 107H268Q262 107 260 110Z" />
<glyph unicode="&#xbc;" glyph-name="onequarter" horiz-adv-x="806" d="M87 700T94 700H129Q139 700 139 690V290Q139 280 129 280H98Q88 280 88 290V648Q88 651 84 651L34 642H32Q23 642 23 651V669Q23 678 31 681L82 698Q87 700 94 700ZM107 0T106 3T107 12L533
693Q538 700 545 700H578Q584 700 585 697T584 688L159 7Q154 0 147 0H113Q107 0 106 3ZM760 159T760 149V123Q760 113 750 113H730Q726 113 726 109V10Q726 0 716 0H685Q675 0 675 10V109Q675 113 671 113H496Q486 113 486 123V146Q486 151 489 158L606 413Q609
420 617 420H649Q654 420 656 417T657 408L545 164Q544 162 545 161T548 159H671Q675 159 675 163V251Q675 261 685 261H716Q726 261 726 251V163Q726 159 730 159H750Q760 159 760 149Z" />
<glyph unicode="&#xbd;" glyph-name="onehalf" horiz-adv-x="796" d="M87 700T94 700H129Q139 700 139 690V290Q139 280 129 280H98Q88 280 88 290V648Q88 651 84 651L34 642H32Q23 642 23 651V669Q23 678 31 681L82 698Q87 700 94 700ZM107 0T106 3T107 12L533
693Q538 700 545 700H578Q584 700 585 697T584 688L159 7Q154 0 147 0H113Q107 0 106 3ZM494 0T494 10V37Q494 44 499 49Q543 100 615 187L632 208Q689 276 689 315Q689 344 669 362T615 380Q583 380 563 362T544 314V300Q544 290 534 290H503Q493 290 493 300V321Q494
368 528 396T615 425Q671 425 705 394T739 316Q739 266 685 195Q622 114 564 49Q561 44 566 44H742Q752 44 752 34V10Q752 0 742 0H504Q494 0 494 10Z" />
<glyph unicode="&#xbe;" glyph-name="threequarters" horiz-adv-x="901" d="M284 462T284 416Q284 375 270 345Q256 314 228 298T160 281Q118 281 88 303T44 363Q39 376 37 405Q37 415 47 415H78Q88 415 88 405Q90 384 92 378Q97 355 115 341T160 326Q203 326
221 361Q233 384 233 417Q233 456 220 479Q202 514 160 514Q149 514 141 510Q139 509 136 509Q131 509 127 513L113 531Q110 534 110 538T113 545L214 657Q215 659 214 660T211 662H51Q41 662 41 672V696Q41 706 51 706H271Q281 706 281 696V669Q281 664 276 657L186
552Q183 549 189 547Q245 541 269 492Q284 462 284 416ZM206 0T205 3T206 12L632 693Q637 700 644 700H677Q683 700 684 697T683 688L258 7Q253 0 246 0H212Q206 0 205 3ZM859 159T859 149V123Q859 113 849 113H829Q825 113 825 109V10Q825 0 815 0H784Q774 0 774
10V109Q774 113 770 113H595Q585 113 585 123V146Q585 151 588 158L705 413Q708 420 716 420H748Q753 420 755 417T756 408L644 164Q643 162 644 161T647 159H770Q774 159 774 163V251Q774 261 784 261H815Q825 261 825 251V163Q825 159 829 159H849Q859 159 859
149Z" />
<glyph unicode="&#xbf;" glyph-name="questiondown" horiz-adv-x="461" d="M274 498T289 482T305 442Q305 417 290 402T249 386Q225 386 209 401T193 442Q193 466 209 482T249 498Q274 498 289 482ZM284 300T284 290V231Q284 188 263 161T199 100Q170 76 154 60T126
21T114 -33Q114 -83 145 -113T230 -144Q284 -144 317 -113T350 -32V-1Q350 9 360 9L411 6Q421 6 421 -4V-32Q421 -111 368 -160T229 -209Q144 -209 93 -161T42 -33Q42 11 56 43T91 95T144 141Q178 167 195 187T212 235V290Q212 300 222 300H274Q284 300 284 290Z"
/>
<glyph unicode="&#xc0;" glyph-name="Agrave" horiz-adv-x="607" d="M500 0T497 8L457 134Q456 137 453 137H154Q151 137 150 134L110 8Q107 0 98 0H44Q33 0 36 11L257 692Q260 700 269 700H337Q346 700 349 692L571 11L572 7Q572 0 563 0H509Q500 0 497 8ZM169
198T170 197T174 195H432Q434 195 435 196T436 200L306 608Q305 610 303 610T300 608L170 200Q169 198 170 197ZM331 774T331 772Q331 766 322 766H286Q279 766 274 773L206 882Q204 886 204 888Q204 894 212 894H257Q266 894 269 887L329 778Q331 774 331 772Z"
/>
<glyph unicode="&#xc1;" glyph-name="Aacute" horiz-adv-x="607" d="M500 0T497 8L457 134Q456 137 453 137H154Q151 137 150 134L110 8Q107 0 98 0H44Q33 0 36 11L257 692Q260 700 269 700H337Q346 700 349 692L571 11L572 7Q572 0 563 0H509Q500 0 497 8ZM169
198T170 197T174 195H432Q434 195 435 196T436 200L306 608Q305 610 303 610T300 608L170 200Q169 198 170 197ZM263 766T261 769T262 778L322 887Q325 894 334 894H379Q385 894 386 891T385 882L317 773Q312 766 305 766H269Q263 766 261 769Z" />
<glyph unicode="&#xc2;" glyph-name="Acircumflex" horiz-adv-x="607" d="M500 0T497 8L457 134Q456 137 453 137H154Q151 137 150 134L110 8Q107 0 98 0H44Q33 0 36 11L257 692Q260 700 269 700H337Q346 700 349 692L571 11L572 7Q572 0 563 0H509Q500 0 497
8ZM169 198T170 197T174 195H432Q434 195 435 196T436 200L306 608Q305 610 303 610T300 608L170 200Q169 198 170 197ZM179 768T177 771T179 780L259 888Q263 894 272 894H330Q339 894 343 888L424 780Q426 778 426 774Q426 772 424 770T418 768H378Q369 768 365
774L305 856Q304 858 302 858T299 856L238 774Q234 768 225 768H185Q179 768 177 771Z" />
<glyph unicode="&#xc3;" glyph-name="Atilde" horiz-adv-x="607" d="M500 0T497 8L457 134Q456 137 453 137H154Q151 137 150 134L110 8Q107 0 98 0H44Q33 0 36 11L257 692Q260 700 269 700H337Q346 700 349 692L571 11L572 7Q572 0 563 0H509Q500 0 497 8ZM169
198T170 197T174 195H432Q434 195 435 196T436 200L306 608Q305 610 303 610T300 608L170 200Q169 198 170 197ZM346 797T332 803T303 819Q285 830 275 834T253 838Q235 838 223 833T198 813Q192 804 184 811L166 829Q159 836 164 843Q197 892 250 892Q266 892
278 887T301 877T315 869Q319 867 329 861T348 852T365 849Q398 849 418 877Q424 887 432 879L450 862Q457 855 451 847Q437 823 414 810T365 797Q346 797 332 803Z" />
<glyph unicode="&#xc4;" glyph-name="Adieresis" horiz-adv-x="607" d="M500 0T497 8L457 134Q456 137 453 137H154Q151 137 150 134L110 8Q107 0 98 0H44Q33 0 36 11L257 692Q260 700 269 700H337Q346 700 349 692L571 11L572 7Q572 0 563 0H509Q500 0 497 8ZM169
198T170 197T174 195H432Q434 195 435 196T436 200L306 608Q305 610 303 610T300 608L170 200Q169 198 170 197ZM363 795T348 811T332 851Q332 876 347 891T388 907Q412 907 428 892T444 851Q444 827 428 811T388 795Q363 795 348 811ZM192 795T177 811T161 851Q161
876 176 891T217 907Q241 907 257 892T273 851Q273 827 257 811T217 795Q192 795 177 811Z" />
<glyph unicode="&#xc5;" glyph-name="Aring" horiz-adv-x="607" d="M500 0T497 8L457 134Q456 137 453 137H154Q151 137 150 134L110 8Q107 0 98 0H44Q33 0 36 11L257 692Q260 700 269 700H337Q346 700 349 692L571 11L572 7Q572 0 563 0H509Q500 0 497 8ZM169
198T170 197T174 195H432Q434 195 435 196T436 200L306 608Q305 610 303 610T300 608L170 200Q169 198 170 197ZM256 773T225 804T193 881Q193 926 225 957T303 989Q349 989 380 958T412 881Q412 835 381 804T303 773Q256 773 225 804ZM330 816T349 834T369 881Q369
909 350 928T303 947Q275 947 256 928T236 881Q236 853 255 835T303 816Q330 816 349 834Z" />
<glyph unicode="&#xc6;" glyph-name="AE" horiz-adv-x="921" d="M863 638T853 638H512Q508 638 508 634V387Q508 383 512 383H743Q753 383 753 373V331Q753 321 743 321H512Q508 321 508 317V66Q508 62 512 62H853Q863 62 863 52V10Q863 0 853 0H447Q437 0 437
10V133Q437 137 433 137H185Q183 137 181 134L115 7Q112 0 103 0H45Q40 0 38 3T38 12L397 693Q400 700 409 700H853Q863 700 863 690V648Q863 638 853 638ZM213 195T218 195H433Q437 195 437 199V615Q437 618 436 618T432 616L215 200Q213 195 218 195Z" />
<glyph unicode="&#xc7;" glyph-name="Ccedilla" horiz-adv-x="607" d="M542 485T539 483T532 481L481 478Q471 478 471 487V490Q471 561 426 603T307 646Q233 646 188 603T143 490V210Q143 140 188 97T307 54Q381 54 426 96T471 210V212Q471 221 481 221L532 218Q542
218 542 209Q542 144 513 95T430 18T307 -9Q305 -9 310 -14Q358 -55 358 -105Q358 -120 356 -127Q348 -159 324 -173T268 -187Q247 -187 227 -182Q219 -179 220 -170L224 -147Q225 -142 228 -141T236 -140Q248 -143 258 -143Q279 -143 293 -131T307 -96Q307 -73
290 -49T245 -4Q245 -3 240 -1Q162 16 117 73T72 213V488Q72 553 101 603T184 680T307 708Q377 708 430 681T512 605T542 492V487Q542 485 539 483Z" />
<glyph unicode="&#xc8;" glyph-name="Egrave" horiz-adv-x="605" d="M547 638T537 638H169Q165 638 165 634V387Q165 383 169 383H427Q437 383 437 373V331Q437 321 427 321H169Q165 321 165 317V66Q165 62 169 62H537Q547 62 547 52V10Q547 0 537 0H104Q94 0
94 10V690Q94 700 104 700H537Q547 700 547 690V648Q547 638 537 638ZM345 774T345 772Q345 766 336 766H300Q293 766 288 773L220 882Q218 886 218 888Q218 894 226 894H271Q280 894 283 887L343 778Q345 774 345 772Z" />
<glyph unicode="&#xc9;" glyph-name="Eacute" horiz-adv-x="605" d="M547 638T537 638H169Q165 638 165 634V387Q165 383 169 383H427Q437 383 437 373V331Q437 321 427 321H169Q165 321 165 317V66Q165 62 169 62H537Q547 62 547 52V10Q547 0 537 0H104Q94 0
94 10V690Q94 700 104 700H537Q547 700 547 690V648Q547 638 537 638ZM277 766T275 769T276 778L336 887Q339 894 348 894H393Q399 894 400 891T399 882L331 773Q326 766 319 766H283Q277 766 275 769Z" />
<glyph unicode="&#xca;" glyph-name="Ecircumflex" horiz-adv-x="605" d="M547 638T537 638H169Q165 638 165 634V387Q165 383 169 383H427Q437 383 437 373V331Q437 321 427 321H169Q165 321 165 317V66Q165 62 169 62H537Q547 62 547 52V10Q547 0 537 0H104Q94
0 94 10V690Q94 700 104 700H537Q547 700 547 690V648Q547 638 537 638ZM193 768T191 771T193 780L273 888Q277 894 286 894H344Q353 894 357 888L438 780Q440 778 440 774Q440 772 438 770T432 768H392Q383 768 379 774L319 856Q318 858 316 858T313 856L252 774Q248
768 239 768H199Q193 768 191 771Z" />
<glyph unicode="&#xcb;" glyph-name="Edieresis" horiz-adv-x="605" d="M547 638T537 638H169Q165 638 165 634V387Q165 383 169 383H427Q437 383 437 373V331Q437 321 427 321H169Q165 321 165 317V66Q165 62 169 62H537Q547 62 547 52V10Q547 0 537 0H104Q94
0 94 10V690Q94 700 104 700H537Q547 700 547 690V648Q547 638 537 638ZM377 795T362 811T346 851Q346 876 361 891T402 907Q426 907 442 892T458 851Q458 827 442 811T402 795Q377 795 362 811ZM206 795T191 811T175 851Q175 876 190 891T231 907Q255 907 271
892T287 851Q287 827 271 811T231 795Q206 795 191 811Z" />
<glyph unicode="&#xcc;" glyph-name="Igrave" horiz-adv-x="259" d="M94 0T94 10V690Q94 700 104 700H155Q165 700 165 690V10Q165 0 155 0H104Q94 0 94 10ZM158 774T158 772Q158 766 149 766H113Q106 766 101 773L33 882Q31 886 31 888Q31 894 39 894H84Q93 894
96 887L156 778Q158 774 158 772Z" />
<glyph unicode="&#xcd;" glyph-name="Iacute" horiz-adv-x="259" d="M94 0T94 10V690Q94 700 104 700H155Q165 700 165 690V10Q165 0 155 0H104Q94 0 94 10ZM90 766T88 769T89 778L149 887Q152 894 161 894H206Q212 894 213 891T212 882L144 773Q139 766 132 766H96Q90
766 88 769Z" />
<glyph unicode="&#xce;" glyph-name="Icircumflex" horiz-adv-x="259" d="M94 0T94 10V690Q94 700 104 700H155Q165 700 165 690V10Q165 0 155 0H104Q94 0 94 10ZM6 768T4 771T6 780L86 888Q90 894 99 894H157Q166 894 170 888L251 780Q253 778 253 774Q253 772
251 770T245 768H205Q196 768 192 774L132 856Q131 858 129 858T126 856L65 774Q61 768 52 768H12Q6 768 4 771Z" />
<glyph unicode="&#xcf;" glyph-name="Idieresis" horiz-adv-x="259" d="M94 0T94 10V690Q94 700 104 700H155Q165 700 165 690V10Q165 0 155 0H104Q94 0 94 10ZM190 795T175 811T159 851Q159 876 174 891T215 907Q239 907 255 892T271 851Q271 827 255 811T215
795Q190 795 175 811ZM19 795T4 811T-12 851Q-12 876 3 891T44 907Q68 907 84 892T100 851Q100 827 84 811T44 795Q19 795 4 811Z" />
<glyph unicode="&#xd0;" glyph-name="Eth" horiz-adv-x="683" d="M504 700T562 648T621 507V193Q621 104 563 52T405 0H169Q159 0 159 10V334Q159 338 155 338H104Q94 338 94 348V380Q94 390 104 390H155Q159 390 159 394V690Q159 700 169 700H405Q504 700 562
648ZM550 497Q550 562 512 600T408 638H234Q230 638 230 634V394Q230 390 234 390H353Q363 390 363 380V348Q363 338 353 338H234Q230 338 230 334V66Q230 62 234 62H409Q474 62 512 100T550 202V497Z" />
<glyph unicode="&#xd1;" glyph-name="Ntilde" horiz-adv-x="676" d="M511 700T521 700H572Q582 700 582 690V10Q582 0 572 0H522Q515 0 510 7L169 562Q168 565 166 565T164 561L165 10Q165 0 155 0H104Q94 0 94 10V690Q94 700 104 700H154Q161 700 166 693L507
138Q508 135 510 135T512 139L511 690Q511 700 521 700ZM380 797T366 803T337 819Q319 830 309 834T287 838Q269 838 257 833T232 813Q226 804 218 811L200 829Q193 836 198 843Q231 892 284 892Q300 892 312 887T335 877T349 869Q353 867 363 861T382 852T399
849Q432 849 452 877Q458 887 466 879L484 862Q491 855 485 847Q471 823 448 810T399 797Q380 797 366 803Z" />
<glyph unicode="&#xd2;" glyph-name="Ograve" horiz-adv-x="622" d="M239 -8T185 21T102 102T72 224V476Q72 545 101 597T185 679T310 708Q381 708 435 679T519 598T549 476V224Q549 155 520 103T436 21T310 -8Q239 -8 185 21ZM386 53T432 99T478 221V477Q478
553 432 599T310 646Q235 646 189 600T143 477V221Q143 145 189 99T310 53Q386 53 432 99ZM339 774T339 772Q339 766 330 766H294Q287 766 282 773L214 882Q212 886 212 888Q212 894 220 894H265Q274 894 277 887L337 778Q339 774 339 772Z" />
<glyph unicode="&#xd3;" glyph-name="Oacute" horiz-adv-x="622" d="M239 -8T185 21T102 102T72 224V476Q72 545 101 597T185 679T310 708Q381 708 435 679T519 598T549 476V224Q549 155 520 103T436 21T310 -8Q239 -8 185 21ZM386 53T432 99T478 221V477Q478
553 432 599T310 646Q235 646 189 600T143 477V221Q143 145 189 99T310 53Q386 53 432 99ZM271 766T269 769T270 778L330 887Q333 894 342 894H387Q393 894 394 891T393 882L325 773Q320 766 313 766H277Q271 766 269 769Z" />
<glyph unicode="&#xd4;" glyph-name="Ocircumflex" horiz-adv-x="622" d="M239 -8T185 21T102 102T72 224V476Q72 545 101 597T185 679T310 708Q381 708 435 679T519 598T549 476V224Q549 155 520 103T436 21T310 -8Q239 -8 185 21ZM386 53T432 99T478 221V477Q478
553 432 599T310 646Q235 646 189 600T143 477V221Q143 145 189 99T310 53Q386 53 432 99ZM187 768T185 771T187 780L267 888Q271 894 280 894H338Q347 894 351 888L432 780Q434 778 434 774Q434 772 432 770T426 768H386Q377 768 373 774L313 856Q312 858 310
858T307 856L246 774Q242 768 233 768H193Q187 768 185 771Z" />
<glyph unicode="&#xd5;" glyph-name="Otilde" horiz-adv-x="622" d="M239 -8T185 21T102 102T72 224V476Q72 545 101 597T185 679T310 708Q381 708 435 679T519 598T549 476V224Q549 155 520 103T436 21T310 -8Q239 -8 185 21ZM386 53T432 99T478 221V477Q478
553 432 599T310 646Q235 646 189 600T143 477V221Q143 145 189 99T310 53Q386 53 432 99ZM354 797T340 803T311 819Q293 830 283 834T261 838Q243 838 231 833T206 813Q200 804 192 811L174 829Q167 836 172 843Q205 892 258 892Q274 892 286 887T309 877T323
869Q327 867 337 861T356 852T373 849Q406 849 426 877Q432 887 440 879L458 862Q465 855 459 847Q445 823 422 810T373 797Q354 797 340 803Z" />
<glyph unicode="&#xd6;" glyph-name="Odieresis" horiz-adv-x="622" d="M239 -8T185 21T102 102T72 224V476Q72 545 101 597T185 679T310 708Q381 708 435 679T519 598T549 476V224Q549 155 520 103T436 21T310 -8Q239 -8 185 21ZM386 53T432 99T478 221V477Q478
553 432 599T310 646Q235 646 189 600T143 477V221Q143 145 189 99T310 53Q386 53 432 99ZM371 795T356 811T340 851Q340 876 355 891T396 907Q420 907 436 892T452 851Q452 827 436 811T396 795Q371 795 356 811ZM200 795T185 811T169 851Q169 876 184 891T225
907Q249 907 265 892T281 851Q281 827 265 811T225 795Q200 795 185 811Z" />
<glyph unicode="&#xd7;" glyph-name="multiply" horiz-adv-x="422" d="M379 450T379 446T376 439L259 322Q256 319 259 316L374 201Q377 198 377 194T374 187L344 157Q341 154 337 154T330 157L215 272Q212 275 209 272L92 155Q89 152 85 152T78 155L48 184Q45
187 45 191T48 198L166 316Q169 319 166 322L46 442Q43 445 43 449T46 456L75 485Q78 488 82 488T89 485L209 365Q212 362 215 365L333 483Q336 486 340 486T347 483L376 453Q379 450 379 446Z" />
<glyph unicode="&#xd8;" glyph-name="Oslash" horiz-adv-x="622" d="M571 687T566 679L518 606Q517 603 518 600Q550 548 550 476V224Q550 155 520 103T436 21T310 -8Q219 -8 154 41Q151 44 149 40L110 -19Q105 -27 97 -22L58 3Q50 9 54 16L104 93Q106 96 104
99Q73 152 73 224V476Q73 545 102 597T186 679T310 708Q403 708 468 659Q471 656 473 660L511 717Q513 721 517 722T525 720L563 693Q571 687 566 679ZM144 195T150 171Q151 169 153 169T156 171L432 595Q434 598 431 601Q386 646 310 646Q235 646 190 600T144
477V221Q144 195 150 171ZM479 503T473 528Q472 530 471 530T467 528L190 103Q188 100 191 97Q235 53 310 53Q386 53 432 99T479 221V477Q479 503 473 528Z" />
<glyph unicode="&#xd9;" glyph-name="Ugrave" horiz-adv-x="648" d="M254 -8T200 20T116 98T86 216V690Q86 700 96 700H147Q157 700 157 690V214Q157 143 203 99T324 54Q399 54 445 98T491 214V690Q491 700 501 700H552Q562 700 562 690V216Q562 149 533 99T449
20T324 -8Q254 -8 200 20ZM353 774T353 772Q353 766 344 766H308Q301 766 296 773L228 882Q226 886 226 888Q226 894 234 894H279Q288 894 291 887L351 778Q353 774 353 772Z" />
<glyph unicode="&#xda;" glyph-name="Uacute" horiz-adv-x="648" d="M254 -8T200 20T116 98T86 216V690Q86 700 96 700H147Q157 700 157 690V214Q157 143 203 99T324 54Q399 54 445 98T491 214V690Q491 700 501 700H552Q562 700 562 690V216Q562 149 533 99T449
20T324 -8Q254 -8 200 20ZM285 766T283 769T284 778L344 887Q347 894 356 894H401Q407 894 408 891T407 882L339 773Q334 766 327 766H291Q285 766 283 769Z" />
<glyph unicode="&#xdb;" glyph-name="Ucircumflex" horiz-adv-x="648" d="M254 -8T200 20T116 98T86 216V690Q86 700 96 700H147Q157 700 157 690V214Q157 143 203 99T324 54Q399 54 445 98T491 214V690Q491 700 501 700H552Q562 700 562 690V216Q562 149 533
99T449 20T324 -8Q254 -8 200 20ZM201 768T199 771T201 780L281 888Q285 894 294 894H352Q361 894 365 888L446 780Q448 778 448 774Q448 772 446 770T440 768H400Q391 768 387 774L327 856Q326 858 324 858T321 856L260 774Q256 768 247 768H207Q201 768 199 771Z"
/>
<glyph unicode="&#xdc;" glyph-name="Udieresis" horiz-adv-x="648" d="M254 -8T200 20T116 98T86 216V690Q86 700 96 700H147Q157 700 157 690V214Q157 143 203 99T324 54Q399 54 445 98T491 214V690Q491 700 501 700H552Q562 700 562 690V216Q562 149 533 99T449
20T324 -8Q254 -8 200 20ZM384 795T369 811T353 851Q353 876 368 891T409 907Q433 907 449 892T465 851Q465 827 449 811T409 795Q384 795 369 811ZM213 795T198 811T182 851Q182 876 197 891T238 907Q262 907 278 892T294 851Q294 827 278 811T238 795Q213 795
198 811Z" />
<glyph unicode="&#xdd;" glyph-name="Yacute" horiz-adv-x="567" d="M248 1T248 11V307Q248 311 247 312L39 688Q37 692 37 694Q37 700 46 700H100Q109 700 112 693L280 388Q281 387 283 387T286 388L455 693Q459 700 467 700H521Q527 700 529 697T528 688L320
312Q319 311 319 307V11Q319 1 309 1H258Q248 1 248 11ZM244 765T242 768T243 777L303 886Q306 893 315 893H360Q366 893 367 890T366 881L298 772Q293 765 286 765H250Q244 765 242 768Z" />
<glyph unicode="&#xde;" glyph-name="Thorn" horiz-adv-x="567" d="M423 543T477 490T531 349Q531 292 506 249T435 181T333 157H162Q158 157 158 153V10Q158 0 148 0H97Q87 0 87 10V690Q87 700 97 700H148Q158 700 158 690V547Q158 543 162 543H335Q423 543 477
490ZM388 216T424 252T460 348Q460 409 424 445T328 481H162Q158 481 158 477V220Q158 216 162 216H328Q388 216 424 252Z" />
<glyph unicode="&#xdf;" glyph-name="germandbls" horiz-adv-x="557" d="M80 0T80 10V510Q81 603 135 656T283 709Q375 709 430 659T486 522Q486 469 464 432T398 375Q396 374 396 373T398 371Q443 352 468 306T494 197Q494 104 437 52T274 0H212Q202 0 202 10V51Q202
61 212 61H280Q347 61 385 98T423 203Q423 269 389 306T294 344H235Q225 344 225 354V391Q225 401 235 401H293Q351 401 383 432T415 518Q415 578 381 612T285 647Q226 647 189 612T151 515V10Q151 0 141 0H90Q80 0 80 10Z" />
<glyph unicode="&#xe0;" glyph-name="agrave" horiz-adv-x="510" d="M345 514T394 468T443 346V10Q443 0 433 0H382Q372 0 372 10V51Q372 53 371 54T367 53Q342 23 302 8T213 -8Q142 -8 94 28T46 138Q46 213 100 256T252 300H368Q372 300 372 304V342Q372 393
344 422T255 452Q207 452 177 434T140 382Q137 372 128 373L74 380Q63 382 65 388Q73 444 125 479T255 514Q345 514 394 468ZM286 53T329 82T372 162V240Q372 244 368 244H263Q197 244 157 217T117 142Q117 98 147 76T227 53Q286 53 329 82ZM284 580T284 578Q284
572 275 572H239Q232 572 227 579L159 688Q157 692 157 694Q157 700 165 700H210Q219 700 222 693L282 584Q284 580 284 578Z" />
<glyph unicode="&#xe1;" glyph-name="aacute" horiz-adv-x="510" d="M345 514T394 468T443 346V10Q443 0 433 0H382Q372 0 372 10V51Q372 53 371 54T367 53Q342 23 302 8T213 -8Q142 -8 94 28T46 138Q46 213 100 256T252 300H368Q372 300 372 304V342Q372 393
344 422T255 452Q207 452 177 434T140 382Q137 372 128 373L74 380Q63 382 65 388Q73 444 125 479T255 514Q345 514 394 468ZM286 53T329 82T372 162V240Q372 244 368 244H263Q197 244 157 217T117 142Q117 98 147 76T227 53Q286 53 329 82ZM216 572T214 575T215
584L275 693Q278 700 287 700H332Q338 700 339 697T338 688L270 579Q265 572 258 572H222Q216 572 214 575Z" />
<glyph unicode="&#xe2;" glyph-name="acircumflex" horiz-adv-x="510" d="M345 514T394 468T443 346V10Q443 0 433 0H382Q372 0 372 10V51Q372 53 371 54T367 53Q342 23 302 8T213 -8Q142 -8 94 28T46 138Q46 213 100 256T252 300H368Q372 300 372 304V342Q372
393 344 422T255 452Q207 452 177 434T140 382Q137 372 128 373L74 380Q63 382 65 388Q73 444 125 479T255 514Q345 514 394 468ZM286 53T329 82T372 162V240Q372 244 368 244H263Q197 244 157 217T117 142Q117 98 147 76T227 53Q286 53 329 82ZM132 574T130 577T132
586L212 694Q216 700 225 700H283Q292 700 296 694L377 586Q379 584 379 580Q379 578 377 576T371 574H331Q322 574 318 580L258 662Q257 664 255 664T252 662L191 580Q187 574 178 574H138Q132 574 130 577Z" />
<glyph unicode="&#xe3;" glyph-name="atilde" horiz-adv-x="510" d="M345 514T394 468T443 346V10Q443 0 433 0H382Q372 0 372 10V51Q372 53 371 54T367 53Q342 23 302 8T213 -8Q142 -8 94 28T46 138Q46 213 100 256T252 300H368Q372 300 372 304V342Q372 393
344 422T255 452Q207 452 177 434T140 382Q137 372 128 373L74 380Q63 382 65 388Q73 444 125 479T255 514Q345 514 394 468ZM286 53T329 82T372 162V240Q372 244 368 244H263Q197 244 157 217T117 142Q117 98 147 76T227 53Q286 53 329 82ZM299 603T285 609T256
625Q238 636 228 640T206 644Q188 644 176 639T151 619Q145 610 137 617L119 635Q112 642 117 649Q150 698 203 698Q219 698 231 693T254 683T268 675Q272 673 282 667T301 658T318 655Q351 655 371 683Q377 693 385 685L403 668Q410 661 404 653Q390 629 367 616T318
603Q299 603 285 609Z" />
<glyph unicode="&#xe4;" glyph-name="adieresis" horiz-adv-x="510" d="M345 514T394 468T443 346V10Q443 0 433 0H382Q372 0 372 10V51Q372 53 371 54T367 53Q342 23 302 8T213 -8Q142 -8 94 28T46 138Q46 213 100 256T252 300H368Q372 300 372 304V342Q372 393
344 422T255 452Q207 452 177 434T140 382Q137 372 128 373L74 380Q63 382 65 388Q73 444 125 479T255 514Q345 514 394 468ZM286 53T329 82T372 162V240Q372 244 368 244H263Q197 244 157 217T117 142Q117 98 147 76T227 53Q286 53 329 82ZM316 601T301 617T285
657Q285 682 300 697T341 713Q365 713 381 698T397 657Q397 633 381 617T341 601Q316 601 301 617ZM145 601T130 617T114 657Q114 682 129 697T170 713Q194 713 210 698T226 657Q226 633 210 617T170 601Q145 601 130 617Z" />
<glyph unicode="&#xe5;" glyph-name="aring" horiz-adv-x="510" d="M345 514T394 468T443 346V10Q443 0 433 0H382Q372 0 372 10V51Q372 53 371 54T367 53Q342 23 302 8T213 -8Q142 -8 94 28T46 138Q46 213 100 256T252 300H368Q372 300 372 304V342Q372 393 344
422T255 452Q207 452 177 434T140 382Q137 372 128 373L74 380Q63 382 65 388Q73 444 125 479T255 514Q345 514 394 468ZM286 53T329 82T372 162V240Q372 244 368 244H263Q197 244 157 217T117 142Q117 98 147 76T227 53Q286 53 329 82ZM209 579T178 610T146 687Q146
732 178 763T256 795Q302 795 333 764T365 687Q365 641 334 610T256 579Q209 579 178 610ZM283 622T302 640T322 687Q322 715 303 734T256 753Q228 753 209 734T189 687Q189 659 208 641T256 622Q283 622 302 640Z" />
<glyph unicode="&#xe6;" glyph-name="ae" horiz-adv-x="832" d="M146 -8T96 26T46 132Q46 206 100 248T252 290H368Q372 290 372 294V337Q372 389 343 420T252 452Q206 452 175 433T137 382Q134 372 125 373L74 380Q64 382 65 391Q74 446 125 480T251 514Q310
514 352 490T412 426Q414 420 417 425Q436 462 478 488T573 514Q641 514 693 477T762 376Q768 355 770 327T772 241Q772 230 762 230H449Q445 230 445 226Q445 188 446 163Q449 113 487 86T583 59Q674 59 708 132Q712 141 721 137L756 118Q764 113 761 105Q741
56 692 24T575 -8Q518 -8 475 15T411 77Q410 79 409 79T407 78Q386 38 336 15T222 -8Q146 -8 96 26ZM444 290T448 290H697Q701 290 701 294Q701 337 697 354Q688 397 654 424T572 452Q523 452 490 425T449 354Q446 339 444 294Q444 290 448 290ZM287 49T329 77T372
160V226Q372 230 368 230H262Q195 230 156 207T117 138Q117 96 148 73T229 49Q287 49 329 77Z" />
<glyph unicode="&#xe7;" glyph-name="ccedilla" horiz-adv-x="520" d="M400 149L401 153Q402 163 413 161L462 153Q472 151 471 142L467 122Q453 69 407 34T295 -7Q289 -7 293 -11Q344 -55 344 -105Q344 -119 342 -126Q334 -158 310 -172T254 -186Q233 -186 213
-181Q205 -178 206 -169L210 -146Q211 -141 214 -140T222 -139Q234 -142 244 -142Q262 -142 274 -133T291 -106Q292 -102 292 -94Q292 -73 277 -50T235 -7Q234 -5 230 -5Q174 5 134 40T77 131Q64 175 64 255Q64 327 77 377Q95 439 147 476T271 514Q344 514 397
477T467 385Q472 367 473 355V353Q473 346 464 344L414 337H412Q405 337 403 346L400 361Q391 399 356 425T271 452Q221 452 188 426T144 355Q135 317 135 254Q135 188 144 152Q154 107 187 81T271 54Q320 54 355 79T400 145V149Z" />
<glyph unicode="&#xe8;" glyph-name="egrave" horiz-adv-x="533" d="M472 310T472 268V236Q472 226 462 226H139Q135 226 135 222Q137 167 141 151Q152 106 188 80T280 54Q322 54 354 73T404 127Q410 136 418 131L457 108Q465 103 461 94Q436 46 386 19T271 -9Q200
-8 152 25T83 117Q65 165 65 255Q65 297 66 323T74 371Q91 436 142 475T267 514Q358 514 407 468T468 338Q472 310 472 268ZM218 452T186 427T143 358Q137 337 135 290Q135 286 139 286H398Q402 286 402 290Q400 335 396 354Q385 399 352 425T267 452Q218 452 186
427ZM295 580T295 578Q295 572 286 572H250Q243 572 238 579L170 688Q168 692 168 694Q168 700 176 700H221Q230 700 233 693L293 584Q295 580 295 578Z" />
<glyph unicode="&#xe9;" glyph-name="eacute" horiz-adv-x="533" d="M472 310T472 268V236Q472 226 462 226H139Q135 226 135 222Q137 167 141 151Q152 106 188 80T280 54Q322 54 354 73T404 127Q410 136 418 131L457 108Q465 103 461 94Q436 46 386 19T271 -9Q200
-8 152 25T83 117Q65 165 65 255Q65 297 66 323T74 371Q91 436 142 475T267 514Q358 514 407 468T468 338Q472 310 472 268ZM218 452T186 427T143 358Q137 337 135 290Q135 286 139 286H398Q402 286 402 290Q400 335 396 354Q385 399 352 425T267 452Q218 452 186
427ZM227 572T225 575T226 584L286 693Q289 700 298 700H343Q349 700 350 697T349 688L281 579Q276 572 269 572H233Q227 572 225 575Z" />
<glyph unicode="&#xea;" glyph-name="ecircumflex" horiz-adv-x="533" d="M472 310T472 268V236Q472 226 462 226H139Q135 226 135 222Q137 167 141 151Q152 106 188 80T280 54Q322 54 354 73T404 127Q410 136 418 131L457 108Q465 103 461 94Q436 46 386 19T271
-9Q200 -8 152 25T83 117Q65 165 65 255Q65 297 66 323T74 371Q91 436 142 475T267 514Q358 514 407 468T468 338Q472 310 472 268ZM218 452T186 427T143 358Q137 337 135 290Q135 286 139 286H398Q402 286 402 290Q400 335 396 354Q385 399 352 425T267 452Q218
452 186 427ZM143 574T141 577T143 586L223 694Q227 700 236 700H294Q303 700 307 694L388 586Q390 584 390 580Q390 578 388 576T382 574H342Q333 574 329 580L269 662Q268 664 266 664T263 662L202 580Q198 574 189 574H149Q143 574 141 577Z" />
<glyph unicode="&#xeb;" glyph-name="edieresis" horiz-adv-x="533" d="M472 310T472 268V236Q472 226 462 226H139Q135 226 135 222Q137 167 141 151Q152 106 188 80T280 54Q322 54 354 73T404 127Q410 136 418 131L457 108Q465 103 461 94Q436 46 386 19T271
-9Q200 -8 152 25T83 117Q65 165 65 255Q65 297 66 323T74 371Q91 436 142 475T267 514Q358 514 407 468T468 338Q472 310 472 268ZM218 452T186 427T143 358Q137 337 135 290Q135 286 139 286H398Q402 286 402 290Q400 335 396 354Q385 399 352 425T267 452Q218
452 186 427ZM327 601T312 617T296 657Q296 682 311 697T352 713Q376 713 392 698T408 657Q408 633 392 617T352 601Q327 601 312 617ZM156 601T141 617T125 657Q125 682 140 697T181 713Q205 713 221 698T237 657Q237 633 221 617T181 601Q156 601 141 617Z" />
<glyph unicode="&#xec;" glyph-name="igrave" horiz-adv-x="212" d="M70 0T70 10V496Q70 506 80 506H131Q141 506 141 496V10Q141 0 131 0H80Q70 0 70 10ZM135 580T135 578Q135 572 126 572H90Q83 572 78 579L10 688Q8 692 8 694Q8 700 16 700H61Q70 700 73 693L133
584Q135 580 135 578Z" />
<glyph unicode="&#xed;" glyph-name="iacute" horiz-adv-x="212" d="M70 0T70 10V496Q70 506 80 506H131Q141 506 141 496V10Q141 0 131 0H80Q70 0 70 10ZM67 572T65 575T66 584L126 693Q129 700 138 700H183Q189 700 190 697T189 688L121 579Q116 572 109 572H73Q67
572 65 575Z" />
<glyph unicode="&#xee;" glyph-name="icircumflex" horiz-adv-x="212" d="M70 0T70 10V496Q70 506 80 506H131Q141 506 141 496V10Q141 0 131 0H80Q70 0 70 10ZM-17 574T-19 577T-17 586L63 694Q67 700 76 700H134Q143 700 147 694L228 586Q230 584 230 580Q230
578 228 576T222 574H182Q173 574 169 580L109 662Q108 664 106 664T103 662L42 580Q38 574 29 574H-11Q-17 574 -19 577Z" />
<glyph unicode="&#xef;" glyph-name="idieresis" horiz-adv-x="212" d="M70 0T70 10V496Q70 506 80 506H131Q141 506 141 496V10Q141 0 131 0H80Q70 0 70 10ZM167 601T152 617T136 657Q136 682 151 697T192 713Q216 713 232 698T248 657Q248 633 232 617T192 601Q167
601 152 617ZM-4 601T-19 617T-35 657Q-35 682 -20 697T21 713Q45 713 61 698T77 657Q77 633 61 617T21 601Q-4 601 -19 617Z" />
<glyph unicode="&#xf0;" glyph-name="eth" horiz-adv-x="531" d="M464 317T464 244Q464 198 462 172T454 125Q436 65 385 29T263 -8Q193 -8 143 28T74 125Q68 147 66 174T64 244Q64 288 66 314T74 362Q87 411 125 443T218 481Q234 484 253 484Q286 484 316 476T366
451Q368 449 369 449T369 453Q350 511 303 570Q301 574 298 572L206 545L202 544Q196 544 193 552L187 574L186 578Q186 584 194 587L264 608Q270 610 265 613Q228 652 187 688Q183 691 183 694Q183 700 192 700H248Q255 700 260 695Q304 653 327 629Q329 627 332
628L409 651L413 652Q419 652 422 644L428 621V618Q428 612 421 609L366 592Q362 591 363 588Q402 540 427 484T458 355Q464 317 464 244ZM392 168T392 242Q392 315 386 338Q377 381 344 407T263 434Q216 434 184 408T142 338Q135 315 135 242Q135 172 142 144Q151
101 183 75T263 48Q311 48 344 74T386 144Q392 168 392 242Z" />
<glyph unicode="&#xf1;" glyph-name="ntilde" horiz-adv-x="539" d="M370 513T417 466T465 340V10Q465 0 455 0H404Q394 0 394 10V326Q394 381 361 416T274 451Q219 451 185 417T151 328V10Q151 0 141 0H90Q80 0 80 10V496Q80 506 90 506H141Q151 506 151 496V453Q151
451 152 450T155 451Q199 513 290 513Q370 513 417 466ZM315 603T301 609T272 625Q254 636 244 640T222 644Q204 644 192 639T167 619Q161 610 153 617L135 635Q128 642 133 649Q166 698 219 698Q235 698 247 693T270 683T284 675Q288 673 298 667T317 658T334
655Q367 655 387 683Q393 693 401 685L419 668Q426 661 420 653Q406 629 383 616T334 603Q315 603 301 609Z" />
<glyph unicode="&#xf2;" glyph-name="ograve" horiz-adv-x="536" d="M201 -8T149 29T77 131Q63 177 63 254Q63 331 77 376Q96 440 148 477T274 514Q345 514 396 477T467 377Q481 334 481 254Q481 173 467 131Q448 66 397 29T273 -8Q201 -8 149 29ZM321 54T355
80T401 152Q410 188 410 253Q410 319 402 354Q390 399 356 425T272 452Q223 452 189 426T143 354Q135 319 135 253Q135 187 143 152Q154 107 188 81T273 54Q321 54 355 80ZM297 580T297 578Q297 572 288 572H252Q245 572 240 579L172 688Q170 692 170 694Q170 700
178 700H223Q232 700 235 693L295 584Q297 580 297 578Z" />
<glyph unicode="&#xf3;" glyph-name="oacute" horiz-adv-x="536" d="M201 -8T149 29T77 131Q63 177 63 254Q63 331 77 376Q96 440 148 477T274 514Q345 514 396 477T467 377Q481 334 481 254Q481 173 467 131Q448 66 397 29T273 -8Q201 -8 149 29ZM321 54T355
80T401 152Q410 188 410 253Q410 319 402 354Q390 399 356 425T272 452Q223 452 189 426T143 354Q135 319 135 253Q135 187 143 152Q154 107 188 81T273 54Q321 54 355 80ZM229 572T227 575T228 584L288 693Q291 700 300 700H345Q351 700 352 697T351 688L283 579Q278
572 271 572H235Q229 572 227 575Z" />
<glyph unicode="&#xf4;" glyph-name="ocircumflex" horiz-adv-x="536" d="M201 -8T149 29T77 131Q63 177 63 254Q63 331 77 376Q96 440 148 477T274 514Q345 514 396 477T467 377Q481 334 481 254Q481 173 467 131Q448 66 397 29T273 -8Q201 -8 149 29ZM321 54T355
80T401 152Q410 188 410 253Q410 319 402 354Q390 399 356 425T272 452Q223 452 189 426T143 354Q135 319 135 253Q135 187 143 152Q154 107 188 81T273 54Q321 54 355 80ZM145 574T143 577T145 586L225 694Q229 700 238 700H296Q305 700 309 694L390 586Q392 584
392 580Q392 578 390 576T384 574H344Q335 574 331 580L271 662Q270 664 268 664T265 662L204 580Q200 574 191 574H151Q145 574 143 577Z" />
<glyph unicode="&#xf5;" glyph-name="otilde" horiz-adv-x="536" d="M201 -8T149 29T77 131Q63 177 63 254Q63 331 77 376Q96 440 148 477T274 514Q345 514 396 477T467 377Q481 334 481 254Q481 173 467 131Q448 66 397 29T273 -8Q201 -8 149 29ZM321 54T355
80T401 152Q410 188 410 253Q410 319 402 354Q390 399 356 425T272 452Q223 452 189 426T143 354Q135 319 135 253Q135 187 143 152Q154 107 188 81T273 54Q321 54 355 80ZM312 603T298 609T269 625Q251 636 241 640T219 644Q201 644 189 639T164 619Q158 610 150
617L132 635Q125 642 130 649Q163 698 216 698Q232 698 244 693T267 683T281 675Q285 673 295 667T314 658T331 655Q364 655 384 683Q390 693 398 685L416 668Q423 661 417 653Q403 629 380 616T331 603Q312 603 298 609Z" />
<glyph unicode="&#xf6;" glyph-name="odieresis" horiz-adv-x="536" d="M201 -8T149 29T77 131Q63 177 63 254Q63 331 77 376Q96 440 148 477T274 514Q345 514 396 477T467 377Q481 334 481 254Q481 173 467 131Q448 66 397 29T273 -8Q201 -8 149 29ZM321 54T355
80T401 152Q410 188 410 253Q410 319 402 354Q390 399 356 425T272 452Q223 452 189 426T143 354Q135 319 135 253Q135 187 143 152Q154 107 188 81T273 54Q321 54 355 80ZM328 601T313 617T297 657Q297 682 312 697T353 713Q377 713 393 698T409 657Q409 633 393
617T353 601Q328 601 313 617ZM157 601T142 617T126 657Q126 682 141 697T182 713Q206 713 222 698T238 657Q238 633 222 617T182 601Q157 601 142 617Z" />
<glyph unicode="&#xf7;" glyph-name="divide" horiz-adv-x="500" d="M227 440T212 455T197 493Q197 514 212 529T249 544Q270 544 286 529T302 493Q302 471 286 456T249 440Q227 440 212 455ZM39 295T39 305V346Q39 356 49 356H451Q461 356 461 346V305Q461 295
451 295H49Q39 295 39 305ZM227 123T212 138T197 175Q197 196 212 211T249 227Q270 227 286 212T302 175Q302 154 286 139T249 123Q227 123 212 138Z" />
<glyph unicode="&#xf8;" glyph-name="oslash" horiz-adv-x="528" d="M475 333T475 254Q475 174 462 131Q442 66 391 29T267 -8Q198 -8 149 25Q145 27 144 24L112 -23Q106 -32 98 -26L62 2Q54 8 59 16L97 71Q99 74 97 77Q81 100 72 131Q58 177 58 254Q58 334 71
376Q90 440 142 477T268 514Q329 514 375 487Q379 485 380 488L412 535Q418 544 426 538L462 510Q470 504 465 496L430 445Q429 442 430 439Q449 415 462 377Q475 333 475 254ZM140 144Q141 142 143 142T146 143L339 428Q341 432 337 433Q305 452 266 452Q217 452
183 426T138 354Q129 321 129 253Q129 185 138 152L140 144ZM404 183T404 253Q404 325 396 354Q394 361 388 375Q387 379 383 375L185 84Q183 80 186 79Q220 54 267 54Q315 54 349 80T395 152Q404 183 404 253Z" />
<glyph unicode="&#xf9;" glyph-name="ugrave" horiz-adv-x="539" d="M386 506T396 506H447Q457 506 457 496V10Q457 0 447 0H396Q386 0 386 10V53Q386 55 384 56T381 55Q339 -7 248 -7Q200 -7 160 12T96 69T72 158V496Q72 506 82 506H133Q143 506 143 496V179Q143
122 175 89T262 55Q319 55 352 89T386 179V496Q386 506 396 506ZM298 580T298 578Q298 572 289 572H253Q246 572 241 579L173 688Q171 692 171 694Q171 700 179 700H224Q233 700 236 693L296 584Q298 580 298 578Z" />
<glyph unicode="&#xfa;" glyph-name="uacute" horiz-adv-x="539" d="M386 506T396 506H447Q457 506 457 496V10Q457 0 447 0H396Q386 0 386 10V53Q386 55 384 56T381 55Q339 -7 248 -7Q200 -7 160 12T96 69T72 158V496Q72 506 82 506H133Q143 506 143 496V179Q143
122 175 89T262 55Q319 55 352 89T386 179V496Q386 506 396 506ZM230 572T228 575T229 584L289 693Q292 700 301 700H346Q352 700 353 697T352 688L284 579Q279 572 272 572H236Q230 572 228 575Z" />
<glyph unicode="&#xfb;" glyph-name="ucircumflex" horiz-adv-x="539" d="M386 506T396 506H447Q457 506 457 496V10Q457 0 447 0H396Q386 0 386 10V53Q386 55 384 56T381 55Q339 -7 248 -7Q200 -7 160 12T96 69T72 158V496Q72 506 82 506H133Q143 506 143 496V179Q143
122 175 89T262 55Q319 55 352 89T386 179V496Q386 506 396 506ZM146 574T144 577T146 586L226 694Q230 700 239 700H297Q306 700 310 694L391 586Q393 584 393 580Q393 578 391 576T385 574H345Q336 574 332 580L272 662Q271 664 269 664T266 662L205 580Q201
574 192 574H152Q146 574 144 577Z" />
<glyph unicode="&#xfc;" glyph-name="udieresis" horiz-adv-x="539" d="M386 506T396 506H447Q457 506 457 496V10Q457 0 447 0H396Q386 0 386 10V53Q386 55 384 56T381 55Q339 -7 248 -7Q200 -7 160 12T96 69T72 158V496Q72 506 82 506H133Q143 506 143 496V179Q143
122 175 89T262 55Q319 55 352 89T386 179V496Q386 506 396 506ZM330 601T315 617T299 657Q299 682 314 697T355 713Q379 713 395 698T411 657Q411 633 395 617T355 601Q330 601 315 617ZM159 601T144 617T128 657Q128 682 143 697T184 713Q208 713 224 698T240
657Q240 633 224 617T184 601Q159 601 144 617Z" />
<glyph unicode="&#xfd;" glyph-name="yacute" horiz-adv-x="461" d="M50 -200T50 -190V-150Q50 -140 60 -140H64Q103 -139 124 -129T161 -90T195 -3Q197 1 195 3L26 495L25 499Q25 506 34 506H87Q96 506 99 498L229 94Q230 92 232 92T235 94L363 498Q366 506 375
506H427Q438 506 435 495L250 -44Q226 -111 205 -143T153 -187T64 -200H57Q50 -200 50 -190ZM191 576T189 579T190 588L250 697Q253 704 262 704H307Q313 704 314 701T313 692L245 583Q240 576 233 576H197Q191 576 189 579Z" />
<glyph unicode="&#xfe;" glyph-name="thorn" horiz-adv-x="540" d="M472 356T474 327T476 252Q476 205 475 179T467 131Q452 68 404 30T288 -8Q243 -8 210 10T156 60Q155 63 153 63T151 59V-190Q151 -200 141 -200H90Q80 -200 80 -190V690Q80 700 90 700H141Q151
700 151 690V448Q151 445 152 445T156 447Q198 514 286 514Q354 514 402 477T465 381Q472 356 474 327ZM399 166T400 185T402 253Q402 303 401 322T395 356Q386 398 353 425T271 452Q225 452 194 427T154 362Q153 359 153 355Q152 354 152 351L151 349V156L152
152Q152 149 153 148Q162 107 193 81T271 54Q319 54 353 81T395 150Q399 166 400 185Z" />
<glyph unicode="&#xff;" glyph-name="ydieresis" horiz-adv-x="461" d="M50 -200T50 -190V-150Q50 -140 60 -140H64Q103 -139 124 -129T161 -90T195 -3Q197 1 195 3L26 495L25 499Q25 506 34 506H87Q96 506 99 498L229 94Q230 92 232 92T235 94L363 498Q366 506
375 506H427Q438 506 435 495L250 -44Q226 -111 205 -143T153 -187T64 -200H57Q50 -200 50 -190ZM291 605T276 621T260 661Q260 686 275 701T316 717Q340 717 356 702T372 661Q372 637 356 621T316 605Q291 605 276 621ZM120 605T105 621T89 661Q89 686 104 701T145
717Q169 717 185 702T201 661Q201 637 185 621T145 605Q120 605 105 621Z" />
<glyph unicode="&#x2013;" glyph-name="endash" horiz-adv-x="450" d="M39 251T39 261V304Q39 314 49 314H401Q411 314 411 304V261Q411 251 401 251H49Q39 251 39 261Z" />
<glyph unicode="&#x2014;" glyph-name="emdash" horiz-adv-x="685" d="M39 252T39 262V304Q39 314 49 314H636Q646 314 646 304V262Q646 252 636 252H49Q39 252 39 262Z" />
<glyph unicode="&#x2018;" glyph-name="quoteleft" horiz-adv-x="140" d="M7 495T5 498T5 507L79 692Q82 700 90 700H128Q139 700 136 689L77 503Q74 495 65 495H12Q7 495 5 498Z" />
<glyph unicode="&#x2019;" glyph-name="quoteright" horiz-adv-x="140" d="M133 700T135 697T135 688L61 503Q58 495 50 495H12Q1 495 4 506L63 692Q66 700 75 700H128Q133 700 135 697Z" />
<glyph unicode="&#x201a;" glyph-name="quotesinglbase" horiz-adv-x="600" d="M71 -79T69 -76T67 -68L111 146Q113 155 122 155H166Q171 155 173 152T175 144L119 -70Q117 -79 108 -79H76Q71 -79 69 -76Z" />
<glyph unicode="&#x201c;" glyph-name="quotedblleft" horiz-adv-x="267" d="M7 495T5 498T4 507L75 692Q78 700 86 700H122Q127 700 129 697T131 689L75 503Q72 495 63 495H12Q7 495 5 498ZM140 495T138 498T137 507L208 692Q211 700 219 700H255Q260 700 262
697T264 689L208 503Q205 495 196 495H145Q140 495 138 498Z" />
<glyph unicode="&#x201d;" glyph-name="quotedblright" horiz-adv-x="267" d="M126 700T128 697T129 688L59 503Q56 495 48 495H12Q7 495 5 498T3 506L58 692Q61 700 70 700H121Q126 700 128 697ZM260 700T262 697T263 688L192 503Q189 495 181 495H145Q140 495
138 498T136 506L192 692Q195 700 204 700H255Q260 700 262 697Z" />
<glyph unicode="&#x201e;" glyph-name="quotedblbase" horiz-adv-x="275" d="M126 128T128 125T129 116L59 -69Q56 -77 48 -77H12Q7 -77 5 -74T3 -66L58 120Q61 128 70 128H121Q126 128 128 125ZM260 128T262 125T263 116L192 -69Q189 -77 181 -77H145Q140 -77
138 -74T136 -66L192 120Q195 128 204 128H255Q260 128 262 125Z" />
<glyph unicode="&#x2022;" glyph-name="bullet" horiz-adv-x="309" d="M107 151T73 185T39 267Q39 315 73 348T155 382Q202 382 236 349T270 267Q270 220 236 186T155 151Q107 151 73 185Z" />
<glyph unicode="&#x2039;" glyph-name="guilsinglleft" horiz-adv-x="363" d="M261 117T261 113Q261 111 259 109T253 107H205Q197 107 192 113L67 274Q65 277 65 281T67 288L192 449Q197 455 205 455H253Q259 455 261 452T259 443L135 284Q134 281 135 278L259
119Q261 117 261 113Z" />
<glyph unicode="&#x203a;" glyph-name="guilsinglright" horiz-adv-x="393" d="M104 107T102 110T104 119L228 278Q230 281 228 284L104 443Q102 445 102 449Q102 451 104 453T110 455H158Q167 455 171 449L297 288Q299 285 299 281T297 274L171 113Q167 107 158
107H110Q104 107 102 110Z" />
</font>
</defs>
</svg>
