<svg xmlns="http://www.w3.org/2000/svg" viewBox="0 0 512 168"><defs><clipPath id="A"><path fill="none" d="M0 0h512v168H0z"/></clipPath></defs><g clip-path="url(#A)" fill="none" stroke="#dfdae8" stroke-miterlimit="10" stroke-width=".66"><path d="M123.23 69.4a83.28 83.28 0 0 0-14.41 10.54C85.3 101.5 89.68 145.07 120 158.8c15.35 6.94 32.6 2.2 46.35-6.16 14.66-8.93 23.06-24.53 36.33-35 10.82-8.55 25.43-9.84 37.58-15.7 11-5.3 22.55-18.64 16.6-31.75-8.15-17.92-36.55-17.8-53.06-18.1-26.14-.5-56.88 3.48-80.57 17.3z"/><path d="M242.86 73.9c-6.8-15-30.13-15.2-44-15.4h-2.62c-21.1 0-45.4 3.7-64.4 14.84a70.7 70.7 0 0 0-12 8.77c-14.8 13.5-16.85 37.07-6.58 53a35.52 35.52 0 0 0 14.14 12.66 33 33 0 0 0 20.22 2.89 54.71 54.71 0 0 0 19.5-7.68c12.06-7.37 19.1-20.1 30-28.7 8.92-7 20.88-8.22 30.88-13.05 9.67-4.64 20.1-15.7 14.87-27.33z"/><path d="M228.84 77.66c-5.4-12.13-23.72-12.6-35-12.68h-2.1c-16.77.12-36.13 3.32-51.37 12.3a59.38 59.38 0 0 0-9.61 7c-11.94 10.76-14.07 29.2-6.66 42a28.83 28.83 0 0 0 10.58 10.45 25.71 25.71 0 0 0 16.71 3.1 44.48 44.48 0 0 0 16.41-6.45c9.5-5.83 15.2-15.65 23.8-22.38 7-5.5 16.33-6.6 24.2-10.4 8.28-4 17.56-12.8 13.05-22.95z"/><path d="M214.8 81.4c-4-9.22-17.3-10-25.9-10h-1.57c-12.42.23-26.84 2.93-38.33 9.76a47.88 47.88 0 0 0-7.21 5.23c-9.05 8-11.3 21.33-6.72 31a21.62 21.62 0 0 0 7 8.23 18.48 18.48 0 0 0 13.2 3.37 34 34 0 0 0 13.31-5.25c6.84-4.26 11.17-11.2 17.46-16.07 5.12-4 11.77-5 17.5-7.74 6.92-3.33 15.05-9.85 11.26-18.53z"/><path d="M200.8 85.16c-2.67-6.3-10.88-7.38-16.84-7.26h-1c-8.08.34-17.56 2.56-25.3 7.23a35.92 35.92 0 0 0-4.82 3.47c-6.17 5.28-8.55 13.48-6.78 20a14.12 14.12 0 0 0 3.44 6 11.82 11.82 0 0 0 9.68 3.52c3.66-.37 7.1-2.1 10.2-4.06 4.24-2.7 7.2-6.75 11.17-9.75 3.22-2.43 7.22-3.36 10.8-5.1 5.5-2.6 12.48-6.85 9.43-14.06z"/><path d="M156.94 99.8a6.78 6.78 0 0 0-.13 3.81c.76 2.47 3.58 3.86 6.16 3.73s5-1.43 7.1-2.87c3-2 5.76-4.32 9-5.86 4.2-2 10-4 7.7-9.7-1.4-3.57-4.8-4.93-8.3-4.5-7.86.94-19.3 7.5-21.53 15.4zm90.7-102.6c11.28-26.5 45.84-37.08 70.7-22.9C329.4-19.38 334.1-6.14 328.5 5.5c-6.1 12.76-19.62 16.85-31.83 21.6-6 2.32-12.08 4.92-17 9.1-7.07 5.95-14.4 18.88-25.58 12.2a16.66 16.66 0 0 1-6.22-7.42c-6.48-13.9-6.06-30.15-.24-43.8z"/><path d="M255.8-4.7c9.23-20.37 35.8-28.74 55.35-18.14C320-18 323.92-7.8 320 1.6c-4.58 10.9-16.46 14.54-26.57 18.54-4.8 1.9-9.7 3.95-13.7 7.26-5.54 4.58-11.08 14.22-19.9 9.52a12.14 12.14 0 0 1-5.22-6.15c-4.8-11.37-3.73-24.6 1.2-35.47z"/><path d="M264-6.6c7.12-14.26 25.77-20.4 40-13.4a14.28 14.28 0 0 1 7.43 17.68c-3 9.05-13.3 12.24-21.3 15.48-3.6 1.45-7.34 3-10.38 5.4-4 3.22-7.85 9.64-14.2 6.83a8.09 8.09 0 0 1-4.25-4.82c-3.1-8.86-1.36-19.07 2.72-27.2z"/><path d="M272.17-8.52c4.93-8.17 15.8-12.12 24.66-8.63a9.51 9.51 0 0 1 6.05 10.93c-1.4 7.28-10.14 9.93-16.05 12.4a32.54 32.54 0 0 0-7.06 3.58c-2.5 1.86-4.73 5.24-8.52 4.14a4.73 4.73 0 0 1-3.29-3.5c-1.5-6.33.97-13.58 4.2-18.93z"/><path d="M280.35-10.43c-2.62 2.43-5.73 6.9-5.7 10.66A2.06 2.06 0 0 0 277 2.4a7.85 7.85 0 0 0 2.81-1.4c1.18-.68 2.5-1.16 3.74-1.73 3.8-1.75 11.5-3.8 10.8-9.35a4.78 4.78 0 0 0-4.68-4.18c-3.42-.24-6.87 1.55-9.3 3.83z"/><path d="M231.35 21.33c-.87 7.53-1.73 14.4-9.1 18.34-7.2 3.87-14 3.24-21.86 3.3a197.72 197.72 0 0 0-26.74 2c-21.14 3-43 8.37-60.66 21-19.92 14.24-31.47 39-27.36 63.55 3 18 15.75 33 32.77 39.65 16.67 6.5 36 3.83 51.16-5.25 13.06-7.8 21.75-20.67 32.55-31.05 11.74-11.3 28.7-15 42.73-22.56 7-3.77 13.76-8.55 18.06-15.4 5.38-8.6 4-18.78 6.07-28.27 2-9.06 7.7-16.57 14.93-22.2 13.7-10.73 31.53-14.4 45.4-24.73 4.4-3.3 8.22-7.62 10-12.85 6.85-20.62-8.72-37.25-27.24-43.6-20.9-7.18-44.47-1-60.63 13.77-13.1 11.85-18.1 27.16-20.1 44.34zM155.5 245.76c12.72-9.72 20.92-24.2 27.4-38.83s11.64-30 20-43.64 20.53-25.9 36-30c21.47-5.7 44.1 5.1 66.2 2.8 22.58-2.34 41.34-17.83 62.4-26.3a102.81 102.81 0 0 1 25-6.55c9.28-1.2 18.9-1.1 27.76 1.87s16.94 9.1 20.9 17.57c7.17 15.4-.42 33.13-5.88 49.2-5.94 17.5-9.24 37-2.6 54.22 1.76 4.55 5.53 9.53 10.32 8.6m-37.84-348.53c-26.44-.5-53.52 29.5-35.68 54C380-45.4 387.45-30 383.85-11.7s-17.48 29.08-33 38.25c-16.6 9.86-75.62 46.05-43.25 69.38 23.57 17 56.56-12.92 77.22-22.67a108.28 108.28 0 0 1 80.25-5.2c17.3 5.63 43.3 20.46 60 5.8m-74.33 162.38c-10.54-16.2-5.54-34.3.45-51.6 3.73-10.8 8.78-19.12 10.62-30.48 2.55-15.77-3.28-27.66.28-46.95 4-21.34 33.1-23.75 46.32-14 7.33 5.42 11.25 17.73 16.9 24.88l6.7 8.47"/><path d="M9 45.3c16.53-9 39.38-3.95 50.52 11.23 12.38 16.9 9.47 40 10.35 60.87.6 14.53 3.42 29.2 10.36 42s18.32 23.5 32.27 27.6c6.47 1.9 13.3 2.35 19.82 4.07s13.07 5.08 16.35 11c2.46 4.42 2.77 9.73 2.27 14.76-2 19.85-16.75 37.83-35.83 43.63M-5.13 16c20.88-5.34 41.92 3.15 60.73 11.56 10.86 4.85 23.6 10.36 35.8 8.74s22.7-9.16 34.64-11.4c16.25-3.05 32.6 1.3 48.8 2.54 17.76 1.37 32.75-3.78 38.07-22.3 2.46-8.56 4-17.28 7.06-25.7 8.1-22.65 28.26-35.56 51.8-37.5 18.6-1.53 40.48.1 55.92-12.3 13.52-10.85 19.65-29.76 12.36-45.95m72.7 7.1c-30.17 3.22-30.6 35.64-23 57.7 7.17 20.77 13.5 44.5-3.58 62.34-16.57 17.33-37.25 27.28-56.6 40.85-9.93 7-28.3 22.38-14.27 34.3 11.42 9.7 37.3-6 48.05-11.3 27.5-13.5 54.66-26.4 85.96-19.6 21 4.56 43.37 19 65.16 9.36M335.6 75.5c-1.16.32-2.5.6-3.5-.07a3.58 3.58 0 0 1-1.35-2.42c-1.6-7.62 6-13.77 12.84-17.52 19-10.46 39.77-18.32 56.22-32.85 20.88-18.45 40.52-42.13 68.4-50C493.57-34.53 518-19.8 522 6.72a45.29 45.29 0 0 1-3.51 25.66 28.28 28.28 0 0 1-13 13.48c-18.92 8.94-41.8-4.2-61.16-5.16-25.1-1.25-50.38 3.8-72 16.88-12.03 7.2-23 14.2-36.72 17.9zm118.33-86.3c-8.13 6.2-14 14-19 22.72-2.9 5.05-4.86 12 0 16.6 5.63 5.43 15.53 4.54 22.74 5.5 10.57 1.43 21.28 3.33 32 1.8 7.4-1.1 13.33-4.64 17.08-9.84S512 14 510.7 6.4c-2.6-14.9-15.4-27.38-31-26.9-9.48.3-18.32 4.04-25.77 9.72z"/><path d="M460-6.23A51 51 0 0 0 445.51 11c-2 3.63-3.33 8.46-.08 11.83 3.9 4.05 10.86 3.77 16.1 4.6l6.26.94a61.62 61.62 0 0 0 16.88.52 19.67 19.67 0 0 0 12.64-6.76A19.46 19.46 0 0 0 501.76 7C500.4-3.8 491.43-12.92 480-13a33.32 33.32 0 0 0-20 6.77z"/><path d="M466.1-1.68a30,30,0,0,0-10,11.73c-1.07,2.19-1.8,5-.11,7.05,2.15,2.67,6.18,3,9.48,3.68,1.28.26,2.57.5,3.86.69a38.37,38.37,0,0,0,10.48.46,14.57,14.57,0,0,0,8.06-3.71,13.86,13.86,0,0,0,4.92-10.58A13.71,13.71,0,0,0,480.19-5.6,21.82,21.82,0,0,0,466.1-1.68Z"/><path d="M466.74 9.1a4.43 4.43 0 0 0-.15 2.28c.44 1.84 2.47 2.8 4.3 3.2a13.5 13.5 0 0 0 7.56-.28 9.08 9.08 0 0 0 5.4-6.05 5 5 0 0 0-3.44-6.4 10.3 10.3 0 0 0-8.23 1 11.09 11.09 0 0 0-5.45 6.24zm-48.56-30.88c-3.36-1.32-6-5.17-9.56-4.48-2.2.42-3.68 2.58-4.15 4.76a29.21 29.21 0 0 0-.14 6.68c.1 6.4-1.94 12.6-4.2 18.58a8.18 8.18 0 0 0-.75 3.3 2.74 2.74 0 0 0 1.86 2.58c1.36.32 2.6-.82 3.48-1.92 2.66-3.38 4.54-7.4 7.52-10.5 3.1-3.26 7.23-5.34 11.36-7.16 3.22-1.4 9.76-4 7.5-8.64s-9.1-1.7-12.93-3.2zM-.47-3.56C16.68-8.5 33.73.23 48.85 7.4c12.4 5.9 26 10.8 39.88 10.6 13-.18 24.5-6.24 36.86-9.3 16.12-4 32.36 3.18 48.57 2 18.08-1.34 26.74-13.73 31.65-30 5.35-17.74 13.4-34.1 31.06-42.06 20.25-9.12 43.26-7.2 64-14.52C315.4-81 336.08-96 325.84-114M36.9-12.35l5.46 1.83C58.54-4.73 73.6 2.84 91.4 1.2c13.74-1.27 26.27-7.46 40-8.67 15.08-1.32 29.1 2.86 43.5-3.62 11.9-5.35 21.8-15.2 25.68-27.8 4.85-15.75-2.53-28.2-12.3-40-10.6-12.82-16.82-30.45-29.37-41.55s-31.2-15-47.26-17.43a230.24 230.24 0 0 0-63.14-.9c-23.53 3-54.88 7.2-62.28 34.15-3.9 14.2-4.4 30.32-2.24 44.84 4.5 30.48 26.63 39.1 52.9 47.44zM281.84 69.8c-1.38 6.5-1.57 13.24-3.27 19.67A43.27 43.27 0 0 1 264 111.94c-2.3 1.85-5.1 4.16-4.52 7 .63 3.24 4.8 4.08 8.1 4.22l28.94 1.22c4.84.2 10 .34 14.2-2 2.62-1.47 4.83-4.28 4.38-7.24-.73-4.75-6.8-6-11.23-7.84-7.98-3.3-12.87-11.88-13.7-20.45s1.72-17.13 5.23-25c2.42-5.43 2.15-11.56-4.68-8.23-5.2 2.55-7.8 11.08-8.9 16.2zm143 4.54c9.38.1 19.08 1 27.34 5.44 3.4 1.84 6.9 5.28 5.85 9-.87 3.15-4.5 4.67-6.2 7.48-2 3.24-1.66 8.48-5.3 9.57-2.05.6-4.14-.65-6-1.8a83.82 83.82 0 0 0-30.49-11.54 85.23 85.23 0 0 0-17.62-1.15c-3.67.14-13.7 3.55-16.64 2.35-7.43-3.06 12.34-12.42 16.4-14.12 10.23-4.27 21.64-5.34 32.63-5.24zM191.36 217.6c12.13-21.35 15.75-48.4 34.33-64.44a48.78 48.78 0 0 1 32.8-11.72c7.37.2 14.6 2.06 21.87 3.25a119.21 119.21 0 0 0 68.4-9.22c12.35-5.66 23.8-13.48 36.86-17.23s28.9-2.44 37.77 7.84c7.8 9 8.16 22.42 5.4 34s-8.14 22.5-10.54 34.18a69.38 69.38 0 0 0-.33 26.09c1 5.54 2.66 11 2.82 16.62.28 10.3-4.7 20.3-12 27.58s-16.7 12.12-26.4 15.56c-32 11.3-67 8.22-101 7.4-28.72-.7-59.3-.15-83.64-15.43-8.08-5.08-21.07-14.3-22.3-24.67-1.2-10.87 11-21.1 15.95-29.8z"/><path d="M235.67 161.4a45.24 45.24 0 0 1 30.28-11c6.8.08 13.52 1.58 20.28 2.6a106.73 106.73 0 0 0 58.27-7.42c6.57-2.86 12.85-6.42 19.32-9.5a75.18 75.18 0 0 1 12.2-4.69c11.1-3 24.23-1.67 31.9 7.27 6.5 7.53 7.1 18.72 5.1 28.54s-6.14 18.95-8 28.8a63.64 63.64 0 0 0-.19 22c.77 4.7 2.05 9.3 2.1 14 .06 8.63-4.16 17-10.47 23-6.5 6.18-14.9 9.94-23.4 12.45-1.22.36-2.44.7-3.66 1a142.56 142.56 0 0 1-30.12 3.87c-17.84.63-36.27-.66-54.33-.84-24.56-.33-50.82.73-71.6-12.42-6.63-4.2-17.18-11.72-18.27-20.18-1.15-8.88 8.53-17.26 12.47-24.44 9.7-17.7 13-39.73 28.13-53.05z"/><path d="M245.66 169.62a41.54 41.54 0 0 1 27.75-10.38c6.23 0 12.45 1.1 18.7 1.94 16.26 2.2 33.14.5 48.13-5.62 5.47-2.2 10.7-5 16.06-7.43a61.11 61.11 0 0 1 10.12-3.7c9.15-2.3 19.57-.9 26.06 6.7 5.2 6 6 15 4.77 23.06-1.2 7.88-4.15 15.4-5.4 23.42a60.54 60.54 0 0 0-.05 17.88c.56 3.83 1.46 7.57 1.37 11.38a25.71 25.71 0 0 1-9 18.35c-5.75 5.06-13.1 7.76-20.43 9.35a58.19 58.19 0 0 1-3.14.61c-8.42 1.5-16.9 1.64-25.6 1.47-15.2-.32-31-1.5-46.5-1.4-20.4.1-42.3 1.57-59.53-9.4-5.18-3.3-13.3-9.12-14.26-15.68-1-6.88 6.15-13.4 9.07-19 7.23-13.9 10.14-30.98 21.9-41.52z"/><path d="M255.65 177.84c7-6.44 15.88-9.48 25.23-9.7a125.8 125.8 0 0 1 17.12 1.29c12.85 1.46 26.1.5 38-3.82 4.37-1.56 8.56-3.55 12.8-5.37a45.49 45.49 0 0 1 8-2.71c7.2-1.6 14.9-.14 20.2 6.1 3.87 4.57 4.92 11.33 4.46 17.58-.44 6-2.16 11.87-2.83 18a63.55 63.55 0 0 0 .09 13.79 47.31 47.31 0 0 1 .64 8.75 19.48 19.48 0 0 1-7.48 13.75c-5 3.93-11.3 5.56-17.44 6.23-.87.1-1.74.18-2.6.23-7 .46-13.93-.24-21.1-1-12.53-1.25-25.78-2.36-38.7-2-16.25.5-33.78 2.44-47.47-6.4-3.73-2.4-9.4-6.53-10.24-11.18-.87-4.88 3.76-9.55 5.67-13.66 4.7-10 7.25-22.15 15.64-29.88zM46.8 62.77l.75.76c15.85 16.68 15.3 40.3 15.14 61.77-.1 14.48 1.36 30.28 8.2 43.6 10.14 19.72 29.63 24 47.4 34.17 19.3 11 8.44 28.57-4.48 39.66-22.65 19.44-56.82 28.16-86.3 24.7-15.2-1.78-28.92-9.13-38-21.66-15.68-21.72-19-54-19.5-80a224.56 224.56 0 0 1 14.22-83.53C-10.55 68.38-5.45 61.82 8.13 57c13.2-4.76 28.22-4.5 38.67 5.77z"/><path d="M-10.4 99.36C-5.34 88-1.1 82.45 10.2 78.62s23.62-3.16 32.32 5.64c.2.2.4.43.62.65C56.23 99 56 118.9 56.13 137c.1 12.33 1.4 25.65 7.06 36.75 7.64 15 21.66 19.67 35.1 27q1.93 1.07 3.85 2.2c15.66 9.4 7.12 23.94-3.3 33.44a77.92 77.92 0 0 1-30.32 16.83A95.68 95.68 0 0 1 27 255.56c-12.23-1.9-23.32-7.9-30.66-18.2-12.73-17.92-15.25-44.3-16.4-65.54-1.32-24.32-.87-48.82 9.66-72.46z"/><path d="M-5 116.47c4.77-8.82 8.3-13.38 17.27-16.2s19-1.84 26 5.48l.5.53c10.3 11.48 10.44 27.7 10.8 42.42.26 10.17 1.45 21 5.9 29.9 6 12 17 16.18 27.5 22.43l3 1.88c12 7.78 5.8 19.32-2.1 27.23a54.5 54.5 0 0 1-24.47 14C48 247.1 36.77 246 26.5 243.7c-9.23-2-17.72-6.67-23.35-14.76-9.8-14.12-11.6-34.6-13.3-51-2.1-20.33-6.07-40.77 5.15-61.47z"/><path d="M.34 133.6c4.32-6.36 7.28-9.85 14-11.65 7.07-1.9 14.42-.52 19.63 5.3l.36.42c7.57 8.9 8.1 21.37 8.72 32.74.44 8 1.5 16.4 4.76 23.05 4.44 9 12.43 12.7 19.9 17.84.72.5 1.43 1 2.14 1.55 8.4 6.14 4.52 14.73-.9 21a34.34 34.34 0 0 1-18.63 11.25c-8.92 1.78-16.9-.8-24.3-3.28-6.2-2.1-12.12-5.43-16-11.3C3.08 210.2 1.85 195.6-.26 184c-2.96-16.35-11.5-32.62.6-50.4z"/><path d="M5.7 150.7c3.67-4 6.28-6.3 10.65-7.1a13.25 13.25 0 0 1 13.27 5.15l.24.3c4.82 6.3 5.72 15.06 6.58 23.06.64 5.87 1.54 11.78 3.62 16.2 2.83 6 7.8 9.2 12.3 13.25.43.4.85.8 1.28 1.2 4.8 4.47 3.25 10.18.3 14.8-2.72 4.24-7.5 7.93-12.8 8.46-6.45.64-11.1-3.2-15.7-6.07-3.16-2-6.5-4.2-8.73-7.86-3.92-6.5-4.87-15.23-7.1-22-4.07-12.48-17.4-24.75-3.93-39.4z"/><path d="M32.36 193.18c1.23 3 3.18 5.74 4.7 8.65s2.6 6.24 1.92 9.45-3.7 6.1-6.98 5.72c-4-.5-5.9-5-7.08-8.86-1.3-4.2-2.64-8.5-5.4-11.92-6.43-7.9-24.18-18.08-8.47-28.36 16.96-11.1 17.82 16.6 21.32 25.32zm448.9-92.03c-4.4 3-7.1 8.1-8.33 13.3-4.36 18.62 3.5 38.17-3.23 56.6-5.45 15-13.6 30.94-13.23 47.26.48 22 23.43 26.38 41.6 22.73 12.72-2.56 21.77-11.93 25.6-24.13 8-25.53 3.8-55.74-2.27-81.32-3-12.85-11-32.15-24.86-36.5a17.94 17.94 0 0 0-14.76 1.71z"/><path d="M498.1 112.92a15.09 15.09 0 0 0-11.85 1.74l-.42.28c-3.52 2.48-5.75 6.54-6.85 10.73-3.94 15 1.55 31-3.92 45.57-2.43 6.47-5.38 13.16-7.36 20a53.07 53.07 0 0 0-1.84 20.21c1.8 16.55 18.73 19.8 32.88 16.74 9.88-2.12 16.9-9.45 20.12-18.86 7.08-20.6 4.62-45.1.1-66.18-2.35-10.93-8.8-27.15-20.87-30.23z"/><path d="M499.64 126.75a12.33 12.33 0 0 0-8.95 1.76l-.32.23a15.72 15.72 0 0 0-5.37 8.15c-3.5 11.33-.4 23.87-4.6 34.53-2.14 5.44-4.64 11.07-5.9 16.88a35.35 35.35 0 0 0 .73 16.34c2.88 11 14 13.2 24.18 10.75 7-1.68 12-7 14.63-13.6 6.16-15.7 5.46-34.48 2.48-51-1.64-9.1-6.58-22.36-16.87-24.05z"/><path d="M501.18 140.58a9.67 9.67 0 0 0-6 1.79l-.2.16a13.47 13.47 0 0 0-3.9 5.57c-3.06 7.7-2.4 16.7-5.28 23.5-1.86 4.4-3.9 9-4.46 13.74s.58 9.67 3.3 12.46c1.85 6 9.35 6.6 15.47 4.76a15.38 15.38 0 0 0 9.14-8.32c5.34-10.8 6.35-23.86 4.85-35.9-.94-7.18-4.33-17.56-12.92-17.76z"/><path d="M491.1 171.78c-1.65 3.33-3.14 6.9-3 10.6s2.3 7.62 5.9 8.62c3.8 1.07 7.76-1.35 10.42-4.28 5-5.57 7.35-13.27 7.22-20.77-.1-5.3-2.05-13.3-8.88-11.52-5.98 1.57-9.3 12.57-11.66 17.35zm-209.9-70.22c-.16 1.34-.07 2.7-.27 4a9.49 9.49 0 0 1-3.23 5.81 20.07 20.07 0 0 0-3 2.54c-.82 1-1.13 2.66-.22 3.62a3.27 3.27 0 0 0 1.9.81c2.34.33 4.7-.3 7-.66a31.11 31.11 0 0 1 6.68-.29c2.3.16 5.07.35 6.34-1.56s-.13-4.65-1.94-6.18c-1.56-1.3-3.54-2.32-4.7-4.06s-1.1-4-2-5.82c-2.05-3.94-6.05-2.3-6.57 1.8zm-124.86 75.5c-2.87 1.3-6 3.74-5.44 6.83s4.46 4.24 6.94 6.3a11.7 11.7 0 0 1 3.78 7.57 34.29 34.29 0 0 1-.31 8.64 14 14 0 0 0 0 4.78 4.64 4.64 0 0 0 2.94 3.51c1.7.5 3.55-.4 4.85-1.63 3.15-3 4.06-7.57 5.2-11.78a72.54 72.54 0 0 1 10.88-23.1c1.45-2 3.06-4.14 3.4-6.62 1.37-9.8-9.26-2.88-12.82-1.4-6.36 2.64-13.15 4.05-19.4 6.9zM73.94 55.18c3.13 6.5 4 13.8 4.84 21a10.82 10.82 0 0 0 .87 3.74 3.69 3.69 0 0 0 3 2.17 5 5 0 0 0 3.22-1.52c5.63-4.83 9.2-11.57 14.22-17.1 6.9-7.55 16.33-12.4 26.06-15.56s19.9-4.74 29.94-6.72a7.19 7.19 0 0 0 3-1.08 2.44 2.44 0 0 0 .94-2.8 3.48 3.48 0 0 0-2.18-1.54 52.69 52.69 0 0 0-32.92-.77c-7.05 2.16-13.58 5.78-20.57 8.16C96 46 86.64 47 78.28 44.07c-2-.7-15.34-7.85-14.67-1.9.2 1.84 4.33 4.35 5.58 5.8a33.63 33.63 0 0 1 4.75 7.22z"/><path d="M83.85 65l.17 1.14c.35 2.6 2.3 4.6 4.9 3.1 4.36-2.53 4.4-8.85 7.7-12.32 1.16-1.22 4.42-2.62 2.48-4.8a4.11 4.11 0 0 0-3.38-1.05c-2.46.16-5.48 1.27-7.9.83-2.6-.47-7.7-3.74-6.62 1 .93 4 2 7.96 2.65 12.1z"/></g></svg>
