<svg width="1536" height="711" viewBox="0 0 1536 711" fill="none" xmlns="http://www.w3.org/2000/svg">
<g clip-path="url(#clip0_801_61)">
<rect width="1536" height="711" fill="#EBF0FE"/>
<g filter="url(#filter0_d_801_61)">
<rect x="115.187" y="271.2" width="161.521" height="161.521" rx="20" fill="white"/>
<path d="M232.37 339.194L201.616 327.042C200.057 326.425 197.998 326.117 195.944 326.117C193.891 326.117 191.832 326.425 190.273 327.042L159.519 339.194C156.4 340.427 156.4 342.445 159.519 343.677L164.39 345.602C163.395 346.873 162.82 348.481 162.716 350.338C162.003 350.658 161.398 351.161 160.968 351.792C160.539 352.423 160.304 353.155 160.288 353.908C160.272 354.66 160.477 355.401 160.88 356.047C161.282 356.694 161.866 357.22 162.566 357.566L159.629 373.734C159.461 374.654 160.173 375.501 161.12 375.501L167.904 375.501C168.843 375.501 169.555 374.654 169.387 373.734L166.452 357.566C167.148 357.222 167.73 356.699 168.133 356.057C168.535 355.414 168.743 354.677 168.731 353.928C168.72 353.18 168.49 352.449 168.068 351.818C167.646 351.187 167.048 350.68 166.342 350.356C166.45 348.863 166.981 347.764 167.951 347.01L172.763 348.91L170.323 368.432L170.323 368.569C170.323 369.872 170.845 371.781 173.328 373.475C174.783 374.468 176.806 375.313 179.343 375.987C183.756 377.153 189.652 377.804 195.944 377.804C202.237 377.804 208.133 377.153 212.546 375.987C215.083 375.313 217.106 374.468 218.561 373.475C221.044 371.781 221.565 369.876 221.565 368.569L221.565 368.432L219.126 348.91L232.37 343.677C235.489 342.445 235.489 340.427 232.37 339.194V339.194ZM216.734 368.647C216.618 369.287 215.116 370.518 211.254 371.549C207.307 372.597 201.727 373.197 195.944 373.197C190.161 373.197 184.582 372.597 180.635 371.549C176.773 370.524 175.271 369.287 175.155 368.647L177.392 350.74L190.273 355.83C191.832 356.446 193.891 356.754 195.944 356.754C197.998 356.754 200.057 356.446 201.616 355.83L214.496 350.74L216.734 368.647ZM199.772 351.573C198.868 351.933 197.431 352.149 195.944 352.149C194.458 352.149 193.027 351.935 192.117 351.573L174.035 344.427L188.081 338.885C188.308 338.803 188.515 338.679 188.691 338.52C188.866 338.36 189.007 338.168 189.103 337.956C189.2 337.744 189.251 337.515 189.253 337.283C189.255 337.052 189.208 336.822 189.116 336.608C189.023 336.395 188.887 336.201 188.714 336.038C188.541 335.875 188.336 335.748 188.111 335.662C187.886 335.577 187.645 335.536 187.402 335.541C187.16 335.546 186.921 335.598 186.7 335.693L169.301 342.557L166.464 341.436L192.117 331.298C193.021 330.938 194.458 330.723 195.944 330.723C197.431 330.723 198.862 330.937 199.772 331.298L225.425 341.436L199.772 351.573Z" fill="black"/>
</g>
<g filter="url(#filter1_d_801_61)">
<rect x="572.529" y="42.3792" width="161.521" height="161.521" rx="20" fill="#6366F1"/>
<path d="M650.701 154.456L625.529 129.284C624.859 128.594 624.487 127.668 624.494 126.706C624.501 125.745 624.886 124.824 625.566 124.144C626.246 123.464 627.166 123.078 628.128 123.071C629.089 123.064 630.015 123.435 630.706 124.105L649.628 143.028L649.628 94.5806C649.628 93.6095 650.014 92.6782 650.701 91.9916C651.387 91.3049 652.318 90.9192 653.29 90.9192C654.261 90.9192 655.192 91.3049 655.879 91.9916C656.565 92.6782 656.951 93.6095 656.951 94.5806L656.951 143.028L675.873 124.105C676.564 123.435 677.49 123.064 678.451 123.071C679.413 123.078 680.333 123.464 681.013 124.144C681.693 124.824 682.078 125.745 682.085 126.706C682.092 127.668 681.72 128.594 681.05 129.284L655.878 154.456C655.191 155.142 654.26 155.528 653.29 155.528C652.319 155.528 651.388 155.142 650.701 154.456V154.456Z" fill="white"/>
</g>
<g filter="url(#filter2_d_801_61)">
<rect x="344.008" y="500.021" width="161.521" height="161.521" rx="20" fill="white"/>
<circle cx="424.769" cy="580.782" r="38.765" fill="black"/>
<path d="M437.96 581.211C438.284 581.016 438.284 580.547 437.96 580.353L417.896 568.315C417.562 568.115 417.138 568.355 417.138 568.743L417.138 592.82C417.138 593.209 417.562 593.449 417.896 593.249L437.96 581.211Z" fill="white"/>
</g>
<g filter="url(#filter3_d_801_61)">
<rect x="115.187" y="42.3792" width="161.521" height="161.521" rx="20" fill="white"/>
<path d="M226.179 83.6567L165.716 83.6567C163.264 83.6641 160.914 84.6414 159.18 86.3754C157.446 88.1094 156.469 90.4591 156.462 92.9113L156.462 138.567C156.469 141.019 157.446 143.369 159.18 145.103C160.914 146.837 163.264 147.814 165.716 147.821L190.438 147.821L207.395 162.052L207.472 162.11L207.58 162.191L207.658 162.24L207.775 162.312L207.858 162.354L207.981 162.416L208.068 162.45L208.196 162.496L208.288 162.524L208.423 162.558L208.512 162.578C208.561 162.588 208.613 162.596 208.666 162.601L208.743 162.61L208.975 162.622C209.061 162.623 209.148 162.618 209.234 162.609L209.262 162.609C209.338 162.6 209.415 162.588 209.49 162.572L209.542 162.559L209.737 162.507L209.811 162.479L209.965 162.417L210.058 162.374L210.192 162.303L210.284 162.246L210.405 162.166L210.494 162.098L210.611 161.998L210.688 161.93C210.739 161.882 210.785 161.831 210.827 161.776C210.839 161.764 210.85 161.752 210.86 161.739L210.986 161.569L211.008 161.541C211.053 161.473 211.096 161.403 211.134 161.331C211.145 161.313 211.154 161.291 211.165 161.27L211.242 161.116C211.265 161.065 211.268 161.045 211.282 161.008L211.325 160.889C211.338 160.849 211.352 160.789 211.364 160.735L211.384 160.651C211.401 160.572 211.413 160.491 211.421 160.411L211.421 160.364L211.43 160.167L211.43 147.821L226.179 147.821C228.631 147.814 230.981 146.837 232.715 145.103C234.449 143.369 235.426 141.019 235.433 138.567L235.433 92.9113C235.426 90.4591 234.449 88.1094 232.715 86.3754C230.981 84.6414 228.631 83.6641 226.179 83.6567V83.6567ZM230.498 138.567C230.491 139.71 230.034 140.805 229.225 141.613C228.417 142.422 227.322 142.879 226.179 142.886L206.513 142.886L206.513 154.87L192.23 142.886L165.716 142.886C164.573 142.879 163.478 142.422 162.67 141.613C161.861 140.805 161.404 139.71 161.397 138.567L161.397 92.9113C161.404 91.768 161.861 90.6735 162.67 89.865C163.478 89.0566 164.573 88.5994 165.716 88.5925L226.179 88.5925C227.322 88.5994 228.417 89.0566 229.225 89.865C230.034 90.6735 230.491 91.768 230.498 92.9113L230.498 138.567ZM217.102 108.403C217.102 109.058 216.842 109.686 216.379 110.148C215.916 110.611 215.288 110.871 214.634 110.871L176.254 110.871C175.599 110.871 174.972 110.611 174.509 110.148C174.046 109.686 173.786 109.058 173.786 108.403C173.786 107.749 174.046 107.121 174.509 106.658C174.972 106.195 175.599 105.935 176.254 105.935L214.634 105.935C215.288 105.935 215.916 106.195 216.379 106.658C216.842 107.121 217.102 107.749 217.102 108.403ZM200.444 122.594C200.444 123.248 200.184 123.876 199.721 124.339C199.258 124.801 198.63 125.061 197.976 125.061L176.254 125.061C175.599 125.061 174.972 124.801 174.509 124.339C174.046 123.876 173.786 123.248 173.786 122.594C173.786 121.939 174.046 121.311 174.509 120.849C174.972 120.386 175.599 120.126 176.254 120.126L197.976 120.126C198.63 120.126 199.258 120.386 199.721 120.849C200.184 121.311 200.444 121.939 200.444 122.594Z" fill="black"/>
</g>
<g filter="url(#filter4_d_801_61)">
<rect x="572.529" y="500.022" width="161.521" height="161.521" rx="20" fill="white"/>
<path d="M690.305 590.653C689.65 590.653 689.022 590.913 688.56 591.376C688.097 591.838 687.837 592.466 687.837 593.12L687.837 609.572C687.835 611.098 687.228 612.562 686.148 613.641C685.069 614.72 683.606 615.328 682.079 615.33L624.499 615.33C622.973 615.328 621.51 614.72 620.43 613.641C619.351 612.562 618.744 611.098 618.742 609.572L618.742 593.12C618.742 592.466 618.482 591.838 618.019 591.376C617.556 590.913 616.929 590.653 616.274 590.653C615.62 590.653 614.992 590.913 614.529 591.376C614.066 591.838 613.806 592.466 613.806 593.12L613.806 609.572C613.81 612.407 614.937 615.125 616.942 617.129C618.946 619.134 621.664 620.262 624.499 620.265L682.079 620.265C684.914 620.262 687.632 619.134 689.637 617.129C691.641 615.125 692.769 612.407 692.772 609.572L692.772 593.12C692.772 592.466 692.512 591.838 692.049 591.376C691.587 590.913 690.959 590.653 690.305 590.653ZM651.543 594.863L651.725 595.028L651.809 595.09L651.92 595.172L652.126 595.295L652.234 595.348L652.342 595.398L652.45 595.439L652.571 595.48L652.679 595.508L652.802 595.539L652.932 595.559C652.969 595.559 653.004 595.571 653.039 595.574L653.283 595.587C653.365 595.587 653.445 595.587 653.527 595.574C653.564 595.574 653.599 595.563 653.635 595.559L653.764 595.539C653.806 595.531 653.846 595.519 653.888 595.508L653.996 595.48L654.116 595.439L654.224 595.398L654.335 595.348L654.443 595.295C654.478 595.277 654.512 595.255 654.548 595.233L654.65 595.172L654.764 595.088L654.844 595.027L655.026 594.862L675.599 574.304C676.06 573.841 676.319 573.213 676.319 572.559C676.318 571.904 676.058 571.277 675.595 570.815C675.133 570.352 674.505 570.092 673.851 570.091C673.197 570.09 672.569 570.349 672.105 570.811L655.757 587.159L655.757 543.767C655.757 543.112 655.497 542.485 655.034 542.022C654.571 541.559 653.944 541.299 653.289 541.299C652.635 541.299 652.007 541.559 651.544 542.022C651.082 542.485 650.822 543.112 650.822 543.767L650.822 587.163L634.473 570.814C634.01 570.354 633.383 570.096 632.73 570.096C632.076 570.097 631.45 570.357 630.988 570.819C630.526 571.281 630.265 571.907 630.264 572.56C630.262 573.213 630.52 573.841 630.98 574.304L651.543 594.863Z" fill="black"/>
</g>
<g filter="url(#filter5_d_801_61)">
<rect x="344.008" y="271.501" width="161.521" height="161.521" rx="20" fill="white"/>
<path d="M449.444 353.907C448.79 353.907 448.162 354.167 447.699 354.63C447.237 355.093 446.977 355.721 446.977 356.375L446.977 381.051C446.975 382.578 446.367 384.041 445.288 385.12C444.209 386.199 442.746 386.807 441.219 386.809L395.978 386.809C394.452 386.807 392.989 386.199 391.91 385.12C390.83 384.041 390.223 382.578 390.221 381.051L390.221 335.81C390.223 334.284 390.83 332.821 391.91 331.742C392.989 330.662 394.452 330.055 395.978 330.053L420.655 330.053C421.309 330.053 421.937 329.793 422.4 329.33C422.862 328.868 423.122 328.24 423.122 327.586C423.122 326.931 422.862 326.303 422.4 325.841C421.937 325.378 421.309 325.118 420.655 325.118L395.978 325.118C393.144 325.121 390.426 326.249 388.421 328.253C386.417 330.258 385.289 332.976 385.286 335.81L385.286 381.051C385.289 383.886 386.417 386.604 388.421 388.609C390.426 390.613 393.144 391.741 395.978 391.744L441.219 391.744C444.054 391.741 446.772 390.613 448.777 388.609C450.781 386.604 451.909 383.886 451.912 381.051L451.912 356.375C451.912 355.721 451.652 355.093 451.189 354.63C450.726 354.167 450.099 353.907 449.444 353.907ZM464.238 315.004C464.238 314.968 464.227 314.934 464.222 314.899L464.202 314.765L464.171 314.644L464.141 314.53C464.13 314.492 464.114 314.453 464.099 314.415L464.059 314.304L464.009 314.196L463.955 314.084L463.894 313.983L463.832 313.878L463.75 313.767L463.689 313.684C463.585 313.557 463.47 313.441 463.343 313.338L463.263 313.279L463.149 313.195L463.047 313.133L462.942 313.071L462.834 313.02L462.722 312.968L462.617 312.929L462.493 312.886L462.401 312.855L462.271 312.824C462.231 312.824 462.191 312.812 462.151 312.806L462.032 312.791C461.959 312.782 461.885 312.778 461.812 312.778L437.106 312.778C436.452 312.778 435.824 313.038 435.361 313.501C434.898 313.964 434.638 314.591 434.638 315.246C434.638 315.9 434.898 316.528 435.361 316.991C435.824 317.453 436.452 317.713 437.106 317.713L455.825 317.713L414.8 358.738C414.337 359.201 414.076 359.829 414.076 360.484C414.075 361.139 414.335 361.767 414.798 362.23C415.261 362.694 415.889 362.954 416.544 362.955C417.199 362.955 417.827 362.695 418.29 362.233L459.315 321.208L459.315 339.924C459.315 340.578 459.575 341.206 460.038 341.669C460.5 342.131 461.128 342.391 461.782 342.391C462.437 342.391 463.065 342.131 463.527 341.669C463.99 341.206 464.25 340.578 464.25 339.924L464.25 315.247C464.25 315.167 464.25 315.093 464.238 315.004V315.004Z" fill="black"/>
</g>
<g filter="url(#filter6_d_801_61)">
<rect x="115.187" y="500.022" width="161.521" height="161.521" rx="20" fill="#EAB308"/>
<path d="M232.873 575.11C233.548 575.11 234.196 574.841 234.674 574.364C235.151 573.886 235.419 573.239 235.419 572.563C235.419 571.888 235.151 571.24 234.674 570.762C234.196 570.285 233.548 570.017 232.873 570.017L221.62 570.017L221.62 558.041L231.838 562.582C232.144 562.72 232.474 562.796 232.81 562.806C233.145 562.815 233.479 562.759 233.792 562.639C234.105 562.52 234.392 562.339 234.636 562.108C234.879 561.878 235.074 561.601 235.211 561.295C235.347 560.988 235.421 560.658 235.43 560.322C235.438 559.987 235.38 559.653 235.259 559.341C235.138 559.028 234.956 558.742 234.724 558.5C234.492 558.257 234.215 558.063 233.907 557.928L196.982 541.519C196.656 541.374 196.304 541.299 195.948 541.299C195.591 541.299 195.239 541.374 194.913 541.519L157.988 557.928C157.68 558.063 157.403 558.257 157.171 558.5C156.939 558.742 156.758 559.028 156.636 559.341C156.515 559.653 156.457 559.987 156.465 560.322C156.474 560.658 156.548 560.988 156.684 561.295C156.821 561.601 157.016 561.878 157.259 562.108C157.503 562.339 157.79 562.52 158.103 562.639C158.416 562.759 158.75 562.815 159.085 562.806C159.421 562.796 159.751 562.72 160.057 562.582L170.275 558.041L170.275 570.017L159.022 570.017C158.347 570.017 157.699 570.285 157.221 570.762C156.744 571.24 156.476 571.888 156.476 572.563C156.476 573.239 156.744 573.886 157.221 574.364C157.699 574.841 158.347 575.11 159.022 575.11L160.579 575.11L160.579 615.148L159.022 615.148C158.347 615.148 157.699 615.417 157.221 615.894C156.744 616.372 156.476 617.02 156.476 617.695C156.476 618.37 156.744 619.018 157.221 619.496C157.699 619.973 158.347 620.242 159.022 620.242L232.873 620.242C233.548 620.242 234.196 619.973 234.674 619.496C235.151 619.018 235.419 618.37 235.419 617.695C235.419 617.02 235.151 616.372 234.674 615.894C234.196 615.417 233.548 615.148 232.873 615.148L231.316 615.148L231.316 575.11L232.873 575.11ZM175.293 555.81L195.948 546.629L216.602 555.808C216.553 556.005 216.528 556.206 216.527 556.408L216.527 570.017L175.368 570.017L175.368 556.418C175.368 556.213 175.343 556.009 175.293 555.81V555.81ZM211.286 615.148L182.615 615.148L182.615 601.004C182.615 597.202 184.125 593.555 186.813 590.867C189.502 588.178 193.148 586.668 196.95 586.668C200.752 586.668 204.399 588.178 207.087 590.867C209.776 593.555 211.286 597.202 211.286 601.004L211.286 615.148ZM226.223 615.148L216.379 615.148L216.379 601.004C216.379 595.851 214.332 590.909 210.688 587.265C207.045 583.622 202.103 581.575 196.95 581.575C191.797 581.575 186.856 583.622 183.212 587.265C179.568 590.909 177.521 595.851 177.521 601.004L177.521 615.148L165.672 615.148L165.672 575.11L226.223 575.11L226.223 615.148ZM195.948 567.76C197.521 567.76 199.06 567.293 200.369 566.419C201.677 565.544 202.697 564.301 203.3 562.847C203.902 561.393 204.06 559.793 203.753 558.249C203.446 556.705 202.688 555.287 201.575 554.174C200.462 553.062 199.044 552.304 197.5 551.997C195.956 551.689 194.356 551.847 192.902 552.449C191.448 553.052 190.205 554.072 189.331 555.38C188.456 556.689 187.989 558.228 187.989 559.802C187.992 561.911 188.831 563.934 190.323 565.426C191.815 566.918 193.838 567.757 195.948 567.76V567.76ZM195.948 556.937C196.514 556.937 197.068 557.105 197.539 557.42C198.01 557.734 198.378 558.182 198.594 558.705C198.811 559.229 198.868 559.805 198.757 560.361C198.647 560.916 198.374 561.427 197.973 561.827C197.573 562.228 197.062 562.501 196.506 562.612C195.951 562.722 195.375 562.665 194.851 562.448C194.328 562.232 193.88 561.864 193.565 561.393C193.251 560.922 193.083 560.368 193.083 559.802C193.083 559.042 193.384 558.313 193.922 557.776C194.459 557.239 195.188 556.937 195.948 556.937V556.937Z" fill="white"/>
</g>
<g filter="url(#filter7_d_801_61)">
<rect x="344.008" y="42.3792" width="161.521" height="161.521" rx="20" fill="white"/>
<path d="M424.769 110.51C422.273 110.51 419.833 111.25 417.757 112.637C415.682 114.023 414.064 115.994 413.109 118.301C412.154 120.607 411.904 123.144 412.391 125.592C412.878 128.04 414.08 130.289 415.845 132.054C417.61 133.819 419.858 135.021 422.306 135.508C424.755 135.995 427.292 135.745 429.598 134.79C431.904 133.834 433.875 132.217 435.262 130.141C436.649 128.066 437.389 125.626 437.389 123.13C437.385 119.784 436.054 116.576 433.688 114.21C431.322 111.844 428.114 110.514 424.769 110.51V110.51ZM424.769 130.656C423.28 130.656 421.825 130.214 420.588 129.387C419.35 128.56 418.385 127.385 417.816 126.01C417.246 124.635 417.097 123.122 417.388 121.662C417.678 120.202 418.395 118.861 419.447 117.809C420.5 116.756 421.841 116.039 423.3 115.749C424.76 115.459 426.273 115.608 427.648 116.177C429.024 116.747 430.199 117.711 431.026 118.949C431.853 120.187 432.294 121.642 432.294 123.13C432.292 125.125 431.499 127.038 430.088 128.449C428.677 129.86 426.764 130.654 424.769 130.656ZM451.958 134.206C452.186 133.67 452.566 133.213 453.051 132.891C453.536 132.568 454.104 132.395 454.686 132.391L454.989 132.391C457.445 132.391 459.801 131.415 461.538 129.678C463.276 127.941 464.251 125.585 464.251 123.128C464.251 120.672 463.276 118.316 461.538 116.579C459.801 114.842 457.445 113.866 454.989 113.866L454.428 113.866C453.911 113.864 453.403 113.728 452.953 113.471C452.504 113.214 452.129 112.845 451.865 112.4C451.831 112.18 451.768 111.966 451.677 111.763C451.435 111.218 451.362 110.613 451.467 110.026C451.572 109.439 451.851 108.897 452.268 108.47L452.459 108.279C454.194 106.541 455.168 104.186 455.168 101.73C455.168 99.2739 454.194 96.9183 452.459 95.18V95.18C450.72 93.446 448.365 92.4722 445.909 92.4722C443.454 92.4722 441.098 93.446 439.36 95.18L439.169 95.371C438.742 95.7877 438.2 96.0667 437.612 96.172C437.025 96.2773 436.42 96.204 435.875 95.9617L435.851 95.9506C435.315 95.7221 434.858 95.3421 434.536 94.8573C434.213 94.3725 434.039 93.804 434.036 93.2218L434.036 92.9193C434.036 90.4627 433.06 88.1067 431.323 86.3697C429.586 84.6326 427.23 83.6567 424.773 83.6567C422.317 83.6567 419.961 84.6326 418.224 86.3697C416.487 88.1067 415.511 90.4627 415.511 92.9193L415.511 93.4701C415.509 93.9877 415.373 94.496 415.116 94.9453C414.859 95.3945 414.49 95.7695 414.045 96.0333C413.825 96.0675 413.611 96.1307 413.408 96.2212C412.863 96.4636 412.258 96.5369 411.671 96.4316C411.084 96.3263 410.542 96.0473 410.115 95.6306L409.924 95.4395C408.187 93.7059 405.832 92.7323 403.378 92.7323C400.923 92.7323 398.569 93.7059 396.831 95.4395L396.815 95.4554C395.083 97.1951 394.111 99.5506 394.113 102.006C394.115 104.46 395.09 106.815 396.825 108.552L397.016 108.743C397.433 109.169 397.712 109.711 397.818 110.298C397.923 110.885 397.849 111.49 397.607 112.035L397.546 112.183C397.343 112.743 396.976 113.229 396.494 113.579C396.011 113.928 395.435 114.125 394.84 114.143L394.548 114.143C392.092 114.143 389.736 115.119 387.999 116.856C386.262 118.593 385.286 120.949 385.286 123.405C385.286 125.862 386.262 128.218 387.999 129.955C389.736 131.692 392.092 132.668 394.548 132.668L395.109 132.668C395.692 132.67 396.263 132.843 396.75 133.165C397.237 133.487 397.618 133.945 397.849 134.481L397.86 134.507C398.102 135.052 398.175 135.657 398.07 136.244C397.965 136.831 397.686 137.373 397.269 137.799L397.067 138C395.366 139.746 394.422 142.093 394.439 144.531C394.457 146.969 395.434 149.302 397.16 151.024C398.885 152.746 401.22 153.719 403.658 153.732C406.095 153.745 408.44 152.797 410.184 151.093L410.375 150.902C410.802 150.485 411.344 150.206 411.931 150.101C412.518 149.996 413.124 150.069 413.669 150.311L413.817 150.372C414.378 150.575 414.865 150.943 415.214 151.427C415.564 151.911 415.76 152.489 415.777 153.086L415.777 153.354C415.777 155.81 416.753 158.166 418.49 159.903C420.227 161.64 422.583 162.616 425.039 162.616C427.496 162.616 429.852 161.64 431.589 159.903C433.326 158.166 434.302 155.81 434.302 153.354L434.302 152.788C434.304 152.205 434.477 151.634 434.799 151.147C435.121 150.661 435.579 150.279 436.115 150.048L436.141 150.037C436.685 149.795 437.291 149.722 437.877 149.827C438.464 149.932 439.006 150.211 439.433 150.628L439.634 150.829C441.373 152.56 443.729 153.531 446.183 153.529C448.638 153.527 450.991 152.552 452.728 150.817C454.462 149.079 455.436 146.723 455.436 144.268C455.436 141.812 454.462 139.457 452.728 137.718L452.537 137.527C452.12 137.1 451.841 136.558 451.736 135.971C451.631 135.383 451.704 134.778 451.946 134.233L451.958 134.206ZM447.28 132.184C446.624 133.661 446.428 135.302 446.718 136.892C447.008 138.482 447.769 139.948 448.904 141.1L449.127 141.322C449.906 142.105 450.343 143.164 450.343 144.268C450.343 145.372 449.906 146.431 449.127 147.213L449.116 147.226C448.333 148.005 447.274 148.442 446.171 148.442C445.067 148.442 444.008 148.005 443.225 147.226L443.025 147.009L443.004 146.99C441.86 145.88 440.416 145.13 438.85 144.834C437.284 144.538 435.666 144.709 434.196 145.325C432.726 145.941 431.47 146.975 430.583 148.299C429.696 149.623 429.217 151.179 429.207 152.772L429.207 153.346C429.207 154.451 428.768 155.511 427.986 156.293C427.205 157.074 426.145 157.514 425.039 157.514C423.934 157.514 422.874 157.074 422.092 156.293C421.31 155.511 420.871 154.451 420.871 153.346L420.871 152.984C420.84 151.374 420.326 149.81 419.395 148.495C418.465 147.18 417.161 146.175 415.652 145.61C414.181 144.973 412.553 144.789 410.977 145.083C409.4 145.377 407.948 146.136 406.805 147.261L406.786 147.28L406.583 147.487C405.793 148.226 404.746 148.63 403.664 148.613C402.583 148.596 401.55 148.159 400.783 147.395C400.017 146.631 399.578 145.599 399.558 144.517C399.539 143.435 399.94 142.388 400.678 141.596V141.596L400.88 141.396L400.899 141.375C402.009 140.231 402.759 138.787 403.055 137.221C403.351 135.655 403.18 134.037 402.564 132.567C401.948 131.097 400.914 129.841 399.59 128.954C398.266 128.067 396.71 127.589 395.117 127.578L394.55 127.578C393.444 127.578 392.384 127.139 391.603 126.357C390.821 125.576 390.382 124.516 390.382 123.41C390.382 122.305 390.821 121.245 391.603 120.463C392.384 119.681 393.444 119.242 394.55 119.242L394.911 119.242C396.522 119.211 398.086 118.697 399.4 117.766C400.715 116.836 401.72 115.532 402.286 114.024C402.923 112.552 403.106 110.924 402.812 109.348C402.518 107.772 401.761 106.319 400.636 105.176L400.616 105.156L400.412 104.941C399.633 104.159 399.196 103.1 399.196 101.996C399.196 100.892 399.633 99.8326 400.412 99.0503V99.0503C401.193 98.2701 402.251 97.8311 403.355 97.8293C404.459 97.8275 405.519 98.2631 406.302 99.0407L406.315 99.0566L406.513 99.2541L406.533 99.2732C407.619 100.342 408.986 101.081 410.475 101.404C411.964 101.727 413.515 101.62 414.946 101.096C415.204 101.07 415.458 101.004 415.697 100.902C417.148 100.28 418.386 99.2467 419.257 97.9298C420.128 96.6129 420.595 95.0698 420.599 93.4908L420.599 92.9097C420.599 91.8043 421.038 90.7442 421.82 89.9625C422.601 89.1809 423.662 88.7417 424.767 88.7417C425.872 88.7417 426.933 89.1809 427.714 89.9625C428.496 90.7442 428.935 91.8043 428.935 92.9097L428.935 93.2281C428.947 94.8213 429.426 96.3759 430.314 97.6989C431.202 99.0219 432.459 100.055 433.928 100.67C435.398 101.285 437.016 101.454 438.581 101.158C440.147 100.861 441.59 100.111 442.733 99.0009L442.956 98.778C443.737 97.9977 444.796 97.5587 445.9 97.5572C447.004 97.5557 448.064 97.9918 448.847 98.7701L448.859 98.7828C449.64 99.5643 450.078 100.624 450.078 101.728C450.078 102.833 449.64 103.892 448.859 104.673L448.844 104.689L448.653 104.876L448.633 104.896C447.564 105.982 446.825 107.349 446.502 108.838C446.18 110.327 446.287 111.878 446.811 113.309C446.836 113.568 446.902 113.821 447.005 114.06C447.627 115.511 448.66 116.749 449.977 117.62C451.294 118.491 452.837 118.958 454.416 118.962L454.989 118.962C456.094 118.962 457.154 119.401 457.936 120.183C458.718 120.964 459.157 122.025 459.157 123.13C459.157 124.235 458.718 125.296 457.936 126.077C457.154 126.859 456.094 127.298 454.989 127.298L454.67 127.298C453.097 127.306 451.56 127.772 450.248 128.641C448.936 129.509 447.907 130.742 447.285 132.187L447.28 132.184Z" fill="black"/>
</g>
<g filter="url(#filter8_d_801_61)">
<rect x="572.829" y="271.9" width="161.521" height="161.521" rx="20" fill="white"/>
<path d="M614.825 369.793C614.825 368.186 615.463 366.646 616.599 365.51C617.735 364.374 619.275 363.736 620.882 363.736L630.92 363.736C632.526 363.736 634.067 364.374 635.203 365.51C636.339 366.646 636.977 368.186 636.977 369.793L636.977 385.368C636.977 386.975 636.339 388.515 635.203 389.651C634.067 390.787 632.526 391.425 630.92 391.425L620.882 391.425C619.275 391.425 617.735 390.787 616.599 389.651C615.463 388.515 614.825 386.975 614.825 385.368L614.825 369.793ZM642.514 347.642C642.514 346.036 643.153 344.495 644.288 343.359C645.424 342.223 646.965 341.585 648.571 341.585L658.608 341.585C660.214 341.585 661.755 342.223 662.891 343.359C664.027 344.495 664.665 346.036 664.665 347.642L664.665 385.368C664.665 386.975 664.027 388.515 662.891 389.651C661.755 390.787 660.214 391.425 658.608 391.425L648.571 391.425C646.965 391.425 645.424 390.787 644.288 389.651C643.153 388.515 642.514 386.975 642.514 385.368L642.514 347.642ZM686.298 318.741C686.619 318.741 686.927 318.869 687.154 319.096C687.381 319.323 687.509 319.631 687.509 319.952L687.509 385.368C687.509 385.69 687.381 385.998 687.154 386.225C686.927 386.452 686.619 386.58 686.298 386.58L676.26 386.58C675.938 386.58 675.63 386.452 675.403 386.225C675.176 385.998 675.048 385.69 675.048 385.368L675.048 319.952C675.048 319.631 675.176 319.323 675.403 319.096C675.63 318.869 675.938 318.741 676.26 318.741L686.298 318.741ZM686.298 313.895L676.26 313.895C674.653 313.895 673.113 314.534 671.977 315.669C670.841 316.805 670.203 318.346 670.203 319.952L670.203 385.368C670.203 386.975 670.841 388.515 671.977 389.651C673.113 390.787 674.653 391.425 676.26 391.425L686.298 391.425C687.904 391.425 689.445 390.787 690.581 389.651C691.717 388.515 692.355 386.975 692.355 385.368L692.355 319.952C692.355 318.346 691.717 316.805 690.581 315.669C689.445 314.534 687.904 313.895 686.298 313.895V313.895Z" fill="black"/>
</g>
<rect y="0.00012207" width="1535.69" height="172.264" fill="url(#paint0_linear_801_61)"/>
<rect x="1536" y="711" width="1536" height="172.264" transform="rotate(-180 1536 711)" fill="url(#paint1_linear_801_61)"/>
<g filter="url(#filter9_d_801_61)">
<rect x="1030.47" y="42.3793" width="161.521" height="161.521" rx="20" fill="white"/>
<path d="M1141.8 94.4248L1080.66 94.4248C1078.3 94.4273 1076.03 95.3675 1074.36 97.0389C1072.69 98.7103 1071.75 100.977 1071.75 103.34L1071.75 144.329C1071.75 146.693 1072.69 148.959 1074.36 150.631C1076.03 152.302 1078.3 153.242 1080.66 153.245L1141.8 153.245C1144.16 153.242 1146.43 152.302 1148.1 150.631C1149.77 148.959 1150.71 146.693 1150.71 144.329L1150.71 103.34C1150.71 100.977 1149.77 98.7103 1148.1 97.0389C1146.43 95.3675 1144.16 94.4273 1141.8 94.4248ZM1080.66 99.5194L1141.8 99.5194C1142.81 99.5194 1143.78 99.9219 1144.5 100.638C1145.22 101.355 1145.62 102.327 1145.62 103.34L1145.62 114.572L1076.84 114.572L1076.84 103.34C1076.84 102.327 1077.25 101.355 1077.96 100.638C1078.68 99.9219 1079.65 99.5194 1080.66 99.5194V99.5194ZM1141.8 148.15L1080.66 148.15C1079.65 148.15 1078.68 147.748 1077.96 147.031C1077.25 146.314 1076.84 145.343 1076.84 144.329L1076.84 119.668L1145.62 119.668L1145.62 144.329C1145.62 145.343 1145.22 146.314 1144.5 147.031C1143.78 147.748 1142.81 148.15 1141.8 148.15V148.15ZM1097.11 140.524C1097.11 141.2 1096.84 141.848 1096.37 142.325C1095.89 142.803 1095.24 143.072 1094.57 143.072L1084.38 143.072C1083.7 143.072 1083.05 142.803 1082.58 142.325C1082.1 141.848 1081.83 141.2 1081.83 140.524C1081.83 139.849 1082.1 139.201 1082.58 138.723C1083.05 138.245 1083.7 137.977 1084.38 137.977L1094.57 137.977C1095.24 137.977 1095.89 138.245 1096.37 138.723C1096.84 139.201 1097.11 139.849 1097.11 140.524ZM1117.49 140.524C1117.49 141.2 1117.22 141.848 1116.75 142.325C1116.27 142.803 1115.62 143.072 1114.94 143.072L1104.75 143.072C1104.08 143.072 1103.43 142.803 1102.95 142.325C1102.48 141.848 1102.21 141.2 1102.21 140.524C1102.21 139.849 1102.48 139.201 1102.95 138.723C1103.43 138.245 1104.08 137.977 1104.75 137.977L1114.94 137.977C1115.62 137.977 1116.27 138.245 1116.75 138.723C1117.22 139.201 1117.49 139.849 1117.49 140.524Z" fill="black"/>
</g>
<g filter="url(#filter10_d_801_61)">
<rect x="801.65" y="42.3793" width="161.521" height="161.521" rx="20" fill="white"/>
<path d="M921.893 160.145C921.893 160.802 921.632 161.432 921.168 161.897C920.703 162.361 920.073 162.622 919.416 162.622L845.405 162.622C844.748 162.622 844.118 162.361 843.653 161.897C843.189 161.432 842.928 160.802 842.928 160.145L842.928 86.1341C842.928 85.4771 843.189 84.8469 843.653 84.3823C844.118 83.9177 844.748 83.6567 845.405 83.6567C846.062 83.6567 846.692 83.9177 847.157 84.3823C847.621 84.8469 847.882 85.4771 847.882 86.1341L847.882 157.668L919.416 157.668C920.073 157.668 920.703 157.929 921.168 158.393C921.632 158.858 921.893 159.488 921.893 160.145ZM855.099 142.604C855.588 143.043 856.231 143.27 856.886 143.235C857.542 143.2 858.158 142.906 858.597 142.418L877.402 121.494L886.199 129.643C886.676 130.084 887.308 130.32 887.958 130.3C888.607 130.28 889.223 130.006 889.672 129.536L910.086 108.184L910.086 121.952C910.086 122.609 910.347 123.239 910.811 123.704C911.276 124.168 911.906 124.429 912.563 124.429C913.22 124.429 913.85 124.168 914.315 123.704C914.779 123.239 915.04 122.609 915.04 121.952L915.04 102.006C915.041 101.997 915.041 101.988 915.04 101.978L915.04 101.841C915.04 101.794 915.04 101.768 915.033 101.731C915.025 101.693 915.02 101.65 915.014 101.611L914.994 101.489C914.986 101.449 914.977 101.421 914.968 101.385L914.932 101.255L914.896 101.155C914.882 101.113 914.867 101.071 914.85 101.031C914.833 100.989 914.814 100.96 914.797 100.922L914.745 100.816C914.726 100.78 914.701 100.744 914.68 100.709L914.618 100.611L914.548 100.518L914.471 100.416C914.448 100.389 914.425 100.363 914.399 100.339L914.3 100.233L914.283 100.215C914.265 100.196 914.244 100.182 914.224 100.164L914.118 100.072L914.026 100.003L913.922 99.9299L913.819 99.8679L913.713 99.8091L913.602 99.7549L913.494 99.7069L913.379 99.6651L913.264 99.6279L913.145 99.5985L913.031 99.5722L912.902 99.5521L912.791 99.5397L912.648 99.5397L912.571 99.5397L892.62 99.5397C891.963 99.5397 891.333 99.8007 890.869 100.265C890.404 100.73 890.143 101.36 890.143 102.017C890.143 102.674 890.404 103.304 890.869 103.769C891.333 104.233 891.963 104.494 892.62 104.494L906.768 104.494L887.775 124.347L878.922 116.15C878.682 115.927 878.399 115.753 878.091 115.64C877.783 115.527 877.455 115.476 877.127 115.49C876.799 115.504 876.477 115.584 876.18 115.724C875.883 115.864 875.616 116.061 875.396 116.305L854.912 139.106C854.473 139.595 854.246 140.238 854.281 140.894C854.316 141.55 854.611 142.165 855.099 142.604V142.604Z" fill="black"/>
</g>
<g filter="url(#filter11_d_801_61)">
<rect x="1259.29" y="42.3793" width="161.521" height="161.521" rx="20" fill="white"/>
<path d="M1336.77 107.448C1336.77 106.797 1336.96 106.161 1337.32 105.62C1337.68 105.079 1338.2 104.657 1338.8 104.408C1339.4 104.159 1340.06 104.094 1340.7 104.221C1341.34 104.348 1341.92 104.661 1342.38 105.121C1342.84 105.581 1343.16 106.168 1343.28 106.806C1343.41 107.444 1343.34 108.106 1343.09 108.707C1342.85 109.308 1342.42 109.822 1341.88 110.183C1341.34 110.545 1340.71 110.738 1340.06 110.738C1339.18 110.738 1338.35 110.391 1337.73 109.774C1337.11 109.157 1336.77 108.32 1336.77 107.448ZM1313.46 130.341C1312.81 130.341 1312.17 130.534 1311.63 130.895C1311.09 131.257 1310.67 131.77 1310.42 132.372C1310.17 132.973 1310.11 133.634 1310.23 134.272C1310.36 134.911 1310.67 135.497 1311.13 135.957C1311.6 136.417 1312.18 136.73 1312.82 136.857C1313.46 136.984 1314.12 136.919 1314.72 136.67C1315.32 136.421 1315.84 135.999 1316.2 135.458C1316.56 134.917 1316.75 134.281 1316.75 133.631C1316.75 132.758 1316.4 131.921 1315.79 131.304C1315.17 130.687 1314.33 130.341 1313.46 130.341ZM1321.3 111.875C1320.65 111.875 1320.02 112.068 1319.47 112.43C1318.93 112.791 1318.51 113.305 1318.26 113.906C1318.01 114.508 1317.95 115.169 1318.08 115.807C1318.2 116.446 1318.52 117.032 1318.98 117.492C1319.44 117.952 1320.02 118.265 1320.66 118.392C1321.3 118.519 1321.96 118.454 1322.56 118.205C1323.16 117.956 1323.68 117.534 1324.04 116.993C1324.4 116.452 1324.59 115.816 1324.59 115.165C1324.59 114.293 1324.25 113.456 1323.63 112.839C1323.01 112.222 1322.18 111.875 1321.3 111.875ZM1359.77 117.702L1347.12 132.89C1348.07 134.206 1348.66 135.76 1348.79 137.382C1348.93 139.005 1348.62 140.634 1347.9 142.093C1347.18 143.553 1346.07 144.786 1344.7 145.66C1343.32 146.533 1341.73 147.013 1340.11 147.048L1339.91 147.048C1337.55 147.073 1335.27 146.158 1333.59 144.504C1331.9 142.85 1330.94 140.594 1330.91 138.23C1330.89 135.867 1331.8 133.591 1333.46 131.903C1335.11 130.214 1337.37 129.252 1339.73 129.227L1339.92 129.227C1341.24 129.226 1342.55 129.52 1343.74 130.088L1356.41 114.893C1356.78 114.446 1357.31 114.165 1357.89 114.113C1358.47 114.06 1359.05 114.24 1359.49 114.612C1359.94 114.985 1360.22 115.52 1360.27 116.099C1360.33 116.678 1360.15 117.255 1359.77 117.702ZM1344.44 138.045C1344.42 136.862 1343.93 135.735 1343.08 134.908C1342.24 134.08 1341.1 133.617 1339.92 133.617L1339.82 133.617C1338.62 133.629 1337.47 134.118 1336.63 134.975C1335.79 135.832 1335.33 136.987 1335.34 138.187C1335.35 139.387 1335.84 140.533 1336.7 141.372C1337.55 142.212 1338.71 142.677 1339.91 142.664L1340.01 142.664C1340.61 142.652 1341.19 142.523 1341.74 142.284C1342.28 142.046 1342.77 141.702 1343.18 141.273C1343.6 140.844 1343.92 140.338 1344.13 139.784C1344.35 139.23 1344.45 138.639 1344.44 138.045V138.045ZM1366.24 130.341C1365.59 130.341 1364.95 130.534 1364.41 130.895C1363.87 131.257 1363.45 131.77 1363.2 132.372C1362.95 132.973 1362.88 133.634 1363.01 134.272C1363.14 134.911 1363.45 135.497 1363.91 135.957C1364.37 136.417 1364.96 136.73 1365.6 136.857C1366.23 136.984 1366.9 136.919 1367.5 136.67C1368.1 136.421 1368.61 135.999 1368.97 135.458C1369.34 134.917 1369.53 134.281 1369.53 133.631C1369.53 132.758 1369.18 131.921 1368.56 131.304C1367.95 130.687 1367.11 130.341 1366.24 130.341ZM1379.54 133.905C1379.54 139.89 1378.18 145.798 1375.56 151.177C1375.2 151.917 1374.64 152.541 1373.94 152.978C1373.24 153.414 1372.44 153.645 1371.61 153.645L1308.49 153.645C1307.67 153.647 1306.87 153.419 1306.17 152.987C1305.47 152.555 1304.91 151.936 1304.55 151.201C1301.62 145.18 1300.27 138.514 1300.63 131.828C1300.98 125.142 1303.03 118.656 1306.58 112.979C1310.13 107.302 1315.06 102.621 1320.92 99.3757C1326.78 96.13 1333.36 94.4264 1340.06 94.4248L1340.28 94.4248C1361.98 94.5441 1379.54 112.174 1379.54 133.905ZM1375.15 133.905C1375.16 124.629 1371.49 115.728 1364.95 109.15C1358.41 102.573 1349.53 98.8553 1340.25 98.8115L1340.06 98.8115C1330.83 98.7795 1321.97 102.4 1315.4 108.882C1308.8 115.378 1305.1 124.081 1304.96 133.389C1304.87 138.884 1306.08 144.322 1308.49 149.258L1371.62 149.258C1373.96 144.479 1375.16 139.226 1375.15 133.905V133.905Z" fill="black"/>
</g>
<g filter="url(#filter12_d_801_61)">
<rect x="801.05" y="273.654" width="161.521" height="161.521" rx="20" fill="white"/>
<path d="M894.992 366.952L894.999 367.114C894.999 368.096 894.336 368.815 893.803 369.391C893.588 369.625 893.261 369.978 893.219 370.14C893.169 370.323 893.272 370.79 893.346 371.13L893.396 371.356C893.547 372.063 893.668 372.897 893.234 373.641C892.745 374.475 891.816 374.767 891.071 375.002C890.74 375.105 890.287 375.249 890.163 375.373C890.039 375.498 889.892 375.947 889.786 376.272C889.55 377.01 889.254 377.919 888.409 378.41C888.04 378.616 887.622 378.719 887.198 378.71C886.749 378.695 886.304 378.632 885.868 378.524C885.58 378.454 885.286 378.409 884.99 378.391C884.948 378.389 884.906 378.393 884.864 378.403C884.704 378.446 884.347 378.768 884.107 378.982C883.523 379.508 882.797 380.164 881.804 380.164C880.811 380.164 880.085 379.508 879.501 378.982C879.265 378.768 878.907 378.446 878.744 378.403C878.707 378.394 878.668 378.39 878.63 378.391C878.335 378.411 878.042 378.458 877.755 378.53C877.32 378.638 876.874 378.701 876.425 378.716C876.002 378.726 875.583 378.622 875.214 378.416C874.369 377.932 874.074 377.016 873.838 376.278C873.732 375.95 873.588 375.502 873.461 375.379C873.333 375.257 872.881 375.111 872.552 375.008C871.807 374.773 870.879 374.481 870.39 373.647C869.901 372.813 870.113 371.887 870.278 371.136C870.352 370.796 870.455 370.329 870.405 370.146C870.362 369.987 870.035 369.634 869.82 369.397C869.287 368.821 868.624 368.102 868.624 367.12L868.624 366.958L868.624 366.892C868.624 366.87 868.624 366.834 868.635 366.805C868.645 366.777 868.644 366.75 868.65 366.721L868.662 366.663L868.683 366.567C868.869 365.86 869.38 365.306 869.807 364.844C870.022 364.609 870.349 364.255 870.391 364.095C870.441 363.912 870.338 363.445 870.264 363.105C870.099 362.356 869.894 361.419 870.376 360.594C870.858 359.769 871.793 359.468 872.538 359.233C872.87 359.128 873.323 358.986 873.447 358.862C873.571 358.737 873.718 358.287 873.824 357.963C874.06 357.225 874.355 356.307 875.2 355.825C875.57 355.619 875.988 355.516 876.412 355.525C876.86 355.54 877.306 355.603 877.741 355.711C878.029 355.782 878.321 355.829 878.617 355.85C878.659 355.851 878.701 355.847 878.742 355.837C878.903 355.795 879.26 355.473 879.499 355.259C880.084 354.732 880.809 354.077 881.803 354.077C882.796 354.077 883.521 354.732 884.106 355.259C884.342 355.473 884.699 355.795 884.863 355.837C884.904 355.847 884.946 355.851 884.989 355.85C885.284 355.829 885.577 355.782 885.864 355.711C886.299 355.603 886.745 355.54 887.193 355.525C887.617 355.515 888.036 355.619 888.405 355.825C889.25 356.307 889.545 357.225 889.781 357.963C889.887 358.29 890.031 358.739 890.158 358.862C890.285 358.984 890.738 359.13 891.067 359.233C891.812 359.468 892.732 359.76 893.229 360.594C893.726 361.428 893.506 362.354 893.341 363.105C893.267 363.445 893.164 363.912 893.214 364.095C893.256 364.252 893.584 364.606 893.799 364.844C894.226 365.306 894.736 365.86 894.922 366.567C894.93 366.599 894.937 366.632 894.943 366.663C894.949 366.694 894.952 366.702 894.955 366.721C894.958 366.741 894.966 366.777 894.971 366.805C894.975 366.834 894.978 366.864 894.981 366.892C894.984 366.921 894.984 366.93 894.992 366.952V366.952ZM872.971 379.86L872.971 388.872L881.81 386.141L890.649 388.872L890.649 379.86L881.81 382.591L872.971 379.86ZM855.159 338.868C855.159 339.504 855.414 340.113 855.869 340.562C856.323 341.012 856.939 341.264 857.582 341.264L906.038 341.264C906.681 341.264 907.297 341.012 907.751 340.562C908.206 340.113 908.461 339.504 908.461 338.868C908.461 338.233 908.206 337.624 907.751 337.174C907.297 336.725 906.681 336.472 906.038 336.472L857.582 336.472C856.939 336.472 856.323 336.725 855.869 337.174C855.414 337.624 855.159 338.233 855.159 338.868ZM912.095 315.65L851.525 315.65C849.277 315.652 847.121 316.536 845.532 318.108C843.942 319.68 843.048 321.812 843.045 324.035L843.045 362.967C843.048 365.191 843.942 367.322 845.532 368.894C847.121 370.466 849.277 371.35 851.525 371.353L868.067 371.353C868.106 371.128 868.15 370.922 868.189 370.739C867.531 370.023 866.501 368.854 866.501 367.114C866.502 366.929 866.514 366.744 866.539 366.561L851.525 366.561C850.561 366.561 849.637 366.183 848.955 365.509C848.274 364.835 847.891 363.921 847.891 362.967L847.891 324.035C847.891 323.082 848.274 322.168 848.955 321.494C849.637 320.82 850.561 320.441 851.525 320.441L912.095 320.441C913.059 320.441 913.984 320.82 914.665 321.494C915.347 322.168 915.73 323.082 915.73 324.035L915.73 362.967C915.73 363.921 915.347 364.835 914.665 365.509C913.984 366.183 913.059 366.561 912.095 366.561L897.081 366.561C897.106 366.744 897.118 366.929 897.119 367.114C897.119 368.854 896.09 370.022 895.431 370.739L895.554 371.353L912.095 371.353C914.344 371.35 916.499 370.466 918.089 368.894C919.679 367.322 920.573 365.191 920.575 362.967L920.575 324.035C920.573 321.812 919.679 319.68 918.089 318.108C916.499 316.536 914.344 315.652 912.095 315.65V315.65ZM868.182 350.249L895.438 350.249C896.081 350.249 896.697 349.996 897.152 349.547C897.606 349.098 897.861 348.488 897.861 347.853C897.861 347.217 897.606 346.608 897.152 346.159C896.697 345.709 896.081 345.457 895.438 345.457L868.182 345.457C867.539 345.457 866.923 345.709 866.469 346.159C866.014 346.608 865.759 347.217 865.759 347.853C865.759 348.488 866.014 349.098 866.469 349.547C866.923 349.996 867.539 350.249 868.182 350.249V350.249ZM899.981 332.28C900.624 332.28 901.24 332.027 901.694 331.578C902.149 331.129 902.404 330.519 902.404 329.884C902.404 329.249 902.149 328.639 901.694 328.19C901.24 327.741 900.624 327.488 899.981 327.488L863.639 327.488C862.996 327.488 862.38 327.741 861.926 328.19C861.472 328.639 861.216 329.249 861.216 329.884C861.216 330.519 861.472 331.129 861.926 331.578C862.38 332.027 862.996 332.28 863.639 332.28L899.981 332.28Z" fill="black"/>
</g>
<g filter="url(#filter13_d_801_61)">
<rect x="1029.87" y="505.175" width="161.521" height="161.521" rx="20" fill="white"/>
<path d="M1140.92 565.062L1125.17 565.062L1125.17 562.743C1125.17 560.898 1124.4 559.129 1123.04 557.825C1121.67 556.52 1119.83 555.787 1117.9 555.785L1103.36 555.785C1101.44 555.787 1099.59 556.52 1098.23 557.825C1096.86 559.129 1096.1 560.898 1096.09 562.743L1096.09 565.062L1080.35 565.062C1078.1 565.064 1075.94 565.92 1074.35 567.442C1072.76 568.964 1071.87 571.027 1071.87 573.179L1071.87 607.968C1071.87 610.121 1072.76 612.184 1074.35 613.706C1075.94 615.228 1078.1 616.084 1080.35 616.086L1140.92 616.086C1143.16 616.084 1145.32 615.228 1146.91 613.706C1148.5 612.184 1149.39 610.121 1149.4 607.968L1149.4 573.179C1149.39 571.027 1148.5 568.964 1146.91 567.442C1145.32 565.92 1143.16 565.064 1140.92 565.062V565.062ZM1100.94 562.743C1100.94 562.128 1101.2 561.538 1101.65 561.103C1102.1 560.668 1102.72 560.423 1103.36 560.423L1117.9 560.423C1118.54 560.423 1119.16 560.668 1119.61 561.103C1120.07 561.538 1120.32 562.127 1120.32 562.743L1120.32 565.062L1100.94 565.062L1100.94 562.743ZM1080.35 569.7L1096.09 569.7L1096.09 569.764L1100.94 569.764L1100.94 569.7L1120.32 569.7L1120.32 569.764L1125.17 569.764L1125.17 569.7L1140.92 569.7C1141.88 569.7 1142.8 570.067 1143.49 570.719C1144.17 571.372 1144.55 572.257 1144.55 573.179L1144.55 579.728L1110.68 588.115L1076.71 579.727L1076.71 573.179C1076.71 572.257 1077.09 571.372 1077.78 570.719C1078.46 570.067 1079.38 569.7 1080.35 569.7V569.7ZM1140.92 611.447L1080.35 611.447C1079.38 611.447 1078.46 611.081 1077.78 610.428C1077.09 609.776 1076.71 608.891 1076.71 607.968L1076.71 584.518L1110.68 592.909L1144.55 584.519L1144.55 607.968C1144.55 608.891 1144.17 609.776 1143.49 610.428C1142.8 611.081 1141.88 611.447 1140.92 611.447V611.447Z" fill="black"/>
</g>
<g filter="url(#filter14_d_801_61)">
<rect x="1258.09" y="271.501" width="161.521" height="161.521" rx="20" fill="white"/>
<path d="M1369.42 323.546L1308.28 323.546C1305.92 323.549 1303.65 324.489 1301.98 326.16C1300.31 327.832 1299.37 330.098 1299.37 332.462L1299.37 373.451C1299.37 375.814 1300.31 378.081 1301.98 379.752C1303.65 381.423 1305.92 382.364 1308.28 382.366L1369.42 382.366C1371.78 382.364 1374.05 381.423 1375.72 379.752C1377.39 378.081 1378.33 375.814 1378.33 373.451L1378.33 332.462C1378.33 330.098 1377.39 327.832 1375.72 326.16C1374.05 324.489 1371.78 323.549 1369.42 323.546ZM1308.28 328.641L1369.42 328.641C1370.43 328.641 1371.4 329.043 1372.12 329.76C1372.84 330.476 1373.24 331.448 1373.24 332.462L1373.24 343.694L1304.46 343.694L1304.46 332.462C1304.46 331.448 1304.87 330.476 1305.58 329.76C1306.3 329.043 1307.27 328.641 1308.28 328.641V328.641ZM1369.42 377.271L1308.28 377.271C1307.27 377.271 1306.3 376.869 1305.58 376.152C1304.87 375.436 1304.46 374.464 1304.46 373.451L1304.46 348.79L1373.24 348.79L1373.24 373.451C1373.24 374.464 1372.84 375.436 1372.12 376.152C1371.4 376.869 1370.43 377.271 1369.42 377.271V377.271ZM1324.73 369.646C1324.73 370.321 1324.46 370.969 1323.99 371.447C1323.51 371.924 1322.86 372.193 1322.19 372.193L1312 372.193C1311.32 372.193 1310.67 371.924 1310.2 371.447C1309.72 370.969 1309.45 370.321 1309.45 369.646C1309.45 368.97 1309.72 368.322 1310.2 367.844C1310.67 367.367 1311.32 367.098 1312 367.098L1322.19 367.098C1322.86 367.098 1323.51 367.367 1323.99 367.844C1324.46 368.322 1324.73 368.97 1324.73 369.646ZM1345.11 369.646C1345.11 370.321 1344.84 370.969 1344.37 371.447C1343.89 371.924 1343.24 372.193 1342.56 372.193L1332.38 372.193C1331.7 372.193 1331.05 371.924 1330.57 371.447C1330.1 370.969 1329.83 370.321 1329.83 369.646C1329.83 368.97 1330.1 368.322 1330.57 367.844C1331.05 367.367 1331.7 367.098 1332.38 367.098L1342.56 367.098C1343.24 367.098 1343.89 367.367 1344.37 367.844C1344.84 368.322 1345.11 368.97 1345.11 369.646Z" fill="black"/>
</g>
<g filter="url(#filter15_d_801_61)">
<rect x="1030.47" y="273.654" width="161.521" height="161.521" rx="20" fill="#EF4444"/>
<path d="M1150.71 391.42C1150.71 392.077 1150.45 392.707 1149.99 393.172C1149.52 393.636 1148.89 393.897 1148.24 393.897L1074.23 393.897C1073.57 393.897 1072.94 393.636 1072.47 393.172C1072.01 392.707 1071.75 392.077 1071.75 391.42L1071.75 317.409C1071.75 316.752 1072.01 316.122 1072.47 315.657C1072.94 315.193 1073.57 314.932 1074.23 314.932C1074.88 314.932 1075.51 315.193 1075.98 315.657C1076.44 316.122 1076.7 316.752 1076.7 317.409L1076.7 388.943L1148.24 388.943C1148.89 388.943 1149.52 389.204 1149.99 389.668C1150.45 390.133 1150.71 390.763 1150.71 391.42ZM1083.92 373.879C1084.41 374.318 1085.05 374.545 1085.71 374.51C1086.36 374.475 1086.98 374.181 1087.42 373.693L1106.22 352.769L1115.02 360.918C1115.5 361.359 1116.13 361.595 1116.78 361.575C1117.43 361.555 1118.04 361.281 1118.49 360.811L1138.91 339.459L1138.91 353.227C1138.91 353.884 1139.17 354.514 1139.63 354.979C1140.1 355.443 1140.73 355.704 1141.38 355.704C1142.04 355.704 1142.67 355.443 1143.14 354.979C1143.6 354.514 1143.86 353.884 1143.86 353.227L1143.86 333.281C1143.86 333.272 1143.86 333.263 1143.86 333.253L1143.86 333.115C1143.86 333.069 1143.86 333.043 1143.85 333.006C1143.85 332.968 1143.84 332.925 1143.84 332.886L1143.81 332.764C1143.81 332.724 1143.8 332.696 1143.79 332.66L1143.75 332.53L1143.72 332.43C1143.7 332.388 1143.69 332.346 1143.67 332.306C1143.65 332.264 1143.64 332.234 1143.62 332.197L1143.57 332.09C1143.55 332.055 1143.52 332.019 1143.5 331.984L1143.44 331.886L1143.37 331.793L1143.29 331.691C1143.27 331.664 1143.25 331.638 1143.22 331.614L1143.12 331.508L1143.1 331.49C1143.09 331.471 1143.07 331.457 1143.05 331.439L1142.94 331.347L1142.85 331.278L1142.74 331.205L1142.64 331.143L1142.53 331.084L1142.42 331.03L1142.31 330.982L1142.2 330.94L1142.09 330.903L1141.97 330.873L1141.85 330.847L1141.72 330.827L1141.61 330.815L1141.47 330.815L1141.39 330.815L1121.44 330.815C1120.78 330.815 1120.15 331.076 1119.69 331.54C1119.22 332.005 1118.96 332.635 1118.96 333.292C1118.96 333.949 1119.22 334.579 1119.69 335.044C1120.15 335.508 1120.78 335.769 1121.44 335.769L1135.59 335.769L1116.6 355.622L1107.74 347.425C1107.5 347.202 1107.22 347.028 1106.91 346.915C1106.6 346.802 1106.28 346.751 1105.95 346.765C1105.62 346.779 1105.3 346.859 1105 346.999C1104.7 347.139 1104.44 347.336 1104.22 347.58L1083.73 370.381C1083.29 370.87 1083.07 371.513 1083.1 372.169C1083.14 372.825 1083.43 373.44 1083.92 373.879V373.879Z" fill="white"/>
</g>
<g filter="url(#filter16_d_801_61)">
<rect x="801.65" y="500.022" width="161.521" height="161.521" rx="20" fill="white"/>
<path d="M879.123 565.09C879.123 564.439 879.316 563.803 879.678 563.262C880.039 562.721 880.553 562.299 881.154 562.05C881.756 561.801 882.417 561.736 883.055 561.863C883.693 561.99 884.28 562.304 884.74 562.764C885.2 563.224 885.513 563.81 885.64 564.448C885.767 565.086 885.702 565.748 885.453 566.349C885.204 566.95 884.782 567.464 884.241 567.826C883.7 568.187 883.064 568.38 882.413 568.38C881.541 568.38 880.704 568.033 880.087 567.416C879.47 566.799 879.123 565.963 879.123 565.09ZM855.819 587.983C855.169 587.983 854.532 588.176 853.991 588.537C853.45 588.899 853.029 589.413 852.78 590.014C852.531 590.615 852.466 591.277 852.592 591.915C852.719 592.553 853.033 593.139 853.493 593.599C853.953 594.059 854.539 594.373 855.177 594.5C855.816 594.627 856.477 594.562 857.078 594.312C857.679 594.063 858.193 593.642 858.555 593.101C858.916 592.56 859.109 591.924 859.109 591.273C859.109 590.4 858.763 589.564 858.146 588.947C857.529 588.33 856.692 587.983 855.819 587.983ZM863.66 569.518C863.01 569.518 862.374 569.711 861.833 570.072C861.292 570.434 860.87 570.948 860.621 571.549C860.372 572.15 860.307 572.811 860.434 573.45C860.561 574.088 860.874 574.674 861.334 575.134C861.794 575.594 862.38 575.908 863.019 576.035C863.657 576.162 864.318 576.096 864.919 575.847C865.521 575.598 866.034 575.177 866.396 574.636C866.757 574.095 866.95 573.459 866.95 572.808C866.95 571.935 866.604 571.098 865.987 570.481C865.37 569.864 864.533 569.518 863.66 569.518ZM902.133 575.344L889.473 590.533C890.433 591.848 891.013 593.402 891.151 595.024C891.29 596.647 890.981 598.276 890.259 599.736C889.536 601.195 888.428 602.428 887.054 603.302C885.679 604.175 884.092 604.656 882.464 604.691L882.272 604.691C879.909 604.715 877.633 603.8 875.944 602.146C874.256 600.493 873.294 598.236 873.269 595.873C873.245 593.51 874.16 591.233 875.814 589.545C877.467 587.857 879.724 586.894 882.087 586.87L882.279 586.87C883.6 586.868 884.904 587.162 886.097 587.731L898.763 572.535C899.136 572.088 899.671 571.808 900.25 571.755C900.829 571.703 901.406 571.882 901.852 572.255C902.299 572.627 902.58 573.162 902.632 573.741C902.685 574.321 902.505 574.897 902.133 575.344ZM886.8 595.687C886.775 594.504 886.287 593.378 885.442 592.55C884.596 591.722 883.46 591.259 882.276 591.259L882.175 591.259C880.975 591.272 879.829 591.76 878.99 592.617C878.15 593.474 877.685 594.63 877.698 595.83C877.71 597.029 878.199 598.175 879.056 599.015C879.913 599.854 881.068 600.319 882.268 600.307L882.37 600.307C882.964 600.295 883.55 600.165 884.094 599.927C884.639 599.688 885.131 599.344 885.542 598.915C885.954 598.486 886.277 597.98 886.492 597.426C886.708 596.872 886.813 596.281 886.8 595.687V595.687ZM908.596 587.983C907.946 587.983 907.31 588.176 906.768 588.537C906.227 588.899 905.806 589.413 905.557 590.014C905.308 590.615 905.243 591.277 905.37 591.915C905.496 592.553 905.81 593.139 906.27 593.599C906.73 594.059 907.316 594.373 907.954 594.5C908.593 594.627 909.254 594.562 909.855 594.312C910.456 594.063 910.97 593.642 911.332 593.101C911.693 592.56 911.886 591.924 911.886 591.273C911.886 590.4 911.54 589.564 910.923 588.947C910.306 588.33 909.469 587.983 908.596 587.983ZM921.893 591.547C921.901 597.532 920.541 603.44 917.918 608.82C917.558 609.56 916.997 610.184 916.299 610.62C915.601 611.056 914.794 611.287 913.971 611.287L850.849 611.287C850.029 611.29 849.225 611.062 848.528 610.63C847.832 610.198 847.271 609.578 846.909 608.843C843.979 602.822 842.628 596.156 842.983 589.47C843.338 582.784 845.386 576.298 848.936 570.621C852.486 564.945 857.421 560.264 863.277 557.018C869.133 553.772 875.718 552.069 882.413 552.067L882.637 552.067C904.337 552.186 921.893 569.817 921.893 591.547ZM917.507 591.547C917.515 582.271 913.848 573.37 907.307 566.793C900.767 560.215 891.886 556.498 882.611 556.454L882.413 556.454C873.188 556.422 864.326 560.042 857.762 566.524C851.158 573.02 847.457 581.724 847.32 591.032C847.225 596.526 848.434 601.964 850.849 606.9L913.975 606.9C916.314 602.121 917.522 596.868 917.507 591.547V591.547Z" fill="black"/>
</g>
<g filter="url(#filter17_d_801_61)">
<rect x="1258.99" y="504.929" width="161.521" height="161.521" rx="20" fill="white"/>
<path d="M1318.37 551.142L1318.37 564.302L1305.2 564.302L1305.2 551.142L1318.37 551.142ZM1323.3 546.207L1300.27 546.207L1300.27 569.238L1323.3 569.238L1323.3 546.207V546.207ZM1318.37 607.076L1318.37 620.237L1305.2 620.237L1305.2 607.076L1318.37 607.076V607.076ZM1323.3 602.141L1300.27 602.141L1300.27 625.172L1323.3 625.172L1323.3 602.141V602.141ZM1374.3 551.142L1374.3 564.302L1361.14 564.302L1361.14 551.142L1374.3 551.142ZM1379.24 546.207L1356.2 546.207L1356.2 569.238L1379.24 569.238L1379.24 546.207ZM1350.89 546.237L1329.3 546.237L1329.3 551.173L1345.96 551.173L1345.96 568.292L1350.89 568.292L1350.89 546.237ZM1379.22 574.06L1374.28 574.06L1374.28 594.727L1356.24 594.727L1356.24 599.663L1379.22 599.663L1379.22 574.06ZM1350.84 599.724L1334.34 599.724L1334.34 594.846L1350.73 594.846L1350.73 581.356L1356.22 581.356L1356.22 589.113L1361.15 589.113L1361.15 576.42L1345.8 576.42L1345.8 589.912L1329.41 589.912L1329.41 604.66L1345.91 604.66L1345.91 625.172L1350.84 625.172L1350.84 599.724ZM1323.08 590.455L1311.44 590.455L1311.44 595.39L1323.07 595.39L1323.08 590.455ZM1305.22 581.426L1337.18 581.426L1337.18 558.101L1332.24 558.101L1332.24 576.49L1300.29 576.49L1300.29 595.432L1305.22 595.432L1305.22 581.426ZM1334.26 615.089L1329.33 615.089L1329.33 625.172L1334.26 625.172L1334.26 615.089ZM1379.22 608.448L1356.22 608.448L1356.22 625.172L1361.15 625.172L1361.15 613.383L1374.28 613.383L1374.28 625.172L1379.22 625.172L1379.22 608.448Z" fill="black"/>
</g>
</g>
<defs>
<filter id="filter0_d_801_61" x="87.1871" y="243.2" width="237.521" height="237.521" filterUnits="userSpaceOnUse" color-interpolation-filters="sRGB">
<feFlood flood-opacity="0" result="BackgroundImageFix"/>
<feColorMatrix in="SourceAlpha" type="matrix" values="0 0 0 0 0 0 0 0 0 0 0 0 0 0 0 0 0 0 127 0" result="hardAlpha"/>
<feOffset dx="10" dy="10"/>
<feGaussianBlur stdDeviation="19"/>
<feComposite in2="hardAlpha" operator="out"/>
<feColorMatrix type="matrix" values="0 0 0 0 0.215686 0 0 0 0 0.188235 0 0 0 0 0.639216 0 0 0 0.08 0"/>
<feBlend mode="normal" in2="BackgroundImageFix" result="effect1_dropShadow_801_61"/>
<feBlend mode="normal" in="SourceGraphic" in2="effect1_dropShadow_801_61" result="shape"/>
</filter>
<filter id="filter1_d_801_61" x="518.529" y="-11.6208" width="289.521" height="289.521" filterUnits="userSpaceOnUse" color-interpolation-filters="sRGB">
<feFlood flood-opacity="0" result="BackgroundImageFix"/>
<feColorMatrix in="SourceAlpha" type="matrix" values="0 0 0 0 0 0 0 0 0 0 0 0 0 0 0 0 0 0 127 0" result="hardAlpha"/>
<feOffset dx="10" dy="10"/>
<feGaussianBlur stdDeviation="32"/>
<feComposite in2="hardAlpha" operator="out"/>
<feColorMatrix type="matrix" values="0 0 0 0 0.388235 0 0 0 0 0.4 0 0 0 0 0.945098 0 0 0 0.51 0"/>
<feBlend mode="normal" in2="BackgroundImageFix" result="effect1_dropShadow_801_61"/>
<feBlend mode="normal" in="SourceGraphic" in2="effect1_dropShadow_801_61" result="shape"/>
</filter>
<filter id="filter2_d_801_61" x="316.008" y="472.021" width="237.521" height="237.521" filterUnits="userSpaceOnUse" color-interpolation-filters="sRGB">
<feFlood flood-opacity="0" result="BackgroundImageFix"/>
<feColorMatrix in="SourceAlpha" type="matrix" values="0 0 0 0 0 0 0 0 0 0 0 0 0 0 0 0 0 0 127 0" result="hardAlpha"/>
<feOffset dx="10" dy="10"/>
<feGaussianBlur stdDeviation="19"/>
<feComposite in2="hardAlpha" operator="out"/>
<feColorMatrix type="matrix" values="0 0 0 0 0.215686 0 0 0 0 0.188235 0 0 0 0 0.639216 0 0 0 0.08 0"/>
<feBlend mode="normal" in2="BackgroundImageFix" result="effect1_dropShadow_801_61"/>
<feBlend mode="normal" in="SourceGraphic" in2="effect1_dropShadow_801_61" result="shape"/>
</filter>
<filter id="filter3_d_801_61" x="87.1871" y="14.3792" width="237.521" height="237.521" filterUnits="userSpaceOnUse" color-interpolation-filters="sRGB">
<feFlood flood-opacity="0" result="BackgroundImageFix"/>
<feColorMatrix in="SourceAlpha" type="matrix" values="0 0 0 0 0 0 0 0 0 0 0 0 0 0 0 0 0 0 127 0" result="hardAlpha"/>
<feOffset dx="10" dy="10"/>
<feGaussianBlur stdDeviation="19"/>
<feComposite in2="hardAlpha" operator="out"/>
<feColorMatrix type="matrix" values="0 0 0 0 0.215686 0 0 0 0 0.188235 0 0 0 0 0.639216 0 0 0 0.08 0"/>
<feBlend mode="normal" in2="BackgroundImageFix" result="effect1_dropShadow_801_61"/>
<feBlend mode="normal" in="SourceGraphic" in2="effect1_dropShadow_801_61" result="shape"/>
</filter>
<filter id="filter4_d_801_61" x="544.529" y="472.022" width="237.521" height="237.521" filterUnits="userSpaceOnUse" color-interpolation-filters="sRGB">
<feFlood flood-opacity="0" result="BackgroundImageFix"/>
<feColorMatrix in="SourceAlpha" type="matrix" values="0 0 0 0 0 0 0 0 0 0 0 0 0 0 0 0 0 0 127 0" result="hardAlpha"/>
<feOffset dx="10" dy="10"/>
<feGaussianBlur stdDeviation="19"/>
<feComposite in2="hardAlpha" operator="out"/>
<feColorMatrix type="matrix" values="0 0 0 0 0.215686 0 0 0 0 0.188235 0 0 0 0 0.639216 0 0 0 0.08 0"/>
<feBlend mode="normal" in2="BackgroundImageFix" result="effect1_dropShadow_801_61"/>
<feBlend mode="normal" in="SourceGraphic" in2="effect1_dropShadow_801_61" result="shape"/>
</filter>
<filter id="filter5_d_801_61" x="316.008" y="243.501" width="237.521" height="237.521" filterUnits="userSpaceOnUse" color-interpolation-filters="sRGB">
<feFlood flood-opacity="0" result="BackgroundImageFix"/>
<feColorMatrix in="SourceAlpha" type="matrix" values="0 0 0 0 0 0 0 0 0 0 0 0 0 0 0 0 0 0 127 0" result="hardAlpha"/>
<feOffset dx="10" dy="10"/>
<feGaussianBlur stdDeviation="19"/>
<feComposite in2="hardAlpha" operator="out"/>
<feColorMatrix type="matrix" values="0 0 0 0 0.215686 0 0 0 0 0.188235 0 0 0 0 0.639216 0 0 0 0.08 0"/>
<feBlend mode="normal" in2="BackgroundImageFix" result="effect1_dropShadow_801_61"/>
<feBlend mode="normal" in="SourceGraphic" in2="effect1_dropShadow_801_61" result="shape"/>
</filter>
<filter id="filter6_d_801_61" x="63.1871" y="448.022" width="285.521" height="285.521" filterUnits="userSpaceOnUse" color-interpolation-filters="sRGB">
<feFlood flood-opacity="0" result="BackgroundImageFix"/>
<feColorMatrix in="SourceAlpha" type="matrix" values="0 0 0 0 0 0 0 0 0 0 0 0 0 0 0 0 0 0 127 0" result="hardAlpha"/>
<feOffset dx="10" dy="10"/>
<feGaussianBlur stdDeviation="31"/>
<feComposite in2="hardAlpha" operator="out"/>
<feColorMatrix type="matrix" values="0 0 0 0 0.917647 0 0 0 0 0.701961 0 0 0 0 0.0313726 0 0 0 0.51 0"/>
<feBlend mode="normal" in2="BackgroundImageFix" result="effect1_dropShadow_801_61"/>
<feBlend mode="normal" in="SourceGraphic" in2="effect1_dropShadow_801_61" result="shape"/>
</filter>
<filter id="filter7_d_801_61" x="316.008" y="14.3792" width="237.521" height="237.521" filterUnits="userSpaceOnUse" color-interpolation-filters="sRGB">
<feFlood flood-opacity="0" result="BackgroundImageFix"/>
<feColorMatrix in="SourceAlpha" type="matrix" values="0 0 0 0 0 0 0 0 0 0 0 0 0 0 0 0 0 0 127 0" result="hardAlpha"/>
<feOffset dx="10" dy="10"/>
<feGaussianBlur stdDeviation="19"/>
<feComposite in2="hardAlpha" operator="out"/>
<feColorMatrix type="matrix" values="0 0 0 0 0.215686 0 0 0 0 0.188235 0 0 0 0 0.639216 0 0 0 0.08 0"/>
<feBlend mode="normal" in2="BackgroundImageFix" result="effect1_dropShadow_801_61"/>
<feBlend mode="normal" in="SourceGraphic" in2="effect1_dropShadow_801_61" result="shape"/>
</filter>
<filter id="filter8_d_801_61" x="544.829" y="243.9" width="237.521" height="237.521" filterUnits="userSpaceOnUse" color-interpolation-filters="sRGB">
<feFlood flood-opacity="0" result="BackgroundImageFix"/>
<feColorMatrix in="SourceAlpha" type="matrix" values="0 0 0 0 0 0 0 0 0 0 0 0 0 0 0 0 0 0 127 0" result="hardAlpha"/>
<feOffset dx="10" dy="10"/>
<feGaussianBlur stdDeviation="19"/>
<feComposite in2="hardAlpha" operator="out"/>
<feColorMatrix type="matrix" values="0 0 0 0 0.215686 0 0 0 0 0.188235 0 0 0 0 0.639216 0 0 0 0.08 0"/>
<feBlend mode="normal" in2="BackgroundImageFix" result="effect1_dropShadow_801_61"/>
<feBlend mode="normal" in="SourceGraphic" in2="effect1_dropShadow_801_61" result="shape"/>
</filter>
<filter id="filter9_d_801_61" x="1002.47" y="14.3793" width="237.521" height="237.521" filterUnits="userSpaceOnUse" color-interpolation-filters="sRGB">
<feFlood flood-opacity="0" result="BackgroundImageFix"/>
<feColorMatrix in="SourceAlpha" type="matrix" values="0 0 0 0 0 0 0 0 0 0 0 0 0 0 0 0 0 0 127 0" result="hardAlpha"/>
<feOffset dx="10" dy="10"/>
<feGaussianBlur stdDeviation="19"/>
<feComposite in2="hardAlpha" operator="out"/>
<feColorMatrix type="matrix" values="0 0 0 0 0.215686 0 0 0 0 0.188235 0 0 0 0 0.639216 0 0 0 0.08 0"/>
<feBlend mode="normal" in2="BackgroundImageFix" result="effect1_dropShadow_801_61"/>
<feBlend mode="normal" in="SourceGraphic" in2="effect1_dropShadow_801_61" result="shape"/>
</filter>
<filter id="filter10_d_801_61" x="773.65" y="14.3793" width="237.521" height="237.521" filterUnits="userSpaceOnUse" color-interpolation-filters="sRGB">
<feFlood flood-opacity="0" result="BackgroundImageFix"/>
<feColorMatrix in="SourceAlpha" type="matrix" values="0 0 0 0 0 0 0 0 0 0 0 0 0 0 0 0 0 0 127 0" result="hardAlpha"/>
<feOffset dx="10" dy="10"/>
<feGaussianBlur stdDeviation="19"/>
<feComposite in2="hardAlpha" operator="out"/>
<feColorMatrix type="matrix" values="0 0 0 0 0.215686 0 0 0 0 0.188235 0 0 0 0 0.639216 0 0 0 0.08 0"/>
<feBlend mode="normal" in2="BackgroundImageFix" result="effect1_dropShadow_801_61"/>
<feBlend mode="normal" in="SourceGraphic" in2="effect1_dropShadow_801_61" result="shape"/>
</filter>
<filter id="filter11_d_801_61" x="1231.29" y="14.3793" width="237.521" height="237.521" filterUnits="userSpaceOnUse" color-interpolation-filters="sRGB">
<feFlood flood-opacity="0" result="BackgroundImageFix"/>
<feColorMatrix in="SourceAlpha" type="matrix" values="0 0 0 0 0 0 0 0 0 0 0 0 0 0 0 0 0 0 127 0" result="hardAlpha"/>
<feOffset dx="10" dy="10"/>
<feGaussianBlur stdDeviation="19"/>
<feComposite in2="hardAlpha" operator="out"/>
<feColorMatrix type="matrix" values="0 0 0 0 0.215686 0 0 0 0 0.188235 0 0 0 0 0.639216 0 0 0 0.08 0"/>
<feBlend mode="normal" in2="BackgroundImageFix" result="effect1_dropShadow_801_61"/>
<feBlend mode="normal" in="SourceGraphic" in2="effect1_dropShadow_801_61" result="shape"/>
</filter>
<filter id="filter12_d_801_61" x="773.05" y="245.654" width="237.521" height="237.521" filterUnits="userSpaceOnUse" color-interpolation-filters="sRGB">
<feFlood flood-opacity="0" result="BackgroundImageFix"/>
<feColorMatrix in="SourceAlpha" type="matrix" values="0 0 0 0 0 0 0 0 0 0 0 0 0 0 0 0 0 0 127 0" result="hardAlpha"/>
<feOffset dx="10" dy="10"/>
<feGaussianBlur stdDeviation="19"/>
<feComposite in2="hardAlpha" operator="out"/>
<feColorMatrix type="matrix" values="0 0 0 0 0.215686 0 0 0 0 0.188235 0 0 0 0 0.639216 0 0 0 0.08 0"/>
<feBlend mode="normal" in2="BackgroundImageFix" result="effect1_dropShadow_801_61"/>
<feBlend mode="normal" in="SourceGraphic" in2="effect1_dropShadow_801_61" result="shape"/>
</filter>
<filter id="filter13_d_801_61" x="1001.87" y="477.175" width="237.521" height="237.521" filterUnits="userSpaceOnUse" color-interpolation-filters="sRGB">
<feFlood flood-opacity="0" result="BackgroundImageFix"/>
<feColorMatrix in="SourceAlpha" type="matrix" values="0 0 0 0 0 0 0 0 0 0 0 0 0 0 0 0 0 0 127 0" result="hardAlpha"/>
<feOffset dx="10" dy="10"/>
<feGaussianBlur stdDeviation="19"/>
<feComposite in2="hardAlpha" operator="out"/>
<feColorMatrix type="matrix" values="0 0 0 0 0.215686 0 0 0 0 0.188235 0 0 0 0 0.639216 0 0 0 0.08 0"/>
<feBlend mode="normal" in2="BackgroundImageFix" result="effect1_dropShadow_801_61"/>
<feBlend mode="normal" in="SourceGraphic" in2="effect1_dropShadow_801_61" result="shape"/>
</filter>
<filter id="filter14_d_801_61" x="1230.09" y="243.501" width="237.521" height="237.521" filterUnits="userSpaceOnUse" color-interpolation-filters="sRGB">
<feFlood flood-opacity="0" result="BackgroundImageFix"/>
<feColorMatrix in="SourceAlpha" type="matrix" values="0 0 0 0 0 0 0 0 0 0 0 0 0 0 0 0 0 0 127 0" result="hardAlpha"/>
<feOffset dx="10" dy="10"/>
<feGaussianBlur stdDeviation="19"/>
<feComposite in2="hardAlpha" operator="out"/>
<feColorMatrix type="matrix" values="0 0 0 0 0.215686 0 0 0 0 0.188235 0 0 0 0 0.639216 0 0 0 0.08 0"/>
<feBlend mode="normal" in2="BackgroundImageFix" result="effect1_dropShadow_801_61"/>
<feBlend mode="normal" in="SourceGraphic" in2="effect1_dropShadow_801_61" result="shape"/>
</filter>
<filter id="filter15_d_801_61" x="1002.47" y="245.654" width="237.521" height="237.521" filterUnits="userSpaceOnUse" color-interpolation-filters="sRGB">
<feFlood flood-opacity="0" result="BackgroundImageFix"/>
<feColorMatrix in="SourceAlpha" type="matrix" values="0 0 0 0 0 0 0 0 0 0 0 0 0 0 0 0 0 0 127 0" result="hardAlpha"/>
<feOffset dx="10" dy="10"/>
<feGaussianBlur stdDeviation="19"/>
<feComposite in2="hardAlpha" operator="out"/>
<feColorMatrix type="matrix" values="0 0 0 0 0.937255 0 0 0 0 0.266667 0 0 0 0 0.266667 0 0 0 0.08 0"/>
<feBlend mode="normal" in2="BackgroundImageFix" result="effect1_dropShadow_801_61"/>
<feBlend mode="normal" in="SourceGraphic" in2="effect1_dropShadow_801_61" result="shape"/>
</filter>
<filter id="filter16_d_801_61" x="773.65" y="472.022" width="237.521" height="237.521" filterUnits="userSpaceOnUse" color-interpolation-filters="sRGB">
<feFlood flood-opacity="0" result="BackgroundImageFix"/>
<feColorMatrix in="SourceAlpha" type="matrix" values="0 0 0 0 0 0 0 0 0 0 0 0 0 0 0 0 0 0 127 0" result="hardAlpha"/>
<feOffset dx="10" dy="10"/>
<feGaussianBlur stdDeviation="19"/>
<feComposite in2="hardAlpha" operator="out"/>
<feColorMatrix type="matrix" values="0 0 0 0 0.215686 0 0 0 0 0.188235 0 0 0 0 0.639216 0 0 0 0.08 0"/>
<feBlend mode="normal" in2="BackgroundImageFix" result="effect1_dropShadow_801_61"/>
<feBlend mode="normal" in="SourceGraphic" in2="effect1_dropShadow_801_61" result="shape"/>
</filter>
<filter id="filter17_d_801_61" x="1230.99" y="476.929" width="237.521" height="237.521" filterUnits="userSpaceOnUse" color-interpolation-filters="sRGB">
<feFlood flood-opacity="0" result="BackgroundImageFix"/>
<feColorMatrix in="SourceAlpha" type="matrix" values="0 0 0 0 0 0 0 0 0 0 0 0 0 0 0 0 0 0 127 0" result="hardAlpha"/>
<feOffset dx="10" dy="10"/>
<feGaussianBlur stdDeviation="19"/>
<feComposite in2="hardAlpha" operator="out"/>
<feColorMatrix type="matrix" values="0 0 0 0 0.215686 0 0 0 0 0.188235 0 0 0 0 0.639216 0 0 0 0.08 0"/>
<feBlend mode="normal" in2="BackgroundImageFix" result="effect1_dropShadow_801_61"/>
<feBlend mode="normal" in="SourceGraphic" in2="effect1_dropShadow_801_61" result="shape"/>
</filter>
<linearGradient id="paint0_linear_801_61" x1="767.845" y1="0.00012207" x2="767.845" y2="172.264" gradientUnits="userSpaceOnUse">
<stop stop-color="#EBF0FE"/>
<stop offset="1" stop-color="#E0E7FF" stop-opacity="0"/>
</linearGradient>
<linearGradient id="paint1_linear_801_61" x1="2304" y1="711" x2="2304" y2="883.264" gradientUnits="userSpaceOnUse">
<stop stop-color="#EBF0FE"/>
<stop offset="1" stop-color="#E0E7FF" stop-opacity="0"/>
</linearGradient>
<clipPath id="clip0_801_61">
<rect width="1536" height="711" fill="white"/>
</clipPath>
</defs>
</svg>
