<svg width="257" height="44" viewBox="0 0 257 44" fill="none" xmlns="http://www.w3.org/2000/svg">
<path fill-rule="evenodd" clip-rule="evenodd" d="M169.849 15.7945H165.167V13.4356C165.167 12.7987 165.422 12.1882 165.874 11.7401C166.326 11.292 166.939 11.0434 167.576 11.0497H169.933V7.92916C169.933 3.41349 173.794 0.929871 178.092 0.929871C179.682 0.945897 181.253 1.26975 182.72 1.88355L180.675 6.55761C180.066 6.20555 179.381 6.00557 178.678 5.97462C177.425 5.97462 176.32 6.69578 176.32 8.51216V11.0463H182.262V15.7912H176.3V34.2818H169.856L169.849 15.7945ZM154.142 3.80103V29.6583H154.152C154.152 33.746 156.561 34.7469 159.491 34.7469C161.052 34.716 162.607 34.5605 164.143 34.2818V29.5134C163.575 29.5956 163.003 29.6429 162.429 29.6549C161.176 29.6549 160.384 29.1865 160.384 28.0947V1.41851H156.527C155.895 1.41761 155.288 1.66823 154.841 2.11514C154.394 2.56205 154.142 3.16856 154.142 3.80103ZM146.311 1.43536H144.526V1.42188C143.21 1.42188 142.144 2.48857 142.144 3.8044V4.28293C142.144 5.59876 143.21 6.66545 144.526 6.66545H146.311C146.943 6.66635 147.549 6.41562 147.996 5.96861C148.443 5.52161 148.693 4.91509 148.692 4.28293V3.81788C148.693 3.18572 148.443 2.5792 147.996 2.13219C147.549 1.68519 146.943 1.43446 146.311 1.43536ZM63.2123 11.0463H59.1501H59.1467C58.5142 11.0454 57.9072 11.2959 57.4594 11.7428C57.0115 12.1896 56.7594 12.7961 56.7585 13.4289V43.9164H63.2157V31.9633C65.0111 33.9617 67.6654 34.7536 70.4005 34.7536C77.5887 34.7536 81.4489 29.1461 81.4489 22.6557C81.4489 16.2326 77.5752 10.5577 70.5016 10.5577C67.8405 10.5577 65.0043 11.3732 63.2123 13.3716V11.0463ZM68.9386 15.7912C73.23 15.7912 75.15 18.7904 75.15 22.6523C75.15 26.5142 73.2367 29.6078 68.9386 29.6078C64.6405 29.6078 62.6465 26.5614 62.6465 22.6523C62.6465 18.7432 64.6473 15.7912 68.9386 15.7912ZM85.0126 25.0112V13.4289C85.0135 12.7943 85.267 12.1863 85.7171 11.7392C86.1672 11.2921 86.7767 11.0427 87.4109 11.0463H91.1903V24.2799C91.1903 27.3129 92.8745 29.5134 96.0745 29.5134C99.5776 29.5134 101.828 27.7948 101.828 23.7441V13.4322C101.83 12.1158 102.897 11.0497 104.213 11.0497H108.019V34.2852H101.814V31.5623C99.7696 33.8673 96.8021 34.7502 94.269 34.7502C87.5659 34.7502 85.0059 29.8639 85.0059 25.0045L85.0126 25.0112ZM119.508 11.0598H115.446V11.0463C114.13 11.0463 113.063 12.1125 113.061 13.4289V43.9299H119.508V31.9768C121.304 33.9752 123.958 34.7671 126.693 34.7671C133.878 34.7671 137.742 29.1596 137.742 22.6691C137.742 16.2461 133.868 10.5712 126.794 10.5712C124.137 10.5712 121.294 11.3867 119.508 13.385V11.0598ZM131.446 22.6607C131.444 18.8012 129.524 15.8046 125.231 15.8046C120.937 15.8046 118.943 18.7567 118.943 22.6658C118.943 26.5749 120.937 29.6212 125.231 29.6212C129.524 29.6212 131.444 26.5237 131.446 22.6607ZM144.67 11.0497H148.527V34.2852H142.316V13.4289C142.318 12.1229 143.369 11.0611 144.674 11.0463L144.67 11.0497ZM190.868 1.42188H189.093C188.459 1.41828 187.85 1.66782 187.401 2.11512C186.952 2.56242 186.7 3.17048 186.701 3.8044V4.26945C186.7 4.90161 186.951 5.50813 187.398 5.95513C187.845 6.40214 188.451 6.65287 189.083 6.65197H190.868C192.183 6.65197 193.25 5.58528 193.25 4.26945V3.8044C193.25 2.48857 192.183 1.42188 190.868 1.42188ZM189.238 11.0497H193.091V34.2852H186.86V13.4289C186.862 12.1125 187.929 11.0463 189.245 11.0463L189.238 11.0497ZM205.002 11.0497H201.297L201.303 11.0463C199.989 11.0482 198.924 12.1138 198.922 13.4289V34.2818H204.968V24.4653C204.968 18.5578 208 16.0944 210.907 16.1248C211.891 16.1246 212.857 16.3976 213.696 16.9133L216.535 12.2629C215.306 11.1171 213.537 10.5779 211.853 10.5779C208.99 10.5779 206.1 12.1449 205.002 14.9588V11.0497ZM217.364 27.6701L220.918 26.2379C221.591 27.9228 222.966 30.0526 226.364 30.0526C229.254 30.0526 230.507 28.5159 230.507 27.2893C230.507 25.6932 228.368 25.187 225.836 24.5879C222.167 23.7199 217.674 22.6569 217.674 17.7996C217.674 12.8897 222.228 10.5644 227.163 10.5644C230.817 10.5644 233.748 11.8787 235.752 14.1298C236.047 14.4617 236.172 14.9113 236.09 15.3477C236.008 15.784 235.729 16.158 235.334 16.3607L232.033 17.9984C231.164 16.5561 229.733 15.043 226.981 15.043C224.936 15.043 223.68 15.9529 223.68 17.0448C223.68 18.4167 225.662 18.9327 228.079 19.5614C231.846 20.5418 236.668 21.7965 236.668 26.9995C236.668 32.3711 231.528 34.7502 226.698 34.7502C222.107 34.7502 218.445 32.607 216.704 29.7459C216.486 29.3878 216.436 28.9523 216.566 28.5539C216.696 28.1554 216.994 27.8338 217.381 27.6734L217.364 27.6701ZM243.536 15.7912V27.8622C243.536 32.0948 246.528 34.7469 251.513 34.7469C253.091 34.7477 254.66 34.5126 256.168 34.0493V28.9102C255.046 29.415 253.837 29.6988 252.608 29.7459C250.971 29.7459 249.768 29.0955 249.768 26.8613V15.7912H256.168V11.0463H249.768V1.21631L244.715 4.55926C244.041 5.00019 243.638 5.75506 243.648 6.56098V11.0497H241.812C240.496 11.0497 239.429 12.1158 239.427 13.4322V15.7912H243.536ZM23.1098 17.0616C25.6288 17.0609 27.9003 18.5784 28.865 20.9065C29.8298 23.2352 29.2972 25.916 27.5155 27.6985C25.7338 29.481 23.0541 30.0139 20.7265 29.0486C18.3989 28.0833 16.882 25.81 16.8833 23.2892C16.8833 21.637 17.5396 20.0524 18.7077 18.8844C19.8754 17.7168 21.4589 17.0612 23.1098 17.0616ZM23.1081 4.71091C32.0917 4.71091 39.9603 12.7313 44.2954 18.231H44.2887C46.6243 21.1924 46.6271 25.3694 44.2954 28.3339C39.9502 33.837 32.0883 41.8574 23.1081 41.8574C20.9741 41.8355 18.8629 41.4149 16.8833 40.6173V34.0695C21.7761 36.9037 27.9619 36.0943 31.9615 32.0966C35.9611 28.0988 36.7757 21.9109 33.9471 17.0134C31.1186 12.116 25.3531 9.73182 19.8937 11.202C14.4344 12.6722 10.6442 17.6296 10.6552 23.2858V37.0687C7.07454 34.4065 4.06656 31.0602 1.92088 28.3407C-0.416336 25.3764 -0.416336 21.1953 1.92088 18.231C6.26612 12.7313 14.1246 4.71091 23.1081 4.71091Z" fill="#6025C0"/>
</svg>
