<svg id="Layer_1" data-name="Layer 1" xmlns="http://www.w3.org/2000/svg" viewBox="0 0 100 100"><defs><style>.cls-1{fill:#fcc54e;}.cls-2{fill:#3cb7c6;}.cls-3{fill:#fff;}</style></defs><title>business_idea</title><path class="cls-1" d="M68.4,42.92A22.31,22.31,0,1,0,30,58.42a25.72,25.72,0,0,1,7.25,17.86v2.38h17.6V76.28A25.35,25.35,0,0,1,62,58.53,22.23,22.23,0,0,0,68.4,42.92Zm0,0"/><rect class="cls-2" x="37.28" y="78.67" width="17.6" height="10.34"/><path class="cls-3" d="M50.41,89a4.63,4.63,0,1,1-9.26,0Zm0,0"/><path d="M46.29,18.8A24.12,24.12,0,0,0,28.73,59.68a23.8,23.8,0,0,1,6.74,16.61V89a1.81,1.81,0,0,0,1.81,1.81h2.31a6.44,6.44,0,0,0,12.36,0h2.93A1.81,1.81,0,0,0,56.7,89V76.28A23.38,23.38,0,0,1,63.32,59.8a24.12,24.12,0,0,0-17-41Zm-.52,73a2.82,2.82,0,0,1-2.16-1h4.32a2.82,2.82,0,0,1-2.16,1Zm7.3-4.63h-14V80.48h14Zm7.66-29.94a27,27,0,0,0-7.66,19v.57h-14v-.57a27.4,27.4,0,0,0-7.76-19.12,20.5,20.5,0,1,1,29.39.1Zm0,0"/><path d="M46.08,14.61A1.81,1.81,0,0,0,47.9,12.8V6.36a1.81,1.81,0,0,0-3.62,0V12.8a1.81,1.81,0,0,0,1.81,1.81Zm0,0"/><path d="M20,10a1.81,1.81,0,0,0,2.93-2.13L21.63,6.06A1.81,1.81,0,0,0,18.7,8.19Zm0,0"/><path d="M27.13,19.8a1.81,1.81,0,0,0,2.93-2.13L26.6,12.91A1.81,1.81,0,0,0,23.67,15Zm0,0"/><path d="M11.25,33.55l6.13,2a1.81,1.81,0,0,0,1.12-3.45l-6.13-2a1.81,1.81,0,0,0-1.12,3.45Zm0,0"/><path d="M19.9,51.72a1.81,1.81,0,0,0-2.28-1.16l-6.13,2A1.81,1.81,0,1,0,12.61,56l6.13-2a1.81,1.81,0,0,0,1.16-2.28Zm0,0"/><path d="M23.13,75.47a1.81,1.81,0,0,0-2.53.4L19,78.09a1.81,1.81,0,1,0,2.93,2.13L23.53,78a1.81,1.81,0,0,0-.4-2.53Zm0,0"/><path d="M28.91,67.52a1.81,1.81,0,0,0-2.53.4l-1.6,2.21a1.81,1.81,0,1,0,2.93,2.13l1.6-2.2a1.81,1.81,0,0,0-.4-2.53Zm0,0"/><path d="M65.82,65.55a1.81,1.81,0,1,0-2.93,2.13l3.79,5.21a1.81,1.81,0,1,0,2.93-2.13Zm0,0"/><path d="M81.7,51.81l-6.13-2a1.81,1.81,0,0,0-1.12,3.45l6.13,2a1.81,1.81,0,1,0,1.12-3.44Zm0,0"/><path d="M89.91,28.15A1.81,1.81,0,0,0,87.63,27L85,27.86a1.81,1.81,0,1,0,1.12,3.44l2.66-.86a1.81,1.81,0,0,0,1.16-2.28Zm0,0"/><path d="M74.77,34.88a1.83,1.83,0,0,0,.56-.09L80,33.27a1.81,1.81,0,0,0-1.12-3.45l-4.71,1.53a1.81,1.81,0,0,0,.56,3.53Zm0,0"/><path d="M62.66,19.74a1.81,1.81,0,0,0,2.53-.4L69,14.13A1.81,1.81,0,1,0,66,12l-3.79,5.21a1.81,1.81,0,0,0,.4,2.53Zm0,0"/><path d="M56.76,29.09a17.47,17.47,0,0,0-7-3.26A1.81,1.81,0,0,0,49,29.37,13.85,13.85,0,0,1,54.54,32a1.81,1.81,0,0,0,2.22-2.86Zm0,0"/><path d="M41.29,26.11A17.5,17.5,0,0,0,28.65,42.87a1.81,1.81,0,0,0,3.62,0,13.86,13.86,0,0,1,10-13.28,1.81,1.81,0,1,0-1-3.48Zm0,0"/></svg>