<svg id="Layer_1" data-name="Layer 1" xmlns="http://www.w3.org/2000/svg" viewBox="0 0 100 100"><defs><style>.cls-1{fill:#414042;}.cls-2{fill:#ffe1b2;}.cls-3{fill:#9b8579;}.cls-4{fill:#e7eced;}.cls-5{fill:#afb6bb;}.cls-6{fill:#fff;}.cls-7{fill:#231f20;}</style></defs><title>experts</title><path class="cls-1" d="M86.38,88.3v4.79H53.83L56.7,78.72,68.19,72C86.33,77.77,86.38,88.3,86.38,88.3Zm0,0"/><path class="cls-2" d="M76.81,37.55a6.11,6.11,0,0,1-5.74,5.74l-.25,0a30.71,30.71,0,0,0,.25-3.79V33.72c3.18,0,5.74,1.19,5.74,3.83Zm0,0"/><path class="cls-2" d="M71.06,33.72v5.74a30.71,30.71,0,0,1-.25,3.79c-1,7.54-5.15,13.84-11.37,17a21.5,21.5,0,0,1-18.88,0c-6.22-3.16-10.34-9.46-11.37-17a30.71,30.71,0,0,1-.25-3.79V28.94S49,28,49,22.23a41.82,41.82,0,0,0,22,6.7Zm0,0"/><path class="cls-3" d="M50,6.91c22,0,21.06,22,21.06,22a41.82,41.82,0,0,1-22-6.7c0,5.74-20.11,6.7-20.11,6.7s-1-22,21.06-22Zm0,0"/><path class="cls-4" d="M68.19,72,56.7,78.72l-1.91-8.62L54.71,70a15.43,15.43,0,0,0,4.86-3.68C61.66,68.61,68.19,72,68.19,72Zm0,0"/><path class="cls-2" d="M59.57,60.53v5.74A15.43,15.43,0,0,1,54.71,70a10.54,10.54,0,0,1-9.42,0,15.43,15.43,0,0,1-4.86-3.68V60.53l.13-.27a21.5,21.5,0,0,0,18.88,0Zm0,0"/><path class="cls-5" d="M54.79,70.11l1.91,8.62L53.83,93.09H46.17L43.3,78.72l1.91-8.62.08-.15a10.54,10.54,0,0,0,9.42,0Zm0,0"/><path class="cls-1" d="M43.3,78.72l2.87,14.36H13.62V88.3S13.79,77.82,31.81,72Zm0,0"/><path class="cls-4" d="M45.29,70l-.08.15L43.3,78.72,31.81,72s6.53-3.41,8.62-5.74A15.43,15.43,0,0,0,45.29,70Zm0,0"/><path class="cls-2" d="M29.18,43.26l-.25,0a6.11,6.11,0,0,1-5.74-5.74c0-2.64,2.57-3.83,5.74-3.83v5.74a30.71,30.71,0,0,0,.25,3.79Zm0,0"/><path class="cls-6" d="M47.13,34.68v5.74a1.92,1.92,0,0,1-1.91,1.91H35.64a1.92,1.92,0,0,1-1.91-1.91V34.68Zm0,0"/><path class="cls-6" d="M66.28,34.68v5.74a1.92,1.92,0,0,1-1.91,1.91H54.79a1.92,1.92,0,0,1-1.91-1.91V34.68Zm0,0"/><path class="cls-7" d="M68.93,70.25a46.51,46.51,0,0,1-7.44-4.76V61.32a23.62,23.62,0,0,0,11-16.25,8.07,8.07,0,0,0,6.27-7.52c0-3-2.2-5.06-5.74-5.6V29c0-.86.23-10.8-6.35-17.68C62.63,7.12,57,5,50,5S37.35,7.12,33.35,11.31C26.78,18.17,27,28.1,27,29v3c-3.55.54-5.74,2.62-5.74,5.6a8.07,8.07,0,0,0,6.27,7.52,23.62,23.62,0,0,0,11,16.25v4.16a46.57,46.57,0,0,1-7.45,4.77c-18.95,6.16-19.35,17.53-19.36,18v4.82A1.91,1.91,0,0,0,13.62,95H86.38a1.91,1.91,0,0,0,1.91-1.91v-4.8c0-.49-.28-11.93-19.36-18ZM58,75.75l-1.07-4.82a18.11,18.11,0,0,0,2.71-2,42.34,42.34,0,0,0,4.69,3.13ZM35.67,72.06a42.29,42.29,0,0,0,4.69-3.13,17.93,17.93,0,0,0,2.71,2L42,75.75ZM50,64.36a23.11,23.11,0,0,0,7.66-1.27v2.43a13.82,13.82,0,0,1-3.78,2.7,8.66,8.66,0,0,1-7.78,0,13.78,13.78,0,0,1-3.77-2.69V63.1A23.11,23.11,0,0,0,50,64.36ZM45.25,78.74l1.39-6.24a12.14,12.14,0,0,0,6.72,0l1.39,6.24L52.26,91.17H47.74Zm21-46H52.87A1.91,1.91,0,0,0,51,34.68V36.6H49V34.68a1.91,1.91,0,0,0-1.91-1.91H33.72a1.91,1.91,0,0,0-1.91,1.91V36.6h-1V30.73a81.69,81.69,0,0,0,8.5-1.11c5.5-1,9-2.55,10.6-4.57a44.11,44.11,0,0,0,19.2,5.75V36.6h-1V34.68a1.91,1.91,0,0,0-1.91-1.91ZM64.36,36.6v3.83H54.79V36.6Zm-19.15,0v3.83H35.64V36.6Zm29.68,1a4.24,4.24,0,0,1-1.95,3.22c0-.44,0-4.93,0-4.93,1,.23,1.91.71,1.91,1.71ZM36.13,13.93C39.38,10.55,44,8.83,50,8.83s10.59,1.71,13.84,5.09c4,4.21,5,10.07,5.25,13a40.58,40.58,0,0,1-18.94-6.29,1.91,1.91,0,0,0-3,1.56c0,.35-.53,1-2,1.74a27.46,27.46,0,0,1-6.42,1.88,77.26,77.26,0,0,1-7.75,1c.24-3,1.22-8.78,5.22-12.95Zm-11,23.62c0-1,.94-1.49,1.91-1.71,0,0,0,4.49,0,4.93a4.24,4.24,0,0,1-1.95-3.22Zm6,5.46c-.11-.89-.18-1.76-.21-2.59h.94a3.83,3.83,0,0,0,3.83,3.83h9.57A3.83,3.83,0,0,0,49,40.43H51a3.83,3.83,0,0,0,3.83,3.83h9.57a3.83,3.83,0,0,0,3.83-3.83h.94c0,.83-.1,1.7-.21,2.59-1,7-4.74,12.7-10.34,15.55a19.59,19.59,0,0,1-17.15,0C35.82,55.71,32.05,50,31.08,43ZM15.53,88.34a10.83,10.83,0,0,1,2.18-5.17c3.34-4.66,9.24-7.47,13.88-9.06l10,5.83,2.24,11.23H15.53Zm68.94,2.83H56.17l2.25-11.23,10-5.84c8.11,2.72,12,6.39,13.92,9a10.64,10.64,0,0,1,2.14,5.18Zm0,0"/></svg>