<svg id="Layer_1" data-name="Layer 1" xmlns="http://www.w3.org/2000/svg" viewBox="0 0 328.5 152.5"><defs><style>.cls-1{fill:#eff5f8;}.cls-2{opacity:0.7;}.cls-3{fill:#cdebfc;}.cls-4{opacity:0.2;}.cls-5{fill:#0aa5e3;}.cls-6{fill:#32b475;}.cls-7,.cls-8{fill:#e3b462;}.cls-8{opacity:0.4;}.cls-9{fill:#caedff;}.cls-10{fill:#3273ad;}.cls-11{fill:#fff;}.cls-12{fill:#fad264;}</style></defs><title>Artboard 1</title><path class="cls-1" d="M230.39,98h-35.7a3.14,3.14,0,0,0,0,6.27h4.65a3.14,3.14,0,1,1,.35,6.27H189.17a3.14,3.14,0,0,0,0,6.27h35.7a3.14,3.14,0,1,0,.35-6.27H215.13a3.14,3.14,0,0,1,0-6.27h15.25a3.14,3.14,0,0,0,0-6.27Z"/><path class="cls-1" d="M29.77,107.39H70.89a3.09,3.09,0,0,0,0-6.18H60.34a3.09,3.09,0,0,1,0-6.18h6.6a3.09,3.09,0,0,0,0-6.18H40.32a3.09,3.09,0,0,0,0,6.18h4.47a3.09,3.09,0,0,1,0,6.18h-15a3.09,3.09,0,1,0,0,6.18Z"/><path class="cls-1" d="M221,56.38h53.46a4,4,0,0,0,0-8H260.78a4,4,0,0,1,0-8h8.59a4,4,0,0,0,0-8H234.75a4,4,0,0,0,0,8h5.82a4,4,0,0,1,0,8H221a4,4,0,0,0,0,8Z"/><path class="cls-1" d="M132,54.56H81.89a3.77,3.77,0,0,0,0,7.53H94.75a3.77,3.77,0,0,1,.39,7.53H86.7a3.77,3.77,0,0,0,0,7.53h32.47a3.77,3.77,0,0,0,0-7.53h-5.46a3.77,3.77,0,1,1-.39-7.53H132a3.77,3.77,0,0,0,.39-7.53Z"/><g class="cls-2"><path class="cls-3" d="M15.9,58.1h5.81a.47.47,0,0,0,.47-.47v0a4.27,4.27,0,0,1,1.14-3.26c1.77-1.82,5-1.8,5-1.81a.53.53,0,0,0,.36-.16.48.48,0,0,0,.11-.38,9.84,9.84,0,0,1,2-6.76A7.79,7.79,0,0,1,37,42.8a7.2,7.2,0,0,1,5.4,2.06c2.4,2.51,2.26,6.5,2.26,6.54a.48.48,0,0,0,.63.47,6.65,6.65,0,0,1,5.61.26c2.84,1.65,3.64,5.54,3.65,5.58a.48.48,0,0,0,.47.38H66.43a.5.5,0,0,0,0-1h-11c-.29-1.1-1.32-4.27-4-5.83a7.29,7.29,0,0,0-5.78-.53,10.44,10.44,0,0,0-2.51-6.57A8.1,8.1,0,0,0,37,41.85a8.72,8.72,0,0,0-6.86,2.75,10.73,10.73,0,0,0-2.31,7,8.31,8.31,0,0,0-5.19,2.08,5.06,5.06,0,0,0-1.41,3.47H15.9a.5.5,0,0,0,0,1Z"/></g><g class="cls-2"><path class="cls-3" d="M131.75,15.65h2.9a.24.24,0,0,0,.24-.24h0a2.14,2.14,0,0,1,.57-1.63,4,4,0,0,1,2.5-.91.26.26,0,0,0,.18-.08.24.24,0,0,0,.06-.19,4.92,4.92,0,0,1,1-3.38A3.89,3.89,0,0,1,142.3,8,3.6,3.6,0,0,1,145,9a5,5,0,0,1,1.13,3.27.2.2,0,0,0,.31.2,3.32,3.32,0,0,1,2.81.13,4.61,4.61,0,0,1,1.82,2.79.24.24,0,0,0,.23.19H157a.24.24,0,0,0,0-.48h-5.52a4.88,4.88,0,0,0-2-2.92A3.64,3.64,0,0,0,146.6,12a5.22,5.22,0,0,0-1.25-3.29,4,4,0,0,0-3-1.18,4.36,4.36,0,0,0-3.43,1.38,5.36,5.36,0,0,0-1.16,3.5,4.15,4.15,0,0,0-2.59,1,2.53,2.53,0,0,0-.71,1.73h-2.67a.24.24,0,0,0,0,.48Z"/></g><g class="cls-2"><path class="cls-3" d="M267,49.62h0l10-.45a1.16,1.16,0,0,0,.73-.1,1.2,1.2,0,0,0,.36-.87V48a8.69,8.69,0,0,1,.34-1,6.56,6.56,0,0,1,.89-1.54,5.56,5.56,0,0,1,2.34-1.73,6.88,6.88,0,0,1,2.26-.45,7.46,7.46,0,0,1,.83,0,1.25,1.25,0,0,0,.67,0c.35-.13.48-.52.71-1.46a1,1,0,0,1,.09-.34,17.94,17.94,0,0,1,1-2.28,11.87,11.87,0,0,1,2.28-3.15,8.76,8.76,0,0,1,5.19-2.42,11.55,11.55,0,0,1,10.6,5.07,12.59,12.59,0,0,1,1.87,7.8.48.48,0,0,0,1,.1,13.57,13.57,0,0,0-2-8.41,12.37,12.37,0,0,0-11.5-5.5,9.7,9.7,0,0,0-5.75,2.68,12.8,12.8,0,0,0-2.46,3.4,18.81,18.81,0,0,0-1,2.4c0,.08-.07.23-.11.42s-.13.52-.2.74h-.19a9,9,0,0,0-.93,0,7.85,7.85,0,0,0-2.57.52,6.52,6.52,0,0,0-2.74,2,7.48,7.48,0,0,0-1,1.77,9.69,9.69,0,0,0-.38,1.11.62.62,0,0,1,0,.27v.17H277l-10,.45a.48.48,0,1,0,0,1Z"/></g><g class="cls-4"><path class="cls-5" d="M237.41,55.28a5.66,5.66,0,1,1,5.66-5.66,5.66,5.66,0,0,1-5.66,5.66Zm0-9.82a4.16,4.16,0,1,0,4.16,4.16,4.16,4.16,0,0,0-4.16-4.16Z"/><path class="cls-6" d="M61.41,79.8a5.66,5.66,0,1,1,5.66-5.66,5.66,5.66,0,0,1-5.66,5.66Zm0-9.82a4.16,4.16,0,1,0,4.16,4.16h0A4.16,4.16,0,0,0,61.41,70Z"/><path class="cls-6" d="M266.73,77.18a5.66,5.66,0,1,1,5.66-5.66h0A5.66,5.66,0,0,1,266.73,77.18Zm0-9.82a4.16,4.16,0,1,0,4.16,4.16,4.16,4.16,0,0,0-4.16-4.16Z"/><path class="cls-6" d="M235.5,88.62a3.41,3.41,0,1,1,3.41-3.41,3.41,3.41,0,0,1-3.41,3.41Zm0-5.31a1.91,1.91,0,1,0,1.91,1.91,1.91,1.91,0,0,0-1.91-1.91Z"/><path class="cls-6" d="M98.55,86.72A3.41,3.41,0,1,1,102,83.31a3.41,3.41,0,0,1-3.45,3.41Zm0-5.31a1.91,1.91,0,1,0,1.91,1.91,1.91,1.91,0,0,0-1.91-1.91h0Z"/><path class="cls-7" d="M159.78,15.61a2,2,0,1,1,2-2A2,2,0,0,1,159.78,15.61Zm0-3.38a1.37,1.37,0,1,0,1.37,1.37h0A1.38,1.38,0,0,0,159.78,12.23Z"/><path class="cls-5" d="M225.26,132.58a5.66,5.66,0,1,1,5.66-5.66,5.66,5.66,0,0,1-5.66,5.66Zm0-9.82a4.16,4.16,0,1,0,4.16,4.16h0a4.16,4.16,0,0,0-4.16-4.15Z"/><path class="cls-7" d="M74.57,123.95a5.66,5.66,0,1,1,5.66-5.66h0A5.66,5.66,0,0,1,74.57,123.95Zm0-9.82a4.16,4.16,0,1,0,4.16,4.16h0A4.16,4.16,0,0,0,74.57,114.13Z"/><path class="cls-5" d="M41.17,127.33a5.25,5.25,0,1,1,5.25-5.25A5.25,5.25,0,0,1,41.17,127.33Zm0-9a3.75,3.75,0,1,0,3.75,3.75h0A3.75,3.75,0,0,0,41.17,118.33Z"/></g><path class="cls-8" d="M213.06,79.39a5.25,5.25,0,1,1,5.25-5.25h0A5.26,5.26,0,0,1,213.06,79.39Zm0-9a3.75,3.75,0,1,0,3.75,3.75h0A3.75,3.75,0,0,0,213.06,70.39Z"/><path class="cls-9" d="M142.51,117.78l-5.07,13.89a2,2,0,0,0,.62,2.07c1,1,2.75.14,2.75.14l13.52-8.32"/><path class="cls-10" d="M139.67,134.52a2.22,2.22,0,0,1-1.82-.55,2.3,2.3,0,0,1-.7-2.41l5.07-13.89a.31.31,0,0,1,.58.21l-5.07,13.89a1.69,1.69,0,0,0,.55,1.74c.86.82,2.39.09,2.41.08l13.52-8.31a.31.31,0,0,1,.33.53L141,134.14A4.16,4.16,0,0,1,139.67,134.52Z"/><path class="cls-9" d="M199.44,112.09l7.72,12.61a2,2,0,0,1-.2,2.16c-.81,1.17-2.67.68-2.67.68l-14.93-5.48"/><path class="cls-10" d="M205.53,127.93a4.12,4.12,0,0,1-1.33-.09l-15-5.49a.31.31,0,0,1,.15-.61l.06,0,14.93,5.48h0s1.64.4,2.32-.57a1.7,1.7,0,0,0,.19-1.82l-7.72-12.61a.31.31,0,0,1,.5-.38l0,.06,7.72,12.61a2.3,2.3,0,0,1-.2,2.5A2.23,2.23,0,0,1,205.53,127.93Z"/><circle class="cls-9" cx="123.47" cy="50.08" r="5.01" transform="translate(-4.37 12.53) rotate(-5.71)"/><path class="cls-10" d="M124,55.37a5.32,5.32,0,1,1,4.77-5.83h0A5.33,5.33,0,0,1,124,55.37Zm-1-10a4.7,4.7,0,1,0,5.15,4.21h0A4.71,4.71,0,0,0,123,45.4Z"/><circle class="cls-9" cx="204.51" cy="41.97" r="5.01" transform="translate(-3.16 20.55) rotate(-5.71)"/><path class="cls-10" d="M205,47.27a5.32,5.32,0,1,1,4.77-5.83A5.32,5.32,0,0,1,205,47.27Zm-1-10a4.7,4.7,0,1,0,5.15,4.21A4.7,4.7,0,0,0,204,37.29Z"/><circle class="cls-9" cx="168.5" cy="90.59" r="37.57" transform="translate(-8.18 17.21) rotate(-5.71)"/><path class="cls-10" d="M172.26,128.27A37.9,37.9,0,1,1,206.2,86.79,37.9,37.9,0,0,1,172.26,128.27Zm-7.47-74.76a37.26,37.26,0,1,0,40.78,33.36h0A37.3,37.3,0,0,0,164.79,53.51Z"/><circle class="cls-11" cx="168.5" cy="90.59" r="30.79" transform="translate(-8.18 17.21) rotate(-5.71)"/><path class="cls-10" d="M171.59,121.5a31.1,31.1,0,1,1,27.85-34A31.1,31.1,0,0,1,171.59,121.5Zm-6.13-61.28a30.48,30.48,0,1,0,33.37,27.3,30.48,30.48,0,0,0-33.37-27.3Z"/><path class="cls-12" d="M152.37,52.57a17,17,0,1,0-23,23.47A34.34,34.34,0,0,1,152.37,52.57Z"/><path class="cls-10" d="M129.42,76.31a.3.3,0,0,1-.18,0,17.35,17.35,0,1,1,23.4-23.87.3.3,0,0,1-.11.42l-.07,0a33.82,33.82,0,0,0-22.78,23.24.3.3,0,0,1-.18.2Zm6.51-31.9a16.73,16.73,0,0,0-6.72,31.13,34.43,34.43,0,0,1,22.7-23.14A16.77,16.77,0,0,0,135.93,44.41Z"/><path class="cls-12" d="M177.34,50.07a17,17,0,1,1,27.17,18.45A34.34,34.34,0,0,0,177.34,50.07Z"/><path class="cls-10" d="M204.54,68.8h-.09a.3.3,0,0,1-.21-.16,33.82,33.82,0,0,0-26.92-18.26A.31.31,0,0,1,177,50V50a17.35,17.35,0,1,1,27.66,18.76A.3.3,0,0,1,204.54,68.8Zm-26.74-19A34.43,34.43,0,0,1,204.63,68,16.73,16.73,0,1,0,177.8,49.8Z"/><path class="cls-10" d="M164.94,53.73a.31.31,0,0,1-.33-.27l-1.09-10.87a.31.31,0,1,1,.61-.06l1.09,10.89A.31.31,0,0,1,164.94,53.73Z"/><rect class="cls-11" x="157.64" y="38.08" width="12.19" height="4.47" rx="2.23" ry="2.23" transform="translate(-3.2 16.49) rotate(-5.71)"/><path class="cls-10" d="M167.82,42.46l-7.64.76a2.55,2.55,0,0,1-.51-5.07l7.67-.77a2.55,2.55,0,0,1,.51,5.07Zm-8.09-3.69a1.93,1.93,0,0,0,.38,3.84l7.67-.77A1.93,1.93,0,0,0,167.4,38h0Z"/><circle class="cls-10" cx="168.5" cy="90.59" r="2.43" transform="translate(-8.18 17.21) rotate(-5.71)"/><path class="cls-9" d="M158.22,111.07a.41.41,0,0,1-.28-.08l-3.57-2.62a.41.41,0,0,1,.49-.67l3.57,2.62a.41.41,0,0,1-.2.74Z"/><path class="cls-9" d="M189.83,107.91a.41.41,0,0,1-.34-.69l3-3.27a.41.41,0,0,1,.61.56l-3,3.27A.41.41,0,0,1,189.83,107.91Z"/><path class="cls-9" d="M173.07,120.18l-4.41.44a.41.41,0,0,1-.08-.82l4.41-.44a.41.41,0,0,1,.08.82Z"/><path class="cls-9" d="M166.46,83a.41.41,0,0,1-.28-.08l-3.57-2.62a.41.41,0,0,1,.49-.67l3.57,2.62a.41.41,0,0,1-.2.74Z"/><path class="cls-9" d="M228.93,40.77a.41.41,0,0,1-.45-.37A24,24,0,0,0,202.2,18.9a.41.41,0,1,1-.08-.82A24.86,24.86,0,0,1,229.3,40.32.41.41,0,0,1,228.93,40.77Z"/><path class="cls-9" d="M223.22,39.13a.41.41,0,0,1-.45-.37,16.7,16.7,0,0,0-18.26-14.94.41.41,0,1,1-.08-.82,17.52,17.52,0,0,1,19.16,15.68A.41.41,0,0,1,223.22,39.13Z"/><path class="cls-9" d="M217.7,38.39a.41.41,0,0,1-.45-.37,9.89,9.89,0,0,0-10.78-8.82.41.41,0,0,1-.08-.82,10.71,10.71,0,0,1,11.68,9.55A.41.41,0,0,1,217.7,38.39Z"/><path class="cls-9" d="M99.78,54.51a.41.41,0,0,1-.45-.37A24.86,24.86,0,0,1,121.56,27a.41.41,0,1,1,.08.82,24,24,0,0,0-21.5,26.28A.41.41,0,0,1,99.78,54.51Z"/><path class="cls-9" d="M105,51.77a.41.41,0,0,1-.45-.37,17.52,17.52,0,0,1,15.68-19.16.41.41,0,1,1,.08.82,16.7,16.7,0,0,0-14.94,18.26A.41.41,0,0,1,105,51.77Z"/><path class="cls-9" d="M110.34,49.95a.41.41,0,0,1-.45-.37,10.71,10.71,0,0,1,9.55-11.68.41.41,0,1,1,.08.82,9.89,9.89,0,0,0-8.85,10.78A.41.41,0,0,1,110.34,49.95Z"/></svg>