<svg id="Layer_1" data-name="Layer 1" xmlns="http://www.w3.org/2000/svg" viewBox="0 0 40 35"><defs><style>.cls-1{fill:#32b475;}</style></defs><title>game-task</title><path class="cls-1" d="M12.61,15.35a3.74,3.74,0,1,0,3.74,3.74,3.74,3.74,0,0,0-3.74-3.74Zm0,6.09A2.35,2.35,0,1,1,15,19.08a2.36,2.36,0,0,1-2.35,2.35Zm0,0"/><path class="cls-1" d="M27.67,9.1h-.16l-.15.06a17,17,0,0,1-6.75,1.73,5,5,0,0,1,.7-3.31A2.43,2.43,0,0,1,23,6.71l1-.14c3.64-.51,7.76-1.08,8.83-4.24L31.43,2c-.81,2.41-4.32,2.89-7.71,3.37l-1,.14A3.79,3.79,0,0,0,20.2,6.87a5.94,5.94,0,0,0-1,4,21.88,21.88,0,0,1-6.41-1.73l-.13-.06h-.15C5.27,9.06,0,20.67,0,28.5A9.47,9.47,0,0,0,.9,33a3.56,3.56,0,0,0,3.26,2c3.23,0,5.21-1.71,7.12-3.36,2.2-1.9,4.47-3.86,8.93-3.86,3.67,0,6.49,2,9.22,4,2.27,1.63,4.42,3.16,6.78,3.16a3.27,3.27,0,0,0,3-1.71A7.67,7.67,0,0,0,40,29.36C40,22.52,34.42,9.1,27.67,9.1ZM38,32.62a1.88,1.88,0,0,1-1.76,1c-1.89,0-3.76-1.34-5.93-2.89-2.78-2-5.92-4.24-10.07-4.24-5,0-7.6,2.23-9.88,4.21-1.87,1.61-3.49,3-6.17,3a2.19,2.19,0,0,1-2-1.31,8.49,8.49,0,0,1-.76-3.93c0-7.1,4.72-18,11-18.19a20.89,20.89,0,0,0,8,1.84,18.09,18.09,0,0,0,7.47-1.79c5.38.22,10.8,12.25,10.8,19A6.74,6.74,0,0,1,38,32.62Zm0,0"/><path class="cls-1" d="M30.53,16.56a1.21,1.21,0,1,1-1.21-1.21,1.21,1.21,0,0,1,1.21,1.21Zm0,0"/><path class="cls-1" d="M28.07,19.15a1.21,1.21,0,1,1-1.21-1.21,1.21,1.21,0,0,1,1.21,1.21Zm0,0"/><path class="cls-1" d="M32.29,19.67a1.21,1.21,0,1,1-1.21-1.21,1.21,1.21,0,0,1,1.21,1.21Zm0,0"/><path class="cls-1" d="M28,21.25a1.21,1.21,0,1,0,1.67.37A1.2,1.2,0,0,0,28,21.25Zm0,0"/></svg>