<svg id="Layer_1" data-name="Layer 1" xmlns="http://www.w3.org/2000/svg" viewBox="0 0 100 100"><defs><style>.cls-1{fill:#fdbd1d;}.cls-2{fill:#fda6b6;}.cls-3{fill:#b74b00;}</style></defs><title>help-icon</title><path class="cls-1" d="M31.29,39l-.29.44.29-.44Zm0,0"/><path class="cls-2" d="M26.17,30.37l7.41,7.18v0a23.27,23.27,0,0,1,7.13-6.66l-9.47-9,2,1.92c-2.49,2-4.76,3.53-7,6.57Zm0,0"/><path class="cls-1" d="M80.08,33.06l-10,9.67a21.39,21.39,0,0,1,0,14.54l10,9.67a34.47,34.47,0,0,0,0-33.89Zm0,0"/><path class="cls-1" d="M50,71.37a21.27,21.27,0,0,1-7.16-1.24L32.65,79.85l2.28-2.17a34.47,34.47,0,0,0,31.7,1.49l.72.68L57.16,70.14A21.27,21.27,0,0,1,50,71.37Zm0,0"/><path class="cls-1" d="M50,28.63a21.32,21.32,0,0,1,7.16,1.24l10.19-9.71-.72.69a34.47,34.47,0,0,0-31.7,1.49l-2.28-2.17,10.19,9.71A21.32,21.32,0,0,1,50,28.63Zm0,0"/><path class="cls-1" d="M28.63,50a21.28,21.28,0,0,1,1.27-7.27l-10-9.67,1.61,1.56a34.43,34.43,0,0,0,0,30.77l-1.61,1.56,10-9.67A21.28,21.28,0,0,1,28.63,50Zm0,0"/><path class="cls-2" d="M32.68,76.73l8-7.64a23.28,23.28,0,0,1-7.14-6.68l-7.45,7.22a34.78,34.78,0,0,0,6.57,7.11Zm0,0"/><path class="cls-1" d="M31,60.51l.28.43L31,60.51Zm0,0"/><path class="cls-1" d="M68.71,60.95l.29-.44-.29.44Zm0,0"/><path class="cls-2" d="M75.14,69.63l-7.45-7.22,0,0a23.32,23.32,0,0,1-7.16,6.71l8.7,8.3c2.5-2,4.45-3.78,5.88-7.76Zm0,0"/><path class="cls-2" d="M68.76,22.27l-8.67,8.26a23.27,23.27,0,0,1,7.11,6.65L74.61,30a17.13,17.13,0,0,0-5.86-7.73Zm0,0"/><path class="cls-3" d="M81.08,28.81a37.92,37.92,0,0,0-9.89-9.89,22.88,22.88,0,0,0-42.37,0,37.92,37.92,0,0,0-9.9,9.9,22.89,22.89,0,0,0,0,42.37,38,38,0,0,0,9.89,9.89,22.89,22.89,0,0,0,42.37,0,38,38,0,0,0,9.9-9.9,22.89,22.89,0,0,0,0-42.37ZM70,21.88a34.83,34.83,0,0,1,8.37,8.49L69,39.49c-.36-.56-.8-1.22-1.33-1.93a23.25,23.25,0,0,0-7.11-6.65l8.67-8.26h0ZM31.72,50A18.28,18.28,0,1,1,50,68.28,18.3,18.3,0,0,1,31.72,50ZM50,7.79a19.78,19.78,0,0,1,16,8.16,37.59,37.59,0,0,0-32,0A19.78,19.78,0,0,1,50,7.79Zm0,7.68a34.33,34.33,0,0,1,17.35,4.69L57.16,29.86a21.37,21.37,0,0,0-14.33,0L32.65,20.15A34.33,34.33,0,0,1,50,15.47ZM30,21.88l9.47,9a23.27,23.27,0,0,0-7.13,6.66c-.39.52-.73,1-1,1.47l-.29.44-9.4-9.11A34.79,34.79,0,0,1,30,21.88ZM7.79,50a19.78,19.78,0,0,1,8.16-16,37.58,37.58,0,0,0,0,32A19.78,19.78,0,0,1,7.79,50Zm7.68,0a34.33,34.33,0,0,1,4.45-16.94l10,9.67a21.39,21.39,0,0,0,0,14.54l-10,9.67A34.33,34.33,0,0,1,15.47,50ZM21.6,69.63,31,60.51l.28.43c.29.45.64.94,1,1.46a23.28,23.28,0,0,0,7.14,6.68l-8,7.64L30,78.12a34.85,34.85,0,0,1-8.37-8.49ZM50,92.21a19.78,19.78,0,0,1-16-8.16,37.58,37.58,0,0,0,32,0,19.78,19.78,0,0,1-16,8.16Zm0-7.68a34.33,34.33,0,0,1-17.35-4.68l10.19-9.71a21.36,21.36,0,0,0,14.33,0l10.19,9.71A34.33,34.33,0,0,1,50,84.53Zm20-6.41-.77-.73h0l-8.7-8.29a23.34,23.34,0,0,0,7.16-6.71c.37-.51.71-1,1-1.43l.28-.44,9.4,9.11A34.88,34.88,0,0,1,70,78.12ZM80.08,66.94l-10-9.67a21.39,21.39,0,0,0,0-14.54l10-9.67a34.47,34.47,0,0,1,0,33.89ZM84,66a37.57,37.57,0,0,0,0-32,19.77,19.77,0,0,1,0,32Zm0,0"/></svg>