<?xml version="1.0" encoding="utf-8"?>
<!-- Generator: Adobe Illustrator 20.0.0, SVG Export Plug-In . SVG Version: 6.00 Build 0)  -->
<svg version="1.1" id="Layer_1" xmlns="http://www.w3.org/2000/svg" xmlns:xlink="http://www.w3.org/1999/xlink" x="0px" y="0px"
	 viewBox="0 0 64 64" style="enable-background:new 0 0 64 64;" xml:space="preserve">
<style type="text/css">
	.st0{fill:#0AA5E3;}
</style>
<g id="Browser-settings">
	<path class="st0" d="M21.8,39c0.3,0,0.5,0.1,0.7,0.1c0.2,0.5,0.4,1.1,0.6,1.6l-0.4,0.6c-0.8,1.1-0.7,2.5,0.2,3.5l0.4,0.4
		c0.9,0.9,2.4,1,3.4,0.2c0.2-0.1,0.4-0.3,0.6-0.4c0.5,0.3,1,0.5,1.6,0.6l0.1,0.7c0.2,1.3,1.3,2.2,2.6,2.3l0.6,0c1.3,0,2.4-1,2.6-2.3
		c0-0.3,0.1-0.5,0.1-0.7c0.5-0.2,1.1-0.4,1.6-0.6l0.6,0.4c1.1,0.8,2.5,0.7,3.5-0.2l0.4-0.4c0.9-0.9,1-2.4,0.2-3.4
		c-0.1-0.2-0.3-0.4-0.4-0.6c0.3-0.5,0.5-1,0.6-1.6l0.7-0.1c1.3-0.2,2.2-1.3,2.3-2.6l0-0.6c0-1.3-1-2.4-2.3-2.6
		c-0.3,0-0.5-0.1-0.7-0.1c-0.2-0.5-0.4-1.1-0.6-1.6l0.4-0.6c0.8-1,0.7-2.5-0.2-3.5l-0.4-0.4c-0.9-0.9-2.4-1-3.4-0.2
		c-0.2,0.1-0.4,0.3-0.6,0.4c-0.5-0.3-1-0.5-1.6-0.6l-0.1-0.7c-0.2-1.3-1.3-2.3-2.6-2.3l-0.6,0c-1.3,0-2.4,1-2.6,2.3
		c0,0.3-0.1,0.5-0.1,0.7c-0.5,0.2-1.1,0.4-1.6,0.6l-0.6-0.4c-1-0.8-2.5-0.7-3.5,0.2L23,27.5c-0.9,0.9-1,2.4-0.2,3.4
		c0.1,0.2,0.3,0.4,0.4,0.6c-0.3,0.5-0.5,1-0.6,1.6l-0.7,0.1c-1.3,0.2-2.3,1.3-2.3,2.6l0,0.6C19.6,37.7,20.5,38.8,21.8,39z
		 M22.1,35.2l1.3-0.2c0.4-0.1,0.7-0.4,0.8-0.8c0.2-0.8,0.5-1.5,0.9-2.2c0.2-0.3,0.2-0.8,0-1.1c0,0-0.4-0.5-0.8-1.1
		c-0.2-0.3-0.2-0.6,0-0.9l0.4-0.4c0.2-0.2,0.6-0.3,0.9-0.1l1.1,0.8c0.3,0.2,0.8,0.3,1.1,0c0.7-0.4,1.4-0.7,2.2-0.9
		c0.4-0.1,0.7-0.4,0.8-0.8c0,0,0.1-0.7,0.2-1.3c0-0.3,0.3-0.6,0.7-0.6l0.5,0c0.3,0,0.6,0.3,0.7,0.6l0.2,1.4c0.1,0.4,0.4,0.7,0.8,0.8
		c0.8,0.2,1.5,0.5,2.2,0.9c0.3,0.2,0.8,0.2,1.1-0.1c0,0,0.5-0.4,1.1-0.8c0.3-0.2,0.6-0.2,0.9,0l0.4,0.4c0.2,0.2,0.3,0.6,0.1,0.9
		l-0.8,1.1c-0.2,0.3-0.3,0.8,0,1.1c0.4,0.7,0.7,1.4,0.9,2.2c0.1,0.4,0.4,0.7,0.8,0.8c0,0,0.7,0.1,1.3,0.2c0.3,0.1,0.6,0.3,0.6,0.7
		l0,0.5c0,0.3-0.3,0.6-0.6,0.7l-1.3,0.2c-0.4,0.1-0.7,0.4-0.8,0.8c-0.2,0.8-0.5,1.5-0.9,2.2c-0.2,0.3-0.2,0.8,0.1,1.1
		c0,0,0.4,0.5,0.8,1.1c0.2,0.3,0.2,0.6,0,0.9l-0.4,0.4c-0.2,0.2-0.6,0.3-0.9,0.1l-1.1-0.8c-0.3-0.2-0.8-0.3-1.1-0.1
		c-0.7,0.4-1.4,0.7-2.2,0.9c-0.4,0.1-0.7,0.4-0.8,0.8c0,0-0.1,0.7-0.2,1.3c-0.1,0.3-0.3,0.6-0.7,0.6l-0.5,0c-0.3,0-0.6-0.3-0.7-0.6
		l-0.2-1.4c-0.1-0.4-0.4-0.7-0.8-0.8c-0.8-0.2-1.5-0.5-2.2-0.9c-0.2-0.1-0.3-0.1-0.5-0.1c-0.2,0-0.4,0.1-0.6,0.2
		c0,0-0.5,0.4-1.1,0.8c-0.3,0.2-0.6,0.2-0.9,0l-0.4-0.4c-0.2-0.2-0.3-0.6-0.1-0.9l0.8-1.1c0.2-0.3,0.3-0.8,0-1.1
		c-0.4-0.7-0.7-1.4-0.9-2.2c-0.1-0.4-0.4-0.7-0.8-0.8c0,0-0.7-0.1-1.3-0.2c-0.3-0.1-0.6-0.3-0.6-0.7l0-0.5
		C21.5,35.5,21.8,35.2,22.1,35.2z"/>
	<path class="st0" d="M32,40.6c2.5,0,4.5-2,4.5-4.5c0-2.5-2-4.5-4.5-4.5c-2.5,0-4.5,2-4.5,4.5C27.5,38.6,29.5,40.6,32,40.6z
		 M32,33.6c1.4,0,2.5,1.1,2.5,2.5c0,1.4-1.1,2.5-2.5,2.5c-1.4,0-2.5-1.1-2.5-2.5C29.5,34.7,30.6,33.6,32,33.6z"/>
	<path class="st0" d="M60,5H4C1.8,5,0,6.8,0,9v5v2v39c0,2.2,1.8,4,4,4h56c2.2,0,4-1.8,4-4V16v-2V9C64,6.8,62.2,5,60,5z M62,55
		c0,1.1-0.9,2-2,2H4c-1.1,0-2-0.9-2-2V16h60V55z M62,14H2V9c0-1.1,0.9-2,2-2h56c1.1,0,2,0.9,2,2V14z"/>
	<path class="st0" d="M6,9c-1,0-1.8,0.8-1.8,1.8c0,1,0.8,1.8,1.8,1.8c1,0,1.8-0.8,1.8-1.8C7.7,9.8,7,9,6,9z M6,11.5
		c-0.4,0-0.8-0.3-0.8-0.8S5.6,10,6,10c0.4,0,0.8,0.3,0.8,0.8S6.4,11.5,6,11.5z"/>
	<path class="st0" d="M16,9c-1,0-1.8,0.8-1.8,1.8c0,1,0.8,1.8,1.8,1.8c1,0,1.7-0.8,1.7-1.8C17.7,9.8,17,9,16,9z M16,11.5
		c-0.4,0-0.8-0.3-0.8-0.8S15.6,10,16,10c0.4,0,0.7,0.3,0.7,0.8S16.4,11.5,16,11.5z"/>
	<path class="st0" d="M11,9c-1,0-1.8,0.8-1.8,1.8c0,1,0.8,1.8,1.8,1.8c1,0,1.8-0.8,1.8-1.8C12.7,9.8,12,9,11,9z M11,11.5
		c-0.4,0-0.8-0.3-0.8-0.8S10.6,10,11,10c0.4,0,0.8,0.3,0.8,0.8S11.4,11.5,11,11.5z"/>
</g>
</svg>
