<svg id="Layer_1" data-name="Layer 1" xmlns="http://www.w3.org/2000/svg" viewBox="0 0 145 145"><defs><style>.cls-1{fill:#008ac1;}.cls-2{fill:#fff;}</style></defs><title>intercom-chat-icon</title><circle class="cls-1" cx="72.5" cy="72.5" r="72.5"/><path class="cls-2" d="M106.74,42.54A8.56,8.56,0,0,0,98.18,34H46.82a8.56,8.56,0,0,0-8.56,8.56V93.9a8.56,8.56,0,0,0,8.56,8.56H85.05L106.74,111V93.9h0ZM96.81,85.92c-.35.3-8.81,7.4-24.31,7.4s-24-7.1-24.31-7.4a2.28,2.28,0,0,1,3-3.47c.13.11,7.68,6.3,21.35,6.3,13.83,0,21.27-6.24,21.34-6.3a2.28,2.28,0,1,1,3,3.47Z"/></svg>