<svg id="Layer_1" data-name="Layer 1" xmlns="http://www.w3.org/2000/svg" viewBox="0 0 100 100"><defs><style>.cls-1{fill:#e7eced;}.cls-2{fill:#6d6e71;}.cls-3{fill:#ffd248;}.cls-4{fill:#231f20;}.cls-5{fill:#fff;}.cls-6{fill:#d0d4d6;}</style></defs><title>real_company</title><path class="cls-1" d="M88.3,7.87l4.79,11.49H83.51Zm0,0"/><rect class="cls-2" x="83.51" y="84.47" width="9.57" height="7.66"/><rect class="cls-3" x="83.51" y="19.36" width="9.57" height="65.11"/><path class="cls-4" d="M95,19.36a1.92,1.92,0,0,0-.14-.74L90.07,7.14a1.92,1.92,0,0,0-3.54,0L81.74,18.62a1.91,1.91,0,0,0-.14.74h0V92.13A1.91,1.91,0,0,0,83.51,94h9.57A1.91,1.91,0,0,0,95,92.13V19.36Zm-9.57,1.91h5.74V82.55H85.43Zm2.87-8.43,1.91,4.6H86.38Zm2.87,77.36H85.43V86.38h5.74Zm0,0"/><path class="cls-5" d="M68.19,85.43v7.66H6.91V14.57H68.19Zm0,0"/><path class="cls-6" d="M75.85,6.91V85.43H68.19V14.57H11.7V6.91Zm0,0"/><path class="cls-4" d="M75.85,5H11.7A1.91,1.91,0,0,0,9.79,6.91v5.74H6.91A1.91,1.91,0,0,0,5,14.57V93.09A1.91,1.91,0,0,0,6.91,95H68.19a1.91,1.91,0,0,0,1.91-1.91V87.34h5.74a1.91,1.91,0,0,0,1.91-1.91V6.91A1.91,1.91,0,0,0,75.85,5ZM66.28,91.17H8.83V16.49H66.28Zm7.66-7.66H70.11V14.57a1.91,1.91,0,0,0-1.91-1.91H13.62V8.83H73.94Zm0,0"/><rect class="cls-4" x="12.66" y="20.32" width="12.45" height="3.83"/><rect class="cls-4" x="12.66" y="27.98" width="12.45" height="3.83"/><rect class="cls-4" x="23.19" y="39.47" width="39.26" height="3.83"/><rect class="cls-4" x="12.66" y="47.13" width="49.79" height="3.83"/><rect class="cls-4" x="12.66" y="54.79" width="49.79" height="3.83"/><rect class="cls-4" x="12.66" y="62.45" width="49.79" height="3.83"/><rect class="cls-4" x="12.66" y="70.11" width="49.79" height="3.83"/><rect class="cls-4" x="12.66" y="77.77" width="41.17" height="3.83"/><rect class="cls-4" x="56.7" y="77.77" width="5.74" height="3.83"/></svg>