<svg id="Layer_1" data-name="Layer 1" xmlns="http://www.w3.org/2000/svg" viewBox="0 0 100 70"><defs><style>.cls-1{fill:#1ca4dd;}</style></defs><title>selection-notification</title><path class="cls-1" d="M53.76,35V21.63A4.72,4.72,0,0,0,49,16.92H24.22a4.72,4.72,0,0,0-4.72,4.72V35a4.72,4.72,0,0,0,4.72,4.72H37.65V43.6a.9.9,0,0,0,1.53.63l4.51-4.51H49A4.72,4.72,0,0,0,53.76,35ZM43.32,37.92a.89.89,0,0,0-.63.26l-3.25,3.25V38.82a.9.9,0,0,0-.9-.9H24.22A2.93,2.93,0,0,1,21.29,35V21.63a2.93,2.93,0,0,1,2.92-2.92H49A2.93,2.93,0,0,1,52,21.63V35A2.93,2.93,0,0,1,49,37.92Zm0,0"/><path class="cls-1" d="M25.17,23.48H28a.9.9,0,1,0,0-1.79H25.17a.9.9,0,1,0,0,1.79Zm0,0"/><path class="cls-1" d="M48.09,21.69H31.86a.9.9,0,1,0,0,1.79H48.09a.9.9,0,0,0,0-1.79Zm0,0"/><path class="cls-1" d="M48.09,25.51H25.17a.9.9,0,1,0,0,1.79H48.09a.9.9,0,0,0,0-1.79Zm0,0"/><path class="cls-1" d="M48.09,29.33H45.22a.9.9,0,0,0,0,1.79h2.87a.9.9,0,0,0,0-1.79Zm0,0"/><path class="cls-1" d="M25.17,31.12H41.41a.9.9,0,0,0,0-1.79H25.17a.9.9,0,0,0,0,1.79Zm0,0"/><path class="cls-1" d="M48.09,33.15H25.17a.9.9,0,1,0,0,1.79H48.09a.9.9,0,0,0,0-1.79Zm0,0"/><path class="cls-1" d="M56.68,32.08h2.86a.9.9,0,0,0,0-1.79H56.68a.9.9,0,0,0,0,1.79Zm0,0"/><path class="cls-1" d="M74.83,32.08a.9.9,0,1,0,0-1.79H63.37a.9.9,0,1,0,0,1.79Zm0,0"/><path class="cls-1" d="M56.68,35.9H74.83a.9.9,0,1,0,0-1.79H56.68a.9.9,0,0,0,0,1.79Zm0,0"/><path class="cls-1" d="M74.83,37.92H72a.9.9,0,1,0,0,1.79h2.86a.9.9,0,1,0,0-1.79Zm0,0"/><path class="cls-1" d="M56.68,39.72H68.14a.9.9,0,1,0,0-1.79H56.68a.9.9,0,0,0,0,1.79Zm0,0"/><path class="cls-1" d="M74.83,41.74H51a.9.9,0,0,0,0,1.79H74.83a.9.9,0,0,0,0-1.79Zm0,0"/><path class="cls-1" d="M75.78,25.51H56.68a.9.9,0,0,0,0,1.79h19.1a2.93,2.93,0,0,1,2.92,2.92V43.6a2.93,2.93,0,0,1-2.92,2.92H61.46a.9.9,0,0,0-.9.9V50l-3.25-3.25a.89.89,0,0,0-.63-.26H51A2.93,2.93,0,0,1,48,43.6v-1a.9.9,0,1,0-1.79,0v1A4.72,4.72,0,0,0,51,48.31h5.36l4.51,4.51a.9.9,0,0,0,1.53-.63V48.31H75.78A4.72,4.72,0,0,0,80.5,43.6V30.23a4.72,4.72,0,0,0-4.72-4.71Zm0,0"/></svg>