<svg id="Layer_1" data-name="Layer 1" xmlns="http://www.w3.org/2000/svg" viewBox="0 0 100 70"><defs><style>.cls-1{fill:#1ca4dd;}</style></defs><title>Lead</title><path class="cls-1" d="M81.55,58H68.35a5,5,0,0,0,1-4.06l-2.7-14.19a5,5,0,0,0-3.35-3.83l-6.89-2.3a1,1,0,0,0-.37,0V31.71a8,8,0,0,0,2-5.36V24.09a3,3,0,0,0,2-2.83V16.17a6,6,0,0,0-6-6H45.93a3,3,0,0,0-2.86,2.12,4,4,0,0,0-3.18,3.92v5.09a3,3,0,0,0,2,2.83v2a8.52,8.52,0,0,0,2,5.53v2a1,1,0,0,0-.37,0l-6.89,2.3a5,5,0,0,0-3.35,3.83L30.65,53.9a5,5,0,0,0,1,4.06H18.45a1,1,0,0,0,0,1.91H81.55a1,1,0,0,0,0-1.91ZM44.91,35.44a1,1,0,0,0,1-1V33.23a7.74,7.74,0,0,0,3.89,1.19H50a8,8,0,0,0,4.13-1.14v1.2a1,1,0,0,0,1,1h0a5.23,5.23,0,0,1-10.25,0ZM41.8,21.26V16.17a2.1,2.1,0,0,1,2.1-2.1,1,1,0,0,0,1-1A1.08,1.08,0,0,1,45.93,12h8.14a4.14,4.14,0,0,1,4.13,4.13v5.09a1.08,1.08,0,0,1-.13.51V20.24a3,3,0,0,0-3-3H44.91a3,3,0,0,0-3,3v1.53a1.07,1.07,0,0,1-.13-.51Zm2-1a1.08,1.08,0,0,1,1.08-1.08H55.09a1.08,1.08,0,0,1,1.08,1.08v6.11a6.17,6.17,0,0,1-6.36,6.17,6.37,6.37,0,0,1-6-6.47ZM37.79,58a.06.06,0,0,1-.06-.06V44.67a.06.06,0,0,1,.06-.06H62.21a.06.06,0,0,1,.06.06V57.9a.06.06,0,0,1-.06.06Zm26.46,0h-.07s0,0,0-.06V44.67a2,2,0,0,0-2-2H37.79a2,2,0,0,0-2,2V57.9s0,0,0,.06h-.24a3.12,3.12,0,0,1-3.06-3.7l2.7-14.19a3.12,3.12,0,0,1,2.08-2.37L43,35.8a7.14,7.14,0,0,0,14,0l5.69,1.9a3.12,3.12,0,0,1,2.08,2.37l2.7,14.19A3.12,3.12,0,0,1,64.42,58Zm0,0"/><path class="cls-1" d="M50,48.8a3,3,0,1,0,3,3,3,3,0,0,0-3-3Zm0,4.07a1.08,1.08,0,1,1,1.08-1.08A1.08,1.08,0,0,1,50,52.87Zm0,0"/></svg>