<svg xmlns="http://www.w3.org/2000/svg" xmlns:xlink="http://www.w3.org/1999/xlink" viewBox="0 0 512 512"><style><![CDATA[.B{stroke-miterlimit:10}.C{stroke-width:2}.D{stroke:#1f0d40}.E{fill:#976ae2}.F{fill:none}.G{fill:#4d1e9b}.H{fill:#4d1e9a}.I{fill:#ecc94b}.J{stroke:#1f0d3f}.K{fill:#d69e2e}.L{stroke-linejoin:round}.M{stroke-width:2.45}]]></style><defs><clipPath id="A"><path d="M412.5 100.1l-38.83 24.67a13.16 13.16 0 0 0-6.48-.13 13.55 13.55 0 0 0-10.33 10.8l-31.3 19.85-6.07-26.8c-2.48-11-45.87-10.44-96.9 1.1s-90.42 29.75-87.95 40.7l6.07 26.8-102.25-12.4a6.77 6.77 0 0 1-2.81-12.41L205.55 64.46a7 7 0 0 1 4.62-1L410 87.62a6.77 6.77 0 0 1 2.54 12.48z" class="B C D E"/></clipPath><clipPath id="B"><path d="M319.47 128.5l16.43 72.62c-2.48-11-45.87-10.44-96.9 1.1s-90.42 29.8-87.94 40.7l-16.43-72.62c-2.47-11 36.92-29.17 87.95-40.7s94.43-12.06 96.9-1.1z" class="C D H L"/></clipPath><clipPath id="C"><path d="M460.3 290.94c8.24 36.44 9 67.36 1.73 69a1044.44 1044.44 0 0 0-136.69 17.87l-5-7.06a40.61 40.61 0 0 0-19.19-47.08 148.24 148.24 0 0 0-18.57-48.06 1086.72 1086.72 0 0 0 149.58-47.71c7.27-1.63 19.9 26.6 28.14 63.04z" class="I"/></clipPath><clipPath id="D"><path d="M301.16 323.68a39.75 39.75 0 0 0-28.69-4.13 40.59 40.59 0 0 0-29 25.29l-1.05-4.62A155.77 155.77 0 0 0 223 288.61l33.9-7.18 25.68-5.8a148.24 148.24 0 0 1 18.58 48.06z" class="B C D E"/></clipPath><clipPath id="E"><path d="M321,350.2a40.61,40.61,0,1,1-48.57-30.65,39.75,39.75,0,0,1,28.69,4.13A40.58,40.58,0,0,1,321,350.2Z" class="B D E M"/></clipPath><clipPath id="F"><path d="M290.4 398.77l-8.05 46a6.77 6.77 0 0 1-12.21 2.77l-7.33-10-10 7.26a6.77 6.77 0 0 1-10.62-6.48l7.66-44.07 1.43-8.1a40.6 40.6 0 0 0 39.14 12.59z" class="B C D E"/></clipPath><clipPath id="G"><path d="M344.2 424.35L332 422.1l-2.3 12.18a6.77 6.77 0 0 1-12.21 2.76l-27.12-38.28a40.63 40.63 0 0 0 30-28l5 7.06 25.6 35.84a6.77 6.77 0 0 1-6.74 10.69z" class="B C D E"/></clipPath><path id="H" d="M412.5 100.1l-38.83 24.67a13.16 13.16 0 0 0-6.48-.13 13.55 13.55 0 0 0-10.33 10.8l-31.3 19.85-6.07-26.8c-2.48-11-45.87-10.44-96.9 1.1s-90.42 29.75-87.95 40.7l6.07 26.8-102.25-12.4a6.77 6.77 0 0 1-2.81-12.41L205.55 64.46a7 7 0 0 1 4.62-1L410 87.62a6.77 6.77 0 0 1 2.54 12.48z"/><path id="I" d="M319.47 128.5l16.43 72.62c-2.48-11-45.87-10.44-96.9 1.1s-90.42 29.8-87.94 40.7l-16.43-72.62c-2.47-11 36.92-29.17 87.95-40.7s94.43-12.06 96.9-1.1z"/><path id="J" d="M301.16 323.68a39.75 39.75 0 0 0-28.69-4.13 40.59 40.59 0 0 0-29 25.29l-1.05-4.62A155.77 155.77 0 0 0 223 288.61l33.9-7.18 25.68-5.8a148.24 148.24 0 0 1 18.58 48.06z"/><path id="K" d="M321,350.2a40.61,40.61,0,1,1-48.57-30.65,39.75,39.75,0,0,1,28.69,4.13A40.58,40.58,0,0,1,321,350.2Z"/><path id="L" d="M290.4 398.77l-8.05 46a6.77 6.77 0 0 1-12.21 2.77l-7.33-10-10 7.26a6.77 6.77 0 0 1-10.62-6.48l7.66-44.07 1.43-8.1a40.6 40.6 0 0 0 39.14 12.59z"/><path id="M" d="M344.2 424.35L332 422.1l-2.3 12.18a6.77 6.77 0 0 1-12.21 2.76l-27.12-38.28a40.63 40.63 0 0 0 30-28l5 7.06 25.6 35.84a6.77 6.77 0 0 1-6.74 10.69z"/></defs><ellipse cx="255.6" cy="247.49" rx="238.54" ry="169.7" transform="matrix(.81188 -.583825 .583825 .81188 -96.41 195.8)" stroke="#b08ee6" class="C F"/><use xlink:href="#H" class="E"/><g clip-path="url(#A)" class="H"><path d="M409.7 87.68L209.9 63.48a7.05 7.05 0 0 0-4.63 1l-7 4.42 191.47 23.3a6.78 6.78 0 0 1 2.81 12.42l-38.84 24.67a13.12 13.12 0 0 0-6.35-.16 13.54 13.54 0 0 0-10.32 10.8L324 148.3l1.6 7.06 31.32-19.85a13.54 13.54 0 0 1 10.31-10.87 13.16 13.16 0 0 1 6.48.13l38.83-24.67a6.77 6.77 0 0 0-2.8-12.42z"/></g><use xlink:href="#H" class="B C D F"/><path d="M202.76 134.07c-51 11.54-90.42 29.75-87.94 40.7l4.48 19.8 21.4 2.6-6.08-26.87c-2.3-10.23 32-26.8 78-38.47z" fill="#744fc6"/><ellipse cx="243.47" cy="222.01" rx="94.76" ry="20.31" transform="matrix(.975381 -.220527 .220527 .975381 -42.98 59.18)" fill="#2d0c6d"/><path d="M239 202.2l-9.9 2.24c46.45-9.4 84.66-9.23 87 1.14s-32 26.8-78 38.47l9.9-2.24c51-11.54 90.43-29.75 87.95-40.7S290 190.67 239 202.2z" fill="#1c074f"/><use xlink:href="#I" class="H"/><g clip-path="url(#B)"><path d="M222.57 129.6l-9.9 2.24c46.45-9.4 84.65-9.22 87 1.14l13.66 60.4c13.1.57 21.52 3.1 22.57 7.73l-16.43-72.62c-2.47-10.96-45.87-10.44-96.9 1.1z" fill="#422da3"/></g><use xlink:href="#I" class="C D F L"/><g class="I"><path d="M383.37 134.86l4.48 19.8a6.78 6.78 0 0 1-5.11 8.1l-13.2 3a6.77 6.77 0 0 1-8.1-5.1L357 140.83a13.54 13.54 0 0 1 10.22-16.19 13.16 13.16 0 0 1 6.48.13 13.53 13.53 0 0 1 9.67 10.09z" stroke-width="3.17" class="B J"/><path d="M460.3 290.94c8.24 36.44 9 67.36 1.73 69a1044.44 1044.44 0 0 0-136.69 17.87l-5-7.06a40.61 40.61 0 0 0-19.19-47.08 148.24 148.24 0 0 0-18.57-48.06 1086.72 1086.72 0 0 0 149.58-47.71c7.27-1.63 19.9 26.6 28.14 63.04z"/></g><g clip-path="url(#C)" class="B C J K"><path d="M432.17 227.9s-5.5 2.36-15.67 6.18c7.32 6.6 17.1 30.83 24 61.33s8.5 56.58 4.73 65.7C456.05 360.2 462 360 462 360c7.26-1.65 6.5-32.57-1.73-69s-20.83-64.73-28.1-63.1z"/></g><path d="M243.5,344.84a40.6,40.6,0,0,0,7.86,41.52l-1.43,8.1a1097.76,1097.76,0,0,0-143.46,45.91c6.28-4.13,5.23-33.94-2.66-68.8S84,309.24,76.54,308.35A1076.35,1076.35,0,0,0,223,288.48a155.78,155.78,0,0,1,19.47,51.74Z" class="I"/><path d="M242.45 340.22A155.77 155.77 0 0 0 223 288.61a1077 1077 0 0 1-146.46 19.74 7.31 7.31 0 0 1 4.15 2.74A1204.42 1204.42 0 0 0 203.17 293a155.56 155.56 0 0 1 19.47 51.74l1.05 4.62a40.62 40.62 0 0 0 7.86 41.52l-1.43 8.1A1201.24 1201.24 0 0 0 109 436a7.17 7.17 0 0 1-2.59 4.19 1100.07 1100.07 0 0 1 143.44-45.7l1.43-8.1a40.63 40.63 0 0 1-7.79-41.54l-1.05-4.62z" class="K"/><use xlink:href="#J" class="E"/><g clip-path="url(#D)" class="G"><path d="M279.2 318.65a39.14 39.14 0 0 1 22 5 148.24 148.24 0 0 0-18.57-48.06l-19.8 4.48a130.94 130.94 0 0 1 16.37 38.58z"/></g><use xlink:href="#J" class="B C D F"/><use xlink:href="#K" class="E"/><g clip-path="url(#E)" class="G"><path d="M301.16,323.68a39.75,39.75,0,0,0-28.69-4.13,41,41,0,0,0-9.87,3.62,39.28,39.28,0,0,1,18.76,5,40.61,40.61,0,0,1-1.17,71.53,38.41,38.41,0,0,0,10.2-.92,40.6,40.6,0,0,0,10.77-75.09Z"/></g><use xlink:href="#K" class="B D F M"/><use xlink:href="#L" class="E"/><g clip-path="url(#F)" class="G"><path d="M251.3 386.38l-1.43 8.1-1.4 7.26a40.62 40.62 0 0 0 22.14 1.52l-6.4 36.14 5.92 8.1a6.77 6.77 0 0 0 12.22-2.76l8.06-46a40.62 40.62 0 0 1-39.1-12.39z"/></g><use xlink:href="#L" class="B C D F"/><path d="M243,442.23l-.33.08a7.17,7.17,0,0,0,2.53,2.9Z" fill="#b51a38"/><use xlink:href="#M" class="E"/><g clip-path="url(#G)" class="G"><path d="M351 413.93l-25.6-35.85-5-7.06a40.6 40.6 0 0 1-10.63 17.46l21.4 29.86a6.85 6.85 0 0 1 .87 3.83l11.8 2.2a6.77 6.77 0 0 0 7.15-10.43z"/></g><g class="B C D F"><use xlink:href="#M"/><path d="M432.17 227.9a1086.72 1086.72 0 0 1-149.58 47.71 148.24 148.24 0 0 1 18.57 48.06 40.61 40.61 0 0 1 19.19 47.08l5 7.06A1044.44 1044.44 0 0 1 462 360c7.26-1.65 6.5-32.57-1.73-69s-20.83-64.73-28.1-63.1zm-355.7 80.46l-.8.18c-7.26 1.64-6.52 32.56 1.73 69s20.87 64.67 28.13 63l.93-.2a1097.76 1097.76 0 0 1 143.46-45.91l1.43-8.1a40.6 40.6 0 0 1-7.86-41.52l-1.05-4.62a155.78 155.78 0 0 0-19.45-51.7 1076.35 1076.35 0 0 1-146.46 19.87"/></g><path d="M103.8 371.57c7.9 34.86 8.94 64.67 2.66 68.8l-.93.2c-7.26 1.64-19.9-26.6-28.13-63s-9-67.37-1.73-69l.8-.18c7.53.84 19.43 28.18 27.34 63.17z" class="B C J K"/></svg>