<svg xmlns="http://www.w3.org/2000/svg" width="183.359" height="183.066" viewBox="0 0 183.359 183.066"><defs><style>.a{fill:none;stroke:#fab61d;stroke-miterlimit:10;stroke-width:3.11px;}.b{fill:#fab61d;}</style></defs><g transform="translate(-1180.862 -92.999)"><path class="a" d="M1286.829,159.561v31.123L1272.486,205l-14.335-14.319V159.561"/><path class="a" d="M1286.829,210.886l-14.343,14.343-14.335-14.343v-20.2l14.335,14.319,14.343-14.319Z"/><path class="a" d="M1272.488,138.423h0a14.344,14.344,0,0,0-14.344,14.343v7.091l14.344,13.472,14.343-13.472v-7.091a14.344,14.344,0,0,0-14.343-14.343"/><path class="b" d="M1199.182,234.342a6.918,6.918,0,0,0,.889,1.911,2.435,2.435,0,0,0,1,.881.971.971,0,0,0,.995-.123,1.229,1.229,0,0,0,.516-1.218,10.626,10.626,0,0,0-.582-2.2,18.46,18.46,0,0,1-.7-2.417,4.208,4.208,0,0,1,.1-2.026,3.5,3.5,0,0,1,1.42-1.829,3.818,3.818,0,0,1,2.291-.769,4.365,4.365,0,0,1,2.331.729,7.49,7.49,0,0,1,2.049,2,9.656,9.656,0,0,1,1.459,3.064,9.027,9.027,0,0,1,.322,3.264l-2.832.479a8.521,8.521,0,0,0-.169-2.88,6.548,6.548,0,0,0-1-2.386,2.763,2.763,0,0,0-1.183-1.034,1.258,1.258,0,0,0-1.674.978,2.835,2.835,0,0,0,.085,1.1q.155.593.508,1.567a17.74,17.74,0,0,1,.719,2.376,4.137,4.137,0,0,1-.077,1.988,3.373,3.373,0,0,1-1.387,1.805,3.7,3.7,0,0,1-2.193.736,4.318,4.318,0,0,1-2.294-.695,7.3,7.3,0,0,1-2.068-2.01,9.816,9.816,0,0,1-1.313-2.553,9.583,9.583,0,0,1-.535-2.668l2.84-.535A10.638,10.638,0,0,0,1199.182,234.342Z"/><path class="b" d="M1197.027,213.757a3.026,3.026,0,0,0,.057-2.431,2.9,2.9,0,0,0-1.55-1.782,3.3,3.3,0,0,0-2.516.028l-7.743,2.764-1.062-2.977,7.742-2.764a6.473,6.473,0,0,1,3.256-.366,5.1,5.1,0,0,1,2.682,1.325,7.037,7.037,0,0,1,1.8,2.864,7.139,7.139,0,0,1,.429,3.372,5.13,5.13,0,0,1-1.225,2.752,6.393,6.393,0,0,1-2.749,1.788l-7.742,2.763-1.062-2.975,7.741-2.764A3.24,3.24,0,0,0,1197.027,213.757Z"/><path class="b" d="M1184.006,186.525a4.282,4.282,0,0,0-.379,1.975,4.194,4.194,0,0,0,2.367,3.57,4.472,4.472,0,0,0,2.249.433,4.524,4.524,0,0,0,2.195-.686,4.226,4.226,0,0,0,1.509-1.629,4.1,4.1,0,0,0,.466-2.189,4.527,4.527,0,0,0-.558-1.882,6.008,6.008,0,0,0-1.306-1.658l1.91-1.972a8.43,8.43,0,0,1,1.987,2.52,7.33,7.33,0,0,1,.851,2.987,7.451,7.451,0,0,1-.735,3.788,6.942,6.942,0,0,1-2.456,2.784,7.248,7.248,0,0,1-3.639,1.169,6.986,6.986,0,0,1-6.439-3.309,7.738,7.738,0,0,1-1.154-3.73,7.9,7.9,0,0,1,2.022-5.644l2.361,1.708A5.314,5.314,0,0,0,1184.006,186.525Z"/><path class="b" d="M1186.74,162.456a4.285,4.285,0,0,0-.9,1.8,4.194,4.194,0,0,0,1.316,4.077,4.47,4.47,0,0,0,2.049,1.022,4.517,4.517,0,0,0,2.3-.069,4.22,4.22,0,0,0,1.892-1.161,4.088,4.088,0,0,0,1.039-1.984,4.5,4.5,0,0,0-.03-1.962,6.02,6.02,0,0,0-.81-1.949l2.371-1.384a8.415,8.415,0,0,1,1.233,2.963,7.313,7.313,0,0,1,.016,3.106,7.457,7.457,0,0,1-1.73,3.449,6.926,6.926,0,0,1-3.115,2.019,7.247,7.247,0,0,1-3.819.145,6.982,6.982,0,0,1-5.309-4.921,7.735,7.735,0,0,1-.106-3.9,7.9,7.9,0,0,1,3.468-4.891l1.813,2.281A5.322,5.322,0,0,0,1186.74,162.456Z"/><path class="b" d="M1189.393,145.8l5.039-9.393,2.308,1.238-3.545,6.61,2.679,1.436,3.186-5.939,2.308,1.238-3.185,5.939,2.732,1.466,3.649-6.8,2.308,1.239-5.142,9.588Z"/><path class="b" d="M1209.638,121.929a6.944,6.944,0,0,0-1.708,1.234,2.427,2.427,0,0,0-.678,1.149.974.974,0,0,0,.308.954,1.236,1.236,0,0,0,1.295.278,10.812,10.812,0,0,0,2.053-.988,18.47,18.47,0,0,1,2.241-1.14,4.181,4.181,0,0,1,2.008-.286,3.491,3.491,0,0,1,2.065,1.049,3.808,3.808,0,0,1,1.187,2.1,4.385,4.385,0,0,1-.276,2.427,7.491,7.491,0,0,1-1.579,2.389,9.652,9.652,0,0,1-2.735,2.01,9.027,9.027,0,0,1-3.144.931l-1-2.691a8.5,8.5,0,0,0,2.8-.709,6.582,6.582,0,0,0,2.155-1.428,2.783,2.783,0,0,0,.792-1.358,1.257,1.257,0,0,0-1.275-1.46,2.864,2.864,0,0,0-1.061.29q-.552.263-1.443.794a17.839,17.839,0,0,1-2.2,1.154,4.122,4.122,0,0,1-1.966.3,3.366,3.366,0,0,1-2.035-1.022,3.682,3.682,0,0,1-1.135-2.015,4.3,4.3,0,0,1,.249-2.383,7.3,7.3,0,0,1,1.585-2.411,9.83,9.83,0,0,1,2.26-1.77,9.573,9.573,0,0,1,2.519-1.028l1.061,2.689A10.575,10.575,0,0,0,1209.638,121.929Z"/><path class="b" d="M1220.672,108.929l8.556-5.291,1.361,2.239-5.852,3.619,1.81,2.926,5.375-3.326,1.389,2.246-5.375,3.325,2.788,4.506-2.688,1.664Z"/><path class="b" d="M1247.97,107.318a3.028,3.028,0,0,0,2.423.209,2.9,2.9,0,0,0,1.876-1.434,3.3,3.3,0,0,0,.13-2.513l-2.27-7.9,3.037-.873,2.271,7.9a6.472,6.472,0,0,1,.16,3.272,5.109,5.109,0,0,1-1.491,2.594,7.042,7.042,0,0,1-2.971,1.612,7.155,7.155,0,0,1-3.392.216,5.131,5.131,0,0,1-2.67-1.4,6.4,6.4,0,0,1-1.611-2.856l-2.271-7.9,3.038-.873,2.27,7.9A3.238,3.238,0,0,0,1247.97,107.318Z"/><path class="b" d="M1267.311,93.049l3.159-.05.182,11.238,6-.1.045,2.76-9.159.148Z"/><path class="b" d="M1289.468,94.465l3.077.718-2.553,10.946,5.843,1.363-.627,2.688-8.92-2.082Z"/><path class="b" d="M1321.249,106.752l-8.949,5.984-2.118,3.993-2.792-1.481,2.081-3.922-.095-10.873,2.809,1.49.219,7.226,6.035-3.908Z"/><path class="b" d="M1352.333,146.235a4.281,4.281,0,0,0-.469-1.955,4.193,4.193,0,0,0-3.629-2.278,4.474,4.474,0,0,0-2.227.532,4.525,4.525,0,0,0-1.716,1.529,4.234,4.234,0,0,0-.7,2.107,4.122,4.122,0,0,0,.478,2.187,4.511,4.511,0,0,0,1.284,1.484,6.027,6.027,0,0,0,1.873.973l-.928,2.584a8.44,8.44,0,0,1-2.849-1.478,7.31,7.31,0,0,1-2.006-2.371,7.446,7.446,0,0,1-.891-3.753,6.939,6.939,0,0,1,1.09-3.549,7.257,7.257,0,0,1,2.834-2.566,6.985,6.985,0,0,1,7.23.362,7.733,7.733,0,0,1,2.589,2.922,7.9,7.9,0,0,1,.484,5.977l-2.856-.584A5.319,5.319,0,0,0,1352.333,146.235Z"/><path class="b" d="M1362.321,170.872a7.151,7.151,0,0,1-12.32,2.385,8.151,8.151,0,0,1-1.454-7.5,7.113,7.113,0,0,1,2.038-3.155,7.144,7.144,0,0,1,10.282.759,8.253,8.253,0,0,1,1.454,7.511Zm-3.495-5.374a4.322,4.322,0,0,0-1.881-1.245,4.54,4.54,0,0,0-5.706,2.724,4.079,4.079,0,0,0-.181,2.226,4.03,4.03,0,0,0,.985,1.978,4.263,4.263,0,0,0,1.883,1.2,4.594,4.594,0,0,0,2.337.128,4.516,4.516,0,0,0,2.091-.985,4.307,4.307,0,0,0,1.287-1.818,4.023,4.023,0,0,0,.175-2.2A4.19,4.19,0,0,0,1358.826,165.5Z"/><path class="b" d="M1364.221,188.481l-.451,3.491-9.087,3.223,7.976,5.386-.449,3.47-13.884-1.793.364-2.816,9.382,1.212-7.464-4.978.261-2.022,8.486-2.938-9.382-1.211.363-2.817Z"/><path class="b" d="M1352.221,226.976a4.5,4.5,0,0,1-3.87-.195,4.89,4.89,0,0,1-2.812-2.936,5.882,5.882,0,0,1,.524-4.313l1.176-2.519-3.624-1.692,1.337-2.863,12.685,5.923-2.513,5.381A6.1,6.1,0,0,1,1352.221,226.976Zm-4.012-4.356a2.23,2.23,0,0,0,1.321,1.4,2.143,2.143,0,0,0,1.886.1,3.139,3.139,0,0,0,1.4-1.608l1.108-2.374-4.3-2-1.108,2.374A3.055,3.055,0,0,0,1348.209,222.62Z"/><path class="b" d="M1345.34,239.946l-2.023,2.428-8.634-7.2-3.842,4.61-2.12-1.767,5.864-7.037Z"/><path class="b" d="M1329.78,255.975l-8.676,6.194-1.522-2.132,6.1-4.359-1.766-2.473-5.485,3.916-1.522-2.132,5.485-3.917-1.8-2.523-6.283,4.487-1.522-2.133,8.855-6.322Z"/><path class="b" d="M1309.885,268.181l-10.965,4.082-.934-2.511,4.011-1.494-3.95-10.608,2.961-1.1,3.951,10.608,3.992-1.486Z"/><path class="b" d="M1286.077,275.089l-10.616.976-.24-2.609,7.469-.687-.278-3.027-6.712.617-.24-2.608,6.711-.619-.284-3.086-7.687.708-.24-2.61,10.834-1Z"/><path class="b" d="M1251.737,272.741a6.455,6.455,0,0,1-2.094-2.928,7.049,7.049,0,0,1-.228-3.74,6.954,6.954,0,0,1,1.619-3.386,6.558,6.558,0,0,1,3.071-1.934,8.242,8.242,0,0,1,3.978-.141l5.715,1.1-2.645,13.748-5.833-1.123A8.032,8.032,0,0,1,1251.737,272.741Zm3.491-9.409a3.818,3.818,0,0,0-1.713,1.228,4.714,4.714,0,0,0-.934,2.1,4.615,4.615,0,0,0,.113,2.322,3.959,3.959,0,0,0,1.18,1.806,4.209,4.209,0,0,0,2.008.946l2.671.515,1.639-8.525-2.808-.54A4.037,4.037,0,0,0,1255.228,263.332Z"/><circle class="a" cx="58.451" cy="58.451" r="58.451" transform="translate(1214.036 126.011)"/></g></svg>