<svg id="Layer_1" data-name="Layer 1" xmlns="http://www.w3.org/2000/svg" viewBox="0 0 55 30"><defs><style>.cls-1{fill:#008ac1;}</style></defs><title>college-icon</title><path class="cls-1" d="M53.42,28.43h-.89v-11h.05a.78.78,0,0,0,0-1.57H38.32v-.94H40a.78.78,0,0,0,.37-1.48L28.28,7V5.75h4.23a.78.78,0,0,0,.7-1.13l-.66-1.32L33.22,2a.78.78,0,0,0-.7-1.13H28.28V.78a.78.78,0,0,0-1.57,0V7L14.59,13.47A.78.78,0,0,0,15,14.95h1.73v.94H2.41a.78.78,0,0,0,0,1.57h.05v11H1.58a.78.78,0,0,0,0,1.57H53.42a.78.78,0,1,0,0-1.57ZM51,17.46v11H38.32v-11Zm-14.22,11H35V14.95h1.78ZM23.37,14.95V28.43H21.59V14.95Zm1.57,0h1.78V28.43H24.94Zm3.34,0h1.78V28.43H28.28Zm3.35,0h1.78V28.43H31.63ZM31.25,2.4,31,2.94a.78.78,0,0,0,0,.7l.27.54h-3V2.4Zm-3.75,6,9.41,5H18.09ZM20,14.95V28.43H18.25V14.95ZM4,17.46H16.68v11H4Zm0,0"/><path class="cls-1" d="M14.12,24.25a.78.78,0,0,0-.78.78v.84a.78.78,0,1,0,1.57,0V25a.78.78,0,0,0-.78-.78Zm0,0"/><path class="cls-1" d="M11.61,24.25a.78.78,0,0,0-.78.78v.84a.78.78,0,0,0,1.57,0V25a.78.78,0,0,0-.78-.78Zm0,0"/><path class="cls-1" d="M9.1,24.25a.78.78,0,0,0-.78.78v.84a.78.78,0,1,0,1.57,0V25a.78.78,0,0,0-.78-.78Zm0,0"/><path class="cls-1" d="M6.59,24.25a.78.78,0,0,0-.78.78v.84a.78.78,0,1,0,1.57,0V25a.78.78,0,0,0-.78-.78Zm0,0"/><path class="cls-1" d="M14.12,19.23a.78.78,0,0,0-.78.78v2.51a.78.78,0,1,0,1.57,0V20a.78.78,0,0,0-.78-.78Zm0,0"/><path class="cls-1" d="M11.61,19.23a.78.78,0,0,0-.78.78v2.51a.78.78,0,0,0,1.57,0V20a.78.78,0,0,0-.78-.78Zm0,0"/><path class="cls-1" d="M9.1,19.23a.78.78,0,0,0-.78.78v2.51a.78.78,0,1,0,1.57,0V20a.78.78,0,0,0-.78-.78Zm0,0"/><path class="cls-1" d="M6.59,19.23a.78.78,0,0,0-.78.78v2.51a.78.78,0,1,0,1.57,0V20a.78.78,0,0,0-.78-.78Zm0,0"/><path class="cls-1" d="M48.41,26.65a.78.78,0,0,0,.78-.78V25a.78.78,0,0,0-1.57,0v.84a.78.78,0,0,0,.78.78Zm0,0"/><path class="cls-1" d="M45.9,26.65a.78.78,0,0,0,.78-.78V25a.78.78,0,1,0-1.57,0v.84a.78.78,0,0,0,.78.78Zm0,0"/><path class="cls-1" d="M43.39,26.65a.78.78,0,0,0,.78-.78V25a.78.78,0,0,0-1.57,0v.84a.78.78,0,0,0,.78.78Zm0,0"/><path class="cls-1" d="M40.88,26.65a.78.78,0,0,0,.78-.78V25a.78.78,0,1,0-1.57,0v.84a.78.78,0,0,0,.78.78Zm0,0"/><path class="cls-1" d="M48.41,23.31a.78.78,0,0,0,.78-.78V20a.78.78,0,0,0-1.57,0v2.51a.78.78,0,0,0,.78.78Zm0,0"/><path class="cls-1" d="M45.9,23.31a.78.78,0,0,0,.78-.78V20a.78.78,0,1,0-1.57,0v2.51a.78.78,0,0,0,.78.78Zm0,0"/><path class="cls-1" d="M43.39,23.31a.78.78,0,0,0,.78-.78V20a.78.78,0,1,0-1.57,0v2.51a.78.78,0,0,0,.78.78Zm0,0"/><path class="cls-1" d="M40.88,23.31a.78.78,0,0,0,.78-.78V20a.78.78,0,0,0-1.57,0v2.51a.78.78,0,0,0,.78.78Zm0,0"/><path class="cls-1" d="M25.83,12.44h3.34a.78.78,0,0,0,0-1.57H25.83a.78.78,0,0,0,0,1.57Zm0,0"/></svg>