<svg id="Layer_1" data-name="Layer 1" xmlns="http://www.w3.org/2000/svg" viewBox="0 0 55 30"><defs><style>.cls-1{fill:#008ac1;}</style></defs><title>graduation-icon</title><path class="cls-1" d="M44.43,6.81,29.53.42a5.26,5.26,0,0,0-4.13,0L10.5,6.81a2.31,2.31,0,0,0,0,4.24l1.76.75s0,0,0,.06V20.2A1.72,1.72,0,0,0,11.52,23,1.83,1.83,0,0,0,11,24.12l-.42,4.64A1.14,1.14,0,0,0,11.69,30h2.23a1.14,1.14,0,0,0,1.13-1.24l-.42-4.64A1.83,1.83,0,0,0,14.09,23a1.72,1.72,0,0,0-.74-2.78V12.28l3,1.29a.54.54,0,0,0,0,.06v4.2c0,1.75,1.2,3.37,3.38,4.56a16.41,16.41,0,0,0,7.73,1.76,16.41,16.41,0,0,0,7.73-1.76c2.18-1.19,3.38-2.81,3.38-4.56v-4.2s0,0,0-.06l5.86-2.51a2.31,2.31,0,0,0,0-4.24ZM14,28.89H11.66a0,0,0,0,1,0,0l.42-4.64a.73.73,0,0,1,1.46,0L14,28.86a0,0,0,0,1,0,0Zm-1.14-6.44a.62.62,0,1,1,.62-.62.62.62,0,0,1-.62.62Zm24.66-7c0,1.42-1.17,2.81-3.21,3.81a.55.55,0,0,0,.24,1,.54.54,0,0,0,.24-.06,8.36,8.36,0,0,0,2.68-2,4.88,4.88,0,0,1-2.76,3.13A15.31,15.31,0,0,1,27.46,23a15.3,15.3,0,0,1-7.2-1.62,4.89,4.89,0,0,1-2.76-3.11A8,8,0,0,0,19.74,20a16.41,16.41,0,0,0,7.73,1.76,19.68,19.68,0,0,0,2.41-.15.55.55,0,0,0-.14-1.09,18.52,18.52,0,0,1-2.28.14,15.3,15.3,0,0,1-7.2-1.62c-1.81-1-2.81-2.27-2.81-3.6V14l7.94,3.4a5.26,5.26,0,0,0,4.13,0L37.47,14ZM44,10,29.1,16.43a4.16,4.16,0,0,1-3.26,0L14.45,11.55,24.88,9.73a3.42,3.42,0,0,0,2.58.92c1.65,0,2.89-.74,2.89-1.72s-1.24-1.72-2.89-1.72c-1.5,0-2.66.61-2.86,1.46L12.71,10.73l-.1,0L10.93,10a1.21,1.21,0,0,1,0-2.22l14.9-6.39a4.16,4.16,0,0,1,3.26,0L44,7.82A1.21,1.21,0,0,1,44,10ZM25.67,8.93c0-.16.62-.62,1.8-.62s1.8.46,1.8.62-.62.62-1.8.62-1.8-.46-1.8-.62Zm0,0"/><path class="cls-1" d="M31.57,21.34h.12c.42-.1.82-.21,1.21-.33a.55.55,0,0,0-.33-1c-.36.12-.74.22-1.13.31a.55.55,0,0,0,.12,1.09Zm0,0"/></svg>