<svg id="24772d4c-d3f9-4f5e-bd7e-610d5f003ee7" data-name="Layer 1" xmlns="http://www.w3.org/2000/svg" xmlns:xlink="http://www.w3.org/1999/xlink" viewBox="0 0 360 230"><defs><clipPath id="8e692e65-5837-44fa-8d58-088b2e5f98cd"><rect x="49.27" y="75.76" width="84.16" height="54.63" fill="none"/></clipPath></defs><title>Artboard 2</title><path d="M20.88,172.52C1.85,163-.89,121.61,55.54,117.09c31.1-2.5,7.68-20.92,6-31s14.07-29.06,25-32,34.92-.06,44.16-23S163.29-3.7,188,12.15s38.69,19.55,49.95,15.39,16.11,9.7,23.35,24.4c6.61,13.42,52,19.77,57.24,34,2.94,8,7.56,11.35,2.1,29.83s4.2,33.61,13,42.86,41.53,42.38-13,58.39c-66.5,19.53-99.3-24.78-119.18-12.6s-47.2-8.53-87.1,2.1c-23,6.12-40.34,18.91-54.2-2.1S20.88,172.52,20.88,172.52Z" fill="#d4ebf4"/><polygon points="230.41 200.96 196.41 196.2 197.07 212.62 230.41 212.62 230.41 200.96" fill="#c1d6e8"/><path d="M185.68,167.13q-50.46,0-100.93-.25c-21.32-.12-46.9-17.65-48.9-39.33a394.05,394.05,0,0,1,0-62.41c2-21.68,27.58-39.21,48.9-39.33q50.46-.21,100.93-.25c21.31,0,47.26,17.77,49.44,39.54a358.28,358.28,0,0,1,0,62.49C232.94,149.36,207,167.16,185.68,167.13Z" fill="#d4ebf4"/><path d="M188.64,165.65q-50.47,0-100.94-.25c-21.31-.11-46.89-17.65-48.9-39.33a394.05,394.05,0,0,1,0-62.41c2-21.68,27.59-39.21,48.9-39.32q50.47-.22,100.94-.25c21.31,0,47.25,17.77,49.44,39.53a358.28,358.28,0,0,1,0,62.49C235.89,147.88,210,165.68,188.64,165.65Z" fill="#f7fafc"/><path d="M38.8,63.85c2-21.68,27.59-39.22,48.9-39.33q50.47-.22,100.94-.25c21.31,0,47.25,17.77,49.44,39.54Z" fill="#0190c4"/><circle cx="66.4" cy="47.74" r="4.28" fill="#fff"/><circle cx="78.19" cy="47.74" r="4.28" fill="#fff"/><circle cx="89.97" cy="47.74" r="4.28" fill="#fff"/><line x1="142.17" y1="63.81" x2="142.17" y2="168.77" fill="none" stroke="#b8deed" stroke-miterlimit="10" stroke-width="1.07"/><path d="M195.67,86.63H160.08a.74.74,0,0,1,0-1.48h35.59a.74.74,0,1,1,0,1.48Z" fill="#32b475"/><path d="M223.57,86.63H203.88a.74.74,0,0,1,0-1.48h19.69a.74.74,0,1,1,0,1.48Z" fill="#e3b462"/><path d="M223.57,97H188a.74.74,0,1,1,0-1.48h35.59a.74.74,0,1,1,0,1.48Z" fill="#32b475"/><path d="M179.77,97H160.08a.74.74,0,0,1,0-1.48h19.69a.74.74,0,1,1,0,1.48Z" fill="#0aa5e3"/><path d="M223.57,107.55H160.08a.74.74,0,0,1,0-1.48h63.49a.74.74,0,1,1,0,1.48Z" fill="#e3b462"/><path d="M223.57,117.88H160.08a.74.74,0,0,1,0-1.47h63.49a.74.74,0,1,1,0,1.47Z" fill="#0aa5e3"/><path d="M179.52,127.44H160.08a.74.74,0,0,1,0-1.47h19.44a.74.74,0,1,1,0,1.47Z" fill="#e3b462"/><path d="M202.41,127.44H186.66a.74.74,0,1,1,0-1.47h15.75a.74.74,0,1,1,0,1.47Z" fill="#32b475"/><path d="M151.1,86l3.75,1.78a1.28,1.28,0,0,1,.44.3.49.49,0,0,1,.13.35.53.53,0,0,1-.15.39.54.54,0,0,1-.4.15l-.22,0a1.38,1.38,0,0,1-.31-.12l-4.54-2.09-.11,0c-.41-.18-.61-.4-.61-.66s.21-.48.64-.68l0,0,4.58-2.13.34-.14.19,0a.54.54,0,0,1,.4.15.53.53,0,0,1,.15.39.52.52,0,0,1-.13.36,1.24,1.24,0,0,1-.44.31Z" fill="#32b475"/><path d="M212.71,123.55l-3.38,7.24a1.76,1.76,0,0,1-.29.47.43.43,0,0,1-.31.14.71.71,0,0,1-.47-.17.51.51,0,0,1-.21-.42,1.66,1.66,0,0,1,.16-.52v0L211.6,123a1.61,1.61,0,0,1,.29-.48.42.42,0,0,1,.31-.13.74.74,0,0,1,.47.16.54.54,0,0,1,.21.42.93.93,0,0,1,0,.22A2.69,2.69,0,0,1,212.71,123.55Z" fill="#32b475"/><path d="M218.78,127.08,215,125.3a1.32,1.32,0,0,1-.43-.3.53.53,0,0,1-.13-.36.54.54,0,0,1,.14-.4.51.51,0,0,1,.39-.15,1,1,0,0,1,.21,0l.33.13,4.57,2.14.05,0c.42.2.64.43.64.68s-.21.48-.62.67l-.09,0-4.56,2.1-.3.11a.66.66,0,0,1-.23,0,.51.51,0,0,1-.39-.15.52.52,0,0,1-.14-.39.56.56,0,0,1,.12-.36,1.28,1.28,0,0,1,.44-.3Z" fill="#32b475"/><polygon points="95.42 167.3 80.78 192.09 192.32 192.09 175.42 167.3 95.42 167.3" fill="#0190c4"/><rect x="72.89" y="186.45" width="128.45" height="5.63" fill="#0190c4"/><g clip-path="url(#8e692e65-5837-44fa-8d58-088b2e5f98cd)"><rect x="50" y="76.5" width="82.68" height="57.58" fill="#fff"/><path d="M63.21,176.19a44.27,44.27,0,0,0,3.29-14.58c.22-7.59-4.13-7.31-6.15-8.75s-3.26-6-1.88-8.4,1.66-6-.69-11.54-.39-11.62,6.59-13.13,10-3.3,11.25-6,4.45-1.1,8.23.18,13.84-4.86,15.72-4,3.26.65,5.5,4.77,6.51,5.07,9.62,5.14,19.25,4.49,7.82,12.3-21.37,12.84-22.7,18.36S87.56,164,85.17,166s-3.69,10.2-9.7,9S63.21,176.19,63.21,176.19Z" fill="#d4ebf4" opacity="0.6"/><path d="M56.54,152.18l6.46-20s4.13-9.32,9.32-11.55,10-5.05,12.27-5,10.57-.39,16.36,1.1S112,120.94,114.37,127s7.94,17.68,7.94,17.68l3.6,8.26L55.38,154Z" fill="#d4ebf4"/><path d="M58.45,150.55l6.17-19.12s3.94-8.91,8.9-11,9.59-4.83,11.72-4.79,10.1-.37,15.63,1,10.59,4,12.81,9.81,7.59,16.89,7.59,16.89l3.44,7.9-67.38,1Z" fill="#fff"/><path d="M86.4,108.35l-1.16,7.1,7.12,5.48,4.46-5.23-1.29-7.35S87.82,106.4,86.4,108.35Z" fill="#c1d6e8"/><path d="M86.68,107.33l-.44,2s2.64,2.78,9.63.89l-.4-1.89Z" fill="#a9c8db"/><path d="M83.39,95s-.81,10.49,3,13.39,10,3.79,12.77-3.54c.31-1,.57-11.27.57-11.27Z" fill="#c1d6e8"/><path d="M80.33,95.1s2.15,5.4,2.15,5.8v.39s.61,3.43,1.53,2.69a11.74,11.74,0,0,1-.47-2.65c-.16-1.79-.22-6-.22-6Z" fill="#183966"/><path d="M80.11,93.3l.48-9.78s.47-2.78,5.84-2.37,7.26-1.09,8.95-1,6,1.07,5.84,6.54v5.61S90.29,95,80.11,93.3Z" fill="#48bc69"/><path d="M73.53,95.74a31.72,31.72,0,0,0,6.58.34c4.28-.14,13.51-.11,14.19-.16s7.19-1.33,9-1.33,7.8-1.09,5.16-1.9a28.5,28.5,0,0,0-8.9,0c-3.4.56-10.72.13-12.35.47S71.22,93.64,73.53,95.74Z" fill="#48bc69"/><path d="M80.11,91.12s17,.21,21.11-1.69v2.92S89,94.18,80.11,93.3Z" fill="#fff"/><path d="M100.87,94.84a9.23,9.23,0,0,0-.34,1.75c0,.58,0,4.44-1,3.82l.2-5.57Z" fill="#183966"/><path d="M89.83,99.19a2.4,2.4,0,1,1-4.8,0,3.09,3.09,0,0,1,.77-1.53h3.14A2.57,2.57,0,0,1,89.83,99.19Z" fill="none" stroke="#183966" stroke-miterlimit="10" stroke-width="0.35"/><line x1="89.67" y1="99.07" x2="93.18" y2="99.07" fill="none" stroke="#183966" stroke-miterlimit="10" stroke-width="0.35"/><path d="M97.91,99.19a2.4,2.4,0,0,1-4.8,0,3.08,3.08,0,0,1,.78-1.53H97A2.57,2.57,0,0,1,97.91,99.19Z" fill="none" stroke="#183966" stroke-miterlimit="10" stroke-width="0.35"/><path d="M90.08,106.74s1.75,2.11,4.21,0" fill="#183966"/><polygon points="90.08 124.54 91.94 126.79 91.03 139.99 94.03 146.04 96.81 140.14 93.96 126.87 96.03 123.4 93.02 122.83 90.08 124.54" fill="#183966"/><polygon points="82.71 116.42 87.92 127.88 93.02 122.83 98.92 126.17 99.21 116.29 97.34 115.58 92.95 121.09 85.24 115.61 82.71 116.42" fill="#276eb7"/><path d="M82.52,116.29s7,3.8,7.19,34l-1.79,1.12L80.5,131.93s-2-3.15,2.13-5.56L78.38,126s.07-7,.89-8.22Z" fill="#b8deed"/><path d="M98.93,116.25s-.55,8.73-1.59,35.11l1-.54L102,138.53s6.21-10.68.54-12.29c0,0,3.69-1.7,3.21-3.28-.33-1.07-.73-3.37-2.5-4.76A12.23,12.23,0,0,0,98.93,116.25Z" fill="#b8deed"/><path d="M72.73,138s2.35,2.34.7,6.59A40.5,40.5,0,0,0,72.73,138Z" fill="#b8deed"/></g><path d="M132,77.24v51.67H50.74V77.24H132m1.47-1.48H49.27v54.63h84.15V75.76Z" fill="#0190c4"/><rect x="49.27" y="130.39" width="84.16" height="10.33" fill="#0190c4"/><ellipse cx="227.36" cy="72.14" rx="3.05" ry="4.8" fill="none" stroke="#183966" stroke-miterlimit="10"/><path d="M227.87,59.72s-.08,5.54-1.08,8.54c0,0,2,4,1,5s-2,8-1,12,3.92,18,15,13C241.75,98.26,240.94,64.17,227.87,59.72Z" fill="#c1d6e8"/><path d="M185.62,172.13s-12.11,33.51-8.59,37,20,3.46,20,3.46,3.31,1.2,6.45-8.21,6.1-24.94,6.1-24.94Z" fill="#c1d6e8"/><path d="M323.16,167.13s13.34,30.08,9.82,33.6-40.42,15.49-47.73,16.74V204.41l22.09-12-8.4-14Z" fill="#c1d6e8"/><path d="M239.83,98.26,236.07,118l.61-.49s15.85,16.72,30.65-.83c0,0-6-21.64-6.21-24.85Z" fill="#c1d6e8"/><path d="M251.73,106.83s-17-5.5-44.72,14.53c0,0-10.13,6.6-16.07,22.89L183,173.74l25.53,9.46L216.17,170s-.68,43.41-2.44,55.07h80.33l-1.88-55.26,9.46,14,23.55-14.3-12.32-33.39s-5.51-16.79-21.13-21.19C291.74,115,266.24,102.7,251.73,106.83Z" fill="#fff"/><path d="M264.33,98.85S270.5,93.35,277.7,67c.92-3.37,1.66-8.24,1.17-10.55s.27-5.62.64-8.16-1.79-9.91-7.31-7.8-6.34-4-8.07-3.56-11.49,1.7-16.76.38-11.57-1.09-12.79,7.26c0,0-11.44-1.78-9.05,11.36.93,5.13,4.1,7.19,5.26,11.35.48,1.73-.18,4.86,1,6,3.61,3.49,5.33,7.36,5,11-1,11,3,14,3,14l-.33,2S253.37,105.07,264.33,98.85Z" fill="#183966"/><path d="M92,105c-.39.49-.44.22-.62.22s-.32-.07-.48-.09a2.64,2.64,0,0,0-1,0,2.69,2.69,0,0,1-1.24.15,1.86,1.86,0,0,1-1.07-.54,2.07,2.07,0,0,0,1.08.19,1.86,1.86,0,0,0,.95-.43,2.7,2.7,0,0,1,1.29-.36,2.9,2.9,0,0,1,.66.07c.19.09.51-.06.47.59Z" fill="#183966"/><path d="M92.15,104.88c0-.65.28-.5.47-.59a2.84,2.84,0,0,1,.66-.07,2.63,2.63,0,0,1,1.28.36,1.93,1.93,0,0,0,1,.43,2.07,2.07,0,0,0,1.08-.19,1.86,1.86,0,0,1-1.07.54,2.75,2.75,0,0,1-1.25-.15,2.58,2.58,0,0,0-1,0c-.16,0-.32.06-.48.09s-.23.27-.62-.22Z" fill="#183966"/><path d="M20.88,172.52C1.85,163-.89,121.61,55.54,117.09c31.1-2.5,7.68-20.92,6-31s14.07-29.06,25-32,34.92-.06,44.16-23S163.29-3.7,188,12.15s38.69,19.55,49.95,15.39,16.11,9.7,23.35,24.4c6.61,13.42,52,19.77,57.24,34,2.94,8,7.56,11.35,2.1,29.83s4.2,33.61,13,42.86,41.53,42.38-13,58.39c-66.5,19.53-99.3-24.78-119.18-12.6s-47.2-8.53-87.1,2.1c-23,6.12-40.34,18.91-54.2-2.1S20.88,172.52,20.88,172.52Z" fill="#d4ebf4"/><polygon points="230.41 200.96 196.41 196.2 197.07 212.62 230.41 212.62 230.41 200.96" fill="#c1d6e8"/><path d="M185.68,167.13q-50.46,0-100.93-.25c-21.32-.12-46.9-17.65-48.9-39.33a394.05,394.05,0,0,1,0-62.41c2-21.68,27.58-39.21,48.9-39.33q50.46-.21,100.93-.25c21.31,0,47.26,17.77,49.44,39.54a358.28,358.28,0,0,1,0,62.49C232.94,149.36,207,167.16,185.68,167.13Z" fill="#d4ebf4"/><path d="M188.64,165.65q-50.47,0-100.94-.25c-21.31-.11-46.89-17.65-48.9-39.33a394.05,394.05,0,0,1,0-62.41c2-21.68,27.59-39.21,48.9-39.32q50.47-.22,100.94-.25c21.31,0,47.25,17.77,49.44,39.53a358.28,358.28,0,0,1,0,62.49C235.89,147.88,210,165.68,188.64,165.65Z" fill="#f7fafc"/><path d="M38.8,63.85c2-21.68,27.59-39.22,48.9-39.33q50.47-.22,100.94-.25c21.31,0,47.25,17.77,49.44,39.54Z" fill="#0190c4"/><circle cx="66.4" cy="47.74" r="4.28" fill="#fff"/><circle cx="78.19" cy="47.74" r="4.28" fill="#fff"/><circle cx="89.97" cy="47.74" r="4.28" fill="#fff"/><line x1="142.17" y1="63.81" x2="142.17" y2="168.77" fill="none" stroke="#b8deed" stroke-miterlimit="10" stroke-width="1.07"/><path d="M195.67,86.63H160.08a.74.74,0,0,1,0-1.48h35.59a.74.74,0,1,1,0,1.48Z" fill="#32b475"/><path d="M223.57,86.63H203.88a.74.74,0,0,1,0-1.48h19.69a.74.74,0,1,1,0,1.48Z" fill="#e3b462"/><path d="M223.57,97H188a.74.74,0,1,1,0-1.48h35.59a.74.74,0,1,1,0,1.48Z" fill="#32b475"/><path d="M179.77,97H160.08a.74.74,0,0,1,0-1.48h19.69a.74.74,0,1,1,0,1.48Z" fill="#0aa5e3"/><path d="M223.57,107.55H160.08a.74.74,0,0,1,0-1.48h63.49a.74.74,0,1,1,0,1.48Z" fill="#e3b462"/><path d="M223.57,117.88H160.08a.74.74,0,0,1,0-1.47h63.49a.74.74,0,1,1,0,1.47Z" fill="#0aa5e3"/><path d="M179.52,127.44H160.08a.74.74,0,0,1,0-1.47h19.44a.74.74,0,1,1,0,1.47Z" fill="#e3b462"/><path d="M202.41,127.44H186.66a.74.74,0,1,1,0-1.47h15.75a.74.74,0,1,1,0,1.47Z" fill="#32b475"/><path d="M151.1,86l3.75,1.78a1.28,1.28,0,0,1,.44.3.49.49,0,0,1,.13.35.53.53,0,0,1-.15.39.54.54,0,0,1-.4.15l-.22,0a1.38,1.38,0,0,1-.31-.12l-4.54-2.09-.11,0c-.41-.18-.61-.4-.61-.66s.21-.48.64-.68l0,0,4.58-2.13.34-.14.19,0a.54.54,0,0,1,.4.15.53.53,0,0,1,.15.39.52.52,0,0,1-.13.36,1.24,1.24,0,0,1-.44.31Z" fill="#32b475"/><path d="M212.71,123.55l-3.38,7.24a1.76,1.76,0,0,1-.29.47.43.43,0,0,1-.31.14.71.71,0,0,1-.47-.17.51.51,0,0,1-.21-.42,1.66,1.66,0,0,1,.16-.52v0L211.6,123a1.61,1.61,0,0,1,.29-.48.42.42,0,0,1,.31-.13.74.74,0,0,1,.47.16.54.54,0,0,1,.21.42.93.93,0,0,1,0,.22A2.69,2.69,0,0,1,212.71,123.55Z" fill="#32b475"/><path d="M218.78,127.08,215,125.3a1.32,1.32,0,0,1-.43-.3.53.53,0,0,1-.13-.36.54.54,0,0,1,.14-.4.51.51,0,0,1,.39-.15,1,1,0,0,1,.21,0l.33.13,4.57,2.14.05,0c.42.2.64.43.64.68s-.21.48-.62.67l-.09,0-4.56,2.1-.3.11a.66.66,0,0,1-.23,0,.51.51,0,0,1-.39-.15.52.52,0,0,1-.14-.39.56.56,0,0,1,.12-.36,1.28,1.28,0,0,1,.44-.3Z" fill="#32b475"/><polygon points="95.42 167.3 80.78 192.09 192.32 192.09 175.42 167.3 95.42 167.3" fill="#0190c4"/><rect x="72.89" y="186.45" width="128.45" height="5.63" fill="#0190c4"/><g clip-path="url(#8e692e65-5837-44fa-8d58-088b2e5f98cd)"><rect x="50" y="76.5" width="82.68" height="57.58" fill="#fff"/><path d="M63.21,176.19a44.27,44.27,0,0,0,3.29-14.58c.22-7.59-4.13-7.31-6.15-8.75s-3.26-6-1.88-8.4,1.66-6-.69-11.54-.39-11.62,6.59-13.13,10-3.3,11.25-6,4.45-1.1,8.23.18,13.84-4.86,15.72-4,3.26.65,5.5,4.77,6.51,5.07,9.62,5.14,19.25,4.49,7.82,12.3-21.37,12.84-22.7,18.36S87.56,164,85.17,166s-3.69,10.2-9.7,9S63.21,176.19,63.21,176.19Z" fill="#d4ebf4" opacity="0.6"/><path d="M56.54,152.18l6.46-20s4.13-9.32,9.32-11.55,10-5.05,12.27-5,10.57-.39,16.36,1.1S112,120.94,114.37,127s7.94,17.68,7.94,17.68l3.6,8.26L55.38,154Z" fill="#d4ebf4"/><path d="M58.45,150.55l6.17-19.12s3.94-8.91,8.9-11,9.59-4.83,11.72-4.79,10.1-.37,15.63,1,10.59,4,12.81,9.81,7.59,16.89,7.59,16.89l3.44,7.9-67.38,1Z" fill="#fff"/><path d="M86.4,108.35l-1.16,7.1,7.12,5.48,4.46-5.23-1.29-7.35S87.82,106.4,86.4,108.35Z" fill="#c1d6e8"/><path d="M86.68,107.33l-.44,2s2.64,2.78,9.63.89l-.4-1.89Z" fill="#a9c8db"/><path d="M83.39,95s-.81,10.49,3,13.39,10,3.79,12.77-3.54c.31-1,.57-11.27.57-11.27Z" fill="#c1d6e8"/><path d="M80.33,95.1s2.15,5.4,2.15,5.8v.39s.61,3.43,1.53,2.69a11.74,11.74,0,0,1-.47-2.65c-.16-1.79-.22-6-.22-6Z" fill="#183966"/><path d="M80.11,93.3l.48-9.78s.47-2.78,5.84-2.37,7.26-1.09,8.95-1,6,1.07,5.84,6.54v5.61S90.29,95,80.11,93.3Z" fill="#48bc69"/><path d="M73.53,95.74a31.72,31.72,0,0,0,6.58.34c4.28-.14,13.51-.11,14.19-.16s7.19-1.33,9-1.33,7.8-1.09,5.16-1.9a28.5,28.5,0,0,0-8.9,0c-3.4.56-10.72.13-12.35.47S71.22,93.64,73.53,95.74Z" fill="#48bc69"/><path d="M80.11,91.12s17,.21,21.11-1.69v2.92S89,94.18,80.11,93.3Z" fill="#fff"/><path d="M100.87,94.84a9.23,9.23,0,0,0-.34,1.75c0,.58,0,4.44-1,3.82l.2-5.57Z" fill="#183966"/><path d="M89.83,99.19a2.4,2.4,0,1,1-4.8,0,3.09,3.09,0,0,1,.77-1.53h3.14A2.57,2.57,0,0,1,89.83,99.19Z" fill="none" stroke="#183966" stroke-miterlimit="10" stroke-width="0.35"/><line x1="89.67" y1="99.07" x2="93.18" y2="99.07" fill="none" stroke="#183966" stroke-miterlimit="10" stroke-width="0.35"/><path d="M97.91,99.19a2.4,2.4,0,0,1-4.8,0,3.08,3.08,0,0,1,.78-1.53H97A2.57,2.57,0,0,1,97.91,99.19Z" fill="none" stroke="#183966" stroke-miterlimit="10" stroke-width="0.35"/><path d="M90.08,106.74s1.75,2.11,4.21,0" fill="#183966"/><polygon points="90.08 124.54 91.94 126.79 91.03 139.99 94.03 146.04 96.81 140.14 93.96 126.87 96.03 123.4 93.02 122.83 90.08 124.54" fill="#183966"/><polygon points="82.71 116.42 87.92 127.88 93.02 122.83 98.92 126.17 99.21 116.29 97.34 115.58 92.95 121.09 85.24 115.61 82.71 116.42" fill="#276eb7"/><path d="M82.52,116.29s7,3.8,7.19,34l-1.79,1.12L80.5,131.93s-2-3.15,2.13-5.56L78.38,126s.07-7,.89-8.22Z" fill="#b8deed"/><path d="M98.93,116.25s-.55,8.73-1.59,35.11l1-.54L102,138.53s6.21-10.68.54-12.29c0,0,3.69-1.7,3.21-3.28-.33-1.07-.73-3.37-2.5-4.76A12.23,12.23,0,0,0,98.93,116.25Z" fill="#b8deed"/><path d="M72.73,138s2.35,2.34.7,6.59A40.5,40.5,0,0,0,72.73,138Z" fill="#b8deed"/></g><path d="M132,77.24v51.67H50.74V77.24H132m1.47-1.48H49.27v54.63h84.15V75.76Z" fill="#0190c4"/><rect x="49.27" y="130.39" width="84.16" height="10.33" fill="#0190c4"/><ellipse cx="227.36" cy="72.14" rx="3.05" ry="4.8" fill="none" stroke="#183966" stroke-miterlimit="10"/><path d="M227.87,59.72s-.08,5.54-1.08,8.54c0,0,2,4,1,5s-2,8-1,12,3.92,18,15,13C241.75,98.26,240.94,64.17,227.87,59.72Z" fill="#c1d6e8"/><path d="M185.62,172.13s-12.11,33.51-8.59,37,20,3.46,20,3.46,3.31,1.2,6.45-8.21,6.1-24.94,6.1-24.94Z" fill="#c1d6e8"/><path d="M323.16,167.13s13.34,30.08,9.82,33.6-40.42,15.49-47.73,16.74V204.41l22.09-12-8.4-14Z" fill="#c1d6e8"/><path d="M239.83,98.26,236.07,118l.61-.49s15.85,16.72,30.65-.83c0,0-6-21.64-6.21-24.85Z" fill="#c1d6e8"/><path d="M251.73,106.83s-17-5.5-44.72,14.53c0,0-10.13,6.6-16.07,22.89L183,173.74l25.53,9.46L216.17,170s-.68,43.41-2.44,55.07h80.33l-1.88-55.26,9.46,14,23.55-14.3-12.32-33.39s-5.51-16.79-21.13-21.19C291.74,115,266.24,102.7,251.73,106.83Z" fill="#fff"/><path d="M264.33,98.85S270.5,93.35,277.7,67c.92-3.37,1.66-8.24,1.17-10.55s.27-5.62.64-8.16-1.79-9.91-7.31-7.8-6.34-4-8.07-3.56-11.49,1.7-16.76.38-11.57-1.09-12.79,7.26c0,0-11.44-1.78-9.05,11.36.93,5.13,4.1,7.19,5.26,11.35.48,1.73-.18,4.86,1,6,3.61,3.49,5.33,7.36,5,11-1,11,3,14,3,14l-.33,2S253.37,105.07,264.33,98.85Z" fill="#183966"/><path d="M92,105c-.39.49-.44.22-.62.22s-.32-.07-.48-.09a2.64,2.64,0,0,0-1,0,2.69,2.69,0,0,1-1.24.15,1.86,1.86,0,0,1-1.07-.54,2.07,2.07,0,0,0,1.08.19,1.86,1.86,0,0,0,.95-.43,2.7,2.7,0,0,1,1.29-.36,2.9,2.9,0,0,1,.66.07c.19.09.51-.06.47.59Z" fill="#183966"/><path d="M92.15,104.88c0-.65.28-.5.47-.59a2.84,2.84,0,0,1,.66-.07,2.63,2.63,0,0,1,1.28.36,1.93,1.93,0,0,0,1,.43,2.07,2.07,0,0,0,1.08-.19,1.86,1.86,0,0,1-1.07.54,2.75,2.75,0,0,1-1.25-.15,2.58,2.58,0,0,0-1,0c-.16,0-.32.06-.48.09s-.23.27-.62-.22Z" fill="#183966"/></svg>