<svg id="e7106f85-3f4e-4341-9dd3-bc4db7117dbf" data-name="Layer 1" xmlns="http://www.w3.org/2000/svg" viewBox="0 0 320 230"><title>Artboard 1</title><path d="M183.35,224.3c-26,4-61-12-93.68-3.5-23.43,6.09-91.88-12.08-86-37.89s32.43-38,29.48-66.74S59.43,62.89,81.56,52.64,86.39,22,120,17.23C164.6,11,172-17.46,197.77,30.49s36.1,11.62,49.38,16.78,14.14,38.22,31.11,41.17,32.45,17,25.08,44.25,4,27.3,11.39,47.95-5.72,33.81-49.51,42.94C223.35,232.3,209.35,220.3,183.35,224.3Z" fill="#d4ebf4"/><path d="M82.51,167.6s-11.86,28.28-8.21,31.93,20.07,10,20.07,10l1.83-42Z" fill="#c1d6e8"/><path d="M224.84,166.33S241.25,195,237.6,198.62,216.9,211,209.32,212.3L213,195.88l2.74-1.83-7.3-22.8Z" fill="#c1d6e8"/><path d="M151,99.93s-17.61-5.7-46.35,15.06c0,0-10.49,6.84-16.65,23.72l-8.21,30.56,26.46,9.8,7.9-13.66S121.77,196,120,208h74.58l-1.6-47,9.81,18.7,24.41-14.83-12.78-34.6s-5.7-17.4-21.89-22C192.48,108.37,166.05,95.64,151,99.93Z" fill="#fff"/><path d="M138.69,81.93l-3.9,20.49.63-.51s16.43,17.34,31.77-.86c0,0-6.25-22.42-6.45-25.75Z" fill="#c1d6e8"/><path d="M137.64,87.44s14.09,8.6,25.09-3.06L161,78.19l-22.69,5Z" fill="#a9c8db"/><path d="M128.24,44V66.79c0,8.51,6,24.93,23.23,21s19.95-31.63,19.95-31.63,7-31-28.89-19.76A41.58,41.58,0,0,0,128.24,44Z" fill="#c1d6e8"/><path d="M128.24,59.94S125,55.08,126,51.58s-2.44-8.36-2.13-10.79-.76-5.78-1.37-8.37,1-10.39,6.88-8.69,6.2-4.69,8-4.38,12,.76,17.33-1.07,11.86-2.13,13.84,6.39c0,0,10.64-2.89,10.34,10.95S171.3,62.53,172,69.67c0,0-5-.3-3.9-6.08S171,58.27,166.86,53,162.67,40.24,165,36.56c0,0-8.47,1.34-9.69,4.23s-12,10.18-17.79,6.08-8.82-5.63-8.51,1.06Z" fill="#183966"/><circle cx="139.18" cy="58.88" r="6.23" fill="none" stroke="#183966" stroke-miterlimit="10" stroke-width="0.91"/><circle cx="157.25" cy="58.88" r="6.23" fill="none" stroke="#183966" stroke-miterlimit="10" stroke-width="0.91"/><line x1="145" y1="58.58" x2="151.39" y2="58.58" fill="none" stroke="#183966" stroke-miterlimit="10" stroke-width="0.91"/><rect x="63.35" y="108.3" width="38.32" height="28.28" rx="5.47" ry="5.47" fill="#48bc69" stroke="#fff" stroke-miterlimit="10" stroke-width="0.91"/><path d="M71,124.49V123l2.9-1.81v0L71,119.36V117.9l4.23,2.74v1.11Z" fill="#fff"/><path d="M77.12,126.62v-1.2h5.25v1.2Z" fill="#fff"/><circle cx="99.39" cy="109.67" r="3.19" fill="#dadd3c" stroke="#fff" stroke-miterlimit="10" stroke-width="0.91"/><rect x="86.39" y="143.3" width="134.27" height="71" rx="3" ry="3" fill="#0190c4"/><circle cx="153.52" cy="178.8" r="9.68" fill="#fff"/></svg>