<svg id="47cc6a27-5c95-4a49-835a-78ba3aecec4e" data-name="Layer 1" xmlns="http://www.w3.org/2000/svg" viewBox="0 0 340 230"><title>Artboard 3</title><path d="M21,181.87c-5.83-5.54-13.38-15.17,3.91-57.42S73.42,82,77.9,59.6c6.55-32.88,43.76,0,38.54-32.8C112.7,3.31,140.26-1.31,165,5.17c20.16,5.27,44.8,30.72,66.67,19.13S277.24,33.45,274.8,52C270,88.13,283.47,101.54,307.62,115c26.81,15,29.91,76.24-32.82,89.75s-77.66-7.46-109.39,14.78c-22.08,15.47-66.72,6.19-83.12-9.31S34.26,194.42,21,181.87Z" fill="#d4ebf4"/><path d="M181.23,38.38s-.36,15.83-2.11,21-4.1,12,3.82,8.13c0,0,1.93,19.26,11.13,16s9.41-5.35,9.41-5.35l13.91,16.26,21.19-19.26-12.2-14.76-8.56-19.9L204.13,30Z" fill="#c1d6e8"/><path d="M181.23,38.38s-7.28,0-8.77-4.5S176.77,23,176.77,23s2-2.6,8.83-5.27,26,3.92,27.08,8.63c0,0,12.42-5.14,13.27,7.27s-2.35,18,0,19.9,4.49,9-3.42,7.7c0,0-5.09-7.23-4.5-13.05s-9.2-6.56-9.2.89c0,0-2.78,10.67-4.28-3,0,0,.43-14.76-5.35-10.91S181.23,38.38,181.23,38.38Z" fill="#183966"/><polygon points="214.85 165.44 170.67 195.65 177.39 198.3 220.85 181.87 214.85 165.44" fill="#c1d6e8"/><path d="M213.79,90.23s-3.89,31.39-3.67,38.87,3,41.3,5.35,52,5.77,32,5.77,32h70.4a225.43,225.43,0,0,0,0-70.74C285.44,103.86,259.12,84,259.12,84L238.58,73.68Z" fill="#fff"/><path d="M215.11,179.3s-2.46,1-13.46,5.47c-10.49,4.3-31,10.88-31,10.88l16-4.39,28.76-10.16Z" fill="#a9c8db"/><ellipse cx="184.48" cy="54.41" rx="2.57" ry="7.02" fill="none" stroke="#183966" stroke-miterlimit="10" stroke-width="0.88"/><line x1="186.8" y1="51.4" x2="207.43" y2="49.44" fill="none" stroke="#183966" stroke-miterlimit="10" stroke-width="0.88"/><path d="M48.34,99.76H74.16l10.6-4.54,10.64.15s1.21.06,1.47,2.2-2.57,2.19-2.57,2.19l-8.88,0v16l-10.65-1.62-26.43,5.28Z" fill="#a9c8db"/><path d="M104,75.9A1.87,1.87,0,0,1,105.88,74h11.17a1.87,1.87,0,0,1,1.86,1.86v7.44h3.72V75.9a5.59,5.59,0,0,0-5.58-5.58H105.88a5.59,5.59,0,0,0-5.58,5.58v7.44H104Z" fill="#bfdee8"/><path d="M104.91,75.9A1.87,1.87,0,0,1,106.77,74h11.17a1.87,1.87,0,0,1,1.86,1.86v7.44h3.72V75.9a5.59,5.59,0,0,0-5.58-5.58H106.77a5.59,5.59,0,0,0-5.58,5.58v7.44h3.72Z" fill="#fff"/><path d="M85.42,91.57v26.24a5.39,5.39,0,0,0,5.39,5.39h41.31a5.39,5.39,0,0,0,5.39-5.39V91.57Z" fill="#bfdee8"/><path d="M86.31,90.79V117a5.39,5.39,0,0,0,5.39,5.39H133A5.39,5.39,0,0,0,138.4,117V90.79Z" fill="#fff"/><path d="M112.35,105.67a55.16,55.16,0,0,0,9.31-.77L129.1,103c6.78-2.45,11.16-6.35,11.16-10.75V87.06a5.58,5.58,0,0,0-5.58-5.58H90a5.58,5.58,0,0,0-5.58,5.58v5.17c0,4.4,4.38,8.3,11.16,10.75l7.44,1.92A55.13,55.13,0,0,0,112.35,105.67Z" fill="#48bc69" stroke="#fff" stroke-miterlimit="10" stroke-width="0.72"/><path d="M99.33,109.39h0a3.73,3.73,0,0,1-3.72-3.72V102a1.86,1.86,0,0,1,1.86-1.86h3.72a1.86,1.86,0,0,1,1.86,1.86v3.72A3.72,3.72,0,0,1,99.33,109.39Z" fill="#48bc69" stroke="#fff" stroke-miterlimit="10" stroke-width="0.72"/><path d="M125.38,109.39h0a3.72,3.72,0,0,1-3.72-3.72V102a1.86,1.86,0,0,1,1.86-1.86h3.72A1.86,1.86,0,0,1,129.1,102v3.72A3.73,3.73,0,0,1,125.38,109.39Z" fill="#48bc69" stroke="#fff" stroke-miterlimit="10" stroke-width="0.72"/><circle cx="99.33" cy="105.67" r="1.86" fill="#fff"/><circle cx="125.38" cy="105.67" r="1.86" fill="#fff"/><path d="M48.34,98.8H74.16l10.6-4.55,10.64.15s1.21.06,1.47,2.2-2.57,2.2-2.57,2.2l-8.88,0v16l-10.65-1.61-26.43,5.28Z" fill="#c1d6e8"/><path d="M83.85,102s.75,1.74-3.84,3C80,105,83,103.5,83.85,102Z" fill="#afc9dd"/><path d="M85.42,108.34a11.53,11.53,0,0,1-2.86-.07,6.28,6.28,0,0,0,2.86-.35Z" fill="#afc9dd"/><path d="M66.4,45.05s-43.58,57.23,0,145.44Z" fill="#0190c4"/><path d="M48.67,125.72,31.11,186.25s-.67,13.12,11.78,16.49h35" fill="none" stroke="#0190c4" stroke-linecap="round" stroke-linejoin="round" stroke-width="2.9"/><path d="M229.8,149.86s12.9-9,38.09-3c0,0-.45,29.44-3,35.44s.86,18.39-17.72,20.2-81.74,0-81.74,0v-5.22l70.31-21.84Z" fill="#c1d6e8"/><polyline points="165.41 197.28 153.29 194.8 145.93 197.28 138.41 201.07 141.59 202.5 165.41 202.5" fill="#c1d6e8"/><path d="M110.89,202.25,150,203l-9.9-1-28.23-2.63S103.21,199.66,110.89,202.25Z" fill="#0190c4"/><ellipse cx="178.18" cy="53.78" rx="2.13" ry="5.82" fill="none" stroke="#183966" stroke-miterlimit="10" stroke-width="0.73"/><line x1="181.91" y1="54.41" x2="180.41" y2="54.28" fill="none" stroke="#183966" stroke-miterlimit="10" stroke-width="0.8"/></svg>