<svg id="Layer_1" data-name="Layer 1" xmlns="http://www.w3.org/2000/svg" viewBox="0 0 491 80"><defs><style>.cls-1,.cls-2{fill:#0080ff;}.cls-2{fill-rule:evenodd;}</style></defs><title>digital-ocean-logo</title><g id="_Group_" data-name="&lt;Group&gt;"><g id="_Group_2" data-name="&lt;Group&gt;"><g id="_Group_3" data-name="&lt;Group&gt;"><g id="_Group_4" data-name="&lt;Group&gt;"><g id="_Group_5" data-name="&lt;Group&gt;"><path id="_Path_" data-name="&lt;Path&gt;" class="cls-1" d="M47.66,80V64.51C64.1,64.51,76.82,48.24,70.54,31A23.2,23.2,0,0,0,56.71,17.12C39.42,10.85,23.16,23.56,23.16,40H7.66C7.66,13.81,33-6.58,60.41,2A38.67,38.67,0,0,1,85.68,27.25C94.25,54.7,73.86,80,47.66,80Z"/></g><polygon id="_Path_2" data-name="&lt;Path&gt;" class="cls-2" points="47.7 64.55 32.25 64.55 32.25 49.11 32.26 49.1 47.7 49.1 47.7 49.1 47.7 64.55"/><polygon id="_Path_3" data-name="&lt;Path&gt;" class="cls-2" points="32.25 76.42 20.39 76.42 20.38 76.41 20.38 64.55 32.25 64.55 32.25 76.41 32.25 76.42"/><polygon id="_Path_4" data-name="&lt;Path&gt;" class="cls-2" points="20.39 64.55 10.45 64.55 10.44 64.55 10.44 54.6 10.45 54.6 20.39 54.6 20.39 54.6 20.39 64.55"/></g></g></g><g id="_Group_6" data-name="&lt;Group&gt;"><path id="_Compound_Path_" data-name="&lt;Compound Path&gt;" class="cls-1" d="M150.08,23.13c-4.58-3.18-10.28-4.79-16.94-4.79h-14.5v46h14.5c6.64,0,12.35-1.7,16.95-5.05a17.51,17.51,0,0,0,5.85-7.38A26.83,26.83,0,0,0,158,41a26.15,26.15,0,0,0-2.06-10.73A16.68,16.68,0,0,0,150.08,23.13Zm-23,3h4.55c5.06,0,9.23,1,12.39,3,3.51,2.12,5.29,6.14,5.29,12,0,6-1.78,10.2-5.3,12.5h0c-3,2-7.17,3-12.31,3h-4.61Z"/><path id="_Path_5" data-name="&lt;Path&gt;" class="cls-1" d="M168.09,17.77a4.87,4.87,0,0,0-3.56,1.46,4.67,4.67,0,0,0-1.47,3.51,5,5,0,1,0,10.07,0,4.67,4.67,0,0,0-1.47-3.5A4.88,4.88,0,0,0,168.09,17.77Z"/><rect id="_Path_6" data-name="&lt;Path&gt;" class="cls-1" x="163.93" y="31.94" width="8.15" height="32.4"/><path id="_Compound_Path_2" data-name="&lt;Compound Path&gt;" class="cls-1" d="M201.69,34.65a12.27,12.27,0,0,0-8.17-3.46,14.62,14.62,0,0,0-11.12,4.62A16.22,16.22,0,0,0,178,47.45a16.59,16.59,0,0,0,4.33,11.61,14.85,14.85,0,0,0,11.18,4.56,12.67,12.67,0,0,0,8-2.6v.75A8.51,8.51,0,0,1,199.43,68a7.88,7.88,0,0,1-5.84,2.16c-3.76,0-6.12-1.48-9-5.36L179,70.11l.15.21a19.82,19.82,0,0,0,5.46,4.9,16.5,16.5,0,0,0,9.06,2.35c4.84,0,8.76-1.49,11.64-4.43s4.37-6.92,4.37-11.77V31.94h-8Zm-2.14,19.13a7,7,0,0,1-5.59,2.4,6.94,6.94,0,0,1-5.56-2.4,9.35,9.35,0,0,1-2.11-6.34A9.51,9.51,0,0,1,188.4,41a7.64,7.64,0,0,1,11.15,0,9.42,9.42,0,0,1,2.14,6.41A9.26,9.26,0,0,1,199.55,53.78Z"/><rect id="_Path_7" data-name="&lt;Path&gt;" class="cls-1" x="216.69" y="31.94" width="8.15" height="32.4"/><path id="_Path_8" data-name="&lt;Path&gt;" class="cls-1" d="M220.85,17.77a4.87,4.87,0,0,0-3.56,1.46,4.67,4.67,0,0,0-1.47,3.51,5,5,0,1,0,10.07,0,4.67,4.67,0,0,0-1.47-3.5A4.88,4.88,0,0,0,220.85,17.77Z"/><path id="_Path_9" data-name="&lt;Path&gt;" class="cls-1" d="M242.72,23.19h-8v8.75H230v7.43h4.66V52.83c0,4.21.84,7.22,2.5,9s4.62,2.62,8.78,2.62c1.32,0,2.66,0,4-.13l.37,0V56.83l-2.8.15c-1.94,0-3.24-.34-3.85-1s-.94-2.13-.94-4.29V39.37h7.59V31.94h-7.59Z"/><rect id="_Path_10" data-name="&lt;Path&gt;" class="cls-1" x="288.53" y="18.34" width="8.15" height="46"/><path id="_Path_11" data-name="&lt;Path&gt;" class="cls-1" d="M379,52.76a22.88,22.88,0,0,1-4.1,3.79h0a7.71,7.71,0,0,1-4.23,1.09A7.44,7.44,0,0,1,364.81,55a10.08,10.08,0,0,1-2.36-6.85,10.09,10.09,0,0,1,2.33-6.83,7.37,7.37,0,0,1,5.87-2.66c2.63,0,5.39,1.63,7.77,4.44l5.39-5.17h0a16.05,16.05,0,0,0-13.34-6.7A15.69,15.69,0,0,0,358.94,36a16.54,16.54,0,0,0-4.76,12.08,16.66,16.66,0,0,0,4.76,12.11,15.64,15.64,0,0,0,11.54,4.85,16.16,16.16,0,0,0,13.88-7.22Z"/><path id="_Compound_Path_3" data-name="&lt;Compound Path&gt;" class="cls-1" d="M412.51,36.47a12.25,12.25,0,0,0-4.68-3.86,15.28,15.28,0,0,0-6.74-1.43,13.84,13.84,0,0,0-11.07,5,18.54,18.54,0,0,0-4.09,12.15,16.81,16.81,0,0,0,4.49,12.08,15.62,15.62,0,0,0,11.78,4.66,16.23,16.23,0,0,0,13.41-6.61l.18-.24-5.32-5.11h0A23.18,23.18,0,0,1,408.64,55a10,10,0,0,1-2.37,1.75,9.09,9.09,0,0,1-4.11.91,7.94,7.94,0,0,1-5.56-2,7.45,7.45,0,0,1-2.33-4.92h21.6l.07-3a21.09,21.09,0,0,0-.85-6A17.61,17.61,0,0,0,412.51,36.47ZM394.69,44.1a8,8,0,0,1,2.13-3.84,5.86,5.86,0,0,1,4.27-1.64,6,6,0,0,1,4.55,1.67,6.08,6.08,0,0,1,1.62,3.81Z"/><path id="_Compound_Path_4" data-name="&lt;Compound Path&gt;" class="cls-1" d="M443.82,34.37h0c-2.47-2.11-5.89-3.18-10.15-3.18a16.52,16.52,0,0,0-7.54,1.76,13.37,13.37,0,0,0-5.53,5.19l.08.1,5.22,5c2.15-3.43,4.54-4.62,7.71-4.62a6.39,6.39,0,0,1,4.2,1.36,4.26,4.26,0,0,1,1.61,3.48V45a20.61,20.61,0,0,0-6-.93c-4.06,0-7.36,1-9.81,2.84a9.66,9.66,0,0,0-3.74,8.1A9.32,9.32,0,0,0,423,62.39a11.91,11.91,0,0,0,7.87,2.67,13.68,13.68,0,0,0,8.64-3.39v2.67h8V43.51C447.57,39.57,446.31,36.49,443.82,34.37ZM429.34,52a6.74,6.74,0,0,1,3.88-1,18.2,18.2,0,0,1,6.19,1.17v3.18a10,10,0,0,1-7,2.48,5,5,0,0,1-3.26-.93,2.88,2.88,0,0,1-1.1-2.36A2.93,2.93,0,0,1,429.34,52Z"/><path id="_Path_12" data-name="&lt;Path&gt;" class="cls-1" d="M478.93,35c-2.27-2.53-5.46-3.81-9.49-3.81a11,11,0,0,0-7.83,2.76v-2h-8v32.4h8.15V46.47a8.86,8.86,0,0,1,1.74-5.79,5.87,5.87,0,0,1,4.83-2.06,5.22,5.22,0,0,1,4.28,1.84,7.76,7.76,0,0,1,1.56,5.1V64.34h8.15V45.56C482.34,41.07,481.19,37.52,478.93,35Z"/><path id="_Compound_Path_5" data-name="&lt;Compound Path&gt;" class="cls-1" d="M278.28,34.37h0c-2.47-2.11-5.89-3.18-10.15-3.18a16.52,16.52,0,0,0-7.54,1.76,13.37,13.37,0,0,0-5.53,5.19l.08.1,5.22,5c2.15-3.43,4.54-4.62,7.71-4.62a6.39,6.39,0,0,1,4.2,1.36,4.26,4.26,0,0,1,1.61,3.48V45a20.61,20.61,0,0,0-6-.93c-4.06,0-7.36,1-9.81,2.84a9.66,9.66,0,0,0-3.74,8.1,9.32,9.32,0,0,0,3.16,7.36,11.91,11.91,0,0,0,7.87,2.67A13.68,13.68,0,0,0,274,61.67v2.67h8V43.51C282,39.57,280.77,36.49,278.28,34.37ZM263.81,52a6.74,6.74,0,0,1,3.88-1,18.2,18.2,0,0,1,6.19,1.17v3.18a10,10,0,0,1-7,2.48,5,5,0,0,1-3.26-.93,2.88,2.88,0,0,1-1.1-2.36A2.93,2.93,0,0,1,263.81,52Z"/><path id="_Compound_Path_6" data-name="&lt;Compound Path&gt;" class="cls-1" d="M326.26,65A23.71,23.71,0,1,1,350,41.32,23.74,23.74,0,0,1,326.26,65Zm0-39.07a15.36,15.36,0,1,0,15.36,15.36A15.37,15.37,0,0,0,326.26,26Z"/></g></g></svg>