<svg id="Layer_1" data-name="Layer 1" xmlns="http://www.w3.org/2000/svg" viewBox="0 0 112 30"><defs><style>.cls-1{fill:none;}.cls-2{fill:#3d5b99;fill-rule:evenodd;}</style></defs><title>Artboard 1</title><rect class="cls-1" x="-272.8" y="-405.7" width="1076" height="5087.11"/><path class="cls-2" d="M60.6,11.4a4.6,4.6,0,0,0-4.3,1.8V4.4L52,4.9V25.3h4.4V24.1a8,8,0,0,0,1.8,1.2,5.3,5.3,0,0,0,7-3.2,11.3,11.3,0,0,0,.2-6.6A5.1,5.1,0,0,0,60.6,11.4Zm.6,8.9a2.2,2.2,0,0,1-2.5,2h-.1l-.9-.2a3,3,0,0,1-1.4-2.2,9.7,9.7,0,0,1,.3-3.9,2.5,2.5,0,0,1,4.5.8,12.5,12.5,0,0,1,0,3.6Z"/><path class="cls-2" d="M76,11.7a8.7,8.7,0,0,0-4.5,0A5.5,5.5,0,0,0,67.2,16a14.5,14.5,0,0,0-.2,3.8,5.8,5.8,0,0,0,4.7,5.6h2.9a5.9,5.9,0,0,0,5.7-4.7,10.3,10.3,0,0,0,0-4.6A5.7,5.7,0,0,0,76,11.7Zm.2,8.4a.5.5,0,0,1,0,.3,2.5,2.5,0,0,1-4.8-.3,16.7,16.7,0,0,1,0-2.9,2.5,2.5,0,0,1,4.9-.5,13.2,13.2,0,0,1,0,3.4Z"/><path class="cls-2" d="M11.2,11.6l-.4,3.7H7.7v10H3.5v-10H.7V11.6H3.4a24.2,24.2,0,0,1,.2-3.7h0c1.2-4.8,7.5-3.3,7.6-3.3V8S8,7.6,7.8,9.6v2.1h3.5Z"/><path class="cls-2" d="M20.8,13.4v-.2h-.1a4.2,4.2,0,0,0-2.1-1.5,5.3,5.3,0,0,0-6.7,3.4v.2a11.7,11.7,0,0,0-.2,5.5c.7,4,3.7,5.3,6.8,4.7a4.1,4.1,0,0,0,2.4-1.7v1.5h4V11.7h-4v1.7Zm-.4,6.9a2.2,2.2,0,0,1-2.4,2,2.3,2.3,0,0,1-2.3-1.9,11.9,11.9,0,0,1,.1-3.9,2.2,2.2,0,0,1,2.4-1.7,2.2,2.2,0,0,1,2.2,2,16.4,16.4,0,0,1,0,3.5Z"/><path class="cls-2" d="M37.3,24.8H37l-2.2.6a10,10,0,0,1-4.4-.2,5.5,5.5,0,0,1-4.1-4.4,11.1,11.1,0,0,1-.1-4.5,5.8,5.8,0,0,1,5.5-4.9,10.6,10.6,0,0,1,4.1.3h.6l.6.3.2.2v.7l-.7,2.2-1.9-.5H33a2.5,2.5,0,0,0-2.4,2.3,10,10,0,0,0-.1,2.3c.8,4.6,5.8,2.2,5.8,2.2l.2.7.6,2Z"/><path class="cls-2" d="M50.5,19a23.3,23.3,0,0,0-.1-2.8,5.1,5.1,0,0,0-4.4-4.6,11.5,11.5,0,0,0-3,0,5.4,5.4,0,0,0-5.1,4.4,16,16,0,0,0-.1,4.7,5.1,5.1,0,0,0,3.4,4.5c.9.3,5.2,1.4,9-.5L50,24l-.6-2.2h-.8l-2.3.5H44.1A2.2,2.2,0,0,1,42,20h8.5Zm-3.9-1.9H41.9a2.5,2.5,0,0,1,1-2.3,2.6,2.6,0,0,1,2.8-.1c.9.5,1,1.4,1,2.4Z"/><path class="cls-2" d="M105.3,18.5l4.3,6.8h-4.6l-4-6.3v6.3H96.7V4.9l4.3-.5v.5h0V18l4-6.2h4.6Z"/><path class="cls-2" d="M90.8,11.7a8.7,8.7,0,0,0-4.5,0A5.5,5.5,0,0,0,82,16a14.5,14.5,0,0,0-.2,3.8,5.8,5.8,0,0,0,4.7,5.6h2.9a5.9,5.9,0,0,0,5.7-4.7,10.4,10.4,0,0,0,0-4.6,5.7,5.7,0,0,0-4.3-4.5m.2,8.4a.5.5,0,0,1,0,.3,2.5,2.5,0,0,1-4.8-.3,16.7,16.7,0,0,1,0-2.9,2.5,2.5,0,0,1,4.9-.5,13.2,13.2,0,0,1,0,3.4"/></svg>