<svg id="0aaf3abf-7b26-421c-a7b5-99b2ffadd31c" data-name="Layer 1" xmlns="http://www.w3.org/2000/svg" viewBox="0 0 60 21"><title>partner-logo-ola</title><path d="M9.76.34a10.76,10.76,0,0,1,3.92,0,5.46,5.46,0,0,1,1.78.74c.63.37,1.27.72,1.91,1.05a9.47,9.47,0,0,1,3.55,4.24,10.08,10.08,0,0,1,.76,3,8.2,8.2,0,0,1-.33,4.08A16.36,16.36,0,0,1,19.52,17a3.57,3.57,0,0,1-.34.43,8.2,8.2,0,0,1-3.09,2.45.43.43,0,0,0,.1-.24l-.42.11a1.19,1.19,0,0,1,.31-.23,10.63,10.63,0,0,0,1.16-.87c.06-.05.15-.08.17-.17-.15.06-.24.21-.37.29a10.23,10.23,0,0,1-6.79,2,9.89,9.89,0,0,1-6.51-3.26A10.67,10.67,0,0,1,1.34,13a10,10,0,0,1,.19-5.82,9.67,9.67,0,0,1,1.63-3A11.22,11.22,0,0,1,7.43.9C8.2.7,9,.47,9.76.34m.12.58A10,10,0,0,0,5.11,3.25,10.58,10.58,0,0,0,2,8a15.2,15.2,0,0,0-.42,3.15,10.55,10.55,0,0,0,1.6,4.48,8.08,8.08,0,0,0,2.35,2.31l.15.07a12.18,12.18,0,0,1-1.47-1.31,8.54,8.54,0,0,1-2.39-5.92A9.46,9.46,0,0,1,3.44,5.5c.45-.46.75-1,1.18-1.52A11.39,11.39,0,0,1,9.74,1.22a10.63,10.63,0,0,1,6.11.94,9.91,9.91,0,0,1,4.32,3.91,8.83,8.83,0,0,1,1.22,4.27,5.08,5.08,0,0,0-.09-1.65,10.32,10.32,0,0,0-.76-2.38,13.14,13.14,0,0,0-2.38-3.2,8.94,8.94,0,0,0-2.6-1.57c-.82-.22-1.65-.42-2.48-.63a9.29,9.29,0,0,0-3.2,0m.24,1.45A11,11,0,0,0,5.77,4.64a3.61,3.61,0,0,0-.9,1.19,1.48,1.48,0,0,1-.14.32l.07,0A9.37,9.37,0,0,1,6,4.77a7.73,7.73,0,0,1,4.59-2A8.89,8.89,0,0,1,16,4.09,6.56,6.56,0,0,1,17.5,5.24a7.19,7.19,0,0,1,1.68,2.92,6.9,6.9,0,0,1,.49,3.11A13.61,13.61,0,0,1,19,14.63c-.4.61-.76,1.23-1.16,1.83a9.88,9.88,0,0,1-5,3.2,2.47,2.47,0,0,1-.54.11c.19,0,.36-.07.55-.07a9.14,9.14,0,0,0,5-2.72,8.63,8.63,0,0,0,2.28-4.8V10A4.27,4.27,0,0,0,20,8.75a9,9,0,0,0-3.33-4.84A7.3,7.3,0,0,0,15.13,3a9.73,9.73,0,0,0-5-.64M7.63,7.67a4.63,4.63,0,0,0-1,3.42,5.28,5.28,0,0,0,.76,2L7.23,13c-.11,0-.11.1-.06.16a4.41,4.41,0,0,0,1.3,1.42,12.47,12.47,0,0,0,1.35.73,4.32,4.32,0,0,0,1.78.28,5.53,5.53,0,0,0,2-.51,5.77,5.77,0,0,0,1.7-1.37c.34-.35.38-.87.63-1.26a3.16,3.16,0,0,0,.35-1.63A5.52,5.52,0,0,0,16,9,3.08,3.08,0,0,0,15.52,8a5,5,0,0,0-2.88-2,5,5,0,0,0-5,1.75Zm44.46-3.4c1.64,2.94,3.28,5.9,4.91,8.85.67,1.2,1.35,2.39,2,3.6-1.09,0-2.17,0-3.25,0-1.21-2.21-2.45-4.4-3.66-6.61-.91,1.54-1.77,3.11-2.66,4.67-.36.64-.73,1.28-1.08,1.93-1.07,0-2.14,0-3.21,0,.67-1.2,1.35-2.4,2-3.61l4.93-8.84Zm-12.83.09c.92,0,1.83,0,2.75,0,0,2.55,0,5.08,0,7.62,0,.62,0,1.24,0,1.86h3.58c-.54,1-1.11,1.91-1.64,2.88-1.56,0-3.12,0-4.69,0,0-2,0-3.93,0-5.88,0-2.17,0-4.32,0-6.48ZM27,7.18A6.17,6.17,0,0,1,32.1,4.35a6.17,6.17,0,0,1,6.24,6.49A6.18,6.18,0,1,1,27,7.18m4.48.13A3.3,3.3,0,1,0,33,13.72a3.32,3.32,0,0,0,2-1.56,3.26,3.26,0,0,0,.31-2.48,3.29,3.29,0,0,0-3.88-2.37Z" fill="#221e1f" stroke="#221e1f" stroke-width="0.09"/><path d="M7.63,7.67a5,5,0,0,1,5-1.75,5,5,0,0,1,2.88,2A3.08,3.08,0,0,1,16,9a5.52,5.52,0,0,1,.28,1.75A3.16,3.16,0,0,1,16,12.4c-.25.39-.29.91-.63,1.26A5.77,5.77,0,0,1,13.64,15a5.53,5.53,0,0,1-2,.51,4.32,4.32,0,0,1-1.78-.28,12.47,12.47,0,0,1-1.35-.73,4.41,4.41,0,0,1-1.3-1.42c0-.06,0-.2.06-.16l.2.16a5.28,5.28,0,0,1-.76-2,4.63,4.63,0,0,1,1-3.42M9.87,6.42a.67.67,0,0,0-.18.11,4.47,4.47,0,0,1,4.18.38c.32.29.74.48,1,.86a6.14,6.14,0,0,1,1,2A4.81,4.81,0,0,1,14,14.41a5.24,5.24,0,0,1-1.29.66c-.33.12-.7.11-1,.21a1.91,1.91,0,0,0,.67,0,5.34,5.34,0,0,0,1.17-.38,5.29,5.29,0,0,0,1.76-1.49,1.3,1.3,0,0,0,.19-.37l0-.05,0,0a3.56,3.56,0,0,0,.41-1.24A4.32,4.32,0,0,0,15.68,9a5,5,0,0,0-2.51-2.51,5.16,5.16,0,0,0-1.94-.38,4.33,4.33,0,0,0-1.36.35m3.34,1a7.19,7.19,0,0,1,1,1,3.53,3.53,0,0,1,.86,2.47,4.15,4.15,0,0,1-.79,1.81A5.73,5.73,0,0,1,13.12,14a4.12,4.12,0,0,1-.79.38,4,4,0,0,1-.73.34,2.18,2.18,0,0,0,1.12-.19,4.42,4.42,0,0,0,2.23-2,4.48,4.48,0,0,0,.34-2.5,5,5,0,0,0-1.1-2,1.27,1.27,0,0,0-.74-.46,1.79,1.79,0,0,1-.24-.12m-6,4.28A4.17,4.17,0,0,0,11,14.8a12.6,12.6,0,0,1-1.32-.54,7.85,7.85,0,0,1-1.27-.89,4.13,4.13,0,0,1-1.24-2A.63.63,0,0,0,7.24,11.69Z" fill="#d7df20" stroke="#d7df20" stroke-width="0.09"/><path d="M12.7,15.07a4.7,4.7,0,0,0,2.75-2,1.3,1.3,0,0,1-.19.37,5.29,5.29,0,0,1-1.76,1.49,5.34,5.34,0,0,1-1.17.38,1.91,1.91,0,0,1-.67,0C12,15.18,12.37,15.19,12.7,15.07Z" fill="#221e1f" stroke="#221e1f" stroke-width="0.09"/></svg>