<svg id="383fc53c-4bc0-4115-a124-dfb694934236" data-name="Layer 1" xmlns="http://www.w3.org/2000/svg" viewBox="0 0 60 60"><title>zomato</title><g id="9b1e20f1-1610-492d-9526-3da2eb71dd61" data-name="Page-1"><g id="38f64102-0efb-4c6e-8d76-e673aa28f912" data-name="zomato logo"><g id="6315a841-fab1-4e2f-9e9c-254c7ff54435" data-name="Logo"><rect id="e50cdc25-1c0b-4811-b199-f1e5d3c9c1a4" data-name="Rectangle" width="60" height="60" rx="2.4" ry="2.4" fill="#cb202d"/><path id="00a55bff-c40d-4b51-87d8-2123205e286d" data-name="Shape" d="M11.88,33.91V32.59H7.57l4.31-4.88v-1.1H5.65v1.32H9.81L5.5,32.8v1.11Zm4.74.16a3.82,3.82,0,0,0,3.93-3.8v0a3.79,3.79,0,0,0-3.9-3.79,3.83,3.83,0,0,0-3.93,3.81v0a3.78,3.78,0,0,0,3.9,3.77Zm0-1.4a2.32,2.32,0,0,1-2.31-2.4v0a2.27,2.27,0,0,1,2.28-2.39,2.33,2.33,0,0,1,2.31,2.41v0a2.26,2.26,0,0,1-2.28,2.37ZM22,33.91h1.61V29.79a1.66,1.66,0,0,1,1.64-1.86c1,0,1.53.64,1.53,1.8v4.18h1.63V29.78A1.62,1.62,0,0,1,30,27.93c1,0,1.54.64,1.54,1.82v4.16h1.61V29.27a2.48,2.48,0,0,0-2.59-2.81,3,3,0,0,0-2.5,1.29,2.35,2.35,0,0,0-2.22-1.29,2.65,2.65,0,0,0-2.27,1.28V26.61H22v7.3Zm15.53-1c-.82,0-1.48-.41-1.48-1.14v0c0-.77.66-1.25,1.77-1.25a5.21,5.21,0,0,1,1.74.29v.53c0,.95-.88,1.6-2,1.6Zm-.43,1.18A3,3,0,0,0,39.5,33v.93h1.57V29.57a3,3,0,0,0-.78-2.24,3.34,3.34,0,0,0-2.43-.81,6.42,6.42,0,0,0-2.77.59l.43,1.26a5.15,5.15,0,0,1,2.12-.46c1.21,0,1.87.58,1.87,1.64v.19a6.13,6.13,0,0,0-2-.31c-1.8,0-3.05.78-3.05,2.35v0a2.37,2.37,0,0,0,2.64,2.26Zm8.14,0a3,3,0,0,0,1.49-.36V32.35a2.39,2.39,0,0,1-1.05.25.83.83,0,0,1-.94-.94V28h2V26.61h-2v-2H43.11v2h-1V28h1v3.92A1.86,1.86,0,0,0,45.22,34Zm10-3.76v0a3.78,3.78,0,0,0-3.9-3.79,3.82,3.82,0,0,0-3.92,3.81v0a3.78,3.78,0,0,0,3.89,3.77A3.82,3.82,0,0,0,55.19,30.27Zm-3.9,2.4A2.33,2.33,0,0,1,49,30.27v0a2.27,2.27,0,0,1,2.28-2.39,2.34,2.34,0,0,1,2.32,2.41v0a2.26,2.26,0,0,1-2.29,2.37Z" fill="#fff"/></g></g></g></svg>