<svg id="Layer_1" data-name="Layer 1" xmlns="http://www.w3.org/2000/svg" viewBox="0 0 200 40"><defs><style>.cls-1{fill:#4d4d4d;}.cls-2{fill:#9b65c3;}.cls-3{fill:#be63c5;}.cls-4{fill:#bf63c6;}.cls-5{fill:#3278b1;}.cls-6{fill:#3278b2;}.cls-7{fill:#45a4ec;}.cls-8{fill:#19bb7d;}.cls-9{fill:#08c7fb;}.cls-10{fill:#59f2f6;}.cls-11{fill:#da3757;}.cls-12{fill:#d33c4e;}.cls-13{fill:#ee5a24;}.cls-14{fill:#8bdf55;}.cls-15{fill:#25c16f;}.cls-16{fill:#fb0;}.cls-17{fill:#ffa800;}</style></defs><title>Artboard 1</title><path class="cls-1" d="M48.6,1c-5,0-6.8,3.5-6.8,6.8v2h-1a1.4,1.4,0,1,0,0,2.8h1V26.4a1.5,1.5,0,0,0,1.5,1.5,1.4,1.4,0,0,0,1.5-1.5V12.5H48a1.4,1.4,0,1,0,0-2.8H44.8v-2c0-1.8.7-4,3.9-4a1.3,1.3,0,0,0,1.4-1.3A1.5,1.5,0,0,0,48.6,1Z"/><path class="cls-1" d="M60,9.3a5.8,5.8,0,0,0-5,2.4v-.8a1.5,1.5,0,0,0-3,0V26.3a1.5,1.5,0,0,0,1.5,1.5A1.4,1.4,0,0,0,55,26.3V17.8c0-3.6,1.9-5.7,5-5.7a1.4,1.4,0,0,0,1.4-1.4A1.4,1.4,0,0,0,60,9.3Z"/><path class="cls-1" d="M75.9,23.5a1.1,1.1,0,0,0-.8.3,7,7,0,0,1-4.4,1.6c-3.3,0-5.4-2.2-5.5-5.7H76c1.7-.2,1.7-1.8,1.7-2.8a9,9,0,0,0-1.4-4.8,6.9,6.9,0,0,0-6.1-2.8c-5.1,0-8,3.4-8,9.3S65.1,28,70.6,28a8.7,8.7,0,0,0,6.1-2.2,1.2,1.2,0,0,0,.5-1A1.3,1.3,0,0,0,75.9,23.5ZM70.3,11.9c3,0,4.5,1.7,4.6,5H65.2C65.5,13.7,67.3,11.9,70.3,11.9Z"/><path class="cls-1" d="M87.5,17.1c-2.2-.8-4-1.4-4-3s2-2,3.1-2a5.3,5.3,0,0,1,4,1.5,1.4,1.4,0,0,0,1.9,0,1.3,1.3,0,0,0,.4-1,1.6,1.6,0,0,0-.3-.9,7.1,7.1,0,0,0-5.9-2.5c-3.7,0-6,1.9-6,4.8s3.2,4.7,6,5.7,4,1.3,4,2.9-2.4,2.5-3.8,2.5a6.1,6.1,0,0,1-4.6-1.8,1.9,1.9,0,0,0-1-.5A1.3,1.3,0,0,0,80,24.1a1.6,1.6,0,0,0,.3.9,8.5,8.5,0,0,0,6.6,3c4.2,0,6.7-2,6.7-5.2S90.3,18.1,87.5,17.1Z"/><path class="cls-1" d="M104.8,9.2a6,6,0,0,0-4.8,2.1V1.5A1.5,1.5,0,0,0,98.5,0a1.4,1.4,0,0,0-1.4,1.5V26.3a1.5,1.5,0,0,0,1.4,1.5,1.5,1.5,0,0,0,1.5-1.5V17q0-5.1,4.8-5.1c3.2,0,4.3,1.4,4.3,4.8v9.6a1.5,1.5,0,0,0,1.5,1.5,1.4,1.4,0,0,0,1.4-1.5V16.2C112,11.6,109.6,9.2,104.8,9.2Z"/><path class="cls-1" d="M136.2,9.5a1.5,1.5,0,0,0-1.4,1l-4.2,11.8-3.4-11.8a1.5,1.5,0,0,0-1.9-.9,1.6,1.6,0,0,0-.9.9L121,22.3l-4-11.9a1.2,1.2,0,0,0-1.4-.9,1.4,1.4,0,0,0-1.4,1.4,1.3,1.3,0,0,0,.1.6l5.6,15.3a1.4,1.4,0,0,0,1.4,1,1.5,1.5,0,0,0,1.4-1L126,15.6l3.3,11.2a1.5,1.5,0,0,0,2.8,0l5.6-15.3a1.3,1.3,0,0,0,.1-.6A1.7,1.7,0,0,0,136.2,9.5Z"/><path class="cls-1" d="M146.8,9.2c-5.3,0-8.2,3.3-8.2,9.3s2.9,9.4,8.2,9.4,8.2-3.3,8.2-9.4S152.1,9.2,146.8,9.2Zm0,16c-3.5,0-5.3-2.2-5.3-6.7s1.8-6.7,5.3-6.7,5.2,2.3,5.2,6.7S150.3,25.3,146.8,25.2Z"/><path class="cls-1" d="M166.2,9.3a5.8,5.8,0,0,0-5,2.4v-.8a1.5,1.5,0,1,0-2.9-.1V26.2a1.5,1.5,0,1,0,2.9.1V17.8c0-3.6,1.9-5.7,5-5.7a1.4,1.4,0,0,0,0-2.8Z"/><path class="cls-1" d="M177.3,16.9l6-4.8a1.4,1.4,0,0,0,.6-1.2,1.4,1.4,0,0,0-1.4-1.4,1.3,1.3,0,0,0-1,.4l-8.6,7V1.5a1.5,1.5,0,1,0-2.9-.1V26.2a1.5,1.5,0,1,0,2.9.1v-6l2-1.6,6.6,8.4a1.7,1.7,0,0,0,1.2.7,1.4,1.4,0,0,0,1.4-1.4,1.4,1.4,0,0,0-.3-.9Z"/><path class="cls-1" d="M193.7,17.1c-2.2-.8-4-1.4-4-3s2-2,3.1-2a5.3,5.3,0,0,1,4,1.5,1.3,1.3,0,0,0,1,.4,1.4,1.4,0,0,0,1.2-1.4,1.6,1.6,0,0,0-.3-.9,7.1,7.1,0,0,0-5.9-2.5c-3.7,0-6,1.9-6,4.8s3.2,4.7,6,5.7,4,1.3,4,2.9-2.4,2.5-3.8,2.5a6.1,6.1,0,0,1-4.6-1.8,1.9,1.9,0,0,0-1-.5,1.3,1.3,0,0,0-1.3,1.3,1.6,1.6,0,0,0,.3.9,8.4,8.4,0,0,0,6.7,2.8c4.2,0,6.7-2,6.7-5.2s-3.3-4.5-6.1-5.5Z"/><path class="cls-2" d="M.2,25.5A16.7,16.7,0,0,0,5,35l5.8-5.8a17.1,17.1,0,0,1,8.5-14.8Z"/><path class="cls-2" d="M10.8,29.2a16.9,16.9,0,0,1-8.5-2.3L.2,25.5A16.7,16.7,0,0,0,5,35Z"/><path class="cls-3" d="M10.8,29.2,5,35a16.7,16.7,0,0,0,9.5,4.8l11-19.1A17,17,0,0,1,10.8,29.2Z"/><path class="cls-4" d="M13.1,37.7a16.9,16.9,0,0,1-2.3-8.5L5,35a16.7,16.7,0,0,0,9.5,4.8C14,39.1,13.5,38.4,13.1,37.7Z"/><path class="cls-5" d="M32.5,6.8,19.3,14.4a17.2,17.2,0,0,1-17,0A17.3,17.3,0,0,0,0,23a21.1,21.1,0,0,0,.2,2.5l2.1,1.4a16.9,16.9,0,0,0,8.5,2.3l22-22Z"/><path class="cls-6" d="M2.3,26.9a16.9,16.9,0,0,0,8.5,2.3,17.1,17.1,0,0,1,8.5-14.8L.2,25.4A13.7,13.7,0,0,0,2.3,26.9Z"/><path class="cls-7" d="M2.3,14.4A17.3,17.3,0,0,0,0,23a21.1,21.1,0,0,0,.2,2.5L19.3,14.4A16.7,16.7,0,0,1,2.3,14.4Z"/><path class="cls-8" d="M32.8,7.2,32,6.5a3.9,3.9,0,0,0-2.1-.6H17A17,17,0,0,0,2.3,14.4a17.2,17.2,0,0,0,17,0,17,17,0,0,0-8.5,14.8,17.1,17.1,0,0,0,14.8-8.5L33.2,7.5Z"/><path class="cls-9" d="M19.3,14.4,32.5,6.8,32,6.4l-29.7,8A16.7,16.7,0,0,0,19.3,14.4Z"/><path class="cls-10" d="M29.8,5.9H17A17,17,0,0,0,2.3,14.4L32,6.4A5.4,5.4,0,0,0,29.8,5.9Z"/><path class="cls-11" d="M25.6,20.7,33.2,7.5l-.3-.4-22,22a16.9,16.9,0,0,0,2.3,8.5c.4.7.9,1.4,1.4,2.1l2.4.2a16.9,16.9,0,0,0,8.5-2.3A16.8,16.8,0,0,1,25.6,20.7Z"/><path class="cls-12" d="M10.8,29.2a16.9,16.9,0,0,0,2.3,8.5c.4.7.9,1.4,1.4,2.1l11-19.1A17,17,0,0,1,10.8,29.2Z"/><path class="cls-13" d="M25.6,20.7l-11,19.1,2.5.2a16.9,16.9,0,0,0,8.5-2.3A16.7,16.7,0,0,1,25.6,20.7Z"/><path class="cls-14" d="M33.5,8a4,4,0,0,0-1-1.2L19.3,14.4a17,17,0,0,0-8.5,14.8,17.1,17.1,0,0,0,14.8-8.5,17.2,17.2,0,0,0,0,17,17,17,0,0,0,8.5-14.6V10.2A4.3,4.3,0,0,0,33.5,8Z"/><path class="cls-15" d="M32.5,6.8,19.3,14.4a17,17,0,0,0-8.5,14.8l22-22Z"/><path class="cls-14" d="M10.8,29.2a17.1,17.1,0,0,0,14.8-8.5L33.2,7.5l-.3-.4Z"/><path class="cls-16" d="M33.2,7.5,25.6,20.7a17.2,17.2,0,0,0,0,17L33.6,8Z"/><path class="cls-17" d="M25.6,37.7A16.8,16.8,0,0,0,34.1,23V10.2A4.3,4.3,0,0,0,33.5,8Z"/></svg>