<svg id="Layer_1" data-name="Layer 1" xmlns="http://www.w3.org/2000/svg" viewBox="0 0 60 19"><defs><style>.cls-1{fill:#1e398c;}.cls-2{fill:#00adee;}</style></defs><title>paytm</title><path class="cls-1" d="M8.8,3.7H3.1a.5.5,0,0,0-.5.6V17.5h0a.5.5,0,0,0,.5.4H5.6c.3,0,.5-.1.5-.4V13.8H8.5a3.1,3.1,0,0,0,3.1-2.4,4.4,4.4,0,0,0,.2-1.3V7C11.7,4.8,10.5,3.9,8.8,3.7ZM8.3,9.6a.6.6,0,0,1-.6.6H6.2v-3H7.7a.6.6,0,0,1,.6.6Z"/><path class="cls-1" d="M18.5,3.7H14.6c-.3,0-.6.1-.6.4V6.5h0a.5.5,0,0,0,.6.5h3.3c.6,0,.6,1.3,0,1.3H15.8a3.3,3.3,0,0,0-3.2,3.6,21.2,21.2,0,0,0,0,3.7A3,3,0,0,0,15.5,18h5.1A1.4,1.4,0,0,0,22,16.7V7.5C22,5,20.8,3.8,18.5,3.7Zm0,10.6a.5.5,0,0,1-.5.5H16.7a.5.5,0,0,1-.5-.5V12.2a.5.5,0,0,1,.5-.5h1.2a.5.5,0,0,1,.5.5v2.1Z"/><path class="cls-1" d="M23.2,4.3v5.8a3.6,3.6,0,0,0,3.6,3.2h1.6c.7,0,.6,1.2,0,1.2H24.8c-.4,0-.5.2-.5.6v2.6a.5.5,0,0,0,.5.5h3.4c2.8,0,4.3-1.3,4.3-4.3V4.1a.4.4,0,0,0-.3-.4H29.4c-.3,0-.4.3-.4.5V9.4a.3.3,0,0,1-.3.3H27.3c-.2,0-.4-.2-.5-.4h0V4.2c0-.3-.1-.6-.5-.6H23.7c-.4,0-.5.3-.5.7Z"/><path class="cls-2" d="M33.8,6.7V4.2a.5.5,0,0,1,.5-.5h.6c1.5-.3,1.9-1.2,2.9-2.3s1.1-.8,1.5-.1V3.7h1.5a.5.5,0,0,1,.5.5V6.8a.5.5,0,0,1-.5.5H39.3V17.6a.5.5,0,0,1-.5.5H36.3a.5.5,0,0,1-.5-.5V7.2H34.4A.5.5,0,0,1,33.8,6.7Z"/><path class="cls-2" d="M51.7,17.4a.6.6,0,0,1-.6.6H48.7a.6.6,0,0,1-.6-.6V7.9c0-1-2.1-1.2-2.1,0v9.5a.6.6,0,0,1-.6.6H43.1a.6.6,0,0,1-.6-.6h0V4.2a.6.6,0,0,1,.6-.6h2.4a.6.6,0,0,1,.6.6h0v.2a3.6,3.6,0,0,1,5,.3c2.4-2.8,6.5-.3,6.3,2.7s0,6.6,0,10a.6.6,0,0,1-.6.6H54.4a.6.6,0,0,1-.6-.6V8c-.1-1.3-2.1-1-2.1,0,0,3.1,0,6.3,0,9.4Z"/></svg>