<svg id="966931d8-d361-4202-b3a1-2baa1b880974" data-name="Layer 1" xmlns="http://www.w3.org/2000/svg" viewBox="0 0 60 20.78"><title>oyo</title><path d="M59.5,10.39A10.22,10.22,0,1,1,49.51.18,10.22,10.22,0,0,1,59.5,10.39Zm-6.57,0A3.64,3.64,0,1,0,49.36,14,3.65,3.65,0,0,0,52.93,10.38Z" fill="#ed2a24"/><path d="M20.93,10.4A10.22,10.22,0,1,1,11,.18,10.19,10.19,0,0,1,20.93,10.4Zm-6.58,0A3.63,3.63,0,1,0,10.72,14,3.64,3.64,0,0,0,14.35,10.39Z" fill="#ed2a24"/><path d="M30,6.58c.24-.49.47-.93.7-1.38.77-1.53,1.54-3.05,2.3-4.58A.35.35,0,0,1,33.37.4H40.2c.29,0,.29,0,.16.27Q37,7.23,33.72,13.79a1,1,0,0,0-.1.46c0,1.95,0,3.91,0,5.86,0,.23-.07.28-.29.28q-3.35,0-6.69,0c-.24,0-.28-.07-.27-.28V14.22a.79.79,0,0,0-.07-.37L23.17,7.64l-3.52-7C19.52.4,19.52.4,19.81.4h6.8a.39.39,0,0,1,.4.25q1.44,2.88,2.91,5.76A1,1,0,0,0,30,6.58Z" fill="#ed2a24"/></svg>