<svg id="Layer_1" data-name="Layer 1" xmlns="http://www.w3.org/2000/svg" viewBox="0 0 1440 280"><defs><style>.cls-1{opacity:0.03;}.cls-2{opacity:0.7;}</style></defs><title>dashboard-bg</title><g class="cls-1"><g id="Layer_1-2" data-name="Layer 1"><g class="cls-2"><path d="M1246.21,370.64a7.85,7.85,0,0,1-7.85-7.85V176.85a60.16,60.16,0,0,1,6.75-20.85c7.88-14.36,20.63-22,36.86-22h48a7.85,7.85,0,0,1,0,15.7h-48c-10.3,0-17.79,4.39-22.89,13.43a44.87,44.87,0,0,0-5,15V362.79a7.85,7.85,0,0,1-7.85,7.85Z"/><path d="M1147,369.94s-.07-54.37-.07-56.28c0-15.72,8.56-27.82,24.11-34.07a66.53,66.53,0,0,1,22.08-4.46H1354.5c10.3,0,17.79-4.39,22.89-13.43a44.87,44.87,0,0,0,5-15v-107a7.85,7.85,0,1,1,15.7,0V248a60.16,60.16,0,0,1-6.71,20.89c-7.88,14.36-20.63,22-36.86,22H1193.17a50.91,50.91,0,0,0-16.6,3.46c-12.48,5.16-13.93,13.52-13.93,19.37,0,1.8.11,56.49.11,56.49Z"/><path d="M1184.4,1.37a7.85,7.85,0,0,0-7.85,7.85v107.1a44.86,44.86,0,0,1-4.81,14.57c-4.45,8.11-10.78,12.58-19.27,13.59h-89.26c-1.52,0-3,.09-4.44.22h-1.71a7.81,7.81,0,0,0-3.29.73c-11.77,2.43-21.15,9.56-27.43,21a60.16,60.16,0,0,0-6.71,20.89V365.41a7.85,7.85,0,0,0,15.7,0V188.54a44.86,44.86,0,0,1,4.81-14.57c4.45-8.11,10.78-12.58,19.27-13.59h89.26c1.52,0,3-.09,4.44-.22h1.71a7.81,7.81,0,0,0,3.29-.73c11.77-2.43,21.15-9.56,27.43-21a60.16,60.16,0,0,0,6.71-20.89V9.22A7.85,7.85,0,0,0,1184.4,1.37Z"/><path d="M1304.72,199.25c-12.68-12.2-33.46-12-35.79-11.93H824.54c-16.23,0-29,7.59-36.86,22A60.16,60.16,0,0,0,781,230.16V416.1a7.85,7.85,0,1,0,15.7,0V231.4a44.87,44.87,0,0,1,5-15c5.1-9,12.59-13.43,22.89-13.43H1269.4c.16,0,16.22-.4,24.48,7.55,3.27,3.15,4.87,7.29,4.87,12.66V361.61a7.85,7.85,0,0,0,15.7,0V223.23C1314.4,213.5,1311.14,205.43,1304.72,199.25Z"/><path d="M1101.59,372.39a7.85,7.85,0,0,1-7.85-7.79L1092,57.45a7.85,7.85,0,0,1,7.79-7.91h.06a7.85,7.85,0,0,1,7.85,7.79l1.74,307.14a7.85,7.85,0,0,1-7.79,7.91h-.06Z"/><path d="M1233.52,176.07c3.42-31.27-26.37-26.37-26.37-26.37S1202.26,179.49,1233.52,176.07Z"/><path d="M1196.68,120.23c-3.42-31.27,26.37-26.37,26.37-26.37S1227.95,123.65,1196.68,120.23Z"/><path d="M1402.8,162.61c-3.42-31.27,26.37-26.37,26.37-26.37S1434.07,166,1402.8,162.61Z"/><path d="M1087,92.34c3.42-31.27-26.37-26.34-26.37-26.34S1055.73,95.76,1087,92.34Z"/><path d="M1015.19,259.62c3.42-31.27-26.37-26.37-26.37-26.37S983.93,263,1015.19,259.62Z"/><path d="M676,350.94s-.07-54.37-.07-56.28c0-15.72,8.56-27.82,24.11-34.07a66.53,66.53,0,0,1,22.08-4.46H883.55c10.3,0,17.79-4.39,22.89-13.43a44.87,44.87,0,0,0,5-15v-107a7.85,7.85,0,1,1,15.7,0V228.23q0,.38,0,.76a60.16,60.16,0,0,1-6.71,20.89c-7.88,14.36-20.63,22-36.86,22H722.2a50.91,50.91,0,0,0-16.6,3.46c-12.48,5.16-13.93,13.52-13.93,19.37,0,1.8.11,56.49.11,56.49Z"/><path d="M931.83,143.61c-3.42-31.27,26.37-26.37,26.37-26.37S963.1,147,931.83,143.61Z"/><path d="M776.13,240.89c3.42-31.27-26.37-26.37-26.37-26.37S744.86,244.31,776.13,240.89Z"/><path d="M391.49,370.64a7.85,7.85,0,0,1-7.85-7.85h0V176.85A60.16,60.16,0,0,1,390.39,156c7.88-14.36,20.63-22,36.86-22h48a7.85,7.85,0,0,1,0,15.7h-48c-10.3,0-17.79,4.39-22.89,13.43a44.87,44.87,0,0,0-5,15V362.79a7.85,7.85,0,0,1-7.85,7.85Z"/><path d="M292.3,339.94s-.07-54.37-.07-56.28c0-15.72,8.56-27.82,24.11-34.07a66.53,66.53,0,0,1,22.08-4.46H499.8c10.3,0,17.79-4.39,22.89-13.43a44.87,44.87,0,0,0,5-15v-107a7.85,7.85,0,1,1,15.7,0V218a60.16,60.16,0,0,1-6.71,20.89c-7.88,14.36-20.63,22-36.86,22H338.45a50.91,50.91,0,0,0-16.6,3.46c-12.48,5.16-13.93,13.52-13.93,19.37,0,1.8.11,56.49.11,56.49Z"/><path d="M450,199.25c-12.68-12.2-33.46-12-35.79-11.93H-30.17c-16.23,0-29,7.59-36.86,22a60.16,60.16,0,0,0-6.71,20.89q0,.38,0,.76V416.1a7.85,7.85,0,0,0,7.8,7.9h0a7.85,7.85,0,0,0,7.85-7.85h0V231.4a44.87,44.87,0,0,1,5-15C-48,207.4-40.49,203-30.19,203H414.64c.16,0,16.22-.4,24.48,7.55,3.27,3.15,4.87,7.29,4.87,12.66V361.61a7.85,7.85,0,1,0,15.7,0V223.23C459.68,213.5,456.42,205.43,450,199.25Z"/><path d="M206.87,372.39A7.85,7.85,0,0,1,199,364.6L197.28,57.45a7.85,7.85,0,0,1,7.79-7.91h.06a7.85,7.85,0,0,1,7.87,7.8l1.74,307.14a7.85,7.85,0,0,1-7.79,7.91h-.08Z"/><path d="M588.76,340.36a7.85,7.85,0,0,1-7.85-7.85V255.76a7.85,7.85,0,1,1,15.7,0v76.75a7.85,7.85,0,0,1-7.85,7.85Z"/><path d="M634.11,340.36a7.85,7.85,0,0,1-7.85-7.85V225.23a7.85,7.85,0,1,1,15.7,0V332.51a7.85,7.85,0,0,1-7.85,7.85Z"/><path d="M378.81,176.07c3.42-31.27-26.37-26.37-26.37-26.37S347.54,179.49,378.81,176.07Z"/><path d="M621.76,244c3.42-31.27-26.37-26.37-26.37-26.37S590.49,247.45,621.76,244Z"/><path d="M548.08,132.61c-3.42-31.27,26.37-26.37,26.37-26.37S579.35,136,548.08,132.61Z"/><path d="M192.28,92.34C195.7,61.07,165.91,66,165.91,66S161,95.76,192.28,92.34Z"/><path d="M289.69,21.37a7.85,7.85,0,0,0-7.85,7.85h0v87.1A44.86,44.86,0,0,1,277,130.88c-4.45,8.11-10.78,12.58-19.27,13.59H168.5c-1.52,0-3,.09-4.44.22h-1.71a7.81,7.81,0,0,0-3.29.73c-11.77,2.43-21.15,9.56-27.43,21a60.16,60.16,0,0,0-6.71,20.89v178.1a7.85,7.85,0,1,0,15.7,0h0V188.54A44.86,44.86,0,0,1,145.4,174c4.45-8.11,10.78-12.58,19.27-13.59h89.26c1.52,0,3-.09,4.44-.22h1.71a7.81,7.81,0,0,0,3.29-.73c11.77-2.43,21.15-9.56,27.43-21a60.16,60.16,0,0,0,6.71-20.89V29.22A7.85,7.85,0,0,0,289.69,21.37Z"/><path d="M302,120.23C298.54,89,328.33,93.86,328.33,93.86S333.23,123.65,302,120.23Z"/><path d="M120.47,259.62c3.42-31.27-26.37-26.37-26.37-26.37S89.21,263,120.47,259.62Z"/><path d="M-178.67,369.94s-.07-54.37-.07-56.28c0-15.72,8.56-27.82,24.11-34.07a66.53,66.53,0,0,1,22.08-4.46H28.84c10.3,0,17.79-4.39,22.89-13.43a44.87,44.87,0,0,0,5-15v-107a7.85,7.85,0,0,1,15.7,0V248a60.16,60.16,0,0,1-6.71,20.89c-7.88,14.36-20.63,22-36.86,22H-132.51a50.91,50.91,0,0,0-16.6,3.46C-161.6,299.46-163,307.82-163,313.67c0,1.8.11,56.49.11,56.49Z"/><path d="M77.12,162.61c-3.42-31.27,26.37-26.37,26.37-26.37S108.38,166,77.12,162.61Z"/></g></g></g></svg>