<svg id="Layer_1" data-name="Layer 1" xmlns="http://www.w3.org/2000/svg" xmlns:xlink="http://www.w3.org/1999/xlink" viewBox="0 0 188.56 73.73"><defs><style>.cls-1{fill:url(#radial-gradient);}.cls-2{fill:url(#radial-gradient-2);}.cls-3{fill:#f1bf68;}.cls-4{fill:#231f20;}.cls-5{fill:#010101;}</style><radialGradient id="radial-gradient" cx="-42.9" cy="-58.44" r="7.43" gradientTransform="translate(194.74 265.62) scale(3.8)" gradientUnits="userSpaceOnUse"><stop offset="0" stop-color="#74be45"/><stop offset="1" stop-color="#138140"/></radialGradient><radialGradient id="radial-gradient-2" cx="75.32" cy="23.23" r="21.12" gradientTransform="translate(-153.6 -49.44) scale(2.63)" gradientUnits="userSpaceOnUse"><stop offset="0" stop-color="#18abe3"/><stop offset="1" stop-color="#26225b"/></radialGradient></defs><title>SV.CO-Logo</title><path class="cls-1" d="M51.42,41.06h0a13.72,13.72,0,0,1,2-5,2.42,2.42,0,0,0,.31-0.58c0-.09,0-0.17.06-0.25,0.26-1.59-2.87-2-3.46-1.93H50.18a4.51,4.51,0,0,0-3.75,1.93c-1.12,1.87-.78,3.18-3.52,4-1.86.56-3.73-.11-5.57,0.31-2.27.48-1.76,2.79-1.87,4.35-0.11,1.72-.31,3.91-2.33,4.32-2.51.57-4.36,0.19-5.06,3.18-0.34,1.46,0,3.58-.86,5s-3.3,1.86-4.83,2.06c-2.28.3-3.4,1.26-3.13,4,0,0.48.11,1,.19,1.45h0a4.33,4.33,0,0,0,3.37,3.5A16.44,16.44,0,0,0,28.29,67a52,52,0,0,1,9.14-.63c9,0,11.7-6.94,12.92-14.79C50.79,48.76,50.64,44.72,51.42,41.06Z"/><path class="cls-2" d="M32.66,42a1.47,1.47,0,0,1-.58-0.14l-4.3-2a2,2,0,0,0-2.5.36S18.82,47.42,18,48.54a1.08,1.08,0,0,1-1.67.38s-3.32-2.06-4.1-2.45-1,.3-1,0.3l-0.58,2.32c-0.24.6-.6-1-0.6-1l-0.87-4C9,42.83,9.9,43.34,9.9,43.34s5.28,1.37,5.87,1.41a1,1,0,0,0,.79-0.24l0,0s1.69-2.71,2.15-3.5A1.65,1.65,0,0,0,19,39.66l-2.1-5.88a1.33,1.33,0,0,0-1.06-1s-2.59-.33-3.29-0.46a2.07,2.07,0,0,0-1.4.38L8.93,34.92a7.91,7.91,0,0,0-1.46,5.21q0.15,1.72.32,3.44c3.14,18.2,4.71,20.88,10.14,22.11C18.85,65.9,19,65,18.93,64c-0.22-1.48-.73-3-0.25-4.39,0.8-2.69,3.69-1.8,5.68-2.39,2.89-.93,1.76-3.68,2-6.1,0.21-3.49,2.23-3,4.8-3.71,3.41-.84,2.22-3.77,2.57-6.22,0-.1,0-0.19,0-0.27l-0.35.52A1.11,1.11,0,0,1,32.66,42Zm19-29.61h0c0-.43-0.43-0.34-0.6-0.27-0.37.16-.74,0.31-1,0.43a1.5,1.5,0,0,0-.92,1.67A5.07,5.07,0,0,1,49.54,16c-0.13.8-.94,0.07-1.2-0.11a2.16,2.16,0,0,0-1.57-.42,3.6,3.6,0,0,0-1.55,1.17c-0.27.36-.77,1.3-1,0.26a16.6,16.6,0,0,1-.07-2.42c0-1.1-1-1.33-2-1.84-0.39-.2-1.92-0.79-2-1.31,0-.28.27-0.31,0.64-0.26a6.82,6.82,0,0,0,2,0h0l0.31-.07A1.64,1.64,0,0,0,44.61,9.7c0.27-.62.28-1.56,0.82-2,0.71-.58,1.1.76,1.26,1.14a3.65,3.65,0,0,0,1.15,1.61,4.92,4.92,0,0,0,2.56.49h0.53a0.28,0.28,0,0,0,.24-0.42v0c-0.92-2.44-3-4.28-7.29-4.7a27,27,0,0,0-4.3-.07,20.58,20.58,0,0,1-4.34-.37C14.94,0.23,8.63,5.57,7.31,7.09,4.22,10,4,15.48,4.07,17.53A53.9,53.9,0,0,0,6.86,31.92C7,32.53,7.32,33.34,8,32.56l0.2-.21,1.16-1.27A3.08,3.08,0,0,1,11,30.17l6.1-.93h0.08l5.67-1.83h0c0.4-.19,3.29-1.51,4.68-2.21l0.29-.11h0l0.12,0a4.63,4.63,0,0,1,1-.23,0.69,0.69,0,0,1,.66.27c0.27,0.45-.72,1.2-0.72,1.2h0c-1.24,1-3.17,2.55-3.5,2.81a4.39,4.39,0,0,1-1,.58h0l-3,1.58a0.89,0.89,0,0,0-.25,1.17l0.09,0.16h0l1.13,2.17A1.68,1.68,0,0,0,24,35.7l2.67-.33a2.94,2.94,0,0,1,2.08.69l2.9,2.75a1.27,1.27,0,0,0,1.54.31c0.57-.47,3.12-2.54,2.44-0.66,1.28-.57,3-0.53,4.64-0.85,4-.71,1.9-4.34,4.16-6.5a5,5,0,0,1,3.37-1,2.07,2.07,0,0,0,2.06-1.92,2.12,2.12,0,0,1,0-.23,27.92,27.92,0,0,1,.34-4.11C50.78,20.81,52.15,16.24,51.64,12.44ZM17.21,28.19c-1.45.54-3.65-.65-5-2.74s-1.36-4.24.28-4.66,4.11,0.95,5.36,2.95S18.69,27.67,17.21,28.19Z"/><path class="cls-3" d="M84.72,49.44l-0.14-.09Zm13.09,0.81,0.1,0.09A0.17,0.17,0,0,0,97.81,50.25Zm-22.27.17,0.28-1-0.55-.33C75.44,49.86,74.91,50.15,75.54,50.42ZM83.3,49c0,0.53.89,0.25,1.28,0.4C84.25,49.12,83.49,48.64,83.3,49Zm-11.38,1.4a1.6,1.6,0,0,0,.71-0.78c-0.5.1-.15-1.29-0.46-0.77l0.21,0.63C72,49.39,71.94,50,71.92,50.35Zm25.88-.1a3.34,3.34,0,0,0-1.06-.67,0.57,0.57,0,0,0,.73.47C97.51,50.52,97.66,50.22,97.81,50.25Zm-26.66-.36c0.29-.06.59,0.36,0.66-0.31C71.65,49.14,71.4,49.73,71.15,49.89ZM60.26,47.66l0.37,0.22-0.49-.68Zm1.77,0A0.82,0.82,0,0,0,61.82,47l-0.3,0C61.65,47.33,61.72,47.75,62,47.71Zm83.5,1a1.21,1.21,0,0,0-.07.83c0.06-.17.16-0.1,0.22-0.05Zm-45.46.44c0,0.38.18,0.24,0.35,0.48C100.51,49.37,100.15,49,100.08,49.16Zm45.6-.66c0.49,0.16.54,0.84,1.12,0.75l-0.45-.9,0.1,0.3C146.17,48.87,145.91,48.23,145.68,48.5Zm-86.51-.87-0.2.14A0.16,0.16,0,0,0,59.17,47.62ZM144.7,49l-0.24-.51c-0.31.53-.52-0.5-0.42,0.45A0.86,0.86,0,0,0,144.7,49Zm-47.07-.33,0.1-.27a0.9,0.9,0,0,0-.29.22Zm54.44,0.86-0.14.12A0.26,0.26,0,0,0,152.07,49.5Zm-45.93.07a0.76,0.76,0,0,0-.34-0.08A0.31,0.31,0,0,0,106.14,49.57ZM58.7,47.94L59,47.76C58.74,47.7,58.42,47.26,58.7,47.94Zm1.57,0.26-1.52.19,5.39,0c0.29,0.49.82,0.45,1,1.4-0.14,0-.26-0.06-0.24.16,0-.31.48,0,0.7-0.09l-0.3-.57c0.55-1.07.6,0.45,1.25-.07a10.21,10.21,0,0,0-.78-0.85h0.5a0.21,0.21,0,0,1,.21.2l0.07-.21h1.35l0.17,0.15L68,48.33h1.2a1,1,0,0,1-.37.59c0.22-.06.61-0.63,0.68,0,0.17-.5.46-0.23,0.59,0.15,0.3-.33.16-0.42,0.09-0.76h0.94a1,1,0,0,1,.07.42c-0.11.23-.6-0.06-0.32,0.61,0-.88.27,0.36,0.53,0.11-0.48-.6.13-0.8,0.18-1.14h0.73a0.67,0.67,0,0,0,.19.11V48.3h1.18c0,0.17.09,0.44-.19,0.4,0.1,0.16.26,0.06,0.36-.08,0.16,0.2-.21.67,0.17,0.5l-0.14-.82H74.3l0.09,0v0h0.56a1.31,1.31,0,0,1-.41.73L74.6,49c0.41,0.34-.46,1.23.26,1.06a2,2,0,0,1,.49-1.73h0.48l0,0.1a4.06,4.06,0,0,0,.94,1.07l-0.85-1.17H77v0a1.8,1.8,0,0,0-.1,1.14c0.77-1.11,1.41.59,2.1-.66a0.17,0.17,0,0,1,.18-0.26l0.05-.26h0.19a0.24,0.24,0,0,0,.2,0h0.91l0,0.08,0,0,0,0c0.11,0.17.21,0.3,0.26,0.2,0.12,0.46.26,0.08,0.42-.29l2.51,0a1.27,1.27,0,0,0,1.22,0h0.22c0.46,0.71.48,1.15,1.14,1.3l-0.16-.8,0.71-.33a0.41,0.41,0,0,1,0-.18l2.62,0c0.13,0,.28,0,0.42.07v0.06a0.43,0.43,0,0,1,.15-0.07c0,0.06,0,.14,0,0.22,0.27-.42.51,0.66,0.84-0.08A0.47,0.47,0,0,0,91,48.18h0.22l-0.1.08c0.69,0.17.84,1,1.41,1,0.06,0.2-.07.18-0.14,0.35,0.31,0.07.53-.45,0.36-0.78,0.26-.13.41,0.67,0.79,0.67L93.7,50.7c0.54,0.44,1.05-.31,1.43-0.62-0.46.08-.92-0.69-1.24-0.69,0-2.13-1.37-.52-1.66-1.16l0-.05h2.22c0.06,0.41.7,0.52,0.18,1.12,0.61,0.44.76,0,1.36,0.71-0.16-.62.42-0.78,0.45-1.35,0.25,0.06.53,0.71,0.75,0.18l-0.42-.39a0.49,0.49,0,0,0,.3-0.3h0.65a1.09,1.09,0,0,1,0,.23c0.55-.26,1.14.29,1.71-0.15a0.32,0.32,0,0,1-.33-0.09h1.15a4.58,4.58,0,0,1,1.33,2.11c1,0.56.62-1.69,1.91-.18a5.65,5.65,0,0,1,0-1.18,0.7,0.7,0,0,1,.76,0l-0.43.67c0.6,0.56,1.37-.06,2-0.05a1.42,1.42,0,0,0-.35-0.88,0.54,0.54,0,0,1,.61-0.52c0.48,0.42.22,1.32,0.76,1.66,5.57-.6,11.07,0,16.68-0.74v-0.4c3.5,0.86,7.44-.07,11.19-0.36l0,0.28c1.18-1.78.65,2,1.95,0,0.88,1.73,2,0,3,1.27l0.11-.57c0.69,1.48,1.64-1.1,2.47,0,0.31-.53.46-1.18,1-0.68,0.08,0.17-.12,1,0.24.51l-0.29-1a0.94,0.94,0,0,1,1.38.38l0.59-.1L144.88,48a2.72,2.72,0,0,0,.45-0.18h0.55a0.88,0.88,0,0,1,.25.36c0-.1-0.06-0.23-0.1-0.36h1.26a2.32,2.32,0,0,0-.2.78c0.62-.4.37,1.51,0.94,1.07l0-.69a1,1,0,0,1,1,.67l0-.35c0.82-.36,1.29.45,1.92-0.72l0.4,0.43a0.52,0.52,0,0,1,.17-0.65c0.34-.11.79,0.79,0.59,1.14,1.15-1,1.37.49,2.61,0.21,0-.78.52-0.26,0.36-0.95l0.34,0.39a0.43,0.43,0,0,1,0-.31c0.15-.21.19,0,0.23,0.31l0-.13,0.54-.13,0,0.65,0.42-.56c-0.18-.82-0.8-0.31-0.84-1.13l0.11-.09h0.54a0.82,0.82,0,0,1,.09.7c0.52-.25.26,0.78,0.76,0.4l-0.06-.39,0.62,0.4c0.21,0.17-.17-0.48,0-0.82-0.26-.06-0.5-0.09-0.73-0.13l0.48-.17h1c0,0.23.07-.09-0.24,0.19a1.79,1.79,0,0,1,.78.18c0.13,0.56-.3.77-0.1,1.16,3.54,1,5.84-2.51,9,.28,0.44-.61,1.51-1.23,1.84-0.82l-0.15.2c0.46,0.48.77-.82,1.07,0l0.29,1c0.24-.2.77-0.2,0.71-0.61,0.28,0.48,1-.2,1,1a6.47,6.47,0,0,1,1.94-.19,0.45,0.45,0,0,1,0-.2c0.21-.41.26,0.75,0.52,0.14-0.07-.27-0.65-0.34-0.13-0.68,0.26,0.88,1.12,0,1.47-.38a1.19,1.19,0,0,1,.44.63c0.29-.13.77-0.85,0.38-1.08,0.74,0.37.92-.61,0.87,0.65,0.81,0.88,1.63-.56,2.34.64,1.23-.37,2.46-0.45,3.52-1.41C172,47,116.85,41,69.49,46a3.19,3.19,0,0,0,.33,1l-0.47.06a1.22,1.22,0,0,0-.53-0.94l-1.38.15a0.16,0.16,0,0,1-.06.07l-0.07-.06-0.36,0a0.41,0.41,0,0,1,0,.07c-0.13.12-.21,0.07-0.28,0l-1.54.18a0.44,0.44,0,0,1-.06.36c0.47,0.95,1.32-1,1.54.5l-1.13.14a2.52,2.52,0,0,0-.88-0.72l-0.05.27c-0.24,0-.33-0.17-0.38-0.43l-0.52.06a0.25,0.25,0,0,1-.14.06l0,0-1,.13L62.46,47c0.34-.13.5,0.47,0.69,0.88l-2.69.34-0.39-.23,0,0.18Zm98.35-.46h0.83a1.25,1.25,0,0,0,.19.4,0.85,0.85,0,0,1-.57-0.35,1.49,1.49,0,0,0,0,.3Zm-2.11,0H157a1.32,1.32,0,0,1,.08.17A1.75,1.75,0,0,1,156.51,47.75Zm-61.34.49-0.36-.09h0.48a1.3,1.3,0,0,1,.21,1.13C95.49,48.32,94.25,48.7,95.17,48.24Zm-16,0h0v0Zm-6.23-1.62A0.75,0.75,0,0,1,73.15,46a3.09,3.09,0,0,1,.28.59ZM68,47.23c0.16-.3.3-0.53,0.57-0.07Zm-4.77.6A0.79,0.79,0,0,1,63,47c0.31-.52.76,0.35,1.27,0.54l-0.3.13v0.08ZM95.4,49.94a0.54,0.54,0,0,0-.26.14A0.43,0.43,0,0,0,95.4,49.94ZM62.65,48.46A2.35,2.35,0,0,0,63.58,50l0.29-.43-0.19-.11,0.48-.71C63.5,48.66,63.23,49,62.65,48.46ZM79,48.72l0,0.06C79,48.84,79.06,48.86,79,48.72Zm-11,.39,0.33,0.4c0.28,0,0-.52.33-0.31C68.55,48.74,68.2,48.74,68,49.11ZM90,48.47L90,48.56C90,48.65,90,48.57,90,48.47Zm-0.11-.15c-0.19.14,0,.25,0,0h0Z"/><path class="cls-4" d="M69.3,59.64A3.5,3.5,0,0,1,68.54,62a2.61,2.61,0,0,1-2.07.87,1.86,1.86,0,0,1-1.28-.47,2,2,0,0,1-.07.59,0.42,0.42,0,0,1-.43.31,0.47,0.47,0,0,1-.46-0.58l0-.52q0-.62,0-1.3,0-1,0-2.12a22.22,22.22,0,0,0-.1-2.5q0-.3-0.12-0.69A3,3,0,0,1,64,55.2a0.36,0.36,0,0,1,.14-0.27,0.48,0.48,0,0,1,.32-0.12,0.61,0.61,0,0,1,.54.61,14.24,14.24,0,0,1,.18,1.93,2.73,2.73,0,0,1,1.65-.58,2.21,2.21,0,0,1,1.77.76A3.14,3.14,0,0,1,69.3,59.64Zm-1,0a2.37,2.37,0,0,0-.43-1.5,1.38,1.38,0,0,0-1.15-.55,1.64,1.64,0,0,0-1.51.8v0.76q0,0.54,0,1.16t0,0.69h0a1.35,1.35,0,0,0,1.3.93,1.58,1.58,0,0,0,1.29-.63A2.61,2.61,0,0,0,68.33,59.67Z"/><path class="cls-4" d="M75.43,62.31a0.59,0.59,0,0,1-.14.4,0.44,0.44,0,0,1-.34.16q-0.38,0-.65-1.2a2.4,2.4,0,0,1-2,1.14q-1.94,0-1.94-3.14a16.46,16.46,0,0,1,.21-2.81,0.7,0.7,0,0,1,.62-0.74,0.41,0.41,0,0,1,.31.13,0.43,0.43,0,0,1,.13.31q0,0.16-.14,1.22a15.2,15.2,0,0,0-.14,2q0,2.11,1.15,2.11a1.39,1.39,0,0,0,1.18-.58,2.72,2.72,0,0,0,.43-1.65V59.36a16.16,16.16,0,0,1,.08-2.12,0.63,0.63,0,0,1,.54-0.67q0.41,0,.41.58,0,0.1,0,.75t0,1.18a13.59,13.59,0,0,0,.18,2.32A4.24,4.24,0,0,0,75.43,62.31Z"/><path class="cls-4" d="M77.89,57.19a33.26,33.26,0,0,1-.21,4.4,2.82,2.82,0,0,1-.18.77,0.44,0.44,0,0,1-.42.26,0.46,0.46,0,0,1-.33-0.13,0.42,0.42,0,0,1-.14-0.31s0-.1.08-0.34a8.84,8.84,0,0,0,.15-0.94,16.53,16.53,0,0,0,.08-1.68q0-.4,0-0.85c0-.3,0-0.46,0-0.49A2.64,2.64,0,0,1,77,56.94a0.43,0.43,0,0,1,.44-0.29A0.44,0.44,0,0,1,77.89,57.19Zm0.21-1.88a0.61,0.61,0,0,1-.67.7A0.62,0.62,0,0,1,77,55.82a0.64,0.64,0,0,1-.19-0.46,0.69,0.69,0,0,1,.2-0.5,0.68,0.68,0,0,1,.5-0.21,0.58,0.58,0,0,1,.45.18A0.68,0.68,0,0,1,78.1,55.31Z"/><path class="cls-4" d="M80.72,62.73a1.62,1.62,0,0,1,0,.46,0.35,0.35,0,0,1-.36.22q-0.46,0-.54-0.76a34.17,34.17,0,0,1-.14-3.51q0-2.49.07-3.06a0.56,0.56,0,0,1,.49-0.63,0.48,0.48,0,0,1,.48.6q0,0.15-.05,1.18t-0.05,1.9q0,0.76.08,2T80.72,62.73Z"/><path class="cls-4" d="M87.23,55.33s0,0.23-.06.74-0.08,1.23-.11,1.9Q87,59.42,87,61.05c0,0.22,0,.45,0,0.69s0,0.36,0,.37q0,0.74-.46.74T86.06,62q0-.19,0-0.3a2.92,2.92,0,0,1-2.13.92,2,2,0,0,1-1.6-.66,2.65,2.65,0,0,1-.59-1.82,3.72,3.72,0,0,1,.86-2.55,2.85,2.85,0,0,1,2.24-1,3.33,3.33,0,0,1,1.34.3,13.7,13.7,0,0,1,.09-1.64,0.53,0.53,0,0,1,.54-0.5Q87.23,54.79,87.23,55.33Zm-1.09,2.57a2.36,2.36,0,0,0-1.28-.4,1.92,1.92,0,0,0-1.56.69,2.87,2.87,0,0,0-.57,1.88,1.89,1.89,0,0,0,.39,1.27,1.33,1.33,0,0,0,1.07.45,1.54,1.54,0,0,0,1.3-.58l0.25-.39a0.54,0.54,0,0,1,.35-0.25Q86.08,59.18,86.14,57.89Z"/><path class="cls-4" d="M90.11,61.52a0.81,0.81,0,0,1-.22.59,0.76,0.76,0,0,1-.57.22,0.67,0.67,0,0,1-.51-0.21,0.76,0.76,0,0,1-.2-0.54A0.71,0.71,0,0,1,88.83,61a0.74,0.74,0,0,1,.54-0.22A0.63,0.63,0,0,1,90.11,61.52Z"/><path class="cls-4" d="M99.59,59.64A3.5,3.5,0,0,1,98.84,62a2.61,2.61,0,0,1-2.07.87,1.86,1.86,0,0,1-1.28-.47,2,2,0,0,1-.07.59,0.42,0.42,0,0,1-.43.31,0.47,0.47,0,0,1-.46-0.58s0-.17,0-0.52,0-.85,0-1.3q0-1,0-2.12a22.24,22.24,0,0,0-.1-2.5c0-.2-0.06-0.43-0.12-0.69a3,3,0,0,1-.06-0.4,0.35,0.35,0,0,1,.14-0.27,0.48,0.48,0,0,1,.32-0.12,0.62,0.62,0,0,1,.54.61,14.27,14.27,0,0,1,.18,1.93,2.72,2.72,0,0,1,1.65-.58,2.21,2.21,0,0,1,1.77.76A3.14,3.14,0,0,1,99.59,59.64Zm-1,0a2.37,2.37,0,0,0-.43-1.5,1.38,1.38,0,0,0-1.15-.55,1.64,1.64,0,0,0-1.51.8v0.76q0,0.54,0,1.16t0,0.69h0a1.35,1.35,0,0,0,1.3.93,1.58,1.58,0,0,0,1.29-.63A2.61,2.61,0,0,0,98.63,59.67Z"/><path class="cls-4" d="M104.2,57.87a0.46,0.46,0,0,1-.11.32,0.34,0.34,0,0,1-.27.13,0.69,0.69,0,0,1-.34-0.17,0.71,0.71,0,0,0-.41-0.17,0.88,0.88,0,0,0-.75.41A1.91,1.91,0,0,0,102,59.5v0.65a5.35,5.35,0,0,1-.22,1.72,0.7,0.7,0,0,1-.54.6,0.39,0.39,0,0,1-.44-0.44,5.32,5.32,0,0,1,.14-0.65,4.57,4.57,0,0,0,.14-1.06,5.25,5.25,0,0,0-.39-2.21l-0.27-.5a0.87,0.87,0,0,1-.13-0.38,0.4,0.4,0,0,1,.15-0.3,0.48,0.48,0,0,1,.33-0.14q0.51,0,.85,1.28a1.59,1.59,0,0,1,1.47-1,1.27,1.27,0,0,1,.79.23A0.7,0.7,0,0,1,104.2,57.87Z"/><path class="cls-4" d="M109.7,58.58a0.87,0.87,0,0,1-.35.76,3.8,3.8,0,0,1-1,.28,9.39,9.39,0,0,1-1.88.23c-0.24,0-.52,0-0.86,0q0,1.86,1.4,1.86a1.17,1.17,0,0,0,.69-0.22,4.84,4.84,0,0,0,.56-0.53,0.43,0.43,0,0,1,.31-0.15,0.47,0.47,0,0,1,.35.16,0.53,0.53,0,0,1,.15.38,0.51,0.51,0,0,1-.14.35,2.56,2.56,0,0,1-2,.93q-2.32,0-2.32-2.73a4,4,0,0,1,.74-2.43,2.49,2.49,0,0,1,2.08-1.16,2.11,2.11,0,0,1,1.59.66A2.32,2.32,0,0,1,109.7,58.58Zm-1,.06a1.81,1.81,0,0,0-.35-1.09,1,1,0,0,0-.81-0.4,1.57,1.57,0,0,0-1.11.46,2.82,2.82,0,0,0-.74,1.31,6.44,6.44,0,0,0,.73,0A9.87,9.87,0,0,0,108.74,58.64Z"/><path class="cls-4" d="M114.72,59.8a11.1,11.1,0,0,1-.39,2.83,0.77,0.77,0,0,1-.58.74,0.38,0.38,0,0,1-.39-0.45,0.89,0.89,0,0,1,0-.15,2.1,2.1,0,0,1-1,.27,2,2,0,0,1-1.47-.54,2.06,2.06,0,0,1-.53-1.5,2.12,2.12,0,0,1,.57-1.56,2,2,0,0,1,1.51-.57,1.9,1.9,0,0,1,1.39.56q-0.09-1.95-1.42-1.95a1.35,1.35,0,0,0-.63.18,1.34,1.34,0,0,1-.44.18,0.4,0.4,0,0,1-.3-0.14,0.45,0.45,0,0,1-.13-0.32,0.69,0.69,0,0,1,.42-0.55,2.06,2.06,0,0,1,1.08-.27Q114.72,56.55,114.72,59.8Zm-1,1.16a1.07,1.07,0,0,0-1.16-1.25,1.25,1.25,0,1,0,0,2.5,1.13,1.13,0,0,0,.86-0.33A1.28,1.28,0,0,0,113.73,61Z"/><path class="cls-4" d="M117.46,55.79l-0.11.32a5.77,5.77,0,0,0-.19.83,9.2,9.2,0,0,0-.11,1.46c0,0.3,0,.75.06,1.36s0.06,1.06.06,1.37a2.64,2.64,0,0,1-.12.93,0.45,0.45,0,0,1-.45.3,0.34,0.34,0,0,1-.35-0.2,1.33,1.33,0,0,1,0-.43c0-.16,0-0.37,0-0.62s0-.41,0-0.49q0-.51,0-1.34t0-1.16a7.2,7.2,0,0,1,.23-2.06,0.8,0.8,0,0,1,.61-0.71,0.49,0.49,0,0,1,.34.14A0.42,0.42,0,0,1,117.46,55.79Zm3.4,1a0.94,0.94,0,0,1-.63.64l-1.84.89a17.17,17.17,0,0,1,1.78,2.11,2.65,2.65,0,0,1,.57,1.2,0.52,0.52,0,0,1-.14.37,0.42,0.42,0,0,1-.32.15,0.41,0.41,0,0,1-.34-0.23q-0.36-.58-1-1.63a9.09,9.09,0,0,0-1.28-1.43l-0.29-.27a0.67,0.67,0,0,1-.15-0.43,0.47,0.47,0,0,1,.31-0.39l0.86-.39q0.41-.2,1.32-0.73a2,2,0,0,1,.73-0.32A0.41,0.41,0,0,1,120.86,56.78Z"/><path class="cls-4" d="M123.29,61.52a0.8,0.8,0,0,1-.22.59,0.76,0.76,0,0,1-.57.22,0.67,0.67,0,0,1-.51-0.21,0.76,0.76,0,0,1-.2-0.54A0.71,0.71,0,0,1,122,61a0.75,0.75,0,0,1,.54-0.22A0.63,0.63,0,0,1,123.29,61.52Z"/><path class="cls-4" d="M128.89,57.19a33.37,33.37,0,0,1-.21,4.4,2.82,2.82,0,0,1-.18.77,0.44,0.44,0,0,1-.42.26,0.46,0.46,0,0,1-.33-0.13,0.42,0.42,0,0,1-.14-0.31s0-.1.08-0.34a8.7,8.7,0,0,0,.15-0.94,16.35,16.35,0,0,0,.08-1.68q0-.4,0-0.85c0-.3,0-0.46,0-0.49a2.65,2.65,0,0,1,.11-0.93A0.46,0.46,0,0,1,128.89,57.19Zm0.21-1.88a0.67,0.67,0,0,1-1.13.51,0.64,0.64,0,0,1-.19-0.46,0.69,0.69,0,0,1,.2-0.5,0.67,0.67,0,0,1,.5-0.21,0.58,0.58,0,0,1,.45.18A0.69,0.69,0,0,1,129.1,55.31Z"/><path class="cls-4" d="M135.15,59.44a7.49,7.49,0,0,1-.38,2.33,0.81,0.81,0,0,1-.58.72,0.46,0.46,0,0,1-.32-0.12,0.36,0.36,0,0,1-.13-0.28s0.08-.33.23-0.9a6.48,6.48,0,0,0,.23-1.7q0-1.92-1.18-1.92a1.38,1.38,0,0,0-1.11.51,2.07,2.07,0,0,0-.44,1.38,9.27,9.27,0,0,0,.13,1.33,9.13,9.13,0,0,1,.13,1.22q0,0.85-.48.85a0.42,0.42,0,0,1-.34-0.11,0.79,0.79,0,0,1-.12-0.35q0-.31-0.12-1.77-0.2-2-.2-2.9,0-1.49.57-1.49a0.46,0.46,0,0,1,.32.12,0.35,0.35,0,0,1,.13.27,2.61,2.61,0,0,1-.06.41,2.8,2.8,0,0,0-.06.51v0.11a2.11,2.11,0,0,1,1.75-1,1.73,1.73,0,0,1,1.47.71A3.4,3.4,0,0,1,135.15,59.44Z"/><path class="cls-4" d="M141.09,59.44a7.47,7.47,0,0,1-.38,2.33,0.81,0.81,0,0,1-.58.72,0.46,0.46,0,0,1-.32-0.12,0.36,0.36,0,0,1-.13-0.28s0.08-.33.23-0.9a6.42,6.42,0,0,0,.23-1.7q0-1.92-1.18-1.92a1.38,1.38,0,0,0-1.11.51,2.07,2.07,0,0,0-.44,1.38,9.27,9.27,0,0,0,.13,1.33A9.07,9.07,0,0,1,137.7,62q0,0.85-.48.85a0.42,0.42,0,0,1-.34-0.11,0.78,0.78,0,0,1-.12-0.35q0-.31-0.12-1.77-0.2-2-.2-2.9,0-1.49.57-1.49a0.46,0.46,0,0,1,.32.12,0.35,0.35,0,0,1,.13.27,2.61,2.61,0,0,1-.06.41,2.79,2.79,0,0,0-.06.51v0.11a2.11,2.11,0,0,1,1.75-1,1.73,1.73,0,0,1,1.47.71A3.39,3.39,0,0,1,141.09,59.44Z"/><path class="cls-4" d="M147.5,59.2a3.17,3.17,0,0,1-.84,2.31,3,3,0,0,1-2.23.86,2.21,2.21,0,0,1-1.81-.8,3.42,3.42,0,0,1-.66-2.23,3.23,3.23,0,0,1,.79-2.33,2.84,2.84,0,0,1,2.16-.81,2.36,2.36,0,0,1,1.87.82A3.2,3.2,0,0,1,147.5,59.2Zm-1,0a2.33,2.33,0,0,0-.47-1.55,1.6,1.6,0,0,0-1.29-.56q-1.83,0-1.83,2.23a2.69,2.69,0,0,0,.4,1.59,1.32,1.32,0,0,0,1.14.55,2,2,0,0,0,1.51-.6A2.37,2.37,0,0,0,146.54,59.21Z"/><path class="cls-4" d="M152.76,56.6a6,6,0,0,1-.21,1.26q-0.23.94-.34,1.31a16.21,16.21,0,0,1-.9,2.24q-0.62,1.28-1.05,1.28a0.58,0.58,0,0,1-.43-0.55l-0.4-1.53A20.46,20.46,0,0,0,148,57l-0.2-.35a0.62,0.62,0,0,1-.1-0.3,0.39,0.39,0,0,1,.44-0.44q0.49,0,1.09,1.3a30.07,30.07,0,0,1,1.32,3.89,15,15,0,0,0,1.24-4.14c0.08-.44.13-0.7,0.15-0.76a0.37,0.37,0,0,1,.38-0.26Q152.76,55.89,152.76,56.6Z"/><path class="cls-4" d="M157.9,59.8a11.1,11.1,0,0,1-.39,2.83,0.77,0.77,0,0,1-.58.74,0.38,0.38,0,0,1-.39-0.45,0.88,0.88,0,0,1,0-.15,2.11,2.11,0,0,1-1,.27,2,2,0,0,1-1.47-.54,2.06,2.06,0,0,1-.53-1.5,2.12,2.12,0,0,1,.57-1.56,2,2,0,0,1,1.51-.57,1.89,1.89,0,0,1,1.38.56q-0.09-1.95-1.42-1.95a1.35,1.35,0,0,0-.63.18,1.34,1.34,0,0,1-.44.18,0.4,0.4,0,0,1-.3-0.14,0.45,0.45,0,0,1-.13-0.32,0.69,0.69,0,0,1,.42-0.55,2.06,2.06,0,0,1,1.08-.27Q157.9,56.55,157.9,59.8Zm-1,1.16a1.07,1.07,0,0,0-1.16-1.25,1.25,1.25,0,1,0,0,2.5,1.12,1.12,0,0,0,.86-0.33A1.27,1.27,0,0,0,156.92,61Z"/><path class="cls-4" d="M163.19,58.19a0.43,0.43,0,0,1-.11.29,0.33,0.33,0,0,1-.25.12,3.06,3.06,0,0,1-.56-0.19,2.54,2.54,0,0,0-.94-0.19l-0.31,0a6.8,6.8,0,0,0-.18,1.48,2.54,2.54,0,0,0,.29,1.33,0.89,0.89,0,0,0,.8.46,1.19,1.19,0,0,0,.41-0.1,1.17,1.17,0,0,1,.37-0.1,0.38,0.38,0,0,1,.39.46,0.56,0.56,0,0,1-.32.49,1.74,1.74,0,0,1-.88.19q-2.06,0-2.06-2.79a6.68,6.68,0,0,1,.14-1.29l-0.59.11a2.46,2.46,0,0,1-.44.06,0.42,0.42,0,0,1-.52-0.4q0-.55,1.79-0.72,0.37-1.19.9-1.19a0.38,0.38,0,0,1,.28.12,0.4,0.4,0,0,1,.12.29,1,1,0,0,1-.07.32l-0.15.39Q163.19,57.42,163.19,58.19Z"/><path class="cls-4" d="M168.6,58.58a0.87,0.87,0,0,1-.35.76,3.84,3.84,0,0,1-1,.28,9.38,9.38,0,0,1-1.88.23c-0.24,0-.52,0-0.86,0q0,1.86,1.4,1.86a1.17,1.17,0,0,0,.7-0.22,5,5,0,0,0,.56-0.53,0.43,0.43,0,0,1,.31-0.15,0.47,0.47,0,0,1,.35.16,0.53,0.53,0,0,1,.15.38,0.51,0.51,0,0,1-.14.35,2.56,2.56,0,0,1-2,.93q-2.32,0-2.32-2.73a4,4,0,0,1,.74-2.43,2.5,2.5,0,0,1,2.08-1.16,2.11,2.11,0,0,1,1.59.66A2.32,2.32,0,0,1,168.6,58.58Zm-1,.06a1.8,1.8,0,0,0-.35-1.09,1,1,0,0,0-.81-0.4,1.56,1.56,0,0,0-1.11.46,2.81,2.81,0,0,0-.74,1.31,6.44,6.44,0,0,0,.73,0A9.86,9.86,0,0,0,167.64,58.64Z"/><path class="cls-5" d="M117.82,36.69a7.86,7.86,0,0,1,.25-2.18,2.71,2.71,0,0,1,.79-1.31,2.89,2.89,0,0,1,1.42-.63,15.37,15.37,0,0,1,4.39,0,3,3,0,0,1,1.37.59,2.24,2.24,0,0,1,.72,1.17,7.46,7.46,0,0,1,.2,1.92,9.39,9.39,0,0,1-.23,2.3,2.67,2.67,0,0,1-.74,1.33,2.72,2.72,0,0,1-1.37.63,12.34,12.34,0,0,1-2.16.16,12.73,12.73,0,0,1-2.19-.16,3.14,3.14,0,0,1-1.42-.59,2.43,2.43,0,0,1-.79-1.19A6.74,6.74,0,0,1,117.82,36.69Z"/><path class="cls-5" d="M144.92,7.27h0.89c1.57,0,3.34.07,4.5,0.85,0.41,0.47.63,2.72,0.53,5.07l-4,.11c-7.38.12-7.38,8-7.38,11,0,2.51,0,7.19,3.46,9.2a8.53,8.53,0,0,0,4.25.92h0.58l3.16-.08c0.21,2.35.16,4.57-.15,5.07s-1.59,1.26-4.83,1.26c-1,0-1.9-.06-2.65-0.11l-0.29,0c-3.94-.25-6.68-1.16-8.63-2.88a13,13,0,0,1-3.73-6.93c-1.13-5.11-1.23-12.44,1.91-17.68a11.27,11.27,0,0,1,7.34-5.19,22.33,22.33,0,0,1,5-.55"/><path class="cls-5" d="M183,15.65a11.83,11.83,0,0,0-2.93-4.9,11.32,11.32,0,0,0-4.65-2.64A22.59,22.59,0,0,0,169,7.26a23.68,23.68,0,0,0-6.5.82,10.7,10.7,0,0,0-4.62,2.65,12.33,12.33,0,0,0-2.94,5.07,27.33,27.33,0,0,0-1.07,8.27A25.51,25.51,0,0,0,155,32.32a12.37,12.37,0,0,0,3,5,10.48,10.48,0,0,0,4.58,2.53,24.63,24.63,0,0,0,6.36.76,24.35,24.35,0,0,0,6.3-.76,10.64,10.64,0,0,0,4.64-2.59,12.51,12.51,0,0,0,3.06-5.1,27.22,27.22,0,0,0,1.13-8.54A25.41,25.41,0,0,0,183,15.65Zm-8.45,13.53a10.78,10.78,0,0,1-.87,3.4,3.86,3.86,0,0,1-2.12,2.05,7.49,7.49,0,0,1-2.63.41,7.77,7.77,0,0,1-2.64-.4,4.08,4.08,0,0,1-2.2-2,9.93,9.93,0,0,1-1-3.43,40.88,40.88,0,0,1-.27-5.32,45.12,45.12,0,0,1,.24-5.17A9.73,9.73,0,0,1,164,15.3a4.1,4.1,0,0,1,2.18-2,7.83,7.83,0,0,1,2.76-.44,6.9,6.9,0,0,1,2.6.45,4,4,0,0,1,2.07,2,10.87,10.87,0,0,1,.9,3.36,40.47,40.47,0,0,1,.27,5.19A47.37,47.37,0,0,1,174.54,29.18Z"/><path class="cls-5" d="M62,33.12a0.88,0.88,0,0,0-1.1.76L60,39.44A58.07,58.07,0,0,0,71.7,40.56c1.93,0,3.5,0,4.65-.13a20.9,20.9,0,0,0,3.89-.75,7.21,7.21,0,0,0,3.09-1.57A8.75,8.75,0,0,0,85.24,35a14.9,14.9,0,0,0,.84-5.36A8.81,8.81,0,0,0,83.73,23c-1.13-1.11-5-2.23-7.23-2.67-1.06-.21-2.83-0.48-3.87-0.58a3.58,3.58,0,0,1-3.17-3.57V15.55a1.32,1.32,0,0,1,1.15-1.31c1.48-.19,4.17-0.64,11.47.21a1,1,0,0,0,1.15-.92L84,8.34A58.78,58.78,0,0,0,72.37,7.26c-4.52,0-7.7.78-9.47,2.31S60.3,14,60.3,18.24c0,3,.72,5.32,2.13,6.8,0.95,1,4.35,2,6.46,2.43,1.06,0.21,2.87.46,3.95,0.56l0.82,0.07a3.65,3.65,0,0,1,3.27,3.56v0.68a1.32,1.32,0,0,1-1.15,1.31S72.52,34.62,62,33.12Z"/><path class="cls-5" d="M100.74,40.41h7.55a2.7,2.7,0,0,0,2.48-1.94L118,9.19a1.48,1.48,0,0,0-1.4-1.93h-6.35A1.5,1.5,0,0,0,109,8.34L103,33h0L97,8.34a1.5,1.5,0,0,0-1.32-1.07H89.37A1.48,1.48,0,0,0,88,9.19l7.26,29.28a2.7,2.7,0,0,0,2.48,1.94h7.55"/></svg>