<svg id="Layer_1" data-name="Layer 1" xmlns="http://www.w3.org/2000/svg" viewBox="0 0 188.56 73.73"><defs><style>.cls-1{fill:#fff;}</style></defs><title>SV-logo-home</title><path class="cls-1" d="M55.48,43.06h0a14.84,14.84,0,0,1,2.2-5.39A2.61,2.61,0,0,0,58,37a.39.39,0,0,1,.07-.27c.28-1.72-3.1-2.13-3.74-2.08h-.2a4.88,4.88,0,0,0-4.06,2.08c-1.21,2-.85,3.44-3.81,4.37-2,.6-4-.12-6,.33-2.45.51-1.9,3-2,4.7-.12,1.86-.33,4.23-2.52,4.67C33,51.41,31,51,30.27,54.23c-.36,1.58,0,3.87-.93,5.37s-3.56,2-5.22,2.22c-2.47.32-3.67,1.37-3.38,4.32a10.07,10.07,0,0,0,.2,1.57h0a4.68,4.68,0,0,0,3.64,3.79,17.78,17.78,0,0,0,5.92-.45,56.23,56.23,0,0,1,9.88-.68c9.78,0,12.65-7.51,14-16C54.79,51.38,54.64,47,55.48,43.06Z"/><path class="cls-1" d="M76.62,13.76c-.72-.14-1.88-.32-2.58-.39a1.47,1.47,0,0,1-1.28-1.46v-.4a27.1,27.1,0,0,1,3.36-.18c1.32,0,3.95.35,3.95.35a1.37,1.37,0,0,0,1.52-1.14l.68-4.34a37.46,37.46,0,0,0-8.49-.89q-4.71,0-6.66,1.7t-2,6.22a6.92,6.92,0,0,0,1.61,5C67.84,19.34,71.39,20,71.39,20c.72.14,1.9.31,2.63.37h.53a1.49,1.49,0,0,1,1.33,1.45v.44a33.11,33.11,0,0,1-4.19.21A30.66,30.66,0,0,1,67.14,22a1.3,1.3,0,0,0-1.52,1v0l-.77,4.52a37.33,37.33,0,0,0,8.52.92q1.91,0,3.06-.09a14.24,14.24,0,0,0,2.67-.51,5.44,5.44,0,0,0,2.35-1.22,6.43,6.43,0,0,0,1.43-2.33,10.39,10.39,0,0,0,.6-3.77,6.54,6.54,0,0,0-1.77-4.86C80.53,14.54,76.62,13.76,76.62,13.76ZM86,14.84a1.19,1.19,0,0,1,.88,1.33v8.47a3.63,3.63,0,0,0,.28,1.48,3.56,3.56,0,0,0,2.26,1.7,31.66,31.66,0,0,0,5,.49A1.39,1.39,0,0,0,95.76,27L96,23.16h-.78a1.6,1.6,0,0,1-1.31-1.53v-5.4a1.29,1.29,0,0,1,1.22-1.33,1.28,1.28,0,0,0,1.22-1.33V11.62a1.28,1.28,0,0,0-1.22-1.33A1.28,1.28,0,0,1,93.91,9V7a1,1,0,0,0-1.29-1L88.13,7.13a1.8,1.8,0,0,0-1.29,1.66v.16A1.18,1.18,0,0,1,86,10.28a1.19,1.19,0,0,0-.89,1.33V13.5A1.18,1.18,0,0,0,86,14.84ZM114.54,28a1.34,1.34,0,0,0,1.33-1.33v-11q0-5.84-8.49-5.83a27.68,27.68,0,0,0-8.17,1.1l.85,5.06a21.81,21.81,0,0,1,6.86-1h.54a1.28,1.28,0,0,1,1.33.71,1.21,1.21,0,0,1-1.33.64h-.08q-9.62,0-9.62,6.37,0,3.47,2,4.74a6.31,6.31,0,0,0,1.87.85,10.39,10.39,0,0,0,2.53.25,9.44,9.44,0,0,0,3.34-.67,6.27,6.27,0,0,0,1.79-1,1.44,1.44,0,0,1,1.94.06l.17,0a3.72,3.72,0,0,0,2.28.94h.87Zm-5.74-5.91a1.12,1.12,0,0,1-.44.92,1.36,1.36,0,0,1-.67.26c-.73,0-1.65.09-2.05.09a1.19,1.19,0,0,1-.73-1.33v-.15a1.19,1.19,0,0,1,.58-1.22,1.85,1.85,0,0,1,.53-.19c.73,0,1.66-.08,2.05-.08a1.19,1.19,0,0,1,.73,1.33v.37Zm21-12.31a13,13,0,0,0-4.13,1.77,1.67,1.67,0,0,1-2-.21l-.08-.08a3.67,3.67,0,0,0-2.27-1h-.87a1.34,1.34,0,0,0-1.33,1.33v15A1.34,1.34,0,0,0,120.39,28h4.41a1.33,1.33,0,0,0,1.33-1.33h0V17.85a3.72,3.72,0,0,1,1.86-1l.91-.26a1.43,1.43,0,0,0,1.22-1.5Zm2.37,5.09a1.19,1.19,0,0,1,.88,1.33v8.47a3.6,3.6,0,0,0,.28,1.48,3.57,3.57,0,0,0,2.26,1.7,31.65,31.65,0,0,0,5,.49A1.38,1.38,0,0,0,142,27l.24-3.87h-.78a1.6,1.6,0,0,1-1.31-1.53V16.2a1.29,1.29,0,0,1,1.22-1.33,1.28,1.28,0,0,0,1.22-1.33V11.62a1.29,1.29,0,0,0-1.22-1.33A1.28,1.28,0,0,1,140.15,9V7a1,1,0,0,0-1.29-1l-4.49,1.12A1.8,1.8,0,0,0,133,8.78v.17a1.18,1.18,0,0,1-.88,1.33,1.19,1.19,0,0,0-.89,1.33V13.5a1.18,1.18,0,0,0,.92,1.34Zm23.72,11.9a1.62,1.62,0,0,1,2,.14L158,27a3.78,3.78,0,0,0,2.29.93h.87a1.34,1.34,0,0,0,1.33-1.33v-15a1.34,1.34,0,0,0-1.33-1.33h-4.41a1.34,1.34,0,0,0-1.33,1.33V21.85a1.19,1.19,0,0,1-.58,1.22,1.82,1.82,0,0,1-.53.18c-.73,0-1.58.08-1.88.08a1.26,1.26,0,0,1-.55-1.33V11.62a1.34,1.34,0,0,0-1.33-1.33h-4.41a1.34,1.34,0,0,0-1.34,1.33v11q0,3.15,1.45,4.49a6.62,6.62,0,0,0,4.6,1.34,9.58,9.58,0,0,0,5-1.7Zm26.89-14a5.7,5.7,0,0,0-2.37-2.23,7.92,7.92,0,0,0-3.71-.81,8.29,8.29,0,0,0-4.7,1.5,1.2,1.2,0,0,1-1.7-.05v0a2.75,2.75,0,0,0-2-.88h-.89a1.34,1.34,0,0,0-1.33,1.33V32.47a1.22,1.22,0,0,0,1.2,1.23h.13l4.42-.33a1.47,1.47,0,0,0,1.33-1.43V29.3a1.34,1.34,0,0,1,1.32-1.3h2.73a7.43,7.43,0,0,0,3-.58A5.93,5.93,0,0,0,182.29,26q1.94-2.3,1.95-6.79a12.52,12.52,0,0,0-1.48-6.37Zm-6.08,9.06a1.2,1.2,0,0,1-.58,1.22,1.86,1.86,0,0,1-.53.18c-.73,0-1.58.08-1.88.08a1.26,1.26,0,0,1-.55-1.33V16.22a1.17,1.17,0,0,1,.39-.87,1.6,1.6,0,0,1,.81-.37h1.79a1.26,1.26,0,0,1,.55,1.33v5.52ZM82.2,31.18H78a1.52,1.52,0,0,0-1.41,1.14l-2.17,10A2.88,2.88,0,0,1,74,43.48a2.93,2.93,0,0,1-.38-1.14l-2.14-10a1.51,1.51,0,0,0-1.41-1.14h-4.2A.87.87,0,0,0,65,32.32l4.24,17.1a1.58,1.58,0,0,0,1.45,1.13H77.4a1.58,1.58,0,0,0,1.45-1.13l4.24-17.1a.87.87,0,0,0-.89-1.14Zm7.79-1a4.73,4.73,0,0,0-2.76-.56,4.72,4.72,0,0,0-2.76.56,2.37,2.37,0,0,0-.7,2,2.28,2.28,0,0,0,.7,1.92,5,5,0,0,0,2.76.53A5,5,0,0,0,90,34.06a2.28,2.28,0,0,0,.7-1.92,2.37,2.37,0,0,0-.7-2Zm-.83,5-3.88.48A1.36,1.36,0,0,0,84.11,37V49.38a1.17,1.17,0,0,0,1.17,1.17h3.86a1.17,1.17,0,0,0,1.17-1.17V36.22a1,1,0,0,0-1-1h-.19Zm10.19,9.75V31.11a1.07,1.07,0,0,0-1-1.11h-.16l-3.87.29a1.28,1.28,0,0,0-1.16,1.26V47.64a3.17,3.17,0,0,0,.25,1.3,3.13,3.13,0,0,0,2,1.49,24.71,24.71,0,0,0,4.07.42,1.21,1.21,0,0,0,1.24-1.13l.21-3.39h-.37A1.43,1.43,0,0,1,99.34,45Zm9.57,0V31.11a1.07,1.07,0,0,0-1-1.11h-.15l-3.87.29a1.28,1.28,0,0,0-1.16,1.26V47.64a2.66,2.66,0,0,0,2.2,2.79,24.67,24.67,0,0,0,4.07.42,1.22,1.22,0,0,0,1.24-1.13l.21-3.39h-.37A1.43,1.43,0,0,1,108.91,45Zm11.52-10.36a24.16,24.16,0,0,0-7.16,1L114,40a19.09,19.09,0,0,1,6-.84h.47a1.12,1.12,0,0,1,1.17.62,1.06,1.06,0,0,1-1.17.56h-.07q-8.43,0-8.43,5.58,0,3,1.76,4.15a5.52,5.52,0,0,0,1.64.74,9.08,9.08,0,0,0,2.21.22,8.25,8.25,0,0,0,2.93-.59,5.51,5.51,0,0,0,1.57-.87,1.26,1.26,0,0,1,1.7,0l.12.11a3.24,3.24,0,0,0,2,.83h.76a1.17,1.17,0,0,0,1.17-1.17V39.7q0-5.11-7.4-5.11Zm1.24,10.78a1,1,0,0,1-.39.81,1.16,1.16,0,0,1-.58.23c-.64,0-1.45.08-1.8.08a1,1,0,0,1-.64-1.17v-.1a1,1,0,0,1,.51-1.07,1.64,1.64,0,0,1,.46-.16c.64,0,1.45-.07,1.8-.07a1,1,0,0,1,.63,1.17v.29ZM143.8,33.49a1.4,1.4,0,0,0-1.77-.1l-1.77,1.36a16.64,16.64,0,0,0-2.64-.19q-4.12,0-5.95,1.36A4.76,4.76,0,0,0,129.84,40,5.77,5.77,0,0,0,131,44a6.15,6.15,0,0,0,2.28,1.32,1.13,1.13,0,0,1,.74,1.42v0l-.55,1.56a1.66,1.66,0,0,0,0,.44,1,1,0,0,0,.31.38,3.09,3.09,0,0,0,1.12.46,17.93,17.93,0,0,0,2.44.2,1.17,1.17,0,0,1,1.22,1.12s0,0,0,.07a12.17,12.17,0,0,1-1.49.06,25.82,25.82,0,0,1-5-.63,1.09,1.09,0,0,0-1.32.79l0,.09-.6,3.47a27,27,0,0,0,6.68.93,20.13,20.13,0,0,0,4.85-.47,4.34,4.34,0,0,0,3.63-4.65,3.22,3.22,0,0,0-1.38-3,13.73,13.73,0,0,0-3.57-.87,1,1,0,0,1-1-.88q3.13-.25,4.35-1.44a4.87,4.87,0,0,0,1.22-3.64,7.87,7.87,0,0,0-.13-1.65,2.59,2.59,0,0,1,.48-2l.25-.3a1.26,1.26,0,0,0-.08-1.7Zm-5,7.22a1,1,0,0,1-.51,1.07,1.64,1.64,0,0,1-.46.16c-.64,0-1.38.07-1.64.07a1.1,1.1,0,0,1-.48-1.17V40a1,1,0,0,1,.51-1.07,1.62,1.62,0,0,1,.46-.16c.64,0,1.38-.07,1.64-.07a1.1,1.1,0,0,1,.48,1.17v.85Zm24-.56q0-3.22-1.64-4.4t-6-1.18q-4.33,0-6.26,2T147,42.75q0,4.15,1.94,6.18t6.27,2a37.08,37.08,0,0,0,5.73-.7,1.22,1.22,0,0,0,1-1.38l-.56-3.4a19,19,0,0,1-5.86.93h-.66a1.24,1.24,0,0,1-1.16-1.17q5.2,0,7.17-1.19a4.23,4.23,0,0,0,1.89-3.85Zm-5.73.22a1,1,0,0,1-.52,1.07,1.57,1.57,0,0,1-.46.16c-.64,0-1.45.07-1.8.07a1,1,0,0,1-.64-1.17v-.1a1,1,0,0,1,.51-1.07,1.71,1.71,0,0,1,.46-.16c.64,0,1.45-.07,1.8-.07a1,1,0,0,1,.64,1.17v.1Z"/><path class="cls-1" d="M88.76,56.9l-.13-.09Zm12,.74.09.09a.15.15,0,0,0-.11-.09Zm-20.39.15.26-.94-.5-.3c.14.73-.35,1,.22,1.24Zm7.11-1.34c0,.48.82.23,1.17.36-.32-.21-1-.65-1.18-.36ZM77,57.73a1.46,1.46,0,0,0,.69-.73c-.46.09-.14-1.18-.42-.71l.19.57C77.1,56.85,77.06,57.37,77,57.73Zm23.7-.1a3.06,3.06,0,0,0-1-.61.52.52,0,0,0,.58.45l.09,0c.1.44.24.16.37.19ZM76.29,57.3c.26-.06.54.33.6-.28-.09-.4-.32.14-.55.29Zm-10-2,.34.2-.45-.62Zm1.62,0a.75.75,0,0,0-.19-.68h-.28c.2.38.27.73.56.69Zm76.45.92a1.1,1.1,0,0,0-.07.76c.05-.16.15-.09.2,0Zm-41.62.4c0,.35.16.22.32.44.16-.23-.17-.58-.24-.42ZM144.57,56c.45.15.49.77,1,.69l-.41-.83.09.27C145,56.38,144.78,55.79,144.57,56Zm-79.2-.8-.18.12a.15.15,0,0,0,.19-.09Zm78.3,1.23-.21-.43c-.29.48-.47-.46-.39.41a.79.79,0,0,0,.61,0Zm-43.09-.3.09-.25a.82.82,0,0,0-.26.2Zm49.84.79-.13.11a.24.24,0,0,0,.13-.08ZM108.37,57a.7.7,0,0,0-.31-.07A.29.29,0,0,0,108.37,57ZM64.94,55.53l.25-.17C65,55.31,64.68,54.9,64.94,55.53Zm1.44.24L65,55.94h4.94c.26.45.75.41,1,1.28-.13,0-.24,0-.22.15,0-.28.44,0,.64-.08L71,56.73c.5-1,.55.41,1.14-.06a9.34,9.34,0,0,0-.72-.78h.46a.19.19,0,0,1,.19.19h0l.06-.19h1.24l.2.11-.09-.14h1.09a.92.92,0,0,1-.34.54c.2-.06.56-.58.63,0,.16-.46.42-.21.54.14.28-.3.15-.39.08-.69h.86a.89.89,0,0,1,.06.39c-.1.21-.55-.06-.3.56,0-.8.25.33.48.1-.44-.55.12-.74.17-1h.67a.62.62,0,0,0,.17.1v-.1h1.08c0,.16.08.41-.17.36.09.15.24.06.33-.08.15.18-.19.62.16.46l-.13-.75h.94a1.2,1.2,0,0,1-.37.66h.07c.37.31-.42,1.13.24,1A1.83,1.83,0,0,1,80.19,56h.44V56a3.72,3.72,0,0,0,.86,1L80.71,56h1a1.65,1.65,0,0,0-.09,1c.7-1,1.29.54,1.92-.6a.15.15,0,0,1,.17-.24v-.23h.18a.22.22,0,0,0,.19,0h.84V56h0c.1.15.19.27.24.19.11.42.24.08.38-.26h2.3a1.16,1.16,0,0,0,1.12,0h.2c.42.65.44,1.06,1,1.19L90,56.37l.65-.3a.38.38,0,0,1,0-.16h2.4l.39.07v0l.13-.06v.2c.24-.39.47.6.77-.07a.43.43,0,0,0,.14-.19h.2L94.6,56c.64.15.77.89,1.29.93.05.19-.07.16-.13.32.29.07.49-.42.33-.72.24-.12.38.62.73.61L97,58c.49.4,1-.28,1.31-.57-.42.08-.84-.63-1.14-.63,0-2-1.26-.48-1.52-1.06h2c.05.37.64.47.17,1,.56.4.7,0,1.25.65-.15-.57.39-.71.42-1.23.23.06.49.65.69.16L99.84,56a.45.45,0,0,0,.27-.27h.59a1,1,0,0,1,0,.21c.5-.24,1,.26,1.57-.13a.29.29,0,0,1-.3-.08h1a4.19,4.19,0,0,1,1.22,1.93c.95.51.57-1.54,1.75-.17a5.17,5.17,0,0,1,0-1.08.64.64,0,0,1,.7,0l-.39.61c.55.52,1.26,0,1.84,0a1.3,1.3,0,0,0-.32-.81.49.49,0,0,1,.49-.49h.07c.44.38.2,1.21.69,1.52,5.1-.55,10.14,0,15.27-.67v-.44c3.2.79,6.81-.06,10.24-.33v.26c1.08-1.63.6,1.85,1.78,0,.81,1.59,1.83,0,2.74,1.17l.1-.52c.63,1.36,1.5-1,2.26,0,.28-.49.42-1.08.89-.62.08.15-.11.91.22.47l-.27-.9a.86.86,0,0,1,1.19.23l.07.12.54-.1-.15-.31a2.49,2.49,0,0,0,.41-.17h.5a.8.8,0,0,1,.23.33,1.84,1.84,0,0,0-.09-.33h1.15a2.12,2.12,0,0,0-.18.71c.57-.36.34,1.38.86,1v-.63a.93.93,0,0,1,.92.62v-.32c.75-.33,1.18.42,1.76-.66l.37.39a.48.48,0,0,1,.15-.6c.31-.1.72.72.54,1,1.06-.88,1.25.45,2.39.19,0-.71.48-.24.33-.87l.31.35a.39.39,0,0,1,0-.28c.14-.19.18,0,.21.28V56.5l.49-.12V57l.39-.51c-.17-.75-.73-.28-.77-1l.1-.08h.5a.75.75,0,0,1,.09.64c.48-.23.24.72.7.37l-.18-.4.57.36c.19.16-.16-.44,0-.75-.24-.06-.46-.08-.67-.12l.44-.16h.94c0,.21.06-.08-.22.17a1.64,1.64,0,0,1,.71.17c.12.51-.28.71-.09,1.06,3.24.92,5.34-2.3,8.25.25.4-.56,1.39-1.13,1.69-.75l-.14.19c.42.43.71-.75,1,0l.27.87c.22-.19.71-.18.65-.56.25.44,1-.18.87.94a5.92,5.92,0,0,1,1.78-.18.42.42,0,0,1,0-.19c.19-.37.23.69.48.13-.06-.25-.59-.31-.12-.62.24.81,1,0,1.35-.35a1.09,1.09,0,0,1,.4.58c.26-.11.71-.78.35-1,.68.34.84-.56.8.6.75.81,1.49-.51,2.15.59,1.13-.34,2.25-.41,3.22-1.29-11-1.31-61.54-6.76-104.89-2.18a2.92,2.92,0,0,0,.31.88l-.43,0a1.12,1.12,0,0,0-.49-.86L72.94,54a.15.15,0,0,1-.06.07L72.82,54h-.33a.37.37,0,0,1,0,.07.16.16,0,0,1-.26,0l-1.41.17a.4.4,0,0,1-.06.33c.43.87,1.21-.91,1.41.46l-1,.13a2.3,2.3,0,0,0-.81-.66v.25c-.22,0-.3-.15-.35-.39l-.47.06a.23.23,0,0,1-.13,0h0l-.89.11-.06.07c.31-.11.46.43.63.8l-2.46.31-.36-.21v.16Zm90-.42h.76a1.14,1.14,0,0,0,.18.36.78.78,0,0,1-.52-.32,1.37,1.37,0,0,0,0,.27Zm-1.93,0h.42a1.21,1.21,0,0,1,.07.16,1.6,1.6,0,0,1-.45-.16Zm-56.16.45L98,55.72h.44a1.19,1.19,0,0,1,.19,1c0-.85-1.14-.5-.3-.92Zm-14.68,0Zm-5.7-1.48a.68.68,0,0,1,.22-.6,2.83,2.83,0,0,1,.26.54Zm-4.48.54c.15-.27.28-.49.52-.06Zm-4.37.54a.72.72,0,0,1-.22-.77c.28-.47.69.32,1.16.5l-.27.12v.08ZM98.5,57.34a.5.5,0,0,0-.24.13.39.39,0,0,0,.28-.12ZM68.55,56a2.15,2.15,0,0,0,.86,1.41l.26-.41-.17-.1.44-.65C69.33,56.18,69.08,56.5,68.55,56Zm15,.24v0c0,.06,0,.07,0,0Zm-10.1.36.31.4c.26,0,0-.48.3-.28C74,56.25,73.64,56.25,73.45,56.6ZM93.64,56l-.05.09C93.61,56.17,93.63,56.1,93.64,56Zm-.1-.13c-.18.13,0,.23,0,0Z"/><path class="cls-1" d="M35.19,44.12a1.59,1.59,0,0,1-.62-.12l-4.64-2.18a2.1,2.1,0,0,0-2.7.39s-7,7.75-7.83,9a1.17,1.17,0,0,1-1.8.41s-3.6-2.29-4.44-2.71-1.05.33-1.05.33l-.62,2.5c-.26.65-.65-1.06-.65-1.06l-.95-4.33c-.26-1.37.7-.82.7-.82s5.7,1.48,6.35,1.53a1,1,0,0,0,.86-.26h0s1.83-2.93,2.32-3.78a1.78,1.78,0,0,0,.3-1.44l-2.28-6.35A1.44,1.44,0,0,0,17,34.09s-2.8-.36-3.56-.5a2.23,2.23,0,0,0-1.52.41l-2.4,2.42A8.55,8.55,0,0,0,8,42q.16,1.86.34,3.72c3.39,19.68,5.09,22.58,11,23.91,1,.23,1.16-.79,1.09-1.78-.24-1.6-.79-3.25-.27-4.75.87-2.91,4-1.94,6.14-2.59,3.12-1,1.9-4,2.17-6.6.23-3.77,2.41-3.29,5.19-4,3.68-.9,2.4-4.07,2.78-6.73v-.3L36,43.5A1.2,1.2,0,0,1,35.19,44.12Zm20.53-32h0c0-.47-.47-.36-.65-.29a8.19,8.19,0,0,0-1,.47,1.62,1.62,0,0,0-1,1.8,5.48,5.48,0,0,1,.41,1.84c-.14.87-1,.07-1.3-.12a2.34,2.34,0,0,0-1.69-.45,3.9,3.9,0,0,0-1.67,1.27c-.33.36-.82,1.36-1.12.27a18,18,0,0,1-.07-2.61c0-1.19-1-1.44-2.12-2-.42-.22-2.08-.85-2.14-1.42,0-.31.3-.34.7-.28a7.38,7.38,0,0,0,2.15,0h0l.34-.07A1.78,1.78,0,0,0,48.1,9.19c.29-.67.3-1.69.89-2.22.77-.63,1.19.82,1.36,1.23a4,4,0,0,0,1.24,1.74,5.32,5.32,0,0,0,2.76.53h.57a.31.31,0,0,0,.29-.47h0c-1-2.64-3.28-4.62-7.88-5.08a29.19,29.19,0,0,0-4.64-.08A22.25,22.25,0,0,1,38,4.39C16-1.09,9.21,4.69,7.79,6.32c-3.34,3.2-3.55,9.07-3.5,11.3a58.28,58.28,0,0,0,3,15.55c.15.66.5,1.53,1.21.7l.21-.23L10,32.27a3.33,3.33,0,0,1,1.83-1l6.59-1h.09l6.13-2h0c.43-.21,3.55-1.64,5.06-2.39l.3-.1h.13a5,5,0,0,1,1.1-.25.75.75,0,0,1,.71.29c.29.49-.78,1.3-.78,1.3h0c-1.34,1.08-3.42,2.76-3.79,3a4.75,4.75,0,0,1-1,.62h0L23,32.44a1,1,0,0,0-.27,1.27l.09.18h0L24,36.23a1.82,1.82,0,0,0,1.75,1l2.89-.36a3.18,3.18,0,0,1,2.25.75l3.14,3c.2.18,1,.86,1.67.34s3.37-2.74,2.64-.72c1.39-.62,3.27-.57,5-.92,4.3-.76,2.06-4.69,4.49-7a5.36,5.36,0,0,1,3.64-1.09,2.24,2.24,0,0,0,2.23-2.08,2.3,2.3,0,0,1,0-.25,30.19,30.19,0,0,1,.37-4.44c.68-3.3,2.16-8.24,1.61-12.35Zm-37.23,17c-1.57.59-3.95-.71-5.42-3s-1.47-4.59.3-5,4.45,1,5.79,3.19.93,4.27-.67,4.83Z"/><path class="cls-1" d="M74.64,66.23a3.21,3.21,0,0,1-.69,2.18,2.39,2.39,0,0,1-1.9.79,1.7,1.7,0,0,1-1.17-.43,1.84,1.84,0,0,1-.06.54.38.38,0,0,1-.4.28.43.43,0,0,1-.42-.52V65.46a20.35,20.35,0,0,0,0-2.29,2.13,2.13,0,0,0-.11-.63,2.76,2.76,0,0,1-.06-.37.33.33,0,0,1,.17-.25.44.44,0,0,1,.29-.11.56.56,0,0,1,.49.56,13,13,0,0,1,.17,1.77,2.5,2.5,0,0,1,1.51-.53,2,2,0,0,1,1.62.7A2.88,2.88,0,0,1,74.64,66.23Zm-.89,0a2.17,2.17,0,0,0-.39-1.37,1.26,1.26,0,0,0-1.05-.5,1.5,1.5,0,0,0-1.38.73v2.39h0a1.23,1.23,0,0,0,1.19.85,1.44,1.44,0,0,0,1.18-.58,2.39,2.39,0,0,0,.46-1.49Z"/><path class="cls-1" d="M80.26,68.68a.54.54,0,0,1-.13.37.4.4,0,0,1-.32.15q-.35,0-.59-1.1a2.2,2.2,0,0,1-1.82,1q-1.78,0-1.78-2.88a15.07,15.07,0,0,1,.19-2.57.64.64,0,0,1,.57-.65.38.38,0,0,1,.28.12.39.39,0,0,1,.12.28q0,.14-.13,1.12a13.92,13.92,0,0,0-.13,1.82q0,1.93,1,1.93a1.27,1.27,0,0,0,1.08-.54,2.49,2.49,0,0,0,.4-1.51V66a14.8,14.8,0,0,1,.13-2,.58.58,0,0,1,.5-.61q.37,0,.37.53v1.77a12.44,12.44,0,0,0,.17,2.13A3.88,3.88,0,0,0,80.26,68.68Z"/><path class="cls-1" d="M82.51,64a30.45,30.45,0,0,1-.19,4,2.58,2.58,0,0,1-.17.71.4.4,0,0,1-.39.24.42.42,0,0,1-.3-.12.38.38,0,0,1-.12-.29,1.2,1.2,0,0,1,.07-.31,8.09,8.09,0,0,0,.14-.86,15.13,15.13,0,0,0,.07-1.54V64.6a2.41,2.41,0,0,1,.1-.85.41.41,0,0,1,.79.25Zm.19-1.72a.56.56,0,0,1-.47.64h-.15a.56.56,0,0,1-.42-.18.59.59,0,0,1-.17-.42.63.63,0,0,1,.19-.46.62.62,0,0,1,.46-.19.53.53,0,0,1,.41.17.62.62,0,0,1,.15.43Z"/><path class="cls-1" d="M85.1,69.07a1.48,1.48,0,0,1,0,.42.32.32,0,0,1-.33.2q-.42,0-.5-.7a31.28,31.28,0,0,1-.13-3.22q0-2.28.06-2.81a.51.51,0,0,1,.44-.57h0a.44.44,0,0,1,.44.55v2.82q0,.7.07,1.8A4.8,4.8,0,0,1,85.1,69.07Z"/><path class="cls-1" d="M91.06,62.29s0,.21-.05.68-.07,1.12-.1,1.74v3.8q0,.67-.42.67T90,68.42v-.28A2.67,2.67,0,0,1,88,69a1.86,1.86,0,0,1-1.46-.61A2.42,2.42,0,0,1,86,66.7a3.4,3.4,0,0,1,.78-2.34,2.61,2.61,0,0,1,2.05-.89,3,3,0,0,1,1.22.28,12.54,12.54,0,0,1,.08-1.5.49.49,0,0,1,.49-.46Q91.06,61.79,91.06,62.29Zm-1,2.35a2.16,2.16,0,0,0-1.17-.37,1.76,1.76,0,0,0-1.43.63,2.63,2.63,0,0,0-.52,1.72,1.73,1.73,0,0,0,.35,1.16,1.21,1.21,0,0,0,1,.41,1.41,1.41,0,0,0,1.19-.53l.23-.36a.49.49,0,0,1,.29-.22q0-1.27.06-2.45Z"/><path class="cls-1" d="M93.7,68a.74.74,0,0,1-.2.54.7.7,0,0,1-.52.2.62.62,0,0,1-.47-.2.7.7,0,0,1-.18-.5.65.65,0,0,1,.2-.48.68.68,0,0,1,.5-.2.58.58,0,0,1,.67.64Z"/><path class="cls-1" d="M102.38,66.23a3.2,3.2,0,0,1-.69,2.18,2.39,2.39,0,0,1-1.9.79,1.7,1.7,0,0,1-1.17-.43,1.82,1.82,0,0,1-.06.54.39.39,0,0,1-.4.28.43.43,0,0,1-.42-.53V65.45a20.36,20.36,0,0,0-.09-2.29,3.49,3.49,0,0,0-.11-.63,2.72,2.72,0,0,1-.06-.37.32.32,0,0,1,.13-.25.44.44,0,0,1,.39-.1.56.56,0,0,1,.49.56,13.06,13.06,0,0,1,.17,1.77,2.49,2.49,0,0,1,1.51-.53,2,2,0,0,1,1.62.7A2.88,2.88,0,0,1,102.38,66.23Zm-.89,0a2.17,2.17,0,0,0-.39-1.37,1.26,1.26,0,0,0-1.05-.5,1.5,1.5,0,0,0-1.38.73v.7q0,.49,0,1.06t0,.63h0a1.23,1.23,0,0,0,1.19.85,1.44,1.44,0,0,0,1.18-.58,2.39,2.39,0,0,0,.46-1.49Z"/><path class="cls-1" d="M106.6,64.62a.43.43,0,0,1-.1.29.31.31,0,0,1-.24.12.63.63,0,0,1-.32-.16.65.65,0,0,0-.38-.16.8.8,0,0,0-.69.38,1.75,1.75,0,0,0-.26,1v.59a4.89,4.89,0,0,1-.2,1.57.64.64,0,0,1-.49.55.36.36,0,0,1-.41-.41,4.87,4.87,0,0,1,.13-.6,4.19,4.19,0,0,0,.12-1,4.81,4.81,0,0,0-.36-2l-.24-.46A.8.8,0,0,1,103,64a.37.37,0,0,1,.14-.27.44.44,0,0,1,.3-.13q.47,0,.78,1.17a1.46,1.46,0,0,1,1.35-.9,1.16,1.16,0,0,1,.72.21A.64.64,0,0,1,106.6,64.62Z"/><path class="cls-1" d="M111.64,65.26a.79.79,0,0,1-.32.7,3.48,3.48,0,0,1-.9.26,8.6,8.6,0,0,1-1.72.21h-.78q0,1.7,1.28,1.7a1.07,1.07,0,0,0,.64-.2,4.43,4.43,0,0,0,.51-.48.39.39,0,0,1,.28-.14.43.43,0,0,1,.32.14.49.49,0,0,1,.13.35.47.47,0,0,1-.13.32,2.35,2.35,0,0,1-1.79.85Q107,69,107,66.47a3.69,3.69,0,0,1,.68-2.22,2.28,2.28,0,0,1,1.9-1.06,1.93,1.93,0,0,1,1.46.6A2.12,2.12,0,0,1,111.64,65.26Zm-.88.05a1.66,1.66,0,0,0-.32-1,.92.92,0,0,0-.74-.37,1.43,1.43,0,0,0-1,.42,2.58,2.58,0,0,0-.68,1.2,5.89,5.89,0,0,0,.67,0,9,9,0,0,0,2.06-.24Z"/><path class="cls-1" d="M116.23,66.38a10.16,10.16,0,0,1-.36,2.59.7.7,0,0,1-.53.68.35.35,0,0,1-.36-.42.81.81,0,0,1,0-.14,1.93,1.93,0,0,1-.94.25,1.79,1.79,0,0,1-1.34-.49,1.89,1.89,0,0,1-.48-1.38,1.94,1.94,0,0,1,.52-1.43,1.86,1.86,0,0,1,1.38-.53,1.74,1.74,0,0,1,1.27.51q-.08-1.78-1.3-1.78a1.24,1.24,0,0,0-.58.17,1.22,1.22,0,0,1-.4.16.37.37,0,0,1-.27-.13.41.41,0,0,1-.12-.29.63.63,0,0,1,.39-.5,1.88,1.88,0,0,1,1-.25Q116.23,63.41,116.23,66.38Zm-.9,1.06a1,1,0,0,0-.84-1.14h-.22a1.15,1.15,0,0,0,0,2.29,1,1,0,0,0,.79-.3,1.17,1.17,0,0,0,.26-.84Z"/><path class="cls-1" d="M118.74,62.71l-.1.29a5.28,5.28,0,0,0-.18.76,8.43,8.43,0,0,0-.1,1.33,10.76,10.76,0,0,0,.06,1.24,11.16,11.16,0,0,1,.06,1.26,2.41,2.41,0,0,1-.11.85.42.42,0,0,1-.41.28.31.31,0,0,1-.32-.19,1.22,1.22,0,0,1,0-.4V64.82a6.59,6.59,0,0,1,.21-1.88.73.73,0,0,1,.56-.65.44.44,0,0,1,.31.13A.39.39,0,0,1,118.74,62.71Zm3.11.91a.86.86,0,0,1-.58.59l-1.69.81a15.72,15.72,0,0,1,1.64,2,2.42,2.42,0,0,1,.52,1.1.48.48,0,0,1-.13.33.35.35,0,0,1-.6-.07l-.95-1.49a8.32,8.32,0,0,0-1.17-1.31l-.27-.24a.61.61,0,0,1-.13-.39.43.43,0,0,1,.28-.36l.78-.36q.38-.18,1.21-.67a1.85,1.85,0,0,1,.67-.29.37.37,0,0,1,.42.37Z"/><path class="cls-1" d="M124.08,68a.74.74,0,0,1-.2.54.7.7,0,0,1-.52.2.62.62,0,0,1-.47-.2.7.7,0,0,1-.18-.5.65.65,0,0,1,.2-.48.68.68,0,0,1,.5-.2.58.58,0,0,1,.67.64Z"/><path class="cls-1" d="M129.2,64a30.55,30.55,0,0,1-.19,4,2.58,2.58,0,0,1-.17.71.4.4,0,0,1-.39.24.42.42,0,0,1-.3-.12.39.39,0,0,1-.12-.29,1.2,1.2,0,0,1,.07-.31,8,8,0,0,0,.14-.86,15,15,0,0,0,.07-1.54V64.6a2.43,2.43,0,0,1,.1-.85.42.42,0,0,1,.79.25Zm.19-1.72a.61.61,0,0,1-1,.47.59.59,0,0,1-.17-.42.63.63,0,0,1,.19-.46.62.62,0,0,1,.46-.19.53.53,0,0,1,.41.17.63.63,0,0,1,.12.42Z"/><path class="cls-1" d="M134.93,66a6.86,6.86,0,0,1-.35,2.14.74.74,0,0,1-.53.66.42.42,0,0,1-.29-.11.33.33,0,0,1-.12-.26s.07-.3.21-.82a5.93,5.93,0,0,0,.21-1.56q0-1.76-1.08-1.76a1.26,1.26,0,0,0-1,.47,1.89,1.89,0,0,0-.41,1.27,8.48,8.48,0,0,0,.12,1.22,8.36,8.36,0,0,1,.12,1.12q0,.78-.44.78a.39.39,0,0,1-.31-.1.72.72,0,0,1-.11-.32q0-.28-.11-1.62-.18-1.87-.18-2.66,0-1.37.52-1.37a.43.43,0,0,1,.29.11.32.32,0,0,1,.12.25,2.39,2.39,0,0,1-.05.37,2.56,2.56,0,0,0-.05.47v.1a1.93,1.93,0,0,1,1.6-.91,1.58,1.58,0,0,1,1.35.65A3.11,3.11,0,0,1,134.93,66Z"/><path class="cls-1" d="M140.37,66a6.84,6.84,0,0,1-.35,2.14.74.74,0,0,1-.53.66.42.42,0,0,1-.29-.11.33.33,0,0,1-.12-.26s.07-.3.21-.82a5.88,5.88,0,0,0,.21-1.56q0-1.76-1.08-1.76a1.26,1.26,0,0,0-1,.47A1.89,1.89,0,0,0,137,66a8.49,8.49,0,0,0,.12,1.22,8.31,8.31,0,0,1,.12,1.12q0,.78-.44.78a.39.39,0,0,1-.31-.1.71.71,0,0,1-.11-.32q0-.28-.11-1.62-.18-1.87-.18-2.66,0-1.37.52-1.37a.43.43,0,0,1,.29.11.32.32,0,0,1,.12.25,2.39,2.39,0,0,1-.05.37,2.55,2.55,0,0,0-.05.47v.1a1.93,1.93,0,0,1,1.6-.91,1.58,1.58,0,0,1,1.35.65A3.11,3.11,0,0,1,140.37,66Z"/><path class="cls-1" d="M146.24,65.84a2.91,2.91,0,0,1-.77,2.12,2.71,2.71,0,0,1-2,.79,2,2,0,0,1-1.66-.73,3.13,3.13,0,0,1-.6-2,3,3,0,0,1,.72-2.13,2.6,2.6,0,0,1,2-.75,2.16,2.16,0,0,1,1.71.75A2.93,2.93,0,0,1,146.24,65.84Zm-.88,0a2.13,2.13,0,0,0-.43-1.42,1.47,1.47,0,0,0-1.19-.51q-1.68,0-1.68,2a2.47,2.47,0,0,0,.37,1.45,1.21,1.21,0,0,0,1,.51,1.79,1.79,0,0,0,1.38-.55,2.17,2.17,0,0,0,.55-1.47Z"/><path class="cls-1" d="M151.05,63.45a5.51,5.51,0,0,1-.19,1.16q-.21.86-.32,1.2a14.84,14.84,0,0,1-.82,2.05,1.75,1.75,0,0,1-1,1.17.53.53,0,0,1-.39-.51l-.33-1.4a18.73,18.73,0,0,0-1.34-3.34l-.18-.32a.57.57,0,0,1-.09-.28.36.36,0,0,1,.3-.41h.1q.45,0,1,1.19a27.53,27.53,0,0,1,1.2,3.56,13.71,13.71,0,0,0,1.14-3.79c.07-.41.12-.64.14-.7a.34.34,0,0,1,.35-.24Q151.05,62.8,151.05,63.45Z"/><path class="cls-1" d="M155.76,66.38A10.16,10.16,0,0,1,155.4,69a.7.7,0,0,1-.53.68.35.35,0,0,1-.36-.42.8.8,0,0,1,0-.14,1.93,1.93,0,0,1-.94.25,1.79,1.79,0,0,1-1.34-.49,1.89,1.89,0,0,1-.48-1.38,1.94,1.94,0,0,1,.52-1.43,1.86,1.86,0,0,1,1.38-.53,1.73,1.73,0,0,1,1.27.51q-.08-1.78-1.3-1.78a1.24,1.24,0,0,0-.58.17,1.23,1.23,0,0,1-.4.16.36.36,0,0,1-.27-.13.41.41,0,0,1-.12-.29.63.63,0,0,1,.39-.5,1.89,1.89,0,0,1,1-.25Q155.76,63.41,155.76,66.38Zm-.9,1.06A1,1,0,0,0,154,66.3h-.22a1.15,1.15,0,1,0,0,2.29,1,1,0,0,0,.79-.3A1.17,1.17,0,0,0,154.86,67.44Z"/><path class="cls-1" d="M160.6,64.91a.39.39,0,0,1-.1.27.3.3,0,0,1-.23.11,2.8,2.8,0,0,1-.51-.18,2.33,2.33,0,0,0-.86-.18h-.28a6.23,6.23,0,0,0-.16,1.35,2.33,2.33,0,0,0,.26,1.22.82.82,0,0,0,.73.42,1.09,1.09,0,0,0,.38-.09,1.07,1.07,0,0,1,.34-.09.35.35,0,0,1,.36.42.51.51,0,0,1-.29.45,1.59,1.59,0,0,1-.8.17q-1.89,0-1.89-2.55a6.11,6.11,0,0,1,.13-1.18l-.54.1a2.26,2.26,0,0,1-.4.05.38.38,0,0,1-.48-.37q0-.51,1.64-.66a1.22,1.22,0,0,1,.83-1.09.34.34,0,0,1,.26.11.37.37,0,0,1,.11.27.89.89,0,0,1-.07.3l-.13.36Q160.6,64.2,160.6,64.91Z"/><path class="cls-1" d="M165.56,65.26a.79.79,0,0,1-.32.7,3.52,3.52,0,0,1-.9.26,8.59,8.59,0,0,1-1.72.21h-.78q0,1.7,1.28,1.7a1.07,1.07,0,0,0,.64-.2,4.55,4.55,0,0,0,.51-.48.39.39,0,0,1,.28-.14.43.43,0,0,1,.32.14.49.49,0,0,1,.14.35.47.47,0,0,1-.13.32,2.35,2.35,0,0,1-1.79.85Q161,69,161,66.47a3.69,3.69,0,0,1,.68-2.22,2.28,2.28,0,0,1,1.9-1.06,1.93,1.93,0,0,1,1.46.6A2.12,2.12,0,0,1,165.56,65.26Zm-.88.05a1.65,1.65,0,0,0-.32-1,.92.92,0,0,0-.74-.37,1.43,1.43,0,0,0-1,.42,2.57,2.57,0,0,0-.68,1.2,5.9,5.9,0,0,0,.67,0,9,9,0,0,0,2.07-.24Z"/></svg>