<?xml version="1.0" encoding="utf-8"?>
<!-- Generator: Adobe Illustrator 21.0.0, SVG Export Plug-In . SVG Version: 6.00 Build 0)  -->
<svg version="1.1" id="Layer_1" xmlns="http://www.w3.org/2000/svg" xmlns:xlink="http://www.w3.org/1999/xlink" x="0px" y="0px"
	 viewBox="0 0 512 512" style="enable-background:new 0 0 512 512;" xml:space="preserve">
<style type="text/css">
	.st0{fill:#7F7F7F;}
</style>
<g>
	<g>
		<path class="st0" d="M506,62.9c-2.6-1.2-63.9-29.3-126.7-29.3c-54.6,0-108.1,21.2-122.9,27.5c-14.8-6.3-68.4-27.5-123-27.5
			C70.5,33.6,8.5,61.7,6,62.9c-3.4,1.5-6,4.9-6,8.6v350.1c0,3.2,2.1,6.2,4.9,8c2.7,1.7,6.4,2,9.3,0.6c0.6-0.3,60.6-27.5,119.2-27.5
			s118.5,27.2,119.1,27.5c0,0,0.1,0,0.2,0.1c0.5,0.2,1.1,0.4,1.6,0.5c0.1,0,0.2,0.1,0.3,0.1c0.6,0.1,1.2,0.2,1.7,0.2
			c0.1,0,0.1,0,0.2,0c0.1,0,0.2,0,0.2,0c0.3,0,0.5,0,0.8-0.1c0.2,0,0.3,0,0.5-0.1c0.3,0,0.6-0.1,0.9-0.2c0.1,0,0.2-0.1,0.4-0.1
			c0.4-0.1,0.7-0.2,1.1-0.4c0,0,0.1,0,0.1,0c0,0,0,0,0,0c0.6-0.3,60.4-27.5,119.1-27.5s118.5,27.2,119.1,27.5c1.3,0.6,2.6,0.9,4,0.9
			c1.8,0,3.1-0.5,4.6-1.5c2.7-1.7,3.9-4.7,3.9-8V71.5C511,67.8,509.4,64.4,506,62.9z M246,407.4c-21.3-8.5-67.4-23.7-113.6-23.7
			s-89.9,15.2-113.6,23.7V77.7C35.5,71,84.2,52.5,132.5,52.5S231.8,71,246,77.7L246,407.4L246,407.4z M492.1,407.4
			c-21.3-8.5-67.4-23.7-113.6-23.7s-89.9,15.2-113.6,23.7V77.7c16.6-6.7,65.3-25.2,113.6-25.2c19.5,0,40.2,3,56.8,7.1v68.6
			c0,5.2,4.2,9.5,9.5,9.5s9.5-4.2,9.5-9.5V64.5c18.9,5,30.8,10.2,37.9,13.2L492.1,407.4L492.1,407.4z"/>
	</g>
</g>
<g>
	<g>
		<path class="st0" d="M213.4,157.6c-1.6-0.8-40.3-19.9-79.9-19.9s-78.3,19.1-79.9,19.9c-4.7,2.3-6.6,8-4.2,12.7
			c1.7,3.3,5,5.2,8.5,5.2c1.4,0,2.9-0.3,4.2-1c0.4-0.2,36.3-17.9,71.5-17.9c35.1,0,71.1,17.8,71.5,17.9c4.7,2.3,10.4,0.4,12.7-4.2
			C220,165.6,218.1,160,213.4,157.6z"/>
	</g>
</g>
<g>
	<g>
		<path class="st0" d="M213.4,233.3c-1.6-0.8-40.3-19.9-79.9-19.9s-78.3,19.1-79.9,19.9c-4.7,2.3-6.6,8-4.2,12.7
			c1.7,3.3,5,5.2,8.5,5.2c1.4,0,2.9-0.3,4.2-1c0.4-0.2,36.3-17.9,71.5-17.9c35.1,0,71.1,17.8,71.5,17.9c4.7,2.3,10.4,0.4,12.7-4.2
			C220,241.4,218.1,235.7,213.4,233.3z"/>
	</g>
</g>
<g>
	<g>
		<path class="st0" d="M213.4,309c-1.6-0.8-40.3-19.9-79.9-19.9S55.2,308.2,53.5,309c-4.7,2.3-6.6,8-4.2,12.7c1.7,3.3,5,5.2,8.5,5.2
			c1.4,0,2.9-0.3,4.2-1c0.4-0.2,36.3-17.9,71.5-17.9c35.1,0,71.1,17.8,71.5,17.9c4.7,2.3,10.4,0.4,12.7-4.2
			C220,317.1,218.1,311.4,213.4,309z"/>
	</g>
</g>
<g>
	<g>
		<path class="st0" d="M459.4,157.6c-1.6-0.8-40.3-19.9-79.9-19.9s-78.3,19.1-79.9,19.9c-4.7,2.3-6.6,8-4.2,12.7
			c1.7,3.3,5,5.2,8.5,5.2c1.4,0,2.9-0.3,4.2-1c0.4-0.2,36.3-17.9,71.5-17.9c35.1,0,71.1,17.8,71.5,17.9c4.7,2.3,10.4,0.4,12.7-4.2
			C466,165.6,464.1,160,459.4,157.6z"/>
	</g>
</g>
<g>
	<g>
		<path class="st0" d="M459.4,233.3c-1.6-0.8-40.3-19.9-79.9-19.9s-78.3,19.1-79.9,19.9c-4.7,2.3-6.6,8-4.2,12.7
			c1.7,3.3,5,5.2,8.5,5.2c1.4,0,2.9-0.3,4.2-1c0.4-0.2,36.3-17.9,71.5-17.9c35.1,0,71.1,17.8,71.5,17.9c4.7,2.3,10.4,0.4,12.7-4.2
			C466,241.4,464.1,235.7,459.4,233.3z"/>
	</g>
</g>
<g>
	<g>
		<path class="st0" d="M459.4,309c-1.6-0.8-40.3-19.9-79.9-19.9s-78.3,19.1-79.9,19.9c-4.7,2.3-6.6,8-4.2,12.7
			c1.7,3.3,5,5.2,8.5,5.2c1.4,0,2.9-0.3,4.2-1c0.4-0.2,36.3-17.9,71.5-17.9c35.1,0,71.1,17.8,71.5,17.9c4.7,2.3,10.4,0.4,12.7-4.2
			C466,317.1,464.1,311.4,459.4,309z"/>
	</g>
</g>
<g>
	<g>
		<path class="st0" d="M505.9,460.1c-3.2-1.2-77.9-29-126.3-29c-43.4,0-107.7,22.2-123,27.8c-15.4-5.5-79.7-27.8-123-27.8
			c-48.5,0-123.2,27.8-126.3,29c-4.9,1.8-7.4,7.3-5.5,12.2c1.4,3.8,5,6.1,8.9,6.1c1.1,0,2.2-0.2,3.3-0.6
			c0.7-0.3,74.6-27.8,119.7-27.8c45,0,119,27.5,119.7,27.8c0.1,0,0.1,0,0.2,0.1c1,0.4,2,0.6,3.1,0.6c0.1,0,0.2,0,0.3,0
			c0.2,0,0.3,0,0.5,0c0.4,0,0.8-0.1,1.2-0.2c0.2,0,0.4-0.1,0.6-0.2c0.2-0.1,0.5-0.1,0.7-0.2c0.7-0.3,74.6-27.8,119.7-27.8
			c45,0,119,27.5,119.7,27.8c4.9,1.8,10.3-0.6,12.2-5.5C513.2,467.4,510.7,461.9,505.9,460.1z"/>
	</g>
</g>
</svg>
