<?xml version="1.0" encoding="utf-8"?>
<!-- Generator: Adobe Illustrator 22.1.0, SVG Export Plug-In . SVG Version: 6.00 Build 0)  -->
<svg version="1.1" id="Layer_1" xmlns="http://www.w3.org/2000/svg" xmlns:xlink="http://www.w3.org/1999/xlink" x="0px" y="0px"
	 viewBox="0 0 96 85.7" style="enable-background:new 0 0 96 85.7;" xml:space="preserve">
<style type="text/css">
	.st0{fill:#32B475;}
</style>
<g>
	<g>
		<polygon class="st0" points="92.7,53 73.2,35.5 22.8,35.5 3.3,53 0.7,50.1 21.2,31.5 74.8,31.5 95.3,50.1 		"/>
	</g>
	<g>
		<path class="st0" d="M90,84.5H6c-3.3,0-6-2.7-6-6v-29h32v2c0,5,4,9,9,9h14c5,0,9-4,9-9v-2h32v29C96,81.9,93.3,84.5,90,84.5z
			 M4,53.5v25c0,1.1,0.9,2,2,2h84c1.1,0,2-0.9,2-2v-25H67.8c-1,6.2-6.4,11-12.8,11H41c-6.5,0-11.9-4.8-12.8-11H4z"/>
	</g>
	<g>
		<rect x="28.5" y="4.5" transform="matrix(0.8437 -0.5369 0.5369 0.8437 -1.1632 18.1019)" class="st0" width="4" height="13"/>
	</g>
	<g>
		<rect x="60" y="9" transform="matrix(0.5368 -0.8437 0.8437 0.5368 21.4845 61.2234)" class="st0" width="13" height="4"/>
	</g>
	<g>
		<rect x="46" y="2.5" class="st0" width="4" height="13"/>
	</g>
</g>
</svg>
