<svg id="dea88b5a-848e-4479-b58a-0ed242ff1722" data-name="Layer 1" xmlns="http://www.w3.org/2000/svg" viewBox="0 0 24.73 20"><title>needs-improvement-icon</title><path d="M16.52,9.54A.86.86,0,0,0,15.84,9a1.54,1.54,0,0,1-1.09-.69,1.5,1.5,0,0,1,0-1.28.87.87,0,0,0-.11-.9s-.16-.19-.45-.47-.49-.43-.49-.43A.91.91,0,0,0,13.2,5a.79.79,0,0,0-.4.1,1.74,1.74,0,0,1-.77.19,1.2,1.2,0,0,1-.51-.11,1.52,1.52,0,0,1-.74-1,.85.85,0,0,0-.63-.65L8.86,3.33h0a.87.87,0,0,0-.74.46,1.52,1.52,0,0,1-1,.81l-.2,0a1.61,1.61,0,0,1-1-.44A.88.88,0,0,0,5.28,4,.73.73,0,0,0,5,4l-1.15.62a.84.84,0,0,0-.36.82A1.52,1.52,0,0,1,3.15,6.7a1.44,1.44,0,0,1-1,.39h-.3a.87.87,0,0,0-.72.39L.53,8.63a.87.87,0,0,0,.2.88,1.53,1.53,0,0,1,.48,1.19,1.52,1.52,0,0,1-.78,1,.86.86,0,0,0-.43.79l.24,1.28a.86.86,0,0,0,.68.59A1.52,1.52,0,0,1,2,15.06a1.52,1.52,0,0,1,0,1.28.88.88,0,0,0,.11.9s.16.19.45.47.49.43.49.43a.85.85,0,0,0,.52.16.84.84,0,0,0,.4-.09A1.74,1.74,0,0,1,4.72,18a1.13,1.13,0,0,1,.52.11A1.54,1.54,0,0,1,6,19.18a.85.85,0,0,0,.62.65L7.89,20h0a.86.86,0,0,0,.74-.46,1.55,1.55,0,0,1,1-.82h.2a1.66,1.66,0,0,1,1,.43.85.85,0,0,0,.58.22.81.81,0,0,0,.31-.06l1.15-.61a.86.86,0,0,0,.35-.83,1.52,1.52,0,0,1,.32-1.24,1.43,1.43,0,0,1,1-.38h.3a.88.88,0,0,0,.72-.4l.57-1.17a.85.85,0,0,0-.2-.87,1.53,1.53,0,0,1-.48-1.19,1.55,1.55,0,0,1,.78-1,.87.87,0,0,0,.43-.79Zm-.61,1.35a2.36,2.36,0,0,0-1.18,1.63,2.29,2.29,0,0,0,.71,1.88h0l-.5,1h0l-.3,0a2.21,2.21,0,0,0-1.62.64A2.27,2.27,0,0,0,12.47,18v0l-1,.53h0a2.4,2.4,0,0,0-1.58-.65,2,2,0,0,0-.34,0,2.32,2.32,0,0,0-1.58,1.25h0L6.79,19h0a2.3,2.3,0,0,0-1.19-1.63,2,2,0,0,0-.87-.19,2.57,2.57,0,0,0-1.15.28h0s-.2-.16-.41-.36-.33-.34-.38-.38v0a2.3,2.3,0,0,0,0-2A2.31,2.31,0,0,0,1,13.57H1l-.2-1.12h0A2.28,2.28,0,0,0,2,10.81a2.27,2.27,0,0,0-.71-1.88v0l.5-1h.31a2.2,2.2,0,0,0,1.62-.63,2.28,2.28,0,0,0,.54-1.94h0l1-.54h0a2.39,2.39,0,0,0,1.58.66,2,2,0,0,0,.34,0A2.32,2.32,0,0,0,8.81,4.16h0L10,4.3h0a2.29,2.29,0,0,0,1.19,1.62,2,2,0,0,0,.87.2,2.49,2.49,0,0,0,1.15-.29h.05s.21.17.41.36l.38.39v0a2.31,2.31,0,0,0,0,2,2.33,2.33,0,0,0,1.69,1.11h0l.2,1.11Z" fill="#e9c075"/><path d="M8.38,7.78A3.92,3.92,0,0,0,5.54,9a3.86,3.86,0,0,0,.13,5.49,3.94,3.94,0,0,0,5.54-.12A3.88,3.88,0,0,0,8.38,7.78Zm2.23,6a3,3,0,0,1-2.23,1,3.09,3.09,0,0,1-2.14-.85,3,3,0,0,1-.1-4.34,3.11,3.11,0,0,1,4.37-.1,3,3,0,0,1,.1,4.34Z" fill="#e9c075"/><path d="M24.4,4.8A1.67,1.67,0,0,1,23.68,4a1.66,1.66,0,0,1,.23-1.08.47.47,0,0,0,0-.46l-.58-.78A.47.47,0,0,0,23,1.48h-.09a1.94,1.94,0,0,1-.48.06,1.3,1.3,0,0,1-.63-.15,1.71,1.71,0,0,1-.61-.93.48.48,0,0,0-.33-.33l-1-.14h0a.48.48,0,0,0-.39.21,1.71,1.71,0,0,1-.86.72.78.78,0,0,1-.22,0,2,2,0,0,1-.87-.26.52.52,0,0,0-.23,0,.44.44,0,0,0-.23.06l-.78.57a.49.49,0,0,0-.15.44A1.69,1.69,0,0,1,16,2.81a1.68,1.68,0,0,1-.94.6.54.54,0,0,0-.33.33l-.14,1a.51.51,0,0,0,.22.42,1.68,1.68,0,0,1,.71.84A1.66,1.66,0,0,1,15.33,7a.49.49,0,0,0,0,.47l.58.77a.49.49,0,0,0,.35.15h.09a2.42,2.42,0,0,1,.48-.05,1.17,1.17,0,0,1,.63.15,1.71,1.71,0,0,1,.61.93.46.46,0,0,0,.33.32l1,.15h0a.53.53,0,0,0,.4-.22A1.67,1.67,0,0,1,20.63,9a.78.78,0,0,1,.22,0,2,2,0,0,1,.87.26.41.41,0,0,0,.23.06.5.5,0,0,0,.24-.06L23,8.64a.52.52,0,0,0,.14-.44,1.72,1.72,0,0,1,.09-1.11,1.78,1.78,0,0,1,.94-.6.48.48,0,0,0,.33-.33l.14-1A.48.48,0,0,0,24.4,4.8Zm-.71,1a2.3,2.3,0,0,0-1.19.89,2.28,2.28,0,0,0-.24,1.47l-.35.25a2.62,2.62,0,0,0-1.06-.25,1.42,1.42,0,0,0-.42,0,2.24,2.24,0,0,0-1.21.87L18.79,9a2.27,2.27,0,0,0-.9-1.18,2,2,0,0,0-1.06-.27c-.16,0-.3,0-.42,0l-.26-.34a2.19,2.19,0,0,0,.21-1.47,2.28,2.28,0,0,0-.87-1.21l.06-.42a2.32,2.32,0,0,0,1.2-.89A2.28,2.28,0,0,0,17,1.77l.35-.26a2.46,2.46,0,0,0,1.06.26,1.86,1.86,0,0,0,.42-.05A2.31,2.31,0,0,0,20,.85l.42.06a2.33,2.33,0,0,0,.9,1.19,2,2,0,0,0,1.06.27c.16,0,.31,0,.42,0l.26.34a2.24,2.24,0,0,0-.21,1.47,2.24,2.24,0,0,0,.88,1.21Z" fill="#e9c075"/><path d="M20.63,3.29a2,2,0,0,0-1-.27A2,2,0,0,0,18,4a1.95,1.95,0,0,0,1.67,2.94A2,2,0,0,0,21.29,6,1.93,1.93,0,0,0,20.63,3.29Zm0,2.24a1.13,1.13,0,0,1-1,.54,1.12,1.12,0,0,1,0-2.24A1.15,1.15,0,0,1,20.2,4,1.12,1.12,0,0,1,20.59,5.53Z" fill="#e9c075"/></svg>