<svg id="bd309d65-ff26-4c1d-b979-31bca22edb18" data-name="Layer 1" xmlns="http://www.w3.org/2000/svg" viewBox="0 0 20 20"><title>not-accepted-icon</title><path d="M10,0A10,10,0,1,0,20,10,10,10,0,0,0,10,0Zm0,1.18A8.82,8.82,0,1,1,1.18,10,8.81,8.81,0,0,1,10,1.18ZM6.47,5.59A1.47,1.47,0,1,0,7.94,7.06,1.47,1.47,0,0,0,6.47,5.59Zm7.06,0A1.47,1.47,0,1,0,15,7.06,1.47,1.47,0,0,0,13.53,5.59ZM10,11.18a5.7,5.7,0,0,0-4.6,2.29.59.59,0,0,0,.14.83.58.58,0,0,0,.82-.14,4.57,4.57,0,0,1,7.28,0,.58.58,0,0,0,.82.14.59.59,0,0,0,.14-.83A5.7,5.7,0,0,0,10,11.18Z" fill="#e9c075"/><path d="M10,0A10,10,0,1,0,20,10,10,10,0,0,0,10,0Zm0,1.18A8.82,8.82,0,1,1,1.18,10,8.81,8.81,0,0,1,10,1.18ZM6.47,5.59A1.47,1.47,0,1,0,7.94,7.06,1.47,1.47,0,0,0,6.47,5.59Zm7.06,0A1.47,1.47,0,1,0,15,7.06,1.47,1.47,0,0,0,13.53,5.59ZM10,11.18a5.7,5.7,0,0,0-4.6,2.29.59.59,0,0,0,.14.83.58.58,0,0,0,.82-.14,4.57,4.57,0,0,1,7.28,0,.58.58,0,0,0,.82.14.59.59,0,0,0,.14-.83A5.7,5.7,0,0,0,10,11.18Z" fill="#cc5542"/></svg>