<svg id="d957d8c5-2db4-4faf-b1c3-27a1a60aeeb6" data-name="Layer 1" xmlns="http://www.w3.org/2000/svg" viewBox="0 0 20 20"><title>verified-icon</title><path d="M14.11,6.73,9.22,11.91,6.73,9.55l-.66.7,3.18,3L14.8,7.39Z" fill="#0f9d58"/><path d="M10.12.42A1.85,1.85,0,0,0,9,.84a5.29,5.29,0,0,0-.78.79A4.55,4.55,0,0,1,7,2.84a4.69,4.69,0,0,1-1.75,0,5.32,5.32,0,0,0-1.13,0A1.8,1.8,0,0,0,3,3.24a1.61,1.61,0,0,0-.49,1,4.32,4.32,0,0,0,0,1.08A4.24,4.24,0,0,1,2.56,7,4.55,4.55,0,0,1,1.28,8.22,5.23,5.23,0,0,0,.45,9,1.7,1.7,0,0,0,0,10a1.58,1.58,0,0,0,.42,1.06,5.16,5.16,0,0,0,.82.73A4.56,4.56,0,0,1,2.48,13a4.09,4.09,0,0,1,0,1.69,4.25,4.25,0,0,0-.05,1.07,1.64,1.64,0,0,0,.46,1,1.76,1.76,0,0,0,1.09.45,5.23,5.23,0,0,0,1.12,0,5,5,0,0,1,1.76,0A4.52,4.52,0,0,1,8,18.38a4.66,4.66,0,0,0,.75.79,1.81,1.81,0,0,0,1.11.41A1.84,1.84,0,0,0,11,19.17a5.88,5.88,0,0,0,.78-.8A4.55,4.55,0,0,1,13,17.16a4.69,4.69,0,0,1,1.75,0,5.32,5.32,0,0,0,1.13,0A1.79,1.79,0,0,0,17,16.77a1.72,1.72,0,0,0,.5-1,4.85,4.85,0,0,0,0-1.08,4.24,4.24,0,0,1,0-1.68,4.55,4.55,0,0,1,1.28-1.18,5.23,5.23,0,0,0,.83-.73A1.7,1.7,0,0,0,20,10a1.62,1.62,0,0,0-.42-1.07,5.57,5.57,0,0,0-.81-.73A4.34,4.34,0,0,1,17.52,7a4.09,4.09,0,0,1,.05-1.69,4.25,4.25,0,0,0,.05-1.07,1.64,1.64,0,0,0-.46-1,1.76,1.76,0,0,0-1.09-.45A5.23,5.23,0,0,0,15,2.8a4.75,4.75,0,0,1-1.76,0A4.38,4.38,0,0,1,12,1.62a5.06,5.06,0,0,0-.75-.79A1.79,1.79,0,0,0,10.12.42Zm0,.94a.75.75,0,0,1,.49.2,4.79,4.79,0,0,1,.61.64,4.12,4.12,0,0,0,1.6,1.49,4.48,4.48,0,0,0,2.24,0,5,5,0,0,1,.91,0,.75.75,0,0,1,.5.19.67.67,0,0,1,.19.48,4.55,4.55,0,0,1,0,.86,4.06,4.06,0,0,0,0,2.16,4.24,4.24,0,0,0,1.54,1.55,4,4,0,0,1,.66.58A.67.67,0,0,1,19,10a.69.69,0,0,1-.22.48,4.65,4.65,0,0,1-.67.59,4.27,4.27,0,0,0-1.58,1.55,3.86,3.86,0,0,0-.07,2.15,4.36,4.36,0,0,1,0,.87.69.69,0,0,1-.2.48.75.75,0,0,1-.5.19,4.85,4.85,0,0,1-.91,0,4.53,4.53,0,0,0-2.25,0A4.34,4.34,0,0,0,11,17.8a4.24,4.24,0,0,1-.62.64.7.7,0,0,1-1,0,4.79,4.79,0,0,1-.61-.64,4.2,4.2,0,0,0-1.6-1.49,4.52,4.52,0,0,0-2.25,0,4.11,4.11,0,0,1-.9,0,.75.75,0,0,1-.5-.19.67.67,0,0,1-.19-.48,4.55,4.55,0,0,1,0-.86,4.06,4.06,0,0,0,0-2.16,4.24,4.24,0,0,0-1.54-1.55,4,4,0,0,1-.66-.58A.72.72,0,0,1,1,10a.69.69,0,0,1,.22-.47A4.11,4.11,0,0,1,1.87,9,4.29,4.29,0,0,0,3.45,7.4a4,4,0,0,0,.08-2.15,3.78,3.78,0,0,1,0-.87.71.71,0,0,1,.2-.48.75.75,0,0,1,.5-.19,4.2,4.2,0,0,1,.91,0,4.65,4.65,0,0,0,2.25,0A4.4,4.4,0,0,0,9,2.21a3.92,3.92,0,0,1,.62-.65.82.82,0,0,1,.49-.2Z" fill="#0f9d58"/></svg>