<svg id="Capa_1" data-name="Capa 1" xmlns="http://www.w3.org/2000/svg" viewBox="0 0 95.55 95.54"><defs><style>.cls-1{fill:#fff;}</style></defs><title>tour-icon</title><path class="cls-1" d="M65.95,29.69c-1.9-.52-6.47-1.33-6.47-1.33s-6.23-4.95-11.72-4.95-11.7,4.95-11.7,4.95-4.56.81-6.47,1.33A22.18,22.18,0,0,1,41.4,61.42H54.14A22.18,22.18,0,0,1,65.95,29.69Z"/><path class="cls-1" d="M20.75,30.64A20.75,20.75,0,1,0,41.5,51.38,20.77,20.77,0,0,0,20.75,30.64Zm0,33.85a13.1,13.1,0,1,1,13.1-13.1A13.12,13.12,0,0,1,20.75,64.49Z"/><path class="cls-1" d="M12.29,44.78a9.61,9.61,0,0,0,.33,12.15A11.56,11.56,0,0,1,24.12,42,9.61,9.61,0,0,0,12.29,44.78Z"/><path class="cls-1" d="M74.8,30.64A20.75,20.75,0,1,0,95.55,51.38,20.77,20.77,0,0,0,74.8,30.64Zm0,33.85a13.1,13.1,0,1,1,13.1-13.1A13.12,13.12,0,0,1,74.8,64.49Z"/><path class="cls-1" d="M71.43,42a11.56,11.56,0,0,1,11.5,14.91A9.61,9.61,0,0,0,71.43,42Z"/></svg>