<svg xmlns="http://www.w3.org/2000/svg" viewBox="0 0 339.25 134.54"><defs><style>.cls-1{fill:#eff5f8;}.cls-2{fill:#cdebfc;}.cls-3{fill:#3273ad;}.cls-4{fill:#fff8d9;}.cls-5{fill:#0aa5e3;}.cls-6{fill:#ffefe9;}.cls-7{fill:#fad264;}.cls-8{fill:#ede0d6;}.cls-9{fill:#fff;}.cls-10{fill:#fff6f3;}.cls-11{fill:#ead9ce;}.cls-12{opacity:0.5;}.cls-13{fill:#32b475;}.cls-14{fill:#e3b462;}</style></defs><title>alumni_2</title><g id="Layer_2" data-name="Layer 2"><g id="Layer_1-2" data-name="Layer 1"><path class="cls-1" d="M323,89.38h-35.7a3.14,3.14,0,0,0,0,6.27H292a3.14,3.14,0,0,1,0,6.27H281.79a3.14,3.14,0,0,0,0,6.27h35.7a3.14,3.14,0,1,0,0-6.27h-9.74a3.14,3.14,0,0,1,0-6.27H323a3.14,3.14,0,1,0,0-6.27Z"/><path class="cls-1" d="M3.09,111.18H44.21a3.09,3.09,0,1,0,0-6.18H33.66a3.09,3.09,0,0,1,0-6.18h6.6a3.09,3.09,0,0,0,0-6.18H13.64a3.09,3.09,0,1,0,0,6.18h4.47a3.09,3.09,0,0,1,0,6.18h-15a3.09,3.09,0,1,0,0,6.18Z"/><path class="cls-1" d="M285.75,62.46H327a3.1,3.1,0,1,0,0-6.2H316.45a3.1,3.1,0,1,1,0-6.2h6.63a3.1,3.1,0,1,0,0-6.2H296.34a3.1,3.1,0,1,0,0,6.2h4.49a3.1,3.1,0,1,1,0,6.2H285.75a3.1,3.1,0,1,0,0,6.2Z"/><path class="cls-1" d="M40.66,68.42H69.45a2.16,2.16,0,0,0,0-4.33H62.07a2.16,2.16,0,0,1,0-4.33h4.62a2.16,2.16,0,0,0,0-4.33H48a2.16,2.16,0,0,0,0,4.33h3.13a2.16,2.16,0,0,1,0,4.33H40.66a2.16,2.16,0,1,0,0,4.33Z"/><path class="cls-2" d="M291,32.56h0l10-.45a1.16,1.16,0,0,0,.73-.1,1.2,1.2,0,0,0,.36-.87c0-.07,0-.13,0-.16a8.69,8.69,0,0,1,.34-1,6.56,6.56,0,0,1,.89-1.54,5.56,5.56,0,0,1,2.34-1.73,6.88,6.88,0,0,1,2.26-.45,7.46,7.46,0,0,1,.83,0,1.25,1.25,0,0,0,.67,0c.35-.13.48-.52.71-1.46,0-.15.07-.27.09-.34a17.94,17.94,0,0,1,1-2.28,11.87,11.87,0,0,1,2.28-3.15,8.76,8.76,0,0,1,5.19-2.42,11.55,11.55,0,0,1,10.6,5.07,12.59,12.59,0,0,1,1.87,7.8.48.48,0,0,0,.95.1,13.57,13.57,0,0,0-2-8.41,12.37,12.37,0,0,0-11.5-5.5,9.7,9.7,0,0,0-5.75,2.68,12.8,12.8,0,0,0-2.46,3.4,18.81,18.81,0,0,0-1,2.4c0,.08-.07.23-.11.42s-.13.52-.2.74l-.19,0a9,9,0,0,0-.93,0,7.85,7.85,0,0,0-2.57.52,6.52,6.52,0,0,0-2.74,2,7.48,7.48,0,0,0-1,1.77,9.69,9.69,0,0,0-.38,1.11c0,.06,0,.16-.05.27l0,.17H301l-10,.45a.47.47,0,0,0,0,.95Z"/><path class="cls-2" d="M154.16,16.25H160a.47.47,0,0,0,.47-.49,4.27,4.27,0,0,1,1.14-3.26c1.77-1.82,5-1.8,5-1.81a.53.53,0,0,0,.36-.16.48.48,0,0,0,.11-.38,9.84,9.84,0,0,1,2-6.76A7.79,7.79,0,0,1,175.26,1,7.2,7.2,0,0,1,180.66,3c2.4,2.51,2.26,6.5,2.26,6.54a.48.48,0,0,0,.19.4.48.48,0,0,0,.44.07,6.65,6.65,0,0,1,5.61.26c2.84,1.65,3.64,5.54,3.65,5.58a.48.48,0,0,0,.47.38h11.42a.48.48,0,0,0,0-1h-11c-.29-1.1-1.32-4.27-4-5.83a7.29,7.29,0,0,0-5.78-.53,10.44,10.44,0,0,0-2.51-6.57A8.1,8.1,0,0,0,175.27,0a8.72,8.72,0,0,0-6.86,2.75,10.73,10.73,0,0,0-2.31,7,8.31,8.31,0,0,0-5.19,2.08,5.06,5.06,0,0,0-1.41,3.47h-5.33a.48.48,0,1,0,0,1Z"/><path class="cls-2" d="M35.41,34.14h2.9a.24.24,0,0,0,.24-.25,2.14,2.14,0,0,1,.57-1.63,4,4,0,0,1,2.5-.91.26.26,0,0,0,.18-.08.24.24,0,0,0,.06-.19,4.92,4.92,0,0,1,1-3.38A3.89,3.89,0,0,1,46,26.49a3.6,3.6,0,0,1,2.7,1,5,5,0,0,1,1.13,3.27.24.24,0,0,0,.09.2.24.24,0,0,0,.22,0,3.32,3.32,0,0,1,2.81.13,4.61,4.61,0,0,1,1.82,2.79.24.24,0,0,0,.23.19h5.71a.24.24,0,1,0,0-.48H55.15a4.88,4.88,0,0,0-2-2.92,3.64,3.64,0,0,0-2.89-.26A5.22,5.22,0,0,0,49,27.2,4.05,4.05,0,0,0,46,26a4.36,4.36,0,0,0-3.43,1.38,5.36,5.36,0,0,0-1.16,3.5,4.15,4.15,0,0,0-2.59,1,2.53,2.53,0,0,0-.71,1.73H35.41a.24.24,0,0,0,0,.48Z"/><path class="cls-3" d="M24.17,134.54H18.91c-.26,0-.47-.1-.47-.23s.21-.23.47-.23h5.25c.26,0,.47.1.47.23S24.43,134.54,24.17,134.54Z"/><path class="cls-3" d="M318.51,134.54h-290c-.28,0-.5-.11-.5-.25s.22-.25.5-.25h290c.28,0,.5.11.5.25S318.78,134.54,318.51,134.54Z"/><path class="cls-3" d="M327.51,134.54h-3.62c-.28,0-.5-.11-.5-.25s.22-.25.5-.25h3.62c.28,0,.5.11.5.25S327.78,134.54,327.51,134.54Z"/><circle class="cls-4" cx="74.58" cy="88.36" r="21.44" transform="translate(-2.15 1.86) rotate(-1.41)"/><path class="cls-3" d="M75.12,110.2a21.84,21.84,0,1,1,21.3-22.37A21.87,21.87,0,0,1,75.12,110.2ZM74.07,67.32A21,21,0,1,0,95.62,87.84,21.07,21.07,0,0,0,74.07,67.32Z"/><path class="cls-5" d="M62.81,90.71s-8.58-.1-6.3-6.35c0,0,2.75-1.9,4.39-1.22,0,0-14.66-10.42-.52-14.65,0,0,3.21-16,21.48-6.55,0,0,17.9-6.47,6.65,21.63,0,0,4.8-1.64,5.76.57s-1,5.6-6.92,5.09"/><path class="cls-3" d="M62.81,91c-.19,0-4.66-.08-6.37-2.57a4.46,4.46,0,0,1-.25-4.24l0-.1.09-.06a8.85,8.85,0,0,1,3.42-1.41c-2-1.63-6.41-5.66-5.79-9.39.37-2.22,2.43-3.92,6.15-5.07.26-1.1,1.73-6.24,6.5-8.53,4-1.91,9.13-1.28,15.3,1.88.93-.31,5.89-1.75,8.75,1.21,3,3.12,2.5,9.94-1.55,20.27,1.43-.38,4.65-1,5.5,1a3.38,3.38,0,0,1-.44,3.34c-1.21,1.69-3.7,2.5-6.82,2.23l.06-.68c2.88.25,5.14-.46,6.21-1.95A2.7,2.7,0,0,0,94,84.28c-.69-1.58-4.09-.81-5.34-.38l-.7.24.28-.69c4.11-10.27,4.79-17.26,2-20.19s-8.12-1-8.17-1l-.14.05-.13-.07c-6-3.12-11-3.77-14.82-1.94-4.94,2.37-6.16,8.19-6.17,8.25l0,.2-.2.06c-3.56,1.07-5.53,2.61-5.86,4.58-.71,4.3,6.41,9.41,6.48,9.46l2.42,1.72-2.75-1.12c-1.16-.47-3.18.6-4,1.13A3.77,3.77,0,0,0,57,88.1c1.52,2.2,5.77,2.27,5.82,2.27Z"/><path class="cls-6" d="M88.94,73.61c-.14,2.74-13.09,4.59-19,1,0,0-4.46,4.37-8.71.92,0,0-1.45-1.6-1.52,0,0,0,2.74,29.83,15.33,28.66,0,0,14.15,2.34,13.87-30.6"/><path class="cls-3" d="M75.85,104.59a5.14,5.14,0,0,1-.79,0,8,8,0,0,1-5.93-2c-3.27-2.72-5.9-8.09-7.82-16a85.91,85.91,0,0,1-1.91-11c0-.61.21-1,.54-1.07.62-.22,1.36.54,1.58.78,3.93,3.18,8.17-.9,8.22-.94l.19-.19.23.14c4.54,2.79,13.87,2.26,17.32.44.71-.37,1.11-.78,1.12-1.14h.68c.15,18.07-4.09,25.52-7.68,28.59A9.24,9.24,0,0,1,75.85,104.59Zm-.77-.72h0a8.12,8.12,0,0,0,6.06-2.21c3.39-2.91,7.38-9.94,7.42-26.86a4.53,4.53,0,0,1-.81.53C84.18,77.24,74.89,77.82,70,75c-.94.81-5,3.95-9,.77a1.9,1.9,0,0,0-.88-.62.75.75,0,0,0-.09.41c0,.16,1.94,20.23,9.48,26.49A7.29,7.29,0,0,0,75,103.87Z"/><path class="cls-3" d="M75.12,90.75H75c-2.14-.18-2.63-2.56-2.65-2.66L73,88c0,.08.41,2,2,2.1h0a2.7,2.7,0,0,0,1.81-.63,1.89,1.89,0,0,0,.46-1.51l.68,0a2.54,2.54,0,0,1-.66,2A3.27,3.27,0,0,1,75.12,90.75Z"/><circle class="cls-3" cx="67.12" cy="86.13" r="1.02" transform="translate(-2.1 1.67) rotate(-1.41)"/><circle class="cls-3" cx="81.73" cy="85.78" r="1.02" transform="translate(-2.08 2.03) rotate(-1.41)"/><path class="cls-3" d="M76.32,98.28h0c-3,.07-5.27-2.48-5.36-2.58l.51-.45s2.15,2.42,4.84,2.35h0A5.87,5.87,0,0,0,80.68,95l.53.43A6.51,6.51,0,0,1,76.32,98.28Z"/><path class="cls-3" d="M63.48,85.38l-.6-.33c0-.05,2.8-5,8.15-2.64l-.28.63A5.52,5.52,0,0,0,63.48,85.38Z"/><path class="cls-3" d="M85.36,82.71A3.43,3.43,0,0,0,83.06,81a5.63,5.63,0,0,0-3.79,1.13l-.42-.54a6.23,6.23,0,0,1,4.33-1.26,4.08,4.08,0,0,1,2.76,2Z"/><polygon class="cls-3" points="74.88 99.51 73.82 101.35 78.61 101.23 77.9 99.44 74.88 99.51"/><path class="cls-7" d="M83.24,57.06l5.43-10.47-11.32,4-4.89-11L68.53,51,56.9,48l6.32,10a20.51,20.51,0,0,1,20-.87Z"/><path class="cls-3" d="M63.22,58.17a.25.25,0,0,1-.21-.12l-6.32-10a.25.25,0,0,1,.27-.38l11.4,3,3.85-11.14a.25.25,0,0,1,.23-.17.24.24,0,0,1,.24.15l4.8,10.76,11.11-3.93a.25.25,0,0,1,.27.07.25.25,0,0,1,0,.28L83.46,57.17a.25.25,0,0,1-.33.11,20.26,20.26,0,0,0-19.77.86A.25.25,0,0,1,63.22,58.17Zm-5.77-9.81,5.84,9.22a20.76,20.76,0,0,1,19.83-.86l5-9.69-10.73,3.8a.25.25,0,0,1-.31-.13L72.48,40.3,68.77,51.06a.25.25,0,0,1-.3.16Z"/><circle class="cls-4" cx="143.61" cy="77.85" r="23.14" transform="translate(62.61 219.71) rotate(-88.73)"/><path class="cls-3" d="M143.09,101.41a23.57,23.57,0,1,1,24.08-23A23.59,23.59,0,0,1,143.09,101.41Zm1-46.26a22.71,22.71,0,1,0,22.2,23.2A22.73,22.73,0,0,0,144.12,55.15Z"/><path class="cls-5" d="M127.47,75.83s-2.55-.67-2.46-9.31c0,0-7.12-1.84-2.24-11.27s30-17.23,32.63-1.07c0,0,14.16-1.18,4.51,21.07"/><path class="cls-3" d="M127.46,76.27h-.1c-.29-.08-2.81-1-2.79-9.41a6,6,0,0,1-3.42-3.12c-1-2.24-.59-5.15,1.23-8.66,3.37-6.51,15.4-11.77,23.85-10.42,3.7.59,8.31,2.65,9.52,9.11a7.85,7.85,0,0,1,6.39,3c2.58,3.6,2,9.88-1.84,18.66a.43.43,0,1,1-.79-.34c3.63-8.36,4.3-14.52,1.94-17.81-2.11-2.95-6-2.66-6-2.66a.42.42,0,0,1-.46-.36c-1-6.24-5.38-8.21-8.87-8.77-8.14-1.3-19.72,3.73-22.95,10-1.69,3.27-2.1,5.93-1.21,7.91a5.23,5.23,0,0,0,3.17,2.74.43.43,0,0,1,.32.42c-.08,7.94,2.12,8.88,2.14,8.89a.43.43,0,0,1-.12.85Z"/><circle class="cls-3" cx="151.13" cy="76.36" r="1.15" transform="translate(71.45 225.76) rotate(-88.73)"/><path class="cls-8" d="M155,56.76s-8.77,9.94-25.77,5.59c0,0-1.58-.43-1.91,5.33s-.59,26.82,13.9,27.54,21-13.25,17.92-28.43c0,0-1.25-8-4.4-7.65Z"/><path class="cls-3" d="M141.85,95.68l-.6,0a12.18,12.18,0,0,1-8.77-4.09c-5.86-6.51-5.83-18.89-5.54-23.91.17-3,.71-4.87,1.6-5.51a1,1,0,0,1,.85-.21c16.55,4.23,25.25-5.36,25.33-5.46a.43.43,0,0,1,.75.33l-.2,1.91c3.07.37,4.22,7.2,4.35,8,1.85,9.21.19,17.92-4.44,23.3A16.47,16.47,0,0,1,141.85,95.68Zm-12.68-32.9s-1.1.18-1.37,4.93c-.28,4.91-.32,17,5.32,23.28a11.35,11.35,0,0,0,8.17,3.8,15.8,15.8,0,0,0,13.23-5.33c4.46-5.17,6-13.62,4.25-22.58-.33-2.13-1.67-7.55-3.93-7.31a.42.42,0,0,1-.35-.12.43.43,0,0,1-.13-.35l.13-1.21C151.84,60.22,143.22,66.37,129.17,62.77Z"/><rect class="cls-9" x="130.36" y="71.65" width="11.33" height="8.74" rx="4.37" ry="4.37" transform="translate(1.71 -2.99) rotate(1.27)"/><path class="cls-3" d="M137.21,80.86l-2.58-.06a4.8,4.8,0,1,1,.21-9.61l2.58.06a4.8,4.8,0,1,1-.21,9.61Zm-2.39-8.8a3.94,3.94,0,1,0-.17,7.88l2.58.06a3.94,3.94,0,1,0,.17-7.88Z"/><rect class="cls-9" x="145.47" y="71.99" width="11.33" height="8.74" rx="4.37" ry="4.37" transform="translate(1.72 -3.32) rotate(1.27)"/><path class="cls-3" d="M152.32,81.19l-2.58-.06a4.8,4.8,0,0,1,.21-9.61l2.58.06a4.8,4.8,0,0,1-.21,9.61Zm-2.39-8.8a3.94,3.94,0,0,0-.17,7.88l2.58.06a3.94,3.94,0,1,0,.17-7.88Z"/><path class="cls-9" d="M138.12,85l10.3.23s-.11,5-5.19,4.82S138.07,86.92,138.12,85Z"/><path class="cls-3" d="M143.29,90.5h-.07c-5.65-.17-5.57-3.9-5.54-5.49a.43.43,0,0,1,.44-.42l10.3.23a.43.43,0,0,1,.42.44,6.07,6.07,0,0,1-1.69,3.92A5.23,5.23,0,0,1,143.29,90.5Zm-4.75-5c0,1.61.32,4,4.71,4.18h.06a4.41,4.41,0,0,0,3.26-1.09,5,5,0,0,0,1.38-2.88Z"/><path class="cls-3" d="M155.65,69.53a.43.43,0,0,1-.37-.23,3.12,3.12,0,0,0-1.89-1.66,5.45,5.45,0,0,0-3.65.6.43.43,0,0,1-.43-.75,6.28,6.28,0,0,1,4.31-.68A4,4,0,0,1,156,68.9a.43.43,0,0,1-.39.63Z"/><path class="cls-3" d="M131.81,69a.43.43,0,0,1-.36-.66c1.79-2.94,5.83-1.79,7.73-.78a.43.43,0,0,1-.41.76s-4.77-2.51-6.58.47A.43.43,0,0,1,131.81,69Z"/><path class="cls-3" d="M145.46,76.66a.43.43,0,0,1-.39-.27c-.29-.72-.65-1.11-1.07-1.17-.74-.1-1.68.82-2,1.19a.43.43,0,0,1-.68-.54c.14-.17,1.37-1.7,2.77-1.51.74.1,1.33.68,1.75,1.7a.43.43,0,0,1-.41.59Z"/><circle class="cls-3" cx="135.23" cy="76.01" r="1.15" transform="translate(56.26 209.53) rotate(-88.73)"/><circle class="cls-3" cx="151.13" cy="76.36" r="1.15" transform="translate(71.45 225.76) rotate(-88.73)"/><path class="cls-3" d="M156.86,76.92a.43.43,0,0,1-.29-.74l2.82-2.7a.43.43,0,0,1,.6.62l-2.82,2.7A.43.43,0,0,1,156.86,76.92Z"/><path class="cls-3" d="M130.32,77a.43.43,0,0,1-.3-.13l-2.7-2.82a.43.43,0,0,1,.62-.6l2.7,2.82a.43.43,0,0,1-.32.73Z"/><path class="cls-7" d="M155.72,43.76l7.88-13-14.93,4.21L143.3,20.39l-6,14.3-14.73-4.87,7.3,13.37a26.48,26.48,0,0,1,25.87.57Z"/><path class="cls-3" d="M155.72,44a.23.23,0,0,1-.12,0A26.24,26.24,0,0,0,130,43.4a.24.24,0,0,1-.33-.1l-7.3-13.37a.24.24,0,0,1,.29-.35l14.52,4.8,5.93-14.09a.22.22,0,0,1,.23-.15.24.24,0,0,1,.22.16l5.3,14.34,14.71-4.15a.24.24,0,0,1,.27.36l-7.88,13A.24.24,0,0,1,155.72,44Zm-13.44-4.15h.59a26.74,26.74,0,0,1,12.77,3.57l7.44-12.31-14.34,4a.24.24,0,0,1-.29-.15l-5.16-14-5.78,13.73a.24.24,0,0,1-.3.14l-14.15-4.68,6.89,12.63A26.74,26.74,0,0,1,142.28,39.85Z"/><circle class="cls-4" cx="210.44" cy="100.69" r="21.49" transform="translate(-8.29 19.57) rotate(-5.22)"/><path class="cls-3" d="M212.43,122.49a21.89,21.89,0,1,1,19.8-23.79A21.91,21.91,0,0,1,212.43,122.49Zm-3.91-42.8a21.09,21.09,0,1,0,22.92,19.08A21.11,21.11,0,0,0,208.52,79.69Z"/><path class="cls-5" d="M226.67,83.63l-1.48,10.65s-20.71-13.71-31,5.64c0,0-12.48-25.5,13.23-27.85C213.47,71.51,222.46,72.09,226.67,83.63Z"/><path class="cls-3" d="M194.14,100.68l-.29-.6a35.45,35.45,0,0,1-2.39-7.14c-.83-3.75-1.29-9.15,1.17-13.53s7.45-7,14.73-7.68C211,71.39,222.2,70.37,227,83.51l0,.08-1.57,11.28-.45-.3c-.1-.07-10-6.48-19.25-4.13-4.72,1.2-8.52,4.44-11.3,9.65Zm13.27-28.26c-7,.64-11.82,3.11-14.19,7.33-3.93,7-.14,16.87,1,19.42,2.84-5,6.68-8.19,11.4-9.39,8.43-2.14,17.26,2.7,19.34,3.94l1.4-10C222.17,72.41,213.55,71.85,207.41,72.41Z"/><path class="cls-3" d="M224.84,102.42l-.2-.65c2.17-.66,3.33-1.52,3.45-2.53.19-1.6-2.29-3.45-3.27-4l.35-.59c.16.09,3.88,2.32,3.6,4.69C228.61,100.63,227.29,101.67,224.84,102.42Z"/><path class="cls-10" d="M194.15,99.92s-3,4.94,3.09,6"/><path class="cls-10" d="M225.77,95.79s5.47,3.92-1,6"/><path class="cls-3" d="M196.38,106.3c-1.78-.43-2.9-1.24-3.34-2.4-.73-1.93.77-4.09.83-4.18l.56.39s-1.35,2-.75,3.54c.35.93,1.31,1.59,2.86,2Z"/><path class="cls-5" d="M204.29,111.57l-9,.93-.37-7.08a26.75,26.75,0,0,0,3.2,1.08h0"/><path class="cls-3" d="M195,112.88l-.41-8,.51.22a26.66,26.66,0,0,0,3.15,1.07l.8.22-.18.66-.8-.22a28.06,28.06,0,0,1-2.74-.9l.32,6.19,8.63-.89.07.68Z"/><path class="cls-5" d="M219.75,108.7l8.67-.79-2.55-6.21s-1.88-.06-2.88,2.91"/><path class="cls-3" d="M228.92,108.2l-9.13.83-.06-.68,8.21-.75-2.28-5.54c-.47.09-1.62.53-2.34,2.65l-.65-.22c1.07-3.17,3.13-3.14,3.22-3.14h.22Z"/><path class="cls-10" d="M194.15,99.92s5.66,14,16.59,12.68,15-10.66,14.45-18.32l-2.09-5.59-4.87.44-5.08-9.53L212,88.12,194.83,92Z"/><path class="cls-3" d="M210.39,113c-10.8,1-16.49-12.8-16.55-12.94l0-.08.7-8.28,17.19-3.85L213,78.51l5.47,10.26,4.9-.45,2.2,5.89v.05c.55,8.05-3.83,17.34-14.75,18.69ZM194.5,99.87c.46,1.08,6.07,13.66,16.2,12.4,10.46-1.29,14.66-10.18,14.16-17.91l-2-5.3-4.83.44-4.69-8.79-1,7.7-17.16,3.85Z"/><path class="cls-3" d="M213.61,94.24l-.39-.56a12.65,12.65,0,0,1,7.41-2.11l-.05.68A12.12,12.12,0,0,0,213.61,94.24Z"/><path class="cls-3" d="M198.26,96.49l-.47-.5c4-3.79,7.54-2.44,7.69-2.38l-.25.64C205.09,94.2,201.91,93,198.26,96.49Z"/><path class="cls-3" d="M210.17,102.91a4.49,4.49,0,0,1-3-1.33l.48-.49s1.39,1.35,2.59,1.11c.57-.12,1-.59,1.37-1.41l.63.26a2.69,2.69,0,0,1-1.87,1.82Z"/><path class="cls-3" d="M211.59,108.74a5.39,5.39,0,0,1-3.44-1l.42-.54a4.26,4.26,0,0,0,5.89-.79l.51.46A5.17,5.17,0,0,1,211.59,108.74Z"/><circle class="cls-3" cx="203.08" cy="98.36" r="1.09" transform="translate(-8.11 18.9) rotate(-5.22)"/><circle class="cls-3" cx="216.99" cy="97.09" r="1.09" transform="translate(-7.94 20.16) rotate(-5.22)"/><path class="cls-7" d="M218.82,69.83l6.15-13-13.64,5.4L204.88,49l-4.28,14-14.32-3.16,8.15,11.87a25,25,0,0,1,24.39-2Z"/><path class="cls-3" d="M194.44,72a.25.25,0,0,1-.21-.11l-8.15-11.87a.25.25,0,0,1,.26-.39l14.1,3.11L204.64,49a.25.25,0,0,1,.46,0l6.36,13,13.42-5.32a.25.25,0,0,1,.27.06.25.25,0,0,1,0,.28l-6.16,13a.25.25,0,0,1-.33.12A24.78,24.78,0,0,0,194.58,72,.25.25,0,0,1,194.44,72Zm-7.59-11.74,7.66,11.15a25.29,25.29,0,0,1,24.2-1.94l5.78-12.23-13,5.17a.25.25,0,0,1-.32-.12l-6.18-12.6-4.09,13.42a.25.25,0,0,1-.29.17Z"/><circle class="cls-4" cx="269.92" cy="80.48" r="21.08" transform="translate(138.47 329.58) rotate(-78.78)"/><path class="cls-3" d="M265.75,101.53A21.47,21.47,0,1,1,291,84.65,21.49,21.49,0,0,1,265.75,101.53Zm8.2-41.35A20.68,20.68,0,1,0,290.21,84.5,20.71,20.71,0,0,0,273.95,60.19Z"/><path class="cls-5" d="M253,73.1s-2.1-18.93,7.81-19c0,0,3.82-11.45,13.52-3.42,0,0,8.9-3.83,11.14,2.82a6.08,6.08,0,0,1,4.08,6.61s3.25,0,2.9,4.34-3.92,15.39-3.92,15.39"/><path class="cls-3" d="M252.71,73.14c-.05-.49-1.29-12.13,3.17-17.14a6.43,6.43,0,0,1,4.74-2.23c.38-1,2.11-5,5.68-6,2.44-.7,5.17.17,8.14,2.57,1-.38,5.14-1.87,8.31-.45a5.62,5.62,0,0,1,3,3.39A6.42,6.42,0,0,1,290,59.81a3.33,3.33,0,0,1,1.92,1,4.65,4.65,0,0,1,1,3.64c-.34,4.29-3.79,15-3.93,15.46l-.64-.21c0-.11,3.57-11.1,3.9-15.31a4,4,0,0,0-.78-3.13,2.7,2.7,0,0,0-1.79-.85h-.36l0-.36a5.71,5.71,0,0,0-3.84-6.26l-.17,0-.06-.17a5,5,0,0,0-2.73-3.15c-3.26-1.46-7.91.51-8,.53l-.19.08-.16-.13c-2.84-2.35-5.42-3.22-7.68-2.57-3.67,1-5.3,5.79-5.31,5.84l-.08.23h-.24a5.81,5.81,0,0,0-4.48,2c-4.26,4.79-3,16.5-3,16.62Z"/><path class="cls-11" d="M255.86,79.29s-6.35-.68-2.81-6.19c0,0,1.92-1.45,3.35-.45"/><path class="cls-3" d="M255.38,79.55c-.87-.17-2.73-.71-3.45-2.21-.57-1.18-.28-2.67.84-4.42l.08-.09c.09-.07,2.13-1.58,3.74-.46l-.38.55c-1.1-.76-2.62.22-2.91.42-1,1.52-1.22,2.76-.77,3.71.77,1.6,3.34,1.9,3.37,1.9l-.07.67Z"/><path class="cls-11" d="M285.23,79.39s3.63-.7,4.08,1.62.34,5.65-5.18,3.9"/><path class="cls-3" d="M285.37,85.58a12.37,12.37,0,0,1-1.34-.35l.2-.64c2,.65,3.46.64,4.22,0s.76-2.31.53-3.48c-.38-2-3.66-1.36-3.69-1.36l-.13-.66c.16,0,4-.74,4.48,1.89.38,1.95.13,3.33-.74,4.11S287,85.9,285.37,85.58Z"/><path class="cls-11" d="M258,65.35s-8.68,28.39,8.54,30.78c0,0,17.93,6,19.88-26.37,0,0-7-.89-7.93-5.64,0,0-.86-1.29-1.58,1.31s-4,5.92-8.88,1.19c0,0-5.22,3.24-8.55-1C259.51,65.64,258.47,63.79,258,65.35Z"/><path class="cls-3" d="M267.39,96.68a8,8,0,0,1-.91-.23,11.21,11.21,0,0,1-8.3-5.14c-2.37-3.72-3.17-9.24-2.37-16.41a59.78,59.78,0,0,1,1.91-9.65c.15-.53.39-.82.74-.86.64-.08,1.19.81,1.35,1.08,3.08,3.89,7.88,1,8.08.86l.22-.14.19.18c1.91,1.85,3.76,2.61,5.35,2.17a4.61,4.61,0,0,0,3-3.21c.33-1.19.73-1.78,1.27-1.87a1,1,0,0,1,.92.46l.05.13c.83,4.45,7.58,5.36,7.65,5.37l.31,0,0,.31c-.76,12.69-4,21.08-9.72,24.92A12.86,12.86,0,0,1,267.39,96.68Zm-.76-.88a12.35,12.35,0,0,0,10.08-1.66c5.46-3.69,8.62-11.8,9.4-24.09-1.41-.23-7-1.44-7.89-5.79-.06-.06-.15-.14-.22-.13s-.37.1-.72,1.39a5.24,5.24,0,0,1-3.44,3.68c-1.25.34-3.26.23-5.81-2.17-1.08.57-5.69,2.7-8.76-1.19a1.9,1.9,0,0,0-.71-.79s-.09.06-.17.38h0c-.05.17-5.08,16.94.39,25.51A10.63,10.63,0,0,0,266.63,95.8Z"/><rect class="cls-3" x="263.1" y="69.27" width="0.67" height="8.02" transform="translate(187.75 336.04) rotate(-89.48)"/><rect class="cls-3" x="278.32" y="72.14" width="0.67" height="8.32" transform="translate(105.2 307.35) rotate(-68.42)"/><path class="cls-3" d="M269.52,83.23l-.16,0c-2-.63-2-3-2-3.12l.67,0c0,.08,0,2,1.49,2.45h0a2.67,2.67,0,0,0,1.87-.22,1.86,1.86,0,0,0,.77-1.35l.66.1a2.5,2.5,0,0,1-1.07,1.81A3.21,3.21,0,0,1,269.52,83.23Z"/><polygon class="cls-3" points="269.61 90.97 266.79 90.41 265.86 86.8 272.83 88.18 269.61 90.97"/><polygon class="cls-9" points="267.33 89.83 269.41 90.25 271.35 88.57 266.77 87.66 267.33 89.83"/><circle class="cls-3" cx="262.84" cy="77.08" r="1" transform="translate(136.09 319.9) rotate(-78.78)"/><circle class="cls-3" cx="276.93" cy="79.88" r="1" transform="translate(144.7 335.98) rotate(-78.78)"/><path class="cls-7" d="M289.43,49.66l9.94-12-15.75,2-3.26-15.54L272.12,37.7l-14.18-7.14,5.38,14.64a27.11,27.11,0,0,1,26.11,4.46Z"/><path class="cls-3" d="M289.43,49.91a.25.25,0,0,1-.16-.06,26.85,26.85,0,0,0-25.87-4.42.25.25,0,0,1-.32-.15L257.7,30.65a.25.25,0,0,1,.35-.31l14,7L280.14,24a.25.25,0,0,1,.46.08l3.21,15.31,15.52-2a.25.25,0,0,1,.22.41l-9.94,12A.25.25,0,0,1,289.43,49.91Zm-17-6.52a27.34,27.34,0,0,1,17,5.92L298.77,38l-15.12,1.95a.25.25,0,0,1-.28-.2L280.24,24.8l-7.91,13a.25.25,0,0,1-.33.09l-13.62-6.85,5.08,13.81A27.32,27.32,0,0,1,272.4,43.39Z"/><g class="cls-12"><path class="cls-13" d="M313.76,82.61a3.41,3.41,0,1,1,3.41-3.41A3.41,3.41,0,0,1,313.76,82.61Zm0-5.31a1.91,1.91,0,1,0,1.91,1.91A1.91,1.91,0,0,0,313.76,77.3Z"/><path class="cls-5" d="M319,120.25a5.32,5.32,0,1,1,5.32-5.32A5.33,5.33,0,0,1,319,120.25Zm0-9.23a3.91,3.91,0,1,0,3.91,3.91A3.92,3.92,0,0,0,319,111Z"/><path class="cls-13" d="M45.59,48.64A5.66,5.66,0,1,1,51.25,43,5.66,5.66,0,0,1,45.59,48.64Zm0-9.82A4.16,4.16,0,1,0,49.75,43,4.16,4.16,0,0,0,45.59,38.83Z"/><path class="cls-13" d="M252,11.7a3.58,3.58,0,1,1,3.58-3.58A3.58,3.58,0,0,1,252,11.7Zm0-6.21a2.63,2.63,0,1,0,2.63,2.63A2.63,2.63,0,0,0,252,5.49Z"/><path class="cls-13" d="M20.24,66.57a3.41,3.41,0,1,1,3.41-3.41A3.41,3.41,0,0,1,20.24,66.57Zm0-5.31a1.91,1.91,0,1,0,1.91,1.91A1.91,1.91,0,0,0,20.24,61.26Z"/><path class="cls-14" d="M167.43,116.8a4.84,4.84,0,1,1,4.84-4.84A4.85,4.85,0,0,1,167.43,116.8Zm0-7.56a2.71,2.71,0,1,0,2.71,2.71A2.71,2.71,0,0,0,167.43,109.24Z"/><path class="cls-14" d="M88.6,21a4.75,4.75,0,1,1,4.75-4.75A4.76,4.76,0,0,1,88.6,21Zm0-8a3.25,3.25,0,1,0,3.25,3.25A3.25,3.25,0,0,0,88.6,13Z"/><path class="cls-5" d="M224.09,35.41a5.66,5.66,0,1,1,5.66-5.66A5.66,5.66,0,0,1,224.09,35.41Zm0-9.82a4.16,4.16,0,1,0,4.16,4.16A4.16,4.16,0,0,0,224.09,25.6Z"/><path class="cls-14" d="M108.89,119.11a5.66,5.66,0,1,1,5.66-5.66A5.66,5.66,0,0,1,108.89,119.11Zm0-9.82a4.16,4.16,0,1,0,4.16,4.16A4.16,4.16,0,0,0,108.89,109.29Z"/><path class="cls-14" d="M252,116.43a5.25,5.25,0,1,1,5.25-5.25A5.26,5.26,0,0,1,252,116.43Zm0-9a3.75,3.75,0,1,0,3.75,3.75A3.75,3.75,0,0,0,252,107.43Z"/><path class="cls-5" d="M36.59,113.45a5.25,5.25,0,1,1,5.25-5.25A5.26,5.26,0,0,1,36.59,113.45Zm0-9a3.75,3.75,0,1,0,3.75,3.75A3.75,3.75,0,0,0,36.59,104.45Z"/><path class="cls-13" d="M333.59,56.64A5.66,5.66,0,1,1,339.25,51,5.66,5.66,0,0,1,333.59,56.64Zm0-9.82A4.16,4.16,0,1,0,337.75,51,4.16,4.16,0,0,0,333.59,46.83Z"/></g></g></g></svg>