<svg xmlns="http://www.w3.org/2000/svg" viewBox="0 0 315.41 154.48"><defs><style>.cls-1{opacity:0.5;}.cls-2{fill:#32b475;}.cls-3{fill:#e3b462;}.cls-4{fill:#0aa5e3;}.cls-5{fill:#349b67;}.cls-6{fill:#eff5f8;}.cls-7{fill:#cdebfc;}.cls-8{fill:#3273ad;}.cls-9{fill:#fff;}.cls-10{fill:#caedff;}.cls-11{fill:#fad264;}</style></defs><title>code-video</title><g id="Layer_2" data-name="Layer 2"><g id="Layer_1-2" data-name="Layer 1"><g class="cls-1"><path class="cls-2" d="M246,140a3.41,3.41,0,1,1,3.41,3.41A3.41,3.41,0,0,1,246,140Zm1.5,0a1.91,1.91,0,1,0,1.91-1.91A1.91,1.91,0,0,0,247.54,140Z"/><path class="cls-3" d="M96.59,111.39a5.66,5.66,0,1,1,5.66,5.66A5.66,5.66,0,0,1,96.59,111.39Zm1.5,0a4.16,4.16,0,1,0,4.16-4.16A4.16,4.16,0,0,0,98.09,111.39Z"/><path class="cls-4" d="M258.11,108.62a5.25,5.25,0,1,1,5.25,5.25A5.26,5.26,0,0,1,258.11,108.62Zm1.5,0a3.75,3.75,0,1,0,3.75-3.75A3.75,3.75,0,0,0,259.61,108.62Z"/><path class="cls-4" d="M183.22,18.7a5.66,5.66,0,1,1,1.47,7.87A5.66,5.66,0,0,1,183.22,18.7Zm1.24.85a4.16,4.16,0,1,0,5.78-1.08A4.16,4.16,0,0,0,184.46,19.55Z"/><path class="cls-2" d="M236.29,41a5.66,5.66,0,1,1,5.66,5.66A5.66,5.66,0,0,1,236.29,41Zm1.5,0a4.16,4.16,0,1,0,4.16-4.16A4.16,4.16,0,0,0,237.79,41Z"/><path class="cls-5" d="M215.83,53.67a2.06,2.06,0,1,1,2.06,2.06A2.06,2.06,0,0,1,215.83,53.67Zm1,0a1.06,1.06,0,1,0,1.06-1.06A1.06,1.06,0,0,0,216.83,53.67Z"/><path class="cls-2" d="M51.86,93a3.41,3.41,0,1,1,.89,4.74A3.41,3.41,0,0,1,51.86,93Zm1.24.85a1.91,1.91,0,1,0,2.65-.5A1.91,1.91,0,0,0,53.1,93.84Z"/><path class="cls-3" d="M85.28,26.06A4.75,4.75,0,1,1,90,30.81,4.76,4.76,0,0,1,85.28,26.06Zm1.5,0A3.25,3.25,0,1,0,90,22.81,3.25,3.25,0,0,0,86.78,26.06Z"/><path class="cls-4" d="M77.22,129.31a5.66,5.66,0,1,1,1.47,7.87A5.66,5.66,0,0,1,77.22,129.31Zm1.24.85a4.16,4.16,0,1,0,5.78-1.08A4.16,4.16,0,0,0,78.46,130.16Z"/><path class="cls-4" d="M183.22,71a5.66,5.66,0,1,1,1.47,7.87A5.66,5.66,0,0,1,183.22,71Zm1.24.85a4.16,4.16,0,1,0,5.78-1.08A4.16,4.16,0,0,0,184.46,71.87Z"/><path class="cls-3" d="M25.94,67a5.25,5.25,0,1,1,1.37,7.3A5.26,5.26,0,0,1,25.94,67Zm1.24.85a3.75,3.75,0,1,0,5.21-1A3.75,3.75,0,0,0,27.18,67.85Z"/><path class="cls-3" d="M129.29,124.18a4.75,4.75,0,1,1,4.75,4.75A4.76,4.76,0,0,1,129.29,124.18Zm1.5,0a3.25,3.25,0,1,0,3.25-3.25A3.25,3.25,0,0,0,130.79,124.18Z"/><path class="cls-3" d="M236.94,75a5.25,5.25,0,1,1,1.37,7.3A5.26,5.26,0,0,1,236.94,75Zm1.24.85a3.75,3.75,0,1,0,5.21-1A3.75,3.75,0,0,0,238.18,75.85Z"/></g><path class="cls-6" d="M261.5,119.7h50.14a3.77,3.77,0,1,1,0,7.53H298.78a3.77,3.77,0,0,0,0,7.53h8.05a3.77,3.77,0,1,1,0,7.53H274.36a3.77,3.77,0,0,1,0-7.53h5.46a3.77,3.77,0,0,0,0-7.53H261.5a3.77,3.77,0,1,1,0-7.53Z"/><path class="cls-6" d="M166.38,34.24h50.14a3.77,3.77,0,1,1,0,7.53H203.66a3.77,3.77,0,1,0,0,7.53h8.05a3.77,3.77,0,1,1,0,7.53H179.24a3.77,3.77,0,1,1,0-7.53h5.46a3.77,3.77,0,0,0,0-7.53H166.38a3.77,3.77,0,0,1,0-7.53Z"/><path class="cls-6" d="M54.94,132.51H19.24a3.14,3.14,0,0,1,0-6.27h4.65a3.14,3.14,0,0,0,0-6.27H13.72a3.14,3.14,0,1,1,0-6.27h35.7a3.14,3.14,0,0,1,0,6.27H39.68a3.14,3.14,0,0,0,0,6.27H54.94a3.14,3.14,0,0,1,0,6.27Z"/><path class="cls-7" d="M56.52,55H52a.37.37,0,0,1-.37-.39,3.36,3.36,0,0,0-.9-2.56,6.24,6.24,0,0,0-3.93-1.42.42.42,0,0,1-.28-.13.37.37,0,0,1-.09-.3,7.73,7.73,0,0,0-1.61-5.31A6.12,6.12,0,0,0,39.94,43a5.65,5.65,0,0,0-4.24,1.62,7.87,7.87,0,0,0-1.77,5.14.37.37,0,0,1-.15.31.38.38,0,0,1-.34.06,5.22,5.22,0,0,0-4.41.2c-2.23,1.3-2.86,4.35-2.86,4.38a.37.37,0,0,1-.37.3h-9a.37.37,0,0,1,0-.75H25.5a7.66,7.66,0,0,1,3.15-4.58,5.72,5.72,0,0,1,4.54-.42,8.2,8.2,0,0,1,2-5.16,6.37,6.37,0,0,1,4.78-1.86,6.85,6.85,0,0,1,5.39,2.16,8.43,8.43,0,0,1,1.81,5.49,6.52,6.52,0,0,1,4.07,1.63,4,4,0,0,1,1.11,2.72h4.19a.37.37,0,0,1,0,.75Z"/><path class="cls-7" d="M305.93,82.39h0l-10-.45a1.16,1.16,0,0,1-.73-.1,1.2,1.2,0,0,1-.36-.87c0-.07,0-.13,0-.16a8.69,8.69,0,0,0-.34-1,6.56,6.56,0,0,0-.89-1.54,5.56,5.56,0,0,0-2.34-1.73,6.88,6.88,0,0,0-2.26-.45,7.46,7.46,0,0,0-.83,0,1.25,1.25,0,0,1-.67,0c-.35-.13-.48-.52-.71-1.46,0-.15-.07-.27-.09-.34a17.94,17.94,0,0,0-1-2.28,11.87,11.87,0,0,0-2.28-3.15,8.76,8.76,0,0,0-5.19-2.42,11.55,11.55,0,0,0-10.6,5.07,12.59,12.59,0,0,0-1.87,7.8.48.48,0,0,1-.95.1,13.57,13.57,0,0,1,2-8.41,12.37,12.37,0,0,1,11.5-5.5,9.7,9.7,0,0,1,5.75,2.68,12.8,12.8,0,0,1,2.46,3.4,18.81,18.81,0,0,1,1,2.4c0,.08.07.23.11.42s.13.52.2.74l.19,0a9,9,0,0,1,.93,0,7.85,7.85,0,0,1,2.57.52,6.52,6.52,0,0,1,2.74,2,7.48,7.48,0,0,1,1,1.77,9.69,9.69,0,0,1,.38,1.11c0,.06,0,.16.05.27l0,.17H296l10,.45a.47.47,0,0,1,0,.95Z"/><path class="cls-7" d="M104,16.25h5.81a.47.47,0,0,0,.47-.49,4.27,4.27,0,0,1,1.14-3.26c1.77-1.82,5-1.8,5-1.81a.53.53,0,0,0,.36-.16.48.48,0,0,0,.11-.38,9.84,9.84,0,0,1,2-6.76A7.79,7.79,0,0,1,125.13,1,7.2,7.2,0,0,1,130.53,3c2.4,2.51,2.26,6.5,2.26,6.54a.48.48,0,0,0,.19.4.48.48,0,0,0,.44.07,6.65,6.65,0,0,1,5.61.26c2.84,1.65,3.64,5.54,3.65,5.58a.48.48,0,0,0,.47.38h11.42a.48.48,0,1,0,0-1h-11c-.29-1.1-1.32-4.27-4-5.83a7.29,7.29,0,0,0-5.78-.53,10.44,10.44,0,0,0-2.51-6.57A8.1,8.1,0,0,0,125.13,0a8.72,8.72,0,0,0-6.86,2.75,10.73,10.73,0,0,0-2.31,7,8.31,8.31,0,0,0-5.19,2.08,5.06,5.06,0,0,0-1.41,3.47H104a.48.48,0,0,0,0,1Z"/><path class="cls-8" d="M303.84,154.48h5.25c.26,0,.47-.1.47-.23s-.21-.23-.47-.23h-5.25c-.26,0-.47.1-.47.23S303.58,154.48,303.84,154.48Z"/><path class="cls-8" d="M9.5,154.48h290c.28,0,.5-.11.5-.25s-.22-.25-.5-.25H9.5c-.28,0-.5.11-.5.25S9.22,154.48,9.5,154.48Z"/><path class="cls-8" d="M.5,154.48H4.12c.28,0,.5-.11.5-.25s-.22-.25-.5-.25H.5c-.28,0-.5.11-.5.25S.22,154.48.5,154.48Z"/><rect class="cls-9" x="81.64" y="39.26" width="69.56" height="45.11" rx="2.48" ry="2.48"/><path class="cls-8" d="M148.72,84.62H84.09a2.73,2.73,0,0,1-2.7-2.73V41.74A2.73,2.73,0,0,1,84.09,39h64.6a2.73,2.73,0,0,1,2.73,2.73h0V81.89A2.73,2.73,0,0,1,148.72,84.62ZM84.09,39.51a2.23,2.23,0,0,0-2.2,2.23V81.89a2.23,2.23,0,0,0,2.2,2.23h64.6a2.23,2.23,0,0,0,2.23-2.23h0V41.74a2.23,2.23,0,0,0-2.2-2.23Z"/><path class="cls-8" d="M148.72,84.77H84.09a2.89,2.89,0,0,1-2.85-2.88V41.74a2.89,2.89,0,0,1,2.85-2.88h64.6a2.88,2.88,0,0,1,2.88,2.88V81.89a2.89,2.89,0,0,1-2.85,2.88ZM84.09,39.16a2.59,2.59,0,0,0-2.55,2.58V81.89a2.59,2.59,0,0,0,2.55,2.58h64.63a2.59,2.59,0,0,0,2.55-2.58V41.74a2.58,2.58,0,0,0-2.58-2.58Zm64.6,45.11H84.09a2.39,2.39,0,0,1-2.35-2.38V41.74a2.39,2.39,0,0,1,2.35-2.38h64.63a2.39,2.39,0,0,1,2.35,2.38V81.89A2.38,2.38,0,0,1,148.69,84.27ZM84.09,39.66A2.09,2.09,0,0,0,82,41.74V81.89A2.09,2.09,0,0,0,84.09,84h64.6a2.08,2.08,0,0,0,2.08-2.08V41.74a2.09,2.09,0,0,0-2.05-2.08H84.09Z"/><rect class="cls-10" x="84.62" y="43.64" width="63.61" height="36.35"/><path class="cls-8" d="M148.23,80.24H84.62a.25.25,0,0,1-.25-.25V43.64a.25.25,0,0,1,.25-.25h63.61a.25.25,0,0,1,.25.25V80A.25.25,0,0,1,148.23,80.24Zm-63.36-.5H148V43.89H84.87Z"/><circle class="cls-9" cx="116.34" cy="41.81" r="0.79"/><path class="cls-8" d="M116.34,42.85a1,1,0,1,1,1-1A1,1,0,0,1,116.34,42.85Zm0-1.58a.54.54,0,1,0,.54.54.54.54,0,0,0-.54-.54Z"/><path class="cls-8" d="M96.73,50H89a.25.25,0,0,1,0-.5h7.75a.25.25,0,0,1,0,.5Z"/><path class="cls-8" d="M133.79,50h-2.93a.25.25,0,0,1,0-.5h2.93a.25.25,0,0,1,0,.5Z"/><path class="cls-8" d="M138.74,50h-2.92a.25.25,0,0,1,0-.5h2.92a.25.25,0,0,1,0,.5Z"/><path class="cls-8" d="M143.7,50h-2.92a.25.25,0,0,1,0-.5h2.92a.25.25,0,0,1,0,.5Z"/><rect class="cls-9" x="88.69" y="54.48" width="55.22" height="21.75" rx="2" ry="2"/><path class="cls-8" d="M141.91,76.48H90.69a2.25,2.25,0,0,1-2.25-2.25V56.48a2.25,2.25,0,0,1,2.25-2.25h51.22a2.25,2.25,0,0,1,2.25,2.25V74.23A2.25,2.25,0,0,1,141.91,76.48ZM90.69,54.73a1.75,1.75,0,0,0-1.75,1.75V74.23A1.75,1.75,0,0,0,90.69,76h51.22a1.75,1.75,0,0,0,1.75-1.75V56.48a1.75,1.75,0,0,0-1.75-1.75Z"/><path class="cls-11" d="M105.78,65.56l4.67,2.22a1.67,1.67,0,0,1,.55.37.65.65,0,0,1,.16.44.66.66,0,0,1-.19.49.67.67,0,0,1-.5.19,1.07,1.07,0,0,1-.28,0,2.66,2.66,0,0,1-.38-.14l-5.66-2.61-.14-.06q-.76-.35-.76-.83t.8-.85l.06,0,5.7-2.66.42-.17a.87.87,0,0,1,.24,0,.67.67,0,0,1,.5.19.66.66,0,0,1,.19.49A.67.67,0,0,1,111,63a1.69,1.69,0,0,1-.55.38Z"/><path class="cls-8" d="M110.49,69.39a1.17,1.17,0,0,1-.32,0,2.7,2.7,0,0,1-.4-.15l-5.66-2.61-.13-.05q-.84-.39-.84-.94c0-.37.29-.7.87-1l0,0,5.72-2.67a3.74,3.74,0,0,1,.44-.18,1,1,0,0,1,.27,0,.79.79,0,0,1,.58.22.79.79,0,0,1,.22.58.8.8,0,0,1-.19.53,1.79,1.79,0,0,1-.59.41l-4.44,2.11,4.44,2.11a1.78,1.78,0,0,1,.59.4.78.78,0,0,1,.19.52.79.79,0,0,1-.22.58A.8.8,0,0,1,110.49,69.39Zm0-7.43-.2,0-.41.16-5.74,2.68c-.49.23-.74.48-.74.74s.23.5.69.71l.14.06L109.88,69l.36.14a.63.63,0,0,0,.66-.11.54.54,0,0,0,.15-.4.53.53,0,0,0-.13-.36,1.56,1.56,0,0,0-.51-.34l-4.68-2.22a.13.13,0,0,1,0-.23l4.67-2.22a1.58,1.58,0,0,0,.51-.35.54.54,0,0,0,.13-.37.54.54,0,0,0-.15-.4A.55.55,0,0,0,110.49,62Z"/><path class="cls-11" d="M119.2,61.17l-4.21,9a2.1,2.1,0,0,1-.36.59.53.53,0,0,1-.39.17.9.9,0,0,1-.58-.21.64.64,0,0,1-.25-.52,1.84,1.84,0,0,1,.19-.65v0l4.2-9a2.18,2.18,0,0,1,.37-.6.53.53,0,0,1,.39-.17.9.9,0,0,1,.58.21.64.64,0,0,1,.26.52.93.93,0,0,1,0,.27A3,3,0,0,1,119.2,61.17Z"/><path class="cls-8" d="M114.24,71.06a1,1,0,0,1-.66-.24.76.76,0,0,1-.3-.61,1.93,1.93,0,0,1,.2-.7l0,0,4.2-9a2.27,2.27,0,0,1,.39-.64.66.66,0,0,1,.48-.2,1,1,0,0,1,.66.24.76.76,0,0,1,.31.61,1.06,1.06,0,0,1,0,.31,3.06,3.06,0,0,1-.17.42l-4.21,9a2.21,2.21,0,0,1-.38.63A.65.65,0,0,1,114.24,71.06Zm4.32-11.17a.41.41,0,0,0-.3.13,2.09,2.09,0,0,0-.34.57l-4.22,9a1.66,1.66,0,0,0-.18.59.52.52,0,0,0,.21.42.77.77,0,0,0,.51.18.41.41,0,0,0,.3-.13,2,2,0,0,0,.33-.55l4.21-9h0a2.88,2.88,0,0,0,.16-.38.82.82,0,0,0,0-.24.52.52,0,0,0-.21-.42A.78.78,0,0,0,118.57,59.89Z"/><path class="cls-11" d="M126.83,65.56l-4.68-2.22a1.68,1.68,0,0,1-.54-.38.73.73,0,0,1,0-.94.64.64,0,0,1,.48-.19,1,1,0,0,1,.26,0l.42.17,5.69,2.66.06,0q.8.37.8.85t-.77.83l-.11.06-5.68,2.61a2.41,2.41,0,0,1-.37.14,1.11,1.11,0,0,1-.29,0,.64.64,0,0,1-.48-.18.67.67,0,0,1-.18-.49.66.66,0,0,1,.15-.44,1.63,1.63,0,0,1,.55-.37Z"/><path class="cls-8" d="M122.11,69.39a.77.77,0,0,1-.57-.22.8.8,0,0,1-.21-.58.79.79,0,0,1,.18-.52,1.72,1.72,0,0,1,.59-.4l4.44-2.11-4.44-2.11a1.78,1.78,0,0,1-.58-.41.8.8,0,0,1,.89-1.28l.44.17,5.76,2.7c.56.26.86.58.86,1s-.28.69-.84.94l-.13.06-5.67,2.6a2.5,2.5,0,0,1-.39.15A1.21,1.21,0,0,1,122.11,69.39Zm0-7.43a.51.51,0,0,0-.39.15.55.55,0,0,0-.14.4.54.54,0,0,0,.13.37,1.57,1.57,0,0,0,.5.35l4.68,2.22a.13.13,0,0,1,0,.23L122.2,67.9a1.52,1.52,0,0,0-.51.34.53.53,0,0,0-.13.36.55.55,0,0,0,.14.41.63.63,0,0,0,.65.11,2.38,2.38,0,0,0,.35-.14l5.68-2.61.1-.05c.47-.21.71-.45.71-.72s-.24-.51-.72-.73l-.07,0-5.67-2.65-.4-.16A.82.82,0,0,0,122.11,62Z"/><path class="cls-8" d="M160.21,109.89a.25.25,0,0,1-.18-.43l10.9-10.9a.25.25,0,0,1,.18-.07h9.09a.25.25,0,0,1,0,.5h-9l-10.83,10.83A.25.25,0,0,1,160.21,109.89Z"/><path class="cls-10" d="M151.5,144.23a2,2,0,0,1-2-2V109.5h47.41v32.74a2,2,0,0,1-2,2Z"/><path class="cls-8" d="M196.67,109.75v32.49a1.74,1.74,0,0,1-1.74,1.74H151.5a1.74,1.74,0,0,1-1.74-1.74V109.75h46.91m.5-.5H149.26v33a2.24,2.24,0,0,0,2.24,2.24h43.43a2.24,2.24,0,0,0,2.24-2.24v-33Z"/><path class="cls-8" d="M194.93,144.63H151.5a2.39,2.39,0,0,1-2.39-2.39V109.1h48.21v33.14A2.39,2.39,0,0,1,194.93,144.63ZM149.41,109.4v32.84a2.09,2.09,0,0,0,2.09,2.09h43.43a2.09,2.09,0,0,0,2.09-2.09V109.4Zm45.52,34.73H151.5a1.89,1.89,0,0,1-1.89-1.89V109.6h47.21v32.64A1.89,1.89,0,0,1,194.93,144.13Zm-45-34.23v32.34a1.59,1.59,0,0,0,1.59,1.59h43.43a1.59,1.59,0,0,0,1.59-1.59V109.9Z"/><rect class="cls-11" x="156.97" y="117.58" width="18.79" height="13.2"/><path class="cls-8" d="M175.51,117.83v12.7H157.22v-12.7h18.29m.5-.5H156.72V131H176v-13.7Z"/><path class="cls-8" d="M161.81,133.68v2.08h-4.59v-2.08h4.59m.5-.5h-5.59v3.08h5.59v-3.08Z"/><circle class="cls-11" cx="187.89" cy="119.99" r="2.66"/><path class="cls-8" d="M187.89,122.9A2.91,2.91,0,1,1,190.8,120,2.91,2.91,0,0,1,187.89,122.9Zm0-5.31A2.41,2.41,0,1,0,190.3,120,2.41,2.41,0,0,0,187.89,117.58Z"/><rect class="cls-11" x="196.94" y="117.32" width="15.67" height="19.79"/><path class="cls-8" d="M212.36,117.57v19.29H197.19V117.57h15.17m.5-.5H196.69v20.29h16.17V117.07Z"/><path class="cls-8" d="M213,137.46H196.59V117H213Zm-16.17-.2h16v-20.1h-16Zm15.67-.3H197.09V117.47h15.37Zm-15.17-.2h15v-19.1h-15Z"/><rect class="cls-11" x="211.99" y="113.13" width="4.53" height="28.16"/><path class="cls-8" d="M216.65,141.42h-4.78V113h4.78Zm-4.53-.25h4.28V113.26h-4.28Z"/><path class="cls-8" d="M216.27,113.38V141h-4V113.38h4m.5-.5h-5v28.66h5V112.88Z"/><path class="cls-8" d="M216.9,141.67h-5.28V112.76h5.28Zm-5-.25h4.78V113h-4.78Zm4.53-.25h-4.28V113.26h4.28Zm-4-.25h3.78V113.51h-3.78Z"/><rect class="cls-8" x="180.2" y="94.92" width="21.28" height="8.44" rx="4.22" ry="4.22"/><path class="cls-8" d="M166.47,133.68v2.08h-2.08v-2.08h2.08m.5-.5h-3.08v3.08H167v-3.08Z"/><path class="cls-8" d="M171,133.68v2.08h-2.08v-2.08H171m.5-.5h-3.08v3.08h3.08v-3.08Z"/><path class="cls-8" d="M175.51,133.68v2.08h-2.08v-2.08h2.08m.5-.5h-3.08v3.08H176v-3.08Z"/></g></g></svg>