<svg xmlns="http://www.w3.org/2000/svg" viewBox="0 0 309.56 146.95"><defs><style>.cls-1{fill:#eff5f8;}.cls-2{fill:#cdebfc;}.cls-3{fill:#3273ad;}.cls-4{opacity:0.5;}.cls-5{fill:#0aa5e3;}.cls-6{fill:#32b475;}.cls-7{fill:#e3b462;}.cls-8{fill:#caedff;}.cls-9{fill:#fff;}</style></defs><title>code</title><g id="Layer_2" data-name="Layer 2"><g id="Layer_1-2" data-name="Layer 1"><path class="cls-1" d="M248.54,121h-35.7a3.14,3.14,0,1,0,0,6.27h4.65a3.14,3.14,0,0,1,0,6.27H207.33a3.14,3.14,0,1,0,0,6.27H243a3.14,3.14,0,0,0,0-6.27h-9.74a3.14,3.14,0,0,1,0-6.27h15.25a3.14,3.14,0,1,0,0-6.27Z"/><path class="cls-1" d="M24.64,123.59H65.76a3.09,3.09,0,1,0,0-6.18H55.22a3.09,3.09,0,0,1,0-6.18h6.6a3.09,3.09,0,0,0,0-6.18H35.19a3.09,3.09,0,0,0,0,6.18h4.47a3.09,3.09,0,0,1,0,6.18h-15a3.09,3.09,0,1,0,0,6.18Z"/><path class="cls-1" d="M251.86,89.58h41.29a3.1,3.1,0,1,0,0-6.2H282.56a3.1,3.1,0,1,1,0-6.2h6.63a3.1,3.1,0,1,0,0-6.2H262.45a3.1,3.1,0,1,0,0,6.2h4.49a3.1,3.1,0,1,1,0,6.2H251.86a3.1,3.1,0,1,0,0,6.2Z"/><path class="cls-1" d="M66,55.49H94.76a2.16,2.16,0,1,0,0-4.33H87.37a2.16,2.16,0,1,1,0-4.33H92a2.16,2.16,0,1,0,0-4.33H73.35a2.16,2.16,0,0,0,0,4.33h3.13a2.16,2.16,0,0,1,0,4.33H66a2.16,2.16,0,1,0,0,4.33Z"/><path class="cls-2" d="M19.94,44.06h5.81a.47.47,0,0,0,.47-.49,4.27,4.27,0,0,1,1.14-3.26c1.77-1.82,5-1.8,5-1.81a.53.53,0,0,0,.36-.16.48.48,0,0,0,.11-.38,9.84,9.84,0,0,1,2-6.76A7.79,7.79,0,0,1,41,28.76a7.2,7.2,0,0,1,5.4,2.06c2.4,2.51,2.26,6.5,2.26,6.54a.48.48,0,0,0,.19.4.48.48,0,0,0,.44.07,6.65,6.65,0,0,1,5.61.26c2.84,1.65,3.64,5.54,3.65,5.58a.48.48,0,0,0,.47.38H70.47a.48.48,0,1,0,0-1h-11c-.29-1.1-1.32-4.27-4-5.83a7.29,7.29,0,0,0-5.78-.53,10.44,10.44,0,0,0-2.51-6.57A8.1,8.1,0,0,0,41,27.81a8.72,8.72,0,0,0-6.86,2.75,10.73,10.73,0,0,0-2.31,7,8.31,8.31,0,0,0-5.19,2.08,5.06,5.06,0,0,0-1.41,3.47H19.94a.48.48,0,1,0,0,1Z"/><path class="cls-2" d="M247.55,51.59h0l10-.45a1.16,1.16,0,0,0,.73-.1,1.2,1.2,0,0,0,.36-.87c0-.07,0-.13,0-.16a8.69,8.69,0,0,1,.34-1,6.56,6.56,0,0,1,.89-1.54,5.56,5.56,0,0,1,2.34-1.73,6.88,6.88,0,0,1,2.26-.45,7.46,7.46,0,0,1,.83,0,1.25,1.25,0,0,0,.67,0c.35-.13.48-.52.71-1.46,0-.15.07-.27.09-.34a17.94,17.94,0,0,1,1-2.28A11.87,11.87,0,0,1,270,38.1a8.76,8.76,0,0,1,5.19-2.42,11.55,11.55,0,0,1,10.6,5.07,12.59,12.59,0,0,1,1.87,7.8.48.48,0,0,0,.95.1,13.57,13.57,0,0,0-2-8.41,12.37,12.37,0,0,0-11.5-5.5,9.7,9.7,0,0,0-5.75,2.68,12.8,12.8,0,0,0-2.46,3.4,18.81,18.81,0,0,0-1,2.4c0,.08-.07.23-.11.42s-.13.52-.2.74l-.19,0a9,9,0,0,0-.93,0,7.85,7.85,0,0,0-2.57.52,6.52,6.52,0,0,0-2.74,2,7.48,7.48,0,0,0-1,1.77,9.69,9.69,0,0,0-.38,1.11c0,.06,0,.16-.05.27l0,.17h-.17l-10,.45a.47.47,0,0,0,0,.95Z"/><path class="cls-2" d="M127.45,16.25h5.81a.47.47,0,0,0,.47-.49,4.27,4.27,0,0,1,1.14-3.26c1.77-1.82,5-1.8,5-1.81a.53.53,0,0,0,.36-.16.48.48,0,0,0,.11-.38,9.84,9.84,0,0,1,2-6.76A7.79,7.79,0,0,1,148.55,1,7.2,7.2,0,0,1,154,3c2.4,2.51,2.26,6.5,2.26,6.54a.48.48,0,0,0,.19.4.48.48,0,0,0,.44.07,6.65,6.65,0,0,1,5.61.26c2.84,1.65,3.64,5.54,3.65,5.58a.48.48,0,0,0,.47.38H178a.48.48,0,1,0,0-1h-11c-.29-1.1-1.32-4.27-4-5.83a7.29,7.29,0,0,0-5.78-.53,10.44,10.44,0,0,0-2.51-6.57A8.1,8.1,0,0,0,148.56,0a8.72,8.72,0,0,0-6.86,2.75,10.73,10.73,0,0,0-2.31,7,8.31,8.31,0,0,0-5.19,2.08,5.06,5.06,0,0,0-1.41,3.47h-5.33a.48.48,0,0,0,0,1Z"/><path class="cls-3" d="M5.72,146.95H.47c-.26,0-.47-.1-.47-.23s.21-.23.47-.23H5.72c.26,0,.47.1.47.23S6,146.95,5.72,146.95Z"/><path class="cls-3" d="M300.06,146.95h-290c-.28,0-.5-.11-.5-.25s.22-.25.5-.25h290c.28,0,.5.11.5.25S300.33,146.95,300.06,146.95Z"/><path class="cls-3" d="M309.06,146.95h-3.62c-.28,0-.5-.11-.5-.25s.22-.25.5-.25h3.62c.28,0,.5.11.5.25S309.33,146.95,309.06,146.95Z"/><g class="cls-4"><path class="cls-5" d="M219.16,74a5.66,5.66,0,1,1,5.66-5.66A5.66,5.66,0,0,1,219.16,74Zm0-9.82a4.16,4.16,0,1,0,4.16,4.16A4.16,4.16,0,0,0,219.16,64.15Z"/><path class="cls-6" d="M67.14,61.05a5.66,5.66,0,1,1,5.66-5.66A5.66,5.66,0,0,1,67.14,61.05Zm0-9.82a4.16,4.16,0,1,0,4.16,4.16A4.16,4.16,0,0,0,67.14,51.23Z"/><path class="cls-6" d="M230.11,98.79a3.58,3.58,0,1,1,3.58-3.58A3.58,3.58,0,0,1,230.11,98.79Zm0-6.21a2.63,2.63,0,1,0,2.63,2.63A2.63,2.63,0,0,0,230.11,92.58Z"/><path class="cls-6" d="M247.07,79.21a3.41,3.41,0,1,1,3.41-3.41A3.41,3.41,0,0,1,247.07,79.21Zm0-5.31A1.91,1.91,0,1,0,249,75.8,1.91,1.91,0,0,0,247.07,73.9Z"/><path class="cls-6" d="M41.8,79a3.41,3.41,0,1,1,3.41-3.41A3.41,3.41,0,0,1,41.8,79Zm0-5.31a1.91,1.91,0,1,0,1.91,1.91A1.91,1.91,0,0,0,41.8,73.67Z"/><path class="cls-7" d="M258.66,105.6a3.41,3.41,0,1,1,3.41-3.41A3.41,3.41,0,0,1,258.66,105.6Zm0-5.31a1.91,1.91,0,1,0,1.91,1.91A1.91,1.91,0,0,0,258.66,100.29Z"/><path class="cls-7" d="M107.74,35.67a4.75,4.75,0,1,1,4.75-4.75A4.76,4.76,0,0,1,107.74,35.67Zm0-8A3.25,3.25,0,1,0,111,30.92,3.25,3.25,0,0,0,107.74,27.67Z"/><path class="cls-5" d="M223.32,126.67A5.66,5.66,0,1,1,229,121,5.66,5.66,0,0,1,223.32,126.67Zm0-9.82a4.16,4.16,0,1,0,4.16,4.16A4.16,4.16,0,0,0,223.32,116.85Z"/><path class="cls-7" d="M67.14,129.24a5.66,5.66,0,1,1,5.66-5.66A5.66,5.66,0,0,1,67.14,129.24Zm0-9.82a4.16,4.16,0,1,0,4.16,4.16A4.16,4.16,0,0,0,67.14,119.43Z"/><path class="cls-7" d="M218.07,45.17a5.25,5.25,0,1,1,5.25-5.25A5.26,5.26,0,0,1,218.07,45.17Zm0-9a3.75,3.75,0,1,0,3.75,3.75A3.75,3.75,0,0,0,218.07,36.17Z"/><path class="cls-5" d="M63.39,95.84a5.25,5.25,0,1,1,5.25-5.25A5.26,5.26,0,0,1,63.39,95.84Zm0-9a3.75,3.75,0,1,0,3.75,3.75A3.75,3.75,0,0,0,63.39,86.84Z"/></g><rect class="cls-8" x="103.32" y="58.86" width="82.69" height="47.25"/><rect class="cls-8" x="99.44" y="53.17" width="90.42" height="58.64" rx="3.22" ry="3.22"/><rect class="cls-9" x="103.32" y="59.12" width="82.69" height="47.25"/><path class="cls-3" d="M186.64,112.13h-84a3.55,3.55,0,0,1-3.51-3.55V56.39a3.55,3.55,0,0,1,3.51-3.55h84a3.55,3.55,0,0,1,3.55,3.55h0v52.19A3.55,3.55,0,0,1,186.64,112.13Zm-84-58.64a2.9,2.9,0,0,0-2.86,2.9v52.19a2.9,2.9,0,0,0,2.86,2.9h84a2.9,2.9,0,0,0,2.9-2.9h0V56.39a2.9,2.9,0,0,0-2.86-2.9Z"/><path class="cls-3" d="M186,106.44H103.32a.32.32,0,0,1-.32-.32V58.86a.32.32,0,0,1,.32-.32H186a.32.32,0,0,1,.32.32v47.28A.32.32,0,0,1,186,106.44Zm-82.36-.65h82V59.19h-82Z"/><path class="cls-8" d="M200.45,110.2v2.34h0a3,3,0,0,1-2.92,3H91.63a3,3,0,0,1-3-3h0v-2.34Z"/><path class="cls-3" d="M197.52,115.84H91.63a3.34,3.34,0,0,1-3.3-3.31v-2.34a.32.32,0,0,1,.32-.32H200.45a.32.32,0,0,1,.32.32v2.34A3.31,3.31,0,0,1,197.52,115.84ZM89,110.52v2a2.6,2.6,0,0,0,2.6,2.6H197.52a2.6,2.6,0,0,0,2.6-2.6v-2Z"/><circle class="cls-9" cx="144.55" cy="56.48" r="1.03"/><rect class="cls-8" x="112.91" y="53.49" width="61.75" height="5.04"/><path class="cls-3" d="M144.55,57.84a1.3,1.3,0,1,1,1.3-1.3A1.3,1.3,0,0,1,144.55,57.84Zm0-2.05a.7.7,0,1,0,.7.7.7.7,0,0,0-.7-.7Z"/><path class="cls-6" d="M147.66,69.3h-24.1a.5.5,0,0,1,0-1h24.1a.5.5,0,0,1,0,1Z"/><path class="cls-7" d="M166.56,69.3H153.22a.5.5,0,0,1,0-1h13.33a.5.5,0,0,1,0,1Z"/><path class="cls-6" d="M166.56,76.3h-24.1a.5.5,0,0,1,0-1h24.1a.5.5,0,0,1,0,1Z"/><path class="cls-5" d="M136.89,76.3H123.56a.5.5,0,0,1,0-1h13.33a.5.5,0,0,1,0,1Z"/><path class="cls-7" d="M166.56,83.47h-43a.5.5,0,0,1,0-1h43a.5.5,0,0,1,0,1Z"/><path class="cls-5" d="M166.56,90.47h-43a.5.5,0,0,1,0-1h43a.5.5,0,0,1,0,1Z"/><path class="cls-7" d="M136.72,96.95H123.56a.5.5,0,0,1,0-1h13.17a.5.5,0,0,1,0,1Z"/><path class="cls-6" d="M152.22,96.95H141.56a.5.5,0,0,1,0-1h10.67a.5.5,0,0,1,0,1Z"/><path class="cls-6" d="M117.47,68.87,120,70.08a.93.93,0,0,1,.3.2.35.35,0,0,1,.09.24.35.35,0,0,1-.37.37l-.15,0-.21-.08-3.08-1.42-.07,0q-.41-.19-.41-.45t.43-.46l0,0,3.1-1.45.23-.09.13,0a.37.37,0,0,1,.28.61.92.92,0,0,1-.3.21Z"/><path class="cls-6" d="M159.2,94.31l-2.29,4.9a1.14,1.14,0,0,1-.2.32.29.29,0,0,1-.21.09.48.48,0,0,1-.32-.11.35.35,0,0,1-.14-.28,1,1,0,0,1,.11-.35v0L158.45,94a1.18,1.18,0,0,1,.2-.33.29.29,0,0,1,.21-.09.49.49,0,0,1,.32.11.35.35,0,0,1,.14.28.52.52,0,0,1,0,.15A1.72,1.72,0,0,1,159.2,94.31Z"/><path class="cls-6" d="M163.31,96.7l-2.55-1.21a.9.9,0,0,1-.29-.21.4.4,0,0,1,0-.51.35.35,0,0,1,.26-.1l.14,0,.23.09,3.09,1.45,0,0c.29.13.43.29.43.46s-.14.32-.42.45l-.06,0-3.09,1.42-.2.08-.16,0a.35.35,0,0,1-.26-.1.36.36,0,0,1-.1-.27.36.36,0,0,1,.08-.24.9.9,0,0,1,.3-.2Z"/><rect class="cls-9" x="135.42" y="109.21" width="18.26" height="1.95" rx="0.81" ry="0.81"/><path class="cls-3" d="M152.87,111.28H136.23a.93.93,0,0,1-.93-.93V110a.93.93,0,0,1,.93-.93h16.64a.93.93,0,0,1,.93.93v.34A.93.93,0,0,1,152.87,111.28Zm-16.64-2a.68.68,0,0,0-.68.68v.34a.68.68,0,0,0,.68.68h16.64a.68.68,0,0,0,.68-.68V110a.68.68,0,0,0-.68-.68Z"/></g></g></svg>