<svg xmlns="http://www.w3.org/2000/svg" viewBox="0 0 309.56 146.95"><defs><style>.cls-1{fill:#eff5f8;}.cls-2{fill:#cdebfc;}.cls-3{fill:#3273ad;}.cls-4{opacity:0.5;}.cls-5{fill:#0aa5e3;}.cls-6{fill:#32b475;}.cls-7{fill:#e3b462;}.cls-8{fill:#caedff;}.cls-9{fill:#fff;}.cls-10{fill:#fad264;}</style></defs><title>first-target</title><g id="Layer_2" data-name="Layer 2"><g id="Layer_1-2" data-name="Layer 1"><path class="cls-1" d="M248.54,121h-35.7a3.14,3.14,0,1,0,0,6.27h4.65a3.14,3.14,0,0,1,0,6.27H207.33a3.14,3.14,0,1,0,0,6.27H243a3.14,3.14,0,0,0,0-6.27h-9.74a3.14,3.14,0,0,1,0-6.27h15.25a3.14,3.14,0,1,0,0-6.27Z"/><path class="cls-1" d="M24.64,123.59H65.76a3.09,3.09,0,1,0,0-6.18H55.22a3.09,3.09,0,0,1,0-6.18h6.6a3.09,3.09,0,0,0,0-6.18H35.19a3.09,3.09,0,0,0,0,6.18h4.47a3.09,3.09,0,0,1,0,6.18h-15a3.09,3.09,0,1,0,0,6.18Z"/><path class="cls-1" d="M261.86,89.58h41.29a3.1,3.1,0,1,0,0-6.2H292.56a3.1,3.1,0,1,1,0-6.2h6.63a3.1,3.1,0,1,0,0-6.2H272.45a3.1,3.1,0,1,0,0,6.2h4.49a3.1,3.1,0,1,1,0,6.2H261.86a3.1,3.1,0,1,0,0,6.2Z"/><path class="cls-1" d="M66,55.49H94.76a2.16,2.16,0,1,0,0-4.33H87.37a2.16,2.16,0,1,1,0-4.33H92a2.16,2.16,0,1,0,0-4.33H73.35a2.16,2.16,0,0,0,0,4.33h3.13a2.16,2.16,0,0,1,0,4.33H66a2.16,2.16,0,1,0,0,4.33Z"/><path class="cls-2" d="M19.94,44.06h5.81a.47.47,0,0,0,.47-.49,4.27,4.27,0,0,1,1.14-3.26c1.77-1.82,5-1.8,5-1.81a.53.53,0,0,0,.36-.16.48.48,0,0,0,.11-.38,9.84,9.84,0,0,1,2-6.76A7.79,7.79,0,0,1,41,28.76a7.2,7.2,0,0,1,5.4,2.06c2.4,2.51,2.26,6.5,2.26,6.54a.48.48,0,0,0,.19.4.48.48,0,0,0,.44.07,6.65,6.65,0,0,1,5.61.26c2.84,1.65,3.64,5.54,3.65,5.58a.48.48,0,0,0,.47.38H70.47a.48.48,0,1,0,0-1h-11c-.29-1.1-1.32-4.27-4-5.83a7.29,7.29,0,0,0-5.78-.53,10.44,10.44,0,0,0-2.51-6.57A8.1,8.1,0,0,0,41,27.81a8.72,8.72,0,0,0-6.86,2.75,10.73,10.73,0,0,0-2.31,7,8.31,8.31,0,0,0-5.19,2.08,5.06,5.06,0,0,0-1.41,3.47H19.94a.48.48,0,1,0,0,1Z"/><path class="cls-2" d="M247.55,51.59h0l10-.45a1.16,1.16,0,0,0,.73-.1,1.2,1.2,0,0,0,.36-.87c0-.07,0-.13,0-.16a8.69,8.69,0,0,1,.34-1,6.56,6.56,0,0,1,.89-1.54,5.56,5.56,0,0,1,2.34-1.73,6.88,6.88,0,0,1,2.26-.45,7.46,7.46,0,0,1,.83,0,1.25,1.25,0,0,0,.67,0c.35-.13.48-.52.71-1.46,0-.15.07-.27.09-.34a17.94,17.94,0,0,1,1-2.28A11.87,11.87,0,0,1,270,38.1a8.76,8.76,0,0,1,5.19-2.42,11.55,11.55,0,0,1,10.6,5.07,12.59,12.59,0,0,1,1.87,7.8.48.48,0,0,0,.95.1,13.57,13.57,0,0,0-2-8.41,12.37,12.37,0,0,0-11.5-5.5,9.7,9.7,0,0,0-5.75,2.68,12.8,12.8,0,0,0-2.46,3.4,18.81,18.81,0,0,0-1,2.4c0,.08-.07.23-.11.42s-.13.52-.2.74l-.19,0a9,9,0,0,0-.93,0,7.85,7.85,0,0,0-2.57.52,6.52,6.52,0,0,0-2.74,2,7.48,7.48,0,0,0-1,1.77,9.69,9.69,0,0,0-.38,1.11c0,.06,0,.16-.05.27l0,.17h-.17l-10,.45a.47.47,0,0,0,0,.95Z"/><path class="cls-2" d="M137.46,16.25h5.81a.47.47,0,0,0,.47-.49,4.27,4.27,0,0,1,1.14-3.26c1.77-1.82,5-1.8,5-1.81a.53.53,0,0,0,.36-.16.48.48,0,0,0,.11-.38,9.84,9.84,0,0,1,2-6.76A7.79,7.79,0,0,1,158.56,1,7.2,7.2,0,0,1,164,3c2.4,2.51,2.26,6.5,2.26,6.54a.48.48,0,0,0,.19.4.48.48,0,0,0,.44.07,6.65,6.65,0,0,1,5.61.26c2.84,1.65,3.64,5.54,3.65,5.58a.48.48,0,0,0,.47.38H188a.48.48,0,1,0,0-1h-11c-.29-1.1-1.32-4.27-4-5.83a7.29,7.29,0,0,0-5.78-.53,10.44,10.44,0,0,0-2.51-6.57A8.1,8.1,0,0,0,158.57,0a8.72,8.72,0,0,0-6.86,2.75,10.73,10.73,0,0,0-2.31,7,8.31,8.31,0,0,0-5.19,2.08,5.06,5.06,0,0,0-1.41,3.47h-5.33a.48.48,0,0,0,0,1Z"/><path class="cls-3" d="M5.72,146.95H.47c-.26,0-.47-.1-.47-.23s.21-.23.47-.23H5.72c.26,0,.47.1.47.23S6,146.95,5.72,146.95Z"/><path class="cls-3" d="M300.06,146.95h-290c-.28,0-.5-.11-.5-.25s.22-.25.5-.25h290c.28,0,.5.11.5.25S300.33,146.95,300.06,146.95Z"/><path class="cls-3" d="M309.06,146.95h-3.62c-.28,0-.5-.11-.5-.25s.22-.25.5-.25h3.62c.28,0,.5.11.5.25S309.33,146.95,309.06,146.95Z"/><g class="cls-4"><path class="cls-5" d="M251.41,70.2a5.66,5.66,0,1,1,5.66-5.66A5.66,5.66,0,0,1,251.41,70.2Zm0-9.82a4.16,4.16,0,1,0,4.16,4.16A4.16,4.16,0,0,0,251.41,60.39Z"/><path class="cls-6" d="M118.13,43.83a5.66,5.66,0,1,1,5.66-5.66A5.66,5.66,0,0,1,118.13,43.83Zm0-9.82a4.16,4.16,0,1,0,4.16,4.16A4.16,4.16,0,0,0,118.13,34Z"/><path class="cls-6" d="M222.18,137.09a3.58,3.58,0,1,1,3.58-3.58A3.58,3.58,0,0,1,222.18,137.09Zm0-6.21a2.63,2.63,0,1,0,2.63,2.63A2.63,2.63,0,0,0,222.18,130.88Z"/><path class="cls-6" d="M226,90.59a3.41,3.41,0,1,1,3.41-3.41A3.41,3.41,0,0,1,226,90.59Zm0-5.31a1.91,1.91,0,1,0,1.91,1.91A1.91,1.91,0,0,0,226,85.28Z"/><path class="cls-6" d="M105.44,107.1a3.41,3.41,0,1,1,3.41-3.41A3.41,3.41,0,0,1,105.44,107.1Zm0-5.31a1.91,1.91,0,1,0,1.91,1.91A1.91,1.91,0,0,0,105.44,101.79Z"/><path class="cls-7" d="M255.26,96.22a3.41,3.41,0,1,1,3.41-3.41A3.41,3.41,0,0,1,255.26,96.22Zm0-5.31a1.91,1.91,0,1,0,1.91,1.91A1.91,1.91,0,0,0,255.26,90.9Z"/><path class="cls-7" d="M99.18,73.7A4.75,4.75,0,1,1,103.93,69,4.76,4.76,0,0,1,99.18,73.7Zm0-8A3.25,3.25,0,1,0,102.43,69,3.25,3.25,0,0,0,99.18,65.7Z"/><path class="cls-5" d="M213.91,115a5.66,5.66,0,1,1,5.66-5.66A5.66,5.66,0,0,1,213.91,115Zm0-9.82a4.16,4.16,0,1,0,4.16,4.16A4.16,4.16,0,0,0,213.91,105.2Z"/><path class="cls-7" d="M121.65,136.54a5.66,5.66,0,1,1,5.66-5.66A5.66,5.66,0,0,1,121.65,136.54Zm0-9.82a4.16,4.16,0,1,0,4.16,4.16A4.16,4.16,0,0,0,121.65,126.73Z"/><path class="cls-7" d="M213.91,58a5.25,5.25,0,1,1,5.25-5.25A5.26,5.26,0,0,1,213.91,58Zm0-9a3.75,3.75,0,1,0,3.75,3.75A3.75,3.75,0,0,0,213.91,49Z"/><path class="cls-5" d="M76.61,94.65a5.25,5.25,0,1,1,5.25-5.25A5.26,5.26,0,0,1,76.61,94.65Zm0-9a3.75,3.75,0,1,0,3.75,3.75A3.75,3.75,0,0,0,76.61,85.65Z"/></g><path class="cls-3" d="M160.2,132.81a.59.59,0,0,1-.59-.59V32.05a.59.59,0,0,1,1.19,0V132.22A.59.59,0,0,1,160.2,132.81Z"/><circle class="cls-8" cx="160.2" cy="77.89" r="37.96"/><path class="cls-3" d="M160.2,116.44a38.55,38.55,0,1,1,38.55-38.55A38.59,38.59,0,0,1,160.2,116.44Zm0-75.91a37.36,37.36,0,1,0,37.36,37.36A37.41,37.41,0,0,0,160.2,40.53Z"/><circle class="cls-9" cx="160.2" cy="77.89" r="30.37"/><path class="cls-3" d="M160.2,108.85a31,31,0,1,1,31-31A31,31,0,0,1,160.2,108.85Zm0-60.73A29.77,29.77,0,1,0,190,77.89,29.81,29.81,0,0,0,160.2,48.12Z"/><circle class="cls-8" cx="160.2" cy="77.89" r="21.26"/><path class="cls-3" d="M160.2,99.74A21.85,21.85,0,1,1,182,77.89,21.87,21.87,0,0,1,160.2,99.74Zm0-42.51a20.66,20.66,0,1,0,20.66,20.66A20.69,20.69,0,0,0,160.2,57.23Z"/><circle class="cls-9" cx="160.2" cy="77.89" r="12.75"/><path class="cls-3" d="M160.2,91.24a13.35,13.35,0,1,1,13.35-13.35A13.36,13.36,0,0,1,160.2,91.24Zm0-25.51a12.16,12.16,0,1,0,12.16,12.16A12.17,12.17,0,0,0,160.2,65.73Z"/><circle class="cls-10" cx="160.2" cy="77.89" r="6.38"/><path class="cls-3" d="M160.2,84.86a7,7,0,1,1,7-7A7,7,0,0,1,160.2,84.86Zm0-12.75A5.78,5.78,0,1,0,166,77.89,5.79,5.79,0,0,0,160.2,72.11Z"/><path class="cls-3" d="M160.2,79a.59.59,0,0,1-.42-1l49-49a.59.59,0,1,1,.84.84l-49,49A.59.59,0,0,1,160.2,79Z"/><path class="cls-3" d="M199.59,39.64a.59.59,0,0,1-.59-.59V24.84a.59.59,0,1,1,1.19,0V39.05A.59.59,0,0,1,199.59,39.64Z"/><path class="cls-3" d="M213.8,39.64H199.59a.59.59,0,0,1,0-1.19H213.8a.59.59,0,1,1,0,1.19Z"/><path class="cls-3" d="M194,45.24a.59.59,0,0,1-.59-.59V30.44a.59.59,0,0,1,1.19,0V44.64A.59.59,0,0,1,194,45.24Z"/><path class="cls-3" d="M208.21,45.24H194a.59.59,0,0,1,0-1.19h14.21a.59.59,0,0,1,0,1.19Z"/><path class="cls-3" d="M139.81,139.34a.59.59,0,0,1-.56-.79l8.4-24.29a.59.59,0,1,1,1.12.39l-8.4,24.29A.59.59,0,0,1,139.81,139.34Z"/><path class="cls-3" d="M180.48,139.71a.59.59,0,0,1-.56-.39l-8.64-24.2a.59.59,0,0,1,1.12-.4l8.64,24.2a.59.59,0,0,1-.36.76A.57.57,0,0,1,180.48,139.71Z"/></g></g></svg>