<svg xmlns="http://www.w3.org/2000/svg" viewBox="0 0 326.78 144.84"><defs><style>.cls-1{fill:#eff5f8;}.cls-2{fill:#fff;}.cls-3{fill:#3273ad;}.cls-4{fill:#caedff;}.cls-5{fill:#b7d1e5;}.cls-6{fill:#0aa5e3;}.cls-7{fill:#e8d5c8;}.cls-8{fill:#f4e9e1;}.cls-9{fill:#ede0d6;}.cls-10{fill:#f9f0ea;}.cls-11{fill:#cdebfc;}.cls-12{fill:#046ca3;}.cls-13{fill:#ffeec5;}.cls-14{opacity:0.5;}.cls-15{fill:#32b475;}.cls-16{fill:#e3b462;}</style></defs><title>connect-faculty_1</title><g id="Layer_2" data-name="Layer 2"><g id="Layer_1-2" data-name="Layer 1"><path class="cls-1" d="M279.07,100.83h-35.7a3.14,3.14,0,0,0,0,6.27H248a3.14,3.14,0,1,1,0,6.27H237.85a3.14,3.14,0,1,0,0,6.27h35.7a3.14,3.14,0,1,0,0-6.27h-9.74a3.14,3.14,0,1,1,0-6.27h15.25a3.14,3.14,0,1,0,0-6.27Z"/><polygon class="cls-2" points="176.88 100.04 163.04 124.8 202.95 124.8 191.24 100.01 176.88 100.04"/><path class="cls-3" d="M203.43,125.1h-40.9L176.7,99.74l14.74,0Zm-39.87-.6h38.91l-11.42-24.19-14,0Z"/><rect class="cls-3" x="167.48" y="121.58" width="30.68" height="0.6"/><rect class="cls-2" x="121.02" y="27.26" width="123.95" height="75.15" rx="3.63" ry="3.63"/><path class="cls-3" d="M241.34,102.71H124.65a3.93,3.93,0,0,1-3.93-3.93V30.89A3.93,3.93,0,0,1,124.65,27H241.34a3.93,3.93,0,0,1,3.93,3.93V98.78A3.93,3.93,0,0,1,241.34,102.71ZM124.65,27.57a3.33,3.33,0,0,0-3.33,3.33V98.78a3.33,3.33,0,0,0,3.33,3.33H241.34a3.33,3.33,0,0,0,3.33-3.33V30.89a3.33,3.33,0,0,0-3.33-3.33Z"/><path class="cls-3" d="M236.59,97.84H129.4a3.55,3.55,0,0,1-3.54-3.54V35.37a3.55,3.55,0,0,1,3.54-3.54H236.59a3.55,3.55,0,0,1,3.54,3.54V94.3A3.55,3.55,0,0,1,236.59,97.84ZM129.4,32.44a2.94,2.94,0,0,0-2.94,2.94V94.3a2.94,2.94,0,0,0,2.94,2.94H236.59a2.94,2.94,0,0,0,2.94-2.94V35.37a2.94,2.94,0,0,0-2.94-2.94Z"/><rect class="cls-4" x="136.29" y="41.82" width="94.41" height="45.26" rx="4.17" ry="4.17"/><path class="cls-3" d="M226.53,87.38H140.46A4.48,4.48,0,0,1,136,82.91V46a4.48,4.48,0,0,1,4.48-4.48h86.07A4.48,4.48,0,0,1,231,46V82.91A4.48,4.48,0,0,1,226.53,87.38ZM140.46,42.13A3.88,3.88,0,0,0,136.59,46V82.91a3.88,3.88,0,0,0,3.87,3.87h86.07a3.88,3.88,0,0,0,3.87-3.87V46a3.88,3.88,0,0,0-3.87-3.87Z"/><path class="cls-5" d="M201,78.81s7.87-.85,7.26,8.12H189.47s.49-8.49,8.37-8.14Z"/><path class="cls-3" d="M208.36,87.09H189.3v-.17c0-.09.59-8.65,8.54-8.29l3.09,0a7.42,7.42,0,0,1,5.48,1.78c1.49,1.43,2.15,3.62,1.95,6.52Zm-18.72-.32h18.41c.16-2.72-.47-4.77-1.86-6.11A7.21,7.21,0,0,0,201,79h0l-3.11,0C190.83,78.63,189.78,85.58,189.65,86.77Z"/><path class="cls-6" d="M190,68s-2.78-8.78,1.92-9.74c0,0,.74-5.79,6.09-2.89,0,0,3.86-2.65,5.55.29a2.94,2.94,0,0,1,2.56,2.75s1.54-.29,1.78,1.78a53.64,53.64,0,0,1-.41,7.67"/><path class="cls-3" d="M189.85,68.07c-.07-.23-1.75-5.63-.11-8.42a3.11,3.11,0,0,1,2-1.5,4.83,4.83,0,0,1,2.13-3.4c1.09-.56,2.47-.41,4.1.45a5.81,5.81,0,0,1,3.9-1,2.72,2.72,0,0,1,1.76,1.32,3.11,3.11,0,0,1,2.6,2.72,1.61,1.61,0,0,1,1,.31,2.25,2.25,0,0,1,.8,1.63,52.75,52.75,0,0,1-.41,7.7l-.32,0a53.76,53.76,0,0,0,.41-7.63,2,2,0,0,0-.67-1.41,1.3,1.3,0,0,0-.93-.23l-.17,0,0-.17a2.76,2.76,0,0,0-2.41-2.61h-.08l0-.07a2.42,2.42,0,0,0-1.59-1.24c-1.68-.38-3.7,1-3.72,1l-.08.06-.09,0c-1.57-.85-2.87-1-3.88-.5-1.64.84-2,3.24-2,3.27v.12l-.11,0A2.81,2.81,0,0,0,190,59.81c-1.57,2.67.12,8.11.14,8.16Z"/><path class="cls-2" d="M191.92,70.69S188.84,71,190,68c0,0,.77-.87,1.54-.53"/><path class="cls-3" d="M191.71,70.86a2.34,2.34,0,0,1-1.85-.72,2.2,2.2,0,0,1,0-2.17l0,0s.86-1,1.73-.57l-.13.3c-.59-.26-1.22.35-1.34.47a1.89,1.89,0,0,0,0,1.83c.51.69,1.76.59,1.78.59l0,.32Z"/><path class="cls-2" d="M196.85,77.54V79A2.5,2.5,0,0,0,199,80.08,2,2,0,0,0,201,78.81V77.36"/><path class="cls-3" d="M199,80.25a2.63,2.63,0,0,1-2.24-1.19l0,0V77.54H197v1.39a2.33,2.33,0,0,0,2,1,1.85,1.85,0,0,0,1.75-1.14V77.36h.32v1.49A2.18,2.18,0,0,1,199,80.24Z"/><path class="cls-2" d="M205.85,68s1.66-.68,2.09.39.69,2.65-2.09,2.34"/><path class="cls-3" d="M206.5,70.9a6,6,0,0,1-.67,0l0-.32c1,.12,1.7,0,2-.42a1.87,1.87,0,0,0-.08-1.7c-.37-.9-1.86-.3-1.88-.3l-.12-.3c.07,0,1.81-.72,2.3.47a2,2,0,0,1,0,2A1.93,1.93,0,0,1,206.5,70.9Z"/><path class="cls-7" d="M191.64,63.88s-1.45,14.28,6.95,13.79c0,0,9.07,1.16,6.95-14.37,0,0-3.42.24-4.29-1.93,0,0-.53-.53-.63.77s-1.35,3.18-4.1,1.4c0,0-2.17,2-4.15.34C192.36,63.88,191.7,63.1,191.64,63.88Z"/><path class="cls-3" d="M199,77.85a3.88,3.88,0,0,1-.46,0,5.42,5.42,0,0,1-4.42-1.66c-1.47-1.54-2.37-4.08-2.67-7.56a28.9,28.9,0,0,1,0-4.75c0-.26.11-.43.27-.48s.64.27.74.39c1.82,1.55,3.83-.27,3.91-.35l.09-.09.11.07a2.82,2.82,0,0,0,2.74.53,2.23,2.23,0,0,0,1.11-1.8c0-.59.18-.91.42-1a.48.48,0,0,1,.48.13l0,.05c.81,2,4.1,1.83,4.13,1.83h.15l0,.15c.83,6.09.07,10.37-2.27,12.73A6.22,6.22,0,0,1,199,77.85Zm-.44-.35a6,6,0,0,0,4.62-1.74c2.24-2.26,3-6.4,2.19-12.31-.69,0-3.46,0-4.29-2,0,0-.08-.05-.12,0s-.17.08-.21.73a2.53,2.53,0,0,1-1.29,2.07c-.56.28-1.53.42-3-.48-.46.37-2.44,1.82-4.27.26a.92.92,0,0,0-.41-.31.36.36,0,0,0,0,.2h0c0,.08-.82,8.51,2.58,12.06A5.14,5.14,0,0,0,198.58,77.51Z"/><rect class="cls-3" x="193.01" y="66.97" width="3.88" height="0.32" transform="translate(-9.07 37.35) rotate(-10.7)"/><rect class="cls-3" x="202.28" y="65.12" width="0.32" height="4.02" transform="translate(99.99 254.19) rotate(-79.63)"/><path class="cls-3" d="M198.77,71.27h-.08c-1-.11-1.22-1.24-1.23-1.29l.32-.05s.17.94.94,1h0a1.29,1.29,0,0,0,.87-.28.9.9,0,0,0,.24-.71h.32a1.21,1.21,0,0,1-.34,1A1.55,1.55,0,0,1,198.77,71.27Z"/><path class="cls-3" d="M199.53,74.94h-1.39l-.78-1.63h3.44Zm-1.18-.32h1l.76-1h-2.26Z"/><polygon class="cls-3" points="199.21 86.93 198.88 86.93 198.88 82.37 195.29 79.11 195.5 78.87 199.21 82.23 199.21 86.93"/><rect class="cls-3" x="198.37" y="80.48" width="4.75" height="0.32" transform="translate(0.62 162.81) rotate(-44.21)"/><rect class="cls-3" x="191.86" y="84.37" width="0.32" height="2.56"/><rect class="cls-3" x="205.95" y="84.62" width="0.32" height="2.32"/><circle class="cls-3" cx="195.02" cy="68.99" r="0.48"/><circle class="cls-3" cx="201.97" cy="68.99" r="0.48"/><path class="cls-5" d="M153.86,78.59s8.37-.91,7.73,8.64H141.65s-.15-9,7.85-8.47"/><path class="cls-3" d="M161.75,87.41H141.48v-.17c0-.18,0-4.44,2.59-6.94a6.86,6.86,0,0,1,5.44-1.71l0,.34a6.54,6.54,0,0,0-5.18,1.61c-2.24,2.12-2.46,5.69-2.48,6.51h19.61c.17-2.89-.5-5.08-2-6.5a7.7,7.7,0,0,0-5.57-1.8l0-.34a7.9,7.9,0,0,1,5.84,1.89c1.59,1.52,2.28,3.86,2.07,6.94Z"/><path class="cls-6" d="M145.32,70.4s-4.34-.16-3.11-3.29c0,0,1.42-.92,2.24-.56,0,0-7.28-5.45-.08-7.41,0,0,1.82-8,10.94-3,0,0,9.13-3,3.09,11,0,0,2.44-.77,2.91.36s-.6,2.82-3.56,2.49"/><path class="cls-3" d="M145.31,70.58c-.1,0-2.35-.1-3.19-1.38a2.26,2.26,0,0,1-.07-2.15l0-.05,0,0a4.47,4.47,0,0,1,1.75-.67c-1-.85-3.17-2.94-2.81-4.82.21-1.12,1.28-2,3.17-2.49a6.63,6.63,0,0,1,3.39-4.23c2-.92,4.63-.53,7.71,1.14.47-.14,3-.81,4.41.72s1.14,5.06-1,10.23c.73-.17,2.36-.44,2.77.55a1.71,1.71,0,0,1-.26,1.68,3.72,3.72,0,0,1-3.48,1l0-.34a3.39,3.39,0,0,0,3.16-.91,1.37,1.37,0,0,0,.22-1.34c-.33-.8-2.06-.46-2.69-.26l-.36.11.15-.35c2.21-5.14,2.63-8.66,1.24-10.18s-4.09-.61-4.12-.6l-.07,0-.07,0c-3-1.65-5.52-2-7.47-1.16a6.44,6.44,0,0,0-3.22,4.09l0,.1-.1,0c-1.81.49-2.83,1.25-3,2.24-.41,2.16,3.12,4.84,3.16,4.86l1.2.9-1.37-.6c-.58-.25-1.62.26-2,.52a1.91,1.91,0,0,0,.06,1.78c.74,1.13,2.89,1.22,2.91,1.22Z"/><path class="cls-2" d="M149.5,77.24v1.53a2.66,2.66,0,0,0,2.34,1.18,2.13,2.13,0,0,0,2-1.35V77.06"/><path class="cls-3" d="M151.73,80.12a2.8,2.8,0,0,1-2.38-1.27l0,0V77.24h.35v1.48a2.46,2.46,0,0,0,2.16,1.06,2,2,0,0,0,1.86-1.21V77.06H154v1.59a2.32,2.32,0,0,1-2.19,1.47Z"/><path class="cls-8" d="M158.74,62.09c-.1,1.39-6.67,2.16-9.6.26,0,0-2.31,2.16-4.41.36,0,0-.71-.83-.77,0,0,0,1,15.11,7.39,14.68,0,0,7.12,1.36,7.39-15.29"/><path class="cls-3" d="M151.74,77.58a2.6,2.6,0,0,1-.4,0,4,4,0,0,1-3-1.07c-1.62-1.41-2.88-4.16-3.75-8.17a43.44,43.44,0,0,1-.83-5.6c0-.31.12-.48.29-.54s.68.29.79.41c1.95,1.66,4.14-.35,4.17-.37l.1-.09.11.07c2.26,1.47,7,1.31,8.75.44.36-.18.57-.38.58-.56l.35,0c-.15,9.14-2.38,12.85-4.24,14.36A4.67,4.67,0,0,1,151.74,77.58Zm-.38-.37h0a4.11,4.11,0,0,0,3.09-1c1.75-1.43,3.85-4.93,4.08-13.48a2.29,2.29,0,0,1-.42.26c-1.85.92-6.55,1.09-9-.39-.48.4-2.6,1.93-4.54.28a1,1,0,0,0-.44-.33.38.38,0,0,0-.05.21c0,.08.73,10.25,4.46,13.51a3.69,3.69,0,0,0,2.74,1Z"/><path class="cls-3" d="M151.54,70.58h-.08c-1.08-.12-1.3-1.32-1.31-1.38l.34-.06s.18,1,1,1.09h0a1.37,1.37,0,0,0,.92-.3,1,1,0,0,0,.25-.76H153a1.28,1.28,0,0,1-.36,1A1.65,1.65,0,0,1,151.54,70.58Z"/><rect class="cls-3" x="144.19" y="84.51" width="0.35" height="2.72"/><rect class="cls-3" x="159.18" y="84.77" width="0.35" height="2.46"/><circle class="cls-3" cx="147.55" cy="68.14" r="0.52"/><circle class="cls-3" cx="154.94" cy="68.14" r="0.52"/><path class="cls-3" d="M152,74.4h0A3.93,3.93,0,0,1,149.37,73l.27-.22A3.64,3.64,0,0,0,152,74.05h0a3,3,0,0,0,2.24-1.25l.26.22A3.29,3.29,0,0,1,152,74.4Z"/><path class="cls-3" d="M145.72,67.72l-.3-.17a3.17,3.17,0,0,1,4.15-1.23l-.15.31A2.79,2.79,0,0,0,145.72,67.72Z"/><path class="cls-3" d="M156.81,66.64a1.73,1.73,0,0,0-1.14-.9,2.85,2.85,0,0,0-1.93.53l-.21-.28a3.15,3.15,0,0,1,2.2-.59,2.06,2.06,0,0,1,1.37,1.06Z"/><path class="cls-3" d="M152,82.85c-2.62,0-4.51-3.78-4.59-3.94l.31-.15s1.88,3.75,4.28,3.75h0c1.42,0,2.77-1.29,4-3.84l.31.15c-1.31,2.67-2.77,4-4.34,4Z"/><polygon class="cls-3" points="151.31 75 150.75 75.92 153.17 75.92 152.84 75 151.31 75"/><path class="cls-5" d="M178.52,76.29s10.41-1.13,9.6,10.74H163.34S164,75.8,174.41,76.26Z"/><path class="cls-3" d="M188.33,87.25H163.11V87c0-.11.78-11.44,11.3-11l4.09,0a9.81,9.81,0,0,1,7.25,2.35c2,1.89,2.84,4.79,2.58,8.62Zm-24.75-.43h24.35c.21-3.6-.62-6.31-2.46-8.08-2.75-2.65-6.88-2.23-6.92-2.23h0l-4.11,0C165.14,76.06,163.74,85.24,163.58,86.82Z"/><path class="cls-9" d="M173.1,74.61v1.9A3.3,3.3,0,0,0,176,78a2.64,2.64,0,0,0,2.52-1.68V74.38"/><path class="cls-3" d="M175.88,78.19a3.48,3.48,0,0,1-3-1.58l0-.05v-2h.43v1.83A3.08,3.08,0,0,0,176,77.76a2.45,2.45,0,0,0,2.31-1.5V74.38h.43v2A2.88,2.88,0,0,1,176,78.19Z"/><polygon class="cls-3" points="176.22 87.03 175.79 87.03 175.79 81 171.03 76.69 171.32 76.37 176.22 80.81 176.22 87.03"/><rect class="cls-3" x="175.11" y="78.5" width="6.28" height="0.43" transform="translate(-4.41 146.58) rotate(-44.21)"/><rect class="cls-3" x="166.51" y="83.65" width="0.43" height="3.38"/><rect class="cls-3" x="185.13" y="83.97" width="0.43" height="3.06"/><path class="cls-6" d="M167.57,65.31s-1.36-.33-1.41-4.91c0,0-3.79-.89-1.32-5.95s15.7-9.48,17.28-.95c0,0,7.49-.79,2.64,11.12"/><path class="cls-3" d="M167.57,65.54h-.05c-.15,0-1.5-.49-1.59-5A3.2,3.2,0,0,1,164.08,59c-.56-1.17-.37-2.72.55-4.61,1.71-3.49,8-6.42,12.52-5.8a5.67,5.67,0,0,1,5.15,4.72,4.16,4.16,0,0,1,3.42,1.53c1.41,1.88,1.16,5.21-.76,9.91a.23.23,0,1,1-.42-.17c1.82-4.48,2.11-7.75.82-9.46a3.84,3.84,0,0,0-3.22-1.34.23.23,0,0,1-.25-.19,5.26,5.26,0,0,0-4.8-4.54c-4.33-.59-10.41,2.21-12,5.55-.86,1.75-1,3.17-.55,4.21a2.77,2.77,0,0,0,1.71,1.42.23.23,0,0,1,.18.22c0,4.21,1.23,4.68,1.24,4.69a.23.23,0,0,1-.05.45Z"/><circle class="cls-3" cx="180.12" cy="65.31" r="0.61"/><path class="cls-9" d="M182,54.88s-4.53,5.37-13.59,3.27c0,0-.84-.21-.95,2.85s0,14.23,7.69,14.44,11-7.27,9.17-15.28c0,0-.76-4.24-2.42-4Z"/><path class="cls-3" d="M175.43,75.66h-.32a6.46,6.46,0,0,1-4.7-2.07c-3.18-3.38-3.31-9.94-3.22-12.61.06-1.6.32-2.59.78-2.94a.54.54,0,0,1,.45-.12c8.82,2.05,13.32-3.14,13.36-3.19a.23.23,0,0,1,.4.17l-.08,1c1.63.16,2.32,3.77,2.4,4.2,1.09,4.86.31,9.5-2.08,12.4A8.73,8.73,0,0,1,175.43,75.66Zm-7.11-17.29s-.58.11-.67,2.63,0,9,3.09,12.28a6,6,0,0,0,4.38,1.92,8.38,8.38,0,0,0,7-3c2.3-2.79,3-7.29,2-12-.2-1.13-1-4-2.17-3.83a.22.22,0,0,1-.19-.06.23.23,0,0,1-.07-.19l.05-.64C180.3,56.75,175.81,60.11,168.32,58.37Z"/><rect class="cls-2" x="169.11" y="63" width="6.01" height="4.64" rx="2.32" ry="2.32"/><path class="cls-3" d="M172.79,67.86h-1.37a2.55,2.55,0,0,1,0-5.09h1.37a2.55,2.55,0,1,1,0,5.09Zm-1.37-4.64a2.09,2.09,0,0,0,0,4.18h1.37a2.09,2.09,0,1,0,0-4.18Z"/><rect class="cls-2" x="177.11" y="63" width="6.01" height="4.64" rx="2.32" ry="2.32"/><path class="cls-3" d="M180.8,67.86h-1.37a2.55,2.55,0,0,1,0-5.09h1.37a2.55,2.55,0,0,1,0,5.09Zm-1.37-4.64a2.09,2.09,0,0,0,0,4.18h1.37a2.09,2.09,0,0,0,0-4.18Z"/><path class="cls-2" d="M173.32,70.06h5.46a2.58,2.58,0,0,1-2.69,2.62C173.44,72.65,173.32,71.07,173.32,70.06Z"/><path class="cls-3" d="M176.13,72.9h0c-3,0-3-2-3-2.85a.23.23,0,0,1,.23-.23h5.46a.23.23,0,0,1,.23.23,3.22,3.22,0,0,1-.85,2.1A2.77,2.77,0,0,1,176.13,72.9Zm-2.58-2.62c0,.85.22,2.14,2.54,2.16h0a2.34,2.34,0,0,0,1.71-.62,2.66,2.66,0,0,0,.7-1.54Z"/><path class="cls-3" d="M182.44,61.64a.23.23,0,0,1-.2-.12,1.66,1.66,0,0,0-1-.86,2.89,2.89,0,0,0-1.93.36.23.23,0,0,1-.24-.39,3.33,3.33,0,0,1,2.28-.41,2.1,2.1,0,0,1,1.31,1.08.23.23,0,0,1-.2.34Z"/><path class="cls-3" d="M169.79,61.64a.23.23,0,0,1-.2-.34c.91-1.58,3.07-1,4.09-.5a.23.23,0,0,1-.21.41s-2.56-1.27-3.48.32A.23.23,0,0,1,169.79,61.64Z"/><path class="cls-3" d="M177.11,65.54a.23.23,0,0,1-.21-.14c-.16-.38-.36-.58-.58-.61-.39,0-.88.46-1,.65a.23.23,0,0,1-.36-.28c.07-.09.71-.92,1.45-.83.39,0,.71.34.95.88a.23.23,0,0,1-.12.3Z"/><circle class="cls-3" cx="171.87" cy="65.31" r="0.61"/><circle class="cls-3" cx="180.3" cy="65.31" r="0.61"/><path class="cls-6" d="M226.6,64.63l-1.18,5.07s-9.39-7.53-15.22,1.35c0,0-4.89-12.85,7.61-12.85C220.76,58.21,225.08,58.88,226.6,64.63Z"/><path class="cls-3" d="M210.15,71.42l-.12-.3a17.17,17.17,0,0,1-.84-3.55,9.51,9.51,0,0,1,1.16-6.47c1.4-2,3.9-3.05,7.44-3.05,1.79,0,7.22,0,9,6.55v0L225.52,70l-.21-.16s-4.52-3.56-9.1-2.84a8.64,8.64,0,0,0-5.87,4.16Zm7.65-13c-3.43,0-5.84,1-7.17,2.91-2.21,3.2-.81,8.13-.39,9.41a8.83,8.83,0,0,1,5.92-4c4.16-.66,8.21,2.06,9.15,2.75l1.12-4.79C224.92,59,220.79,58.37,217.8,58.37Z"/><path class="cls-3" d="M224.88,73.62l-.07-.32c1.08-.22,1.67-.58,1.78-1.07.16-.76-1-1.76-1.4-2.09l.19-.27c.07.05,1.77,1.29,1.53,2.42C226.78,72.92,226.1,73.37,224.88,73.62Z"/><path class="cls-2" d="M210.19,71.06s-1.8,2.11.85,3"/><path class="cls-3" d="M211,74.23a2.08,2.08,0,0,1-1.51-1.3,2.48,2.48,0,0,1,.59-2l.25.22a2.19,2.19,0,0,0-.52,1.68,1.78,1.78,0,0,0,1.29,1.07Z"/><path class="cls-6" d="M214.57,77.13l-4.38.05.14-3.43a13,13,0,0,0,1.49.66h0"/><path class="cls-3" d="M210,77.35l.15-3.87.23.13a12.91,12.91,0,0,0,1.47.65l.38.14-.12.31-.38-.14a13.59,13.59,0,0,1-1.28-.55l-.12,3,4.2,0v.33Z"/><path class="cls-6" d="M222.16,76.42h4.22l-1-3.11s-.9-.11-1.52,1.28"/><path class="cls-3" d="M226.6,76.59h-4.44v-.33h4l-.86-2.77c-.23,0-.81.18-1.24,1.18l-.3-.13c.66-1.48,1.65-1.38,1.69-1.37h.11Z"/><path class="cls-5" d="M210.32,86.59V82.36s1.51-2.71,3.48-2.76c0,0-1.4-1.61,1.69-1.69s7.56-1.86,7.81,1.69c0,0,2.79.56,3.07,2.65v4.34"/><path class="cls-3" d="M226.54,86.59h-.33V82.25c-.26-1.92-2.91-2.48-2.94-2.49l-.12,0v-.13a2.06,2.06,0,0,0-.69-1.55c-.94-.76-2.77-.5-4.54-.24a21.87,21.87,0,0,1-2.42.26c-1.3,0-1.7.33-1.81.58s.23.83.24.83l.23.26h-.35c-1.73,0-3.14,2.32-3.32,2.64v4.18h-.33V82.32l0,0c.06-.11,1.44-2.54,3.33-2.82a1.06,1.06,0,0,1-.12-.94c.22-.49.9-.75,2.1-.78a21.57,21.57,0,0,0,2.38-.25c1.84-.26,3.74-.54,4.79.31a2.34,2.34,0,0,1,.8,1.66c.56.14,2.82.82,3.08,2.76Z"/><rect class="cls-3" x="223.89" y="84.05" width="0.33" height="2.54"/><rect class="cls-3" x="218.18" y="81.99" width="0.33" height="4.6"/><rect class="cls-3" x="212.79" y="84.05" width="0.33" height="2.54"/><path class="cls-3" d="M218.42,82h0a5.37,5.37,0,0,1-3.72-1.9l.26-.21a5.12,5.12,0,0,0,3.47,1.78h0A4.79,4.79,0,0,0,222,79.61l.26.21A5.1,5.1,0,0,1,218.42,82Z"/><path class="cls-2" d="M216.53,77.91v.84s-2.34-.06-1,1,4,2.09,5.78-.45a1.07,1.07,0,0,0-1.25-.9v-.87"/><path class="cls-3" d="M218.52,81a5.46,5.46,0,0,1-3.07-1.15c-.15-.11-.59-.44-.47-.79s1-.46,1.39-.47v-.68h.33v1h-.17c-.54,0-1.18.09-1.24.24s0,.12.35.42a4.8,4.8,0,0,0,3.35,1,3.29,3.29,0,0,0,2.16-1.41c0-.19-.23-.73-1.06-.69h-.17v-1h.33v.7a1.22,1.22,0,0,1,1.25,1.05v.06l0,.05a3.63,3.63,0,0,1-2.42,1.6A3.5,3.5,0,0,1,218.52,81Z"/><path class="cls-10" d="M210.19,71.06s2.11,7,7.44,6.85,7.69-4.48,7.78-8.2l-.76-2.79h-2.37l-2-4.82-.93,4.06-8.46,1.1Z"/><path class="cls-3" d="M217.45,78.08c-5.25,0-7.39-6.9-7.41-7v0l.7-4,8.46-1.1,1-4.45,2.19,5.19h2.38l.8,2.94v0c-.09,3.91-2.61,8.2-7.94,8.36Zm-7.08-7c.18.54,2.33,6.86,7.27,6.69,5.1-.16,7.52-4.26,7.62-8l-.72-2.64h-2.35l-1.87-4.45-.84,3.67L211,67.4Z"/><path class="cls-3" d="M219.83,69.18l-.16-.29a6.13,6.13,0,0,1,3.67-.69l-.06.33A5.87,5.87,0,0,0,219.83,69.18Z"/><path class="cls-3" d="M212.33,69.58l-.21-.26c2.09-1.65,3.74-.84,3.81-.81l-.15.3C215.72,68.78,214.24,68.07,212.33,69.58Z"/><path class="cls-3" d="M217.79,73.21a2.18,2.18,0,0,1-1.38-.77l.25-.21s.61.71,1.2.65a1,1,0,0,0,.72-.62l.29.15a1.3,1.3,0,0,1-1,.8Z"/><path class="cls-3" d="M218.21,76.08a2.61,2.61,0,0,1-1.61-.61l.23-.24a2.06,2.06,0,0,0,2.88-.12l.22.25A2.51,2.51,0,0,1,218.21,76.08Z"/><circle class="cls-3" cx="214.57" cy="70.7" r="0.53"/><circle class="cls-3" cx="221.33" cy="70.7" r="0.53"/><path class="cls-3" d="M180.8,31.4a1.58,1.58,0,1,1,1.58-1.58A1.59,1.59,0,0,1,180.8,31.4Zm0-2.42a.83.83,0,1,0,.83.83A.84.84,0,0,0,180.8,29Z"/><path class="cls-1" d="M50.25,112.87h35.7a3.14,3.14,0,0,1,0,6.27H81.29a3.14,3.14,0,0,0,0,6.27H91.46a3.14,3.14,0,0,1,0,6.27H55.76a3.14,3.14,0,0,1,0-6.27H65.5a3.14,3.14,0,1,0,0-6.27H50.25a3.14,3.14,0,0,1,0-6.27Z"/><path class="cls-1" d="M46.61,77H5.32a3.1,3.1,0,0,1,0-6.2H15.91a3.1,3.1,0,0,0,0-6.2H9.28a3.1,3.1,0,1,1,0-6.2H36a3.1,3.1,0,0,1,0,6.2H31.53a3.1,3.1,0,1,0,0,6.2H46.61a3.1,3.1,0,0,1,0,6.2Z"/><path class="cls-11" d="M80.63,34.42h0l-10-.45a1.16,1.16,0,0,1-.73-.1,1.2,1.2,0,0,1-.36-.87c0-.07,0-.13,0-.16a8.69,8.69,0,0,0-.34-1,6.56,6.56,0,0,0-.89-1.54,5.56,5.56,0,0,0-2.34-1.73,6.88,6.88,0,0,0-2.26-.45,7.46,7.46,0,0,0-.83,0,1.25,1.25,0,0,1-.67,0c-.35-.13-.48-.52-.71-1.46,0-.15-.07-.27-.09-.34a17.94,17.94,0,0,0-1-2.28,11.87,11.87,0,0,0-2.28-3.15,8.76,8.76,0,0,0-5.19-2.42,11.55,11.55,0,0,0-10.6,5.07,12.59,12.59,0,0,0-1.87,7.8.48.48,0,0,1-.95.1,13.57,13.57,0,0,1,2-8.41A12.37,12.37,0,0,1,53,17.57a9.7,9.7,0,0,1,5.75,2.68,12.8,12.8,0,0,1,2.46,3.4,18.81,18.81,0,0,1,1,2.4c0,.08.07.23.11.42s.13.52.2.74l.19,0a9,9,0,0,1,.93,0,7.85,7.85,0,0,1,2.57.52,6.52,6.52,0,0,1,2.74,2,7.48,7.48,0,0,1,1,1.77,9.69,9.69,0,0,1,.38,1.11c0,.06,0,.16.05.27l0,.17h.17l10,.45a.47.47,0,0,1,0,.95Z"/><path class="cls-11" d="M172.37,16.25h-5.81a.47.47,0,0,1-.47-.49,4.27,4.27,0,0,0-1.14-3.26c-1.77-1.82-5-1.8-5-1.81a.53.53,0,0,1-.36-.16.48.48,0,0,1-.11-.38,9.84,9.84,0,0,0-2-6.76A7.79,7.79,0,0,0,151.27,1,7.2,7.2,0,0,0,145.87,3c-2.4,2.51-2.26,6.5-2.26,6.54a.48.48,0,0,1-.19.4A.48.48,0,0,1,143,10a6.65,6.65,0,0,0-5.61.26c-2.84,1.65-3.64,5.54-3.65,5.58a.48.48,0,0,1-.47.38H121.84a.48.48,0,1,1,0-1h11c.29-1.1,1.32-4.27,4-5.83a7.29,7.29,0,0,1,5.78-.53,10.44,10.44,0,0,1,2.51-6.57A8.1,8.1,0,0,1,151.27,0a8.72,8.72,0,0,1,6.86,2.75,10.73,10.73,0,0,1,2.31,7,8.31,8.31,0,0,1,5.19,2.08A5.06,5.06,0,0,1,167,15.3h5.33a.48.48,0,1,1,0,1Z"/><path class="cls-3" d="M5.92,144.64H.67c-.26,0-.47-.1-.47-.23s.21-.23.47-.23H5.92c.26,0,.47.1.47.23S6.18,144.64,5.92,144.64Z"/><path class="cls-12" d="M5.92,144.84H.67c-.39,0-.67-.18-.67-.43s.28-.43.67-.43H5.92c.39,0,.67.18.67.43S6.31,144.84,5.92,144.84ZM.46,144.4a.61.61,0,0,0,.21,0H5.92a.11.11,0,1,0,0-.07H.67A.61.61,0,0,0,.46,144.4Z"/><path class="cls-3" d="M300.26,144.64h-290c-.28,0-.5-.11-.5-.25s.22-.25.5-.25h290c.28,0,.5.11.5.25S300.53,144.64,300.26,144.64Z"/><path class="cls-12" d="M300.26,144.84h-290c-.41,0-.7-.19-.7-.45s.29-.45.7-.45h290c.41,0,.7.19.7.45S300.66,144.84,300.26,144.84ZM10,144.39a.61.61,0,0,0,.26,0h290a.61.61,0,0,0,.26,0,.63.63,0,0,0-.26,0h-290A.63.63,0,0,0,10,144.39Z"/><path class="cls-3" d="M309.26,144.64h-3.62c-.28,0-.5-.11-.5-.25s.22-.25.5-.25h3.62c.28,0,.5.11.5.25S309.53,144.64,309.26,144.64Z"/><path class="cls-12" d="M309.26,144.84h-3.62c-.41,0-.7-.19-.7-.45s.29-.45.7-.45h3.62c.41,0,.7.19.7.45S309.66,144.84,309.26,144.84Zm-3.88-.45a.61.61,0,0,0,.26,0h3.62a.61.61,0,0,0,.26,0,.63.63,0,0,0-.26,0h-3.62A.63.63,0,0,0,305.38,144.39Z"/><path class="cls-9" d="M108.59,87.56s3.25,4.94.26,9.58l19.79.61s-3.29-1.89-.83-9.41C127.82,88.34,122.08,78.81,108.59,87.56Z"/><path class="cls-3" d="M130.68,98.32l-22.75-.7.49-.76c2.77-4.29-.23-9-.26-9l-.28-.43.43-.28c5-3.22,9.48-4.39,13.43-3.48a10.71,10.71,0,0,1,6.52,4.43l.12.2-.07.22c-2.31,7,.57,8.79.6,8.81Zm-21-1.67,17.69.54c-.85-1.25-1.71-3.85-.16-8.78a10,10,0,0,0-5.77-3.78c-3.55-.81-7.65.23-12.2,3.09C110,89,111.69,92.81,109.73,96.65Z"/><path class="cls-6" d="M116.23,92c-5.18,0-7.75-1.21-7.86-1.26a23.78,23.78,0,0,1-5.54-4.7A50.66,50.66,0,0,1,97.7,78.5c-.39-.84-9.14-20-3.86-28.24,1.57-2.46,4.21-3.7,7.85-3.7.43,0,.89,0,1.35.05.62-2.27,4-12.41,15-12.41a23.53,23.53,0,0,1,6.82,1.11.51.51,0,0,1,.23.83l-.44.5,4.82,0,.16,0c.35.11,8.51,2.85,12.53,10.77,2.66,5.25,2.84,11.5.52,18.58a51.08,51.08,0,0,1-5.55,14c-.45.7-4.34,6.71-6.72,7.9-.42.53-2.26,2.51-7.21,3.38A40.64,40.64,0,0,1,116.23,92Z"/><path class="cls-3" d="M118.09,34.72a22.85,22.85,0,0,1,6.67,1.09l-1.19,1.35,5.95,0s20,6.51,12.72,28.71a50.21,50.21,0,0,1-5.49,13.86s-4.33,6.76-6.62,7.76c0,0-1.49,2.32-7,3.28a39.94,39.94,0,0,1-6.95.65c-5.12,0-7.63-1.21-7.63-1.21a23.58,23.58,0,0,1-5.38-4.57,50.79,50.79,0,0,1-5.07-7.43s-14.43-31.17,3.54-31.17c.55,0,1.13,0,1.74.09,0,0,2.57-12.44,14.66-12.44m0-1c-10.82,0-14.53,9.42-15.43,12.38l-1,0c-3.83,0-6.61,1.33-8.28,3.94-5.43,8.5,3.43,27.87,3.81,28.69l0,.07a51.21,51.21,0,0,0,5.19,7.6,24.46,24.46,0,0,0,5.64,4.79l.06,0c.11.05,2.78,1.31,8.08,1.31a41.17,41.17,0,0,0,7.12-.66c4.89-.87,6.87-2.77,7.45-3.48,2.45-1.35,6.08-6.88,6.8-8a50.79,50.79,0,0,0,5.62-14.14c2.34-7.2,2.15-13.56-.57-18.92-4.11-8.11-12.47-10.91-12.82-11a1,1,0,0,0-.31-.05l-3.8,0a1,1,0,0,0-.67-1.31,24,24,0,0,0-7-1.13Z"/><path class="cls-13" d="M80.52,124.55a26.35,26.35,0,0,1,6.95-17.49c6.59-7,17.24-10.62,31.63-10.62h.11c13.28,0,23,3.4,28.74,10.06,6.22,7.17,5.91,16,5.74,18.05Z"/><path class="cls-3" d="M119.12,95.92v1h.09c13.11,0,22.65,3.34,28.33,9.87s5.81,14.59,5.67,17.22H81a25.79,25.79,0,0,1,6.79-16.62c6.49-6.95,17-10.47,31.27-10.47l0-1m0,0C78,95.92,80,125.06,80,125.06h74.13S158.23,96,119.21,95.92Z"/><rect class="cls-3" x="95.05" y="118.42" width="1.02" height="6.49"/><rect class="cls-3" x="140.6" y="119.04" width="1.02" height="6.15"/><path class="cls-1" d="M282.39,79.4h41.29a3.1,3.1,0,1,0,0-6.2H313.09a3.1,3.1,0,1,1,0-6.2h6.63a3.1,3.1,0,0,0,0-6.2H293a3.1,3.1,0,1,0,0,6.2h4.49a3.1,3.1,0,1,1,0,6.2H282.39a3.1,3.1,0,0,0,0,6.2Z"/><path class="cls-11" d="M278.07,31.41h0l10-.45a1.16,1.16,0,0,0,.73-.1,1.2,1.2,0,0,0,.36-.87c0-.07,0-.13,0-.16a8.69,8.69,0,0,1,.34-1,6.56,6.56,0,0,1,.89-1.54,5.56,5.56,0,0,1,2.34-1.73A6.88,6.88,0,0,1,295,25.1a7.46,7.46,0,0,1,.83,0,1.25,1.25,0,0,0,.67,0c.35-.13.48-.52.71-1.46,0-.15.07-.27.09-.34a17.94,17.94,0,0,1,1-2.28,11.87,11.87,0,0,1,2.28-3.15,8.76,8.76,0,0,1,5.19-2.42,11.55,11.55,0,0,1,10.6,5.07,12.59,12.59,0,0,1,1.87,7.8.48.48,0,0,0,.95.1,13.57,13.57,0,0,0-2-8.41,12.37,12.37,0,0,0-11.5-5.5,9.7,9.7,0,0,0-5.75,2.68,12.8,12.8,0,0,0-2.46,3.4,18.81,18.81,0,0,0-1,2.4c0,.08-.07.23-.11.42s-.13.52-.2.74l-.19,0a9,9,0,0,0-.93,0,7.85,7.85,0,0,0-2.57.52,6.52,6.52,0,0,0-2.74,2,7.48,7.48,0,0,0-1,1.77,9.69,9.69,0,0,0-.38,1.11c0,.06,0,.16-.05.27l0,.17H288l-10,.45a.47.47,0,0,0,0,.95Z"/><g class="cls-14"><path class="cls-6" d="M23.47,36.36A5.66,5.66,0,1,1,29.13,42,5.66,5.66,0,0,1,23.47,36.36Zm1.5,0a4.16,4.16,0,1,0,4.16-4.16A4.16,4.16,0,0,0,25,36.36Z"/><path class="cls-15" d="M49.72,85.1a3.58,3.58,0,1,1,3.58,3.58A3.58,3.58,0,0,1,49.72,85.1Zm.95,0a2.63,2.63,0,1,0,2.63-2.63A2.63,2.63,0,0,0,50.66,85.1Z"/><path class="cls-15" d="M53.47,121.67a3.41,3.41,0,1,1,3.41,3.41A3.41,3.41,0,0,1,53.47,121.67Zm1.5,0a1.91,1.91,0,1,0,1.91-1.91A1.91,1.91,0,0,0,55,121.67Z"/><path class="cls-16" d="M27.21,67.66A4.37,4.37,0,1,1,31.57,72,4.37,4.37,0,0,1,27.21,67.66Zm1.92,0a2.44,2.44,0,1,0,2.44-2.44A2.45,2.45,0,0,0,29.13,67.66Z"/><path class="cls-6" d="M20.31,104.68A5.66,5.66,0,1,1,26,110.34,5.66,5.66,0,0,1,20.31,104.68Zm1.5,0A4.16,4.16,0,1,0,26,100.52,4.16,4.16,0,0,0,21.81,104.68Z"/><path class="cls-16" d="M68.87,62.6a5.25,5.25,0,1,1,5.25,5.25A5.26,5.26,0,0,1,68.87,62.6Zm1.5,0a3.75,3.75,0,1,0,3.75-3.75A3.75,3.75,0,0,0,70.37,62.6Z"/><path class="cls-15" d="M229,14.49a3.41,3.41,0,1,1,3.41,3.41A3.41,3.41,0,0,1,229,14.49Zm1.5,0a1.91,1.91,0,1,0,1.91-1.91A1.91,1.91,0,0,0,230.47,14.49Z"/><path class="cls-6" d="M299.28,46.18a5.66,5.66,0,1,1,5.66-5.66A5.66,5.66,0,0,1,299.28,46.18Zm0-9.82a4.16,4.16,0,1,0,4.16,4.16A4.16,4.16,0,0,0,299.28,36.36Z"/><path class="cls-15" d="M272.28,74.85a3.41,3.41,0,1,1,3.41-3.41A3.41,3.41,0,0,1,272.28,74.85Zm0-5.31a1.91,1.91,0,1,0,1.91,1.91A1.91,1.91,0,0,0,272.28,69.54Z"/><path class="cls-16" d="M299.28,89a3.41,3.41,0,1,1,3.41-3.41A3.41,3.41,0,0,1,299.28,89Zm0-5.31a1.91,1.91,0,1,0,1.91,1.91A1.91,1.91,0,0,0,299.28,83.69Z"/><path class="cls-6" d="M263.41,112.83a5.66,5.66,0,1,1,5.66-5.66A5.66,5.66,0,0,1,263.41,112.83Zm0-9.82a4.16,4.16,0,1,0,4.16,4.16A4.16,4.16,0,0,0,263.41,103Z"/><path class="cls-16" d="M264.69,47.27A5.25,5.25,0,1,1,269.94,42,5.26,5.26,0,0,1,264.69,47.27Zm0-9A3.75,3.75,0,1,0,268.44,42,3.75,3.75,0,0,0,264.69,38.27Z"/></g><rect class="cls-3" x="74.12" y="124.67" width="171.15" height="0.5"/><polygon class="cls-3" points="183.21 64.94 183.04 64.47 184.9 63.79 185.07 64.26 183.21 64.94"/><rect class="cls-3" x="167.94" y="64.05" width="0.5" height="1.93" transform="translate(53.29 203.98) rotate(-71.55)"/></g></g></svg>