<svg xmlns="http://www.w3.org/2000/svg" viewBox="0 0 309.56 146.95"><defs><style>.cls-1{fill:#eff5f8;}.cls-2{fill:#cdebfc;}.cls-3{fill:#3273ad;}.cls-4{opacity:0.5;}.cls-5{fill:#0aa5e3;}.cls-6{fill:#32b475;}.cls-7{fill:#e3b462;}.cls-8{fill:#caedff;}.cls-9{fill:#fad264;}.cls-10{fill:#fff;}</style></defs><title>first-deck_1</title><g id="Layer_2" data-name="Layer 2"><g id="Layer_1-2" data-name="Layer 1"><path class="cls-1" d="M248.54,121h-35.7a3.14,3.14,0,1,0,0,6.27h4.65a3.14,3.14,0,0,1,0,6.27H207.33a3.14,3.14,0,1,0,0,6.27H243a3.14,3.14,0,0,0,0-6.27h-9.74a3.14,3.14,0,0,1,0-6.27h15.25a3.14,3.14,0,1,0,0-6.27Z"/><path class="cls-1" d="M24.64,123.59H65.76a3.09,3.09,0,1,0,0-6.18H55.22a3.09,3.09,0,0,1,0-6.18h6.6a3.09,3.09,0,0,0,0-6.18H35.19a3.09,3.09,0,0,0,0,6.18h4.47a3.09,3.09,0,0,1,0,6.18h-15a3.09,3.09,0,1,0,0,6.18Z"/><path class="cls-1" d="M251.86,89.58h41.29a3.1,3.1,0,1,0,0-6.2H282.56a3.1,3.1,0,1,1,0-6.2h6.63a3.1,3.1,0,1,0,0-6.2H262.45a3.1,3.1,0,1,0,0,6.2h4.49a3.1,3.1,0,1,1,0,6.2H251.86a3.1,3.1,0,1,0,0,6.2Z"/><path class="cls-1" d="M66,55.49H94.76a2.16,2.16,0,1,0,0-4.33H87.37a2.16,2.16,0,1,1,0-4.33H92a2.16,2.16,0,1,0,0-4.33H73.35a2.16,2.16,0,0,0,0,4.33h3.13a2.16,2.16,0,0,1,0,4.33H66a2.16,2.16,0,1,0,0,4.33Z"/><path class="cls-2" d="M19.94,44.06h5.81a.47.47,0,0,0,.47-.49,4.27,4.27,0,0,1,1.14-3.26c1.77-1.82,5-1.8,5-1.81a.53.53,0,0,0,.36-.16.48.48,0,0,0,.11-.38,9.84,9.84,0,0,1,2-6.76A7.79,7.79,0,0,1,41,28.76a7.2,7.2,0,0,1,5.4,2.06c2.4,2.51,2.26,6.5,2.26,6.54a.48.48,0,0,0,.19.4.48.48,0,0,0,.44.07,6.65,6.65,0,0,1,5.61.26c2.84,1.65,3.64,5.54,3.65,5.58a.48.48,0,0,0,.47.38H70.47a.48.48,0,1,0,0-1h-11c-.29-1.1-1.32-4.27-4-5.83a7.29,7.29,0,0,0-5.78-.53,10.44,10.44,0,0,0-2.51-6.57A8.1,8.1,0,0,0,41,27.81a8.72,8.72,0,0,0-6.86,2.75,10.73,10.73,0,0,0-2.31,7,8.31,8.31,0,0,0-5.19,2.08,5.06,5.06,0,0,0-1.41,3.47H19.94a.48.48,0,1,0,0,1Z"/><path class="cls-2" d="M247.55,51.59h0l10-.45a1.16,1.16,0,0,0,.73-.1,1.2,1.2,0,0,0,.36-.87c0-.07,0-.13,0-.16a8.69,8.69,0,0,1,.34-1,6.56,6.56,0,0,1,.89-1.54,5.56,5.56,0,0,1,2.34-1.73,6.88,6.88,0,0,1,2.26-.45,7.46,7.46,0,0,1,.83,0,1.25,1.25,0,0,0,.67,0c.35-.13.48-.52.71-1.46,0-.15.07-.27.09-.34a17.94,17.94,0,0,1,1-2.28A11.87,11.87,0,0,1,270,38.1a8.76,8.76,0,0,1,5.19-2.42,11.55,11.55,0,0,1,10.6,5.07,12.59,12.59,0,0,1,1.87,7.8.48.48,0,0,0,.95.1,13.57,13.57,0,0,0-2-8.41,12.37,12.37,0,0,0-11.5-5.5,9.7,9.7,0,0,0-5.75,2.68,12.8,12.8,0,0,0-2.46,3.4,18.81,18.81,0,0,0-1,2.4c0,.08-.07.23-.11.42s-.13.52-.2.74l-.19,0a9,9,0,0,0-.93,0,7.85,7.85,0,0,0-2.57.52,6.52,6.52,0,0,0-2.74,2,7.48,7.48,0,0,0-1,1.77,9.69,9.69,0,0,0-.38,1.11c0,.06,0,.16-.05.27l0,.17h-.17l-10,.45a.47.47,0,0,0,0,.95Z"/><path class="cls-2" d="M127.45,16.25h5.81a.47.47,0,0,0,.47-.49,4.27,4.27,0,0,1,1.14-3.26c1.77-1.82,5-1.8,5-1.81a.53.53,0,0,0,.36-.16.48.48,0,0,0,.11-.38,9.84,9.84,0,0,1,2-6.76A7.79,7.79,0,0,1,148.55,1,7.2,7.2,0,0,1,154,3c2.4,2.51,2.26,6.5,2.26,6.54a.48.48,0,0,0,.19.4.48.48,0,0,0,.44.07,6.65,6.65,0,0,1,5.61.26c2.84,1.65,3.64,5.54,3.65,5.58a.48.48,0,0,0,.47.38H178a.48.48,0,1,0,0-1h-11c-.29-1.1-1.32-4.27-4-5.83a7.29,7.29,0,0,0-5.78-.53,10.44,10.44,0,0,0-2.51-6.57A8.1,8.1,0,0,0,148.56,0a8.72,8.72,0,0,0-6.86,2.75,10.73,10.73,0,0,0-2.31,7,8.31,8.31,0,0,0-5.19,2.08,5.06,5.06,0,0,0-1.41,3.47h-5.33a.48.48,0,0,0,0,1Z"/><path class="cls-3" d="M5.72,146.95H.47c-.26,0-.47-.1-.47-.23s.21-.23.47-.23H5.72c.26,0,.47.1.47.23S6,146.95,5.72,146.95Z"/><path class="cls-3" d="M300.06,146.95h-290c-.28,0-.5-.11-.5-.25s.22-.25.5-.25h290c.28,0,.5.11.5.25S300.33,146.95,300.06,146.95Z"/><path class="cls-3" d="M309.06,146.95h-3.62c-.28,0-.5-.11-.5-.25s.22-.25.5-.25h3.62c.28,0,.5.11.5.25S309.33,146.95,309.06,146.95Z"/><g class="cls-4"><path class="cls-5" d="M251.41,70.2a5.66,5.66,0,1,1,5.66-5.66A5.66,5.66,0,0,1,251.41,70.2Zm0-9.82a4.16,4.16,0,1,0,4.16,4.16A4.16,4.16,0,0,0,251.41,60.39Z"/><path class="cls-6" d="M58.14,61.15a5.66,5.66,0,1,1,5.66-5.66A5.66,5.66,0,0,1,58.14,61.15Zm0-9.82a4.16,4.16,0,1,0,4.16,4.16A4.16,4.16,0,0,0,58.14,51.33Z"/><path class="cls-6" d="M222.18,137.09a3.58,3.58,0,1,1,3.58-3.58A3.58,3.58,0,0,1,222.18,137.09Zm0-6.21a2.63,2.63,0,1,0,2.63,2.63A2.63,2.63,0,0,0,222.18,130.88Z"/><path class="cls-6" d="M226,90.59a3.41,3.41,0,1,1,3.41-3.41A3.41,3.41,0,0,1,226,90.59Zm0-5.31a1.91,1.91,0,1,0,1.91,1.91A1.91,1.91,0,0,0,226,85.28Z"/><path class="cls-6" d="M91,103.7a3.41,3.41,0,1,1,3.41-3.41A3.41,3.41,0,0,1,91,103.7Zm0-5.31a1.91,1.91,0,1,0,1.91,1.91A1.91,1.91,0,0,0,91,98.39Z"/><path class="cls-7" d="M258.66,105.6a3.41,3.41,0,1,1,3.41-3.41A3.41,3.41,0,0,1,258.66,105.6Zm0-5.31a1.91,1.91,0,1,0,1.91,1.91A1.91,1.91,0,0,0,258.66,100.29Z"/><path class="cls-7" d="M87.62,71.21a4.75,4.75,0,1,1,4.75-4.75A4.76,4.76,0,0,1,87.62,71.21Zm0-8a3.25,3.25,0,1,0,3.25,3.25A3.25,3.25,0,0,0,87.62,63.21Z"/><path class="cls-5" d="M213.91,115a5.66,5.66,0,1,1,5.66-5.66A5.66,5.66,0,0,1,213.91,115Zm0-9.82a4.16,4.16,0,1,0,4.16,4.16A4.16,4.16,0,0,0,213.91,105.2Z"/><path class="cls-7" d="M76.61,136.54a5.66,5.66,0,1,1,5.66-5.66A5.66,5.66,0,0,1,76.61,136.54Zm0-9.82a4.16,4.16,0,1,0,4.16,4.16A4.16,4.16,0,0,0,76.61,126.73Z"/><path class="cls-7" d="M213.91,58a5.25,5.25,0,1,1,5.25-5.25A5.26,5.26,0,0,1,213.91,58Zm0-9a3.75,3.75,0,1,0,3.75,3.75A3.75,3.75,0,0,0,213.91,49Z"/><path class="cls-5" d="M58.14,98a5.25,5.25,0,1,1,5.25-5.25A5.26,5.26,0,0,1,58.14,98Zm0-9a3.75,3.75,0,1,0,3.75,3.75A3.75,3.75,0,0,0,58.14,89Z"/></g><rect class="cls-8" x="109.79" y="45.9" width="89.1" height="54.43"/><path class="cls-3" d="M198.89,100.71h-89.1a.37.37,0,0,1-.37-.37V45.9a.37.37,0,0,1,.37-.37h89.1a.37.37,0,0,1,.37.37v54.43A.37.37,0,0,1,198.89,100.71ZM110.16,100h88.36V46.28H110.16Z"/><rect class="cls-9" x="104.57" y="100.33" width="99.54" height="7.08"/><path class="cls-3" d="M204.11,107.79H104.57a.37.37,0,0,1-.37-.37v-7.08a.37.37,0,0,1,.37-.37h99.54a.37.37,0,0,1,.37.37v7.08A.37.37,0,0,1,204.11,107.79ZM104.94,107h98.79v-6.34H104.94Z"/><rect class="cls-9" x="104.57" y="37.21" width="99.54" height="10.56"/><path class="cls-3" d="M204.11,48.14H104.57a.37.37,0,0,1-.37-.37V37.21a.37.37,0,0,1,.37-.37h99.54a.37.37,0,0,1,.37.37V47.77A.37.37,0,0,1,204.11,48.14Zm-99.17-.75h98.79V37.58H104.94Z"/><rect class="cls-10" x="116.16" y="54.85" width="76.43" height="8.2" rx="4.1" ry="4.1"/><path class="cls-3" d="M188.49,63.43H120.26a4.47,4.47,0,0,1,0-8.95h68.22a4.47,4.47,0,1,1,0,8.95Zm-68.22-8.2a3.73,3.73,0,0,0,0,7.46h68.22a3.73,3.73,0,1,0,0-7.46Z"/><line class="cls-10" x1="154.49" y1="107.42" x2="154.49" y2="121.58"/><path class="cls-3" d="M154.49,122a.37.37,0,0,1-.37-.37V107.42a.37.37,0,1,1,.75,0v14.17A.37.37,0,0,1,154.49,122Z"/><line class="cls-10" x1="139.91" y1="135.75" x2="154.17" y2="121.49"/><path class="cls-3" d="M139.91,136.12a.37.37,0,0,1-.26-.64l14.26-14.26a.37.37,0,1,1,.53.53L140.17,136A.37.37,0,0,1,139.91,136.12Z"/><line class="cls-10" x1="169.08" y1="135.75" x2="154.82" y2="121.49"/><path class="cls-3" d="M169.08,136.12a.37.37,0,0,1-.26-.11l-14.26-14.26a.37.37,0,1,1,.53-.53l14.26,14.26a.37.37,0,0,1-.26.64Z"/><line class="cls-10" x1="121.68" y1="68.27" x2="121.68" y2="96.69"/><path class="cls-3" d="M121.68,97.06a.37.37,0,0,1-.37-.37V68.27a.37.37,0,1,1,.75,0V96.69A.37.37,0,0,1,121.68,97.06Z"/><line class="cls-10" x1="116.58" y1="91.59" x2="159.2" y2="91.59"/><path class="cls-3" d="M159.2,92H116.58a.37.37,0,0,1,0-.75H159.2a.37.37,0,0,1,0,.75Z"/><rect class="cls-10" x="126.05" y="71.19" width="6.56" height="20.4"/><path class="cls-3" d="M132.61,92H126a.37.37,0,0,1-.37-.37V71.19a.37.37,0,0,1,.37-.37h6.56a.37.37,0,0,1,.37.37v20.4A.37.37,0,0,1,132.61,92Zm-6.18-.75h5.81V71.56h-5.81Z"/><rect class="cls-10" x="136.61" y="82.12" width="6.56" height="9.47"/><path class="cls-3" d="M143.17,92h-6.56a.37.37,0,0,1-.37-.37V82.12a.37.37,0,0,1,.37-.37h6.56a.37.37,0,0,1,.37.37v9.47A.37.37,0,0,1,143.17,92ZM137,91.22h5.81V82.49H137Z"/><rect class="cls-10" x="147.18" y="77.02" width="6.56" height="14.57"/><path class="cls-3" d="M153.73,92h-6.56a.37.37,0,0,1-.37-.37V77a.37.37,0,0,1,.37-.37h6.56a.37.37,0,0,1,.37.37V91.59A.37.37,0,0,1,153.73,92Zm-6.18-.75h5.81V77.39h-5.81Z"/><rect class="cls-10" x="165.26" y="68.27" width="26.84" height="2.98"/><path class="cls-3" d="M192.1,71.63H165.26a.37.37,0,0,1-.37-.37v-3a.37.37,0,0,1,.37-.37H192.1a.37.37,0,0,1,.37.37v3A.37.37,0,0,1,192.1,71.63Zm-26.47-.75h26.1V68.65h-26.1Z"/><line class="cls-10" x1="165.26" y1="74.98" x2="192.1" y2="74.98"/><path class="cls-3" d="M192.1,75.36H165.26a.37.37,0,1,1,0-.75H192.1a.37.37,0,0,1,0,.75Z"/><line class="cls-10" x1="165.26" y1="79.21" x2="192.1" y2="79.21"/><path class="cls-3" d="M192.1,79.58H165.26a.37.37,0,1,1,0-.75H192.1a.37.37,0,0,1,0,.75Z"/><line class="cls-10" x1="165.26" y1="83.43" x2="192.1" y2="83.43"/><path class="cls-3" d="M192.1,83.81H165.26a.37.37,0,1,1,0-.75H192.1a.37.37,0,0,1,0,.75Z"/><line class="cls-10" x1="165.26" y1="87.66" x2="183.9" y2="87.66"/><path class="cls-3" d="M183.9,88H165.26a.37.37,0,1,1,0-.75H183.9a.37.37,0,1,1,0,.75Z"/></g></g></svg>