<svg xmlns="http://www.w3.org/2000/svg" viewBox="0 0 332.18 138.12"><defs><style>.cls-1{fill:#eff5f8;}.cls-2{fill:#cdebfc;}.cls-3{fill:#3273ad;}.cls-4{opacity:0.5;}.cls-5{fill:#32b475;}.cls-6{fill:#0aa5e3;}.cls-7{fill:#e3b462;}.cls-8{fill:#caedff;}.cls-9{fill:#008ac1;}.cls-10{fill:#fad264;}.cls-11{fill:none;}.cls-12{fill:#fff;}</style></defs><title>graduate_1</title><g id="Layer_2" data-name="Layer 2"><g id="Layer_1-2" data-name="Layer 1"><path class="cls-1" d="M323,93h-35.7a3.14,3.14,0,1,0,0,6.27H292a3.14,3.14,0,1,1,0,6.27H281.79a3.14,3.14,0,0,0,0,6.27h35.7a3.14,3.14,0,1,0,0-6.27h-9.74a3.14,3.14,0,1,1,0-6.27H323A3.14,3.14,0,1,0,323,93Z"/><path class="cls-1" d="M3.09,114.76H44.21a3.09,3.09,0,0,0,0-6.18H33.66a3.09,3.09,0,1,1,0-6.18h6.6a3.09,3.09,0,0,0,0-6.18H13.64a3.09,3.09,0,0,0,0,6.18h4.47a3.09,3.09,0,1,1,0,6.18h-15a3.09,3.09,0,0,0,0,6.18Z"/><path class="cls-1" d="M285.75,66H327a3.1,3.1,0,1,0,0-6.2H316.45a3.1,3.1,0,1,1,0-6.2h6.63a3.1,3.1,0,1,0,0-6.2H296.34a3.1,3.1,0,1,0,0,6.2h4.49a3.1,3.1,0,1,1,0,6.2H285.75a3.1,3.1,0,1,0,0,6.2Z"/><path class="cls-1" d="M40.66,72H69.45a2.16,2.16,0,0,0,0-4.33H62.07a2.16,2.16,0,1,1,0-4.33h4.62a2.16,2.16,0,0,0,0-4.33H48a2.16,2.16,0,0,0,0,4.33h3.13a2.16,2.16,0,1,1,0,4.33H40.66a2.16,2.16,0,1,0,0,4.33Z"/><path class="cls-2" d="M291,36.14h0l10-.45a1.16,1.16,0,0,0,.73-.1,1.2,1.2,0,0,0,.36-.87c0-.07,0-.13,0-.16a8.69,8.69,0,0,1,.34-1,6.56,6.56,0,0,1,.89-1.54,5.56,5.56,0,0,1,2.34-1.73,6.88,6.88,0,0,1,2.26-.45,7.46,7.46,0,0,1,.83,0,1.25,1.25,0,0,0,.67,0c.35-.13.48-.52.71-1.46,0-.15.07-.27.09-.34a17.94,17.94,0,0,1,1-2.28,11.87,11.87,0,0,1,2.28-3.15,8.76,8.76,0,0,1,5.19-2.42,11.55,11.55,0,0,1,10.6,5.07,12.59,12.59,0,0,1,1.87,7.8.48.48,0,0,0,.95.1,13.57,13.57,0,0,0-2-8.41,12.37,12.37,0,0,0-11.5-5.5A9.7,9.7,0,0,0,312.85,22a12.8,12.8,0,0,0-2.46,3.4,18.81,18.81,0,0,0-1,2.4c0,.08-.07.23-.11.42s-.13.52-.2.74l-.19,0a9,9,0,0,0-.93,0,7.85,7.85,0,0,0-2.57.52,6.52,6.52,0,0,0-2.74,2,7.48,7.48,0,0,0-1,1.77,9.69,9.69,0,0,0-.38,1.11c0,.06,0,.16-.05.27l0,.17H301l-10,.45a.47.47,0,0,0,0,.95Z"/><path class="cls-2" d="M128.42,16.25h5.81a.47.47,0,0,0,.47-.49,4.27,4.27,0,0,1,1.14-3.26c1.77-1.82,5-1.8,5-1.81a.53.53,0,0,0,.36-.16.48.48,0,0,0,.11-.38,9.84,9.84,0,0,1,2-6.76A7.79,7.79,0,0,1,149.52,1,7.2,7.2,0,0,1,154.92,3c2.4,2.51,2.26,6.5,2.26,6.54a.48.48,0,0,0,.19.4.48.48,0,0,0,.44.07,6.65,6.65,0,0,1,5.61.26c2.84,1.65,3.64,5.54,3.65,5.58a.48.48,0,0,0,.47.38H179a.48.48,0,0,0,0-1h-11c-.29-1.1-1.32-4.27-4-5.83a7.29,7.29,0,0,0-5.78-.53,10.44,10.44,0,0,0-2.51-6.57A8.1,8.1,0,0,0,149.53,0a8.72,8.72,0,0,0-6.86,2.75,10.73,10.73,0,0,0-2.31,7,8.31,8.31,0,0,0-5.19,2.08,5.06,5.06,0,0,0-1.41,3.47h-5.33a.48.48,0,1,0,0,1Z"/><path class="cls-2" d="M35.41,37.72h2.9a.24.24,0,0,0,.24-.25,2.14,2.14,0,0,1,.57-1.63,4,4,0,0,1,2.5-.91.26.26,0,0,0,.18-.08.24.24,0,0,0,.06-.19,4.92,4.92,0,0,1,1-3.38A3.89,3.89,0,0,1,46,30.07a3.6,3.6,0,0,1,2.7,1,5,5,0,0,1,1.13,3.27.24.24,0,0,0,.09.2.24.24,0,0,0,.22,0,3.32,3.32,0,0,1,2.81.13,4.61,4.61,0,0,1,1.82,2.79.24.24,0,0,0,.23.19h5.71a.24.24,0,1,0,0-.48H55.15a4.88,4.88,0,0,0-2-2.92,3.64,3.64,0,0,0-2.89-.26A5.22,5.22,0,0,0,49,30.77a4.05,4.05,0,0,0-3-1.18A4.36,4.36,0,0,0,42.53,31a5.36,5.36,0,0,0-1.16,3.5,4.15,4.15,0,0,0-2.59,1,2.53,2.53,0,0,0-.71,1.73H35.41a.24.24,0,0,0,0,.48Z"/><path class="cls-3" d="M24.17,138.12H18.91c-.26,0-.47-.1-.47-.23s.21-.23.47-.23h5.25c.26,0,.47.1.47.23S24.43,138.12,24.17,138.12Z"/><path class="cls-3" d="M318.51,138.12h-290c-.28,0-.5-.11-.5-.25s.22-.25.5-.25h290c.28,0,.5.11.5.25S318.78,138.12,318.51,138.12Z"/><path class="cls-3" d="M327.51,138.12h-3.62c-.28,0-.5-.11-.5-.25s.22-.25.5-.25h3.62c.28,0,.5.11.5.25S327.78,138.12,327.51,138.12Z"/><g class="cls-4"><path class="cls-5" d="M286.05,97.45A3.41,3.41,0,1,1,289.46,94,3.41,3.41,0,0,1,286.05,97.45Zm0-5.31A1.91,1.91,0,1,0,288,94,1.91,1.91,0,0,0,286.05,92.14Z"/><path class="cls-6" d="M292.48,42.79a5.32,5.32,0,1,1,5.32-5.32A5.33,5.33,0,0,1,292.48,42.79Zm0-9.23a3.91,3.91,0,1,0,3.91,3.91A3.92,3.92,0,0,0,292.48,33.56Z"/><path class="cls-5" d="M87.69,58.74a5.66,5.66,0,1,1,5.66-5.66A5.66,5.66,0,0,1,87.69,58.74Zm0-9.82a4.16,4.16,0,1,0,4.16,4.16A4.16,4.16,0,0,0,87.69,48.92Z"/><path class="cls-5" d="M273,67.24a5.66,5.66,0,1,1,5.66-5.66A5.66,5.66,0,0,1,273,67.24Zm0-9.82a4.16,4.16,0,1,0,4.16,4.16A4.16,4.16,0,0,0,273,57.43Z"/><path class="cls-5" d="M242,15.28a3.58,3.58,0,1,1,3.58-3.58A3.58,3.58,0,0,1,242,15.28Zm0-6.21a2.63,2.63,0,1,0,2.63,2.63A2.63,2.63,0,0,0,242,9.07Z"/><path class="cls-5" d="M47.3,77.44A3.41,3.41,0,1,1,50.7,74,3.41,3.41,0,0,1,47.3,77.44Zm0-5.31A1.91,1.91,0,1,0,49.2,74,1.91,1.91,0,0,0,47.3,72.12Z"/><path class="cls-7" d="M105.7,90.63a4.84,4.84,0,1,1,4.84-4.84A4.85,4.85,0,0,1,105.7,90.63Zm0-7.56a2.71,2.71,0,1,0,2.71,2.71A2.71,2.71,0,0,0,105.7,83.08Z"/><path class="cls-7" d="M105.7,27.82a4.75,4.75,0,1,1,4.75-4.75A4.76,4.76,0,0,1,105.7,27.82Zm0-8a3.25,3.25,0,1,0,3.25,3.25A3.25,3.25,0,0,0,105.7,19.82Z"/><path class="cls-6" d="M251.06,43.13a5.66,5.66,0,1,1,5.66-5.66A5.66,5.66,0,0,1,251.06,43.13Zm0-9.82a4.16,4.16,0,1,0,4.16,4.16A4.16,4.16,0,0,0,251.06,33.31Z"/><path class="cls-7" d="M91.85,128.35a5.66,5.66,0,1,1,5.66-5.66A5.66,5.66,0,0,1,91.85,128.35Zm0-9.82A4.16,4.16,0,1,0,96,122.69,4.16,4.16,0,0,0,91.85,118.53Z"/><path class="cls-7" d="M252,120a5.25,5.25,0,1,1,5.25-5.25A5.26,5.26,0,0,1,252,120Zm0-9a3.75,3.75,0,1,0,3.75,3.75A3.75,3.75,0,0,0,252,111Z"/><path class="cls-6" d="M66.16,100.12a5.25,5.25,0,1,1,5.25-5.25A5.26,5.26,0,0,1,66.16,100.12Zm0-9a3.75,3.75,0,1,0,3.75,3.75A3.75,3.75,0,0,0,66.16,91.12Z"/><path class="cls-5" d="M240.94,77.78a4.62,4.62,0,1,1,4.62-4.62A4.63,4.63,0,0,1,240.94,77.78Zm0-8a3.4,3.4,0,1,0,3.4,3.4A3.4,3.4,0,0,0,240.94,69.76Z"/></g><path class="cls-8" d="M157.4,45.31c-2.51.94-6.32-1.13-8.68-4.73s-2.35-7.34.49-8.07,7.12,1.64,9.27,5.1S160,44.4,157.4,45.31Z"/><path class="cls-3" d="M156.09,45.66c-2.44,0-5.48-2-7.48-5-1.59-2.35-2.16-4.75-1.53-6.42a2.91,2.91,0,0,1,2.09-1.83c2.93-.7,7.24,1.66,9.4,5.16a6.89,6.89,0,0,1,1,5.73,3.42,3.42,0,0,1-2.13,2.15A3.83,3.83,0,0,1,156.09,45.66Zm-5.81-13.15a4.5,4.5,0,0,0-1.05.12,2.67,2.67,0,0,0-1.92,1.68c-.6,1.59,0,3.91,1.5,6.19,2.33,3.55,6.07,5.61,8.53,4.69h0a3.18,3.18,0,0,0,2-2,6.73,6.73,0,0,0-1-5.52C156.49,34.67,153,32.51,150.28,32.51Z"/><path class="cls-8" d="M148.63,40.63c-1.59-2.35-2.16-4.74-1.53-6.4a2.89,2.89,0,0,1,2.08-1.82c2.92-.7,7.22,1.66,9.38,5.15a6.87,6.87,0,0,1,1,5.71,3.41,3.41,0,0,1-2.12,2.14,3.81,3.81,0,0,1-1.35.23C153.65,45.64,150.62,43.68,148.63,40.63Zm.6-8a2.69,2.69,0,0,0-1.93,1.69c-.61,1.6,0,3.92,1.51,6.21,2.33,3.56,6.09,5.62,8.56,4.69h0a3.2,3.2,0,0,0,2-2,6.75,6.75,0,0,0-1-5.53c-1.87-3-5.35-5.17-8.1-5.17A4.52,4.52,0,0,0,149.23,32.61Z"/><path class="cls-3" d="M156.09,45.77c-2.54,0-5.58-2-7.56-5.06-1.61-2.38-2.19-4.82-1.54-6.52a3,3,0,0,1,2.17-1.9c3-.71,7.33,1.67,9.52,5.2a7,7,0,0,1,1,5.82,3.53,3.53,0,0,1-2.19,2.21A3.94,3.94,0,0,1,156.09,45.77Zm-6.83-13a2.56,2.56,0,0,0-1.85,1.62c-.59,1.56,0,3.84,1.49,6.1,2.3,3.51,6,5.55,8.41,4.65a3.09,3.09,0,0,0,1.92-1.94,6.64,6.64,0,0,0-1-5.43c-1.81-2.91-5.24-5.11-8-5.11A4.38,4.38,0,0,0,149.26,32.73Z"/><path class="cls-8" d="M156.88,55c-.67-1.73-1.83-1.76-1.83-1.76s-4.48-.57-5.7-.8a3.58,3.58,0,0,0-2.43.65l-6.38,5.67a1.38,1.38,0,0,1-1.88,0h0a1.38,1.38,0,0,1-.11-1.86l5.24-6.54a5.32,5.32,0,0,1,2.92-1.59l8.12-1.24,2.43-.37h.14l9.81-3.16h-.06c.69-.34,5.69-2.62,8.1-3.83l.5-.19h0l.2-.08a8,8,0,0,1,1.76-.4,1.2,1.2,0,0,1,1.14.46c.46.78-1.24,2.08-1.24,2.08h0c-2.14,1.73-5.48,4.41-6.06,4.86a7.59,7.59,0,0,1-1.69,1l-5.24,2.73a1.5,1.5,0,0,0-.53.65,1.74,1.74,0,0,0,.1,1.38l.15.28h0l2,3.75c1.27,1.94,2.8,1.64,2.8,1.64l4.63-.57a5.09,5.09,0,0,1,3.61,1.2l5,4.76c.32.29,1.65,1.38,2.67.54s5.4-4.39,4.22-1.15c-.19.29-2.79,3.83-3.14,4.26l-.08.11-.57.84a1.93,1.93,0,0,1-1.33,1,2.54,2.54,0,0,1-1-.25l-7.43-3.49a3.37,3.37,0,0,0-4.33.63S160.2,78.59,158.84,80.52a1.87,1.87,0,0,1-2.89.66s-5.74-3.56-7.09-4.23-1.69.52-1.69.52l-1,4c-.42,1-1-1.7-1-1.7l-1.51-6.94c-.41-2.2,1.12-1.31,1.12-1.31s9.13,2.37,10.16,2.44a1.67,1.67,0,0,0,1.37-.41l.05-.05s2.93-4.69,3.72-6.05a2.85,2.85,0,0,0,.48-2.3Z"/><path class="cls-3" d="M146,81.84h0c-.43,0-.79-1.43-.93-2l-1.51-6.94c-.15-.79-.07-1.31.24-1.53s.94,0,1,.07c.42.11,9.13,2.36,10.12,2.44a1.49,1.49,0,0,0,1.27-.37l0,0s2.93-4.7,3.71-6a2.77,2.77,0,0,0,.47-2.2L156.77,55c-.63-1.62-1.67-1.68-1.72-1.68s-4.51-.58-5.72-.8a3.44,3.44,0,0,0-2.33.63l-6.38,5.67a1.51,1.51,0,0,1-2.18-2.07l5.24-6.54a5.4,5.4,0,0,1,3-1.63l8.12-1.24,2.58-.38,9.66-3.11,0,0,1.55-.72c1.81-.84,4.85-2.25,6.55-3.1l.51-.2h0l.17-.06a8.23,8.23,0,0,1,1.8-.4h.07a1.26,1.26,0,0,1,1.19.53c.49.83-1,2-1.26,2.23l0,0c-2,1.59-5.47,4.4-6.06,4.86a7.66,7.66,0,0,1-1.72,1l-5.23,2.73a1.38,1.38,0,0,0-.47.59,1.62,1.62,0,0,0,.1,1.28l.15.28,2,3.76c1.2,1.84,2.65,1.58,2.66,1.57l4.64-.57a5.17,5.17,0,0,1,3.71,1.23l5,4.76c.35.32,1.57,1.3,2.51.54,3.63-3,4.22-2.56,4.42-2.42s.28.66,0,1.41c-.23.35-2.81,3.87-3.16,4.3l-.08.11-.56.83a2,2,0,0,1-1.43,1.06,2.65,2.65,0,0,1-1.07-.26l-7.43-3.49a3.22,3.22,0,0,0-4.18.6c-.11.13-11.19,12.43-12.53,14.33a2.26,2.26,0,0,1-1.52,1.12,2.11,2.11,0,0,1-1.55-.44s-5.74-3.56-7.07-4.22a1.22,1.22,0,0,0-1-.13,1,1,0,0,0-.46.57l-1,4C146.21,81.73,146.1,81.84,146,81.84Zm-1.82-10.36a.42.42,0,0,0-.25.07c-.22.16-.27.6-.14,1.27l1.51,6.93a4.14,4.14,0,0,0,.7,1.84s0,0,.1-.16l1-4a1.18,1.18,0,0,1,.6-.73,1.45,1.45,0,0,1,1.26.13c1.34.66,6.87,4.09,7.1,4.24a1.92,1.92,0,0,0,1.37.39,2,2,0,0,0,1.35-1c1.35-1.92,12.09-13.85,12.54-14.36a3.51,3.51,0,0,1,4.48-.65l7.42,3.49a2.44,2.44,0,0,0,.95.23c.14,0,.67-.12,1.23-.95l.66-.95c.33-.4,2.94-3.95,3.14-4.25.28-.79.17-1,.07-1.09s-1-.17-4.11,2.41c-.87.71-2,.18-2.84-.55l-5-4.76a5,5,0,0,0-3.5-1.17l-4.63.57c-.06,0-1.62.29-2.92-1.7l-2.11-4a1.87,1.87,0,0,1-.1-1.48,1.62,1.62,0,0,1,.57-.71l5.25-2.74a7.52,7.52,0,0,0,1.67-1c.59-.45,4.06-3.25,6-4.84l0,0c.45-.34,1.54-1.36,1.21-1.92a1.08,1.08,0,0,0-1-.4A8,8,0,0,0,176,40l-.19.08h0l-.45.17c-1.7.85-4.74,2.26-6.55,3.1l-1.42.66a.12.12,0,0,1-.08.07l-9.81,3.16-.17,0-2.43.37-8.12,1.24a5.25,5.25,0,0,0-2.85,1.55l-5.24,6.53a1.26,1.26,0,0,0,1.82,1.73L146.84,53a3.64,3.64,0,0,1,2.54-.68c1.2.22,5.65.79,5.69.8s1.23.05,1.93,1.84h0l3.64,10.17a3,3,0,0,1-.49,2.41c-.78,1.35-3.69,6-3.72,6.06a.41.41,0,0,1-.08.08,1.77,1.77,0,0,1-1.46.44c-1-.08-9.81-2.35-10.18-2.45h0A1.24,1.24,0,0,0,144.14,71.48Z"/><path class="cls-8" d="M145.94,81.82c-.42,0-.78-1.42-.91-2l-1.51-6.94c-.15-.78-.07-1.29.24-1.5s.93,0,1,.07c.39.1,9.14,2.36,10.13,2.44a1.55,1.55,0,0,0,1.3-.39l0,0h0c0-.07,2.94-4.71,3.71-6.05a2.79,2.79,0,0,0,.47-2.21L156.79,55c-.64-1.63-1.69-1.69-1.74-1.69s-4.49-.58-5.71-.8a3.49,3.49,0,0,0-2.34.63l-6.38,5.67a1.49,1.49,0,0,1-2.15-2l5.25-6.54a5.38,5.38,0,0,1,3-1.62l8.12-1.24,2.44-.37h.13L167,43.92l.14-.07,1.57-.74c1.81-.84,4.83-2.24,6.53-3.1l.5-.19.06,0,.15-.06a8.21,8.21,0,0,1,1.8-.4,1.29,1.29,0,0,1,1.23.52c.46.79-1,2-1.23,2.19l0,0c-1.83,1.48-5.45,4.39-6.06,4.86a7.59,7.59,0,0,1-1.7,1l-5.22,2.72a1.4,1.4,0,0,0-.49.61,1.64,1.64,0,0,0,.09,1.29l2.1,4c1.21,1.85,2.63,1.61,2.7,1.59l4.63-.57a5.13,5.13,0,0,1,3.69,1.23l5,4.76c.25.23,1.56,1.34,2.54.54,2.44-2,3.88-2.78,4.39-2.42.27.19.27.64,0,1.39v0c-.21.32-2.8,3.84-3.15,4.27l-.65.94a2,2,0,0,1-1.42,1,2.63,2.63,0,0,1-1-.26l-7.44-3.5a3.15,3.15,0,0,0-3-.24,3.62,3.62,0,0,0-1.18.85c-.11.12-11.19,12.43-12.52,14.33a2.25,2.25,0,0,1-1.51,1.12,2.11,2.11,0,0,1-1.52-.43c-.06,0-5.75-3.57-7.08-4.23a1.24,1.24,0,0,0-1.06-.13,1,1,0,0,0-.47.58l-1,4c-.08.2-.19.3-.31.3Zm3-5c1.34.66,7,4.2,7.11,4.24a1.94,1.94,0,0,0,1.37.39,2.05,2.05,0,0,0,1.36-1c1.35-1.92,12.43-14.23,12.54-14.35a3.44,3.44,0,0,1,4.45-.66l7.44,3.49a2.45,2.45,0,0,0,.94.23c.15,0,.69-.12,1.25-1l.57-.84.09-.11c.33-.4,2.89-3.88,3.13-4.24.22-.61.25-1,.08-1.13s-1-.17-4.14,2.41c-1.11.9-2.54-.3-2.81-.55l-5-4.76a5,5,0,0,0-3.52-1.18l-4.62.57c-.07,0-1.62.29-2.91-1.69L164.27,53l-.16-.3a1.85,1.85,0,0,1-.1-1.46,1.61,1.61,0,0,1,.58-.71l5.25-2.74a7.56,7.56,0,0,0,1.66-1c.61-.46,4.18-3.34,6-4.82l0,0c.45-.35,1.56-1.37,1.22-1.94a1.09,1.09,0,0,0-1-.41A8,8,0,0,0,176,40l-.2.08-.11,0h0l-.38.15c-1.7.85-4.72,2.26-6.53,3.09l-1.23.57.18,0-10.28,3.31-.16,0-2.43.37-8.12,1.24a5.26,5.26,0,0,0-2.86,1.55l-5.24,6.54a1.28,1.28,0,0,0,1.85,1.76L146.86,53a3.65,3.65,0,0,1,2.51-.67c1.21.22,5.65.79,5.68.8s1.23.05,1.93,1.83l3.64,10.17a2.93,2.93,0,0,1-.48,2.39c-.78,1.35-3.69,6-3.72,6.06a.29.29,0,0,1-.07.07,1.77,1.77,0,0,1-1.46.44c-1-.08-9.81-2.35-10.18-2.45h0c-.14-.08-.57-.26-.81-.09s-.28.61-.15,1.29l1.51,6.94a4,4,0,0,0,.72,1.85s.06,0,.11-.16l1-4a1.16,1.16,0,0,1,.59-.72,1,1,0,0,1,.43-.09A1.86,1.86,0,0,1,148.91,76.85Z"/><path class="cls-3" d="M146,81.95h0c-.37,0-.71-.74-1-2.11l-1.51-6.94c-.16-.84-.06-1.39.29-1.63a1.2,1.2,0,0,1,1.16.06c.06,0,9.09,2.35,10.08,2.42a1.45,1.45,0,0,0,1.2-.35l.12.06-.09-.08s2.93-4.69,3.7-6a2.71,2.71,0,0,0,.46-2.11l-3.64-10.17c-.59-1.51-1.53-1.6-1.63-1.61s-4.5-.58-5.72-.8a3.32,3.32,0,0,0-2.24.61l-6.38,5.67a1.62,1.62,0,0,1-2.33-2.22L142.91,51l.7-.88a5.46,5.46,0,0,1,3.06-1.66l7.89-1.21,2.8-.42,9.56-3.08.13-.06,1.5-.7.08,0c1.8-.84,4.82-2.24,6.53-3.09l.52-.2.2-.07a8.35,8.35,0,0,1,1.83-.41h.05a1.38,1.38,0,0,1,1.3.58c.5.85-.84,2-1.26,2.35l0,0c-1.83,1.48-5.46,4.4-6.07,4.86a7.71,7.71,0,0,1-1.74,1l-5.21,2.72a1.27,1.27,0,0,0-.43.54,1.51,1.51,0,0,0,.09,1.19l2.1,4c1.17,1.79,2.55,1.53,2.56,1.53l4.63-.57a5.26,5.26,0,0,1,3.79,1.26l5,4.76c.24.22,1.48,1.26,2.37.54,2.56-2.09,4-2.84,4.54-2.42.32.23.34.72,0,1.53l0,0c-.22.34-2.82,3.87-3.17,4.29l-.64.93a2.13,2.13,0,0,1-1.51,1.1,2.78,2.78,0,0,1-1.11-.27l-7.44-3.5a3,3,0,0,0-2.91-.24,3.46,3.46,0,0,0-1.14.82l0,0c-1.15,1.27-11.22,12.49-12.49,14.29a2.36,2.36,0,0,1-1.59,1.17,2.26,2.26,0,0,1-1.63-.46s-5.72-3.55-7.05-4.21a1.13,1.13,0,0,0-1-.13.84.84,0,0,0-.41.5l-1,4C146.29,81.82,146.14,81.95,146,81.95Zm-1.82-10.36a.32.32,0,0,0-.19,0c-.18.13-.22.55-.1,1.16l1.51,6.93a6.5,6.5,0,0,0,.58,1.7v0l1-4a1.3,1.3,0,0,1,.66-.8,1.55,1.55,0,0,1,1.36.13c1.36.67,7.08,4.22,7.12,4.25a1.82,1.82,0,0,0,1.29.37,1.94,1.94,0,0,0,1.28-1C160,78.46,171.09,66.15,171.2,66a3.56,3.56,0,0,1,4.61-.68l7.42,3.49a2.31,2.31,0,0,0,.89.22c.09,0,.6-.09,1.15-.9l.66-1c.32-.39,2.87-3.85,3.13-4.23.23-.65.18-.91.11-1s-.65-.32-4,2.4c-1.18,1-2.69-.29-3-.55l-5-4.76A4.89,4.89,0,0,0,173.77,58l-4.62.57c-.06,0-1.68.33-3-1.75l-2.11-4a2,2,0,0,1-.11-1.57,1.75,1.75,0,0,1,.62-.76l5.26-2.74a7.57,7.57,0,0,0,1.64-1c.6-.46,4.06-3.25,6-4.82l0,0c.51-.39,1.46-1.33,1.19-1.79-.14-.24-.46-.36-.92-.35a7.85,7.85,0,0,0-1.7.38l-.19.07-.12,0h0l-.34.13c-1.69.85-4.71,2.25-6.51,3.08l-1,.46h0a.12.12,0,0,1-.09.13l-10.28,3.31-.18,0-2.66.4L146.74,49A5.09,5.09,0,0,0,144,50.46h0L138.72,57a1.15,1.15,0,0,0,1.67,1.58l6.39-5.68a3.77,3.77,0,0,1,2.62-.7c1,.18,4.24.61,5.59.78h.09s1.3,0,2,1.9l3.64,10.18a3.07,3.07,0,0,1-.5,2.5c-.78,1.36-3.69,6-3.72,6.06a.42.42,0,0,1-.09.1,1.89,1.89,0,0,1-1.54.47c-1-.07-8.64-2-10.17-2.44h0l0,0A1.18,1.18,0,0,0,144.14,71.59Zm23.28-27.75-.16.08.16,0Z"/><path class="cls-9" d="M203.6,32.29c-1.09-.39-.89-2-.7-3.56.14-1.13.28-2.3-.12-2.7a7.55,7.55,0,0,0-2.92-.93c-1.79-.37-3.49-.71-3.49-1.66,0-.65,1.25-1,3.46-1.56,1.34-.34,3.38-.86,3.42-1.31a6.47,6.47,0,0,0-.34-1.7c-.41-1.5-.92-3.37.1-4.16a.79.79,0,0,1,.65-.17c.74.13,1.42,1.23,2.22,2.51.68,1.09,1.45,2.32,2.13,2.56.48.17,2-.68,3.15-1.36,1.74-1,3.24-1.86,3.86-1.31,1,.89-2.06,5.33-3.1,6.77a11,11,0,0,0,1.91,2.88c1.25,1.58,1.89,2.42,1.68,2.86-.56,1.19-2.58.43-4.54-.3-1.21-.46-2.58-1-2.94-.68a12.54,12.54,0,0,0-1.31,1.41c-1,1.2-2.08,2.44-2.89,2.44A.7.7,0,0,1,203.6,32.29Z"/><path class="cls-10" d="M211.13,28.76c1.69.64,3.61,1.36,4,.52.07-.28-1-1.57-1.62-2.42-1.21-1.53-2-2.59-2-3.2a.21.21,0,0,1,0-.12c2.21-3.06,3.65-5.88,3.2-6.27s-2.11.64-3.37,1.36c-1.52.87-2.84,1.62-3.5,1.39-.81-.29-1.59-1.53-2.35-2.73s-1.39-2.22-1.94-2.31a.38.38,0,0,0-.32.09c-.8.62-.33,2.33,0,3.71a6.42,6.42,0,0,1,.35,1.85c-.06.69-1.45,1.09-3.73,1.68-1.1.28-3.14.8-3.14,1.15,0,.6,1.74,1,3.15,1.24a7.36,7.36,0,0,1,3.13,1c.55.55.4,1.76.24,3s-.35,2.83.42,3.11c.55.2,1.82-1.29,2.66-2.28a12.72,12.72,0,0,1,1.36-1.46.94.94,0,0,1,.6-.17A9.63,9.63,0,0,1,211.13,28.76Z"/><path class="cls-11" d="M137,120.08c2,.94,21.27-.73,33.54-1.6,5.61-.4,15.26-1.31,20.81-1.39,15.65.05,20.82-14.3,22.93-27.87.76-4.89.93-15.3,2.28-21.64h0A23.74,23.74,0,0,1,220.1,59a4.18,4.18,0,0,0,.54-1c0-.15.08-.29.1-.43.44-2.76-5-3.4-6-3.34h-.32c-2.82.21-5.32,1.26-6.5,3.34-1.94,3.23-1.35,5.5-6.09,7-3.22,1-6.46-.19-9.64.53-3.92.82-3,4.82-3.24,7.53-.19,3-.53,6.77-4,7.48-4.34,1-7.55.33-8.75,5.5-.58,2.53,0,6.19-1.49,8.6s-5.7,3.22-8.35,3.56S159,97.3,156.84,100c-1,1.21-.65,8.52-1.2,9.8-1.13,2.64-16.07.35-18.75,3.59C134.81,115.88,135.85,119.51,137,120.08Z"/><path class="cls-9" d="M136.95,120.27h0a3.17,3.17,0,0,1-1.32-2.19,5.73,5.73,0,0,1,1.1-4.87c1.46-1.77,6.16-1.95,10.7-2.12,3.7-.14,7.53-.29,8-1.42a18.84,18.84,0,0,0,.37-3.85c.12-2.58.25-5.24.85-6,1.66-2.06,4.81-2.13,7.33-2.19a23.08,23.08,0,0,0,2.32-.13c4.45-.57,7.13-1.71,8.2-3.46.93-1.49,1-3.48,1.14-5.41A18.65,18.65,0,0,1,176,85.5c1-4.32,3.46-4.72,6.57-5.22.75-.12,1.52-.25,2.34-.43,3.44-.7,3.7-4.66,3.87-7.29,0-.48,0-1,0-1.56,0-2.43,0-5.45,3.37-6.16a16.72,16.72,0,0,1,4.56-.19,14.79,14.79,0,0,0,5.06-.33c3.35-1.05,4-2.47,4.78-4.44a18.49,18.49,0,0,1,1.19-2.46c1.12-2,3.49-3.2,6.67-3.44h.32c.76-.05,4.26.29,5.66,1.83a2,2,0,0,1,.54,1.76c0,.15-.07.3-.11.45a4.43,4.43,0,0,1-.56,1.05,23.75,23.75,0,0,0-3.48,8.47.21.21,0,0,1,0,.08,113.4,113.4,0,0,0-1.53,13.67c-.23,3.08-.44,6-.75,8-1.29,8.32-3.39,14.58-6.42,19.13a19,19,0,0,1-16.63,8.92h-.09c-4.05.05-10.43.57-15.56,1l-5.23.41-6.6.49c-8.83.66-18.54,1.39-23.64,1.39A11.24,11.24,0,0,1,136.95,120.27Z"/><path class="cls-12" d="M191.47,116.88a18.56,18.56,0,0,0,16.28-8.73c3-4.5,5.07-10.7,6.35-19,.3-2,.52-4.86.74-7.93a114.83,114.83,0,0,1,1.52-13.65.21.21,0,0,1,0-.06,24.19,24.19,0,0,1,3.56-8.71,4,4,0,0,0,.51-.94c0-.13.07-.27.1-.4a1.6,1.6,0,0,0-.44-1.4c-1.23-1.35-4.46-1.75-5.32-1.69h-.33c-3,.23-5.27,1.38-6.32,3.23A18.19,18.19,0,0,0,207,60c-.84,2-1.5,3.57-5,4.68a15.12,15.12,0,0,1-5.21.35,16.39,16.39,0,0,0-4.44.18c-3,.64-3,3.23-3,5.75,0,.56,0,1.09,0,1.59-.18,2.75-.45,6.91-4.2,7.67-.83.19-1.61.31-2.36.44-3.18.52-5.29.86-6.23,4.9a18.38,18.38,0,0,0-.32,3.06c-.1,2-.21,4-1.2,5.61-1.13,1.87-3.92,3.07-8.5,3.66a23.45,23.45,0,0,1-2.36.13c-2.56.06-5.47.13-7,2-.52.64-.65,3.47-.76,5.75a17.84,17.84,0,0,1-.41,4c-.59,1.38-4.2,1.52-8.39,1.68s-9,.34-10.39,2a5.31,5.31,0,0,0-1,4.51,2.87,2.87,0,0,0,1.09,1.9c1.59.76,15.59-.29,26.83-1.14l6.6-.49,5.23-.41c5.13-.41,11.52-.93,15.59-1Z"/><path class="cls-9" d="M192.72,67.82a.21.21,0,0,0,.12,0c.78-.57,2.65-.58,4.63-.6a25.75,25.75,0,0,0,5.44-.42c3.49-.82,5.08-3.56,6-5.19l.16-.26a.21.21,0,1,0-.36-.22l-.16.27c-.92,1.58-2.46,4.21-5.77,5a25.43,25.43,0,0,1-5.35.41c-2.14,0-4,0-4.88.68a.21.21,0,0,0,.12.38Z"/><path class="cls-9" d="M179,84.87a.21.21,0,0,0,.2-.13c.49-1.25,2.11-1.46,4.57-1.77l1.53-.21a7.08,7.08,0,0,0,5.88-4.95.21.21,0,0,0-.41-.11,6.66,6.66,0,0,1-5.54,4.64l-1.53.21c-2.61.34-4.33.56-4.91,2a.21.21,0,0,0,.12.27Z"/><path class="cls-9" d="M158.53,108.83a.21.21,0,0,0,.2-.15,9.37,9.37,0,0,0,.05-2.32c-.07-1.88-.18-4.45.74-5.42.77-.81,3.56-1,6.26-1.13a24.31,24.31,0,0,0,5.71-.72.21.21,0,1,0-.14-.4,24.18,24.18,0,0,1-5.6.7c-2.9.17-5.65.32-6.54,1.26-1,1.09-.94,3.66-.86,5.72a9.69,9.69,0,0,1,0,2.18.21.21,0,0,0,.14.26Z"/><path class="cls-9" d="M185,114.54h0a25.89,25.89,0,0,1,5.17-.39c3.8,0,7.39,0,11.91-4,6.55-5.77,8.45-16.56,8.6-19.88a.21.21,0,0,0-.2-.22.22.22,0,0,0-.22.2c-.12,2.67-1.9,13.81-8.46,19.58-4.4,3.88-7.92,3.9-11.64,3.92a26.22,26.22,0,0,0-5.25.4.21.21,0,0,0,0,.42Z"/></g></g></svg>