<svg xmlns="http://www.w3.org/2000/svg" viewBox="0 0 309.56 146.95"><defs><style>.cls-1{fill:#caedff;}.cls-2{fill:#3273ad;}.cls-3{fill:#fad264;}.cls-4{fill:#fff;}.cls-5{fill:#0aa5e3;}.cls-6{fill:#e3b462;}.cls-7{fill:#32b475;}.cls-8{fill:#eff5f8;}.cls-9{fill:#cdebfc;}.cls-10{opacity:0.5;}</style></defs><title>improve-submission_1</title><g id="Layer_2" data-name="Layer 2"><g id="Layer_1-2" data-name="Layer 1"><path class="cls-1" d="M125.93,133.56h0a2.46,2.46,0,0,1-2.45-2.45L133,93.84a2.46,2.46,0,0,1,2.45-2.45h0a2.46,2.46,0,0,1,2.45,2.45l-9.56,37.26A2.46,2.46,0,0,1,125.93,133.56Z"/><path class="cls-2" d="M125.93,133.92a2.82,2.82,0,0,1-2.82-2.82.37.37,0,0,1,0-.09l9.55-37.22a2.82,2.82,0,0,1,5.64,0,.37.37,0,0,1,0,.09l-9.55,37.22A2.82,2.82,0,0,1,125.93,133.92Zm-2.08-2.78a2.08,2.08,0,0,0,4.17,0,.37.37,0,0,1,0-.09l9.55-37.22a2.08,2.08,0,0,0-4.17,0,.37.37,0,0,1,0,.09Z"/><rect class="cls-1" x="151.31" y="94.2" width="4.41" height="39.36" rx="2.21" ry="2.21"/><path class="cls-2" d="M153.51,133.92a2.58,2.58,0,0,1-2.57-2.57V96.41a2.57,2.57,0,0,1,5.15,0v34.94A2.58,2.58,0,0,1,153.51,133.92Zm0-39.36a1.84,1.84,0,0,0-1.84,1.84v34.94a1.84,1.84,0,0,0,3.68,0V96.41A1.84,1.84,0,0,0,153.51,94.57Z"/><path class="cls-1" d="M181.09,133.56h0a2.46,2.46,0,0,0,2.45-2.45L174,93.84a2.46,2.46,0,0,0-2.45-2.45h0a2.46,2.46,0,0,0-2.45,2.45l9.56,37.26A2.46,2.46,0,0,0,181.09,133.56Z"/><path class="cls-2" d="M181.09,133.92a2.82,2.82,0,0,1-2.82-2.77l-9.55-37.22a.37.37,0,0,1,0-.09,2.82,2.82,0,0,1,5.64,0L183.9,131a.37.37,0,0,1,0,.09A2.82,2.82,0,0,1,181.09,133.92ZM169.45,93.8,179,131a.37.37,0,0,1,0,.09,2.08,2.08,0,0,0,4.17,0l-9.55-37.22a.37.37,0,0,1,0-.09,2.08,2.08,0,0,0-4.17,0Z"/><rect class="cls-3" x="115.15" y="92.24" width="76.73" height="5.15"/><path class="cls-2" d="M191.88,97.75H115.15a.37.37,0,0,1-.37-.37V92.24a.37.37,0,0,1,.37-.37h76.73a.37.37,0,0,1,.37.37v5.15A.37.37,0,0,1,191.88,97.75ZM115.51,97h76V92.61h-76Z"/><rect class="cls-3" x="149.53" y="23.11" width="7.97" height="9.56" rx="2.94" ry="2.94"/><path class="cls-2" d="M154.55,33h-2.08a3.31,3.31,0,0,1-3.31-3.31V26a3.31,3.31,0,0,1,3.31-3.31h2.08A3.31,3.31,0,0,1,157.86,26v3.68A3.31,3.31,0,0,1,154.55,33Zm-2.08-9.56A2.58,2.58,0,0,0,149.9,26v3.68a2.58,2.58,0,0,0,2.57,2.57h2.08a2.58,2.58,0,0,0,2.57-2.57V26a2.58,2.58,0,0,0-2.57-2.57Z"/><rect class="cls-3" x="137.95" y="28.74" width="31.13" height="7.6"/><path class="cls-2" d="M169.08,36.71H137.95a.37.37,0,0,1-.37-.37v-7.6a.37.37,0,0,1,.37-.37h31.13a.37.37,0,0,1,.37.37v7.6A.37.37,0,0,1,169.08,36.71ZM138.31,36h30.4V29.11h-30.4Z"/><rect class="cls-1" x="109.14" y="32.05" width="88.74" height="61.78" rx="2.94" ry="2.94"/><path class="cls-2" d="M194.94,94.2H112.08a3.31,3.31,0,0,1-3.31-3.31V35a3.31,3.31,0,0,1,3.31-3.31h82.86A3.31,3.31,0,0,1,198.25,35V90.89A3.31,3.31,0,0,1,194.94,94.2ZM112.08,32.42A2.58,2.58,0,0,0,109.51,35V90.89a2.58,2.58,0,0,0,2.57,2.57h82.86a2.58,2.58,0,0,0,2.57-2.57V35a2.58,2.58,0,0,0-2.57-2.57Z"/><rect class="cls-4" x="115.51" y="38.18" width="76" height="49.52" rx="2.94" ry="2.94"/><path class="cls-2" d="M188.57,88.07H118.46a3.31,3.31,0,0,1-3.31-3.31V41.12a3.31,3.31,0,0,1,3.31-3.31h70.11a3.31,3.31,0,0,1,3.31,3.31V84.76A3.31,3.31,0,0,1,188.57,88.07ZM118.46,38.55a2.58,2.58,0,0,0-2.57,2.57V84.76a2.58,2.58,0,0,0,2.57,2.57h70.11a2.58,2.58,0,0,0,2.57-2.57V41.12a2.58,2.58,0,0,0-2.57-2.57Z"/><circle class="cls-5" cx="128.18" cy="76.61" r="3.98"/><path class="cls-2" d="M128.18,81a4.35,4.35,0,1,1,4.35-4.35A4.36,4.36,0,0,1,128.18,81Zm0-8a3.62,3.62,0,1,0,3.62,3.62A3.62,3.62,0,0,0,128.18,73Z"/><circle class="cls-6" cx="145.09" cy="61.17" r="3.98"/><path class="cls-2" d="M145.09,65.52a4.35,4.35,0,1,1,4.35-4.35A4.36,4.36,0,0,1,145.09,65.52Zm0-8a3.62,3.62,0,1,0,3.62,3.62A3.62,3.62,0,0,0,145.09,57.55Z"/><circle class="cls-3" cx="162.01" cy="72.93" r="3.98"/><path class="cls-2" d="M162,77.28a4.35,4.35,0,1,1,4.35-4.35A4.36,4.36,0,0,1,162,77.28Zm0-8a3.62,3.62,0,1,0,3.62,3.62A3.62,3.62,0,0,0,162,69.32Z"/><circle class="cls-7" cx="178.92" cy="50.13" r="3.98"/><path class="cls-2" d="M178.92,54.48a4.35,4.35,0,1,1,4.35-4.35A4.36,4.36,0,0,1,178.92,54.48Zm0-8a3.62,3.62,0,1,0,3.62,3.62A3.62,3.62,0,0,0,178.92,46.52Z"/><path class="cls-2" d="M130.61,73.83a.37.37,0,0,1-.25-.63l11-10.4a.37.37,0,1,1,.51.53l-11,10.4A.37.37,0,0,1,130.61,73.83Z"/><path class="cls-2" d="M158.69,71.09a.37.37,0,0,1-.21-.06l-10.41-7.18a.37.37,0,1,1,.42-.61l10.41,7.18a.37.37,0,0,1-.21.67Z"/><path class="cls-2" d="M164,69.87a.37.37,0,0,1-.29-.59l12.47-16.22a.37.37,0,0,1,.58.45L164.31,69.72A.37.37,0,0,1,164,69.87Z"/><path class="cls-8" d="M248.54,121h-35.7a3.14,3.14,0,1,0,0,6.27h4.65a3.14,3.14,0,0,1,0,6.27H207.33a3.14,3.14,0,1,0,0,6.27H243a3.14,3.14,0,0,0,0-6.27h-9.74a3.14,3.14,0,0,1,0-6.27h15.25a3.14,3.14,0,1,0,0-6.27Z"/><path class="cls-8" d="M24.64,123.59H65.76a3.09,3.09,0,1,0,0-6.18H55.22a3.09,3.09,0,0,1,0-6.18h6.6a3.09,3.09,0,0,0,0-6.18H35.19a3.09,3.09,0,0,0,0,6.18h4.47a3.09,3.09,0,0,1,0,6.18h-15a3.09,3.09,0,1,0,0,6.18Z"/><path class="cls-8" d="M251.86,89.58h41.29a3.1,3.1,0,1,0,0-6.2H282.56a3.1,3.1,0,1,1,0-6.2h6.63a3.1,3.1,0,1,0,0-6.2H262.45a3.1,3.1,0,1,0,0,6.2h4.49a3.1,3.1,0,1,1,0,6.2H251.86a3.1,3.1,0,1,0,0,6.2Z"/><path class="cls-8" d="M66,55.49H94.76a2.16,2.16,0,1,0,0-4.33H87.37a2.16,2.16,0,1,1,0-4.33H92a2.16,2.16,0,1,0,0-4.33H73.35a2.16,2.16,0,0,0,0,4.33h3.13a2.16,2.16,0,0,1,0,4.33H66a2.16,2.16,0,1,0,0,4.33Z"/><path class="cls-9" d="M19.94,44.06h5.81a.47.47,0,0,0,.47-.49,4.27,4.27,0,0,1,1.14-3.26c1.77-1.82,5-1.8,5-1.81a.53.53,0,0,0,.36-.16.48.48,0,0,0,.11-.38,9.84,9.84,0,0,1,2-6.76A7.79,7.79,0,0,1,41,28.76a7.2,7.2,0,0,1,5.4,2.06c2.4,2.51,2.26,6.5,2.26,6.54a.48.48,0,0,0,.19.4.48.48,0,0,0,.44.07,6.65,6.65,0,0,1,5.61.26c2.84,1.65,3.64,5.54,3.65,5.58a.48.48,0,0,0,.47.38H70.47a.48.48,0,1,0,0-1h-11c-.29-1.1-1.32-4.27-4-5.83a7.29,7.29,0,0,0-5.78-.53,10.44,10.44,0,0,0-2.51-6.57A8.1,8.1,0,0,0,41,27.81a8.72,8.72,0,0,0-6.86,2.75,10.73,10.73,0,0,0-2.31,7,8.31,8.31,0,0,0-5.19,2.08,5.06,5.06,0,0,0-1.41,3.47H19.94a.48.48,0,1,0,0,1Z"/><path class="cls-9" d="M247.55,51.59h0l10-.45a1.16,1.16,0,0,0,.73-.1,1.2,1.2,0,0,0,.36-.87c0-.07,0-.13,0-.16a8.69,8.69,0,0,1,.34-1,6.56,6.56,0,0,1,.89-1.54,5.56,5.56,0,0,1,2.34-1.73,6.88,6.88,0,0,1,2.26-.45,7.46,7.46,0,0,1,.83,0,1.25,1.25,0,0,0,.67,0c.35-.13.48-.52.71-1.46,0-.15.07-.27.09-.34a17.94,17.94,0,0,1,1-2.28A11.87,11.87,0,0,1,270,38.1a8.76,8.76,0,0,1,5.19-2.42,11.55,11.55,0,0,1,10.6,5.07,12.59,12.59,0,0,1,1.87,7.8.48.48,0,0,0,.95.1,13.57,13.57,0,0,0-2-8.41,12.37,12.37,0,0,0-11.5-5.5,9.7,9.7,0,0,0-5.75,2.68,12.8,12.8,0,0,0-2.46,3.4,18.81,18.81,0,0,0-1,2.4c0,.08-.07.23-.11.42s-.13.52-.2.74l-.19,0a9,9,0,0,0-.93,0,7.85,7.85,0,0,0-2.57.52,6.52,6.52,0,0,0-2.74,2,7.48,7.48,0,0,0-1,1.77,9.69,9.69,0,0,0-.38,1.11c0,.06,0,.16-.05.27l0,.17h-.17l-10,.45a.47.47,0,0,0,0,.95Z"/><path class="cls-9" d="M127.45,16.25h5.81a.47.47,0,0,0,.47-.49,4.27,4.27,0,0,1,1.14-3.26c1.77-1.82,5-1.8,5-1.81a.53.53,0,0,0,.36-.16.48.48,0,0,0,.11-.38,9.84,9.84,0,0,1,2-6.76A7.79,7.79,0,0,1,148.55,1,7.2,7.2,0,0,1,154,3c2.4,2.51,2.26,6.5,2.26,6.54a.48.48,0,0,0,.19.4.48.48,0,0,0,.44.07,6.65,6.65,0,0,1,5.61.26c2.84,1.65,3.64,5.54,3.65,5.58a.48.48,0,0,0,.47.38H178a.48.48,0,1,0,0-1h-11c-.29-1.1-1.32-4.27-4-5.83a7.29,7.29,0,0,0-5.78-.53,10.44,10.44,0,0,0-2.51-6.57A8.1,8.1,0,0,0,148.56,0a8.72,8.72,0,0,0-6.86,2.75,10.73,10.73,0,0,0-2.31,7,8.31,8.31,0,0,0-5.19,2.08,5.06,5.06,0,0,0-1.41,3.47h-5.33a.48.48,0,0,0,0,1Z"/><path class="cls-2" d="M5.72,146.95H.47c-.26,0-.47-.1-.47-.23s.21-.23.47-.23H5.72c.26,0,.47.1.47.23S6,146.95,5.72,146.95Z"/><path class="cls-2" d="M300.06,146.95h-290c-.28,0-.5-.11-.5-.25s.22-.25.5-.25h290c.28,0,.5.11.5.25S300.33,146.95,300.06,146.95Z"/><path class="cls-2" d="M309.06,146.95h-3.62c-.28,0-.5-.11-.5-.25s.22-.25.5-.25h3.62c.28,0,.5.11.5.25S309.33,146.95,309.06,146.95Z"/><g class="cls-10"><path class="cls-5" d="M251.41,70.2a5.66,5.66,0,1,1,5.66-5.66A5.66,5.66,0,0,1,251.41,70.2Zm0-9.82a4.16,4.16,0,1,0,4.16,4.16A4.16,4.16,0,0,0,251.41,60.39Z"/><path class="cls-7" d="M58.14,61.15a5.66,5.66,0,1,1,5.66-5.66A5.66,5.66,0,0,1,58.14,61.15Zm0-9.82a4.16,4.16,0,1,0,4.16,4.16A4.16,4.16,0,0,0,58.14,51.33Z"/><path class="cls-7" d="M222.18,137.09a3.58,3.58,0,1,1,3.58-3.58A3.58,3.58,0,0,1,222.18,137.09Zm0-6.21a2.63,2.63,0,1,0,2.63,2.63A2.63,2.63,0,0,0,222.18,130.88Z"/><path class="cls-7" d="M226,90.59a3.41,3.41,0,1,1,3.41-3.41A3.41,3.41,0,0,1,226,90.59Zm0-5.31a1.91,1.91,0,1,0,1.91,1.91A1.91,1.91,0,0,0,226,85.28Z"/><path class="cls-7" d="M91,103.7a3.41,3.41,0,1,1,3.41-3.41A3.41,3.41,0,0,1,91,103.7Zm0-5.31a1.91,1.91,0,1,0,1.91,1.91A1.91,1.91,0,0,0,91,98.39Z"/><path class="cls-6" d="M258.66,105.6a3.41,3.41,0,1,1,3.41-3.41A3.41,3.41,0,0,1,258.66,105.6Zm0-5.31a1.91,1.91,0,1,0,1.91,1.91A1.91,1.91,0,0,0,258.66,100.29Z"/><path class="cls-6" d="M87.62,71.21a4.75,4.75,0,1,1,4.75-4.75A4.76,4.76,0,0,1,87.62,71.21Zm0-8a3.25,3.25,0,1,0,3.25,3.25A3.25,3.25,0,0,0,87.62,63.21Z"/><path class="cls-5" d="M213.91,115a5.66,5.66,0,1,1,5.66-5.66A5.66,5.66,0,0,1,213.91,115Zm0-9.82a4.16,4.16,0,1,0,4.16,4.16A4.16,4.16,0,0,0,213.91,105.2Z"/><path class="cls-6" d="M76.61,136.54a5.66,5.66,0,1,1,5.66-5.66A5.66,5.66,0,0,1,76.61,136.54Zm0-9.82a4.16,4.16,0,1,0,4.16,4.16A4.16,4.16,0,0,0,76.61,126.73Z"/><path class="cls-6" d="M213.91,58a5.25,5.25,0,1,1,5.25-5.25A5.26,5.26,0,0,1,213.91,58Zm0-9a3.75,3.75,0,1,0,3.75,3.75A3.75,3.75,0,0,0,213.91,49Z"/><path class="cls-5" d="M58.14,98a5.25,5.25,0,1,1,5.25-5.25A5.26,5.26,0,0,1,58.14,98Zm0-9a3.75,3.75,0,1,0,3.75,3.75A3.75,3.75,0,0,0,58.14,89Z"/></g></g></g></svg>