<svg xmlns="http://www.w3.org/2000/svg" viewBox="0 0 309.56 146.95"><defs><style>.cls-1{fill:#eff5f8;}.cls-2{fill:#cdebfc;}.cls-3{fill:#3273ad;}.cls-4{opacity:0.5;}.cls-5{fill:#0aa5e3;}.cls-6{fill:#32b475;}.cls-7{fill:#e3b462;}.cls-8{fill:#caedff;}.cls-9{fill:#fff;}.cls-10{fill:#fad264;}</style></defs><title>partnership</title><g id="Layer_2" data-name="Layer 2"><g id="Layer_1-2" data-name="Layer 1"><path class="cls-1" d="M248.54,121h-35.7a3.14,3.14,0,1,0,0,6.27h4.65a3.14,3.14,0,0,1,0,6.27H207.33a3.14,3.14,0,1,0,0,6.27H243a3.14,3.14,0,0,0,0-6.27h-9.74a3.14,3.14,0,0,1,0-6.27h15.25a3.14,3.14,0,1,0,0-6.27Z"/><path class="cls-1" d="M20.3,109.36H61.42a3.09,3.09,0,0,0,0-6.18H50.87a3.09,3.09,0,1,1,0-6.18h6.6a3.09,3.09,0,0,0,0-6.18H30.85a3.09,3.09,0,1,0,0,6.18h4.47a3.09,3.09,0,1,1,0,6.18h-15a3.09,3.09,0,0,0,0,6.18Z"/><path class="cls-1" d="M261.86,89.58h41.29a3.1,3.1,0,1,0,0-6.2H292.56a3.1,3.1,0,1,1,0-6.2h6.63a3.1,3.1,0,1,0,0-6.2H272.45a3.1,3.1,0,1,0,0,6.2h4.49a3.1,3.1,0,1,1,0,6.2H261.86a3.1,3.1,0,1,0,0,6.2Z"/><path class="cls-1" d="M101.68,36.2H51.54a3.77,3.77,0,0,0,0,7.53H64.4a3.77,3.77,0,1,1,0,7.53H56.35a3.77,3.77,0,0,0,0,7.53H88.82a3.77,3.77,0,1,0,0-7.53H83.36a3.77,3.77,0,1,1,0-7.53h18.31a3.77,3.77,0,1,0,0-7.53Z"/><path class="cls-2" d="M9.94,48.46h5.81a.47.47,0,0,0,.47-.49,4.27,4.27,0,0,1,1.14-3.26c1.77-1.82,5-1.8,5-1.81a.53.53,0,0,0,.36-.16.48.48,0,0,0,.11-.38,9.84,9.84,0,0,1,2-6.76A7.79,7.79,0,0,1,31,33.16a7.2,7.2,0,0,1,5.4,2.06c2.4,2.51,2.26,6.5,2.26,6.54a.48.48,0,0,0,.19.4.48.48,0,0,0,.44.07,6.65,6.65,0,0,1,5.61.26c2.84,1.65,3.64,5.54,3.65,5.58a.48.48,0,0,0,.47.38H60.47a.48.48,0,1,0,0-1h-11c-.29-1.1-1.32-4.27-4-5.83a7.29,7.29,0,0,0-5.78-.53,10.44,10.44,0,0,0-2.51-6.57A8.1,8.1,0,0,0,31,32.21,8.72,8.72,0,0,0,24.18,35a10.73,10.73,0,0,0-2.31,7A8.31,8.31,0,0,0,16.68,44a5.06,5.06,0,0,0-1.41,3.47H9.94a.48.48,0,0,0,0,1Z"/><path class="cls-2" d="M257.55,51.59h0l10-.45a1.16,1.16,0,0,0,.73-.1,1.2,1.2,0,0,0,.36-.87c0-.07,0-.13,0-.16a8.69,8.69,0,0,1,.34-1,6.56,6.56,0,0,1,.89-1.54,5.56,5.56,0,0,1,2.34-1.73,6.88,6.88,0,0,1,2.26-.45,7.46,7.46,0,0,1,.83,0,1.25,1.25,0,0,0,.67,0c.35-.13.48-.52.71-1.46,0-.15.07-.27.09-.34a17.94,17.94,0,0,1,1-2.28A11.87,11.87,0,0,1,280,38.1a8.76,8.76,0,0,1,5.19-2.42,11.55,11.55,0,0,1,10.6,5.07,12.59,12.59,0,0,1,1.87,7.8.48.48,0,0,0,.95.1,13.57,13.57,0,0,0-2-8.41,12.37,12.37,0,0,0-11.5-5.5,9.7,9.7,0,0,0-5.75,2.68,12.8,12.8,0,0,0-2.46,3.4,18.81,18.81,0,0,0-1,2.4c0,.08-.07.23-.11.42s-.13.52-.2.74l-.19,0a9,9,0,0,0-.93,0,7.85,7.85,0,0,0-2.57.52,6.52,6.52,0,0,0-2.74,2,7.48,7.48,0,0,0-1,1.77,9.69,9.69,0,0,0-.38,1.11c0,.06,0,.16-.05.27l0,.17h-.17l-10,.45a.47.47,0,0,0,0,.95Z"/><path class="cls-2" d="M188,16.25h-5.81a.47.47,0,0,1-.47-.49,4.27,4.27,0,0,0-1.14-3.26c-1.77-1.82-5-1.8-5-1.81a.53.53,0,0,1-.36-.16.48.48,0,0,1-.11-.38,9.84,9.84,0,0,0-2-6.76A7.79,7.79,0,0,0,166.89,1,7.2,7.2,0,0,0,161.49,3c-2.4,2.51-2.26,6.5-2.26,6.54a.48.48,0,0,1-.19.4.48.48,0,0,1-.44.07,6.65,6.65,0,0,0-5.61.26c-2.84,1.65-3.64,5.54-3.65,5.58a.48.48,0,0,1-.47.38H137.46a.48.48,0,0,1,0-1h11c.29-1.1,1.32-4.27,4-5.83a7.29,7.29,0,0,1,5.78-.53,10.44,10.44,0,0,1,2.51-6.57A8.1,8.1,0,0,1,166.89,0a8.72,8.72,0,0,1,6.86,2.75,10.73,10.73,0,0,1,2.31,7,8.31,8.31,0,0,1,5.19,2.08,5.06,5.06,0,0,1,1.41,3.47H188a.48.48,0,1,1,0,1Z"/><path class="cls-3" d="M5.72,146.95H.47c-.26,0-.47-.1-.47-.23s.21-.23.47-.23H5.72c.26,0,.47.1.47.23S6,146.95,5.72,146.95Z"/><path class="cls-3" d="M300.06,146.95h-290c-.28,0-.5-.11-.5-.25s.22-.25.5-.25h290c.28,0,.5.11.5.25S300.33,146.95,300.06,146.95Z"/><path class="cls-3" d="M309.06,146.95h-3.62c-.28,0-.5-.11-.5-.25s.22-.25.5-.25h3.62c.28,0,.5.11.5.25S309.33,146.95,309.06,146.95Z"/><g class="cls-4"><path class="cls-5" d="M251.41,68.11a5.66,5.66,0,1,1,5.66-5.66A5.66,5.66,0,0,1,251.41,68.11Zm0-9.82a4.16,4.16,0,1,0,4.16,4.16A4.16,4.16,0,0,0,251.41,58.29Z"/><path class="cls-6" d="M116.63,43.83a5.66,5.66,0,1,1,5.66-5.66A5.66,5.66,0,0,1,116.63,43.83Zm0-9.82a4.16,4.16,0,1,0,4.16,4.16A4.16,4.16,0,0,0,116.63,34Z"/><path class="cls-6" d="M282.15,118.2a3.58,3.58,0,1,1,3.58-3.58A3.58,3.58,0,0,1,282.15,118.2Zm0-6.21a2.63,2.63,0,1,0,2.63,2.63A2.63,2.63,0,0,0,282.15,112Z"/><path class="cls-6" d="M226,90.59a3.41,3.41,0,1,1,3.41-3.41A3.41,3.41,0,0,1,226,90.59Zm0-5.31a1.91,1.91,0,1,0,1.91,1.91A1.91,1.91,0,0,0,226,85.28Z"/><path class="cls-6" d="M73.2,101.46a3.41,3.41,0,1,1,3.41-3.41A3.41,3.41,0,0,1,73.2,101.46Zm0-5.31a1.91,1.91,0,1,0,1.91,1.91A1.91,1.91,0,0,0,73.2,96.15Z"/><path class="cls-7" d="M255.26,96.22a3.41,3.41,0,1,1,3.41-3.41A3.41,3.41,0,0,1,255.26,96.22Zm0-5.31a1.91,1.91,0,1,0,1.91,1.91A1.91,1.91,0,0,0,255.26,90.9Z"/><path class="cls-7" d="M98.85,70.45a4.75,4.75,0,1,1,4.75-4.75A4.76,4.76,0,0,1,98.85,70.45Zm0-8a3.25,3.25,0,1,0,3.25,3.25A3.25,3.25,0,0,0,98.85,62.45Z"/><path class="cls-5" d="M248.54,122.51a5.66,5.66,0,1,1,5.66-5.66A5.66,5.66,0,0,1,248.54,122.51Zm0-9.82a4.16,4.16,0,1,0,4.16,4.16A4.16,4.16,0,0,0,248.54,112.69Z"/><path class="cls-7" d="M64.55,130.07a5.66,5.66,0,1,1,5.66-5.66A5.66,5.66,0,0,1,64.55,130.07Zm0-9.82a4.16,4.16,0,1,0,4.16,4.16A4.16,4.16,0,0,0,64.55,120.26Z"/><path class="cls-7" d="M213.91,58a5.25,5.25,0,1,1,5.25-5.25A5.26,5.26,0,0,1,213.91,58Zm0-9a3.75,3.75,0,1,0,3.75,3.75A3.75,3.75,0,0,0,213.91,49Z"/><path class="cls-5" d="M57.57,79a5.25,5.25,0,1,1,5.25-5.25A5.26,5.26,0,0,1,57.57,79Zm0-9a3.75,3.75,0,1,0,3.75,3.75A3.75,3.75,0,0,0,57.57,70Z"/></g><rect class="cls-8" x="113.19" y="89.81" width="82.69" height="47.25"/><rect class="cls-9" x="109.32" y="84.12" width="90.42" height="58.64" rx="3.22" ry="3.22"/><rect class="cls-8" x="113.19" y="90.07" width="82.69" height="47.25"/><rect class="cls-9" x="125.38" y="52.11" width="56.68" height="74.74"/><path class="cls-3" d="M182.31,127.11H125.13V51.86h57.18Zm-56.68-.5h56.18V52.36H125.63Z"/><path class="cls-3" d="M182.56,127.36H124.88V51.61h57.68Zm-57.18-.5h56.68v0Zm.5-.5h55.68V52.61H125.88Z"/><path class="cls-3" d="M196.52,143.08h-84a3.55,3.55,0,0,1-3.51-3.55V87.34a3.55,3.55,0,0,1,3.51-3.55h84A3.55,3.55,0,0,1,200,87.34h0v52.19A3.55,3.55,0,0,1,196.52,143.08Zm-84-58.64a2.9,2.9,0,0,0-2.86,2.9v52.19a2.9,2.9,0,0,0,2.86,2.9h84a2.9,2.9,0,0,0,2.9-2.9h0V87.34a2.9,2.9,0,0,0-2.86-2.9Z"/><path class="cls-3" d="M196.52,143.2h-84a3.69,3.69,0,0,1-3.63-3.67V87.34a3.69,3.69,0,0,1,3.63-3.67h84a3.68,3.68,0,0,1,3.67,3.67v52.19A3.69,3.69,0,0,1,196.52,143.2Zm-84-59.29a3.43,3.43,0,0,0-3.38,3.42v52.19A3.44,3.44,0,0,0,112.5,143h84a3.44,3.44,0,0,0,3.38-3.42V87.34a3.43,3.43,0,0,0-3.42-3.42Zm84,58.64h-84a3,3,0,0,1-3-3V87.34a3,3,0,0,1,3-3h84a3,3,0,0,1,3,3v52.19A3,3,0,0,1,196.48,142.55Zm-84-58a2.79,2.79,0,0,0-2.74,2.77v52.19a2.79,2.79,0,0,0,2.74,2.77h84a2.78,2.78,0,0,0,2.77-2.77V87.34a2.79,2.79,0,0,0-2.74-2.77h-84Z"/><path class="cls-3" d="M195.88,137.39H113.19a.32.32,0,0,1-.32-.32V89.81a.32.32,0,0,1,.32-.32h82.69a.32.32,0,0,1,.32.32v47.28A.32.32,0,0,1,195.88,137.39Zm-82.36-.65h82V90.13h-82Z"/><path class="cls-9" d="M210.32,141.14v2.34h0a3,3,0,0,1-2.92,3H101.51a3,3,0,0,1-3-3h0v-2.34Z"/><path class="cls-3" d="M207.4,146.78H101.51a3.34,3.34,0,0,1-3.3-3.31v-2.34a.32.32,0,0,1,.32-.32H210.32a.32.32,0,0,1,.32.32v2.34A3.31,3.31,0,0,1,207.4,146.78ZM98.85,141.47v2a2.6,2.6,0,0,0,2.6,2.6H207.4a2.6,2.6,0,0,0,2.6-2.6v-2Z"/><circle class="cls-9" cx="154.43" cy="87.43" r="1.03"/><rect class="cls-9" x="122.79" y="84.44" width="61.75" height="5.04"/><path class="cls-3" d="M154.43,88.78a1.3,1.3,0,1,1,1.3-1.3A1.3,1.3,0,0,1,154.43,88.78Zm0-2.05a.7.7,0,1,0,.7.7.7.7,0,0,0-.7-.7Z"/><path class="cls-3" d="M155.72,79.25h-24.1a.5.5,0,0,1,0-1h24.1a.5.5,0,0,1,0,1Z"/><path class="cls-3" d="M174.62,79.25H161.29a.5.5,0,0,1,0-1h13.33a.5.5,0,0,1,0,1Z"/><path class="cls-3" d="M174.62,96.25h-24.1a.5.5,0,0,1,0-1h24.1a.5.5,0,0,1,0,1Z"/><path class="cls-3" d="M145,96.25H131.62a.5.5,0,0,1,0-1H145a.5.5,0,0,1,0,1Z"/><path class="cls-3" d="M174.62,103.42h-43a.5.5,0,0,1,0-1h43a.5.5,0,0,1,0,1Z"/><path class="cls-3" d="M174.62,110.42h-43a.5.5,0,0,1,0-1h43a.5.5,0,0,1,0,1Z"/><path class="cls-3" d="M144.79,115.89H131.62a.5.5,0,0,1,0-1h13.17a.5.5,0,0,1,0,1Z"/><path class="cls-3" d="M160.29,115.89H149.62a.5.5,0,0,1,0-1h10.67a.5.5,0,0,1,0,1Z"/><path class="cls-3" d="M174.62,115.89H164.29a.5.5,0,0,1,0-1h10.33a.5.5,0,0,1,0,1Z"/><polyline class="cls-10" points="147.24 67.62 143.55 66.33 145.89 59.65 148.65 60.59 146.25 67.27"/><path class="cls-3" d="M147.24,67.74h0l-3.69-1.29a.12.12,0,0,1-.07-.15l2.34-6.68a.12.12,0,0,1,.15-.07l2.75.94a.12.12,0,0,1,.07.15L146.4,67.2l.88.31a.12.12,0,0,1,0,.23Zm-3.54-1.48,2.48.87,2.32-6.46L146,59.8Z"/><path class="cls-3" d="M150.46,65.08a7,7,0,0,1-1.49-.16.12.12,0,0,1,.05-.23s2.22.52,3.51-.37a2.17,2.17,0,0,0,.92-1.58.12.12,0,0,1,.07-.09.12.12,0,0,1,.11,0s2.18,1.28,3.35.75a1.24,1.24,0,0,0,.68-.92l-5.24-1.78c-.4-.14-1.53-.42-1.87,0-.52.58-1.89.05-1.95,0a.12.12,0,0,1,.09-.22c.35.14,1.35.41,1.69,0,.51-.57,2-.09,2.12,0l5.33,1.82a.12.12,0,0,1,.08.13,1.5,1.5,0,0,1-.83,1.19c-1.1.5-2.89-.39-3.42-.67a2.36,2.36,0,0,1-1,1.57A4,4,0,0,1,150.46,65.08Z"/><polyline class="cls-10" points="157.79 61.29 161.19 59.65 164.35 66.21 161.78 67.21 158.64 61"/><path class="cls-3" d="M161.78,67.33a.12.12,0,0,1-.1-.06l-3.13-6.2-.7.34a.12.12,0,0,1-.1-.21l3.4-1.64a.12.12,0,0,1,.16.05l3.16,6.56a.12.12,0,0,1-.06.16l-2.58,1Zm-3-6.37,3.08,6.1,2.36-.91-3.06-6.34Z"/><path class="cls-3" d="M148.65,69.42h0a1.36,1.36,0,0,1-.78-.65.71.71,0,0,1-.08-.64c.31-.93,2.4-1.7,2.49-1.73a.12.12,0,0,1,.08.22s-2.07.77-2.34,1.59a.48.48,0,0,0,.06.44,1.18,1.18,0,0,0,.63.55.12.12,0,0,1,0,.23Z"/><path class="cls-3" d="M149.14,71a1.22,1.22,0,0,1-1-.5.91.91,0,0,1-.22-.72.57.57,0,0,1,.25-.36l4.58-2.32a.12.12,0,1,1,.11.21l-4.57,2.31h0a.34.34,0,0,0-.14.21.71.71,0,0,0,.18.53,1.11,1.11,0,0,0,1.16.37l4.4-2.19a.12.12,0,1,1,.1.21l-4.42,2.2A1.51,1.51,0,0,1,149.14,71Z"/><path class="cls-3" d="M150.21,72.21a1.09,1.09,0,0,1-.63-.18,1.31,1.31,0,0,1-.46-1.15.12.12,0,0,1,.23,0,1.1,1.1,0,0,0,.36,1,1.18,1.18,0,0,0,.95.07L154.75,70a.12.12,0,1,1,.1.21l-4.1,1.93A1.72,1.72,0,0,1,150.21,72.21Z"/><path class="cls-3" d="M152.28,73.13a1,1,0,0,1-1-1.46.12.12,0,0,1,.14-.09.12.12,0,0,1,.09.14,1,1,0,0,0,.11.94,1.24,1.24,0,0,0,1,.2c.24-.12,3.39-1.71,5.38-2.63a12,12,0,0,0,3.71-3.1.12.12,0,0,1,.19.14,12.25,12.25,0,0,1-3.79,3.17c-2.05,1-5.36,2.62-5.39,2.64h0A2,2,0,0,1,152.28,73.13Z"/></g></g></svg>