<svg xmlns="http://www.w3.org/2000/svg" viewBox="0 0 309.56 146.44"><defs><style>.cls-1{fill:#eff5f8;}.cls-2{fill:#cdebfc;}.cls-3{fill:#3273ad;}.cls-4{opacity:0.5;}.cls-5{fill:#0aa5e3;}.cls-6{fill:#32b475;}.cls-7{fill:#e3b462;}.cls-8{fill:#ebf9ff;}.cls-9{fill:#fad264;}.cls-10{fill:#caedff;}.cls-11{fill:#fff;}</style></defs><title>pivot-persevere</title><g id="Layer_2" data-name="Layer 2"><g id="Layer_1-2" data-name="Layer 1"><path class="cls-1" d="M248.54,120.5h-35.7a3.14,3.14,0,0,0,0,6.27h4.65a3.14,3.14,0,0,1,0,6.27H207.33a3.14,3.14,0,1,0,0,6.27H243a3.14,3.14,0,1,0,0-6.27h-9.74a3.14,3.14,0,0,1,0-6.27h15.25a3.14,3.14,0,1,0,0-6.27Z"/><path class="cls-1" d="M24.64,123.08H65.76a3.09,3.09,0,0,0,0-6.18H55.22a3.09,3.09,0,0,1,0-6.18h6.6a3.09,3.09,0,0,0,0-6.18H35.19a3.09,3.09,0,0,0,0,6.18h4.47a3.09,3.09,0,0,1,0,6.18h-15a3.09,3.09,0,0,0,0,6.18Z"/><path class="cls-1" d="M62.21,80.32H91A2.16,2.16,0,1,0,91,76H83.62a2.16,2.16,0,0,1,0-4.33h4.62a2.16,2.16,0,1,0,0-4.33H69.6a2.16,2.16,0,0,0,0,4.33h3.13a2.16,2.16,0,0,1,0,4.33H62.21a2.16,2.16,0,1,0,0,4.33Z"/><path class="cls-2" d="M247.55,51.08h0l10-.45a1.16,1.16,0,0,0,.73-.1,1.2,1.2,0,0,0,.36-.87c0-.07,0-.13,0-.16a8.69,8.69,0,0,1,.34-1,6.56,6.56,0,0,1,.89-1.54,5.56,5.56,0,0,1,2.34-1.73,6.88,6.88,0,0,1,2.26-.45,7.46,7.46,0,0,1,.83,0,1.25,1.25,0,0,0,.67,0c.35-.13.48-.52.71-1.46,0-.15.07-.27.09-.34a17.94,17.94,0,0,1,1-2.28A11.87,11.87,0,0,1,270,37.59a8.76,8.76,0,0,1,5.19-2.42,11.55,11.55,0,0,1,10.6,5.07,12.59,12.59,0,0,1,1.87,7.8.48.48,0,0,0,.95.1,13.57,13.57,0,0,0-2-8.41,12.37,12.37,0,0,0-11.5-5.5,9.7,9.7,0,0,0-5.75,2.68,12.8,12.8,0,0,0-2.46,3.4,18.81,18.81,0,0,0-1,2.4c0,.08-.07.23-.11.42s-.13.52-.2.74l-.19,0a9,9,0,0,0-.93,0,7.85,7.85,0,0,0-2.57.52,6.52,6.52,0,0,0-2.74,2,7.48,7.48,0,0,0-1,1.77,9.69,9.69,0,0,0-.38,1.11c0,.06,0,.16-.05.27l0,.17h-.17l-10,.45a.47.47,0,0,0,0,.95Z"/><path class="cls-2" d="M34.78,23.86h5.81a.47.47,0,0,0,.47-.49,4.27,4.27,0,0,1,1.14-3.26c1.77-1.82,5-1.8,5-1.81a.53.53,0,0,0,.36-.16.48.48,0,0,0,.11-.38,9.84,9.84,0,0,1,2-6.76,7.79,7.79,0,0,1,6.14-2.43,7.2,7.2,0,0,1,5.4,2.06c2.4,2.51,2.26,6.5,2.26,6.54a.48.48,0,0,0,.19.4.48.48,0,0,0,.44.07,6.65,6.65,0,0,1,5.61.26c2.84,1.65,3.64,5.54,3.65,5.58a.48.48,0,0,0,.47.38H85.32a.48.48,0,1,0,0-1h-11c-.29-1.1-1.32-4.27-4-5.83a7.29,7.29,0,0,0-5.78-.53A10.44,10.44,0,0,0,62,10a8.1,8.1,0,0,0-6.09-2.36A8.72,8.72,0,0,0,49,10.37a10.73,10.73,0,0,0-2.31,7,8.31,8.31,0,0,0-5.19,2.08,5.06,5.06,0,0,0-1.41,3.47H34.78a.48.48,0,0,0,0,1Z"/><path class="cls-3" d="M5.72,146.44H.47c-.26,0-.47-.1-.47-.23s.21-.23.47-.23H5.72c.26,0,.47.1.47.23S6,146.44,5.72,146.44Z"/><path class="cls-3" d="M300.06,146.44h-290c-.28,0-.5-.11-.5-.25s.22-.25.5-.25h290c.28,0,.5.11.5.25S300.33,146.44,300.06,146.44Z"/><path class="cls-3" d="M309.06,146.44h-3.62c-.28,0-.5-.11-.5-.25s.22-.25.5-.25h3.62c.28,0,.5.11.5.25S309.33,146.44,309.06,146.44Z"/><g class="cls-4"><path class="cls-1" d="M251.86,89.07h41.29a3.1,3.1,0,1,0,0-6.2H282.56a3.1,3.1,0,1,1,0-6.2h6.63a3.1,3.1,0,1,0,0-6.2H262.45a3.1,3.1,0,1,0,0,6.2h4.49a3.1,3.1,0,1,1,0,6.2H251.86a3.1,3.1,0,1,0,0,6.2Z"/><path class="cls-5" d="M221.48,72.33A5.32,5.32,0,1,1,226.8,67,5.33,5.33,0,0,1,221.48,72.33Zm0-9.23A3.91,3.91,0,1,0,225.39,67,3.92,3.92,0,0,0,221.48,63.09Z"/><path class="cls-6" d="M67.14,60.54a5.66,5.66,0,1,1,5.66-5.66A5.66,5.66,0,0,1,67.14,60.54Zm0-9.82a4.16,4.16,0,1,0,4.16,4.16A4.16,4.16,0,0,0,67.14,50.73Z"/><path class="cls-6" d="M239.44,129.8a3.58,3.58,0,1,1,3.58-3.58A3.58,3.58,0,0,1,239.44,129.8Zm0-6.21a2.63,2.63,0,1,0,2.63,2.63A2.63,2.63,0,0,0,239.44,123.59Z"/><path class="cls-6" d="M248,91.08a3.41,3.41,0,1,1,3.41-3.41A3.41,3.41,0,0,1,248,91.08Zm0-5.31a1.91,1.91,0,1,0,1.91,1.91A1.91,1.91,0,0,0,248,85.77Z"/><path class="cls-6" d="M41.8,78.47a3.41,3.41,0,1,1,3.41-3.41A3.41,3.41,0,0,1,41.8,78.47Zm0-5.31a1.91,1.91,0,1,0,1.91,1.91A1.91,1.91,0,0,0,41.8,73.16Z"/><path class="cls-7" d="M271.76,111.19a4.84,4.84,0,1,1,4.84-4.84A4.85,4.85,0,0,1,271.76,111.19Zm0-7.56a2.71,2.71,0,1,0,2.71,2.71A2.71,2.71,0,0,0,271.76,103.64Z"/><path class="cls-7" d="M96.92,103a4.75,4.75,0,1,1,4.75-4.75A4.76,4.76,0,0,1,96.92,103Zm0-8a3.25,3.25,0,1,0,3.25,3.25A3.25,3.25,0,0,0,96.92,95Z"/><path class="cls-5" d="M213.91,109.51a5.66,5.66,0,1,1,5.66-5.66A5.66,5.66,0,0,1,213.91,109.51Zm0-9.82a4.16,4.16,0,1,0,4.16,4.16A4.16,4.16,0,0,0,213.91,99.69Z"/><path class="cls-7" d="M76.61,136a5.66,5.66,0,1,1,5.66-5.66A5.66,5.66,0,0,1,76.61,136Zm0-9.82a4.16,4.16,0,1,0,4.16,4.16A4.16,4.16,0,0,0,76.61,126.22Z"/><path class="cls-7" d="M239.57,44.66a5.25,5.25,0,1,1,5.25-5.25A5.26,5.26,0,0,1,239.57,44.66Zm0-9a3.75,3.75,0,1,0,3.75,3.75A3.75,3.75,0,0,0,239.57,35.66Z"/><path class="cls-5" d="M63.39,95.33a5.25,5.25,0,1,1,5.25-5.25A5.26,5.26,0,0,1,63.39,95.33Zm0-9a3.75,3.75,0,1,0,3.75,3.75A3.75,3.75,0,0,0,63.39,86.33Z"/></g><path class="cls-3" d="M194.68,31.37a20,20,0,0,1-5-.75.69.69,0,0,1,.35-1.34c4.11,1.08,6.94.92,8.39-.48s1.63-3.81.83-7.44c-.76-2.13-1.72-3.41-2.92-3.89-1.93-.77-4.43.5-7.09,1.85-3.73,1.9-8,4-11.18.16-2.23-2.7-.52-6.46,1-9.78,1.76-3.87,2.67-6.31.57-7.65-3.12-2-7.42.82-10.09,4.27-2.48,3.21-4.1,7.65-1.76,9.82a.69.69,0,0,1-.94,1c-3-2.77-1.24-8,1.61-11.68,3-3.93,8.08-7,11.93-4.59,3.26,2.08,1.57,5.8-.06,9.39-1.41,3.1-2.86,6.3-1.18,8.33,2.5,3,5.89,1.31,9.49-.51,2.81-1.43,5.71-2.9,8.22-1.9,1.6.64,2.82,2.2,3.73,4.75l0,.08c.93,4.16.52,7.11-1.21,8.78A6.49,6.49,0,0,1,194.68,31.37Z"/><polygon class="cls-8" points="165.52 44.72 185.38 51.91 179.13 31.37 158.45 24.99 165.52 44.72"/><path class="cls-3" d="M185.38,52.26l-.12,0L165.4,45a.35.35,0,0,1-.21-.21l-7.06-19.73a.34.34,0,0,1,.43-.45L179.23,31a.35.35,0,0,1,.23.23l6.25,20.54a.35.35,0,0,1-.33.45Zm-19.6-7.81,19.07,6.91-6-19.71L159,25.52Z"/><polygon class="cls-8" points="155.81 54.98 190.34 66.25 199.56 57.05 165.52 44.72 155.81 54.98"/><path class="cls-3" d="M190.34,66.59l-.11,0L155.7,55.31a.35.35,0,0,1-.14-.57l9.71-10.27a.35.35,0,0,1,.37-.09l34,12.33a.34.34,0,0,1,.13.57l-9.23,9.2A.34.34,0,0,1,190.34,66.59ZM156.43,54.83l33.81,11,8.69-8.66L165.61,45.12Z"/><polygon class="cls-8" points="121.7 118.28 143.84 101.39 143.84 67.99 121.7 84.88 121.7 118.28"/><path class="cls-3" d="M121.7,118.63a.35.35,0,0,1-.15,0,.34.34,0,0,1-.19-.31V84.88a.34.34,0,0,1,.14-.27l22.15-16.89a.35.35,0,0,1,.36,0,.34.34,0,0,1,.19.31v33.41a.34.34,0,0,1-.14.27L121.9,118.56A.35.35,0,0,1,121.7,118.63ZM122,85v32.54l21.46-16.36V68.69Z"/><polygon class="cls-8" points="143.84 101.77 184.75 110.4 184.75 76.62 143.84 67.99 143.84 101.77"/><path class="cls-3" d="M184.75,110.75h-.07l-40.91-8.63a.35.35,0,0,1-.27-.34V68a.35.35,0,0,1,.13-.27.35.35,0,0,1,.29-.07l40.91,8.63a.34.34,0,0,1,.27.34V110.4a.34.34,0,0,1-.35.35Zm-40.57-9.26L184.41,110V76.9l-40.22-8.49Z"/><path class="cls-9" d="M166.65,70.47a10.09,10.09,0,1,0-13.85,9.88,1.6,1.6,0,0,0-.15.75l.14,2.73a1.62,1.62,0,0,0,1.7,1.53l5.66-.3a1.62,1.62,0,0,0,1.53-1.7l-.14-2.73a1.6,1.6,0,0,0-.22-.73A10.08,10.08,0,0,0,166.65,70.47Z"/><path class="cls-3" d="M160.16,85.18l-5.66.3a1.74,1.74,0,0,1-1.82-1.64l-.14-2.73a1.7,1.7,0,0,1,.11-.7,10.2,10.2,0,1,1,8.84-.46,1.7,1.7,0,0,1,.18.68l.14,2.73A1.74,1.74,0,0,1,160.16,85.18ZM156.06,61a10,10,0,0,0-3.22,19.19.12.12,0,0,1,.06.16,1.47,1.47,0,0,0-.13.7l.14,2.73a1.5,1.5,0,0,0,1.58,1.42l5.66-.3a1.5,1.5,0,0,0,1.42-1.58l-.14-2.73a1.47,1.47,0,0,0-.21-.68.12.12,0,0,1,0-.16A10,10,0,0,0,156.06,61Z"/><line class="cls-10" x1="154.43" y1="87.12" x2="160.69" y2="86.79"/><path class="cls-3" d="M160.71,87.15l-6.26.33a.35.35,0,0,1,0-.7l6.26-.33a.35.35,0,0,1,0,.7Z"/><line class="cls-10" x1="155.87" y1="89.38" x2="159.66" y2="89.18"/><path class="cls-3" d="M159.68,89.53l-3.79.2a.35.35,0,0,1,0-.7l3.79-.2a.35.35,0,1,1,0,.7Z"/><line class="cls-10" x1="156.74" y1="91.76" x2="158.72" y2="91.66"/><path class="cls-3" d="M158.73,92l-2,.1a.35.35,0,1,1,0-.7l2-.1a.35.35,0,0,1,0,.7Z"/><path class="cls-11" d="M154.7,65.74a.27.27,0,0,1,.12.48,5.84,5.84,0,0,0-1.13,8.17.27.27,0,1,1-.43.32,6.37,6.37,0,0,1,1.23-8.92A.27.27,0,0,1,154.7,65.74Z"/><polygon class="cls-10" points="162.61 126.92 184.75 110.03 184.75 76.62 162.61 93.51 162.61 126.92"/><path class="cls-3" d="M162.61,127.26a.35.35,0,0,1-.15,0,.34.34,0,0,1-.19-.31V93.51a.34.34,0,0,1,.14-.27l22.15-16.89a.35.35,0,0,1,.55.27V110a.35.35,0,0,1-.14.27l-22.15,16.89A.35.35,0,0,1,162.61,127.26ZM163,93.68v32.54l21.46-16.36V77.32Z"/><polygon class="cls-10" points="121.7 118.66 162.61 127.29 162.61 93.89 121.7 85.25 121.7 118.66"/><path class="cls-3" d="M162.61,127.64h-.07L121.62,119a.35.35,0,0,1-.27-.34V85.25a.35.35,0,0,1,.13-.27.35.35,0,0,1,.29-.07l40.91,8.63a.35.35,0,0,1,.27.34v33.41a.34.34,0,0,1-.35.35ZM122,118.38l40.22,8.49V94.17L122,85.68Z"/><polygon class="cls-10" points="189.96 66.25 199.94 57.05 188.12 22.39 178.89 31.59 189.96 66.25"/><path class="cls-3" d="M190,66.59h-.09a.35.35,0,0,1-.24-.23L178.56,31.7a.35.35,0,0,1,.09-.35l9.23-9.2a.35.35,0,0,1,.57.13l11.82,34.65a.35.35,0,0,1-.09.37l-10,9.2A.34.34,0,0,1,190,66.59Zm-10.68-34.9,10.84,33.94,9.41-8.68L188,23Z"/><polygon class="cls-8" points="155.81 54.98 165.52 44.72 153.58 11.13 144.36 20.33 155.81 54.98"/><path class="cls-3" d="M155.81,55.33h-.08a.34.34,0,0,1-.25-.23L144,20.44a.34.34,0,0,1,.08-.35l9.23-9.2a.35.35,0,0,1,.57.13L165.84,44.6a.35.35,0,0,1-.07.35l-9.71,10.27A.35.35,0,0,1,155.81,55.33ZM144.75,20.42,156,54.33l9.17-9.69L153.44,11.76Z"/><polygon class="cls-10" points="144.36 20.33 178.89 31.59 188.12 22.39 154.07 10.06 144.36 20.33"/><path class="cls-3" d="M178.89,31.94l-.11,0L144.25,20.66a.35.35,0,0,1-.14-.57l9.71-10.27a.35.35,0,0,1,.37-.09l34,12.33a.34.34,0,0,1,.13.57l-9.23,9.2A.34.34,0,0,1,178.89,31.94ZM145,20.17l33.81,11,8.69-8.66L154.16,10.46Z"/><path class="cls-3" d="M211.19,46.31a6.08,6.08,0,0,1-2.25-.42A11.49,11.49,0,0,1,204,41.3c-.27-.41-.54-.83-.8-1.24a19.47,19.47,0,0,0-2.88-3.82,9.53,9.53,0,0,0-8.22-2.4.69.69,0,1,1-.26-1.36,10.93,10.93,0,0,1,9.43,2.76,20.79,20.79,0,0,1,3.1,4.08c.26.41.52.82.79,1.22a10.25,10.25,0,0,0,4.31,4.07c1.61.65,3.92.36,4.84-1.23a.69.69,0,0,1,1.19.69A4.83,4.83,0,0,1,211.19,46.31Z"/><rect class="cls-10" x="91.8" y="6.3" width="2.76" height="62.72" transform="translate(16.67 102.83) rotate(-62.43)"/><polygon class="cls-11" points="120.34 53.4 107.8 46.84 109.19 44.37 121.62 50.96 120.34 53.4"/><path class="cls-3" d="M120.34,53.49h0l-55.6-29a.09.09,0,0,1,0-.12l1.28-2.45a.09.09,0,0,1,.12,0l55.6,29a.09.09,0,0,1,0,.12l-1.28,2.45A.09.09,0,0,1,120.34,53.49ZM64.86,24.34l55.45,29,1.2-2.3L66.06,22Z"/><path class="cls-9" d="M122.34,33.83a.69.69,0,0,1-.63-1l1.36-3.11a.69.69,0,0,1,1.26.55L123,33.42A.69.69,0,0,1,122.34,33.83Z"/><path class="cls-9" d="M130.1,40.63a.69.69,0,0,1-.35-1.29l2.93-1.71a.69.69,0,0,1,.7,1.19l-2.93,1.71A.69.69,0,0,1,130.1,40.63Z"/><path class="cls-9" d="M135.77,51h-.07l-3.38-.34a.69.69,0,1,1,.14-1.37l3.38.34a.69.69,0,0,1-.07,1.38Z"/><path class="cls-9" d="M130.85,62.44a.69.69,0,0,1-.46-.17L127.86,60a.69.69,0,0,1,.92-1l2.54,2.26a.69.69,0,0,1-.46,1.21Z"/><path class="cls-9" d="M120.18,68.78a.69.69,0,0,1-.67-.54l-.72-3.32a.69.69,0,0,1,1.35-.29l.72,3.32a.69.69,0,0,1-.53.82Z"/><path class="cls-9" d="M107.81,67.64a.69.69,0,0,1-.63-1l1.36-3.11a.69.69,0,0,1,1.26.55l-1.36,3.11A.69.69,0,0,1,107.81,67.64Z"/><path class="cls-9" d="M98.48,59.44a.69.69,0,0,1-.35-1.29l2.93-1.71a.69.69,0,1,1,.7,1.19l-2.93,1.71A.69.69,0,0,1,98.48,59.44Z"/><path class="cls-9" d="M99.12,47.66h-.07l-3.38-.34a.69.69,0,1,1,.14-1.37l3.38.34a.69.69,0,0,1-.07,1.38Z"/><path class="cls-9" d="M103.19,38.17a.69.69,0,0,1-.46-.17l-2.54-2.26a.69.69,0,1,1,.92-1L103.65,37a.69.69,0,0,1-.46,1.21Z"/><path class="cls-9" d="M112.06,32.89a.69.69,0,0,1-.67-.54L110.66,29a.69.69,0,1,1,1.35-.29l.72,3.32a.69.69,0,0,1-.53.82Z"/><path class="cls-3" d="M107.79,46.93h0a.09.09,0,0,1,0-.12l1.4-2.47a.09.09,0,0,1,.15.08l-1.4,2.47A.09.09,0,0,1,107.79,46.93Z"/></g></g></svg>