<svg xmlns="http://www.w3.org/2000/svg" viewBox="0 0 309.96 109.28"><defs><style>.cls-1{fill:#eff5f8;}.cls-2{fill:#cdebfc;}.cls-3{fill:#3273ad;}.cls-4{fill:#046ca3;}.cls-5{opacity:0.5;}.cls-6{fill:#0aa5e3;}.cls-7{fill:#32b475;}.cls-8{fill:#e3b462;}.cls-9{fill:#fff;}.cls-10{fill:#deedfc;}.cls-11{fill:#fad264;}.cls-12{fill:#caedff;}.cls-13{fill:#47c683;}.cls-14{fill:#63d398;}</style></defs><title>startup-library</title><g id="Layer_2" data-name="Layer 2"><g id="Layer_1-2" data-name="Layer 1"><path class="cls-1" d="M50.25,77.32h35.7a3.14,3.14,0,0,1,0,6.27H81.29a3.14,3.14,0,1,0,0,6.27H91.46a3.14,3.14,0,0,1,0,6.27H55.76a3.14,3.14,0,0,1,0-6.27H65.5a3.14,3.14,0,1,0,0-6.27H50.25a3.14,3.14,0,1,1,0-6.27Z"/><path class="cls-1" d="M290.42,85.55H249.3a3.09,3.09,0,1,1,0-6.18h10.55a3.09,3.09,0,1,0,0-6.18h-6.6a3.09,3.09,0,1,1,0-6.18h26.63a3.09,3.09,0,1,1,0,6.18H275.4a3.09,3.09,0,1,0,0,6.18h15a3.09,3.09,0,1,1,0,6.18Z"/><path class="cls-1" d="M83.91,60.74H42.62a3.1,3.1,0,1,1,0-6.2H53.21a3.1,3.1,0,0,0,0-6.2H46.58a3.1,3.1,0,0,1,0-6.2H73.32a3.1,3.1,0,0,1,0,6.2H68.83a3.1,3.1,0,0,0,0,6.2H83.91a3.1,3.1,0,1,1,0,6.2Z"/><path class="cls-1" d="M202.69,20.8h50.14a3.77,3.77,0,1,1,0,7.53H240a3.77,3.77,0,0,0,0,7.53H248a3.77,3.77,0,1,1,0,7.53H215.55a3.77,3.77,0,0,1,0-7.53H221a3.77,3.77,0,1,0,0-7.53H202.69a3.77,3.77,0,1,1,0-7.53Z"/><path class="cls-2" d="M265.62,22.62h4.55a.37.37,0,0,0,.37-.39,3.35,3.35,0,0,1,.9-2.56,6.23,6.23,0,0,1,3.93-1.42.41.41,0,0,0,.28-.13.37.37,0,0,0,.09-.3,7.71,7.71,0,0,1,1.61-5.3,6.1,6.1,0,0,1,4.82-1.9,5.64,5.64,0,0,1,4.24,1.62,7.85,7.85,0,0,1,1.77,5.13.37.37,0,0,0,.15.31.38.38,0,0,0,.34.06,5.21,5.21,0,0,1,4.4.2c2.23,1.3,2.85,4.34,2.86,4.37a.37.37,0,0,0,.37.3h9a.37.37,0,0,0,0-.74h-8.66a7.65,7.65,0,0,0-3.14-4.57,5.71,5.71,0,0,0-4.53-.41,8.19,8.19,0,0,0-2-5.15,6.35,6.35,0,0,0-4.78-1.85A6.84,6.84,0,0,0,276.79,12,8.41,8.41,0,0,0,275,17.53a6.51,6.51,0,0,0-4.07,1.63,4,4,0,0,0-1.11,2.72h-4.18a.37.37,0,0,0,0,.74Z"/><path class="cls-2" d="M36.4,29.32h0l-8.59-.39a1,1,0,0,1-.63-.09,1,1,0,0,1-.31-.75c0-.06,0-.11,0-.14a7.47,7.47,0,0,0-.29-.86,5.64,5.64,0,0,0-.77-1.33,4.78,4.78,0,0,0-2-1.49,5.92,5.92,0,0,0-1.94-.39,6.41,6.41,0,0,0-.71,0,1.07,1.07,0,0,1-.58,0c-.3-.11-.41-.45-.61-1.25,0-.13-.06-.23-.08-.29a15.43,15.43,0,0,0-.83-2,10.21,10.21,0,0,0-2-2.71,7.54,7.54,0,0,0-4.47-2.08A9.94,9.94,0,0,0,3.45,20a10.83,10.83,0,0,0-1.61,6.71.41.41,0,0,1-.81.08,11.67,11.67,0,0,1,1.73-7.23,10.64,10.64,0,0,1,9.89-4.73,8.34,8.34,0,0,1,4.95,2.3A11,11,0,0,1,19.73,20a16.18,16.18,0,0,1,.87,2.07c0,.07.06.2.1.36s.11.45.18.64l.16,0a7.7,7.7,0,0,1,.8,0,6.76,6.76,0,0,1,2.21.45,5.61,5.61,0,0,1,2.36,1.75,6.44,6.44,0,0,1,.88,1.52,8.33,8.33,0,0,1,.33,1c0,.05,0,.14,0,.23l0,.15h.15l8.59.39a.41.41,0,0,1,0,.82Z"/><path class="cls-2" d="M171.29,17.63h-5.81a.47.47,0,0,1-.47-.49,4.27,4.27,0,0,0-1.14-3.26c-1.77-1.82-5-1.8-5-1.81a.53.53,0,0,1-.36-.16.48.48,0,0,1-.11-.38,9.84,9.84,0,0,0-2-6.76,7.79,7.79,0,0,0-6.14-2.43,7.2,7.2,0,0,0-5.4,2.06c-2.4,2.51-2.26,6.5-2.26,6.54a.48.48,0,0,1-.19.4.48.48,0,0,1-.44.07,6.65,6.65,0,0,0-5.61.26c-2.84,1.65-3.64,5.54-3.65,5.58a.48.48,0,0,1-.47.38H120.76a.48.48,0,1,1,0-1h11c.29-1.1,1.32-4.27,4-5.83a7.29,7.29,0,0,1,5.78-.53,10.44,10.44,0,0,1,2.51-6.57,8.1,8.1,0,0,1,6.09-2.36A8.72,8.72,0,0,1,157,4.14a10.73,10.73,0,0,1,2.31,7,8.31,8.31,0,0,1,5.19,2.08A5.06,5.06,0,0,1,166,16.68h5.33a.48.48,0,0,1,0,1Z"/><path class="cls-3" d="M5.92,109.08H.67c-.26,0-.47-.1-.47-.23s.21-.23.47-.23H5.92c.26,0,.47.1.47.23S6.18,109.08,5.92,109.08Z"/><path class="cls-4" d="M5.92,109.28H.67c-.39,0-.67-.18-.67-.43s.28-.43.67-.43H5.92c.39,0,.67.18.67.43S6.31,109.28,5.92,109.28Zm-5.46-.43a.61.61,0,0,0,.21,0H5.92a.61.61,0,0,0,.21,0,.61.61,0,0,0-.21,0H.67A.61.61,0,0,0,.46,108.85Z"/><path class="cls-3" d="M300.26,109.08h-290c-.28,0-.5-.11-.5-.25s.22-.25.5-.25h290c.28,0,.5.11.5.25S300.53,109.08,300.26,109.08Z"/><path class="cls-4" d="M300.26,109.28h-290c-.41,0-.7-.19-.7-.45s.29-.45.7-.45h290c.41,0,.7.19.7.45S300.66,109.28,300.26,109.28ZM10,108.83a.61.61,0,0,0,.26,0h290a.61.61,0,0,0,.26,0,.63.63,0,0,0-.26,0h-290A.63.63,0,0,0,10,108.83Z"/><path class="cls-3" d="M309.26,109.08h-3.62c-.28,0-.5-.11-.5-.25s.22-.25.5-.25h3.62c.28,0,.5.11.5.25S309.53,109.08,309.26,109.08Z"/><path class="cls-4" d="M309.26,109.28h-3.62c-.41,0-.7-.19-.7-.45s.29-.45.7-.45h3.62c.41,0,.7.19.7.45S309.66,109.28,309.26,109.28Zm-3.88-.45a.61.61,0,0,0,.26,0h3.62a.61.61,0,0,0,.26,0,.63.63,0,0,0-.26,0h-3.62A.63.63,0,0,0,305.38,108.83Z"/><g class="cls-5"><path class="cls-6" d="M17.39,5.66a5.66,5.66,0,1,1,5.66,5.66A5.66,5.66,0,0,1,17.39,5.66Zm1.5,0A4.16,4.16,0,1,0,23.05,1.5,4.16,4.16,0,0,0,18.89,5.66Z"/><path class="cls-7" d="M248.48,18.77a5.66,5.66,0,1,1,5.66,5.66A5.66,5.66,0,0,1,248.48,18.77Zm1.5,0a4.16,4.16,0,1,0,4.16-4.16A4.16,4.16,0,0,0,250,18.77Z"/><path class="cls-7" d="M31.85,51.51a3.58,3.58,0,1,1,3.58,3.58A3.58,3.58,0,0,1,31.85,51.51Zm.95,0a2.63,2.63,0,1,0,2.63-2.63A2.63,2.63,0,0,0,32.8,51.51Z"/><path class="cls-7" d="M35.65,83.57A3.41,3.41,0,1,1,39.06,87,3.41,3.41,0,0,1,35.65,83.57Zm1.5,0a1.91,1.91,0,1,0,1.91-1.91A1.91,1.91,0,0,0,37.15,83.57Z"/><path class="cls-7" d="M274.56,73.19A3.41,3.41,0,1,1,278,76.6,3.41,3.41,0,0,1,274.56,73.19Zm1.5,0A1.91,1.91,0,1,0,278,71.28,1.91,1.91,0,0,0,276.06,73.19Z"/><path class="cls-8" d="M7.21,32.1a4.37,4.37,0,1,1,4.37,4.37A4.37,4.37,0,0,1,7.21,32.1Zm1.92,0a2.44,2.44,0,1,0,2.44-2.44A2.45,2.45,0,0,0,9.13,32.1Z"/><path class="cls-8" d="M290.86,54.94a4.75,4.75,0,1,1,4.54,4.95A4.76,4.76,0,0,1,290.86,54.94Zm1.5.06a3.25,3.25,0,1,0,3.39-3.11A3.25,3.25,0,0,0,292.35,55Z"/><path class="cls-6" d="M12.28,69.13a5.66,5.66,0,1,1,5.66,5.66A5.66,5.66,0,0,1,12.28,69.13Zm1.5,0A4.16,4.16,0,1,0,17.94,65,4.16,4.16,0,0,0,13.78,69.13Z"/><path class="cls-8" d="M263,91.57a5.66,5.66,0,1,1,5.66,5.66A5.66,5.66,0,0,1,263,91.57Zm1.5,0a4.16,4.16,0,1,0,4.16-4.16A4.16,4.16,0,0,0,264.49,91.57Z"/><path class="cls-8" d="M37.47,19a5.25,5.25,0,1,1,5.25,5.25A5.26,5.26,0,0,1,37.47,19ZM39,19a3.75,3.75,0,1,0,3.75-3.75A3.75,3.75,0,0,0,39,19Z"/><path class="cls-6" d="M282.23,31.38a5.25,5.25,0,1,1,5.25,5.25A5.26,5.26,0,0,1,282.23,31.38Zm1.5,0a3.75,3.75,0,1,0,3.75-3.75A3.75,3.75,0,0,0,283.73,31.38Z"/><path class="cls-7" d="M264.13,45.82a3.41,3.41,0,1,1,3.41,3.41A3.41,3.41,0,0,1,264.13,45.82Zm1.5,0a1.91,1.91,0,1,0,1.91-1.91A1.91,1.91,0,0,0,265.63,45.82Z"/></g><rect class="cls-9" x="81.74" y="81.45" width="5.2" height="6.67" rx="1.77" ry="1.77"/><path class="cls-3" d="M85.18,88.38H83.51a2,2,0,0,1-2-2V83.21a2,2,0,0,1,2-2h1.67a2,2,0,0,1,2,2v3.14A2,2,0,0,1,85.18,88.38Zm-1.67-6.67a1.51,1.51,0,0,0-1.5,1.5v3.14a1.51,1.51,0,0,0,1.5,1.5h1.67a1.51,1.51,0,0,0,1.51-1.5V83.21a1.51,1.51,0,0,0-1.51-1.5Z"/><rect class="cls-9" x="214.23" y="81.45" width="5.2" height="6.67" rx="1.77" ry="1.77"/><path class="cls-3" d="M217.66,88.38H216a2,2,0,0,1-2-2V83.21a2,2,0,0,1,2-2h1.67a2,2,0,0,1,2,2v3.14A2,2,0,0,1,217.66,88.38ZM216,81.71a1.51,1.51,0,0,0-1.5,1.5v3.14a1.51,1.51,0,0,0,1.5,1.5h1.67a1.51,1.51,0,0,0,1.51-1.5V83.21a1.51,1.51,0,0,0-1.51-1.5Z"/><path class="cls-10" d="M211,53.74,209.2,52h-.13l0,0,0,0v0l-.39,2.45"/><path class="cls-3" d="M208.72,54.57l-.29,0,.39-2.45a.29.29,0,0,1,.09-.16.27.27,0,0,1,.1-.06h.1l.12,0,.05,0,1.78,1.72-.2.21-1.77-1.72Z"/><path class="cls-7" d="M213.69,62.29a1.15,1.15,0,0,1-.77,1.15,1.14,1.14,0,0,1-1.31-.44Z"/><path class="cls-3" d="M212.1,63.27h0a1,1,0,0,1-.29-.22l1.76-.6a1,1,0,0,1-.69.87,1,1,0,0,1-.78-.05m-.11.22a1.26,1.26,0,0,0,1.79-1.36l-2.36.8a1.26,1.26,0,0,0,.57.56Z"/><polyline class="cls-3" points="208.82 53.03 209.06 51.98 209.88 52.74"/><polyline class="cls-11" points="210.97 53.74 213.23 60.42 210.84 61.23 208.58 54.55"/><path class="cls-3" d="M210.75,61.41l-2.31-6.82a.15.15,0,1,1,.28-.09L210.93,61l2.11-.71-2.21-6.54a.15.15,0,1,1,.28-.09l2.31,6.82Z"/><line class="cls-6" x1="210.2" y1="54.03" x2="212.13" y2="59.88"/><path class="cls-3" d="M212.13,60a.15.15,0,0,1-.14-.1l-1.92-5.85a.15.15,0,0,1,.28-.09l1.92,5.85a.15.15,0,0,1-.09.19Z"/><line class="cls-6" x1="209.4" y1="54.29" x2="211.33" y2="60.15"/><path class="cls-3" d="M211.33,60.29a.15.15,0,0,1-.14-.1l-1.93-5.85a.15.15,0,0,1,.28-.09l1.93,5.85a.15.15,0,0,1-.09.19Z"/><line class="cls-6" x1="213.44" y1="60.95" x2="211.06" y2="61.78"/><path class="cls-3" d="M211.06,61.93a.15.15,0,0,1,0-.29l2.38-.83a.15.15,0,0,1,.1.28l-2.38.83Z"/><line class="cls-6" x1="213.65" y1="61.56" x2="211.27" y2="62.38"/><path class="cls-3" d="M211.27,62.53a.15.15,0,0,1,0-.29l2.38-.83a.15.15,0,0,1,.1.28l-2.38.83Z"/><path class="cls-3" d="M221.18,51.76h0a.13.13,0,0,1-.08-.17l.51-1.47a.13.13,0,0,1,.25.09l-.51,1.47A.13.13,0,0,1,221.18,51.76Z"/><path class="cls-12" d="M221.43,50.89s.95,1.87.65,2.92l-5,17.56a1.42,1.42,0,0,1-1.84,1,1.62,1.62,0,0,1-1.26-1.7l5.18-17.86S219.46,51.81,221.43,50.89Z"/><path class="cls-3" d="M220.83,51.07l.55-.28a.12.12,0,0,1,.15.05c0,.08,1,1.92.65,3l-5,17.56a1.71,1.71,0,0,1-.74,1,1.62,1.62,0,0,1-1.25.09,1.74,1.74,0,0,1-1.35-1.82L219,52.76S219.32,51.91,220.83,51.07Zm.55,0c-1.8.87-2.15,1.78-2.15,1.79l-5.17,17.85a1.5,1.5,0,0,0,1.18,1.55,1.32,1.32,0,0,0,1.06-.07,1.5,1.5,0,0,0,.63-.83l5-17.56A5.05,5.05,0,0,0,221.38,51Z"/><path class="cls-11" d="M216.87,64.68a.62.62,0,0,1,.9.71l-2.22,7.75a.62.62,0,1,1-1.19-.34L216.57,65A.62.62,0,0,1,216.87,64.68Z"/><rect class="cls-3" x="217.83" y="60.92" width="0.23" height="3.15" transform="translate(97.82 254.79) rotate(-74.01)"/><circle class="cls-12" cx="132.42" cy="55.79" r="25.25"/><path class="cls-3" d="M132.42,81.3a25.51,25.51,0,1,1,25.51-25.51A25.54,25.54,0,0,1,132.42,81.3Zm0-50.5a25,25,0,1,0,25,25A25,25,0,0,0,132.42,30.8Z"/><circle class="cls-9" cx="132.42" cy="55.79" r="22.73"/><path class="cls-3" d="M132.42,78.77a23,23,0,1,1,23-23A23,23,0,0,1,132.42,78.77Zm0-45.45a22.47,22.47,0,1,0,22.47,22.47A22.49,22.49,0,0,0,132.42,33.32Z"/><path class="cls-3" d="M125.59,51.43a7,7,0,0,0,3.62-13.08,17.71,17.71,0,0,0-10.64,6.38A7,7,0,0,0,125.59,51.43Z"/><path class="cls-3" d="M142.07,39.64a6.53,6.53,0,0,1,6.52,6.52,6.37,6.37,0,0,1-.08,1,18.22,18.22,0,0,0-7.44-7.46,6.36,6.36,0,0,1,1-.08m0-.52a7,7,0,0,0-2.48.46,17.79,17.79,0,0,1,9.06,9.08,7,7,0,0,0-6.58-9.54Z"/><path class="cls-3" d="M135,46.16a7,7,0,0,0,13.62,2.5,17.79,17.79,0,0,0-9.06-9.08A7,7,0,0,0,135,46.16Z"/><path class="cls-3" d="M150.57,57.62a6.43,6.43,0,0,1,1.26,3.84A6.53,6.53,0,0,1,146,67.95a18.12,18.12,0,0,0,4.55-10.32m-.44-1.28a17.67,17.67,0,0,1-5.35,12.14l.53,0a7,7,0,0,0,4.82-12.17Z"/><path class="cls-3" d="M150.13,56.34a7,7,0,1,0-5.35,12.14A17.67,17.67,0,0,0,150.13,56.34Z"/><path class="cls-3" d="M126.08,72.9a18.26,18.26,0,0,0,11,.52,6.52,6.52,0,0,1-11-.52m-1-1a7,7,0,0,0,13.13.62,17.72,17.72,0,0,1-13.13-.62Z"/><path class="cls-3" d="M131.77,62.67a7,7,0,0,0-6.68,9.26,17.72,17.72,0,0,0,13.13.62,7,7,0,0,0-6.45-9.87Z"/><path class="cls-3" d="M114.18,56.23a18,18,0,0,0,2.9,9.44,6.52,6.52,0,0,1-2.9-9.44m.55-1.52h0Zm0,0a7,7,0,0,0,3.66,11.91,17.64,17.64,0,0,1-3.7-10.83c0-.36,0-.72,0-1.08Z"/><path class="cls-3" d="M126.74,59.7a7,7,0,0,0-12-5c0,.36,0,.71,0,1.08a17.64,17.64,0,0,0,3.7,10.83,7,7,0,0,0,8.35-6.92Z"/><circle class="cls-11" cx="132.29" cy="55.86" r="3.25"/><path class="cls-3" d="M132.29,59.36a3.5,3.5,0,1,1,3.5-3.5A3.5,3.5,0,0,1,132.29,59.36Zm0-6.5a3,3,0,1,0,3,3A3,3,0,0,0,132.29,52.86Z"/><rect class="cls-12" x="55.54" y="22.3" width="15.46" height="58.88"/><path class="cls-3" d="M71.26,81.45h-16V22h16ZM55.8,80.92H70.73V22.56H55.8Z"/><rect class="cls-9" x="55.54" y="31.13" width="15.46" height="6.4"/><path class="cls-3" d="M71.26,37.8h-16V30.87h16ZM55.8,37.27H70.73V31.4H55.8Z"/><rect class="cls-9" x="55.54" y="66.17" width="15.46" height="6.4"/><path class="cls-3" d="M71.26,72.83h-16V65.91h16ZM55.8,72.31H70.73V66.43H55.8Z"/><rect class="cls-9" x="71" y="26.57" width="3.68" height="54.61"/><path class="cls-3" d="M74.94,81.45h-4.2V26.31h4.2Zm-3.68-.52h3.16V26.83H71.26Z"/><rect class="cls-9" x="74.68" y="24.66" width="3.24" height="56.53"/><path class="cls-3" d="M78.18,81.45H74.41v-57h3.76Zm-3.24-.52h2.72v-56H74.94Z"/><rect class="cls-9" x="77.91" y="18.77" width="3.09" height="62.42"/><path class="cls-3" d="M81.27,81.45H77.65V18.51h3.61Zm-3.09-.52h2.57V19H78.18Z"/><rect class="cls-12" x="77.91" y="30.01" width="3.09" height="40.43"/><path class="cls-3" d="M81.27,70.7H77.65V29.75h3.61Zm-3.09-.52h2.57V30.27H78.18Z"/><rect class="cls-12" x="87.57" y="24.82" width="14.57" height="55.35" transform="translate(-9.3 22.41) rotate(-12.85)"/><path class="cls-3" d="M93.71,81.41l-.06-.25L81.28,26.94,96,23.58l.06.25,12.37,54.22ZM81.91,27.33,94.1,80.78l13.7-3.12L95.61,24.2Z"/><rect class="cls-9" x="83.08" y="31.56" width="14.57" height="2.53" transform="translate(-5.04 20.92) rotate(-12.85)"/><path class="cls-3" d="M83.35,36l-.68-3,14.72-3.36.68,3Zm-.05-2.58.45,2,13.7-3.13-.45-2Z"/><rect class="cls-9" x="91.8" y="69.94" width="14.57" height="2.25" transform="translate(-13.32 23.82) rotate(-12.85)"/><path class="cls-3" d="M92,74.09l-.62-2.7L106.14,68l.62,2.7Zm0-2.31.38,1.68,13.7-3.12-.38-1.68Z"/><ellipse class="cls-11" cx="91.78" cy="39" rx="5.67" ry="1.77" transform="translate(-6.38 21.39) rotate(-12.85)"/><path class="cls-3" d="M88.84,41.4l-.71,0c-1.26-.1-2-.46-2.13-1.05s.37-1.24,1.46-1.87a16,16,0,0,1,8-1.82c1.26.1,2,.46,2.13,1.05C97.85,39,95,40.34,92.23,41A15.64,15.64,0,0,1,88.84,41.4Zm5.87-4.27a15.11,15.11,0,0,0-3.27.41,13.78,13.78,0,0,0-3.72,1.37c-1,.57-1.27,1-1.22,1.3s.53.56,1.66.65a13.75,13.75,0,0,0,3.94-.38c3.27-.75,5.08-2.06,4.94-2.67h0c-.06-.25-.53-.56-1.66-.65Z"/><polygon class="cls-13" points="221.29 81.04 208.93 81.04 207.75 59.48 222.47 59.48 221.29 81.04"/><path class="cls-3" d="M221.54,81.3H208.68l-1.21-22.08h15.27Zm-12.37-.52H221l1.15-21H208Z"/><polygon class="cls-9" points="222.01 63.02 208.14 63.02 207.94 59.71 222.19 59.74 222.01 63.02"/><polygon class="cls-9" points="229.68 81.14 225.86 81.14 228.21 27.64 232.04 27.64 229.68 81.14"/><path class="cls-3" d="M229.93,81.41h-4.35l2.38-54h4.35Zm-3.8-.52h3.3l2.33-53h-3.3Z"/><rect class="cls-12" x="232.04" y="33.12" width="7.51" height="48.2"/><path class="cls-3" d="M239.81,81.58h-8V32.86h8Zm-7.51-.52h7V33.38h-7Z"/><rect class="cls-9" x="232.04" y="40.1" width="7.51" height="34.45"/><path class="cls-3" d="M239.81,74.81h-8v-35h8Zm-7.51-.52h7V40.36h-7Z"/><rect class="cls-9" x="239.55" y="43.5" width="8.83" height="37.68"/><path class="cls-3" d="M248.64,81.45h-9.36V43.24h9.36Zm-8.83-.52h8.31V43.76h-8.31Z"/><rect class="cls-12" x="239.55" y="50.69" width="8.83" height="6.94"/><path class="cls-3" d="M248.64,57.89h-9.36V50.43h9.36Zm-8.83-.52h8.31V50.95h-8.31Z"/><rect class="cls-12" x="239.55" y="67.2" width="8.83" height="7.07"/><path class="cls-3" d="M248.64,74.53h-9.36V66.94h9.36ZM239.81,74h8.31V67.46h-8.31Z"/><rect class="cls-9" x="46.12" y="81.18" width="212.27" height="2.36" rx="1.18" ry="1.18"/><path class="cls-3" d="M257.21,83.8H47.3a1.44,1.44,0,0,1,0-2.88H257.21a1.44,1.44,0,0,1,0,2.88ZM47.3,81.45a.92.92,0,1,0,0,1.83H257.21a.92.92,0,0,0,0-1.83Z"/><path class="cls-9" d="M202.08,47.47a1.25,1.25,0,0,0,1.25-1.25h0A1.25,1.25,0,0,0,202.08,45H158.92a1.25,1.25,0,0,0-1.25,1.25h0v9.42a1.25,1.25,0,0,0,1.25,1.25h43.16a1.25,1.25,0,1,0,0-2.5H160.64V47.47Z"/><path class="cls-3" d="M202.08,57.16H158.92a1.51,1.51,0,0,1-1.51-1.51V46.22a1.51,1.51,0,0,1,1.51-1.51h43.16a1.51,1.51,0,1,1,0,3H160.91v6.4h41.18a1.51,1.51,0,1,1,0,3ZM158.92,45.23a1,1,0,0,0-1,1v9.42a1,1,0,0,0,1,1h43.16a1,1,0,1,0,0-2h-41.7V47.21h41.7a1,1,0,1,0,0-2Z"/><rect class="cls-9" x="160.64" y="47.47" width="40.33" height="6.92"/><path class="cls-3" d="M201.24,54.65H160.38V47.21h40.86Zm-40.33-.52h39.81v-6.4H160.91Z"/><line class="cls-9" x1="160.96" y1="50.03" x2="172.33" y2="50.03"/><rect class="cls-3" x="160.96" y="49.9" width="11.37" height="0.26"/><line class="cls-9" x1="160.96" y1="51.99" x2="167.89" y2="51.99"/><rect class="cls-3" x="160.96" y="51.86" width="6.93" height="0.26"/><line class="cls-9" x1="177.95" y1="50.93" x2="182.92" y2="50.93"/><rect class="cls-3" x="177.95" y="50.8" width="4.97" height="0.26"/><line class="cls-9" x1="188.67" y1="50.03" x2="200.98" y2="50.03"/><rect class="cls-3" x="188.67" y="49.9" width="12.31" height="0.26"/><path class="cls-12" d="M158.92,59.5a1.25,1.25,0,0,1-1.25-1.25h0A1.25,1.25,0,0,1,158.92,57h43.16a1.25,1.25,0,0,1,1.25,1.25h0v9.42a1.25,1.25,0,0,1-1.25,1.25H158.92a1.25,1.25,0,1,1,0-2.5h41.44V59.5Z"/><path class="cls-3" d="M202.08,69.18H158.92a1.51,1.51,0,1,1,0-3H200.1v-6.4H158.92a1.51,1.51,0,1,1,0-3h43.16a1.51,1.51,0,0,1,1.51,1.51v9.42A1.51,1.51,0,0,1,202.08,69.18Zm-43.16-2.5a1,1,0,1,0,0,2h43.16a1,1,0,0,0,1-1V58.25a1,1,0,0,0-1-1H158.92a1,1,0,1,0,0,2h41.7v7.44Z"/><rect class="cls-9" x="160.03" y="59.5" width="40.33" height="6.92" transform="translate(360.39 125.91) rotate(-180)"/><path class="cls-3" d="M200.62,66.68H159.77V59.24h40.86Zm-40.33-.52H200.1v-6.4H160.29Z"/><rect class="cls-3" x="165.51" y="64.47" width="6.93" height="0.26"/><rect class="cls-3" x="178.09" y="62.83" width="4.97" height="0.26"/><rect class="cls-3" x="160.03" y="61.93" width="12.31" height="0.26"/><path class="cls-9" d="M202.08,71.52a1.25,1.25,0,0,0,1.25-1.25h0A1.25,1.25,0,0,0,202.08,69H158.92a1.25,1.25,0,0,0-1.25,1.25h0v9.42a1.25,1.25,0,0,0,1.25,1.25h43.16a1.25,1.25,0,1,0,0-2.5H160.64V71.52Z"/><path class="cls-3" d="M202.08,81.2H158.92a1.51,1.51,0,0,1-1.51-1.51V70.27a1.51,1.51,0,0,1,1.51-1.51h43.16a1.51,1.51,0,1,1,0,3H160.91v6.4h41.18a1.51,1.51,0,1,1,0,3ZM158.92,69.28a1,1,0,0,0-1,1v9.42a1,1,0,0,0,1,1h43.16a1,1,0,1,0,0-2h-41.7V71.26h41.7a1,1,0,1,0,0-2Z"/><rect class="cls-9" x="160.64" y="71.52" width="40.33" height="6.92"/><path class="cls-3" d="M201.24,78.7H160.38V71.26h40.86Zm-40.33-.52h39.81v-6.4H160.91Z"/><rect class="cls-3" x="160.96" y="73.95" width="11.37" height="0.26"/><rect class="cls-3" x="162.72" y="76.2" width="6.93" height="0.26"/><rect class="cls-3" x="175.47" y="74.92" width="3.05" height="0.26"/><rect class="cls-3" x="183.7" y="76.2" width="4.97" height="0.26"/><rect class="cls-3" x="188.67" y="74.99" width="12.31" height="0.26"/><line class="cls-14" x1="196.91" y1="62.58" x2="185.54" y2="62.58"/><rect class="cls-4" x="185.54" y="62.38" width="11.37" height="0.39"/><polygon class="cls-11" points="194.91 74.25 191.3 71.6 187.7 74.25 187.7 62.77 194.91 62.77 194.91 74.25"/><rect class="cls-3" x="207.94" y="62.79" width="14.08" height="0.52"/><path class="cls-3" d="M125.59,37.87a6.46,6.46,0,0,1,2,.32,18.24,18.24,0,0,0-8.42,5.06,6.53,6.53,0,0,1,6.42-5.38m0-.52a7,7,0,0,0-7,7c0,.12,0,.23,0,.35a17.71,17.71,0,0,1,10.64-6.38,7,7,0,0,0-3.62-1Z"/></g></g></svg>