<svg id="Layer_1" data-name="Layer 1" xmlns="http://www.w3.org/2000/svg" viewBox="0 0 300 200"><defs><style>.cls-1{fill:#fff;}.cls-2{fill:#3273ad;}.cls-3{fill:#e6e7e8;}.cls-4{fill:#078156;}.cls-5{fill:#c3f1fc;}.cls-6{fill:#ffd353;}.cls-7{fill:#01be7a;}.cls-8{opacity:0.1;}.cls-10,.cls-9{fill:none;stroke:#999;stroke-linejoin:round;}.cls-9{stroke-width:4px;}.cls-10{stroke-width:10px;}</style></defs><title>sv.co</title><rect class="cls-1" x="89.04" y="87.21" width="90.2" height="56.22" rx="2.94" ry="2.94"/><path class="cls-2" d="M176.31,143.81H92a3.32,3.32,0,0,1-3.31-3.31V90.14A3.32,3.32,0,0,1,92,86.83h84.33a3.32,3.32,0,0,1,3.31,3.31v50.35A3.32,3.32,0,0,1,176.31,143.81ZM92,87.58a2.56,2.56,0,0,0-2.56,2.56v50.35A2.56,2.56,0,0,0,92,143h84.33a2.56,2.56,0,0,0,2.56-2.56V90.14a2.56,2.56,0,0,0-2.56-2.56Z"/><path class="cls-2" d="M274.66,164.91H193.48v-.76h81.19a3.17,3.17,0,1,0,0-6.33H21.8a3.17,3.17,0,1,0,0,6.33h8.53v.76H21.8a3.92,3.92,0,0,1,0-7.85H274.66a3.92,3.92,0,1,1,0,7.85Z"/><rect class="cls-3" x="104.16" y="113.94" width="15.66" height="12.05"/><rect class="cls-3" x="104.16" y="128.84" width="18.06" height="4.93"/><rect class="cls-3" x="147.4" y="118.52" width="16.01" height="7.47"/><rect class="cls-3" x="152.91" y="128.84" width="10.5" height="7.83"/><rect class="cls-3" x="140.64" y="128.84" width="10.5" height="7.83"/><rect class="cls-3" x="104.16" y="93.43" width="59.25" height="4.36"/><rect class="cls-3" x="104.16" y="100.64" width="59.25" height="10.02"/><rect class="cls-4" x="89.6" y="93.06" width="89.64" height="0.76"/><rect class="cls-4" x="89.04" y="137.53" width="90.2" height="0.76"/><ellipse class="cls-5" cx="134.1" cy="113.94" rx="11.88" ry="16.15"/><path class="cls-2" d="M134.1,130.46c-6.76,0-12.25-7.41-12.25-16.52s5.5-16.52,12.25-16.52,12.25,7.41,12.25,16.52S140.85,130.46,134.1,130.46Zm0-32.29c-6.34,0-11.5,7.07-11.5,15.77s5.16,15.77,11.5,15.77,11.5-7.07,11.5-15.77S140.44,98.17,134.1,98.17Z"/><path class="cls-5" d="M104.8,171.26s-.46-16.44,1.5-21.43,5.34-17.08,25.44-17.26,27,6.94,28.64,14.23,5.16,15.83,11.56,7.47,12.28,0,7.65,7.29-17.79,13.88-25.44.36l1.07,8.9"/><path class="cls-2" d="M104.42,171.27c0-.67-.44-16.58,1.52-21.57l.35-.9c2-5.33,6.22-16.42,25.44-16.59,21.31-.2,27.54,7.8,29,14.53,1.38,6.3,3.41,10.06,5.71,10.57,1.53.34,3.28-.75,5.19-3.24,3.88-5.06,6.92-3.55,7.76-3a5.83,5.83,0,0,1,2.2,4.42,10.36,10.36,0,0,1-1.69,6.27c-2.58,4.07-8.08,8.37-14.17,8.37h-.32c-3-.08-7.19-1.31-10.69-6.54l.86,7.19-.75.09-1.29-10.77.93,1.64c2.76,4.89,6.56,7.53,11,7.64,5.65.15,11.24-3.92,13.83-8,2.48-3.92,1.85-8.16-.31-9.66-1.87-1.3-4.38-.26-6.72,2.8-2.1,2.75-4.11,3.93-6,3.52-3.33-.74-5.26-6.47-6.28-11.14-2.57-11.7-16.8-14-28.27-13.94-8.08.07-14.36,2.13-18.64,6.11a24.74,24.74,0,0,0-6.1,10l-.35.91c-1.91,4.85-1.48,21.11-1.47,21.28Z"/><path class="cls-1" d="M106.12,186.39,110,158.91s-.71-8.72,9.61-10.14h22.6A12.89,12.89,0,0,1,151,160.69l3.74,26"/><path class="cls-2" d="M154.32,186.72l-3.74-26a12.4,12.4,0,0,0-8.39-11.56H119.67c-4.13.58-6.94,2.39-8.36,5.39a9.52,9.52,0,0,0-.9,4.34V159l-3.91,27.49-.75-.11,3.91-27.45c0-.71-.22-9.1,9.94-10.5h22.75a13.36,13.36,0,0,1,9,12.25l3.73,26Z"/><rect class="cls-4" x="148.96" y="171.44" width="0.76" height="8.56" transform="translate(-33.81 35.59) rotate(-12.22)"/><rect class="cls-4" x="150.22" y="181.67" width="0.76" height="2.34" transform="translate(-26.05 25.02) rotate(-8.75)"/><rect class="cls-5" x="120.75" y="152.64" width="18.15" height="3.34" rx="1.67" ry="1.67"/><path class="cls-4" d="M137.23,156.35H122.42a2,2,0,0,1,0-4.09h14.81a2,2,0,1,1,0,4.09ZM122.42,153a1.29,1.29,0,1,0,0,2.58h14.81a1.29,1.29,0,0,0,0-2.58Z"/><rect class="cls-4" x="93.29" y="96.46" width="0.76" height="23.13"/><rect class="cls-4" x="93.29" y="121.19" width="0.76" height="2.49"/><rect class="cls-6" x="147.4" y="112.47" width="16.01" height="4.98"/><circle class="cls-1" cx="58.42" cy="63.77" r="11.72"/><path class="cls-4" d="M58.42,75.75a12,12,0,1,1,12-12A12,12,0,0,1,58.42,75.75Zm0-23.45A11.46,11.46,0,1,0,69.88,63.77,11.48,11.48,0,0,0,58.42,52.31Z"/><polyline class="cls-1" points="58.42 59.92 58.42 63.77 64.47 60.84"/><polygon class="cls-4" points="58.16 64.19 58.16 59.92 58.68 59.92 58.68 63.36 64.35 60.61 64.58 61.07 58.16 64.19"/><rect class="cls-4" x="53.81" y="71.58" width="1.34" height="0.52" transform="translate(-34.98 83.09) rotate(-60)"/><rect class="cls-4" x="50.29" y="68.47" width="1.34" height="0.52" transform="translate(-27.54 34.69) rotate(-30)"/><rect class="cls-4" x="48.81" y="64.01" width="1.34" height="0.52"/><rect class="cls-4" x="50.16" y="59.01" width="0.52" height="1.34" transform="translate(-26.47 73.5) rotate(-60)"/><rect class="cls-4" x="53.27" y="55.49" width="0.52" height="1.34" transform="translate(-20.91 34.29) rotate(-30)"/><rect class="cls-4" x="57.73" y="54.01" width="0.52" height="1.34"/><rect class="cls-4" x="61.92" y="55.36" width="1.34" height="0.52" transform="translate(-16.88 82) rotate(-60)"/><rect class="cls-4" x="65.43" y="58.47" width="1.34" height="0.52" transform="translate(-20.51 40.92) rotate(-30)"/><rect class="cls-4" x="66.91" y="62.93" width="1.34" height="0.52"/><rect class="cls-4" x="66.38" y="67.12" width="0.52" height="1.34" transform="translate(-25.38 91.61) rotate(-60)"/><rect class="cls-4" x="63.27" y="70.63" width="0.52" height="1.34" transform="translate(-27.14 41.31) rotate(-30)"/><rect class="cls-4" x="58.81" y="72.11" width="0.52" height="1.34"/><rect class="cls-2" x="198.41" y="66.08" width="79.8" height="1.51"/><rect class="cls-2" x="247.83" y="32.81" width="1.51" height="33.36"/><path class="cls-2" d="M241.64,64.93l-.26,0-1.32-.17a2,2,0,0,1-1.71-2.22L241.56,38a2,2,0,0,1,2.22-1.71l1.32.17a2,2,0,0,1,1.71,2.22L243.6,63.2a2,2,0,0,1-2,1.72Zm1.88-27.85a1.23,1.23,0,0,0-1.21,1.06l-3.2,24.48A1.22,1.22,0,0,0,240.16,64l1.32.17a1.23,1.23,0,0,0,1.37-1.05l3.2-24.48A1.22,1.22,0,0,0,245,37.26l-1.32-.17Z"/><rect class="cls-2" x="225.76" y="53.25" width="21.63" height="0.76" transform="translate(145.68 278.53) rotate(-80.76)"/><rect class="cls-2" x="222.18" y="53.25" width="21.46" height="0.76" transform="translate(124.4 266.57) rotate(-75.96)"/><rect class="cls-2" x="216.38" y="54.51" width="20.65" height="0.76" transform="translate(72.67 230.05) rotate(-62.28)"/><rect class="cls-2" x="203.22" y="62.72" width="16.01" height="0.76"/><polygon class="cls-4" points="199.99 152.71 199.25 152.56 201.76 140.25 200.63 136.9 186.71 126.29 187.17 125.69 201.27 136.44 202.54 140.2 199.99 152.71"/><rect class="cls-1" x="224.63" y="129.62" width="17.61" height="26.15" rx="1.6" ry="1.6"/><path class="cls-4" d="M240.65,156.15H226.24a2,2,0,0,1-2-2v-23a2,2,0,0,1,2-2h14.41a2,2,0,0,1,2,2v23A2,2,0,0,1,240.65,156.15ZM226.24,130a1.22,1.22,0,0,0-1.22,1.22v23a1.22,1.22,0,0,0,1.22,1.22h14.41a1.22,1.22,0,0,0,1.22-1.22v-23a1.22,1.22,0,0,0-1.22-1.22Z"/><polygon class="cls-7" points="175.66 125.41 190.01 132.75 184.94 125.99 175.66 125.41"/><path class="cls-4" d="M190,133.13a.38.38,0,0,1-.17,0l-14.34-7.34a.38.38,0,0,1,.2-.71l9.27.58a.38.38,0,0,1,.28.15l5.07,6.76a.38.38,0,0,1-.3.61Zm-12.55-7.23,11.27,5.77-4-5.31Z"/><path class="cls-1" d="M212.83,143.89h12.94a0,0,0,0,1,0,0v10.27a1.6,1.6,0,0,1-1.6,1.6h-9.74a1.6,1.6,0,0,1-1.6-1.6V143.89A0,0,0,0,1,212.83,143.89Z"/><path class="cls-4" d="M224.17,156.15h-9.74a2,2,0,0,1-2-2V143.52h13.7v10.65A2,2,0,0,1,224.17,156.15Zm-11-11.88v9.9a1.22,1.22,0,0,0,1.22,1.22h9.74a1.22,1.22,0,0,0,1.22-1.22v-9.9Z"/><rect class="cls-4" x="214.45" y="140.13" width="0.76" height="3.86" transform="translate(-34.32 76.81) rotate(-18.8)"/><rect class="cls-4" x="216.5" y="136.58" width="0.76" height="7.32"/><path class="cls-4" d="M233.68,142.34a4.88,4.88,0,1,1,4.88-4.88A4.89,4.89,0,0,1,233.68,142.34Zm0-9a4.13,4.13,0,1,0,4.13,4.13A4.13,4.13,0,0,0,233.68,133.33Z"/><path class="cls-4" d="M236.09,138.29h-.76a2.43,2.43,0,0,0-2.42-2.42v-.76A3.18,3.18,0,0,1,236.09,138.29Z"/><rect class="cls-4" x="218.45" y="150.19" width="0.76" height="4.62" transform="translate(-42.73 204.75) rotate(-46.17)"/><rect class="cls-4" x="215.35" y="150.92" width="0.76" height="4.11" transform="translate(-43.3 206.31) rotate(-46.98)"/><circle class="cls-4" cx="33.36" cy="164.25" r="1.08"/><rect class="cls-1" x="64.31" y="144.85" width="7.29" height="7.29" rx="1.87" ry="1.87"/><path class="cls-2" d="M69.74,152.52H66.18a2.25,2.25,0,0,1-2.25-2.25v-3.56a2.25,2.25,0,0,1,2.25-2.25h3.56A2.25,2.25,0,0,1,72,146.72v3.56A2.25,2.25,0,0,1,69.74,152.52Zm-3.56-7.29a1.49,1.49,0,0,0-1.49,1.49v3.56a1.49,1.49,0,0,0,1.49,1.49h3.56a1.49,1.49,0,0,0,1.49-1.49v-3.56a1.49,1.49,0,0,0-1.49-1.49Z"/><path class="cls-2" d="M70.92,139.47l-.23-.09a6.32,6.32,0,0,0-1.22-6.27l.18-.17A6.58,6.58,0,0,1,70.92,139.47Z"/><path class="cls-2" d="M73.84,139.51l-.19-.16s1.86-2.32-.64-6.71c-.89-1.57-1.12-2.91-.68-4a3.37,3.37,0,0,1,2.09-1.8l.07.24a3.17,3.17,0,0,0-1.92,1.66c-.41,1-.19,2.26.66,3.76C75.82,137.07,73.92,139.41,73.84,139.51Z"/><rect class="cls-2" x="74.62" y="125.07" width="1.72" height="0.25" transform="translate(-68.58 150.03) rotate(-68.7)"/><rect class="cls-2" x="68.54" y="129.46" width="0.25" height="1.43" transform="translate(-55.54 51.22) rotate(-29.75)"/><path class="cls-1" d="M67.6,141.83H78a0,0,0,0,1,0,0v11.92a1.87,1.87,0,0,1-1.87,1.87H69.47a1.87,1.87,0,0,1-1.87-1.87V141.83A0,0,0,0,1,67.6,141.83Z"/><path class="cls-2" d="M76.14,156H69.47a2.25,2.25,0,0,1-2.25-2.25v-12.3H78.39v12.3A2.25,2.25,0,0,1,76.14,156ZM68,142.2v11.54a1.49,1.49,0,0,0,1.49,1.49h6.67a1.49,1.49,0,0,0,1.49-1.49V142.2Z"/><path class="cls-7" d="M201.48,154.9a2,2,0,1,0-3.93.53h3.85A2,2,0,0,0,201.48,154.9Z"/><path class="cls-4" d="M201.7,155.82h-4.43l-.08-.28a2.38,2.38,0,1,1,4.58,0Zm-3.83-.76h3.23q0-.08,0-.16a1.62,1.62,0,1,0-3.25,0Q197.86,155,197.87,155.06Z"/><circle class="cls-7" cx="202.15" cy="138.09" r="2"/><path class="cls-4" d="M202.15,140.47a2.38,2.38,0,1,1,2.38-2.38A2.38,2.38,0,0,1,202.15,140.47Zm0-4a1.62,1.62,0,1,0,1.62,1.62A1.63,1.63,0,0,0,202.15,136.47Z"/><circle class="cls-7" cx="184.94" cy="125.41" r="1.87"/><path class="cls-4" d="M184.94,127.66a2.25,2.25,0,1,1,2.25-2.25A2.25,2.25,0,0,1,184.94,127.66Zm0-3.73a1.49,1.49,0,1,0,1.49,1.49A1.49,1.49,0,0,0,184.94,123.92Z"/><path class="cls-6" d="M146.2,42.08l0,0a11.81,11.81,0,0,0,.08-1.35,11.69,11.69,0,1,0-23.38,0,11.81,11.81,0,0,0,.08,1.33h0s0,.12,0,.33a11.65,11.65,0,0,0,3,6.29l0,0a18.58,18.58,0,0,1,4,9.64h9.24a18.58,18.58,0,0,1,4-9.64,12,12,0,0,0,1.65-2.34,11.63,11.63,0,0,0,.73-1.61A11.11,11.11,0,0,0,146.2,42.08Z"/><path class="cls-4" d="M139.37,58.54h-9.61v-.18a18.49,18.49,0,0,0-3.91-9.52h0a11.8,11.8,0,0,1-3-6.39c0-.21,0-.33,0-.34h0a12.07,12.07,0,0,1-.08-1.34,11.87,11.87,0,1,1,23.75,0c0,.35,0,.7,0,1.06l0,0,0,.31a11.21,11.21,0,0,1-.69,2.73,11.85,11.85,0,0,1-.74,1.63,12.15,12.15,0,0,1-1.68,2.38,18.49,18.49,0,0,0-3.91,9.52Zm-9.25-.37H139c.17-1.87,1.44-6.76,4-9.58a11.78,11.78,0,0,0,1.63-2.3,11.49,11.49,0,0,0,.72-1.58,12,12,0,0,0,.62-2.32l0,0,0-.32a11.7,11.7,0,0,0,.08-1.33,11.5,11.5,0,1,0-23,0,11.68,11.68,0,0,0,.07,1.31l0,.16,0,.15a11.42,11.42,0,0,0,3,6.19h0C128.69,51.41,130,56.3,130.12,58.17Z"/><path class="cls-1" d="M141.71,39.93a.45.45,0,0,1-.45-.43A6.06,6.06,0,0,0,135,33.63h0a.45.45,0,0,1,0-.89,7,7,0,0,1,7.16,6.73.45.45,0,0,1-.43.46Z"/><circle class="cls-1" cx="141.69" cy="41.26" r="0.51"/><rect class="cls-4" x="130.09" y="59.67" width="9.09" height="0.58" rx="0.22" ry="0.22"/><rect class="cls-4" x="131.24" y="61.04" width="6.8" height="0.58" rx="0.22" ry="0.22"/><path class="cls-6" d="M119.8,49.94a.43.43,0,0,1-.22-.79l2.19-1.29a.43.43,0,0,1,.43.74L120,49.88A.42.42,0,0,1,119.8,49.94Z"/><path class="cls-6" d="M117.35,41.38a.43.43,0,0,1,0-.85l2.54,0h0a.43.43,0,0,1,0,.85l-2.54,0Z"/><path class="cls-6" d="M121.73,34a.43.43,0,0,1-.21-.06l-2.21-1.25a.43.43,0,0,1,.42-.74l2.21,1.25a.43.43,0,0,1-.21.8Z"/><path class="cls-6" d="M127,28.54a.43.43,0,0,1-.37-.21l-1.29-2.19a.43.43,0,1,1,.74-.43l1.29,2.19a.43.43,0,0,1-.37.64Z"/><path class="cls-6" d="M134.29,26.45a.43.43,0,0,1-.43-.42l0-2.54a.43.43,0,0,1,.85,0l0,2.54a.43.43,0,0,1-.42.43Z"/><path class="cls-6" d="M141.65,28.28a.43.43,0,0,1-.37-.64l1.25-2.21a.43.43,0,1,1,.74.42L142,28.06A.43.43,0,0,1,141.65,28.28Z"/><path class="cls-6" d="M147.11,33.55a.43.43,0,0,1-.22-.79l2.19-1.29a.43.43,0,0,1,.43.74l-2.19,1.29A.42.42,0,0,1,147.11,33.55Z"/><path class="cls-6" d="M149.21,40.84a.43.43,0,0,1,0-.85l2.54,0h0a.43.43,0,0,1,0,.85l-2.54,0Z"/><path class="cls-6" d="M149.58,49.46a.43.43,0,0,1-.21-.06l-2.21-1.25a.43.43,0,0,1,.42-.74l2.21,1.25a.43.43,0,0,1-.21.8Z"/><rect class="cls-4" x="131.52" y="62.52" width="6.24" height="0.62" rx="0.31" ry="0.31"/><ellipse class="cls-4" cx="134.64" cy="63.33" rx="1.08" ry="0.55"/><path class="cls-4" d="M137.66,63a11.12,11.12,0,0,1-6,0,9.83,9.83,0,0,1,3-.17A9.83,9.83,0,0,1,137.66,63Z"/><g class="cls-8"><line class="cls-9" x1="1" y1="9.25" x2="301" y2="9.25"/><line class="cls-9" x1="1" y1="2" x2="301" y2="2"/><line class="cls-10" x1="21.5" y1="2" x2="21.5" y2="9.25"/><line class="cls-10" x1="41.13" y1="2" x2="41.13" y2="9.25"/><line class="cls-10" x1="60.75" y1="2" x2="60.75" y2="9.25"/><line class="cls-10" x1="80.38" y1="2" x2="80.38" y2="9.25"/><line class="cls-10" x1="100.01" y1="2" x2="100.01" y2="9.25"/><line class="cls-10" x1="119.63" y1="2" x2="119.63" y2="9.25"/><line class="cls-10" x1="139.26" y1="2" x2="139.26" y2="9.25"/><line class="cls-10" x1="158.89" y1="2" x2="158.89" y2="9.25"/><line class="cls-10" x1="178.52" y1="2" x2="178.52" y2="9.25"/><line class="cls-10" x1="198.14" y1="2" x2="198.14" y2="9.25"/><line class="cls-10" x1="217.77" y1="2" x2="217.77" y2="9.25"/><line class="cls-10" x1="237.4" y1="2" x2="237.4" y2="9.25"/><line class="cls-10" x1="257.02" y1="2" x2="257.02" y2="9.25"/><line class="cls-10" x1="276.65" y1="2" x2="276.65" y2="9.25"/><line class="cls-10" x1="296.28" y1="2" x2="296.28" y2="9.25"/><line class="cls-10" x1="1.5" y1="2" x2="1.5" y2="9.25"/></g><g class="cls-8"><line class="cls-9" x1="-1" y1="198.25" x2="299" y2="198.25"/><line class="cls-9" x1="-1" y1="191" x2="299" y2="191"/><line class="cls-10" x1="19.5" y1="191" x2="19.5" y2="198.25"/><line class="cls-10" x1="39.13" y1="191" x2="39.13" y2="198.25"/><line class="cls-10" x1="58.75" y1="191" x2="58.75" y2="198.25"/><line class="cls-10" x1="78.38" y1="191" x2="78.38" y2="198.25"/><line class="cls-10" x1="98.01" y1="191" x2="98.01" y2="198.25"/><line class="cls-10" x1="117.63" y1="191" x2="117.63" y2="198.25"/><line class="cls-10" x1="137.26" y1="191" x2="137.26" y2="198.25"/><line class="cls-10" x1="156.89" y1="191" x2="156.89" y2="198.25"/><line class="cls-10" x1="176.52" y1="191" x2="176.52" y2="198.25"/><line class="cls-10" x1="196.14" y1="191" x2="196.14" y2="198.25"/><line class="cls-10" x1="215.77" y1="191" x2="215.77" y2="198.25"/><line class="cls-10" x1="235.4" y1="191" x2="235.4" y2="198.25"/><line class="cls-10" x1="255.02" y1="191" x2="255.02" y2="198.25"/><line class="cls-10" x1="274.65" y1="191" x2="274.65" y2="198.25"/><line class="cls-10" x1="294.28" y1="191" x2="294.28" y2="198.25"/><line class="cls-10" x1="-0.5" y1="191" x2="-0.5" y2="198.25"/></g></svg>