<svg xmlns="http://www.w3.org/2000/svg" viewBox="0 0 309.56 146.95"><defs><style>.cls-1{fill:#eff5f8;}.cls-2{fill:#cdebfc;}.cls-3{fill:#3273ad;}.cls-4{opacity:0.5;}.cls-5{fill:#0aa5e3;}.cls-6{fill:#32b475;}.cls-7{fill:#e3b462;}.cls-8{fill:#caedff;}.cls-9{fill:#fff;}.cls-10{fill:#fad264;}.cls-11{fill:#deedfc;}</style></defs><title>talk-to-customers</title><g id="Layer_2" data-name="Layer 2"><g id="Layer_1-2" data-name="Layer 1"><path class="cls-1" d="M248.54,121h-35.7a3.14,3.14,0,1,0,0,6.27h4.65a3.14,3.14,0,0,1,0,6.27H207.33a3.14,3.14,0,1,0,0,6.27H243a3.14,3.14,0,0,0,0-6.27h-9.74a3.14,3.14,0,0,1,0-6.27h15.25a3.14,3.14,0,1,0,0-6.27Z"/><path class="cls-1" d="M24.64,123.59H65.76a3.09,3.09,0,1,0,0-6.18H55.22a3.09,3.09,0,0,1,0-6.18h6.6a3.09,3.09,0,0,0,0-6.18H35.19a3.09,3.09,0,0,0,0,6.18h4.47a3.09,3.09,0,0,1,0,6.18h-15a3.09,3.09,0,1,0,0,6.18Z"/><path class="cls-1" d="M251.86,89.58h41.29a3.1,3.1,0,1,0,0-6.2H282.56a3.1,3.1,0,1,1,0-6.2h6.63a3.1,3.1,0,1,0,0-6.2H262.45a3.1,3.1,0,1,0,0,6.2h4.49a3.1,3.1,0,1,1,0,6.2H251.86a3.1,3.1,0,1,0,0,6.2Z"/><path class="cls-1" d="M66,55.49H94.76a2.16,2.16,0,1,0,0-4.33H87.37a2.16,2.16,0,1,1,0-4.33H92a2.16,2.16,0,1,0,0-4.33H73.35a2.16,2.16,0,0,0,0,4.33h3.13a2.16,2.16,0,0,1,0,4.33H66a2.16,2.16,0,1,0,0,4.33Z"/><path class="cls-2" d="M19.94,44.06h5.81a.47.47,0,0,0,.47-.49,4.27,4.27,0,0,1,1.14-3.26c1.77-1.82,5-1.8,5-1.81a.53.53,0,0,0,.36-.16.48.48,0,0,0,.11-.38,9.84,9.84,0,0,1,2-6.76A7.79,7.79,0,0,1,41,28.76a7.2,7.2,0,0,1,5.4,2.06c2.4,2.51,2.26,6.5,2.26,6.54a.48.48,0,0,0,.19.4.48.48,0,0,0,.44.07,6.65,6.65,0,0,1,5.61.26c2.84,1.65,3.64,5.54,3.65,5.58a.48.48,0,0,0,.47.38H70.47a.48.48,0,1,0,0-1h-11c-.29-1.1-1.32-4.27-4-5.83a7.29,7.29,0,0,0-5.78-.53,10.44,10.44,0,0,0-2.51-6.57A8.1,8.1,0,0,0,41,27.81a8.72,8.72,0,0,0-6.86,2.75,10.73,10.73,0,0,0-2.31,7,8.31,8.31,0,0,0-5.19,2.08,5.06,5.06,0,0,0-1.41,3.47H19.94a.48.48,0,1,0,0,1Z"/><path class="cls-2" d="M247.55,51.59h0l10-.45a1.16,1.16,0,0,0,.73-.1,1.2,1.2,0,0,0,.36-.87c0-.07,0-.13,0-.16a8.69,8.69,0,0,1,.34-1,6.56,6.56,0,0,1,.89-1.54,5.56,5.56,0,0,1,2.34-1.73,6.88,6.88,0,0,1,2.26-.45,7.46,7.46,0,0,1,.83,0,1.25,1.25,0,0,0,.67,0c.35-.13.48-.52.71-1.46,0-.15.07-.27.09-.34a17.94,17.94,0,0,1,1-2.28A11.87,11.87,0,0,1,270,38.1a8.76,8.76,0,0,1,5.19-2.42,11.55,11.55,0,0,1,10.6,5.07,12.59,12.59,0,0,1,1.87,7.8.48.48,0,0,0,.95.1,13.57,13.57,0,0,0-2-8.41,12.37,12.37,0,0,0-11.5-5.5,9.7,9.7,0,0,0-5.75,2.68,12.8,12.8,0,0,0-2.46,3.4,18.81,18.81,0,0,0-1,2.4c0,.08-.07.23-.11.42s-.13.52-.2.74l-.19,0a9,9,0,0,0-.93,0,7.85,7.85,0,0,0-2.57.52,6.52,6.52,0,0,0-2.74,2,7.48,7.48,0,0,0-1,1.77,9.69,9.69,0,0,0-.38,1.11c0,.06,0,.16-.05.27l0,.17h-.17l-10,.45a.47.47,0,0,0,0,.95Z"/><path class="cls-2" d="M127.45,16.25h5.81a.47.47,0,0,0,.47-.49,4.27,4.27,0,0,1,1.14-3.26c1.77-1.82,5-1.8,5-1.81a.53.53,0,0,0,.36-.16.48.48,0,0,0,.11-.38,9.84,9.84,0,0,1,2-6.76A7.79,7.79,0,0,1,148.55,1,7.2,7.2,0,0,1,154,3c2.4,2.51,2.26,6.5,2.26,6.54a.48.48,0,0,0,.19.4.48.48,0,0,0,.44.07,6.65,6.65,0,0,1,5.61.26c2.84,1.65,3.64,5.54,3.65,5.58a.48.48,0,0,0,.47.38H178a.48.48,0,1,0,0-1h-11c-.29-1.1-1.32-4.27-4-5.83a7.29,7.29,0,0,0-5.78-.53,10.44,10.44,0,0,0-2.51-6.57A8.1,8.1,0,0,0,148.56,0a8.72,8.72,0,0,0-6.86,2.75,10.73,10.73,0,0,0-2.31,7,8.31,8.31,0,0,0-5.19,2.08,5.06,5.06,0,0,0-1.41,3.47h-5.33a.48.48,0,0,0,0,1Z"/><path class="cls-3" d="M5.72,146.95H.47c-.26,0-.47-.1-.47-.23s.21-.23.47-.23H5.72c.26,0,.47.1.47.23S6,146.95,5.72,146.95Z"/><path class="cls-3" d="M300.06,146.95h-290c-.28,0-.5-.11-.5-.25s.22-.25.5-.25h290c.28,0,.5.11.5.25S300.33,146.95,300.06,146.95Z"/><path class="cls-3" d="M309.06,146.95h-3.62c-.28,0-.5-.11-.5-.25s.22-.25.5-.25h3.62c.28,0,.5.11.5.25S309.33,146.95,309.06,146.95Z"/><g class="cls-4"><path class="cls-5" d="M251.41,70.2a5.66,5.66,0,1,1,5.66-5.66A5.66,5.66,0,0,1,251.41,70.2Zm0-9.82a4.16,4.16,0,1,0,4.16,4.16A4.16,4.16,0,0,0,251.41,60.39Z"/><path class="cls-6" d="M229.44,130.3a3.58,3.58,0,1,1,3.58-3.58A3.58,3.58,0,0,1,229.44,130.3Zm0-6.21a2.63,2.63,0,1,0,2.63,2.63A2.63,2.63,0,0,0,229.44,124.1Z"/><path class="cls-6" d="M226,90.59a3.41,3.41,0,1,1,3.41-3.41A3.41,3.41,0,0,1,226,90.59Zm0-5.31a1.91,1.91,0,1,0,1.91,1.91A1.91,1.91,0,0,0,226,85.28Z"/><path class="cls-7" d="M258.66,105.6a3.41,3.41,0,1,1,3.41-3.41A3.41,3.41,0,0,1,258.66,105.6Zm0-5.31a1.91,1.91,0,1,0,1.91,1.91A1.91,1.91,0,0,0,258.66,100.29Z"/><path class="cls-5" d="M213.91,115a5.66,5.66,0,1,1,5.66-5.66A5.66,5.66,0,0,1,213.91,115Zm0-9.82a4.16,4.16,0,1,0,4.16,4.16A4.16,4.16,0,0,0,213.91,105.2Z"/><path class="cls-7" d="M238.37,39.92a5.25,5.25,0,1,1,5.25-5.25A5.26,5.26,0,0,1,238.37,39.92Zm0-9a3.75,3.75,0,1,0,3.75,3.75A3.75,3.75,0,0,0,238.37,30.92Z"/><path class="cls-6" d="M66.14,61.05a5.66,5.66,0,1,1,5.66-5.66A5.66,5.66,0,0,1,66.14,61.05Zm0-9.82a4.16,4.16,0,1,0,4.16,4.16A4.16,4.16,0,0,0,66.14,51.23Z"/><path class="cls-6" d="M40.8,79a3.41,3.41,0,1,1,3.41-3.41A3.41,3.41,0,0,1,40.8,79Zm0-5.31a1.91,1.91,0,1,0,1.91,1.91A1.91,1.91,0,0,0,40.8,73.67Z"/><path class="cls-7" d="M96.91,27.81a4.75,4.75,0,1,1,4.75-4.75A4.76,4.76,0,0,1,96.91,27.81Zm0-8a3.25,3.25,0,1,0,3.25,3.25A3.25,3.25,0,0,0,96.91,19.81Z"/><path class="cls-7" d="M75.61,136.54a5.66,5.66,0,1,1,5.66-5.66A5.66,5.66,0,0,1,75.61,136.54Zm0-9.82a4.16,4.16,0,1,0,4.16,4.16A4.16,4.16,0,0,0,75.61,126.73Z"/><path class="cls-5" d="M62.39,95.84a5.25,5.25,0,1,1,5.25-5.25A5.26,5.26,0,0,1,62.39,95.84Zm0-9a3.75,3.75,0,1,0,3.75,3.75A3.75,3.75,0,0,0,62.39,86.84Z"/></g><rect class="cls-8" x="166.26" y="48.85" width="1" height="1"/><path class="cls-8" d="M219.45,116.32a14.59,14.59,0,0,0-.74-1.79l.89-.45a15.52,15.52,0,0,1,.8,1.92ZM215,110.19a11.71,11.71,0,0,0-1.67-1l.43-.9a12.88,12.88,0,0,1,1.81,1Zm-15.34-2.25h-2v-1h2Zm-8,0h-2v-1h2Zm-8,0h-2v-1h2Zm-8,0h-2v-1h2Zm-8,0h-2v-1h2Zm-8,0h-2v-1h2Zm-8,0h-2v-1h2Zm-8,0h-2v-1h2Zm-8,0h-2v-1h2Zm-8,0h-2v-1h2Zm-8,0h-2v-1h2Zm-8,0h-2v-1h2Zm-8,0h-2v-1h2Zm102.67,0-.08-1a17,17,0,0,1,2.08,0l0,1A16,16,0,0,0,205.71,107.89Zm-110.78-.35c-.67-.11-1.34-.25-2-.41l.23-1c.64.15,1.29.29,1.94.39Zm-7.78-2.45c-.6-.29-1.21-.6-1.81-.94l.49-.87c.58.33,1.17.63,1.75.91Zm-6.81-4.49c-.51-.45-1-.92-1.49-1.4l.71-.71c.46.47.95.92,1.44,1.35ZM75,94.44c-.37-.57-.73-1.16-1.06-1.75l.87-.49c.32.58.66,1.15,1,1.69Zm-3.47-7.39c-.2-.65-.38-1.31-.53-2l1-.23c.15.64.32,1.28.52,1.91ZM70.23,79q0-.3,0-.6c0-.48,0-1,0-1.45l1,0q0,.7,0,1.4c0,.19,0,.39,0,.58Zm1.93-7.85-1-.25c.17-.65.37-1.31.59-2l.95.32C72.52,69.88,72.33,70.52,72.16,71.15Zm3.06-7.27-.86-.51c.34-.58.72-1.16,1.11-1.72l.82.57C75.91,62.76,75.55,63.32,75.21,63.88Zm4.92-6.16L79.45,57c.49-.47,1-.92,1.53-1.36l.64.77C81.11,56.83,80.61,57.27,80.14,57.72Zm6.41-4.6-.47-.88c.6-.32,1.22-.62,1.84-.89l.4.92C87.72,52.52,87.12,52.81,86.54,53.12ZM94,50.45l-.2-1c.66-.14,1.34-.26,2-.35l.14,1C95.26,50.2,94.6,50.32,94,50.45Zm66.26-.6h-2v-1h2Zm-8,0h-2v-1h2Zm-8,0h-2v-1h2Zm-8,0h-2v-1h2Zm-8,0h-2v-1h2Zm-8,0h-2v-1h2Zm-8,0h-2v-1h2Zm-8,0h-2v-1h2Z"/><path class="cls-8" d="M221.44,123.17h-1c0-.33,0-.66,0-1l1,0Q221.44,122.65,221.44,123.17Z"/><path class="cls-8" d="M195.16,36.37H133.91a7,7,0,0,0-7,7V77.47a7,7,0,0,0,7,7h46.86l-1.06,7.63,13.24-7.63h2.21a7,7,0,0,0,7-7V43.35A7,7,0,0,0,195.16,36.37Z"/><path class="cls-3" d="M179.14,92.92l1.11-8H133.91a7.43,7.43,0,0,1-7.42-7.42V43.35a7.43,7.43,0,0,1,7.42-7.42h61.25a7.43,7.43,0,0,1,7.42,7.42V77.47a7.43,7.43,0,0,1-7.42,7.42h-2.1Zm-45.23-56.1a6.54,6.54,0,0,0-6.53,6.53V77.47A6.54,6.54,0,0,0,133.91,84h47.37l-1,7.24L192.83,84h2.33a6.54,6.54,0,0,0,6.53-6.53V43.35a6.54,6.54,0,0,0-6.53-6.53Z"/><rect class="cls-3" x="137.21" y="55.39" width="56.5" height="0.96"/><rect class="cls-3" x="137.21" y="64.06" width="56.5" height="0.96"/><rect class="cls-3" x="137.21" y="72.72" width="56.5" height="0.96"/><rect class="cls-3" x="137.21" y="47.69" width="29.36" height="0.96"/><path class="cls-3" d="M124,119.42a24.19,24.19,0,0,1-10.27-2,.25.25,0,1,1,.2-.46A23.73,23.73,0,0,0,124,118.92a27.25,27.25,0,1,0-20.48-9.28.25.25,0,0,1-.38.33A27.75,27.75,0,1,1,124,119.42Z"/><path d="M123.57,86.39A2.08,2.08,0,0,0,120.68,85c-1.38.42-2.06,1.42-2.82,2.71L113,85.41a10.43,10.43,0,0,1,6.5-6.13c4.72-1.42,9.07-.51,10.62,4.61,1.47,4.88-4.08,8-2.33,12.32l-6.1,1.84C119.26,93,124.35,89,123.57,86.39Zm1.69,12.71a4.42,4.42,0,1,1-2.79,5.46A4.25,4.25,0,0,1,125.26,99.1Z"/><path class="cls-8" d="M113.82,117.23c-3.06,1.58-5,7.14-5,7.14s-7-7.66-5.53-14.56A27.5,27.5,0,1,1,124,119.17,24,24,0,0,1,113.82,117.23Z"/><path class="cls-3" d="M108.84,124.62a.25.25,0,0,1-.19-.08c-.29-.31-6.94-7.75-5.61-14.66A27.75,27.75,0,1,1,124,119.42a24.2,24.2,0,0,1-10.16-1.91c-2.88,1.59-4.73,6.89-4.75,6.94a.25.25,0,0,1-.19.16ZM124,64.42a27.25,27.25,0,0,0-20.48,45.22.25.25,0,0,1,.06.22c-1.22,5.92,3.93,12.52,5.2,14,.51-1.33,2.29-5.5,4.95-6.87a.25.25,0,0,1,.21,0A23.73,23.73,0,0,0,124,118.92a27.25,27.25,0,1,0,0-54.5Z"/><path class="cls-9" d="M142.44,72.12c-2.85,1.75-.16,4.77-3,6.52s-5-1.71-7.82,0-.73,5.2-3.57,6.95-5-1.72-7.81,0-.73,5.2-3.57,6.95-5-1.72-7.81,0-.72,5.2-3.57,6.94-4.53-1.94-7.38-.2l.63,2a23.69,23.69,0,0,0,5.35,8.72,27.18,27.18,0,0,0,40.18-36.62"/><path class="cls-10" d="M123.52,86.36A2.08,2.08,0,0,0,120.63,85c-1.38.42-2.06,1.42-2.82,2.71l-4.88-2.35a10.42,10.42,0,0,1,6.5-6.12c4.72-1.42,9.07-.51,10.61,4.61,1.47,4.88-4.08,8-2.32,12.32L121.61,98C119.21,93,124.3,89,123.52,86.36Zm1.69,12.71a4.42,4.42,0,1,1-2.79,5.46A4.25,4.25,0,0,1,125.21,99.07Z"/><path class="cls-3" d="M126.5,108a4.31,4.31,0,0,1-2.16-.57,4.77,4.77,0,0,1-2.17-2.8,4.49,4.49,0,0,1,3-5.77h0a4.49,4.49,0,0,1,5.65,3.17,4.76,4.76,0,0,1-.26,3.53,4.39,4.39,0,0,1-2.7,2.24A4.61,4.61,0,0,1,126.5,108Zm-1.22-8.66a4,4,0,0,0-2.63,5.14,4.27,4.27,0,0,0,1.94,2.51,4,4,0,0,0,5.49-1.65,4.27,4.27,0,0,0,.23-3.16,4,4,0,0,0-5-2.84Zm-3.67-1a.25.25,0,0,1-.23-.14c-1.51-3.17-.17-5.94.91-8.17.67-1.39,1.26-2.6,1-3.53h0a1.72,1.72,0,0,0-1-1.2,2.44,2.44,0,0,0-1.58,0c-1.29.39-1.92,1.32-2.68,2.6a.25.25,0,0,1-.32.1l-4.88-2.35a.25.25,0,0,1-.12-.32A10.68,10.68,0,0,1,119.35,79c5.53-1.66,9.51.08,10.92,4.78.76,2.54-.28,4.57-1.28,6.54s-1.88,3.69-1,5.76a.25.25,0,0,1-.16.33l-6.1,1.84Zm0-13.66a2.41,2.41,0,0,1,.88.16,2.22,2.22,0,0,1,1.3,1.52h0c.34,1.12-.29,2.4-1,3.89-1.06,2.2-2.26,4.68-1,7.54l5.64-1.7c-.75-2.18.22-4.08,1.16-5.92s2-3.83,1.25-6.17c-1.81-6-7.23-5.37-10.3-4.45a10.13,10.13,0,0,0-6.24,5.77l4.45,2.14a5,5,0,0,1,2.85-2.63A3.56,3.56,0,0,1,121.58,84.61Z"/><path class="cls-9" d="M113.78,116.93a13.31,13.31,0,0,0-5,6.91s-6.75-7.26-5.23-14.13"/><path class="cls-8" d="M108.83,123.84s-1.48-6.16,1-9.43a13.19,13.19,0,0,0,4,2.52A13.59,13.59,0,0,0,108.83,123.84Z"/><path class="cls-11" d="M194.89,65.91l-1,6.86a.37.37,0,0,0,0,.08s0,0,0,0a.38.38,0,0,0,0,.12l0,0a.36.36,0,0,0,.1.1.36.36,0,0,0,.14.06h.15l.09,0,6.25-3.1"/><path class="cls-3" d="M200.47,69.69l.37.74-6.25,3.1a.82.82,0,0,1-.51.05.76.76,0,0,1-.3-.14.8.8,0,0,1-.19-.2.87.87,0,0,1-.12-.32.93.93,0,0,1,0-.18l1-6.9.82.12-1,6.86Z"/><path class="cls-6" d="M210,45.68a3.23,3.23,0,0,1,3.89-.11A3.22,3.22,0,0,1,215,49.29Z"/><path class="cls-3" d="M214.86,47.71h0a2.88,2.88,0,0,1,0,1l-4.24-3.05a2.89,2.89,0,0,1,3.11.15,2.85,2.85,0,0,1,1.15,1.87m.67-.11a3.54,3.54,0,0,0-6.05-1.89l5.7,4.1a3.54,3.54,0,0,0,.35-2.21Z"/><polyline class="cls-3" points="196.76 71.99 193.96 73.17 194.38 70.03"/><polyline class="cls-10" points="194.89 65.91 206.48 49.8 212.24 53.95 200.65 70.06"/><path class="cls-3" d="M212.82,53.85,201,70.3a.41.41,0,1,1-.67-.48L211.66,54l-5.09-3.66L195.22,66.15a.41.41,0,1,1-.67-.48l11.84-16.44Z"/><line class="cls-5" x1="196.8" y1="67.19" x2="207.05" y2="53.2"/><path class="cls-3" d="M207.39,53a.41.41,0,0,1,0,.49l-10.25,14a.41.41,0,1,1-.67-.49l10.25-14a.41.41,0,0,1,.58-.09A.4.4,0,0,1,207.39,53Z"/><line class="cls-5" x1="198.71" y1="68.59" x2="208.96" y2="54.6"/><path class="cls-3" d="M209.3,54.36a.41.41,0,0,1,0,.49L199,68.84a.41.41,0,1,1-.67-.49l10.25-14a.41.41,0,0,1,.58-.09A.4.4,0,0,1,209.3,54.36Z"/><line class="cls-5" x1="207.36" y1="48.44" x2="213.15" y2="52.54"/><path class="cls-3" d="M213.49,52.3a.41.41,0,0,1-.58.58l-5.79-4.1a.41.41,0,0,1,.48-.68l5.79,4.1A.42.42,0,0,1,213.49,52.3Z"/><line class="cls-5" x1="208.4" y1="46.97" x2="214.19" y2="51.07"/><path class="cls-3" d="M214.53,50.83a.41.41,0,0,1-.58.58l-5.79-4.1a.41.41,0,0,1,.48-.68l5.79,4.1A.42.42,0,0,1,214.53,50.83Z"/></g></g></svg>