<svg xmlns="http://www.w3.org/2000/svg" viewBox="0 0 311.48 143.84"><defs><style>.cls-1{fill:#eff5f8;}.cls-2{fill:#e3e3e6;}.cls-3{fill:#fff;}.cls-4{fill:#0aa5e3;}.cls-5{fill:#67bf77;}.cls-5,.cls-6{fill-rule:evenodd;}.cls-6{fill:#e66450;}.cls-7{fill:#cdebfc;}.cls-8{fill:#3273ad;}.cls-9{fill:#046ca3;}.cls-10{opacity:0.5;}.cls-11{fill:#32b475;}.cls-12{fill:#e3b462;}.cls-13{fill:#b7d1e5;}.cls-14{fill:#ede0d6;}.cls-15{fill:#caedff;}.cls-16{fill:#fad264;}</style></defs><title>target-slides_1</title><g id="Layer_2" data-name="Layer 2"><g id="Layer_1-2" data-name="Layer 1"><path class="cls-1" d="M290.42,120.1H249.3a3.09,3.09,0,0,1,0-6.18h10.55a3.09,3.09,0,1,0,0-6.18h-6.6a3.09,3.09,0,0,1,0-6.18h26.63a3.09,3.09,0,1,1,0,6.18H275.4a3.09,3.09,0,1,0,0,6.18h15a3.09,3.09,0,0,1,0,6.18Z"/><path class="cls-1" d="M257.57,41.85h50.14a3.77,3.77,0,1,1,0,7.53H294.85a3.77,3.77,0,0,0,0,7.53h8.05a3.77,3.77,0,1,1,0,7.53H270.43a3.77,3.77,0,1,1,0-7.53h5.46a3.77,3.77,0,1,0,0-7.53H257.57a3.77,3.77,0,1,1,0-7.53Z"/><polygon class="cls-2" points="153.1 88.91 146.09 88.91 146.09 88.27 152.63 88.27 167.65 42.03 175.18 42.03 175.18 42.67 168.12 42.67 153.1 88.91"/><polygon class="cls-2" points="159.57 97.85 146.09 97.85 146.09 97.2 159.08 97.2 168.07 66.49 175.18 66.49 175.18 67.13 168.56 67.13 159.57 97.85"/><polygon class="cls-2" points="167.25 101.71 145.52 101.71 145.52 101.07 166.8 101.07 170.19 92.1 175.18 92.1 175.18 92.75 170.64 92.75 167.25 101.71"/><rect class="cls-3" x="176.9" y="32.46" width="85.19" height="17.7" rx="3.86" ry="3.86"/><path class="cls-4" d="M258.23,50.48H180.76a4.19,4.19,0,0,1-4.18-4.18v-10a4.19,4.19,0,0,1,4.18-4.18h77.47a4.19,4.19,0,0,1,4.18,4.18v10A4.19,4.19,0,0,1,258.23,50.48Zm-77.47-17.7a3.54,3.54,0,0,0-3.54,3.54v10a3.54,3.54,0,0,0,3.54,3.54h77.47a3.54,3.54,0,0,0,3.54-3.54v-10a3.54,3.54,0,0,0-3.54-3.54Z"/><rect class="cls-3" x="176.9" y="57.88" width="85.19" height="17.7" rx="3.86" ry="3.86"/><path class="cls-4" d="M258.23,75.91H180.76a4.19,4.19,0,0,1-4.18-4.18v-10a4.19,4.19,0,0,1,4.18-4.18h77.47a4.19,4.19,0,0,1,4.18,4.18v10A4.19,4.19,0,0,1,258.23,75.91Zm-77.47-17.7a3.54,3.54,0,0,0-3.54,3.54v10a3.54,3.54,0,0,0,3.54,3.54h77.47a3.54,3.54,0,0,0,3.54-3.54v-10a3.54,3.54,0,0,0-3.54-3.54Z"/><rect class="cls-3" x="176.9" y="83.28" width="85.19" height="17.7" rx="3.86" ry="3.86"/><path class="cls-4" d="M258.23,101.3H180.76a4.19,4.19,0,0,1-4.18-4.18v-10A4.19,4.19,0,0,1,180.76,83h77.47a4.19,4.19,0,0,1,4.18,4.18v10A4.19,4.19,0,0,1,258.23,101.3ZM180.76,83.6a3.54,3.54,0,0,0-3.54,3.54v10a3.54,3.54,0,0,0,3.54,3.54h77.47a3.54,3.54,0,0,0,3.54-3.54v-10a3.54,3.54,0,0,0-3.54-3.54Z"/><path class="cls-5" d="M187.08,42.88A3.13,3.13,0,0,1,185.93,44a3.16,3.16,0,0,1-3.15,0,3.13,3.13,0,0,1-1.14-1.14,3.16,3.16,0,0,1,0-3.15,3.13,3.13,0,0,1,1.14-1.14,3.16,3.16,0,0,1,3.15,0,3.13,3.13,0,0,1,1.14,1.14,3.16,3.16,0,0,1,0,3.15Zm1.12-3.8a4.42,4.42,0,0,0-1.61-1.61,4.46,4.46,0,0,0-4.45,0,4.41,4.41,0,0,0-1.61,1.61,4.46,4.46,0,0,0,0,4.45,4.42,4.42,0,0,0,1.61,1.61,4.46,4.46,0,0,0,4.45,0,4.41,4.41,0,0,0,1.61-1.61,4.46,4.46,0,0,0,0-4.45Z"/><path class="cls-5" d="M186.09,39.72a.36.36,0,0,0-.52,0L184,41.31l-.85-.85a.36.36,0,0,0-.52,0L182,41a.36.36,0,0,0,0,.52l1.7,1.7a.36.36,0,0,0,.52,0l2.44-2.44a.36.36,0,0,0,0-.52Z"/><rect class="cls-2" x="192.78" y="37.75" width="59.66" height="1.93"/><rect class="cls-2" x="192.78" y="42.93" width="37.12" height="1.93"/><path class="cls-5" d="M187.08,68.31a3.13,3.13,0,0,1-1.14,1.14,3.16,3.16,0,0,1-3.15,0,3.13,3.13,0,0,1-1.14-1.14,3.16,3.16,0,0,1,0-3.15A3.13,3.13,0,0,1,182.78,64a3.16,3.16,0,0,1,3.15,0,3.13,3.13,0,0,1,1.14,1.14,3.16,3.16,0,0,1,0,3.15Zm1.12-3.8a4.42,4.42,0,0,0-1.61-1.61,4.46,4.46,0,0,0-4.45,0,4.41,4.41,0,0,0-1.61,1.61,4.46,4.46,0,0,0,0,4.45,4.42,4.42,0,0,0,1.61,1.61,4.46,4.46,0,0,0,4.45,0A4.41,4.41,0,0,0,188.2,69a4.46,4.46,0,0,0,0-4.45Z"/><path class="cls-5" d="M186.09,65.15a.36.36,0,0,0-.52,0L184,66.74l-.85-.85a.36.36,0,0,0-.52,0l-.59.59a.36.36,0,0,0,0,.52l1.7,1.7a.36.36,0,0,0,.52,0l2.44-2.44a.36.36,0,0,0,0-.52Z"/><rect class="cls-2" x="192.78" y="63.18" width="59.66" height="1.93"/><rect class="cls-2" x="192.78" y="68.36" width="37.12" height="1.93"/><path class="cls-6" d="M184.36,92.48a.71.71,0,0,0,.7-.7V88.29a.7.7,0,0,0-1.39,0v3.49a.71.71,0,0,0,.7.7Z"/><path class="cls-6" d="M188.1,90.61a4.1,4.1,0,0,0-1.23-1.47.68.68,0,0,0-.52-.14.65.65,0,0,0-.46.27.66.66,0,0,0-.13.51.68.68,0,0,0,.27.46,2.78,2.78,0,0,1,.83,1,2.78,2.78,0,0,1,.07,2.32A2.76,2.76,0,0,1,185.44,95a2.76,2.76,0,0,1-2.16,0,2.76,2.76,0,0,1-1.49-1.49,2.78,2.78,0,0,1,.07-2.32,2.78,2.78,0,0,1,.83-1,.68.68,0,0,0,.27-.46.66.66,0,0,0-.13-.51.64.64,0,0,0-.45-.27.69.69,0,0,0-.52.14,4.16,4.16,0,0,0-1.34,5,4.13,4.13,0,0,0,2.23,2.23,4.13,4.13,0,0,0,3.25,0,4.13,4.13,0,0,0,2.23-2.23,4.07,4.07,0,0,0,.33-1.62A4.12,4.12,0,0,0,188.1,90.61Z"/><rect class="cls-2" x="192.78" y="89.35" width="59.66" height="1.93"/><rect class="cls-2" x="192.78" y="94.53" width="37.12" height="1.93"/><path class="cls-1" d="M50.25,111.87h35.7a3.14,3.14,0,0,1,0,6.27H81.29a3.14,3.14,0,0,0,0,6.27H91.46a3.14,3.14,0,0,1,0,6.27H55.76a3.14,3.14,0,0,1,0-6.27H65.5a3.14,3.14,0,1,0,0-6.27H50.25a3.14,3.14,0,0,1,0-6.27Z"/><path class="cls-1" d="M46.61,76H5.32a3.1,3.1,0,0,1,0-6.2H15.91a3.1,3.1,0,0,0,0-6.2H9.28a3.1,3.1,0,1,1,0-6.2H36a3.1,3.1,0,0,1,0,6.2H31.53a3.1,3.1,0,1,0,0,6.2H46.61a3.1,3.1,0,0,1,0,6.2Z"/><path class="cls-7" d="M271.76,24.37h-5.81a.47.47,0,0,1-.47-.49,4.27,4.27,0,0,0-1.14-3.26c-1.77-1.82-5-1.8-5-1.81a.53.53,0,0,1-.36-.16.48.48,0,0,1-.11-.38,9.84,9.84,0,0,0-2-6.76,7.79,7.79,0,0,0-6.14-2.43,7.2,7.2,0,0,0-5.4,2.06c-2.4,2.51-2.26,6.5-2.26,6.54a.48.48,0,0,1-.19.4.48.48,0,0,1-.44.07,6.65,6.65,0,0,0-5.61.26c-2.84,1.65-3.64,5.54-3.65,5.58a.48.48,0,0,1-.47.38H221.23a.48.48,0,1,1,0-1h11c.29-1.1,1.32-4.27,4-5.83a7.29,7.29,0,0,1,5.78-.53,10.44,10.44,0,0,1,2.51-6.57,8.1,8.1,0,0,1,6.09-2.36,8.72,8.72,0,0,1,6.86,2.75,10.73,10.73,0,0,1,2.31,7A8.31,8.31,0,0,1,265,20a5.06,5.06,0,0,1,1.41,3.47h5.33a.48.48,0,0,1,0,1Z"/><path class="cls-7" d="M73.65,36.58h0l-10-.45a1.16,1.16,0,0,1-.73-.1,1.2,1.2,0,0,1-.36-.87c0-.07,0-.13,0-.16a8.69,8.69,0,0,0-.34-1,6.56,6.56,0,0,0-.89-1.54,5.56,5.56,0,0,0-2.34-1.73,6.88,6.88,0,0,0-2.26-.45,7.46,7.46,0,0,0-.83,0,1.25,1.25,0,0,1-.67,0c-.35-.13-.48-.52-.71-1.46,0-.15-.07-.27-.09-.34a17.94,17.94,0,0,0-1-2.28,11.87,11.87,0,0,0-2.28-3.15,8.76,8.76,0,0,0-5.19-2.42,11.55,11.55,0,0,0-10.6,5.07,12.59,12.59,0,0,0-1.87,7.8.48.48,0,0,1-.95.1,13.57,13.57,0,0,1,2-8.41,12.37,12.37,0,0,1,11.5-5.5,9.7,9.7,0,0,1,5.75,2.68,12.8,12.8,0,0,1,2.46,3.4,18.81,18.81,0,0,1,1,2.4c0,.08.07.23.11.42s.13.52.2.74l.19,0a9,9,0,0,1,.93,0,7.85,7.85,0,0,1,2.57.52,6.52,6.52,0,0,1,2.74,2,7.48,7.48,0,0,1,1,1.77,9.69,9.69,0,0,1,.38,1.11c0,.06,0,.16.05.27l0,.17h.17l10,.45a.47.47,0,0,1,0,.95Z"/><path class="cls-7" d="M144.37,16.25h-5.81a.47.47,0,0,1-.47-.49,4.27,4.27,0,0,0-1.14-3.26c-1.77-1.82-5-1.8-5-1.81a.53.53,0,0,1-.36-.16.48.48,0,0,1-.11-.38,9.84,9.84,0,0,0-2-6.76A7.79,7.79,0,0,0,123.27,1,7.2,7.2,0,0,0,117.87,3c-2.4,2.51-2.26,6.5-2.26,6.54a.48.48,0,0,1-.19.4A.48.48,0,0,1,115,10a6.65,6.65,0,0,0-5.61.26c-2.84,1.65-3.64,5.54-3.65,5.58a.48.48,0,0,1-.47.38H93.84a.48.48,0,0,1,0-1h11c.29-1.1,1.32-4.27,4-5.83a7.29,7.29,0,0,1,5.78-.53,10.44,10.44,0,0,1,2.51-6.57A8.1,8.1,0,0,1,123.27,0a8.72,8.72,0,0,1,6.86,2.75,10.73,10.73,0,0,1,2.31,7,8.31,8.31,0,0,1,5.19,2.08A5.06,5.06,0,0,1,139,15.3h5.33a.48.48,0,1,1,0,1Z"/><path class="cls-8" d="M5.92,143.64H.67c-.26,0-.47-.1-.47-.23s.21-.23.47-.23H5.92c.26,0,.47.1.47.23S6.18,143.64,5.92,143.64Z"/><path class="cls-9" d="M5.92,143.84H.67c-.39,0-.67-.18-.67-.43s.28-.43.67-.43H5.92c.39,0,.67.18.67.43S6.31,143.84,5.92,143.84ZM.46,143.4a.61.61,0,0,0,.21,0H5.92a.11.11,0,1,0,0-.07H.67A.61.61,0,0,0,.46,143.4Z"/><path class="cls-8" d="M300.26,143.64h-290c-.28,0-.5-.11-.5-.25s.22-.25.5-.25h290c.28,0,.5.11.5.25S300.53,143.64,300.26,143.64Z"/><path class="cls-9" d="M300.26,143.84h-290c-.41,0-.7-.19-.7-.45s.29-.45.7-.45h290c.41,0,.7.19.7.45S300.66,143.84,300.26,143.84ZM10,143.39a.61.61,0,0,0,.26,0h290a.61.61,0,0,0,.26,0,.63.63,0,0,0-.26,0h-290A.63.63,0,0,0,10,143.39Z"/><path class="cls-8" d="M309.26,143.64h-3.62c-.28,0-.5-.11-.5-.25s.22-.25.5-.25h3.62c.28,0,.5.11.5.25S309.53,143.64,309.26,143.64Z"/><path class="cls-9" d="M309.26,143.84h-3.62c-.41,0-.7-.19-.7-.45s.29-.45.7-.45h3.62c.41,0,.7.19.7.45S309.66,143.84,309.26,143.84Zm-3.88-.45a.61.61,0,0,0,.26,0h3.62a.61.61,0,0,0,.26,0,.63.63,0,0,0-.26,0h-3.62A.63.63,0,0,0,305.38,143.39Z"/><g class="cls-10"><path class="cls-4" d="M26.19,41.9a5.66,5.66,0,1,1,5.66,5.66A5.66,5.66,0,0,1,26.19,41.9Zm1.5,0a4.16,4.16,0,1,0,4.16-4.16A4.16,4.16,0,0,0,27.69,41.9Z"/><path class="cls-11" d="M278.07,42.93a5.66,5.66,0,1,1,5.66,5.66A5.66,5.66,0,0,1,278.07,42.93Zm1.5,0a4.16,4.16,0,1,0,4.16-4.16A4.16,4.16,0,0,0,279.57,42.93Z"/><path class="cls-11" d="M49.72,84.1a3.58,3.58,0,1,1,3.58,3.58A3.58,3.58,0,0,1,49.72,84.1Zm.95,0a2.63,2.63,0,1,0,2.63-2.63A2.63,2.63,0,0,0,50.66,84.1Z"/><path class="cls-11" d="M35.65,118.12a3.41,3.41,0,1,1,3.41,3.41A3.41,3.41,0,0,1,35.65,118.12Zm1.5,0a1.91,1.91,0,1,0,1.91-1.91A1.91,1.91,0,0,0,37.15,118.12Z"/><path class="cls-11" d="M280.32,115.64a3.41,3.41,0,1,1,3.41,3.41A3.41,3.41,0,0,1,280.32,115.64Zm1.5,0a1.91,1.91,0,1,0,1.91-1.91A1.91,1.91,0,0,0,281.82,115.64Z"/><path class="cls-12" d="M27.21,66.66A4.37,4.37,0,1,1,31.57,71,4.37,4.37,0,0,1,27.21,66.66Zm1.92,0a2.44,2.44,0,1,0,2.44-2.44A2.45,2.45,0,0,0,29.13,66.66Z"/><path class="cls-12" d="M271.42,81.53A4.75,4.75,0,1,1,276,86.48,4.76,4.76,0,0,1,271.42,81.53Zm1.5.06a3.25,3.25,0,1,0,3.39-3.11A3.25,3.25,0,0,0,272.92,81.6Z"/><path class="cls-4" d="M12.28,103.68a5.66,5.66,0,1,1,5.66,5.66A5.66,5.66,0,0,1,12.28,103.68Zm1.5,0a4.16,4.16,0,1,0,4.16-4.16A4.16,4.16,0,0,0,13.78,103.68Z"/><path class="cls-12" d="M253.18,120.47a5.66,5.66,0,1,1,5.66,5.66A5.66,5.66,0,0,1,253.18,120.47Zm1.5,0a4.16,4.16,0,1,0,4.16-4.16A4.16,4.16,0,0,0,254.68,120.47Z"/><path class="cls-12" d="M68.87,61.6a5.25,5.25,0,1,1,5.25,5.25A5.26,5.26,0,0,1,68.87,61.6Zm1.5,0a3.75,3.75,0,1,0,3.75-3.75A3.75,3.75,0,0,0,70.37,61.6Z"/><path class="cls-4" d="M295.71,66.92A5.25,5.25,0,1,1,301,72.17,5.26,5.26,0,0,1,295.71,66.92Zm1.5,0A3.75,3.75,0,1,0,301,63.17,3.75,3.75,0,0,0,297.21,66.92Z"/><path class="cls-11" d="M158.94,24.37a3.41,3.41,0,1,1,3.41,3.41A3.41,3.41,0,0,1,158.94,24.37Zm1.5,0a1.91,1.91,0,1,0,1.91-1.91A1.91,1.91,0,0,0,160.44,24.37Z"/><path class="cls-11" d="M297.55,92.73A3.41,3.41,0,1,1,301,96.14,3.41,3.41,0,0,1,297.55,92.73Zm1.5,0A1.91,1.91,0,1,0,301,90.83,1.91,1.91,0,0,0,299.05,92.73Z"/></g><path class="cls-13" d="M123.87,76.29s18.59-2,17.16,19.18H96.76s1.16-20.06,19.78-19.23Z"/><path class="cls-8" d="M141.39,95.85h-45l0-.41c0-.21,1.39-20.43,20.18-19.59l7.3.05c.55-.06,7.86-.69,13,4.19,3.52,3.38,5.07,8.56,4.61,15.4Zm-44.21-.77h43.49c.37-6.42-1.11-11.28-4.39-14.43-4.92-4.73-12.29-4-12.36-4h0l-7.34-.05C100,75.87,97.48,92.27,97.18,95.08Z"/><path class="cls-14" d="M114.19,73.28v3.39a5.9,5.9,0,0,0,5.18,2.62,4.72,4.72,0,0,0,4.5-3V72.87"/><path class="cls-8" d="M119.15,79.68a6.22,6.22,0,0,1-5.29-2.81l-.05-.09V73.28h.77v3.28a5.51,5.51,0,0,0,4.79,2.35,4.38,4.38,0,0,0,4.13-2.68V72.87h.77l0,3.53a5.15,5.15,0,0,1-4.85,3.27Z"/><polygon class="cls-8" points="119.76 95.47 118.99 95.47 118.99 84.7 110.49 76.99 111.01 76.42 119.76 84.36 119.76 95.47"/><rect class="cls-8" x="117.78" y="80.23" width="11.21" height="0.77" transform="translate(-21.27 108.87) rotate(-44.21)"/><rect class="cls-8" x="102.41" y="89.43" width="0.77" height="6.04"/><rect class="cls-8" x="135.68" y="90" width="0.77" height="5.47"/><path class="cls-4" d="M104.31,56.68s-2.43-.59-2.53-8.76c0,0-6.78-1.59-2.35-10.62s28-16.94,30.87-1.69c0,0,13.38-1.41,4.72,19.86"/><path class="cls-8" d="M104.31,57.09h-.1c-.28-.07-2.68-.88-2.83-8.86a5.71,5.71,0,0,1-3.3-2.88c-1-2.1-.66-4.86,1-8.23,3.05-6.23,14.33-11.46,22.37-10.37,3.51.48,7.92,2.34,9.2,8.43a7.44,7.44,0,0,1,6.12,2.73c2.52,3.36,2.07,9.31-1.36,17.71a.41.41,0,0,1-.76-.31c3.26-8,3.76-13.84,1.46-16.91C134,35.65,130.38,36,130.34,36a.4.4,0,0,1-.44-.33c-1.09-5.89-5.27-7.67-8.58-8.12-7.74-1.06-18.6,3.95-21.52,9.92-1.53,3.13-1.86,5.66-1,7.52a5,5,0,0,0,3.06,2.53.41.41,0,0,1,.32.39c.09,7.52,2.19,8.37,2.21,8.37a.41.41,0,0,1-.1.81Z"/><circle class="cls-8" cx="126.72" cy="56.68" r="1.09"/><path class="cls-14" d="M130,38s-8.09,9.6-24.28,5.84c0,0-1.51-.38-1.69,5.08s0,25.41,13.74,25.79,19.58-13,16.38-27.29c0,0-1.35-7.57-4.33-7.15Z"/><path class="cls-8" d="M118.34,75.16h-.57a11.54,11.54,0,0,1-8.39-3.69c-5.68-6-5.91-17.76-5.75-22.52.1-2.86.57-4.62,1.4-5.25a1,1,0,0,1,.8-.22c15.76,3.66,23.79-5.61,23.87-5.7a.41.41,0,0,1,.72.3l-.15,1.81c2.92.29,4.15,6.73,4.29,7.5,1.94,8.68.55,17-3.72,22.15A15.6,15.6,0,0,1,118.34,75.16Zm-12.7-30.89s-1,.2-1.19,4.7c-.16,4.66.06,16.11,5.53,21.93a10.75,10.75,0,0,0,7.82,3.43A15,15,0,0,0,130.21,69c4.11-5,5.44-13,3.55-21.47-.36-2-1.73-7.12-3.87-6.84a.4.4,0,0,1-.34-.11.41.41,0,0,1-.13-.33l.1-1.15C127.06,41.39,119,47.39,105.64,44.28Z"/><rect class="cls-3" x="107.05" y="52.54" width="10.73" height="8.28" rx="4.14" ry="4.14"/><path class="cls-8" d="M113.64,61.23h-2.45a4.55,4.55,0,1,1,0-9.1h2.45a4.55,4.55,0,1,1,0,9.1Zm-2.45-8.28a3.73,3.73,0,1,0,0,7.47h2.45a3.73,3.73,0,1,0,0-7.47Z"/><rect class="cls-3" x="121.36" y="52.54" width="10.73" height="8.28" rx="4.14" ry="4.14"/><path class="cls-8" d="M127.95,61.23H125.5a4.55,4.55,0,0,1,0-9.1h2.45a4.55,4.55,0,1,1,0,9.1Zm-2.45-8.28a3.73,3.73,0,0,0,0,7.47h2.45a3.73,3.73,0,0,0,0-7.47Z"/><path class="cls-3" d="M114.58,65.15h9.76s0,4.72-4.81,4.68S114.58,67,114.58,65.15Z"/><path class="cls-8" d="M119.6,70.23h-.07c-5.36,0-5.36-3.58-5.36-5.08a.41.41,0,0,1,.41-.41h9.76a.41.41,0,0,1,.41.41,5.75,5.75,0,0,1-1.52,3.75A5,5,0,0,1,119.6,70.23ZM115,65.56c0,1.52.39,3.82,4.54,3.86h.06a4.17,4.17,0,0,0,3.06-1.1,4.76,4.76,0,0,0,1.25-2.76Z"/><path class="cls-8" d="M130.86,50.12a.41.41,0,0,1-.36-.21,3,3,0,0,0-1.83-1.53,5.16,5.16,0,0,0-3.44.65.41.41,0,0,1-.42-.7,6,6,0,0,1,4.07-.74,3.75,3.75,0,0,1,2.34,1.92.41.41,0,0,1-.36.61Z"/><path class="cls-8" d="M108.28,50.12a.41.41,0,0,1-.35-.61c1.63-2.82,5.49-1.82,7.3-.9a.41.41,0,0,1-.37.73s-4.57-2.27-6.22.58A.41.41,0,0,1,108.28,50.12Z"/><path class="cls-8" d="M121.36,57.09a.41.41,0,0,1-.38-.25c-.29-.67-.64-1-1-1.09-.7-.08-1.57.82-1.84,1.17a.41.41,0,0,1-.65-.49c.13-.17,1.26-1.64,2.59-1.49.71.08,1.27.61,1.69,1.57a.41.41,0,0,1-.38.57Z"/><circle class="cls-8" cx="112.15" cy="57.61" r="1.09"/><circle class="cls-8" cx="127.21" cy="57.61" r="1.09"/><rect class="cls-15" x="55.3" y="112.2" width="172.1" height="6.88" rx="3.44" ry="3.44"/><path class="cls-8" d="M224,119.4H58.74a3.76,3.76,0,1,1,0-7.53H224a3.76,3.76,0,1,1,0,7.53ZM58.74,112.52a3.12,3.12,0,1,0,0,6.24H224a3.12,3.12,0,1,0,0-6.24Z"/><polygon class="cls-8" points="60.45 131.83 59.8 131.83 59.8 118.76 70.75 118.76 70.75 125.46 70.1 125.46 70.1 119.4 60.45 119.4 60.45 131.83"/><polygon class="cls-8" points="223.32 131.83 222.67 131.83 222.67 119.4 213.02 119.4 213.02 125.46 212.37 125.46 212.37 118.76 223.32 118.76 223.32 131.83"/><rect class="cls-15" x="90.73" y="81.74" width="57.71" height="30.51" rx="1.29" ry="1.29"/><path class="cls-8" d="M147.15,112.57H92A1.61,1.61,0,0,1,90.41,111V83A1.61,1.61,0,0,1,92,81.41h55.13A1.61,1.61,0,0,1,148.76,83V111A1.61,1.61,0,0,1,147.15,112.57ZM92,82.06a1,1,0,0,0-1,1V111a1,1,0,0,0,1,1h55.13a1,1,0,0,0,1-1V83a1,1,0,0,0-1-1Z"/><circle class="cls-3" cx="119.59" cy="96.99" r="4.16"/><path class="cls-8" d="M61.82,109.58A3.78,3.78,0,0,1,58,105.81v-3a3.77,3.77,0,1,1,7.55,0v3A3.78,3.78,0,0,1,61.82,109.58Zm0-9.87a3.13,3.13,0,0,0-3.13,3.13v3a3.13,3.13,0,0,0,6.26,0v-3A3.13,3.13,0,0,0,61.82,99.71Z"/><rect class="cls-16" x="61.95" y="95.53" width="14.23" height="16.72" rx="1.29" ry="1.29"/><path class="cls-8" d="M74.89,112.57H63.23A1.61,1.61,0,0,1,61.63,111V96.81a1.61,1.61,0,0,1,1.61-1.61H74.89a1.61,1.61,0,0,1,1.61,1.61V111A1.61,1.61,0,0,1,74.89,112.57ZM63.23,95.85a1,1,0,0,0-1,1V111a1,1,0,0,0,1,1H74.89a1,1,0,0,0,1-1V96.81a1,1,0,0,0-1-1Z"/><rect class="cls-8" x="131.4" y="54.65" width="4.66" height="0.75" transform="translate(0.36 110.93) rotate(-45.11)"/><rect class="cls-8" x="105.02" y="53.93" width="0.75" height="3.74" transform="translate(6.88 123.02) rotate(-62.21)"/></g></g></svg>