<svg xmlns="http://www.w3.org/2000/svg" viewBox="0 0 340 179.34"><defs><style>.cls-1{fill:#eff5f8;}.cls-2{fill:#cdebfc;}.cls-3{fill:#fff;}.cls-4{fill:#3273ad;}.cls-5{fill:#caedff;}.cls-6{fill:#fff8d9;}.cls-7{fill:#0aa5e3;}.cls-8{fill:#ffefe9;}.cls-9{fill:#ead9ce;}.cls-10{fill:#fff6f3;}.cls-11{opacity:0.5;}.cls-12{fill:#32b475;}.cls-13{fill:#349b67;}.cls-14{fill:#e3b462;}.cls-15{opacity:0.4;}.cls-16{fill:#ebf6ff;}.cls-17{fill:#8ed3e8;}.cls-18{fill:#ede0d6;}</style></defs><title>team</title><g id="Layer_2" data-name="Layer 2"><g id="Layer_1-2" data-name="Layer 1"><path class="cls-1" d="M304,119.9h-35.7a3.14,3.14,0,0,0,0,6.27H273a3.14,3.14,0,0,1,0,6.27H262.81a3.14,3.14,0,1,0,0,6.27h35.7a3.14,3.14,0,1,0,0-6.27h-9.74a3.14,3.14,0,0,1,0-6.27H304a3.14,3.14,0,1,0,0-6.27Z"/><path class="cls-1" d="M247.92,84.57H194.83a3.3,3.3,0,0,1,0-6.59H215.3a3.3,3.3,0,0,0,0-6.59H204.62a3.3,3.3,0,1,1,0-6.59h37.51a3.3,3.3,0,0,1,0,6.59H231.89a3.3,3.3,0,1,0,0,6.59h16a3.3,3.3,0,1,1,0,6.59Z"/><path class="cls-1" d="M87.21,121.75H37.07a3.77,3.77,0,0,0,0,7.53H49.93a3.77,3.77,0,1,1,0,7.53H41.87a3.77,3.77,0,0,0,0,7.53H74.35a3.77,3.77,0,0,0,0-7.53H68.89a3.77,3.77,0,1,1,0-7.53H87.21a3.77,3.77,0,0,0,0-7.53Z"/><path class="cls-1" d="M112.68,77.59H62.54a3.77,3.77,0,1,0,0,7.53H75.4a3.77,3.77,0,1,1,0,7.53H67.35a3.77,3.77,0,0,0,0,7.53H99.82a3.77,3.77,0,0,0,0-7.53H94.36a3.77,3.77,0,0,1,0-7.53h18.31a3.77,3.77,0,1,0,0-7.53Z"/><path class="cls-2" d="M51,50.08H45.2a.47.47,0,0,1-.47-.49,4.27,4.27,0,0,0-1.14-3.26c-1.77-1.82-5-1.8-5-1.81a.53.53,0,0,1-.36-.16A.48.48,0,0,1,38.1,44a9.84,9.84,0,0,0-2-6.76,7.79,7.79,0,0,0-6.14-2.43,7.2,7.2,0,0,0-5.4,2.06c-2.4,2.51-2.26,6.5-2.26,6.54a.48.48,0,0,1-.19.4.48.48,0,0,1-.44.07,6.65,6.65,0,0,0-5.61.26c-2.84,1.65-3.64,5.54-3.65,5.58a.48.48,0,0,1-.47.38H.48a.48.48,0,1,1,0-1h11c.29-1.1,1.32-4.27,4-5.83a7.29,7.29,0,0,1,5.78-.53,10.44,10.44,0,0,1,2.51-6.57,8.1,8.1,0,0,1,6.09-2.36,8.72,8.72,0,0,1,6.86,2.75,10.73,10.73,0,0,1,2.31,7,8.31,8.31,0,0,1,5.19,2.08,5.06,5.06,0,0,1,1.41,3.47H51a.48.48,0,1,1,0,1Z"/><path class="cls-2" d="M339.53,84h0l-10-.45a1.16,1.16,0,0,1-.73-.1,1.2,1.2,0,0,1-.36-.87c0-.07,0-.13,0-.16a8.69,8.69,0,0,0-.34-1,6.56,6.56,0,0,0-.89-1.54,5.56,5.56,0,0,0-2.34-1.73,6.88,6.88,0,0,0-2.26-.45,7.46,7.46,0,0,0-.83,0,1.25,1.25,0,0,1-.67,0c-.35-.13-.48-.52-.71-1.46,0-.15-.07-.27-.09-.34a17.94,17.94,0,0,0-1-2.28A11.87,11.87,0,0,0,317,70.49a8.76,8.76,0,0,0-5.19-2.42,11.55,11.55,0,0,0-10.6,5.07,12.59,12.59,0,0,0-1.87,7.8.48.48,0,0,1-.95.1,13.57,13.57,0,0,1,2-8.41,12.37,12.37,0,0,1,11.5-5.5,9.7,9.7,0,0,1,5.75,2.68,12.8,12.8,0,0,1,2.46,3.4,18.81,18.81,0,0,1,1,2.4c0,.08.07.23.11.42s.13.52.2.74l.19,0a9,9,0,0,1,.93,0,7.85,7.85,0,0,1,2.57.52,6.52,6.52,0,0,1,2.74,2,7.48,7.48,0,0,1,1,1.77,9.69,9.69,0,0,1,.38,1.11c0,.06,0,.16.05.27l0,.17h.17l10,.45a.47.47,0,0,1,0,.95Z"/><path class="cls-2" d="M110.25,11.53a.48.48,0,0,1-.42-.69,11.88,11.88,0,0,1,18-3.78.47.47,0,1,1-.6.74,10.93,10.93,0,0,0-16.55,3.48A.47.47,0,0,1,110.25,11.53Z"/><path class="cls-2" d="M126.9,7.6a.48.48,0,0,1-.41-.71,13.78,13.78,0,0,1,21.23-3.28.47.47,0,1,1-.64.7,12.83,12.83,0,0,0-19.77,3.05A.47.47,0,0,1,126.9,7.6Z"/><path class="cls-2" d="M213.48,34.08h5.81a.47.47,0,0,0,.47-.49,4.27,4.27,0,0,1,1.14-3.26c1.77-1.82,5-1.8,5-1.81a.53.53,0,0,0,.36-.16.48.48,0,0,0,.11-.38,9.84,9.84,0,0,1,2-6.76,7.79,7.79,0,0,1,6.14-2.43,7.2,7.2,0,0,1,5.4,2.06c2.4,2.51,2.26,6.5,2.26,6.54a.48.48,0,0,0,.19.4.48.48,0,0,0,.44.07,6.65,6.65,0,0,1,5.61.26c2.84,1.65,3.64,5.54,3.65,5.58a.48.48,0,0,0,.47.38H264a.48.48,0,0,0,0-1H253c-.29-1.1-1.32-4.27-4-5.83a7.29,7.29,0,0,0-5.78-.53,10.44,10.44,0,0,0-2.51-6.57,8.1,8.1,0,0,0-6.09-2.36,8.72,8.72,0,0,0-6.86,2.75,10.73,10.73,0,0,0-2.31,7,8.31,8.31,0,0,0-5.19,2.08,5.06,5.06,0,0,0-1.41,3.47h-5.33a.48.48,0,1,0,0,1Z"/><g id="Layer_1-2-2" data-name="Layer 1-2"><rect class="cls-3" x="130.95" y="116.6" width="90.42" height="58.64" rx="3.22" ry="3.22"/><path class="cls-4" d="M218.15,175.56h-84a3.55,3.55,0,0,1-3.51-3.55V119.82a3.55,3.55,0,0,1,3.51-3.55h84a3.55,3.55,0,0,1,3.55,3.55h0V172A3.55,3.55,0,0,1,218.15,175.56Zm-84-58.64a2.9,2.9,0,0,0-2.86,2.9V172a2.9,2.9,0,0,0,2.86,2.9h84A2.9,2.9,0,0,0,221,172h0V119.82a2.9,2.9,0,0,0-2.86-2.9Z"/><rect class="cls-5" x="134.82" y="122.29" width="82.69" height="47.25"/><path class="cls-4" d="M217.51,169.87H134.82a.32.32,0,0,1-.32-.32V122.29a.32.32,0,0,1,.32-.32h82.69a.32.32,0,0,1,.32.32v47.28A.32.32,0,0,1,217.51,169.87Zm-82.36-.65h82v-46.6h-82Z"/><path class="cls-3" d="M232,173.63V176h0a3,3,0,0,1-2.92,3H123.14a3,3,0,0,1-3-3h0v-2.34Z"/><path class="cls-4" d="M229,179.27H123.14a3.34,3.34,0,0,1-3.3-3.31v-2.34a.32.32,0,0,1,.32-.32H232a.32.32,0,0,1,.32.32V176A3.31,3.31,0,0,1,229,179.27ZM120.48,174v2a2.6,2.6,0,0,0,2.6,2.6H229a2.6,2.6,0,0,0,2.6-2.6v-2Z"/><circle class="cls-3" cx="176.06" cy="119.91" r="1.03"/><path class="cls-4" d="M176.06,121.27a1.3,1.3,0,1,1,1.3-1.3A1.3,1.3,0,0,1,176.06,121.27Zm0-2.05a.7.7,0,1,0,.7.7.7.7,0,0,0-.7-.7Z"/></g><path class="cls-4" d="M27,179.34H21.74c-.26,0-.47-.1-.47-.23s.21-.23.47-.23H27c.26,0,.47.1.47.23S27.26,179.34,27,179.34Z"/><path class="cls-4" d="M321.34,179.34h-290c-.28,0-.5-.11-.5-.25s.22-.25.5-.25h290c.28,0,.5.11.5.25S321.61,179.34,321.34,179.34Z"/><path class="cls-4" d="M330.34,179.34h-3.62c-.28,0-.5-.11-.5-.25s.22-.25.5-.25h3.62c.28,0,.5.11.5.25S330.61,179.34,330.34,179.34Z"/><circle class="cls-6" cx="55.76" cy="73.81" r="26.82"/><path class="cls-4" d="M55.76,101.13A27.32,27.32,0,1,1,83.07,73.81,27.35,27.35,0,0,1,55.76,101.13Zm0-53.64A26.32,26.32,0,1,0,82.07,73.81,26.35,26.35,0,0,0,55.76,47.49Z"/><path class="cls-7" d="M41,76.38S30.23,76,33.28,68.25c0,0,3.5-2.29,5.53-1.4,0,0-18-13.48-.2-18.33,0,0,4.5-19.9,27.05-7.52,0,0,22.58-7.54,7.65,27.25,0,0,6-1.9,7.19.89s-1.48,7-8.81,6.15"/><path class="cls-4" d="M40.95,76.81c-.24,0-5.82-.24-7.89-3.4-.94-1.43-1-3.22-.18-5.31l.05-.13L33,67.9a11.07,11.07,0,0,1,4.32-1.65c-2.47-2.1-7.84-7.27-7-11.91.53-2.76,3.16-4.83,7.84-6.15.36-1.37,2.35-7.75,8.39-10.46,5-2.27,11.45-1.32,19.07,2.82,1.17-.35,7.42-2,10.9,1.78,3.68,4,2.82,12.51-2.56,25.3,1.8-.43,5.84-1.09,6.85,1.37a4.22,4.22,0,0,1-.65,4.16c-1.57,2.08-4.7,3-8.6,2.58l.1-.85c3.59.41,6.44-.41,7.82-2.24a3.38,3.38,0,0,0,.54-3.32c-.81-2-5.09-1.14-6.67-.64l-.89.28.37-.86C78.38,55.37,79.44,46.66,76,42.9S65.87,41.38,65.8,41.41l-.18.06-.16-.09C58,37.29,51.81,36.32,47,38.5,40.75,41.31,39,48.55,39,48.62l-.06.25-.25.07c-4.49,1.22-7,3.09-7.47,5.55-1,5.35,7.72,12,7.81,12l3,2.22-3.4-1.49c-1.43-.63-4,.66-5,1.29a4.71,4.71,0,0,0,.15,4.4c1.83,2.79,7.15,3,7.2,3Z"/><path class="cls-8" d="M74.16,55.81c-.25,3.43-16.5,5.33-23.74.63,0,0-5.71,5.33-10.92.89,0,0-1.76-2.05-1.9,0,0,0,2.51,37.38,18.28,36.31,0,0,17.62,3.36,18.28-37.83"/><path class="cls-4" d="M56.85,94.14a6.43,6.43,0,0,1-1-.07,10,10,0,0,1-7.35-2.65c-4-3.5-7.13-10.3-9.28-20.22a107.45,107.45,0,0,1-2-13.84c0-.76.29-1.18.71-1.32.78-.25,1.69.71,1.95,1,4.81,4.1,10.25-.87,10.3-.92l.24-.23.28.18c5.6,3.63,17.27,3.25,21.64,1.08.9-.44,1.41-.94,1.44-1.39l.85,0c-.36,22.6-5.9,31.79-10.48,35.51A11.56,11.56,0,0,1,56.85,94.14Zm-.94-.93H56s3.7.64,7.64-2.58c4.32-3.54,9.53-12.2,10.1-33.35a5.66,5.66,0,0,1-1,.64c-4.57,2.27-16.21,2.7-22.21-1-1.2,1-6.44,4.78-11.23.68a2.38,2.38,0,0,0-1.08-.81.94.94,0,0,0-.12.51c0,.19,1.81,25.35,11,33.42a9.12,9.12,0,0,0,6.78,2.43Z"/><path class="cls-4" d="M56.35,76.81h-.2c-2.67-.29-3.21-3.28-3.23-3.4l.84-.14c0,.1.45,2.48,2.46,2.69h0a3.38,3.38,0,0,0,2.29-.73,2.37,2.37,0,0,0,.63-1.87l.85,0a3.18,3.18,0,0,1-.89,2.52A4.09,4.09,0,0,1,56.35,76.81Z"/><circle class="cls-4" cx="46.49" cy="70.8" r="1.28"/><circle class="cls-4" cx="64.77" cy="70.8" r="1.28"/><path class="cls-4" d="M57.62,86.27h0c-3.76,0-6.51-3.26-6.63-3.4l.66-.55s2.62,3.09,6,3.09h0c2,0,3.83-1,5.55-3.09l.66.55C61.93,85.13,59.85,86.27,57.62,86.27Z"/><path class="cls-4" d="M42,69.74l-.74-.43c0-.06,3.66-6.16,10.26-3l-.36.77C45.23,64.26,42.1,69.51,42,69.74Z"/><path class="cls-4" d="M69.4,67.07a4.29,4.29,0,0,0-2.82-2.23c-2.33-.47-4.75,1.28-4.77,1.3l-.51-.69c.11-.08,2.76-2,5.45-1.45a5.1,5.1,0,0,1,3.39,2.63Z"/><polygon class="cls-4" points="55.78 87.76 54.4 90.03 60.39 90.03 59.56 87.76 55.78 87.76"/><circle class="cls-6" cx="135.14" cy="47.86" r="26.82"/><path class="cls-4" d="M135.14,75.18a27.32,27.32,0,1,1,27.32-27.32A27.35,27.35,0,0,1,135.14,75.18Zm0-53.64a26.32,26.32,0,1,0,26.32,26.32A26.35,26.35,0,0,0,135.14,21.55Z"/><path class="cls-7" d="M112.25,42.84s-7.3-23.11,5-25.64c0,0,1.94-15.23,16-7.62,0,0,10.16-7,14.6.76a7.73,7.73,0,0,1,6.73,7.24s4.06-.76,4.7,4.7-1.08,20.18-1.08,20.18"/><path class="cls-4" d="M111.84,43c-.19-.6-4.61-14.82-.29-22.17a8.18,8.18,0,0,1,5.36-4c.23-1.35,1.39-6.79,5.59-9,2.87-1.47,6.5-1.07,10.79,1.2,1.09-.7,5.95-3.61,10.26-2.62a7.15,7.15,0,0,1,4.63,3.48A8.17,8.17,0,0,1,155,17.12a4.24,4.24,0,0,1,2.66.81,5.92,5.92,0,0,1,2.1,4.3c.63,5.45-1,19.67-1.08,20.28l-.85-.1c0-.15,1.7-14.73,1.08-20.08a5.12,5.12,0,0,0-1.75-3.71,3.43,3.43,0,0,0-2.44-.61l-.45.09-.05-.46c-.71-6.29-6.11-6.84-6.34-6.86l-.22,0-.11-.19a6.38,6.38,0,0,0-4.18-3.26c-4.44-1-9.75,2.6-9.8,2.64l-.22.15-.23-.12C129,7.73,125.55,7.28,122.9,8.65c-4.32,2.21-5.18,8.54-5.19,8.6l0,.3-.3.06a7.39,7.39,0,0,0-5.09,3.61c-4.13,7,.32,21.34.37,21.48Z"/><path class="cls-9" d="M117.29,49.86s-8.09.72-5-7c0,0,2-2.29,4.07-1.4"/><path class="cls-4" d="M116.75,50.31c-1.12,0-3.59-.21-4.86-1.9-1-1.34-1-3.26,0-5.72l.08-.13c.09-.1,2.27-2.5,4.56-1.5l-.34.78c-1.56-.68-3.22.92-3.53,1.24-.82,2.13-.84,3.75,0,4.82,1.35,1.81,4.64,1.55,4.68,1.54l.08.85S117.08,50.31,116.75,50.31Z"/><path class="cls-9" d="M154,42.71s4.36-1.78,5.5,1,1.82,7-5.5,6.15"/><path class="cls-4" d="M155.68,50.41a15.74,15.74,0,0,1-1.76-.11l.1-.85c2.71.31,4.48-.06,5.26-1.09s.37-3.07-.2-4.47c-1-2.37-4.9-.8-4.94-.78l-.32-.79c.19-.08,4.77-1.9,6.06,1.25,1,2.34,1,4.13.09,5.31C159.19,49.9,157.75,50.41,155.68,50.41Z"/><path class="cls-9" d="M116.56,31.92s-3.81,37.58,18.28,36.31c0,0,23.87,3,18.28-37.83,0,0-9,.63-11.3-5.08,0,0-1.4-1.4-1.65,2s-3.55,8.38-10.79,3.68c0,0-5.71,5.33-10.92.89C118.47,31.92,116.71,29.87,116.56,31.92Z"/><path class="cls-4" d="M136,68.72a10.22,10.22,0,0,1-1.2-.06,14.26,14.26,0,0,1-11.63-4.36c-3.88-4.05-6.24-10.75-7-19.9a76.07,76.07,0,0,1,0-12.51c.05-.7.29-1.12.71-1.26.77-.25,1.69.71,1.95,1,4.8,4.09,10.08-.72,10.3-.92l.24-.23.28.18c2.84,1.84,5.33,2.32,7.22,1.39a5.86,5.86,0,0,0,2.91-4.74c.12-1.57.47-2.41,1.12-2.65a1.27,1.27,0,0,1,1.26.35l.09.14C144.36,30.52,153,30,153.09,30l.4,0,.05.4c2.19,16,.18,27.3-6,33.51A16.37,16.37,0,0,1,136,68.72Zm-1.17-.91A15.71,15.71,0,0,0,147,63.24c5.9-6,7.83-16.86,5.77-32.39-1.81.06-9.11-.07-11.28-5.27-.09-.07-.22-.14-.31-.1s-.44.21-.56,1.91a6.67,6.67,0,0,1-3.39,5.45c-1.48.73-4,1.09-7.79-1.27-1.2,1-6.43,4.78-11.23.68a2.41,2.41,0,0,0-1.08-.81A.94.94,0,0,0,117,32h0c0,.22-2.15,22.4,6.79,31.74A13.52,13.52,0,0,0,134.82,67.8Z"/><rect class="cls-4" x="120.15" y="40.06" width="10.21" height="0.85" transform="translate(-5.34 23.95) rotate(-10.7)"/><rect class="cls-4" x="144.57" y="35.2" width="0.86" height="10.58" transform="translate(79.08 175.84) rotate(-79.63)"/><path class="cls-4" d="M135.31,51.4h-.2c-2.67-.29-3.21-3.28-3.23-3.4l.84-.14c0,.1.45,2.48,2.46,2.69h0a3.4,3.4,0,0,0,2.28-.73,2.36,2.36,0,0,0,.63-1.87l.85,0a3.18,3.18,0,0,1-.89,2.52A4.09,4.09,0,0,1,135.31,51.4Z"/><polygon class="cls-4" points="137.34 61.04 133.69 61.04 131.62 56.76 140.67 56.76 137.34 61.04"/><polygon class="cls-3" points="134.22 60.19 136.92 60.19 138.92 57.61 132.99 57.61 134.22 60.19"/><circle class="cls-4" cx="125.45" cy="45.39" r="1.28"/><circle class="cls-4" cx="143.74" cy="45.39" r="1.28"/><circle class="cls-6" cx="216.52" cy="47.86" r="26.82"/><path class="cls-4" d="M216.52,75.18a27.32,27.32,0,1,1,27.32-27.32A27.35,27.35,0,0,1,216.52,75.18Zm0-53.64a26.32,26.32,0,1,0,26.32,26.32A26.35,26.35,0,0,0,216.52,21.55Z"/><path class="cls-7" d="M238.63,28.5l-3.05,13.07s-24.18-19.39-39.22,3.49c0,0-12.61-33.12,19.61-33.12C223.6,11.94,234.71,13.69,238.63,28.5Z"/><path class="cls-4" d="M196.26,46l-.3-.78a44.24,44.24,0,0,1-2.16-9.15c-.6-4.76-.57-11.52,3-16.68s10.05-7.87,19.18-7.87c4.6,0,18.6,0,23.07,16.88l0,.1-3.23,13.84-.53-.42c-.12-.09-11.64-9.18-23.46-7.32-6,.95-11.09,4.55-15.14,10.71ZM216,12.37c-8.83,0-15,2.52-18.47,7.49-5.68,8.24-2.09,21-1,24.25,4.11-5.93,9.23-9.42,15.24-10.37,10.72-1.7,21.14,5.31,23.59,7.1l2.88-12.33C234.32,14,223.66,12.37,216,12.37Z"/><path class="cls-4" d="M234.22,51.65l-.17-.84c2.77-.58,4.31-1.51,4.58-2.76.42-2-2.46-4.55-3.6-5.37l.5-.69c.19.13,4.56,3.32,3.94,6.24C239.12,49.85,237.35,51,234.22,51.65Z"/><path class="cls-10" d="M196.36,45.06s-4.26,5.8,3.17,7.76"/><path class="cls-10" d="M236.13,43.51s6.35,5.5-1.91,7.35"/><path class="cls-4" d="M198.41,53.24c-2.16-.74-3.47-1.87-3.88-3.36-.68-2.49,1.42-5,1.51-5.1l.65.55s-1.9,2.27-1.34,4.32c.33,1.2,1.45,2.13,3.33,2.77Z"/><path class="cls-7" d="M207.64,60.69l-11.27.13.35-8.84a33.39,33.39,0,0,0,3.85,1.71h0"/><path class="cls-4" d="M195.92,61.25l.4-10,.6.33a33.27,33.27,0,0,0,3.79,1.69l1,.36-.3.8-1-.36a35,35,0,0,1-3.3-1.43l-.31,7.73,10.82-.13v.85Z"/><path class="cls-7" d="M227.19,58.87h10.86l-2.47-8s-2.33-.29-3.91,3.29"/><path class="cls-4" d="M238.63,59.3H227.19v-.85h10.28l-2.2-7.15c-.6.06-2.07.47-3.2,3l-.78-.35c1.69-3.82,4.25-3.55,4.35-3.54l.27,0Z"/><path class="cls-10" d="M196.36,45.06s5.45,18.08,19.17,17.65,19.83-11.55,20-21.13l-2-7.19h-6.1L222.29,22l-2.4,10.46-21.79,2.83Z"/><path class="cls-4" d="M215.06,63.14c-13.53,0-19-17.78-19.1-18l0-.1,1.82-10.21L219.55,32l2.63-11.46L227.8,34h6.14L236,41.52v.06c-.23,10.07-6.73,21.12-20.46,21.55ZM196.8,45c.45,1.4,6,17.67,18.72,17.25,13.15-.42,19.38-11,19.63-20.65l-1.86-6.81h-6.06l-4.83-11.46-2.17,9.46-21.77,2.83Z"/><path class="cls-4" d="M221.2,40.2l-.42-.74a15.79,15.79,0,0,1,9.44-1.78l-.15.84C225.57,37.75,221.24,40.18,221.2,40.2Z"/><path class="cls-4" d="M201.86,41.26l-.53-.67c5.38-4.26,9.65-2.17,9.83-2.08l-.39.76C210.61,39.19,206.79,37.35,201.86,41.26Z"/><path class="cls-4" d="M215.93,50.6c-1.86,0-3.48-1.91-3.56-2l.65-.55s1.57,1.84,3.1,1.68a2.58,2.58,0,0,0,1.86-1.6l.76.4a3.35,3.35,0,0,1-2.53,2.05Z"/><path class="cls-4" d="M217,58a6.73,6.73,0,0,1-4.16-1.58l.58-.63a5.32,5.32,0,0,0,7.41-.31l.58.63A6.46,6.46,0,0,1,217,58Z"/><circle class="cls-4" cx="207.64" cy="44.14" r="1.36"/><circle class="cls-4" cx="225.07" cy="44.14" r="1.36"/><g class="cls-11"><path class="cls-7" d="M259.76,105.59a5.66,5.66,0,1,1,5.66-5.66A5.66,5.66,0,0,1,259.76,105.59Zm0-9.82a4.16,4.16,0,1,0,4.16,4.16A4.16,4.16,0,0,0,259.76,95.78Z"/><path class="cls-12" d="M118.56,96.59a5.66,5.66,0,1,1,5.66-5.66A5.66,5.66,0,0,1,118.56,96.59Zm0-9.82a4.16,4.16,0,1,0,4.16,4.16A4.16,4.16,0,0,0,118.56,86.78Z"/><path class="cls-13" d="M142.61,104.64a2.06,2.06,0,1,1,2.06-2.06A2.06,2.06,0,0,1,142.61,104.64Zm0-3.12a1.06,1.06,0,1,0,1.06,1.06A1.06,1.06,0,0,0,142.61,101.52Z"/><path class="cls-12" d="M247.31,123a3.41,3.41,0,1,1,3.41-3.41A3.41,3.41,0,0,1,247.31,123Zm0-5.31a1.91,1.91,0,1,0,1.91,1.91A1.91,1.91,0,0,0,247.31,117.67Z"/><path class="cls-12" d="M87.61,156.81A3.41,3.41,0,1,1,91,153.4,3.41,3.41,0,0,1,87.61,156.81Zm0-5.31a1.91,1.91,0,1,0,1.91,1.91A1.91,1.91,0,0,0,87.61,151.49Z"/><path class="cls-14" d="M189.7,99.27a4.75,4.75,0,1,1,4.75-4.75A4.76,4.76,0,0,1,189.7,99.27Zm0-8a3.25,3.25,0,1,0,3.25,3.25A3.25,3.25,0,0,0,189.7,91.27Z"/><path class="cls-7" d="M250.71,159.06a5.66,5.66,0,1,1,5.66-5.66A5.66,5.66,0,0,1,250.71,159.06Zm0-9.82a4.16,4.16,0,1,0,4.16,4.16A4.16,4.16,0,0,0,250.71,149.24Z"/><path class="cls-14" d="M112,137.95a5.66,5.66,0,1,1,5.66-5.66A5.66,5.66,0,0,1,112,137.95Zm0-9.82a4.16,4.16,0,1,0,4.16,4.16A4.16,4.16,0,0,0,112,128.13Z"/><path class="cls-14" d="M281.63,140.95a5.25,5.25,0,1,1,5.25-5.25A5.26,5.26,0,0,1,281.63,140.95Zm0-9a3.75,3.75,0,1,0,3.75,3.75A3.75,3.75,0,0,0,281.63,131.95Z"/><path class="cls-7" d="M73.7,127.22A5.25,5.25,0,1,1,79,122,5.26,5.26,0,0,1,73.7,127.22Zm0-9A3.75,3.75,0,1,0,77.45,122,3.75,3.75,0,0,0,73.7,118.22Z"/></g><g class="cls-15"><rect class="cls-16" x="139.09" y="127.12" width="74.51" height="17.15" rx="3.11" ry="3.11"/><path class="cls-4" d="M210.49,144.52H142.2a3.36,3.36,0,0,1-3.36-3.36V130.23a3.36,3.36,0,0,1,3.36-3.36h68.3a3.36,3.36,0,0,1,3.36,3.36v10.94A3.36,3.36,0,0,1,210.49,144.52Zm-68.3-17.15a2.86,2.86,0,0,0-2.86,2.86v10.94A2.86,2.86,0,0,0,142.2,144h68.3a2.86,2.86,0,0,0,2.86-2.86V130.23a2.86,2.86,0,0,0-2.86-2.86Z"/></g><g class="cls-15"><rect class="cls-16" x="139.09" y="147.49" width="46.29" height="18.24" rx="2.31" ry="2.31"/><path class="cls-4" d="M183.07,166H141.41a2.57,2.57,0,0,1-2.56-2.56V149.81a2.57,2.57,0,0,1,2.56-2.56h41.66a2.57,2.57,0,0,1,2.56,2.56v13.61A2.57,2.57,0,0,1,183.07,166Zm-41.66-18.24a2.07,2.07,0,0,0-2.06,2.06v13.61a2.07,2.07,0,0,0,2.06,2.06h41.66a2.07,2.07,0,0,0,2.06-2.06V149.81a2.07,2.07,0,0,0-2.06-2.06Z"/></g><g class="cls-15"><rect class="cls-16" x="188.75" y="147.49" width="24.85" height="18.24" rx="2.04" ry="2.04"/><path class="cls-4" d="M211.56,166H190.79a2.29,2.29,0,0,1-2.29-2.29V149.53a2.29,2.29,0,0,1,2.29-2.29h20.77a2.29,2.29,0,0,1,2.29,2.29v14.16A2.29,2.29,0,0,1,211.56,166Zm-20.77-18.24a1.79,1.79,0,0,0-1.79,1.79v14.16a1.79,1.79,0,0,0,1.79,1.79h20.77a1.79,1.79,0,0,0,1.79-1.79V149.53a1.79,1.79,0,0,0-1.79-1.79Z"/></g><circle class="cls-17" cx="215.28" cy="126.22" r="15.56"/><circle class="cls-3" cx="216.12" cy="125.38" r="15.56"/><path class="cls-7" d="M216.12,141.19a15.81,15.81,0,1,1,15.81-15.81A15.83,15.83,0,0,1,216.12,141.19Zm0-31.12a15.31,15.31,0,1,0,15.31,15.31A15.33,15.33,0,0,0,216.12,110.07Z"/><path class="cls-7" d="M215.08,126.39h-3.41v-2h3.41v-3.57h2.09v3.57h3.41v2h-3.41V130h-2.09Z"/><path class="cls-4" d="M217.42,130.21h-2.59v-3.57h-3.41v-2.52h3.41v-3.57h2.59v3.57h3.41v2.52h-3.41Zm-2.09-.5h1.59v-3.57h3.41v-1.52h-3.41v-3.57h-1.59v3.57h-3.41v1.52h3.41Z"/><circle class="cls-6" cx="293.44" cy="73.81" r="26.82"/><path class="cls-4" d="M293.44,101.13a27.32,27.32,0,1,1,27.32-27.32A27.35,27.35,0,0,1,293.44,101.13Zm0-53.64a26.32,26.32,0,1,0,26.32,26.32A26.35,26.35,0,0,0,293.44,47.49Z"/><path class="cls-7" d="M274.69,71.89s-3-.72-3.09-10.73c0,0-8.29-1.95-2.88-13S303,27.43,306.49,46.09c0,0,16.38-1.73,5.77,24.3"/><path class="cls-4" d="M274.68,72.39h-.12c-.34-.08-3.29-1.07-3.47-10.84a7,7,0,0,1-4-3.53c-1.22-2.57-.81-6,1.2-10.07,3.74-7.63,17.54-14,27.37-12.69,4.3.59,9.7,2.86,11.26,10.31a9.1,9.1,0,0,1,7.49,3.35c3.09,4.11,2.53,11.4-1.66,21.67a.5.5,0,1,1-.93-.38c4-9.79,4.61-16.94,1.79-20.69-2.53-3.36-7-2.93-7-2.93a.49.49,0,0,1-.54-.41c-1.33-7.21-6.45-9.38-10.5-9.94-9.47-1.3-22.76,4.83-26.34,12.14-1.87,3.83-2.28,6.92-1.2,9.2a6.06,6.06,0,0,0,3.74,3.1.5.5,0,0,1,.39.48c.11,9.21,2.68,10.24,2.71,10.24a.5.5,0,0,1-.12,1Z"/><circle class="cls-4" cx="302.12" cy="71.89" r="1.33"/><path class="cls-18" d="M306.15,49.08s-9.91,11.75-29.72,7.14c0,0-1.84-.46-2.07,6.22s0,31.1,16.82,31.56,24-15.9,20-33.4c0,0-1.65-9.26-5.3-8.75Z"/><path class="cls-4" d="M291.86,94.52h-.7A14.12,14.12,0,0,1,280.89,90c-7-7.4-7.24-21.74-7-27.56.12-3.5.7-5.66,1.71-6.42a1.18,1.18,0,0,1,1-.27c19.29,4.48,29.12-6.86,29.22-7a.5.5,0,0,1,.88.36l-.18,2.21c3.57.35,5.08,8.23,5.25,9.18,2.38,10.62.68,20.77-4.55,27.11A19.09,19.09,0,0,1,291.86,94.52Zm-15.54-37.8s-1.27.24-1.46,5.75c-.2,5.7.07,19.72,6.76,26.84a13.15,13.15,0,0,0,9.57,4.2c6.27.16,11.55-2.08,15.2-6.52,5-6.11,6.66-15.93,4.34-26.28-.44-2.47-2.12-8.71-4.74-8.37a.49.49,0,0,1-.41-.13.5.5,0,0,1-.15-.4l.12-1.4C302.53,53.18,292.7,60.52,276.32,56.71Z"/><rect class="cls-3" x="278.04" y="66.82" width="13.13" height="10.14" rx="5.07" ry="5.07"/><path class="cls-4" d="M286.11,77.46h-3a5.57,5.57,0,1,1,0-11.14h3a5.57,5.57,0,1,1,0,11.14Zm-3-10.14a4.57,4.57,0,1,0,0,9.14h3a4.57,4.57,0,1,0,0-9.14Z"/><rect class="cls-3" x="295.55" y="66.82" width="13.13" height="10.14" rx="5.07" ry="5.07"/><path class="cls-4" d="M303.61,77.46h-3a5.57,5.57,0,0,1,0-11.14h3a5.57,5.57,0,0,1,0,11.14Zm-3-10.14a4.57,4.57,0,0,0,0,9.14h3a4.57,4.57,0,0,0,0-9.14Z"/><path class="cls-3" d="M287.26,82.26H299.2s0,5.77-5.89,5.72S287.26,84.47,287.26,82.26Z"/><path class="cls-4" d="M293.4,88.48h-.08c-6.56-.06-6.56-4.38-6.56-6.22a.5.5,0,0,1,.5-.5H299.2a.5.5,0,0,1,.5.5,7,7,0,0,1-1.86,4.58A6.07,6.07,0,0,1,293.4,88.48Zm-5.64-5.72c0,1.86.48,4.68,5.56,4.72h.07a5.11,5.11,0,0,0,3.74-1.35,5.82,5.82,0,0,0,1.52-3.37Z"/><path class="cls-4" d="M307.19,63.87a.5.5,0,0,1-.44-.26,3.62,3.62,0,0,0-2.24-1.87,6.32,6.32,0,0,0-4.21.79.5.5,0,0,1-.52-.86,7.28,7.28,0,0,1,5-.9,4.59,4.59,0,0,1,2.86,2.35.5.5,0,0,1-.44.74Z"/><path class="cls-4" d="M279.54,63.87a.5.5,0,0,1-.43-.75c2-3.45,6.71-2.23,8.93-1.1a.5.5,0,0,1-.45.89c-.06,0-5.59-2.78-7.62.71A.5.5,0,0,1,279.54,63.87Z"/><path class="cls-4" d="M295.55,72.39a.5.5,0,0,1-.46-.3c-.36-.82-.79-1.27-1.27-1.33-.86-.09-1.92,1-2.25,1.43a.5.5,0,0,1-.8-.6c.16-.21,1.55-2,3.17-1.82.86.1,1.56.75,2.07,1.92a.5.5,0,0,1-.46.7Z"/><circle class="cls-4" cx="283.69" cy="71.89" r="1.33"/><circle class="cls-4" cx="302.12" cy="71.89" r="1.33"/><path class="cls-4" d="M308.78,72.39a.5.5,0,0,1-.35-.85l3.2-3.2a.5.5,0,0,1,.71.71l-3.2,3.2A.5.5,0,0,1,308.78,72.39Z"/><path class="cls-4" d="M278,73.17a.5.5,0,0,1-.35-.15l-3.2-3.2a.5.5,0,0,1,.71-.71l3.2,3.2a.5.5,0,0,1-.35.85Z"/></g></g></svg>