<svg xmlns="http://www.w3.org/2000/svg" viewBox="0 0 1440 400"><defs><style>.cls-1{isolation:isolate;}.cls-2{opacity:0.7;}.cls-3,.cls-5{mix-blend-mode:multiply;}.cls-4,.cls-5{fill:#f6f6fa;}.cls-6{fill:#eff5f8;}.cls-7{fill:#fff;}.cls-8{fill:#cdebfc;}.cls-9{fill:#3273ad;}.cls-10{fill:#caedff;}.cls-11{fill:#63d398;}.cls-12{opacity:0.9;}.cls-13{opacity:0.5;}.cls-14{fill:#32b475;}.cls-15{fill:#349b67;}.cls-16{fill:#e3b462;}.cls-17{fill:#0aa5e3;}.cls-18{fill:#fad264;}</style></defs><title>tour-illustration</title><g class="cls-1"><g id="Layer_1" data-name="Layer 1"><g class="cls-2"><g class="cls-3"><path class="cls-4" d="M1332.08,472.59a9,9,0,0,1-9-9V251.26q0-.44,0-.87a69,69,0,0,1,7.69-24c9-16.47,23.65-25.17,42.26-25.17h55a9,9,0,0,1,0,18h-55c-11.81,0-20.4,5-26.25,15.4a51.44,51.44,0,0,0-5.75,17.15V463.59A9,9,0,0,1,1332.08,472.59Z"/></g><g class="cls-3"><path class="cls-4" d="M1218.34,471.79s-.08-62.33-.08-64.52c0-18,9.82-31.9,27.65-39.06a76.28,76.28,0,0,1,25.32-5.11h185c11.81,0,20.4-5,26.25-15.4a51.44,51.44,0,0,0,5.75-17.15V207.76a9,9,0,1,1,18,0V331.09q0,.44,0,.87a69,69,0,0,1-7.69,24c-9,16.47-23.65,25.17-42.26,25.17h-185a58.37,58.37,0,0,0-19,4c-14.31,5.91-16,15.5-16,22.21,0,2.07.13,64.77.13,64.77Z"/></g><path class="cls-5" d="M1261.21,49.19a9,9,0,0,0-9,9V181a51.44,51.44,0,0,1-5.51,16.7c-5.1,9.3-12.36,14.43-22.09,15.58H1122.26c-1.74,0-3.43.1-5.09.25h-2a9,9,0,0,0-3.77.83c-13.49,2.79-24.25,11-31.45,24.08a69,69,0,0,0-7.69,24q0,.44,0,.87V466.59a9,9,0,1,0,18,0V263.79a51.44,51.44,0,0,1,5.51-16.7c5.1-9.3,12.36-14.43,22.09-15.58h102.35c1.74,0,3.43-.1,5.09-.25h2a9,9,0,0,0,3.77-.83c13.49-2.79,24.25-11,31.45-24.08a69,69,0,0,0,7.69-24q0-.44,0-.87V58.19A9,9,0,0,0,1261.21,49.19Z"/><path class="cls-4" d="M1399.16,276.08c-14.54-14-38.36-13.75-41-13.68H848.6c-18.61,0-33.23,8.7-42.26,25.17a69,69,0,0,0-7.69,24q0,.44,0,.87V524.71a9,9,0,0,0,18,0V312.93a51.44,51.44,0,0,1,5.75-17.15c5.85-10.36,14.43-15.4,26.25-15.4h510c.18,0,18.59-.46,28.07,8.66,3.75,3.61,5.58,8.36,5.58,14.51V462.23a9,9,0,1,0,18,0V303.56C1410.26,292.41,1406.53,283.16,1399.16,276.08Z"/><g class="cls-3"><path class="cls-4" d="M1166.26,474.59a9,9,0,0,1-9-8.93l-2-352.16a9,9,0,0,1,8.93-9.07h.07a9,9,0,0,1,9,8.93l2,352.16a9,9,0,0,1-8.93,9.07Z"/></g><path class="cls-4" d="M1246.53,96.49c3.92-35.85-30.24-30.24-30.24-30.24S1210.68,100.41,1246.53,96.49Z"/><path class="cls-4" d="M1317.53,249.49c3.92-35.85-30.24-30.24-30.24-30.24S1281.68,253.41,1317.53,249.49Z"/><path class="cls-4" d="M1275.28,185.47c-3.92-35.85,30.24-30.24,30.24-30.24S1311.13,189.39,1275.28,185.47Z"/><path class="cls-4" d="M1149.53,153.49c3.92-35.85-30.24-30.24-30.24-30.24S1113.68,157.41,1149.53,153.49Z"/><path class="cls-4" d="M1067.2,345.29c3.92-35.85-30.24-30.24-30.24-30.24S1031.35,349.21,1067.2,345.29Z"/><g class="cls-3"><path class="cls-4" d="M678.34,471.79s-.08-62.33-.08-64.52c0-18,9.82-31.9,27.65-39.06a76.28,76.28,0,0,1,25.32-5.11h185c11.81,0,20.4-5,26.25-15.4a51.44,51.44,0,0,0,5.75-17.15V207.76a9,9,0,0,1,18,0V331.09q0,.44,0,.87a69,69,0,0,1-7.69,24c-9,16.47-23.65,25.17-42.26,25.17h-185a58.37,58.37,0,0,0-19,4c-14.31,5.91-16,15.5-16,22.21,0,2.07.13,64.77.13,64.77Z"/></g><path class="cls-4" d="M971.62,234.06c-3.92-35.85,30.24-30.24,30.24-30.24S1007.47,238,971.62,234.06Z"/><path class="cls-4" d="M793.09,323.82c3.92-35.85-30.24-30.24-30.24-30.24S757.24,327.74,793.09,323.82Z"/><g class="cls-3"><path class="cls-4" d="M352.08,472.59a9,9,0,0,1-9-9V251.26q0-.44,0-.87a69,69,0,0,1,7.69-24c9-16.47,23.65-25.17,42.26-25.17h55a9,9,0,0,1,0,18h-55c-11.81,0-20.4,5-26.25,15.4a51.44,51.44,0,0,0-5.75,17.15V463.59A9,9,0,0,1,352.08,472.59Z"/></g><g class="cls-3"><path class="cls-4" d="M238.34,471.79s-.08-62.33-.08-64.52c0-18,9.82-31.9,27.65-39.06a76.28,76.28,0,0,1,25.32-5.11h185c11.81,0,20.4-5,26.25-15.4a51.44,51.44,0,0,0,5.75-17.15V207.76a9,9,0,0,1,18,0V331.09q0,.44,0,.87a69,69,0,0,1-7.69,24c-9,16.47-23.65,25.17-42.26,25.17h-185a58.37,58.37,0,0,0-19,4c-14.31,5.91-16,15.5-16,22.21,0,2.07.13,64.77.13,64.77Z"/></g><path class="cls-5" d="M281.21,49.19a9,9,0,0,0-9,9V181a51.44,51.44,0,0,1-5.51,16.7c-5.1,9.3-12.36,14.43-22.09,15.58H142.26c-1.74,0-3.43.1-5.09.25h-2a9,9,0,0,0-3.77.83c-13.49,2.79-24.25,11-31.45,24.08a69,69,0,0,0-7.69,24q0,.44,0,.87V466.59a9,9,0,0,0,18,0V263.79a51.44,51.44,0,0,1,5.51-16.7c5.1-9.3,12.36-14.43,22.09-15.58H240.21c1.74,0,3.43-.1,5.09-.25h2a9,9,0,0,0,3.77-.83c13.49-2.79,24.25-11,31.45-24.08a69,69,0,0,0,7.69-24q0-.44,0-.87V58.19A9,9,0,0,0,281.21,49.19Z"/><path class="cls-4" d="M419.16,276.08c-14.54-14-38.36-13.75-41-13.68H-131.4c-18.61,0-33.23,8.7-42.26,25.17a69,69,0,0,0-7.69,24q0,.44,0,.87V524.71a9,9,0,0,0,9,9,9,9,0,0,0,9-9V312.93a51.44,51.44,0,0,1,5.75-17.15c5.85-10.36,14.43-15.4,26.25-15.4h510c.18,0,18.59-.46,28.07,8.66,3.75,3.61,5.58,8.36,5.58,14.51V462.23a9,9,0,0,0,18,0V303.56C430.26,292.41,426.53,283.16,419.16,276.08Z"/><g class="cls-3"><path class="cls-4" d="M186.26,474.59a9,9,0,0,1-9-8.93l-2-352.16a9,9,0,0,1,8.93-9.07h.07a9,9,0,0,1,9,8.93l2,352.16a9,9,0,0,1-8.93,9.07Z"/></g><g class="cls-3"><path class="cls-4" d="M578.26,472.26a9,9,0,0,1-9-9v-88a9,9,0,0,1,18,0v88A9,9,0,0,1,578.26,472.26Z"/></g><g class="cls-3"><path class="cls-4" d="M630.26,472.26a9,9,0,0,1-9-9v-123a9,9,0,0,1,18,0v123A9,9,0,0,1,630.26,472.26Z"/></g><path class="cls-4" d="M266.53,96.49c3.92-35.85-30.24-30.24-30.24-30.24S230.68,100.41,266.53,96.49Z"/><path class="cls-4" d="M337.53,249.49c3.92-35.85-30.24-30.24-30.24-30.24S301.68,253.41,337.53,249.49Z"/><path class="cls-4" d="M616.09,361.82c3.92-35.85-30.24-30.24-30.24-30.24S580.24,365.74,616.09,361.82Z"/><path class="cls-4" d="M295.28,185.47c-3.92-35.85,30.24-30.24,30.24-30.24S331.13,189.39,295.28,185.47Z"/><path class="cls-4" d="M531.62,234.06c-3.92-35.85,30.24-30.24,30.24-30.24S567.47,238,531.62,234.06Z"/><path class="cls-4" d="M169.53,153.49c3.92-35.85-30.24-30.24-30.24-30.24S133.68,157.41,169.53,153.49Z"/><path class="cls-4" d="M87.2,345.29C91.11,309.44,57,315.05,57,315.05S51.35,349.21,87.2,345.29Z"/><path class="cls-4" d="M-8.38,234.06c-3.92-35.85,30.24-30.24,30.24-30.24S27.47,238-8.38,234.06Z"/></g><path class="cls-6" d="M753.79,104.36H731.29a2,2,0,1,0,0,4h2.93a2,2,0,0,1,0,4h-6.41a2,2,0,1,0,0,4h22.49a2,2,0,0,0,0-4h-6.13a2,2,0,0,1,0-4h9.61a2,2,0,1,0,0-4Z"/><path class="cls-6" d="M769.69,68.2H741.83a1.73,1.73,0,0,1,0-3.46h10.74a1.73,1.73,0,0,0,0-3.46H747a1.73,1.73,0,1,1,0-3.46h19.68a1.73,1.73,0,0,1,0,3.46h-5.37a1.73,1.73,0,0,0,0,3.46h8.41a1.73,1.73,0,0,1,0,3.46Z"/><path class="cls-6" d="M629.55,116.22h26.31a2,2,0,1,0,0-4h-6.75a2,2,0,1,1,0-4h4.23a2,2,0,0,0,0-4h-17a2,2,0,1,0,0,4h2.86a2,2,0,0,1,0,4h-9.61a2,2,0,0,0,0,4Z"/><path class="cls-6" d="M743.18,74.88H700.81c-1.75,0-3.18.89-3.18,2s1.43,2,3.18,2h10.87c1.75,0,3.18.89,3.18,2s-1.43,2-3.18,2h-6.81c-1.75,0-3.18.89-3.18,2s1.43,2,3.18,2h27.44c1.75,0,3.18-.89,3.18-2s-1.43-2-3.18-2H727.7c-1.75,0-3.18-.89-3.18-2s1.43-2,3.18-2h15.48c1.75,0,3.18-.89,3.18-2S744.93,74.88,743.18,74.88Z"/><path class="cls-7" d="M736.1,82.09l1.17-4.23L735,75.17l-.8-.86,5.87-.87-3.4-4s-.22-4.52.22-4.82,2.06-2.27,2.62-2,2.32.05,2.49,1,2,4.21,2,4.67,1.45,4.15,1.45,4.15l-.32,9.73s-.63,2-1.12,2-6,1.14-6,1Z"/><path class="cls-8" d="M668.9,55.59h-3a.25.25,0,0,1-.25-.26,2.24,2.24,0,0,0-.6-1.71,4.17,4.17,0,0,0-2.63-1,.28.28,0,0,1-.19-.09.25.25,0,0,1-.06-.2,5.16,5.16,0,0,0-1.07-3.55,4.09,4.09,0,0,0-3.22-1.27A3.78,3.78,0,0,0,655,48.64a5.26,5.26,0,0,0-1.18,3.43.25.25,0,0,1-.1.21.25.25,0,0,1-.23,0,3.49,3.49,0,0,0-2.95.13,4.84,4.84,0,0,0-1.91,2.93.25.25,0,0,1-.24.2h-6a.25.25,0,1,1,0-.5h5.8a5.12,5.12,0,0,1,2.1-3.06,3.82,3.82,0,0,1,3-.28,5.48,5.48,0,0,1,1.32-3.45,4.25,4.25,0,0,1,3.2-1.24,4.58,4.58,0,0,1,3.6,1.45,5.63,5.63,0,0,1,1.21,3.67,4.36,4.36,0,0,1,2.72,1.09,2.65,2.65,0,0,1,.74,1.82h2.8a.25.25,0,1,1,0,.5Z"/><path class="cls-8" d="M809.82,60.78h0l-5.24-.24a.61.61,0,0,1-.39-.05A.63.63,0,0,1,804,60v-.09a4.56,4.56,0,0,0-.18-.52,3.44,3.44,0,0,0-.47-.81,2.92,2.92,0,0,0-1.23-.91,3.61,3.61,0,0,0-1.18-.24h-.43a.66.66,0,0,1-.35,0c-.18-.07-.25-.27-.37-.76,0-.08,0-.14,0-.18a9.42,9.42,0,0,0-.51-1.2A6.23,6.23,0,0,0,798,53.7a4.6,4.6,0,0,0-2.73-1.27,6.06,6.06,0,0,0-5.56,2.66,6.61,6.61,0,0,0-1,4.09.25.25,0,0,1-.5.05,7.12,7.12,0,0,1,1.06-4.41,6.49,6.49,0,0,1,6-2.88,5.09,5.09,0,0,1,3,1.41,6.72,6.72,0,0,1,1.29,1.79,9.87,9.87,0,0,1,.53,1.26s0,.12.06.22.07.27.11.39l.1,0h.49a4.12,4.12,0,0,1,1.35.27,3.42,3.42,0,0,1,1.44,1.07,3.93,3.93,0,0,1,.54.93,5.08,5.08,0,0,1,.2.58s0,.08,0,.14V60h.09l5.24.24a.25.25,0,0,1,0,.5Z"/><path class="cls-8" d="M689.5,33.26a.25.25,0,0,1-.22-.36,6.23,6.23,0,0,1,9.44-2,.25.25,0,1,1-.31.39,5.74,5.74,0,0,0-8.68,1.83A.25.25,0,0,1,689.5,33.26Z"/><path class="cls-8" d="M698.24,31.19a.25.25,0,0,1-.22-.37,7.23,7.23,0,0,1,11.14-1.72.25.25,0,1,1-.34.37,6.73,6.73,0,0,0-10.37,1.6A.25.25,0,0,1,698.24,31.19Z"/><path class="cls-8" d="M764.66,29.35h3a.25.25,0,0,0,.25-.26,2.24,2.24,0,0,1,.6-1.71,4.17,4.17,0,0,1,2.63-1,.28.28,0,0,0,.19-.09.25.25,0,0,0,.06-.2,5.16,5.16,0,0,1,1.07-3.55,4.09,4.09,0,0,1,3.22-1.27,3.78,3.78,0,0,1,2.84,1.08,5.26,5.26,0,0,1,1.18,3.43.25.25,0,0,0,.1.21.25.25,0,0,0,.23,0,3.49,3.49,0,0,1,2.95.13,4.84,4.84,0,0,1,1.91,2.93.25.25,0,0,0,.24.2h6a.25.25,0,1,0,0-.5h-5.8a5.12,5.12,0,0,0-2.1-3.06,3.82,3.82,0,0,0-3-.28,5.48,5.48,0,0,0-1.32-3.45,4.25,4.25,0,0,0-3.2-1.24,4.58,4.58,0,0,0-3.6,1.45,5.63,5.63,0,0,0-1.21,3.67A4.36,4.36,0,0,0,768.2,27a2.65,2.65,0,0,0-.74,1.82h-2.8a.25.25,0,1,0,0,.5Z"/><path class="cls-7" d="M719,88.34l1.22-9.61V74.88a23,23,0,0,1,4.11-1c.7.09,7.35,0,7.35,0l1.49.35,1.07,3V83.8l-.63,4.54-9.71,2Z"/><path class="cls-7" d="M720.14,98.56,712.51,104,710,114.33l.26,6.47s-17.11,6.58-17.66,1.49,8.4-9,8.4-9-1.24-2.56-2-11,19.6-20.44,19.6-20.44-5.2-15.79,3.7-25.36"/><path class="cls-9" d="M696.17,124.57a5.71,5.71,0,0,1-2.9-.6,2.12,2.12,0,0,1-1.06-1.65c-.52-4.79,6.64-8.44,8.29-9.22-.35-.94-1.28-3.95-1.91-10.79-.74-8.16,17.1-19.18,19.53-20.64-.64-2.18-4.42-16.53,3.87-25.44a.36.36,0,0,1,.53.49c-8.65,9.31-3.67,24.85-3.62,25a.36.36,0,0,1-.16.43c-.2.12-20.16,12-19.42,20.1s2,10.85,2,10.88a.36.36,0,0,1-.18.49c-.09,0-8.7,3.86-8.18,8.62a1.41,1.41,0,0,0,.72,1.11c3.15,1.92,14.41-2.14,16.21-2.81l-.25-6.2a.38.38,0,0,1,0-.1l2.54-10.38a.36.36,0,0,1,.14-.21l7.63-5.39a.36.36,0,0,1,.42.59l-7.52,5.31-2.5,10.19.26,6.42a.36.36,0,0,1-.23.35C709.92,121.31,701.35,124.57,696.17,124.57Z"/><path class="cls-7" d="M722.49,90.68s-5.93,11.92-1,19.24a50.92,50.92,0,0,0,10.95,11.66s-.81,7.61,1.63,11.07S745.22,121,745.22,121l-12.91-14.25,2.85-5.55"/><path class="cls-9" d="M735,133.53a1.47,1.47,0,0,1-1.23-.67c-2.29-3.25-1.83-9.83-1.71-11.11a52.32,52.32,0,0,1-10.87-11.62c-2.08-3.08-2.57-7.45-1.41-12.64a33.46,33.46,0,0,1,2.37-7,.36.36,0,0,1,.65.32c-.06.12-5.77,11.82-1,18.87a51,51,0,0,0,10.86,11.57.36.36,0,0,1,.15.33c0,.07-.76,7.51,1.57,10.82a.72.72,0,0,0,.68.36c2.43-.11,7.71-8.31,9.71-11.75L732,107a.36.36,0,0,1-.05-.41l2.84-5.55a.36.36,0,0,1,.65.33l-2.73,5.33,12.74,14.07a.36.36,0,0,1,0,.43c-.72,1.25-7.12,12.19-10.44,12.34Z"/><path class="cls-7" d="M732.68,66.89s-.36,6.74,4.69,10.89L734,89.07"/><path class="cls-9" d="M734,89.44l-.1,0a.36.36,0,0,1-.24-.45L737,77.9c-4.95-4.23-4.66-10.76-4.64-11a.36.36,0,0,1,.73,0c0,.07-.29,6.61,4.56,10.59a.36.36,0,0,1,.12.38l-3.37,11.3A.36.36,0,0,1,734,89.44Z"/><path class="cls-7" d="M734.23,86.51c-6.32,1.31-12.07-3.6-12.07-3.6"/><path class="cls-9" d="M732,87.1c-5.43,0-9.87-3.73-10.08-3.91a.36.36,0,0,1,.47-.55c.06,0,5.69,4.77,11.76,3.52a.37.37,0,0,1,.43.28.36.36,0,0,1-.28.43A11.32,11.32,0,0,1,732,87.1Z"/><path class="cls-7" d="M719.24,50.81s-10,1.51-21.36,10.45"/><path class="cls-9" d="M697.88,61.62a.36.36,0,0,1-.23-.65c11.28-8.9,21.43-10.51,21.53-10.53a.36.36,0,0,1,.11.72c-.1,0-10.07,1.61-21.19,10.38A.36.36,0,0,1,697.88,61.62Z"/><path class="cls-7" d="M717.63,65.68a7.58,7.58,0,0,1-5.4-2.15s-6.91,3.6-12.31,3.63"/><path class="cls-9" d="M699.93,67.53a.36.36,0,0,1,0-.73c5.25,0,12.07-3.56,12.14-3.59a.36.36,0,0,1,.42.06,7.26,7.26,0,0,0,5.12,2,.36.36,0,1,1,.05.73A7.88,7.88,0,0,1,712.17,64c-1.27.64-7.31,3.52-12.24,3.56Z"/><path class="cls-9" d="M709.81,58.11a.36.36,0,0,1-.15-.7,34.21,34.21,0,0,1,8.64-2.46.37.37,0,0,1,.4.32.36.36,0,0,1-.32.4,34.14,34.14,0,0,0-8.42,2.4A.36.36,0,0,1,709.81,58.11Z"/><circle class="cls-10" cx="695.35" cy="65.46" r="4.74" transform="translate(434.04 713.16) rotate(-73.41)"/><path class="cls-9" d="M695.36,70.57a5.12,5.12,0,1,1,2.42-.62A5.12,5.12,0,0,1,695.36,70.57Zm0-9.49a4.38,4.38,0,1,0,4.2,5.63h0a4.38,4.38,0,0,0-4.2-5.63Z"/><circle class="cls-10" cx="737.02" cy="94.91" r="6.56" transform="matrix(0.29, -0.96, 0.96, 0.29, 435.59, 774.13)"/><path class="cls-9" d="M737,101.83a6.93,6.93,0,1,1,6.64-5A6.9,6.9,0,0,1,737,101.83Zm0-13.13a6.2,6.2,0,1,0,1.77.26A6.21,6.21,0,0,0,737,88.7Z"/><polygon class="cls-11" points="719.69 63.02 726.4 65.01 725.3 72.36 718.55 70.34 719.69 63.02"/><path class="cls-9" d="M725.31,72.72l-.1,0-6.76-2a.36.36,0,0,1-.26-.4L719.33,63a.36.36,0,0,1,.46-.29l6.71,2a.36.36,0,0,1,.26.4l-1.09,7.34a.36.36,0,0,1-.36.31ZM719,70.08l6.05,1.8,1-6.61-6-1.79Z"/><path class="cls-9" d="M725.31,72.72a.36.36,0,0,1-.09-.72l3-.75,1.12-7.31-6.16-1.72-3.32,1.15a.36.36,0,1,1-.24-.69L723,61.49a.37.37,0,0,1,.22,0l6.58,1.84a.36.36,0,0,1,.26.41l-1.21,7.87a.36.36,0,0,1-.27.3l-3.19.81Z"/><path class="cls-9" d="M726.4,65.38a.36.36,0,0,1-.09-.72l3.23-.84a.36.36,0,1,1,.18.7l-3.23.84Z"/><polyline class="cls-7" points="743.35 33.95 760.03 40.68 751.93 84.53 746.99 84.28"/><path class="cls-9" d="M751.93,84.9h0L747,84.65a.36.36,0,0,1-.34-.38.35.35,0,0,1,.38-.34l4.63.23,8-43.25-16.41-6.62a.36.36,0,1,1,.27-.67l16.68,6.73a.36.36,0,0,1,.22.4l-8.1,43.86A.36.36,0,0,1,751.93,84.9Z"/><polyline class="cls-7" points="745.71 39.02 752.67 42.04 760.03 40.68"/><path class="cls-9" d="M752.67,42.41a.37.37,0,0,1-.14,0l-7-3a.36.36,0,1,1,.29-.67l6.86,3L760,40.32a.36.36,0,0,1,.13.72l-7.36,1.37Z"/><line class="cls-7" x1="748.44" y1="65.79" x2="752.67" y2="42.04"/><path class="cls-9" d="M748.44,66.15h-.06a.36.36,0,0,1-.29-.42L752.32,42a.36.36,0,1,1,.72.13L748.8,65.86A.36.36,0,0,1,748.44,66.15Z"/><polyline class="cls-7" points="758.19 50.65 751.08 50.98 744.8 48.69"/><path class="cls-9" d="M751.08,51.34l-.12,0L744.68,49a.36.36,0,1,1,.25-.68l6.21,2.27,7-.32a.36.36,0,0,1,.38.35.36.36,0,0,1-.35.38l-7.11.33Z"/><path class="cls-7" d="M756.83,43.28c0,.54-.86,5.63-.86,5.63"/><path class="cls-9" d="M756,49.28h-.06a.36.36,0,0,1-.3-.42c.33-2,.84-5.21.85-5.59a.34.34,0,0,1,.38-.35.36.36,0,0,1,.35.38c0,.55-.78,5.15-.86,5.67A.36.36,0,0,1,756,49.28Z"/><line class="cls-7" x1="755.45" y1="53.36" x2="752.38" y2="70.16"/><path class="cls-9" d="M752.38,70.52h-.07a.36.36,0,0,1-.29-.42l3.07-16.79a.36.36,0,0,1,.72.13l-3.07,16.79A.36.36,0,0,1,752.38,70.52Z"/><path class="cls-9" d="M758.9,47.2h-.06a.36.36,0,0,1-.3-.42l2.09-12a.36.36,0,1,1,.72.12l-2.09,12A.36.36,0,0,1,758.9,47.2Z"/><circle class="cls-10" cx="761.12" cy="33.65" r="1.14" transform="translate(511.5 753.46) rotate(-73.41)"/><path class="cls-9" d="M761.12,35.15a1.5,1.5,0,1,1,1.44-1.07h0a1.51,1.51,0,0,1-1.44,1.07Zm0-2.28a.77.77,0,0,0-.22,1.52.77.77,0,1,0,.44-1.48A.79.79,0,0,0,761.12,32.88Zm1.09,1.1h0Z"/><path class="cls-9" d="M731.66,44.34a.36.36,0,0,1-.31-.17l-1.09-1.69a.36.36,0,0,1,.61-.39L732,43.77a.36.36,0,0,1-.3.56Z"/><path class="cls-9" d="M730.37,53.28h0l-1.61-.07a.36.36,0,1,1,0-.73l1.61.07a.36.36,0,0,1,0,.73Z"/><path class="cls-7" d="M740.8,53s13,9.18,6,32.17c0,0-.43,2.49-3.3,7.84"/><path class="cls-9" d="M743.48,93.25a.26.26,0,0,1-.23-.39c2.81-5.23,3.27-7.74,3.27-7.76,6.93-22.56-5.74-31.82-5.87-31.91a.26.26,0,0,1,.3-.43c.13.09,13.12,9.55,6.07,32.46,0,.07-.46,2.56-3.32,7.89A.26.26,0,0,1,743.48,93.25Z"/><path class="cls-10" d="M728.14,58.23s-15.1-5.82-9.64-20.49,20.73-7.1,20.73-7.1,12.51,6.88,3.79,21.12a26.71,26.71,0,0,1-6.42,5.1A12.77,12.77,0,0,1,728.14,58.23Z"/><path class="cls-9" d="M730.42,58.71a10.88,10.88,0,0,1-2.33-.22h0c-.15-.06-15.28-6.09-9.79-20.82,1.56-4.18,4.06-7,7.44-8.32,6.31-2.5,13.58,1,13.66,1.08a14.74,14.74,0,0,1,6.6,8.5c1.05,4,.14,8.34-2.7,13a27,27,0,0,1-6.51,5.19A12.91,12.91,0,0,1,730.42,58.71Zm-2.2-.73a12.62,12.62,0,0,0,8.26-1.35,26.71,26.71,0,0,0,6.35-5c2.74-4.49,3.63-8.72,2.62-12.54a14.48,14.48,0,0,0-6.34-8.18c-.06,0-7.13-3.47-13.22-1.05-3.23,1.28-5.63,4-7.14,8C713.52,51.88,727.65,57.75,728.22,58Z"/><path class="cls-7" d="M720.74,37.59s8.24-.76,10.05,5.32l-2,9.93S715.34,50.68,720.74,37.59Z"/><path class="cls-9" d="M728.76,53.11h0c-.24,0-6-1-8.43-5.44-1.52-2.73-1.45-6.15.21-10.18a.26.26,0,0,1,.22-.16c.09,0,8.47-.71,10.33,5.51a.26.26,0,0,1,0,.13l-2,9.93A.26.26,0,0,1,728.76,53.11Zm-7.83-15.27c-1.54,3.8-1.6,7-.18,9.57,2.06,3.7,6.69,4.89,7.81,5.13l2-9.61C728.89,37.64,722.05,37.78,720.92,37.84Z"/><path class="cls-9" d="M732.19,51.81a.26.26,0,0,1-.2-.43,6,6,0,0,0,1.13-6,.26.26,0,0,1,.48-.21,6.48,6.48,0,0,1-1.21,6.49A.26.26,0,0,1,732.19,51.81Z"/><path class="cls-9" d="M726.22,35.24a.26.26,0,0,1-.2-.44,8.51,8.51,0,0,1,9.87-1.54.26.26,0,1,1-.22.48,8,8,0,0,0-9.26,1.41A.26.26,0,0,1,726.22,35.24Z"/><path class="cls-9" d="M743.87,71.85h0a.26.26,0,0,1-.22-.3,15.14,15.14,0,0,0-2-10.53.26.26,0,1,1,.43-.3,15.41,15.41,0,0,1,2,10.92A.26.26,0,0,1,743.87,71.85Z"/><path class="cls-9" d="M825.74,164.75l-.1,0c-1.89-.79-3.8-1.57-5.69-2.31a.26.26,0,1,1,.19-.49c1.89.74,3.81,1.52,5.7,2.31a.26.26,0,0,1-.1.5Z"/><path class="cls-9" d="M818.75,161.94l-.09,0a270.29,270.29,0,0,0-86.29-17.38.26.26,0,0,1-.25-.27.27.27,0,0,1,.27-.25,270.82,270.82,0,0,1,86.46,17.42.26.26,0,0,1-.09.51Z"/><path class="cls-9" d="M662.28,149.48a.26.26,0,0,1,0-.52,328.43,328.43,0,0,1,65.42-5.1.26.26,0,1,1,0,.52,327.77,327.77,0,0,0-65.31,5.09Z"/><path class="cls-9" d="M606.26,164.75a.26.26,0,0,1-.1-.5c.19-.08,19-7.89,48.25-13.79a.26.26,0,0,1,.1.51c-29.21,5.89-48,13.68-48.15,13.76Z"/><ellipse class="cls-6" cx="718.92" cy="153.84" rx="29.62" ry="1.99"/><g class="cls-12"><g class="cls-13"><path class="cls-14" d="M764.41,135.41a3.15,3.15,0,1,1,.1,0Zm0-5.51h-.07a2.36,2.36,0,0,0,.07,4.73h.07a2.36,2.36,0,0,0-.07-4.73Z"/></g><g class="cls-13"><path class="cls-15" d="M725.29,125.2a1.14,1.14,0,0,1-1.14-1.1h0a1.14,1.14,0,0,1,1.1-1.17,1.16,1.16,0,0,1,.82.31,1.14,1.14,0,0,1-.74,2Zm0-1.75h0a.62.62,0,0,0-.59.63h0a.61.61,0,0,0,.63.6.61.61,0,0,0,0-1.23Z"/></g><g class="cls-13"><path class="cls-14" d="M673.28,111.19a1.89,1.89,0,0,1-1.88-1.83h0a1.89,1.89,0,1,1,1.94,1.83Zm-1.1-1.85a1.1,1.1,0,1,0,.3-.79,1.1,1.1,0,0,0-.3.79Z"/></g><g class="cls-13"><path class="cls-16" d="M622.7,142.94a2.64,2.64,0,0,1-2.64-2.56h0a2.64,2.64,0,0,1,2.56-2.72,2.65,2.65,0,0,1,2.72,2.56,2.64,2.64,0,0,1-2.56,2.72Zm0-4.49h-.06a1.85,1.85,0,0,0-1.79,1.91h0a1.84,1.84,0,0,0,.58,1.29,1.8,1.8,0,0,0,1.33.5,1.85,1.85,0,0,0-.06-3.71Z"/></g><g class="cls-13"><path class="cls-17" d="M645.15,74.14a3.15,3.15,0,1,1,.1,0Zm0-5.51h-.07a2.37,2.37,0,1,0,.07,0Z"/></g><g class="cls-13"><path class="cls-17" d="M791.43,107.51a3.15,3.15,0,1,1,.1,0Zm-2.36-3.08a2.37,2.37,0,0,0,2.36,2.29h.07a2.36,2.36,0,1,0-2.43-2.29Z"/></g><g class="cls-13"><path class="cls-16" d="M785.73,65.1a3.15,3.15,0,1,1,.1,0Zm0-5.51h-.07A2.36,2.36,0,0,0,783.37,62h0a2.36,2.36,0,1,0,2.36-2.44Z"/></g><g class="cls-13"><path class="cls-16" d="M695.35,49a2.92,2.92,0,0,1-2.92-2.83h0a2.92,2.92,0,0,1,2.83-3,2.92,2.92,0,1,1,.18,5.84Zm-2.13-2.86a2.15,2.15,0,0,0,2.2,2.07,2.13,2.13,0,0,0,1.4-3.69,2.13,2.13,0,0,0-3.59,1.62Z"/></g></g><path class="cls-18" d="M663.43,38.15c1.88.71,4,1.51,4.45.58.08-.31-1.06-1.74-1.8-2.69-1.35-1.7-2.23-2.87-2.23-3.56a.24.24,0,0,1,0-.14c2.46-3.4,4.05-6.53,3.56-7s-2.34.71-3.74,1.51c-1.69,1-3.15,1.8-3.89,1.54-.9-.32-1.77-1.7-2.61-3s-1.54-2.46-2.15-2.57a.42.42,0,0,0-.35.1c-.89.68-.37,2.59.05,4.12a7.13,7.13,0,0,1,.39,2.06c-.07.77-1.61,1.22-4.15,1.86-1.22.31-3.49.89-3.49,1.28,0,.67,1.94,1.06,3.5,1.38s2.92.59,3.48,1.16.44,2,.27,3.39-.39,3.15.47,3.46c.61.22,2-1.44,3-2.53a14.13,14.13,0,0,1,1.52-1.63,1,1,0,0,1,.67-.19A10.7,10.7,0,0,1,663.43,38.15Z"/><path class="cls-9" d="M655.35,41.83a.52.52,0,0,1-.18,0c-1-.36-.79-2-.59-3.64.17-1.39.33-2.69-.22-3.24s-1.92-.81-3.39-1.11c-2.13-.44-3.64-.8-3.64-1.56,0-.41.85-.75,3.62-1.45,2.31-.59,4-1.06,4-1.7a7.09,7.09,0,0,0-.38-2c-.43-1.58-1-3.56,0-4.31a.6.6,0,0,1,.49-.13c.69.12,1.46,1.35,2.28,2.65s1.67,2.66,2.51,3c.65.23,2.15-.62,3.73-1.53,2-1.15,3.46-1.93,4-1.49.75.67-1.7,4.68-3.53,7.21,0,.65.9,1.85,2.18,3.48s1.92,2.51,1.84,2.85c-.52,1.12-2.64.32-4.69-.45h0a10.74,10.74,0,0,0-3-.86.87.87,0,0,0-.56.15,14.11,14.11,0,0,0-1.49,1.6C657.11,40.64,656,41.83,655.35,41.83ZM655,23a.26.26,0,0,0-.16.07c-.79.61-.29,2.45.12,3.93a7.2,7.2,0,0,1,.4,2.12c-.08.91-1.68,1.36-4.28,2-.79.2-3.18.81-3.35,1.13,0,.49,2.1.92,3.35,1.18,1.53.31,3,.61,3.58,1.21s.5,2.06.32,3.54-.37,3,.35,3.26c.49.17,2-1.61,2.75-2.48a14.26,14.26,0,0,1,1.54-1.65,1.21,1.21,0,0,1,.78-.23,10.66,10.66,0,0,1,3.12.88h0c1.69.64,3.8,1.43,4.2.7a14.63,14.63,0,0,0-1.77-2.53c-1.41-1.79-2.27-2.93-2.27-3.67a.41.41,0,0,1,.08-.24c2.86-4,3.85-6.49,3.58-6.73s-2.49.94-3.53,1.53c-1.8,1-3.23,1.84-4,1.56-1-.34-1.85-1.75-2.7-3.11-.7-1.12-1.5-2.39-2-2.49Z"/></g></g></svg>