<?xml version="1.0" encoding="utf-8"?>
<!-- Generator: Adobe Illustrator 21.0.0, SVG Export Plug-In . SVG Version: 6.00 Build 0)  -->
<svg version="1.1" id="Layer_1" xmlns="http://www.w3.org/2000/svg" xmlns:xlink="http://www.w3.org/1999/xlink" x="0px" y="0px"
	 viewBox="0 0 512 512" style="enable-background:new 0 0 512 512;" xml:space="preserve">
<style type="text/css">
	.st0{fill:#008AC1;}
</style>
<g>
	<g>
		<path class="st0" d="M477.6,128.1C443.4,68.9,388.3,26.5,322.2,8.8c-66-17.7-135-8.6-194.2,25.6C68.9,68.6,26.5,123.8,8.8,189.8
			c-17.7,66-8.6,135,25.6,194.2c34.2,59.2,89.4,101.5,155.4,119.2c22,5.9,44.4,8.8,66.6,8.8c44.3,0,88.1-11.6,127.5-34.4
			c59.2-34.2,101.5-89.4,119.2-155.4C520.9,256.2,511.8,187.2,477.6,128.1z M477.4,315.3c-15.8,59.1-53.8,108.6-106.8,139.2
			c-53,30.6-114.8,38.7-174,22.9c-59.1-15.8-108.6-53.8-139.2-106.8c-30.6-53-38.7-114.8-22.9-174C50.4,137.5,88.3,88.1,141.4,57.5
			c35.3-20.4,74.5-30.8,114.2-30.8c19.9,0,40,2.6,59.7,7.9c59.1,15.8,108.6,53.8,139.2,106.8C485.1,194.4,493.3,256.2,477.4,315.3z"
			/>
	</g>
</g>
<g>
	<g>
		<path class="st0" d="M378.8,231.9l-164.5-95c-8.7-5-19.2-5-27.9,0c-8.7,5-13.9,14.1-13.9,24.1v190c0,10.1,5.2,19.1,13.9,24.1
			c4.4,2.5,9.2,3.8,13.9,3.8c4.8,0,9.6-1.3,13.9-3.8l164.5-95c8.7-5,13.9-14.1,13.9-24.2C392.7,245.9,387.5,236.9,378.8,231.9z
			 M365.5,257.1l-164.5,95c-0.2,0.1-0.6,0.4-1.2,0c-0.6-0.4-0.6-0.8-0.6-1.1V161c0-0.2,0-0.7,0.6-1.1c0.2-0.1,0.5-0.2,0.6-0.2
			c0.3,0,0.5,0.1,0.6,0.2l164.5,95c0.2,0.1,0.6,0.4,0.6,1.1S365.7,257,365.5,257.1z"/>
	</g>
</g>
<g>
	<g>
		<path class="st0" d="M413.3,134.4C381.6,93.5,334,66,282.6,59c-7.3-1-14,4.1-15,11.4c-1,7.3,4.1,14,11.4,15
			c44.5,6.1,85.8,29.9,113.2,65.4c2.6,3.4,6.6,5.2,10.5,5.2c2.8,0,5.7-0.9,8.1-2.8C416.7,148.6,417.8,140.3,413.3,134.4z"/>
	</g>
</g>
</svg>
