<svg xmlns="http://www.w3.org/2000/svg" viewBox="0 0 360 240"><style><![CDATA[.B{fill:#e1e1e1}.C{fill:#380d80}.D{fill:#efb516}.E{fill:#ececec}.F{fill:#6025c0}.G{fill:#fdf674}.H{fill:#f5f5f5}.I{fill:#fad127}.J{fill:#f0f0f0}.K{fill:#fadd0f}.L{fill:#e8644a}.M{fill:#fdfdfd}.N{fill:#fcbe86}.O{fill:#f4906c}]]></style><defs><clipPath id="A"><rect y="5" width="360" height="230" rx="66.95" fill="none"/></clipPath></defs><g clip-path="url(#A)"><rect y="5" width="360" height="230" rx="66.95" fill="#f7f5fa"/><path d="M152.86,151.37H75V41.15c0-8.78,77.86-8.78,77.86,0Z" class="B"/><path d="M151.08 151.37H73.2V41.15c0-8.78 77.87-8.78 77.87 0z" class="E"/><path d="M77.07 145.83V43.33a1.65 1.65 0 0 1 1.11-1.57c4.32-1.56 16.1-3.33 34-3.33s29.64 1.77 34 3.33a1.65 1.65 0 0 1 1.1 1.57v102.5a1.67 1.67 0 0 1-1.67 1.67H78.74a1.67 1.67 0 0 1-1.67-1.67z" fill="#fafafa"/><g fill="#fff"><path d="M93.54 39.17L81.4 147.5h17.73l12.22-109.07c-6.9.02-12.85.3-17.8.74zm22.93-.7l-12.23 109H114l12.23-108.63-9.76-.37z"/></g><g class="E"><path d="M127.14 36.77v112.16h-3.4V36.77zm-27.4 0v112.16h-3.4V36.77z"/></g><g class="B"><path d="M100.37 36.77v112.16h-.6V36.77zm27.38 0v112.16h-.6V36.77z"/></g><path d="M75.03 61.48h73.43v3.4H75.03z" class="E"/><path d="M69.66 150.33h79.44v3.76H69.66z" class="H"/><g class="B"><path d="M152.87 154.08h-3.76v-3.76h3.76zm138.4-2.7H213.4V41.15c0-8.78 77.86-8.78 77.86 0z"/></g><path d="M289.47 151.37H211.6V41.15c0-8.78 77.86-8.78 77.86 0z" class="E"/><path d="M215.47 145.83V43.33a1.65 1.65 0 0 1 1.11-1.57c4.32-1.56 16.1-3.33 34-3.33s29.64 1.77 34 3.33a1.65 1.65 0 0 1 1.1 1.57v102.5a1.67 1.67 0 0 1-1.67 1.67h-66.8a1.67 1.67 0 0 1-1.74-1.67z" fill="#fafafa"/><g fill="#fff"><path d="M231.94 39.17L219.8 147.5h17.74l12.22-109.07c-6.9.02-12.85.3-17.8.74zm22.93-.7l-12.23 109h9.8l12.18-108.63-9.75-.37z"/></g><g class="E"><path d="M265.54 36.76v112.16h-3.4V36.76zm-27.4.01v112.16h-3.4V36.77z"/></g><g class="B"><path d="M238.77 36.76v112.16h-.6V36.76zm27.38.01v112.16h-.6V36.77z"/></g><path d="M213.43 61.48h73.43v3.4h-73.43z" class="E"/><path d="M208.06 150.33h79.44v3.76h-79.44z" class="H"/><path d="M291.26 154.08h-3.76v-3.76h3.76z" class="B"/><path d="M55.58 17.58H75v5.5H55.58z" class="J"/><path fill="#e7e7e7" d="M65.3 23.07H84.7v5.5H65.3z"/><g class="H"><path d="M186.02 94.33h19.42v5.5h-19.42zm27.94 75.03h19.42v5.5h-19.42z"/></g><path fill="#e7e7e7" d="M96.5 176.57H77.08v-5.5H96.5z"/><path d="M134.74 12.1h19.42v5.5h-19.42z" class="J"/><g class="H"><path d="M138.75 165.58h19.42v5.5h-19.42zm142.8-2.74h19.42v5.5h-19.42z"/></g><g class="J"><path d="M129.04 171.07h19.42v5.5h-19.42zm98.44-142.52h-19.42v-5.5h19.42z"/></g><path d="M294.3 25.88a8.68 8.68 0 1 0 0-17.35h-1.05v17.35z" class="B"/><circle cx="293.26" cy="17.2" r="8.67" class="E"/><path d="M291.5 15.1c-1.5 1.9-3.5 2.78-4.5 2s-.56-3 .95-4.85 3.53-2.78 4.52-2 .53 2.97-.97 4.86z" opacity=".6" class="H"/><g class="B"><circle cx="293.26" cy="17.2" r="1.22"/><path d="M297.86 32.25h-6.76a2.58 2.58 0 0 1-2.57-2.58 2.58 2.58 0 0 1 2.57-2.57h6.76a2.58 2.58 0 0 1 2.57 2.57 2.58 2.58 0 0 1-2.57 2.58z"/></g><path d="M296.64 32.25h-6.75a2.59 2.59 0 0 1-2.58-2.58 2.58 2.58 0 0 1 2.58-2.57h6.75a2.58 2.58 0 0 1 2.57 2.57 2.58 2.58 0 0 1-2.57 2.58z" class="H"/><g class="B"><path d="M299.86 29.23l-.22-.68a4 4 0 0 0 2.59-5l.68-.2a4.67 4.67 0 0 1-3.05 5.89z"/><path d="M302.9 24.52a.69.69 0 0 1-.86-.45l-.24-.78a.67.67 0 0 1 .45-.86.69.69 0 0 1 .86.45l.24.78a.68.68 0 0 1-.45.86z"/></g><ellipse cx="200.22" cy="214.94" rx="41.13" ry="4.98" fill="#cdd2dd"/><path d="M222 117.6c-5.43 3.55-11.15 6.4-17.68 7.36a11.24 11.24 0 0 0-2.88.86 6.31 6.31 0 0 1-6.13-.69 15.23 15.23 0 0 1-5-5.26 36.55 36.55 0 0 1-3.14-9.26 4.5 4.5 0 0 0 3-.38A5 5 0 0 0 193 104c-.17-.72-.63-1.6.6-1.9.4-.1.24-.37.16-.62a1.86 1.86 0 0 0-2.92-1 17.89 17.89 0 0 1-3.39 2c-.62.2-1.3.2-1.75.78a4.06 4.06 0 0 1-.19-.62 42.8 42.8 0 0 0-4.91-13.78 26.91 26.91 0 0 1-2.55-5.9c-.8-2.6-1.62-5.2-.9-8 .7-.42 1.13-1.2 2-1.3-.06.48-.3 1 0 1.44 0 .27-.15.55.07.8.07.73 0 1.52.73 2l-.17.34c-.2.6.22.42.5.4a1.25 1.25 0 0 0 0 1.78c.9 2.1 2 4.12 2.7 6.28l.5.94.27.42 1.92 4.8a2.31 2.31 0 0 0 1.21 1.13 5.07 5.07 0 0 0 1.11 3.11.7.7 0 0 0 .89.37.77.77 0 0 0 .53-.82 4 4 0 0 0-2.49-2.72 3 3 0 0 0 0-1.93 20.41 20.41 0 0 0-1.93-4.56l-.36-.73-.34-.67a21.45 21.45 0 0 1-2.56-5.82v-.1a.79.79 0 0 0-.12-.15l-.17-.3c.2-.85-.7-.76-1-1.2l.54-.37-.1-.35a.25.25 0 0 0-.31-.23 6.89 6.89 0 0 0-.24-2.26v-.7c0-.45.44-.88.05-1.34 1.8-1 2.58-1 4.1.3-.5.26-.4.68-.38 1.13.05 3.36 1.5 6.36 2.78 9.36s3 5.85 4.27 8.88c1.4 3.3 2.57 6.67 3.8 10 1.52 4.17 3.2 8.25 6 11.7a13.73 13.73 0 0 0 10.17 5.49 16.82 16.82 0 0 0 8.13-1.64 5 5 0 0 1 2.76-.83zm-27.26-3.6l-.18-.35c-1.48-2.92-1.46-2.87-4.42-1.42a1.67 1.67 0 0 0-.91 2.46 27.87 27.87 0 0 0 2 3.85 2.84 2.84 0 0 0 4 .91c1.13-.68 1.33-2 .53-3.58z" class="C"/><path d="M222 117.6a5 5 0 0 0-2.71.84 16.82 16.82 0 0 1-8.13 1.64A13.73 13.73 0 0 1 201 114.6c-2.83-3.46-4.5-7.54-6-11.7-1.22-3.36-2.38-6.73-3.8-10-1.3-3-3-5.86-4.27-8.88s-2.73-6-2.8-9.35c0-.45-.13-.87.38-1.13a11 11 0 0 1 3 4.06c1.82 3.4 3.1 7 4.75 10.52a4.31 4.31 0 0 0 4.26 2.67 21.31 21.31 0 0 0 9.42-2.45l.25-.1a6.18 6.18 0 0 0 1.93-.85 1 1 0 0 1 1.34.37c.4.58.83 1.12 1.25 1.68l-.5.3c-1.44.87.3 1.2.3 1.83a59.78 59.78 0 0 1-8.57 3.65c-2.33.8-3.27 2.06-3 4.22.28.6.6 1.18.83 1.8a42.53 42.53 0 0 0 6.9 12.29c1.7 2 3.68 3.27 6.54 2.53a42.6 42.6 0 0 0 7-2.49 43.29 43.29 0 0 0 11.26-6.89l.2.06a12.45 12.45 0 0 1-4.32 7 37.59 37.59 0 0 1-5.37 3.89z" class="F"/><path d="M208.1 87.35a6.18 6.18 0 0 1-1.93.85l-.25.1a21.31 21.31 0 0 1-9.42 2.45 4.31 4.31 0 0 1-4.26-2.67c-1.66-3.47-2.93-7.12-4.75-10.52a11 11 0 0 0-3-4.06c-1.52-1.26-2.3-1.3-4.1-.3-.43 0-.73.47-1.2.38-.9.1-1.33.88-2 1.3a6.06 6.06 0 0 1 .17-2.71 5.46 5.46 0 0 1 3-3c1.3-.5 2.63-.94 4-1.4l.2-.1.45-.3c.82.08 1.36-.5 2-.8l3.7-1.58c.73-.42 1.67-.52 2.13-1.36l.4-.26a7.4 7.4 0 0 0 1.5-.8 9.5 9.5 0 0 1 6.67-2.27c5.43.8 9.3 4.17 12.87 8a67.12 67.12 0 0 1 4.9 6.13c1.27 1.72.5 3.3-.2 4.93a19 19 0 0 1-4.47 4.35c-.58-.5-.75-.88.13-1.3a9 9 0 0 0 1.61-1.1 1.06 1.06 0 0 0 .18-1.6 157.4 157.4 0 0 1-2.54-4.13c-.62-1-1.24-1.12-2.34-.53a75.36 75.36 0 0 1-9.41 4.64 1.33 1.33 0 0 0-.84 2l1.73 4.5c.35.9.9 1.37 1.93.9a15.13 15.13 0 0 0 2.31-.9c.44-.3.7 0 1 .26.57.4-.06.57-.17.87zM206.5 75c1.37-.7 2.77-1.34 4.1-2.1 1.72-1 1.95-1.8 1-3.55A18.16 18.16 0 0 0 206 63.4a8.36 8.36 0 0 0-9.94-.15 41.49 41.49 0 0 1-6.91 4c-.62.3-1.3.48-2 .75s-.67.58-.13 1c2.24 1.54 3.5 3.83 4.77 6.14 2 3.52 3.66 4.1 7.47 3a36 36 0 0 0 7.23-3.14z" class="K"/><path d="M229.67 92.67a29.21 29.21 0 0 1 3 8.3 7 7 0 0 1-1.06 5.72l-.2-.06c-1.62.2-2.5 1.6-3.78 2.37-3.86 2.28-7.74 4.42-12.3 4.9a4.41 4.41 0 0 1-3.5-.76c-2.9-2.5-4.5-5.94-6.46-9.12-.06-.1.07-.32.1-.48a6.25 6.25 0 0 0 5.41.61 34.65 34.65 0 0 0 5.84-2.32c4.8-2.4 9.56-4.83 12.94-9.16zm-10.8 9.74l-5 2.55c-.68.34-1 .85-.43 1.43a5.35 5.35 0 0 0 4.48 1.79 15.52 15.52 0 0 0 6.09-2.25c1.18-.75 2.4-1.43 3.64-2.07 3.2-1.65 3.53-4.2 2.4-7-.36-.9-1-1-1.64-.4a40.2 40.2 0 0 1-9.54 5.94z" class="F"/><path d="M229.67 92.67c-3.38 4.36-8.15 6.77-12.92 9.16a34.65 34.65 0 0 1-5.84 2.32 6.25 6.25 0 0 1-5.41-.61 16.06 16.06 0 0 1-3.05-4.08 1.69 1.69 0 0 0-2.45-.75 7.58 7.58 0 0 0-1.11.69c-.24-2.16.7-3.42 3-4.22a59.78 59.78 0 0 0 8.57-3.65c.57.22.84.74 1.2 1.18a25.27 25.27 0 0 0-4.32 1.92c-.5.23-.7.5-.18 1a9.36 9.36 0 0 1 1.92 3.11c1 2 1.7 2.38 3.8 1.7a40.65 40.65 0 0 0 12.19-7.06c2.54-2 2.58-3.64.46-6.07a2.39 2.39 0 0 0-3.25-.76A3.88 3.88 0 0 0 220.5 88c-.63-.22-.73-.9-1.12-1.3a35.47 35.47 0 0 1 3.47-2.5 5.51 5.51 0 0 1 4.47 2.49 20.88 20.88 0 0 1 2.16 3.32 3.08 3.08 0 0 1 .19 2.67z" class="K"/><g class="F"><path d="M184.9 67.4l-.45.3a.15.15 0 0 0-.19.09l-4 1.4a5.46 5.46 0 0 0-3 3l-.5-.4a6.84 6.84 0 0 0-2.38-2.22c-2.8-2-5.2-1.2-6.32 2.07-1.24 3.7-1 7.43-.2 11.14a72.77 72.77 0 0 0 7.9 20.19.91.91 0 0 0-.16.11 3 3 0 0 1-2.57-1.89c-3.2-5.83-5.92-11.83-7-18.46a31.59 31.59 0 0 1-.32-8.63c.92-8.44 9.1-12.8 16.54-8.84.67.36 1 .46 1-.45a1.66 1.66 0 0 1 .44-1.33c.4 1.3.4 2.72 1.2 3.9zm16.5-7.12a9.5 9.5 0 0 0-6.67 2.27 7.4 7.4 0 0 1-1.5.8c.14-.32.5-.5.15-1a13.68 13.68 0 0 0-2.64-2.89 2.43 2.43 0 0 0-3.23-.23c-1.6.25-2.44 1.44-3.3 2.6a7.48 7.48 0 0 1 3.32-4.94c3.57-2.73 7.15-2.68 10.75.06a10.87 10.87 0 0 1 3.13 3.32z"/></g><path d="M189.85 119.52a32.48 32.48 0 0 1-7.3-7.59 42 42 0 0 1-4.7-7.37l.43-.14c.8.4 1.53 0 2.25-.28.5-.15.78-.2 1.08.3a43.15 43.15 0 0 0 4.45 6.13 1.44 1.44 0 0 1 .4.66 20.68 20.68 0 0 0 3.39 8.28z" class="D"/><path d="M222.85,84.14a35.47,35.47,0,0,0-3.47,2.5,1.88,1.88,0,0,0-2.73-.29l-2.14-2.7A19,19,0,0,0,219,79.3Z" fill="#256ca4"/><path d="M189.85 119.52a20.68 20.68 0 0 1-3.39-8.28 1.44 1.44 0 0 0-.4-.66 43.15 43.15 0 0 1-4.45-6.13c-.3-.5-.6-.46-1.08-.3-.72.23-1.44.7-2.25.28a9 9 0 0 0 3.18-2.31A74.17 74.17 0 0 0 186 109l1.14 1.67a36.55 36.55 0 0 0 3.14 9.26z" class="L"/><path d="M184.2 61.85c.87-1.17 1.72-2.36 3.3-2.6.4.2.94.08 1.25.5v.12l-1 .16c-1.47-.3-2.14.65-2.75 1.7a3.52 3.52 0 0 0-.48 2.09c.07.6-.2 1.33.55 1.54s.6-.73 1-1c.43.68.35 1.58.9 2.22-.67.3-1.2.88-2 .8-.82-1.2-.82-2.6-1.12-3.94z" class="D"/><path d="M181.46 102.1a9 9 0 0 1-3.18 2.31l-.43.14a5.32 5.32 0 0 1-2.19-1.49.91.91 0 0 1 .16-.11 5 5 0 0 0 4-1.16c.48-.36.76-1 1.36-1.17a2.24 2.24 0 0 1 .28 1.48z" class="F"/><path d="M186 109c-.4-1.92-.9-3.83-.3-5.8.44-.57 1.13-.58 1.75-.78a17.89 17.89 0 0 0 3.39-2 1.86 1.86 0 0 1 2.92 1c.08.25.25.52-.16.62-1.23.3-.77 1.18-.6 1.9a5 5 0 0 1-2.84 6.26 4.5 4.5 0 0 1-3 .38zm3.32-.38a1.81 1.81 0 0 0 1.18-2 13 13 0 0 0-.28-2.33c-.13-.56.26-1.3-.2-1.6-.7-.47-.94.57-1.5.7-.13 0-.24.13-.37.13-1.64.1-1.86 1.14-1.67 2.46a11.7 11.7 0 0 0 .31 1.67c.37 1.23 1.2 1.57 2.5.92z" class="K"/><path d="M194.74,114l.95,1.87c.8,1.57.6,2.9-.53,3.58a2.84,2.84,0,0,1-4-.91,27.87,27.87,0,0,1-2-3.85,1.67,1.67,0,0,1,.91-2.46c3-1.45,2.94-1.5,4.42,1.42Z" class="F"/><path d="M186.9 93.92a4 4 0 0 1 2.49 2.72.77.77 0 0 1-.53.82.7.7 0 0 1-.89-.37 5.07 5.07 0 0 1-1.07-3.17z" fill="#35156b"/><g fill="#b08ee6"><path d="M186.9 93.92z"/><path d="M186.92 92a20.41 20.41 0 0 0-1.92-4.57l-1.2.57 1.92 4.8a2.25 2.25 0 0 0 1.21 1.12 3 3 0 0 0-.02-1.91zm-6.56-16.74v-.7c0-.45.44-.88.05-1.34-.43 0-.73.47-1.2.38-.06.48-.3 1 0 1.44 0 .27-.15.55.07.8.07.73 0 1.52.74 2l.65-.32a6.89 6.89 0 0 0-.24-2.26z"/><path d="M184.6 86.7l-.34-.68a21.45 21.45 0 0 1-2.56-5.82l-.08-.25-.17-.3c.2-.85-.7-.76-1-1.2l.54-.37c0-.1-.07-.23-.1-.35a.25.25 0 0 0-.31-.23l-.65.32-.18.34c-.2.6.22.42.5.4a1.25 1.25 0 0 0 0 1.78l2.7 6.28.5.94.27.42 1.2-.57z"/></g><g fill="#469393"><path d="M181.7 80.2l-.08-.25a.79.79 0 0 1 .12.15s-.03.06-.04.1zm-.7-2.1z"/></g><path d="M198.9 99.4a7.58 7.58 0 0 1 1.11-.69 1.69 1.69 0 0 1 2.45.75 16.06 16.06 0 0 0 3.05 4.08c0 .16-.17.38-.1.48 2 3.18 3.56 6.63 6.46 9.12a4.41 4.41 0 0 0 3.5.76c4.56-.48 8.44-2.62 12.3-4.9 1.3-.76 2.16-2.17 3.78-2.37a43.29 43.29 0 0 1-11.26 6.89 42.6 42.6 0 0 1-7 2.49c-2.86.74-4.85-.53-6.54-2.53a42.53 42.53 0 0 1-6.9-12.29c-.25-.6-.56-1.2-.84-1.8z" class="C"/><path d="M210.7 89.4l2.3-1.2 1.57-.84 1.17-.6.9-.4a1.88 1.88 0 0 1 2.73.29c.4.42.5 1.1 1.12 1.3l.7.73c.16.64-.2.92-.75 1.06a23.13 23.13 0 0 0-5.87 2.91l-.4.23c-.46-.13-1 .48-1.36 0-.9-1.05-2.2-1.77-2.63-3.2zm6.3-2.3l-.9.47-2.07 1.08-1.78.84c-.23.1-.47.22-.5.54 0 .8 1.74 2 2.5 1.67l4.9-2.53c.78-.62 0-1-.3-1.32-.44-.55-.87-1.38-1.87-.75z" class="F"/><path d="M210.18 89.7c.43 1.43 1.73 2.15 2.63 3.2.38.46.9-.15 1.36 0a.31.31 0 0 1-.06.13c-.6.2-1.13.67-1.8.35l-.62-.66c-.35-.44-.62-1-1.2-1.18-.02-.63-1.75-.97-.3-1.84z" class="C"/><path d="M205.92,88.3l.25-.1Z" class="D"/><path d="M206.5 75a36 36 0 0 1-7.2 3.13c-3.8 1.1-5.52.5-7.47-3-1.28-2.3-2.53-4.6-4.77-6.14-.54-.37-.4-.73.13-1s1.34-.44 2-.75a41.49 41.49 0 0 0 6.91-4 8.36 8.36 0 0 1 9.94.15 18.16 18.16 0 0 1 5.64 5.93c.9 1.74.68 2.57-1 3.55L206.5 75zm-13.6-8.4l-2.83 1.45c-1 .58-1 1 0 1.58a3.48 3.48 0 0 1 1.2 1c.63 1.1 1.3.95 2.1.22a21.14 21.14 0 0 1 7.13-4.09 32.94 32.94 0 0 0 3.43-1.68 1.06 1.06 0 0 0 .71-1c0-.45-.44-.5-.75-.63-2.1-1-4.1-.48-6.1.34-1.86.76-3.28 2.22-4.9 2.8z" class="G"/><path d="M186.94 66.6c-.55-.64-.47-1.54-.9-2.22l.48-2a.62.62 0 0 0 .36-.49l.42-.27.5-.13c.88 1.22 2.13 2.13 2.9 3.44z" class="C"/><path d="M190.7 65c-.77-1.3-2-2.22-2.9-3.44.8-.3 2-.35.9-1.66v-.12c1.7.93 2.53 2.76 4.07 3.86-.4.8-1.35.9-2.08 1.36z" class="D"/><path d="M192.83 63.6c-1.54-1.1-2.38-2.93-4.07-3.86-.3-.43-.84-.3-1.25-.5a2.43 2.43 0 0 1 3.23.23 13.68 13.68 0 0 1 2.64 2.89c.35.5 0 .67-.15 1z" class="C"/><path d="M184.27,67.8a.15.15,0,0,1,.19-.09Z" class="D"/><path d="M218.87 102.4a40.2 40.2 0 0 0 9.51-6c.66-.6 1.28-.5 1.64.4 1.13 2.82.8 5.37-2.4 7l-3.64 2.07a15.52 15.52 0 0 1-6.09 2.25 5.35 5.35 0 0 1-4.48-1.79c-.6-.58-.25-1.1.43-1.43l5.03-2.5zm1.32.2l-4.62 2.36c-.44.24-1.3.35-1.15.87.2.68 1.07.57 1.73.54a3.43 3.43 0 0 0 .5-.14c3.95-.92 7.25-3.25 10.8-5a3.76 3.76 0 0 0 2-2.36c.1-.4.2-.8-.17-1.1s-.77 0-1.06.2a53.45 53.45 0 0 1-8.04 4.61z" class="C"/><path d="M211.68 92.7l.62.66-2.24 1.1c-.4.2-.64.46-.48.93a2.26 2.26 0 0 0 3.34 1.39l3.52-2c.4 0 .78.1 1.18.12a3.54 3.54 0 0 0 3.64-3.19 9.17 9.17 0 0 0 3.2-2.6c.24-.3.7-.64.3-1.13a1.22 1.22 0 0 0-1.28-.46 5.44 5.44 0 0 0-2.29 1.17l-.7-.73a3.88 3.88 0 0 1 1.8-1.45 2.39 2.39 0 0 1 3.25.76c2.12 2.43 2.08 4.1-.46 6.07a40.65 40.65 0 0 1-12.19 7.06c-2.1.68-2.77.26-3.8-1.7a9.36 9.36 0 0 0-1.92-3.11c-.52-.44-.33-.72.18-1a25.27 25.27 0 0 1 4.32-1.9z" class="G"/><path d="M176.8 71.78A5.12 5.12 0 0 0 175 76a27.77 27.77 0 0 0 1.72 9.51A72 72 0 0 0 181 96.07c.8 1.58 1.28 3 .14 4.56-.6.22-.88.8-1.36 1.17a5 5 0 0 1-4 1.16 72.77 72.77 0 0 1-7.9-20.19c-.77-3.7-1-7.45.2-11.14 1.1-3.27 3.53-4.07 6.32-2.07a6.84 6.84 0 0 1 2.42 2.22z" class="C"/><path d="M188.7 59.87c1.1 1.3-.1 1.37-.9 1.66-.24-.24-.4-.16-.5.13l-.42.27c-.46-.1-.36.24-.36.5l-.48 2c-.42.25-.34 1.18-1 1s-.48-1-.55-1.54a3.52 3.52 0 0 1 .48-2.09 7.24 7.24 0 0 0 2.74-1.79z" class="I"/><g class="G"><path d="M187.7 60a7.24 7.24 0 0 1-2.71 1.74c.57-1.06 1.24-2.02 2.7-1.74zm1.6 48.57c-1.3.65-2.13.3-2.52-1a11.7 11.7 0 0 1-.31-1.67c-.2-1.32 0-2.37 1.67-2.46.13 0 .24-.1.37-.13.56-.14.8-1.18 1.5-.7.45.3.06 1.05.2 1.6a13 13 0 0 1 .28 2.33 1.81 1.81 0 0 1-1.18 2.03zm.06-5.22a3.31 3.31 0 0 1-1.73.85c-.6.1-.7.56-.6 1.1s.06 1.2.7 1.43.9-.2 1.17-.63a3.35 3.35 0 0 0 .46-2.76zm25.22-16l-1.58.84-1.43-2.1c-.43-.73-.52-1.3.27-1.77a8.49 8.49 0 0 1 2.74 3.04z"/></g><path d="M214.58 87.36a8.49 8.49 0 0 0-2.73-3c.43-1 .94-1.2 1.54-.46l2.36 2.9z" class="I"/><g class="D"><path d="M221.26 91.7a3.54 3.54 0 0 1-3.64 3.19c-.4 0-.8-.08-1.18-.12a7.41 7.41 0 0 1-2.33-1.77.31.31 0 0 0 .06-.13l.4-.24 2.17-1c.58.7 1.2.2 1.8.07a7.3 7.3 0 0 0 .36.68c.17.26.2.8.66.62a1.47 1.47 0 0 0 .59-.79c.33-.8-.35-1.36-.6-2l.73-.38zm-2.06-2.52l-4.9 2.53c-.75.37-2.53-.86-2.5-1.67 0-.32.26-.43.5-.54l1.78-.84c1.06 1 2.1 2 3.64.73 1.18-.78-.16-1.37-.15-2 .94.2 1.2 1.1 1.63 1.8z"/></g><path d="M221.26 91.7l-1-1.86.15-.1c.55-.14.9-.42.75-1.06a5.44 5.44 0 0 1 2.29-1.17 1.22 1.22 0 0 1 1.28.46c.38.5-.07.83-.3 1.13a9.17 9.17 0 0 1-3.16 2.6z" class="M"/><path d="M217.7 89.4c-1.53 1.3-2.58.25-3.64-.73l2.07-1.08a3.29 3.29 0 0 1 1.57 1.81z" class="G"/><path d="M217.7 89.4a3.29 3.29 0 0 0-1.57-1.81l.9-.47.53.23c-.01.66 1.33 1.27.15 2.05z" class="I"/><path d="M217.56 87.34l-.53-.23c1-.63 1.4.2 1.87.75.3.35 1.07.7.3 1.32-.44-.7-.7-1.58-1.63-1.84z" class="C"/><path d="M220.45 89.74l-.15.1-.73.38-.95.5-1.87.94-2.17 1a23.13 23.13 0 0 1 5.87-2.92z" fill="#469393"/><g class="M"><path d="M214.1 93a7.41 7.41 0 0 0 2.33 1.75l-3.52 2a2.26 2.26 0 0 1-3.34-1.39c-.16-.47.08-.74.48-.93l2.24-1.1c.7.37 1.22-.1 1.8-.32zm-21.2-26.4c1.62-.56 3-2 4.86-2.82 2-.82 4-1.34 6.1-.34.3.14.73.18.75.63a1.06 1.06 0 0 1-.71 1 32.94 32.94 0 0 1-3.43 1.68 21.14 21.14 0 0 0-7.13 4.09c-.8.73-1.47.87-2.1-.22a3.48 3.48 0 0 0-1.2-1c-1-.6-.95-1 0-1.58l2.87-1.44z"/></g><g class="D"><path d="M186.52 62.4c0-.25-.1-.58.36-.5a.62.62 0 0 1-.36.49zm.78-.77c.1-.3.26-.37.5-.13z"/></g><path d="M220.2 102.6a53.45 53.45 0 0 0 8-4.62c.3-.2.66-.55 1.06-.2s.28.7.17 1.1a3.76 3.76 0 0 1-2 2.36c-3.56 1.76-6.86 4.1-10.8 5a3.43 3.43 0 0 1-.5.14c-.66 0-1.52.14-1.73-.54-.15-.52.7-.63 1.15-.87l4.66-2.35z" class="F"/><path d="M189.36 103.35a3.35 3.35 0 0 1-.46 2.76c-.26.42-.62.83-1.17.63s-.6-.87-.7-1.43 0-1 .6-1.1a3.31 3.31 0 0 0 1.73-.85z" class="M"/><path d="M211.13 77.56a.41.41 0 0 0 0 .11l-.35.48-1 1.1a7.86 7.86 0 0 0-1.86 1.27l-1.72.33c-.37 0-.83.6-1.1-.1s.26-.76.66-1l5.57-2.76c.45-.18.53-.07.8-.18.55 0 1 .3.93.88s-.54.5-.92.6l-1.1.37-.27-.5c.18-.1.38-.2.35-.47" class="G"/><g class="D"><path d="M214.64 82.36a9 9 0 0 0 1.61-1.1 1.06 1.06 0 0 0 .18-1.6l-2.54-4.13c-.62-1-1.24-1.12-2.34-.53a75.36 75.36 0 0 1-9.41 4.64 1.33 1.33 0 0 0-.84 2l1.73 4.5c.35.9.9 1.37 1.93.9a15.13 15.13 0 0 0 2.31-.9c.44-.3.7 0 1 .26.55.47-.08.65-.2.95a1 1 0 0 1 1.34.37l1.25 1.68 2.33-1.2-1.43-2.1c-.43-.73-.52-1.3.27-1.77.43-1 .94-1.2 1.54-.46l2.36 2.9.9-.4-2.14-2.7c-.57-.5-.74-.88.14-1.3zm-4.5-.16a13.88 13.88 0 0 1-1.3 1.09 1.45 1.45 0 0 1-2.08-.18 3.88 3.88 0 0 0-1.84-1.11c-1.15-.34-.63-1.24-.56-2l.7-.44L212.2 76c.48-.24.66-.3 1 .27a28.11 28.11 0 0 1 1.72 2.73c.5 1.14-.5 1.4-.88 1.32-1.86-.42-2.74 1-3.9 1.88zm-2.04-.03zm-1.9-1.32a.82.82 0 0 0 .83.25c.9-.17 1.2.2 1.08 1.06a3.29 3.29 0 0 0 1-1.21l-1.16-.43zm4.57-2.7v.01h.01l-.01-.01z"/><path d="M209.77 79.25c.82.58.73-.66 1.27-.62l-.27-.48-1 1.1z"/></g><path d="M208.1 82.17v.12" class="L"/><path d="M218.62 90.72l.95-.5c.25.66.93 1.2.6 2a1.47 1.47 0 0 1-.59.79c-.45.17-.5-.36-.66-.62a7.3 7.3 0 0 1-.36-.68.69.69 0 0 0 .06-.99z" class="I"/><path d="M218.62 90.72a.69.69 0 0 1-.06 1c-.6.14-1.23.62-1.8-.07z" class="G"/><g class="L"><path d="M210.78 78.15l.35-.48c0 .27-.17.37-.35.47z"/><path d="M211.13 77.67a.41.41 0 0 1 0-.11h.07l-.08.15z"/></g><path d="M214.9 79a28.11 28.11 0 0 0-1.73-2.69c-.33-.56-.5-.5-1-.27l-7.15 3.56-.7.44c-.07.74-.6 1.64.56 2a3.88 3.88 0 0 1 1.84 1.12 1.45 1.45 0 0 0 2.08.18 13.88 13.88 0 0 0 1.3-1.09c1.16-.88 2-2.3 3.9-1.9.4.03 1.4-.23.9-1.34z" class="I"/><path d="M204.9 80.36l.57.72a.51.51 0 0 0 .27.23.63.63 0 0 0 .4-.06q2.63-1.05 5.15-2.35a9.25 9.25 0 0 0 2.2-1.46l-.73-.5a.85.85 0 0 0-.32-.18 1 1 0 0 0-.57.11l-3.4 1.54-3.23 1.66a1 1 0 0 0-.35.26" class="G"/><g fill="#aaaaa9"><path d="M186.63 121.56a11.55 11.55 0 0 0 .54.72c.16.23.4.5.64.8l.9 1 1.1 1.1 1.3 1.12c.45.4 1 .74 1.5 1.07a15.65 15.65 0 0 0 1.65.94l.84.42.88.35a13.14 13.14 0 0 0 1.75.56 13.3 13.3 0 0 0 1.68.36 8.68 8.68 0 0 0 1.54.18 13.11 13.11 0 0 0 1.32.09h1.9l-.9.17-1 .17a9.25 9.25 0 0 1-1.35.08 7.92 7.92 0 0 1-1.6 0 11.59 11.59 0 0 1-1.78-.26 12.8 12.8 0 0 1-1.85-.52 14 14 0 0 1-1.83-.79 17.07 17.07 0 0 1-1.71-1c-.56-.35-1-.8-1.53-1.18a16.93 16.93 0 0 1-1.28-1.25l-.55-.6-.48-.6c-.32-.38-.55-.77-.78-1.1a7.9 7.9 0 0 1-.53-.89 7.11 7.11 0 0 1-.4-.91zm-2.5 2.16l.43.64 1.22 1.6.88 1 1 1.06c.3.37.77.7 1.18 1a15.15 15.15 0 0 0 1.31 1l.68.46.7.4a10.9 10.9 0 0 0 1.42.69 10.06 10.06 0 0 0 1.37.52 9.39 9.39 0 0 0 1.28.37l1.1.25.87.12.77.13h-1.67a10.15 10.15 0 0 1-1.15-.09l-.67-.08a6.36 6.36 0 0 1-.7-.16 8.77 8.77 0 0 1-1.48-.43 9.64 9.64 0 0 1-1.52-.67l-.75-.4-.72-.47a12.54 12.54 0 0 1-1.36-1 16.1 16.1 0 0 1-1.19-1.14 14.75 14.75 0 0 1-1-1.18 11.71 11.71 0 0 1-.79-1.13 14.19 14.19 0 0 1-1-1.8 5.81 5.81 0 0 1-.21-.68zM78.4 111.6l.78-.26 2.22-.67 3.47-1c1.34-.4 2.87-.74 4.55-1.1l5.42-1.1 6.1-1 6.56-.8 6.8-.52 3.42-.1h3.4l6.6.22 6.15.6 2.84.4 1.35.18 1.28.27 4.58 1 3.46 1 3 .92-3-.76-3.5-.86-4.6-.82-1.3-.18-1.35-.15-2.83-.32c-1.93-.27-4-.32-6.12-.47l-6.57-.16h-1.68l-1.7.07-3.4.13-6.77.45-6.53.75-6.1.9-5.43 1-4.56.93-3.5.8-3.07.67zm-10-2.93l2.9-1 3.38-1.05 4.43-1.2 5.3-1.24 6-1.14 6.42-.93 3.32-.4 3.35-.3 3.35-.23 3.34-.1c2.2-.12 4.4-.06 6.5 0l6.07.28 2.8.2 2.6.3 4.55.6 3.5.65 3 .58-3.05-.42-3.5-.5-7.16-.67-2.8-.12-6-.16-6.45.1-3.32.13-6.67.52-3.3.36-6.4.87-6 1-5.3 1.1-7.87 2-2.97.78zM59.13 64l3.1-.2 3.57-.1h4.62l5.48.1 6.1.27 6.52.5 6.7.7 3.36.43 3.32.5 6.45 1.1 6 1.24 2.76.63 2.56.66 4.47 1.2 3.4 1.07 3 .94-3-.78-3.44-.92-4.5-1.05-2.6-.68-2.77-.55-6-1.13-6.43-1-3.32-.5-3.35-.45-6.68-.75-6.5-.55-6.08-.4-5.45-.23-8.18-.15-3.1.07zm-6.83-2.7l3.4-.33 3.93-.27 5.1-.2 6-.07 6.75.13 7.2.4 7.42.66 3.72.43 3.68.54 3.6.55 3.5.65 3.4.64 3.22.76 3 .72c1 .22 1.9.52 2.82.77l4.9 1.4 3.72 1.3 3.3 1.13-3.3-1-3.7-1.12-5-1.25-2.83-.7-3-.65-3.22-.67-6.88-1.22-3.6-.52-3.66-.5-3.7-.4-7.4-.72-7.18-.46-6.72-.24-6-.08-9 .15-3.5.17zm136.4-9.52a4.38 4.38 0 0 1 .55-.3 9.28 9.28 0 0 1 1.57-.54 10.33 10.33 0 0 1 1.09-.18 9.94 9.94 0 0 1 1.24-.08l1.33.06 1.36.2 1.32.34 1.25.44 1.12.5 1 .54a14.91 14.91 0 0 1 1.37.9l.5.37-.58-.22-1.5-.62-1-.4-1.13-.37c-.38-.15-.8-.22-1.2-.35s-.85-.2-1.27-.3-.86-.15-1.28-.23a7.78 7.78 0 0 0-1.26-.12c-.4-.01-.8 0-1.18 0h-1.06a15.31 15.31 0 0 0-1.59.21zm1.92-2.5a2.58 2.58 0 0 1 .47-.34 6 6 0 0 1 1.41-.57 5.9 5.9 0 0 1 1-.17 8.34 8.34 0 0 1 2.35.11 10.34 10.34 0 0 1 1.22.3 9.19 9.19 0 0 1 1.18.43 7.69 7.69 0 0 1 1.08.52 8 8 0 0 1 1 .56l.83.57c.5.35.87.73 1.15 1l.42.38-.5-.25-1.3-.67-.88-.43c-.3-.17-.65-.28-1-.44a11.37 11.37 0 0 0-1.07-.43 8.54 8.54 0 0 0-1.11-.38 9.65 9.65 0 0 0-1.14-.31c-.38-.1-.75-.14-1.1-.2s-.72-.08-1.06-.08a7.33 7.33 0 0 0-.95 0 5.85 5.85 0 0 0-1.97.4z"/></g><path d="M11.1 109.12s-.66 6.5-6.2 6.5c-2.54 0-.23-3.37-.23-3.37z" fill="#d3c1c1"/><path d="M30.34 151.2l2.56-3.66s3-2.55 3.76.4a62.41 62.41 0 0 0 5 12.63c1.8 4.1 2 6.1 1.78 9.1a1.88 1.88 0 0 1-.58 1.28.73.73 0 0 1-1.12.07c-.8-.8-6.78-8.7-7.57-9.26s-1.74.55-2.1.2.14-2 .8-3.18 1.1-3.35 0-4.47-2.3-1-2.72-1.9-.1-1 .2-1.24z" fill="#fff"/><path d="M29 151.4l3.94-3.84s1-.62 1.77 2.34a47.94 47.94 0 0 0 4.59 11c.75 1.36 3.44 6.94 3 9.86 0 0-.3 1-1.08.2s-6-7.2-6.78-7.78-3.68.93-3.68.93-4.12-7.2-5.2-8.32 3.12-4.16 3.45-4.4z" fill="#3d3a6d"/><path d="M-20.43 115.56c0 8.45 4.27 16 12.7 16s16.66.5 16.66-7.95-6.86-23.73-15.3-23.23c-13.96.85-14.07 6.73-14.07 15.18z" fill="#282424"/><path d="M-30.77 91.55a113.66 113.66 0 0 0 10.44 24.18s4.23 1.57 11.92.64c3.85-.47 23.6-5.18 18.77-8.34-3.42-2.24-9.18-4-9.13-7.66 0-1.2.06-2.5.13-3.82C1.63 91 2.23 85 2.23 85l-.8-2.14-5.92-15.7s-7.82-2-14.18-.93a35.3 35.3 0 0 0-7.84 2.42 11.21 11.21 0 0 0-6.74 8.85c-.52 3.84.97 8.98 2.5 14.05z" fill="#fff"/><path d="M-11.45 128.3s-1.94 36.35 5.1 40.76c5.87 3.68 28.45-2 41.1-5.1l-5.6-14.56-24.4 7.26A1.36 1.36 0 0 1 3 155.07l5.8-29.58z" fill="#282424"/><path d="M1.6 93.35l.63-8.38-.8-2.14L-8.27 69c-8.5 17.06 9.87 24.35 9.87 24.35z" fill="#e4e1f9"/><path d="M-6.6 67.4a3.25 3.25 0 0 1 2-.13l.06-.1s30.84 13.6 31.7 21.35C27.48 90.94 5 112.25 5 112.25l-3.7-5.92 10-14.58.15-.2-.24-.1-.5-.18-11-4a4.74 4.74 0 0 1-1.14-.41h-.07c-2.2-1.12-4.48-3.8-6-7.36-2.36-5.5-1.93-10.9.9-12.1z" class="N"/><path d="M10.72 91.28l.5.18.24.1 5.34-2.22a.25.25 0 0 0-.25-.43c-.22.12-3.27 1.37-5.28 2.18z" class="O"/><path d="M-4.77 110.33c.5-.18 1-.7 1.56-1.77a.38.38 0 0 1 .25-.18c.35-.1.9 0 1.3 0a2 2 0 0 0 .33-.09 9.87 9.87 0 0 0 3.15-2.07c-.84-.12-5.84.2-6.07.63-.12.15-1.75 3.9-.52 3.48z" class="N"/><path d="M-3 108.38c.35-.1.9 0 1.3 0a2 2 0 0 0 .33-.09l1.86-1.32-3.35 1z" class="O"/><g class="N"><path d="M-.26 114.6a.14.14 0 0 0 0 .05c-.1.2-.2 1 .15 1.25.5.3 1.74-.18 1.74-.18l-.5-1.55z"/><path d="M.87 115.9c1.8.14 5.25-5.3 5.25-5.3v-.26a4 4 0 0 0-3.43-4.25 3.89 3.89 0 0 0-1.73.23 8.84 8.84 0 0 0-3.31 2c-.4.42-1.63 1.95-1.45 2.5a6.3 6.3 0 0 0 .39.88l.26.47v.06l.3.44.56.8.35.44.2.23.38.4a3.55 3.55 0 0 0 .4.38 3.36 3.36 0 0 0 .42.36 2.77 2.77 0 0 0 1.42.64z"/></g><path d="M-.5 115.24l1-1.12a.24.24 0 0 0 .07-.18.31.31 0 0 0-.09-.22.29.29 0 0 0-.4 0l-1 1.14a3.36 3.36 0 0 0 .42.38z" class="O"/><path d="M6.68 91.45s10.05-8.6 11.86-15.13l-24.4-12.47A20 20 0 0 0-10.5 78.3s2.84 11.1 17.18 13.15z" fill="#e4e1f9"/></g></svg>