<svg xmlns="http://www.w3.org/2000/svg" viewBox="0 0 360 240"><style><![CDATA[.B{fill:#e1e1e1}.C{fill:#380d80}.D{fill:#efb516}.E{fill:#ececec}.F{fill:#6025c0}.G{fill:#fdf674}.H{fill:#f5f5f5}.I{fill:#fad127}.J{fill:#f0f0f0}.K{fill:#fadd0f}.L{fill:#e8644a}.M{fill:#fdfdfd}]]></style><defs><clipPath id="A"><rect y="5" width="360" height="230" rx="66.95" fill="none"/></clipPath></defs><g clip-path="url(#A)"><rect y="5" width="360" height="230" rx="66.95" fill="#f7f5fa"/><path d="M152.86,151.37H75V41.15c0-8.78,77.86-8.78,77.86,0Z" class="B"/><path d="M151.08 151.37H73.2V41.15c0-8.78 77.87-8.78 77.87 0z" class="E"/><path d="M77.07 145.83V43.33a1.65 1.65 0 0 1 1.11-1.57c4.32-1.56 16.1-3.33 34-3.33s29.64 1.77 34 3.33a1.65 1.65 0 0 1 1.1 1.57v102.5a1.67 1.67 0 0 1-1.67 1.67H78.74a1.67 1.67 0 0 1-1.67-1.67z" fill="#fafafa"/><g fill="#fff"><path d="M93.54 39.17L81.4 147.5h17.73l12.22-109.07c-6.9.02-12.85.3-17.8.74zm22.93-.7l-12.23 109H114l12.23-108.63-9.76-.37z"/></g><g class="E"><path d="M127.14 36.77v112.16h-3.4V36.77zm-27.4 0v112.16h-3.4V36.77z"/></g><g class="B"><path d="M100.37 36.77v112.16h-.6V36.77zm27.38 0v112.16h-.6V36.77z"/></g><path d="M75.03 61.48h73.43v3.4H75.03z" class="E"/><path d="M69.66 150.33h79.44v3.76H69.66z" class="H"/><g class="B"><path d="M152.87 154.08h-3.76v-3.76h3.76zm138.4-2.7H213.4V41.15c0-8.78 77.86-8.78 77.86 0z"/></g><path d="M289.47 151.37H211.6V41.15c0-8.78 77.86-8.78 77.86 0z" class="E"/><path d="M215.47 145.83V43.33a1.65 1.65 0 0 1 1.11-1.57c4.32-1.56 16.1-3.33 34-3.33s29.64 1.77 34 3.33a1.65 1.65 0 0 1 1.1 1.57v102.5a1.67 1.67 0 0 1-1.67 1.67h-66.8a1.67 1.67 0 0 1-1.74-1.67z" fill="#fafafa"/><g fill="#fff"><path d="M231.94 39.17L219.8 147.5h17.74l12.22-109.07c-6.9.02-12.85.3-17.8.74zm22.93-.7l-12.23 109h9.8l12.18-108.63-9.75-.37z"/></g><g class="E"><path d="M265.54 36.76v112.16h-3.4V36.76zm-27.4.01v112.16h-3.4V36.77z"/></g><g class="B"><path d="M238.77 36.76v112.16h-.6V36.76zm27.38.01v112.16h-.6V36.77z"/></g><path d="M213.43 61.48h73.43v3.4h-73.43z" class="E"/><path d="M208.06 150.33h79.44v3.76h-79.44z" class="H"/><path d="M291.26 154.08h-3.76v-3.76h3.76z" class="B"/><path d="M55.58 17.58H75v5.5H55.58z" class="J"/><path fill="#e7e7e7" d="M65.3 23.07H84.7v5.5H65.3z"/><g class="H"><path d="M186.02 94.33h19.42v5.5h-19.42zm27.94 75.03h19.42v5.5h-19.42z"/></g><path fill="#e7e7e7" d="M96.5 176.57H77.08v-5.5H96.5z"/><path d="M134.74 12.1h19.42v5.5h-19.42z" class="J"/><g class="H"><path d="M138.75 165.58h19.42v5.5h-19.42zm142.8-2.74h19.42v5.5h-19.42z"/></g><g class="J"><path d="M129.04 171.07h19.42v5.5h-19.42zm98.44-142.52h-19.42v-5.5h19.42z"/></g><path d="M294.3 25.88a8.68 8.68 0 1 0 0-17.35h-1.05v17.35z" class="B"/><circle cx="293.26" cy="17.2" r="8.67" class="E"/><path d="M291.5 15.1c-1.5 1.9-3.5 2.78-4.5 2s-.56-3 .95-4.85 3.53-2.78 4.52-2 .53 2.97-.97 4.86z" opacity=".6" class="H"/><g class="B"><circle cx="293.26" cy="17.2" r="1.22"/><path d="M297.86 32.25h-6.76a2.58 2.58 0 0 1-2.57-2.58 2.58 2.58 0 0 1 2.57-2.57h6.76a2.58 2.58 0 0 1 2.57 2.57 2.58 2.58 0 0 1-2.57 2.58z"/></g><path d="M296.64 32.25h-6.75a2.59 2.59 0 0 1-2.58-2.58 2.58 2.58 0 0 1 2.58-2.57h6.75a2.58 2.58 0 0 1 2.57 2.57 2.58 2.58 0 0 1-2.57 2.58z" class="H"/><g class="B"><path d="M299.86 29.23l-.22-.68a4 4 0 0 0 2.59-5l.68-.2a4.67 4.67 0 0 1-3.05 5.89z"/><path d="M302.9 24.52a.69.69 0 0 1-.86-.45l-.24-.78a.67.67 0 0 1 .45-.86.69.69 0 0 1 .86.45l.24.78a.68.68 0 0 1-.45.86z"/></g><ellipse cx="160.22" cy="214.94" rx="41.13" ry="4.98" fill="#cdd2dd"/><g class="C"><path d="M162.58 124.8c75.7-126.82-100.53-19.26 0 0"/><path d="M142.25 118.45a16.88 16.88 0 0 0 8.14 1.64 13.71 13.71 0 0 0 10.16-5.49c2.83-3.46 4.5-7.54 6-11.7 1.22-3.36 2.38-6.73 3.8-10 1.3-3 3-5.86 4.27-8.88s2.73-6 2.8-9.35c0-.45.13-.87-.38-1.13 1.52-1.26 2.28-1.3 4.1-.3-.4.46.07.9 0 1.34v.7a6.39 6.39 0 0 0-.24 2.26.25.25 0 0 0-.31.23l-.1.35.54.37c-.28.43-1.2.34-1 1.2l-.18.3a1.58 1.58 0 0 0-.12.15s0 .06.05.1a21.45 21.45 0 0 1-2.51 5.77l-.35.67-.36.73a20.38 20.38 0 0 0-1.94 4.6 3 3 0 0 0 0 1.93 4 4 0 0 0-2.48 2.72.76.76 0 0 0 .53.82.7.7 0 0 0 .89-.37 5.13 5.13 0 0 0 1.06-3.17 2.34 2.34 0 0 0 1.21-1.13l1.93-4.8.26-.42.5-.94c.74-2.16 1.8-4.2 2.7-6.28a1.24 1.24 0 0 0 0-1.78c.3 0 .7.2.52-.4l-.18-.34c.75-.5.66-1.28.74-2 .22-.25.1-.53.07-.8.27-.5 0-1 0-1.44.9.1 1.33.88 2 1.3.74 2.77-.07 5.37-.88 8a26.48 26.48 0 0 1-2.56 5.9 43 43 0 0 0-4.9 13.78 5.61 5.61 0 0 1-.19.62c-.45-.57-1.14-.58-1.75-.78a18 18 0 0 1-3.4-2 1.85 1.85 0 0 0-2.91 1c-.1.25-.25.52.15.62 1.23.3.78 1.18.6 1.9-.7 2.86.23 4.87 2.84 6.26a4.49 4.49 0 0 0 3 .38 36.94 36.94 0 0 1-3.14 9.26 15.41 15.41 0 0 1-5 5.26 6.31 6.31 0 0 1-6.13.69 11.31 11.31 0 0 0-2.89-.86c-6.52-1-12.24-3.8-17.67-7.36a4.89 4.89 0 0 1 2.73.88zm23.58-2.55c-.8 1.57-.6 2.9.53 3.58a2.84 2.84 0 0 0 4-.91 27.81 27.81 0 0 0 1.95-3.85 1.67 1.67 0 0 0-.9-2.46c-3-1.45-2.94-1.5-4.43 1.42l-.17.35z"/></g><path d="M139.55 117.6a4.89 4.89 0 0 1 2.7.84 16.88 16.88 0 0 0 8.14 1.64 13.71 13.71 0 0 0 10.16-5.49c2.83-3.46 4.5-7.54 6-11.7 1.22-3.36 2.38-6.73 3.8-10 1.3-3 3-5.86 4.27-8.88s2.73-6 2.8-9.35c0-.45.13-.87-.38-1.13a11 11 0 0 0-3 4.06c-1.82 3.4-3.1 7-4.76 10.52a4.31 4.31 0 0 1-4.27 2.64 21.38 21.38 0 0 1-9.42-2.45l-.24-.1a6.18 6.18 0 0 1-1.93-.85 1 1 0 0 0-1.34.37c-.4.58-.83 1.12-1.26 1.68l.52.3c1.44.87-.3 1.2-.3 1.83a59.78 59.78 0 0 0 8.57 3.65c2.33.8 3.27 2.06 3 4.22-.28.6-.6 1.18-.83 1.8a42.77 42.77 0 0 1-6.9 12.29c-1.7 2-3.68 3.27-6.54 2.53a42.71 42.71 0 0 1-7-2.49 43.07 43.07 0 0 1-11.25-6.89l-.2.06a12.39 12.39 0 0 0 4.32 7 37 37 0 0 0 5.36 3.92z" class="F"/><path d="M153.23 86.4c.32-.27.58-.55 1-.26a14.74 14.74 0 0 0 2.31.9c1 .47 1.57 0 1.92-.9l1.74-4.5a1.33 1.33 0 0 0-.84-2A74.68 74.68 0 0 1 150 75c-1.1-.6-1.72-.52-2.35.53q-1.23 2.1-2.53 4.13a1.06 1.06 0 0 0 .18 1.6 8.66 8.66 0 0 0 1.61 1.1c.87.4.7.8.13 1.3a19 19 0 0 1-4.47-4.35c-.68-1.62-1.46-3.2-.2-4.93a67.12 67.12 0 0 1 4.9-6.13c3.57-3.8 7.43-7.16 12.87-8a9.53 9.53 0 0 1 6.67 2.27 7.59 7.59 0 0 0 1.49.8l.4.26c.45.84 1.4.94 2.12 1.36l3.77 1.64c.66.3 1.2.88 2 .8l.46.3.2.1 3.95 1.4a5.46 5.46 0 0 1 3 3 5.92 5.92 0 0 1 .16 2.71c-.68-.42-1.12-1.2-2-1.3-.47.1-.77-.35-1.2-.38-1.82-1-2.58-1-4.1.3a11 11 0 0 0-3 4.06c-1.82 3.4-3.1 7-4.76 10.52a4.31 4.31 0 0 1-4.31 2.68 21.38 21.38 0 0 1-9.42-2.45l-.24-.1a6.18 6.18 0 0 1-1.93-.85c-.1-.3-.73-.48-.18-.95zm9-8.3c3.8 1.1 5.5.5 7.46-3 1.28-2.3 2.54-4.6 4.78-6.14.54-.37.4-.73-.14-1s-1.33-.44-2-.75a41.49 41.49 0 0 1-6.91-4 8.36 8.36 0 0 0-9.94.15 18.16 18.16 0 0 0-5.64 5.93c-.9 1.74-.68 2.57 1 3.55 1.33.76 2.73 1.4 4.1 2.1a36.33 36.33 0 0 0 7.3 3.16z" class="K"/><path d="M144.77 101.83a34.32 34.32 0 0 0 5.84 2.32 6.25 6.25 0 0 0 5.41-.61c0 .16.17.38.1.48-2 3.18-3.56 6.63-6.46 9.12a4.42 4.42 0 0 1-3.5.76c-4.56-.48-8.44-2.62-12.3-4.9-1.3-.76-2.17-2.17-3.78-2.37l-.2.06a7 7 0 0 1-1.06-5.72 29.21 29.21 0 0 1 3-8.3c3.4 4.33 8.17 6.77 12.94 9.16zm-11.63-5.38c-.67-.6-1.28-.5-1.64.4-1.14 2.82-.8 5.37 2.4 7 1.24.64 2.45 1.32 3.64 2.07a15.52 15.52 0 0 0 6.09 2.25 5.32 5.32 0 0 0 4.47-1.79c.6-.58.26-1.1-.42-1.43l-5-2.55a40 40 0 0 1-9.54-5.94z" class="F"/><path d="M131.85 92.67c3.37 4.36 8.15 6.77 12.92 9.16a34.32 34.32 0 0 0 5.84 2.32 6.25 6.25 0 0 0 5.41-.61 15.79 15.79 0 0 0 3-4.08 1.7 1.7 0 0 1 2.46-.75 8.15 8.15 0 0 1 1.11.69c.24-2.16-.7-3.42-3-4.22a59.78 59.78 0 0 1-8.59-3.65c-.57.22-.84.74-1.2 1.18a25.62 25.62 0 0 1 4.32 1.92c.5.23.7.5.18 1a9.56 9.56 0 0 0-1.93 3.11c-1 2-1.7 2.38-3.8 1.7-4.55-1.5-8.46-4.15-12.2-7.06-2.54-2-2.57-3.64-.45-6.07a2.39 2.39 0 0 1 3.25-.76A3.88 3.88 0 0 1 141 88c.62-.22.73-.9 1.12-1.3a35.47 35.47 0 0 0-3.47-2.5 5.53 5.53 0 0 0-4.48 2.49A21.52 21.52 0 0 0 132 90a3 3 0 0 0-.15 2.67z" class="K"/><g class="F"><path d="M176.6 67.4l.46.3a.16.16 0 0 1 .19.09l3.95 1.4a5.46 5.46 0 0 1 3 3l.5-.4a6.84 6.84 0 0 1 2.38-2.22c2.8-2 5.2-1.2 6.32 2.07 1.24 3.7 1 7.43.2 11.14a73.08 73.08 0 0 1-7.9 20.2.91.91 0 0 1 .16.11 3 3 0 0 0 2.57-1.89c3.2-5.83 5.92-11.83 7-18.46a31.59 31.59 0 0 0 .32-8.63c-.92-8.44-9.1-12.8-16.55-8.84-.67.36-1 .46-1-.45 0-.45 0-1-.45-1.33-.32 1.3-.32 2.7-1.15 3.9zm-16.48-7.12a9.53 9.53 0 0 1 6.67 2.27 7.59 7.59 0 0 0 1.49.8c-.14-.32-.5-.5-.14-1a13.63 13.63 0 0 1 2.63-2.89 2.43 2.43 0 0 1 3.23-.23c1.6.25 2.45 1.44 3.3 2.6a7.43 7.43 0 0 0-3.31-4.93c-3.57-2.73-7.15-2.68-10.75.06a10.87 10.87 0 0 0-3.13 3.31z"/></g><path d="M171.67 119.52a32.23 32.23 0 0 0 7.29-7.59 41.52 41.52 0 0 0 4.71-7.37l-.43-.14c-.8.4-1.53 0-2.25-.28-.5-.15-.78-.2-1.08.3a44 44 0 0 1-4.45 6.13 1.44 1.44 0 0 0-.4.66 20.83 20.83 0 0 1-3.39 8.28z" class="D"/><path d="M138.67,84.14a35.47,35.47,0,0,1,3.47,2.5,1.88,1.88,0,0,1,2.73-.29l2.14-2.7a19,19,0,0,1-4.47-4.35Z" fill="#256ca4"/><path d="M171.67 119.52a20.83 20.83 0 0 0 3.39-8.28 1.44 1.44 0 0 1 .4-.66 44 44 0 0 0 4.45-6.13c.3-.5.6-.46 1.08-.3.72.23 1.44.7 2.25.28a9 9 0 0 1-3.19-2.31 72.09 72.09 0 0 1-4.51 6.84l-1.14 1.67a36.94 36.94 0 0 1-3.14 9.26z" class="L"/><path d="M177.3 61.85c-.86-1.17-1.7-2.36-3.3-2.6-.4.2-.93.08-1.24.5l.05.12 1 .16c1.46-.3 2.14.65 2.75 1.7a3.52 3.52 0 0 1 .48 2.09c-.07.6.18 1.33-.55 1.54s-.6-.73-1-1c-.44.68-.35 1.58-.9 2.22.66.3 1.2.88 2 .8.83-1.2.83-2.6 1.12-3.94z" class="D"/><path d="M180.05 102.1a9 9 0 0 0 3.19 2.31l.43.14a5.32 5.32 0 0 0 2.19-1.49.91.91 0 0 0-.16-.11 5 5 0 0 1-4-1.16c-.48-.36-.76-1-1.37-1.17a2.3 2.3 0 0 0-.28 1.48z" class="F"/><path d="M174.4 110.62a4.49 4.49 0 0 1-3-.38c-2.6-1.4-3.53-3.4-2.84-6.26.17-.72.62-1.6-.6-1.9-.4-.1-.24-.37-.15-.62a1.85 1.85 0 0 1 2.91-1 18 18 0 0 0 3.4 2c.6.2 1.3.2 1.75.78.6 2 .12 3.88-.3 5.8zm.33-3a10.45 10.45 0 0 0 .31-1.67c.2-1.32 0-2.37-1.67-2.46-.12 0-.24-.1-.36-.13-.57-.14-.82-1.18-1.5-.7-.45.3-.07 1.05-.2 1.6a13 13 0 0 0-.28 2.33 1.8 1.8 0 0 0 1.18 2c1.3.63 2.12.3 2.5-1z" class="K"/><path d="M166.78 114l-.95 1.87c-.8 1.57-.6 2.9.53 3.58a2.84 2.84 0 0 0 4-.91 27.81 27.81 0 0 0 1.95-3.85 1.67 1.67 0 0 0-.9-2.46c-3-1.45-2.94-1.5-4.43 1.42l-.2.35z" class="F"/><path d="M174.6 93.92a4 4 0 0 0-2.48 2.72.76.76 0 0 0 .53.82.7.7 0 0 0 .89-.37 5.13 5.13 0 0 0 1.06-3.17z" fill="#35156b"/><g fill="#b08ee6"><path d="M174.6 93.92z"/><path d="M174.6 92a20.38 20.38 0 0 1 1.94-4.56l1.2.57-1.92 4.8a2.29 2.29 0 0 1-1.21 1.12 2.94 2.94 0 0 1-.01-1.92zm6.56-16.74v-.7c0-.45-.44-.88 0-1.34.43 0 .73.47 1.2.38.06.48.3 1 0 1.44 0 .27.15.55-.07.8-.08.73 0 1.52-.74 2l-.65-.32a6.39 6.39 0 0 1 .24-2.26z"/><path d="M176.9 86.7l.35-.68a21.45 21.45 0 0 0 2.56-5.82l.07-.25.18-.3c-.2-.85.7-.76 1-1.2l-.54-.37c0-.1.07-.23.1-.35a.25.25 0 0 1 .31-.23l.65.32.18.34c.2.6-.23.42-.52.4a1.24 1.24 0 0 1 0 1.78l-2.7 6.28-.5.94-.26.42-1.2-.57z"/></g><g fill="#469393"><path d="M179.8 80.2l.07-.25a1.58 1.58 0 0 0-.12.15l.05.1zm.7-2.1z"/></g><path d="M162.63 99.4a8.15 8.15 0 0 0-1.11-.69 1.7 1.7 0 0 0-2.46.75 15.79 15.79 0 0 1-3 4.08c0 .16.17.38.1.48-2 3.18-3.56 6.63-6.46 9.12a4.42 4.42 0 0 1-3.5.76c-4.56-.48-8.44-2.62-12.3-4.9-1.3-.76-2.17-2.17-3.78-2.37a43.07 43.07 0 0 0 11.25 6.89 42.71 42.71 0 0 0 7 2.49c2.86.74 4.84-.53 6.54-2.53a42.77 42.77 0 0 0 6.9-12.29c.18-.6.53-1.2.8-1.8z" class="C"/><path d="M151.34 89.7c-.43 1.43-1.74 2.15-2.63 3.2-.4.46-.9-.15-1.37 0l-.4-.23a22.91 22.91 0 0 0-5.86-2.91c-.55-.14-.92-.42-.75-1.06l.7-.73c.62-.22.73-.9 1.12-1.3a1.88 1.88 0 0 1 2.73-.29l.9.4 1.17.6 1.57.84 2.3 1.2zm-8.72-1.84c-.3.35-1.07.7-.3 1.32l4.9 2.53c.75.37 2.53-.86 2.5-1.67 0-.32-.27-.43-.5-.54l-1.78-.84-2.97-1.55c-.97-.63-1.4.2-1.86.75z" class="F"/><path d="M151.34 89.7c-.43 1.43-1.74 2.15-2.63 3.2-.4.46-.9-.15-1.37 0a.33.33 0 0 0 .07.13c.6.2 1.12.67 1.8.35l.62-.66c.35-.44.62-1 1.2-1.18.02-.63 1.75-.97.3-1.84z" class="C"/><path d="M155.6 88.3l-.24-.1z" class="D"/><path d="M150.93 72.88c-1.72-1-2-1.8-1-3.55a18.16 18.16 0 0 1 5.64-5.93 8.36 8.36 0 0 1 9.94-.15 41.49 41.49 0 0 0 6.91 4c.62.3 1.3.48 2 .75s.68.58.14 1c-2.24 1.54-3.5 3.83-4.78 6.14-1.95 3.52-3.65 4.1-7.46 3A36.33 36.33 0 0 1 155 75l-4.07-2.12zm12.82-9.1c-2-.82-4-1.34-6.08-.34-.3.14-.73.18-.75.63a1.06 1.06 0 0 0 .71 1 32.94 32.94 0 0 0 3.43 1.68 21.1 21.1 0 0 1 7.12 4.09c.82.73 1.47.87 2.1-.22a3.39 3.39 0 0 1 1.2-1c1-.6.95-1 0-1.58-.83-.5-1.72-.88-2.83-1.45-1.66-.58-3.08-2.04-4.9-2.8z" class="G"/><path d="M174.58 66.6c.55-.64.46-1.54.9-2.22l-.48-2a.6.6 0 0 1-.36-.49l-.42-.27-.5-.13c-.9 1.22-2.13 2.13-2.9 3.44z" class="C"/><path d="M170.8 65c.78-1.3 2-2.22 2.9-3.44-.8-.3-2-.35-.9-1.66l-.05-.12c-1.7.93-2.53 2.76-4.07 3.86.45.8 1.4.9 2.12 1.36z" class="D"/><path d="M168.7 63.6c1.54-1.1 2.37-2.93 4.07-3.86.3-.43.84-.3 1.24-.5a2.43 2.43 0 0 0-3.23.23 13.63 13.63 0 0 0-2.63 2.89c-.35.5 0 .67.14 1z" class="C"/><path d="M177.25,67.8a.16.16,0,0,0-.19-.09Z" class="D"/><path d="M147.68 105c.68.34 1 .85.42 1.43a5.32 5.32 0 0 1-4.47 1.79 15.52 15.52 0 0 1-6.09-2.25l-3.64-2.07c-3.2-1.65-3.54-4.2-2.4-7 .36-.9 1-1 1.64-.4a40 40 0 0 0 9.51 6l5.03 2.5zm-14.36-7c-.3-.2-.65-.55-1.06-.2s-.27.7-.16 1.1a3.76 3.76 0 0 0 2 2.36c3.56 1.76 6.86 4.1 10.8 5a3.12 3.12 0 0 0 .5.14c.65 0 1.5.14 1.72-.54.16-.52-.7-.63-1.14-.87-1.4-.74-2.8-1.44-4.62-2.36a54 54 0 0 1-8.05-4.61z" class="C"/><path d="M149.84 92.7l-.62.66 2.24 1.1c.4.2.64.46.48.93a2.27 2.27 0 0 1-3.35 1.39l-3.5-2c-.4 0-.8.1-1.18.12a3.54 3.54 0 0 1-3.64-3.19 9.08 9.08 0 0 1-3.2-2.6c-.25-.3-.7-.64-.3-1.13a1.2 1.2 0 0 1 1.27-.46 5.47 5.47 0 0 1 2.3 1.17l.7-.73a3.88 3.88 0 0 0-1.8-1.45 2.39 2.39 0 0 0-3.25.76c-2.12 2.43-2.1 4.1.45 6.07 3.74 2.9 7.65 5.57 12.2 7.06 2.08.68 2.76.26 3.8-1.7a9.56 9.56 0 0 1 1.93-3.11c.5-.44.33-.72-.18-1a25.62 25.62 0 0 0-4.32-1.9z" class="G"/><path d="M184.7 71.78a5.12 5.12 0 0 1 1.8 4.19 27.77 27.77 0 0 1-1.72 9.51 71 71 0 0 1-4.3 10.59c-.8 1.58-1.28 3-.14 4.56.6.22.9.8 1.37 1.17a5 5 0 0 0 4 1.16 73.08 73.08 0 0 0 7.9-20.19c.77-3.7 1.05-7.45-.2-11.14-1.1-3.27-3.53-4.07-6.32-2.07a6.84 6.84 0 0 0-2.4 2.22z" class="C"/><path d="M172.8 59.87c-1.1 1.3.1 1.37.9 1.66.24-.24.4-.16.5.13l.42.27c.46-.1.36.24.36.5l.48 2c.42.25.34 1.18 1 1s.48-1 .55-1.54a3.52 3.52 0 0 0-.48-2.09 7.1 7.1 0 0 1-2.73-1.79z" class="I"/><g class="G"><path d="M173.8 60a7.1 7.1 0 0 0 2.75 1.71c-.56-1.03-1.3-2-2.75-1.7zm-2.8 46.57a13 13 0 0 1 .28-2.33c.12-.56-.26-1.3.2-1.6.68-.47.93.57 1.5.7.12 0 .24.13.36.13 1.65.1 1.87 1.14 1.67 2.46a10.45 10.45 0 0 1-.31 1.67c-.4 1.28-1.2 1.62-2.5 1a1.8 1.8 0 0 1-1.18-2.03zm1.58-.46c.26.42.62.83 1.17.63s.6-.87.7-1.43 0-1-.6-1.1a3.31 3.31 0 0 1-1.73-.85 3.35 3.35 0 0 0 .5 2.76zm-25.64-18.75l1.57.84 1.42-2.1c.42-.73.53-1.3-.27-1.77a8.46 8.46 0 0 0-2.72 3.04z"/></g><path d="M146.94 87.36a8.46 8.46 0 0 1 2.72-3c-.42-1-.93-1.2-1.54-.46l-2.35 2.9z" class="I"/><g class="D"><path d="M140.26 91.7a3.54 3.54 0 0 0 3.64 3.19c.4 0 .78-.08 1.18-.12a7.41 7.41 0 0 0 2.33-1.77.33.33 0 0 1-.07-.13l-.4-.24-2.16-1c-.58.7-1.2.2-1.8.07a7.3 7.3 0 0 1-.36.68c-.18.26-.2.8-.66.62a1.44 1.44 0 0 1-.6-.79c-.32-.8.36-1.36.6-2l-.73-.38zm2.07-2.52l4.9 2.53c.75.37 2.53-.86 2.5-1.67 0-.32-.27-.43-.5-.54l-1.78-.84c-1.06 1-2.1 2-3.64.73-1.2-.78.16-1.37.15-2-.96.2-1.2 1.1-1.63 1.8z"/></g><path d="M140.26 91.7l1-1.86-.15-.1c-.55-.14-.92-.42-.75-1.06a5.47 5.47 0 0 0-2.3-1.17 1.2 1.2 0 0 0-1.27.46c-.38.5.06.83.3 1.13a9.08 9.08 0 0 0 3.16 2.6z" class="M"/><path d="M143.8 89.4c1.53 1.3 2.58.25 3.64-.73l-2.07-1.08a3.22 3.22 0 0 0-1.57 1.81z" class="G"/><path d="M143.8 89.4a3.22 3.22 0 0 1 1.57-1.81l-.9-.47-.53.23c.04.66-1.34 1.27-.15 2.05z" class="I"/><path d="M144 87.34l.53-.23c-1-.63-1.4.2-1.87.75-.3.35-1.07.7-.3 1.32.4-.7.63-1.58 1.63-1.84z" class="C"/><path d="M141.07 89.74l.15.1.73.38.94.5 1.88.94 2.16 1a22.91 22.91 0 0 0-5.86-2.92z" fill="#469393"/><g class="M"><path d="M147.4 93a7.41 7.41 0 0 1-2.33 1.75l3.5 2a2.27 2.27 0 0 0 3.35-1.39c.16-.47-.08-.74-.48-.93l-2.24-1.1c-.7.37-1.22-.1-1.8-.32zm21.22-26.4c-1.62-.56-3-2-4.87-2.82s-4-1.34-6.08-.34c-.3.14-.73.18-.75.63a1.06 1.06 0 0 0 .71 1 32.94 32.94 0 0 0 3.43 1.68 21.1 21.1 0 0 1 7.12 4.09c.82.73 1.47.87 2.1-.22a3.39 3.39 0 0 1 1.2-1c1-.6.95-1 0-1.58l-2.87-1.44z"/></g><g class="D"><path d="M175 62.4c0-.25.1-.58-.36-.5a.6.6 0 0 0 .36.49zm-.78-.77c-.1-.3-.26-.37-.5-.13z"/></g><path d="M141.33 102.6a54 54 0 0 1-8-4.62c-.3-.2-.65-.55-1.06-.2s-.27.7-.16 1.1a3.76 3.76 0 0 0 2 2.36c3.56 1.76 6.86 4.1 10.8 5a3.12 3.12 0 0 0 .5.14c.65 0 1.5.14 1.72-.54.16-.52-.7-.63-1.14-.87l-4.67-2.35z" class="F"/><path d="M172.16 103.35a3.35 3.35 0 0 0 .46 2.76c.26.42.62.83 1.17.63s.6-.87.7-1.43 0-1-.6-1.1a3.31 3.31 0 0 1-1.73-.85z" class="M"/><path d="M150.38 77.56a.41.41 0 0 1 0 .11l.35.48 1 1.1a7.47 7.47 0 0 1 1.86 1.27l1.72.33c.38 0 .84.6 1.1-.1s-.27-.76-.66-1L150.18 77c-.46-.18-.54-.07-.8-.18-.55 0-1 .3-.93.88s.54.5.9.6l1.1.37.27-.5c-.2-.1-.38-.2-.35-.47" class="G"/><g class="D"><path d="M147 83.65l-2.14 2.7.9.4 2.35-2.9c.6-.73 1.12-.57 1.54.46.8.48.66 1.14.27 1.77l-1.42 2.1 2.3 1.2 1.26-1.68a1 1 0 0 1 1.34-.37c-.1-.3-.74-.48-.2-.95.32-.27.58-.55 1-.26a14.74 14.74 0 0 0 2.31.9c1 .47 1.57 0 1.92-.9l1.74-4.5a1.33 1.33 0 0 0-.84-2A74.68 74.68 0 0 1 150 75c-1.1-.6-1.72-.52-2.35.53q-1.23 2.1-2.53 4.13a1.06 1.06 0 0 0 .18 1.6 8.66 8.66 0 0 0 1.61 1.1c.84.4.68.8.1 1.3zm.48-3.36c-.38.08-1.4-.18-.88-1.32a28 28 0 0 1 1.72-2.69c.33-.56.52-.5 1-.27l7.14 3.56.7.44c.07.74.58 1.64-.56 2a3.83 3.83 0 0 0-1.84 1.12 1.45 1.45 0 0 1-2.08.18 13.88 13.88 0 0 1-1.3-1.09c-1.16-.9-2.03-2.32-3.9-1.93zm5.94 1.88z"/><path d="M155.32 80.85a.8.8 0 0 1-.82.25c-.9-.17-1.2.2-1.08 1.06a3.29 3.29 0 0 1-1-1.21l1.15-.43zm-4.57-2.7l-.01.01.01-.01z"/><path d="M151.74 79.25c-.8.58-.72-.66-1.26-.62l.26-.48z"/></g><path d="M153.43,82.17v.12" class="L"/><path d="M142.9 90.72l-.94-.5c-.25.66-.93 1.2-.6 2a1.44 1.44 0 0 0 .6.79c.45.17.48-.36.66-.62a7.3 7.3 0 0 0 .36-.68.7.7 0 0 1-.07-.99z" class="I"/><path d="M142.9 90.72a.7.7 0 0 0 .07 1c.6.14 1.23.62 1.8-.07z" class="G"/><g class="L"><path d="M150.74 78.15l-.35-.48c0 .27.16.37.35.47z"/><path d="M150.4 77.67a.41.41 0 0 0 0-.11h-.06l.08.15z"/></g><path d="M147.5 80.3c1.86-.4 2.73 1 3.9 1.9a13.88 13.88 0 0 0 1.3 1.09 1.45 1.45 0 0 0 2.08-.18 3.83 3.83 0 0 1 1.84-1.11c1.14-.34.63-1.24.56-2l-.7-.44-7.14-3.56c-.48-.24-.67-.3-1 .27a28 28 0 0 0-1.72 2.73c-.5 1.1.5 1.37.88 1.3z" class="I"/><path d="M156.63 80.36l-.57.72a.54.54 0 0 1-.27.23.63.63 0 0 1-.4-.06 55.66 55.66 0 0 1-5.15-2.35 9.06 9.06 0 0 1-2.2-1.46l.72-.5a1 1 0 0 1 .33-.18 1 1 0 0 1 .57.11l3.4 1.54 3.23 1.66a1 1 0 0 1 .35.26" class="G"/><g fill="#aaaaa9"><path d="M174.9 121.56s-.18.27-.54.72c-.16.23-.4.5-.64.8s-.56.63-.9 1l-1.1 1.1-1.3 1.12c-.44.4-1 .74-1.5 1.07a15.65 15.65 0 0 1-1.65.94l-.85.42-.87.35a13.63 13.63 0 0 1-1.75.56 14.09 14.09 0 0 1-1.68.36 8.68 8.68 0 0 1-1.54.18c-.48 0-.93.1-1.32.1h-1.9l.88.17 1 .17a9.11 9.11 0 0 0 1.34.08 8 8 0 0 0 1.61 0 11.47 11.47 0 0 0 1.77-.26 12.93 12.93 0 0 0 1.86-.52 14 14 0 0 0 1.83-.79 17.07 17.07 0 0 0 1.71-1 18.53 18.53 0 0 0 1.52-1.18 16.93 16.93 0 0 0 1.28-1.25l.56-.6.48-.6c.32-.38.55-.77.78-1.1a7.9 7.9 0 0 0 .53-.89 7.11 7.11 0 0 0 .41-.91zm2.47 2.16s-.14.24-.43.64a17.65 17.65 0 0 1-1.22 1.6l-.87 1-1 1.06c-.3.37-.77.7-1.2 1a12.59 12.59 0 0 1-1.31 1l-.67.46-.7.4a10.78 10.78 0 0 1-1.41.69 10.17 10.17 0 0 1-1.38.52 8.89 8.89 0 0 1-1.27.37l-1.1.25-.87.12-.76.13h1.67a10.15 10.15 0 0 0 1.15-.09l.67-.08a6.77 6.77 0 0 0 .69-.16 8.87 8.87 0 0 0 1.49-.43 9.64 9.64 0 0 0 1.52-.67l.75-.4.72-.47a12.54 12.54 0 0 0 1.36-1 16.1 16.1 0 0 0 1.19-1.14l1-1.18.8-1.13a14.19 14.19 0 0 0 1-1.8 6.6 6.6 0 0 0 .2-.68zm-4.55-71.94a3.58 3.58 0 0 0-.55-.3 8.82 8.82 0 0 0-1.56-.54 10.53 10.53 0 0 0-1.1-.18 9.81 9.81 0 0 0-1.24-.08l-1.33.06-1.35.2-1.32.34-1.25.44-1.13.5-1 .54a13.63 13.63 0 0 0-1.37.9l-.5.37s.22-.07.58-.22l1.5-.62 1-.4 1.13-.37c.4-.15.8-.22 1.22-.35s.85-.2 1.27-.3.86-.15 1.28-.23.85-.1 1.25-.12h2.24a14.94 14.94 0 0 1 1.59.21zm-1.92-2.5a2.69 2.69 0 0 0-.46-.34 6.54 6.54 0 0 0-.59-.29 4.9 4.9 0 0 0-.82-.28 5.9 5.9 0 0 0-1-.17 8.54 8.54 0 0 0-1.14 0 8.31 8.31 0 0 0-1.21.14 9.88 9.88 0 0 0-1.22.3 9.19 9.19 0 0 0-1.18.43 7.3 7.3 0 0 0-1.09.52 9.88 9.88 0 0 0-1 .56l-.82.57c-.5.35-.88.73-1.16 1l-.42.38.52-.25 1.3-.67.88-.43c.3-.17.65-.28 1-.44a11.17 11.17 0 0 1 1.06-.43 19.2 19.2 0 0 1 2.26-.69c.37-.1.75-.14 1.1-.2s.72-.08 1.06-.08a7.33 7.33 0 0 1 .95 0 5.74 5.74 0 0 1 1.96.37zm112.22 62.33l-.78-.26-2.2-.67-3.48-1-4.54-1.1-5.42-1.1-6.1-1-6.56-.8-6.8-.52-3.43-.1h-3.4l-6.6.22-6.16.6-2.83.4-1.35.18-1.3.27-4.57 1-3.46 1-3 .92 3-.76 3.5-.86 5.87-1.05 1.35-.15 2.82-.32c1.94-.27 4-.32 6.13-.47l6.56-.16h1.7l1.7.07 3.4.13 6.78.45 6.53.75 6.1.9 5.42 1 4.57.93 3.5.8 3.08.72zm10-2.93l-2.9-1-3.38-1.05-4.44-1.2-5.3-1.24-6-1.14-6.42-.93-3.32-.4-3.35-.3-3.36-.23-3.34-.1c-2.2-.12-4.38-.06-6.5 0l-6.06.28-2.8.2-2.6.3-4.56.6-3.48.65-3 .58 3-.42 3.5-.5 4.56-.43 2.6-.24 2.8-.12 6-.16 6.46.1 3.32.13 6.67.52 3.3.36 6.4.87 6 1 5.3 1.1 7.88 2 3 .78zM302.38 64l-3.1-.2-3.56-.1c-1.38 0-2.93-.07-4.63 0l-5.47.1-6.1.27-6.5.5-6.7.7-3.36.43-3.33.5-6.44 1.1-6 1.24-2.76.63-2.56.66-4.47 1.2-3.4.97-3 1 3-.78 3.44-.92 7.07-1.65 2.77-.55 6-1.13 6.43-1 3.32-.5 3.35-.4 6.68-.75 6.5-.55 6.1-.4 5.45-.23 8.18-.15 3.1-.02zm6.84-2.7l-3.4-.33-3.93-.27-5.1-.2-6-.07-6.75.13-7.2.4-7.43.66-3.72.43-3.67.54-3.6.55-3.5.65-3.38.64-3.22.76-3 .72-2.82.77-4.9 1.4-3.72 1.3-3.24 1.13 7.05-2.14 4.94-1.25 2.83-.7 3-.65 3.2-.67 6.9-1.22 3.6-.52 3.66-.5 3.7-.4 7.4-.72 7.18-.46 6.73-.24 6-.08 9 .15 3.45.2z"/></g><path d="M350.4 109.12s.67 6.5 6.22 6.5c2.54 0 .23-3.37.23-3.37z" fill="#d3c1c1"/><path d="M331.18 151.2l-2.56-3.66s-3-2.55-3.76.4a62.41 62.41 0 0 1-5 12.63c-1.8 4.1-1.95 6.1-1.78 9.1a1.84 1.84 0 0 0 .58 1.28.73.73 0 0 0 1.12.07c.8-.8 6.78-8.7 7.57-9.26s1.73.55 2.1.2-.14-2-.8-3.18-1.1-3.35 0-4.47 2.3-1 2.7-1.9.1-1-.18-1.24z" fill="#fff"/><path d="M332.55 151.4l-3.93-3.84s-1-.62-1.77 2.34a48.42 48.42 0 0 1-4.59 11c-.75 1.36-3.45 6.94-3 9.86 0 0 .28 1 1.08.2s6-7.2 6.78-7.78 3.68.93 3.68.93 4.1-7.2 5.2-8.32-3.16-4.16-3.46-4.4z" fill="#3d3a6d"/><path d="M382 115.56c0 8.45-4.27 16-12.72 16s-16.65.5-16.65-7.95 6.86-23.74 15.3-23.24c13.92.86 14.08 6.74 14.08 15.2z" fill="#282424"/><path d="M392.3 91.55a113.66 113.66 0 0 1-10.44 24.18s-4.24 1.57-11.92.64c-3.85-.47-23.6-5.18-18.77-8.34 3.4-2.24 9.18-4 9.13-7.66 0-1.2-.07-2.5-.13-3.82-.28-5.6-.87-11.58-.87-11.58l.8-2.14 5.9-15.67s7.8-2 14.18-.93a35.47 35.47 0 0 1 7.82 2.42 11.25 11.25 0 0 1 6.74 8.85c.55 3.84-.93 8.98-2.45 14.05z" fill="#fff"/><path d="M373 128.3s1.94 36.35-5.1 40.76c-5.87 3.68-28.44-2-41.1-5.1l5.6-14.56 24.4 7.26a1.36 1.36 0 0 0 1.73-1.57l-5.8-29.58z" fill="#282424"/><path d="M359.92 93.35l-.63-8.38.8-2.14L369.8 69c8.5 17.06-9.87 24.35-9.87 24.35z" fill="#e4e1f9"/><path d="M368.1 67.4a3.25 3.25 0 0 0-2-.13l-.06-.1s-30.84 13.6-31.7 21.35c-.28 2.43 22.2 23.74 22.2 23.74l3.72-5.92-10.14-14.78.23-.1.5-.18 11-4a5.07 5.07 0 0 0 1.14-.41h.06c2.2-1.12 4.48-3.8 6-7.36 2.3-5.5 1.88-10.9-.95-12.1z" fill="#fcbe86"/><path d="M350.8 91.28l-.5.18-.23.1-5.34-2.22a.25.25 0 0 1-.08-.34.25.25 0 0 1 .34-.09c.2.12 3.27 1.37 5.27 2.18z" fill="#f4906c"/><g fill="#fcbe86"><path d="M366.3 110.33c-.5-.18-1-.7-1.57-1.77a.36.36 0 0 0-.24-.18c-.35-.1-.9 0-1.3 0a2.14 2.14 0 0 1-.34-.09 9.9 9.9 0 0 1-3.14-2.07c.84-.12 5.84.2 6.07.63.1.15 1.7 3.9.52 3.48zm-4.52 4.27v.05c.1.2.2 1-.15 1.25-.5.3-1.74-.18-1.74-.18l.5-1.55z"/><path d="M360.64 115.9c-1.8.14-5.24-5.3-5.24-5.3v-.26a4 4 0 0 1 3.43-4.25 3.92 3.92 0 0 1 1.74.23 8.8 8.8 0 0 1 3.3 2c.4.42 1.63 1.95 1.46 2.5a5.44 5.44 0 0 1-.4.88 3.67 3.67 0 0 1-.26.47v.06l-.28.44-.56.8-.36.44-.2.23-.4.4a4.6 4.6 0 0 1-.39.38 2.83 2.83 0 0 1-.43.36 2.73 2.73 0 0 1-1.43.64z"/></g><path d="M354.84 91.45s-10-8.6-11.86-15.13l24.4-12.47A20 20 0 0 1 372 78.3s-2.82 11.1-17.16 13.15z" fill="#e4e1f9"/></g></svg>