<?xml version="1.0" encoding="UTF-8"?>
<svg width="35px" height="35px" viewBox="0 0 35 35" version="1.1" xmlns="http://www.w3.org/2000/svg" xmlns:xlink="http://www.w3.org/1999/xlink">
    <!-- Generator: Sketch 47.1 (45422) - http://www.bohemiancoding.com/sketch -->
    <title>Group 21</title>
    <desc>Created with Sketch.</desc>
    <defs></defs>
    <g id="Page-1" stroke="none" stroke-width="1" fill="none" fill-rule="evenodd">
        <g id="sv.co/fb" transform="translate(-1038.000000, -4076.000000)" fill-rule="nonzero" fill="#008AC1">
            <g id="Group-21" transform="translate(1038.000000, 4076.000000)">
                <path d="M34.4415039,11.9149023 L26.8084961,11.9149023 C26.4999902,11.9149023 26.25,12.1648926 26.25,12.4733984 C26.25,12.7819043 26.4999902,13.0318945 26.8084961,13.0318945 L33.8830078,13.0318945 L33.8830078,16.3829395 L26.8084961,16.3829395 C26.4999902,16.3829395 26.25,16.6329297 26.25,16.9414355 C26.25,17.2499414 26.4999902,17.4999316 26.8084961,17.4999316 L33.8830078,17.4999316 L33.8830078,29.414834 L26.8084961,29.414834 C26.4999902,29.414834 26.25,29.6648242 26.25,29.9733301 C26.25,30.2818359 26.4999902,30.5318262 26.8084961,30.5318262 L33.8830078,30.5318262 L33.8830078,33.8828711 L25.1330078,33.8828711 L25.1330078,10.7655078 C25.1944629,10.7872461 25.2572168,10.7980469 25.319082,10.7980469 C25.5440527,10.7980469 25.7562402,10.6610547 25.8410742,10.4382031 C25.9509277,10.1499316 25.8062109,9.82727539 25.5179395,9.71742187 L18.0584961,6.87572266 L18.0584961,1.86169922 L21.409541,1.86169922 L21.409541,3.72339844 L19.7339844,3.72339844 C19.4254785,3.72339844 19.1754883,3.97338867 19.1754883,4.28189453 C19.1754883,4.59040039 19.4254785,4.84039063 19.7339844,4.84039063 L21.9680371,4.84039063 C22.276543,4.84039063 22.5265332,4.59040039 22.5265332,4.28189453 L22.5265332,1.30320313 C22.5265332,0.994697266 22.276543,0.744707031 21.9680371,0.744707031 L18.0584961,0.744707031 L18.0584961,0.558496094 C18.0584961,0.249990234 17.8085059,0 17.5,0 C17.1914941,0 16.9415039,0.249990234 16.9415039,0.558496094 L16.9415039,6.87572266 L9.48206055,9.71742188 C9.19378906,9.82727539 9.04920898,10.1499316 9.15892578,10.4382031 C9.26713867,10.7223047 9.58200195,10.8664063 9.86706055,10.7654395 L9.86706055,33.8830078 L1.11706055,33.8830078 L1.11706055,30.5319629 L8.19150391,30.5319629 C8.50000977,30.5319629 8.75,30.2819727 8.75,29.9734668 C8.75,29.6649609 8.50000977,29.4149707 8.19150391,29.4149707 L1.11699219,29.4149707 L1.11699219,17.5 L8.19150391,17.5 C8.50000977,17.5 8.75,17.2500098 8.75,16.9415039 C8.75,16.632998 8.50000977,16.3830078 8.19150391,16.3830078 L1.11699219,16.3830078 L1.11699219,13.0319629 L8.19150391,13.0319629 C8.50000977,13.0319629 8.75,12.7819727 8.75,12.4734668 C8.75,12.1649609 8.50000977,11.9149707 8.19150391,11.9149707 L0.558496094,11.9149707 C0.249990234,11.9149707 0,12.1649609 0,12.4734668 L0,34.4415039 C0,34.7500098 0.249990234,35 0.558496094,35 L34.4415039,35 C34.7500098,35 35,34.7500098 35,34.4415039 L35,12.4733984 C35,12.1648926 34.7500098,11.9149023 34.4415039,11.9149023 Z M24.0159473,33.8830078 L10.9840527,33.8830078 L10.9840527,32.7660156 L24.0159473,32.7660156 L24.0159473,33.8830078 Z M21.7818945,30.5318945 L21.7818945,31.6488867 L13.2181055,31.6488867 L13.2181055,30.5318945 L21.7818945,30.5318945 Z M13.2181055,29.4149023 L13.2181055,23.8298047 L16.9415039,23.8298047 L16.9415039,29.4149023 L13.2181055,29.4149023 Z M18.0584961,29.4149023 L18.0584961,23.8298047 L21.7818945,23.8298047 L21.7818945,29.4149023 L18.0584961,29.4149023 Z M24.0159473,31.6489551 L22.8989551,31.6489551 L22.8989551,23.2713086 C22.8989551,22.9628027 22.6489648,22.7128125 22.340459,22.7128125 L12.6596094,22.7128125 C12.3511035,22.7128125 12.1011133,22.9628027 12.1011133,23.2713086 L12.1011133,31.6489551 L10.9841211,31.6489551 L10.9841211,10.3405859 L17.5,7.85825195 L24.0159473,10.3405859 L24.0159473,31.6489551 Z" id="Shape"></path>
                <path d="M3.42391304,24.3478261 C3.2137659,24.3478261 3.04347826,24.5748716 3.04347826,24.8550621 L3.04347826,26.8840683 C3.04347826,27.1642588 3.2137659,27.3913043 3.42391304,27.3913043 C3.63406019,27.3913043 3.80434783,27.1642588 3.80434783,26.8840683 L3.80434783,24.8550621 C3.80434783,24.5748716 3.63406019,24.3478261 3.42391304,24.3478261 Z" id="Shape"></path>
                <path d="M7.22826087,24.3478261 C7.01811372,24.3478261 6.84782609,24.5748716 6.84782609,24.8550621 L6.84782609,26.8840683 C6.84782609,27.1642588 7.01811372,27.3913043 7.22826087,27.3913043 C7.43840801,27.3913043 7.60869565,27.1642588 7.60869565,26.8840683 L7.60869565,24.8550621 C7.60869565,24.5748716 7.43840801,24.3478261 7.22826087,24.3478261 Z" id="Shape"></path>
                <path d="M3.42391304,19.0217391 C3.2137659,19.0217391 3.04347826,19.2487847 3.04347826,19.5289752 L3.04347826,21.5579814 C3.04347826,21.8381718 3.2137659,22.0652174 3.42391304,22.0652174 C3.63406019,22.0652174 3.80434783,21.8381718 3.80434783,21.5579814 L3.80434783,19.5289752 C3.80434783,19.2487847 3.63406019,19.0217391 3.42391304,19.0217391 Z" id="Shape"></path>
                <path d="M7.22826087,19.0217391 C7.01811372,19.0217391 6.84782609,19.2487847 6.84782609,19.5289752 L6.84782609,21.5579814 C6.84782609,21.8381718 7.01811372,22.0652174 7.22826087,22.0652174 C7.43840801,22.0652174 7.60869565,21.8381718 7.60869565,21.5579814 L7.60869565,19.5289752 C7.60869565,19.2487847 7.43840801,19.0217391 7.22826087,19.0217391 Z" id="Shape"></path>
                <path d="M30.8152174,24.3478261 C30.6050702,24.3478261 30.4347826,24.5748716 30.4347826,24.8550621 L30.4347826,26.8840683 C30.4347826,27.1642588 30.6050702,27.3913043 30.8152174,27.3913043 C31.0253645,27.3913043 31.1956522,27.1642588 31.1956522,26.8840683 L31.1956522,24.8550621 C31.1956522,24.5748716 31.0253645,24.3478261 30.8152174,24.3478261 Z" id="Shape"></path>
                <path d="M27.7717391,24.3478261 C27.561592,24.3478261 27.3913043,24.5748716 27.3913043,24.8550621 L27.3913043,26.8840683 C27.3913043,27.1642588 27.561592,27.3913043 27.7717391,27.3913043 C27.9818863,27.3913043 28.1521739,27.1642588 28.1521739,26.8840683 L28.1521739,24.8550621 C28.1521739,24.5748716 27.9818863,24.3478261 27.7717391,24.3478261 Z" id="Shape"></path>
                <path d="M30.8152174,19.0217391 C30.6050702,19.0217391 30.4347826,19.2487847 30.4347826,19.5289752 L30.4347826,21.5579814 C30.4347826,21.8381718 30.6050702,22.0652174 30.8152174,22.0652174 C31.0253645,22.0652174 31.1956522,21.8381718 31.1956522,21.5579814 L31.1956522,19.5289752 C31.1956522,19.2487847 31.0253645,19.0217391 30.8152174,19.0217391 Z" id="Shape"></path>
                <path d="M27.7717391,19.0217391 C27.561592,19.0217391 27.3913043,19.2487847 27.3913043,19.5289752 L27.3913043,21.5579814 C27.3913043,21.8381718 27.561592,22.0652174 27.7717391,22.0652174 C27.9818863,22.0652174 28.1521739,21.8381718 28.1521739,21.5579814 L28.1521739,19.5289752 C28.1521739,19.2487847 27.9818863,19.0217391 27.7717391,19.0217391 Z" id="Shape"></path>
                <path d="M17.1195652,12.173913 C15.6511136,12.173913 14.4565217,13.3685049 14.4565217,14.8369565 C14.4565217,16.3054081 15.6511136,17.5 17.1195652,17.5 C18.5880168,17.5 19.7826087,16.3054081 19.7826087,14.8369565 C19.7826087,13.3685049 18.5880168,12.173913 17.1195652,12.173913 Z M17.1195652,16.4348087 C16.2385334,16.4348087 15.5217131,15.7179884 15.5217131,14.8369565 C15.5217131,13.9559247 16.2385334,13.2391044 17.1195652,13.2391044 C18.0005971,13.2391044 18.7174174,13.9559247 18.7174174,14.8369565 C18.7174174,15.7179884 18.0005971,16.4348087 17.1195652,16.4348087 Z" id="Shape"></path>
            </g>
        </g>
    </g>
</svg>