<?xml version="1.0" encoding="UTF-8"?>
<svg width="35px" height="33px" viewBox="0 0 35 33" version="1.1" xmlns="http://www.w3.org/2000/svg" xmlns:xlink="http://www.w3.org/1999/xlink">
    <!-- Generator: Sketch 47.1 (45422) - http://www.bohemiancoding.com/sketch -->
    <title>Group 19</title>
    <desc>Created with Sketch.</desc>
    <defs></defs>
    <g id="Page-1" stroke="none" stroke-width="1" fill="none" fill-rule="evenodd">
        <g id="sv.co/fb" transform="translate(-363.000000, -4082.000000)" fill-rule="nonzero" fill="#008AC1">
            <g id="Group-19" transform="translate(363.000000, 4082.000000)">
                <path d="M11.7287234,28.0315 L7.2606383,28.0315 C6.33678723,28.0315 5.58510638,27.2798936 5.58510638,26.3559681 C5.58510638,26.0475213 5.33511702,25.7974574 5.02659574,25.7974574 C4.71807447,25.7974574 4.46808511,26.0475213 4.46808511,26.3559681 C4.46808511,27.8958191 5.72078723,29.1485213 7.2606383,29.1485213 L11.7287234,29.1485213 C12.0372447,29.1485213 12.287234,28.8984574 12.287234,28.5900106 C12.287234,28.2815638 12.0372447,28.0315 11.7287234,28.0315 Z" id="Shape"></path>
                <path d="M29.9734043,18.3506489 C29.664883,18.3506489 29.4148936,18.6007128 29.4148936,18.9091596 L29.4148936,26.3559681 C29.4148936,27.2798936 28.6632128,28.0315 27.7393617,28.0315 L13.962766,28.0315 C13.6542447,28.0315 13.4042553,28.2815638 13.4042553,28.5900106 C13.4042553,28.8984574 13.6542447,29.1485213 13.962766,29.1485213 L27.7393617,29.1485213 C29.2792128,29.1485213 30.5319149,27.8958191 30.5319149,26.3559681 L30.5319149,18.9091596 C30.5319149,18.6007128 30.2819255,18.3506489 29.9734043,18.3506489 Z" id="Shape"></path>
                <path d="M27.7393617,13.8825638 C27.4308404,13.8825638 27.1808511,14.1326277 27.1808511,14.4410745 C27.1808511,14.7495213 27.4308404,14.9995851 27.7393617,14.9995851 C28.6632128,14.9995851 29.4148936,15.7511915 29.4148936,16.675117 C29.4148936,16.9835638 29.664883,17.2336277 29.9734043,17.2336277 C30.2819255,17.2336277 30.5319149,16.9835638 30.5319149,16.675117 C30.5319149,15.135266 29.2792128,13.8825638 27.7393617,13.8825638 Z" id="Shape"></path>
                <path d="M34.4414894,16.1166064 C34.1329681,16.1166064 33.8829787,16.3666702 33.8829787,16.675117 L33.8829787,23.7868191 L32.7659574,23.7868191 L32.7659574,16.675117 C32.7659574,13.9034149 30.5110638,11.6485213 27.7393617,11.6485213 L21.037234,11.6485213 L21.037234,0.606691489 C21.037234,0.298244681 20.7872447,0.0481808511 20.4787234,0.0481808511 L14.5212766,0.0481808511 C14.2127553,0.0481808511 13.962766,0.298244681 13.962766,0.606691489 L13.962766,11.6484468 L7.2606383,11.6484468 C4.48893617,11.6484468 2.23404255,13.9033404 2.23404255,16.6750426 L2.23404255,23.7867447 L1.11702128,23.7867447 L1.11702128,16.6750426 C1.11702128,16.3665957 0.867031915,16.1165319 0.558510638,16.1165319 C0.249989362,16.1165319 0,16.3665957 0,16.6750426 L0,29.9251489 C0,31.465 1.25270213,32.7177021 2.79255319,32.7177021 L3.91084043,32.7177021 C4.2193617,32.7177021 4.46935106,32.4676383 4.46935106,32.1591915 C4.46935106,31.8507447 4.2193617,31.6006809 3.91084043,31.6006809 L2.79255319,31.6006809 C1.86870213,31.6006809 1.11702128,30.8490745 1.11702128,29.9251489 L1.11702128,24.903766 L2.23404255,24.903766 L2.23404255,26.3558936 C2.23404255,29.1275957 4.48893617,31.3824894 7.2606383,31.3824894 L27.7393617,31.3824894 C30.5110638,31.3824894 32.7659574,29.1275957 32.7659574,26.3558936 L32.7659574,24.903766 L33.8829787,24.903766 L33.8829787,29.9251489 C33.8829787,30.8490745 33.1312979,31.6006809 32.2074468,31.6006809 L31.0891596,31.6006809 C30.7806383,31.6006809 30.5306489,31.8507447 30.5306489,32.1591915 C30.5306489,32.4676383 30.7806383,32.7177021 31.0891596,32.7177021 L32.2074468,32.7177021 C33.7472979,32.7177021 35,31.465 35,29.9251489 L35,16.6750426 C35,16.3666702 34.7500106,16.1166064 34.4414894,16.1166064 Z M19.9202128,1.16520213 L19.9202128,4.51626596 L15.0797872,4.51626596 L15.0797872,1.16520213 L19.9202128,1.16520213 Z M15.0797872,5.63328723 L19.9202128,5.63328723 L19.9202128,11.6484468 L15.0797872,11.6484468 L15.0797872,5.63328723 Z M31.6489362,26.3559681 C31.6489362,28.5117447 29.8950638,30.2655426 27.7393617,30.2655426 L7.2606383,30.2655426 C5.10493617,30.2655426 3.35106383,28.5117447 3.35106383,26.3559681 L3.35106383,16.675117 C3.35106383,14.5193404 5.10493617,12.7655426 7.2606383,12.7655426 L27.7393617,12.7655426 C29.8950638,12.7655426 31.6489362,14.5193404 31.6489362,16.675117 L31.6489362,26.3559681 Z" id="Shape"></path>
                <path d="M14.5212766,14.9995851 L20.4787234,14.9995851 C20.7872447,14.9995851 21.037234,14.7495213 21.037234,14.4410745 C21.037234,14.1326277 20.7872447,13.8825638 20.4787234,13.8825638 L14.5212766,13.8825638 C14.2127553,13.8825638 13.962766,14.1326277 13.962766,14.4410745 C13.962766,14.7495213 14.2127553,14.9995851 14.5212766,14.9995851 Z" id="Shape"></path>
            </g>
        </g>
    </g>
</svg>