<?xml version="1.0" encoding="utf-8"?>
<!-- Generator: Adobe Illustrator 21.0.2, SVG Export Plug-In . SVG Version: 6.00 Build 0)  -->
<svg version="1.1" id="Layer_1" xmlns="http://www.w3.org/2000/svg" xmlns:xlink="http://www.w3.org/1999/xlink" x="0px" y="0px"
	 viewBox="0 0 1110 511" style="enable-background:new 0 0 1110 511;" xml:space="preserve">
<style type="text/css">
	.st0{fill:#F2F2F2;}
</style>
<title>Group 16</title>
<desc>Created with Sketch.</desc>
<g id="Page-1">
	<g id="sv.co_x2F_fb" transform="translate(-164.000000, -116.000000)">
		<g id="Group-16" transform="translate(164.000000, 116.000000)">
			<g id="_x31_2">
				<path id="path-2_1_" class="st0" d="M23.1,0.3c177.4,27.9,354.7,41.9,532,41.9c177.3,0,354.5-14,531.8-41.9v0
					c10.9-1.7,21.1,5.7,22.9,16.6c0.2,1,0.2,2.1,0.2,3.1v470.6l0,0c0,11-9,20-20,20c-1,0-2.1-0.1-3.1-0.2
					c-177.3-27.9-354.5-41.9-531.8-41.9c-177.3,0-354.6,14-531.9,41.9l0,0c-10.9,1.7-21.1-5.7-22.9-16.6c-0.2-1-0.2-2.1-0.2-3.1
					V20.1h0c0-11,9-20,20-20C21,0.1,22.1,0.2,23.1,0.3z"/>
			</g>
		</g>
	</g>
</g>
</svg>
