<?xml version="1.0" encoding="UTF-8"?>
<svg width="35px" height="31px" viewBox="0 0 35 31" version="1.1" xmlns="http://www.w3.org/2000/svg" xmlns:xlink="http://www.w3.org/1999/xlink">
    <!-- Generator: Sketch 47.1 (45422) - http://www.bohemiancoding.com/sketch -->
    <title>Group 20</title>
    <desc>Created with Sketch.</desc>
    <defs></defs>
    <g id="Page-1" stroke="none" stroke-width="1" fill="none" fill-rule="evenodd">
        <g id="sv.co/fb" transform="translate(-717.000000, -4084.000000)" fill-rule="nonzero" fill="#008AC1">
            <g id="Group-20" transform="translate(717.000000, 4084.000000)">
                <path d="M32.0212766,2.422 L19.7340426,2.422 C19.4255213,2.422 19.1755319,2.67198936 19.1755319,2.98051064 C19.1755319,3.28903191 19.4255213,3.53902128 19.7340426,3.53902128 L32.0212766,3.53902128 C33.0478191,3.53902128 33.8829787,4.37418085 33.8829787,5.4007234 L33.8829787,6.0566383 C33.3725745,5.64676596 32.7252979,5.4007234 32.0212766,5.4007234 L18.0585106,5.4007234 L18.0585106,2.98051064 C18.0585106,1.33804255 16.7222553,0.00178723404 15.0797872,0.00178723404 L2.9787234,0.00178723404 C1.33625532,0.00178723404 0,1.33804255 0,2.98051064 L0,29.524734 C0,29.8332553 0.249989362,30.0832447 0.558510638,30.0832447 L34.4414894,30.0832447 C34.7500106,30.0832447 35,29.8332553 35,29.524734 L35,5.4007234 C35,3.75832979 33.6637447,2.422 32.0212766,2.422 Z M33.8829787,28.9662979 L1.11702128,28.9662979 L1.11702128,2.98051064 C1.11702128,1.95396809 1.95218085,1.11880851 2.9787234,1.11880851 L15.0797872,1.11880851 C16.1063298,1.11880851 16.9414894,1.95396809 16.9414894,2.98051064 L16.9414894,5.95923404 C16.9414894,6.26775532 17.1914787,6.51774468 17.5,6.51774468 L32.0212766,6.51774468 C33.0478191,6.51774468 33.8829787,7.35290426 33.8829787,8.37944681 L33.8829787,28.9662979 Z" id="Shape"></path>
                <path d="M25.1119787,17.2664681 C26.6525745,17.2664681 27.9059468,16.0130957 27.9059468,14.4725 C27.9059468,12.9319043 26.6525745,11.6786064 25.1119787,11.6786064 C23.571383,11.6786064 22.3180851,12.9319043 22.3180851,14.4725 C22.3180851,16.0130957 23.571383,17.2664681 25.1119787,17.2664681 L25.1119787,17.2664681 Z M25.1119787,12.7957021 C26.0366489,12.7957021 26.7889255,13.5479787 26.7889255,14.4725745 C26.7889255,15.3972447 26.0366489,16.1495213 25.1119787,16.1495213 C24.187383,16.1495213 23.4351064,15.3972447 23.4351064,14.4725745 C23.4351064,13.5479787 24.187383,12.7957021 25.1119787,12.7957021 L25.1119787,12.7957021 Z" id="Shape"></path>
                <path d="M25.1119787,18.3834894 C24.3538191,18.3834894 23.6019894,18.5717447 22.9376596,18.9280745 C22.6658511,19.0738085 22.5636064,19.4123404 22.7094149,19.6841489 C22.8551489,19.955883 23.1935319,20.0584255 23.4654894,19.9123936 C23.9680745,19.6429681 24.5374574,19.5005106 25.1119787,19.5005106 C26.8480532,19.5005106 28.2923617,20.773617 28.5605957,22.4350745 L25.1119787,22.4350745 C24.8034574,22.4350745 24.5534681,22.6850638 24.5534681,22.9935851 C24.5534681,23.3021064 24.8034574,23.5520957 25.1119787,23.5520957 L29.1636383,23.5520957 C29.4721596,23.5520957 29.7221489,23.3021064 29.7221489,22.9935851 C29.7221489,20.451617 27.6540213,18.3834894 25.1119787,18.3834894 L25.1119787,18.3834894 Z" id="Shape"></path>
                <path d="M9.93761702,22.4350745 L6.43947872,22.4350745 C6.70771277,20.7735426 8.15202128,19.5005106 9.88809574,19.5005106 C10.462617,19.5005106 11.0318511,19.6428936 11.5342872,19.9122447 C11.8061702,20.0582766 12.1447766,19.955883 12.2903617,19.684 C12.4361702,19.4121915 12.3339255,19.0736596 12.062117,18.9279255 C11.3979362,18.5717447 10.6461064,18.3834894 9.88809574,18.3834894 C7.34597872,18.3834894 5.27792553,20.4515426 5.27792553,22.9935851 C5.27792553,23.3021064 5.52791489,23.5520957 5.83643617,23.5520957 L9.93769149,23.5520957 C10.2462128,23.5520957 10.4962021,23.3021064 10.4962021,22.9935851 C10.4962021,22.6850638 10.2461383,22.4350745 9.93761702,22.4350745 Z" id="Shape"></path>
                <path d="M9.88802128,17.2664681 C11.428617,17.2664681 12.6819149,16.0130957 12.6819149,14.4725 C12.6819149,12.9319043 11.428617,11.6786064 9.88802128,11.6786064 C8.34742553,11.6786064 7.09405319,12.9319043 7.09405319,14.4725 C7.09405319,16.0130957 8.3475,17.2664681 9.88802128,17.2664681 Z M9.88802128,12.7957021 C10.812617,12.7957021 11.5648936,13.5479787 11.5648936,14.4725745 C11.5648936,15.3972447 10.812617,16.1495213 9.88802128,16.1495213 C8.96335106,16.1495213 8.21107447,15.3972447 8.21107447,14.4725745 C8.21114894,13.5479787 8.96335106,12.7957021 9.88802128,12.7957021 Z" id="Shape"></path>
                <path d="M17.5,17.4683511 C19.4835319,17.4683511 21.0972553,15.8546277 21.0972553,13.8710957 C21.0972553,11.8875638 19.4835319,10.2738404 17.5,10.2738404 C15.5164681,10.2738404 13.9027447,11.8875638 13.9027447,13.8710957 C13.9027447,15.8546277 15.5164681,17.4683511 17.5,17.4683511 Z M17.5,11.3909362 C18.8676064,11.3909362 19.980234,12.5034894 19.980234,13.8711702 C19.980234,15.2388511 18.8676809,16.3514043 17.5,16.3514043 C16.1323191,16.3514043 15.019766,15.2388511 15.019766,13.8711702 C15.019766,12.5034894 16.1323936,11.3909362 17.5,11.3909362 Z" id="Shape"></path>
                <path d="M17.5,18.5853723 C14.155117,18.5853723 11.4338298,21.3066596 11.4338298,24.651617 C11.4338298,24.9601383 11.6838191,25.2101277 11.9923404,25.2101277 L23.007734,25.2101277 C23.3162553,25.2101277 23.5662447,24.9601383 23.5662447,24.651617 C23.5662447,21.3066596 20.8449574,18.5853723 17.5,18.5853723 Z M12.5822021,24.0931064 C12.8603404,21.6259043 14.9597447,19.7023936 17.5,19.7023936 C20.0402553,19.7023936 22.139734,21.6259043 22.4178723,24.0931064 L12.5822021,24.0931064 Z" id="Shape"></path>
            </g>
        </g>
    </g>
</svg>