<?xml version="1.0" encoding="UTF-8"?>
<svg width="191px" height="72px" viewBox="0 0 191 72" version="1.1" xmlns="http://www.w3.org/2000/svg" xmlns:xlink="http://www.w3.org/1999/xlink">
    <!-- Generator: Sketch 47.1 (45422) - http://www.bohemiancoding.com/sketch -->
    <title>Group 4</title>
    <desc>Created with Sketch.</desc>
    <defs>
        <polygon id="path-1" points="6.5342394e-05 0.263637295 37.3510846 0.263637295 37.3510846 37.4738282 6.5342394e-05 37.4738282"></polygon>
        <polygon id="path-3" points="32.5046392 30.2694672 0.224843178 30.2694672 0.224843178 0.20280543 32.5046392 0.20280543 32.5046392 30.2694672"></polygon>
        <polygon id="path-5" points="9.47464712 15.2314006 9.47464712 0.145814208 0.218700993 0.145814208 0.218700993 15.2314006 9.47464712 15.2314006"></polygon>
        <polygon id="path-7" points="0 71.6144365 190.146366 71.6144365 190.146366 0.923838798 0 0.923838798"></polygon>
    </defs>
    <g id="Page-1" stroke="none" stroke-width="1" fill="none" fill-rule="evenodd">
        <g id="sv.co/fb" transform="translate(-449.000000, -1024.000000)">
            <g id="Group-17" transform="translate(449.000000, 1018.000000)">
                <g id="Group-4" transform="translate(0.000000, 6.000000)">
                    <path d="M42.4537375,3.2132195 C43.9758885,3.83651014 45.4552403,4.59194491 46.8800312,5.46975946 L4.56233663,47.6273158 C3.68217458,46.2072547 2.92354939,44.7331642 2.29789597,43.2177379 L42.4537375,3.2132195 Z" id="Fill-1" fill="#233D94"></path>
                    <g id="Group-5" transform="translate(0.000000, 0.660202)">
                        <mask id="mask-2" fill="white">
                            <use xlink:href="#path-1"></use>
                        </mask>
                        <g id="Clip-4"></g>
                        <path d="M31.3689884,0.263539652 L6.5342394e-05,31.513998 C0.0402509147,33.5150376 0.277117093,35.5105441 0.708703605,37.4738282 L37.3510846,0.970478176 C35.3806847,0.539870594 33.3766335,0.304549898 31.3689884,0.263539652" id="Fill-3" fill="#233D94" mask="url(#mask-2)"></path>
                    </g>
                    <path d="M8.9927143,9.88281995 C4.73337035,14.126404 1.99225692,19.3060631 0.754345267,24.7565201 L23.9234513,1.67556311 C18.4516792,2.9087998 13.252385,5.63988689 8.9927143,9.88281995" id="Fill-6" fill="#233D94"></path>
                    <path d="M60.7711381,38.1339321 C61.2027246,36.1703225 61.4395908,34.1744905 61.4804298,32.1744273 L47.4684068,18.2159717 L50.8139374,14.8820991 L60.7257251,24.7571059 C59.6511695,20.0275831 57.4390027,15.5060407 54.0895516,11.6198317 C53.5792275,11.0268105 53.051261,10.4438792 52.4873561,9.88275485 C51.9237779,9.32163053 51.3389635,8.7950069 50.744021,8.28661004 L7.39032277,51.4762576 C7.90130029,52.0689533 8.42926683,52.6515592 8.99251827,53.2133344 C9.55642313,53.7744587 10.1409108,54.3010824 10.7361801,54.8094792 L30.7404273,34.8807781 L50.744021,54.8094792 C51.3389635,54.3010824 51.9237779,53.7744587 52.4873561,53.2133344 C53.051261,52.6515592 53.5792275,52.0689533 54.0895516,51.4762576 L34.0859578,31.5478819 L37.4314884,28.2146602 L56.9175704,47.6268276 C57.7977325,46.2070919 58.5563576,44.7333269 59.1826645,43.2169242 L40.7773457,24.8814386 L44.123203,21.5482169 L60.7711381,38.1339321 Z" id="Fill-8" fill="#233D94"></path>
                    <g id="Group-12" transform="translate(14.375327, 41.344969)">
                        <mask id="mask-4" fill="white">
                            <use xlink:href="#path-3"></use>
                        </mask>
                        <g id="Clip-11"></g>
                        <path d="M32.5046392,16.2817511 L16.3647412,0.20280543 L0.224843178,16.2817511 C1.64996079,17.1585892 3.12898588,17.914675 4.65113694,18.5382911 L13.9144014,9.30935837 L13.9144014,30.2694998 L18.815081,30.2694998 L18.815081,9.30935837 L28.0783454,18.5382911 C29.5995164,17.914675 31.0795216,17.1585892 32.5046392,16.2817511" id="Fill-10" fill="#16A0DB" mask="url(#mask-4)"></path>
                    </g>
                    <path d="M121.366146,66.6428555 C121.366146,68.1143422 121.906854,69.0884983 123.300607,69.0884983 C124.528064,69.0884983 125.151757,68.1970136 125.151757,66.7876933 L125.151757,65.793683 C125.151757,64.3843627 124.528064,63.492878 123.300607,63.492878 C121.906854,63.492878 121.366146,64.4667086 121.366146,65.9385208 L121.366146,66.6428555 Z M118.371177,65.980182 C118.371177,63.2243586 119.681292,61.1517138 122.42698,61.1517138 C123.924627,61.1517138 124.839421,61.9188657 125.276561,62.8718657 L125.276561,61.3593688 L128.147053,61.3593688 L128.147053,71.2220075 L125.276561,71.2220075 L125.276561,69.7300157 C124.860657,70.6833412 123.924627,71.4296625 122.42698,71.4296625 C119.681292,71.4296625 118.371177,69.3576687 118.371177,66.6011943 L118.371177,65.980182 Z" id="Fill-13" fill="#233D94"></path>
                    <path d="M134.385814,61.1516812 C135.550542,61.1516812 136.652868,61.400672 137.255978,61.8146802 L136.590793,63.9283352 C136.133069,63.7001751 135.383919,63.4726658 134.593603,63.4726658 C132.971151,63.4726658 132.264473,64.4048352 132.264473,66.0000036 L132.264473,66.5803311 C132.264473,68.1761505 132.971151,69.1089708 134.593603,69.1089708 C135.383919,69.1089708 136.133069,68.8808107 136.590793,68.6526505 L137.255978,70.7663055 C136.652868,71.1803137 135.550542,71.4293045 134.385814,71.4293045 C130.870393,71.4293045 129.269178,69.5438096 129.269178,66.5181648 L129.269178,66.0628209 C129.269178,63.0375016 130.870393,61.1516812 134.385814,61.1516812" id="Fill-15" fill="#233D94"></path>
                    <path d="M140.646007,65.379089 L144.264996,65.379089 L144.264996,65.1300982 C144.264996,64.0524401 143.828508,63.2029421 142.51774,63.2029421 C141.166133,63.2029421 140.646007,64.0524401 140.646007,65.379089 M137.651039,66.6631002 L137.651039,65.7930972 C137.651039,62.995938 139.252581,61.1521043 142.51774,61.1521043 C145.596347,61.1521043 146.948608,63.0164431 146.948608,65.7520869 L146.948608,67.3267502 L140.646007,67.3267502 C140.708409,68.6739042 141.311519,69.2747369 142.97579,69.2747369 C144.098699,69.2747369 145.284337,69.0465767 146.158292,68.6739042 L146.699,70.7250675 C145.908684,71.1397266 144.286232,71.4499073 142.850333,71.4499073 C139.065375,71.4499073 137.651039,69.5644124 137.651039,66.6631002" id="Fill-17" fill="#233D94"></path>
                    <path d="M155.059592,65.9174949 C155.059592,64.5293306 154.518884,63.4936592 153.083638,63.4936592 C151.856508,63.4936592 151.190995,64.3636623 151.190995,65.7729826 L151.190995,66.8086541 C151.190995,68.2173235 151.856508,69.0879775 153.083638,69.0879775 C154.518884,69.0879775 155.059592,68.0519806 155.059592,66.6631653 L155.059592,65.9174949 Z M158.05456,66.6019754 C158.05456,69.3571479 156.723863,71.4297927 153.978175,71.4297927 C152.480528,71.4297927 151.440603,70.6834713 151.024372,69.7304713 L151.024372,71.2224631 L148.1957,71.2224631 L148.1957,56.4066981 L151.190995,56.1368767 L151.190995,62.7265072 C151.628136,61.8565041 152.584422,61.151844 153.978175,61.151844 C156.723863,61.151844 158.05456,63.2241633 158.05456,65.9796612 L158.05456,66.6019754 Z" id="Fill-19" fill="#233D94"></path>
                    <path d="M165.916231,65.834856 C165.916231,64.5293632 165.375849,63.4933663 163.981769,63.4933663 C162.588342,63.4933663 162.046981,64.5293632 162.046981,65.834856 L162.046981,66.7465203 C162.046981,68.0520131 162.588342,69.08801 163.981769,69.08801 C165.375849,69.08801 165.916231,68.0520131 165.916231,66.7465203 L165.916231,65.834856 Z M159.052666,66.5395162 L159.052666,66.0418601 C159.052666,63.2027143 160.675117,61.1518765 163.981769,61.1518765 C167.289074,61.1518765 168.911526,63.2027143 168.911526,66.0418601 L168.911526,66.5395162 C168.911526,69.3783365 167.289074,71.4291743 163.981769,71.4291743 C160.675117,71.4291743 159.052666,69.3783365 159.052666,66.5395162 L159.052666,66.5395162 Z" id="Fill-21" fill="#233D94"></path>
                    <path d="M176.773196,65.834856 C176.773196,64.5293632 176.232488,63.4933663 174.838408,63.4933663 C173.444981,63.4933663 172.903946,64.5293632 172.903946,65.834856 L172.903946,66.7465203 C172.903946,68.0520131 173.444981,69.08801 174.838408,69.08801 C176.232488,69.08801 176.773196,68.0520131 176.773196,66.7465203 L176.773196,65.834856 Z M169.909304,66.5395162 L169.909304,66.0418601 C169.909304,63.2027143 171.531756,61.1518765 174.838408,61.1518765 C178.14604,61.1518765 179.768165,63.2027143 179.768165,66.0418601 L179.768165,66.5395162 C179.768165,69.3783365 178.14604,71.4291743 174.838408,71.4291743 C171.531756,71.4291743 169.909304,69.3783365 169.909304,66.5395162 L169.909304,66.5395162 Z" id="Fill-23" fill="#233D94"></path>
                    <g id="Group-27" transform="translate(180.671719, 55.991486)">
                        <mask id="mask-6" fill="white">
                            <use xlink:href="#path-5"></use>
                        </mask>
                        <g id="Clip-26"></g>
                        <polygon id="Fill-25" fill="#233D94" mask="url(#mask-6)" points="3.21399633 10.0712702 6.16812596 5.36778552 9.34964712 5.36778552 6.25078409 10.237264 9.47477781 15.2314006 6.2919498 15.2314006 3.21399633 10.4029324 3.21399633 15.2314006 0.218700993 15.2314006 0.218700993 0.415635587 3.21399633 0.145814208"></polygon>
                    </g>
                    <path d="M116.873725,58.5201904 C115.938022,58.5201904 115.667832,58.9341986 115.667832,59.8461884 L115.667832,61.3593363 L118.163584,61.3593363 L117.913976,63.8040026 L115.667832,63.8040026 L115.667832,71.2226259 L112.672536,71.2226259 L112.672536,63.8040026 L110.654763,63.8040026 L110.654763,61.3593363 L112.672536,61.3593363 L112.672536,59.8878496 C112.672536,57.4220272 113.670641,56.1165344 116.457494,56.1165344 C117.060931,56.1165344 117.768263,56.1575446 118.205403,56.2206874 L118.205403,58.5201904 L116.873725,58.5201904 Z" id="Fill-28" fill="#233D94"></path>
                    <path d="M73.0429297,58.101593 C73.5953997,58.101593 74.0096705,58.3372392 74.2857421,58.6718307 L74.917603,57.8656213 C74.4830761,57.393678 73.7724776,57.118649 72.9834682,57.118649 C71.4247254,57.118649 70.4383819,58.16083 70.4383819,59.8308584 L70.4383819,61.2463628 L68.8009015,61.2463628 L68.8009015,62.2293068 L70.4383819,62.2293068 L70.4383819,71.0748263 L71.6220594,71.0748263 L71.6220594,62.2293068 L74.2465366,62.2293068 L74.2465366,61.2463628 L71.6220594,61.2463628 L71.6220594,59.6938321 C71.6220594,58.6913594 72.1745293,58.101593 73.0429297,58.101593 M79.4771953,61.0891569 C78.3127938,61.0891569 77.385912,61.6203372 76.852718,62.9958078 L76.852718,61.2463628 L75.7285021,61.2463628 L75.7085727,71.0748263 L76.8919235,71.0748263 L76.8726475,66.7111408 C76.932109,63.3496026 77.799856,62.1707207 79.3389961,62.1707207 C79.7336642,62.1707207 80.0495946,62.2690151 80.1874671,62.3865127 L80.6213406,61.3645114 C80.3455957,61.1871258 79.9107421,61.0891569 79.4771953,61.0891569 M85.8085465,71.2717405 C88.6101017,71.2717405 90.6425768,69.187704 90.6425768,66.1607573 C90.6425768,63.1331596 88.6101017,61.0500995 85.8085465,61.0500995 C83.0066647,61.0500995 80.9741895,63.1331596 80.9741895,66.1607573 C80.9741895,69.187704 83.0066647,71.2717405 85.8085465,71.2717405 M85.8085465,70.2881456 C83.6970071,70.2881456 82.1581937,68.6181172 82.1581937,66.1607573 C82.1581937,63.7037228 83.6970071,62.0323925 85.8085465,62.0323925 C87.9197593,62.0323925 89.4585727,63.7037228 89.4585727,66.1607573 C89.4585727,68.6181172 87.9197593,70.2881456 85.8085465,70.2881456 M103.880292,61.0500995 C102.282017,61.0500995 101.038552,61.8559834 100.328933,63.3297484 C99.8548743,61.8361292 98.6711968,61.0500995 97.0725951,61.0500995 C95.5337817,61.0500995 94.3893097,61.7970718 93.7384995,63.1923966 L93.7384995,61.2463628 L92.5541686,61.2463628 L92.5541686,71.0748263 L93.7384995,71.0748263 L93.7384995,66.9666412 C93.7384995,63.8609287 94.9813118,62.0323925 96.9739281,62.0323925 C98.5326709,62.0323925 99.3811419,63.1331596 99.3811419,64.9226384 L99.3811419,71.0748263 L100.565473,71.0748263 L100.565473,66.9666412 C100.565473,63.8609287 101.808285,62.0323925 103.800901,62.0323925 C105.340368,62.0323925 106.208115,63.1331596 106.208115,64.9226384 L106.208115,71.0748263 L107.392119,71.0748263 L107.392119,64.8435472 C107.392119,62.4848071 106.030711,61.0500995 103.880292,61.0500995" id="Fill-30" fill="#233D94"></path>
                    <path d="M70.3989478,11.4426739 L71.5842588,11.0826951 C72.1066713,13.1843075 73.7742091,14.5252774 76.0843895,14.5252774 C78.2540837,14.5252774 79.7811354,13.3242631 79.7811354,11.5432467 C79.7811354,10.1820971 78.8771234,9.22128562 77.2095855,8.96090311 L74.3969222,8.52053118 C72.227228,8.180732 70.8811747,6.95986349 70.8811747,5.05842018 C70.8811747,2.67624566 72.9505683,1.17546595 75.7027899,1.17546595 C78.2743398,1.17546595 80.0222489,2.49658173 80.6449619,4.57768897 L79.4795803,4.93831875 C79.0176095,3.27707831 77.6918124,2.23619921 75.7027899,2.23619921 C73.7340236,2.23619921 72.1266007,3.25689867 72.1266007,4.93831875 C72.1266007,6.23925488 73.0707983,7.01942599 74.6981506,7.2798085 L77.5108139,7.71985495 C79.8010649,8.08048473 81.0468176,9.50119682 81.0468176,11.4628536 C81.0468176,13.9446244 79.0378657,15.5856852 76.0442039,15.5856852 C73.13124,15.5856852 71.0419169,14.0250175 70.3989478,11.4426739" id="Fill-32" fill="#16A0DB"></path>
                    <path d="M82.7748952,10.4020227 C82.7748952,7.33992432 84.8041033,5.17842398 87.6971378,5.17842398 C89.9070175,5.17842398 91.5343698,6.43900082 92.0969678,8.56079283 L90.9917013,8.90124296 C90.5699161,7.19996872 89.3444195,6.17894378 87.6768816,6.17894378 C85.5271168,6.17894378 83.9801357,7.86003839 83.9801357,10.3619889 C83.9801357,12.8239055 85.4869313,14.5853932 87.6971378,14.5853932 C89.3042339,14.5853932 90.6300311,13.6444359 91.1527703,12.0033751 L92.2573834,12.363354 C91.5745554,14.4050783 89.8469025,15.585913 87.6768816,15.585913 C84.7639177,15.585913 82.7748952,13.4445923 82.7748952,10.4020227" id="Fill-34" fill="#16A0DB"></path>
                    <path d="M102.905972,9.04100328 L102.905972,15.3858742 L101.700732,15.3858742 L101.700732,9.1210709 C101.700732,7.29969522 100.735951,6.17907398 99.0886693,6.17907398 C96.9993463,6.17907398 95.653293,8.04048347 95.653293,11.2028291 L95.653293,15.3858742 L94.4477258,15.3858742 L94.4477258,1.37566755 L95.653293,1.37566755 L95.653293,7.48001011 C96.3563771,5.99875908 97.5619443,5.17855417 99.2497383,5.17855417 C101.459291,5.17855417 102.905972,6.63930007 102.905972,9.04100328" id="Fill-36" fill="#16A0DB"></path>
                    <path d="M113.132318,10.3823312 C113.132318,7.88038077 111.565407,6.17910652 109.415643,6.17910652 C107.266205,6.17910652 105.698967,7.88038077 105.698967,10.3823312 C105.698967,12.8839562 107.266205,14.5852305 109.415643,14.5852305 C111.565407,14.5852305 113.132318,12.8839562 113.132318,10.3823312 M104.493727,10.3823312 C104.493727,7.29972777 106.56312,5.17858671 109.415643,5.17858671 C112.268492,5.17858671 114.337885,7.29972777 114.337885,10.3823312 C114.337885,13.4642838 112.268492,15.5857503 109.415643,15.5857503 C106.56312,15.5857503 104.493727,13.4642838 104.493727,10.3823312" id="Fill-38" fill="#16A0DB"></path>
                    <path d="M124.343243,10.3823312 C124.343243,7.88038077 122.776333,6.17910652 120.626568,6.17910652 C118.47713,6.17910652 116.909893,7.88038077 116.909893,10.3823312 C116.909893,12.8839562 118.47713,14.5852305 120.626568,14.5852305 C122.776333,14.5852305 124.343243,12.8839562 124.343243,10.3823312 M115.704652,10.3823312 C115.704652,7.29972777 117.774046,5.17858671 120.626568,5.17858671 C123.479417,5.17858671 125.54881,7.29972777 125.54881,10.3823312 C125.54881,13.4642838 123.479417,15.5857503 120.626568,15.5857503 C117.774046,15.5857503 115.704652,13.4642838 115.704652,10.3823312" id="Fill-40" fill="#16A0DB"></path>
                    <mask id="mask-8" fill="white">
                        <use xlink:href="#path-7"></use>
                    </mask>
                    <g id="Clip-43"></g>
                    <polygon id="Fill-42" fill="#16A0DB" mask="url(#mask-8)" points="127.538225 15.3858091 128.763722 15.3858091 128.763722 1.37560246 127.538225 1.37560246"></polygon>
                    <path d="M144.213343,10.3823312 C144.213343,7.88038077 142.646432,6.17910652 140.496667,6.17910652 C138.347229,6.17910652 136.779992,7.88038077 136.779992,10.3823312 C136.779992,12.8839562 138.347229,14.5852305 140.496667,14.5852305 C142.646432,14.5852305 144.213343,12.8839562 144.213343,10.3823312 M135.574751,10.3823312 C135.574751,7.29972777 137.644145,5.17858671 140.496667,5.17858671 C143.349516,5.17858671 145.41891,7.29972777 145.41891,10.3823312 C145.41891,13.4642838 143.349516,15.5857503 140.496667,15.5857503 C137.644145,15.5857503 135.574751,13.4642838 135.574751,10.3823312" id="Fill-44" fill="#16A0DB" mask="url(#mask-8)"></path>
                    <path d="M149.316943,3.79712729 L149.316943,5.3783001 L151.98912,5.3783001 L151.98912,6.37947087 L149.316943,6.37947087 L149.316943,15.3857765 L148.091446,15.3857765 L148.091446,6.37947087 L146.443838,6.37947087 L146.443838,5.3783001 L148.091446,5.3783001 L148.091446,3.93773385 C148.091446,2.23613412 149.116015,1.17540085 150.723438,1.17540085 C151.527149,1.17540085 152.229907,1.45563753 152.672275,1.93571779 L152.029306,2.75657367 C151.74768,2.41644901 151.305965,2.17624614 150.783553,2.17624614 C149.859285,2.17624614 149.316943,2.77642783 149.316943,3.79712729" id="Fill-45" fill="#16A0DB" mask="url(#mask-8)"></path>
                    <polygon id="Fill-46" fill="#16A0DB" mask="url(#mask-8)" points="70.8207003 33.612585 72.1066386 33.612585 72.1066386 19.6023784 70.8207003 19.6023784"></polygon>
                    <path d="M83.3772867,27.2677792 L83.3772867,33.6126501 L82.1717196,33.6126501 L82.1717196,27.3478469 C82.1717196,25.5264712 81.2072658,24.4058499 79.5599841,24.4058499 C77.470661,24.4058499 76.1246077,26.2672594 76.1246077,29.4296051 L76.1246077,33.6126501 L74.9190406,33.6126501 L74.9190406,23.6051737 L76.1246077,23.6051737 L76.1246077,25.7067861 C76.8276919,24.225535 78.0332591,23.4053301 79.7207264,23.4053301 C81.9306061,23.4053301 83.3772867,24.866076 83.3772867,27.2677792" id="Fill-47" fill="#16A0DB" mask="url(#mask-8)"></path>
                    <path d="M94.3470005,27.2677792 L94.3470005,33.6126501 L93.1414333,33.6126501 L93.1414333,27.3478469 C93.1414333,25.5264712 92.1769796,24.4058499 90.5296979,24.4058499 C88.4403748,24.4058499 87.0943215,26.2672594 87.0943215,29.4296051 L87.0943215,33.6126501 L85.8887543,33.6126501 L85.8887543,23.6051737 L87.0943215,23.6051737 L87.0943215,25.7067861 C87.7974057,24.225535 89.0029728,23.4053301 90.6904401,23.4053301 C92.9003199,23.4053301 94.3470005,24.866076 94.3470005,27.2677792" id="Fill-48" fill="#16A0DB" mask="url(#mask-8)"></path>
                    <path d="M104.874542,28.6091072 C104.874542,26.1071567 103.307632,24.4058825 101.157867,24.4058825 C99.0084289,24.4058825 97.4411916,26.1071567 97.4411916,28.6091072 C97.4411916,31.1107322 99.0084289,32.8120065 101.157867,32.8120065 C103.307632,32.8120065 104.874542,31.1107322 104.874542,28.6091072 M96.2359511,28.6091072 C96.2359511,25.5265037 98.3053447,23.4053627 101.157867,23.4053627 C104.010716,23.4053627 106.080109,25.5265037 106.080109,28.6091072 C106.080109,31.6910597 104.010716,33.8125263 101.157867,33.8125263 C98.3053447,33.8125263 96.2359511,31.6910597 96.2359511,28.6091072" id="Fill-49" fill="#16A0DB" mask="url(#mask-8)"></path>
                    <polygon id="Fill-50" fill="#16A0DB" mask="url(#mask-8)" points="115.924987 23.6052063 112.107684 33.6126827 110.580959 33.6126827 106.763656 23.6052063 108.069524 23.6052063 111.38467 32.4715563 114.679234 23.6052063"></polygon>
                    <path d="M124.463539,30.0098675 L124.463539,28.2086714 L121.791361,28.8690666 C120.586121,29.1691574 119.219811,29.7094512 119.219811,31.0706008 C119.219811,32.0916257 120.003593,32.8320885 121.369576,32.8320885 C123.05737,32.8320885 124.282867,31.7309959 124.463539,30.0098675 M125.668779,27.5681305 L125.668779,33.612585 L124.503724,33.612585 L124.503724,31.871277 C123.860755,33.0921455 122.655515,33.8127541 121.148719,33.8127541 C119.240068,33.8127541 118.0345,32.6918074 118.0345,31.0706008 C118.0345,29.2892589 119.481181,28.4488743 121.490133,27.9486144 L124.463539,27.2081516 C124.383167,25.5267316 123.43897,24.4057848 121.630946,24.4057848 C119.923222,24.4057848 118.637284,25.4063046 118.235755,27.1876465 L117.09063,26.8475219 C117.632971,24.6658419 119.320439,23.405265 121.611016,23.405265 C124.262937,23.405265 125.668779,25.1065393 125.668779,27.5681305" id="Fill-51" fill="#16A0DB" mask="url(#mask-8)"></path>
                    <path d="M133.082788,33.052014 C132.661003,33.5122401 131.998105,33.8126565 131.194393,33.8126565 C129.808154,33.8126565 128.863957,32.9120584 128.863957,31.3507398 L128.883886,24.6061817 L127.136304,24.6061817 L127.136304,23.6053364 L128.883886,23.6053364 L128.883886,21.4636903 L130.089453,20.9432507 L130.089453,23.6053364 L132.580632,23.6053364 L132.580632,24.6061817 L130.089453,24.6061817 L130.089453,31.4910209 C130.089453,32.3717647 130.59161,32.8121366 131.274764,32.8121366 C131.716479,32.8121366 132.05822,32.6318218 132.41989,32.2116295 L133.082788,33.052014 Z" id="Fill-52" fill="#16A0DB" mask="url(#mask-8)"></path>
                    <path d="M134.971902,33.612585 L136.177143,33.612585 L136.177143,23.6051086 L134.971902,23.6051086 L134.971902,33.612585 Z M134.870948,21.1435174 L136.277443,21.1435174 L136.277443,19.6027039 L134.870948,19.6027039 L134.870948,21.1435174 Z" id="Fill-53" fill="#16A0DB" mask="url(#mask-8)"></path>
                    <path d="M146.925313,28.6091072 C146.925313,26.1071567 145.358403,24.4058825 143.208638,24.4058825 C141.0592,24.4058825 139.491962,26.1071567 139.491962,28.6091072 C139.491962,31.1107322 141.0592,32.8120065 143.208638,32.8120065 C145.358403,32.8120065 146.925313,31.1107322 146.925313,28.6091072 M138.286722,28.6091072 C138.286722,25.5265037 140.356116,23.4053627 143.208638,23.4053627 C146.061487,23.4053627 148.13088,25.5265037 148.13088,28.6091072 C148.13088,31.6910597 146.061487,33.8125263 143.208638,33.8125263 C140.356116,33.8125263 138.286722,31.6910597 138.286722,28.6091072" id="Fill-54" fill="#16A0DB" mask="url(#mask-8)"></path>
                    <path d="M158.578476,27.2677792 L158.578476,33.6126501 L157.373235,33.6126501 L157.373235,27.3478469 C157.373235,25.5264712 156.408455,24.4058499 154.761173,24.4058499 C152.67185,24.4058499 151.325797,26.2672594 151.325797,29.4296051 L151.325797,33.6126501 L150.12023,33.6126501 L150.12023,23.6051737 L151.325797,23.6051737 L151.325797,25.7067861 C152.028881,24.225535 153.234448,23.4053301 154.922242,23.4053301 C157.131795,23.4053301 158.578476,24.866076 158.578476,27.2677792" id="Fill-55" fill="#16A0DB" mask="url(#mask-8)"></path>
                    <polygon id="Fill-56" fill="#16A0DB" mask="url(#mask-8)" points="70.8207003 51.8396865 72.1066386 51.8396865 72.1066386 37.8294798 70.8207003 37.8294798"></polygon>
                    <path d="M83.3772867,45.4950434 L83.3772867,51.8395888 L82.1717196,51.8395888 L82.1717196,45.575111 C82.1717196,43.7537353 81.2072658,42.6327886 79.5599841,42.6327886 C77.470661,42.6327886 76.1246077,44.4941981 76.1246077,47.6568692 L76.1246077,51.8395888 L74.9190406,51.8395888 L74.9190406,41.8324379 L76.1246077,41.8324379 L76.1246077,43.9337248 C76.8276919,42.4527992 78.0332591,41.6322688 79.7207264,41.6322688 C81.9306061,41.6322688 83.3772867,43.0933402 83.3772867,45.4950434" id="Fill-57" fill="#16A0DB" mask="url(#mask-8)"></path>
                    <path d="M93.6036328,46.8360459 C93.6036328,44.3340954 92.2373233,42.6328212 90.0476997,42.6328212 C87.8780055,42.6328212 86.4715105,44.3340954 86.4715105,46.8360459 C86.4715105,49.3379964 87.8780055,51.0389452 90.0476997,51.0389452 C92.2373233,51.0389452 93.6036328,49.3379964 93.6036328,46.8360459 L93.6036328,46.8360459 Z M94.8088732,37.8294148 L94.8088732,51.8396214 L93.6036328,51.8396214 L93.6036328,49.9983915 C92.8401069,51.279148 91.5544953,52.0397904 89.927143,52.0397904 C87.1144796,52.0397904 85.2659433,49.9183239 85.2659433,46.8360459 C85.2659433,43.7537679 87.1144796,41.6323014 89.927143,41.6323014 C91.5544953,41.6323014 92.8401069,42.3929438 93.6036328,43.6737003 L93.6036328,37.8294148 L94.8088732,37.8294148 Z" id="Fill-58" fill="#16A0DB" mask="url(#mask-8)"></path>
                    <path d="M97.5418189,51.8396865 L98.7470593,51.8396865 L98.7470593,41.8325355 L97.5418189,41.8325355 L97.5418189,51.8396865 Z M97.4411916,39.3702934 L98.8476866,39.3702934 L98.8476866,37.8294798 L97.4411916,37.8294798 L97.4411916,39.3702934 Z" id="Fill-59" fill="#16A0DB" mask="url(#mask-8)"></path>
                    <path d="M108.310115,48.2371317 L108.310115,46.4356101 L105.638264,47.0960053 C104.432697,47.3964216 103.066714,47.9367153 103.066714,49.2978649 C103.066714,50.3185644 103.85017,51.0590272 105.216152,51.0590272 C106.903946,51.0590272 108.129443,49.9582601 108.310115,48.2371317 M109.515355,45.7950692 L109.515355,51.8395237 L108.3503,51.8395237 L108.3503,50.0985412 C107.707331,51.3194097 106.502091,52.0400183 104.995295,52.0400183 C103.086644,52.0400183 101.881077,50.9187461 101.881077,49.2978649 C101.881077,47.5165231 103.327757,46.675813 105.336709,46.1755531 L108.310115,45.4350903 C108.229744,43.7539957 107.285546,42.6327235 105.477522,42.6327235 C103.769798,42.6327235 102.48386,43.6335688 102.082331,45.4149107 L100.937206,45.074786 C101.479548,42.893106 103.167015,41.6322037 105.457592,41.6322037 C108.109514,41.6322037 109.515355,43.333478 109.515355,45.7950692" id="Fill-60" fill="#16A0DB" mask="url(#mask-8)"></path>
                </g>
            </g>
        </g>
    </g>
</svg>