<?xml version="1.0" encoding="utf-8"?>
<!-- Generator: Adobe Illustrator 22.1.0, SVG Export Plug-In . SVG Version: 6.00 Build 0)  -->
<svg version="1.1" id="Layer_1" xmlns="http://www.w3.org/2000/svg" xmlns:xlink="http://www.w3.org/1999/xlink" x="0px" y="0px"
	 viewBox="0 0 240 72" style="enable-background:new 0 0 240 72;" xml:space="preserve">
<style type="text/css">
	.st0{fill:#234091;}
	.st1{fill:#1A9FD9;}
</style>
<title>Group 4</title>
<desc>Created with Sketch.</desc>
<g>
	<path class="st0" d="M41.5,4.2L3.8,41.8c0.6,1.4,1.3,2.8,2.1,4.1L45.6,6.3C44.3,5.5,42.9,4.7,41.5,4.2"/>
	<path class="st0" d="M31.1,2L1.7,31.4c0,1.9,0.3,3.8,0.7,5.6L36.7,2.7C34.8,2.3,33,2,31.1,2"/>
	<path class="st0" d="M10.1,10.4c-4,4-6.6,8.9-7.7,14L24.1,2.7C19,3.9,14.1,6.4,10.1,10.4"/>
	<path class="st0" d="M58.6,37c0.4-1.8,0.6-3.7,0.7-5.6L46.2,18.3l3.1-3.1l9.3,9.3c-1-4.5-3.1-8.7-6.2-12.4c-0.5-0.6-1-1.1-1.5-1.6
		c-0.5-0.5-1.1-1-1.6-1.5L8.6,49.6c0.5,0.6,1,1.1,1.5,1.6c0.5,0.5,1.1,1,1.6,1.5L30.5,34l18.8,18.8c0.6-0.5,1.1-1,1.6-1.5
		c0.5-0.5,1-1.1,1.5-1.6L33.6,30.8l3.1-3.1L55,45.9c0.8-1.3,1.5-2.7,2.1-4.1L39.9,24.5l3.1-3.1L58.6,37z"/>
	<path class="st1" d="M45.6,55.4L30.5,40.2L15.4,55.4c1.3,0.8,2.7,1.5,4.1,2.1l8.7-8.7v19.7h4.6V48.8l8.7,8.7
		C42.9,56.9,44.3,56.2,45.6,55.4"/>
	<path class="st0" d="M128.3,63c0-3.5,1.7-6.2,5.2-6.2c1.9,0,3.1,1,3.6,2.2v-1.9h3.7v12.6h-3.7v-1.9c-0.5,1.2-1.7,2.2-3.6,2.2
		c-3.5,0-5.2-2.6-5.2-6.2V63z M132.2,63.9c0,1.9,0.7,3.1,2.5,3.1c1.6,0,2.4-1.1,2.4-2.9v-1.3c0-1.8-0.8-2.9-2.4-2.9
		c-1.8,0-2.5,1.2-2.5,3.1V63.9z"/>
	<path class="st0" d="M148.7,56.8c1.5,0,2.9,0.3,3.7,0.8l-0.8,2.7c-0.6-0.3-1.5-0.6-2.5-0.6c-2.1,0-3,1.2-3,3.2v0.7
		c0,2,0.9,3.2,3,3.2c1,0,2-0.3,2.5-0.6l0.8,2.7c-0.8,0.5-2.2,0.8-3.7,0.8c-4.5,0-6.5-2.4-6.5-6.3v-0.6
		C142.2,59.2,144.3,56.8,148.7,56.8"/>
	<path class="st0" d="M152.9,63.9v-1.1c0-3.6,2-5.9,6.2-5.9c3.9,0,5.6,2.4,5.6,5.9v2h-8c0.1,1.7,0.8,2.5,3,2.5
		c1.4,0,2.9-0.3,4.1-0.8l0.7,2.6c-1,0.5-3.1,0.9-4.9,0.9C154.7,70,152.9,67.6,152.9,63.9 M156.7,62.2h4.6v-0.3
		c0-1.4-0.6-2.5-2.2-2.5C157.4,59.5,156.7,60.5,156.7,62.2"/>
	<path class="st0" d="M178.9,63.8c0,3.5-1.7,6.2-5.2,6.2c-1.9,0-3.2-1-3.8-2.2v1.9h-3.6V50.8l3.8-0.3v8.4c0.6-1.1,1.8-2,3.5-2
		c3.5,0,5.2,2.6,5.2,6.2V63.8z M175.1,62.9c0-1.8-0.7-3.1-2.5-3.1c-1.6,0-2.4,1.1-2.4,2.9v1.3c0,1.8,0.8,2.9,2.4,2.9
		c1.8,0,2.5-1.3,2.5-3.1V62.9z"/>
	<path class="st0" d="M180.1,63.7v-0.6c0-3.6,2.1-6.2,6.3-6.2c4.2,0,6.3,2.6,6.3,6.2v0.6c0,3.6-2.1,6.2-6.3,6.2
		C182.2,70,180.1,67.4,180.1,63.7 M188.9,62.8c0-1.7-0.7-3-2.5-3c-1.8,0-2.5,1.3-2.5,3V64c0,1.7,0.7,3,2.5,3c1.8,0,2.5-1.3,2.5-3
		V62.8z"/>
	<path class="st0" d="M194,63.7v-0.6c0-3.6,2.1-6.2,6.3-6.2c4.2,0,6.3,2.6,6.3,6.2v0.6c0,3.6-2.1,6.2-6.3,6.2
		C196,70,194,67.4,194,63.7 M202.7,62.8c0-1.7-0.7-3-2.5-3c-1.8,0-2.5,1.3-2.5,3V64c0,1.7,0.7,3,2.5,3c1.8,0,2.5-1.3,2.5-3V62.8z"/>
	<polygon class="st0" points="211.8,63.1 215.5,57.1 219.6,57.1 215.6,63.3 219.7,69.7 215.7,69.7 211.8,63.5 211.8,69.7 
		207.9,69.7 207.9,50.8 211.8,50.4 	"/>
	<path class="st0" d="M126.4,53.5c-1.2,0-1.5,0.5-1.5,1.7v1.9h3.2l-0.3,3.1h-2.9v9.5h-3.8v-9.5h-2.6v-3.1h2.6v-1.9
		c0-3.2,1.3-4.8,4.8-4.8c0.8,0,1.7,0.1,2.2,0.1v2.9H126.4z"/>
	<path class="st0" d="M109.9,56.7c-2,0-3.6,1-4.5,2.9c-0.6-1.9-2.1-2.9-4.1-2.9c-2,0-3.4,1-4.2,2.7V57h-1.5v12.6H97v-5.2
		c0-4,1.6-6.3,4.1-6.3c2,0,3.1,1.4,3.1,3.7v7.9h1.5v-5.2c0-4,1.6-6.3,4.1-6.3c2,0,3.1,1.4,3.1,3.7v7.9h1.5v-8
		C114.4,58.5,112.6,56.7,109.9,56.7 M86.9,68.5c-2.7,0-4.6-2.1-4.6-5.3c0-3.1,2-5.3,4.6-5.3c2.7,0,4.6,2.1,4.6,5.3
		C91.5,66.4,89.6,68.5,86.9,68.5 M86.9,69.8c3.6,0,6.2-2.7,6.2-6.5c0-3.9-2.6-6.5-6.2-6.5c-3.6,0-6.2,2.7-6.2,6.5
		C80.7,67.1,83.3,69.8,86.9,69.8 M78.8,56.8c-1.5,0-2.7,0.7-3.3,2.4V57h-1.4l0,12.6h1.5l0-5.6c0.1-4.3,1.2-5.8,3.1-5.8
		c0.5,0,0.9,0.1,1.1,0.3l0.6-1.3C79.9,56.9,79.4,56.8,78.8,56.8 M70.6,52.9c0.7,0,1.2,0.3,1.6,0.7l0.8-1c-0.6-0.6-1.5-1-2.5-1
		c-2,0-3.2,1.3-3.2,3.5V57h-2.1v1.3h2.1v11.3h1.5V58.2h3.3V57h-3.3v-2C68.8,53.7,69.5,52.9,70.6,52.9"/>
	<path class="st1" d="M67.3,15.4l1.5-0.5c0.7,2.7,2.8,4.4,5.7,4.4c2.8,0,4.7-1.5,4.7-3.8c0-1.7-1.2-3-3.3-3.3l-3.6-0.6
		c-2.8-0.4-4.5-2-4.5-4.4c0-3,2.6-5,6.1-5c3.3,0,5.5,1.7,6.3,4.3l-1.5,0.5C78.2,5,76.6,3.7,74,3.7c-2.5,0-4.6,1.3-4.6,3.5
		c0,1.7,1.2,2.7,3.3,3l3.6,0.6c2.9,0.5,4.5,2.3,4.5,4.8c0,3.2-2.6,5.3-6.4,5.3C70.8,20.7,68.1,18.7,67.3,15.4"/>
	<path class="st1" d="M83,14.1c0-3.9,2.6-6.7,6.3-6.7c2.8,0,4.9,1.6,5.6,4.3l-1.4,0.4C93,10,91.4,8.7,89.3,8.7
		c-2.7,0-4.7,2.1-4.7,5.3c0,3.1,1.9,5.4,4.7,5.4c2,0,3.7-1.2,4.4-3.3l1.4,0.5c-0.9,2.6-3.1,4.1-5.8,4.1C85.6,20.7,83,18,83,14.1"/>
	<path class="st1" d="M108.7,12.4v8.1h-1.5v-8c0-2.3-1.2-3.8-3.3-3.8c-2.7,0-4.4,2.4-4.4,6.4v5.3h-1.5V2.6h1.5v7.8
		c0.9-1.9,2.4-2.9,4.6-2.9C106.8,7.4,108.7,9.3,108.7,12.4"/>
	<path class="st1" d="M110.7,14.1c0-3.9,2.6-6.6,6.3-6.6c3.6,0,6.3,2.7,6.3,6.6c0,3.9-2.6,6.6-6.3,6.6
		C113.3,20.7,110.7,18,110.7,14.1 M121.7,14.1c0-3.2-2-5.4-4.7-5.4c-2.7,0-4.7,2.2-4.7,5.4c0,3.2,2,5.4,4.7,5.4
		C119.7,19.5,121.7,17.3,121.7,14.1"/>
	<path class="st1" d="M125,14.1c0-3.9,2.6-6.6,6.3-6.6c3.6,0,6.3,2.7,6.3,6.6c0,3.9-2.6,6.6-6.3,6.6C127.6,20.7,125,18,125,14.1
		 M136,14.1c0-3.2-2-5.4-4.7-5.4c-2.7,0-4.7,2.2-4.7,5.4c0,3.2,2,5.4,4.7,5.4C134,19.5,136,17.3,136,14.1"/>
	<rect x="140" y="2.6" class="st1" width="1.6" height="17.9"/>
	<path class="st1" d="M150.3,14.1c0-3.9,2.6-6.6,6.3-6.6c3.6,0,6.3,2.7,6.3,6.6c0,3.9-2.6,6.6-6.3,6.6
		C152.9,20.7,150.3,18,150.3,14.1 M161.2,14.1c0-3.2-2-5.4-4.7-5.4c-2.7,0-4.7,2.2-4.7,5.4c0,3.2,2,5.4,4.7,5.4
		C159.3,19.5,161.2,17.3,161.2,14.1"/>
	<path class="st1" d="M167.7,5.7v2h3.4V9h-3.4v11.5h-1.6V9h-2.1V7.7h2.1V5.9c0-2.2,1.3-3.5,3.4-3.5c1,0,1.9,0.4,2.5,1l-0.8,1
		c-0.4-0.4-0.9-0.7-1.6-0.7C168.4,3.6,167.7,4.4,167.7,5.7"/>
	<rect x="67.8" y="25.9" class="st1" width="1.6" height="17.9"/>
	<path class="st1" d="M83.8,35.7v8.1h-1.5v-8c0-2.3-1.2-3.8-3.3-3.8c-2.7,0-4.4,2.4-4.4,6.4v5.3H73V31h1.5v2.7
		c0.9-1.9,2.4-2.9,4.6-2.9C82,30.7,83.8,32.6,83.8,35.7"/>
	<path class="st1" d="M97.8,35.7v8.1h-1.5v-8c0-2.3-1.2-3.8-3.3-3.8c-2.7,0-4.4,2.4-4.4,6.4v5.3H87V31h1.5v2.7
		c0.9-1.9,2.4-2.9,4.6-2.9C95.9,30.7,97.8,32.6,97.8,35.7"/>
	<path class="st1" d="M100.2,37.4c0-3.9,2.6-6.6,6.3-6.6c3.6,0,6.3,2.7,6.3,6.6c0,3.9-2.6,6.6-6.3,6.6
		C102.8,44,100.2,41.3,100.2,37.4 M111.2,37.4c0-3.2-2-5.4-4.7-5.4c-2.7,0-4.7,2.2-4.7,5.4c0,3.2,2,5.4,4.7,5.4
		C109.2,42.8,111.2,40.6,111.2,37.4"/>
	<polygon class="st1" points="125.2,31 120.4,43.8 118.4,43.8 113.6,31 115.2,31 119.5,42.3 123.6,31 	"/>
	<path class="st1" d="M137.6,36v7.7h-1.5v-2.2c-0.8,1.6-2.4,2.5-4.3,2.5c-2.4,0-4-1.4-4-3.5c0-2.3,1.8-3.4,4.4-4l3.8-0.9
		c-0.1-2.1-1.3-3.6-3.6-3.6c-2.2,0-3.8,1.3-4.3,3.6l-1.5-0.4c0.7-2.8,2.8-4.4,5.8-4.4C135.8,30.7,137.6,32.9,137.6,36 M136.1,39.2
		v-2.3l-3.4,0.8c-1.5,0.4-3.3,1.1-3.3,2.8c0,1.3,1,2.3,2.7,2.3C134.3,42.8,135.9,41.4,136.1,39.2"/>
	<path class="st1" d="M147.1,43.1c-0.5,0.6-1.4,1-2.4,1c-1.8,0-3-1.2-3-3.1l0-8.6h-2.2V31h2.2v-2.7l1.5-0.7V31h3.2v1.3h-3.2v8.8
		c0,1.1,0.6,1.7,1.5,1.7c0.6,0,1-0.2,1.5-0.8L147.1,43.1z"/>
	<path class="st1" d="M151.1,27.8h-1.8v-2h1.8V27.8z M151,43.8h-1.5V31h1.5V43.8z"/>
	<path class="st1" d="M153.7,37.4c0-3.9,2.6-6.6,6.3-6.6c3.6,0,6.3,2.7,6.3,6.6c0,3.9-2.6,6.6-6.3,6.6
		C156.3,44,153.7,41.3,153.7,37.4 M164.7,37.4c0-3.2-2-5.4-4.7-5.4c-2.7,0-4.7,2.2-4.7,5.4c0,3.2,2,5.4,4.7,5.4
		C162.7,42.8,164.7,40.6,164.7,37.4"/>
	<path class="st1" d="M179.5,35.7v8.1H178v-8c0-2.3-1.2-3.8-3.3-3.8c-2.7,0-4.4,2.4-4.4,6.4v5.3h-1.5V31h1.5v2.7
		c0.9-1.9,2.4-2.9,4.6-2.9C177.7,30.7,179.5,32.6,179.5,35.7"/>
	<rect x="189.1" y="26.4" class="st1" width="1.6" height="17.9"/>
	<path class="st1" d="M205,36.2v8.1h-1.5v-8c0-2.3-1.2-3.8-3.3-3.8c-2.7,0-4.4,2.4-4.4,6.4v5.3h-1.5V31.5h1.5v2.7
		c0.9-1.9,2.4-2.9,4.6-2.9C203.2,31.2,205,33.1,205,36.2"/>
	<path class="st1" d="M219.6,26.4v17.9h-1.5v-2.4c-1,1.6-2.6,2.6-4.7,2.6c-3.6,0-5.9-2.7-5.9-6.6s2.4-6.6,5.9-6.6
		c2.1,0,3.7,1,4.7,2.6v-7.5H219.6z M218.1,37.9c0-3.2-1.7-5.4-4.5-5.4c-2.8,0-4.6,2.2-4.6,5.4c0,3.2,1.8,5.4,4.6,5.4
		C216.3,43.3,218.1,41.1,218.1,37.9"/>
	<path class="st1" d="M224.7,28.3H223v-2h1.8V28.3z M224.6,44.3h-1.5V31.5h1.5V44.3z"/>
	<path class="st1" d="M238.3,36.6v7.7h-1.5v-2.2c-0.8,1.6-2.4,2.5-4.3,2.5c-2.4,0-4-1.4-4-3.5c0-2.3,1.8-3.4,4.4-4l3.8-0.9
		c-0.1-2.1-1.3-3.6-3.6-3.6c-2.2,0-3.8,1.3-4.3,3.6l-1.5-0.4c0.7-2.8,2.8-4.4,5.8-4.4C236.5,31.2,238.3,33.4,238.3,36.6 M236.8,39.7
		v-2.3l-3.4,0.8c-1.5,0.4-3.3,1.1-3.3,2.8c0,1.3,1,2.3,2.7,2.3C235,43.3,236.6,41.9,236.8,39.7"/>
</g>
</svg>
