<svg id="305c6818-bbd4-405d-8e5f-1ce9bad44940" data-name="Layer 1" xmlns="http://www.w3.org/2000/svg" xmlns:xlink="http://www.w3.org/1999/xlink" viewBox="0 0 50 49.98"><defs><linearGradient id="c261a1e4-4199-497e-9066-9e38bf95b6f0" x1="-16.15" y1="16.72" x2="34.12" y2="66.99" gradientUnits="userSpaceOnUse"><stop offset="0" stop-color="#53a867"/><stop offset="1" stop-color="#0d71ba"/></linearGradient><linearGradient id="b83cf275-884a-491f-80d0-67b61f6f2ef9" x1="-5.89" y1="6.47" x2="44.37" y2="56.73" xlink:href="#c261a1e4-4199-497e-9066-9e38bf95b6f0"/><linearGradient id="caf0c601-33c1-44b5-ab49-3eaab6eabff4" x1="-2.3" y1="2.88" x2="47.96" y2="53.14" xlink:href="#c261a1e4-4199-497e-9066-9e38bf95b6f0"/><linearGradient id="cef0107b-6cb8-4980-9ad0-800245ab9370" x1="-8.9" y1="9.47" x2="41.37" y2="59.74" xlink:href="#c261a1e4-4199-497e-9066-9e38bf95b6f0"/><linearGradient id="a6c4ce96-4a23-473c-9048-0abad281217c" x1="20.05" y1="-19.48" x2="70.32" y2="30.79" xlink:href="#c261a1e4-4199-497e-9066-9e38bf95b6f0"/><linearGradient id="77b40195-e697-404a-9943-db93e9a988b3" x1="18.3" y1="-17.73" x2="68.57" y2="32.54" xlink:href="#c261a1e4-4199-497e-9066-9e38bf95b6f0"/><linearGradient id="39a0a6e1-a482-4de3-8674-17e9ae5411b1" x1="1.9" y1="-1.33" x2="52.17" y2="48.94" xlink:href="#c261a1e4-4199-497e-9066-9e38bf95b6f0"/><linearGradient id="ddf7c1ce-c52a-468d-b4db-6fd9abb6cc1d" x1="-4.86" y1="5.43" x2="45.41" y2="55.7" xlink:href="#c261a1e4-4199-497e-9066-9e38bf95b6f0"/><linearGradient id="8b265f52-82a5-4cd6-ad11-4c880598c0aa" x1="-1.88" y1="2.45" x2="48.39" y2="52.72" xlink:href="#c261a1e4-4199-497e-9066-9e38bf95b6f0"/><linearGradient id="ca09badf-6b95-4903-b81b-b1e6f2e51871" x1="-0.07" y1="0.64" x2="50.2" y2="50.91" xlink:href="#c261a1e4-4199-497e-9066-9e38bf95b6f0"/><linearGradient id="ef6fe57f-1155-4090-986b-a4619b70a08f" x1="6.09" y1="-5.52" x2="56.36" y2="44.75" xlink:href="#c261a1e4-4199-497e-9066-9e38bf95b6f0"/><linearGradient id="02c48677-9a19-4a34-af25-dd605190a0e1" x1="3.95" y1="-3.38" x2="54.22" y2="46.89" xlink:href="#c261a1e4-4199-497e-9066-9e38bf95b6f0"/><linearGradient id="dcb2e6fb-604e-4043-a43a-42c4e220e0d3" x1="1.89" y1="-1.32" x2="52.16" y2="48.95" xlink:href="#c261a1e4-4199-497e-9066-9e38bf95b6f0"/><linearGradient id="d3e7f3fa-3407-4764-8a8b-031ed81fa5f4" x1="8.14" y1="-7.56" x2="58.4" y2="42.71" xlink:href="#c261a1e4-4199-497e-9066-9e38bf95b6f0"/><linearGradient id="a335e76c-e511-4aa1-973a-c044fc9f7317" x1="10.06" y1="-9.49" x2="60.33" y2="40.78" xlink:href="#c261a1e4-4199-497e-9066-9e38bf95b6f0"/><linearGradient id="8b727431-7786-401d-b7f5-59befc8c3226" x1="14.69" y1="-14.12" x2="64.96" y2="36.15" xlink:href="#c261a1e4-4199-497e-9066-9e38bf95b6f0"/><linearGradient id="8d0c4c27-0b76-4f16-a063-241eeb204a74" x1="15.4" y1="-14.83" x2="65.67" y2="35.44" xlink:href="#c261a1e4-4199-497e-9066-9e38bf95b6f0"/><linearGradient id="8edcbf9b-86d9-48f3-a491-04a6ea084d39" x1="14.33" y1="-13.76" x2="64.6" y2="36.51" xlink:href="#c261a1e4-4199-497e-9066-9e38bf95b6f0"/><linearGradient id="3b0a229e-c8e2-46b9-9935-a2209c9b9248" x1="13.56" y1="-12.99" x2="63.83" y2="37.28" xlink:href="#c261a1e4-4199-497e-9066-9e38bf95b6f0"/><linearGradient id="e3d52a28-2873-4fbb-a651-9f1fbd9499c4" x1="15.2" y1="-14.63" x2="65.47" y2="35.64" xlink:href="#c261a1e4-4199-497e-9066-9e38bf95b6f0"/><linearGradient id="25a3834a-8f3f-403d-b5dc-fb1f313d7b5b" x1="15.7" y1="-15.12" x2="65.96" y2="35.15" xlink:href="#c261a1e4-4199-497e-9066-9e38bf95b6f0"/><linearGradient id="fb1abf54-d380-4ac4-bcc5-8b0f84fc3b35" x1="15.73" y1="-15.15" x2="66" y2="35.11" xlink:href="#c261a1e4-4199-497e-9066-9e38bf95b6f0"/><linearGradient id="df112824-cc61-48f2-a56b-1bf75ae15654" x1="10.18" y1="-9.6" x2="60.45" y2="40.66" xlink:href="#c261a1e4-4199-497e-9066-9e38bf95b6f0"/><linearGradient id="951bed77-0be4-48ed-944c-dc4c44783f92" x1="8.7" y1="-8.13" x2="58.97" y2="42.14" xlink:href="#c261a1e4-4199-497e-9066-9e38bf95b6f0"/><linearGradient id="36f8b1bb-d526-46fd-ba55-fc8cfc79255f" x1="7.23" y1="-6.66" x2="57.5" y2="43.61" xlink:href="#c261a1e4-4199-497e-9066-9e38bf95b6f0"/><linearGradient id="58d7b870-1502-4f0c-a6e0-0be8925e6fd1" x1="12.38" y1="-11.8" x2="62.64" y2="38.47" xlink:href="#c261a1e4-4199-497e-9066-9e38bf95b6f0"/></defs><title>team</title><rect x="10.41" y="43.2" width="1.48" height="1.65" fill="url(#c261a1e4-4199-497e-9066-9e38bf95b6f0)"/><path d="M42.38,31.63a7.33,7.33,0,0,0-.85-13.24c0-.48.08-.95.08-1.43,0-.21,0-.42,0-.63l-1.48,0c0,.19,0,.39,0,.59s0,.54,0,.81l0,.21a7.31,7.31,0,0,0-7,2.76,8.18,8.18,0,0,0-7.3-6.7v-.72H24.26V14a8.18,8.18,0,0,0-7.3,6.7,7.3,7.3,0,0,0-6.67-2.82c0-.17,0-.32,0-.36,0-.39,0-.79,0-1.18L8.83,16.3c0,.65,0,1.3,0,1.95A7.33,7.33,0,0,0,7.62,31.63,11.17,11.17,0,0,0,0,42.21V50H50V42.21A11.17,11.17,0,0,0,42.38,31.63Zm-3.53-.57a5.86,5.86,0,0,1-5.74-4.74,10.87,10.87,0,0,0,3.71-2.11,14.3,14.3,0,0,0,7.72,2.33A5.86,5.86,0,0,1,38.85,31.06Zm2.53,1.82-2.53,2.9-2.53-2.9a9.68,9.68,0,0,1,5.06,0ZM38.85,19.36a5.85,5.85,0,0,1,5.84,5.69,13.26,13.26,0,0,1-6.83-1.94,5.12,5.12,0,0,0,.55-.83l-1.33-.65A7.52,7.52,0,0,1,33,24.77,5.85,5.85,0,0,1,38.85,19.36ZM35.32,31.63a11.11,11.11,0,0,0-1.67.72,12.48,12.48,0,0,0-4.91-2.92,8.22,8.22,0,0,0,3-2.6A7.36,7.36,0,0,0,35.32,31.63ZM25,28.85a6.69,6.69,0,0,1-6.57-5.49,12.15,12.15,0,0,0,4.28-2.44,16,16,0,0,0,8.82,2.65A6.69,6.69,0,0,1,25,28.85Zm3,1.91-3,3.46-3-3.46a11,11,0,0,1,6,0ZM25,15.49a6.69,6.69,0,0,1,6.68,6.6,15,15,0,0,1-7.93-2.26,5.82,5.82,0,0,0,.67-1l-1.33-.65a8.61,8.61,0,0,1-4.76,3.64A6.69,6.69,0,0,1,25,15.49ZM21.26,29.42a12.48,12.48,0,0,0-4.91,2.92,11.09,11.09,0,0,0-1.67-.72,7.36,7.36,0,0,0,3.62-4.8A8.22,8.22,0,0,0,21.26,29.42ZM11.15,19.36A5.85,5.85,0,0,1,17,25.05a13.26,13.26,0,0,1-6.83-1.94,5.11,5.11,0,0,0,.55-.83l-1.33-.65a7.5,7.5,0,0,1-4.06,3.15A5.85,5.85,0,0,1,11.15,19.36Zm-5.74,7a10.87,10.87,0,0,0,3.71-2.11,14.3,14.3,0,0,0,7.72,2.33,5.85,5.85,0,0,1-11.44-.21Zm8.27,6.56-2.53,2.9-2.53-2.9a9.68,9.68,0,0,1,5.06,0ZM12.53,48.5H6.1v-6H4.61v6H1.48V42.21a9.68,9.68,0,0,1,5.64-8.79l3.28,3.77V41.8h1.48V37.18l3.28-3.77.13.06a12.41,12.41,0,0,0-2.78,7.84V48.5ZM36,48.5H32.27V41.69H30.79V48.5H19.21V41.69H17.73V48.5H14V41.32a11,11,0,0,1,6.47-10l3.77,4.32v5.24h1.48V35.63l3.77-4.32a11,11,0,0,1,6.47,10Zm12.53,0H45.39v-6H43.9v6H37.47V41.32a12.41,12.41,0,0,0-2.78-7.84l.13-.06,3.28,3.77V41.8h1.48V37.18l3.28-3.77a9.68,9.68,0,0,1,5.64,8.79Z" fill="url(#b83cf275-884a-491f-80d0-67b61f6f2ef9)"/><rect x="38.11" y="43.2" width="1.48" height="1.65" fill="url(#caf0c601-33c1-44b5-ab49-3eaab6eabff4)"/><rect x="24.26" y="42.44" width="1.48" height="1.86" fill="url(#cef0107b-6cb8-4980-9ad0-800245ab9370)"/><rect x="42.22" y="2.61" width="1.48" height="1.65" fill="url(#a6c4ce96-4a23-473c-9048-0abad281217c)"/><rect x="46.37" y="10.26" width="1.48" height="1.65" fill="url(#77b40195-e697-404a-9943-db93e9a988b3)"/><rect x="6.75" y="3.44" width="1.48" height="1.65" fill="url(#39a0a6e1-a482-4de3-8674-17e9ae5411b1)"/><rect x="1.25" y="11.45" width="1.48" height="1.65" fill="url(#ddf7c1ce-c52a-468d-b4db-6fd9abb6cc1d)"/><path d="M9.26,13.25c-.11.5-.2,1-.27,1.52l1.47.21c.07-.47.15-.94.25-1.4Z" fill="url(#8b265f52-82a5-4cd6-ad11-4c880598c0aa)"/><path d="M10.17,10.3c-.19.47-.36,1-.52,1.46l1.42.44c.14-.45.3-.91.47-1.34Z" fill="url(#ca09badf-6b95-4903-b81b-b1e6f2e51871)"/><path d="M15.84,3.06c-.42.3-.83.62-1.22,1l1,1.12c.35-.31.73-.6,1.11-.87Z" fill="url(#ef6fe57f-1155-4090-986b-a4619b70a08f)"/><path d="M13.5,5.1c-.36.37-.7.77-1,1.18l1.17.91c.29-.37.6-.73.92-1.07Z" fill="url(#02c48677-9a19-4a34-af25-dd605190a0e1)"/><path d="M11.58,7.54c-.27.43-.53.88-.77,1.35l1.32.67c.22-.42.45-.84.7-1.23Z" fill="url(#dcb2e6fb-604e-4043-a43a-42c4e220e0d3)"/><path d="M18.52,1.51c-.47.22-.93.46-1.38.72l.74,1.28c.41-.24.83-.45,1.25-.65Z" fill="url(#d3e7f3fa-3407-4764-8a8b-031ed81fa5f4)"/><path d="M21.45.48c-.5.12-1,.27-1.49.44l.49,1.4c.44-.16.9-.29,1.35-.4Z" fill="url(#a335e76c-e511-4aa1-973a-c044fc9f7317)"/><path d="M40.45,10.23l-1.38.55a13.56,13.56,0,0,1,.45,1.33l1.43-.4A15.08,15.08,0,0,0,40.45,10.23Z" fill="url(#8b727431-7786-401d-b7f5-59befc8c3226)"/><path d="M39,7.48l-1.25.8c.25.4.49.81.7,1.22l1.32-.68C39.53,8.37,39.27,7.91,39,7.48Z" fill="url(#8d0c4c27-0b76-4f16-a063-241eeb204a74)"/><path d="M28.85.4,28.5,1.84c.46.11.91.25,1.36.4l.49-1.4C29.85.67,29.35.52,28.85.4Z" fill="url(#8edcbf9b-86d9-48f3-a491-04a6ea084d39)"/><path d="M41.29,13.27l-1.46.27c.08.45.15.93.2,1.41l1.48-.15C41.45,14.28,41.38,13.76,41.29,13.27Z" fill="url(#3b0a229e-c8e2-46b9-9935-a2209c9b9248)"/><path d="M31.84,1.36l-.62,1.35c.43.2.85.41,1.26.65l.74-1.29C32.77,1.82,32.31,1.58,31.84,1.36Z" fill="url(#e3d52a28-2873-4fbb-a651-9f1fbd9499c4)"/><path d="M35.63,3.67c-.33-.28-.68-.55-1-.8l-.86,1.21c.32.23.64.47.94.73l.17.15,1-1.12Z" fill="url(#25a3834a-8f3f-403d-b5dc-fb1f313d7b5b)"/><path d="M37,5,35.92,6c.32.34.63.7.92,1.07L38,6.17C37.69,5.76,37.35,5.37,37,5Z" fill="url(#fb1abf54-d380-4ac4-bcc5-8b0f84fc3b35)"/><rect x="24.26" y="4.48" width="1.48" height="1.47" fill="url(#df112824-cc61-48f2-a56b-1bf75ae15654)"/><rect x="24.26" y="7.43" width="1.48" height="1.47" fill="url(#951bed77-0be4-48ed-944c-dc4c44783f92)"/><rect x="24.26" y="10.37" width="1.48" height="1.47" fill="url(#36f8b1bb-d526-46fd-ba55-fc8cfc79255f)"/><path d="M22.86.2l.22,1.47.2,0c.18,0,.6-.08,1-.11V3h1.48V1.5H26a9.7,9.7,0,0,1,1,.09h0L27.24.14A14.07,14.07,0,0,0,22.86.2Z" fill="url(#58d7b870-1502-4f0c-a6e0-0be8925e6fd1)"/></svg>