<svg id="798f2188-1564-44e1-bd0f-adc6edcf1056" data-name="Layer 1" xmlns="http://www.w3.org/2000/svg" xmlns:xlink="http://www.w3.org/1999/xlink" viewBox="0 0 50 55.76"><defs><linearGradient id="cb38d0d1-b8b4-4504-9ba2-f01316087a3c" x1="-9.15" y1="8.58" x2="45.87" y2="63.6" gradientUnits="userSpaceOnUse"><stop offset="0" stop-color="#53a867"/><stop offset="1" stop-color="#0d71ba"/></linearGradient><linearGradient id="f1b71020-5aba-494e-8a4a-e5e3c7309fb6" x1="-3.23" y1="2.66" x2="51.79" y2="57.68" xlink:href="#cb38d0d1-b8b4-4504-9ba2-f01316087a3c"/><linearGradient id="910fbf31-0772-4b6d-9396-d7ef6ea74223" x1="-0.28" y1="-0.28" x2="54.73" y2="54.73" xlink:href="#cb38d0d1-b8b4-4504-9ba2-f01316087a3c"/><linearGradient id="57771f31-b6d6-46d2-be17-139fcae26854" x1="8.17" y1="-8.74" x2="63.19" y2="46.28" xlink:href="#cb38d0d1-b8b4-4504-9ba2-f01316087a3c"/><linearGradient id="c533a8a2-e87b-41d1-a942-b823383053f4" x1="7.63" y1="-8.2" x2="62.65" y2="46.82" xlink:href="#cb38d0d1-b8b4-4504-9ba2-f01316087a3c"/><linearGradient id="2ee7fd32-d90c-4670-9492-b8e0716ee8fc" x1="16.94" y1="-17.51" x2="71.96" y2="37.51" xlink:href="#cb38d0d1-b8b4-4504-9ba2-f01316087a3c"/><linearGradient id="eac0f462-2431-401a-9c8c-a8778c76b3f8" x1="21.72" y1="-22.29" x2="76.74" y2="32.73" xlink:href="#cb38d0d1-b8b4-4504-9ba2-f01316087a3c"/><linearGradient id="9e2ee6ec-4498-4bdf-b41e-0018a3691fc6" x1="16.78" y1="-17.35" x2="71.8" y2="37.67" xlink:href="#cb38d0d1-b8b4-4504-9ba2-f01316087a3c"/><linearGradient id="1bafd184-b31e-4b39-9703-1cf291117dab" x1="-7.54" y1="6.97" x2="47.48" y2="61.99" xlink:href="#cb38d0d1-b8b4-4504-9ba2-f01316087a3c"/><linearGradient id="bc82fe07-59f3-4f27-af67-ccc6ceef89c0" x1="-16.21" y1="15.64" x2="38.81" y2="70.66" xlink:href="#cb38d0d1-b8b4-4504-9ba2-f01316087a3c"/><linearGradient id="4106ff9d-fe47-4ae1-b345-b23d2d568f84" x1="-7.34" y1="6.77" x2="47.68" y2="61.79" xlink:href="#cb38d0d1-b8b4-4504-9ba2-f01316087a3c"/><linearGradient id="f929d235-a89c-4289-8856-0e41d67fe302" x1="-17.72" y1="17.15" x2="37.3" y2="72.17" xlink:href="#cb38d0d1-b8b4-4504-9ba2-f01316087a3c"/><linearGradient id="799f2aab-de93-4345-b3ff-47fded2b3473" x1="-24.43" y1="23.86" x2="30.59" y2="78.88" xlink:href="#cb38d0d1-b8b4-4504-9ba2-f01316087a3c"/><linearGradient id="711b5806-ed9c-4333-8954-0727ea60e71a" x1="-0.1" y1="-0.47" x2="54.92" y2="54.55" xlink:href="#cb38d0d1-b8b4-4504-9ba2-f01316087a3c"/></defs><title>skill-icon</title><path d="M26,43.57l-.13,1.6c.52,0,1,.07,1.57.07V43.63C27,43.63,26.5,43.61,26,43.57Z" fill="url(#cb38d0d1-b8b4-4504-9ba2-f01316087a3c)"/><path d="M44.79,19.91v0A18.59,18.59,0,0,0,27.51,8.07h-.67l1.54-1.54L24.33,2.49,22,4.82a12.31,12.31,0,0,0-3.7-1.53V0H12.57V3.28a12.31,12.31,0,0,0-3.7,1.53L6.55,2.49,2.49,6.55,4.82,8.87a12.31,12.31,0,0,0-1.53,3.7H0V18.3H3.28A12.31,12.31,0,0,0,4.82,22L2.49,24.33l4.05,4.05,2.32-2.32h0c0,.19,0,.38,0,.56a18.56,18.56,0,0,0,8,15.3V55.76H38.16V45.2a7.12,7.12,0,0,0,6.31-7.07V34.8H50ZM8.67,24,6.55,26.11,4.77,24.33,6.89,22.2l-.39-.55a10.75,10.75,0,0,1-1.78-4.29l-.12-.66h-3V14.18h3l.12-.66A10.75,10.75,0,0,1,6.51,9.23l.39-.55L4.77,6.55,6.55,4.77,8.67,6.89l.55-.39a10.75,10.75,0,0,1,4.29-1.78l.66-.12v-3H16.7v3l.66.12a10.75,10.75,0,0,1,4.29,1.78l.55.39,2.12-2.12,1.78,1.78L24,8.67l.39.55a10.75,10.75,0,0,1,1.78,4.29l.12.66h3V16.7h-3l-.12.66a10.75,10.75,0,0,1-1.78,4.29L24,22.2l2.12,2.12-1.78,1.78L22.2,24l-.55.39a10.75,10.75,0,0,1-4.29,1.78l-.66.12v3H14.18v-3l-.66-.12a10.75,10.75,0,0,1-4.29-1.78Zm35.8,9.21V31.37H42.86v6.77a5.51,5.51,0,0,1-5.5,5.5H34.08v1.61h2.48v8.91H18.49V42.93a18.45,18.45,0,0,0,4.67,1.81l.37-1.56a16.9,16.9,0,0,1-13-16.27,12.32,12.32,0,0,0,2.08.69v3.28H18.3V27.59A12.31,12.31,0,0,0,22,26.06l2.32,2.32,4.05-4.05L26.06,22a12.3,12.3,0,0,0,1.53-3.7h3.28V12.57H27.59a12.28,12.28,0,0,0-1.06-2.86l.93,0h0A16.89,16.89,0,0,1,43.27,20.46l4.46,12.73H44.47Z" fill="url(#f1b71020-5aba-494e-8a4a-e5e3c7309fb6)"/><path d="M15.44,7.59a7.85,7.85,0,1,0,7.85,7.85A7.86,7.86,0,0,0,15.44,7.59Zm0,14.09a6.24,6.24,0,1,1,6.24-6.24A6.25,6.25,0,0,1,15.44,21.68Z" fill="url(#910fbf31-0772-4b6d-9396-d7ef6ea74223)"/><path d="M15.44,12.4a3,3,0,1,0,3,3A3,3,0,0,0,15.44,12.4Zm0,4.47a1.43,1.43,0,1,1,1.43-1.43A1.43,1.43,0,0,1,15.44,16.87Z" fill="url(#910fbf31-0772-4b6d-9396-d7ef6ea74223)"/><rect x="35.79" y="18.8" width="1.61" height="1.77" fill="url(#57771f31-b6d6-46d2-be17-139fcae26854)"/><rect x="39.46" y="23.55" width="1.61" height="1.77" fill="url(#c533a8a2-e87b-41d1-a942-b823383053f4)"/><rect x="46.84" y="12.32" width="1.61" height="1.77" fill="url(#2ee7fd32-d90c-4670-9492-b8e0716ee8fc)"/><rect x="46.84" y="2.76" width="1.61" height="1.77" fill="url(#eac0f462-2431-401a-9c8c-a8778c76b3f8)"/><rect x="36.67" y="2.46" width="1.61" height="1.77" fill="url(#9e2ee6ec-4498-4bdf-b41e-0018a3691fc6)"/><rect x="19.46" y="33.88" width="1.61" height="1.77" fill="url(#1bafd184-b31e-4b39-9703-1cf291117dab)"/><rect x="2.1" y="33.88" width="1.61" height="1.77" fill="url(#bc82fe07-59f3-4f27-af67-ccc6ceef89c0)"/><rect x="24.23" y="38.26" width="1.61" height="1.77" fill="url(#4106ff9d-fe47-4ae1-b345-b23d2d568f84)"/><rect x="11.39" y="46.18" width="1.61" height="1.77" fill="url(#f929d235-a89c-4289-8856-0e41d67fe302)"/><rect y="48.21" width="1.61" height="1.77" fill="url(#799f2aab-de93-4345-b3ff-47fded2b3473)"/><path d="M33.18,26.55a6.26,6.26,0,1,0,6.26,6.26A6.27,6.27,0,0,0,33.18,26.55Zm0,10.91a4.65,4.65,0,1,1,4.65-4.65A4.66,4.66,0,0,1,33.18,37.46Z" fill="url(#711b5806-ed9c-4333-8954-0727ea60e71a)"/></svg>