<svg id="e3e55e46-f24a-4017-a8eb-85f54bd96c95" data-name="Layer 1" xmlns="http://www.w3.org/2000/svg" xmlns:xlink="http://www.w3.org/1999/xlink" viewBox="0 0 50 56.34"><defs><linearGradient id="3c955753-6afd-40a8-b717-9c24196e3749" x1="3.4" y1="-5.44" x2="58.58" y2="49.75" gradientUnits="userSpaceOnUse"><stop offset="0" stop-color="#53a867"/><stop offset="1" stop-color="#0d71ba"/></linearGradient><linearGradient id="db3dcb53-cbaf-4a6e-b3b9-1f47afbc0d98" x1="-1.94" y1="-0.1" x2="53.24" y2="55.09" xlink:href="#3c955753-6afd-40a8-b717-9c24196e3749"/><linearGradient id="31bd71ff-799c-445d-a769-00789473181b" x1="1.53" y1="-3.57" x2="56.71" y2="51.61" xlink:href="#3c955753-6afd-40a8-b717-9c24196e3749"/><linearGradient id="c056e0b3-903d-4d20-b360-8d11e6b3d9c1" x1="6.4" y1="-8.44" x2="61.58" y2="46.74" xlink:href="#3c955753-6afd-40a8-b717-9c24196e3749"/><linearGradient id="dfcfeb1a-1553-46df-b099-d1f810c25bd6" x1="0.27" y1="-2.31" x2="55.45" y2="52.87" xlink:href="#3c955753-6afd-40a8-b717-9c24196e3749"/></defs><title>future-icon</title><path d="M18.75,4.75A21.26,21.26,0,0,0,12,8l.94,1.32a19.64,19.64,0,0,1,6.24-3Z" fill="url(#3c955753-6afd-40a8-b717-9c24196e3749)"/><path d="M9.59,10c-.5.48-1,1-1.44,1.52l1.23,1.06c.42-.49.87-1,1.33-1.41Z" fill="url(#db3dcb53-cbaf-4a6e-b3b9-1f47afbc0d98)"/><path d="M42.76,33a19.91,19.91,0,0,1-4,6.17l1.17,1.12a21.53,21.53,0,0,0,4.35-6.67Z" fill="url(#31bd71ff-799c-445d-a769-00789473181b)"/><path d="M44,28.81c-.09.54-.21,1.09-.35,1.63l1.57.41c.15-.58.28-1.17.38-1.76Z" fill="url(#c056e0b3-903d-4d20-b360-8d11e6b3d9c1)"/><path d="M50,6.19,48.85,5,47.71,6.18H44.85l.95-.95L44.64,4.08,43.7,5V2.16l1-1L43.56,0l-5.3,5.3A24.43,24.43,0,0,0,0,25.44,24.46,24.46,0,0,0,17.68,48.93v7.41H31.19V48.93A24.44,24.44,0,0,0,44.57,11.61Zm-10.43.09h0l2.5-2.5V6.65L40.91,7.81,42.06,9,43.22,7.8h2.87l-2.5,2.5h-4ZM25.17,2.65A22.6,22.6,0,0,1,37.95,7.07v3.7l-4.16,4.16a14,14,0,0,0-8.62-3.55Zm0,13.69V13a12.4,12.4,0,0,1,7.47,3.07l-6.83,6.83A2.88,2.88,0,1,0,27,24.06l6.83-6.83a12.4,12.4,0,0,1,3.05,7.2H33.26v1.63h3.6a12.47,12.47,0,0,1-11.7,11.81V34.16H23.54v3.7A12.47,12.47,0,0,1,12,26.06h3.45V24.43H12A12.47,12.47,0,0,1,23.54,13v3.31h1.63ZM25,26l.67-.67s0,.07,0,.1a1.25,1.25,0,1,1-1.25-1.25h.1l-.67.67ZM23.54,2.66V11.4a14.09,14.09,0,0,0-13.15,13H1.65A22.83,22.83,0,0,1,23.54,2.66ZM1.63,26.06h8.74A14.09,14.09,0,0,0,23.54,39.49v8.74A22.83,22.83,0,0,1,1.63,26.06ZM29.56,51.4H24.43V53h5.13v1.69H19.31V49.34a24.72,24.72,0,0,0,10.25,0Zm-4.39-3.17V39.5A14.09,14.09,0,0,0,38.49,26.06h8.74A22.83,22.83,0,0,1,25.17,48.23Zm22-23.8H38.47a14,14,0,0,0-3.53-8.35l4.16-4.16h3.7A22.59,22.59,0,0,1,47.21,24.43Z" fill="url(#dfcfeb1a-1553-46df-b099-d1f810c25bd6)"/></svg>