<svg id="7a6ac985-6a76-4b6c-a3cb-b96604aab87e" data-name="Layer 1" xmlns="http://www.w3.org/2000/svg" xmlns:xlink="http://www.w3.org/1999/xlink" viewBox="0 0 50 51"><defs><linearGradient id="136c36a5-5b1c-4f38-8c6b-b8fde3456cfb" x1="2.63" y1="-1.63" x2="52.53" y2="48.27" gradientUnits="userSpaceOnUse"><stop offset="0" stop-color="#53a867"/><stop offset="1" stop-color="#0d71ba"/></linearGradient><linearGradient id="d9f959bb-2267-4b3e-bd88-0908ef6252ee" x1="0.4" y1="0.6" x2="50.3" y2="50.5" xlink:href="#136c36a5-5b1c-4f38-8c6b-b8fde3456cfb"/><linearGradient id="42796d55-b833-4db4-bcb0-899dfa5475b5" x1="6.01" y1="-5.01" x2="55.91" y2="44.89" xlink:href="#136c36a5-5b1c-4f38-8c6b-b8fde3456cfb"/><linearGradient id="e959d2af-6077-4be0-93c2-b3a83e0e3534" x1="0.01" y1="0.99" x2="49.91" y2="50.89" xlink:href="#136c36a5-5b1c-4f38-8c6b-b8fde3456cfb"/><linearGradient id="7817d31a-08b8-4e95-be18-a5169e50c2a2" x1="-3.36" y1="4.36" x2="46.54" y2="54.26" xlink:href="#136c36a5-5b1c-4f38-8c6b-b8fde3456cfb"/><linearGradient id="dab44de0-344e-481e-93f5-0049602f99a2" x1="0.13" y1="0.87" x2="50.03" y2="50.77" xlink:href="#136c36a5-5b1c-4f38-8c6b-b8fde3456cfb"/><linearGradient id="8846fac1-dc51-4c60-8f3b-bd35faa0a4b1" x1="4.49" y1="-3.49" x2="54.39" y2="46.41" xlink:href="#136c36a5-5b1c-4f38-8c6b-b8fde3456cfb"/><linearGradient id="f916b2f5-54a8-4daf-8fb0-1808aed3c8b9" x1="15.7" y1="-14.7" x2="65.6" y2="35.2" xlink:href="#136c36a5-5b1c-4f38-8c6b-b8fde3456cfb"/><linearGradient id="021eb8dd-7b8a-451c-b648-498418869c49" x1="11.54" y1="-10.54" x2="61.44" y2="39.36" xlink:href="#136c36a5-5b1c-4f38-8c6b-b8fde3456cfb"/><linearGradient id="283e02dd-efad-4473-b13c-9e203f3d3769" x1="10.28" y1="-9.28" x2="60.18" y2="40.62" xlink:href="#136c36a5-5b1c-4f38-8c6b-b8fde3456cfb"/><linearGradient id="d534a528-620c-46f5-87b2-5f8e6c7e42de" x1="13.18" y1="-12.18" x2="63.08" y2="37.72" xlink:href="#136c36a5-5b1c-4f38-8c6b-b8fde3456cfb"/></defs><title>guidance-icon</title><rect x="24.28" y="20.28" width="1.44" height="0.92" fill="url(#136c36a5-5b1c-4f38-8c6b-b8fde3456cfb)"/><path d="M50,0H0V27.94H4.28a5.75,5.75,0,0,0,1.49,8.4A8.69,8.69,0,0,0,.15,44.46v6.1h49.7v-6.1a8.69,8.69,0,0,0-5.62-8.12,5.75,5.75,0,0,0,1.49-8.4H50V0ZM4.51,31.47a4.32,4.32,0,1,1,4.32,4.32A4.32,4.32,0,0,1,4.51,31.47Zm8.87-3.52h6.9v.23a5.74,5.74,0,0,0-.56,5.59H14.66V38a8.69,8.69,0,0,0-2.77-1.7,5.75,5.75,0,0,0,1.49-8.4Zm24.73,8.4A8.69,8.69,0,0,0,35.34,38V33.77H30.28a5.74,5.74,0,0,0-.56-5.59v-.23h6.9a5.75,5.75,0,0,0,1.49,8.4ZM33.9,35.21h0V37H29.38a8.66,8.66,0,0,0-1.32-.63,5.8,5.8,0,0,0,1.31-1.13H33.9Zm-8.9.58a4.32,4.32,0,1,1,4.32-4.32A4.32,4.32,0,0,1,25,35.78Zm-3.06.56a8.64,8.64,0,0,0-1.32.63H16.1V35.21h4.53A5.81,5.81,0,0,0,21.94,36.34ZM16.07,49.12H14v-4.4H12.54v4.4H5.12v-4.4H3.68v4.4H1.59V44.46a7.24,7.24,0,1,1,14.47,0v4.66Zm.85-7.81A8.7,8.7,0,0,0,15,38.42h3.73A8.7,8.7,0,0,0,16.91,41.31Zm15.32,7.81H30.15v-4.4H28.71v4.4H21.29v-4.4H19.85v4.4H17.76V44.46a7.24,7.24,0,0,1,14.48,0Zm.85-7.81a8.7,8.7,0,0,0-1.87-2.89H35A8.7,8.7,0,0,0,33.09,41.31Zm15.32,3.15v4.66H46.32v-4.4H44.88v4.4H37.46v-4.4H36v4.4H33.93V44.46a7.24,7.24,0,1,1,14.47,0Zm-7.24-8.68a4.32,4.32,0,1,1,4.32-4.32A4.32,4.32,0,0,1,41.17,35.78Zm7.39-9.28H44.08a5.74,5.74,0,0,0-5.82,0H27.91a5.74,5.74,0,0,0-5.82,0H11.74a5.74,5.74,0,0,0-5.82,0H1.44V1.44H48.56V26.5Z" fill="url(#d9f959bb-2267-4b3e-bd88-0908ef6252ee)"/><path d="M3.82,3.29V24.65H46.18V3.29ZM30.1,22.94H29v-3H27.52v3h-5v-3H21v3H19.9V19.73a5.1,5.1,0,0,1,2.77-4.53L24.28,17V19.5h1.44V17l1.61-1.84a5.1,5.1,0,0,1,2.77,4.53v3.21ZM24.28,8v.94l-.56.56H22.13a3,3,0,0,1,5.75,0H26.2L25.72,9V8H24.28Zm0,2.94.66-.65.58.65h2.33a3,3,0,0,1-5.75,0Zm1.53,3.75-.84,1-.84-1a5,5,0,0,1,1.69,0Zm18.89,8.51H31.54V19.73a6.55,6.55,0,0,0-3.9-6,4.4,4.4,0,1,0-5.28,0,6.55,6.55,0,0,0-3.9,6v3.48H5.26V4.74H44.74Z" fill="url(#42796d55-b833-4db4-bcb0-899dfa5475b5)"/><rect x="8.49" y="9.4" width="1.44" height="1.59" fill="url(#e959d2af-6077-4be0-93c2-b3a83e0e3534)"/><rect x="9.28" y="16.92" width="1.44" height="1.59" fill="url(#7817d31a-08b8-4e95-be18-a5169e50c2a2)"/><rect x="14.03" y="14.7" width="1.44" height="1.59" fill="url(#dab44de0-344e-481e-93f5-0049602f99a2)"/><rect x="15.48" y="7.44" width="1.44" height="1.59" fill="url(#8846fac1-dc51-4c60-8f3b-bd35faa0a4b1)"/><rect x="39.87" y="9.4" width="1.44" height="1.59" fill="url(#f916b2f5-54a8-4daf-8fb0-1808aed3c8b9)"/><rect x="39.08" y="16.92" width="1.44" height="1.59" fill="url(#021eb8dd-7b8a-451c-b648-498418869c49)"/><rect x="34.33" y="14.7" width="1.44" height="1.59" fill="url(#283e02dd-efad-4473-b13c-9e203f3d3769)"/><rect x="32.87" y="7.44" width="1.44" height="1.59" fill="url(#d534a528-620c-46f5-87b2-5f8e6c7e42de)"/></svg>