<svg id="2b06793f-6d7e-4e30-9f99-694a308a030c" data-name="Layer 1" xmlns="http://www.w3.org/2000/svg" viewBox="0 0 502 310"><title>vr-blueprint</title><path d="M475.74,240.19a56.57,56.57,0,0,1-16.32-2.78c-21.11-7.47-99.38-20.72-137-27.09-9.88-1.67-17-2.88-19-3.29-14.91-4.46-25.48-13.5-32.35-27.66-5.85-12.07-8.18-26.15-10.06-39.53-3.59-25.57-2.19-81.92-2.18-82.49.6-8,2.14-14.84,4.59-20.27a29.55,29.55,0,0,1,9.11-11.76c12.71-9.5,31.27-5.49,46.19-2.26l.47.1c22.95,5,101,29.87,126.19,41,2.39,1,4.59,2,6.65,2.89,19.28,8.33,25.1,10.84,34.08,31.18a.41.41,0,0,1-.75.33c-8.85-20-14.11-22.31-33.66-30.76-2.05-.89-4.26-1.84-6.65-2.89C419.89,53.8,342,28.91,319.05,24l-.47-.1c-14.75-3.19-33.11-7.16-45.52,2.12-7.75,5.79-12.25,16.37-13.37,31.42,0,.55-1.41,56.84,2.17,82.33,1.87,13.32,4.18,27.32,10,39.29C278.6,193,289,201.87,303.65,206.25c1.89.39,9,1.6,18.9,3.27,37.64,6.37,116,19.63,137.12,27.12,13.61,4.16,24,3.58,30.91-1.72s10-15.1,9.54-29.27c0-.36,0-1.07,0-1.87,0-1.43-.06-3.21-.11-3.89a.41.41,0,0,1,.81-.06c0,.7.08,2.49.11,3.93,0,.8,0,1.49,0,1.85.51,14.45-2.8,24.52-9.86,29.94C487.07,238.65,481.94,240.19,475.74,240.19Z" fill="#fff"/><path d="M481.13,233.07c-5.48,0-10.84-1.66-14.16-2.68l-1.56-.48c-21.11-7.13-99.38-19.79-137-25.87-9.89-1.6-17-2.75-19-3.14C294.54,196.64,284,188,277.1,174.47c-5.86-11.53-8.18-25-10.06-37.76-3.59-24.42-2.2-78.26-2.18-78.8v0c1.56-15.15,6.15-25.31,14-31.06,12-8.78,29.51-5.11,43.56-2.16l2.76.58c22.56,4.65,101,30.76,126.33,41.38,24.13,10.14,25.87,13.71,34.26,30.88l1.14,2.33c8.56,20.1,10.46,50.49,11.85,72.68.18,2.9.35,5.67.53,8.29.07,1,.13,1.91.18,2.76.17,2.6.31,4.84.77,9.83,2,18.15-.51,30.24-7.4,35.92A18,18,0,0,1,481.13,233.07ZM265.67,57.94c0,1.17-1.39,54.43,2.17,78.64,1.87,12.72,4.18,26.09,10,37.51,6.76,13.31,17.16,21.82,31.81,26,1.89.38,9,1.53,18.91,3.13,37.64,6.09,116,18.75,137.11,25.9l1.56.47c6.1,1.89,17.45,5.4,25.13-.94,6.66-5.5,9.05-17.34,7.11-35.21-.46-5-.61-7.26-.77-9.86-.05-.85-.11-1.73-.18-2.76-.18-2.62-.35-5.39-.53-8.29-1.39-22.13-3.28-52.44-11.78-72.39l-1.13-2.32c-8.47-17.34-10-20.46-33.84-30.48C426,56.75,347.57,30.68,325,26l-2.77-.58c-13.89-2.92-31.18-6.54-42.91,2C271.69,33.08,267.21,43,265.67,57.94Z" fill="#fff"/><path d="M375.73,248.43a.41.41,0,0,1-.3-.13l-3.81-4.14a.41.41,0,0,1,.12-.64c4.65-2.26,16.57-8.89,15.84-12.4-.22-1.06-1.86-2.38-8.39-2.63l-3.15-.33a261.61,261.61,0,0,0-54.15-.76c-48.35,4.23-90.39.62-125-10.72-20.24-6.64-36.69-17.85-47.57-32.42-6-8.07-12.61-20.85-13-32.51a.41.41,0,1,1,.82,0c.41,11.47,6.92,24.08,12.87,32,10.78,14.43,27.09,25.55,47.17,32.13,34.47,11.31,76.4,14.9,124.64,10.68a262.24,262.24,0,0,1,54.31.76l3.12.33c5.72.22,8.71,1.29,9.13,3.28.94,4.47-12.62,11.49-15.79,13.06l3.31,3.59,102-8.27a.4.4,0,0,1,.44.37.41.41,0,0,1-.37.44l-102.16,8.28Z" fill="#fff"/><path d="M258.91,243.21c-6.63,0-13.52-.33-22.34-.81-23.12-1.24-45.63-8.5-60.45-14.37C159.5,221.45,146,214,141.65,210.24c-24.35-19.48-24.63-51.68-24.63-52a.41.41,0,1,1,.82,0c0,.32.29,32.14,24.34,51.38,4.27,3.68,17.72,11.12,34.26,17.67,14.76,5.85,37.18,13.08,60.19,14.31,29.49,1.59,37.43,1.61,86.17-7.3,35.36-6.47,58.83-6.84,61.25-1,.8,1.94-.73,4.25-4.54,6.85a.41.41,0,0,1-.52-.62s3.33-3.47,2.35-6.1c-.54-1.46-2.31-2.44-5.25-2.94a63.35,63.35,0,0,0-9-.53c-10.79,0-26.06,1.79-44.16,5.1C288.66,241.36,274.52,243.21,258.91,243.21Zm122.34-11.35a3.74,3.74,0,0,1,.83,1.3,5.53,5.53,0,0,1-.75,4.54c1.73-1.58,2.4-3,1.94-4.08A3.77,3.77,0,0,0,381.25,231.87Z" fill="#fff"/><path d="M165.5,84.25a.41.41,0,0,1-.27-.72c8.66-7.58,32.16-17.38,32.4-17.47.48-.23,50.11-23.61,55.84-26.47S269.3,28.13,269.41,28a.41.41,0,0,1,.53.62c-.42.36-10.32,8.77-16.1,11.66S198.46,66.58,198,66.81c-.25.11-23.63,9.85-32.19,17.34A.41.41,0,0,1,165.5,84.25Z" fill="#fff"/><path d="M137.23,95.33a.41.41,0,0,1-.32-.66c.06-.07,5.74-7.41,17.46-15.24,10.81-7.22,29.13-16.35,55-18.9a.41.41,0,1,1,.08.81c-49.23,4.84-71.71,33.53-71.93,33.82A.41.41,0,0,1,137.23,95.33Z" fill="#fff"/><path d="M216.64,222.11h0c-19.46-1.07-36.22-5.29-49.81-12.54a74.59,74.59,0,0,1-26.4-23c-11.3-16.14-12.15-31.94-12.16-32.1a.41.41,0,1,1,.82,0c0,.16.86,15.75,12,31.7a73.79,73.79,0,0,0,26.11,22.76c13.47,7.18,30.11,11.36,49.44,12.43a.41.41,0,0,1,0,.82Z" fill="#fff"/><path d="M112.25,159.86a6.9,6.9,0,0,1-4.36-1.45c-2.13-1.67-3.3-4.64-3.3-8.36l.64-34.73c-.11-4.1-.23-8.77,6.1-10.68L229.65,58.26a7.61,7.61,0,0,1,6,.43c2.72,1.4,4.86,4.42,6.18,8.74a.41.41,0,0,1,0,.11l1,39.5c.16,6-2,10.32-5.84,11.58l-122.44,41A9.76,9.76,0,0,1,112.25,159.86ZM232.19,58.66a7.2,7.2,0,0,0-2.26.37L111.59,105.41c-5.35,1.62-5.67,5.13-5.55,9.91l-.64,34.74c0,3.45,1.06,6.19,3,7.71a6.72,6.72,0,0,0,5.94,1l122.41-40.94h0c1.29-.43,5.5-2.47,5.28-10.78l-1-39.44c-1.26-4.07-3.26-6.91-5.76-8.2A6.72,6.72,0,0,0,232.19,58.66Z" fill="#fff"/><path d="M236.87,118.64h-.08c-8-1.68-8.08-10.25-8.08-10.33,0-.38-.82-38.83-.82-43.94,0-5.41,3-6.38,3.12-6.42a.41.41,0,0,1,.24.78c-.11,0-2.55.88-2.55,5.64,0,5.11.81,43.55.82,43.93s.1,8,7.43,9.54a.41.41,0,0,1-.08.81Z" fill="#fff"/><path d="M110.33,148.88a3.32,3.32,0,0,1-1.94-.54,2.93,2.93,0,0,1-1.17-2.26l.54-33.57a.41.41,0,0,1,.26-.38l22.41-8.54a.41.41,0,1,1,.29.76l-22.15,8.44L108,146.08a2.13,2.13,0,0,0,.83,1.59c.82.57,2.23.51,4.06-.16,5.38-2,111-39.08,112.11-39.46a.41.41,0,0,1,.27.77c-1.07.37-106.72,37.48-112.1,39.45A8.55,8.55,0,0,1,110.33,148.88Z" fill="#fff"/><path d="M132.8,138a3.47,3.47,0,0,1-1.92-.53c-1.16-.76-1.73-2.27-1.71-4.49l-.06-25.39s-.5-4.76,5.61-6.56L209.3,72.41l9.39-3.3c.44-.17,4.49-1.67,6.17-.51a1.75,1.75,0,0,1,.74,1.52h0l0,38.24a.41.41,0,0,1-.8.11,1.56,1.56,0,0,0-.84-.83c-.8-.39-2.39-.61-5.49.56-4.55,1.72-82.69,29.11-83.48,29.39A5.86,5.86,0,0,1,132.8,138ZM223.1,69a13.67,13.67,0,0,0-4.13.9l-9.4,3.3L135,101.83c-5.46,1.61-5.08,5.57-5.06,5.74L130,133c0,1.93.43,3.2,1.33,3.8,1.34.88,3.33,0,3.35,0,.82-.29,79-27.68,83.49-29.4,2.74-1,4.82-1.2,6.18-.51a2.9,2.9,0,0,1,.42.26l0-37.06a.93.93,0,0,0-.39-.84A2.34,2.34,0,0,0,223.1,69Zm2.1,1.14h0Z" fill="#fff"/><path d="M366.62,262.71l-.14,0c-.21-.08-5.25-1.9-6.79-5.2a4.47,4.47,0,0,1-.14-3.56c1.94-5.26,11.78-10.21,12.2-10.42a.41.41,0,1,1,.36.73c-.1,0-10,5-11.79,10a3.68,3.68,0,0,0,.12,2.93c.81,1.74,2.79,3.06,4.32,3.87-1.16-1.37-2.46-3.48-2.1-5.71.63-3.9,3.9-7.61,9.74-11a.41.41,0,1,1,.41.7c-5.54,3.25-8.78,6.87-9.35,10.46-.53,3.32,3.37,6.52,3.41,6.56a.41.41,0,0,1-.26.73Z" fill="#fff"/><path d="M353.06,265.3l-.14,0c-.3-.11-7.35-2.82-7.38-6.37,0-1.82,1.78-3.45,5.33-4.86,12.2-4.84,14.48-6.57,14.5-6.59a.41.41,0,0,1,.51.64c-.09.07-2.29,1.78-14.7,6.71-3.16,1.26-4.83,2.67-4.82,4.1,0,2.44,4.77,4.81,6.74,5.58l13.45-2.56a.4.4,0,0,1,.48.32.41.41,0,0,1-.32.48l-13.56,2.58Z" fill="#fff"/><path d="M363,263.41h-.09c-.25-.05-6.23-1.37-7.45-5.2-.66-2.1.23-4.49,2.67-7.12a.41.41,0,1,1,.6.55c-2.22,2.4-3.06,4.53-2.49,6.32,1.07,3.39,6.78,4.64,6.84,4.65a.41.41,0,0,1-.08.81Z" fill="#fff"/><path d="M346.21,260.52a.41.41,0,0,1-.31-.14c-.12-.14-12.45-14.44-15.65-27a.41.41,0,0,1,.79-.2c2.48,9.7,10.57,20.54,14,24.78-5.35-15.31-3.79-26.29-3.77-26.4a.4.4,0,0,1,.46-.34.41.41,0,0,1,.34.46c0,.12-1.69,12,4.56,28.24a.41.41,0,0,1-.38.55Z" fill="#fff"/><path d="M272.26,26.27a.41.41,0,0,1-.31-.14c-7.33-8.4-22.76-14.64-22.91-14.7a.41.41,0,0,1-.24-.49.41.41,0,0,1,.46-.3A95.41,95.41,0,0,1,279.8,21.23a.41.41,0,1,1-.42.7A94.94,94.94,0,0,0,252.45,12c5,2.31,14.69,7.34,20.12,13.55a.41.41,0,0,1-.31.68Z" fill="#fff"/><path d="M64.09,127H64a.41.41,0,0,1-.29-.5c8-30.15,20.31-55.19,36.72-74.42A123.42,123.42,0,0,1,133,24.73c21-13,41.31-20.91,60.28-23.59,15.2-2.14,29.59-.93,42.79,3.6,22.48,7.72,33.82,22.62,33.93,22.77a.41.41,0,1,1-.65.49c-.11-.15-11.33-14.88-33.59-22.5C222.69,1,208.43-.17,193.36,2c-18.85,2.66-39,10.56-59.94,23.47A122.67,122.67,0,0,0,101,52.6C84.7,71.74,72.4,96.67,64.48,126.7A.41.41,0,0,1,64.09,127Z" fill="#fff"/><path d="M92.93,116.19l-.13,0a.41.41,0,0,1-.26-.52c.06-.19,6.64-19.28,22.18-41,14.35-20.07,39.51-46.57,77.85-58.86,19.08-6.13,38.68-7.9,56.67-5.13a.41.41,0,1,1-.12.81c-17.87-2.75-37.34-1-56.3,5.1C154.7,28.78,129.68,55.15,115.4,75.11c-15.48,21.64-22,40.61-22.08,40.8A.41.41,0,0,1,92.93,116.19Z" fill="#fff"/><path d="M52.54,176.85a.41.41,0,0,1-.13-.8l55.43-18.32a.41.41,0,0,1,.26.77L52.66,176.83Z" fill="#fff"/><path d="M64.09,127a.41.41,0,0,1-.14-.79l41.7-15.51a.41.41,0,1,1,.28.77L64.23,127Z" fill="#fff"/><path d="M160.71,253.66A29.16,29.16,0,0,1,147.17,250l-.05,0c-10.1-6.23-33.51-37.21-39.85-48.64-6.09-11-20.81-35.75-21-36A.41.41,0,0,1,87,165c.15.25,14.87,25,21,36,6.34,11.44,29.91,42.39,39.56,48.34,5.14,2.55,17.2,8.56,34.93-5.23,3.43-2.17,8.85-6.28,8.91-6.32a.41.41,0,1,1,.49.65c-.05,0-5.51,4.17-8.93,6.33C174.12,251.6,166.66,253.66,160.71,253.66Z" fill="#fff"/><path d="M127.94,230a.41.41,0,0,1-.29-.7l3.35-3.28A126.8,126.8,0,0,1,112.91,200l-4.31,2.82a.41.41,0,0,1-.45-.68l4.69-3.07a.41.41,0,0,1,.59.16,125.16,125.16,0,0,0,18.44,26.57.41.41,0,0,1,0,.57l-3.64,3.56A.41.41,0,0,1,127.94,230Z" fill="#fff"/><path d="M106,306.94c-4.08,0-8.34-.17-12.79-.55a115.56,115.56,0,0,1-23-4.44C56.85,298,46.37,292.32,39,285.1a.41.41,0,1,1,.57-.58c7.28,7.13,17.64,12.73,30.8,16.64a114.68,114.68,0,0,0,22.87,4.41c36.15,3.09,59.65-7.61,70.94-12.76L166,292c26.86-11,69.95-44.8,70.38-45.14a.41.41,0,0,1,.5.64c-.43.34-43.61,34.2-70.56,45.25l-1.77.8C154.55,298.09,135.14,306.94,106,306.94Z" fill="#fff"/><path d="M108.25,300.68a114.76,114.76,0,0,1-14.73-.9h-.1c-33.87-4-42.37-14.16-42.72-14.59a.41.41,0,0,1,.64-.51c.08.1,8.71,10.38,42.18,14.29h.11c10.1,1.32,36.86,3,67-9.78,4.53-2,27.55-14,40.77-22.18a.41.41,0,1,1,.43.7c-13.24,8.14-36.32,20.23-40.87,22.23A135.4,135.4,0,0,1,108.25,300.68Z" fill="#fff"/><path d="M215.56,257a.41.41,0,0,1-.26-.72l12.39-10.13a.41.41,0,0,1,.52.63l-12.39,10.13A.41.41,0,0,1,215.56,257Z" fill="#fff"/><path d="M206.38,273.56a.41.41,0,0,1-.19,0c-6.28-3.3-4.82-8.51-4.81-8.56a.41.41,0,0,1,.15-.22l12.56-8.93a.41.41,0,0,1,.35-.06c5.75,1.75,5.81,7.63,5.81,7.69a.41.41,0,0,1-.17.33l-13.48,9.72A.41.41,0,0,1,206.38,273.56Zm-4.25-8.24c-.17.77-.75,4.63,4.22,7.36l13.1-9.44a7.33,7.33,0,0,0-5-6.64Z" fill="#fff"/><path d="M94.3,276q-1.89,0-3.89-.08a122.5,122.5,0,0,1-18.15-2.17.41.41,0,0,1,.17-.8c.33.07,33.12,6.89,44.72-3.78,2.23-2.19,5.6-5.52-5.12-18.3-3.37-3.54-19.2-23.81-26.53-36.64-.59-.89-1.36-2.32-2.26-4-3.37-6.22-9-16.63-14.37-15.66a.41.41,0,1,1-.14-.8C74.66,192.69,80.26,203,84,209.82c.89,1.64,1.66,3,2.24,3.93,7.31,12.8,23.06,33,26.44,36.52,10.35,12.35,8.18,16.37,5.07,19.44C113.2,273.87,105.34,276,94.3,276Z" fill="#fff"/><path d="M113.23,272.62a.41.41,0,0,1-.18-.78,6.31,6.31,0,0,0,3.93-4.71c.46-2.84-1-6.73-4.17-11.25a57.12,57.12,0,0,0-6.52-7.61c-9.19-8.72-24.16-34.46-24.31-34.72a.41.41,0,1,1,.71-.41c.15.26,15.07,25.9,24.17,34.54.5.48,12.2,11.77,10.93,19.58a7.08,7.08,0,0,1-4.39,5.31A.41.41,0,0,1,113.23,272.62Z" fill="#fff"/><path d="M110.45,273.72a.41.41,0,0,1-.13-.8c3.11-1,4.94-2.57,5.45-4.65,1.38-5.68-7-14.07-11-18.1-1-1-1.64-1.64-2-2.06a99,99,0,0,1-15.15-20.94c-.28-.54-.57-.85-.82-.88a.82.82,0,0,0-.6.33.41.41,0,1,1-.6-.55,1.49,1.49,0,0,1,1.31-.58c.55.07,1,.5,1.44,1.32a98.33,98.33,0,0,0,15,20.78c.32.41,1,1.12,1.92,2,4.12,4.14,12.69,12.74,11.2,18.87-.58,2.38-2.59,4.14-6,5.24Z" fill="#fff"/><path d="M66.87,117.25l-.12,0a.41.41,0,0,1-.27-.51c1.11-3.62-3-5.11-3.21-5.18l-20-6.81c-5.44-1.62-7.82,1.84-7.84,1.87a.41.41,0,1,1-.68-.45s2.74-4,8.77-2.19l20,6.82c.05,0,5.06,1.83,3.72,6.19A.41.41,0,0,1,66.87,117.25Z" fill="#fff"/><path d="M32,270.48c-8.6,0-16.69-6.29-21.09-16.4a.41.41,0,0,1,.75-.33c4.27,9.82,12.07,15.91,20.34,15.91,13.08,0,23.72-14.69,23.72-32.74,0-11.22-4.1-21.54-11-27.6a.41.41,0,1,1,.54-.61c7,6.21,11.25,16.76,11.25,28.21C56.5,255.43,45.5,270.48,32,270.48Z" fill="#fff"/><path d="M38.37,282.76c-19,0-34.52-21-34.52-46.78,0-12.1,3.23-23.16,9.34-32a.41.41,0,0,1,.67.46c-6,8.69-9.2,19.59-9.2,31.53,0,25.34,15.12,46,33.7,46s33.7-20.62,33.7-46c0-19.91-9.32-37.46-23.2-43.67a.41.41,0,0,1,.33-.75C63.37,197.9,72.89,215.75,72.89,236,72.89,261.77,57.4,282.76,38.37,282.76Z" fill="#fff"/><path d="M45.46,285.77c-8.28,0-17.47-4.38-22.83-8.13a.41.41,0,1,1,.47-.67c5.26,3.68,14.27,8,22.36,8,22.49,0,40.79-22.15,40.79-49.37,0-25.06-15.49-46.14-36-49a.41.41,0,0,1,.11-.81c20.94,3,36.73,24.38,36.73,49.84C87.07,263.26,68.4,285.77,45.46,285.77Z" fill="#fff"/><path d="M6.5,219.77a.41.41,0,0,1-.39-.29c-5.4-17.1-9.25-41.55,3.12-60.92,7.41-11.61,17.3-15.93,17.4-16a.41.41,0,1,1,.32.75c-.1,0-9.78,4.29-17.05,15.7-12.16,19.1-8.35,43.28-3,60.2a.41.41,0,0,1-.27.51Z" fill="#fff"/><path d="M54.15,169.88a.41.41,0,0,1-.06-.81c7.21-1,13.39-8.39,15-17.95,1.44-8.37-1-16.45-6.14-20.59a.41.41,0,0,1,.51-.64c5.4,4.32,7.92,12.71,6.43,21.37-1.7,9.9-8.17,17.56-15.73,18.62Z" fill="#fff"/><path d="M55.38,164.59a.41.41,0,0,1-.24-.74A20.78,20.78,0,0,0,63,150.5a21.41,21.41,0,0,0-1.76-13.14A.41.41,0,0,1,62,137a22.24,22.24,0,0,1,1.84,13.64,21.61,21.61,0,0,1-8.22,13.87A.41.41,0,0,1,55.38,164.59Z" fill="#fff"/><path d="M261.19,309.88a19.17,19.17,0,0,1-5.36-.76c-15.27-4.44-22.07-27.39-15.16-51.18a69.26,69.26,0,0,1,4-10.42.41.41,0,1,1,.74.35,68.5,68.5,0,0,0-3.9,10.29c-6.78,23.35-.23,45.85,14.61,50.16,7.15,2.08,15.16-.34,22.56-6.82s13.36-16.36,16.65-27.71,3.59-22.77.83-32.15a.41.41,0,0,1,.78-.23c2.8,9.53,2.51,21.11-.83,32.6s-9.34,21.47-16.9,28.09C273.33,307.23,267.11,309.88,261.19,309.88Z" fill="#fff"/><path d="M251.3,301.44a10.7,10.7,0,0,1-4.19-.82,11.59,11.59,0,0,1-5.21-4.53.41.41,0,0,1,.68-.44,10.79,10.79,0,0,0,4.85,4.22c10.08,4.24,25.46-9.39,34.3-30.38a73.15,73.15,0,0,0,6-25.92.39.39,0,0,1,.42-.4.41.41,0,0,1,.4.42,74,74,0,0,1-6.06,26.22C274.6,288.52,261.48,301.44,251.3,301.44Z" fill="#fff"/><path d="M294.07,279.13a.41.41,0,0,1-.38-.57l17.54-41.94a.41.41,0,1,1,.75.31l-17.54,41.94A.41.41,0,0,1,294.07,279.13Z" fill="#fff"/><path d="M331.91,225.09H330.7c-.06,0-5.79-.19-10.88-.66l-17.06-1.36a.41.41,0,0,1-.37-.44.42.42,0,0,1,.44-.37l17.07,1.36c5.07.47,10.77.66,10.83.66,7.68.16,9.84-1.22,9.91-2.06s-1.91-2.21-5-2.63C331.33,219,303.25,216,303,216l-9.78-.45c-2.75-.13-10.12,0-11.19,1.9a.74.74,0,0,0,0,.73c.66,1.36,4.76,2.3,6.28,2.55l4.4.72a.41.41,0,0,1-.13.81l-4.4-.72c-.6-.1-5.92-1-6.88-3a1.55,1.55,0,0,1,.06-1.48c1.51-2.73,10.88-2.37,11.94-2.32l9.81.45c.31,0,28.4,3,32.73,3.62,3.42.47,5.81,1.95,5.69,3.51C341.3,224.1,337.93,225.09,331.91,225.09Z" fill="#fff"/><path d="M292.56,222.75a.41.41,0,0,1-.41-.41v-7.11a.41.41,0,1,1,.82,0v7.11A.41.41,0,0,1,292.56,222.75Z" fill="#fff"/><path d="M302.8,222.75a.41.41,0,0,1-.41-.4l-.13-5.34a.41.41,0,0,1,.13-.31.4.4,0,0,1,.32-.11L325.44,219c.27,0,2.87.19,3.63,1.21a1.12,1.12,0,0,1,.2,1c-.42,1.81-4.11,1.36-11.47.48l-.17,0L303.15,220l.06,2.33a.41.41,0,0,1-.4.42Zm.33-3.57,14.78,1.7c5.77.69,10.32,1.24,10.57.14a.31.31,0,0,0-.06-.28c-.41-.54-2.08-.83-3-.89l-22.29-2.4Z" fill="#fff"/><path d="M297.68,224.48c-2.75,0-5.53-.73-5.53-2.13s2.78-2.13,5.53-2.13,5.53.73,5.53,2.13S300.43,224.48,297.68,224.48Zm0-3.45c-3,0-4.71.87-4.71,1.32s1.66,1.31,4.71,1.31,4.71-.87,4.71-1.31S300.73,221,297.68,221Z" fill="#fff"/><path d="M19,256.51c-4.15,0-7.38-1.25-9.61-3.73C3.81,246.58,6.44,235,6.55,234.51L33.76,108.77c.38-2,1.16-3.23,2.3-3.68a3.75,3.75,0,0,1,3.24.58,59.75,59.75,0,0,0,18.06,6.73h0a4.65,4.65,0,0,1,3.33,2,6.56,6.56,0,0,1,.53,4.75C61,120.26,35.9,231.58,34.55,236.43c-2.5,12.74-6.75,19.44-12.61,19.89A24.1,24.1,0,0,1,19,256.51ZM37,105.72a1.85,1.85,0,0,0-.69.13c-.86.34-1.47,1.38-1.8,3.09L7.35,234.69c0,.12-2.65,11.66,2.64,17.55,2.54,2.83,6.54,3.93,11.88,3.27,5.47-.42,9.46-6.9,11.89-19.26C35.11,231.38,60.18,120.08,60.43,119a5.84,5.84,0,0,0-.43-4.11,3.88,3.88,0,0,0-2.78-1.65h0a60.53,60.53,0,0,1-18.37-6.86A3.54,3.54,0,0,0,37,105.72Z" fill="#fff"/><path d="M291.23,289.22a3.71,3.71,0,0,1-1.83-.5.41.41,0,0,1,.4-.71,2.84,2.84,0,0,0,2.44.22c3.51-1.21,6.41-8.05,6.44-8.12l17.17-43.59c-26.28,8.55-52,12.27-76.5,11.08a170.82,170.82,0,0,1-56.56-12.41,157.17,157.17,0,0,1-34.71-19.6,97.69,97.69,0,0,1-11.83-10.24.41.41,0,1,1,.6-.55A97.08,97.08,0,0,0,148.6,215a156.39,156.39,0,0,0,34.54,19.49,170,170,0,0,0,56.28,12.33c24.63,1.2,50.54-2.6,77-11.31a.41.41,0,0,1,.51.54l-17.5,44.41c-.13.3-3.08,7.26-6.93,8.59A3.88,3.88,0,0,1,291.23,289.22Z" fill="#fff"/><path d="M22.1,258c-5.86,0-10.83-3.56-11.09-3.76a.41.41,0,0,1,.48-.66c.08.06,7.8,5.58,15,2.8,5.42-2.09,9.23-8.24,11.32-18.29L63.69,126.51a.41.41,0,1,1,.8.18L38.63,238.27c-2.14,10.32-6.12,16.68-11.82,18.88A13,13,0,0,1,22.1,258Z" fill="#fff"/><path d="M182.73,244.8a.41.41,0,0,1-.31-.14l-.77-.91a1.22,1.22,0,0,1-.43-.91,1.75,1.75,0,0,1,.87-1.34c1.29-.94,6.56-4.67,6.61-4.71a.41.41,0,0,1,.47.67c-.05,0-5.31,3.76-6.6,4.7-.34.25-.53.49-.54.69a.42.42,0,0,0,.15.3l.06.06.79.93a.41.41,0,0,1-.31.67Z" fill="#fff"/></svg>