<svg id="d6fada84-4567-4ed7-9516-bbd571b3da3b" data-name="Layer 1" xmlns="http://www.w3.org/2000/svg" xmlns:xlink="http://www.w3.org/1999/xlink" viewBox="0 0 2525.78 430"><defs><linearGradient id="c17b38c3-e28f-458f-b5c5-b2d5a9b54ea0" x1="3397.89" y1="7.5" x2="3397.89" y2="-221" gradientTransform="translate(-2135 422.5)" gradientUnits="userSpaceOnUse"><stop offset="0" stop-opacity="0"/><stop offset="0" stop-color="#050505" stop-opacity="0.02"/><stop offset="0.04" stop-color="#393939" stop-opacity="0.22"/><stop offset="0.09" stop-color="#686868" stop-opacity="0.41"/><stop offset="0.13" stop-color="#919191" stop-opacity="0.57"/><stop offset="0.17" stop-color="#b3b3b3" stop-opacity="0.7"/><stop offset="0.22" stop-color="#cfcfcf" stop-opacity="0.81"/><stop offset="0.28" stop-color="#e4e4e4" stop-opacity="0.89"/><stop offset="0.33" stop-color="#f3f3f3" stop-opacity="0.95"/><stop offset="0.4" stop-color="#fcfcfc" stop-opacity="0.99"/><stop offset="0.5" stop-color="#fff"/><stop offset="0.62" stop-color="#fdfdfd"/><stop offset="0.69" stop-color="#f4f4f4" stop-opacity="0.98"/><stop offset="0.74" stop-color="#e6e6e6" stop-opacity="0.96"/><stop offset="0.79" stop-color="#d3d3d3" stop-opacity="0.93"/><stop offset="0.84" stop-color="#b9b9b9" stop-opacity="0.89"/><stop offset="0.88" stop-color="#999" stop-opacity="0.84"/><stop offset="0.92" stop-color="#747474" stop-opacity="0.78"/><stop offset="0.95" stop-color="#484848" stop-opacity="0.71"/><stop offset="0.98" stop-color="#191919" stop-opacity="0.64"/><stop offset="1" stop-opacity="0.6"/></linearGradient><mask id="5ef538c8-d0a5-482e-8067-bf07ff5fb36a" x="-0.11" y="200.5" width="2526" height="230.5" maskUnits="userSpaceOnUse"><rect x="-0.11" y="201.5" width="2526" height="228.5" transform="translate(2525.78 631.5) rotate(180)" fill="url(#c17b38c3-e28f-458f-b5c5-b2d5a9b54ea0)" style="mix-blend-mode:screen"/></mask></defs><title>2</title><g mask="url(#5ef538c8-d0a5-482e-8067-bf07ff5fb36a)"><g opacity="0.5"><polygon points="2330.33 393.94 2409.4 393.94 2519.5 430 2432.84 430 2330.33 393.94" fill="#fafafa" stroke="#e0e0e0" stroke-miterlimit="10" stroke-width="2"/><polygon points="2251.26 393.94 2330.33 393.94 2432.84 430 2346.18 430 2251.26 393.94" fill="#f5f5f5" stroke="#e0e0e0" stroke-miterlimit="10" stroke-width="2"/><polygon points="2172.19 393.94 2251.26 393.94 2346.18 430 2259.51 430 2172.19 393.94" fill="#fafafa" stroke="#e0e0e0" stroke-miterlimit="10" stroke-width="2"/><polygon points="2093.12 393.94 2172.19 393.94 2259.51 430 2172.85 430 2093.12 393.94" fill="#fafafa" stroke="#e0e0e0" stroke-miterlimit="10" stroke-width="2"/><polygon points="2014.05 393.94 2093.12 393.94 2172.85 430 2086.19 430 2014.05 393.94" fill="#fafafa" stroke="#e0e0e0" stroke-miterlimit="10" stroke-width="2"/><polygon points="1934.98 393.94 2014.05 393.94 2086.19 430 1999.53 430 1934.98 393.94" fill="#f5f5f5" stroke="#e0e0e0" stroke-miterlimit="10" stroke-width="2"/><polygon points="1855.91 393.94 1934.98 393.94 1999.53 430 1912.86 430 1855.91 393.94" fill="#fafafa" stroke="#e0e0e0" stroke-miterlimit="10" stroke-width="2"/><polygon points="1776.84 393.94 1855.91 393.94 1912.86 430 1826.2 430 1776.84 393.94" fill="#fafafa" stroke="#e0e0e0" stroke-miterlimit="10" stroke-width="2"/><polygon points="1697.78 393.94 1776.84 393.94 1826.2 430 1739.54 430 1697.78 393.94" fill="#eee" stroke="#e0e0e0" stroke-miterlimit="10" stroke-width="2"/><polygon points="1618.7 393.94 1697.78 393.94 1739.54 430 1652.88 430 1618.7 393.94" fill="#fafafa" stroke="#e0e0e0" stroke-miterlimit="10" stroke-width="2"/><polygon points="1539.64 393.94 1618.7 393.94 1652.88 430 1566.21 430 1539.64 393.94" fill="#f5f5f5" stroke="#e0e0e0" stroke-miterlimit="10" stroke-width="2"/><polygon points="1460.57 393.94 1539.64 393.94 1566.21 430 1479.55 430 1460.57 393.94" fill="#fafafa" stroke="#e0e0e0" stroke-miterlimit="10" stroke-width="2"/><polygon points="1381.5 393.94 1460.57 393.94 1479.55 430 1392.89 430 1381.5 393.94" fill="#f5f5f5" stroke="#e0e0e0" stroke-miterlimit="10" stroke-width="2"/><polygon points="1302.43 393.94 1381.5 393.94 1392.89 430 1306.22 430 1302.43 393.94" fill="#fafafa" stroke="#e0e0e0" stroke-miterlimit="10" stroke-width="2"/><polygon points="1223.36 393.94 1302.43 393.94 1306.22 430 1219.56 430 1223.36 393.94" fill="#f5f5f5" stroke="#e0e0e0" stroke-miterlimit="10" stroke-width="2"/><polygon points="1144.29 393.94 1223.36 393.94 1219.56 430 1132.9 430 1144.29 393.94" fill="#fafafa" stroke="#e0e0e0" stroke-miterlimit="10" stroke-width="2"/><polygon points="1065.22 393.94 1144.29 393.94 1132.9 430 1046.23 430 1065.22 393.94" fill="#fafafa" stroke="#e0e0e0" stroke-miterlimit="10" stroke-width="2"/><polygon points="986.15 393.94 1065.22 393.94 1046.23 430 959.57 430 986.15 393.94" fill="#f5f5f5" stroke="#e0e0e0" stroke-miterlimit="10" stroke-width="2"/><polygon points="907.08 393.94 986.15 393.94 959.57 430 872.91 430 907.08 393.94" fill="#fafafa" stroke="#e0e0e0" stroke-miterlimit="10" stroke-width="2"/><polygon points="828.01 393.94 907.08 393.94 872.91 430 786.25 430 828.01 393.94" fill="#eee" stroke="#e0e0e0" stroke-miterlimit="10" stroke-width="2"/><polygon points="748.94 393.94 828.01 393.94 786.25 430 699.58 430 748.94 393.94" fill="#fafafa" stroke="#e0e0e0" stroke-miterlimit="10" stroke-width="2"/><polygon points="669.87 393.94 748.94 393.94 699.58 430 612.92 430 669.87 393.94" fill="#f5f5f5" stroke="#e0e0e0" stroke-miterlimit="10" stroke-width="2"/><polygon points="590.8 393.94 669.87 393.94 612.92 430 526.26 430 590.8 393.94" fill="#fafafa" stroke="#e0e0e0" stroke-miterlimit="10" stroke-width="2"/><polygon points="2244.34 363.69 2317.04 363.69 2409.4 393.94 2330.33 393.94 2244.34 363.69" fill="#eee" stroke="#e0e0e0" stroke-miterlimit="10" stroke-width="2"/><polygon points="2171.64 363.69 2244.34 363.69 2330.33 393.94 2251.26 393.94 2171.64 363.69" fill="#f5f5f5" stroke="#e0e0e0" stroke-miterlimit="10" stroke-width="2"/><polygon points="2098.94 363.69 2171.64 363.69 2251.26 393.94 2172.19 393.94 2098.94 363.69" fill="#fafafa" stroke="#e0e0e0" stroke-miterlimit="10" stroke-width="2"/><polygon points="2026.24 363.69 2098.94 363.69 2172.19 393.94 2093.12 393.94 2026.24 363.69" fill="#eee" stroke="#e0e0e0" stroke-miterlimit="10" stroke-width="2"/><polygon points="1953.54 363.69 2026.24 363.69 2093.12 393.94 2014.05 393.94 1953.54 363.69" fill="#fafafa" stroke="#e0e0e0" stroke-miterlimit="10" stroke-width="2"/><polygon points="1880.84 363.69 1953.54 363.69 2014.05 393.94 1934.98 393.94 1880.84 363.69" fill="#eee" stroke="#e0e0e0" stroke-miterlimit="10" stroke-width="2"/><polygon points="1808.14 363.69 1880.84 363.69 1934.98 393.94 1855.91 393.94 1808.14 363.69" fill="#fafafa" stroke="#e0e0e0" stroke-miterlimit="10" stroke-width="2"/><polygon points="1735.44 363.69 1808.14 363.69 1855.91 393.94 1776.84 393.94 1735.44 363.69" fill="#f5f5f5" stroke="#e0e0e0" stroke-miterlimit="10" stroke-width="2"/><polygon points="1662.74 363.69 1735.44 363.69 1776.84 393.94 1697.78 393.94 1662.74 363.69" fill="#fafafa" stroke="#e0e0e0" stroke-miterlimit="10" stroke-width="2"/><polygon points="1590.04 363.69 1662.74 363.69 1697.78 393.94 1618.7 393.94 1590.04 363.69" fill="#fafafa" stroke="#e0e0e0" stroke-miterlimit="10" stroke-width="2"/><polygon points="1517.34 363.69 1590.04 363.69 1618.7 393.94 1539.64 393.94 1517.34 363.69" fill="#fafafa" stroke="#e0e0e0" stroke-miterlimit="10" stroke-width="2"/><polygon points="1444.64 363.69 1517.34 363.69 1539.64 393.94 1460.57 393.94 1444.64 363.69" fill="#fafafa" stroke="#e0e0e0" stroke-miterlimit="10" stroke-width="2"/><polygon points="1371.94 363.69 1444.64 363.69 1460.57 393.94 1381.5 393.94 1371.94 363.69" fill="#fafafa" stroke="#e0e0e0" stroke-miterlimit="10" stroke-width="2"/><polygon points="1299.24 363.69 1371.94 363.69 1381.5 393.94 1302.43 393.94 1299.24 363.69" fill="#fafafa" stroke="#e0e0e0" stroke-miterlimit="10" stroke-width="2"/><polygon points="1226.54 363.69 1299.24 363.69 1302.43 393.94 1223.36 393.94 1226.54 363.69" fill="#eee" stroke="#e0e0e0" stroke-miterlimit="10" stroke-width="2"/><polygon points="1153.84 363.69 1226.54 363.69 1223.36 393.94 1144.29 393.94 1153.84 363.69" fill="#fafafa" stroke="#e0e0e0" stroke-miterlimit="10" stroke-width="2"/><polygon points="1081.14 363.69 1153.84 363.69 1144.29 393.94 1065.22 393.94 1081.14 363.69" fill="#fafafa" stroke="#e0e0e0" stroke-miterlimit="10" stroke-width="2"/><polygon points="1008.44 363.69 1081.14 363.69 1065.22 393.94 986.15 393.94 1008.44 363.69" fill="#eee" stroke="#e0e0e0" stroke-miterlimit="10" stroke-width="2"/><polygon points="935.74 363.69 1008.44 363.69 986.15 393.94 907.08 393.94 935.74 363.69" fill="#fafafa" stroke="#e0e0e0" stroke-miterlimit="10" stroke-width="2"/><polygon points="863.04 363.69 935.74 363.69 907.08 393.94 828.01 393.94 863.04 363.69" fill="#f5f5f5" stroke="#e0e0e0" stroke-miterlimit="10" stroke-width="2"/><polygon points="790.34 363.69 863.04 363.69 828.01 393.94 748.94 393.94 790.34 363.69" fill="#fafafa" stroke="#e0e0e0" stroke-miterlimit="10" stroke-width="2"/><polygon points="717.64 363.69 790.34 363.69 748.94 393.94 669.87 393.94 717.64 363.69" fill="#eee" stroke="#e0e0e0" stroke-miterlimit="10" stroke-width="2"/><polygon points="644.94 363.69 717.64 363.69 669.87 393.94 590.8 393.94 644.94 363.69" fill="#fafafa" stroke="#e0e0e0" stroke-miterlimit="10" stroke-width="2"/><polygon points="2171.17 337.96 2238.45 337.96 2317.04 363.69 2244.34 363.69 2171.17 337.96" fill="#fafafa" stroke="#e0e0e0" stroke-miterlimit="10" stroke-width="2"/><polygon points="2103.89 337.96 2171.17 337.96 2244.34 363.69 2171.64 363.69 2103.89 337.96" fill="#fafafa" stroke="#e0e0e0" stroke-miterlimit="10" stroke-width="2"/><polygon points="2036.61 337.96 2103.89 337.96 2171.64 363.69 2098.94 363.69 2036.61 337.96" fill="#fafafa" stroke="#e0e0e0" stroke-miterlimit="10" stroke-width="2"/><polygon points="1969.33 337.96 2036.61 337.96 2098.94 363.69 2026.24 363.69 1969.33 337.96" fill="#fafafa" stroke="#e0e0e0" stroke-miterlimit="10" stroke-width="2"/><polygon points="1902.05 337.96 1969.33 337.96 2026.24 363.69 1953.54 363.69 1902.05 337.96" fill="#f5f5f5" stroke="#e0e0e0" stroke-miterlimit="10" stroke-width="2"/><polygon points="1834.77 337.96 1902.05 337.96 1953.54 363.69 1880.84 363.69 1834.77 337.96" fill="#fafafa" stroke="#e0e0e0" stroke-miterlimit="10" stroke-width="2"/><polygon points="1767.49 337.96 1834.77 337.96 1880.84 363.69 1808.14 363.69 1767.49 337.96" fill="#fafafa" stroke="#e0e0e0" stroke-miterlimit="10" stroke-width="2"/><polygon points="1700.21 337.96 1767.49 337.96 1808.14 363.69 1735.44 363.69 1700.21 337.96" fill="#f5f5f5" stroke="#e0e0e0" stroke-miterlimit="10" stroke-width="2"/><polygon points="1632.93 337.96 1700.21 337.96 1735.44 363.69 1662.74 363.69 1632.93 337.96" fill="#fafafa" stroke="#e0e0e0" stroke-miterlimit="10" stroke-width="2"/><polygon points="1565.65 337.96 1632.93 337.96 1662.74 363.69 1590.04 363.69 1565.65 337.96" fill="#eee" stroke="#e0e0e0" stroke-miterlimit="10" stroke-width="2"/><polygon points="1498.37 337.96 1565.65 337.96 1590.04 363.69 1517.34 363.69 1498.37 337.96" fill="#f5f5f5" stroke="#e0e0e0" stroke-miterlimit="10" stroke-width="2"/><polygon points="1431.09 337.96 1498.37 337.96 1517.34 363.69 1444.64 363.69 1431.09 337.96" fill="#fafafa" stroke="#e0e0e0" stroke-miterlimit="10" stroke-width="2"/><polygon points="1363.81 337.96 1431.09 337.96 1444.64 363.69 1371.94 363.69 1363.81 337.96" fill="#f5f5f5" stroke="#e0e0e0" stroke-miterlimit="10" stroke-width="2"/><polygon points="1296.53 337.96 1363.81 337.96 1371.94 363.69 1299.24 363.69 1296.53 337.96" fill="#fafafa" stroke="#e0e0e0" stroke-miterlimit="10" stroke-width="2"/><polygon points="1229.25 337.96 1296.53 337.96 1299.24 363.69 1226.54 363.69 1229.25 337.96" fill="#fafafa" stroke="#e0e0e0" stroke-miterlimit="10" stroke-width="2"/><polygon points="1161.97 337.96 1229.25 337.96 1226.54 363.69 1153.84 363.69 1161.97 337.96" fill="#fafafa" stroke="#e0e0e0" stroke-miterlimit="10" stroke-width="2"/><polygon points="1094.69 337.96 1161.97 337.96 1153.84 363.69 1081.14 363.69 1094.69 337.96" fill="#f5f5f5" stroke="#e0e0e0" stroke-miterlimit="10" stroke-width="2"/><polygon points="1027.41 337.96 1094.69 337.96 1081.14 363.69 1008.44 363.69 1027.41 337.96" fill="#fafafa" stroke="#e0e0e0" stroke-miterlimit="10" stroke-width="2"/><polygon points="960.13 337.96 1027.41 337.96 1008.44 363.69 935.74 363.69 960.13 337.96" fill="#fafafa" stroke="#e0e0e0" stroke-miterlimit="10" stroke-width="2"/><polygon points="892.85 337.96 960.13 337.96 935.74 363.69 863.04 363.69 892.85 337.96" fill="#fafafa" stroke="#e0e0e0" stroke-miterlimit="10" stroke-width="2"/><polygon points="825.57 337.96 892.85 337.96 863.04 363.69 790.34 363.69 825.57 337.96" fill="#f5f5f5" stroke="#e0e0e0" stroke-miterlimit="10" stroke-width="2"/><polygon points="758.29 337.96 825.57 337.96 790.34 363.69 717.64 363.69 758.29 337.96" fill="#fafafa" stroke="#e0e0e0" stroke-miterlimit="10" stroke-width="2"/><polygon points="691.01 337.96 758.29 337.96 717.64 363.69 644.94 363.69 691.01 337.96" fill="#fafafa" stroke="#e0e0e0" stroke-miterlimit="10" stroke-width="2"/><polygon points="2108.15 315.79 2170.76 315.79 2238.45 337.96 2171.17 337.96 2108.15 315.79" fill="#eee" stroke="#e0e0e0" stroke-miterlimit="10" stroke-width="2"/><polygon points="2045.54 315.79 2108.15 315.79 2171.17 337.96 2103.89 337.96 2045.54 315.79" fill="#fafafa" stroke="#e0e0e0" stroke-miterlimit="10" stroke-width="2"/><polygon points="1982.93 315.79 2045.54 315.79 2103.89 337.96 2036.61 337.96 1982.93 315.79" fill="#eee" stroke="#e0e0e0" stroke-miterlimit="10" stroke-width="2"/><polygon points="1920.32 315.79 1982.93 315.79 2036.61 337.96 1969.33 337.96 1920.32 315.79" fill="#f5f5f5" stroke="#e0e0e0" stroke-miterlimit="10" stroke-width="2"/><polygon points="1857.7 315.79 1920.32 315.79 1969.33 337.96 1902.05 337.96 1857.7 315.79" fill="#fafafa" stroke="#e0e0e0" stroke-miterlimit="10" stroke-width="2"/><polygon points="1795.09 315.79 1857.7 315.79 1902.05 337.96 1834.77 337.96 1795.09 315.79" fill="#fafafa" stroke="#e0e0e0" stroke-miterlimit="10" stroke-width="2"/><polygon points="1732.48 315.79 1795.09 315.79 1834.77 337.96 1767.49 337.96 1732.48 315.79" fill="#eee" stroke="#e0e0e0" stroke-miterlimit="10" stroke-width="2"/><polygon points="1669.87 315.79 1732.48 315.79 1767.49 337.96 1700.21 337.96 1669.87 315.79" fill="#eee" stroke="#e0e0e0" stroke-miterlimit="10" stroke-width="2"/><polygon points="1607.26 315.79 1669.87 315.79 1700.21 337.96 1632.93 337.96 1607.26 315.79" fill="#fafafa" stroke="#e0e0e0" stroke-miterlimit="10" stroke-width="2"/><polygon points="1544.64 315.79 1607.26 315.79 1632.93 337.96 1565.65 337.96 1544.64 315.79" fill="#f5f5f5" stroke="#e0e0e0" stroke-miterlimit="10" stroke-width="2"/><polygon points="1482.03 315.79 1544.64 315.79 1565.65 337.96 1498.37 337.96 1482.03 315.79" fill="#fafafa" stroke="#e0e0e0" stroke-miterlimit="10" stroke-width="2"/><polygon points="1419.42 315.79 1482.03 315.79 1498.37 337.96 1431.09 337.96 1419.42 315.79" fill="#fafafa" stroke="#e0e0e0" stroke-miterlimit="10" stroke-width="2"/><polygon points="1356.81 315.79 1419.42 315.79 1431.09 337.96 1363.81 337.96 1356.81 315.79" fill="#fafafa" stroke="#e0e0e0" stroke-miterlimit="10" stroke-width="2"/><polygon points="1294.2 315.79 1356.81 315.79 1363.81 337.96 1296.53 337.96 1294.2 315.79" fill="#fafafa" stroke="#e0e0e0" stroke-miterlimit="10" stroke-width="2"/><polygon points="1231.59 315.79 1294.2 315.79 1296.53 337.96 1229.25 337.96 1231.59 315.79" fill="#f5f5f5" stroke="#e0e0e0" stroke-miterlimit="10" stroke-width="2"/><polygon points="1168.97 315.79 1231.59 315.79 1229.25 337.96 1161.97 337.96 1168.97 315.79" fill="#fafafa" stroke="#e0e0e0" stroke-miterlimit="10" stroke-width="2"/><polygon points="1106.36 315.79 1168.97 315.79 1161.97 337.96 1094.69 337.96 1106.36 315.79" fill="#fafafa" stroke="#e0e0e0" stroke-miterlimit="10" stroke-width="2"/><polygon points="1043.75 315.79 1106.36 315.79 1094.69 337.96 1027.41 337.96 1043.75 315.79" fill="#f5f5f5" stroke="#e0e0e0" stroke-miterlimit="10" stroke-width="2"/><polygon points="981.14 315.79 1043.75 315.79 1027.41 337.96 960.13 337.96 981.14 315.79" fill="#fafafa" stroke="#e0e0e0" stroke-miterlimit="10" stroke-width="2"/><polygon points="918.53 315.79 981.14 315.79 960.13 337.96 892.85 337.96 918.53 315.79" fill="#fafafa" stroke="#e0e0e0" stroke-miterlimit="10" stroke-width="2"/><polygon points="855.92 315.79 918.53 315.79 892.85 337.96 825.57 337.96 855.92 315.79" fill="#fafafa" stroke="#e0e0e0" stroke-miterlimit="10" stroke-width="2"/><polygon points="793.3 315.79 855.92 315.79 825.57 337.96 758.29 337.96 793.3 315.79" fill="#f5f5f5" stroke="#e0e0e0" stroke-miterlimit="10" stroke-width="2"/><polygon points="730.69 315.79 793.3 315.79 758.29 337.96 691.01 337.96 730.69 315.79" fill="#fafafa" stroke="#e0e0e0" stroke-miterlimit="10" stroke-width="2"/><polygon points="2053.31 296.5 2111.86 296.5 2170.76 315.79 2108.15 315.79 2053.31 296.5" fill="#f5f5f5" stroke="#e0e0e0" stroke-miterlimit="10" stroke-width="2"/><polygon points="1994.76 296.5 2053.31 296.5 2108.15 315.79 2045.54 315.79 1994.76 296.5" fill="#fafafa" stroke="#e0e0e0" stroke-miterlimit="10" stroke-width="2"/><polygon points="1936.21 296.5 1994.76 296.5 2045.54 315.79 1982.93 315.79 1936.21 296.5" fill="#fafafa" stroke="#e0e0e0" stroke-miterlimit="10" stroke-width="2"/><polygon points="1877.66 296.5 1936.21 296.5 1982.93 315.79 1920.32 315.79 1877.66 296.5" fill="#fafafa" stroke="#e0e0e0" stroke-miterlimit="10" stroke-width="2"/><polygon points="1819.11 296.5 1877.66 296.5 1920.32 315.79 1857.7 315.79 1819.11 296.5" fill="#f5f5f5" stroke="#e0e0e0" stroke-miterlimit="10" stroke-width="2"/><polygon points="1760.56 296.5 1819.11 296.5 1857.7 315.79 1795.09 315.79 1760.56 296.5" fill="#fafafa" stroke="#e0e0e0" stroke-miterlimit="10" stroke-width="2"/><polygon points="1702.01 296.5 1760.56 296.5 1795.09 315.79 1732.48 315.79 1702.01 296.5" fill="#fafafa" stroke="#e0e0e0" stroke-miterlimit="10" stroke-width="2"/><polygon points="1643.46 296.5 1702.01 296.5 1732.48 315.79 1669.87 315.79 1643.46 296.5" fill="#fafafa" stroke="#e0e0e0" stroke-miterlimit="10" stroke-width="2"/><polygon points="1584.91 296.5 1643.46 296.5 1669.87 315.79 1607.26 315.79 1584.91 296.5" fill="#fafafa" stroke="#e0e0e0" stroke-miterlimit="10" stroke-width="2"/><polygon points="1526.36 296.5 1584.91 296.5 1607.26 315.79 1544.64 315.79 1526.36 296.5" fill="#fafafa" stroke="#e0e0e0" stroke-miterlimit="10" stroke-width="2"/><polygon points="1467.82 296.5 1526.36 296.5 1544.64 315.79 1482.03 315.79 1467.82 296.5" fill="#fafafa" stroke="#e0e0e0" stroke-miterlimit="10" stroke-width="2"/><polygon points="1409.27 296.5 1467.82 296.5 1482.03 315.79 1419.42 315.79 1409.27 296.5" fill="#eee" stroke="#e0e0e0" stroke-miterlimit="10" stroke-width="2"/><polygon points="1350.72 296.5 1409.27 296.5 1419.42 315.79 1356.81 315.79 1350.72 296.5" fill="#fafafa" stroke="#e0e0e0" stroke-miterlimit="10" stroke-width="2"/><polygon points="1292.17 296.5 1350.72 296.5 1356.81 315.79 1294.2 315.79 1292.17 296.5" fill="#eee" stroke="#e0e0e0" stroke-miterlimit="10" stroke-width="2"/><polygon points="1233.62 296.5 1292.17 296.5 1294.2 315.79 1231.59 315.79 1233.62 296.5" fill="#fafafa" stroke="#e0e0e0" stroke-miterlimit="10" stroke-width="2"/><polygon points="1175.07 296.5 1233.62 296.5 1231.59 315.79 1168.97 315.79 1175.07 296.5" fill="#fafafa" stroke="#e0e0e0" stroke-miterlimit="10" stroke-width="2"/><polygon points="1116.52 296.5 1175.07 296.5 1168.97 315.79 1106.36 315.79 1116.52 296.5" fill="#fafafa" stroke="#e0e0e0" stroke-miterlimit="10" stroke-width="2"/><polygon points="1057.97 296.5 1116.52 296.5 1106.36 315.79 1043.75 315.79 1057.97 296.5" fill="#eee" stroke="#e0e0e0" stroke-miterlimit="10" stroke-width="2"/><polygon points="999.42 296.5 1057.97 296.5 1043.75 315.79 981.14 315.79 999.42 296.5" fill="#fafafa" stroke="#e0e0e0" stroke-miterlimit="10" stroke-width="2"/><polygon points="940.87 296.5 999.42 296.5 981.14 315.79 918.53 315.79 940.87 296.5" fill="#f5f5f5" stroke="#e0e0e0" stroke-miterlimit="10" stroke-width="2"/><polygon points="882.32 296.5 940.87 296.5 918.53 315.79 855.92 315.79 882.32 296.5" fill="#fafafa" stroke="#e0e0e0" stroke-miterlimit="10" stroke-width="2"/><polygon points="823.77 296.5 882.32 296.5 855.92 315.79 793.3 315.79 823.77 296.5" fill="#fafafa" stroke="#e0e0e0" stroke-miterlimit="10" stroke-width="2"/><polygon points="765.22 296.5 823.77 296.5 793.3 315.79 730.69 315.79 765.22 296.5" fill="#fafafa" stroke="#e0e0e0" stroke-miterlimit="10" stroke-width="2"/><polygon points="2005.15 279.56 2060.13 279.56 2111.86 296.5 2053.31 296.5 2005.15 279.56" fill="#fafafa" stroke="#e0e0e0" stroke-miterlimit="10" stroke-width="2"/><polygon points="1950.17 279.56 2005.15 279.56 2053.31 296.5 1994.76 296.5 1950.17 279.56" fill="#fafafa" stroke="#e0e0e0" stroke-miterlimit="10" stroke-width="2"/><polygon points="1895.19 279.56 1950.17 279.56 1994.76 296.5 1936.21 296.5 1895.19 279.56" fill="#f5f5f5" stroke="#e0e0e0" stroke-miterlimit="10" stroke-width="2"/><polygon points="1840.2 279.56 1895.19 279.56 1936.21 296.5 1877.66 296.5 1840.2 279.56" fill="#fafafa" stroke="#e0e0e0" stroke-miterlimit="10" stroke-width="2"/><polygon points="1785.22 279.56 1840.2 279.56 1877.66 296.5 1819.11 296.5 1785.22 279.56" fill="#fafafa" stroke="#e0e0e0" stroke-miterlimit="10" stroke-width="2"/><polygon points="1730.24 279.56 1785.22 279.56 1819.11 296.5 1760.56 296.5 1730.24 279.56" fill="#eee" stroke="#e0e0e0" stroke-miterlimit="10" stroke-width="2"/><polygon points="1675.26 279.56 1730.24 279.56 1760.56 296.5 1702.01 296.5 1675.26 279.56" fill="#f5f5f5" stroke="#e0e0e0" stroke-miterlimit="10" stroke-width="2"/><polygon points="1620.28 279.56 1675.26 279.56 1702.01 296.5 1643.46 296.5 1620.28 279.56" fill="#fafafa" stroke="#e0e0e0" stroke-miterlimit="10" stroke-width="2"/><polygon points="1565.29 279.56 1620.28 279.56 1643.46 296.5 1584.91 296.5 1565.29 279.56" fill="#f5f5f5" stroke="#e0e0e0" stroke-miterlimit="10" stroke-width="2"/><polygon points="1510.31 279.56 1565.29 279.56 1584.91 296.5 1526.36 296.5 1510.31 279.56" fill="#fafafa" stroke="#e0e0e0" stroke-miterlimit="10" stroke-width="2"/><polygon points="1455.33 279.56 1510.31 279.56 1526.36 296.5 1467.82 296.5 1455.33 279.56" fill="#fafafa" stroke="#e0e0e0" stroke-miterlimit="10" stroke-width="2"/><polygon points="1400.35 279.56 1455.33 279.56 1467.82 296.5 1409.27 296.5 1400.35 279.56" fill="#f5f5f5" stroke="#e0e0e0" stroke-miterlimit="10" stroke-width="2"/><polygon points="1345.37 279.56 1400.35 279.56 1409.27 296.5 1350.72 296.5 1345.37 279.56" fill="#fafafa" stroke="#e0e0e0" stroke-miterlimit="10" stroke-width="2"/><polygon points="1290.38 279.56 1345.37 279.56 1350.72 296.5 1292.17 296.5 1290.38 279.56" fill="#f5f5f5" stroke="#e0e0e0" stroke-miterlimit="10" stroke-width="2"/><polygon points="1235.4 279.56 1290.38 279.56 1292.17 296.5 1233.62 296.5 1235.4 279.56" fill="#fafafa" stroke="#e0e0e0" stroke-miterlimit="10" stroke-width="2"/><polygon points="1180.42 279.56 1235.4 279.56 1233.62 296.5 1175.07 296.5 1180.42 279.56" fill="#f5f5f5" stroke="#e0e0e0" stroke-miterlimit="10" stroke-width="2"/><polygon points="1125.44 279.56 1180.42 279.56 1175.07 296.5 1116.52 296.5 1125.44 279.56" fill="#fafafa" stroke="#e0e0e0" stroke-miterlimit="10" stroke-width="2"/><polygon points="1070.45 279.56 1125.44 279.56 1116.52 296.5 1057.97 296.5 1070.45 279.56" fill="#fafafa" stroke="#e0e0e0" stroke-miterlimit="10" stroke-width="2"/><polygon points="1015.47 279.56 1070.45 279.56 1057.97 296.5 999.42 296.5 1015.47 279.56" fill="#fafafa" stroke="#e0e0e0" stroke-miterlimit="10" stroke-width="2"/><polygon points="960.49 279.56 1015.47 279.56 999.42 296.5 940.87 296.5 960.49 279.56" fill="#fafafa" stroke="#e0e0e0" stroke-miterlimit="10" stroke-width="2"/><polygon points="905.51 279.56 960.49 279.56 940.87 296.5 882.32 296.5 905.51 279.56" fill="#f5f5f5" stroke="#e0e0e0" stroke-miterlimit="10" stroke-width="2"/><polygon points="850.53 279.56 905.51 279.56 882.32 296.5 823.77 296.5 850.53 279.56" fill="#fafafa" stroke="#e0e0e0" stroke-miterlimit="10" stroke-width="2"/><polygon points="795.54 279.56 850.53 279.56 823.77 296.5 765.22 296.5 795.54 279.56" fill="#eee" stroke="#e0e0e0" stroke-miterlimit="10" stroke-width="2"/><polygon points="1962.53 264.57 2014.35 264.57 2060.13 279.56 2005.15 279.56 1962.53 264.57" fill="#fafafa" stroke="#e0e0e0" stroke-miterlimit="10" stroke-width="2"/><polygon points="1910.7 264.57 1962.53 264.57 2005.15 279.56 1950.17 279.56 1910.7 264.57" fill="#eee" stroke="#e0e0e0" stroke-miterlimit="10" stroke-width="2"/><polygon points="1858.88 264.57 1910.7 264.57 1950.17 279.56 1895.19 279.56 1858.88 264.57" fill="#fafafa" stroke="#e0e0e0" stroke-miterlimit="10" stroke-width="2"/><polygon points="1807.05 264.57 1858.88 264.57 1895.19 279.56 1840.2 279.56 1807.05 264.57" fill="#eee" stroke="#e0e0e0" stroke-miterlimit="10" stroke-width="2"/><polygon points="1755.23 264.57 1807.05 264.57 1840.2 279.56 1785.22 279.56 1755.23 264.57" fill="#fafafa" stroke="#e0e0e0" stroke-miterlimit="10" stroke-width="2"/><polygon points="1703.4 264.57 1755.23 264.57 1785.22 279.56 1730.24 279.56 1703.4 264.57" fill="#fafafa" stroke="#e0e0e0" stroke-miterlimit="10" stroke-width="2"/><polygon points="1651.58 264.57 1703.4 264.57 1730.24 279.56 1675.26 279.56 1651.58 264.57" fill="#fafafa" stroke="#e0e0e0" stroke-miterlimit="10" stroke-width="2"/><polygon points="1599.75 264.57 1651.58 264.57 1675.26 279.56 1620.28 279.56 1599.75 264.57" fill="#eee" stroke="#e0e0e0" stroke-miterlimit="10" stroke-width="2"/><polygon points="1547.93 264.57 1599.75 264.57 1620.28 279.56 1565.29 279.56 1547.93 264.57" fill="#fafafa" stroke="#e0e0e0" stroke-miterlimit="10" stroke-width="2"/><polygon points="1496.1 264.57 1547.93 264.57 1565.29 279.56 1510.31 279.56 1496.1 264.57" fill="#fafafa" stroke="#e0e0e0" stroke-miterlimit="10" stroke-width="2"/><polygon points="1444.28 264.57 1496.1 264.57 1510.31 279.56 1455.33 279.56 1444.28 264.57" fill="#eee" stroke="#e0e0e0" stroke-miterlimit="10" stroke-width="2"/><polygon points="1392.45 264.57 1444.28 264.57 1455.33 279.56 1400.35 279.56 1392.45 264.57" fill="#fafafa" stroke="#e0e0e0" stroke-miterlimit="10" stroke-width="2"/><polygon points="1340.63 264.57 1392.45 264.57 1400.35 279.56 1345.37 279.56 1340.63 264.57" fill="#fafafa" stroke="#e0e0e0" stroke-miterlimit="10" stroke-width="2"/><polygon points="1288.8 264.57 1340.63 264.57 1345.37 279.56 1290.38 279.56 1288.8 264.57" fill="#fafafa" stroke="#e0e0e0" stroke-miterlimit="10" stroke-width="2"/><polygon points="1236.98 264.57 1288.8 264.57 1290.38 279.56 1235.4 279.56 1236.98 264.57" fill="#fafafa" stroke="#e0e0e0" stroke-miterlimit="10" stroke-width="2"/><polygon points="1185.15 264.57 1236.98 264.57 1235.4 279.56 1180.42 279.56 1185.15 264.57" fill="#fafafa" stroke="#e0e0e0" stroke-miterlimit="10" stroke-width="2"/><polygon points="1133.33 264.57 1185.15 264.57 1180.42 279.56 1125.44 279.56 1133.33 264.57" fill="#f5f5f5" stroke="#e0e0e0" stroke-miterlimit="10" stroke-width="2"/><polygon points="1081.51 264.57 1133.33 264.57 1125.44 279.56 1070.45 279.56 1081.51 264.57" fill="#fafafa" stroke="#e0e0e0" stroke-miterlimit="10" stroke-width="2"/><polygon points="1029.68 264.57 1081.51 264.57 1070.45 279.56 1015.47 279.56 1029.68 264.57" fill="#fafafa" stroke="#e0e0e0" stroke-miterlimit="10" stroke-width="2"/><polygon points="977.86 264.57 1029.68 264.57 1015.47 279.56 960.49 279.56 977.86 264.57" fill="#f5f5f5" stroke="#e0e0e0" stroke-miterlimit="10" stroke-width="2"/><polygon points="926.03 264.57 977.86 264.57 960.49 279.56 905.51 279.56 926.03 264.57" fill="#fafafa" stroke="#e0e0e0" stroke-miterlimit="10" stroke-width="2"/><polygon points="874.21 264.57 926.03 264.57 905.51 279.56 850.53 279.56 874.21 264.57" fill="#fafafa" stroke="#e0e0e0" stroke-miterlimit="10" stroke-width="2"/><polygon points="822.38 264.57 874.21 264.57 850.53 279.56 795.54 279.56 822.38 264.57" fill="#fafafa" stroke="#e0e0e0" stroke-miterlimit="10" stroke-width="2"/><polygon points="1924.53 251.2 1973.54 251.2 2014.35 264.57 1962.53 264.57 1924.53 251.2" fill="#f5f5f5" stroke="#e0e0e0" stroke-miterlimit="10" stroke-width="2"/><polygon points="1875.52 251.2 1924.53 251.2 1962.53 264.57 1910.7 264.57 1875.52 251.2" fill="#fafafa" stroke="#e0e0e0" stroke-miterlimit="10" stroke-width="2"/><polygon points="1826.51 251.2 1875.52 251.2 1910.7 264.57 1858.88 264.57 1826.51 251.2" fill="#fafafa" stroke="#e0e0e0" stroke-miterlimit="10" stroke-width="2"/><polygon points="1777.5 251.2 1826.51 251.2 1858.88 264.57 1807.05 264.57 1777.5 251.2" fill="#f5f5f5" stroke="#e0e0e0" stroke-miterlimit="10" stroke-width="2"/><polygon points="1728.49 251.2 1777.5 251.2 1807.05 264.57 1755.23 264.57 1728.49 251.2" fill="#fafafa" stroke="#e0e0e0" stroke-miterlimit="10" stroke-width="2"/><polygon points="1679.48 251.2 1728.49 251.2 1755.23 264.57 1703.4 264.57 1679.48 251.2" fill="#eee" stroke="#e0e0e0" stroke-miterlimit="10" stroke-width="2"/><polygon points="1630.47 251.2 1679.48 251.2 1703.4 264.57 1651.58 264.57 1630.47 251.2" fill="#fafafa" stroke="#e0e0e0" stroke-miterlimit="10" stroke-width="2"/><polygon points="1581.46 251.2 1630.47 251.2 1651.58 264.57 1599.75 264.57 1581.46 251.2" fill="#f5f5f5" stroke="#e0e0e0" stroke-miterlimit="10" stroke-width="2"/><polygon points="1532.45 251.2 1581.46 251.2 1599.75 264.57 1547.93 264.57 1532.45 251.2" fill="#fafafa" stroke="#e0e0e0" stroke-miterlimit="10" stroke-width="2"/><polygon points="1483.44 251.2 1532.45 251.2 1547.93 264.57 1496.1 264.57 1483.44 251.2" fill="#fafafa" stroke="#e0e0e0" stroke-miterlimit="10" stroke-width="2"/><polygon points="1434.43 251.2 1483.44 251.2 1496.1 264.57 1444.28 264.57 1434.43 251.2" fill="#fafafa" stroke="#e0e0e0" stroke-miterlimit="10" stroke-width="2"/><polygon points="1385.42 251.2 1434.43 251.2 1444.28 264.57 1392.45 264.57 1385.42 251.2" fill="#fafafa" stroke="#e0e0e0" stroke-miterlimit="10" stroke-width="2"/><polygon points="1336.41 251.2 1385.42 251.2 1392.45 264.57 1340.63 264.57 1336.41 251.2" fill="#eee" stroke="#e0e0e0" stroke-miterlimit="10" stroke-width="2"/><polygon points="1287.4 251.2 1336.41 251.2 1340.63 264.57 1288.8 264.57 1287.4 251.2" fill="#f5f5f5" stroke="#e0e0e0" stroke-miterlimit="10" stroke-width="2"/><polygon points="1238.39 251.2 1287.4 251.2 1288.8 264.57 1236.98 264.57 1238.39 251.2" fill="#fafafa" stroke="#e0e0e0" stroke-miterlimit="10" stroke-width="2"/><polygon points="1189.38 251.2 1238.39 251.2 1236.98 264.57 1185.15 264.57 1189.38 251.2" fill="#eee" stroke="#e0e0e0" stroke-miterlimit="10" stroke-width="2"/><polygon points="1140.37 251.2 1189.38 251.2 1185.15 264.57 1133.33 264.57 1140.37 251.2" fill="#fafafa" stroke="#e0e0e0" stroke-miterlimit="10" stroke-width="2"/><polygon points="1091.36 251.2 1140.37 251.2 1133.33 264.57 1081.51 264.57 1091.36 251.2" fill="#eee" stroke="#e0e0e0" stroke-miterlimit="10" stroke-width="2"/><polygon points="1042.35 251.2 1091.36 251.2 1081.51 264.57 1029.68 264.57 1042.35 251.2" fill="#fafafa" stroke="#e0e0e0" stroke-miterlimit="10" stroke-width="2"/><polygon points="993.34 251.2 1042.35 251.2 1029.68 264.57 977.86 264.57 993.34 251.2" fill="#fafafa" stroke="#e0e0e0" stroke-miterlimit="10" stroke-width="2"/><polygon points="944.33 251.2 993.34 251.2 977.86 264.57 926.03 264.57 944.33 251.2" fill="#eee" stroke="#e0e0e0" stroke-miterlimit="10" stroke-width="2"/><polygon points="895.32 251.2 944.33 251.2 926.03 264.57 874.21 264.57 895.32 251.2" fill="#fafafa" stroke="#e0e0e0" stroke-miterlimit="10" stroke-width="2"/><polygon points="846.31 251.2 895.32 251.2 874.21 264.57 822.38 264.57 846.31 251.2" fill="#f5f5f5" stroke="#e0e0e0" stroke-miterlimit="10" stroke-width="2"/><polygon points="1890.45 239.21 1936.93 239.21 1973.54 251.2 1924.53 251.2 1890.45 239.21" fill="#fafafa" stroke="#e0e0e0" stroke-miterlimit="10" stroke-width="2"/><polygon points="1843.96 239.21 1890.45 239.21 1924.53 251.2 1875.52 251.2 1843.96 239.21" fill="#fafafa" stroke="#e0e0e0" stroke-miterlimit="10" stroke-width="2"/><polygon points="1797.47 239.21 1843.96 239.21 1875.52 251.2 1826.51 251.2 1797.47 239.21" fill="#f5f5f5" stroke="#e0e0e0" stroke-miterlimit="10" stroke-width="2"/><polygon points="1750.99 239.21 1797.47 239.21 1826.51 251.2 1777.5 251.2 1750.99 239.21" fill="#fafafa" stroke="#e0e0e0" stroke-miterlimit="10" stroke-width="2"/><polygon points="1704.5 239.21 1750.99 239.21 1777.5 251.2 1728.49 251.2 1704.5 239.21" fill="#fafafa" stroke="#e0e0e0" stroke-miterlimit="10" stroke-width="2"/><polygon points="1658.02 239.21 1704.5 239.21 1728.49 251.2 1679.48 251.2 1658.02 239.21" fill="#f5f5f5" stroke="#e0e0e0" stroke-miterlimit="10" stroke-width="2"/><polygon points="1611.53 239.21 1658.02 239.21 1679.48 251.2 1630.47 251.2 1611.53 239.21" fill="#fafafa" stroke="#e0e0e0" stroke-miterlimit="10" stroke-width="2"/><polygon points="1565.05 239.21 1611.53 239.21 1630.47 251.2 1581.46 251.2 1565.05 239.21" fill="#fafafa" stroke="#e0e0e0" stroke-miterlimit="10" stroke-width="2"/><polygon points="1518.56 239.21 1565.05 239.21 1581.46 251.2 1532.45 251.2 1518.56 239.21" fill="#fafafa" stroke="#e0e0e0" stroke-miterlimit="10" stroke-width="2"/><polygon points="1472.08 239.21 1518.56 239.21 1532.45 251.2 1483.44 251.2 1472.08 239.21" fill="#f5f5f5" stroke="#e0e0e0" stroke-miterlimit="10" stroke-width="2"/><polygon points="1425.59 239.21 1472.08 239.21 1483.44 251.2 1434.43 251.2 1425.59 239.21" fill="#fafafa" stroke="#e0e0e0" stroke-miterlimit="10" stroke-width="2"/><polygon points="1379.11 239.21 1425.59 239.21 1434.43 251.2 1385.42 251.2 1379.11 239.21" fill="#f5f5f5" stroke="#e0e0e0" stroke-miterlimit="10" stroke-width="2"/><polygon points="1332.62 239.21 1379.11 239.21 1385.42 251.2 1336.41 251.2 1332.62 239.21" fill="#fafafa" stroke="#e0e0e0" stroke-miterlimit="10" stroke-width="2"/><polygon points="1286.13 239.21 1332.62 239.21 1336.41 251.2 1287.4 251.2 1286.13 239.21" fill="#fafafa" stroke="#e0e0e0" stroke-miterlimit="10" stroke-width="2"/><polygon points="1239.65 239.21 1286.13 239.21 1287.4 251.2 1238.39 251.2 1239.65 239.21" fill="#f5f5f5" stroke="#e0e0e0" stroke-miterlimit="10" stroke-width="2"/><polygon points="1193.16 239.21 1239.65 239.21 1238.39 251.2 1189.38 251.2 1193.16 239.21" fill="#fafafa" stroke="#e0e0e0" stroke-miterlimit="10" stroke-width="2"/><polygon points="1146.68 239.21 1193.16 239.21 1189.38 251.2 1140.37 251.2 1146.68 239.21" fill="#fafafa" stroke="#e0e0e0" stroke-miterlimit="10" stroke-width="2"/><polygon points="1100.19 239.21 1146.68 239.21 1140.37 251.2 1091.36 251.2 1100.19 239.21" fill="#fafafa" stroke="#e0e0e0" stroke-miterlimit="10" stroke-width="2"/><polygon points="1053.71 239.21 1100.19 239.21 1091.36 251.2 1042.35 251.2 1053.71 239.21" fill="#f5f5f5" stroke="#e0e0e0" stroke-miterlimit="10" stroke-width="2"/><polygon points="1007.22 239.21 1053.71 239.21 1042.35 251.2 993.34 251.2 1007.22 239.21" fill="#f5f5f5" stroke="#e0e0e0" stroke-miterlimit="10" stroke-width="2"/><polygon points="960.74 239.21 1007.22 239.21 993.34 251.2 944.33 251.2 960.74 239.21" fill="#fafafa" stroke="#e0e0e0" stroke-miterlimit="10" stroke-width="2"/><polygon points="914.25 239.21 960.74 239.21 944.33 251.2 895.32 251.2 914.25 239.21" fill="#eee" stroke="#e0e0e0" stroke-miterlimit="10" stroke-width="2"/><polygon points="867.76 239.21 914.25 239.21 895.32 251.2 846.31 251.2 867.76 239.21" fill="#fafafa" stroke="#e0e0e0" stroke-miterlimit="10" stroke-width="2"/><polygon points="1859.7 228.4 1903.91 228.4 1936.93 239.21 1890.45 239.21 1859.7 228.4" fill="#fafafa" stroke="#e0e0e0" stroke-miterlimit="10" stroke-width="2"/><polygon points="1815.49 228.4 1859.7 228.4 1890.45 239.21 1843.96 239.21 1815.49 228.4" fill="#f5f5f5" stroke="#e0e0e0" stroke-miterlimit="10" stroke-width="2"/><polygon points="1771.29 228.4 1815.49 228.4 1843.96 239.21 1797.47 239.21 1771.29 228.4" fill="#fafafa" stroke="#e0e0e0" stroke-miterlimit="10" stroke-width="2"/><polygon points="1727.08 228.4 1771.29 228.4 1797.47 239.21 1750.99 239.21 1727.08 228.4" fill="#eee" stroke="#e0e0e0" stroke-miterlimit="10" stroke-width="2"/><polygon points="1682.87 228.4 1727.08 228.4 1750.99 239.21 1704.5 239.21 1682.87 228.4" fill="#fafafa" stroke="#e0e0e0" stroke-miterlimit="10" stroke-width="2"/><polygon points="1638.66 228.4 1682.87 228.4 1704.5 239.21 1658.02 239.21 1638.66 228.4" fill="#fafafa" stroke="#e0e0e0" stroke-miterlimit="10" stroke-width="2"/><polygon points="1594.45 228.4 1638.66 228.4 1658.02 239.21 1611.53 239.21 1594.45 228.4" fill="#eee" stroke="#e0e0e0" stroke-miterlimit="10" stroke-width="2"/><polygon points="1550.25 228.4 1594.45 228.4 1611.53 239.21 1565.05 239.21 1550.25 228.4" fill="#f5f5f5" stroke="#e0e0e0" stroke-miterlimit="10" stroke-width="2"/><polygon points="1506.04 228.4 1550.25 228.4 1565.05 239.21 1518.56 239.21 1506.04 228.4" fill="#fafafa" stroke="#e0e0e0" stroke-miterlimit="10" stroke-width="2"/><polygon points="1461.83 228.4 1506.04 228.4 1518.56 239.21 1472.08 239.21 1461.83 228.4" fill="#fafafa" stroke="#e0e0e0" stroke-miterlimit="10" stroke-width="2"/><polygon points="1417.62 228.4 1461.83 228.4 1472.08 239.21 1425.59 239.21 1417.62 228.4" fill="#fafafa" stroke="#e0e0e0" stroke-miterlimit="10" stroke-width="2"/><polygon points="1373.41 228.4 1417.62 228.4 1425.59 239.21 1379.11 239.21 1373.41 228.4" fill="#fafafa" stroke="#e0e0e0" stroke-miterlimit="10" stroke-width="2"/><polygon points="1329.2 228.4 1373.41 228.4 1379.11 239.21 1332.62 239.21 1329.2 228.4" fill="#fafafa" stroke="#e0e0e0" stroke-miterlimit="10" stroke-width="2"/><polygon points="1285 228.4 1329.2 228.4 1332.62 239.21 1286.13 239.21 1285 228.4" fill="#fafafa" stroke="#e0e0e0" stroke-miterlimit="10" stroke-width="2"/><polygon points="1240.79 228.4 1285 228.4 1286.13 239.21 1239.65 239.21 1240.79 228.4" fill="#fafafa" stroke="#e0e0e0" stroke-miterlimit="10" stroke-width="2"/><polygon points="1196.58 228.4 1240.79 228.4 1239.65 239.21 1193.16 239.21 1196.58 228.4" fill="#fafafa" stroke="#e0e0e0" stroke-miterlimit="10" stroke-width="2"/><polygon points="1152.37 228.4 1196.58 228.4 1193.16 239.21 1146.68 239.21 1152.37 228.4" fill="#f5f5f5" stroke="#e0e0e0" stroke-miterlimit="10" stroke-width="2"/><polygon points="1108.16 228.4 1152.37 228.4 1146.68 239.21 1100.19 239.21 1108.16 228.4" fill="#eee" stroke="#e0e0e0" stroke-miterlimit="10" stroke-width="2"/><polygon points="1063.95 228.4 1108.16 228.4 1100.19 239.21 1053.71 239.21 1063.95 228.4" fill="#fafafa" stroke="#e0e0e0" stroke-miterlimit="10" stroke-width="2"/><polygon points="1019.75 228.4 1063.95 228.4 1053.71 239.21 1007.22 239.21 1019.75 228.4" fill="#fafafa" stroke="#e0e0e0" stroke-miterlimit="10" stroke-width="2"/><polygon points="975.54 228.4 1019.75 228.4 1007.22 239.21 960.74 239.21 975.54 228.4" fill="#fafafa" stroke="#e0e0e0" stroke-miterlimit="10" stroke-width="2"/><polygon points="931.33 228.4 975.54 228.4 960.74 239.21 914.25 239.21 931.33 228.4" fill="#fafafa" stroke="#e0e0e0" stroke-miterlimit="10" stroke-width="2"/><polygon points="887.12 228.4 931.33 228.4 914.25 239.21 867.76 239.21 887.12 228.4" fill="#f5f5f5" stroke="#e0e0e0" stroke-miterlimit="10" stroke-width="2"/><polygon points="1831.83 218.59 1873.98 218.59 1903.91 228.4 1859.7 228.4 1831.83 218.59" fill="#eee" stroke="#e0e0e0" stroke-miterlimit="10" stroke-width="2"/><polygon points="1789.69 218.59 1831.83 218.59 1859.7 228.4 1815.49 228.4 1789.69 218.59" fill="#fafafa" stroke="#e0e0e0" stroke-miterlimit="10" stroke-width="2"/><polygon points="1747.55 218.59 1789.69 218.59 1815.49 228.4 1771.29 228.4 1747.55 218.59" fill="#fafafa" stroke="#e0e0e0" stroke-miterlimit="10" stroke-width="2"/><polygon points="1705.4 218.59 1747.55 218.59 1771.29 228.4 1727.08 228.4 1705.4 218.59" fill="#fafafa" stroke="#e0e0e0" stroke-miterlimit="10" stroke-width="2"/><polygon points="1663.26 218.59 1705.4 218.59 1727.08 228.4 1682.87 228.4 1663.26 218.59" fill="#eee" stroke="#e0e0e0" stroke-miterlimit="10" stroke-width="2"/><polygon points="1621.11 218.59 1663.26 218.59 1682.87 228.4 1638.66 228.4 1621.11 218.59" fill="#fafafa" stroke="#e0e0e0" stroke-miterlimit="10" stroke-width="2"/><polygon points="1578.97 218.59 1621.11 218.59 1638.66 228.4 1594.45 228.4 1578.97 218.59" fill="#fafafa" stroke="#e0e0e0" stroke-miterlimit="10" stroke-width="2"/><polygon points="1536.83 218.59 1578.97 218.59 1594.45 228.4 1550.25 228.4 1536.83 218.59" fill="#fafafa" stroke="#e0e0e0" stroke-miterlimit="10" stroke-width="2"/><polygon points="1494.68 218.59 1536.83 218.59 1550.25 228.4 1506.04 228.4 1494.68 218.59" fill="#fafafa" stroke="#e0e0e0" stroke-miterlimit="10" stroke-width="2"/><polygon points="1452.54 218.59 1494.68 218.59 1506.04 228.4 1461.83 228.4 1452.54 218.59" fill="#fafafa" stroke="#e0e0e0" stroke-miterlimit="10" stroke-width="2"/><polygon points="1410.39 218.59 1452.54 218.59 1461.83 228.4 1417.62 228.4 1410.39 218.59" fill="#eee" stroke="#e0e0e0" stroke-miterlimit="10" stroke-width="2"/><polygon points="1368.25 218.59 1410.39 218.59 1417.62 228.4 1373.41 228.4 1368.25 218.59" fill="#fafafa" stroke="#e0e0e0" stroke-miterlimit="10" stroke-width="2"/><polygon points="1326.11 218.59 1368.25 218.59 1373.41 228.4 1329.2 228.4 1326.11 218.59" fill="#f5f5f5" stroke="#e0e0e0" stroke-miterlimit="10" stroke-width="2"/><polygon points="1283.96 218.59 1326.11 218.59 1329.2 228.4 1285 228.4 1283.96 218.59" fill="#fafafa" stroke="#e0e0e0" stroke-miterlimit="10" stroke-width="2"/><polygon points="1241.82 218.59 1283.96 218.59 1285 228.4 1240.79 228.4 1241.82 218.59" fill="#eee" stroke="#e0e0e0" stroke-miterlimit="10" stroke-width="2"/><polygon points="1199.68 218.59 1241.82 218.59 1240.79 228.4 1196.58 228.4 1199.68 218.59" fill="#fafafa" stroke="#e0e0e0" stroke-miterlimit="10" stroke-width="2"/><polygon points="1157.53 218.59 1199.68 218.59 1196.58 228.4 1152.37 228.4 1157.53 218.59" fill="#fafafa" stroke="#e0e0e0" stroke-miterlimit="10" stroke-width="2"/><polygon points="1115.39 218.59 1157.53 218.59 1152.37 228.4 1108.16 228.4 1115.39 218.59" fill="#f5f5f5" stroke="#e0e0e0" stroke-miterlimit="10" stroke-width="2"/><polygon points="1073.24 218.59 1115.39 218.59 1108.16 228.4 1063.95 228.4 1073.24 218.59" fill="#fafafa" stroke="#e0e0e0" stroke-miterlimit="10" stroke-width="2"/><polygon points="1031.1 218.59 1073.24 218.59 1063.95 228.4 1019.75 228.4 1031.1 218.59" fill="#eee" stroke="#e0e0e0" stroke-miterlimit="10" stroke-width="2"/><polygon points="988.96 218.59 1031.1 218.59 1019.75 228.4 975.54 228.4 988.96 218.59" fill="#f5f5f5" stroke="#e0e0e0" stroke-miterlimit="10" stroke-width="2"/><polygon points="946.81 218.59 988.96 218.59 975.54 228.4 931.33 228.4 946.81 218.59" fill="#fafafa" stroke="#e0e0e0" stroke-miterlimit="10" stroke-width="2"/><polygon points="904.67 218.59 946.81 218.59 931.33 228.4 887.12 228.4 904.67 218.59" fill="#fafafa" stroke="#e0e0e0" stroke-miterlimit="10" stroke-width="2"/><polygon points="1806.45 209.67 1846.71 209.67 1873.98 218.59 1831.83 218.59 1806.45 209.67" fill="#f5f5f5" stroke="#e0e0e0" stroke-miterlimit="10" stroke-width="2"/><polygon points="1766.18 209.67 1806.45 209.67 1831.83 218.59 1789.69 218.59 1766.18 209.67" fill="#fafafa" stroke="#e0e0e0" stroke-miterlimit="10" stroke-width="2"/><polygon points="1725.92 209.67 1766.18 209.67 1789.69 218.59 1747.55 218.59 1725.92 209.67" fill="#f5f5f5" stroke="#e0e0e0" stroke-miterlimit="10" stroke-width="2"/><polygon points="1685.66 209.67 1725.92 209.67 1747.55 218.59 1705.4 218.59 1685.66 209.67" fill="#fafafa" stroke="#e0e0e0" stroke-miterlimit="10" stroke-width="2"/><polygon points="1645.39 209.67 1685.66 209.67 1705.4 218.59 1663.26 218.59 1645.39 209.67" fill="#fafafa" stroke="#e0e0e0" stroke-miterlimit="10" stroke-width="2"/><polygon points="1605.13 209.67 1645.39 209.67 1663.26 218.59 1621.11 218.59 1605.13 209.67" fill="#f5f5f5" stroke="#e0e0e0" stroke-miterlimit="10" stroke-width="2"/><polygon points="1564.87 209.67 1605.13 209.67 1621.11 218.59 1578.97 218.59 1564.87 209.67" fill="#fafafa" stroke="#e0e0e0" stroke-miterlimit="10" stroke-width="2"/><polygon points="1524.6 209.67 1564.87 209.67 1578.97 218.59 1536.83 218.59 1524.6 209.67" fill="#fafafa" stroke="#e0e0e0" stroke-miterlimit="10" stroke-width="2"/><polygon points="1484.34 209.67 1524.6 209.67 1536.83 218.59 1494.68 218.59 1484.34 209.67" fill="#eee" stroke="#e0e0e0" stroke-miterlimit="10" stroke-width="2"/><polygon points="1444.08 209.67 1484.34 209.67 1494.68 218.59 1452.54 218.59 1444.08 209.67" fill="#f5f5f5" stroke="#e0e0e0" stroke-miterlimit="10" stroke-width="2"/><polygon points="1403.81 209.67 1444.08 209.67 1452.54 218.59 1410.39 218.59 1403.81 209.67" fill="#f5f5f5" stroke="#e0e0e0" stroke-miterlimit="10" stroke-width="2"/><polygon points="1363.55 209.67 1403.81 209.67 1410.39 218.59 1368.25 218.59 1363.55 209.67" fill="#fafafa" stroke="#e0e0e0" stroke-miterlimit="10" stroke-width="2"/><polygon points="1323.29 209.67 1363.55 209.67 1368.25 218.59 1326.11 218.59 1323.29 209.67" fill="#fafafa" stroke="#e0e0e0" stroke-miterlimit="10" stroke-width="2"/><polygon points="1283.02 209.67 1323.29 209.67 1326.11 218.59 1283.96 218.59 1283.02 209.67" fill="#fafafa" stroke="#e0e0e0" stroke-miterlimit="10" stroke-width="2"/><polygon points="1242.76 209.67 1283.02 209.67 1283.96 218.59 1241.82 218.59 1242.76 209.67" fill="#fafafa" stroke="#e0e0e0" stroke-miterlimit="10" stroke-width="2"/><polygon points="1202.5 209.67 1242.76 209.67 1241.82 218.59 1199.68 218.59 1202.5 209.67" fill="#fafafa" stroke="#e0e0e0" stroke-miterlimit="10" stroke-width="2"/><polygon points="1162.23 209.67 1202.5 209.67 1199.68 218.59 1157.53 218.59 1162.23 209.67" fill="#f5f5f5" stroke="#e0e0e0" stroke-miterlimit="10" stroke-width="2"/><polygon points="1121.97 209.67 1162.23 209.67 1157.53 218.59 1115.39 218.59 1121.97 209.67" fill="#fafafa" stroke="#e0e0e0" stroke-miterlimit="10" stroke-width="2"/><polygon points="1081.71 209.67 1121.97 209.67 1115.39 218.59 1073.24 218.59 1081.71 209.67" fill="#f5f5f5" stroke="#e0e0e0" stroke-miterlimit="10" stroke-width="2"/><polygon points="1041.44 209.67 1081.71 209.67 1073.24 218.59 1031.1 218.59 1041.44 209.67" fill="#fafafa" stroke="#e0e0e0" stroke-miterlimit="10" stroke-width="2"/><polygon points="1001.18 209.67 1041.44 209.67 1031.1 218.59 988.96 218.59 1001.18 209.67" fill="#fafafa" stroke="#e0e0e0" stroke-miterlimit="10" stroke-width="2"/><polygon points="960.92 209.67 1001.18 209.67 988.96 218.59 946.81 218.59 960.92 209.67" fill="#fafafa" stroke="#e0e0e0" stroke-miterlimit="10" stroke-width="2"/><polygon points="920.65 209.67 960.92 209.67 946.81 218.59 904.67 218.59 920.65 209.67" fill="#eee" stroke="#e0e0e0" stroke-miterlimit="10" stroke-width="2"/><polygon points="1783.23 201.5 1821.78 201.5 1846.71 209.67 1806.45 209.67 1783.23 201.5" fill="#fafafa" stroke="#e0e0e0" stroke-miterlimit="10" stroke-width="2"/><polygon points="1744.69 201.5 1783.23 201.5 1806.45 209.67 1766.18 209.67 1744.69 201.5" fill="#eee" stroke="#e0e0e0" stroke-miterlimit="10" stroke-width="2"/><polygon points="1706.14 201.5 1744.69 201.5 1766.18 209.67 1725.92 209.67 1706.14 201.5" fill="#fafafa" stroke="#e0e0e0" stroke-miterlimit="10" stroke-width="2"/><polygon points="1667.6 201.5 1706.14 201.5 1725.92 209.67 1685.66 209.67 1667.6 201.5" fill="#f5f5f5" stroke="#e0e0e0" stroke-miterlimit="10" stroke-width="2"/><polygon points="1629.06 201.5 1667.6 201.5 1685.66 209.67 1645.39 209.67 1629.06 201.5" fill="#fafafa" stroke="#e0e0e0" stroke-miterlimit="10" stroke-width="2"/><polygon points="1590.51 201.5 1629.06 201.5 1645.39 209.67 1605.13 209.67 1590.51 201.5" fill="#fafafa" stroke="#e0e0e0" stroke-miterlimit="10" stroke-width="2"/><polygon points="1551.97 201.5 1590.51 201.5 1605.13 209.67 1564.87 209.67 1551.97 201.5" fill="#eee" stroke="#e0e0e0" stroke-miterlimit="10" stroke-width="2"/><polygon points="1513.43 201.5 1551.97 201.5 1564.87 209.67 1524.6 209.67 1513.43 201.5" fill="#f5f5f5" stroke="#e0e0e0" stroke-miterlimit="10" stroke-width="2"/><polygon points="1474.88 201.5 1513.43 201.5 1524.6 209.67 1484.34 209.67 1474.88 201.5" fill="#fafafa" stroke="#e0e0e0" stroke-miterlimit="10" stroke-width="2"/><polygon points="1436.34 201.5 1474.88 201.5 1484.34 209.67 1444.08 209.67 1436.34 201.5" fill="#fafafa" stroke="#e0e0e0" stroke-miterlimit="10" stroke-width="2"/><polygon points="1397.8 201.5 1436.34 201.5 1444.08 209.67 1403.81 209.67 1397.8 201.5" fill="#eee" stroke="#e0e0e0" stroke-miterlimit="10" stroke-width="2"/><polygon points="1359.25 201.5 1397.8 201.5 1403.81 209.67 1363.55 209.67 1359.25 201.5" fill="#fafafa" stroke="#e0e0e0" stroke-miterlimit="10" stroke-width="2"/><polygon points="1320.71 201.5 1359.25 201.5 1363.55 209.67 1323.29 209.67 1320.71 201.5" fill="#f5f5f5" stroke="#e0e0e0" stroke-miterlimit="10" stroke-width="2"/><polygon points="1282.16 201.5 1320.71 201.5 1323.29 209.67 1283.02 209.67 1282.16 201.5" fill="#f5f5f5" stroke="#e0e0e0" stroke-miterlimit="10" stroke-width="2"/><polygon points="1243.62 201.5 1282.16 201.5 1283.02 209.67 1242.76 209.67 1243.62 201.5" fill="#f5f5f5" stroke="#e0e0e0" stroke-miterlimit="10" stroke-width="2"/><polygon points="1205.08 201.5 1243.62 201.5 1242.76 209.67 1202.5 209.67 1205.08 201.5" fill="#fafafa" stroke="#e0e0e0" stroke-miterlimit="10" stroke-width="2"/><polygon points="1166.53 201.5 1205.08 201.5 1202.5 209.67 1162.23 209.67 1166.53 201.5" fill="#fafafa" stroke="#e0e0e0" stroke-miterlimit="10" stroke-width="2"/><polygon points="1127.99 201.5 1166.53 201.5 1162.23 209.67 1121.97 209.67 1127.99 201.5" fill="#eee" stroke="#e0e0e0" stroke-miterlimit="10" stroke-width="2"/><polygon points="1089.44 201.5 1127.99 201.5 1121.97 209.67 1081.71 209.67 1089.44 201.5" fill="#fafafa" stroke="#e0e0e0" stroke-miterlimit="10" stroke-width="2"/><polygon points="1050.9 201.5 1089.44 201.5 1081.71 209.67 1041.44 209.67 1050.9 201.5" fill="#fafafa" stroke="#e0e0e0" stroke-miterlimit="10" stroke-width="2"/><polygon points="1012.36 201.5 1050.9 201.5 1041.44 209.67 1001.18 209.67 1012.36 201.5" fill="#eee" stroke="#e0e0e0" stroke-miterlimit="10" stroke-width="2"/><polygon points="973.81 201.5 1012.36 201.5 1001.18 209.67 960.92 209.67 973.81 201.5" fill="#f5f5f5" stroke="#e0e0e0" stroke-miterlimit="10" stroke-width="2"/><polygon points="935.27 201.5 973.81 201.5 960.92 209.67 920.65 209.67 935.27 201.5" fill="#fafafa" stroke="#e0e0e0" stroke-miterlimit="10" stroke-width="2"/><polygon points="511.73 393.94 590.8 393.94 526.26 430 439.59 430 511.73 393.94" fill="#fafafa" stroke="#e0e0e0" stroke-miterlimit="10" stroke-width="2"/><polygon points="572.25 363.69 644.94 363.69 590.8 393.94 511.73 393.94 572.25 363.69" fill="#f5f5f5" stroke="#e0e0e0" stroke-miterlimit="10" stroke-width="2"/><polygon points="623.74 337.96 691.01 337.96 644.94 363.69 572.25 363.69 623.74 337.96" fill="#eee" stroke="#e0e0e0" stroke-miterlimit="10" stroke-width="2"/><polygon points="668.08 315.79 730.69 315.79 691.01 337.96 623.74 337.96 668.08 315.79" fill="#fafafa" stroke="#e0e0e0" stroke-miterlimit="10" stroke-width="2"/><polygon points="706.67 296.5 765.22 296.5 730.69 315.79 668.08 315.79 706.67 296.5" fill="#f5f5f5" stroke="#e0e0e0" stroke-miterlimit="10" stroke-width="2"/><polygon points="740.56 279.56 795.54 279.56 765.22 296.5 706.67 296.5 740.56 279.56" fill="#fafafa" stroke="#e0e0e0" stroke-miterlimit="10" stroke-width="2"/><polygon points="770.56 264.57 822.38 264.57 795.54 279.56 740.56 279.56 770.56 264.57" fill="#fafafa" stroke="#e0e0e0" stroke-miterlimit="10" stroke-width="2"/><polygon points="797.3 251.2 846.31 251.2 822.38 264.57 770.56 264.57 797.3 251.2" fill="#fafafa" stroke="#e0e0e0" stroke-miterlimit="10" stroke-width="2"/><polygon points="821.28 239.21 867.76 239.21 846.31 251.2 797.3 251.2 821.28 239.21" fill="#fafafa" stroke="#e0e0e0" stroke-miterlimit="10" stroke-width="2"/><polygon points="842.91 228.4 887.12 228.4 867.76 239.21 821.28 239.21 842.91 228.4" fill="#fafafa" stroke="#e0e0e0" stroke-miterlimit="10" stroke-width="2"/><polygon points="862.53 218.59 904.67 218.59 887.12 228.4 842.91 228.4 862.53 218.59" fill="#fafafa" stroke="#e0e0e0" stroke-miterlimit="10" stroke-width="2"/><polygon points="880.39 209.67 920.65 209.67 904.67 218.59 862.53 218.59 880.39 209.67" fill="#fafafa" stroke="#e0e0e0" stroke-miterlimit="10" stroke-width="2"/><polygon points="896.73 201.5 935.27 201.5 920.65 209.67 880.39 209.67 896.73 201.5" fill="#f5f5f5" stroke="#e0e0e0" stroke-miterlimit="10" stroke-width="2"/><polygon points="432.66 393.94 511.73 393.94 439.59 430 352.93 430 432.66 393.94" fill="#fafafa" stroke="#e0e0e0" stroke-miterlimit="10" stroke-width="2"/><polygon points="499.55 363.69 572.25 363.69 511.73 393.94 432.66 393.94 499.55 363.69" fill="#fafafa" stroke="#e0e0e0" stroke-miterlimit="10" stroke-width="2"/><polygon points="556.46 337.96 623.74 337.96 572.25 363.69 499.55 363.69 556.46 337.96" fill="#fafafa" stroke="#e0e0e0" stroke-miterlimit="10" stroke-width="2"/><polygon points="605.47 315.79 668.08 315.79 623.74 337.96 556.46 337.96 605.47 315.79" fill="#f5f5f5" stroke="#e0e0e0" stroke-miterlimit="10" stroke-width="2"/><polygon points="648.12 296.5 706.67 296.5 668.08 315.79 605.47 315.79 648.12 296.5" fill="#fafafa" stroke="#e0e0e0" stroke-miterlimit="10" stroke-width="2"/><polygon points="685.58 279.56 740.56 279.56 706.67 296.5 648.12 296.5 685.58 279.56" fill="#f5f5f5" stroke="#e0e0e0" stroke-miterlimit="10" stroke-width="2"/><polygon points="718.73 264.57 770.56 264.57 740.56 279.56 685.58 279.56 718.73 264.57" fill="#fafafa" stroke="#e0e0e0" stroke-miterlimit="10" stroke-width="2"/><polygon points="748.29 251.2 797.3 251.2 770.56 264.57 718.73 264.57 748.29 251.2" fill="#f5f5f5" stroke="#e0e0e0" stroke-miterlimit="10" stroke-width="2"/><polygon points="774.79 239.21 821.28 239.21 797.3 251.2 748.29 251.2 774.79 239.21" fill="#eee" stroke="#e0e0e0" stroke-miterlimit="10" stroke-width="2"/><polygon points="798.71 228.4 842.91 228.4 821.28 239.21 774.79 239.21 798.71 228.4" fill="#fafafa" stroke="#e0e0e0" stroke-miterlimit="10" stroke-width="2"/><polygon points="820.38 218.59 862.53 218.59 842.91 228.4 798.71 228.4 820.38 218.59" fill="#f5f5f5" stroke="#e0e0e0" stroke-miterlimit="10" stroke-width="2"/><polygon points="840.13 209.67 880.39 209.67 862.53 218.59 820.38 218.59 840.13 209.67" fill="#fafafa" stroke="#e0e0e0" stroke-miterlimit="10" stroke-width="2"/><polygon points="858.18 201.5 896.73 201.5 880.39 209.67 840.13 209.67 858.18 201.5" fill="#f5f5f5" stroke="#e0e0e0" stroke-miterlimit="10" stroke-width="2"/><polygon points="353.59 393.94 432.66 393.94 352.93 430 266.27 430 353.59 393.94" fill="#f5f5f5" stroke="#e0e0e0" stroke-miterlimit="10" stroke-width="2"/><polygon points="426.85 363.69 499.55 363.69 432.66 393.94 353.59 393.94 426.85 363.69" fill="#fafafa" stroke="#e0e0e0" stroke-miterlimit="10" stroke-width="2"/><polygon points="489.18 337.96 556.46 337.96 499.55 363.69 426.85 363.69 489.18 337.96" fill="#fafafa" stroke="#e0e0e0" stroke-miterlimit="10" stroke-width="2"/><polygon points="542.86 315.79 605.47 315.79 556.46 337.96 489.18 337.96 542.86 315.79" fill="#fafafa" stroke="#e0e0e0" stroke-miterlimit="10" stroke-width="2"/><polygon points="589.57 296.5 648.12 296.5 605.47 315.79 542.86 315.79 589.57 296.5" fill="#f5f5f5" stroke="#e0e0e0" stroke-miterlimit="10" stroke-width="2"/><polygon points="630.6 279.56 685.58 279.56 648.12 296.5 589.57 296.5 630.6 279.56" fill="#eee" stroke="#e0e0e0" stroke-miterlimit="10" stroke-width="2"/><polygon points="666.91 264.57 718.73 264.57 685.58 279.56 630.6 279.56 666.91 264.57" fill="#fafafa" stroke="#e0e0e0" stroke-miterlimit="10" stroke-width="2"/><polygon points="699.28 251.2 748.29 251.2 718.73 264.57 666.91 264.57 699.28 251.2" fill="#fafafa" stroke="#e0e0e0" stroke-miterlimit="10" stroke-width="2"/><polygon points="728.31 239.21 774.79 239.21 748.29 251.2 699.28 251.2 728.31 239.21" fill="#eee" stroke="#e0e0e0" stroke-miterlimit="10" stroke-width="2"/><polygon points="754.5 228.4 798.71 228.4 774.79 239.21 728.31 239.21 754.5 228.4" fill="#fafafa" stroke="#e0e0e0" stroke-miterlimit="10" stroke-width="2"/><polygon points="778.24 218.59 820.38 218.59 798.71 228.4 754.5 228.4 778.24 218.59" fill="#eee" stroke="#e0e0e0" stroke-miterlimit="10" stroke-width="2"/><polygon points="799.86 209.67 840.13 209.67 820.38 218.59 778.24 218.59 799.86 209.67" fill="#fafafa" stroke="#e0e0e0" stroke-miterlimit="10" stroke-width="2"/><polygon points="819.64 201.5 858.18 201.5 840.13 209.67 799.86 209.67 819.64 201.5" fill="#fafafa" stroke="#e0e0e0" stroke-miterlimit="10" stroke-width="2"/><polygon points="274.52 393.94 353.59 393.94 266.27 430 179.61 430 274.52 393.94" fill="#fafafa" stroke="#e0e0e0" stroke-miterlimit="10" stroke-width="2"/><polygon points="354.14 363.69 426.85 363.69 353.59 393.94 274.52 393.94 354.14 363.69" fill="#fafafa" stroke="#e0e0e0" stroke-miterlimit="10" stroke-width="2"/><polygon points="421.9 337.96 489.18 337.96 426.85 363.69 354.14 363.69 421.9 337.96" fill="#f5f5f5" stroke="#e0e0e0" stroke-miterlimit="10" stroke-width="2"/><polygon points="480.25 315.79 542.86 315.79 489.18 337.96 421.9 337.96 480.25 315.79" fill="#eee" stroke="#e0e0e0" stroke-miterlimit="10" stroke-width="2"/><polygon points="531.02 296.5 589.57 296.5 542.86 315.79 480.25 315.79 531.02 296.5" fill="#fafafa" stroke="#e0e0e0" stroke-miterlimit="10" stroke-width="2"/><polygon points="575.61 279.56 630.6 279.56 589.57 296.5 531.02 296.5 575.61 279.56" fill="#fafafa" stroke="#e0e0e0" stroke-miterlimit="10" stroke-width="2"/><polygon points="615.08 264.57 666.91 264.57 630.6 279.56 575.61 279.56 615.08 264.57" fill="#f5f5f5" stroke="#e0e0e0" stroke-miterlimit="10" stroke-width="2"/><polygon points="650.27 251.2 699.28 251.2 666.91 264.57 615.08 264.57 650.27 251.2" fill="#fafafa" stroke="#e0e0e0" stroke-miterlimit="10" stroke-width="2"/><polygon points="681.82 239.21 728.31 239.21 699.28 251.2 650.27 251.2 681.82 239.21" fill="#fafafa" stroke="#e0e0e0" stroke-miterlimit="10" stroke-width="2"/><polygon points="710.29 228.4 754.5 228.4 728.31 239.21 681.82 239.21 710.29 228.4" fill="#fafafa" stroke="#e0e0e0" stroke-miterlimit="10" stroke-width="2"/><polygon points="736.1 218.59 778.24 218.59 754.5 228.4 710.29 228.4 736.1 218.59" fill="#fafafa" stroke="#e0e0e0" stroke-miterlimit="10" stroke-width="2"/><polygon points="759.6 209.67 799.86 209.67 778.24 218.59 736.1 218.59 759.6 209.67" fill="#eee" stroke="#e0e0e0" stroke-miterlimit="10" stroke-width="2"/><polygon points="781.1 201.5 819.64 201.5 799.86 209.67 759.6 209.67 781.1 201.5" fill="#f5f5f5" stroke="#e0e0e0" stroke-miterlimit="10" stroke-width="2"/><polygon points="195.45 393.94 274.52 393.94 179.61 430 92.94 430 195.45 393.94" fill="#fafafa" stroke="#e0e0e0" stroke-miterlimit="10" stroke-width="2"/><polygon points="281.45 363.69 354.14 363.69 274.52 393.94 195.45 393.94 281.45 363.69" fill="#f5f5f5" stroke="#e0e0e0" stroke-miterlimit="10" stroke-width="2"/><polygon points="354.62 337.96 421.9 337.96 354.14 363.69 281.45 363.69 354.62 337.96" fill="#fafafa" stroke="#e0e0e0" stroke-miterlimit="10" stroke-width="2"/><polygon points="417.63 315.79 480.25 315.79 421.9 337.96 354.62 337.96 417.63 315.79" fill="#fafafa" stroke="#e0e0e0" stroke-miterlimit="10" stroke-width="2"/><polygon points="472.47 296.5 531.02 296.5 480.25 315.79 417.63 315.79 472.47 296.5" fill="#fafafa" stroke="#e0e0e0" stroke-miterlimit="10" stroke-width="2"/><polygon points="520.63 279.56 575.61 279.56 531.02 296.5 472.47 296.5 520.63 279.56" fill="#f5f5f5" stroke="#e0e0e0" stroke-miterlimit="10" stroke-width="2"/><polygon points="563.26 264.57 615.08 264.57 575.61 279.56 520.63 279.56 563.26 264.57" fill="#eee" stroke="#e0e0e0" stroke-miterlimit="10" stroke-width="2"/><polygon points="601.25 251.2 650.27 251.2 615.08 264.57 563.26 264.57 601.25 251.2" fill="#f5f5f5" stroke="#e0e0e0" stroke-miterlimit="10" stroke-width="2"/><polygon points="635.34 239.21 681.82 239.21 650.27 251.2 601.25 251.2 635.34 239.21" fill="#eee" stroke="#e0e0e0" stroke-miterlimit="10" stroke-width="2"/><polygon points="666.08 228.4 710.29 228.4 681.82 239.21 635.34 239.21 666.08 228.4" fill="#fafafa" stroke="#e0e0e0" stroke-miterlimit="10" stroke-width="2"/><polygon points="693.95 218.59 736.1 218.59 710.29 228.4 666.08 228.4 693.95 218.59" fill="#f5f5f5" stroke="#e0e0e0" stroke-miterlimit="10" stroke-width="2"/><polygon points="719.34 209.67 759.6 209.67 736.1 218.59 693.95 218.59 719.34 209.67" fill="#fafafa" stroke="#e0e0e0" stroke-miterlimit="10" stroke-width="2"/><polygon points="742.55 201.5 781.1 201.5 759.6 209.67 719.34 209.67 742.55 201.5" fill="#fafafa" stroke="#e0e0e0" stroke-miterlimit="10" stroke-width="2"/><polygon points="116.38 393.94 195.45 393.94 92.94 430 6.28 430 116.38 393.94" fill="#f5f5f5" stroke="#e0e0e0" stroke-miterlimit="10" stroke-width="2"/><polygon points="208.75 363.69 281.45 363.69 195.45 393.94 116.38 393.94 208.75 363.69" fill="#fafafa" stroke="#e0e0e0" stroke-miterlimit="10" stroke-width="2"/><polygon points="287.34 337.96 354.62 337.96 281.45 363.69 208.75 363.69 287.34 337.96" fill="#fafafa" stroke="#e0e0e0" stroke-miterlimit="10" stroke-width="2"/><polygon points="355.02 315.79 417.63 315.79 354.62 337.96 287.34 337.96 355.02 315.79" fill="#f5f5f5" stroke="#e0e0e0" stroke-miterlimit="10" stroke-width="2"/><polygon points="413.93 296.5 472.47 296.5 417.63 315.79 355.02 315.79 413.93 296.5" fill="#fafafa" stroke="#e0e0e0" stroke-miterlimit="10" stroke-width="2"/><polygon points="465.65 279.56 520.63 279.56 472.47 296.5 413.93 296.5 465.65 279.56" fill="#fafafa" stroke="#e0e0e0" stroke-miterlimit="10" stroke-width="2"/><polygon points="511.43 264.57 563.26 264.57 520.63 279.56 465.65 279.56 511.43 264.57" fill="#fafafa" stroke="#e0e0e0" stroke-miterlimit="10" stroke-width="2"/><polygon points="552.25 251.2 601.25 251.2 563.26 264.57 511.43 264.57 552.25 251.2" fill="#fafafa" stroke="#e0e0e0" stroke-miterlimit="10" stroke-width="2"/><polygon points="588.85 239.21 635.34 239.21 601.25 251.2 552.25 251.2 588.85 239.21" fill="#fafafa" stroke="#e0e0e0" stroke-miterlimit="10" stroke-width="2"/><polygon points="621.87 228.4 666.08 228.4 635.34 239.21 588.85 239.21 621.87 228.4" fill="#fafafa" stroke="#e0e0e0" stroke-miterlimit="10" stroke-width="2"/><polygon points="651.81 218.59 693.95 218.59 666.08 228.4 621.87 228.4 651.81 218.59" fill="#fafafa" stroke="#e0e0e0" stroke-miterlimit="10" stroke-width="2"/><polygon points="679.07 209.67 719.34 209.67 693.95 218.59 651.81 218.59 679.07 209.67" fill="#fafafa" stroke="#e0e0e0" stroke-miterlimit="10" stroke-width="2"/><polygon points="704.01 201.5 742.55 201.5 719.34 209.67 679.07 209.67 704.01 201.5" fill="#f5f5f5" stroke="#e0e0e0" stroke-miterlimit="10" stroke-width="2"/></g></g></svg>