<?xml version="1.0" encoding="UTF-8"?>
<svg width="72px" height="42px" viewBox="0 0 72 42" version="1.1" xmlns="http://www.w3.org/2000/svg" xmlns:xlink="http://www.w3.org/1999/xlink">
    <!-- Generator: Sketch 47.1 (45422) - http://www.bohemiancoding.com/sketch -->
    <title>Group 2</title>
    <desc>Created with Sketch.</desc>
    <defs></defs>
    <g id="Page-1" stroke="none" stroke-width="1" fill="none" fill-rule="evenodd">
        <g id="sv.co/fb" transform="translate(-755.000000, -1275.000000)">
            <g id="Group-2" transform="translate(756.000000, 1276.000000)">
                <rect id="Rectangle-6" stroke-opacity="0.5" stroke="#FFFFFF" fill-opacity="0.400000006" fill="#0AA5E3" x="0" y="0" width="70" height="40" rx="20"></rect>
                <path d="M44.2751403,23.914567 C42.4362322,23.9231989 40.939577,22.4011133 40.931161,20.5150507 C40.9227449,18.6289881 42.406776,17.0925161 44.2456841,17.0853228 C46.0845921,17.076691 47.58265,18.5987766 47.5896634,20.4848392 L47.5896634,20.4992256 C47.5896634,22.3795336 46.1084376,23.9059351 44.2751403,23.914567 M26.7248597,23.914567 C24.8859517,23.9231989 23.3892965,22.4011133 23.3808804,20.5150507 C23.3724644,18.6289881 24.8564955,17.0925161 26.6954035,17.0853228 C28.5343116,17.076691 30.0323694,18.5987766 30.0407855,20.4848392 L30.0407855,20.4992256 C30.0407855,22.3795336 28.5581571,23.9059351 26.7248597,23.914567 M52.1623867,10 L18.8376133,10 C17.272227,10.0028773 16.0028054,11.3034117 16,12.9089386 L16,28.0895126 C16.0028054,29.6950395 17.272227,30.9970125 18.8376133,30.9998898 L31.839016,30.9998898 C32.1854769,31.0027671 32.505287,30.8114274 32.6722054,30.4992416 L34.6233276,26.4393876 C34.846353,25.9675123 35.3990073,25.7704181 35.8604877,25.9991625 C36.0470436,26.0912357 36.1985326,26.2466093 36.2897065,26.4393876 L38.1468494,30.4402572 C38.3011437,30.7855318 38.6391886,31.0056444 39.009495,30.9998898 L52.1722054,30.9998898 C53.7347864,30.991258 54.9971946,29.6921622 55,28.0895126 L55,12.9089386 C54.9971946,11.3034117 53.7291757,10.0028773 52.1623867,10" id="Fill-2" fill="#FFFFFF"></path>
            </g>
        </g>
    </g>
</svg>