<svg id="Layer_1" data-name="Layer 1" xmlns="http://www.w3.org/2000/svg" viewBox="0 0 100 70"><defs><style>.cls-1{fill:#31b475;}</style></defs><title>co-founders</title><path class="cls-1" d="M65.7,45.16l-.1,0-6.72-1c-1.09-.7-1.19-2.45-1.19-4.33a12.42,12.42,0,0,0,3.44-8.67v-.28a7.66,7.66,0,0,0,2.58-5.75V19.94a7.7,7.7,0,0,0-7.7-7.7H44.83a3.4,3.4,0,0,0-3.3,2.63,6,6,0,0,0-5.25,5.93V25.1a7.66,7.66,0,0,0,2.58,5.75v.28A12.42,12.42,0,0,0,42.3,39.8c0,1.89-.1,3.63-1.19,4.33l-6.72,1-.1,0a6.49,6.49,0,0,0-3.64,2.65,7.34,7.34,0,0,0-1.28,4.09v3.34a2.66,2.66,0,0,0,2.77,2.52H67.85a2.65,2.65,0,0,0,2.77-2.52V51.9a7.34,7.34,0,0,0-1.28-4.09,6.49,6.49,0,0,0-3.63-2.65Zm-15.7-2a10.52,10.52,0,0,0,6.11-2,5.48,5.48,0,0,0,1.58,4.09C57,48.55,53.82,51,50,51s-7-2.44-7.69-5.73a5.48,5.48,0,0,0,1.58-4.09,10.52,10.52,0,0,0,6.11,2ZM40.47,30.56a.87.87,0,0,0,0-.15V26a2.64,2.64,0,0,1,2.64-2.64H57.75a.81.81,0,0,0,0-1.61H43.11A4.26,4.26,0,0,0,38.86,26V28.4a6.05,6.05,0,0,1-1-3.29V20.8a4.36,4.36,0,0,1,4.36-4.36.81.81,0,0,0,.81-.81,1.78,1.78,0,0,1,1.78-1.78H56a6.09,6.09,0,0,1,6.08,6.08V25.1a6.05,6.05,0,0,1-1,3.29V25.1a.81.81,0,0,0-1.61,0v6c0,5.73-4.27,10.39-9.53,10.39s-9.52-4.66-9.52-10.39ZM69,55.24a1.07,1.07,0,0,1-1.15.91H32.15A1.07,1.07,0,0,1,31,55.24V51.9a5.4,5.4,0,0,1,3.69-5.18l6.09-.91A9.24,9.24,0,0,0,50,52.6a9.24,9.24,0,0,0,9.22-6.79l6.09.91A5.4,5.4,0,0,1,69,51.9Zm0,0"/><path class="cls-1" d="M27.61,48.4h-3c-.26,0-.46-.16-.46-.3V45.94a3.21,3.21,0,0,1,2.16-3.07l4.39-.66h.08l.09,0h0l.07,0h0a3.16,3.16,0,0,0,1.43-2.56,7,7,0,0,0,6.76.26.81.81,0,0,0-.72-1.45,5.41,5.41,0,0,1-2.43.57,6.18,6.18,0,0,1-5.88-6.43V29.05a1.42,1.42,0,0,1,1.42-1.42h2.08a.81.81,0,1,0,0-1.61H31.56a3,3,0,0,0-3,3v.42a3.65,3.65,0,0,1-.11-.88V25.81A2.54,2.54,0,0,1,31,23.28a.81.81,0,0,0,.81-.81.87.87,0,0,1,.86-.86h1a.81.81,0,1,0,0-1.61h-1a2.48,2.48,0,0,0-2.36,1.73,4.16,4.16,0,0,0-3.46,4.09V28.6a5.24,5.24,0,0,0,1.72,3.89h0a8.32,8.32,0,0,0,2.33,5.82c0,1-.09,1.95-.59,2.32L26,41.29l-.1,0a4.84,4.84,0,0,0-3.39,4.64V48.1A2,2,0,0,0,24.57,50h3a.81.81,0,0,0,0-1.61Zm0,0"/><path class="cls-1" d="M74.11,41.31l-.1,0-4.28-.64c-.51-.38-.59-1.3-.59-2.32a8.32,8.32,0,0,0,2.33-5.82h0a5.24,5.24,0,0,0,1.72-3.89V24.24A4.26,4.26,0,0,0,68.94,20H66.36a.81.81,0,0,0,0,1.61h2.58a2.64,2.64,0,0,1,2.64,2.64V28.6a3.68,3.68,0,0,1-.11.88v-.42a3,3,0,0,0-3-3H66.36a.81.81,0,0,0,0,1.61h2.08a1.42,1.42,0,0,1,1.42,1.42V32.5A6.18,6.18,0,0,1,64,38.93a5.4,5.4,0,0,1-2.43-.57.81.81,0,0,0-.72,1.45,7,7,0,0,0,6.76-.26A3.16,3.16,0,0,0,69,42.1h0l.07,0h0l.09,0h.08l4.39.66a3.21,3.21,0,0,1,2.16,3.07V48.1c0,.14-.2.3-.46.3h-3a.81.81,0,0,0,0,1.61h3A2,2,0,0,0,77.5,48.1V45.94a4.84,4.84,0,0,0-3.39-4.64Zm0,0"/></svg>