<svg id="Layer_1" data-name="Layer 1" xmlns="http://www.w3.org/2000/svg" viewBox="0 0 100 70"><defs><style>.cls-1{fill:#31b475;}</style></defs><title>interview</title><path class="cls-1" d="M36.26,31.56a5.15,5.15,0,1,0-5.15-5.16,5.16,5.16,0,0,0,5.15,5.16Zm0-8.59a3.44,3.44,0,1,1-3.44,3.43A3.44,3.44,0,0,1,36.26,23Zm0,0"/><path class="cls-1" d="M63.74,31.56a5.15,5.15,0,1,0-5.15-5.16,5.16,5.16,0,0,0,5.15,5.16Zm0-8.59a3.44,3.44,0,1,1-3.43,3.43A3.44,3.44,0,0,1,63.74,23Zm0,0"/><path class="cls-1" d="M72.33,33.28V44.45A2.58,2.58,0,0,1,69.76,47V37.58a4.3,4.3,0,0,0-4.29-4.29H61.17a.86.86,0,0,0-.86.86v5.15H53.44a.86.86,0,0,0-.86.86v2.58H47.42V40.15a.86.86,0,0,0-.86-.86H39.69V34.14a.86.86,0,0,0-.86-.86H34.54a4.3,4.3,0,0,0-4.29,4.29V47a2.58,2.58,0,0,1-2.57-2.58V33.28H25.95V44.45a4.29,4.29,0,0,0,2.57,3.93V59.05h1.72V48.74h8.59v9.45a.86.86,0,0,0,.86.86H44V44.45H56v14.6h4.29a.86.86,0,0,0,.86-.86V48.74h8.59V59.05h1.71V48.38a4.29,4.29,0,0,0,2.58-3.93V33.28Zm-29.2,9.45H36.26V37.58H34.54v6a.86.86,0,0,0,.86.86h6a.86.86,0,0,1,.86.86v12H40.55V47.88a.86.86,0,0,0-.86-.85H32V37.58A2.58,2.58,0,0,1,34.54,35H38v5.15a.86.86,0,0,0,.86.86H45.7v1.72ZM60.31,47a.86.86,0,0,0-.86.85v9.45H57.73v-12a.86.86,0,0,1,.85-.86h6a.86.86,0,0,0,.86-.86v-6H63.74v5.15H54.29V41h6.88a.86.86,0,0,0,.86-.86V35h3.43A2.58,2.58,0,0,1,68,37.58V47Zm0,0"/><path class="cls-1" d="M42.27,19.54v2.57a.86.86,0,0,0,1.55.52l2.32-3.09h6.44A2.58,2.58,0,0,0,55.15,17V13.52a2.58,2.58,0,0,0-2.57-2.57H42.27a2.58,2.58,0,0,0-2.57,2.57V17a2.58,2.58,0,0,0,2.57,2.57Zm-.86-6a.86.86,0,0,1,.86-.85H52.58a.86.86,0,0,1,.86.85V17a.86.86,0,0,1-.86.85H45.7a.86.86,0,0,0-.68.34l-1,1.38v-.86a.86.86,0,0,0-.86-.86h-.86a.86.86,0,0,1-.86-.85Zm0,0"/><rect class="cls-1" x="43.13" y="14.38" width="8.59" height="1.72"/><rect class="cls-1" x="49.14" y="32.42" width="5.15" height="1.72"/><path class="cls-1" d="M48.28,29a2.58,2.58,0,0,0-2.58,2.57V35a2.58,2.58,0,0,0,2.58,2.58h6.87A2.58,2.58,0,0,0,57.73,35V34.4L59.3,32a.86.86,0,0,0-.72-1.34h-1A2.59,2.59,0,0,0,55.15,29ZM56,31.56a.86.86,0,0,0,.86.86H57l-.83,1.24a.88.88,0,0,0-.14.48V35a.86.86,0,0,1-.86.86H48.28a.86.86,0,0,1-.86-.86V31.56a.86.86,0,0,1,.86-.86h6.87a.86.86,0,0,1,.86.86Zm0,0"/><rect class="cls-1" x="45.7" y="24.69" width="1.72" height="1.72"/><rect class="cls-1" x="49.14" y="24.69" width="1.72" height="1.72"/><rect class="cls-1" x="52.58" y="24.69" width="1.72" height="1.72"/></svg>