<svg id="Layer_1" data-name="Layer 1" xmlns="http://www.w3.org/2000/svg" viewBox="0 0 220 100"><defs><style>.cls-1{fill:#eff5f8;}.cls-2{fill:#cdebfc;}.cls-10,.cls-23,.cls-28,.cls-3{fill:#a2dff2;}.cls-10,.cls-12,.cls-14,.cls-20,.cls-21,.cls-23,.cls-24,.cls-26,.cls-27,.cls-28,.cls-3,.cls-30,.cls-4,.cls-6,.cls-8{stroke:#3273ad;}.cls-10,.cls-12,.cls-14,.cls-20,.cls-21,.cls-23,.cls-24,.cls-27,.cls-28,.cls-3,.cls-30,.cls-4,.cls-8{stroke-miterlimit:10;}.cls-3{stroke-width:0.21px;stroke-dasharray:2 1;}.cls-12,.cls-22,.cls-4{fill:#caedff;}.cls-4,.cls-6{stroke-width:0.29px;}.cls-14,.cls-20,.cls-27,.cls-5{fill:#fff;}.cls-24,.cls-6{fill:#e5e5e5;}.cls-26,.cls-29,.cls-6{stroke-linecap:round;stroke-linejoin:round;}.cls-21,.cls-30,.cls-7,.cls-8{fill:#fad264;}.cls-10,.cls-8{stroke-width:0.29px;}.cls-9{fill:#b77917;}.cls-11{fill:#3273ad;}.cls-12{stroke-width:0.1px;}.cls-13{fill:#92cfe8;}.cls-14{stroke-width:0.09px;}.cls-15{fill:#96d778;}.cls-16{fill:#ff877d;}.cls-17{fill:#32b475;}.cls-18{fill:#e25b54;}.cls-19{fill:#ddb450;}.cls-20,.cls-21,.cls-23,.cls-24,.cls-26{stroke-width:0.25px;}.cls-25{fill:#fdfbf8;}.cls-26,.cls-29{fill:none;}.cls-27,.cls-28,.cls-30{stroke-width:0.3px;}.cls-29{stroke:#14789b;stroke-width:0.45px;}</style></defs><title>program-feature-learnig-levels</title><path class="cls-1" d="M122.3,61.25h27.31a2.05,2.05,0,1,0,0-4.1h-7a2.05,2.05,0,1,1,0-4.1H147a2.05,2.05,0,1,0,0-4.1H129.31a2.05,2.05,0,1,0,0,4.1h3a2.05,2.05,0,1,1,0,4.1h-10a2.05,2.05,0,1,0,0,4.1Z"/><path class="cls-1" d="M170.11,82H146.5a2.07,2.07,0,0,0,0,4.15h3.08a2.07,2.07,0,0,1,0,4.15h-6.73a2.07,2.07,0,0,0,0,4.15h23.61a2.07,2.07,0,0,0,0-4.15H160a2.07,2.07,0,0,1,0-4.15h10.09a2.07,2.07,0,0,0,0-4.15Z"/><path class="cls-1" d="M22,83.74h27.2a2,2,0,0,0,0-4.09h-7a2,2,0,1,1,0-4.09H46.6a2,2,0,1,0,0-4.09H29a2,2,0,0,0,0,4.09h3a2,2,0,0,1,0,4.09H22a2,2,0,1,0,0,4.09Z"/><path class="cls-1" d="M49.34,38.7h19a1.43,1.43,0,0,0,0-2.86H63.5a1.43,1.43,0,1,1,0-2.86h3.06a1.43,1.43,0,0,0,0-2.86H54.23a1.43,1.43,0,1,0,0,2.86H56.3a1.43,1.43,0,0,1,0,2.86h-7a1.43,1.43,0,1,0,0,2.86Z"/><path class="cls-2" d="M18.9,31.14h3.84a.31.31,0,0,0,.31-.33,2.83,2.83,0,0,1,.76-2.16,5.26,5.26,0,0,1,3.31-1.2.35.35,0,0,0,.24-.11.31.31,0,0,0,.07-.25,6.51,6.51,0,0,1,1.35-4.47A5.15,5.15,0,0,1,32.86,21a4.76,4.76,0,0,1,3.57,1.36,6.63,6.63,0,0,1,1.49,4.33A.31.31,0,0,0,38,27a.32.32,0,0,0,.29,0A4.4,4.4,0,0,1,42,27.2a6.11,6.11,0,0,1,2.41,3.69.31.31,0,0,0,.31.25h7.56a.31.31,0,0,0,0-.63H45a6.45,6.45,0,0,0-2.65-3.86,4.82,4.82,0,0,0-3.82-.35A6.91,6.91,0,0,0,36.89,22a5.36,5.36,0,0,0-4-1.56,5.77,5.77,0,0,0-4.54,1.82,7.1,7.1,0,0,0-1.53,4.63,5.49,5.49,0,0,0-3.43,1.38,3.35,3.35,0,0,0-.93,2.29H18.9a.31.31,0,0,0,0,.63Z"/><path class="cls-2" d="M169.45,36.12h0l6.6-.3a.77.77,0,0,0,.49-.07.79.79,0,0,0,.24-.57s0-.08,0-.11a5.75,5.75,0,0,1,.23-.66,4.34,4.34,0,0,1,.59-1,3.68,3.68,0,0,1,1.55-1.15,4.55,4.55,0,0,1,1.49-.3,4.93,4.93,0,0,1,.55,0,.83.83,0,0,0,.45,0c.23-.08.32-.34.47-1,0-.1,0-.18.06-.22a11.87,11.87,0,0,1,.64-1.51,7.85,7.85,0,0,1,1.51-2.08,5.79,5.79,0,0,1,3.44-1.6,7.64,7.64,0,0,1,7,3.35A8.33,8.33,0,0,1,196,34.11a.31.31,0,0,0,.63.06,9,9,0,0,0-1.33-5.56A8.18,8.18,0,0,0,187.7,25a6.42,6.42,0,0,0-3.8,1.77A8.47,8.47,0,0,0,182.27,29a12.44,12.44,0,0,0-.67,1.59c0,.05,0,.16-.07.28s-.09.35-.14.49l-.12,0a5.92,5.92,0,0,0-.62,0,5.2,5.2,0,0,0-1.7.34A4.31,4.31,0,0,0,177.13,33a5,5,0,0,0-.68,1.17,6.41,6.41,0,0,0-.25.73s0,.1,0,.18l0,.11H176l-6.61.3a.31.31,0,0,0,0,.63Z"/><path class="cls-2" d="M90,19.75h3.84a.31.31,0,0,0,.31-.33,2.83,2.83,0,0,1,.76-2.16,5.26,5.26,0,0,1,3.31-1.2.35.35,0,0,0,.24-.11.31.31,0,0,0,.07-.25,6.51,6.51,0,0,1,1.35-4.47A5.15,5.15,0,0,1,104,9.63,4.76,4.76,0,0,1,107.55,11,6.63,6.63,0,0,1,109,15.32a.31.31,0,0,0,.12.26.32.32,0,0,0,.29,0,4.4,4.4,0,0,1,3.71.17,6.11,6.11,0,0,1,2.41,3.69.31.31,0,0,0,.31.25h7.56a.31.31,0,1,0,0-.63h-7.31a6.45,6.45,0,0,0-2.65-3.86,4.82,4.82,0,0,0-3.82-.35A6.91,6.91,0,0,0,108,10.56,5.36,5.36,0,0,0,104,9a5.77,5.77,0,0,0-4.54,1.82,7.1,7.1,0,0,0-1.53,4.63,5.49,5.49,0,0,0-3.43,1.38,3.35,3.35,0,0,0-.93,2.29H90a.31.31,0,0,0,0,.63Z"/><path class="cls-3" d="M73.06,71.06a64.64,64.64,0,0,1-23-4.32A73,73,0,0,1,25.57,51.39l2.87-2.79A70.36,70.36,0,0,0,51.61,63.06c18.91,7.16,37.86,4.89,56.33-6.75,25.28-15.94,49.79-16.92,72.85-2.92l-2.08,3.42C157.05,43.66,134,44.63,110.07,59.69,96.61,68.17,84,71.06,73.06,71.06Z"/><polygon class="cls-4" points="29.58 65.53 23.97 65.53 22.95 65.53 22.95 64.5 22.95 45.43 22.95 44.41 23.97 44.41 29.58 44.41 29.58 46.45 25 46.45 25 63.48 29.58 63.48 29.58 65.53"/><rect class="cls-5" x="24.23" y="45.4" width="6.39" height="18.99"/><polygon class="cls-6" points="29.58 66.75 38 65.06 38 45.43 29.58 43.18 29.58 66.75"/><path class="cls-7" d="M31.54,56.26a.42.42,0,0,1,0-.84H33a.42.42,0,0,1,0,.84Z"/><path class="cls-4" d="M16.77,53.4c-.92.18-2.12-.75-2.73-2.12s-.4-2.67.62-2.76a3.5,3.5,0,0,1,2.92,2.28C18.09,52.09,17.71,53.24,16.77,53.4Z"/><path class="cls-4" d="M16.05,56.72c-.14-.64-.53-.71-.53-.71s-1.52-.45-1.93-.6a1.25,1.25,0,0,0-.88.09l-2.53,1.6A.48.48,0,0,1,9.54,57h0a.48.48,0,0,1,.07-.65l2.18-2a1.86,1.86,0,0,1,1.1-.38l2.88,0h.91l3.88-.67h0s1.78-.46,2.68-.75l.18,0h0l.07,0a2.8,2.8,0,0,1,.63,0,.42.42,0,0,1,.37.22c.12.3-.55.65-.55.65h0l-2.37,1.34a2.66,2.66,0,0,1-.64.25l-2,.65a.53.53,0,0,0-.22.2.61.61,0,0,0,0,.48l0,.11h0l.46,1.41c.33.74.88.72.88.72l1.63.06a1.78,1.78,0,0,1,1.18.62l1.47,1.93c.1.12.49.57.89.34s2.11-1.21,1.52-.16c-.08.09-1.18,1.17-1.33,1.3l0,0-.24.26a.67.67,0,0,1-.52.27.89.89,0,0,1-.33-.14L22,61.43a1.18,1.18,0,0,0-1.53,0s-4.56,3.66-5.14,4.25a.65.65,0,0,1-1,.07S12.48,64.17,12,63.86s-.61.09-.61.09l-.57,1.33c-.2.34-.26-.64-.26-.64l-.13-2.48c0-.78.46-.39.46-.39s3,1.33,3.37,1.42a.58.58,0,0,0,.5-.06l0,0s1.28-1.46,1.62-1.88a1,1,0,0,0,.29-.77Z"/><path class="cls-8" d="M68.66,75a2,2,0,0,0,.6-1.43l-.19-1.52a8.52,8.52,0,1,0-7.75,0l-.19,1.52a2,2,0,0,0,2,2h4.09"/><path class="cls-9" d="M64.15,74.89h0a.21.21,0,0,1-.19-.23,14.23,14.23,0,0,0-.27-5.2A1.86,1.86,0,0,1,62,69.25a1.52,1.52,0,0,1-.6-1.14,1.29,1.29,0,0,1,.39-1,.83.83,0,0,1,.43-.22c.23,0,.59,0,1,.57a6.56,6.56,0,0,1,.75,1.46l.07,0a2.17,2.17,0,0,0,.45-.43A1.57,1.57,0,0,1,64.16,67a1,1,0,0,1,.62-.62.53.53,0,0,1,.51.12.8.8,0,0,1,.15.84A3.94,3.94,0,0,1,65,68.36a1.33,1.33,0,0,0,1,.35,1.44,1.44,0,0,0,.83-.38,1.88,1.88,0,0,1-.37-1.41,1.05,1.05,0,0,1,.56-.77.54.54,0,0,1,.53,0,.77.77,0,0,1,.3.6,2.19,2.19,0,0,1-.45,1.54h0a1.53,1.53,0,0,0,1.39.42.21.21,0,0,1,.1.41,2,2,0,0,1-1.77-.52h0a1.86,1.86,0,0,1-1.08.48,1.75,1.75,0,0,1-1.25-.43,2.55,2.55,0,0,1-.5.47l-.18.11a14.49,14.49,0,0,1,.3,5.41.21.21,0,0,1-.21.19m-1.82-7.63h0a.43.43,0,0,0-.21.12.86.86,0,0,0-.25.7,1.11,1.11,0,0,0,.43.82,1.45,1.45,0,0,0,1.29.15,6.14,6.14,0,0,0-.71-1.4c-.1-.15-.3-.39-.5-.39m2.61-.52h0a.55.55,0,0,0-.33.34,1.12,1.12,0,0,0,.14.93,3.62,3.62,0,0,0,.32-.83c.05-.21,0-.36,0-.42a.1.1,0,0,0-.07,0m2.28-.21h-.06a.65.65,0,0,0-.31.45,1.43,1.43,0,0,0,.24,1,1.78,1.78,0,0,0,.31-1.16.41.41,0,0,0-.11-.29l-.06,0"/><path class="cls-9" d="M67.29,69.29a8.89,8.89,0,0,0-.65,5.46c.05.27.46.15.41-.11a8.4,8.4,0,0,1,.61-5.13c.11-.25-.25-.46-.37-.21"/><path class="cls-10" d="M67.67,77.89H62.51a1.11,1.11,0,0,1-1.08-1.13h0a1.11,1.11,0,0,1,1.08-1.13h5.4A1.11,1.11,0,0,1,69,76.76h0a.75.75,0,0,1-.23.65"/><path class="cls-10" d="M68,80H62.39a.59.59,0,0,1-.59-.59v-1a.59.59,0,0,1,.59-.59H68a.59.59,0,0,1,.59.59v1A.59.59,0,0,1,68,80"/><path class="cls-11" d="M68.56,58.37a6.07,6.07,0,0,1,3,5.82c0,.27.4.27.42,0A6.49,6.49,0,0,0,68.77,58a.21.21,0,0,0-.21.37"/><path class="cls-11" d="M71.54,65.26a1.44,1.44,0,0,1-.17.95c-.13.24.23.45.37.21A1.91,1.91,0,0,0,72,65.14c0-.27-.45-.15-.41.11"/><path class="cls-11" d="M59.05,60.74A6.26,6.26,0,0,0,58,64c0,.27.41.27.42,0a5.82,5.82,0,0,1,1-3c.15-.23-.22-.44-.37-.21"/><path class="cls-11" d="M58.07,65a2,2,0,0,0,.28,1.49c.15.23.51,0,.37-.21a1.58,1.58,0,0,1-.24-1.16c0-.27-.36-.38-.41-.11"/><rect class="cls-12" x="93.38" y="47.67" width="20.29" height="24.56" rx="1.96" ry="1.96"/><rect class="cls-13" x="94.81" y="49.51" width="17.86" height="22.1" rx="1.96" ry="1.96"/><rect class="cls-14" x="94.6" y="49.1" width="18.26" height="22.1" rx="1.96" ry="1.96"/><rect class="cls-14" x="94.4" y="48.9" width="18.26" height="22.1" rx="1.96" ry="1.96"/><rect class="cls-7" x="102.61" y="46.1" width="2.08" height="2.5" rx="0.92" ry="0.92"/><path class="cls-11" d="M103.92,48.69h-.54a.87.87,0,0,1-.86-.86v-1a.87.87,0,0,1,.86-.86h.54a.87.87,0,0,1,.86.86v1A.87.87,0,0,1,103.92,48.69Zm-.54-2.5a.67.67,0,0,0-.67.67v1a.67.67,0,0,0,.67.67h.54a.67.67,0,0,0,.67-.67v-1a.67.67,0,0,0-.67-.67Z"/><rect class="cls-7" x="99.58" y="47.57" width="8.13" height="1.98"/><path class="cls-11" d="M107.71,49.65H99.58a.1.1,0,0,1-.1-.1v-2a.1.1,0,0,1,.1-.1h8.13a.1.1,0,0,1,.1.1v2A.1.1,0,0,1,107.71,49.65Zm-8-.19h7.94V47.66H99.68Z"/><path class="cls-15" d="M99.7,53.6c-.09-.05-.2,0-.26.1s-.26.29-.39.44l-.43.47a1.29,1.29,0,0,0-.24.29,4.69,4.69,0,0,0-.38-.37c-.1-.08-.28-.14-.27.05a1.21,1.21,0,0,0,.39.68.41.41,0,0,0,.26.15c.13,0,.25-.14.33-.23s.24-.3.36-.45l.47-.58c.1-.12.4-.42.16-.55Zm-1.82,1h0Zm0,0"/><path class="cls-15" d="M99.74,64c-.09-.05-.2,0-.26.1s-.26.29-.39.44l-.43.47a1.29,1.29,0,0,0-.24.29A4.69,4.69,0,0,0,98,64.9c-.1-.08-.28-.14-.27.05a1.21,1.21,0,0,0,.39.68.41.41,0,0,0,.26.15c.13,0,.25-.14.33-.23s.24-.3.36-.45l.47-.58c.1-.12.4-.42.16-.55Zm-1.82,1h0Zm0,0"/><path class="cls-16" d="M99.39,60c-.13-.15-.29-.26-.41-.4l0,0,.38-.43c.07-.07.15-.26,0-.33s-.27,0-.38.11a2.64,2.64,0,0,0-.31.29,4.33,4.33,0,0,0-.33-.35c-.09-.08-.31-.3-.44-.17s0,.29.07.38h0a2.93,2.93,0,0,1,.42.43c-.16.21-.31.44-.48.65a0,0,0,0,0,0,0,.16.16,0,0,0,0,.23c.11.12.26,0,.37,0a2.73,2.73,0,0,0,.46-.51,2.49,2.49,0,0,0,.35.32c.1.08.27.2.4.12s0-.22-.06-.29Zm-1-.83v0l0-.06h0l.09.11,0,0Zm.37,0,0,0,0,0,.06-.07Zm0,0"/><rect class="cls-17" x="100.94" y="53.15" width="3.7" height="0.58" rx="0.26" ry="0.26"/><rect class="cls-15" x="100.94" y="54.29" width="8.45" height="0.41"/><rect class="cls-15" x="100.94" y="55.1" width="8.45" height="0.41"/><rect class="cls-18" x="100.94" y="58.43" width="3.7" height="0.58" rx="0.26" ry="0.26"/><rect class="cls-16" x="100.94" y="59.57" width="8.45" height="0.41"/><rect class="cls-16" x="100.94" y="60.38" width="8.45" height="0.41"/><rect class="cls-17" x="100.94" y="63.7" width="3.7" height="0.58" rx="0.26" ry="0.26"/><rect class="cls-15" x="100.94" y="64.84" width="8.45" height="0.41"/><rect class="cls-15" x="100.94" y="65.65" width="8.45" height="0.41"/><rect class="cls-19" x="99.68" y="47.68" width="7.94" height="0.28"/><path class="cls-20" d="M154.64,52.82H133.39a1,1,0,0,1-1-1V36.19a1,1,0,0,1,1-1h21.26a1,1,0,0,1,1,1V51.77a1,1,0,0,1-1,1"/><polyline class="cls-21" points="152.64 48.18 150.68 46.26 153.39 45.87 154.6 43.41 155.81 45.87 158.53 46.26 156.56 48.18 157.03 50.88 154.6 49.6 153.35 50.26"/><path class="cls-22" d="M153.9,35.22H134.19a1.56,1.56,0,0,0-1.61,1.49v1H155.5v-1a1.56,1.56,0,0,0-1.61-1.49"/><path class="cls-7" d="M134.52,36.46a.38.38,0,1,1-.38-.38.38.38,0,0,1,.38.38"/><path class="cls-11" d="M134.14,37a.54.54,0,1,1,.54-.54.55.55,0,0,1-.54.54m0-.76a.22.22,0,1,0,.22.22.22.22,0,0,0-.22-.22"/><path class="cls-7" d="M136.3,36.46a.38.38,0,1,1-.38-.38.38.38,0,0,1,.38.38"/><path class="cls-11" d="M135.92,37a.54.54,0,1,1,.54-.54.55.55,0,0,1-.54.54m0-.76a.22.22,0,1,0,.22.22.22.22,0,0,0-.22-.22"/><path class="cls-7" d="M138.07,36.46a.38.38,0,1,1-.38-.38.38.38,0,0,1,.38.38"/><path class="cls-11" d="M137.69,37a.54.54,0,1,1,.54-.54.55.55,0,0,1-.54.54m0-.76a.22.22,0,1,0,.22.22.22.22,0,0,0-.22-.22"/><path class="cls-23" d="M137.66,42.13a2,2,0,1,1-2-2,2,2,0,0,1,2,2"/><path class="cls-23" d="M144,44.26a2.13,2.13,0,1,1,2.13-2.13A2.13,2.13,0,0,1,144,44.26"/><path class="cls-23" d="M154.35,42.13a2,2,0,1,1-2-2,2,2,0,0,1,2,2"/><path class="cls-11" d="M141.57,42.22h-.22a.16.16,0,1,1,0-.32h.22a.16.16,0,0,1,0,.32m-.77,0h-.22a.16.16,0,0,1,0-.32h.22a.16.16,0,0,1,0,.32m-.77,0h-.22a.16.16,0,0,1,0-.32H140a.16.16,0,0,1,0,.32m-.77,0H139a.16.16,0,0,1,0-.32h.22a.16.16,0,0,1,0,.32m-.77,0h-.22a.16.16,0,0,1,0-.32h.22a.16.16,0,0,1,0,.32"/><path class="cls-11" d="M149.91,42.2h-.22a.16.16,0,0,1,0-.32h.22a.16.16,0,0,1,0,.32m-.77,0h-.22a.16.16,0,0,1,0-.32h.22a.16.16,0,0,1,0,.32m-.77,0h-.22a.16.16,0,0,1,0-.32h.22a.16.16,0,0,1,0,.32m-.77,0h-.22a.16.16,0,0,1,0-.32h.22a.16.16,0,0,1,0,.32m-.77,0h-.22a.16.16,0,0,1,0-.32h.22a.16.16,0,0,1,0,.32"/><path class="cls-11" d="M149.83,46.24H138.21a.16.16,0,1,1,0-.32h11.62a.16.16,0,1,1,0,.32"/><path class="cls-11" d="M138.75,47.61a.16.16,0,0,1,0-.32l10,0h0a.16.16,0,0,1,0,.32l-10,0h0Z"/><path class="cls-24" d="M145.09,57.15h0a.9.9,0,0,1,0-1.27l9-9a.9.9,0,0,1,1.27,1.27l-9,9a.9.9,0,0,1-1.27,0"/><path class="cls-11" d="M153.12,50.55a.16.16,0,0,1-.11,0l-1.27-1.27A.16.16,0,0,1,152,49l1.27,1.27a.16.16,0,0,1-.11.28"/><polygon class="cls-21" points="158.75 44.87 157.87 44.57 157.13 45.12 157.14 44.2 156.39 43.67 157.27 43.39 157.55 42.51 158.08 43.26 159 43.25 158.45 43.99 158.75 44.87"/><path class="cls-25" d="M155.22,47a.79.79,0,0,0-1.1.11l-2,2,1,1,2-2a.79.79,0,0,0,.11-1.1"/><line class="cls-26" x1="133" y1="50.88" x2="146" y2="50.88"/><line class="cls-26" x1="147" y1="50.88" x2="149" y2="50.88"/><path class="cls-27" d="M196.26,69c-1.07,4.15-6.41.52-6.41.52s-9-5.27-11.85-10l4.62-8.26s.6,1.6,5.81,1.9"/><path class="cls-27" d="M195.29,61.58l5.34,3.35a2.36,2.36,0,0,0,2.36-.25,1.6,1.6,0,0,0-.32-2.61l-10.28-6.83c-1.42-.94-1.59-.45-2,0a8,8,0,0,1-3,2.53c-3.48.94-2.16-.89-2.16-.89,2.58-4.32,4.42-5.36,4.42-5.36a26.45,26.45,0,0,1,7,0c4,1.12,4.64,0,4.64,0l4.5,8.59-3.11,1.95"/><path class="cls-27" d="M194.26,64.46l4.06,2.33s2.33.3,2.31-1.86"/><path class="cls-27" d="M192.54,67.24c.15.15,3.73,1.79,3.73,1.79a1.9,1.9,0,0,0,2.06-2.24"/><rect class="cls-27" x="186.49" y="67.42" width="4.41" height="2.39" rx="1.14" ry="1.14" transform="translate(12.18 164.31) rotate(-48.45)"/><rect class="cls-27" x="179.82" y="62.03" width="4.41" height="2.39" rx="1.14" ry="1.14" transform="translate(13.97 157.5) rotate(-48.45)"/><rect class="cls-27" x="181.15" y="63.16" width="6.56" height="3.35" rx="1.68" ry="1.68" transform="translate(13.58 159.85) rotate(-48.45)"/><rect class="cls-27" x="183.62" y="65.39" width="6.09" height="2.97" rx="1.49" ry="1.49" transform="translate(9.58 156.09) rotate(-46.45)"/><rect class="cls-28" x="176.43" y="48.13" width="4.12" height="13.38" rx="0.84" ry="0.84" transform="translate(51.32 -81.9) rotate(30)"/><circle class="cls-29" cx="180.81" cy="50.69" r="0.62"/><rect class="cls-30" x="203.27" y="48.19" width="4.12" height="13.38" rx="0.84" ry="0.84" transform="translate(412.38 6.87) rotate(151.98)"/><circle class="cls-29" cx="207.45" cy="59.11" r="0.62" transform="translate(141.2 264.39) rotate(-88.02)"/></svg>