<svg id="Layer_1" data-name="Layer 1" xmlns="http://www.w3.org/2000/svg" viewBox="0 0 220 100"><defs><style>.cls-1{fill:#eff5f8;}.cls-2{fill:#cdebfc;}.cls-3{fill:#caedff;}.cls-4{fill:#fff;}.cls-5{fill:#3273ad;}.cls-6{fill:#32b475;}.cls-7{fill:#e3b462;}.cls-8{fill:#0aa5e3;}.cls-9{fill:#fad264;}.cls-10,.cls-11{fill:none;stroke:#3273ad;stroke-width:0.4px;}.cls-10{stroke-miterlimit:10;}.cls-11{stroke-linecap:round;stroke-linejoin:round;}</style></defs><title>program-feature-software</title><path class="cls-1" d="M126.3,61.25h27.31a2.05,2.05,0,1,0,0-4.1h-7a2.05,2.05,0,1,1,0-4.1H151a2.05,2.05,0,1,0,0-4.1H133.31a2.05,2.05,0,1,0,0,4.1h3a2.05,2.05,0,1,1,0,4.1h-10a2.05,2.05,0,1,0,0,4.1Z"/><path class="cls-1" d="M174.11,82H150.5a2.07,2.07,0,0,0,0,4.15h3.08a2.07,2.07,0,0,1,0,4.15h-6.73a2.07,2.07,0,0,0,0,4.15h23.61a2.07,2.07,0,0,0,0-4.15H164a2.07,2.07,0,0,1,0-4.15h10.09a2.07,2.07,0,0,0,0-4.15Z"/><path class="cls-1" d="M26,83.74h27.2a2,2,0,0,0,0-4.09h-7a2,2,0,1,1,0-4.09H50.6a2,2,0,1,0,0-4.09H33a2,2,0,0,0,0,4.09h3a2,2,0,0,1,0,4.09H26a2,2,0,1,0,0,4.09Z"/><path class="cls-1" d="M53.34,38.7h19a1.43,1.43,0,0,0,0-2.86H67.5a1.43,1.43,0,1,1,0-2.86h3.06a1.43,1.43,0,0,0,0-2.86H58.23a1.43,1.43,0,1,0,0,2.86H60.3a1.43,1.43,0,0,1,0,2.86h-7a1.43,1.43,0,1,0,0,2.86Z"/><path class="cls-2" d="M22.9,31.14h3.84a.31.31,0,0,0,.31-.33,2.83,2.83,0,0,1,.76-2.16,5.26,5.26,0,0,1,3.31-1.2.35.35,0,0,0,.24-.11.31.31,0,0,0,.07-.25,6.51,6.51,0,0,1,1.35-4.47A5.15,5.15,0,0,1,36.86,21a4.76,4.76,0,0,1,3.57,1.36,6.63,6.63,0,0,1,1.49,4.33A.31.31,0,0,0,42,27a.32.32,0,0,0,.29,0A4.4,4.4,0,0,1,46,27.2a6.11,6.11,0,0,1,2.41,3.69.31.31,0,0,0,.31.25h7.56a.31.31,0,0,0,0-.63H49a6.45,6.45,0,0,0-2.65-3.86,4.82,4.82,0,0,0-3.82-.35A6.91,6.91,0,0,0,40.89,22a5.36,5.36,0,0,0-4-1.56,5.77,5.77,0,0,0-4.54,1.82,7.1,7.1,0,0,0-1.53,4.63,5.49,5.49,0,0,0-3.43,1.38,3.35,3.35,0,0,0-.93,2.29H22.9a.31.31,0,0,0,0,.63Z"/><path class="cls-2" d="M173.45,36.12h0l6.6-.3a.77.77,0,0,0,.49-.07.79.79,0,0,0,.24-.57s0-.08,0-.11a5.75,5.75,0,0,1,.23-.66,4.34,4.34,0,0,1,.59-1,3.68,3.68,0,0,1,1.55-1.15,4.55,4.55,0,0,1,1.49-.3,4.93,4.93,0,0,1,.55,0,.83.83,0,0,0,.45,0c.23-.08.32-.34.47-1,0-.1,0-.18.06-.22a11.87,11.87,0,0,1,.64-1.51,7.85,7.85,0,0,1,1.51-2.08,5.79,5.79,0,0,1,3.44-1.6,7.64,7.64,0,0,1,7,3.35A8.33,8.33,0,0,1,200,34.11a.31.31,0,0,0,.63.06,9,9,0,0,0-1.33-5.56A8.18,8.18,0,0,0,191.7,25a6.42,6.42,0,0,0-3.8,1.77A8.47,8.47,0,0,0,186.27,29a12.44,12.44,0,0,0-.67,1.59c0,.05,0,.16-.07.28s-.09.35-.14.49l-.12,0a5.92,5.92,0,0,0-.62,0,5.2,5.2,0,0,0-1.7.34A4.31,4.31,0,0,0,181.13,33a5,5,0,0,0-.68,1.17,6.41,6.41,0,0,0-.25.73s0,.1,0,.18l0,.11H180l-6.61.3a.31.31,0,0,0,0,.63Z"/><path class="cls-2" d="M94,19.75h3.84a.31.31,0,0,0,.31-.33,2.83,2.83,0,0,1,.76-2.16,5.26,5.26,0,0,1,3.31-1.2.35.35,0,0,0,.24-.11.31.31,0,0,0,.07-.25,6.51,6.51,0,0,1,1.35-4.47A5.15,5.15,0,0,1,108,9.63,4.76,4.76,0,0,1,111.55,11,6.63,6.63,0,0,1,113,15.32a.31.31,0,0,0,.12.26.32.32,0,0,0,.29,0,4.4,4.4,0,0,1,3.71.17,6.11,6.11,0,0,1,2.41,3.69.31.31,0,0,0,.31.25h7.56a.31.31,0,1,0,0-.63h-7.31a6.45,6.45,0,0,0-2.65-3.86,4.82,4.82,0,0,0-3.82-.35A6.91,6.91,0,0,0,112,10.56,5.36,5.36,0,0,0,108,9a5.77,5.77,0,0,0-4.54,1.82,7.1,7.1,0,0,0-1.53,4.63,5.49,5.49,0,0,0-3.43,1.38,3.35,3.35,0,0,0-.93,2.29H94a.31.31,0,0,0,0,.63Z"/><rect class="cls-3" x="78.05" y="40.93" width="54.69" height="31.25"/><rect class="cls-3" x="75.49" y="37.17" width="59.81" height="38.79" rx="2.13" ry="2.13"/><rect class="cls-4" x="78.05" y="41.1" width="54.69" height="31.25"/><path class="cls-5" d="M133.17,76.17H77.6a2.35,2.35,0,0,1-2.32-2.35V39.3A2.35,2.35,0,0,1,77.6,37h55.54a2.35,2.35,0,0,1,2.35,2.35h0V73.82A2.35,2.35,0,0,1,133.17,76.17ZM77.6,37.38A1.92,1.92,0,0,0,75.7,39.3V73.82a1.92,1.92,0,0,0,1.89,1.92h55.54a1.92,1.92,0,0,0,1.92-1.92h0V39.3a1.92,1.92,0,0,0-1.89-1.92Z"/><path class="cls-5" d="M132.74,72.4H78.05a.21.21,0,0,1-.21-.21V40.93a.21.21,0,0,1,.21-.21h54.69a.21.21,0,0,1,.21.21V72.21A.21.21,0,0,1,132.74,72.4ZM78.27,72h54.26V41.15H78.27Z"/><path class="cls-3" d="M142.3,74.89v1.55h0a2,2,0,0,1-1.93,2h-70a2,2,0,0,1-2-2h0V74.88Z"/><path class="cls-5" d="M140.36,78.62h-70a2.21,2.21,0,0,1-2.18-2.19V74.88a.21.21,0,0,1,.21-.21H142.3a.21.21,0,0,1,.21.21v1.55A2.19,2.19,0,0,1,140.36,78.62ZM68.57,75.1v1.33a1.72,1.72,0,0,0,1.72,1.72h70.08a1.72,1.72,0,0,0,1.72-1.72V75.1Z"/><circle class="cls-4" cx="105.32" cy="39.36" r="0.68"/><rect class="cls-3" x="84.4" y="37.38" width="40.84" height="3.34"/><path class="cls-5" d="M105.32,40.26a.86.86,0,1,1,.86-.86A.86.86,0,0,1,105.32,40.26Zm0-1.36a.46.46,0,1,0,.46.46.46.46,0,0,0-.46-.46Z"/><path class="cls-6" d="M107.38,47.84H91.44a.33.33,0,0,1,0-.66h15.94a.33.33,0,0,1,0,.66Z"/><path class="cls-7" d="M119.88,47.84h-8.82a.33.33,0,1,1,0-.66h8.82a.33.33,0,0,1,0,.66Z"/><path class="cls-6" d="M119.88,52.47H103.94a.33.33,0,1,1,0-.66h15.94a.33.33,0,0,1,0,.66Z"/><path class="cls-8" d="M100.26,52.47H91.44a.33.33,0,0,1,0-.66h8.82a.33.33,0,0,1,0,.66Z"/><path class="cls-7" d="M119.88,57.21H91.44a.33.33,0,0,1,0-.66h28.44a.33.33,0,0,1,0,.66Z"/><path class="cls-8" d="M119.88,61.84H91.44a.33.33,0,0,1,0-.66h28.44a.33.33,0,0,1,0,.66Z"/><path class="cls-7" d="M100.15,66.12H91.44a.33.33,0,0,1,0-.66h8.71a.33.33,0,0,1,0,.66Z"/><path class="cls-6" d="M110.4,66.12h-7.06a.33.33,0,0,1,0-.66h7.06a.33.33,0,0,1,0,.66Z"/><path class="cls-6" d="M87.41,47.55l1.68.8a.61.61,0,0,1,.2.13.23.23,0,0,1,.06.16.23.23,0,0,1-.25.24l-.1,0-.14-.05-2-.94,0,0q-.27-.13-.27-.3t.29-.3h0l2.05-1,.15-.06h.09a.25.25,0,0,1,.19.4.61.61,0,0,1-.2.14Z"/><path class="cls-6" d="M115,64.38l-1.51,3.24a.76.76,0,0,1-.13.21.19.19,0,0,1-.14.06.32.32,0,0,1-.21-.07.23.23,0,0,1-.09-.19.66.66,0,0,1,.07-.23h0l1.51-3.24a.78.78,0,0,1,.13-.22.19.19,0,0,1,.14-.06A.33.33,0,0,1,115,64a.23.23,0,0,1,.09.19.34.34,0,0,1,0,.1Z"/><path class="cls-6" d="M117.74,66l-1.68-.8a.6.6,0,0,1-.2-.14.26.26,0,0,1,0-.34.23.23,0,0,1,.17-.07l.09,0,.15.06,2,1h0c.19.09.29.19.29.3s-.09.21-.28.3l0,0-2,.94-.13.05-.1,0a.23.23,0,0,1-.17-.07.24.24,0,0,1-.06-.18.24.24,0,0,1,.06-.16.59.59,0,0,1,.2-.13Z"/><rect class="cls-4" x="99.29" y="74.24" width="12.08" height="1.29" rx="0.53" ry="0.53"/><path class="cls-5" d="M110.83,75.61h-11A.62.62,0,0,1,99.2,75v-.22a.62.62,0,0,1,.62-.62h11a.62.62,0,0,1,.62.62V75A.62.62,0,0,1,110.83,75.61Zm-11-1.29a.45.45,0,0,0-.45.45V75a.45.45,0,0,0,.45.45h11a.45.45,0,0,0,.45-.45v-.22a.45.45,0,0,0-.45-.45Z"/><g id="_Group_" data-name="&lt;Group&gt;"><path class="cls-9" d="M158.28,52.67l1.06-4.05,3.41.89a1.68,1.68,0,0,1,1.2,2l-1,3.78a1.68,1.68,0,0,1-2.05,1.2l-3.4-.89Z"/><path class="cls-3" d="M159.06,41.91a2,2,0,0,1,1.41,2.4l-.32,1.23-6.92-1.79h0l-2.15-.55-.41-.11-5.2-1.35h0l.33-1.26a2,2,0,0,1,2.4-1.41Zm-3.73.87a.46.46,0,0,0-.32-.55l-.43-.11a.46.46,0,0,0-.55.32.46.46,0,0,0,.32.55l.44.11A.45.45,0,0,0,155.33,42.78Zm-1.73-.45a.45.45,0,0,0-.32-.55l-1.73-.45a.45.45,0,0,0-.54.32.46.46,0,0,0,.32.55l1.73.45A.44.44,0,0,0,153.6,42.33Z"/><path class="cls-4" d="M160.15,45.54l-.51,1.94-.3,1.14-7.94-2.08a1.68,1.68,0,0,0-2,1.2l-1,3.78a1.68,1.68,0,0,0,1.2,2l2.16.56L151.24,56l3-1.23,3.26.85-2.21,8.45-.16,0-7.53-2-.29-.08-6.65-1.73h-.06l4.84-18.53h0l5.2,1.35.41.11,2.15.55h0Z"/><path class="cls-9" d="M158.28,52.67l-.77,3-3.26-.85-3,1.23.49-1.89-2.16-.56a1.68,1.68,0,0,1-1.2-2l1-3.78a1.68,1.68,0,0,1,2-1.2l7.94,2.08Z"/><path class="cls-5" d="M155,42.23a.46.46,0,0,1,.32.55.45.45,0,0,1-.54.32l-.44-.11a.46.46,0,0,1-.32-.55.46.46,0,0,1,.55-.32Z"/><path class="cls-3" d="M155.3,64.09l-.61,2.34a2,2,0,0,1-2.4,1.41L141.4,65a2,2,0,0,1-1.4-2.4l.61-2.33h.06L147.32,62l.29.08,7.53,2Zm-7.13.49a1.17,1.17,0,1,0-1.43.84A1.16,1.16,0,0,0,148.17,64.58Z"/><path class="cls-5" d="M153.28,41.78a.45.45,0,0,1,.32.55.44.44,0,0,1-.54.32l-1.73-.45a.46.46,0,0,1-.32-.55.45.45,0,0,1,.54-.32Z"/><path class="cls-4" d="M147.33,63.15a1.17,1.17,0,1,1-1.43.84A1.16,1.16,0,0,1,147.33,63.15Z"/><path class="cls-10" d="M145.46,41.73l5.2,1.35.41.11,2.15.55h0l6.92,1.79.32-1.23a2,2,0,0,0-1.41-2.4l-10.88-2.85a2,2,0,0,0-2.4,1.41l-.33,1.26-4.84,18.53"/><polyline class="cls-10" points="159.34 48.62 159.64 47.48 160.15 45.54"/><path class="cls-10" d="M155.14,64.05l-7.53-2-.29-.08-6.65-1.73h-.06L140,62.59a2,2,0,0,0,1.4,2.4l10.89,2.85a2,2,0,0,0,2.4-1.41l.61-2.34,2.21-8.45"/><path class="cls-10" d="M157.51,55.64l3.4.89a1.68,1.68,0,0,0,2.05-1.2l1-3.78a1.68,1.68,0,0,0-1.2-2l-3.41-.89-7.94-2.08a1.68,1.68,0,0,0-2,1.2l-1,3.78a1.68,1.68,0,0,0,1.2,2l2.16.56L151.24,56l3-1.23Z"/><path class="cls-11" d="M147.33,63.15a1.17,1.17,0,1,0,.84,1.43A1.16,1.16,0,0,0,147.33,63.15Z"/><line class="cls-11" x1="151.04" y1="49.04" x2="155.36" y2="50.17"/><polyline class="cls-11" points="150.62 50.67 158.28 52.67 160.34 53.21"/></g><path class="cls-3" d="M60.09,38.91,45.18,45.25a1.85,1.85,0,0,0-1,2.42L53.38,69.3a1.85,1.85,0,0,0,2.42,1l14.92-6.33a1.85,1.85,0,0,0,1-2.42L62.51,39.89a1.85,1.85,0,0,0-2.42-1Z"/><path class="cls-5" d="M55.08,70.63a2.05,2.05,0,0,1-1.89-1.25L44,47.75a2,2,0,0,1,1.08-2.68L60,38.73a2,2,0,0,1,2.68,1.09l9.18,21.63a2.05,2.05,0,0,1-1.08,2.68L55.88,70.46A2,2,0,0,1,55.08,70.63ZM60.17,39.1,45.25,45.43a1.65,1.65,0,0,0-.87,2.16l9.18,21.63a1.65,1.65,0,0,0,2.16.87l14.92-6.33a1.65,1.65,0,0,0,.87-2.16L62.33,40a1.65,1.65,0,0,0-2.16-.87Z"/><path class="cls-4" d="M63,66.48A1.1,1.1,0,1,1,63.57,65,1.1,1.1,0,0,1,63,66.48Z"/><path class="cls-5" d="M62.56,66.77a1.3,1.3,0,1,1,.51-.1h0A1.28,1.28,0,0,1,62.56,66.77Zm0-2.2a.9.9,0,1,0,.35,1.72h0a.88.88,0,0,0,.48-.49.9.9,0,0,0-.83-1.24Z"/><rect class="cls-4" x="49.55" y="43.28" width="16.16" height="21.13" transform="translate(-16.46 26.79) rotate(-23)"/><path class="cls-5" d="M54.21,67,45.8,47.17,61,40.7l8.41,19.82ZM46.33,47.39l8.1,19.08,14.51-6.16-8.1-19.08Z"/><rect class="cls-3" x="49.03" y="45.58" width="12" height="4" transform="translate(-14.22 25.28) rotate(-23)"/><rect class="cls-3" x="50.59" y="51.07" width="12" height="0.4" transform="translate(-15.51 26.11) rotate(-22.94)"/><rect class="cls-3" x="51.12" y="52.41" width="11" height="0.4" transform="translate(-16.03 26.23) rotate(-22.94)"/><polygon class="cls-3" points="52.12 56.1 51.97 55.73 57.49 53.38 57.65 53.75 52.12 56.1"/><rect class="cls-3" x="53.72" y="58.43" width="12" height="0.4" transform="translate(-18.13 27.91) rotate(-22.94)"/><rect class="cls-3" x="54.2" y="59.58" width="12" height="0.4" transform="translate(-18.54 28.2) rotate(-22.94)"/><polygon class="cls-3" points="55.25 63.46 55.09 63.09 63.38 59.57 63.53 59.94 55.25 63.46"/><rect class="cls-3" x="52.4" y="55.32" width="12" height="0.4" transform="translate(-17.02 27.16) rotate(-22.94)"/><rect class="cls-3" x="53.16" y="57.84" width="5" height="0.4" transform="translate(-18.22 26.29) rotate(-22.94)"/></svg>