<svg id="Layer_1" data-name="Layer 1" xmlns="http://www.w3.org/2000/svg" viewBox="0 0 62 62"><defs><style>.cls-1{fill:#0d71ba;}</style></defs><title>targets-icon</title><path class="cls-1" d="M14,50h-.5A5.9,5.9,0,0,0,15,46,6,6,0,0,0,3,46a6.4,6.4,0,0,0,1.5,4H4a4,4,0,0,0-4,4v8H18V54A4,4,0,0,0,14,50ZM5,46a4,4,0,1,1,4,4A4,4,0,0,1,5,46ZM16,60H14V55H12v5H6V55H4v5H2V54a2,2,0,0,1,2-2H14a2,2,0,0,1,2,2Z"/><path class="cls-1" d="M36,50h-.5A5.9,5.9,0,0,0,37,46a6,6,0,0,0-12,0,6.4,6.4,0,0,0,1.5,4H26a4,4,0,0,0-4,4v8H40V54A4,4,0,0,0,36,50Zm-9-4a4,4,0,1,1,4,4A4,4,0,0,1,27,46ZM38,60H36V55H34v5H28V55H26v5H24V54a2,2,0,0,1,2-2H36a2,2,0,0,1,2,2Z"/><path class="cls-1" d="M58,50h-.5A5.9,5.9,0,0,0,59,46a6,6,0,0,0-12,0,6.4,6.4,0,0,0,1.5,4H48a4,4,0,0,0-4,4v8H62V54A4,4,0,0,0,58,50Zm-9-4a4,4,0,1,1,4,4A4,4,0,0,1,49,46ZM60,60H58V55H56v5H50V55H48v5H46V54a2,2,0,0,1,2-2H58a2,2,0,0,1,2,2Z"/><path class="cls-1" d="M31,15a4,4,0,1,0,4,4A4,4,0,0,0,31,15Zm0,6a2,2,0,1,1,2-2A2,2,0,0,1,31,21Z"/><path class="cls-1" d="M50,20V18H47.9A16.9,16.9,0,0,0,32,2.1V0H30V2.1A16.9,16.9,0,0,0,14.1,18H12v2h2.1A16.9,16.9,0,0,0,30,35.9V38h2V35.9A16.9,16.9,0,0,0,47.9,20Zm-4.1-2h-2A12.7,12.7,0,0,0,32,6.1v-2A14.7,14.7,0,0,1,45.9,18Zm-4,2A10.9,10.9,0,0,1,32,29.9V28H30v1.9A10.9,10.9,0,0,1,20.1,20H22V18H20.1A10.9,10.9,0,0,1,30,8.1V10h2V8.1A10.9,10.9,0,0,1,41.9,18H40v2ZM30,4.1v2A12.7,12.7,0,0,0,18.1,18h-2A14.7,14.7,0,0,1,30,4.1ZM16.1,20h2A12.9,12.9,0,0,0,30,31.9v2A14.7,14.7,0,0,1,16.1,20ZM32,33.9v-2A12.9,12.9,0,0,0,43.9,20h2A14.7,14.7,0,0,1,32,33.9Z"/><rect class="cls-1" x="52" y="34" width="2" height="2"/><rect class="cls-1" x="52" y="30" width="2" height="2"/><rect class="cls-1" x="52" y="26" width="2" height="2"/><rect class="cls-1" x="52" y="22" width="2" height="2"/><rect class="cls-1" x="52" y="18" width="2" height="2"/><rect class="cls-1" x="8" y="34" width="2" height="2"/><rect class="cls-1" x="8" y="30" width="2" height="2"/><rect class="cls-1" x="8" y="26" width="2" height="2"/><rect class="cls-1" x="8" y="22" width="2" height="2"/><rect class="cls-1" x="8" y="18" width="2" height="2"/></svg>