<svg xmlns="http://www.w3.org/2000/svg" viewBox="0 0 380 380"><path d="M339.53 270c5.8 13.6 10.6 27.37 3.66 41.72-8 16.6-27.78 22.82-45.07 21.62-26.3-1.82-51.54-14.54-77.9-14.28-35 .35-63.63 25.4-99.75 21.62-23.45-2.44-46.23-16.24-51.8-40.47-3.58-15.58-2.44-29.5-11.4-43.82-15.26-24.34-49.65-40-42.88-73.56 3.65-18.1 19.77-32.94 38.1-35.08 9-1.05 18.15.7 27.2.17 48.1-2.77 22.6-74.8 61.62-89.67 30.86-11.76 50.75 21.63 66.82 41.28 37.24 45.52 114.9-45.6 142.64 20.9 10.57 25.33-3.6 47.44-14.55 70.3a82.06 82.06 0 0 0-5.52 56.35c1.98 7.65 5.56 15.27 8.83 22.93z" fill="#f2f2f4"/><path fill="#e8e2f7" d="M219.66 99.08l-135.7 203.6 160.6 2.24 17.75-199.86-42.65-5.98z"/><rect x="202.89" y="197.87" width="18.17" height="18.17" rx="2.44" transform="matrix(.939513 -.342512 .342512 .939513 -58.06 85.11)" fill="#d4c7e5"/><path d="M209.62 205.22l1.67 4.57a.56.56 0 0 0 1 .14l2.53-3.5a.56.56 0 0 0-.32-.87l-4.2-1.06a.56.56 0 0 0-.68.73zm12.58-76.34c-3.77-3.9-6.25-2.4-6.25-2.4a22.24 22.24 0 0 1 .81-2.74 23.89 23.89 0 0 1 8.24-6.36 21.54 21.54 0 0 0-2.8 11.5z" fill="#976ae2"/><path d="M236.08 114.82a26.37 26.37 0 0 0-11.08 2.56h0a24 24 0 0 0-8.24 6.36 28 28 0 0 1 3.22-6.11l.26-.36 1.3-1.74.3-.35 1.43-1.62.34-.36 1.22-1.22.4-.35 1.35-1.16c4.5.02 9.5 4.35 9.5 4.35z" fill="#d4c7e5"/><path d="M230.53 113.78l-.53.08a12.11 12.11 0 0 0-5.15-1.88l.4-.35c1.24.2 3.83.8 5.3 2.15zm-3.73.94l-.43.16a6.14 6.14 0 0 0-3.08-1.32l.34-.36a6 6 0 0 1 3.17 1.52zm-3 1.28l-.4.22a6 6 0 0 0-1.82-.7l.3-.35a5.36 5.36 0 0 1 1.94.83zm-2.68 1.6l-.4.26a6.09 6.09 0 0 0-.74-.22l.26-.36a3.18 3.18 0 0 1 .87.32z" fill="#ac6ef4"/><ellipse cx="164.26" cy="305.16" rx="80.29" ry="13.48" fill="#c8bee5"/><path d="M185.74 213.7c6.86-9 7.37-29.5 7.37-29.5a31.55 31.55 0 0 1-10.65.92 28.93 28.93 0 0 0-10.34.92s.72 19.15-2.35 28.88a17.06 17.06 0 0 1 6.22-1.59c3.38-.16 9.75.36 9.75.36z" fill="#d4c7e5"/><path d="M189.4 189.1v.67a34.74 34.74 0 0 1-9.18.47 12.89 12.89 0 0 0-6.11 1v-.7a13.36 13.36 0 0 1 6.19-.92 33.36 33.36 0 0 0 9.1-.52zm-.2 3.42v.67a28.07 28.07 0 0 1-9.31.22 11.19 11.19 0 0 0-5.83 1.07v-.72a11.39 11.39 0 0 1 5.88-1 27.08 27.08 0 0 0 9.26-.24zm-.32 3.32c0 .22 0 .45-.07.68a22.62 22.62 0 0 1-5.4.08l-3.7-.13a18.12 18.12 0 0 0-5.94 1.39c0-.24 0-.48.07-.72a17.66 17.66 0 0 1 5.85-1.32l3.75.13a20.89 20.89 0 0 0 5.43-.11zm-.48 3.4c0 .22-.07.43-.1.65l-2.4-.08-6.55-.12a18.46 18.46 0 0 0-5.91 1.32c0-.23.06-.48.1-.73a18.67 18.67 0 0 1 5.81-1.24l6.6.12 2.47.08zm-.66 3.13l-.17.65-7.82-.2a23.88 23.88 0 0 0-6.79 1.52c0-.22.08-.46.1-.73a23.32 23.32 0 0 1 6.67-1.44l8 .2zm51.8-53.57a72.47 72.47 0 0 1-5.94 8.28c-3.6 4.3-8.32 8.74-12.64 8.9a45.13 45.13 0 0 1-6.08-.56s6-5.18 10-18.3c-.02 0 8.9 3.73 14.66 1.68z" fill="#976ae2"/><path d="M233.6 157.08c-3.6 4.3-8.32 8.74-12.64 8.9 0 0 1.47 0 .24-2.44 0 0 7.6-1.8 12.4-6.47z" fill="#d4c7e5"/><path d="M212.05 237.5l-.75 3.15-13 54.25a5.29 5.29 0 0 1-5.79 4l-30-3.67a5.3 5.3 0 0 1-4.65-5.3l.5-59.02z" fill="#db4949" stroke="#db4949" stroke-miterlimit="10"/><path fill="#ba2f2f" d="M212.06 237.5l-.76 3.15-52.9-6.5.03-3.23 53.64 6.57z"/><path d="M213.24 238.8L157 231.9c-.62-.07-1-.9-.9-1.88s.7-1.68 1.33-1.6l56.3 6.9c.62.07 1 .9.9 1.88s-.76 1.68-1.38 1.6z" fill="#ecc94b"/><path d="M185.26 243.28l-6.66 45.1L183 243a1.13 1.13 0 1 1 2.25.21s.01.05.01.07zm14.84 1.94l-11.5 44.38 9.32-44.9a1.124 1.124 0 1 1 2.2.46.43.43 0 0 0-.01.05zm-29.7-3.88l-1.8 45.8-.45-45.84a1.11 1.11 0 0 1 1.11-1.14 1.13 1.13 0 0 1 1.14 1.11z" fill="#ba2f2f"/><ellipse cx="177.76" cy="309.98" rx="23.37" ry="2.79" fill="#a89fce"/><path d="M208.64 60s-50.94-6.9-36.12 16.72 89.85 56 131.53 53.26 6-30.72 6-30.72" fill="#f1edf7" stroke="#1f0d40" stroke-miterlimit="10" stroke-width="1.09"/><ellipse cx="248.65" cy="89.52" rx="17.06" ry="66.77" transform="matrix(.330679 -.943743 .943743 .330679 81.94 294.57)" fill="#e6dff4"/><path d="M212.94 71.82a6.73 6.73 0 0 1-.57-8.21c6.14-9.1 23.2-28.72 52.6-20.9s29.42 38 28 50.82a6.72 6.72 0 0 1-6.65 6c-14.15-.03-51.08-2.54-73.37-27.72z" fill="#ecc94b" stroke="#1f0d40" stroke-linejoin="round" stroke-width="1.09"/><path fill="#d4c7e5" d="M202.6 156.53l-10.54 2.3 3.67 16.78 12.26-2.68-3.3-15.06-2.1-1.34z"/><path d="M193.4 159.958l7.884-1.723.107.488-7.884 1.723zm.27 1.197l7.884-1.723.107.488-7.884 1.723zm.258 1.187l7.884-1.723.107.488-7.884 1.723zm.262 1.208l7.884-1.723.107.488-7.884 1.723zm8.4-7.02l2.1 1.34-1.7.37-.38-1.7zm-7.643 9.078l9.198-1.985 1.798 8.328-9.198 1.985z" fill="#d3d7e8"/><path d="M198.1 167.54l.72 3.35a.33.33 0 0 0 .53.19l3-2.35a.33.33 0 0 0-.12-.58l-3.68-1a.33.33 0 0 0-.45.39z" fill="#976ae2"/></svg>
