<svg id="Layer_1" data-name="Layer 1" xmlns="http://www.w3.org/2000/svg" viewBox="0 0 430 170"><defs><style>.cls-1{fill:#eff5f8;}.cls-2{fill:#cdebfc;}.cls-3{opacity:0.5;}.cls-4{fill:#0aa5e3;}.cls-5{fill:#32b475;}.cls-6{fill:#e3b462;}.cls-7{fill:#fff;}.cls-8{fill:#3273ad;}.cls-9{fill:#deedfc;}.cls-10{fill:#fad264;}.cls-11{fill:#caedff;}.cls-12{fill:#47c683;}.cls-13{fill:#63d398;}.cls-14{fill:#046ca3;}</style></defs><title>Library-illustration</title><path class="cls-1" d="M83,121.77h45.73a4,4,0,0,1,0,8h-6a4,4,0,1,0,0,8h13a4,4,0,0,1,0,8H90a4,4,0,0,1,0-8h12.47a4,4,0,0,0,0-8H83a4,4,0,0,1,0-8Z"/><path class="cls-1" d="M390.67,132.32H338a4,4,0,0,1,0-7.92H351.5a4,4,0,0,0,0-7.92H343a4,4,0,1,1,0-7.92h34.12a4,4,0,1,1,0,7.92h-5.73a4,4,0,1,0,0,7.92h19.24a4,4,0,1,1,0,7.92Z"/><path class="cls-1" d="M126.11,100.54H73.21a4,4,0,0,1,0-7.95H86.78a4,4,0,0,0,0-7.95h-8.5a4,4,0,0,1,0-7.95h34.26a4,4,0,0,1,0,7.95h-5.76a4,4,0,0,0,0,7.95h19.32a4,4,0,1,1,0,7.95Z"/><path class="cls-1" d="M278.27,49.37H342.5a4.83,4.83,0,1,1,0,9.65H326a4.83,4.83,0,0,0,0,9.65h10.32a4.83,4.83,0,1,1,0,9.65h-41.6a4.83,4.83,0,0,1,0-9.65h7a4.83,4.83,0,0,0,0-9.65H278.27a4.83,4.83,0,1,1,0-9.65Z"/><path class="cls-2" d="M358.9,51.7h5.83a.48.48,0,0,0,.48-.49,4.29,4.29,0,0,1,1.15-3.28c1.78-1.82,5-1.81,5-1.82a.53.53,0,0,0,.36-.16.48.48,0,0,0,.11-.38,9.88,9.88,0,0,1,2.06-6.79,7.82,7.82,0,0,1,6.17-2.44,7.23,7.23,0,0,1,5.43,2.07c2.41,2.52,2.27,6.53,2.27,6.57a.48.48,0,0,0,.19.4.49.49,0,0,0,.44.07,6.67,6.67,0,0,1,5.64.26c2.85,1.66,3.65,5.57,3.66,5.6a.48.48,0,0,0,.47.38h11.47a.48.48,0,0,0,0-1h-11.1c-.29-1.11-1.33-4.29-4-5.86a7.32,7.32,0,0,0-5.8-.53,10.49,10.49,0,0,0-2.52-6.6,8.14,8.14,0,0,0-6.12-2.37,8.76,8.76,0,0,0-6.89,2.77,10.78,10.78,0,0,0-2.32,7,8.34,8.34,0,0,0-5.21,2.09,5.08,5.08,0,0,0-1.42,3.48H358.9a.48.48,0,1,0,0,1Z"/><path class="cls-2" d="M65.24,60.28h0l-11-.49a1.28,1.28,0,0,1-.81-.11,1.32,1.32,0,0,1-.4-1c0-.07,0-.14,0-.18a9.58,9.58,0,0,0-.38-1.1,7.23,7.23,0,0,0-1-1.7A6.13,6.13,0,0,0,49,53.83a7.59,7.59,0,0,0-2.49-.5,8.22,8.22,0,0,0-.91,0,1.38,1.38,0,0,1-.74,0c-.39-.14-.53-.57-.78-1.61,0-.16-.07-.3-.1-.37A19.77,19.77,0,0,0,43,48.88a13.08,13.08,0,0,0-2.51-3.47,9.65,9.65,0,0,0-5.72-2.67A12.73,12.73,0,0,0,23,48.33,13.87,13.87,0,0,0,21,56.92a.52.52,0,0,1-1,.11,15,15,0,0,1,2.22-9.26,13.63,13.63,0,0,1,12.68-6.06,10.69,10.69,0,0,1,6.34,3,14.1,14.1,0,0,1,2.72,3.75A20.73,20.73,0,0,1,45,51.05c0,.09.07.26.12.46s.14.58.22.82l.21,0a9.86,9.86,0,0,1,1,0,8.65,8.65,0,0,1,2.83.57,7.18,7.18,0,0,1,3,2.24A8.25,8.25,0,0,1,53.56,57,10.68,10.68,0,0,1,54,58.26c0,.06,0,.17.06.3l0,.19h.19l11,.49a.52.52,0,0,1,0,1Z"/><path class="cls-2" d="M238,45.31h-7.44a.61.61,0,0,1-.61-.63,5.47,5.47,0,0,0-1.46-4.18c-2.26-2.33-6.38-2.31-6.42-2.32a.68.68,0,0,1-.46-.21.61.61,0,0,1-.14-.49,12.6,12.6,0,0,0-2.62-8.66c-1.81-2.08-4.51-3.11-7.87-3.11a9.22,9.22,0,0,0-6.92,2.64c-3.07,3.22-2.89,8.33-2.89,8.38a.61.61,0,0,1-.24.51.62.62,0,0,1-.56.09c-2.79-.93-5.21-.82-7.19.33-3.64,2.12-4.66,7.1-4.67,7.15a.61.61,0,0,1-.6.49H173.31a.61.61,0,1,1,0-1.22h14.15c.37-1.41,1.69-5.47,5.13-7.47a9.33,9.33,0,0,1,7.4-.68c.07-1.71.55-5.62,3.21-8.42a10.38,10.38,0,0,1,7.8-3c3.74,0,6.74,1.17,8.79,3.53a13.74,13.74,0,0,1,3,9c1.38.1,4.58.55,6.64,2.66a6.48,6.48,0,0,1,1.81,4.44H238a.61.61,0,1,1,0,1.22Z"/><g class="cls-3"><path class="cls-4" d="M40.89,30a7.25,7.25,0,1,1,7.25,7.25A7.26,7.26,0,0,1,40.89,30Zm1.92,0a5.33,5.33,0,1,0,5.33-5.33A5.33,5.33,0,0,0,42.81,30Z"/><path class="cls-5" d="M336.93,46.77A7.25,7.25,0,1,1,344.18,54,7.26,7.26,0,0,1,336.93,46.77Zm1.92,0a5.33,5.33,0,1,0,5.33-5.33A5.33,5.33,0,0,0,338.85,46.77Z"/><path class="cls-5" d="M59.41,88.71A4.58,4.58,0,1,1,64,93.3,4.59,4.59,0,0,1,59.41,88.71Zm1.22,0A3.37,3.37,0,1,0,64,85.34,3.37,3.37,0,0,0,60.63,88.71Z"/><path class="cls-5" d="M64.28,129.78a4.36,4.36,0,1,1,4.36,4.36A4.37,4.37,0,0,1,64.28,129.78Zm1.92,0a2.44,2.44,0,1,0,2.44-2.44A2.45,2.45,0,0,0,66.21,129.78Z"/><path class="cls-5" d="M370.35,116.49a4.36,4.36,0,1,1,4.36,4.36A4.37,4.37,0,0,1,370.35,116.49Zm1.92,0a2.44,2.44,0,1,0,2.44-2.44A2.45,2.45,0,0,0,372.28,116.49Z"/><path class="cls-6" d="M27.84,63.85a5.59,5.59,0,1,1,5.59,5.59A5.6,5.6,0,0,1,27.84,63.85Zm2.46,0a3.13,3.13,0,1,0,3.13-3.13A3.13,3.13,0,0,0,30.3,63.85Z"/><path class="cls-6" d="M391.23,93.1A6.09,6.09,0,1,1,397,99.44,6.09,6.09,0,0,1,391.23,93.1Zm1.92.08a4.16,4.16,0,1,0,4.34-4A4.17,4.17,0,0,0,393.15,93.18Z"/><path class="cls-4" d="M34.34,111.28a7.25,7.25,0,1,1,7.25,7.25A7.26,7.26,0,0,1,34.34,111.28Zm1.92,0A5.33,5.33,0,1,0,41.59,106,5.33,5.33,0,0,0,36.26,111.28Z"/><path class="cls-6" d="M355.53,140a7.25,7.25,0,1,1,7.25,7.25A7.26,7.26,0,0,1,355.53,140Zm1.92,0a5.33,5.33,0,1,0,5.33-5.33A5.33,5.33,0,0,0,357.45,140Z"/><path class="cls-6" d="M66.61,47.1a6.73,6.73,0,1,1,6.73,6.73A6.73,6.73,0,0,1,66.61,47.1Zm1.92,0a4.8,4.8,0,1,0,4.8-4.8A4.81,4.81,0,0,0,68.53,47.1Z"/><path class="cls-4" d="M380.18,62.92a6.73,6.73,0,1,1,6.73,6.73A6.73,6.73,0,0,1,380.18,62.92Zm1.92,0a4.8,4.8,0,1,0,4.8-4.8A4.81,4.81,0,0,0,382.1,62.92Z"/><path class="cls-5" d="M357,81.42a4.36,4.36,0,1,1,4.36,4.36A4.37,4.37,0,0,1,357,81.42Zm1.92,0A2.44,2.44,0,1,0,361.36,79,2.45,2.45,0,0,0,358.91,81.42Z"/></g><rect class="cls-7" x="123.33" y="127.06" width="6.66" height="8.55" rx="2.26" ry="2.26"/><path class="cls-8" d="M127.73,135.95h-2.14a2.6,2.6,0,0,1-2.6-2.6v-4a2.6,2.6,0,0,1,2.6-2.6h2.14a2.6,2.6,0,0,1,2.6,2.6v4A2.6,2.6,0,0,1,127.73,135.95Zm-2.14-8.55a1.93,1.93,0,0,0-1.93,1.93v4a1.93,1.93,0,0,0,1.93,1.93h2.14a1.93,1.93,0,0,0,1.93-1.93v-4a1.93,1.93,0,0,0-1.93-1.93Z"/><rect class="cls-7" x="293.06" y="127.06" width="6.66" height="8.55" rx="2.26" ry="2.26"/><path class="cls-8" d="M297.46,135.95h-2.14a2.6,2.6,0,0,1-2.6-2.6v-4a2.6,2.6,0,0,1,2.6-2.6h2.14a2.6,2.6,0,0,1,2.6,2.6v4A2.6,2.6,0,0,1,297.46,135.95Zm-2.14-8.55a1.93,1.93,0,0,0-1.93,1.93v4a1.93,1.93,0,0,0,1.93,1.93h2.14a1.93,1.93,0,0,0,1.93-1.93v-4a1.93,1.93,0,0,0-1.93-1.93Z"/><path class="cls-9" d="M288.88,91.57l-2.27-2.2,0,0h0l-.06,0h-.08l-.06,0,0,.05v0l-.51,3.14"/><path class="cls-8" d="M286,92.64l-.37-.06.51-3.14a.37.37,0,0,1,.12-.2.35.35,0,0,1,.13-.08l.12,0a.4.4,0,0,1,.15,0l.07,0L289,91.44l-.26.27-2.27-2.2Z"/><path class="cls-5" d="M292.37,102.52a1.47,1.47,0,0,1-1,1.47,1.47,1.47,0,0,1-1.68-.57Z"/><path class="cls-8" d="M290.34,103.78h0a1.31,1.31,0,0,1-.38-.28l2.25-.76a1.32,1.32,0,0,1-.88,1.11,1.3,1.3,0,0,1-1-.07m-.14.28a1.61,1.61,0,0,0,2.3-1.74l-3,1a1.61,1.61,0,0,0,.73.72Z"/><polyline class="cls-8" points="286.13 90.66 286.44 89.31 287.49 90.29"/><polyline class="cls-10" points="288.88 91.57 291.77 100.12 288.72 101.16 285.82 92.61"/><path class="cls-8" d="M288.6,101.4l-3-8.73a.19.19,0,0,1,.36-.12l2.84,8.37,2.7-.91-2.84-8.38a.19.19,0,1,1,.36-.12l3,8.73Z"/><line class="cls-4" x1="287.9" y1="91.94" x2="290.37" y2="99.44"/><path class="cls-8" d="M290.37,99.62a.19.19,0,0,1-.18-.13L287.72,92a.19.19,0,1,1,.36-.12l2.47,7.5a.19.19,0,0,1-.12.24Z"/><line class="cls-4" x1="286.88" y1="92.28" x2="289.34" y2="99.77"/><path class="cls-8" d="M289.34,100a.19.19,0,0,1-.18-.13l-2.47-7.5a.19.19,0,0,1,.36-.12l2.47,7.5a.19.19,0,0,1-.12.24Z"/><line class="cls-4" x1="292.05" y1="100.81" x2="289" y2="101.87"/><path class="cls-8" d="M289,102.06a.19.19,0,0,1-.06-.37l3.05-1.06a.19.19,0,0,1,.12.36L289.06,102Z"/><line class="cls-4" x1="292.32" y1="101.58" x2="289.27" y2="102.64"/><path class="cls-8" d="M289.27,102.83a.19.19,0,0,1-.06-.37l3.05-1.06a.19.19,0,0,1,.12.36l-3.05,1.06Z"/><path class="cls-8" d="M302,89h-.05a.17.17,0,0,1-.1-.21l.65-1.88a.17.17,0,0,1,.32.11l-.65,1.88A.17.17,0,0,1,302,89Z"/><path class="cls-11" d="M302.29,87.92s1.21,2.39.83,3.75l-6.45,22.49a1.81,1.81,0,0,1-2.36,1.25,2.07,2.07,0,0,1-1.62-2.17l6.63-22.88S299.76,89.09,302.29,87.92Z"/><path class="cls-8" d="M301.52,88.14q.32-.18.71-.36a.15.15,0,0,1,.2.07c.05.1,1.24,2.46.84,3.85l-6.45,22.49a2.2,2.2,0,0,1-.95,1.24,2.07,2.07,0,0,1-1.6.12,2.24,2.24,0,0,1-1.72-2.33l6.64-22.9C299.2,90.26,299.58,89.22,301.52,88.14Zm.7,0c-2.31,1.11-2.75,2.28-2.75,2.29l-6.63,22.87a1.92,1.92,0,0,0,1.52,2,1.69,1.69,0,0,0,1.36-.09,1.93,1.93,0,0,0,.81-1.06L303,91.62C303.29,90.52,302.46,88.63,302.22,88.12Z"/><path class="cls-10" d="M296.44,105.58a.79.79,0,0,1,1.15.91l-2.84,9.93a.79.79,0,0,1-1.53-.44l2.85-9.92A.79.79,0,0,1,296.44,105.58Z"/><rect class="cls-8" x="297.68" y="100.77" width="0.3" height="4.04" transform="translate(116.96 360.77) rotate(-74.01)"/><circle class="cls-11" cx="188.25" cy="94.19" r="32.35"/><path class="cls-8" d="M188.25,126.87a32.69,32.69,0,1,1,32.69-32.69A32.72,32.72,0,0,1,188.25,126.87Zm0-64.7a32,32,0,1,0,32,32A32.05,32.05,0,0,0,188.25,62.17Z"/><circle class="cls-7" cx="188.25" cy="94.19" r="29.12"/><path class="cls-8" d="M188.25,123.64a29.45,29.45,0,1,1,29.45-29.45A29.48,29.48,0,0,1,188.25,123.64Zm0-58.23A28.78,28.78,0,1,0,217,94.19,28.81,28.81,0,0,0,188.25,65.41Z"/><path class="cls-8" d="M179.5,88.61a9,9,0,0,0,4.63-16.75A22.69,22.69,0,0,0,170.5,80,9,9,0,0,0,179.5,88.61Z"/><path class="cls-8" d="M200.62,73.5A8.36,8.36,0,0,1,209,81.85a8.16,8.16,0,0,1-.1,1.3,23.34,23.34,0,0,0-9.53-9.55,8.15,8.15,0,0,1,1.28-.1m0-.67a9,9,0,0,0-3.18.59A22.79,22.79,0,0,1,209,85.05a9,9,0,0,0-8.43-12.22Z"/><path class="cls-8" d="M191.6,81.85A9,9,0,0,0,209,85.05a22.79,22.79,0,0,0-11.61-11.63A9,9,0,0,0,191.6,81.85Z"/><path class="cls-8" d="M211.51,96.54a8.24,8.24,0,0,1,1.61,4.92,8.36,8.36,0,0,1-7.44,8.3,23.21,23.21,0,0,0,5.83-13.23m-.56-1.64a22.63,22.63,0,0,1-6.85,15.55c.22,0,.45,0,.67,0a9,9,0,0,0,6.18-15.58Z"/><path class="cls-8" d="M210.95,94.9a9,9,0,1,0-6.85,15.55A22.63,22.63,0,0,0,210.95,94.9Z"/><path class="cls-8" d="M180.14,116.11a23.39,23.39,0,0,0,14.15.66,8.35,8.35,0,0,1-14.15-.66m-1.28-1.25a9,9,0,0,0,16.82.79,22.7,22.7,0,0,1-16.82-.79Z"/><path class="cls-8" d="M187.42,103a9,9,0,0,0-8.56,11.86,22.7,22.7,0,0,0,16.82.79A9,9,0,0,0,187.42,103Z"/><path class="cls-8" d="M164.88,94.76a23.1,23.1,0,0,0,3.72,12.09,8.35,8.35,0,0,1-3.72-12.09m.71-1.95h0Zm0,0a9,9,0,0,0,4.69,15.25,22.6,22.6,0,0,1-4.74-13.88c0-.46,0-.92,0-1.38Z"/><path class="cls-8" d="M181,99.2a9,9,0,0,0-15.39-6.39c0,.46,0,.91,0,1.38a22.6,22.6,0,0,0,4.74,13.88A9,9,0,0,0,181,99.2Z"/><circle class="cls-10" cx="188.09" cy="94.29" r="4.16"/><path class="cls-8" d="M188.09,98.77a4.48,4.48,0,1,1,4.48-4.49A4.49,4.49,0,0,1,188.09,98.77Zm0-8.33a3.84,3.84,0,1,0,3.84,3.84A3.85,3.85,0,0,0,188.09,90.44Z"/><rect class="cls-11" x="89.76" y="51.29" width="19.8" height="75.43"/><path class="cls-8" d="M109.9,127.06H89.43V51H109.9Zm-19.8-.67h19.13V51.63H90.1Z"/><rect class="cls-7" x="89.76" y="62.61" width="19.8" height="8.2"/><path class="cls-8" d="M109.9,71.14H89.43V62.27H109.9Zm-19.8-.67h19.13V62.94H90.1Z"/><rect class="cls-7" x="89.76" y="107.49" width="19.8" height="8.2"/><path class="cls-8" d="M109.9,116H89.43v-8.87H109.9Zm-19.8-.67h19.13v-7.53H90.1Z"/><rect class="cls-7" x="109.56" y="56.76" width="4.71" height="69.96"/><path class="cls-8" d="M114.61,127.06h-5.38V56.43h5.38Zm-4.71-.67h4V57.1h-4Z"/><rect class="cls-7" x="114.28" y="54.31" width="4.15" height="72.42"/><path class="cls-8" d="M118.76,127.06h-4.82V54h4.82Zm-4.15-.67h3.48V54.64h-3.48Z"/><rect class="cls-7" x="118.43" y="46.77" width="3.96" height="79.96"/><path class="cls-8" d="M122.72,127.06h-4.63V46.43h4.63Zm-4-.67h3.29V47.1h-3.29Z"/><rect class="cls-11" x="118.43" y="61.17" width="3.96" height="51.79"/><path class="cls-8" d="M122.72,113.29h-4.63V60.83h4.63Zm-4-.67h3.29V61.5h-3.29Z"/><rect class="cls-11" x="130.79" y="54.52" width="18.67" height="70.91" transform="translate(-16.5 33.42) rotate(-12.85)"/><path class="cls-8" d="M138.66,127l-.07-.33L122.74,57.23l18.86-4.3.07.33,15.84,69.46ZM123.54,57.73l15.62,68.48,17.55-4L141.09,53.73Z"/><rect class="cls-7" x="125.04" y="63.15" width="18.67" height="3.24" transform="translate(-11.04 31.51) rotate(-12.85)"/><path class="cls-8" d="M125.38,68.83,124.52,65l18.86-4.3.87,3.81Zm-.07-3.3.57,2.5,17.55-4-.57-2.5Z"/><rect class="cls-7" x="136.22" y="112.32" width="18.67" height="2.88" transform="translate(-21.65 35.22) rotate(-12.85)"/><path class="cls-8" d="M136.52,117.64l-.79-3.46,18.86-4.3.79,3.46Zm0-3,.49,2.15,17.55-4-.49-2.15Z"/><ellipse class="cls-10" cx="136.18" cy="72.69" rx="7.26" ry="2.26" transform="translate(-12.75 32.11) rotate(-12.85)"/><path class="cls-8" d="M132.42,75.76c-.32,0-.62,0-.91,0-1.61-.13-2.56-.59-2.73-1.35s.48-1.58,1.88-2.4a20.54,20.54,0,0,1,10.21-2.33c1.61.13,2.56.59,2.73,1.35.38,1.64-3.24,3.4-6.83,4.22A20,20,0,0,1,132.42,75.76Zm7.52-5.47a19.35,19.35,0,0,0-4.19.52A17.66,17.66,0,0,0,131,72.56c-1.26.73-1.63,1.34-1.56,1.67s.67.71,2.13.83a17.61,17.61,0,0,0,5.05-.49c4.18-1,6.5-2.64,6.32-3.42h0c-.07-.33-.67-.71-2.13-.83C140.53,70.3,140.24,70.29,139.94,70.29Z"/><polygon class="cls-12" points="302.11 126.54 286.27 126.54 284.76 98.92 303.62 98.92 302.11 126.54"/><path class="cls-8" d="M302.43,126.87H285.95L284.4,98.58H304Zm-15.84-.67h15.21l1.47-27H285.11Z"/><polygon class="cls-7" points="303.03 103.46 285.26 103.46 285.01 99.22 303.26 99.25 303.03 103.46"/><polygon class="cls-7" points="312.86 126.67 307.95 126.67 310.97 58.13 315.88 58.13 312.86 126.67"/><path class="cls-8" d="M313.18,127H307.6l3-69.21h5.57Zm-4.87-.67h4.23l3-67.87h-4.23Z"/><rect class="cls-11" x="315.87" y="65.15" width="9.62" height="61.75"/><path class="cls-8" d="M325.83,127.24H315.54V64.81h10.29Zm-9.62-.67h8.95V65.48h-8.95Z"/><rect class="cls-7" x="315.87" y="74.1" width="9.62" height="44.13"/><path class="cls-8" d="M325.83,118.56H315.54V73.76h10.29Zm-9.62-.67h8.95V74.43h-8.95Z"/><rect class="cls-7" x="325.49" y="78.45" width="11.32" height="48.28"/><path class="cls-8" d="M337.14,127.06h-12V78.11h12Zm-11.32-.67h10.65V78.78H325.83Z"/><rect class="cls-11" x="325.49" y="87.66" width="11.32" height="8.89"/><path class="cls-8" d="M337.14,96.89h-12V87.32h12Zm-11.32-.67h10.65V88H325.83Z"/><rect class="cls-11" x="325.49" y="108.81" width="11.32" height="9.05"/><path class="cls-8" d="M337.14,118.2h-12v-9.72h12Zm-11.32-.67h10.65v-8.38H325.83Z"/><rect class="cls-7" x="77.69" y="126.73" width="271.94" height="3.02" rx="1.51" ry="1.51"/><path class="cls-8" d="M348.12,130.08H79.2a1.84,1.84,0,1,1,0-3.69H348.12a1.84,1.84,0,1,1,0,3.69Zm-268.92-3a1.17,1.17,0,0,0,0,2.35H348.12a1.17,1.17,0,0,0,0-2.35Z"/><path class="cls-7" d="M277.5,83.54a1.61,1.61,0,0,0,1.6-1.6h0a1.61,1.61,0,0,0-1.6-1.6H222.21a1.61,1.61,0,0,0-1.6,1.6h0V94a1.61,1.61,0,0,0,1.6,1.6H277.5a1.6,1.6,0,1,0,0-3.21H224.41V83.54Z"/><path class="cls-8" d="M277.5,95.94H222.21A1.94,1.94,0,0,1,220.27,94V81.94A1.94,1.94,0,0,1,222.21,80H277.5a1.94,1.94,0,0,1,0,3.88H224.75v8.19H277.5a1.94,1.94,0,1,1,0,3.88ZM222.21,80.67a1.27,1.27,0,0,0-1.27,1.27V94a1.27,1.27,0,0,0,1.27,1.27H277.5a1.27,1.27,0,1,0,0-2.54H224.08V83.2H277.5a1.27,1.27,0,1,0,0-2.54Z"/><rect class="cls-7" x="224.41" y="83.54" width="51.67" height="8.86"/><path class="cls-8" d="M276.42,92.74H224.08V83.2h52.34Zm-51.67-.67h51V83.87h-51Z"/><rect class="cls-8" x="224.82" y="86.65" width="14.57" height="0.33"/><rect class="cls-8" x="224.82" y="89.16" width="8.87" height="0.33"/><rect class="cls-8" x="246.58" y="87.8" width="6.36" height="0.33"/><rect class="cls-8" x="260.31" y="86.65" width="15.77" height="0.33"/><path class="cls-11" d="M222.21,98.94a1.61,1.61,0,0,1-1.6-1.6h0a1.61,1.61,0,0,1,1.6-1.6H277.5a1.61,1.61,0,0,1,1.6,1.6h0v12.07a1.61,1.61,0,0,1-1.6,1.6H222.21a1.6,1.6,0,1,1,0-3.21h53.09V98.94Z"/><path class="cls-8" d="M277.5,111.35H222.21a1.94,1.94,0,0,1,0-3.88H275V99.28H222.21a1.94,1.94,0,0,1,0-3.88H277.5a1.94,1.94,0,0,1,1.94,1.94v12.07A1.94,1.94,0,0,1,277.5,111.35Zm-55.29-3.21a1.27,1.27,0,0,0,0,2.54H277.5a1.27,1.27,0,0,0,1.27-1.27V97.34a1.27,1.27,0,0,0-1.27-1.27H222.21a1.27,1.27,0,0,0,0,2.54h53.42v9.53Z"/><rect class="cls-7" x="223.62" y="98.94" width="51.67" height="8.86" transform="translate(498.92 206.75) rotate(-180)"/><path class="cls-8" d="M275.63,108.14H223.29V98.61h52.34ZM224,107.47h51V99.28H224Z"/><rect class="cls-8" x="230.64" y="105.31" width="8.87" height="0.33"/><rect class="cls-8" x="246.76" y="103.21" width="6.36" height="0.33"/><rect class="cls-8" x="223.62" y="102.05" width="15.77" height="0.33"/><path class="cls-7" d="M277.5,114.35a1.61,1.61,0,0,0,1.6-1.6h0a1.61,1.61,0,0,0-1.6-1.6H222.21a1.61,1.61,0,0,0-1.6,1.6h0v12.07a1.61,1.61,0,0,0,1.6,1.6H277.5a1.6,1.6,0,1,0,0-3.21H224.41v-8.86Z"/><path class="cls-8" d="M277.5,126.75H222.21a1.94,1.94,0,0,1-1.94-1.94V112.74a1.94,1.94,0,0,1,1.94-1.94H277.5a1.94,1.94,0,0,1,0,3.88H224.75v8.19H277.5a1.94,1.94,0,1,1,0,3.88Zm-55.29-15.28a1.27,1.27,0,0,0-1.27,1.27v12.07a1.27,1.27,0,0,0,1.27,1.27H277.5a1.27,1.27,0,1,0,0-2.54H224.08V114H277.5a1.27,1.27,0,1,0,0-2.54Z"/><rect class="cls-7" x="224.41" y="114.35" width="51.67" height="8.86"/><path class="cls-8" d="M276.42,123.54H224.08V114h52.34Zm-51.67-.67h51v-8.19h-51Z"/><rect class="cls-8" x="224.82" y="117.46" width="14.57" height="0.33"/><rect class="cls-8" x="227.07" y="120.33" width="8.87" height="0.33"/><rect class="cls-8" x="243.4" y="118.7" width="3.91" height="0.33"/><rect class="cls-8" x="253.95" y="120.33" width="6.36" height="0.33"/><rect class="cls-8" x="260.31" y="118.8" width="15.77" height="0.33"/><line class="cls-13" x1="270.87" y1="102.89" x2="256.31" y2="102.89"/><rect class="cls-14" x="256.31" y="102.64" width="14.57" height="0.5"/><polygon class="cls-10" points="268.31 117.84 263.69 114.45 259.07 117.84 259.07 103.13 268.31 103.13 268.31 117.84"/><rect class="cls-8" x="285.01" y="103.16" width="18.04" height="0.67"/><path class="cls-8" d="M179.5,71.24a8.28,8.28,0,0,1,2.56.41,23.36,23.36,0,0,0-10.78,6.48,8.37,8.37,0,0,1,8.22-6.89m0-.67a9,9,0,0,0-9,9c0,.15,0,.3,0,.45a22.69,22.69,0,0,1,13.63-8.18,9,9,0,0,0-4.63-1.29Z"/></svg>