<svg id="Layer_1" data-name="Layer 1" xmlns="http://www.w3.org/2000/svg" viewBox="0 0 160 160"><defs><style>.cls-1{fill:#f7f7f7;}.cls-1,.cls-2,.cls-3{stroke:#3273ad;stroke-miterlimit:10;stroke-width:0.96px;}.cls-2{fill:#fad264;}.cls-3{fill:#c3f1fc;}</style></defs><title>beta-engineer-icon</title><path class="cls-1" d="M58.1,86.9a14.6,14.6,0,0,1,6.5-4.3c3.9-1.1,6.7,2.8,6.7,2.8l7.8-11.2S87,63.5,93.5,60.6L97.3,59a1.4,1.4,0,0,1,1.5.3l9.5,9.8a1.8,1.8,0,0,1,.5,1.7C106,81.2,91.5,94,84.3,98.7h-.2c5,2.2-.8,8.3-.8,8.3A35.4,35.4,0,0,1,72,116.7a.2.2,0,0,1-.3-.3c1.8-3,3-7.6-.4-9.7a.8.8,0,0,0-1,.1l-2.4,2.6a.5.5,0,0,1-.8,0L58.9,101a.8.8,0,0,1,.1-1.2l2.4-2.1a.7.7,0,0,0,.1-.9c-.9-1.3-3.7-4-9.2-.2a.3.3,0,0,1-.4-.3A30.3,30.3,0,0,1,58.1,86.9Z"/><circle class="cls-2" cx="94.2" cy="73.6" r="5.6"/><path class="cls-2" d="M56.9,102.8a.7.7,0,0,0-.9-.1c-1.1.8-4.1,3.1-5.2,6.1a.2.2,0,0,0,.3.2c.9-.8,2.2-1.3,1.5.2s-4.2,5.9-4.5,10a.7.7,0,0,0,.8.8c5.5-.3,9-3.3,10-3.9s1.4-.5.5,1.8a.2.2,0,0,0,.3.2c4.3-2.4,5.6-4.6,6-5.7a1,1,0,0,0-.2-1Z"/><path class="cls-3" d="M53.4,72.4l4.5,1.2a1.1,1.1,0,0,0,1.3-.7l5.3-17.5a.8.8,0,0,0-.5-1l-3.1-1.2a2.1,2.1,0,0,0-2.7,1.2L52,69.8A2,2,0,0,0,53.4,72.4Z"/><path class="cls-3" d="M92.4,73.2h.2a4.2,4.2,0,0,0,1.9.5,2.8,2.8,0,0,0,2.5-1.5,2.9,2.9,0,0,0,.4-2.3,3.7,3.7,0,0,0-1.7-2c-.1-.1-14.3-8.7-20.1-11.8a11.3,11.3,0,0,0-5-1.6c-2.6,0-3.5,2-4.1,3.1S63,70.7,62.4,74.5C60.9,82.2,64.5,85,72.8,86a4.2,4.2,0,0,1,2.1,1.5,6.3,6.3,0,0,1,.6,4.4l-.8,12.9a2.9,2.9,0,0,0,1.9,2.5,6,6,0,0,0,3.8,0l.5-.4a3.7,3.7,0,0,0,1-2.4s.2-3.1.6-8c.9-11.8.1-12.5-4.6-16.3-1.4-1.1-3-2.5-5.1-4.5l4.2-11.2,11.9,6.7Z"/><circle class="cls-3" cx="77.4" cy="46.2" r="6.2" transform="translate(-6.5 13.3) rotate(-9.4)"/><path class="cls-1" d="M111,58.8c-2-2.8-9-1.4-10.9-.9a.3.3,0,0,0-.1.5L110,68.9a.2.2,0,0,0,.4-.1C111,67.4,113,61.6,111,58.8Z"/></svg>