<?xml version="1.0" encoding="utf-8"?>
<!-- Generator: Adobe Illustrator 21.0.2, SVG Export Plug-In . SVG Version: 6.00 Build 0)  -->
<svg version="1.1" id="Layer_1" xmlns="http://www.w3.org/2000/svg" xmlns:xlink="http://www.w3.org/1999/xlink" x="0px" y="0px"
	 viewBox="0 0 160 160" style="enable-background:new 0 0 160 160;" xml:space="preserve">
<style type="text/css">
	.st0{fill:#F7F7F7;stroke:#3273AD;stroke-width:0.75;stroke-miterlimit:10;}
	.st1{fill:#FAD264;stroke:#3273AD;stroke-width:0.75;stroke-miterlimit:10;}
	.st2{fill:#C3F1FC;stroke:#3273AD;stroke-width:0.75;stroke-miterlimit:10;}
</style>
<title>beta-engineer-icon</title>
<path class="st0" d="M58.1,86.9c1.7-2,4-3.5,6.5-4.3c3.9-1.1,6.7,2.8,6.7,2.8l7.8-11.2c0,0,7.9-10.7,14.4-13.6l3.8-1.6
	c0.5-0.2,1.1-0.1,1.5,0.3l9.5,9.8c0.5,0.4,0.6,1.1,0.5,1.7C106,81.2,91.5,94,84.3,98.7h-0.2c5,2.2-0.8,8.3-0.8,8.3
	c-3,4-6.9,7.3-11.3,9.7c-0.1,0.1-0.2,0.1-0.3,0s-0.1-0.2,0-0.3c1.8-3,3-7.6-0.4-9.7c-0.3-0.2-0.7-0.2-1,0.1l-2.4,2.6
	c-0.2,0.2-0.5,0.3-0.7,0.1c0,0-0.1-0.1-0.1-0.1l-8.2-8.4c-0.3-0.3-0.3-0.8,0-1.1c0,0,0.1,0,0.1-0.1l2.4-2.1c0.2-0.2,0.3-0.6,0.1-0.9
	c-0.9-1.3-3.7-4-9.2-0.2c-0.2,0.1-0.3,0-0.4-0.2c0,0,0-0.1,0-0.1C53.4,92.8,55.5,89.6,58.1,86.9z"/>
<circle class="st1" cx="94.2" cy="73.6" r="5.6"/>
<path class="st1" d="M56.9,102.8c-0.2-0.2-0.6-0.3-0.9-0.1c-1.1,0.8-4.1,3.1-5.2,6.1c0,0.1,0.1,0.2,0.2,0.2c0,0,0.1,0,0.1,0
	c0.9-0.8,2.2-1.3,1.5,0.2s-4.2,5.9-4.5,10c-0.1,0.4,0.2,0.7,0.6,0.8c0.1,0,0.1,0,0.2,0c5.5-0.3,9-3.3,10-3.9s1.4-0.5,0.5,1.8
	c0,0.1,0.1,0.2,0.2,0.2c0,0,0.1,0,0.1,0c4.3-2.4,5.6-4.6,6-5.7c0.1-0.3,0-0.7-0.2-1L56.9,102.8z"/>
<path class="st2" d="M53.4,72.4l4.5,1.2c0.5,0.1,1.1-0.2,1.3-0.7l5.3-17.5c0.1-0.4-0.1-0.9-0.5-1l-3.1-1.2c-1.1-0.4-2.3,0.1-2.7,1.2
	L52,69.8c-0.4,1,0.2,2.2,1.2,2.5C53.3,72.4,53.3,72.4,53.4,72.4z"/>
<path class="st2" d="M92.4,73.2h0.2c0.6,0.3,1.2,0.5,1.9,0.5c1,0,2-0.6,2.5-1.5c0.4-0.7,0.6-1.5,0.4-2.3c-0.3-0.9-0.9-1.6-1.7-2
	c-0.1-0.1-14.3-8.7-20.1-11.8c-1.5-0.9-3.2-1.5-5-1.6c-2.6,0-3.5,2-4.1,3.1S63,70.7,62.4,74.5C60.9,82.2,64.5,85,72.8,86
	c0.8,0.3,1.6,0.8,2.1,1.5c0.7,1.3,0.9,2.9,0.6,4.4l-0.8,12.9c0.1,1.1,0.8,2.1,1.9,2.5c1.2,0.4,2.6,0.4,3.8,0l0.5-0.4
	c0.6-0.7,1-1.5,1-2.4c0,0,0.2-3.1,0.6-8c0.9-11.8,0.1-12.5-4.6-16.3c-1.4-1.1-3-2.5-5.1-4.5L77,64.5l11.9,6.7L92.4,73.2z"/>
<ellipse transform="matrix(0.9866 -0.1633 0.1633 0.9866 -6.5125 13.2633)" class="st2" cx="77.4" cy="46.2" rx="6.2" ry="6.2"/>
<path class="st0" d="M111,58.8c-2-2.8-9-1.4-10.9-0.9c-0.2,0.1-0.2,0.2-0.2,0.4c0,0,0,0.1,0.1,0.1l10,10.5c0,0.1,0.1,0.2,0.2,0.2
	s0.2-0.1,0.2-0.2l0,0C111,67.4,113,61.6,111,58.8z"/>
</svg>
