<svg id="Layer_1" data-name="Layer 1" xmlns="http://www.w3.org/2000/svg" viewBox="0 0 160 160"><defs><style>.cls-1{fill:#fad264;stroke-linecap:round;}.cls-1,.cls-2{stroke:#3273ad;stroke-linejoin:round;}.cls-2{fill:#c3f1fc;stroke-linecap:square;}</style></defs><title>coaches</title><path class="cls-1" d="M113.5,88.8v6.4c2.8,2.1,4.3,4.4,4.3,6.6,0,4.5-6.3,7.5-10.1,8.9-7,2.6-16.9,4-27.7,4s-20.6-1.4-27.7-4c-3.8-1.4-10.1-4.4-10.1-8.9,0-2.2,1.5-4.4,4.2-6.5V88.8c-6.2,3.5-9.6,8.1-9.6,12.9s2.4,9.8,13.6,13.9c7.6,2.8,18.1,4.3,29.5,4.3s21.9-1.5,29.5-4.3c11.2-4.1,13.6-9.9,13.6-13.9S119.7,92.3,113.5,88.8Z"/><circle class="cls-2" cx="60.7" cy="45.9" r="5.9"/><circle class="cls-2" cx="99.5" cy="45.9" r="5.9"/><path class="cls-2" d="M70.4,56.5s-1.6-1.6-6-2.5a18.7,18.7,0,0,0-7.5.1,15.5,15.5,0,0,0-5.8,2.4l-5.5,8.6a2.2,2.2,0,0,0,0,2.4l5.5,8.9a2.2,2.2,0,0,0,1.8,1v25.3a2.6,2.6,0,0,0,2.6,2.6h.4a2.6,2.6,0,0,0,2.6-2.4l1.4-19.1a.9.9,0,0,1,.8-.8.8.8,0,0,1,.8.8L63.1,103a2.6,2.6,0,0,0,5.2-.3V81.9l-5.4-8.6a4.6,4.6,0,0,1,0-4.9l5.7-8.9.3-.2a11.4,11.4,0,0,1,2.2-1.3ZM52.9,70.9,50,66.3l2.9-4.5Z"/><circle class="cls-2" cx="80.1" cy="50.4" r="5.9"/><path class="cls-2" d="M95.1,69.8l-5.3-8.8s-1.6-1.6-6-2.5h0a18.6,18.6,0,0,0-7.4.1h0A15.5,15.5,0,0,0,70.5,61l-5.5,8.6a2.2,2.2,0,0,0,0,2.4l5.5,8.9a2.2,2.2,0,0,0,1.8,1v25.3a2.6,2.6,0,0,0,2.6,2.6h.4a2.6,2.6,0,0,0,2.6-2.4l1.4-19.1a.9.9,0,0,1,.8-.8.8.8,0,0,1,.8.8l1.7,19.2a2.6,2.6,0,0,0,5.2-.3V81.9a2.2,2.2,0,0,0,1.6-1L95,72.2A2.2,2.2,0,0,0,95.1,69.8ZM72.3,75.4l-2.9-4.6,2.9-4.5Zm15.4-.1V66.2l2.9,4.7Z"/><path class="cls-2" d="M114.5,65.3l-5.3-8.8s-1.6-1.6-6-2.5h0a18.7,18.7,0,0,0-7.5.1h0a15.5,15.5,0,0,0-5.8,2.4L89,57.8a9.1,9.1,0,0,1,2.4,1.6l.2.2,5.5,9a4.6,4.6,0,0,1-.1,4.9l-5.3,8.1v21.1a2.6,2.6,0,0,0,2.6,2.6h.4a2.6,2.6,0,0,0,2.6-2.4l1.4-19.1a.9.9,0,0,1,.8-.8.8.8,0,0,1,.8.8l1.7,19.2a2.6,2.6,0,0,0,5.2-.3V77.3a2.2,2.2,0,0,0,1.6-1l5.8-8.7A2.2,2.2,0,0,0,114.5,65.3Zm-7.4,5.5V61.7l2.9,4.7Z"/></svg>