<?xml version="1.0" encoding="utf-8"?>
<!-- Generator: Adobe Illustrator 21.0.2, SVG Export Plug-In . SVG Version: 6.00 Build 0)  -->
<svg version="1.1" id="Layer_1" xmlns="http://www.w3.org/2000/svg" xmlns:xlink="http://www.w3.org/1999/xlink" x="0px" y="0px"
	 viewBox="0 0 160 160" style="enable-background:new 0 0 160 160;" xml:space="preserve">
<style type="text/css">
	.st0{fill:#FAD264;stroke:#3273AD;stroke-width:0.75;stroke-linecap:round;stroke-linejoin:round;}
	.st1{fill:#C3F1FC;stroke:#3273AD;stroke-width:0.75;stroke-linecap:square;stroke-linejoin:round;}
</style>
<title>coaches</title>
<path class="st0" d="M113.5,88.8v6.4c2.8,2.1,4.3,4.4,4.3,6.6c0,4.5-6.3,7.5-10.1,8.9c-7,2.6-16.9,4-27.7,4s-20.6-1.4-27.7-4
	c-3.8-1.4-10.1-4.4-10.1-8.9c0-2.2,1.5-4.4,4.2-6.5v-6.5c-6.2,3.5-9.6,8.1-9.6,12.9s2.4,9.8,13.6,13.9c7.6,2.8,18.1,4.3,29.5,4.3
	s21.9-1.5,29.5-4.3c11.2-4.1,13.6-9.9,13.6-13.9S119.7,92.3,113.5,88.8z"/>
<circle class="st1" cx="60.7" cy="45.9" r="5.9"/>
<circle class="st1" cx="99.5" cy="45.9" r="5.9"/>
<path class="st1" d="M70.4,56.5c0,0-1.6-1.6-6-2.5c-2.5-0.5-5-0.4-7.5,0.1c-2.1,0.4-4.1,1.2-5.8,2.4l-5.5,8.6
	c-0.5,0.7-0.5,1.7,0,2.4l5.5,8.9c0.4,0.6,1.1,1,1.8,1v25.3c0,1.4,1.2,2.6,2.6,2.6h0.4c1.4,0,2.5-1,2.6-2.4l1.4-19.1
	c0-0.4,0.4-0.8,0.8-0.8c0.4,0,0.8,0.4,0.8,0.8l0,0l1.6,19.2c0.1,1.4,1.3,2.5,2.8,2.4s2.5-1.3,2.4-2.8V81.9l-5.4-8.6
	c-0.9-1.5-0.9-3.4,0-4.9l5.7-8.9l0.3-0.2c0.7-0.5,1.4-1,2.2-1.3L70.4,56.5z M52.9,70.9L50,66.3l2.9-4.5V70.9z"/>
<circle class="st1" cx="80.1" cy="50.4" r="5.9"/>
<path class="st1" d="M95.1,69.8L89.8,61c0,0-1.6-1.6-6-2.5l0,0c-2.4-0.5-5-0.4-7.4,0.1l0,0c-2.1,0.4-4.1,1.2-5.9,2.4L65,69.6
	c-0.5,0.7-0.5,1.7,0,2.4l5.5,8.9c0.4,0.6,1.1,1,1.8,1v25.3c0,1.4,1.2,2.6,2.6,2.6h0.4c1.4,0,2.5-1,2.6-2.4l1.4-19.1
	c0-0.4,0.4-0.8,0.8-0.8c0.4,0,0.8,0.4,0.8,0.8v0l1.7,19.2c0.1,1.4,1.3,2.5,2.8,2.4s2.5-1.3,2.4-2.8l0,0V81.9c0.7-0.1,1.2-0.4,1.6-1
	l5.6-8.7C95.5,71.5,95.5,70.5,95.1,69.8z M72.3,75.4l-2.9-4.6l2.9-4.5V75.4z M87.7,75.3v-9.1l2.9,4.7L87.7,75.3z"/>
<path class="st1" d="M114.5,65.3l-5.3-8.8c0,0-1.6-1.6-6-2.5l0,0c-2.5-0.5-5-0.4-7.5,0.1l0,0c-2.1,0.4-4.1,1.2-5.8,2.4L89,57.8
	c0.9,0.4,1.7,0.9,2.4,1.6l0.2,0.2l5.5,9C98,70.1,98,72,97,73.5l-5.3,8.1v21.1c0,1.4,1.2,2.6,2.6,2.6h0.4c1.4,0,2.5-1,2.6-2.4
	l1.4-19.1c0-0.4,0.4-0.8,0.8-0.8c0.4,0,0.8,0.4,0.8,0.8v0L102,103c0.1,1.4,1.3,2.5,2.8,2.4s2.5-1.3,2.4-2.8V77.3
	c0.7-0.1,1.2-0.4,1.6-1l5.8-8.7C115,66.9,115,66,114.5,65.3z M107.1,70.8v-9.1l2.9,4.7L107.1,70.8z"/>
</svg>
