<?xml version="1.0" encoding="UTF-8"?>
<svg width="35px" height="35px" viewBox="0 0 35 35" version="1.1" xmlns="http://www.w3.org/2000/svg" xmlns:xlink="http://www.w3.org/1999/xlink">
    <!-- Generator: Sketch 44.1 (41455) - http://www.bohemiancoding.com/sketch -->
    <title>Group 19</title>
    <desc>Created with Sketch.</desc>
    <defs></defs>
    <g id="Page-1" stroke="none" stroke-width="1" fill="none" fill-rule="evenodd">
        <g id="sv.co/stats" transform="translate(-1131.000000, -1716.000000)" fill-rule="nonzero" fill="#0F89BF">
            <g id="Group-19" transform="translate(1131.000000, 1716.000000)">
                <path d="M25.1119787,17.0244468 C26.6525745,17.0244468 27.9059468,15.7710745 27.9059468,14.2305532 C27.9059468,12.6900319 26.6525745,11.4366596 25.1119787,11.4366596 C23.571383,11.4366596 22.3180851,12.6899574 22.3180851,14.2305532 C22.3180851,15.7711489 23.571383,17.0244468 25.1119787,17.0244468 L25.1119787,17.0244468 Z M25.1119787,12.5536809 C26.0366489,12.5536809 26.7889255,13.3059574 26.7889255,14.2305532 C26.7889255,15.1552234 26.0366489,15.9074255 25.1119787,15.9074255 C24.187383,15.9074255 23.4351064,15.1551489 23.4351064,14.2305532 C23.4351064,13.3059574 24.187383,12.5536809 25.1119787,12.5536809 L25.1119787,12.5536809 Z" id="Shape"></path>
                <path d="M25.1119787,18.1414681 C24.3538191,18.1414681 23.6019894,18.3297979 22.9376596,18.6860532 C22.6658511,18.8318617 22.5636064,19.1703936 22.7094149,19.4422021 C22.8551489,19.7139362 23.1935319,19.8161809 23.4654894,19.6704468 C23.9680745,19.4009468 24.5375319,19.2584894 25.1119787,19.2584894 C26.8480532,19.2584894 28.2923617,20.5315957 28.5605957,22.1931277 L25.1119787,22.1931277 C24.8034574,22.1931277 24.5534681,22.4431915 24.5534681,22.7516383 C24.5534681,23.0600851 24.8034574,23.3101489 25.1119787,23.3101489 L29.1636383,23.3101489 C29.4721596,23.3101489 29.7221489,23.0600851 29.7221489,22.7516383 C29.7221489,20.2095213 27.6540213,18.1414681 25.1119787,18.1414681 L25.1119787,18.1414681 Z" id="Shape"></path>
                <path d="M9.93761702,22.1930532 L6.43947872,22.1930532 C6.70771277,20.5315213 8.15202128,19.2584149 9.88809574,19.2584149 C10.462617,19.2584149 11.0317766,19.4007979 11.5342872,19.6702234 C11.8060957,19.8160319 12.1447021,19.7137872 12.2903617,19.4419043 C12.4361702,19.1700957 12.3339255,18.8315638 12.062117,18.6857553 C11.3978617,18.3295745 10.6461064,18.1413191 9.88809574,18.1413191 C7.34597872,18.1413191 5.27792553,20.2093723 5.27792553,22.7514894 C5.27792553,23.0599362 5.52791489,23.31 5.83643617,23.31 L9.93769149,23.31 C10.2462128,23.31 10.4962021,23.0599362 10.4962021,22.7514894 C10.4962021,22.4430426 10.2461383,22.1930532 9.93761702,22.1930532 L9.93761702,22.1930532 Z" id="Shape"></path>
                <path d="M9.88802128,17.0244468 C11.428617,17.0244468 12.6819149,15.7710745 12.6819149,14.2305532 C12.6819149,12.6900319 11.428617,11.4366596 9.88802128,11.4366596 C8.34742553,11.4366596 7.09405319,12.6899574 7.09405319,14.2305532 C7.09405319,15.7711489 8.3475,17.0244468 9.88802128,17.0244468 Z M9.88802128,12.5536809 C10.812617,12.5536809 11.5648936,13.3059574 11.5648936,14.2305532 C11.5648936,15.1552234 10.812617,15.9074255 9.88802128,15.9074255 C8.96335106,15.9074255 8.21107447,15.1551489 8.21107447,14.2305532 C8.21114894,13.3059574 8.96335106,12.5536809 9.88802128,12.5536809 Z" id="Shape"></path>
                <path d="M17.5,17.2264043 C19.4835319,17.2264043 21.0972553,15.6126809 21.0972553,13.6291489 C21.0972553,11.645617 19.4835319,10.0318936 17.5,10.0318936 C15.5164681,10.0318936 13.9027447,11.645617 13.9027447,13.6291489 C13.9027447,15.6126809 15.5164681,17.2264043 17.5,17.2264043 L17.5,17.2264043 Z M17.5,11.1489149 C18.8676064,11.1489149 19.980234,12.2615426 19.980234,13.6291489 C19.980234,14.9967553 18.8676809,16.109383 17.5,16.109383 C16.1323191,16.109383 15.019766,14.9967553 15.019766,13.6291489 C15.019766,12.2615426 16.1323936,11.1489149 17.5,11.1489149 Z" id="Shape"></path>
                <path d="M17.5,18.3434255 C14.1550426,18.3434255 11.4337553,21.0647128 11.4337553,24.4095957 C11.4337553,24.7180426 11.6837447,24.9681064 11.992266,24.9681064 L23.0076596,24.9681064 C23.3161809,24.9681064 23.5661702,24.7180426 23.5661702,24.4095957 C23.5661702,21.0647128 20.844883,18.3434255 17.5,18.3434255 L17.5,18.3434255 Z M12.5821277,23.8510851 C12.860266,21.3839574 14.9597447,19.4604468 17.5,19.4604468 C20.0402553,19.4604468 22.1396596,21.3839574 22.4177979,23.8510851 L12.5821277,23.8510851 Z" id="Shape"></path>
                <path d="M34.4414894,16.9414894 L33.0854255,16.9414894 C32.7967128,8.78485106 26.2151489,2.20328723 18.0585106,1.91464894 L18.0585106,0.558510638 C18.0585106,0.25006383 17.8085213,0 17.5,0 C17.1914787,0 16.9414894,0.25006383 16.9414894,0.558510638 L16.9414894,1.91464894 C8.78485106,2.20328723 2.20328723,8.78485106 1.91457447,16.9414894 L0.558510638,16.9414894 C0.249989362,16.9414894 0,17.1915532 0,17.5 C0,17.8084468 0.249989362,18.0585106 0.558510638,18.0585106 L1.91457447,18.0585106 C2.20328723,26.2151489 8.78485106,32.7967128 16.9414894,33.0853511 L16.9414894,34.4414894 C16.9414894,34.7499362 17.1914787,35 17.5,35 C17.8085213,35 18.0585106,34.7499362 18.0585106,34.4414894 L18.0585106,33.0853511 C26.2151489,32.7967128 32.7967128,26.2151489 33.0854255,18.0585106 L34.4414894,18.0585106 C34.7500106,18.0585106 35,17.8084468 35,17.5 C35,17.1915532 34.7500106,16.9414894 34.4414894,16.9414894 Z M18.0585106,31.9675851 L18.0585106,30.634383 C18.0585106,30.3259362 17.8085213,30.0758723 17.5,30.0758723 C17.1914787,30.0758723 16.9414894,30.3259362 16.9414894,30.634383 L16.9414894,31.9675851 C9.40085106,31.6800638 3.3198617,25.5991489 3.03234043,18.0585106 L4.36561702,18.0585106 C4.6741383,18.0585106 4.92412766,17.8084468 4.92412766,17.5 C4.92412766,17.1915532 4.6741383,16.9414894 4.36561702,16.9414894 L3.03234043,16.9414894 C3.3198617,9.40085106 9.40085106,3.31993617 16.9414894,3.03241489 L16.9414894,4.36561702 C16.9414894,4.67406383 17.1914787,4.92412766 17.5,4.92412766 C17.8085213,4.92412766 18.0585106,4.67406383 18.0585106,4.36561702 L18.0585106,3.03241489 C25.5991489,3.31993617 31.6800638,9.40085106 31.9676596,16.9414894 L30.634383,16.9414894 C30.3258617,16.9414894 30.0758723,17.1915532 30.0758723,17.5 C30.0758723,17.8084468 30.3258617,18.0585106 30.634383,18.0585106 L31.9676596,18.0585106 C31.6800638,25.5991489 25.5991489,31.6800638 18.0585106,31.9675851 Z" id="Shape"></path>
            </g>
        </g>
    </g>
</svg>