<svg id="Layer_1" data-name="Layer 1" xmlns="http://www.w3.org/2000/svg" viewBox="0 0 160 160"><defs><style>.cls-1{fill:#fad264;stroke-linecap:round;stroke-linejoin:round;}.cls-1,.cls-2{stroke:#3273ad;stroke-width:0.75px;}.cls-2{fill:#c3f1fc;stroke-miterlimit:10;}</style></defs><title>Artboard 1</title><rect class="cls-1" x="100.3" y="68.2" width="3.4" height="51.58" rx="1.7" ry="1.7"/><path class="cls-2" d="M65.8,87.1l-1,14-7.2,11.8c-1.4,2-1.4,4.9.6,6.2a3.9,3.9,0,0,0,5.4-.9l.3-.4L71.1,106a21.6,21.6,0,0,0,2.2-3.9l2-7.7Z"/><path class="cls-2" d="M100.3,79.1h.2a4.9,4.9,0,0,0,2.3.5,3.3,3.3,0,0,0,2.9-1.9A3.4,3.4,0,0,0,106,75a4.3,4.3,0,0,0-2-2.3c-.2-.1-17.1-9.5-24-12.9a13.2,13.2,0,0,0-6-1.6c-3,.1-4.1,2.5-4.6,3.8s-3.8,15.5-4.3,19.9C63.6,91,68,94.1,77.8,94.9a4.9,4.9,0,0,1,2.6,1.6,7.4,7.4,0,0,1,.9,5.2l-.4,15.2a3.4,3.4,0,0,0,2.3,2.8,7.1,7.1,0,0,0,4.4-.1l.6-.5a4.3,4.3,0,0,0,1-2.8s.1-3.6.3-9.4c.6-13.8-.5-14.6-6.2-18.9-1.6-1.2-3.7-2.8-6.2-5l4.4-13.3L95.8,77Z"/><circle class="cls-2" cx="81.5" cy="47.7" r="7.7" transform="translate(-7.9 17.4) rotate(-11.6)"/><path class="cls-2" d="M55.6,81.3l5.1.9a1.2,1.2,0,0,0,1.4-.9l4.6-20a.9.9,0,0,0-.6-1l-3.5-1.1a2.3,2.3,0,0,0-2.9,1.5h0L54,78.5a2.2,2.2,0,0,0,1.4,2.8Z"/></svg>