<svg id="Layer_1" data-name="Layer 1" xmlns="http://www.w3.org/2000/svg" viewBox="0 0 160 160"><defs><style>.cls-1{fill:#c3f1fc;stroke-miterlimit:10;}.cls-1,.cls-2{stroke:#3273ad;}.cls-2{fill:#fad264;stroke-linecap:round;stroke-linejoin:round;}</style></defs><title>leadership</title><path class="cls-1" d="M93.3,98.1l-2.7,8.5-5.8,7.2c-1.2,1.3-1.5,3.3-.2,4.5a2.8,2.8,0,0,0,4.2-.4l7.1-7.8a3.1,3.1,0,0,0,.7-1.5l1.4-6.5Z"/><path class="cls-1" d="M103,64.2a5.6,5.6,0,1,0,5.6,5.6A5.6,5.6,0,0,0,103,64.2Z"/><path class="cls-1" d="M115.1,90h-.6l4.6-23.7-2.2-.4-4.5,23.5a10.6,10.6,0,0,1-4.7-2.3,7.8,7.8,0,0,1-1.9-3c-.5-1.4-.8-3-1.2-4.4h0a3.6,3.6,0,0,0-3.3-2.5H99.8a12.3,12.3,0,0,0-5.5,1.3h0c-3.4,1.9-5.6,3.5-7,5.9s-1.8,5.9-1.8,10.2a2.2,2.2,0,1,0,4.4,0c0-4.2.2-6.3,1.2-7.9s2.1-2.4,4.6-3.8l-2,9.7-.2.8c-.3,1.2-.8,3.9-.1,5l4.5,4.2.9,1.4.2.3,2.1,3.3,6.6,10.3a3.1,3.1,0,1,0,5.3-3.4L101.2,96l1.1-4.5.8-3.3c1.8,3.2,5.3,4.6,8.5,5.4v.5a1.1,1.1,0,0,0,2.2.4v-.4h.4a2.2,2.2,0,1,0,1-4.3Z"/><path class="cls-1" d="M122.8,39.1a1.2,1.2,0,0,0-1.2,1l-1,5.3,2.5.5,1-5.3a1.2,1.2,0,0,0-1-1.5h-.3Z"/><rect class="cls-1" x="111.1" y="42" width="17.4" height="27.64" transform="translate(42.2 162.7) rotate(-79)"/><polygon class="cls-2" points="123 51 130.9 57.9 121 61.4 121.5 58.4 108.3 55.8 109.1 51.5 122.4 54 123 51"/><path d="M101.2,77h0Z"/><path class="cls-1" d="M61.2,100.7l-2.4,7.5-5.1,6.3c-1,1.2-1.3,2.9-.1,3.9a2.4,2.4,0,0,0,3.6-.3l6.2-6.9a2.8,2.8,0,0,0,.6-1.3l1.2-5.7Z"/><path class="cls-1" d="M69.8,70.9a4.9,4.9,0,1,0,4.9,4.9A4.9,4.9,0,0,0,69.8,70.9Z"/><path class="cls-1" d="M66.9,82.2a10.8,10.8,0,0,0-4.8,1.2h0c-3,1.6-4.9,3.1-6.1,5.2s-1.6,5.2-1.6,8.9a1.9,1.9,0,1,0,3.9,0c0-3.6.2-5.6,1-6.9s1.8-2.1,4-3.4l-1.8,8.5v.7c-.2,1.1-.7,3.4-.1,4.4l4,3.7.8,1.2.2.3,1.9,2.9,5.8,9a2.8,2.8,0,1,0,4.6-3l-10.3-16,.9-3.9.7-2.9c2,3.6,6.6,4.6,9.7,5.3a1.9,1.9,0,1,0,.9-3.8c-3.6-.8-5.4-1.5-6.5-2.6a6.8,6.8,0,0,1-1.6-2.7c-.5-1.3-.7-2.7-1.1-3.9h0a3.2,3.2,0,0,0-2.9-2.2Z"/><path class="cls-1" d="M32.6,103l-2.1,6.5-4.4,5.5a2.4,2.4,0,0,0-.1,3.4,2.1,2.1,0,0,0,3.2-.3l5.4-6a2.4,2.4,0,0,0,.5-1.1l1.1-5Z"/><path class="cls-1" d="M40.1,76.9a4.3,4.3,0,1,0,4.3,4.3A4.3,4.3,0,0,0,40.1,76.9Z"/><path class="cls-1" d="M37.6,86.8a9.5,9.5,0,0,0-4.2,1h0c-2.6,1.4-4.3,2.7-5.4,4.5s-1.4,4.5-1.4,7.8a1.7,1.7,0,1,0,3.4,0c0-3.2.2-4.9.9-6.1a9.4,9.4,0,0,1,3.5-2.9l-1.6,7.4v.6c-.2.9-.6,3-.1,3.8l3.5,3.2.7,1.1v.2l1.6,2.5,5.1,7.9a2.4,2.4,0,1,0,4.1-2.6l-9-14,.8-3.4.6-2.5c1.7,3.1,5.7,4,8.5,4.6a1.7,1.7,0,1,0,.8-3.3c-3.1-.7-4.7-1.3-5.7-2.3a6,6,0,0,1-1.4-2.3c-.4-1.1-.6-2.3-.9-3.4h0a2.8,2.8,0,0,0-2.6-1.9Z"/></svg>