<?xml version="1.0" encoding="UTF-8"?>
<svg width="35px" height="35px" viewBox="0 0 35 35" version="1.1" xmlns="http://www.w3.org/2000/svg" xmlns:xlink="http://www.w3.org/1999/xlink">
    <!-- Generator: Sketch 44.1 (41455) - http://www.bohemiancoding.com/sketch -->
    <title>Group 27</title>
    <desc>Created with Sketch.</desc>
    <defs></defs>
    <g id="Page-1" stroke="none" stroke-width="1" fill="none" fill-rule="evenodd">
        <g id="sv.co/stats" transform="translate(-1131.000000, -1431.000000)" fill-rule="nonzero" fill="#0F89BF">
            <g id="Group-27" transform="translate(1131.000000, 1431.000000)">
                <path d="M17.4659552,15.137193 C18.2001365,15.137193 18.839347,14.8612183 19.2125439,14.6562671 C19.5857407,14.8612183 20.2249513,15.137193 20.9591326,15.137193 C22.0431774,15.137193 23.2547368,14.5212476 23.7723002,13.7137232 C23.823538,13.6362865 25.0344834,11.7855166 25.0344834,8.7330117 C25.0344834,6.4857115 23.2063645,4.65766082 20.9591326,4.65766082 C20.3006823,4.65766082 19.7004288,4.89924951 19.2125439,5.15605263 C18.7246589,4.89931774 18.1244055,4.65766082 17.4659552,4.65766082 C15.218655,4.65766082 13.3906043,6.48577973 13.3906043,8.7330117 C13.3906043,12.1825244 14.4635965,13.5227583 14.6970663,13.7725341 C15.2232943,14.435078 16.3038596,15.137193 17.4659552,15.137193 Z M17.4659552,5.82207602 C17.9852924,5.82207602 18.5162281,6.09102339 18.9208772,6.32565302 C19.1013353,6.43044834 19.3237524,6.43044834 19.5042105,6.32565302 C19.9088596,6.09102339 20.4397953,5.82207602 20.9591326,5.82207602 C22.5642203,5.82207602 23.8701365,7.12792398 23.8701365,8.73307992 C23.8701365,11.4123197 22.8134503,13.0529532 22.7977583,13.0762865 C22.5258772,13.5001072 21.7043665,13.972846 20.9592008,13.972846 C20.2087817,13.972846 19.5642495,13.5088402 19.5601559,13.5059064 C19.4571345,13.4290838 19.3348733,13.3906043 19.2126121,13.3906043 C19.0903509,13.3906043 18.9680897,13.4290156 18.8650682,13.5059064 C18.858655,13.5105458 18.2165107,13.972846 17.4660234,13.972846 C16.7243372,13.972846 15.9499708,13.4890546 15.5977875,13.0343275 C15.5861209,13.0191813 15.5663353,12.997076 15.552963,12.9830897 C15.5430702,12.9725828 14.5550877,11.8896979 14.5550877,8.73307992 C14.5549513,7.12792398 15.8607992,5.82207602 17.4659552,5.82207602 Z" id="Shape"></path>
                <path d="M18.7136062,3.79309942 C18.8224951,3.97471735 19.0151657,4.07548733 19.2131579,4.07548733 C19.3150195,4.07548733 19.418655,4.04867446 19.5123977,3.99225146 C19.7877583,3.82693957 19.8774074,3.4694347 19.7114815,3.19346004 L17.9648928,0.28245614 C17.7995127,0.00709551657 17.442076,-0.0825536062 17.1661014,0.0833723197 C16.8907407,0.248684211 16.8010916,0.606189084 16.9670175,0.882163743 L18.7136062,3.79309942 Z" id="Shape"></path>
                <path d="M20.5312183,3.70924951 C20.5719493,3.72262183 20.9434405,3.84201754 21.4348051,3.84201754 L21.4354191,3.84201754 C22.1317349,3.84201754 22.7372417,3.60445419 23.1849415,3.15620858 C24.2503606,2.09078947 23.7589961,0.566617934 23.7374366,0.501939571 C23.6792398,0.328440546 23.5429922,0.192192982 23.3694932,0.133996101 C23.3281481,0.120623782 22.9567251,0.00122807018 22.4647466,0.00122807018 C21.7684308,0.00122807018 21.163538,0.238177388 20.7152242,0.686491228 C19.6498051,1.75252437 20.1417836,3.27608187 20.162729,3.34076023 C20.2208577,3.51480507 20.3571053,3.65105263 20.5312183,3.70924951 Z M21.5383723,1.5097076 C21.7665887,1.28149123 22.0780409,1.16564327 22.4646784,1.16564327 C22.5467544,1.16564327 22.624191,1.17089669 22.6928947,1.17901559 C22.7284405,1.49278752 22.7121345,1.98244639 22.3616569,2.33292398 C22.1334405,2.56114035 21.8213743,2.67760234 21.4353509,2.67760234 C21.3532749,2.67760234 21.2758382,2.67180312 21.2071345,2.66423002 C21.1715887,2.34984405 21.1878947,1.86018519 21.5383723,1.5097076 Z" id="Shape"></path>
                <path d="M33.1852534,16.3016082 L5.23983431,16.3016082 C4.27689084,16.3016082 3.49324561,17.0852534 3.49324561,18.0481969 L3.49324561,20.3769591 C3.49324561,20.6983041 3.75407407,20.9591326 4.0754191,20.9591326 C4.39676413,20.9591326 4.65759259,20.6983041 4.65759259,20.3769591 L4.65759259,18.0481969 C4.65759259,17.7273977 4.91896686,17.4660234 5.23976608,17.4660234 L6.98635478,17.4660234 L6.98635478,20.3770273 C6.98635478,20.6983723 7.24718324,20.9592008 7.56852827,20.9592008 C7.88987329,20.9592008 8.15070175,20.6983723 8.15070175,20.3770273 L8.15070175,17.4660234 L23.2878265,17.4660234 L23.2878265,20.3770273 C23.2878265,20.6983723 23.548655,20.9592008 23.87,20.9592008 C24.191345,20.9592008 24.4521735,20.6983723 24.4521735,20.3770273 L24.4521735,17.4660234 L30.2741131,17.4660234 L30.2741131,20.3770273 C30.2741131,20.6983723 30.5349415,20.9592008 30.8562865,20.9592008 C31.1776316,20.9592008 31.43846,20.6983723 31.43846,20.3770273 L31.43846,17.4660234 L33.1850487,17.4660234 C33.505848,17.4660234 33.7672222,17.7273977 33.7672222,18.0481969 L33.7672222,22.1235478 L32.0206335,22.1235478 C31.6992885,22.1235478 31.43846,22.3843762 31.43846,22.7057212 L31.43846,27.9454873 L30.8562865,27.9454873 C30.5349415,27.9454873 30.2741131,28.2063158 30.2741131,28.5276608 C30.2741131,28.8490058 30.5349415,29.1098343 30.8562865,29.1098343 L32.6028752,29.1098343 L32.6028752,33.1851852 C32.6028752,33.5059844 32.341501,33.7673587 32.0207018,33.7673587 L13.9727778,33.7673587 L13.9727778,30.8563548 C13.9727778,30.5350097 13.7119493,30.2741813 13.3906043,30.2741813 C13.0692593,30.2741813 12.8084308,30.5350097 12.8084308,30.8563548 L12.8084308,33.7673587 L11.6440156,33.7673587 L11.6440156,30.8563548 C11.6440156,30.5350097 11.3831871,30.2741813 11.0618421,30.2741813 C10.7404971,30.2741813 10.4796686,30.5350097 10.4796686,30.8563548 L10.4796686,33.7673587 L9.31525341,33.7673587 L9.31525341,30.8563548 C9.31525341,30.5350097 9.05442495,30.2741813 8.73307992,30.2741813 C8.41173489,30.2741813 8.15090643,30.5350097 8.15090643,30.8563548 L8.15090643,33.7673587 L2.91114035,33.7673587 C2.59034113,33.7673587 2.32896686,33.5059844 2.32896686,33.1851852 L2.32896686,30.856423 C2.32896686,30.535078 2.0681384,30.2742495 1.74679337,30.2742495 C1.42544834,30.2742495 1.16461988,30.535078 1.16461988,30.856423 L1.16461988,33.1851852 C1.16461988,34.1481287 1.94826511,34.9317739 2.91120858,34.9317739 L32.0210429,34.9317739 C32.9839864,34.9317739 33.7676316,34.1481287 33.7676316,33.1851852 L33.7676316,29.1098343 C33.7676316,28.3535478 33.1679922,27.9454191 32.6032164,27.9454191 L32.6032164,23.2878265 L33.7676316,23.2878265 C34.3323392,23.2878265 34.9320468,22.8796979 34.9320468,22.1234113 L34.9320468,18.0480604 C34.9318421,17.0852534 34.1481969,16.3016082 33.1852534,16.3016082 Z" id="Shape"></path>
                <path d="M22.7057212,29.1099025 C23.0270663,29.1099025 23.2878947,28.8490741 23.2878947,28.527729 C23.2878947,28.206384 23.0270663,27.9455556 22.7057212,27.9455556 L16.30154,27.9455556 L16.30154,23.287963 L24.4523099,23.287963 L24.4523099,32.0209064 C24.4523099,32.2357505 24.5704776,32.4331287 24.7597368,32.5343762 C24.9483821,32.635078 25.1789181,32.6240253 25.3576706,32.5052437 L26.7811404,31.5562865 L28.2046101,32.5052437 C28.3024464,32.5704678 28.4148148,32.6030799 28.527729,32.6030799 C28.6220175,32.6030799 28.7163743,32.5803606 28.8025439,32.5343762 C28.9917349,32.4330604 29.1099708,32.2356823 29.1099708,32.0209064 L29.1099708,23.287963 L29.6921442,23.287963 C30.0134893,23.287963 30.2743177,23.0271345 30.2743177,22.7057895 C30.2743177,22.3844444 30.0134893,22.123616 29.6921442,22.123616 L1.74672515,22.123616 C0.767475634,22.123616 0.000136452242,22.8909552 0.000136452242,23.8702047 L0.000136452242,27.3633821 C0.000136452242,28.3263255 0.783781676,29.1099708 1.74672515,29.1099708 L22.7057212,29.1099708 L22.7057212,29.1099025 Z M25.6166569,23.287963 L27.9454191,23.287963 L27.9454191,30.932768 L27.1041228,30.3720858 C26.9085185,30.2417057 26.6534893,30.2417057 26.457885,30.3720858 L25.6165887,30.932768 L25.6165887,23.287963 L25.6166569,23.287963 Z M6.986423,23.287963 L15.137193,23.287963 L15.137193,27.9455556 L6.986423,27.9455556 L6.986423,23.287963 Z M1.1644152,27.3633138 L1.1644152,23.8701365 C1.1644152,23.5382846 1.41473684,23.287963 1.74658869,23.287963 L5.82193957,23.287963 L5.82193957,27.9455556 L1.74665692,27.9455556 C1.42005848,27.9455556 1.1644152,27.6899123 1.1644152,27.3633138 Z" id="Shape"></path>
                <path d="M12.2261891,24.4523099 C11.9048441,24.4523099 11.6440156,24.7131384 11.6440156,25.0344834 L11.6440156,26.1988986 C11.6440156,26.5202437 11.9048441,26.7810721 12.2261891,26.7810721 C12.5475341,26.7810721 12.8083626,26.5202437 12.8083626,26.1988986 L12.8083626,25.0344834 C12.8083626,24.7131384 12.5475341,24.4523099 12.2261891,24.4523099 Z" id="Shape"></path>
                <path d="M9.89735867,24.4523099 C9.57601365,24.4523099 9.31518519,24.7131384 9.31518519,25.0344834 L9.31518519,26.1988986 C9.31518519,26.5202437 9.57601365,26.7810721 9.89735867,26.7810721 C10.2187037,26.7810721 10.4795322,26.5202437 10.4795322,26.1988986 L10.4795322,25.0344834 C10.4796004,24.7131384 10.2187719,24.4523099 9.89735867,24.4523099 Z" id="Shape"></path>
            </g>
        </g>
    </g>
</svg>