<svg xmlns="http://www.w3.org/2000/svg" width="100" height="100" viewBox="0 0 320 240"><path d="M306.56 145.37c5.59-14.91 5.94-55.46-24.21-97.95C241.6-10 187.89 13 167.45 29.59c-30.16 24.44-30.16 50.19-87.6 48-54.24-2.09-69.32 48.21-69.32 61 0 20.25 9.46 70.44 70.87 69.77 90.21-1 75.41.68 125.68 1.54 76.81 1.28 90.65-40.99 99.48-64.53z" fill="#f4ece0"/><path fill="#fabfac" d="M210.73 50.56V33.69l-6.43 1.11-.47 15.76h6.9z"/><path d="M199.69 16.16s-4 14 3.59 18.64c0 0 10.43 2.55 14.08-5.52 0 0 6.08-.31 5.39-3.61 0 0 .76-1.91-2.49-1.08l-1.93-6.35-3-7.6-4.56-1h-7.31s-3.07 3.11-3.77 6.52z" fill="#fbd2c0"/><path d="M218.18 3.87s-13.18-8.56-18.91 9.8l-1.52 2.21 5.52-2.9s7.25 4.08 9.53 4.56l.13-6.07s3.1 5.46 3 6.07a12.23 12.23 0 0 0 1.11 3 9.82 9.82 0 0 1 0 5.39l3.17-1.38s6.8-3.43 4.84-12.7c-1.48-7.16-6.87-7.98-6.87-7.98z" fill="#524d38"/><g fill="#644e40"><path d="M207.28,17s-1.59-2.9-5.25-1Z"/><circle cx="203.58" cy="19.57" r="1.07"/></g><ellipse cx="207" cy="24.44" rx="1.66" ry="1.24" fill="#ef9e94"/><path d="M203.58 28.58l5.08 1.42a13.48 13.48 0 0 1-2.54 1 2.4 2.4 0 0 1-2.54-2.42z" fill="#ca5c4c"/><g fill="#644e40"><path d="M216,19.31s-1.59-2.9-5.24-1Z"/><circle cx="211.77" cy="21.62" r="1.07"/></g><path d="M220.09,10.37s-.32,9.2-4.12,13.71Z" fill="#625b4b"/><g fill="#f5beab"><circle cx="209.4" cy="29.64" r=".46"/><circle cx="202.97" cy="28.17" r=".46"/></g><path d="M201.55 234.36H283s-58.45-10.16-81.45 0z" fill="#f4ece0"/><g fill="#efc4be"><path d="M166.21 51.77s9.44-3.5 17.31 9L182 69.08l-7.5-5.58-2.5-2.08z"/><path d="M191.38 73.31l-7.86-12.51-7.18 13.8 12.28 17 2.76-18.29z"/></g><path d="M217.79 35s2.28-2.93 5.11-1.54 8 2.47 7.75 5.09 1-4.76 1-4.76 7.68-.89 8.54 2.55 8.46 7.74 4.89 19.4-.65 32.61-3.84 35.71-13.87 3.06-14 1.49a20.45 20.45 0 0 1 .51-4.46s-.22-14.52-2.13-19.49A62.43 62.43 0 0 0 221 59.6s-4.13-10.14-3.5-13.07-2.57-10.69.29-11.53z" fill="#0c86a9"/><path fill="#ea7644" d="M179.45 72.74l9.11 1.55 1.66-9.81-18.21-3.09-1.66 9.81 2.01.34-2.65 15.64h0l-.77 4.56 18.21 3.09 1.66-9.81-11.13-1.88 1.77-10.4z"/><path d="M191.38,66s-2.22,31.05-6.24,41.36,9.84,2.8,9.84,2.8l6-55.74S195,51.53,191.38,66Z" fill="#7e1518"/><path fill="#f4854a" d="M136.828 167.48l19.38-114.218 19.472 3.304-19.38 114.218z"/><path d="M203.66 40.92l-7.39 5.56A46.64 46.64 0 0 0 195 55c-.16 4.17.32 3.85.32 3.85l6.1-11.21 4.15-2.73-1-4.66z" fill="#7e1518"/><path d="M192,82.93s-1,23.32-.65,27.24,11.14,2.28,11.14,2.28l2.75-.16,8.9-9.93L223.9,90.9l3.32-10.83-.27-13-8.24-23.23a10.35,10.35,0,0,0-12.19-1.41c-7.11,3.76-12,17.88-12,17.88l-2.32,15.84Z" fill="#e4372f"/><path d="M193.11 116.13s-14.24 30-14.61 34.85.7 12 10 23.71l21.32 27.08s10.1-2.62 11.39-8c0 0-14.59-17.51-15.5-20.2S202 143.39 202 143.39z" fill="#14466c"/><path d="M179.53 234.84s-3.41-1.93 1.08-3.68 4.71-.87 6.59-2.48 7-6.46 7.43-7.39 1.15-2.38 3.9-.32 4.33 4.15 5.49 4.13 2.87-2.94 4.77-3.3 3.46-.84 4.17 3.54.47 5.78.47 5.78-27.17 4.88-33.9 3.72z" fill="#412d2d"/><path d="M212.62 236.44s2.28-3.51.81-5.33c0 0-31.42 3.61-35 2.79a5.07 5.07 0 0 0 2.72 3.85c2.52 1.32 31.47-1.31 31.47-1.31z" fill="#9b796a"/><path d="M221.69 199.82s5.81.84 6.49 3.22-3.4 8.45-4.69 10.49-10.16 14.69-10.16 14.69l-2.94-4.61s5-7.88 4.12-9.62a30.83 30.83 0 0 1-1.55-5.41s9.23-2.71 8.73-8.76z" fill="#412d2d"/><path d="M232.46 207.81s-1.85-5.81-4.27-4.78c0 0-11.8 23.26-14.84 25.17l.09 2.9s1.3-.25 3.8-1 15.22-22.29 15.22-22.29z" fill="#9b796a"/><path d="M196.89 221.65l2.09-6.4 13.1-.78s1 9.76-.34 9.45-11.86 4.48-14.85-2.27zm22.9-26.11l3.35 5.13s-6.65 9.41-10.16 7.9.25-8.89.25-8.89z" fill="#fcd4c0"/><path d="M224.39 134.5l1.2-11.18 3-41.12.41-14.3-3.83-11.06-14.31 35.24-9.66 13.55L212.68 127s5.84 9.43 11.71 7.5z" fill="#e4372f"/><path d="M192.19 120.08l-.81-9.91 11.14-1.82c1.23-.08 2.75 3.94 2.75 3.94s7.82 11.08 8.93 16.11.31 25.75.31 25.75l-.72 38.85.74 21s-12.05 6.88-15.56 1.27 1.59-10.24-.08-33.24-6.7-61.95-6.7-61.95z" fill="#20587e"/><path d="M210.34 36.77s5.76-4.58 7.53-.61-4.36 8.91-4.36 8.91l-6.81 9.36-1.93-6.13s6.23-9.59 5.57-11.53z" fill="#7e1518"/><path d="M207.81,91.31l-4.72,9.34-4.37,9.52s2.42,6.6,5.28,6,10.79-16.05,10.79-16.05Z" fill="#efc4be"/><path d="M194.84 109.87l-.06-2.05h.22l.05 2zm.71-14.32h-.25c.34-3.81.85-7.92 1.52-12.21h.26c-.67 4.29-1.18 8.4-1.53 12.21zm2.37-17.25h-.25l.36-2h.26c-.13.7-.29 1.32-.37 2zm.75-4h-.25l.39-2 .25.05zm3.07-14l-.25-.06c1.73-7.13 3.14-11.87 3.16-11.91l.24.07s-1.42 4.73-3.15 11.85z" fill="#7e1518"/><path d="M218.05,83.53a6.1,6.1,0,0,0-2.64-4.24,6.77,6.77,0,0,0-4.83-.59l-.07-.25a6.92,6.92,0,0,1,5,.62,6.32,6.32,0,0,1,2.76,4.4Z" fill="#50565c"/><g fill="#14466c"><path d="M231.49 44.6l-1-6.06h.25l1 6.07zm1.87 13.34l-.19-1.48h.25l.2 1.48zM233 55l-.2-1.49h.26l.2 1.48zm2.48 29v-1.49h.25v1.5zm0-3q0-.73-.06-1.5h.26q0 .76.06 1.5zm-.68-10.45l-.93-8.94h.25l.94 8.94zm-.29 23.31l-.23-.11a17.18 17.18 0 0 0 1.11-6h.26a17.41 17.41 0 0 1-1.14 6.11z"/><path d="M230 86.14l-.06-.25 1.45-.32.06.25zm6.44-1.44v-.25l2-.45v.25zm4-.9v-.25l.67-.15v-1.15h.26v1.35zm.83-13.8H241v-1.71h-10.34V68h10.61zm2.5-7.61a7.77 7.77 0 0 1-1.45-.77l.15-.21a7.15 7.15 0 0 0 1.39.74zm-3-2.15a11.53 11.53 0 0 1-1.23-1.66l.22-.14a11.09 11.09 0 0 0 1.2 1.63zM236 46.84a75.19 75.19 0 0 1-.58-9.48v-2.83h.26l-.06 2.81a74.52 74.52 0 0 0 .58 9.44z"/></g><path d="M214.75 48.05a9.35 9.35 0 0 1-2.09 2.82 48.65 48.65 0 0 0-2.08 4.79c-.31 4.16.07 12 0 12.92s-.06 5.21-.08 7.89c2.91 5.36 8.24 8.34 12.57 10l2.94-18.21s3.28-13.36 2.57-17.81c-.42-2.63-2.68-7.86-4.73-9.57a11.42 11.42 0 0 0-3.45-1.66 58.58 58.58 0 0 0-5.62 7.74 2.77 2.77 0 0 1-.03 1.09zM206 87.62L211.12 98s4.79 3.43 6.83 2.48c1.48-.7 3.42-7 4.35-10.32-4.7-2.08-10.68-5-13.76-7.62z" fill="#7e1518"/><path d="M213.18 39.79l.69 2.3 2-3.71c-1.39 0-2.49.39-2.69 1.41z" fill="#ca9580"/><g fill="#0c86a9"><path d="M220.46 39.19l.73-.83-3.4-3.4-1.88 3.41a16 16 0 0 1 4.55.82zm-9.9 37.28a17.81 17.81 0 0 1-2.07-7 32 32 0 0 1 2.09-13.85 9.28 9.28 0 0 1 .36-2.23 8.49 8.49 0 0 1 1.72-2.55l2.19-3.94a25.5 25.5 0 0 0-1-4.84l-9.1 16.78c-3.33 6.36-1.09 17.21 2.23 22.06a8.8 8.8 0 0 0 1.55 1.62l2-4 .03-2.05zm19.36 11.75a33.48 33.48 0 0 1-6.79-1.79l-.27 1.66-.55 2.06 6.69 2.76z"/><path d="M220.46 39.19a15.31 15.31 0 0 0-4.54-.82l-2 3.71a25.5 25.5 0 0 1 1 4.84 57.5 57.5 0 0 1 5.54-7.73zm-9.52 14.23a9.82 9.82 0 0 0-.36 2.23 48.65 48.65 0 0 1 2.08-4.79 8.66 8.66 0 0 0-1.72 2.56z"/></g><path d="M223.13 86.43c-4.33-1.62-9.66-4.61-12.57-10v2.1l-2 4c3.08 2.61 9.06 5.53 13.76 7.62.35-1.23.55-2.06.55-2.06z" fill="#7e1518"/><path d="M216.21 103.62l-.11-.17-10.27-15.83 2.2-4.35 12 14.2zm-10.09-16l10.09 15.53 3.51-5.65-11.64-13.77z" fill="#50565c"/><path d="M160.13 54.05s-.45 2.5 3.51.91c0 0 .84 2.06 4.85 1.11 0 0 3 1.1 5 0a3.8 3.8 0 0 0 2.19-2.57l-5.19-1.42-4.84-.33h-3.85s-2.36.97-1.67 2.3z" fill="#efc4be"/><path fill="#0f3b59" d="M204 116.13l5.51 98.49"/><path d="M175.65 231.91L98.4 218.8a12.33 12.33 0 0 1-10.06-14.18l6.23-36.68a12.31 12.31 0 0 1 14.17-10.05L186 171a12.32 12.32 0 0 1 10.05 14.18l-6.22 36.68a12.35 12.35 0 0 1-14.18 10.05z" fill="#ffc552"/><path fill="#e2a130" d="M192.04 175.25l-50.54 20.64-37.21-36.2-2.28 2.33 38.05 37.01.7.68 52.53-21.45-1.25-3.01z"/></svg>
