<svg xmlns="http://www.w3.org/2000/svg" xmlns:xlink="http://www.w3.org/1999/xlink" width="100" height="100" viewBox="0 0 128 96"><defs><clipPath id="A"><path d="M49.22,20.3h68.27c.51,0,.92.41.92.92h0v37.87c0,.51-.41.92-.92.92H49.22c-.51,0-.92-.42-.92-.92V21.22c0-.51.41-.92.92-.92Z" fill="none" stroke="none"/></clipPath><path id="B" d="M49.33,20.86h68.05c.51,0,.92.41.92.92h0v37.18c0,.51-.42.92-.92.92H49.33c-.51,0-.92-.41-.92-.92V21.78c0-.51.41-.92.92-.92Z"/></defs><path d="M46.25 88.34c19.3-.33 13.62-.96 48.24-.59 23.58.26 27.2-19.01 27.2-26.78 0-4.9-5.79-24.21-26.61-23.41-22.05.85-22.05-9.04-33.62-18.41-7.84-6.36-28.46-15.18-44.1 6.84C5.79 42.3 5.92 57.86 8.07 63.59c3.39 9.04 8.7 25.27 38.18 24.75z" fill="#f4ece0"/><path d="M112.31 75.34v4.02a3.14 3.14 0 0 1-3.14 3.14h-2.08a3.14 3.14 0 0 1-3.14-3.14v-4.02" fill="#dec6bb"/><path d="M105.9 75.37l-.18-.06s1.15-3.51-1.1-5.11l.11-.16c2.35 1.69 1.17 5.3 1.17 5.33zm1.74-.01l-.19-.03c0-.06.92-5.5-.91-7.9l.15-.12c1.88 2.48.99 7.82.95 8.05z" fill="#040505"/><g fill="#f1c37e"><circle cx="106.11" cy="66.46" r="1.21"/><circle cx="103.95" cy="69.42" r="1.21"/></g><path d="M108.88,75.28h.64c.44-.11.72-.54.64-.99-.15-.79-.61-.59-.68-1.2s.97-.81.6-1.24c-.44-.59-.84-1.2-1.2-1.84v5.26h0Z" fill="#209c53"/><g clip-path="url(#A)" fill="gray"><path d="M48.3 38.57h70.11v21.45H48.3z"/><path d="M48.3 20.3h70.11v18.27H48.3z"/></g><g fill="#fff"><use xlink:href="#B"/><use xlink:href="#B"/></g><g opacity=".04"><use xlink:href="#B" fill="#fff"/></g><path d="M117.95,20.41H48.77c-.2,0-.35.16-.35.35h0v1.5h69.88v-1.5c0-.19-.16-.35-.35-.35Z" fill="#ffc552"/><g fill="#fff"><circle cx="49.81" cy="21.34" r=".48"/><circle cx="51.1" cy="21.34" r=".48"/><circle cx="52.39" cy="21.34" r=".48"/></g><path d="M74.19 26.76h18.75v1.59H74.19zm-20.02 5.38h58.38v24.49H54.17z" fill="#efeef2"/><path fill="#0c86a9" d="M89.57 40.23l-.31-.63.68.14.51-.5.08.7.62.33-.64.3-.11.69-.48-.52-.69.1.34-.61z"/><path fill="#dec6bb" d="M94.46 51.07l-.62-1.26 1.38.27 1.01-.98.16 1.4 1.25.65-1.28.59-.23 1.39-.96-1.04-1.39.21.68-1.23z"/><path fill="#0c86a9" d="M70.65 40.23l-.32-.63.7.14.5-.5.08.7.62.33-.63.3-.12.69-.48-.52-.69.1.34-.61z"/><path fill="#ffc552" d="M75.92 34.74l-.63-1.26 1.38.28 1.01-.99.17 1.4 1.24.66-1.28.59-.24 1.38-.95-1.03-1.39.2.69-1.23z"/><path d="M102.06 50.05l-.27-.55.6.11.44-.42.07.6.55.29-.56.26-.1.6-.42-.45-.61.09.3-.53zm-16.48 0l-.27-.55.6.11.44-.42.07.6.54.29-.55.26-.11.6-.41-.45-.61.09.3-.53z" fill="#0c86a9"/><path fill="#ffc552" d="M90.17 45.27l-.54-1.1 1.2.24.88-.86.14 1.22 1.09.57-1.12.51-.21 1.21-.83-.9-1.21.18.6-1.07z"/><path d="M5.79 91.15h31.24s-22.42-3.9-31.24 0zm38.63 1.44h31.24s-22.41-3.9-31.24 0z" fill="#f4ece0"/><path d="M37.44 67.97s.51.96-2.75 2.47l-4.83 8.48c-1.58 2.56-2.05 5.31-1.85 5.67s-4.72-.17-4.6-.67 1.63-2.19 2.47-6.68 3.31-8.59 3.99-8.98 1.85-2.3 1.97-2.7 5.61 2.41 5.61 2.41z" fill="#efc4be"/><path fill="#dfa09c" d="M29.86 68.25l5.33-.74-3.36-1.96-1.97 2.7z"/><path d="M45.37 68.81s-.37 3.59.96 5.9 6.57 10.78 6.57 10.78 3.71-.39 3.76-1.4-3.76-5.73-5.28-10.84-.39-5.9-.39-5.9l-5.61 1.46z" fill="#efc4be"/><path fill="#dfa09c" d="M45.32 70.5l5.48-1.97-5.44.28-.04 1.69z"/><path d="M49.9,46.91s-5.78-1.01-6.96-.45-6.11,1.14-6.68.84-.72-1.29-.72-1.29l-.46-8.87s-.68-8.01-.28-8.82.39-5.5,1.07-6.01.64-2.57,1.18-2.24c.64.4,1.45.44,2.12.1.87-.39,7.64,12.85,8.65,13.53s1.92,12.64,2.09,13.2Z" fill="#ffc552"/><path d="M29.86 65.1l7.47 3.37c1.6.73 5.25.2 6.06.39 1.04.19 2.09.29 3.14.28.9 0 3.37-.64 4.27-.62.9.03 1.88-.39 2.92-.84s1.1-.96 1.12-1.57-5.02-19.78-5.02-19.78-5.31-.83-5.59-.72a26.32 26.32 0 0 1-3.59.84c-1.01.11-5.24-.93-5.11-.45s-5.37 18.59-5.68 19.09z" fill="#cc2028"/><path d="M39.12 47.24l-3.06 18.28 4.58-19.05-1.52.77zm3.82-.77v20.88l1.29-21.73-1.29.85zm4.09.03l2.48 21.23-.66-20.99-1.82-.24z" fill="#921b1e"/><path d="M12.26 91.56H43.5s-22.42-3.9-31.24 0zM50.87 93h31.24s-22.4-3.9-31.24 0z" fill="#f4ece0"/><path d="M44.79,21.67l-1.85-.96.45-2.75,1.64.48s-.51,1.98-.23,3.23Z" fill="#dfa09c"/><path d="M43.41 17.94s3.73 1.46 4.89 0c0 0-.59-1.04 0-1.29s.34-1.01.34-1.01c.37-.22.68-.53.9-.9.22-.51-.93-.81-.96-1.4s.28-2.86.28-2.86-5.9-1.89-8.31 1.01c-.86 1.04-.28 4.83 0 4.89s-.48 3.42-.48 3.42 2.44.34 2.9.9.44-2.75.44-2.75z" fill="#efc4be"/><path d="M47.55 32.14s3.47-.15 3.43.79v2.33l-2.14.68-1.29-3.8z" fill="#dfa09c"/><path d="M46.11,24.77s2.98,8.53,4.1,12.86-4.23-12.31-5.92-12.86.76-1.57.76-1.57l1.05,1.57Z" fill="#ee5591"/><path d="M27.05,28.22c.08.18-.53,2.08-3.2,2.81s1.35,2.83.84,8.76.9,5.59.84,7.13.53,1.74,1.97,1.97,5.9.37,7.75-1.12-.03-14.69-.28-16.62,1.07-10.5,2.64-10.72-2.3-.67-3.09,0-2.24,1.35-2.64,1.25l-.39-.11s-1.18.84-1.91,1.35-2.78-.84-2.92,1.05-.44,2.28.4,4.27Z" fill="#ec2069"/><path d="M38.23 22.94c.06-.17.09-2.36.96-2.75s4.01-1.32 6.23 2.36 1.43 6.91 2.13 8.03.93 3.57 1.29 3.82-7.5.76-8.03.28-3.54-8.98-2.58-11.73z" fill="#ffc552"/><path d="M34.52 20.41s9.31-4.39 11.31 4.46 3.01 9.52 3.01 9.52 2.12 4.27 1.67 5.16-16.39 9.37-16.23 6.46c.06-.97 13.26-6.35 13.26-6.35s1.68-.73.31-2.75-2.45-12.74-5.56-14.73-6.42.15-6.42.15l-1.34-1.91z" fill="#ee5591"/><path d="M41.26,5.9s.67-2.32,0-2.49-2.66-.81-2.81,0-.9.53-1.42.28-1.28-.07-1.05.77c.22.84-.51,1.45-1.01,1.03s-2.02-.2-1.23.85.23,2.13-.22,1.97-2.02-.2-.34.84,1.65,1.26,1.18,1.63-1.91,1.52-.17,1.57,2.36-1.57,2.8-.9,3.63-5.66,4.26-5.55Z" fill="#0e2227"/><path d="M53.89 91.21c-.21-.77-.36-1.56-.45-2.36-.05-.83-.14-1.65-.28-2.47 0 0-1.12-.79-.28-.9s3.03-.7 3.76-1.4.79.07.79.62 1.15.64 1.29.79a1.75 1.75 0 0 0 .79.34c.17 0 .06-.34.73 0s.73-.17 1.29.06-.53.45.56.22 1.1.08 1.52.17 2.86-1.54 2.08-.06-3.14 4.38-5.95 4.27-2.78 1.26-2.58 1.4-3.14-.16-3.27-.68zm-26.56-1.18a2.39 2.39 0 0 1 .62.21l1.91.86c.9.42 4.86-.28 4.94-.79s-1.04-1.07-1.69-1.18-1.74-1.01-1.74-1.01.17-.59-.31-.62-1.24-.53-1.21-.79-.45-.53-.62-.45l-.79-1.18s.06-.17-.45-.51-4.6-.67-4.6-.67l-1.74 3.09s-.96.76-.39 1.29 2.44 1.8 3.71 1.74h2.36z" fill="#093a45"/><path fill="#dfa09c" d="M45.31 35.31l2.88-.44 1.35 4.37-4.05.42-.18-4.35z"/><path d="M49.9,34.51s1.43-.81,2.1,0-1.39,1.18-1.03,2.05.47,2.22.05,2.27-1.86.84-1.97,0-1.18-4.02-1.18-4.02l2.02-.31Z" fill="#efc4be"/><path d="M36.98,9.82s0-3.86,4.27-3.93c0,0-4.39,2.77-4.27,3.93Z" fill="#ee5591"/><path d="M48.84,11.32v-.84l.67.42s.11-2.11-2.3-3.06-2.95-3.37-8.14-.79c0,0-2.47,2.24-1.97,3.93s1.01,4.58,2.13,5.22,1.71.79,1.8,1.29.62-1.32.51-2.19-1.91-2.78-.79-2.58,1.12,1.08,1.52,1.08.11-.45.22-1.12.79,0,1.23-.17-.17-.9.56-1.01,1.15.95,1.69.25.39-1.91,1.07-1.32c.54.4,1.15.7,1.8.88Z" fill="#0e2227"/><path d="M27.86 29.14s3.54 11.01 2.59 18.87c0 0 .53 1.14-1.21 1.01 0 0 .72-15.76-2.75-19.61.02 0 .7-2.59 1.38-.26zm1.72-6.25s2.55 3.75 2.82 11.26c0 0-2.86-11.11-3.85-11.17l.99.07m1.08 14.85l4.46-.75.29 5.81s-2.25 2.7-3.58.79-1.18-5.84-1.18-5.84z" fill="#ee5591"/><path d="M48.05,13.53c0,.22-.18.39-.39.39s-.39-.18-.39-.39" fill="#0e2227"/><ellipse cx="41.54" cy="14.02" rx=".28" ry=".48" fill="#dfa09c"/><g fill="#040505"><path d="M48.12 16.48a1.18 1.18 0 0 1-.46-.09l.04-.09a1.39 1.39 0 0 0 .9 0l.03.09a1.44 1.44 0 0 1-.51.09zm-1.49-3.21l-.04-.09s1.01-.42 1.57 0l-.06.08c-.51-.39-1.46 0-1.47.01zm1.99 2.24l-.03-.09c.21-.06.79-.28.86-.53.02-.06 0-.13-.04-.18l-.9-1.22.08-.06.9 1.22a.29.29 0 0 1 .05.27c-.11.34-.89.58-.92.59z"/><path d="M47.29,16.69l-.02-.09c.14-.03.26-.11.33-.23.05-.1.06-.21.03-.31l.09-.03c.04.13.03.27-.04.39-.09.14-.23.24-.4.28Z"/></g><path d="M42.29,21.11s-1.52-3.4-4.25,0-2.64,13.43-2.64,13.43l-.22,4.68s2.02,2.53,10.28.44h2.08l-1.07-4.79-5.67-.2s1.61-8.18,1.54-10.87l-.06-2.7Z" fill="#db7527"/></svg>
