<svg id="ff48ae72-0e5a-4a79-9ead-78f785cffdc7" data-name="Layer 1" xmlns="http://www.w3.org/2000/svg" xmlns:xlink="http://www.w3.org/1999/xlink" viewBox="0 0 320 240"><defs><clipPath id="e100165e-c54f-4929-938d-78211b623303"><path d="M122.78,49.51H296.46a2.35,2.35,0,0,1,2.35,2.35v96.35a2.35,2.35,0,0,1-2.35,2.35H122.78a2.35,2.35,0,0,1-2.34-2.35V51.86A2.35,2.35,0,0,1,122.78,49.51Z" fill="none"/></clipPath></defs><title>federated-sign-in-icon-1</title><path d="M115.24,222.63c49.09-.84,34.64-2.45,122.73-1.5,60,.65,69.21-48.36,69.21-68.13,0-12.47-14.73-61.59-67.7-59.55-56.09,2.17-56.09-23-85.54-46.84C134,30.44,81.53,8,41.74,64c-29.44,41.49-29.1,81.09-23.64,95.65C26.72,182.65,40.24,223.94,115.24,222.63Z" fill="#f4ece0"/><path d="M283.29,189.56v10.22a8,8,0,0,1-8,8H270a8,8,0,0,1-8-8V189.56" fill="#dec6bb"/><path d="M267,189.64l-.47-.16c0-.09,2.93-8.93-2.79-13l.29-.41C270,180.36,267,189.55,267,189.64Z" fill="#040505"/><path d="M271.41,189.6l-.49-.08c0-.14,2.33-14-2.31-20.11l.39-.3C273.78,175.42,271.51,189,271.41,189.6Z" fill="#040505"/><circle cx="267.52" cy="166.96" r="3.09" fill="#f1c37e"/><circle cx="262.03" cy="174.48" r="3.09" fill="#f1c37e"/><path d="M274.57,189.39h1.63a2.2,2.2,0,0,0,1.63-2.52c-.38-2-1.55-1.49-1.73-3.06s2.47-2.07,1.53-3.15a48.15,48.15,0,0,1-3.06-4.67v13.39Z" fill="#209c53"/><g clip-path="url(#e100165e-c54f-4929-938d-78211b623303)"><rect x="120.44" y="96" width="178.37" height="54.57" fill="gray"/><rect x="120.44" y="49.51" width="178.37" height="46.48" fill="gray"/></g><path d="M123.06,50.94H296.18a2.35,2.35,0,0,1,2.35,2.35v94.59a2.35,2.35,0,0,1-2.35,2.34H123.06a2.34,2.34,0,0,1-2.34-2.34V53.29A2.36,2.36,0,0,1,123.06,50.94Z" fill="#fff"/><path d="M123.06,50.94H296.18a2.35,2.35,0,0,1,2.35,2.35v94.59a2.35,2.35,0,0,1-2.35,2.34H123.06a2.34,2.34,0,0,1-2.34-2.34V53.29A2.36,2.36,0,0,1,123.06,50.94Z" fill="#fff"/><g opacity="0.04" style="isolation:isolate"><path d="M123.06,50.94H296.18a2.35,2.35,0,0,1,2.35,2.35v94.59a2.35,2.35,0,0,1-2.35,2.34H123.06a2.34,2.34,0,0,1-2.34-2.34V53.29A2.36,2.36,0,0,1,123.06,50.94Z" fill="#fff"/></g><path d="M297.64,49.8h-176a.9.9,0,0,0-.9.9v3.81H298.53V50.7A.91.91,0,0,0,297.64,49.8Z" fill="#ffc552"/><circle cx="124.28" cy="52.16" r="1.22" fill="#fff"/><circle cx="127.57" cy="52.16" r="1.22" fill="#fff"/><circle cx="130.85" cy="52.16" r="1.22" fill="#fff"/><g style="isolation:isolate"><rect x="186.31" y="65.95" width="47.71" height="4.05" fill="#efeef2"/></g><g style="isolation:isolate"><rect x="135.38" y="79.64" width="148.53" height="62.31" fill="#efeef2"/></g><polygon points="225.44 100.22 224.65 98.62 226.4 98.97 227.69 97.71 227.89 99.5 229.48 100.33 227.85 101.08 227.55 102.84 226.34 101.53 224.57 101.78 225.44 100.22" fill="#0c86a9"/><polygon points="237.9 127.8 236.31 124.59 239.82 125.29 242.39 122.79 242.81 126.35 245.98 128.01 242.73 129.51 242.13 133.04 239.69 130.41 236.15 130.93 237.9 127.8" fill="#dec6bb"/><polygon points="177.3 100.22 176.51 98.62 178.27 98.97 179.55 97.71 179.76 99.5 181.34 100.33 179.72 101.08 179.42 102.84 178.2 101.53 176.44 101.78 177.3 100.22" fill="#0c86a9"/><polygon points="190.71 86.27 189.12 83.06 192.63 83.76 195.2 81.26 195.62 84.82 198.78 86.48 195.54 87.98 194.93 91.51 192.5 88.89 188.96 89.4 190.71 86.27" fill="#ffc552"/><polygon points="257.23 125.2 256.54 123.8 258.07 124.1 259.19 123.02 259.37 124.56 260.76 125.29 259.34 125.94 259.08 127.48 258.01 126.34 256.47 126.56 257.23 125.2" fill="#0c86a9"/><polygon points="215.29 125.2 214.6 123.8 216.13 124.1 217.25 123.02 217.43 124.56 218.81 125.29 217.4 125.94 217.13 127.48 216.08 126.34 214.53 126.56 215.29 125.2" fill="#0c86a9"/><polygon points="226.97 113.05 225.59 110.25 228.65 110.86 230.88 108.68 231.25 111.78 234.01 113.23 231.18 114.53 230.65 117.61 228.53 115.32 225.45 115.77 226.97 113.05" fill="#ffc552"/><path d="M12.31,229.78H91.8S34.77,219.86,12.31,229.78Z" fill="#f4ece0"/><path d="M110.58,233.45h79.49S133.05,223.54,110.58,233.45Z" fill="#f4ece0"/><path d="M92.82,170.8s1.29,2.43-7,6.28c0,0-8.28,15.07-12.28,21.57s-5.21,13.5-4.71,14.43-12-.43-11.71-1.71,4.14-5.57,6.28-17,8.43-21.85,10.14-22.85,4.71-5.86,5-6.86S92.82,170.8,92.82,170.8Z" fill="#efc4be"/><polygon points="73.54 171.51 87.09 169.62 78.54 164.65 73.54 171.51" fill="#dfa09c"/><path d="M113,172.94s-.93,9.14,2.43,15,16.71,27.42,16.71,27.42,9.43-1,9.57-3.57-9.57-14.57-13.43-27.57-1-15-1-15Z" fill="#efc4be"/><polygon points="112.87 177.25 126.81 172.22 112.96 172.94 112.87 177.25" fill="#dfa09c"/><path d="M124.53,117.23s-14.71-2.57-17.71-1.14-15.54,2.89-17,2.14S88,114.94,88,114.94L86.82,92.37S85.1,72,86.11,69.94s1-14,2.71-15.28,1.63-6.53,3-5.69a5.5,5.5,0,0,0,5.4.26c2.21-1,19.43,32.7,22,34.42S124.1,115.8,124.53,117.23Z" fill="#ffc552"/><path d="M73.54,163.51s14.93,6.71,19,8.57,13.36.5,15.43,1a41.64,41.64,0,0,0,8,.71c2.29,0,8.57-1.64,10.86-1.57s4.79-1,7.43-2.14,2.79-2.43,2.86-4-12.78-50.32-12.78-50.32-13.5-2.1-14.22-1.82a66.39,66.39,0,0,1-9.14,2.14c-2.57.29-13.33-2.37-13-1.14S74.32,162.23,73.54,163.51Z" fill="#cc2028"/><polygon points="97.09 118.05 89.31 164.56 100.96 116.09 97.09 118.05" fill="#921b1e"/><polygon points="106.82 116.09 106.82 169.23 110.1 113.95 106.82 116.09" fill="#921b1e"/><polygon points="117.23 116.18 123.53 170.19 121.85 116.8 117.23 116.18" fill="#921b1e"/><path d="M28.76,230.82h79.49S51.22,220.91,28.76,230.82Z" fill="#f4ece0"/><path d="M127,234.49h79.49S149.5,224.58,127,234.49Z" fill="#f4ece0"/><path d="M111.53,53l-4.71-2.43,1.14-7,4.16,1.21S110.81,49.81,111.53,53Z" fill="#dfa09c"/><path d="M108,43.53s9.5,3.71,12.43,0c0,0-1.5-2.64,0-3.29s.86-2.57.86-2.57a6.34,6.34,0,0,0,2.29-2.29c.57-1.29-2.36-2.07-2.43-3.57s.71-7.28.71-7.28-15-4.8-21.14,2.57c-2.2,2.64-.71,12.28,0,12.43s-1.22,8.71-1.22,8.71,6.22.86,7.37,2.29S108,43.53,108,43.53Z" fill="#efc4be"/><path d="M118.53,79.64s8.82-.37,8.73,2,0,5.94,0,5.94l-5.44,1.72Z" fill="#dfa09c"/><path d="M114.89,60.9s7.59,21.71,10.44,32.71S114.58,62.28,110.27,60.9s1.94-4,1.94-4Z" fill="#ee5591"/><path d="M66.39,69.67c.2.47-1.36,5.28-8.14,7.14S61.68,84,60.39,99.09s2.29,14.21,2.14,18.14,1.36,4.43,5,5,15,.93,19.71-2.86S87.17,82,86.53,77.09s2.71-26.71,6.71-27.28-5.86-1.71-7.86,0S79.67,53.24,78.67,53l-1-.29s-3,2.14-4.86,3.43S65.74,54,65.38,58.8,64.25,64.6,66.39,69.67Z" fill="#ec2069"/><path d="M94.82,56.24c.15-.43.23-6,2.43-7s10.21-3.36,15.85,6,3.64,17.57,5.43,20.43,2.36,9.07,3.29,9.71-19.07,1.93-20.43.71S92.39,63.24,94.82,56.24Z" fill="#ffc552"/><path d="M85.39,49.81s23.69-11.17,28.77,11.34,7.65,24.23,7.65,24.23,5.39,10.86,4.25,13.12-41.7,23.84-41.28,16.44c.14-2.46,33.74-16.16,33.74-16.16s4.28-1.85.78-7-6.23-32.42-14.15-37.47-16.34.37-16.34.37Z" fill="#ee5591"/><path d="M102.53,12.88s1.71-5.91,0-6.34-6.78-2.07-7.14,0-2.28,1.36-3.6.71-3.25-.18-2.68,1.95-1.29,3.7-2.57,2.63S81.4,11.33,83.4,14s.59,5.43-.56,5-5.15-.5-.86,2.14,4.21,3.21,3,4.14-4.86,3.86-.43,4,6-4,7.13-2.29S100.92,12.6,102.53,12.88Z" fill="#0e2227"/><path d="M134.67,229.93a37.58,37.58,0,0,1-1.14-6,58.4,58.4,0,0,0-.71-6.28s-2.86-2-.71-2.29,7.71-1.79,9.57-3.57,2,.18,2,1.59,2.93,1.62,3.29,2a4.47,4.47,0,0,0,2,.86c.43,0,.14-.86,1.86,0s1.86-.43,3.29.14-1.36,1.14,1.43.57,2.79.21,3.86.43,7.28-3.93,5.28-.14-8,11.14-15.14,10.86-7.07,3.21-6.57,3.57S135,231.27,134.67,229.93Z" fill="#093a45"/><path d="M67.11,226.93a6.13,6.13,0,0,1,1.57.54c1.4.58,3.43,1.51,4.86,2.18,2.29,1.07,12.36-.71,12.57-2s-2.64-2.71-4.29-3-4.43-2.57-4.43-2.57.44-1.5-.78-1.57-3.15-1.36-3.08-2-1.14-1.36-1.57-1.14l-2-3s.14-.43-1.14-1.29-11.71-1.71-11.71-1.71l-4.43,7.86s-2.43,1.93-1,3.29,6.21,4.57,9.43,4.43S67.11,226.93,67.11,226.93Z" fill="#093a45"/><polygon points="112.84 87.72 120.17 86.6 123.6 97.72 113.29 98.78 112.84 87.72" fill="#dfa09c"/><path d="M124.53,85.67s3.63-2.07,5.35,0-3.53,3-2.62,5.22,1.19,5.64.12,5.78-4.73,2.14-5,0-3-10.22-3-10.22Z" fill="#efc4be"/><path d="M91.66,22.87s0-9.81,10.87-10C102.53,12.88,91.36,19.93,91.66,22.87Z" fill="#ee5591"/><path d="M121.82,26.68V24.54l1.71,1.07s.29-5.36-5.86-7.78-7.5-8.57-20.71-2c0,0-6.28,5.71-5,10s2.57,11.64,5.43,13.28,4.36,2,4.57,3.29,1.57-3.36,1.29-5.57-4.86-7.07-2-6.57S104.11,33,105.11,33s.29-1.14.57-2.86,2,0,3.14-.43-.43-2.29,1.43-2.57,2.93,2.42,4.29.64,1-4.85,2.71-3.35A13.8,13.8,0,0,0,121.82,26.68Z" fill="#0e2227"/><path d="M68.46,72s9,28,6.59,48c0,0,1.34,2.91-3.09,2.57,0,0,1.83-40.1-7-49.9C65,72.67,66.75,66.08,68.46,72Z" fill="#ee5591"/><path d="M72.82,56.1S79.31,65.63,80,84.75c0,0-7.28-28.26-9.8-28.42l2.52.17" fill="#ee5591"/><path d="M75.47,94.29l11.35-1.91.75,14.78s-5.73,6.88-9.11,2S75.47,94.29,75.47,94.29Z" fill="#ee5591"/><path d="M119.82,32.31a1,1,0,0,1-2,0" fill="#0e2227"/><ellipse cx="103.26" cy="33.54" rx="0.72" ry="1.23" fill="#dfa09c"/><path d="M120,39.8a3.26,3.26,0,0,1-1.18-.22l.1-.23a3.59,3.59,0,0,0,2.29,0l.08.23A3.67,3.67,0,0,1,120,39.8Z" fill="#040505"/><path d="M116.21,31.63l-.1-.23c.11,0,2.56-1.06,4,0l-.16.2C118.64,30.62,116.23,31.62,116.21,31.63Z" fill="#040505"/><path d="M121.27,37.33l-.08-.24c.54-.16,2-.72,2.19-1.34a.48.48,0,0,0-.09-.45L121,32.2l.2-.15,2.29,3.1a.72.72,0,0,1,.13.68C123.33,36.7,121.35,37.3,121.27,37.33Z" fill="#040505"/><path d="M117.89,40.33l-.06-.24a1.27,1.27,0,0,0,.85-.59,1.13,1.13,0,0,0,.08-.8l.24-.07a1.37,1.37,0,0,1-.09,1A1.55,1.55,0,0,1,117.89,40.33Z" fill="#040505"/><path d="M105.16,51.58s-3.86-8.65-10.81,0-6.71,34.17-6.71,34.17l-.55,11.91s5.15,6.44,26.15,1.13h5.29L115.81,86.6l-14.42-.5s4.09-20.8,3.93-27.66Z" fill="#db7527"/></svg>