<svg xmlns="http://www.w3.org/2000/svg" width="100" height="100" viewBox="0 0 128 96"><path d="M122.94 58.2c2.25-6 2.39-22.3-9.74-39.39C96.81-4.28 75.22 4.97 67 11.64c-12.13 9.83-12.13 20.18-35.23 19.3C9.96 30.1 3.89 50.33 3.89 55.47c0 8.14 3.8 28.33 28.5 28.06 36.28-.4 30.32.27 50.54.62 30.89.51 36.45-16.48 40-25.95z" fill="#f4ece0"/><path fill="#fabfac" d="M84.41 20.08v-6.79l-2.59.45-.19 6.34h2.78z"/><path d="M79.97,6.24s-1.61,5.63,1.44,7.5c0,0,4.19,1.03,5.66-2.22,0,0,2.44-.12,2.17-1.45,0,0,.31-.77-1-.43l-.78-2.55-1.21-3.06-1.83-.4h-2.94s-1.23,1.25-1.52,2.62Z" fill="#fbd2c0"/><path d="M87.4,1.3s-5.3-3.44-7.6,3.94l-.61.89,2.22-1.17s2.92,1.64,3.83,1.83l.05-2.44s1.25,2.2,1.21,2.44c.1.42.25.83.45,1.21.2.71.2,1.46,0,2.17l1.27-.55s2.73-1.38,1.95-5.11c-.6-2.88-2.76-3.21-2.76-3.21Z" fill="#524d38"/><g fill="#644e40"><path d="M83.02,6.58s-.64-1.17-2.11-.4l2.11.4Z"/><circle cx="81.53" cy="7.61" r=".43"/></g><ellipse cx="82.91" cy="9.57" rx=".67" ry=".5" fill="#ef9e94"/><path d="M81.53 11.24l2.04.57c-.33.17-.67.3-1.02.4-.53.03-.99-.37-1.02-.91v-.06z" fill="#ca5c4c"/><g fill="#644e40"><path d="M86.53,7.51s-.64-1.17-2.11-.4l2.11.4Z"/><circle cx="84.83" cy="8.44" r=".43"/></g><path d="M88.17,3.91s-.13,3.7-1.66,5.51l1.66-5.51Z" fill="#625b4b"/><g fill="#f5beab"><circle cx="83.87" cy="11.66" r=".18"/><circle cx="81.29" cy="11.07" r=".18"/></g><path d="M80.72,93.99h32.75s-23.5-4.09-32.75,0Z" fill="#f4ece0"/><g fill="#efc4be"><path d="M66.51,20.56s3.8-1.41,6.96,3.62l-.61,3.34-3.02-2.24-1.01-.84-2.33-3.88Z"/><path d="M76.63 29.22l-3.16-5.03-2.89 5.55 4.94 6.84 1.11-7.36z"/></g><path d="M87.25 13.82s.92-1.18 2.05-.62 3.22.99 3.12 2.05.4-1.91.4-1.91 3.09-.36 3.43 1.03 3.4 3.11 1.97 7.8-.26 13.11-1.54 14.36-5.58 1.23-5.63.6a7.75 7.75 0 0 1 .21-1.79s-.09-5.82-.86-7.83c-.51-1.31-1.13-2.57-1.86-3.78 0 0-1.66-4.08-1.41-5.26s-1.03-4.3.12-4.64z" fill="#0c86a9"/><path fill="#ea7644" d="M71.83 28.99l3.66.63.67-3.95-7.32-1.24-.67 3.95.81.13-1.07 6.29h0l-.31 1.84 7.33 1.24.66-3.95-4.47-.75.71-4.19z"/><path d="M76.63,26.28s-.89,12.49-2.51,16.63,3.96,1.13,3.96,1.13l2.41-22.41s-2.4-1.16-3.86,4.66Z" fill="#7e1518"/><path fill="#f4854a" d="M54.684 67.091l7.794-45.933 7.828 1.328-7.794 45.933z"/><path d="M81.56 16.2l-2.97 2.24c-.28 1.12-.45 2.27-.51 3.43-.06 1.68.13 1.55.13 1.55l2.45-4.51 1.67-1.1-.4-1.87-.37.27z" fill="#7e1518"/><path d="M76.88 33.09s-.4 9.38-.26 10.95 4.48.92 4.48.92l1.11-.06 3.58-3.99 3.92-4.61 1.34-4.36-.11-5.23-3.31-9.34a4.17 4.17 0 0 0-4.9-.57c-2.86 1.51-4.83 7.19-4.83 7.19l-.93 6.37-.08 2.73z" fill="#e4372f"/><path d="M77.32 46.44s-5.73 12.06-5.88 14.01.28 4.83 4.02 9.53l8.57 10.89s4.06-1.05 4.58-3.22c0 0-5.87-7.04-6.23-8.12s-1.49-12.14-1.49-12.14l-3.57-10.96z" fill="#14466c"/><path d="M71.86 94.18s-1.37-.78.43-1.48 1.89-.35 2.65-1 2.81-2.6 2.99-2.97.46-.96 1.57-.13 1.74 1.67 2.21 1.66 1.15-1.18 1.92-1.33 1.39-.34 1.68 1.42.19 2.32.19 2.32-10.93 1.96-13.63 1.5z" fill="#412d2d"/><path d="M85.17,94.82s.92-1.41.33-2.14c0,0-12.63,1.45-14.07,1.12.09.66.5,1.24,1.09,1.55,1.01.53,12.65-.53,12.65-.53Z" fill="#9b796a"/><path d="M88.82 80.1s2.34.34 2.61 1.29-1.37 3.4-1.89 4.22l-4.09 5.91-1.18-1.85s2.01-3.17 1.66-3.87a12.37 12.37 0 0 1-.62-2.18s3.71-1.09 3.51-3.52z" fill="#412d2d"/><path d="M93.15,83.31s-.74-2.34-1.72-1.92c0,0-4.75,9.35-5.97,10.12l.04,1.17s.52-.1,1.53-.4,6.12-8.96,6.12-8.96Z" fill="#9b796a"/><path d="M78.84 88.88l.84-2.57 5.27-.31s.4 3.92-.14 3.8-4.77 1.8-5.97-.91zm9.21-10.5l1.35 2.06s-2.67 3.78-4.09 3.18.1-3.57.1-3.57l2.64-1.66z" fill="#fcd4c0"/><path d="M89.9,53.83l.48-4.5,1.21-16.54.16-5.75-1.54-4.45-5.75,14.17-3.88,5.45,4.62,8.59s2.35,3.79,4.71,3.02Z" fill="#e4372f"/><path d="M76.95 48.03l-.33-3.99 4.48-.73c.49-.03 1.11 1.58 1.11 1.58s3.14 4.46 3.59 6.48.12 10.35.12 10.35l-.29 15.62.3 8.44s-4.85 2.77-6.26.51.64-4.12-.03-13.37-2.69-24.91-2.69-24.91z" fill="#20587e"/><path d="M84.25,14.53s2.32-1.84,3.03-.25-1.75,3.58-1.75,3.58l-2.74,3.76-.78-2.47s2.51-3.86,2.24-4.64Z" fill="#7e1518"/><path d="M83.23,36.46l-1.9,3.76-1.76,3.83s.97,2.65,2.12,2.41,4.34-6.43,4.34-6.43l-2.81-3.56Z" fill="#efc4be"/><path d="M78.02 43.93l-.02-.82h.09l.02.8-.08.02zm.28-5.76h-.1l.61-4.91h.1l-.62 4.91zm.96-6.94h-.1l.14-.8h.1l-.15.8zm.3-1.61h-.1l.16-.8h.1l-.16.8zm1.23-5.63l-.1-.02 1.27-4.79.1.03-1.27 4.77V24z" fill="#7e1518"/><path d="M87.35,33.33c-.09-.69-.48-1.31-1.06-1.71-.6-.32-1.29-.4-1.94-.24l-.03-.1c.68-.17,1.4-.08,2.01.25.61.4,1.01,1.05,1.11,1.77l-.09.02Z" fill="#50565c"/><g fill="#14466c"><path d="M92.76 17.68l-.4-2.44h.1l.4 2.44h-.1zm.75 5.36l-.08-.6h.1l.08.6h-.1zm-.15-1.18l-.08-.6h.1l.08.6h-.1zm1 11.66v-.6h.1v.6h-.1zm0-1.2l-.02-.6h.1l.02.6h-.1zm-.27-4.21l-.37-3.6h.1l.38 3.6h-.1zm-.12 9.38l-.09-.04c.29-.77.44-1.59.45-2.41h.1c0 .84-.16 1.67-.46 2.46z"/><path d="M92.16 34.38l-.02-.1.58-.13.02.1-.58.13zm2.59-.58v-.1l.8-.18v.1l-.8.18zm1.6-.36v-.1l.27-.06v-.46h.1v.54l-.37.08zm.34-5.55h-.11v-.69h-4.16v-.12h4.27v.8zm1-3.06c-.21-.08-.4-.18-.58-.31l.06-.08a2.73 2.73 0 0 0 .56.3l-.04.1zm-1.2-.86c-.18-.21-.35-.43-.49-.67l.09-.06a5.04 5.04 0 0 0 .48.66l-.08.07zm-1.92-5.39a28.55 28.55 0 0 1-.23-3.81v-1.14h.1l-.02 1.13c0 1.27.08 2.54.23 3.8l-.08.02z"/></g><path d="M86.02 19.07c-.21.43-.49.81-.84 1.13l-.84 1.93c-.12 1.67.03 4.83 0 5.2s-.02 2.1-.03 3.17c1.17 2.16 3.31 3.35 5.05 4.02l1.18-7.32s1.32-5.37 1.03-7.16c-.17-1.06-1.08-3.16-1.9-3.85-.42-.3-.89-.52-1.39-.67-.84.98-1.59 2.03-2.26 3.13.02.14.02.28-.01.42zm-3.51 15.91l2.06 4.17s1.93 1.38 2.75 1c.6-.28 1.38-2.81 1.75-4.15-1.89-.84-4.29-2.01-5.53-3.06l-1.02 2.04z" fill="#7e1518"/><path d="M85.39 15.74l.28.92.8-1.49c-.56 0-1 .16-1.08.57z" fill="#ca9580"/><g fill="#0c86a9"><path d="M88.32 15.5l.29-.33-1.37-1.37-.76 1.37a6.35 6.35 0 0 1 1.83.33zm-3.98 14.99a7.14 7.14 0 0 1-.83-2.81c-.13-1.9.15-3.8.84-5.57a4.01 4.01 0 0 1 .14-.9 3.58 3.58 0 0 1 .69-1.03l.88-1.58c-.07-.66-.21-1.31-.4-1.95L82 23.4c-1.34 2.56-.44 6.92.9 8.87a3.82 3.82 0 0 0 .62.65l.8-1.61.01-.82zm7.78 4.73a13.56 13.56 0 0 1-2.73-.72l-.11.67-.22.83 2.69 1.11.37-1.89z"/><path d="M88.32 15.5a6.29 6.29 0 0 0-1.83-.33l-.8 1.49c.2.63.33 1.29.4 1.95.65-1.1 1.4-2.14 2.23-3.11zm-3.83 5.73a3.84 3.84 0 0 0-.14.9c.24-.66.52-1.3.84-1.93a3.58 3.58 0 0 0-.69 1.03z"/></g><path d="M89.39 34.5c-1.74-.65-3.88-1.85-5.05-4.02v.84l-.8 1.61c1.24 1.05 3.64 2.22 5.53 3.06l.22-.83.1-.67z" fill="#7e1518"/><path d="M86.61 41.41l-.04-.07-4.13-6.37.88-1.75 4.83 5.71-1.54 2.47zm-4.06-6.43l4.06 6.25 1.41-2.27-4.68-5.54-.79 1.56z" fill="#50565c"/><path d="M64.06,21.48s-.18,1.01,1.41.37c0,0,.34.83,1.95.45,0,0,1.21.44,2.01,0,.44-.19.76-.57.88-1.03l-2.09-.57-1.95-.13h-1.55s-.95.39-.67.92Z" fill="#efc4be"/><path d="M43.42 73.45l-.64 3.93 3.08 2.12.34 1.42-1.81 3.27 2.32 3.22 3.68-.68 1.24.77 1.04 3.6 3.93.64 2.12-3.08 1.42-.33 3.28 1.81 3.22-2.32-.68-3.68.77-1.24 3.6-1.04.64-3.93-3.08-2.12-.33-1.42 1.81-3.27-2.32-3.22-3.68.68-1.24-.77-1.04-3.6-3.9-.64-2.12 3.08-1.42.34-3.28-1.81-3.22 2.32.68 3.68-.77 1.24-3.62 1.04zm8.85-.08l1.72.28-.28 1.72-1.72-.28.28-1.73zm1.16 3.72c-.31 1.9.97 3.69 2.87 4.01s3.69-.97 4.01-2.87c.28-1.69-.71-3.33-2.34-3.88l.72 2.32-1.66.52-1.34-4.32 3.51-2.53 1.02 1.42-1.44 1.03c2.68 1.06 4 4.1 2.93 6.79-1.06 2.68-4.1 4-6.79 2.93a5.22 5.22 0 0 1-3.23-5.7l1.73.29z" fill="#ffc653"/></svg>
