<svg id="Layer_1" data-name="Layer 1" xmlns="http://www.w3.org/2000/svg" viewBox="0 0 160 100"><defs><style>.cls-1{fill:#eff5f8;}.cls-2{fill:#0aa5e3;}.cls-3{fill:#32b475;}.cls-4{fill:#e3b462;}.cls-5{opacity:0.5;}.cls-6{fill:#fff;}.cls-7{fill:#e2433b;}.cls-8{opacity:0.7;}.cls-9{opacity:0.2;}.cls-10{fill:#c3f1fc;}.cls-11{fill:#3273ad;}</style></defs><title>Artboard kite</title><path class="cls-1" d="M45.78,33H21.34a2.15,2.15,0,1,0,0,4.29h3.18a2.15,2.15,0,0,1,0,4.29h-7a2.15,2.15,0,0,0,0,4.29H42a2.15,2.15,0,0,0,0-4.29H35.34a2.15,2.15,0,0,1,0-4.29H45.78a2.15,2.15,0,1,0,0-4.29Z"/><path class="cls-1" d="M130,67.12H105.61a2.15,2.15,0,0,0,0,4.29h3.18a2.15,2.15,0,0,1,0,4.29h-7a2.15,2.15,0,1,0,0,4.29h24.43a2.15,2.15,0,0,0,0-4.29h-6.66a2.15,2.15,0,0,1,0-4.29H130a2.15,2.15,0,0,0,0-4.29Z"/><path class="cls-1" d="M66.52,8.52H96.78a1.88,1.88,0,0,1,0,3.76H85.11a1.88,1.88,0,1,0,0,3.76H91.2a1.88,1.88,0,1,1,0,3.76H69.82a1.88,1.88,0,0,1,0-3.76h5.83a1.88,1.88,0,0,0,0-3.76H66.52a1.88,1.88,0,1,1,0-3.76Z"/><path class="cls-1" d="M7.93,81.88H36.51a2.15,2.15,0,1,0,0-4.29H29.18a2.15,2.15,0,0,1,0-4.29h4.59a2.15,2.15,0,1,0,0-4.29H15.26a2.15,2.15,0,1,0,0,4.29h3.11a2.15,2.15,0,0,1,0,4.29H7.93a2.15,2.15,0,1,0,0,4.29Z"/><path class="cls-1" d="M152.85,43.68H124.27a2.15,2.15,0,0,0,0,4.29h7.33a2.15,2.15,0,1,1,0,4.29H127a2.15,2.15,0,0,0,0,4.29h18.51a2.15,2.15,0,0,0,0-4.29h-3.11a2.15,2.15,0,0,1,0-4.29h10.44a2.15,2.15,0,0,0,0-4.29Z"/><path class="cls-2" d="M121.59,25.16a3.32,3.32,0,1,1,3.32-3.32A3.33,3.33,0,0,1,121.59,25.16Zm0-5.81a2.49,2.49,0,1,0,2.49,2.49A2.49,2.49,0,0,0,121.59,19.35Z"/><path class="cls-3" d="M38,19.83a3.32,3.32,0,1,1,3.32-3.32A3.33,3.33,0,0,1,38,19.83ZM38,14a2.49,2.49,0,1,0,2.49,2.49A2.5,2.5,0,0,0,38,14Z"/><path class="cls-3" d="M114.21,35.46a2,2,0,1,1,2-2A2,2,0,0,1,114.21,35.46Zm0-3.15a1.16,1.16,0,1,0,1.16,1.16A1.16,1.16,0,0,0,114.21,32.31Z"/><path class="cls-4" d="M88.84,19.23a2.78,2.78,0,1,1,2.78-2.78A2.79,2.79,0,0,1,88.84,19.23Zm0-4.74a2,2,0,1,0,2,2A2,2,0,0,0,88.84,14.49Z"/><path class="cls-2" d="M135,77.6a3.32,3.32,0,1,1,3.32-3.32A3.33,3.33,0,0,1,135,77.6Zm0-5.81a2.49,2.49,0,1,0,2.49,2.49A2.49,2.49,0,0,0,135,71.78Z"/><path class="cls-4" d="M27.85,78.59a3.32,3.32,0,1,1,3.32-3.32A3.33,3.33,0,0,1,27.85,78.59Zm0-5.81a2.49,2.49,0,1,0,2.49,2.49A2.49,2.49,0,0,0,27.85,72.78Z"/><path class="cls-4" d="M135.73,49.65a3.08,3.08,0,1,1,3.08-3.08A3.08,3.08,0,0,1,135.73,49.65Zm0-5.33A2.25,2.25,0,1,0,138,46.57,2.25,2.25,0,0,0,135.73,44.32Z"/><path class="cls-2" d="M8.08,57.24a3.08,3.08,0,1,1,3.08-3.08A3.08,3.08,0,0,1,8.08,57.24Zm0-5.33a2.25,2.25,0,1,0,2.25,2.25A2.25,2.25,0,0,0,8.08,51.91Z"/><g class="cls-5"><circle class="cls-6" cx="103.65" cy="74.94" r="5.87" transform="translate(9.68 161.71) rotate(-78.59)"/><path class="cls-7" d="M103,81.24c-.2,0-.4-.05-.61-.09a6.34,6.34,0,1,1,.61.09Zm1.19-11.68a5.44,5.44,0,1,0,.53.08Z"/><path class="cls-7" d="M111.09,79l-.29,0L95.51,75.82a2.86,2.86,0,0,1-1.7-1,2.17,2.17,0,0,1,.67-3.32,2.89,2.89,0,0,1,2-.29l2.16.44-.18.9-2.16-.44a1.92,1.92,0,0,0-1.33.19,1.25,1.25,0,0,0-.39,1.94,1.94,1.94,0,0,0,1.15.69L111,78a1.91,1.91,0,0,0,1.33-.19,1.25,1.25,0,0,0,.39-1.95,1.94,1.94,0,0,0-1.15-.69l-2.16-.44.18-.9,2.16.44a2.86,2.86,0,0,1,1.7,1,2.17,2.17,0,0,1-.67,3.32A2.83,2.83,0,0,1,111.09,79Z"/></g><g class="cls-8"><circle class="cls-6" cx="34.83" cy="44.48" r="5.68" transform="translate(-6.42 5.88) rotate(-8.83)"/><path class="cls-3" d="M35.77,50.55a6.14,6.14,0,1,1,5.13-7A6.15,6.15,0,0,1,35.77,50.55ZM34,39.32a5.22,5.22,0,1,0,6,4.36A5.23,5.23,0,0,0,34,39.32Z"/><circle class="cls-6" cx="35.87" cy="44.04" r="1.56" transform="matrix(0.99, -0.15, 0.15, 0.99, -6.34, 6.03)"/><path class="cls-3" d="M36.15,45.81a1.79,1.79,0,1,1,1.5-2A1.8,1.8,0,0,1,36.15,45.81Zm-.48-3.09a1.33,1.33,0,1,0,1.52,1.11A1.34,1.34,0,0,0,35.67,42.72Z"/></g><g class="cls-9"><circle class="cls-10" cx="77.86" cy="38.99" r="17.65"/><path class="cls-11" d="M77.86,56.89A17.9,17.9,0,1,1,95.76,39,17.92,17.92,0,0,1,77.86,56.89Zm0-35.29A17.4,17.4,0,1,0,95.26,39,17.42,17.42,0,0,0,77.86,21.6Z"/></g><polygon class="cls-2" points="82.2 28.21 89.69 43.86 69.44 64.11 66.03 35.58 82.2 28.21"/><path class="cls-11" d="M69.44,64.36h-.08a.25.25,0,0,1-.17-.21L65.78,35.6a.25.25,0,0,1,.14-.26L82.1,28a.25.25,0,0,1,.33.12l7.5,15.65a.25.25,0,0,1,0,.28L69.62,64.29A.25.25,0,0,1,69.44,64.36ZM66.3,35.73l3.34,27.84L89.39,43.81,82.08,28.54Z"/><path class="cls-10" d="M89,44h-.08L66.55,36.27a.25.25,0,0,1,.16-.47L89,43.54A.25.25,0,0,1,89,44Z"/><path class="cls-10" d="M69.44,64.36h-.08a.25.25,0,0,1-.15-.32L81.68,28.92a.25.25,0,1,1,.47.17L69.68,64.19A.25.25,0,0,1,69.44,64.36Z"/><path class="cls-11" d="M70.73,75H53.55a2.88,2.88,0,0,1,0-5.76H64.82a4.22,4.22,0,0,0,2.87-1.08,6,6,0,0,0,1.6-4.44.24.24,0,0,1,.25-.25.25.25,0,0,1,.25.25A6.42,6.42,0,0,1,68,68.52a4.65,4.65,0,0,1-3.22,1.2H53.55a2.38,2.38,0,0,0,0,4.76H70.73a.25.25,0,0,1,0,.5Z"/><path class="cls-11" d="M78.44,80.24H67.57a.25.25,0,0,1,0-.5H78.44a2.38,2.38,0,0,0,0-4.76H61.26a.25.25,0,1,1,0-.5H78.44a2.88,2.88,0,0,1,0,5.76Z"/><path class="cls-11" d="M69.24,91.73a.25.25,0,0,1-.25-.25,6.06,6.06,0,0,0-1.76-4.8,5.81,5.81,0,0,0-4.18-1.18H59.51a2.88,2.88,0,0,1,0-5.76h13a.25.25,0,1,1,0,.5h-13a2.38,2.38,0,0,0,0,4.76H63a6.2,6.2,0,0,1,4.54,1.3,6.52,6.52,0,0,1,1.93,5.18A.25.25,0,0,1,69.24,91.73Z"/></svg>