<svg xmlns="http://www.w3.org/2000/svg" width="24" height="24" viewBox="0 0 512 512" fill-rule="evenodd">
  <path
    d="M501.76 261.82a294.79 294.79 0 0 0-4.65-52.37H256v99h137.77c-5.93 32-24 59.1-51.08 77.27V450h82.74c48.4-44.57 76.33-110.2 76.33-188.16z"
    fill="#4285f4" />
  <path
    d="M256 512c69.12 0 127.07-22.92 169.43-62l-82.74-64.23c-22.92 15.36-52.25 24.43-86.7 24.43-66.68 0-123.1-45-143.24-105.54H27.23V371A255.91 255.91 0 0 0 256 512z"
    fill="#34a853" />
  <path d="M112.76,304.64a151.33,151.33,0,0,1,0-97.28V141H27.23a256.33,256.33,0,0,0,0,229.94l85.53-66.33Z"
    fill="#fbbc05" />
  <path
    d="M256 101.82c37.6 0 71.33 12.9 97.86 38.28l73.43-73.42C383 25.37 325 0 256 0A255.91 255.91 0 0 0 27.23 141l85.53 66.33c20.13-60.48 76.56-105.5 143.24-105.5z"
    fill="#ea4335" />
</svg>
