<svg id="Layer_1" data-name="Layer 1" xmlns="http://www.w3.org/2000/svg" viewBox="0 0 82 50"><defs><style>.cls-1{fill:none;}.cls-2{fill:#0f9d58;}.cls-2,.cls-3{fill-rule:evenodd;}.cls-3,.cls-4{fill:#008ac1;}</style></defs><title>login-icon</title><rect class="cls-1" x="-747.02" y="-163.99" width="1440" height="2487"/><rect class="cls-1" x="-747.02" y="-163.99" width="1440" height="2487"/><path class="cls-2" d="M55.38,29.1h0a9.82,9.82,0,0,1,1.46-3.57,1.76,1.76,0,0,0,.22-.42c0-.06,0-.12,0-.18.18-1.14-2.05-1.41-2.47-1.38H54.5a3.23,3.23,0,0,0-2.69,1.38c-.8,1.34-.56,2.28-2.52,2.89-1.33.4-2.68-.08-4,.22-1.63.34-1.26,2-1.34,3.12s-.22,2.8-1.67,3.1c-1.8.41-3.12.14-3.62,2.28-.24,1,0,2.56-.62,3.56s-2.36,1.33-3.46,1.47c-1.64.21-2.43.9-2.24,2.86,0,.34.08.69.14,1h0A3.1,3.1,0,0,0,34.9,48a11.76,11.76,0,0,0,3.92-.3,37.24,37.24,0,0,1,6.54-.45c6.48,0,8.38-5,9.25-10.59C54.93,34.62,54.82,31.72,55.38,29.1Z"/><path class="cls-3" d="M41.95,29.81a1.07,1.07,0,0,1-.41-.1l-3.08-1.45a1.39,1.39,0,0,0-1.79.26S32,33.66,31.48,34.46a.77.77,0,0,1-1.19.27S27.91,33.26,27.35,33s-.7.22-.7.22l-.41,1.66c-.17.43-.43-.7-.43-.7l-.63-2.87c-.17-.91.46-.54.46-.54s3.78,1,4.21,1a.69.69,0,0,0,.57-.17l0,0S31.65,29.62,32,29a1.17,1.17,0,0,0,.2-1l-1.51-4.21c-.28-.72-.76-.73-.76-.73s-1.85-.24-2.36-.33a1.48,1.48,0,0,0-1,.27L25,24.7a5.66,5.66,0,0,0-1,3.73q.1,1.23.23,2.47c2.25,13,3.37,15,7.26,15.84.66.15.77-.52.72-1.18a6.74,6.74,0,0,1-.18-3.14c.57-1.93,2.64-1.29,4.07-1.71,2.07-.67,1.26-2.64,1.44-4.37.15-2.5,1.6-2.18,3.44-2.66,2.44-.6,1.59-2.7,1.84-4.46,0-.07,0-.13,0-.2l-.25.37A.8.8,0,0,1,41.95,29.81ZM55.55,8.6h0c0-.31-.31-.24-.43-.19s-.53.22-.69.31c-.54.35-.76.66-.66,1.2A3.62,3.62,0,0,1,54,11.14c-.09.57-.68,0-.86-.08a1.55,1.55,0,0,0-1.12-.3A2.59,2.59,0,0,0,51,11.6c-.2.26-.55.93-.72.19a11.93,11.93,0,0,1,0-1.73c0-.79-.69-1-1.4-1.32-.28-.14-1.38-.57-1.42-.94,0-.2.2-.23.46-.18a4.89,4.89,0,0,0,1.42,0h0l.23,0a1.18,1.18,0,0,0,1-.89c.19-.44.2-1.12.59-1.47s.79.54.9.81a2.61,2.61,0,0,0,.82,1.15,3.53,3.53,0,0,0,1.83.35H55a.2.2,0,0,0,.17-.3v0C54.54,5.42,53,4.1,50,3.8a19.25,19.25,0,0,0-3.08-.05,14.77,14.77,0,0,1-3.11-.27c-14.53-3.63-19.05.2-20,1.28-2.21,2.12-2.35,6-2.32,7.48a38.63,38.63,0,0,0,2,10.3c.1.43.33,1,.8.46l.14-.15.83-.91a2.2,2.2,0,0,1,1.21-.66l4.37-.67h.06l4.06-1.31h0c.29-.14,2.35-1.08,3.35-1.58l.21-.08h0l.08,0a3.32,3.32,0,0,1,.73-.16.5.5,0,0,1,.47.19c.19.32-.51.86-.51.86h0l-2.51,2a3.13,3.13,0,0,1-.7.41l-2.17,1.13a.63.63,0,0,0-.18.84l.06.12h0l.81,1.55a1.21,1.21,0,0,0,1.16.68L37.65,25a2.1,2.1,0,0,1,1.49.5l2.08,2c.13.12.68.57,1.11.23s2.23-1.82,1.75-.47a17.35,17.35,0,0,1,3.33-.61c2.85-.51,1.36-3.11,3-4.66a3.54,3.54,0,0,1,2.41-.72,1.48,1.48,0,0,0,1.48-1.38c0-.06,0-.11,0-.16a20,20,0,0,1,.24-2.94C54.93,14.6,55.91,11.33,55.55,8.6ZM30.88,19.88c-1,.39-2.62-.47-3.59-2s-1-3,.2-3.34,2.94.68,3.83,2.11S31.94,19.51,30.88,19.88Z"/><path class="cls-4" d="M61.49,36.14H61c0-1,.66-2,1.5-3.22A17.39,17.39,0,0,0,65.56,26a26.76,26.76,0,0,0,.09-7c-.19-2.36-.36-4.39.45-5.9l.44.23c-.74,1.39-.58,3.35-.4,5.63A27.17,27.17,0,0,1,66,26.13a17.81,17.81,0,0,1-3.14,7.06A6.48,6.48,0,0,0,61.49,36.14Z"/><path class="cls-4" d="M72.35,20.54l-.48-.1a15.28,15.28,0,0,1,.8-2.28,16.77,16.77,0,0,0,1.57-6c0-.69,0-1.39,0-2.09-.07-2.74-.15-5.58,1.23-7.64l.41.27C74.57,4.59,74.64,7.35,74.71,10c0,.71,0,1.41,0,2.1a17.14,17.14,0,0,1-1.61,6.23A15.09,15.09,0,0,0,72.35,20.54Z"/><path class="cls-3" d="M72.13,31.14l-.49.86a.13.13,0,0,0,0,.15l.49.58a.13.13,0,0,0,.22-.08V31.21a.13.13,0,0,0-.24-.06"/><path class="cls-3" d="M69.18,25l-.26.59a.13.13,0,0,0,0,.14l.48.44a.13.13,0,0,0,.21-.12l-.22-1a.13.13,0,0,0-.24,0"/><rect class="cls-1" x="79.52" y="19.28" width="0.86" height="1.54"/><path class="cls-3" d="M66.54,40l.6.69a.13.13,0,0,1,0,.17l-.6.6a.13.13,0,0,1-.22-.09V40.08a.13.13,0,0,1,.22-.08"/><path class="cls-3" d="M68.24,8.38l1,.3a.13.13,0,0,1,.09.14c-.07.47-.35,2.31-.61,2.14a7.93,7.93,0,0,1-.6-2.44.13.13,0,0,1,.16-.14"/><path class="cls-3" d="M75.21,39.43l1,.3a.13.13,0,0,1,.09.14c-.07.47-.35,2.31-.61,2.14a7.93,7.93,0,0,1-.6-2.44.13.13,0,0,1,.16-.14"/><path class="cls-3" d="M79.08,5.83l.35,1a.13.13,0,0,1-.15.17l-1.83-.51a.13.13,0,0,1,0-.24l1.48-.45a.13.13,0,0,1,.16.08"/><path class="cls-4" d="M9.25,32c-1.74-3.12-1.12-6.64-.46-10.36.09-.5.18-1,.26-1.51.71-4.3-1.15-6.4-3.11-8.63C4.24,9.52,2.49,7.54,2.49,4.08H3c0,3.27,1.62,5.1,3.33,7,2,2.22,4,4.51,3.23,9-.08.51-.17,1-.26,1.52-.64,3.63-1.25,7.06.41,10Z"/><path class="cls-3" d="M3.59,28.88,3.26,28a.12.12,0,0,1,.15-.16l1.76.49a.12.12,0,0,1,0,.23L3.74,29a.12.12,0,0,1-.15-.07"/><path class="cls-3" d="M13.33,18.48l1-.19a.12.12,0,0,1,.14.17l-.75,1.66a.12.12,0,0,1-.23,0l-.2-1.47a.12.12,0,0,1,.1-.14"/><path class="cls-3" d="M13.86,42.06l0-1A.12.12,0,0,1,14,41l1.53,1a.12.12,0,0,1-.07.22l-1.48,0a.12.12,0,0,1-.12-.12"/><path class="cls-3" d="M10.07,6.89l.34.92a.12.12,0,0,1-.15.16L8.5,7.48a.12.12,0,0,1,0-.23l1.42-.43a.12.12,0,0,1,.15.07"/><path class="cls-3" d="M5.9,41.69l.34.92a.12.12,0,0,1-.15.16l-1.76-.49a.12.12,0,0,1,0-.23l1.42-.43a.12.12,0,0,1,.15.07"/><path class="cls-3" d="M2.39,14.47l-.55.81a.12.12,0,0,1-.22,0L1,13.53a.12.12,0,0,1,.19-.14l1.17.91a.12.12,0,0,1,0,.16"/><path class="cls-3" d="M8.89,35l.43-.56a.12.12,0,0,1,.21,0l.25.92a.12.12,0,0,1-.17.14l-.68-.36a.12.12,0,0,1,0-.18"/><path class="cls-3" d="M13.52,24.95l.7,0a.12.12,0,0,1,.11.19l-.53.79a.12.12,0,0,1-.22,0l-.18-.75a.12.12,0,0,1,.11-.15"/><path class="cls-3" d="M80.37,20.24l.6.69a.13.13,0,0,1,0,.17l-.6.6a.13.13,0,0,1-.22-.09V20.32a.13.13,0,0,1,.22-.08"/></svg>