<svg id="Layer_1" data-name="Layer 1" xmlns="http://www.w3.org/2000/svg" viewBox="0 0 740 300"><defs><style>.cls-1{opacity:0.8;}.cls-2{fill:#eff5f8;opacity:0.6;}.cls-3{opacity:0.7;}.cls-4,.cls-5,.cls-6,.cls-7{fill:none;opacity:0.4;}.cls-4{stroke:#e3b462;}.cls-11,.cls-12,.cls-13,.cls-4,.cls-5,.cls-6{stroke-miterlimit:10;}.cls-4,.cls-5,.cls-7{stroke-width:1.5px;}.cls-5{stroke:#32b475;}.cls-6{stroke:#349b67;}.cls-7{stroke:#0aa5e3;stroke-linecap:round;stroke-linejoin:round;}.cls-8{opacity:0.3;}.cls-9{fill:#cdebfc;}.cls-10{fill:#31b375;}.cls-11,.cls-15{fill:#f9d166;}.cls-11{stroke:#3275ae;stroke-width:0.37px;}.cls-12{fill:#c3f1fc;stroke:#3273ad;stroke-width:0.5px;}.cls-13{fill:#fff;stroke:#31b375;stroke-width:0.73px;}.cls-14{fill:#3273ad;}</style></defs><title>baby-business</title><g class="cls-1"><path class="cls-2" d="M515.74,103.57H454.19a4.62,4.62,0,0,0,0,9.25H470a4.62,4.62,0,0,1,0,9.25h-9.89a4.62,4.62,0,1,0,0,9.25H500a4.62,4.62,0,0,0,0-9.25h-6.7a4.62,4.62,0,0,1,0-9.25h22.48a4.62,4.62,0,0,0,0-9.25Z"/><path class="cls-2" d="M550.81,106.25h61.54a4.62,4.62,0,1,0,0-9.25H596.57a4.62,4.62,0,0,1,0-9.25h9.89a4.62,4.62,0,0,0,0-9.25H566.6a4.62,4.62,0,0,0,0,9.25h6.7a4.62,4.62,0,0,1,0,9.25H550.81a4.62,4.62,0,0,0,0,9.25Z"/><path class="cls-2" d="M338.19,94.63H285.57a4.62,4.62,0,1,0,0,9.25h6.86a4.62,4.62,0,0,1,0,9.25h-15a4.62,4.62,0,0,0,0,9.25h52.61a4.62,4.62,0,0,0,0-9.25H315.71a4.62,4.62,0,0,1,0-9.25h22.48a4.62,4.62,0,1,0,0-9.25Z"/><path class="cls-2" d="M111.18,172.3h36.33a2.73,2.73,0,0,0,0-5.46h-9.32a2.73,2.73,0,0,1,0-5.46H144a2.73,2.73,0,0,0,0-5.46H120.5a2.73,2.73,0,0,0,0,5.46h4a2.73,2.73,0,0,1,0,5.46H111.18a2.73,2.73,0,1,0,0,5.46Z"/><path class="cls-2" d="M221.8,55H186.72a3.08,3.08,0,1,0,0,6.16h4.57a3.08,3.08,0,0,1,0,6.16h-10a3.08,3.08,0,1,0,0,6.16h35.08a3.08,3.08,0,0,0,0-6.16h-9.57a3.08,3.08,0,1,1,0-6.16h15a3.08,3.08,0,1,0,0-6.16Z"/><path class="cls-2" d="M283.91,7.64h50.94a3.16,3.16,0,1,1,0,6.32H315.2a3.16,3.16,0,1,0,0,6.32h10.25a3.16,3.16,0,1,1,0,6.32h-36a3.16,3.16,0,1,1,0-6.32h9.81a3.16,3.16,0,0,0,0-6.32H283.91a3.16,3.16,0,1,1,0-6.32Z"/><path class="cls-2" d="M430.42,54.76H379.48a3.16,3.16,0,1,0,0,6.32h19.64a3.16,3.16,0,1,1,0,6.32H388.88a3.16,3.16,0,0,0,0,6.32h36a3.16,3.16,0,1,0,0-6.32H415a3.16,3.16,0,1,1,0-6.32h15.38a3.16,3.16,0,1,0,0-6.32Z"/><g class="cls-3"><circle class="cls-4" cx="503.38" cy="109.82" r="3.13"/><circle class="cls-5" cx="188.29" cy="35.24" r="3.13"/><circle class="cls-6" cx="336.71" cy="31.2" r="1.99"/><circle class="cls-4" cx="314.28" cy="73.49" r="5.1"/><circle class="cls-4" cx="224.88" cy="82.74" r="6.26"/><circle class="cls-7" cx="127.09" cy="119.45" r="5.74"/><circle class="cls-7" cx="272.82" cy="209.4" r="5.74"/><circle class="cls-4" cx="597.53" cy="23.22" r="5.1"/><circle class="cls-7" cx="422.32" cy="24.94" r="6.26" transform="translate(80.86 274.7) rotate(-39.56)"/><circle class="cls-5" cx="381.38" cy="62.02" r="3.39" transform="translate(47.86 257.12) rotate(-39.56)"/><circle class="cls-4" cx="699.07" cy="151.85" r="5.1" transform="translate(63.42 480.03) rotate(-39.56)"/><circle class="cls-7" cx="575.35" cy="70.51" r="6.26" transform="translate(86.89 382.6) rotate(-39.56)"/><circle class="cls-4" cx="495.52" cy="55" r="5.74" transform="translate(78.48 328.21) rotate(-39.56)"/><circle class="cls-5" cx="454.01" cy="180.04" r="3.13"/></g><g class="cls-8"><path class="cls-9" d="M89,79.5h7.41a.61.61,0,0,0,.61-.63,5.45,5.45,0,0,1,1.46-4.16c2.26-2.32,6.36-2.3,6.39-2.31a.67.67,0,0,0,.46-.21.61.61,0,0,0,.14-.48,12.55,12.55,0,0,1,2.61-8.62c1.81-2.07,4.49-3.1,7.84-3.1a9.18,9.18,0,0,1,6.89,2.63c3.06,3.2,2.88,8.29,2.88,8.34a.61.61,0,0,0,.24.51.62.62,0,0,0,.56.09c2.78-.93,5.19-.82,7.16.33C137.24,74,138.25,79,138.26,79a.61.61,0,0,0,.59.49h14.57a.61.61,0,0,0,0-1.21H139.34c-.37-1.41-1.69-5.44-5.11-7.44a9.29,9.29,0,0,0-7.37-.67c-.07-1.7-.54-5.6-3.2-8.38a10.34,10.34,0,0,0-7.77-3c-3.72,0-6.71,1.16-8.76,3.51a13.68,13.68,0,0,0-2.95,8.92c-1.37.1-4.56.55-6.61,2.65a6.45,6.45,0,0,0-1.8,4.42H89a.61.61,0,1,0,0,1.21Z"/></g><g class="cls-8"><path class="cls-9" d="M591,60h0l12.74-.57a1.48,1.48,0,0,0,.94-.13,1.53,1.53,0,0,0,.46-1.11c0-.09,0-.16,0-.21a11.08,11.08,0,0,1,.43-1.27,8.37,8.37,0,0,1,1.13-2,7.09,7.09,0,0,1,3-2.21,8.78,8.78,0,0,1,2.88-.58,9.51,9.51,0,0,1,1.06,0,1.59,1.59,0,0,0,.86,0c.45-.16.61-.67.91-1.86,0-.19.08-.35.11-.43a22.89,22.89,0,0,1,1.23-2.91,15.14,15.14,0,0,1,2.91-4,11.17,11.17,0,0,1,6.62-3.09,14.74,14.74,0,0,1,13.52,6.46,16.06,16.06,0,0,1,2.39,9.95.61.61,0,0,0,1.21.12,17.31,17.31,0,0,0-2.57-10.72,15.77,15.77,0,0,0-14.67-7A12.37,12.37,0,0,0,618.88,42a16.32,16.32,0,0,0-3.14,4.34,24,24,0,0,0-1.3,3.07c0,.1-.09.3-.14.54s-.17.67-.26.95l-.24,0a11.42,11.42,0,0,0-1.19,0,10,10,0,0,0-3.28.66A8.31,8.31,0,0,0,605.84,54a9.55,9.55,0,0,0-1.3,2.25,12.36,12.36,0,0,0-.48,1.41c0,.07,0,.2-.07.35l0,.22h-.22L591,58.84A.61.61,0,0,0,591,60Z"/></g><g class="cls-8"><path class="cls-9" d="M468.46,46.58h7.41a.61.61,0,0,0,.61-.63,5.45,5.45,0,0,1,1.46-4.16c2.26-2.32,6.36-2.3,6.39-2.31a.67.67,0,0,0,.46-.21.61.61,0,0,0,.14-.48,12.55,12.55,0,0,1,2.61-8.62c1.81-2.07,4.49-3.1,7.84-3.1a9.18,9.18,0,0,1,6.89,2.63c3.06,3.2,2.88,8.29,2.88,8.34a.61.61,0,0,0,.24.51.62.62,0,0,0,.56.09c2.78-.93,5.19-.82,7.16.33,3.62,2.11,4.64,7.07,4.65,7.12a.61.61,0,0,0,.59.49h14.57a.61.61,0,0,0,0-1.21H518.82c-.37-1.41-1.69-5.44-5.11-7.44a9.29,9.29,0,0,0-7.37-.67c-.07-1.7-.54-5.6-3.2-8.38a10.34,10.34,0,0,0-7.77-3c-3.72,0-6.71,1.16-8.76,3.51a13.68,13.68,0,0,0-2.95,8.92c-1.37.1-4.56.55-6.61,2.65a6.45,6.45,0,0,0-1.8,4.42h-6.8a.61.61,0,0,0,0,1.21Z"/></g></g><path class="cls-10" d="M327.13,132.4c-4.77.4-10.34-5-12.65-12.38-2.5-7.55-.47-13.78,4.76-13.66s11.46,6.28,13.48,13.29C334.59,126.49,332,132.08,327.13,132.4Z"/><path class="cls-10" d="M289.66,189.72c-.7-.26-.64-2.82-.59-3.92l.77-12.69c.13-1.42.51-2.25,1.14-2.47s1.6.49,1.74.62c.63.37,14.59,8.51,16.26,9.12a2.77,2.77,0,0,0,2.43,0l.07,0h0c.1-.09,7.35-6.68,9.34-8.62a5,5,0,0,0,1.88-3.58l-1.33-19.29c-.3-3.12-2.09-3.73-2.18-3.76s-7.46-3.18-9.44-4.15a6.25,6.25,0,0,0-4.34-.05l-13.76,6.67a2.67,2.67,0,0,1-2.71-4.57l12.21-8.71a9.62,9.62,0,0,1,5.93-1.34c2.29.27,11,1.36,14.59,1.81l4.6.59,18-.65.28-.05,3.07-.5c3.52-.57,9.41-1.51,12.76-2.16l1-.08h.11l.28,0A14.69,14.69,0,0,1,365,132a2.31,2.31,0,0,1,1.87,1.49c.42,1.58-2.61,2.93-3.18,3.17l-.08,0c-3.87,1.65-11.52,4.91-12.8,5.42a13.58,13.58,0,0,1-3.42.91l-10.32,2.15a2.5,2.5,0,0,0-1.14.81,2.94,2.94,0,0,0-.46,2.26l1.66,8c1.18,3.78,3.75,4,3.87,4.05l8.25,1.26c3.51.48,5.67,3.77,5.76,3.91l6.33,10.63c.32.52,2,3.06,4.1,2.16,5.17-2.25,8-2.91,8.74-2,.37.46.15,1.24-.68,2.39l0,0c-.52.45-6.69,5.26-7.5,5.82l-1.57,1.3a3.58,3.58,0,0,1-3,1.11,4.7,4.7,0,0,1-1.67-.95l-11.12-9.64a5.63,5.63,0,0,0-5.07-1.89,6.47,6.47,0,0,0-2.45.9c-.25.16-25.31,16-28.53,18.59a4,4,0,0,1-3.14,1.2,3.77,3.77,0,0,1-2.42-1.48c-.08-.09-8.17-8.94-10.15-10.72a2.22,2.22,0,0,0-1.77-.74,1.73,1.73,0,0,0-1.1.77l-3.68,6.44c-.24.31-.47.43-.68.37Z"/><path class="cls-11" d="M711.79,41.07c2.51.95,5.34,2.11,5.93.78,0-.42-1.41-2.32-2.4-3.58-1.79-2.28-3-3.82-3-4.74a.32.32,0,0,1,0-.19c3.27-4.53,5.4-8.69,4.74-9.28s-3.12.95-5,2.11c-2.26,1.29-4.22,2.4-5.17,2.11s-2.36-2.28-3.48-4-2-3.46-2.83-3.61a.57.57,0,0,0-.46.13c-1.2.91-.49,3.46.08,5.57a9.51,9.51,0,0,1,.53,2.74c0,1-2.11,1.62-5.52,2.49-1.62.42-4.64,1.18-4.64,1.71,0,.89,2.57,1.41,4.66,1.83a10.9,10.9,0,0,1,4.64,1.54c.82.82.59,2.61.36,4.51s-.53,4.22.63,4.6c.82.3,2.7-1.92,3.94-3.37A18.83,18.83,0,0,1,707,40.25a1.39,1.39,0,0,1,.89-.25A14.25,14.25,0,0,1,711.79,41.07Z"/><path class="cls-10" d="M621.54,173.18c-2.14-1-8.32-4.54-9.06-5-.35-3,2.39-23.16,2.74-25.46a1.64,1.64,0,0,0,0-.4c-.17-1.78-2.51-12.22-2.9-15.38a1.92,1.92,0,0,1,.36-1.38l13.7-19.65a.81.81,0,0,1,1.18-.12l5.81,5.74a1.5,1.5,0,0,0,.47.35L647.53,121a.88.88,0,0,0,1.07-1.35L627.7,93.82a3.51,3.51,0,0,0-5.2-.31c-4.72,4.65-18.35,18.83-24.91,25.67a7,7,0,0,0-1.06,8.3c3.21,5.72,8.34,15,8.76,16.47a1.79,1.79,0,0,1,.07.46c.06,2.6.62,26.05.88,27.35a2.32,2.32,0,0,0,2.77,1.82c.9-.09,9.27.88,12.3.77A.62.62,0,0,0,621.54,173.18Z"/><path class="cls-10" d="M636.2,97.6c4.34,1.62,8.75-.79,11.68-7.33,2.47-5.51.3-11.56-4-13.18s-10.28,1.45-11.68,7.33C630.91,89.72,631.86,96,636.2,97.6Z"/><path class="cls-12" d="M669.74,106.23c-2.63-4.77-13.91-3.88-17-3.53a.46.46,0,0,0-.32.74L666.3,122a.38.38,0,0,0,.65,0C668.12,119.73,672.4,111,669.74,106.23Z"/><path class="cls-12" d="M650.4,104.91a2.21,2.21,0,0,0-2.26-.82,58.79,58.79,0,0,0-6.34,1.77.79.79,0,0,0-.34,1.24c2.39,2.93,7.68,10.15,9.59,13.2,1,1.58-.9,3.73-2.63,3.05l-17.88-10.49a1.85,1.85,0,0,0-2.24.29l-12.7,12.58a1.37,1.37,0,0,0-.41,1.14l3,14.89-2.95,24.55a1.17,1.17,0,0,0,.51,1.11l4.38,2.77a.44.44,0,0,0,.69-.39,13.64,13.64,0,0,0-1-4.35,1.05,1.05,0,0,1,.48-1.37c12.14-6,37.35-23.54,43.59-39.07a2.88,2.88,0,0,0-.39-2.8Z"/><path class="cls-12" d="M616.71,176.16l-10.87-.51a2,2,0,0,1-1.84-1.92l-1.22-28.56a1.56,1.56,0,0,0-.08-.49c-.21-.63-1.89-4.07-2-4.37a2.3,2.3,0,0,0-.52-.84c-11.65-11.25-26.11,6.94-30.43,14.53a.41.41,0,0,0,.55.56c9.23-4.91,13.15-.06,14.36,2.11a1.11,1.11,0,0,1-.35,1.46L580,161a1.29,1.29,0,0,0-.3,1.85l11.33,14.92a.86.86,0,0,0,1.26.13c.85-.76,2.42-2.13,4.31-3.64a1.25,1.25,0,0,1,1.53,0c5,3.8,2.12,10.94-1.2,15.28a.4.4,0,0,0,.46.61c9.87-3.54,17.25-10.54,19.68-13A.57.57,0,0,0,616.71,176.16Z"/><path class="cls-11" d="M577.71,164.34a1,1,0,0,0-1.3-.28c-1.92,1-6.91,4.07-9.17,8.45a.25.25,0,0,0,.38.31c1.5-1.07,3.64-1.58,2.29.57-1.56,2.48-7.51,8.4-8.73,14.62a1.11,1.11,0,0,0,1,1.31c8.5.59,14.52-3.5,16.17-4.16s2.22-.5.42,2.86a.3.3,0,0,0,.37.42c7-2.87,9.43-6.14,10.23-7.71a1.5,1.5,0,0,0-.15-1.61Z"/><path class="cls-13" d="M591.58,108.83l4.82,4.63a1.56,1.56,0,0,0,2.16,0l19-18.18a1.13,1.13,0,0,0,.1-1.53l-3-3.69a3,3,0,0,0-4.21-.46l-18.7,15A2.82,2.82,0,0,0,591.58,108.83Z"/><path class="cls-10" d="M56,209.4s5,3.14,5,3.14c1.59,1,1.77,3.37.83,4.9l-4.33,7.15a2.16,2.16,0,1,1-3.65-2.28l2.78-4.4-4.29-2.68Z"/><path class="cls-10" d="M43.39,212.24h0l-3.14,5c-1,1.59-.15,3.81,1.34,4.78l7,4.6A2.16,2.16,0,1,0,50.92,223l-4.4-2.78,2.7-4.26-5.83-3.69"/><path class="cls-10" d="M46.41,195.7a6,6,0,1,0-7.21-4.56,6,6,0,0,0,7.21,4.56Z"/><path class="cls-10" d="M55.66,207l-.83-4,5.91,3.46a2.11,2.11,0,0,0,1.54.23,2.13,2.13,0,0,0,.61-3.92s-7-4.82-7.93-5.34c-1.79-1-4.15-1.24-7.7-.44l-1.1.25c-3.55.8-5.57,2-6.76,3.7-.64.88-4.87,8.23-4.87,8.23a2.13,2.13,0,0,0,2.23,3.28,2.11,2.11,0,0,0,1.29-.87l3.86-5.65,1,4Z"/><path class="cls-10" d="M131.82,195.4s-6.24,2-10.06,2,1.19,3.22,1.19,3.22,11.7,9.29,2.19,12.21a99.33,99.33,0,0,1-20.29,4.09c-2.52.14-9.43-3.2-1.81-9,4-2.44,12.44-1.5,12.44-1.5s-17.94-4.5-11.72-14.39c4.14-6.59,11.32-11.72,25.74-13.33,4.58-.65,8.71,3.57,12,12.27s5.19,8,6.47,9.3c2,2.1,3.63,9.35-3.38,8.78S131.82,195.4,131.82,195.4Z"/><path class="cls-10" d="M143.3,164.82c1.6,4.91-.44,10.14-4.57,11.7s-8.78-1.16-10.38-6.07.44-10.14,4.57-11.7S141.7,159.92,143.3,164.82Z"/><ellipse class="cls-10" cx="217.94" cy="133.27" rx="8.76" ry="10.85" transform="translate(-13.93 26.05) rotate(-6.63)"/><path class="cls-10" d="M208.94,161.39a41.84,41.84,0,0,1-.26,9.78,62.83,62.83,0,0,0-.9,12.12c.09,3.64-1,6.58-3.32,11a7,7,0,0,0,2.73,9.57c2.44,1.19,6.21,2.43,6.23.51a10.36,10.36,0,0,0-1.53-4.4s7.94-10.32,8.71-17.11c0,0,5.81,4.69,10.65,15.07s16.41-1.15,13.21-1.76a11.85,11.85,0,0,0-4.88-.15s-1.21-14.25-11.25-23.55c0,0-2.66-1.88-1.15-5.77,1.35-3.49,1.28-6.39,1.68-9a25.11,25.11,0,0,1,14-1.88c6.84.91,6.89-8.26-.1-8.62a111.8,111.8,0,0,0-32.56,3.58c-12.64,3.19-18.73,6.41-18.73,10,0,2,1,3.37,3.67,3.72S200.85,161.67,208.94,161.39Z"/><polygon class="cls-10" points="507.34 152.52 507.19 151.85 507.34 152.52 507.34 152.52"/><polygon class="cls-10" points="502.37 153.04 502.5 153.61 502.5 153.61 502.37 153.04"/><polygon class="cls-10" points="443.33 168.03 443.07 168.12 443.33 168.03 443.33 168.03"/><path class="cls-14" d="M454.62,176.51l-7.13-.11.09-.31a19.41,19.41,0,0,0,.73-4.89v-.25l6.4.1a2.73,2.73,0,0,1-.09,5.46Zm-6.48-.6,6.49.1a2.23,2.23,0,0,0,.07-4.46l-5.91-.1A19.89,19.89,0,0,1,448.14,175.91Z"/><path class="cls-14" d="M428.84,173.53a2.73,2.73,0,0,1-.92-5.28l23.87-9-10.45-10.79-17.62-.28a2.73,2.73,0,1,1,.09-5.46l18.75.3a2.71,2.71,0,0,1,1.92.83l14.13,14.6a2.73,2.73,0,0,1-1,4.45l-27.76,10.42A2.74,2.74,0,0,1,428.84,173.53Zm-5-30.29a2.23,2.23,0,1,0-.07,4.47l17.82.29.07.07,11.05,11.41-24.57,9.23a2.23,2.23,0,1,0,1.57,4.18l27.76-10.42a2.23,2.23,0,0,0,.82-3.64l-14.13-14.6a2.22,2.22,0,0,0-1.57-.68Z"/><path class="cls-12" d="M448.55,171.2s0-.05,0-.08a19.63,19.63,0,0,0-.53-4.85l-4.7,1.76a14.72,14.72,0,1,1-1.75-4.64l5.88-2.21-1.18.44a19.66,19.66,0,1,0,1.54,14.53A28.82,28.82,0,0,0,448.55,171.2Z"/><path class="cls-10" d="M490.84,179.1h0Z"/><path class="cls-14" d="M490.49,178.86c-.12-.33-.23-.67-.34-1l-16.23-.26a2.73,2.73,0,1,1,.09-5.46l15.8.25v.24A20.72,20.72,0,0,0,491,178.7ZM474,172.64a2.23,2.23,0,1,0-.07,4.47l16.11.26a19.55,19.55,0,0,1-.72-4.48Z"/><path class="cls-14" d="M509.17,174.83a2.72,2.72,0,0,1-2.62-2.13l-2.46-10.89h0l-2.35-10.4a21.15,21.15,0,0,0-10.3,8.51A2.73,2.73,0,0,1,486.8,157a26.62,26.62,0,0,1,13.73-11l-3.15-14-5.69-2.89.5-.21c1.82-.74,2.3-2.18,2.74-4l.08-.31,6.06,3.17a2.73,2.73,0,0,1,1.35,1.79l3.41,15.1c.78-.1,1.56-.17,2.32-.2a26.37,26.37,0,0,1,13.46,3.1,2.73,2.73,0,1,1-2.57,4.82A21,21,0,0,0,508.38,150c-.43,0-.87.05-1.33.1l4.82,21.39a2.73,2.73,0,0,1-2.71,3.33Zm-5.36-16.56L507,172.59a2.23,2.23,0,1,0,4.36-1l-4.95-21.93.27,0c.58-.07,1.12-.11,1.64-.13A21.5,21.5,0,0,1,519.29,152a2.23,2.23,0,1,0,2.1-3.94,26,26,0,0,0-13.21-3,25,25,0,0,0-2.5.23l-.23,0,0-.22L502,129.76a2.23,2.23,0,0,0-1.1-1.47l-5.5-2.88c-.41,1.58-.94,3-2.49,3.78l5,2.52,3.3,14.64-.21.07a26.13,26.13,0,0,0-13.68,10.87,2.23,2.23,0,0,0,3.8,2.35,21.66,21.66,0,0,1,10.82-8.81l.27-.1.51,2.26h0Z"/><path class="cls-10" d="M490.83,179.09l-.11-.31Z"/><path class="cls-10" d="M489.55,172.43v0c0,.08,0,.15,0,.23h0C489.55,172.57,489.56,172.5,489.55,172.43Z"/><path class="cls-10" d="M490.85,179.14h0v0Z"/><path class="cls-12" d="M509.53,152.43a19.81,19.81,0,0,0-2.19.09l1.1,4.89c.33,0,.67,0,1,0a14.71,14.71,0,1,1-5.85,1.11c-.31-1.38-.82-3.6-1.1-4.89a19.7,19.7,0,0,0-12.95,18.16c0,.22,0,.44,0,.65s0,.14,0,.21h0a20.81,20.81,0,0,0,1.17,6.14l.11.31h0v0a19.67,19.67,0,1,0,18.68-26.71Z"/><path class="cls-10" d="M502.37,153v0l.14.61h0Z"/><path class="cls-10" d="M503.6,158.5h0l.28,1.22Z"/><path class="cls-10" d="M503.6,158.5l.28,1.22h0l-1.38-6.11h0c.29,1.29.79,3.51,1.1,4.89Z"/><polygon class="cls-10" points="502.36 153 502.36 153 502.37 153.04 502.36 153"/><path class="cls-10" d="M455.42,100.29l-11.35,36.85a5.63,5.63,0,0,0,4.52,7.12l21.07,4.82a1.49,1.49,0,0,1,1.2,1.72l-13.49,23.87a1.72,1.72,0,0,0,1.06,2l12.32,8.94a1,1,0,0,0,.51-1.58l-4.33-8.31a1.34,1.34,0,0,1-.16-1.36L484.52,150c.81-2.63,1.61-6-3.27-9.44l-17-8.42,2.35-12.8a.29.29,0,0,1,.53-.08s2.75,4.19,4.4,6.55a4.07,4.07,0,0,0,2.76,1.7l17.46.93a1.9,1.9,0,0,0,2-2.54h0a1.9,1.9,0,0,0-1.13-1.13l-13.23-4.58a1.2,1.2,0,0,1-1.18-.81l-7.14-15.68a2.66,2.66,0,0,0-1.2-1.44l-10.49-4.06A3.15,3.15,0,0,0,455.42,100.29Z"/><ellipse class="cls-10" cx="466.87" cy="87.15" rx="10.77" ry="6.94" transform="translate(298.13 531.1) rotate(-79.76)"/><path class="cls-14" d="M373.44,101.61a2.85,2.85,0,0,0,.57,1.56,2.19,2.19,0,0,0,.66.57,2.14,2.14,0,0,0,.84.26,2.51,2.51,0,0,0,.84-.06h.09l.11,0,.17-.06.34-.12c.45-.15.91-.38,1.36-.57s.87-.43,1.31-.65l1.28-.69.39-.23c-.79.88-1,1.48-.91,1.52.43.26,3.25-1.33,3.88-2.64l1.19-2.51h0a.88.88,0,0,0,.91-1.47c1.09-.69,3.49-1.56,4-1.22a.57.57,0,0,1,.29.37.84.84,0,0,1-.25.59.21.21,0,0,1-.16.08.72.72,0,0,1-.46-.19c-.17-.15-.19-.21-.06-.38a.15.15,0,0,1,.12-.06.45.45,0,0,1,.3.15l.15-.12a.62.62,0,0,0-.45-.22.34.34,0,0,0-.27.14c-.2.29-.12.45.1.64a.89.89,0,0,0,.6.23l.13,0a.41.41,0,0,0,.16-.12,1,1,0,0,0,.29-.74.74.74,0,0,0-.38-.51c-.67-.42-3.24.57-4.29,1.26l0,0a7.32,7.32,0,0,1,3.12-3.17.58.58,0,0,1,.47.1.87.87,0,0,1,.19.61.21.21,0,0,1-.07.16.7.7,0,0,1-.47.15c-.23,0-.28,0-.29-.25a.15.15,0,0,1,.05-.13.43.43,0,0,1,.32-.07l0-.19a.61.61,0,0,0-.49.11.33.33,0,0,0-.12.28c0,.35.2.42.48.43a.9.9,0,0,0,.61-.2.42.42,0,0,0,.13-.3,1,1,0,0,0-.25-.76.73.73,0,0,0-.61-.15c-.71.09-2.8,2-3.27,3.29a.86.86,0,0,0-.56,0l-.12.06-.08.19.12-.3c.4-1,.76-2,1.08-3.09a20,20,0,0,0,.7-3.23l0-.42,0-.42a8.2,8.2,0,0,0,0-.85,4.79,4.79,0,0,0-.14-.86,3.54,3.54,0,0,0-.14-.43c-.05-.14-.13-.28-.2-.42v0l0,0-.14-.16a.91.91,0,0,0-.15-.15l-.18-.13a1.16,1.16,0,0,0-.2-.11.61.61,0,0,0-.23-.05.84.84,0,0,0-.24,0,.89.89,0,0,0-.22,0l-.21.07-.18.1-.16.12a2.29,2.29,0,0,0-.27.26,2.73,2.73,0,0,0-.39.6,2.72,2.72,0,0,1,.28-.2l.29-.17.3-.12.14,0,.14,0h.13a.43.43,0,0,1,.12,0,.26.26,0,0,1,.1,0l.09.05s.07,0,.1,0l.1.07s.06.06.09.09l.08.08c0,.1.1.19.13.29a2.69,2.69,0,0,1,.11.34,4.16,4.16,0,0,1,.12.73,7.06,7.06,0,0,1,0,.76l0,.39,0,.39a18.85,18.85,0,0,1-.67,3.09c-.27.9-.58,1.8-.92,2.68.07-.4.14-.8.2-1.2s.12-.9.17-1.36a11.86,11.86,0,0,0,.08-1.38,12.76,12.76,0,0,0-.31-2.79,5.24,5.24,0,0,0-.55-1.35,3.15,3.15,0,0,0-1.05-1.12,1.9,1.9,0,0,0-.8-.27,1.94,1.94,0,0,0-.84.12,2.83,2.83,0,0,0-1.2,1,5.1,5.1,0,0,0-.66,1.31,7.65,7.65,0,0,0-.32,1.39,10.16,10.16,0,0,0-.05,2.14l-.35-.15a7.84,7.84,0,0,0-1-.32,4.19,4.19,0,0,0-1.11-.13,2.19,2.19,0,0,0-1.18.34,1.75,1.75,0,0,0-.7,1.07,2.91,2.91,0,0,0,0,1.17,5,5,0,0,0,.87,2l.09.11.1.13.18.19.18.19,0,0a3.26,3.26,0,0,0-.43.09,4.16,4.16,0,0,0-.57.19,4.43,4.43,0,0,0-.57.28l-.15.09-.13.08-.15.12-.13.12a3,3,0,0,0-.71,1.15,4.7,4.7,0,0,0-.24,1.1s0,.08,0,.12a.41.41,0,0,0,0,.12l.07.21,0,.07a3.43,3.43,0,0,0-.14,1.16Zm2.89-4.07a2.74,2.74,0,0,1,.43-.08.59.59,0,0,1,.19,0l.2-.09.14-.06.32.23c.29.2.58.39.88.57l.11.06c-.27,0-.55-.08-.83-.09a6.5,6.5,0,0,0-1.54.06,3.89,3.89,0,0,0-.77.22,3.1,3.1,0,0,0-.7.4,3.36,3.36,0,0,0-.29.25,2.16,2.16,0,0,1,.49-.77l.09-.08.09-.07.12-.08.11-.06a3.74,3.74,0,0,1,.48-.24,3.13,3.13,0,0,1,.47-.15ZM384.51,93c0,.45,0,.9,0,1.34-.05.9-.13,1.79-.23,2.69v.08c0,.11-.06.23-.08.34a9.77,9.77,0,0,0-.14,1.34l-.16.17s-.53.62-.53.62h0l-.67-.28-1.05-.46c-.62-.28-1.22-.58-1.81-.9-.3-.16-.59-.32-.88-.49s-.57-.35-.84-.54-.27-.19-.4-.29l-.19-.15-.17-.15-.18-.15-.18-.18-.17-.18h0l0,0,0,0-.07-.09a4.26,4.26,0,0,1-.74-1.7,2.18,2.18,0,0,1,0-.87,1,1,0,0,1,.38-.61,1.45,1.45,0,0,1,.77-.2,3.55,3.55,0,0,1,.91.11,7.92,7.92,0,0,1,.93.29l.46.19.45.21.64.29-.09-.69a9.9,9.9,0,0,1,0-2.6,6.71,6.71,0,0,1,.29-1.25,4.31,4.31,0,0,1,.55-1.11A2.05,2.05,0,0,1,382,87a1.05,1.05,0,0,1,1,.09,2.37,2.37,0,0,1,.78.85,4.4,4.4,0,0,1,.47,1.16,8.72,8.72,0,0,1,.21,1.28,11.55,11.55,0,0,1,.06,1.32Zm.66,4.69s-.37.33-.71.67a3,3,0,0,1,.28-.64c.07-.12.16-.23.22-.35l0-.06a.71.71,0,0,0,0,.13.84.84,0,0,0,.16.25Zm-10.57,5a2,2,0,0,1-.4-1.12,2.53,2.53,0,0,1,1-2.18,2.35,2.35,0,0,1,.55-.32,3.39,3.39,0,0,1,.62-.18,5.8,5.8,0,0,1,1.35-.05,13.27,13.27,0,0,1,2.75.53c.45.13.9.28,1.35.45l.52.2.39.16-.83.86-1,.47-1.33.56c-.45.17-.89.36-1.34.51s-.88.31-1.36.42l-.68.17a2,2,0,0,1-.59.05,1.33,1.33,0,0,1-1-.53Zm0,0"/><path class="cls-15" d="M379.29,95.7c-.48,1.51,3.73,3.06,3.73,3.06s1-5.58-.42-5.69-1.18,2.45-1.18,2.45-1.66-1.33-2.13.18Zm0,0"/><path class="cls-15" d="M378.25,99.81c-1.3.65-.43,2,.59,2a9.92,9.92,0,0,0,3.12-1.44s-2.41-1.16-3.71-.52Zm0,0"/><path class="cls-12" d="M440.35,239.06c-2.8.54-52-4.06-49.08,6.93.18.67,26.14,3.63,28.24,4.06,12.85,2.64,19.58.27,31.73-2.55,4.62-1.08,22.91-.87,24.13-6.28C477.05,233.76,442,238.74,440.35,239.06Z"/><path class="cls-12" d="M26.28,244.88c9.13,2.89,19.29,7.32,28.94,6.45,11-1,21.32-10.86,32.19-10.49,5.08.17,12.69,6.1,21,5.16,10.38-1.17,20.24-4.83,30.63-5.67,8.62-.7,18.45.81,27.43-1.09,13-2.74,19.18-8.39,34-1.07,8.92,4.41,13.75,11.76,23.91,13.73,21.13,4.1,4.52-4.11,7.55-10.25,4.65-9.43,19.75-1.43,27.68-1.64,12-.32,9.2-3.62,17.48-9.31,9-6.19,25-8.91,35.59-4.85,7.71,3,6.8,7.25,12.34,10.84,35.48,23,51.58-14.23,84.48-16,21-1.15,42.17,2.21,63.18,2.41,10.22.1,28.79,2.59,38.31-2.36,17.81-9.27-8.47-2.89-12.68-9.51-.13-.21,49.8,4.53,53.35,5.38,20.15,4.83,39,12.79,58.83,18.68,5.5,1.64,19.91,8.07,25.77,4.37s.18-10.75,5.06-14c11.9-8,43.08,28.5,52.29,16.24,1.52-2-11-8.24-11.62-10.4-.24-.83,12.26,1.25,13.11.83,3.73-1.84-8.74-10.31,9-8.48-67.68-11.85-126.85-16.09-188.68-18.58C345.67,198.33,187.12,212.77,26.28,244.88Z"/></svg>