<?xml version="1.0" encoding="utf-8"?>
<!-- Generator: Adobe Illustrator 20.1.0, SVG Export Plug-In . SVG Version: 6.00 Build 0)  -->
<svg version="1.1" id="Layer_1" xmlns="http://www.w3.org/2000/svg" xmlns:xlink="http://www.w3.org/1999/xlink" x="0px" y="0px"
	 viewBox="0 0 720 300" style="enable-background:new 0 0 720 300;" xml:space="preserve">
<style type="text/css">
	.st0{opacity:0.3;}
	.st1{fill:#C3F1FC;}
	.st2{fill:#3273AD;}
	.st3{opacity:0.6;}
	.st4{fill:#EFF5F8;}
	.st5{opacity:0.4;}
	.st6{fill:#E3B462;}
	.st7{fill:#32B475;}
	.st8{fill:#349B67;}
	.st9{fill:#0AA5E3;}
	.st10{fill:#CAEDFF;}
	.st11{fill:#FFFFFF;}
	.st12{fill:#FCFCFC;}
	.st13{opacity:0.5;}
	.st14{fill:#0F9D58;}
	.st15{fill:#FAD264;}
	.st16{fill:#E5E5E5;}
	.st17{fill:#999999;}
</style>
<title>Building-skills-illustration</title>
<g>
	<g class="st0">
		<rect x="29.8" y="230.8" class="st1" width="33.7" height="14.6"/>
		<path class="st2" d="M63.7,245.6H29.5v-15.1h34.2V245.6z M30,245.1h33.2V231H30V245.1z"/>
		<rect x="66" y="230.8" class="st1" width="33.7" height="14.6"/>
		<path class="st2" d="M99.9,245.6H65.8v-15.1h34.2V245.6z M66.3,245.1h33.2V231H66.3V245.1z"/>
		<rect x="102.3" y="230.8" class="st1" width="33.7" height="14.6"/>
		<path class="st2" d="M136.2,245.6H102v-15.1h34.2L136.2,245.6z M102.5,245.1h33.2V231h-33.2L102.5,245.1z"/>
		<rect x="138.6" y="230.8" class="st1" width="33.7" height="14.6"/>
		<path class="st2" d="M172.5,245.6h-34.2v-15.1h34.2L172.5,245.6z M138.9,245.1H172V231h-33.1L138.9,245.1z"/>
		<rect x="47.8" y="248" class="st1" width="33.7" height="14.6"/>
		<path class="st2" d="M81.8,262.8H47.6v-15.1h34.2V262.8z M48.1,262.3h33.2v-14.1H48.1V262.3z"/>
		<rect x="84.1" y="248" class="st1" width="33.7" height="14.6"/>
		<path class="st2" d="M118,262.8H83.8v-15.1H118V262.8z M84.3,262.3h33.2v-14.1H84.3L84.3,262.3z"/>
		<rect x="120.3" y="248" class="st1" width="33.7" height="14.6"/>
		<path class="st2" d="M154.2,262.8h-34.2v-15.1h34.2L154.2,262.8z M120.6,262.3h33.2v-14.1h-33.2L120.6,262.3z"/>
		<rect x="156.6" y="248" class="st1" width="33.7" height="14.6"/>
		<path class="st2" d="M190.5,262.8h-34.2v-15.1h34.2V262.8z M156.8,262.3H190v-14.1h-33.2V262.3z"/>
		<rect x="11.7" y="248" class="st1" width="33.7" height="14.6"/>
		<path class="st2" d="M45.6,262.8H11.5v-15.1h34.2V262.8z M12,262.3h33.1v-14.1H12V262.3z"/>
		<rect x="47.9" y="213.6" class="st1" width="33.7" height="14.6"/>
		<path class="st2" d="M81.8,228.5H47.6v-15.1h34.2V228.5z M48.1,228h33.2v-14.2H48.1V228z"/>
		<rect x="84.1" y="213.6" class="st1" width="33.7" height="14.6"/>
		<path class="st2" d="M118.1,228.5H83.9v-15.1H118L118.1,228.5z M84.4,228h33.2v-14.2H84.4V228z"/>
		<rect x="120.4" y="213.6" class="st1" width="33.7" height="14.6"/>
		<path class="st2" d="M154.3,228.5h-34.2v-15.1h34.2V228.5z M120.6,228h33.2v-14.1h-33.2L120.6,228z"/>
		<rect x="156.6" y="213.6" class="st1" width="33.7" height="14.6"/>
		<path class="st2" d="M190.5,228.5h-34.2v-15.1h34.2V228.5z M156.9,228H190v-14.1h-33.1V228z"/>
		<rect x="102.3" y="196.4" class="st1" width="33.7" height="14.6"/>
		<path class="st2" d="M136.2,211.3H102v-15.1h34.2L136.2,211.3z M102.5,210.8h33.2v-14.1h-33.2L102.5,210.8z"/>
		<rect x="138.6" y="196.4" class="st1" width="33.7" height="14.6"/>
		<path class="st2" d="M172.5,211.3h-34.2v-15.1h34.2L172.5,211.3z M138.9,210.8H172v-14.1h-33.1L138.9,210.8z"/>
		<rect x="174.5" y="230.8" class="st1" width="15.7" height="14.6"/>
		<path class="st2" d="M190.4,245.6h-16.2v-15.1h16.2V245.6z M174.7,245.1h15.2V231h-15.2V245.1z"/>
		<rect x="174.5" y="196.4" class="st1" width="15.7" height="14.6"/>
		<path class="st2" d="M190.4,211.3h-16.2v-15.1h16.2V211.3z M174.7,210.8h15.2v-14.1h-15.2V210.8z"/>
	</g>
	<g class="st0">
		<rect x="656.6" y="230.8" class="st1" width="33.7" height="14.6"/>
		<path class="st2" d="M690.5,245.6h-34.2v-15.1h34.2V245.6z M656.8,245.1H690V231h-33.2V245.1z"/>
		<rect x="620.3" y="230.8" class="st1" width="33.7" height="14.6"/>
		<path class="st2" d="M654.2,245.6h-34.2v-15.1h34.2V245.6z M620.6,245.1h33.2V231h-33.2V245.1z"/>
		<rect x="584.1" y="230.8" class="st1" width="33.7" height="14.6"/>
		<path class="st2" d="M618,245.6h-34.2v-15.1H618V245.6z M584.3,245.1h33.2V231h-33.2L584.3,245.1z"/>
		<rect x="547.7" y="230.8" class="st1" width="33.7" height="14.6"/>
		<path class="st2" d="M581.6,245.6h-34.2v-15.1h34.2V245.6z M548,245.1h33.2V231H548L548,245.1z"/>
		<rect x="638.5" y="248" class="st1" width="33.7" height="14.6"/>
		<path class="st2" d="M672.4,262.8h-34.2v-15.1h34.2V262.8z M638.8,262.3h33.2v-14.1h-33.2V262.3z"/>
		<rect x="602.3" y="248" class="st1" width="33.7" height="14.6"/>
		<path class="st2" d="M636.2,262.8H602v-15.1h34.2L636.2,262.8z M602.5,262.3h33.2v-14.1h-33.2V262.3z"/>
		<rect x="566" y="248" class="st1" width="33.7" height="14.6"/>
		<path class="st2" d="M599.9,262.8h-34.2v-15.1h34.2V262.8z M566.3,262.3h33.2v-14.1h-33.2V262.3z"/>
		<rect x="529.8" y="248" class="st1" width="33.7" height="14.6"/>
		<path class="st2" d="M563.7,262.8h-34.2v-15.1h34.2V262.8z M530,262.3h33.2v-14.1H530L530,262.3z"/>
		<rect x="674.6" y="248" class="st1" width="33.7" height="14.6"/>
		<path class="st2" d="M708.5,262.8h-34.2v-15.1h34.2V262.8z M674.9,262.3H708v-14.1h-33.1V262.3z"/>
		<rect x="638.4" y="213.6" class="st1" width="33.7" height="14.6"/>
		<path class="st2" d="M672.4,228.5h-34.2v-15.1h34.2V228.5z M638.7,228h33.2v-14.1h-33.2V228z"/>
		<rect x="602.2" y="213.6" class="st1" width="33.7" height="14.6"/>
		<path class="st2" d="M636.1,228.5H602v-15.1h34.2V228.5z M602.5,228h33.2v-14.1h-33.2V228z"/>
		<rect x="566" y="213.6" class="st1" width="33.7" height="14.6"/>
		<path class="st2" d="M599.9,228.5h-34.2v-15.1h34.2V228.5z M566.2,228h33.2v-14.2h-33.2V228z"/>
		<rect x="529.7" y="213.6" class="st1" width="33.7" height="14.6"/>
		<path class="st2" d="M563.6,228.5h-34.2v-15.1h34.2V228.5z M530,228h33.2v-14.2H530V228z"/>
		<rect x="584.1" y="196.4" class="st1" width="33.7" height="14.6"/>
		<path class="st2" d="M618,211.3h-34.2v-15.1H618V211.3z M584.3,210.8h33.2v-14.1h-33.2L584.3,210.8z"/>
		<rect x="547.7" y="196.4" class="st1" width="33.7" height="14.6"/>
		<path class="st2" d="M581.6,211.3h-34.2v-15.1h34.2V211.3z M548,210.8h33.2v-14.1H548L548,210.8z"/>
		<rect x="529.8" y="230.8" class="st1" width="15.7" height="14.6"/>
		<path class="st2" d="M545.8,245.6h-16.2v-15.1h16.2V245.6z M530.1,245.1h15.2V231h-15.2V245.1z"/>
		<rect x="529.8" y="196.4" class="st1" width="15.7" height="14.6"/>
		<path class="st2" d="M545.8,211.3h-16.2v-15.1h16.2V211.3z M530.1,210.8h15.2v-14.1h-15.2V210.8z"/>
	</g>
	<g class="st3">
		<path class="st4" d="M569.7,81.3h-48.2c-2,0.1-3.5,1.8-3.4,3.8c0.1,1.9,1.6,3.3,3.4,3.4h12.4c2,0.1,3.5,1.8,3.4,3.8
			c-0.1,1.9-1.6,3.3-3.4,3.4H526c-2,0-3.6,1.6-3.6,3.6s1.6,3.6,3.6,3.6h31.2c2,0,3.6-1.6,3.6-3.6s-1.6-3.6-3.6-3.6H552
			c-2,0-3.6-1.6-3.6-3.6s1.6-3.6,3.6-3.6h17.6c2,0,3.6-1.6,3.6-3.6S571.6,81.3,569.7,81.3L569.7,81.3z"/>
	</g>
	<g class="st3">
		<path class="st4" d="M625.5,133.1h48.2c2,0,3.6-1.6,3.6-3.6s-1.6-3.6-3.6-3.6h-12.4c-2,0-3.6-1.6-3.6-3.6s1.6-3.6,3.6-3.6l0,0h7.8
			c2,0,3.6-1.6,3.6-3.6s-1.6-3.6-3.6-3.6h-31.2c-2,0.1-3.5,1.8-3.4,3.8c0.1,1.9,1.6,3.3,3.4,3.4h5.2c2,0.1,3.5,1.8,3.4,3.8
			c-0.1,1.9-1.6,3.3-3.4,3.4h-17.6c-2,0-3.6,1.6-3.6,3.6S623.5,133.1,625.5,133.1z"/>
	</g>
	<g class="st3">
		<path class="st4" d="M119.2,122.9H91.7c-1.3-0.1-2.5,0.9-2.6,2.3c-0.1,1.3,0.9,2.5,2.3,2.6c0.1,0,0.2,0,0.3,0h3.6
			c1.3-0.1,2.5,0.9,2.6,2.3s-0.9,2.5-2.3,2.6c-0.1,0-0.2,0-0.3,0h-7.8c-1.3,0.1-2.3,1.2-2.3,2.6c0.1,1.2,1,2.2,2.3,2.3h27.5
			c1.3-0.1,2.3-1.2,2.3-2.6c-0.1-1.2-1-2.2-2.3-2.3h-7.5c-1.3,0.1-2.5-0.9-2.6-2.3c-0.1-1.3,0.9-2.5,2.3-2.6c0.1,0,0.2,0,0.3,0h11.8
			c1.3-0.1,2.3-1.2,2.3-2.6C121.4,123.9,120.4,123,119.2,122.9z"/>
	</g>
	<g class="st3">
		<path class="st4" d="M178.7,66.6h39.9c1.4,0,2.5,1.1,2.5,2.5s-1.1,2.5-2.5,2.5h-15.4c-1.4,0-2.5,1.1-2.5,2.5s1.1,2.5,2.5,2.5h8
			c1.4,0,2.5,1.1,2.5,2.5s-1.1,2.5-2.5,2.5h-28.2c-1.4,0-2.5-1.1-2.5-2.5s1.1-2.5,2.5-2.5h7.7c1.4,0,2.5-1.1,2.5-2.5
			s-1.1-2.5-2.5-2.5h-12.1c-1.4,0-2.5-1.1-2.5-2.5S177.3,66.6,178.7,66.6z"/>
	</g>
	<g class="st3">
		<path class="st4" d="M196.2,173.4h-39.9c-1.4,0-2.5,1.1-2.5,2.5s1.1,2.5,2.5,2.5h15.4c1.4,0,2.5,1.1,2.5,2.5s-1.1,2.5-2.5,2.5h-8
			c-1.4,0-2.5,1.1-2.5,2.5s1.1,2.5,2.5,2.5h28.2c1.4,0,2.5-1.1,2.5-2.5s-1.1-2.5-2.5-2.5h-7.7c-1.4,0-2.5-1.1-2.5-2.5
			s1.1-2.5,2.5-2.5h12.1c1.4,0,2.5-1.1,2.5-2.5S197.6,173.4,196.2,173.4L196.2,173.4L196.2,173.4z"/>
	</g>
	<g class="st5">
		<path class="st6" d="M574,111.5c-1.8,0-3.2-1.4-3.2-3.2c0-1.8,1.4-3.2,3.2-3.2c1.8,0,3.2,1.4,3.2,3.2
			C577.2,110.1,575.8,111.5,574,111.5z M574,106.6c-0.9,0-1.7,0.8-1.7,1.7c0,0.9,0.8,1.7,1.7,1.7c0.9,0,1.7-0.8,1.7-1.7
			C575.7,107.4,574.9,106.6,574,106.6z"/>
	</g>
	<g class="st5">
		<path class="st7" d="M84.1,236.8c-1.8,0-3.2-1.4-3.2-3.2s1.4-3.2,3.2-3.2c1.8,0,3.2,1.4,3.2,3.2l0,0
			C87.3,235.3,85.9,236.8,84.1,236.8z M84.1,231.9c-0.9,0-1.7,0.8-1.7,1.7s0.8,1.7,1.7,1.7c0.9,0,1.7-0.8,1.7-1.7l0,0
			C85.8,232.6,85.1,231.9,84.1,231.9z"/>
	</g>
	<g class="st5">
		<path class="st8" d="M164.5,209.2c-1.1,0-2.1-0.9-2.1-2.1s0.9-2.1,2.1-2.1c1.1,0,2.1,0.9,2.1,2.1l0,0
			C166.5,208.3,165.6,209.2,164.5,209.2z M164.5,206.1c-0.6,0-1.1,0.5-1.1,1.1s0.5,1.1,1.1,1.1c0.6,0,1.1-0.5,1.1-1.1l0,0
			C165.5,206.6,165,206.1,164.5,206.1z"/>
	</g>
	<g class="st5">
		<path class="st6" d="M134.4,184.2c-2.6,0-4.8-2.1-4.8-4.8s2.1-4.8,4.8-4.8s4.8,2.1,4.8,4.8l0,0C139.2,182,137.1,184.2,134.4,184.2
			z M134.4,176.2c-1.8,0-3.2,1.5-3.2,3.2s1.5,3.2,3.2,3.2s3.2-1.5,3.2-3.2S136.2,176.2,134.4,176.2L134.4,176.2z"/>
	</g>
	<g class="st5">
		<path class="st6" d="M67.4,187.9c-3.1,0-5.7-2.5-5.7-5.7s2.5-5.7,5.7-5.7c3.1,0,5.7,2.5,5.7,5.7S70.6,187.9,67.4,187.9L67.4,187.9
			z M67.4,178.1c-2.3,0-4.2,1.9-4.2,4.2s1.9,4.2,4.2,4.2c2.3,0,4.2-1.9,4.2-4.2C71.6,180,69.7,178.1,67.4,178.1L67.4,178.1z"/>
	</g>
	<g class="st5">
		<path class="st9" d="M138.9,101.1c-2.9,0-5.2-2.4-5.2-5.2s2.4-5.2,5.2-5.2s5.2,2.4,5.2,5.2C144.2,98.7,141.8,101.1,138.9,101.1z
			 M138.9,92.1c-2.1,0-3.8,1.7-3.8,3.8s1.7,3.8,3.8,3.8s3.8-1.7,3.8-3.8S141,92.1,138.9,92.1z"/>
	</g>
	<g class="st5">
		<path class="st9" d="M559,164.1c-2.9,0-5.2-2.4-5.2-5.2s2.4-5.2,5.2-5.2s5.2,2.4,5.2,5.2l0,0C564.2,161.7,561.8,164.1,559,164.1z
			 M559,155.1c-2.1,0-3.8,1.7-3.8,3.8s1.7,3.8,3.8,3.8s3.8-1.7,3.8-3.8S561,155.1,559,155.1L559,155.1z"/>
	</g>
	<g class="st5">
		<path class="st6" d="M164.5,143.6c-2.6,0-4.8-2.1-4.8-4.8s2.1-4.8,4.8-4.8s4.8,2.1,4.8,4.8C169.2,141.4,167.1,143.5,164.5,143.6z
			 M164.5,135.6c-1.8,0-3.2,1.5-3.2,3.2s1.5,3.2,3.2,3.2s3.2-1.5,3.2-3.2l0,0C167.7,137,166.3,135.6,164.5,135.6z"/>
	</g>
	<g class="st5">
		<path class="st9" d="M624.1,233.3c-3.1,0-5.7-2.5-5.7-5.7c0-3.1,2.5-5.7,5.7-5.7c1.7,0,3.3,0.8,4.4,2.1l0,0c2,2.4,1.7,6-0.7,8
			C626.7,232.9,625.4,233.3,624.1,233.3z M624.1,223.5c-2.3,0-4.2,1.9-4.2,4.2c0,2.3,1.9,4.2,4.2,4.2c2.3,0,4.2-1.9,4.2-4.2
			c0-1-0.3-1.9-1-2.7l0,0c-0.7-0.9-1.7-1.4-2.8-1.5L624.1,223.5z"/>
	</g>
	<g class="st5">
		<path class="st7" d="M565.4,229.9c-1.9,0-3.4-1.5-3.4-3.4c0-1.9,1.5-3.4,3.4-3.4c1,0,2,0.5,2.7,1.2l0,0c1.2,1.4,1,3.6-0.4,4.8
			C567,229.6,566.2,229.9,565.4,229.9z M565.4,224.6c-1.1,0-1.9,0.9-1.9,1.9c0,1.1,0.9,1.9,1.9,1.9c1.1,0,1.9-0.9,1.9-1.9
			c0-0.4-0.2-0.9-0.4-1.2l0,0C566.5,224.9,566,224.6,565.4,224.6z"/>
	</g>
	<g class="st5">
		<path class="st6" d="M642.2,102.7c-2.6,0-4.8-2.1-4.8-4.7c0-2.6,2.1-4.8,4.7-4.8c2.6,0,4.8,2.1,4.8,4.7c0,1.4-0.6,2.8-1.7,3.7
			C644.4,102.3,643.3,102.7,642.2,102.7z M642.2,94.7c-1.8,0.1-3.2,1.6-3.1,3.4c0.1,1.8,1.6,3.2,3.4,3.1s3.2-1.6,3.1-3.4
			c-0.1-1.7-1.4-3-3.1-3.1H642.2z"/>
	</g>
	<g class="st5">
		<path class="st9" d="M673.4,156.3c-3.1,0-5.7-2.5-5.7-5.7c0-3.1,2.5-5.7,5.7-5.7c1.7,0,3.3,0.8,4.4,2.1l0,0c2,2.4,1.6,6-0.8,8
			C676,155.8,674.7,156.3,673.4,156.3z M673.4,146.5c-2.3,0-4.1,1.9-4.1,4.2c0,2.3,1.9,4.1,4.2,4.1c2.3,0,4.1-1.9,4.1-4.2
			c0-1-0.3-1.9-0.9-2.6C675.8,147,674.7,146.5,673.4,146.5L673.4,146.5z"/>
	</g>
	<g class="st5">
		<path class="st6" d="M610.3,170.9h-0.5c-2.9-0.1-5.1-2.6-5-5.5c0.1-2.9,2.6-5.1,5.5-5s5.1,2.6,5,5.5
			C615.1,168.6,613,170.7,610.3,170.9z M610.3,161.9c-2.1,0-3.7,1.7-3.7,3.8c0,2.1,1.7,3.7,3.8,3.7s3.7-1.7,3.7-3.8
			c0-0.9-0.3-1.7-0.9-2.4C612.5,162.4,611.4,161.9,610.3,161.9L610.3,161.9z"/>
	</g>
	<g class="st5">
		<path class="st7" d="M676.9,184c-1.8,0-3.2-1.4-3.2-3.2c0-1.8,1.4-3.2,3.2-3.2c1.8,0,3.2,1.4,3.2,3.2
			C680.1,182.6,678.7,184,676.9,184z M676.9,179.1c-0.9,0-1.7,0.8-1.7,1.7c0,0.9,0.8,1.7,1.7,1.7c0.9,0,1.7-0.8,1.7-1.7
			C678.6,179.9,677.8,179.1,676.9,179.1L676.9,179.1z"/>
	</g>
	<path class="st10" d="M202.4,37.4h315.3c6.7,0,12.1,5.4,12.1,12.1v196c0,6.7-5.4,12.1-12.1,12.1H202.4c-6.7,0-12.1-5.4-12.1-12.1
		v-196C190.2,42.8,195.7,37.4,202.4,37.4z"/>
	<path class="st2" d="M517.7,258.4H202.4c-7.1,0-12.9-5.8-12.9-12.9v-196c0-7.1,5.8-12.9,12.9-12.9h315.3c7.1,0,12.9,5.8,12.9,12.9
		v196C530.5,252.6,524.8,258.4,517.7,258.4z M202.4,38.2c-6.3,0-11.3,5.1-11.4,11.4v196c0,6.3,5.1,11.4,11.4,11.4h315.3
		c6.3,0,11.3-5.1,11.3-11.4v-196c0-6.3-5.1-11.4-11.4-11.4L202.4,38.2z"/>
	<rect x="204.8" y="59.8" class="st11" width="310.5" height="177.4"/>
	<path class="st2" d="M516,238H204V59h312L516,238z M205.5,236.5h309v-176h-309V236.5z"/>
	<path class="st10" d="M569.5,251.6v4.8l0,0c0,6.1-4.9,6-11,6.2H160.9c-6.2,0-11.1-0.1-11.2-6.2l0,0v-4.8L569.5,251.6z"/>
	<path class="st2" d="M160.9,263.3h-0.1c-6.1,0-11.8-0.1-11.8-7v-5.5h421.3v5.5c0,6.7-5.5,6.8-11.3,6.9L160.9,263.3L160.9,263.3z
		 M150.5,252.3v4c0,5.1,3.6,5.4,10.3,5.5H559c6.5-0.1,9.8-0.4,9.8-5.4v-4L150.5,252.3z"/>
	<g class="st5">
		<path class="st1" d="M423.8,172.1h72.6c1.8,0,3.2,1.5,3.2,3.2v0.5c0,1.8-1.5,3.2-3.2,3.2h-72.6c-1.8,0-3.2-1.5-3.2-3.2v-0.5
			C420.5,173.5,422,172.1,423.8,172.1z"/>
		<path class="st2" d="M496.4,179.4h-72.6c-2,0-3.6-1.6-3.6-3.6v-0.5c0-2,1.6-3.6,3.6-3.6h72.6c2,0,3.6,1.6,3.6,3.6v0.5
			C500,177.8,498.4,179.4,496.4,179.4z M423.8,172.4c-1.6,0-2.9,1.3-2.9,2.9v0.5c0,1.6,1.3,2.9,2.9,2.9h72.6c1.6,0,2.9-1.3,2.9-2.9
			v-0.5c0-1.6-1.3-2.9-2.9-2.9H423.8z"/>
		<path class="st1" d="M423.6,187.6h73c1.9,0,3.5,1.6,3.5,3.5l0,0c0,1.9-1.6,3.5-3.5,3.5h-73c-1.9,0-3.5-1.6-3.5-3.5l0,0
			C420.1,189.1,421.7,187.6,423.6,187.6z"/>
		<path class="st2" d="M496.6,194.9h-73c-2.1-0.1-3.8-1.9-3.7-4.1c0.1-2,1.7-3.6,3.7-3.7h73c2.1,0.1,3.8,1.9,3.7,4.1
			C500.2,193.2,498.6,194.8,496.6,194.9z M423.6,187.9c-1.7,0-3.1,1.4-3.1,3.1s1.4,3.1,3.1,3.1h73c1.7,0,3.1-1.4,3.1-3.1
			s-1.4-3.1-3.1-3.1H423.6z"/>
		<path class="st1" d="M423.6,203.1h73c1.9,0,3.5,1.6,3.5,3.5l0,0c0,1.9-1.6,3.5-3.5,3.5h-73c-1.9,0-3.5-1.6-3.5-3.5l0,0
			C420.1,204.6,421.7,203.1,423.6,203.1z"/>
		<path class="st2" d="M496.6,210.4h-73c-2.1-0.1-3.8-1.9-3.7-4.1c0.1-2,1.7-3.6,3.7-3.7h73c2.1,0.1,3.8,1.9,3.7,4.1
			C500.2,208.7,498.6,210.3,496.6,210.4z M423.6,203.4c-1.7,0-3.1,1.4-3.1,3.1s1.4,3.1,3.1,3.1h73c1.7,0,3.1-1.4,3.1-3.1
			s-1.4-3.1-3.1-3.1H423.6z"/>
		<rect x="220.1" y="88.9" class="st12" width="191.4" height="49.3"/>
		<path class="st2" d="M411.7,138.4H219.8V88.6h191.9V138.4z M220.3,138h190.9V89.1H220.3V138z"/>
		<path class="st2" d="M411.9,221.9H219.7v-76.4h192.2V221.9z M220.4,221.2h190.7v-74.9H220.4L220.4,221.2z"/>
		<rect x="419.8" y="88.9" class="st1" width="80.3" height="72.8"/>
		<path class="st2" d="M500.5,162.1h-81.1V88.5h81.1V162.1z M420.1,161.3h79.6V89.2h-79.6V161.3z"/>
		<path class="st2" d="M501,227.9H219.1c-3,0-5.4-2.4-5.4-5.4V75.2c0-3,2.4-5.4,5.4-5.4H501c3,0,5.4,2.4,5.4,5.4v147.3
			C506.4,225.5,504,227.9,501,227.9z M219.1,70.6c-2.6,0-4.7,2.1-4.7,4.7v147.3c0,2.6,2.1,4.7,4.7,4.7H501c2.6,0,4.7-2.1,4.7-4.7
			V75.2c0-2.6-2.1-4.7-4.7-4.7H219.1z"/>
		<rect x="214.1" y="82.2" class="st2" width="292" height="0.8"/>
		<path class="st2" d="M223.1,79.9c-1.6,0-2.9-1.3-2.9-2.9c0-1.6,1.3-2.9,2.9-2.9c1.6,0,2.9,1.3,2.9,2.8
			C225.9,78.6,224.7,79.9,223.1,79.9C223.1,79.9,223.1,79.9,223.1,79.9z M223.1,74.9c-1.2,0-2.1,1-2.1,2.1c0,1.2,1,2.1,2.1,2.1
			c1.2,0,2.1-1,2.1-2.1c0,0,0,0,0,0C225.2,75.8,224.2,74.9,223.1,74.9z"/>
		<path class="st2" d="M230.6,79.9c-1.6,0-2.9-1.3-2.9-2.9c0-1.6,1.3-2.9,2.9-2.9c1.6,0,2.9,1.3,2.9,2.8
			C233.4,78.6,232.2,79.9,230.6,79.9C230.6,79.9,230.6,79.9,230.6,79.9z M230.6,74.9c-1.2,0-2.1,1-2.1,2.1c0,1.2,1,2.1,2.1,2.1
			c1.2,0,2.1-1,2.1-2.1c0,0,0,0,0,0C232.7,75.8,231.7,74.9,230.6,74.9z"/>
		<path class="st2" d="M238.1,79.9c-1.6,0-2.9-1.3-2.9-2.9c0-1.6,1.3-2.9,2.9-2.9c1.6,0,2.9,1.3,2.9,2.8
			C240.9,78.6,239.7,79.9,238.1,79.9C238.1,79.9,238.1,79.9,238.1,79.9z M238.1,74.9c-1.2,0-2.1,1-2.1,2.1c0,1.2,1,2.1,2.1,2.1
			c1.2,0,2.1-1,2.1-2.1c0,0,0,0,0,0C240.2,75.8,239.2,74.9,238.1,74.9z"/>
		<path class="st2" d="M497.9,74v2.3h2.2v0.6h-2.2v2.3h-0.6v-2.3h-2.2v-0.6h2.2V74H497.9z"/>
		<g class="st13">
			<path class="st7" d="M323.5,160.2h-83c-1,0-1.7-0.4-1.7-0.9s0.8-0.9,1.7-0.9h83c1,0,1.7,0.4,1.7,0.9S324.5,160.2,323.5,160.2z"/>
		</g>
		<g class="st13">
			<path class="st6" d="M388.6,160.2h-45.9c-1,0-1.7-0.4-1.7-0.9s0.8-0.9,1.7-0.9h45.9c1,0,1.7,0.4,1.7,0.9S389.5,160.2,388.6,160.2
				z"/>
		</g>
		<g class="st13">
			<path class="st7" d="M388.6,172.2h-83c-1,0-1.7-0.4-1.7-0.9s0.8-0.9,1.7-0.9h83c1,0,1.7,0.4,1.7,0.9S389.5,172.2,388.6,172.2z"/>
		</g>
		<g class="st13">
			<path class="st9" d="M286.4,172.2h-45.9c-1,0-1.7-0.4-1.7-0.9s0.8-0.9,1.7-0.9h45.9c1,0,1.7,0.4,1.7,0.9S287.4,172.2,286.4,172.2
				z"/>
		</g>
		<g class="st13">
			<path class="st9" d="M388.6,196.5H240.5c-1,0-1.7-0.4-1.7-0.9s0.8-0.9,1.7-0.9h148.1c1,0,1.7,0.4,1.7,0.9
				S389.5,196.5,388.6,196.5z"/>
		</g>
		<g class="st13">
			<path class="st6" d="M299,207.5h-57.3c-1.2,0-2.2-0.4-2.2-0.9s1-0.9,2.2-0.9H299c1.2,0,2.2,0.4,2.2,0.9S300.2,207.5,299,207.5z"
				/>
		</g>
		<g class="st13">
			<path class="st7" d="M366.9,207.5h-55c-1.4,0-2.6-0.4-2.6-0.9s1.1-0.9,2.6-0.9h55c1.4,0,2.6,0.4,2.6,0.9S368.4,207.5,366.9,207.5
				z"/>
		</g>
		<g class="st13">
			<path class="st7" d="M229.2,159.5l4.4,2.1c0.2,0.1,0.4,0.2,0.5,0.3c0.1,0.1,0.2,0.3,0.1,0.4c0,0.3-0.2,0.6-0.6,0.6c0,0,0,0-0.1,0
				c-0.1,0-0.2,0-0.3,0l-0.4-0.1l-5.3-2.4l-0.1-0.1c-0.5-0.2-0.7-0.5-0.7-0.8s0.2-0.6,0.7-0.8h0.1l5.3-2.5l0.4-0.2
				c0.1,0,0.1,0,0.2,0c0.4,0,0.6,0.3,0.6,0.7c0,0.1,0,0.2-0.1,0.3c-0.1,0.1-0.3,0.3-0.5,0.4L229.2,159.5z"/>
		</g>
		<g class="st13">
			<path class="st7" d="M380.6,203l-3.9,8.4c-0.1,0.2-0.2,0.4-0.3,0.6c-0.1,0.1-0.2,0.2-0.4,0.1c-0.2,0-0.4-0.1-0.5-0.2
				c-0.2-0.1-0.2-0.3-0.2-0.5c0-0.2,0.1-0.4,0.2-0.6l0,0l3.9-8.4c0.1-0.2,0.2-0.4,0.3-0.6c0.1-0.1,0.2-0.2,0.4-0.1
				c0.2,0,0.4,0.1,0.5,0.2c0.2,0.1,0.2,0.3,0.2,0.5c0,0.1,0,0.2,0,0.2C380.7,202.8,380.7,202.9,380.6,203z"/>
		</g>
		<g class="st13">
			<path class="st7" d="M387.6,207.1l-4.4-2.1c-0.2-0.1-0.4-0.2-0.5-0.4c-0.2-0.3-0.2-0.6,0-0.9c0.1-0.1,0.3-0.2,0.5-0.2
				c0.1,0,0.2,0,0.2,0l0.4,0.1l5.3,2.5h0c0.5,0.2,0.7,0.5,0.7,0.8s-0.2,0.6-0.7,0.8l-0.1,0.1l-5.3,2.4c-0.1,0.1-0.2,0.1-0.3,0.1
				c-0.1,0-0.2,0-0.3,0c-0.2,0-0.3-0.1-0.5-0.2c-0.1-0.1-0.2-0.3-0.2-0.5c0-0.1,0-0.3,0.1-0.4c0.1-0.1,0.3-0.3,0.5-0.3L387.6,207.1z
				"/>
		</g>
	</g>
	<circle class="st11" cx="359.6" cy="49.9" r="3.9"/>
	<path class="st2" d="M359.6,54.5c-2.5,0-4.6-2.1-4.6-4.6s2.1-4.6,4.6-4.6s4.6,2.1,4.6,4.6c0,0,0,0,0,0
		C364.2,52.4,362.2,54.5,359.6,54.5z M359.6,46.8c-1.7,0-3.1,1.4-3.1,3.1s1.4,3.1,3.1,3.1c1.7,0,3.1-1.4,3.1-3.1c0,0,0,0,0,0
		C362.7,48.2,361.3,46.8,359.6,46.8z"/>
	<path class="st11" d="M328.4,247.9h62.5c1.7,0,3,1.4,3,3v1.3c0,1.7-1.4,3-3,3h-62.5c-1.7,0-3-1.4-3-3v-1.3
		C325.4,249.2,326.7,247.9,328.4,247.9z"/>
	<path class="st2" d="M390.9,255.6h-62.5c-1.9,0-3.5-1.6-3.5-3.5v-1.3c0-1.9,1.6-3.5,3.5-3.5h62.5c1.9,0,3.5,1.6,3.5,3.5v1.3
		C394.4,254.1,392.8,255.6,390.9,255.6z M328.4,248.3c-1.4,0-2.6,1.1-2.6,2.6v1.3c0,1.4,1.1,2.6,2.6,2.6h62.5c1.4,0,2.6-1.1,2.6-2.6
		v-1.3c0-1.4-1.1-2.6-2.6-2.6H328.4z"/>
	<path class="st6" d="M388.6,185.5H240.5c-1,0-1.7-0.4-1.7-0.9s0.8-0.9,1.7-0.9h148.1c1,0,1.7,0.4,1.7,0.9S389.5,185.5,388.6,185.5z
		"/>
	
		<ellipse transform="matrix(0.2614 -0.9652 0.9652 0.2614 33.8006 376.9459)" class="st14" cx="263.2" cy="166.4" rx="7.5" ry="4.8"/>
	<path class="st14" d="M277.6,183.7c-2.2-0.3-5.6-0.9-6.5-1.5c-1.5-0.9-10.7-10.5-16.5-8.1c-3.9,1.6-10,15.8-9.6,21.4
		c0.9,5.9,4.9,15.3,4.9,15.3l0.7,15c0,0.7,0.6,1.3,1.2,1.4c2.1,0.3,6.3,0.7,6.5-0.2c0.2-1.2-3.8-1.7-3.6-3.5s2.5-13,2.4-14.9
		c-0.1-1.8-0.1-5.3-0.7-9.4c0.5,0,1,0,1.5-0.1c1-0.1,1.9-7.6,3.7-14.8c0.2-0.3,0.4-0.6,0.7-0.8c1.2-0.8,5.9,3.7,8.6,3.8
		c1.7,0.1,4.6,0.2,6.5,0.3c1.1,0,2-0.8,2-1.9c0,0,0-0.1,0-0.1C279.3,184.6,278.6,183.8,277.6,183.7z"/>
	<path class="st14" d="M260.2,162l0.1-0.2c0.6-2.3,2.7-4,5.1-3.9c0.3,0,0.5,0,0.8,0.1c0.1-0.1,0.3-0.2,0.5-0.2c0.1,0,0.2,0,0.3,0.1
		c0.3,0.1,0.5,0.3,0.6,0.6c2,0.8,3.4,2.8,3.3,5l4.3,2.7L260.2,162z"/>
	<path class="st11" d="M266.7,158c0.1,0,0.2,0,0.3,0c0.3,0.1,0.5,0.3,0.5,0.6c2,0.8,3.4,2.7,3.3,4.9l3,1.9l-3.2-0.9h-0.1l-10-2.7
		c0.6-2.2,2.6-3.8,4.9-3.7c0.3,0,0.6,0,0.9,0.1C266.4,158.1,266.5,158,266.7,158 M266.7,157.5c-0.2,0-0.4,0.1-0.6,0.2
		c-0.2,0-0.5,0-0.7,0c-2.5-0.1-4.8,1.6-5.4,4.1l-0.1,0.5l0.5,0.1l10,2.7h0.1l3.2,0.9l3.1,0.9l-2.7-1.8l-2.8-1.8
		c-0.1-2.2-1.4-4.1-3.4-5c-0.1-0.3-0.4-0.6-0.8-0.7C267,157.5,266.9,157.5,266.7,157.5L266.7,157.5z"/>
	<rect x="378.2" y="89.2" class="st1" width="18.9" height="10.1"/>
	<rect x="389.8" y="97.7" class="st1" width="8.3" height="17.8"/>
	<rect x="396.2" y="89.2" class="st1" width="15" height="48.7"/>
	<path class="st15" d="M378.7,97.7h10.5c0.3,0,0.6,0.3,0.6,0.6v2.8c0,0.3-0.3,0.6-0.6,0.6h-10.5c-0.3,0-0.6-0.3-0.6-0.6v-2.8
		C378.2,97.9,378.4,97.7,378.7,97.7z"/>
	<path class="st2" d="M384.7,104.6h-0.5c0-0.5,0.4-0.9,0.9-0.9h4.3c1.4,0,1.5-1,1.5-1v-1.5c0-0.6-0.4-1-1-1v-0.5
		c0.8,0,1.5,0.7,1.5,1.5c0,0,0,0,0,0v1.6c0,0-0.1,1.5-2,1.5H385C385,104.1,384.7,104.2,384.7,104.6z"/>
	<path class="st2" d="M384.6,110.1c-0.8,0-1.5-0.7-1.5-1.5c0,0,0,0,0,0V106c0-0.8,0.7-1.5,1.5-1.5s1.5,0.7,1.5,1.5l0,0v2.6
		C386.1,109.4,385.4,110.1,384.6,110.1C384.6,110.1,384.6,110.1,384.6,110.1z M384.6,105c-0.6,0-1,0.4-1,1v2.6c0,0.6,0.4,1,1,1
		s1-0.4,1-1V106C385.6,105.4,385.1,105,384.6,105L384.6,105z"/>
	<circle class="st2" cx="384.6" cy="108.4" r="0.6"/>
	<path class="st10" d="M379.4,95.9L379.4,95.9c0.3,0,0.6,0.3,0.6,0.6v2.3c0,0.3-0.3,0.6-0.6,0.6l0,0c-0.3,0-0.6-0.3-0.6-0.6v-2.3
		C378.8,96.2,379.1,95.9,379.4,95.9z"/>
	<path class="st1" d="M382.6,95.4h0.2c0.4,0,0.7,0.3,0.7,0.7v2.1c0,0.4-0.3,0.7-0.7,0.7h-0.2c-0.4,0-0.7-0.3-0.7-0.7V96
		C382,95.7,382.3,95.4,382.6,95.4z"/>
	<path class="st14" d="M381.1,134.4c0,0,0-2.4-3-2.4h-1.8l0.4,3.1L381.1,134.4z"/>
	<path class="st14" d="M374.6,151.9c-0.2,0,2,0.9,1.8,1.7c-0.1,0.2-3.5,0.6-4.3,0c-0.5-0.4-0.8-1-0.9-1.7"/>
	<path class="st14" d="M380.5,151.6c0.2-5.4,0.4-9.7,0.5-17.3l-11.3,0.2c0,2.3-0.1,4.5,0,5.2c0.1,1.7,1.5,11.3,1.5,12.3h3.3
		c0.2-3,0-7.4,0-7.4s0-6.8,0.8-6.8c0.5,0,1.1,6.4,1.1,6.4s0.6,8.6,0.8,9.2s6.1,1.2,6.1,0.6S380.5,152.8,380.5,151.6z"/>
	<path class="st1" d="M356.4,136.1h50.5c1.3,0,2.3,1,2.3,2.3v0.8c0,1.3-1,2.3-2.3,2.3h-50.5c-1.3,0-2.3-1-2.3-2.3v-0.8
		C354.1,137.2,355.1,136.1,356.4,136.1z"/>
	<path class="st2" d="M406.9,141.8h-50.5c-1.5,0-2.6-1.2-2.6-2.6v-0.8c0-1.5,1.2-2.6,2.6-2.6h50.5c1.5,0,2.6,1.2,2.6,2.6v0.8
		C409.6,140.7,408.4,141.8,406.9,141.8z M356.4,136.5c-1,0-1.9,0.9-1.9,1.9v0.8c0,1,0.9,1.9,1.9,1.9h50.5c1,0,1.9-0.9,1.9-1.9v-0.8
		c0-1-0.9-1.9-1.9-1.9H356.4z"/>
	
		<ellipse transform="matrix(8.551972e-03 -1 1 8.551972e-03 258.6935 481.3878)" class="st14" cx="372.1" cy="110.2" rx="5.2" ry="3.3"/>
	<path class="st14" d="M386.1,108.6c0.2-0.6-0.2-1.3-0.9-1.4c-0.6-0.1-1.1,0.2-1.4,0.7c-1.3,3.9-3.6,7.3-6.6,10.1
		c-0.3,0.1-0.7,0-1-0.1l-0.2-0.1l-0.6-0.1c-1.9-0.4-3.8-0.5-5.7-0.1c-0.4,0.1-0.8,0.1-1.1,0.2l-0.2,0.1c-4,1-5.7,3.6-5.7,10.1
		c0,2.4,0.1,4.7,0.3,7.1c0.1,0.5,0.5,0.8,1,0.9c0.5,0,0.9-0.4,0.9-0.9c0.1-2.6,0.7-10,1.8-10.6c0.1,1.6,0,4.7,0,7.7h11.5
		c0-4,0.1-5.8,0.1-6.8c0,0-0.4-1.5,2.1-5.4C382.8,116.4,384.7,112.6,386.1,108.6z"/>
	<path class="st14" d="M366.7,131.6c0,0-0.5,3.7,0,5c0.6,1.5,13.3,1,13.8-0.7c0.3-1.3-2.3-4.2-2.3-4.2"/>
	<rect x="356.5" y="60.8" class="st2" width="0.8" height="75.4"/>
	<rect x="405.5" y="60.8" class="st2" width="0.8" height="75.4"/>
	<g class="st5">
		<path class="st1" d="M303.3,117.1L303.3,117.1l2.3-0.8c0.1-0.1,0.3,0,0.4,0.1c0.1,0.1,0,0.3-0.1,0.4c0,0-0.1,0-0.1,0l-2.2,0.8
			c-0.1,0.1-0.3,0-0.4-0.2C303.2,117.3,303.2,117.2,303.3,117.1L303.3,117.1z"/>
		<path class="st16" d="M302,111.7c0.1-0.1,0.3-0.1,0.4,0.1c0.1,0.1,0.1,0.2,0,0.3l-1.4,2c-0.1,0.1-0.2,0.2-0.4,0.1
			s-0.2-0.2-0.1-0.4c0,0,0,0,0-0.1L302,111.7L302,111.7z"/>
		<path class="st16" d="M296.3,110c0.1-0.1,0.3-0.1,0.4,0.1c0,0,0.1,0.1,0.1,0.2l0.1,2.4c0,0.2-0.1,0.3-0.3,0.3
			c-0.2,0-0.3-0.1-0.3-0.3c0,0,0,0,0,0l-0.1-2.4C296.2,110.1,296.2,110.1,296.3,110z"/>
		<path class="st16" d="M290.8,112c0.1-0.1,0.3-0.1,0.4,0l1.5,1.9c0.1,0.1,0.1,0.3,0,0.4s-0.3,0.1-0.4,0c0,0,0,0,0-0.1l-1.5-1.9
			C290.6,112.2,290.7,112.1,290.8,112z"/>
		<path class="st1" d="M287.5,116.9c0.1,0,0.2,0,0.2,0l2.4,0.7c0.1,0.1,0.2,0.2,0.1,0.4c-0.1,0.1-0.2,0.2-0.3,0.2l-2.4-0.7
			c-0.1,0-0.2-0.2-0.2-0.3C287.4,117,287.4,117,287.5,116.9L287.5,116.9z"/>
		<circle class="st17" cx="296.8" cy="120.4" r="5.6"/>
		<path class="st16" d="M337,137.9l-14.4-17.2l3.2-5.1c0,0,2.4-4.6,5.8,0s12.9,16.4,12.9,16.4l4.9,5.9L337,137.9"/>
		<path class="st11" d="M333.8,118.6l-1.8-2.4c-0.2-0.4-0.5-0.7-0.8-1c-0.5-0.6-1.5-1.6-2.3-1.6c-0.9,0-1.7,0.4-2.3,1l-3,4.4
			c0,0,0.2,0.5,1.2-1s1.3-0.9,1.3-0.9l0.3,1.5c0,0,0.6,0.7,1.1-0.3s0.8-1.7,1.4-0.9c0.2,0.4,0.5,0.8,0.8,1.2c0.2,0.1,1,0.3,1-0.8
			s0.8-0.4,1-0.3S333.3,118.8,333.8,118.6z"/>
		<path class="st17" d="M344.5,132.1C344.5,132.2,344.5,132.2,344.5,132.1c-0.2-0.1-9.5-11.9-13-16.4c-1.1-1.4-2.1-2.1-3.1-2
			c-1.5,0.1-2.5,1.9-2.5,2l-3.2,5.1c0,0-0.1,0-0.2,0c0,0,0-0.1,0-0.1l3.2-5.1c0-0.1,1-1.9,2.7-2.1c1.1-0.1,2.2,0.6,3.4,2.1
			c3.4,4.5,12.8,16.3,12.9,16.4C344.7,132.1,344.7,132.1,344.5,132.1L344.5,132.1z"/>
		<path class="st17" d="M323.7,119.1c-0.1,0-0.1-0.1-0.1-0.1c0,0,0-0.1,0.1-0.1c0.4,0,0.9-0.7,1.3-1.2s0.8-1,1.2-1s0.4,0.5,0.5,1
			s0.1,1,0.4,1s0.7-0.5,0.9-1s0.5-0.9,0.8-0.8s0.5,0.4,0.8,0.8s0.5,0.9,0.9,0.9s0.4-0.3,0.5-0.8s0.1-0.8,0.5-0.8s0.7,0.3,1.1,0.7
			s0.9,0.9,1.4,0.9c0.1,0,0.1,0.1,0.1,0.1c0,0,0,0.1-0.1,0.1l0,0c-0.6-0.1-1.1-0.5-1.5-0.9c-0.3-0.3-0.7-0.6-0.9-0.7l0,0
			c-0.1,0-0.2,0.2-0.2,0.6s-0.1,1-0.7,1s-0.9-0.5-1.1-1s-0.4-0.7-0.6-0.7s-0.4,0.3-0.6,0.7s-0.5,1.1-1.1,1.1s-0.6-0.6-0.7-1.2
			c0-0.4-0.1-0.8-0.2-0.8s-0.6,0.5-1,0.9C324.7,118.5,324.2,119.1,323.7,119.1L323.7,119.1z"/>
		<path class="st16" d="M296.7,124.5l9.6-13.2c0,0,4.3-5.9,8.8,0l14.9,17.2l1,1l7.4,8.5h-46l-5.8-0.2L296.7,124.5z"/>
		<path class="st11" d="M302.5,116.6l3.1-4.3c0.4-0.6,0.8-1.2,1.3-1.7c0.9-1.2,2.2-1.9,3.7-2c2.7,0.1,3.5,1.4,3.5,1.4l6.2,7.2
			c0,0-0.3,0.8-2.2-1.7s-2.4-1.6-2.4-1.6l-0.5,2.7c0,0-1,1.2-2-0.5s-1.3-3-2.5-1.7c-0.4,0.8-0.9,1.5-1.5,2.1
			c-0.4,0.2-1.7,0.6-1.7-1.3s-1.5-0.8-1.8-0.5S303.4,116.9,302.5,116.6z"/>
		<path class="st17" d="M338.3,138.2C338.3,138.2,338.3,138.2,338.3,138.2l-23.3-26.8c-1.3-1.7-2.7-2.6-4.2-2.6
			c-2.5,0-4.4,2.6-4.4,2.6l-9.6,13.2c0,0.1-0.1,0.1-0.2,0.1c-0.1,0-0.1-0.1-0.1-0.2c0,0,0,0,0,0l9.6-13.2c0.1-0.1,2-2.7,4.6-2.7
			c1.6,0,3,0.9,4.4,2.7l23.2,26.8C338.4,138.1,338.4,138.1,338.3,138.2C338.4,138.2,338.3,138.2,338.3,138.2L338.3,138.2z"/>
		<path class="st17" d="M320.4,117.6L320.4,117.6c-0.9-0.1-1.7-1.2-2.5-2.2c-0.7-0.8-1.3-1.6-1.8-1.6s-0.5,0.7-0.5,1.4
			c-0.1,0.9-0.2,2-1.1,1.9s-1.4-1-1.9-1.8c-0.4-0.7-0.7-1.3-1.1-1.3s-0.8,0.6-1.1,1.2c-0.5,0.8-1,1.7-1.9,1.7s-1-0.9-1.1-1.7
			s-0.1-1.1-0.5-1s-1.1,0.6-1.7,1.1c-0.8,0.7-1.8,1.5-2.6,1.6c-0.1,0-0.1,0-0.1-0.1c0,0,0,0,0,0c0-0.1,0-0.1,0.1-0.1
			c1-0.2,1.8-0.7,2.5-1.5c0.5-0.6,1.1-1,1.9-1.2c0.6,0,0.7,0.6,0.7,1.2c0.1,0.9,0.2,1.4,0.9,1.4l0,0c0.8,0,1.2-0.8,1.6-1.6
			s0.7-1.3,1.3-1.3s1,0.7,1.4,1.4s0.9,1.7,1.7,1.7s0.8-0.6,0.9-1.7c0.1-0.8,0.1-1.6,0.7-1.6s1.2,0.8,2,1.7s1.6,2,2.4,2.1
			C320.5,117.4,320.5,117.5,320.4,117.6C320.5,117.6,320.4,117.6,320.4,117.6L320.4,117.6z"/>
		<path class="st16" d="M301.4,129.6l4.5-5.8c0,0,4.4-5.8,8.4,0l12,14.1"/>
		<path class="st11" d="M304.9,125.1l1.8-2.1c0,0,2.3-1.9,3.6-1.7c1.4,0.1,2.6,0.8,3.5,1.9c0.8,0.8,1.6,1.7,2.3,2.6L304.9,125.1z"/>
		<path class="st11" d="M304.9,125.1c0,0,0.1,2.5,2.5,1.6s1.9-1,2.9-0.3s2.1-0.1,2.5-0.6s1.2,0,2,0.5s1.2-0.5,1.2-0.5"/>
		<path class="st17" d="M306.5,127c-0.3,0-0.6-0.1-0.8-0.2c-0.5-0.4-0.8-1-0.9-1.7c0-0.1,0-0.1,0.1-0.1c0.1,0,0.1,0,0.1,0.1
			c0,0.6,0.3,1.1,0.8,1.5c0.5,0.3,1.1,0.3,1.5,0l1-0.4c1.1-0.5,1.2-0.5,1.8,0l0.2,0.2c1,0.7,2.2-0.3,2.4-0.6c0.5-0.5,1.3,0,2.1,0.5
			l0,0c0.1,0.1,0.3,0.1,0.5,0.1c0.3-0.1,0.5-0.6,0.5-0.6c0,0,0.1-0.1,0.2,0c0,0,0,0.1,0,0.1c-0.1,0.3-0.4,0.6-0.7,0.7
			c-0.2,0.1-0.5,0-0.7-0.1l0,0c-0.8-0.5-1.4-0.9-1.8-0.5s-1.5,1.4-2.7,0.6l-0.2-0.2c-0.5-0.4-0.5-0.4-1.6,0.1l-1,0.4
			C307.1,126.9,306.8,127,306.5,127z"/>
		<path class="st17" d="M326.3,138.1C326.3,138.1,326.3,138.1,326.3,138.1l-12.1-14.1c-1.1-1.7-2.4-2.5-3.8-2.5
			c-2.5,0-4.4,2.5-4.4,2.5l-4.5,5.8c0,0.1-0.1,0.1-0.2,0.1c-0.1,0-0.1-0.1-0.1-0.2c0,0,0,0,0-0.1l4.5-5.8c0.1-0.1,2-2.7,4.5-2.7h0.1
			c1.5,0,2.8,1,4,2.7l12,14.2C326.5,137.9,326.5,138,326.3,138.1C326.4,138.1,326.4,138.1,326.3,138.1z"/>
		<path class="st16" d="M239,137.9l32.4-33.4c0,0,5.5-6.3,10.1,0l26.8,33.3"/>
		<path class="st11" d="M266.1,110.2l5.4-5.5c0,0,2.7-3.1,5.6-3.1c3.3,0,8.3,8,8.3,8"/>
		<path class="st11" d="M285.5,109.6c-1.5,0.1,0.9,3.7-1.3,3.5s-3.6-3.4-5.1-3.3s-1,3-3.2,2.9s-1.7-2.8-3.2-2.7s-3,2.7-5.1,2.7
			s0.2-2.5-1.3-2.5"/>
		<path class="st17" d="M284.4,113.3h-0.2c-1.2-0.1-2.2-1.1-3-1.9s-1.4-1.4-2.1-1.4s-0.9,0.6-1.2,1.2c-0.4,0.8-0.8,1.7-2.1,1.7
			s-1.7-0.9-2-1.6s-0.5-1.1-1.2-1.1c-0.8,0.2-1.5,0.6-2,1.1c-0.8,0.9-1.9,1.4-3.1,1.5c-0.3,0-0.7-0.1-0.9-0.3
			c-0.3-0.3-0.1-0.8,0-1.2s0.2-0.7,0-0.8c-0.1-0.1-0.2-0.1-0.4-0.1c-0.1,0-0.1,0-0.1-0.1c0-0.1,0-0.1,0.1-0.1c0.2,0,0.4,0,0.5,0.2
			c0.2,0.2,0.1,0.6,0,1s-0.2,0.8,0,1.1c0.2,0.2,0.5,0.3,0.7,0.2c1.1-0.1,2.2-0.7,3-1.5c0.6-0.6,1.3-1,2.2-1.2c0.8,0,1.1,0.6,1.4,1.2
			s0.7,1.5,1.8,1.5s1.5-0.8,1.8-1.6s0.6-1.3,1.4-1.4s1.5,0.7,2.3,1.5s1.8,1.8,2.9,1.9c0.2,0,0.5,0,0.7-0.2c0.3-0.3,0.2-0.9,0.1-1.6
			s-0.2-1.2,0.1-1.6c0.1-0.1,0.3-0.2,0.5-0.2l0,0c0.1,0,0.1,0.1,0.1,0.1c0,0,0,0.1-0.1,0.1c-0.1,0-0.2,0-0.3,0.1
			c-0.2,0.2-0.1,0.8,0,1.4s0.2,1.4-0.1,1.8C284.9,113.2,284.6,113.3,284.4,113.3z"/>
		<path class="st16" d="M260,137.9c0,0,5.5-5.2,13.2-12.8c6.6-6.6,9.9-2.6,11.2-0.5s9.4,13.3,9.4,13.3"/>
		<path class="st11" d="M286.4,127.8c0,0-2.1-3.3-2.8-4.3c-0.8-1.4-2.4-2.3-4-2.1c-3.7,0-8.7,6-8.7,6"/>
		<path class="st11" d="M270.8,127.4c1.2,0.1,0.3,2.8,2,2.7s2.7-2.6,3.9-2.5s0.8,2.3,2.4,2.2s1.3-2.1,2.4-2.1s2.2,2,3.9,2
			s-0.2-1.9,1-1.9"/>
		<path class="st17" d="M272.6,130.2c-0.9,0-1-0.9-1.2-1.5s-0.2-1.1-0.6-1.1c-0.1,0-0.1-0.1-0.1-0.1c0-0.1,0-0.1,0.1-0.1
			c0,0,0,0,0,0c0.6,0,0.7,0.7,0.9,1.3c0.2,0.9,0.3,1.4,1.1,1.4c0.9-0.2,1.6-0.7,2.1-1.4c0.6-0.6,1.1-1.2,1.8-1.1s0.8,0.6,1.1,1.1
			c0.2,0.5,0.5,1.2,1.4,1.1s1.1-0.6,1.4-1.1s0.5-1,1.1-0.9c0.6,0.1,1.2,0.4,1.7,0.9c0.6,0.6,1.4,1,2.2,1.1c0.2,0,0.4,0,0.5-0.1
			c0.1-0.2,0.1-0.5,0-0.8s-0.1-0.6,0-0.8c0.1-0.1,0.3-0.2,0.4-0.2c0.1,0,0.1,0.1,0.1,0.1c0,0,0,0.1-0.1,0.1l0,0
			c-0.1,0-0.2,0-0.2,0.1c-0.1,0.1,0,0.4,0,0.6s0.2,0.7,0,1c-0.2,0.2-0.5,0.3-0.7,0.2c-0.9-0.1-1.7-0.5-2.4-1.2
			c-0.4-0.4-0.9-0.7-1.5-0.9l0,0c-0.4,0-0.6,0.3-0.8,0.8s-0.6,1.2-1.6,1.3s-1.3-0.7-1.6-1.3s-0.4-0.9-0.9-0.9s-1,0.5-1.6,1.1
			c-0.6,0.7-1.4,1.3-2.3,1.5L272.6,130.2z"/>
		<path class="st17" d="M293.7,138C293.7,138,293.7,138,293.7,138c-0.2-0.1-8.1-11.2-9.5-13.3c-1.2-1.9-2.6-2.9-4.2-3.1
			c-2-0.2-4.3,1-6.8,3.6c-7.5,7.8-13.4,12.8-13.4,12.8c-0.1,0-0.1,0-0.2-0.1c0,0,0-0.1,0-0.1c0.1,0,5.9-5,13.4-12.8
			c2.6-2.7,4.9-3.9,7-3.7c1.7,0.2,3.1,1.2,4.4,3.2c1.4,2.2,9.3,13.2,9.4,13.3C293.8,137.9,293.8,138,293.7,138L293.7,138z"/>
		<path class="st16" d="M329.6,138.1c0,0-1.7-2.5-4.2-6.4s-4.9-1.3-5.5-0.3s-4.5,6.4-4.5,6.4"/>
		<path class="st11" d="M318.8,133.1c0,0,1-1.6,1.4-2.1c0.5-0.8,1.4-1.3,2.4-1.3c1.8,0,3.4,3.2,3.4,3.2"/>
		<path class="st11" d="M326,132.9c-0.6,0,0.3,1.4-0.5,1.3s-1.4-1.3-1.9-1.2s-0.4,1.1-1.2,1.1s-0.6-1-1.2-1s-1.1,1-1.9,1
			s0.1-0.9-0.5-0.9"/>
		<path class="st17" d="M325.6,134.4L325.6,134.4c-0.5-0.1-0.9-0.4-1.2-0.7c-0.3-0.3-0.5-0.5-0.7-0.5s-0.3,0.2-0.4,0.4
			s-0.3,0.7-0.8,0.7c-0.4,0-0.7-0.3-0.8-0.6c-0.1-0.2-0.2-0.4-0.4-0.4l0,0c-0.3,0.1-0.5,0.2-0.7,0.4c-0.3,0.3-0.8,0.5-1.2,0.6
			c-0.1,0-0.3,0-0.4-0.1c-0.1-0.2-0.1-0.4,0-0.5c0-0.1,0-0.2,0-0.2s0,0-0.1,0l0,0c-0.1,0-0.1-0.1-0.1-0.1c0,0,0-0.1,0.1-0.1
			c0.1,0,0.2,0,0.3,0.1c0.1,0.1,0.1,0.3,0,0.4s-0.1,0.3,0,0.3c0.1,0,0.1,0.1,0.2,0.1c0.4-0.1,0.8-0.2,1.1-0.5
			c0.2-0.2,0.5-0.4,0.9-0.5c0.3,0,0.5,0.3,0.6,0.5s0.2,0.5,0.6,0.5s0.5-0.2,0.6-0.5s0.2-0.5,0.6-0.6s0.6,0.3,0.9,0.6
			c0.3,0.3,0.6,0.6,1,0.7c0.1,0,0.1,0,0.2,0c0.1-0.1,0-0.3,0-0.5c-0.1-0.2-0.1-0.4,0-0.6c0.1-0.1,0.1-0.1,0.2-0.1
			c0.1,0,0.1,0,0.1,0.1c0,0,0,0,0,0c0,0.1,0,0.1-0.1,0.1c0,0-0.1,0-0.1,0s0,0.3,0,0.5s0.1,0.6-0.1,0.7
			C325.8,134.3,325.7,134.4,325.6,134.4z"/>
		<path class="st17" d="M329.5,138.1C329.5,138.1,329.5,138.1,329.5,138.1c-0.1,0-1.8-2.3-4.2-6.1c-0.9-1.3-1.8-1.9-2.7-1.9l0,0
			c-1.1,0.1-2,0.7-2.6,1.7c-0.7,1.1-4.5,6.4-4.5,6.4c0,0-0.1,0-0.2,0c0,0,0,0,0,0c0,0,0-0.1,0-0.2c0-0.1,3.8-5.7,4.5-6.7
			c0.5-0.9,1.6-2.1,2.8-2.1l0,0c1,0,2,1,2.9,2.4c2.5,3.8,4.1,6.3,4.1,6.3c0,0.1,0,0.2,0,0.2C329.6,138,329.5,138.1,329.5,138.1z"/>
		<path class="st17" d="M239,138c-0.1,0-0.1-0.1-0.1-0.1c0,0,0-0.1,0-0.1l32.4-33.4c0,0,2.6-3,5.7-2.8c1.9,0.2,3.6,1.2,4.6,2.8
			l26.8,33.3c0,0.1,0,0.1-0.1,0.2c0,0-0.1,0-0.1,0l-26.8-33.3c-1-1.6-2.6-2.6-4.4-2.8c-3-0.1-5.5,2.7-5.5,2.8L239.1,138
			C239.1,138,239,138,239,138z"/>
	</g>
	<path class="st14" d="M367.8,108.4c0-2.4,1.9-4.3,4.3-4.3c2.4,0,4.3,1.9,4.3,4.3l0,0H367.8z"/>
	<path class="st11" d="M376.6,108.6h-9v-0.2c0.2-2.5,2.4-4.3,4.9-4.1c2.2,0.2,3.9,1.9,4.1,4.1V108.6z M368.1,108.1h8
		c0-2.2-1.8-4-4-4S368.1,105.9,368.1,108.1z"/>
	<path class="st11" d="M387,125.2v-2.7c0-0.4,0.3-0.3,0.7-0.3h11c0.4,0,0.7-0.1,0.7,0.3v12.6c0,0.4-0.3,0.7-0.7,0.7l0,0h-11
		c-0.4,0-0.7-0.3-0.7-0.7l0,0v-9.3"/>
	<path class="st2" d="M398.7,135.9h-11c-0.4,0-0.7-0.3-0.7-0.7l0,0v-9.3h0.1v9.3c0,0.3,0.3,0.6,0.6,0.6l0,0h11
		c0.3,0,0.6-0.3,0.6-0.6v0v-12.6c0-0.1,0-0.1-0.1-0.2c-0.1-0.1-0.2-0.1-0.4-0.1h-11.3c-0.2,0-0.3,0-0.4,0.1c0,0-0.1,0.1-0.1,0.2v2.7
		H387v-2.7c0-0.1,0-0.2,0.1-0.3c0.1-0.1,0.3-0.1,0.5-0.1h11.3c0.2,0,0.4,0,0.5,0.1c0.1,0.1,0.1,0.2,0.1,0.3v12.6
		C399.5,135.6,399.1,135.9,398.7,135.9C398.7,135.9,398.7,135.9,398.7,135.9z"/>
	<path class="st2" d="M393.8,126.2c-0.4,0-0.6-0.3-0.6-0.6s0.3-0.6,0.6-0.6s0.6,0.3,0.6,0.6C394.5,125.9,394.2,126.2,393.8,126.2
		L393.8,126.2z M393.8,125.3c-0.2,0-0.3,0.1-0.3,0.3s0.1,0.3,0.3,0.3s0.3-0.1,0.3-0.3l0,0C394.1,125.4,394,125.3,393.8,125.3
		L393.8,125.3z"/>
	<path class="st2" d="M386.7,121.5h13.1c0.4,0,0.7,0.3,0.7,0.7v0c0,0.4-0.3,0.7-0.7,0.7h-13.1c-0.4,0-0.7-0.3-0.7-0.7v0
		C386,121.8,386.3,121.5,386.7,121.5z"/>
	<path class="st2" d="M390.2,130.9c-2.1,0-3.8-2.4-3.8-5.3h0.4c0,2.8,1.5,5,3.5,5c2.1,0,3.5-1.7,3.5-4.5h0.4
		C394,129,392.5,130.9,390.2,130.9z"/>
	<path class="st2" d="M387,126.2c-0.4,0-0.6-0.4-0.6-0.7c0-0.3,0.3-0.5,0.6-0.6v0.3c-0.2,0-0.3,0.1-0.3,0.3c0,0.2,0.1,0.3,0.3,0.3
		V126.2z"/>
	<path class="st1" d="M391.3,122.9v2.8c0,0.6-0.4,1-1,1l0,0c-0.6,0-1-0.4-1-1v-2.8"/>
	<path class="st1" d="M392.7,122.9v1.1c0,0.2-0.2,0.4-0.4,0.4l0,0l0,0c-0.2,0-0.4-0.2-0.4-0.4v0v-1.1"/>
	<g>
		<g>
			<g>
				<g>
					<path class="st2" d="M453.1,220.3l-1.3-2.1c0.2-0.2,0.4-0.3,0.5-0.5c0.1-0.1,0.1-0.2,0.1-0.4l-2.3-4.9c0-0.1-0.1-0.2-0.2-0.2
						c-0.1,0-0.2,0-0.3,0.1c-0.9,0.9-2,1.7-3.2,2.2c-1.2,0.5-2.5,0.8-3.8,0.8H433c-0.1,0-0.2,0.1-0.3,0.2c0,0.1-0.1,0.1-0.1,0.2h0
						v3.9c0,0,0,0.1,0,0.1l2.3,4.9l0,0c0.1,0.1,0.2,0.2,0.3,0.2h17.6c0.2,0,0.3-0.1,0.3-0.3v-3.9
						C453.2,220.4,453.2,220.4,453.1,220.3L453.1,220.3z M433.4,217.1l1.6,3.4v0.4l-1.6-3.4V217.1z M435.9,216h5.1l0.4,0.9
						c-0.8,0.1-1.8,0.4-1.8,1.1c0,1,2.1,1.2,2.9,1.2l0.5,1h-4.7c-0.2-0.8-1.4-1.3-2.9-1.3c-0.2,0-0.3,0-0.5,0l-0.8-1.8
						C435,216.9,435.7,216.5,435.9,216L435.9,216z M442.2,218.5c-1.1-0.1-1.8-0.4-1.9-0.5c0.1-0.1,0.5-0.3,1.5-0.5L442.2,218.5z
						 M443.2,222.1h-7.6v-0.3h7.6V222.1z M435.5,220.2l-0.3-0.6c0.1,0,0.1,0,0.2,0c1.1,0,1.8,0.3,2.1,0.6H435.5z M443.2,221.2h-7.6
						v-0.3h7.6V221.2z M435.6,222.8h7.6v0.3h-7.6V222.8z M443.9,220.8c0,0,1.1,0,1.2,0v3.2h-1.2V220.8z M445.7,222.8h6.8v0.3h-6.8
						V222.8z M445.7,222.1v-0.3h6.8v0.3H445.7z M445.7,221.2v-0.3h6.8v0.3H445.7z M452.2,220.2h-3.7c0.1,0,0.2-0.1,0.4-0.1
						c0.9-0.4,1.7-0.8,2.4-1.4L452.2,220.2z M450.5,218.4c-0.1-0.5,0.2-1.2,0.8-1.7l0.3,0.7C451.3,217.8,450.9,218.1,450.5,218.4
						L450.5,218.4z M449.7,213.2l0.3,0.6c-0.6,0.3-1.2,0.4-1.6,0.4C448.9,213.9,449.3,213.5,449.7,213.2L449.7,213.2z M446.6,215.1
						c0.3-0.1,0.7-0.3,1-0.5c0.2,0.1,0.5,0.2,0.8,0.2c0.5,0,1.2-0.2,1.8-0.5l0.8,1.7c-1,0.7-1.5,1.8-1.1,2.6
						c-0.4,0.3-0.9,0.5-1.3,0.7c-1,0.4-2,0.6-3,0.7l-0.5-1.1c1.3-0.3,1.6-0.7,1.6-1c0-0.9-1.8-1.1-2.6-1.2l-0.4-0.9
						C444.6,215.8,445.7,215.5,446.6,215.1L446.6,215.1z M444.4,217.5c1,0.1,1.5,0.4,1.6,0.5c-0.1,0.1-0.4,0.3-1.2,0.4L444.4,217.5z
						 M442.9,216l1.9,4.2c0,0,0,0-0.1,0h-1.1l-1.9-4.2h0.8C442.7,216,442.8,216,442.9,216L442.9,216z M435.1,216
						c-0.2,0.2-0.7,0.4-1.3,0.5l-0.2-0.5H435.1z M433.4,219.1l1.6,3.4v0.3l-1.6-3.4V219.1z M435.6,223.7h7.6v0.3h-7.6V223.7z
						 M445.7,224v-0.3h6.8v0.3H445.7z M445.7,224"/>
				</g>
			</g>
		</g>
		<g>
			<g>
				<path class="st2" d="M418.2,216.3c0.1,0.1,0.3,0.3,1,0.1c0.3-0.1,1.2-0.4,1.7,0.3c0.4,0.5,0.3,1.1,0,1.6l0.1,0.1
					c0.1,0.1,0.1,0.3-0.1,0.4c-0.1,0.1-0.3,0.1-0.4-0.1l-0.1-0.1c-0.5,0.2-1.1,0.1-1.5-0.4c-0.1-0.1-0.1-0.3,0.1-0.4
					c0.1-0.1,0.3-0.1,0.4,0.1c0.2,0.3,0.6,0.4,0.9,0.1c0.3-0.2,0.4-0.6,0.1-0.9c-0.1-0.2-0.3-0.3-1-0.1c-0.8,0.3-1.3,0.2-1.7-0.3
					c-0.4-0.5-0.3-1.1,0-1.6l-0.1-0.1c-0.1-0.1-0.1-0.3,0.1-0.4c0.1-0.1,0.3-0.1,0.4,0.1l0.1,0.1c0.5-0.2,1.1-0.1,1.5,0.4
					c0.1,0.1,0.1,0.3-0.1,0.4c-0.1,0.1-0.3,0.1-0.4-0.1c-0.2-0.3-0.6-0.4-0.9-0.1C418.1,215.6,418,216,418.2,216.3L418.2,216.3z
					 M424.6,206.3l6.2,8.4c0.1,0.1,0.1,0.3-0.1,0.4l-0.2,0.2l1,1.4c0.1,0.1,0.1,0.2,0.1,0.2c0,0.1-0.1,0.1-0.1,0.2c0,0,0,0,0,0
					l-0.7,0.4l1.1,1.5c0.1,0.1,0.1,0.2,0,0.3c0,0.1-0.1,0.1-0.1,0.2c0,0,0,0-0.1,0l-17.7,8.1l0,0l0,0c0,0,0,0,0,0c0,0,0,0,0,0
					c0,0,0,0,0,0c0,0,0,0,0,0c0,0,0,0,0,0l0,0c0,0,0,0,0,0c0,0,0,0,0,0c0,0,0,0,0,0l0,0c0,0,0,0,0,0c0,0,0,0,0,0c0,0,0,0,0,0
					c0,0,0,0,0,0c0,0,0,0,0,0c0,0,0,0,0,0c0,0,0,0,0,0c0,0,0,0,0,0c0,0,0,0,0,0c0,0,0,0,0,0c0,0,0,0,0,0c0,0,0,0,0,0c0,0,0,0,0,0
					c0,0,0,0,0,0c0,0,0,0,0,0c0,0,0,0,0,0c0,0,0,0,0,0c0,0,0,0,0,0c0,0,0,0,0,0c0,0,0,0,0,0c0,0,0,0,0,0c0,0,0,0,0,0c0,0,0,0,0,0
					c0,0,0,0,0,0c0,0,0,0,0,0c0,0,0,0,0,0c0,0,0,0,0,0c0,0,0,0,0,0c0,0,0,0,0,0c0,0,0,0,0,0c0,0,0,0,0,0c0,0,0,0,0,0c0,0,0,0,0,0
					c0,0,0,0,0,0l-6.2-8.4c-0.1-0.1-0.1-0.3,0.1-0.4l16.7-12.4C424.3,206.2,424.5,206.2,424.6,206.3L424.6,206.3z M427.9,216.5
					c-0.8-1.3-0.5-2.9,0.6-3.9l-2.5-3.4c-1.3,0.8-2.9,0.5-3.9-0.6l-11.7,8.7c0.8,1.3,0.5,2.9-0.6,3.9l2.5,3.4
					c1.3-0.8,2.9-0.5,3.9,0.6L427.9,216.5z M415.7,225.6c-0.8-0.8-2.1-1-3.1-0.5l1.3,1.8L415.7,225.6z M409.8,217.7L408,219l1.3,1.8
					C410.2,220,410.4,218.7,409.8,217.7L409.8,217.7z M424.3,206.9l-1.8,1.3c0.8,0.8,2.1,1,3.1,0.5L424.3,206.9z M430.2,217.8
					l-11.6,7l12.6-5.7L430.2,217.8z M430,215.6l-11.1,8.3l12-7.2L430,215.6z M430.1,214.8l-1.3-1.8c-0.8,0.8-1,2.1-0.5,3.1l1.5-1.1
					c0,0,0,0,0,0l0,0L430.1,214.8z M420.2,213.2c-0.1,0.2,0,0.3,0.2,0.4c0.7,0.2,1.2,0.6,1.6,1.2c1.1,1.5,0.8,3.6-0.7,4.7
					c-1.5,1.1-3.6,0.8-4.7-0.7c-1.1-1.5-0.8-3.6,0.7-4.7c0.6-0.4,1.2-0.6,1.9-0.7c0.2,0,0.3-0.1,0.3-0.3c0-0.2-0.1-0.3-0.3-0.3
					c-0.8,0-1.6,0.3-2.3,0.8c-1.7,1.3-2.1,3.8-0.8,5.5c1.3,1.7,3.8,2.1,5.5,0.8c1.7-1.3,2.1-3.8,0.8-5.5c-0.5-0.7-1.2-1.1-1.9-1.4
					C420.4,212.9,420.2,213,420.2,213.2L420.2,213.2z M420.2,213.2"/>
			</g>
		</g>
		<g>
			<g>
				
					<ellipse transform="matrix(0.9971 -7.548746e-02 7.548746e-02 0.9971 -17.1572 32.1113)" class="st11" cx="416.2" cy="243" rx="8.4" ry="8.4"/>
				<path class="st2" d="M416.2,251.8c-4.5,0-8.4-3.5-8.8-8.1c-0.4-4.8,3.3-9.1,8.1-9.4c4.8-0.4,9.1,3.3,9.4,8.1
					c0.4,4.8-3.3,9.1-8.1,9.4C416.6,251.8,416.4,251.8,416.2,251.8z M416.2,235c-0.2,0-0.4,0-0.6,0c-4.4,0.3-7.7,4.2-7.4,8.6
					c0.3,4.4,4.2,7.7,8.6,7.4c4.4-0.3,7.7-4.2,7.4-8.6C423.9,238.2,420.4,235,416.2,235z"/>
			</g>
			<g>
				
					<ellipse transform="matrix(0.9971 -7.548746e-02 7.548746e-02 0.9971 -17.1572 32.1113)" class="st2" cx="416.2" cy="243" rx="4.6" ry="4.6"/>
			</g>
			<g>
				<g>
					<path class="st2" d="M416.2,243.4C416.2,243.4,416.2,243.4,416.2,243.4c-0.2,0-0.4-0.2-0.4-0.4l-0.4-14.2
						c0-0.2,0.2-0.4,0.4-0.4c0.2,0,0.4,0.2,0.4,0.4l0.4,14.2C416.6,243.2,416.4,243.4,416.2,243.4z"/>
				</g>
			</g>
			<g>
				<g>
					<path class="st2" d="M449.1,247.1c-0.3,0-0.5-0.1-0.7-0.2L434,235l0.7-0.8l14.3,11.9l1.8-16.8l1,0.1l-1.8,16.9
						c0,0.4-0.3,0.7-0.6,0.8C449.3,247.1,449.2,247.1,449.1,247.1z"/>
				</g>
			</g>
			<g>
				<path class="st1" d="M457.2,217.1l-51.5,4.8c-0.5,0-0.8,0.5-0.8,0.9c0,0.5,0.5,0.8,0.9,0.8l51.5-4.8c0.5,0,0.8-0.5,0.8-0.9
					S457.7,217,457.2,217.1z"/>
				<path class="st2" d="M405.8,224c-0.3,0-0.6-0.1-0.8-0.3c-0.3-0.2-0.4-0.5-0.4-0.8c-0.1-0.7,0.4-1.3,1.1-1.4l51.5-4.8
					c0.7-0.1,1.3,0.4,1.4,1.1c0,0.3-0.1,0.7-0.3,0.9c-0.2,0.3-0.5,0.4-0.8,0.4l-51.5,4.8C405.8,224,405.8,224,405.8,224z
					 M457.3,217.4C457.3,217.4,457.3,217.4,457.3,217.4l-51.6,4.8c-0.3,0-0.5,0.3-0.4,0.5c0,0.3,0.3,0.5,0.5,0.4l51.5-4.8
					c0.1,0,0.2-0.1,0.3-0.2c0.1-0.1,0.1-0.2,0.1-0.4c0-0.1-0.1-0.2-0.2-0.3C457.5,217.5,457.4,217.4,457.3,217.4z"/>
			</g>
			<g>
				<path class="st1" d="M407.1,223.5l18.5,13.7c1.8,1.3,4.1,1.7,6.2,1l21.4-7.3l3-11.9L407.1,223.5z"/>
				<path class="st2" d="M429.6,238.9c-1.5,0-3-0.5-4.3-1.4l-19.3-14.2l50.6-4.8l-3.1,12.6l-0.2,0.1l-21.4,7.3
					C431.2,238.7,430.4,238.9,429.6,238.9z M408.1,223.8l17.7,13.1c1.7,1.3,3.9,1.6,5.9,0.9l21.2-7.3l2.8-11.2L408.1,223.8z"/>
			</g>
			<g>
				<g>
					<path class="st2" d="M407.8,247.3c-0.3,0-0.7-0.2-0.8-0.5c-0.1-0.4,0.1-0.8,0.5-1l47.8-16.6l13.1-16.1c1.1-1.4,2.6-2.4,4.2-2.9
						c0.4-0.1,0.8,0.1,1,0.5c0.1,0.4-0.1,0.8-0.5,1c-1.4,0.5-2.6,1.3-3.5,2.4l-13.3,16.3c-0.1,0.1-0.2,0.2-0.3,0.2l-48,16.7
						C408,247.3,407.9,247.3,407.8,247.3z"/>
				</g>
			</g>
			<g>
				<path class="st2" d="M480.7,207.8L480.7,207.8c-0.3-0.6-0.9-0.8-1.5-0.6l-7.1,2.7l1,2.1l6.9-2.6
					C480.6,209.1,480.9,208.4,480.7,207.8z"/>
			</g>
			<g>
				<g>
					<path class="st14" d="M500.5,235.4c-0.2-1,0.9-13.4,1-15.6c0-0.6,0-1.5,0-2.4c0.9,0,0.8-0.3,0.8-0.3s-0.7-3.2-0.7-5.4
						c0-0.2,0.1-0.3,0.1-0.5c0,0,0,0.4,0,0.4l-0.1,0c0-3.9-0.1-6.8-0.1-8.1c0-2.7-0.1-12.2-5.2-12.8c-5-0.6-11.3,10.9-12.2,11.6
						c-0.9,0.8-4.8,2.8-7.1,5c-0.7,0.6-0.8,1.7-0.2,2.4c0.5,0.7,1.4,1,2.2,0.7c2.4-0.9,5.3-2.7,6.7-3.6c2.4-1.4,3.1-3.5,3.6-3.2
						c0.5,0.3-0.2,13.4-1.3,14.7c-1,1.3-6.5,10.8-7.8,13.5c-1.2,2.8-0.2,15-0.8,15.6c-1.2,1.1-6.1,1.7-5.7,2.8
						c0.4,1.2,9.5,0.9,9.7-0.4c0.2-1.3,1.2-12.2,2.5-13.9c2.5-3.2,6.2-10.6,6.9-10.1c0.7,0.5,1.9,9.8,2.6,11.9
						c0.6,2.2,5.2,9.3,4.8,10.6c-0.3,1.2-4,2.3-3.9,2.9c0.3,1.1,7.8-0.4,9-1.3C506.5,249,500.7,236.5,500.5,235.4z"/>
				</g>
				<g>
					
						<ellipse transform="matrix(0.9886 -0.1508 0.1508 0.9886 -22.097 76.1439)" class="st14" cx="491" cy="183.8" rx="4.4" ry="6.8"/>
				</g>
			</g>
			<g>
				<g>
					<path class="st14" d="M485.3,182.1c0-2,1.3-3.8,3.2-4.5c0.1-0.3,0.3-0.5,0.6-0.6c0.1,0,0.2,0,0.3,0c0.2,0,0.4,0.1,0.5,0.2
						c0.2,0,0.4,0,0.6,0c2.4,0,4.3,1.5,4.8,3.7l0.1,0.2l-14.2,3.5L485.3,182.1z"/>
				</g>
				<g>
					<path class="st11" d="M489.4,177.2c0.2,0,0.3,0.1,0.4,0.2c0.2,0,0.5,0,0.7,0c2.1,0,4,1.3,4.6,3.6l-9.3,2.3l-0.1,0l-2.9,0.7
						l2.8-1.7c0-2,1.2-3.8,3.2-4.5c0-0.2,0.2-0.4,0.4-0.5C489.2,177.3,489.3,177.2,489.4,177.2 M489.4,176.7L489.4,176.7
						c-0.1,0-0.2,0-0.4,0c-0.4,0.1-0.6,0.3-0.7,0.6c-1.9,0.8-3.1,2.6-3.2,4.6l-2.6,1.6l-2.8,1.7l3.2-0.8l2.9-0.7l0.1,0l9.3-2.3
						l0.5-0.1l-0.1-0.5c-0.6-2.4-2.6-3.9-5.1-3.9c-0.2,0-0.3,0-0.5,0C489.8,176.8,489.6,176.7,489.4,176.7L489.4,176.7z"/>
				</g>
			</g>
		</g>
	</g>
</g>
</svg>
