<svg xmlns="http://www.w3.org/2000/svg" viewBox="0 0 740 860"><defs><style>.cls-1{isolation:isolate;}.cls-2{font-size:16px;}.cls-2,.cls-42,.cls-47,.cls-63{fill:#3273ad;}.cls-2,.cls-25,.cls-4,.cls-51,.cls-79,.cls-95,.cls-99{font-family:SourceSansPro-Regular, Source Sans Pro;}.cls-3{letter-spacing:0em;}.cls-4{font-size:20px;}.cls-19,.cls-4{fill:#0f9d58;}.cls-5{letter-spacing:-0.02em;}.cls-6{letter-spacing:-0.02em;}.cls-7{letter-spacing:-0.01em;}.cls-8{letter-spacing:-0.01em;}.cls-9{letter-spacing:0em;}.cls-10{letter-spacing:-0.01em;}.cls-11{letter-spacing:-0.02em;}.cls-12{letter-spacing:-0.01em;}.cls-13,.cls-14,.cls-15,.cls-16,.cls-20,.cls-21,.cls-22,.cls-24,.cls-29,.cls-34,.cls-35,.cls-48,.cls-58,.cls-60,.cls-69,.cls-78,.cls-88,.cls-89,.cls-94,.cls-97{fill:none;}.cls-13,.cls-14,.cls-15,.cls-16{stroke:#ddd;}.cls-13,.cls-14,.cls-16,.cls-58,.cls-60,.cls-61,.cls-67,.cls-72,.cls-78,.cls-81,.cls-89,.cls-97,.cls-98{stroke-linecap:round;stroke-linejoin:round;}.cls-13,.cls-14,.cls-15,.cls-16,.cls-18,.cls-44,.cls-48,.cls-87,.cls-88,.cls-89,.cls-97,.cls-98{stroke-width:0.5px;}.cls-14{stroke-dasharray:3 3;}.cls-15,.cls-17,.cls-18,.cls-20,.cls-21,.cls-22,.cls-23,.cls-24,.cls-28,.cls-29,.cls-30,.cls-31,.cls-32,.cls-33,.cls-34,.cls-35,.cls-36,.cls-40,.cls-44,.cls-46,.cls-48,.cls-57,.cls-62,.cls-69,.cls-73,.cls-74,.cls-87,.cls-88,.cls-94{stroke-miterlimit:10;}.cls-16{stroke-dasharray:3;}.cls-17,.cls-23,.cls-28,.cls-30,.cls-31,.cls-33,.cls-43,.cls-44,.cls-70,.cls-82{fill:#fff;}.cls-17,.cls-20,.cls-23,.cls-24,.cls-28,.cls-29,.cls-30,.cls-31,.cls-33,.cls-34,.cls-35,.cls-48{stroke:#0f9d58;}.cls-17{stroke-width:0.6px;}.cls-18,.cls-36,.cls-49,.cls-62,.cls-72,.cls-73{fill:#fad264;}.cls-18,.cls-21,.cls-22,.cls-36,.cls-62,.cls-72,.cls-73{stroke:#bc8e1d;}.cls-20{stroke-width:0.3px;}.cls-21{stroke-width:1.22px;}.cls-22,.cls-23{stroke-width:0.76px;}.cls-24{stroke-width:0.38px;}.cls-25,.cls-51,.cls-79,.cls-95,.cls-99{font-size:12px;fill:#333;}.cls-25,.cls-55{letter-spacing:0em;}.cls-26{letter-spacing:-0.01em;}.cls-27{letter-spacing:0em;}.cls-28{stroke-width:0.19px;}.cls-29,.cls-30{stroke-width:0.37px;}.cls-31{stroke-width:0.47px;}.cls-32,.cls-40,.cls-46,.cls-57,.cls-66,.cls-67,.cls-87,.cls-98{fill:#c3f1fc;}.cls-32,.cls-40,.cls-46,.cls-57,.cls-67,.cls-69,.cls-81,.cls-87,.cls-88,.cls-94,.cls-97,.cls-98{stroke:#3273ad;}.cls-32{stroke-width:0.3px;}.cls-33,.cls-34{stroke-width:0.49px;}.cls-35{stroke-width:0.47px;}.cls-36{stroke-width:0.15px;}.cls-37{letter-spacing:-0.02em;}.cls-38,.cls-45{fill:#cfd1d2;mix-blend-mode:multiply;}.cls-39,.cls-61{fill:#31b375;}.cls-40{stroke-width:0.12px;}.cls-41,.cls-47{opacity:0.7;}.cls-43{opacity:0.1;}.cls-44,.cls-58,.cls-60,.cls-61{stroke:#057f44;}.cls-45{opacity:0.6;}.cls-46,.cls-67,.cls-69,.cls-72,.cls-73,.cls-74,.cls-78{stroke-width:0.25px;}.cls-50{fill:#bc8e1d;}.cls-51{letter-spacing:-0.02em;}.cls-52{letter-spacing:0em;}.cls-53{letter-spacing:-0.01em;}.cls-54{letter-spacing:-0.01em;}.cls-56{letter-spacing:-0.01em;}.cls-57,.cls-60,.cls-61{stroke-width:0.23px;}.cls-58{stroke-width:0.69px;}.cls-59{fill:#057f44;}.cls-62{stroke-width:0.57px;}.cls-63{opacity:0.2;}.cls-64{fill:#f9d166;}.cls-65{letter-spacing:-0.05em;}.cls-68,.cls-81{fill:#9ad9f6;}.cls-70{opacity:0.8;}.cls-71{fill:#d0f6fc;}.cls-74,.cls-75{fill:#604fb2;}.cls-74,.cls-78{stroke:#17125b;}.cls-76{fill:#66c;}.cls-77{fill:#17125b;}.cls-79{letter-spacing:-0.07em;}.cls-80{letter-spacing:0em;}.cls-81{stroke-width:0.33px;}.cls-83{letter-spacing:-0.02em;}.cls-84{letter-spacing:-0.01em;}.cls-85{letter-spacing:0em;}.cls-86{letter-spacing:-0.01em;}.cls-89{stroke:#9ad9f6;}.cls-90{letter-spacing:-0.01em;}.cls-91{letter-spacing:0.01em;}.cls-92{letter-spacing:0em;}.cls-93,.cls-95{letter-spacing:-0.01em;}.cls-94{stroke-width:0.1px;}.cls-96{fill:#8abde2;}.cls-99{letter-spacing:0em;}.cls-100{letter-spacing:-0.02em;}.cls-101{letter-spacing:0em;}.cls-102{letter-spacing:0em;}.cls-103{letter-spacing:-0.01em;}.cls-104{letter-spacing:-0.01em;}.cls-105{letter-spacing:0em;}.cls-106{letter-spacing:0em;}.cls-107{letter-spacing:-0.01em;}.cls-108{letter-spacing:0em;}</style></defs><title>kinds</title><g class="cls-1"><g id="Layer_1" data-name="Layer 1"><text class="cls-2" transform="translate(37.34 185.46)">In<tspan class="cls-3" x="12.88" y="0">v</tspan><tspan x="20.29" y="0">estment</tspan></text><text class="cls-4" transform="translate(489.49 72.6)">Sus<tspan class="cls-5" x="29.84" y="0">t</tspan><tspan x="36.24" y="0">ainable S</tspan><tspan class="cls-6" x="113.32" y="0">t</tspan><tspan x="119.72" y="0">ar</tspan><tspan class="cls-7" x="136.9" y="0">t</tspan><tspan x="143.54" y="0">ups</tspan></text><text class="cls-4" transform="translate(199.49 72.6)">G<tspan class="cls-8" x="12.24" y="0">r</tspan><tspan class="cls-9" x="18.98" y="0">o</tspan><tspan x="29.74" y="0">wth S</tspan><tspan class="cls-5" x="76.36" y="0">t</tspan><tspan x="82.76" y="0">ar</tspan><tspan class="cls-7" x="99.94" y="0">t</tspan><tspan x="106.58" y="0">ups</tspan></text><text class="cls-2" transform="translate(37.34 332.12)">Im<tspan class="cls-10" x="17.39" y="0">p</tspan><tspan x="26.05" y="0">act</tspan></text><text class="cls-2" transform="translate(37.34 478.45)">Exit</text><text class="cls-2" transform="translate(37.34 622.6)">In<tspan class="cls-11" x="12.88" y="0">c</tspan><tspan x="19.84" y="0">ome</tspan></text><text class="cls-2" transform="translate(37.34 774.83)">Owne<tspan class="cls-12" x="38.72" y="0">r</tspan><tspan x="44.11" y="0">ship</tspan></text><line class="cls-13" x1="35.16" y1="259.1" x2="36.66" y2="259.1"/><line class="cls-14" x1="39.66" y1="259.1" x2="685.84" y2="259.1"/><line class="cls-13" x1="687.34" y1="259.1" x2="688.84" y2="259.1"/><line class="cls-13" x1="35.16" y1="404.1" x2="36.66" y2="404.1"/><line class="cls-14" x1="39.66" y1="404.1" x2="685.84" y2="404.1"/><line class="cls-13" x1="687.34" y1="404.1" x2="688.84" y2="404.1"/><line class="cls-13" x1="35.16" y1="694.1" x2="36.66" y2="694.1"/><line class="cls-14" x1="39.66" y1="694.1" x2="685.84" y2="694.1"/><line class="cls-13" x1="687.34" y1="694.1" x2="688.84" y2="694.1"/><line class="cls-13" x1="35.16" y1="549.1" x2="36.66" y2="549.1"/><line class="cls-14" x1="39.66" y1="549.1" x2="685.84" y2="549.1"/><line class="cls-13" x1="687.34" y1="549.1" x2="688.84" y2="549.1"/><line class="cls-15" x1="35.16" y1="106.1" x2="688.84" y2="106.1"/><line class="cls-16" x1="437.59" y1="136.1" x2="437.59" y2="232.1"/><line class="cls-16" x1="437.59" y1="284.1" x2="437.59" y2="380.1"/><line class="cls-16" x1="437.59" y1="430.1" x2="437.59" y2="526.1"/><line class="cls-16" x1="437.59" y1="574.1" x2="437.59" y2="670.1"/><line class="cls-16" x1="437.59" y1="724.1" x2="437.59" y2="820.1"/><line class="cls-15" x1="437.59" y1="38.1" x2="437.59" y2="106.1"/><path class="cls-17" d="M312.58,184.88l-.36,1.2c-2.61,7.25-7.2,11.19-14.07,12.1a15.87,15.87,0,0,1-4.1-.19,32.65,32.65,0,0,1-5.95-1.52c-5.16-1.83-16.87-7.55-14.11-21l0-.11,1.72-5.26c.21-.47.38-.86.57-1.25,3.54-7.27,7.38-11.82,11.74-13.93l.16-.07,4.14-1.2a25.14,25.14,0,0,1,2.72-.17c2.39,0,2.47-.16,2.48-1.4a9.47,9.47,0,0,0-3.06-6.77,2.42,2.42,0,0,1-.34-2.94c.38-.67,2-2.71,7.26-1.35a28.74,28.74,0,0,1,5.08,1.23c5.68,2,5.71,5,5.23,6.53-.81,2.63-3.19,3.35-5.1,3.92-2.14.63-2.76,1-2.76,2,0,.67.9,1.32,2.37,2.32a27.35,27.35,0,0,1,2.94,2.24,14.31,14.31,0,0,1,1.35,1.33c.33.4.6.73.87,1.11,2.55,3.51,3.51,8.2,2.92,14.31a48.76,48.76,0,0,1-1.09,6.67C313.18,182.92,313,183.56,312.58,184.88Z"/><path class="cls-18" d="M290,171.67a3.19,3.19,0,0,0,.07,2.27,4.59,4.59,0,0,0,1.91,2l.56.34.52.3-1.19,3.76a7.3,7.3,0,0,1-1.13-.55,10.68,10.68,0,0,1-1-.69,7.18,7.18,0,0,1-.75-.68,6.3,6.3,0,0,1-.5-.57l0-.05-.39-.12-.69,2.17.09.08a9.75,9.75,0,0,0,1.75,1.23,12.46,12.46,0,0,0,2.13.94l-1.07,3.38,1.48.47,1.09-3.44a5.69,5.69,0,0,0,3.31-.24,3.41,3.41,0,0,0,2-2.19,3,3,0,0,0-.15-2.41,4.85,4.85,0,0,0-1.93-1.81l-.53-.31-.44-.25,1.18-3.73a6.06,6.06,0,0,1,1.65,1,12.49,12.49,0,0,1,1.22,1.22l0,0,.36.12.68-2.16-.1-.08a10.77,10.77,0,0,0-1.56-1,11.63,11.63,0,0,0-1.74-.8l.81-2.56-1.48-.47-.82,2.59a5.54,5.54,0,0,0-3.39.2A3.37,3.37,0,0,0,290,171.67Zm5.8,6.62a1.4,1.4,0,0,1,.11,1.31,1.53,1.53,0,0,1-.94,1.08,3.23,3.23,0,0,1-1.62.06l1.11-3.5A4.23,4.23,0,0,1,295.82,178.29Zm-2.58-7.17a3.27,3.27,0,0,1,1.58-.05l-1.11,3.49a4.17,4.17,0,0,1-1.38-1.14,1.5,1.5,0,0,1-.08-1.3A1.41,1.41,0,0,1,293.24,171.12Z"/><path class="cls-19" d="M281.34,185.75c-3.16-4.85-3-7-2.15-15.2C279.19,170.55,275,181.14,281.34,185.75Z"/><path class="cls-19" d="M298,157.23c-5.64-1.83-12.49,2-13.84,6.79A15.18,15.18,0,0,1,298,157.23Z"/><path class="cls-20" d="M296.49,144.55s2-1.34,6.12-.12,9.16,4.6,6.93,5.07S293.63,145.91,296.49,144.55Z"/><path class="cls-21" d="M297.55,152.07c-4.82.84,7.06,2.89,7.06,2.89s1.25-.49-.3-1"/><path class="cls-22" d="M305.46,154.53c.44-.41,1-.11,1.48.11s2.06,1,2.48-.15"/><path class="cls-22" d="M305.28,154.86c.27,0,.45.43.61.62a3.71,3.71,0,0,0,.72.67c.37.25,1.14.57,1.57.27"/><path class="cls-23" d="M287.41,174.46l.08,1.59c0,9.76-3.85,16.41-11.68,20.42a20.11,20.11,0,0,1-5,1.51,41.37,41.37,0,0,1-7.74.71c-6.94,0-23.35-1.87-25.77-19.13v-.15l-.17-7c.05-.65.09-1.19.15-1.73,1.15-10.18,3.8-17.25,8.12-21.61l.16-.15,4.44-3.19a31.85,31.85,0,0,1,3.17-1.36c2.84-1.07,2.88-1.24,2.37-2.72-1-2.85-3.17-5.15-6.52-6.78a3.07,3.07,0,0,1-1.65-3.37c.17-1,1.29-4.11,8.09-4.69a36.41,36.41,0,0,1,6.58-.68c7.64,0,8.92,3.49,9,5.58.15,3.48-2.39,5.34-4.43,6.84-2.29,1.67-2.88,2.35-2.43,3.61.29.8,1.64,1.2,3.81,1.77a34.66,34.66,0,0,1,4.47,1.43,18.13,18.13,0,0,1,2.17,1c.56.33,1,.61,1.51,1,4.53,3.11,7.66,8.3,9.56,15.85a61.78,61.78,0,0,1,1.52,8.42C287.29,171.86,287.33,172.71,287.41,174.46Z"/><path class="cls-18" d="M254.87,168.24a4,4,0,0,0,1,2.68,5.82,5.82,0,0,0,3.12,1.52l.81.17.75.13.17,5a9.25,9.25,0,0,1-1.58-.17,13.53,13.53,0,0,1-1.51-.39,9.1,9.1,0,0,1-1.18-.49,8,8,0,0,1-.84-.46l-.07,0-.52,0,.1,2.88.14.06a12.35,12.35,0,0,0,2.61.73,15.79,15.79,0,0,0,2.94.22l.15,4.49,2-.07-.16-4.58a7.21,7.21,0,0,0,3.85-1.69,4.32,4.32,0,0,0,1.49-3.47,3.78,3.78,0,0,0-1.2-2.81,6.15,6.15,0,0,0-3.07-1.34l-.76-.14-.64-.12-.17-5a7.68,7.68,0,0,1,2.38.44,15.82,15.82,0,0,1,2,.94l.06,0,.48,0-.1-2.86-.15-.06a13.65,13.65,0,0,0-2.3-.58,14.74,14.74,0,0,0-2.42-.22l-.12-3.4-2,.07.12,3.44a7,7,0,0,0-4,1.67A4.27,4.27,0,0,0,254.87,168.24Zm9.73,5.44a1.78,1.78,0,0,1,.69,1.52,1.93,1.93,0,0,1-.66,1.68,4.09,4.09,0,0,1-1.91.75l-.16-4.65A5.36,5.36,0,0,1,264.6,173.68Zm-6.13-7.47a4.15,4.15,0,0,1,1.87-.73l.16,4.63a5.29,5.29,0,0,1-2.14-.78,1.9,1.9,0,0,1-.65-1.52A1.79,1.79,0,0,1,258.47,166.22Z"/><path class="cls-19" d="M250.47,188.73c-5.83-4.45-6.51-7.13-9-17.24C241.46,171.49,240.93,185.92,250.47,188.73Z"/><path class="cls-19" d="M258.3,147.61c-7.51.21-14.07,7.68-13.65,14A19.23,19.23,0,0,1,258.3,147.61Z"/><path class="cls-24" d="M250.46,131.31s1.84-2.46,7.25-2.74,12.89,1.61,10.43,3.12S247.62,134.15,250.46,131.31Z"/><path class="cls-21" d="M255.55,141.64c-5.4,3,9.66.45,9.66.45s1.29-1.12-.8-1.11"/><path class="cls-22" d="M266,141.23c.35-.68,1.18-.57,1.82-.5s2.9.37,2.9-1.24"/><path class="cls-22" d="M266,141.7c.34-.07.72.32,1,.48a4.7,4.7,0,0,0,1.15.49c.55.14,1.6.19,2-.34"/><text class="cls-25" transform="translate(200.73 228.2)">Multiple <tspan class="cls-26" x="43.68" y="0">r</tspan><tspan x="47.76" y="0">ounds of in</tspan><tspan class="cls-27" x="103.81" y="0">v</tspan><tspan x="109.4" y="0">estment</tspan></text><path class="cls-28" d="M601.94,187.91l-.1.09a2.71,2.71,0,0,1-.77.42V187a4.52,4.52,0,0,0,.91-.42v1.25a.19.19,0,0,1,0,.1Z"/><path class="cls-28" d="M598.94,190.93l.91-.13v1.49l-.91.14Z"/><path class="cls-28" d="M600.46,190.7c.32-.06.63-.13.91-.21V192c-.27.08-.57.15-.91.22Z"/><path class="cls-28" d="M599.55,187.37c.32-.06.63-.13.91-.21v1.46q-.41.12-.91.22Z"/><path class="cls-28" d="M601.9,181h0l-.11.09a3,3,0,0,1-.72.37V180a4.48,4.48,0,0,0,.91-.42v1.25a.24.24,0,0,1-.07.15Z"/><path class="cls-28" d="M599.55,181.88V180.4q.48-.1.91-.21v1.46c-.27.08-.58.15-.91.22Z"/><path class="cls-28" d="M602,191.75V190.3a4.56,4.56,0,0,0,.91-.42v1.25c0,.17-.32.39-.91.61Z"/><path class="cls-29" d="M604.39,182.36c0-.52-.65-.92-1.88-1.23a.67.67,0,0,0,.07-.28v-2.12h0c-.11-1.77-7.34-1.82-8.17-1.82s-8.06.05-8.17,1.82h0v2.12c0,.58.74,1,1.85,1.36a.68.68,0,0,0,0,.15h0v2.12c-1.19.31-1.78.71-1.81,1.22h0v2.12c0,.4.36.74,1,1a.69.69,0,0,0,0,.19h0v2.12c0,1,2.27,1.63,4.79,1.92H592c.49.05,1,.1,1.47.13h0c.62,0,1.23.06,1.8.06s1.18,0,1.8-.06h0c.49,0,1-.07,1.47-.13h.07c2.52-.29,4.79-.92,4.79-1.93V189h0c0-.37-.34-.68-1-.94a.67.67,0,0,0,.06-.27v-2c1.09-.33,1.82-.78,1.82-1.35v-2.12Z"/><path class="cls-28" d="M595.16,189.31h-.46v-1.51h.3l.91,0v1.51h-.2l-.55,0Z"/><path class="cls-28" d="M593.84,189.32h-.47l-.49,0v-1.51l.91,0h.3v1.51h-.25Z"/><path class="cls-28" d="M588.37,188.63h0v-1.46c.28.08.59.15.91.21v1.48l-.77-.18-.11,0Z"/><path class="cls-28" d="M594.75,191.14H595v1.51l-1.21,0v-1.51l.91,0Z"/><path class="cls-28" d="M595.91,191.14l.91,0v1.51l-1.21,0v-1.51h.3Z"/><path class="cls-28" d="M598.34,191v1.5l-.91.08v-1.51l.91-.07Z"/><path class="cls-28" d="M590.16,190.7v1.48c-.33-.07-.64-.15-.91-.22v-1.46c.28.08.59.15.91.21Z"/><path class="cls-28" d="M590.77,190.81l.91.13v1.5l-.91-.14Z"/><path class="cls-28" d="M592.28,191l.91.07v1.51l-.91-.08Z"/><path class="cls-28" d="M591.53,189.19h-.16v-1.5l.91.07v1.51l-.75-.06Z"/><path class="cls-28" d="M590.77,187.6v1.5l-.91-.14v-1.49l.91.13Z"/><path class="cls-28" d="M596.72,189.24h-.2v-1.51l.91-.07v1.5l-.58.05Z"/><path class="cls-28" d="M598,189.1v-1.5l.91-.13V189l-.91.14Z"/><path class="cls-28" d="M588.34,181.66v-1.46c.28.08.59.14.91.21v1.48l-.11,0-.47-.11-.33-.09Z"/><path class="cls-28" d="M593.85,180.84h.25v1.51l-1.21,0v-1.51l.91,0Z"/><path class="cls-28" d="M595,180.84l.91,0v1.51h-.17l-.62,0h-.43v-1.51h.3Z"/><path class="cls-28" d="M598,182.13v-1.5l.91-.13V182l-.91.14Z"/><path class="cls-28" d="M597.43,180.7v1.5l-.91.08v-1.51l.91-.07Z"/><path class="cls-28" d="M591.37,182.21v-1.5l.91.07v1.51l-.91-.08Z"/><path class="cls-28" d="M590.77,180.64v1.5l-.18,0-.11,0L590,182l-.1,0v-1.49l.91.13Z"/><path class="cls-30" d="M603.78,182.38c0,.21-.49.48-1.32.74a20.43,20.43,0,0,1-4.87.73h-2.74a20.36,20.36,0,0,1-4.87-.73c-.83-.25-1.29-.53-1.32-.73v0h.06l.36.08c.6.13,1.27.24,2,.32h0c.48.05,1,.1,1.5.13h0l1.13,0h1.17a23.2,23.2,0,0,0,5.66-.7l.19-.06.12,0,.32-.11.05,0,.25-.1.07,0,.24-.12.09-.05.11-.06.06,0c1.36.29,1.71.62,1.75.74Z"/><path class="cls-30" d="M594.4,177.52c5,0,7.52.78,7.57,1.24,0,.21-.5.48-1.32.73a20.29,20.29,0,0,1-4.87.73H593a20.29,20.29,0,0,1-4.87-.73c-.82-.25-1.29-.52-1.32-.73,0-.45,2.57-1.24,7.57-1.24Z"/><path class="cls-28" d="M586.83,180.85v-1.25a4.42,4.42,0,0,0,.91.42v1.45c-.59-.22-.91-.44-.91-.61Z"/><path class="cls-30" d="M588.3,185h0a5.15,5.15,0,0,0,2.34,1l.08,0,.24.05a23.51,23.51,0,0,0,3.43.43h0l1.26,0h1.2l1.17,0h0a23.47,23.47,0,0,0,3.5-.45,5.57,5.57,0,0,1-.9.35,20.84,20.84,0,0,1-5.23.74H593a20.36,20.36,0,0,1-4.87-.73c-.83-.26-1.3-.53-1.32-.74s.34-.4,1.46-.67Z"/><path class="cls-28" d="M586.83,187.81v-1.25a4.45,4.45,0,0,0,.91.42v1.44l-.17-.07h0c-.48-.2-.73-.39-.73-.54Z"/><path class="cls-28" d="M587.74,191.14v-1.25a4.56,4.56,0,0,0,.91.42v1.45c-.59-.22-.91-.44-.91-.61Z"/><path class="cls-30" d="M602.87,189c0,.2-.5.48-1.32.73a20.33,20.33,0,0,1-4.87.73h-2.74a20.27,20.27,0,0,1-4.87-.73c-.8-.25-1.26-.51-1.32-.71l.28.09h0l.25.07.1,0,.15,0a22.11,22.11,0,0,0,4,.57h0c.47,0,.95,0,1.43.05h.89l1.3,0h0q.78,0,1.51-.13h0c.54-.06,1-.14,1.52-.23l.29-.05h.06a8.14,8.14,0,0,0,2.2-.72l.08,0,.1-.06.09-.06c.6.21.76.4.78.48Z"/><path class="cls-28" d="M595.41,186l-.67,0h0v-1.51l.91,0h.3V186h-.51Z"/><path class="cls-28" d="M594,185.92h-.12l-.57-.05h-.14v-1.5l.91.07v1.51Z"/><path class="cls-28" d="M592,185.69l-.35-.06v-1.48l.91.13v1.5l-.54-.08Z"/><path class="cls-28" d="M591.07,184v1.48c-.34-.07-.64-.15-.91-.23v-1.46c.28.08.59.15.91.21Z"/><path class="cls-28" d="M589.55,183.64v1.44a1.88,1.88,0,0,1-.88-.54l0,0v-1.28a4.54,4.54,0,0,0,.91.42Z"/><path class="cls-28" d="M596.82,184.47l.91,0V186l-1.21,0v-1.51h.3Z"/><path class="cls-28" d="M600.73,185.64l-.4.07-.24,0-.24,0v-1.5l.91-.13v1.49Z"/><path class="cls-28" d="M598.68,185.89l-.34,0v-1.51l.91-.07v1.5l-.53.05Z"/><path class="cls-28" d="M602.14,185.33l-.47.12-.23.05h-.07V184c.32-.06.63-.13.91-.21v1.46l-.13,0Z"/><path class="cls-28" d="M602.88,185.09v-1.45a4.47,4.47,0,0,0,.91-.42v1.25c0,.17-.32.39-.91.61Z"/><path class="cls-31" d="M566.93,153l10.28,13.81a.49.49,0,0,1-.1.69l-.4.3,1.69,2.26a.49.49,0,0,1-.1.69l0,0-1.24.74,1.86,2.49a.49.49,0,0,1-.1.69l-.09.05-29.25,13.34h-.55l0,0h0l0,0-10.28-13.81a.49.49,0,0,1,.1-.69l27.59-20.55a.49.49,0,0,1,.69.1Z"/><path class="cls-32" d="M572.41,169.79a5.15,5.15,0,0,1,.95-6.48l-4.17-5.59a5.15,5.15,0,0,1-6.48-.95L543.34,171.2a5.15,5.15,0,0,1-.95,6.48l4.17,5.59a5.15,5.15,0,0,1,6.48.95Z"/><path class="cls-31" d="M552.24,184.81a4.17,4.17,0,0,0-5.09-.74l2.17,2.92Z"/><path class="cls-31" d="M542.55,171.79,539.63,174l2.17,2.92a4.17,4.17,0,0,0,.74-5.09Z"/><path class="cls-18" d="M556.45,169.57c.18.24.55.52,1.67.15.48-.16,1.93-.64,2.77.5a2.09,2.09,0,0,1-.07,2.57l.13.17a.49.49,0,0,1-.79.59l-.13-.17a2.09,2.09,0,0,1-2.48-.67.49.49,0,1,1,.79-.59,1.1,1.1,0,1,0,1.76-1.31c-.21-.28-.57-.52-1.67-.15-1.28.42-2.21.25-2.77-.5a2.09,2.09,0,0,1,.07-2.57l-.13-.17a.49.49,0,0,1,.79-.59l.13.17a2.09,2.09,0,0,1,2.48.67.49.49,0,0,1-.79.59,1.1,1.1,0,0,0-1.76,1.31Z"/><path class="cls-31" d="M566.43,154l-2.92,2.17a4.17,4.17,0,0,0,5.09.74Z"/><polygon class="cls-31" points="576.17 172.05 556.94 183.61 577.72 174.13 576.17 172.05"/><polygon class="cls-31" points="575.92 168.4 557.51 182.11 577.28 170.23 575.92 168.4"/><path class="cls-31" d="M576.13,167,574,164.11a4.17,4.17,0,0,0-.74,5.09l2.52-1.87h0Z"/><path class="cls-18" d="M559.7,164.3a.49.49,0,0,0,.31.62,5.55,5.55,0,1,1-1.9-.28.49.49,0,1,0,0-1,6.53,6.53,0,1,0,2.23.33.49.49,0,0,0-.62.31Z"/><path class="cls-33" d="M583.91,184.9l-2.4-3.54q.47-.43.9-.89a.58.58,0,0,0,.1-.65l-4.11-8.31a.58.58,0,0,0-.93-.14,17.18,17.18,0,0,1-12,5.36l-16.39.44a.57.57,0,0,0-.56.59h0l.18,6.64a.57.57,0,0,0,.06.24l4.11,8.31h0a.57.57,0,0,0,.53.32l30.26-.81a.57.57,0,0,0,.56-.59l-.18-6.64a.57.57,0,0,0-.11-.32Z"/><path class="cls-32" d="M554,178.18l8.85-.24.79,1.59c-1.43.27-3.15.84-3.12,2,0,1.64,3.69,1.9,5.06,1.94l.83,1.67-8.08.22c-.45-1.29-2.48-2.17-5-2.1-.29,0-.59,0-.87.06l-1.5-3c1.63-.37,2.77-1.14,3.08-2.08Z"/><path class="cls-18" d="M565,182.28c-2-.12-3.08-.54-3.31-.8a5,5,0,0,1,2.48-.87Z"/><path class="cls-33" d="M553.54,185.46,553,184.4l.36,0a5.3,5.3,0,0,1,3.69,1Z"/><path class="cls-33" d="M568,186.23l2.05-.06.15,5.5-2.05.05Z"/><path class="cls-33" d="M582.38,184.69l-6.43.17.62-.26a18.25,18.25,0,0,0,4.06-2.49Z"/><path class="cls-33" d="M579.36,181.65c-.28-.84.27-2,1.34-2.89l.6,1.21a17.11,17.11,0,0,1-1.94,1.68Z"/><path class="cls-33" d="M577.73,172.74l.51,1a6.14,6.14,0,0,1-2.71.8,18.25,18.25,0,0,0,2.21-1.82Z"/><path class="cls-32" d="M572.46,176.29a18.45,18.45,0,0,0,1.71-.87,3,3,0,0,0,1.47.29,7.27,7.27,0,0,0,3.1-.91l1.44,2.91c-1.72,1.3-2.47,3.22-1.79,4.61a17.19,17.19,0,0,1-7.5,2.63l-.93-1.89c2.22-.5,2.69-1.28,2.67-1.88,0-1.51-3.15-1.85-4.56-1.92l-.75-1.53a18.24,18.24,0,0,0,5.13-1.44Z"/><path class="cls-18" d="M568.68,180.46a5.41,5.41,0,0,1,2.79.76,4.23,4.23,0,0,1-2,.78Z"/><path class="cls-33" d="M566.1,177.85l3.55,7.18h-.09l-1.85,0-3.55-7.17,1.32,0,.62,0Z"/><path class="cls-33" d="M552.69,178.22a4.47,4.47,0,0,1-2.24,1l-.45-.91Z"/><line class="cls-34" x1="553.78" y1="186.91" x2="566.82" y2="186.56"/><line class="cls-34" x1="553.78" y1="188.5" x2="566.82" y2="188.15"/><line class="cls-34" x1="553.78" y1="190.09" x2="566.82" y2="189.74"/><line class="cls-34" x1="553.78" y1="191.68" x2="566.82" y2="191.33"/><line class="cls-35" x1="570.91" y1="186.41" x2="582.91" y2="186.08"/><line class="cls-35" x1="570.91" y1="188" x2="582.91" y2="187.67"/><line class="cls-35" x1="570.92" y1="189.59" x2="582.92" y2="189.26"/><line class="cls-35" x1="570.92" y1="191.18" x2="582.92" y2="190.85"/><line class="cls-34" x1="549.74" y1="180.99" x2="552.51" y2="186.59"/><line class="cls-34" x1="549.79" y1="184.03" x2="552.69" y2="189.89"/><path class="cls-36" d="M592.45,178.65c0,.06.13.12.35.16a7.59,7.59,0,0,0,1,.09h.52l.06.3h-.53l-.5,0-.39,0-.28,0h-.19l0,.17h0l.87,0h1l.05.27h.65l-.05-.27a10,10,0,0,0,1.28-.1c.34-.06.51-.13.5-.21s-.15-.13-.4-.17a8.58,8.58,0,0,0-1-.08H595l-.06-.3.79,0,.66.06h.18l0-.17h-.05l-.77,0h-.81l0-.2h-.65l0,.21a9.89,9.89,0,0,0-1.32.1C592.6,178.5,592.44,178.57,592.45,178.65Zm3.24.33c.15,0,.22,0,.23.09s-.06.08-.22.1a6,6,0,0,1-.64,0l-.05-.28Zm-2-.45a6.12,6.12,0,0,1,.62,0l.05.28c-.34,0-.58,0-.71,0s-.21,0-.22-.09S593.48,178.55,593.65,178.53Z"/><text class="cls-25" transform="translate(486.38 228.2)">Can be bootst<tspan class="cls-37" x="70.24" y="0">r</tspan><tspan x="74.13" y="0">apped with savings</tspan></text><ellipse class="cls-38" cx="307.03" cy="338.59" rx="13.36" ry="1.92"/><path class="cls-39" d="M323.93,309.45a3.67,3.67,0,0,0-3.37,5.13,3.67,3.67,0,0,0-4.66.26,5.2,5.2,0,0,0-6.65-.89,3.67,3.67,0,0,0-5.75.08,3.67,3.67,0,0,0-4.22.74,4.76,4.76,0,1,0,5.38,7,3.68,3.68,0,0,0,3.5,0,5.2,5.2,0,0,0,8.46-1,3.67,3.67,0,0,0,5.12-4.68,3.67,3.67,0,1,0,2.18-6.63Z"/><path class="cls-40" d="M300.65,338.17s4.6-3.75,4-8.56-7.56-13.54-9.51-14.13,1.85-2,1.85-2,2.38,4.46,3,4.36.24-4.2.24-4.2h1.45a18,18,0,0,0,.48,5.52c.77,2.78,2.52,5.2,3,5,1-.32.74-4.14.74-5.67s-3-5-3-5l1.27-.32s2,3.37,2.11,2.69l.74-3.22,1.69.47s-.48,2.43-.63,3,.29.92.63.58l2.48-2.48,1.73.08a28.27,28.27,0,0,0-3.47,4.41c-.58,1.32-.48,4,.26,4s4.41-9.06,4.41-9.06h1s-1.71,5.42-1.45,5.89,3.12-1.23,3.38-1.28.07-3.65.07-3.65l1.16-.58-.11,3.82,3.68-2.13.26.85-6.23,3.38s-3.52,1.9-4.58,3.59-1.53,3.56-1.76,7.24a7.68,7.68,0,0,0,3.91,7.24Z"/><path class="cls-40" d="M297,313.44a12.38,12.38,0,0,0-1.48.7,45.8,45.8,0,0,0,3.92,3.2A32.58,32.58,0,0,1,297,313.44Z"/><g class="cls-41"><path class="cls-42" d="M305.58,315.29c-.61-.82-1.39-2.16-1.39-2.16l-.36.09A15.61,15.61,0,0,0,305.58,315.29Z"/><path class="cls-42" d="M308.18,315.69c.2-.85.55-2.62.55-2.62l-.77-.22A13.07,13.07,0,0,0,308.18,315.69Z"/><path class="cls-42" d="M311.28,323.48c1.06-1.69,4.58-3.59,4.58-3.59l6.23-3.38-.26-.85-3.68,2.13.11-3.82-1.16.58s.19,3.59-.07,3.65-2.85,1.59-3.33,1.32c-5.69,3.84-4.46,11.2-6.5,16.86a16.46,16.46,0,0,1-.79,1.7l7-.12a7.68,7.68,0,0,1-3.91-7.24C309.75,327,310.23,325.17,311.28,323.48Z"/><path class="cls-42" d="M299.63,317.54a27.63,27.63,0,0,1-2.63-4.1s-.59.23-1.19.54A10.25,10.25,0,0,0,299.63,317.54Z"/></g><path class="cls-43" d="M288.42,316.57a5.42,5.42,0,0,1,.46-8.71,5.42,5.42,0,1,0,4.26,9.79A5.41,5.41,0,0,1,288.42,316.57Z"/><path class="cls-44" d="M328.6,309c0-.05,0-.1,0-.15v0s0,0,0-.06,0-.11,0-.17v-.25q0-.09,0-.18v0a5.44,5.44,0,0,0-2.6-4,3.67,3.67,0,0,0-2.84-5.19,3.67,3.67,0,0,0-4.85-4,3.66,3.66,0,0,0-.87-1.61,3.57,3.57,0,0,0-2.08-1.13l-.39,0-.16,0-.05,0h0c-.11,0-.23,0-.34,0a5.44,5.44,0,0,0-10.26.15,3.67,3.67,0,0,0-6.9,1.61,3.67,3.67,0,0,0-5.16,4.19,3.67,3.67,0,0,0-1-.14h0a3.58,3.58,0,0,0-3.62,3.56s0,.07,0,.11a3.65,3.65,0,0,0,.61,2,3.67,3.67,0,0,0-1.24,5.22,5.44,5.44,0,0,0,3.42,9.68l.54,0a3.67,3.67,0,1,0,4.42-3.17,5.4,5.4,0,0,0,.32-.92l1.28.2a3.67,3.67,0,0,0,5.46-.4,3.67,3.67,0,0,0,4,.07,3.67,3.67,0,0,0,4.92,0,3.67,3.67,0,0,0,3.32-.44,3.67,3.67,0,0,0,3.58,2.87h.07a4,4,0,1,0,6-2.62,5.44,5.44,0,0,0,4.4-4.94v-.08S328.6,309.07,328.6,309Z"/><ellipse class="cls-38" cx="230.03" cy="341.59" rx="13.36" ry="1.92"/><path class="cls-39" d="M222.52,298.84a3.67,3.67,0,0,0-7.2-1,3.67,3.67,0,1,0,4.28,4.62A3.67,3.67,0,0,0,222.52,298.84Z"/><circle class="cls-39" cx="226.12" cy="295.99" r="3.67"/><path class="cls-39" d="M246.93,312.45a3.67,3.67,0,0,0-3.37,5.13,3.67,3.67,0,0,0-4.66.26,5.2,5.2,0,0,0-6.65-.89,3.67,3.67,0,0,0-5.75.08,3.67,3.67,0,0,0-4.22.74,4.76,4.76,0,1,0,5.38,7,3.68,3.68,0,0,0,3.5,0,5.2,5.2,0,0,0,8.46-1,3.67,3.67,0,0,0,5.12-4.68,3.67,3.67,0,1,0,2.18-6.63Z"/><path class="cls-40" d="M223.65,341.17s4.6-3.75,4-8.56-7.56-13.54-9.51-14.13,1.85-2,1.85-2,2.38,4.46,3,4.36.24-4.2.24-4.2h1.45a18,18,0,0,0,.48,5.52c.77,2.78,2.52,5.2,3,5,1-.32.74-4.14.74-5.67s-3-5-3-5l1.27-.32s2,3.37,2.11,2.69l.74-3.22,1.69.47s-.48,2.43-.63,3,.29.92.63.58l2.48-2.48,1.73.08a28.27,28.27,0,0,0-3.47,4.41c-.58,1.32-.48,4,.26,4s4.41-9.06,4.41-9.06h1s-1.71,5.42-1.45,5.89,3.12-1.23,3.38-1.28.07-3.65.07-3.65l1.16-.58-.11,3.82,3.68-2.13.26.85-6.23,3.38s-3.52,1.9-4.58,3.59-1.53,3.56-1.76,7.24a7.68,7.68,0,0,0,3.91,7.24Z"/><path class="cls-40" d="M220,316.44a12.38,12.38,0,0,0-1.48.7,45.8,45.8,0,0,0,3.92,3.2A32.58,32.58,0,0,1,220,316.44Z"/><g class="cls-41"><path class="cls-42" d="M228.58,318.29c-.61-.82-1.39-2.16-1.39-2.16l-.36.09A15.61,15.61,0,0,0,228.58,318.29Z"/><path class="cls-42" d="M231.18,318.69c.2-.85.55-2.62.55-2.62l-.77-.22A13.07,13.07,0,0,0,231.18,318.69Z"/><path class="cls-42" d="M234.28,326.48c1.06-1.69,4.58-3.59,4.58-3.59l6.23-3.38-.26-.85-3.68,2.13.11-3.82-1.16.58s.19,3.59-.07,3.65-2.85,1.59-3.33,1.32C231,326.35,231.34,337.85,231,339c1,1.71,2.48,1.49,2.17,2l3.28-.08a7.68,7.68,0,0,1-3.91-7.24C232.75,330,233.23,328.17,234.28,326.48Z"/><path class="cls-42" d="M222.63,320.54a27.63,27.63,0,0,1-2.63-4.1s-.59.23-1.19.54A10.25,10.25,0,0,0,222.63,320.54Z"/></g><path class="cls-43" d="M211.42,319.57a5.42,5.42,0,0,1,.46-8.71,5.42,5.42,0,1,0,4.26,9.79A5.41,5.41,0,0,1,211.42,319.57Z"/><path class="cls-44" d="M251.6,312c0-.05,0-.1,0-.15v0s0,0,0-.06,0-.11,0-.17v-.25q0-.09,0-.18v0a5.44,5.44,0,0,0-2.6-4,3.67,3.67,0,0,0-2.84-5.19,3.67,3.67,0,0,0-4.85-4,3.66,3.66,0,0,0-.87-1.61,3.57,3.57,0,0,0-2.08-1.13l-.39,0-.16,0-.05,0h0c-.11,0-.23,0-.34,0a5.44,5.44,0,0,0-10.26.15,3.67,3.67,0,0,0-6.9,1.61,3.67,3.67,0,0,0-5.16,4.19,3.67,3.67,0,0,0-1-.14h0a3.58,3.58,0,0,0-3.62,3.56s0,.07,0,.11a3.65,3.65,0,0,0,.61,2,3.67,3.67,0,0,0-1.24,5.22,5.44,5.44,0,0,0,3.42,9.68l.54,0a3.67,3.67,0,1,0,4.42-3.17,5.4,5.4,0,0,0,.32-.92l1.28.2a3.67,3.67,0,0,0,5.46-.4,3.67,3.67,0,0,0,4,.07,3.67,3.67,0,0,0,4.92,0,3.67,3.67,0,0,0,3.32-.44,3.67,3.67,0,0,0,3.58,2.87h.07a4,4,0,1,0,6-2.62,5.44,5.44,0,0,0,4.4-4.94v-.08S251.6,312.07,251.6,312Z"/><ellipse class="cls-45" cx="262.78" cy="348.51" rx="3.02" ry="21.06" transform="translate(-86.49 610.27) rotate(-89.83)"/><path class="cls-44" d="M236.76,291.47a5.35,5.35,0,0,0-5.12,5.58,5.28,5.28,0,0,0,.09.65c-.12,0-.23,0-.35,0a5.34,5.34,0,0,0-5,6.69,5.34,5.34,0,1,0,8.69,2.67,4.95,4.95,0,0,0,1.75-4.89c.12,0,.23,0,.35,0a5.35,5.35,0,1,0-.46-10.7Z"/><path class="cls-44" d="M275.75,278.52a9.71,9.71,0,0,0-4.54,1.35,9.75,9.75,0,1,0-2.75,14.37,9.76,9.76,0,1,0,7.29-15.72Z"/><path class="cls-39" d="M280.45,313.46a6.2,6.2,0,0,0-4.63,2.39,6.11,6.11,0,0,0-4.35,1,5.3,5.3,0,0,0-4.22.24A6.21,6.21,0,0,0,256.37,315a6.11,6.11,0,0,0-4.35,1,5.34,5.34,0,0,0-5,.71,6.67,6.67,0,1,0-6,10.72,5.31,5.31,0,0,0,8.44,1.3,6,6,0,0,0,7.46-1.56l.33-.09a6.65,6.65,0,0,0,9-1,5.14,5.14,0,0,0,5,.95,6.21,6.21,0,0,0,8.61-1.16,6.21,6.21,0,1,0,.57-12.36Z"/><path class="cls-46" d="M286.06,318.83s-5.54.81-8.38,3-7.19,4.88-7.87,4.76,5.29-5.41,6-5.74,1.39-3-.52-2.1-7,6-7.27,6.41-.59-1.12,0-2.51a37.67,37.67,0,0,0,1.29-5.49s-2.91-1.06-3.07,0-.9,9.19-2.62,9.11-1.48-9.52-2-10.27-3.44-.29-2.81.91,1.44,9.25.88,10.39-6.64-6.52-7.76-7.27-6.44-.31-5,0,7.74,6.57,8.19,7.28-8.93-3.51-8.93-3.51l.16,2.17s8.94,3.06,10.14,4.61,1.79,2.27,2.39,6.06-.45,8.06-8,11.7l21.91.12s-4.47-4.33-5.06-9.94,2.19-8.37,2.19-8.37,8.4-6.78,10.79-8,8-1.55,8-1.55l-2.46-1.88"/><path class="cls-47" d="M267.75,338.6c-.58-5.61,2.19-8.37,2.19-8.37s8.4-6.78,10.79-8,8-1.55,8-1.55l-2.46-1.88h-.22s-5.54.81-8.38,3a40.89,40.89,0,0,1-7.9,4.74c-4.87,4.34-5.21,11.4-3.7,15.56s-2.94,6.32-2.94,6.32l9.68,0S268.34,344.21,267.75,338.6Z"/><g class="cls-41"><path class="cls-42" d="M254.87,327.51c-1.19-.14-6.3-2.58-6.3-2.58l.07,1C250.51,326,252.94,328.18,254.87,327.51Z"/><g class="cls-41"><path class="cls-42" d="M250.67,318.73a3,3,0,0,0-2.51,0c1.71,2.22,8.53,7.86,11.17,8.74C258.3,326.37,251.57,319.34,250.67,318.73Z"/><path class="cls-42" d="M261.65,316a1.16,1.16,0,0,0-.9-.36,71.7,71.7,0,0,0,2,9.28C262.41,322.18,262,316.55,261.65,316Z"/><path class="cls-42" d="M276.32,318.72c-.19-.16-.51-.18-1,.08-1.89.92-7,6-7.35,6.48C268.12,325.52,273.66,320.72,276.32,318.72Z"/></g><path class="cls-42" d="M246,325.27l.06.74s8.38,2.82,10.14,4.31C254.5,328.14,251.22,327.55,246,325.27Z"/></g><path class="cls-43" d="M250.48,281.16a6.76,6.76,0,0,1,4.32,1.32A6.1,6.1,0,0,0,244,288,6.79,6.79,0,0,1,250.48,281.16Z"/><path class="cls-43" d="M234.92,304a5.36,5.36,0,0,1,6.7-5.41,5.35,5.35,0,1,0-4.38,9.6A5.35,5.35,0,0,1,234.92,304Z"/><path class="cls-44" d="M302.84,310.06a7.94,7.94,0,0,0-6.52-7.47,5.33,5.33,0,0,0-3.75-8.2,5.29,5.29,0,0,0-4.38-6,7.94,7.94,0,0,0-14.25-5.82,5.29,5.29,0,0,0-7.8-.65,6.85,6.85,0,0,0-12.56-.58A6.1,6.1,0,0,0,243.38,285c-.2,0-.4,0-.61,0a7.93,7.93,0,0,0-5.87,12.88,5.28,5.28,0,0,0-3.5,7.16,5.29,5.29,0,0,0-1.58-.2,5.35,5.35,0,0,0-4.11,8.48,7.93,7.93,0,0,0,9.45,12,5.34,5.34,0,1,0,10.06-3.52,5.33,5.33,0,0,0,4.39-3.14,5.3,5.3,0,0,0,7.49-.63,5.32,5.32,0,0,0,7.61-.54,5.35,5.35,0,0,0,5.08,3.09,5.3,5.3,0,0,0,1.42-.28,5.34,5.34,0,0,0,9.82,2.63,5.26,5.26,0,0,0,6.7-1.79,5.32,5.32,0,0,0,8.06-3.35A7.94,7.94,0,0,0,302.84,310.06Z"/><path class="cls-43" d="M275.8,284.34a4.43,4.43,0,0,1,1.92,2.27,4,4,0,0,0-7.93-.79A4.45,4.45,0,0,1,275.8,284.34Z"/><path class="cls-43" d="M292.87,293.42a5.35,5.35,0,0,0-9.67-2.93,5.35,5.35,0,0,1,7.26,7.63A5.35,5.35,0,0,0,292.87,293.42Z"/><path class="cls-43" d="M259.11,297.78a5.76,5.76,0,0,1,9.14,1.46,5.75,5.75,0,1,0-10.81,3.4A5.74,5.74,0,0,1,259.11,297.78Z"/><path class="cls-48" d="M267.47,291.46a6.4,6.4,0,0,0-12,.7,4.51,4.51,0,0,0-6.59,6,6.93,6.93,0,0,0-3.42,9"/><path class="cls-48" d="M288,315a4.25,4.25,0,1,0,2.47-7.88,2.79,2.79,0,1,0-5.22,1.92"/><path class="cls-48" d="M274.69,305.46a5,5,0,0,1-5,5"/><path class="cls-48" d="M237.57,319.53a5,5,0,0,1-4.72-5.19"/><path class="cls-49" d="M250.12,327.63a2.39,2.39,0,0,0-1.42.74c-.59.66-.74.71-.7,1.13s-.84.06-.31,1.43a1,1,0,0,0-.22,1.52s-.4.55.3,1.38c0,0-.26.49.74,1.28,0,0,1.29,2.08,3.59.15,0,0,1.16-.52,1-1.43a1.09,1.09,0,0,0,.46-1.61s.85-.75-.36-1.28a1,1,0,0,0-.87-1.42s.37-1.17-.75-1.12A1.3,1.3,0,0,0,250.12,327.63Z"/><path class="cls-50" d="M253.84,331.64c-.06-.3-.31-.64-.58-.64h0v-.07a1.28,1.28,0,0,0-.34-1.18.89.89,0,0,0-.38-.19v0a1.07,1.07,0,0,0-.59-1.17.76.76,0,0,0-.23,0h0a1.86,1.86,0,0,0-1.6-.68c-.5,0-1.21.23-1.42.74a.94.94,0,0,0-.24.1,1,1,0,0,0-.45,1,.68.68,0,0,0-.27.12.86.86,0,0,0-.09,1.24,0,0,0,0,0,0,0h0a.85.85,0,0,0-.47.56,1,1,0,0,0,.15.84l.1.12a.94.94,0,0,0,.15,1.27l.13.11a1.2,1.2,0,0,0,.69,1.27,1.88,1.88,0,0,0,1.61,1,2.85,2.85,0,0,0,1.28-.24,2.06,2.06,0,0,0,.95-.65l.23-.12a1.35,1.35,0,0,0,.71-1.31l.15-.11a1.12,1.12,0,0,0,.29-1.47A.61.61,0,0,0,253.84,331.64Zm-3.62-3.92a1.76,1.76,0,0,1,1.39.6c-.15,0-.3,0-.45.07a5,5,0,0,1-1,.06,5.56,5.56,0,0,0-1.35-.09A1.75,1.75,0,0,1,250.22,327.72Zm-1.59.76a3.93,3.93,0,0,1,1.52.05,5,5,0,0,0,.75,0c.24,0,.77-.1,1-.11a1.15,1.15,0,0,1,1.08,1.12h0a8.93,8.93,0,0,0-1.3.12,8.29,8.29,0,0,1-2.23,0c-.33,0-.72-.14-1.06-.19a1.21,1.21,0,0,0-.31,0A.93.93,0,0,1,248.64,328.48Zm-1,1.44a.72.72,0,0,1,.86-.32,8.75,8.75,0,0,0,1.91.23,7.37,7.37,0,0,0,.9-.07,8.81,8.81,0,0,1,1-.15c.32,0,1,.11,1.2.4s.54.56.54.84h0a13.32,13.32,0,0,1-3.18.42,11.76,11.76,0,0,1-1.62-.12c-.23,0-.56-.09-.79-.14s-.44-.13-.64-.16A.9.9,0,0,1,247.59,329.92Zm-.35,1.65a1.16,1.16,0,0,1,.45-.64,2.67,2.67,0,0,0,.59.19c.24.06.48.11.72.15a8.9,8.9,0,0,0,1.4.12,8.29,8.29,0,0,0,2.81-.44.9.9,0,0,1,.54.76c0,.41-.44.61-.77.73a6.64,6.64,0,0,1-1.83.35v-.05a1.13,1.13,0,0,0-.26-.8.66.66,0,0,0-.61-.21c-.51,0-.74.63-.78,1.09h0a0,0,0,0,0,0-.05l-1-.08a1.6,1.6,0,0,1-.87-.27A.89.89,0,0,1,247.25,331.56Zm3.82,1.26a1,1,0,0,1-.81,1c-.5,0-.67-.52-.67-.93a1.43,1.43,0,0,1,.18-.73.94.94,0,0,1,.47-.38h0c.57,0,.83.47.81,1A0,0,0,0,0,251.07,332.83Zm.11,3a2.76,2.76,0,0,1-1.13.2,1.92,1.92,0,0,1-1.55-.9h0a4.86,4.86,0,0,0,2,.3,5,5,0,0,0,1.54-.15A2.34,2.34,0,0,1,251.19,335.81Zm1.09-.72a4.14,4.14,0,0,1-1.73.23,5.65,5.65,0,0,1-1.77-.2,1.29,1.29,0,0,1-1-1.3,3.51,3.51,0,0,0,1.56.44,9.34,9.34,0,0,0,2.28,0,3.81,3.81,0,0,0,1.5-.43A1.32,1.32,0,0,1,252.28,335.1Zm.63-1.26a5.62,5.62,0,0,1-2.25.4,7.47,7.47,0,0,1-2.31-.24,1.46,1.46,0,0,1-.88-.6.89.89,0,0,1,0-.95,1.36,1.36,0,0,0,.69.28,9.35,9.35,0,0,0,1.23.1.27.27,0,0,0,.11,0s0,.05,0,.08c0,.48.24,1.05.81,1a1.07,1.07,0,0,0,.84-1.09,4.36,4.36,0,0,0,1.14-.11,3.48,3.48,0,0,0,1.16-.41l.12-.09C254,332.84,253.48,333.56,252.91,333.84Z"/><path class="cls-50" d="M249.84,332.82a.75.75,0,1,1,1.48,0c0,.56-.33,1-.74,1S249.84,333.38,249.84,332.82Z"/><path class="cls-42" d="M342.95,296.24a1.53,1.53,0,0,0,.5.26,1.55,1.55,0,0,0,.75,0l-.08.06a3.57,3.57,0,0,1-.35.17.78.78,0,0,0,.23.16.34.34,0,0,0,.28,0,.54.54,0,0,0,.16.16.15.15,0,0,0,.2,0l.16.13a.23.23,0,0,0,.24,0l.22.1c.18.07.4-.1.4-.1a.48.48,0,0,0,.28.06.73.73,0,0,0,.35-.16,1.12,1.12,0,0,0,.44.07.45.45,0,0,0,.24-.13s.18.08.48.17a1.49,1.49,0,0,0,.71,0l.15,0a4.4,4.4,0,0,1,.88.61c.26.26.82.73.82.73a4.73,4.73,0,0,1,.16-.64,2.24,2.24,0,0,0,.58-.31l-1.15-.39a6,6,0,0,1-1-.39c0-.15-.22-.26-.28-.4s.31-.1.25-.32a.2.2,0,0,0,.17,0,.16.16,0,0,0,0-.24.25.25,0,0,0,.24,0,.14.14,0,0,0,0-.21c.22,0,.33,0,.27-.26.1,0,.17,0,.22-.08a.22.22,0,0,0,0-.18c.08,0,.18,0,.22-.14a.34.34,0,0,0,0-.19s0-.07,0-.1.05,0,.07,0a.32.32,0,0,0,.15-.1c.09-.12,0-.17,0-.28s.2-.1.22-.2-.07-.1-.13-.16a.44.44,0,0,0,.2-.65c.19-.11.12-.25,0-.38.16-.09.34-.42,0-.44a.38.38,0,0,0,0-.53s-.2.3-.27.21.16-.41.18-.49.08-.42-.1-.35-.16.25-.35.22a1.16,1.16,0,0,0,.06-.49c0-.08-.05-.36-.16-.3s-.08.15-.11.2a2.73,2.73,0,0,1-.18.26c0,.06-.23.38-.33.32,0-.29.58-.76.26-1a5.82,5.82,0,0,1-.7,1.23l-.44.55c-.11.13-.26.19-.37.32a.94.94,0,0,0-.21.54c0,.24-.07.47-.12.7s-.22.82-.62.89a1.5,1.5,0,0,1-.5,0,1.59,1.59,0,0,0-.72,0,.56.56,0,0,0-.37.4l-.38.13.28.15.06.1c0,.05.26.3.26.3a4.23,4.23,0,0,1-.89.33A5,5,0,0,1,342.95,296.24Zm2.58-1.05a.08.08,0,1,1,0-.1A.08.08,0,0,1,345.53,295.19Z"/><path class="cls-42" d="M331.13,291.52a.92.92,0,0,0,.4.39,3.6,3.6,0,0,0,.58.85,3.5,3.5,0,0,0,1.23.69l.33.11a4.43,4.43,0,0,1,.63.39h0s.27.18.4.28l1.32.92s0-.42,0-.57l.67-.48a11.09,11.09,0,0,1-2.09-.6c-.07-.27.34,0,.31-.29a.21.21,0,0,0,.17.07.17.17,0,0,0,.09-.24.26.26,0,0,0,.25,0,.15.15,0,0,0,.05-.21c.22.08.35,0,.32-.22.11,0,.18.06.24,0a.24.24,0,0,0,0-.18c.09,0,.19,0,.26-.11a.36.36,0,0,0,0-.19s0-.08,0-.11.06,0,.08,0a.34.34,0,0,0,.18-.08c.12-.11,0-.17,0-.29s.23-.07.26-.17-.06-.12-.11-.19a.46.46,0,0,0,.31-.64c.22-.08.17-.24.06-.39.18-.07.43-.37.12-.45a.4.4,0,0,0,.05-.56c-.05,0-.26.28-.32.17s.24-.4.27-.47.16-.42,0-.38-.21.24-.4.17a1.22,1.22,0,0,0,.15-.5c0-.08,0-.38-.12-.33s-.11.14-.15.18a2.87,2.87,0,0,1-.23.24c-.06.06-.3.35-.39.28.09-.29.73-.69.45-1a6.12,6.12,0,0,1-.93,1.15l-.55.5c-.13.12-.3.15-.44.26a1,1,0,0,0-.31.52c-.07.24-.16.47-.25.71s-.37.81-.8.82a1.57,1.57,0,0,1-.51-.13,1.67,1.67,0,0,0-.75-.15.59.59,0,0,0-.45.35Zm.77.15a.08.08,0,1,1,0-.11A.08.08,0,0,1,331.9,291.67Z"/><path class="cls-42" d="M334.7,303.8a.7.7,0,0,0,.36.23,2.75,2.75,0,0,0,.56.54,2.67,2.67,0,0,0,1,.33l.27,0a3.38,3.38,0,0,1,.53.19h0s.23.09.34.15l1.13.49s-.07-.31-.08-.43l.43-.46a8.45,8.45,0,0,1-1.65-.12c-.09-.19.25-.09.19-.27a.16.16,0,0,0,.14,0,.13.13,0,0,0,0-.19.2.2,0,0,0,.19,0,.11.11,0,0,0,0-.17c.17,0,.27,0,.21-.21.08,0,.14,0,.17-.07a.18.18,0,0,0,0-.14c.07,0,.14,0,.17-.12a.27.27,0,0,0,0-.15s0-.06,0-.08,0,0,.06,0a.26.26,0,0,0,.12-.08c.07-.1,0-.13,0-.22s.16-.09.17-.17-.06-.08-.11-.13a.35.35,0,0,0,.14-.52c.15-.1.09-.2,0-.3.13-.08.26-.34,0-.35a.3.3,0,0,0,0-.43s-.15.25-.21.18.12-.34.13-.4.05-.34-.09-.28-.12.21-.27.19a.93.93,0,0,0,0-.39c0-.06-.05-.29-.14-.23s-.06.12-.08.16a2.18,2.18,0,0,1-.14.22c0,.05-.17.31-.25.27,0-.23.44-.62.17-.84a4.67,4.67,0,0,1-.52,1l-.33.46c-.08.11-.2.16-.29.26a.75.75,0,0,0-.15.44c0,.19,0,.38-.08.57s-.15.67-.47.73a1.2,1.2,0,0,1-.4,0,1.28,1.28,0,0,0-.58,0,.45.45,0,0,0-.28.33Zm.6,0a.06.06,0,1,1,0-.08A.06.06,0,0,1,335.3,303.8Z"/><path class="cls-42" d="M207.06,324.49a.45.45,0,0,0-.28-.33,1.28,1.28,0,0,0-.58,0,1.2,1.2,0,0,1-.4,0c-.32-.07-.41-.43-.47-.73s-.06-.38-.08-.57a.75.75,0,0,0-.15-.44c-.08-.1-.2-.16-.29-.26l-.33-.46a4.67,4.67,0,0,1-.52-1c-.27.22.15.61.17.84-.08,0-.21-.21-.25-.27a2.18,2.18,0,0,1-.14-.22s0-.14-.08-.16-.13.17-.14.23a.93.93,0,0,0,0,.39c-.15,0-.16-.14-.27-.19s-.1.21-.09.28.16.36.13.4-.18-.14-.21-.18a.3.3,0,0,0,0,.43c-.24,0-.11.27,0,.35-.1.1-.16.21,0,.3a.35.35,0,0,0,.14.52s-.11,0-.11.13.1.14.17.17-.1.12,0,.22a.26.26,0,0,0,.12.08s0,0,.06,0,0,.05,0,.08a.27.27,0,0,0,0,.15c0,.08.11.08.17.12a.18.18,0,0,0,0,.14c0,.09.09.06.17.07-.06.18,0,.24.21.21a.11.11,0,0,0,0,.17.2.2,0,0,0,.19,0,.13.13,0,0,0,0,.19.16.16,0,0,0,.14,0c-.06.18.28.08.19.27a8.45,8.45,0,0,1-1.65.12l.43.46c0,.12-.08.43-.08.43l1.13-.49c.11-.06.34-.15.34-.15h0a3.38,3.38,0,0,1,.53-.19l.27,0a2.67,2.67,0,0,0,1-.33,2.75,2.75,0,0,0,.56-.54.7.7,0,0,0,.36-.23Zm-.24,0a.06.06,0,1,1,0,.08A.06.06,0,0,1,206.82,324.44Z"/><path class="cls-42" d="M347.56,308.1a.79.79,0,0,0,.47,0,3.1,3.1,0,0,0,.87.16,3,3,0,0,0,1.16-.33l.27-.14c.2-.06.46-.26.65-.34s1.56-1,1.56-1a2.92,2.92,0,0,0-.6,0c.05-.18.13-.54.13-.54s-1.13,1.23-1.25,1.16.23-.2.06-.33a.18.18,0,0,0,.15-.06.15.15,0,0,0-.09-.2.22.22,0,0,0,.16-.15.13.13,0,0,0-.1-.16c.18-.08.22-.2.06-.33.07-.06.14-.07.12-.17a.2.2,0,0,0-.1-.12c0-.08.11-.12.09-.22a.31.31,0,0,0-.09-.14s-.07,0-.08-.05,0,0,0-.06a.29.29,0,0,0,.06-.15c0-.14-.08-.13-.16-.19s.1-.18,0-.26-.11,0-.18,0a.4.4,0,0,0-.2-.58c.08-.18,0-.25-.2-.28.07-.15,0-.49-.2-.34a.34.34,0,0,0-.31-.37c0,.06,0,.33-.09.3s-.1-.39-.13-.45-.17-.35-.26-.21,0,.27-.13.35a1,1,0,0,0-.21-.39s-.23-.24-.28-.13,0,.15,0,.2a2.46,2.46,0,0,1,0,.29c0,.07,0,.4-.07.41-.13-.23,0-.86-.36-.9a5.26,5.26,0,0,1,.14,1.27c0,.21,0,.42,0,.64s-.09.28-.1.43a.85.85,0,0,0,.13.51c.1.19.2.38.28.58s.27.72,0,1a1.35,1.35,0,0,1-.39.23,1.44,1.44,0,0,0-.54.37.51.51,0,0,0-.06.49Zm.56-.38a.07.07,0,1,1-.08-.05A.07.07,0,0,1,348.12,307.72Z"/><path class="cls-42" d="M203.92,306.78a3.23,3.23,0,0,1-.66-.31s.19-.18.22-.22l0-.08.22-.1-.28-.12a.43.43,0,0,0-.26-.33,1.22,1.22,0,0,0-.55,0,1.14,1.14,0,0,1-.39,0c-.3-.07-.38-.43-.42-.71s0-.36-.05-.54a.72.72,0,0,0-.13-.42c-.08-.1-.19-.16-.26-.26l-.3-.45a4.45,4.45,0,0,1-.46-1c-.26.2.13.59.14.81-.08,0-.2-.21-.23-.26a2.09,2.09,0,0,1-.12-.21s0-.13-.07-.16-.13.16-.14.22a.89.89,0,0,0,0,.38c-.14,0-.15-.14-.25-.19s-.11.19-.09.26.14.35.11.38-.16-.14-.2-.18a.29.29,0,0,0-.06.4c-.23,0-.11.26,0,.34-.1.09-.16.19,0,.29a.34.34,0,0,0,.11.5s-.11,0-.11.12.09.14.15.17-.1.11,0,.21a.25.25,0,0,0,.11.08s0,0,.06,0,0,.05,0,.07a.26.26,0,0,0,0,.14c0,.08.1.08.16.12a.17.17,0,0,0,0,.13c0,.09.08.06.16.07-.06.17,0,.23.19.21a.11.11,0,0,0,0,.16.19.19,0,0,0,.18,0,.12.12,0,0,0,0,.18.15.15,0,0,0,.13,0c-.06.17.26.08.17.26s-.2.18-.24.29a4.62,4.62,0,0,1-.77.24l-.9.23a1.71,1.71,0,0,0,.43.27,3.62,3.62,0,0,1,.08.49s.46-.33.67-.51a3.36,3.36,0,0,1,.7-.41l.12,0a1.14,1.14,0,0,0,.54.06l.38-.1a.35.35,0,0,0,.18.11.86.86,0,0,0,.34,0,.56.56,0,0,0,.26.14.37.37,0,0,0,.22,0s.16.14.3.1l.17-.07a.18.18,0,0,0,.18,0l.13-.09a.11.11,0,0,0,.15,0,.41.41,0,0,0,.13-.11.26.26,0,0,0,.21,0,.59.59,0,0,0,.18-.11,2.73,2.73,0,0,1-.25-.15l-.06,0a1.18,1.18,0,0,0,.58,0,1.17,1.17,0,0,0,.39-.17A3.78,3.78,0,0,1,203.92,306.78Zm-.68-.87a.06.06,0,1,1,0,.08A.06.06,0,0,1,203.24,305.91Z"/><text class="cls-51" transform="translate(187.23 379.1)">P<tspan class="cls-52" x="6.6" y="0">o</tspan><tspan class="cls-53" x="13.14" y="0">t</tspan><tspan class="cls-52" x="17.11" y="0">ential </tspan><tspan class="cls-54" x="48.52" y="0">f</tspan><tspan class="cls-55" x="51.94" y="0">or la</tspan><tspan class="cls-54" x="74.41" y="0">r</tspan><tspan class="cls-56" x="78.49" y="0">g</tspan><tspan class="cls-52" x="84.41" y="0">e cus</tspan><tspan class="cls-54" x="109.99" y="0">t</tspan><tspan class="cls-55" x="113.96" y="0">omer im</tspan><tspan class="cls-56" x="156.11" y="0">p</tspan><tspan class="cls-55" x="162.63" y="0">act</tspan></text><ellipse class="cls-45" cx="577.11" cy="344.46" rx="0.96" ry="6.66" transform="translate(230.97 920.56) rotate(-89.83)"/><path class="cls-57" d="M580.23,344.35h-6.59a.5.5,0,0,1-.5-.5l-4.42-13.39a.5.5,0,0,1,.5-.5h15.44a.5.5,0,0,1,.5.5l-4.42,13.39A.5.5,0,0,1,580.23,344.35Z"/><rect class="cls-57" x="568.72" y="329.96" width="16.43" height="4.68" rx="0.44" ry="0.44"/><line class="cls-58" x1="576.99" y1="303.82" x2="576.99" y2="328.08"/><path class="cls-39" d="M578.2,322.64a7.05,7.05,0,0,1-1.1-.09,6.24,6.24,0,0,1,1.44-4.13,5.16,5.16,0,0,1,3.93-1.47h.33a7.09,7.09,0,0,1-1.57,4.51A4.06,4.06,0,0,1,578.2,322.64Z"/><path class="cls-59" d="M582.47,316.83v.23h.21a6.87,6.87,0,0,1-1.54,4.32,4,4,0,0,1-3,1.15,6.8,6.8,0,0,1-1-.08,6.06,6.06,0,0,1,1.41-4,5.06,5.06,0,0,1,3.85-1.44v-.23m0,0c-5.84,0-5.49,5.82-5.49,5.82a7.18,7.18,0,0,0,1.21.11c4.88,0,4.72-5.92,4.72-5.92Z"/><line class="cls-60" x1="577.16" y1="322.55" x2="579.79" y2="319.92"/><path class="cls-39" d="M575.73,319.1a4.06,4.06,0,0,1-3-1.18,7.08,7.08,0,0,1-1.57-4.51h.33a5.16,5.16,0,0,1,3.93,1.47,6.23,6.23,0,0,1,1.44,4.13,7.05,7.05,0,0,1-1.1.09Z"/><path class="cls-59" d="M571.46,313.52a5.06,5.06,0,0,1,3.85,1.44,6.06,6.06,0,0,1,1.41,4,6.8,6.8,0,0,1-1,.08,4,4,0,0,1-3-1.15,6.87,6.87,0,0,1-1.54-4.32h.21m0-.23H571s-.16,5.92,4.72,5.92a7.18,7.18,0,0,0,1.21-.11s.35-5.82-5.49-5.82Z"/><line class="cls-61" x1="576.94" y1="319.1" x2="574.31" y2="316.47"/><path class="cls-39" d="M576.2,324.53a2.92,2.92,0,0,1-2.18-.85,5.09,5.09,0,0,1-1.13-3.23h.21a3.73,3.73,0,0,1,2.84,1.06,4.49,4.49,0,0,1,1,3,5,5,0,0,1-.77.06Z"/><path class="cls-59" d="M573.09,320.56a3.62,3.62,0,0,1,2.75,1,4.32,4.32,0,0,1,1,2.78,4.83,4.83,0,0,1-.65,0,2.81,2.81,0,0,1-2.1-.82,4.88,4.88,0,0,1-1.1-3h.09m0-.23h-.33s-.12,4.3,3.43,4.3a5.22,5.22,0,0,0,.88-.08s.26-4.23-4-4.23Z"/><line class="cls-61" x1="577.08" y1="324.57" x2="575.17" y2="322.65"/><path class="cls-39" d="M577.73,316.61a4.15,4.15,0,0,1-.62,0,3.69,3.69,0,0,1,.86-2.42,3.07,3.07,0,0,1,2.34-.87h.15a4.18,4.18,0,0,1-.93,2.64A2.4,2.4,0,0,1,577.73,316.61Z"/><path class="cls-59" d="M580.31,313.15v.23h0a4,4,0,0,1-.9,2.44,2.29,2.29,0,0,1-1.71.66,3.92,3.92,0,0,1-.5,0,3.5,3.5,0,0,1,.82-2.24,3,3,0,0,1,2.25-.84v-.23m0,0c-3.52,0-3.3,3.51-3.3,3.51a4.33,4.33,0,0,0,.73.07c2.94,0,2.84-3.56,2.84-3.56Z"/><line class="cls-61" x1="577" y1="316.66" x2="578.59" y2="315.07"/><path class="cls-62" d="M576.72,302.41c-.59-11.22,9.42-6.12,0,0,9.42-6.12,10,5.1,0,0,10,5.1.59,11.22,0,0,.59,11.22-9.42,6.12,0,0-9.42,6.12-10-5.1,0,0C566.72,297.32,576.14,291.2,576.72,302.41Z"/><path class="cls-42" d="M569.17,330a13.26,13.26,0,0,0,5-1.88,5.51,5.51,0,0,1,5.77.29s2.67,1.66,4.33,1.59Z"/><polygon class="cls-63" points="583 336.97 571.76 339.66 570.11 334.65 583.77 334.65 583 336.97"/><path class="cls-42" d="M557.69,299.21a1.41,1.41,0,0,0,.28.77,1.08,1.08,0,0,0,.33.28,1.06,1.06,0,0,0,.41.13,1.24,1.24,0,0,0,.42,0h0l.05,0,.08,0,.17-.06c.22-.07.45-.19.67-.28s.43-.21.65-.32l.63-.34.19-.11c-.39.44-.49.73-.45.75.21.13,1.61-.66,1.91-1.31l.59-1.24h0a.44.44,0,0,0,.45-.73c.54-.34,1.73-.77,2-.6a.28.28,0,0,1,.14.18.42.42,0,0,1-.12.29.1.1,0,0,1-.08,0,.36.36,0,0,1-.23-.09c-.09-.07-.09-.1,0-.19a.07.07,0,0,1,.06,0,.22.22,0,0,1,.15.07l.07-.06a.31.31,0,0,0-.22-.11.17.17,0,0,0-.13.07c-.1.14-.06.22,0,.31a.44.44,0,0,0,.3.12l.06,0a.2.2,0,0,0,.08-.06.49.49,0,0,0,.14-.37.36.36,0,0,0-.19-.25c-.33-.21-1.6.28-2.12.62h0a3.62,3.62,0,0,1,1.54-1.57.29.29,0,0,1,.23,0,.43.43,0,0,1,.09.3.1.1,0,0,1,0,.08.34.34,0,0,1-.23.07c-.11,0-.14,0-.14-.12a.07.07,0,0,1,0-.06.21.21,0,0,1,.16,0l0-.09a.3.3,0,0,0-.24.06.16.16,0,0,0-.06.14c0,.17.1.21.24.21a.44.44,0,0,0,.3-.1.21.21,0,0,0,.06-.15.51.51,0,0,0-.12-.37.36.36,0,0,0-.3-.07,3.57,3.57,0,0,0-1.62,1.63.43.43,0,0,0-.28,0l-.06,0,0,.09.06-.15c.2-.5.38-1,.53-1.53a9.9,9.9,0,0,0,.34-1.59l0-.21V293a4.05,4.05,0,0,0,0-.42,2.37,2.37,0,0,0-.07-.43,1.75,1.75,0,0,0-.07-.21c0-.07-.07-.14-.1-.21h0l-.07-.08a.45.45,0,0,0-.08-.07l-.09-.07-.1-.06a.3.3,0,0,0-.12,0h-.12l-.11,0-.1,0-.09,0-.08.06-.14.13a1.35,1.35,0,0,0-.19.3l.14-.1.15-.08.15-.06.07,0h.19l0,0,0,0,0,0,0,0,0,0,0,0s0,.09.07.14a1.33,1.33,0,0,1,.05.17,2.05,2.05,0,0,1,.06.36,3.49,3.49,0,0,1,0,.38v.19l0,.19a9.31,9.31,0,0,1-.33,1.53c-.13.45-.29.89-.45,1.32,0-.2.07-.39.1-.59s.06-.45.08-.67a5.86,5.86,0,0,0,0-.68,6.3,6.3,0,0,0-.15-1.38,2.59,2.59,0,0,0-.27-.67,1.56,1.56,0,0,0-.52-.55.94.94,0,0,0-.39-.13,1,1,0,0,0-.42.06,1.4,1.4,0,0,0-.59.49,2.52,2.52,0,0,0-.32.65,3.78,3.78,0,0,0-.16.69,5,5,0,0,0,0,1.06l-.17-.07a3.87,3.87,0,0,0-.51-.16,2.07,2.07,0,0,0-.55-.07,1.08,1.08,0,0,0-.58.17.86.86,0,0,0-.34.53,1.44,1.44,0,0,0,0,.58,2.48,2.48,0,0,0,.43,1l0,.06,0,.06.09.09.09.09h0l-.21,0-.28.09-.28.14-.08,0-.06,0-.08.06-.07.06a1.49,1.49,0,0,0-.35.57,2.32,2.32,0,0,0-.12.55s0,0,0,.06a.2.2,0,0,0,0,.06l0,.1v0a1.7,1.7,0,0,0-.07.57Zm1.43-2,.21,0h.1l.1,0,.07,0,.16.11.44.28.05,0-.41,0a3.21,3.21,0,0,0-.76,0,1.92,1.92,0,0,0-.38.11,1.53,1.53,0,0,0-.35.2l-.14.12a1.07,1.07,0,0,1,.24-.38l0,0,0,0,.06,0,.05,0,.24-.12.23-.08Zm4-2.25c0,.22,0,.44,0,.66,0,.44-.06.89-.11,1.33v0c0,.06,0,.11,0,.17a4.83,4.83,0,0,0-.07.66l-.08.08s-.26.3-.26.3h0l-.33-.14-.52-.23c-.3-.14-.6-.29-.9-.44l-.43-.24-.41-.27-.2-.14-.1-.07-.09-.07-.09-.07-.09-.09-.08-.09h0l0,0,0,0a2.1,2.1,0,0,1-.36-.84,1.08,1.08,0,0,1,0-.43.48.48,0,0,1,.19-.3.72.72,0,0,1,.38-.1,1.75,1.75,0,0,1,.45.06,3.91,3.91,0,0,1,.46.14l.23.09.22.1.31.14,0-.34a4.89,4.89,0,0,1,0-1.29,3.31,3.31,0,0,1,.14-.62,2.13,2.13,0,0,1,.27-.55,1,1,0,0,1,.42-.36.52.52,0,0,1,.48,0,1.17,1.17,0,0,1,.38.42,2.17,2.17,0,0,1,.23.57,4.31,4.31,0,0,1,.1.63,5.71,5.71,0,0,1,0,.65Zm.33,2.31s-.18.16-.35.33a1.48,1.48,0,0,1,.14-.31c0-.06.08-.11.11-.17v0l0,.06a.42.42,0,0,0,.08.12Zm-5.22,2.48a1,1,0,0,1-.2-.56,1.25,1.25,0,0,1,.5-1.08,1.16,1.16,0,0,1,.27-.16,1.68,1.68,0,0,1,.3-.09,2.86,2.86,0,0,1,.67,0,6.55,6.55,0,0,1,1.36.26l.67.22.26.1.19.08-.41.42-.51.23-.66.28-.66.25c-.22.07-.43.15-.67.21L559,300a1,1,0,0,1-.29,0,.65.65,0,0,1-.48-.26Zm0,0"/><path class="cls-64" d="M560.58,296.29c-.24.74,1.84,1.51,1.84,1.51s.49-2.75-.21-2.81-.58,1.21-.58,1.21-.82-.66-1.05.09Zm0,0"/><path class="cls-64" d="M560.06,298.32c-.64.32-.21,1,.29,1a4.9,4.9,0,0,0,1.54-.71s-1.19-.58-1.83-.26Zm0,0"/><text class="cls-25" transform="translate(477.52 379.1)">Smalle<tspan class="cls-65" x="34.73" y="0">r</tspan><tspan x="38.24" y="0">, mo</tspan><tspan class="cls-54" x="60.25" y="0">r</tspan><tspan class="cls-52" x="64.33" y="0">e </tspan><tspan class="cls-54" x="72.78" y="0">f</tspan><tspan x="76.2" y="0">ocused cus</tspan><tspan class="cls-53" x="132.15" y="0">t</tspan><tspan x="136.13" y="0">omer </tspan><tspan class="cls-56" x="165.3" y="0">b</tspan><tspan x="171.83" y="0">ase</tspan></text><path class="cls-66" d="M544.78,438.5A35.81,35.81,0,0,0,539,458.13c0,15.09,9.12,27.91,21.82,32.57H582c12.7-4.67,21.83-17.49,21.83-32.58a35.81,35.81,0,0,0-5.78-19.63Z"/><path class="cls-67" d="M544.78,438.5s20.94,6.76,53.29,0"/><path class="cls-68" d="M540.37,448.21a36.45,36.45,0,0,0-1.37,9.92c0,15.09,9.12,27.91,21.82,32.57H582c12.7-4.67,21.83-17.49,21.83-32.58a36.45,36.45,0,0,0-1.37-9.92Z"/><path class="cls-69" d="M544.78,438.5A35.81,35.81,0,0,0,539,458.13c0,15.09,9.12,27.91,21.82,32.57H582c12.7-4.67,21.83-17.49,21.83-32.58a35.81,35.81,0,0,0-5.78-19.63Z"/><path class="cls-70" d="M543.37,453.5s-4,19.33,15.41,32.68C558.77,486.18,543.93,473.75,543.37,453.5Z"/><path class="cls-70" d="M540.37,448.21s13.74,2.51,62.11,0"/><g class="cls-41"><circle class="cls-71" cx="590.16" cy="474.73" r="2.28" transform="translate(-161.88 384.75) rotate(-31.99)"/><circle class="cls-71" cx="590.49" cy="479.87" r="1.52" transform="translate(-164.55 385.7) rotate(-31.99)"/><circle class="cls-71" cx="585.11" cy="478.93" r="2.54" transform="translate(-164.87 382.72) rotate(-31.99)"/></g><path class="cls-72" d="M563.88,466.78a5.59,5.59,0,0,0-3.18-1.15l-.47,0h0a10.12,10.12,0,0,0-.94-1.65,3.74,3.74,0,0,1,0,1.67h0a23.33,23.33,0,0,0-3.62.57s-.38.27-1.44-.39-1.79-.74-1.27-.2,1.11,1.07.86,1.46-1.59,1.76-.8,1.53,1.7-1.27,2.74-1l1.12.26h0l.28.61.5-.45h0c.38.07.77.13,1.18.17h0s.18.69.55.78.53-.64.59-.7h0a5.54,5.54,0,0,0,1.82-.2C563.56,467.49,564.12,467.32,563.88,466.78Z"/><path class="cls-72" d="M563.18,467.16a1.15,1.15,0,0,0,.7-.38"/><circle class="cls-50" cx="562.75" cy="466.72" r="0.2"/><path class="cls-73" d="M562.17,465.9a1.83,1.83,0,0,0-.37,2.15"/><path class="cls-72" d="M555.26,467a24.49,24.49,0,0,1,5.6-.19"/><path class="cls-74" d="M578.64,458.7c1-1.41,3.14-3.68,3.74-3.68s3.7,3.11,3.87,3.87c.12.52-.73,1.81-.73,1.81"/><path class="cls-74" d="M582.53,470c.4.6,2.38,2.42,3.23,2.42a2.4,2.4,0,0,1,1-2.42c1.26-1.15,2.86-3.67,2.9-5.16"/><path class="cls-75" d="M567.67,467.83c-1,.69,4,3.8,9.86,3.65,6.11-.16,11.19-6.77,12.58-6.77s2.18,5.32,5.32,5.32c0-3.17-1-4.44-1-6.29v-.48c0-1.84,1-3.11,1-6.29-3.14,0-3.93,5.32-5.32,5.32s-8.65-3.87-14.51-3.87-9.19,4.35-9.68,5.81l4,1.74A15.16,15.16,0,0,1,567.67,467.83Z"/><path class="cls-76" d="M568.67,460.83a11.85,11.85,0,0,0-2.86,3.39l4.07,1.7-2,1.8s-.78.31,0,.94a9.2,9.2,0,0,0,1.46,1s3.25-1,3.87-3.79C573.6,463.94,572.31,461,568.67,460.83Z"/><circle class="cls-77" cx="569.15" cy="463.12" r="0.48"/><path class="cls-78" d="M573.66,468.09s2.5-.16,3.87,1l-2.42,1-1.94-1"/><path class="cls-78" d="M574.77,465a33.75,33.75,0,0,0,12.42-.76"/><path class="cls-78" d="M567.67,467.83c-1,.69,4,3.8,9.86,3.65,6.11-.16,11.19-6.77,12.58-6.77s2.18,5.32,5.32,5.32c0-3.17-1-4.44-1-6.29v-.48c0-1.84,1-3.11,1-6.29-3.14,0-3.93,5.32-5.32,5.32s-8.65-3.87-14.51-3.87-9.19,4.35-9.68,5.81l4,1.74A15.16,15.16,0,0,1,567.67,467.83Z"/><path class="cls-78" d="M569.31,469.63a5,5,0,0,0,3.87-4.44,4.49,4.49,0,0,0-4.51-4.35"/><text class="cls-79" transform="translate(485.82 520.72)">T<tspan class="cls-55" x="5.53" y="0">a</tspan><tspan class="cls-54" x="11.71" y="0">r</tspan><tspan class="cls-56" x="15.79" y="0">ge</tspan><tspan class="cls-53" x="27.53" y="0">t</tspan><tspan class="cls-52" x="31.5" y="0">ed O</tspan><tspan class="cls-54" x="54.59" y="0">ff</tspan><tspan class="cls-52" x="61.39" y="0">e</tspan><tspan class="cls-54" x="67.38" y="0">r</tspan><tspan class="cls-55" x="71.46" y="0">s f</tspan><tspan class="cls-54" x="82.52" y="0">r</tspan><tspan class="cls-55" x="86.6" y="0">om niche pla</tspan><tspan class="cls-80" x="151.67" y="0">y</tspan><tspan class="cls-52" x="157.26" y="0">e</tspan><tspan class="cls-54" x="163.25" y="0">r</tspan><tspan class="cls-55" x="167.33" y="0">s</tspan></text><path class="cls-68" d="M291.53,617.62a1,1,0,0,0,0-1.39l-6.46-6.46.07-.37a2.3,2.3,0,0,0-.59-2l-8.28-8.28c-.63,2.26-3.71-.43-5.34,1.21l10.34,10.34a2.23,2.23,0,0,0,2,.59l.37-.06,6.46,6.46a1,1,0,0,0,1.39,0Zm0,0"/><path class="cls-42" d="M292.51,615.15l-5.94-5.93a3.66,3.66,0,0,0-1.05-2.93l-13.8-13.81-.48.56L285,606.8a3,3,0,0,1,.78,2.67l6.19,6.2a1.71,1.71,0,0,1-2.42,2.41l-6.19-6.19a3,3,0,0,1-2.67-.79l-13.77-13.76-.55.48,13.8,13.81a3.64,3.64,0,0,0,2.93,1l5.94,5.94a2.44,2.44,0,0,0,3.46-3.46Z"/><path class="cls-42" d="M269.16,595.25c.76-.75,1.44-1.5,2.08-2.21l.48-.56c1.92-2.25,3-4.05,2.61-4.46l-5.64-5.64c-.3-.3-1.35.21-2.77,1.26l-7.52-7.52A5.92,5.92,0,1,0,250,584.5l7.51,7.52c-1,1.42-1.55,2.47-1.25,2.77l5.64,5.64c.41.42,2.21-.69,4.46-2.61l.55-.48Q268,596.39,269.16,595.25Z"/><path class="cls-81" d="M292.83,623s-2.07,4-2.07,5.12a2.08,2.08,0,1,0,4.15,0c0-1.14-2.08-5.12-2.08-5.12Zm0,0"/><path class="cls-82" d="M250.6,577.57a2.34,2.34,0,0,1,.31-.31,4.82,4.82,0,0,1,1-.65,5.17,5.17,0,0,1,.72-.31,4.84,4.84,0,0,1,.86-.2,4.35,4.35,0,0,1,.95-.05,7.32,7.32,0,0,1,1,.13,8.89,8.89,0,0,1,.92.32,6.35,6.35,0,0,1,.82.44c.25.17.49.34.7.51l.56.53a7,7,0,0,1,.73.88c.16.22.25.35.25.35L259,579c-.22-.16-.5-.43-.88-.68l-.6-.42-.7-.4c-.24-.15-.52-.22-.78-.36s-.55-.17-.83-.27a6.74,6.74,0,0,0-.86-.14,5,5,0,0,0-.84,0A5.92,5.92,0,0,0,252,577a6.43,6.43,0,0,0-1,.41C250.73,577.49,250.6,577.57,250.6,577.57Z"/><path class="cls-82" d="M256.94,594.44s.84-.46,2-1.24c.3-.19.61-.4.94-.64s.66-.5,1-.74a24.3,24.3,0,0,0,2.11-1.75c.35-.31.7-.62,1-.95a13.23,13.23,0,0,0,.92-1c.29-.32.57-.64.82-1a9.84,9.84,0,0,0,.69-.9l.56-.78.4-.63.36-.55-.24.61a10.32,10.32,0,0,1-.76,1.55,10.18,10.18,0,0,1-.62,1,8.33,8.33,0,0,1-.77,1,13.76,13.76,0,0,1-.92,1c-.32.35-.66.68-1,1a24.94,24.94,0,0,1-2.22,1.73,20.6,20.6,0,0,1-2.11,1.23A13.4,13.4,0,0,1,256.94,594.44Z"/><text class="cls-25" transform="translate(148.37 658.09)">Not a sou<tspan class="cls-54" x="47.64" y="0">r</tspan><tspan class="cls-83" x="51.72" y="0">c</tspan><tspan class="cls-52" x="56.98" y="0">e of in</tspan><tspan class="cls-83" x="87.55" y="0">c</tspan><tspan x="92.81" y="0">ome until p</tspan><tspan class="cls-54" x="150.27" y="0">r</tspan><tspan x="154.35" y="0">ofi</tspan><tspan class="cls-84" x="167.42" y="0">t</tspan><tspan class="cls-85" x="171.3" y="0">ability is </tspan><tspan class="cls-54" x="215.95" y="0">r</tspan><tspan class="cls-86" x="220.03" y="0">e</tspan><tspan class="cls-85" x="225.85" y="0">ached</tspan></text><polyline class="cls-87" points="584.83 614.48 563.7 615.56 562.71 611.34 577.55 606.91"/><path class="cls-87" d="M600.79,593.2s2.5-7.9-3.94-12.15a10.25,10.25,0,0,0-13.59,1.32l26.41,17.43-18,21.73L566.5,595.42l14.38-17.32s8.6-8.65,19-.21c9.63,7.8,4.94,17.81,4.94,17.81"/><path class="cls-68" d="M573.77,600.46s20.79-2.6,21.39-9.22L608.4,600l-16.87,20.34-19-19.72S572.63,600.82,573.77,600.46Z"/><polygon class="cls-87" points="555.94 608.13 559.8 620.65 563.7 615.56 562.71 611.34 555.94 608.13"/><polygon class="cls-68" points="557.05 610.18 559.85 618.87 562.75 615 582.85 613.79 577.09 607.75 562.07 611.97 557.05 610.18"/><polygon class="cls-88" points="555.94 608.13 559.8 620.65 563.7 615.56 562.71 611.34 555.94 608.13"/><line class="cls-87" x1="569.56" y1="598.6" x2="583.13" y2="582.26"/><path class="cls-87" d="M569.25,590.79l-1.69-1.4a2.55,2.55,0,0,1,.12-3.19l3.12-3.76s1.6-1.33,2.88-.27l1.61,1.33"/><polygon class="cls-87" points="605.54 597.14 588.22 618 591.62 621.53 609.66 599.8 605.54 597.14"/><path class="cls-89" d="M533.81,632.33a40.19,40.19,0,0,0-.82,4.61"/><path class="cls-89" d="M540.86,618.92a27.86,27.86,0,0,0-6.51,11.41"/><path class="cls-89" d="M554,611.71a24.42,24.42,0,0,0-12,6.17"/><path class="cls-89" d="M539.85,625.54a26.63,26.63,0,0,0-3.24,11.26"/><path class="cls-89" d="M554.82,614.18a24.5,24.5,0,0,0-14,9.79"/><path class="cls-89" d="M547.19,621.93a20.26,20.26,0,0,0-6.33,12.28"/><path class="cls-89" d="M555.67,617.18a20.53,20.53,0,0,0-7.26,3.71"/><path class="cls-89" d="M547.47,626.33a10.28,10.28,0,0,0-1.79,4.31"/><path class="cls-89" d="M552.5,621.91a17.32,17.32,0,0,0-4,3.14"/><path class="cls-89" d="M556.85,620A20,20,0,0,0,554,621.1"/><text class="cls-25" transform="translate(490.6 658.09)">Designed <tspan class="cls-54" x="49.25" y="0">f</tspan><tspan x="52.67" y="0">or </tspan><tspan class="cls-90" x="65.87" y="0">r</tspan><tspan class="cls-91" x="69.95" y="0">e</tspan><tspan class="cls-92" x="75.99" y="0">v</tspan><tspan class="cls-52" x="81.59" y="0">enue f</tspan><tspan class="cls-54" x="112.73" y="0">r</tspan><tspan x="116.81" y="0">om day 1</tspan></text><ellipse class="cls-45" cx="273.83" cy="792.71" rx="25.75" ry="2.07"/><rect class="cls-46" x="221.98" y="770.7" width="105.08" height="2.28" rx="1.14" ry="1.14" transform="translate(264.33 -47.3) rotate(18.87)"/><path class="cls-46" d="M261.61,792.65a1.14,1.14,0,0,1-1-1.6l6.55-14.92,0,0c.11-.21,2.63-5.21,6.49-5.29,2.37,0,4.56,1.72,6.5,5.25,5.81,10.56,7.6,14.86,7.67,15a1.14,1.14,0,0,1-2.11.87s-1.83-4.39-7.56-14.81c-1-1.88-2.64-4.09-4.45-4.07-2,0-3.95,3-4.48,4L262.66,792A1.14,1.14,0,0,1,261.61,792.65Z"/><circle class="cls-62" cx="274.18" cy="771.95" r="2.92"/><path class="cls-39" d="M237.22,755.23a2.4,2.4,0,0,0,1.36,3.33l9.09,3.49a.62.62,0,0,1,.34.86l-4.22,9.39a.73.73,0,0,0,.29.94l5,2.15a.43.43,0,0,0,.6-.57l-2.8-2.21a.62.62,0,0,1,0-.64l6-9.5a2.39,2.39,0,0,0-.86-3.46l-6.59-3.26,1.52-6.59a.12.12,0,0,1,.23,0l1.38,4.18a1,1,0,0,0,.91.67l6.65,1.76a.89.89,0,0,0,.87-1h0a.89.89,0,0,0-.66-.72L252,750.85a.51.51,0,0,1-.43-.43l-1.19-5.77a3.81,3.81,0,0,0-1.91-2.65c-.87-.48-1.72-.92-1.72-.92a2.87,2.87,0,0,0-3.57,1.28Z"/><ellipse class="cls-39" cx="250.24" cy="735.63" rx="4.78" ry="3.08" transform="translate(-525.56 779.4) rotate(-74.44)"/><path class="cls-39" d="M307.58,779.95a1.59,1.59,0,0,1-2.09,1.15l-6.14-2a.41.41,0,0,0-.53.3l-1.73,6.6a.49.49,0,0,1-.54.36l-3.49-1a.28.28,0,0,1-.07-.54l2.36,0a.41.41,0,0,0,.25-.34l.87-7.39a1.58,1.58,0,0,1,1.88-1.43l4.76,1.06,2-4a.08.08,0,0,0-.12-.09l-2.45,1.58a.64.64,0,0,1-.75,0l-4.16-1.86a.59.59,0,0,1,0-.89h0a.59.59,0,0,1,.64-.1l3.59.18a.34.34,0,0,0,.4,0l3-2.48a2.52,2.52,0,0,1,2.09-.57l1.27.24a1.9,1.9,0,0,1,1.31,2.14Z"/><ellipse class="cls-39" cx="309.03" cy="764.42" rx="3.17" ry="2.04" transform="translate(-515.26 744.77) rotate(-66.62)"/><path class="cls-46" d="M256.39,754.18h0a.93.93,0,0,1,.93.93v11.43a0,0,0,0,1,0,0h-1.93a0,0,0,0,1,0,0V755.18a1,1,0,0,1,1-1Z" transform="translate(259.64 -42.05) rotate(18.87)"/><path class="cls-46" d="M295.12,767.41h0a.93.93,0,0,1,.93.93v11.43a0,0,0,0,1,0,0h-1.93a0,0,0,0,1,0,0V768.41A1,1,0,0,1,295.12,767.41Z" transform="translate(266 -53.86) rotate(18.87)"/><path class="cls-39" d="M322.42,784.69a1.92,1.92,0,0,1-2.52,1.38l-7.4-2.39a.49.49,0,0,0-.64.36L309.77,792a.59.59,0,0,1-.65.44l-4.2-1.19a.34.34,0,0,1-.09-.65l2.85,0a.5.5,0,0,0,.3-.41l1.05-8.9a1.91,1.91,0,0,1,2.27-1.72l5.73,1.28,2.36-4.85a.1.1,0,0,0-.15-.11l-3,1.9a.77.77,0,0,1-.9,0l-5-2.24a.71.71,0,0,1,0-1.07h0a.71.71,0,0,1,.77-.12l4.33.22a.41.41,0,0,0,.48,0l3.64-3a3,3,0,0,1,2.51-.69c.78.14,1.53.29,1.53.29a2.29,2.29,0,0,1,1.57,2.58Z"/><ellipse class="cls-39" cx="324.16" cy="765.99" rx="3.82" ry="2.46" transform="translate(-507.57 759.61) rotate(-66.62)"/><text class="cls-25" transform="translate(195.38 825.1)"> <tspan class="cls-93" x="2.46" y="0">L</tspan><tspan x="8.12" y="0">ots of in</tspan><tspan class="cls-80" x="48.41" y="0">v</tspan><tspan x="54" y="0">es</tspan><tspan class="cls-54" x="65.05" y="0">t</tspan><tspan x="69.02" y="0">o</tspan><tspan class="cls-54" x="75.56" y="0">r</tspan><tspan x="79.64" y="0">s, so less </tspan><tspan class="cls-83" x="125.93" y="0">c</tspan><tspan x="131.18" y="0">ont</tspan><tspan class="cls-54" x="148.41" y="0">r</tspan><tspan x="152.49" y="0">ol</tspan></text><rect class="cls-46" x="524.53" y="724.22" width="93.37" height="1.34" rx="0.67" ry="0.67"/><ellipse class="cls-45" cx="570.7" cy="790.51" rx="14.11" ry="1.13"/><rect class="cls-46" x="555.97" y="769.74" width="30.69" height="2.82" rx="1" ry="1"/><ellipse class="cls-39" cx="571.3" cy="752.58" rx="2.2" ry="3.42" transform="translate(-6.36 4.87) rotate(-0.49)"/><path class="cls-39" d="M583.42,754.92a.55.55,0,0,0-.66-.05l-4,2.41-.14.06-3.28.63c-.28,0-1.49-.27-1.72-.32a11.42,11.42,0,0,0-4.56,0l-1,.19c-.45.08-.84,0-1.78.09l-2.94-.56-.14-.06-4-2.41a.55.55,0,0,0-.66.05.53.53,0,0,0,0,.77l4.06,3.72a.49.49,0,0,0,.19.11l3.7,1a.29.29,0,0,1,.14.08,4.56,4.56,0,0,1,.46,1.44c0,.06,0-.05,0,.07s.18,2.37.14,3.3l0,.05-.57,1.91a4.11,4.11,0,0,0-.09,1.17c0,.23-.24,3.32.77,11.27.1.78-1.54,3-1,3.25s3.31-2.18,3.22-2.83a58.94,58.94,0,0,1,1.25-10.51c.4-.42.91,3.52.91,3.85s-.57,5.69-.49,6.27,2.09,3.17,2.76,2.92-.43-2.23-.21-3.21c.88-3.88.76-2,1.52-8.77a8.87,8.87,0,0,0,.08-1.89,9.64,9.64,0,0,0,0-1.13s-.2-1-.23-1.07-.14-.35-.14-.35c-.06-1.86-.2-3.88-.2-3.88s0-.33,0-.4a2.18,2.18,0,0,1,.38-1.14c.06-.1.13-.26.21-.4a1,1,0,0,1,.31-.26l3.43-.75a.49.49,0,0,0,.19-.11l4.06-3.72A.53.53,0,0,0,583.42,754.92Z"/><path class="cls-69" d="M559.06,774.26a1.49,1.49,0,0,0,.44-1.46,6.32,6.32,0,0,0,0-3.06"/><path class="cls-69" d="M559.38,772.57s-.94,1,.56,1.41"/><path class="cls-69" d="M582.34,774.26a1.49,1.49,0,0,0,.44-1.46,6.32,6.32,0,0,0,0-3.06"/><path class="cls-69" d="M582.67,772.57s-.94,1,.56,1.41"/><line class="cls-69" x1="557.38" y1="724.51" x2="559.5" y2="769.74"/><line class="cls-69" x1="584.9" y1="724.51" x2="582.79" y2="769.74"/><path class="cls-46" d="M525.39,724.71l1.71,58a.59.59,0,0,1-.59.58h0a.59.59,0,0,1-.63-.53l-1.71-58a.59.59,0,0,1,.59-.58h0A.59.59,0,0,1,525.39,724.71Z"/><path class="cls-46" d="M525.19,725l-13,68.76a.67.67,0,0,1-.78.54h0a.67.67,0,0,1-.54-.78l13-68.76a.67.67,0,0,1,.78-.54h0A.67.67,0,0,1,525.19,725Z"/><line class="cls-94" x1="524.15" y1="785.11" x2="530.33" y2="780.47"/><line class="cls-94" x1="508.59" y1="796.78" x2="515.26" y2="791.77"/><path class="cls-46" d="M617.45,724.71l-1.71,58a.59.59,0,0,0,.59.58h0a.59.59,0,0,0,.63-.53l1.71-58a.59.59,0,0,0-.59-.58h0A.59.59,0,0,0,617.45,724.71Z"/><path class="cls-46" d="M617.65,725l13,68.76a.67.67,0,0,0,.78.54h0a.67.67,0,0,0,.54-.78l-13-68.76a.67.67,0,0,0-.78-.54h0A.67.67,0,0,0,617.65,725Z"/><line class="cls-94" x1="618.69" y1="785.11" x2="612.51" y2="780.47"/><line class="cls-94" x1="634.25" y1="796.78" x2="627.58" y2="791.77"/><text class="cls-95" transform="translate(465.11 825.1)">L<tspan class="cls-52" x="5.66" y="0">ess in</tspan><tspan class="cls-80" x="33.83" y="0">v</tspan><tspan class="cls-55" x="39.42" y="0">es</tspan><tspan class="cls-53" x="50.47" y="0">t</tspan><tspan class="cls-55" x="54.44" y="0">o</tspan><tspan class="cls-90" x="60.98" y="0">r</tspan><tspan class="cls-55" x="65.06" y="0">s, and mo</tspan><tspan class="cls-54" x="114.07" y="0">r</tspan><tspan class="cls-52" x="118.15" y="0">e equity </tspan><tspan class="cls-80" x="160.96" y="0">o</tspan><tspan class="cls-55" x="167.46" y="0">wne</tspan><tspan class="cls-54" x="188.7" y="0">r</tspan><tspan class="cls-55" x="192.78" y="0">ship</tspan></text><rect class="cls-66" x="179.66" y="450.68" width="175.13" height="39.02"/><path class="cls-82" d="M198.28,452.42H162.56a3.14,3.14,0,1,0,0,6.28h4.65a3.14,3.14,0,1,1,0,6.28H157a3.14,3.14,0,1,0,0,6.28h35.72a3.14,3.14,0,1,0,0-6.28H183a3.14,3.14,0,0,1,0-6.28h15.26a3.14,3.14,0,0,0,0-6.28Z"/><path class="cls-72" d="M302.78,464.64a11.91,11.91,0,0,1,6.78-2.45c.35,0,.63,0,1,0h0a21.57,21.57,0,0,1,2-3.51s-.52,2.58,0,3.57h0a49.7,49.7,0,0,1,7.72,1.21s.81.58,3.07-.84,3.81-1.57,2.71-.43-2.36,2.27-1.84,3.11,3.39,3.75,1.71,3.26-3.62-2.71-5.85-2.16c-.55.14-1.39.34-2.4.55h0l-.61,1.29-1.07-1h0c-.81.14-1.64.27-2.51.37h0s-.39,1.47-1.16,1.66-1.13-1.36-1.26-1.49h0a11.81,11.81,0,0,1-3.87-.42C303.45,466.16,302.26,465.81,302.78,464.64Z"/><path class="cls-72" d="M304.47,465.45a2.44,2.44,0,0,1-1.49-.81"/><circle class="cls-50" cx="305.39" cy="464.52" r="0.42"/><path class="cls-73" d="M306.63,462.77s1.88,1.39.78,4.58"/><path class="cls-72" d="M321.13,465a52.19,52.19,0,0,0-11.94-.4"/><path class="cls-87" d="M375.79,451.18h-20c-6.34,0-6.34-3.47-12.69-3.47s-6.34,3.13-12.69,3.13-6.35-3.3-12.69-3.3-6.35,3.3-12.69,3.3-6.34-3.3-12.69-3.3-6.35,3.3-12.69,3.3-6.35-3.3-12.69-3.3-6.34,3.3-12.69,3.3-6.34-3.3-12.69-3.3-6.34,3.31-12.69,3.31-6.34-3.29-12.68-3.29-6.33,3.32-12.68,3.32-6.32-3.26-12.67-3.26c0,0-5.06-.89-11.06,4.24a10.71,10.71,0,0,1-2.44,0l-16.81.05"/><path class="cls-66" d="M198.28,470.86H162.56a3.14,3.14,0,1,0,0,6.28h4.65a3.14,3.14,0,1,1,0,6.28H157a3.14,3.14,0,1,0,0,6.28h35.72a3.14,3.14,0,1,0,0-6.28H183a3.14,3.14,0,0,1,0-6.28h15.26a3.14,3.14,0,0,0,0-6.28Z"/><path class="cls-66" d="M374.53,451.78H338.81a3.14,3.14,0,1,0,0,6.28h4.65a3.14,3.14,0,0,1,0,6.28H333.29a3.14,3.14,0,0,0,0,6.28H369a3.14,3.14,0,0,0,0-6.28h-9.74a3.14,3.14,0,1,1,0-6.28h15.26a3.14,3.14,0,1,0,0-6.28Z"/><path class="cls-82" d="M382.53,470.78H346.81a3.14,3.14,0,0,0,0,6.28h4.65a3.14,3.14,0,0,1,0,6.28H341.29a3.14,3.14,0,0,0,0,6.28H377a3.14,3.14,0,0,0,0-6.28h-9.74a3.14,3.14,0,1,1,0-6.28h15.26a3.14,3.14,0,1,0,0-6.28Z"/><path class="cls-66" d="M248.87,454.65h0a115.82,115.82,0,0,0-28.61,9c-6.16-11.35-15.55-11.06-15.55-11.06,14,14.63,3.36,23.42,3.36,23.42,6.6-1.12,12.81-7.92,12.81-7.92,5.6,1,10.78,1.83,15.58,2.43l-.14,0s2.7,1.17.66,3.8c0,0,1.73,1,7.28-3h-.08a155.39,155.39,0,0,0,16.12.59c-.2.68-1.69,5.74-3.78,7.88,0,0,5.62.08,13.84-8.52h0c15.14-1.72,20.34-6.2,20.34-6.2a16.2,16.2,0,0,1-6.57-1.1c12.47-2.6,11.8-3.84,11.8-3.84-9.81-6.86-22.16-8.43-34-7.61h0c-5.13-11.12-10.95-8.78-10.95-8.78,3.63,8-.46,10.41-2.08,10.88"/><path class="cls-96" d="M208.07,476s9.26-2.69,12.58-8.11c0,0,1.13-2.61,5.39-2.06s24.72,2.73,39.57.53,13.27-4.44,18.17-4.07a54.14,54.14,0,0,0,10.77-.58l1.34-1.59s-15.25-10.5-34.55-7c0,0-3-8.4-10.39-9.39,0,0,2.87,6.18.47,9s-9.84,3.31-14.47,4.62-16.79,6.34-16.79,6.34-5.2-10.48-15.9-11.31C204.28,452.46,219,464,208.07,476Z"/><path class="cls-97" d="M248.87,454.65h0a115.82,115.82,0,0,0-28.61,9c-6.16-11.35-15.55-11.06-15.55-11.06,14,14.63,3.36,23.42,3.36,23.42,6.6-1.12,12.81-7.92,12.81-7.92,5.6,1,10.78,1.83,15.58,2.43l-.14,0s2.7,1.17.66,3.8c0,0,1.73,1,7.28-3h-.08a155.39,155.39,0,0,0,16.12.59c-.2.68-1.69,5.74-3.78,7.88,0,0,5.62.08,13.84-8.52h0c15.14-1.72,20.34-6.2,20.34-6.2a16.2,16.2,0,0,1-6.57-1.1c12.47-2.6,11.8-3.84,11.8-3.84-9.81-6.86-22.16-8.43-34-7.61h0c-5.13-11.12-10.95-8.78-10.95-8.78,3.63,8-.46,10.41-2.08,10.88"/><polyline class="cls-42" points="294.64 461.25 294.33 462.02 293.59 461.68 293.26 462.38 292.48 462.05 292.21 462.66 291.46 462.36 291.2 462.99 290.49 462.63 290.31 463.19 289.62 462.86 289.33 463.46 288.53 463.14 288.29 463.74 287.41 463.4 287.19 463.96 286.49 463.62 286.13 464.2 285.35 463.87"/><path class="cls-98" d="M269.81,458.49a19.56,19.56,0,0,1,2.41,8.53"/><path class="cls-98" d="M271.93,458.15a19.56,19.56,0,0,1,2.41,8.53"/><path class="cls-98" d="M274.34,458a19.56,19.56,0,0,1,2.41,8.53"/><circle class="cls-42" cx="288.21" cy="459.41" r="0.71" transform="translate(-218.43 652.9) rotate(-78.8)"/><path class="cls-42" d="M286.16,464.72l.51-.53.37.5.5-.47.4.5.43-.41.39.46.42-.42.34.49.34-.4.34.47.43-.39.2.61A12.62,12.62,0,0,1,286.16,464.72Z"/><text class="cls-99" transform="translate(128.05 520.72)">A<tspan class="cls-100" x="6.48" y="0">c</tspan><tspan x="11.72" y="0">quisition oppor</tspan><tspan class="cls-101" x="89.13" y="0">t</tspan><tspan class="cls-102" x="93.14" y="0">unities f</tspan><tspan class="cls-103" x="133.32" y="0">r</tspan><tspan x="137.39" y="0">om g</tspan><tspan class="cls-104" x="162.41" y="0">r</tspan><tspan class="cls-105" x="166.47" y="0">o</tspan><tspan x="172.95" y="0">wth-</tspan><tspan class="cls-104" x="195.98" y="0">f</tspan><tspan x="199.39" y="0">ocused pla</tspan><tspan class="cls-106" x="254.06" y="0">y</tspan><tspan class="cls-102" x="259.64" y="0">e</tspan><tspan class="cls-107" x="265.62" y="0">r</tspan><tspan class="cls-108" x="269.68" y="0">s</tspan></text></g></g></svg>