<svg id="Layer_1" data-name="Layer 1" xmlns="http://www.w3.org/2000/svg" viewBox="0 0 720 300"><defs><style>.cls-1,.cls-12,.cls-19,.cls-20{fill:none;}.cls-1,.cls-12,.cls-14,.cls-16,.cls-17,.cls-18,.cls-19,.cls-20,.cls-3{stroke:#3273ad;}.cls-1,.cls-17,.cls-19,.cls-3{stroke-linecap:round;stroke-linejoin:round;}.cls-2{fill:#3273ad;}.cls-14,.cls-16,.cls-17,.cls-3,.cls-6{fill:#c3f1fc;}.cls-3{stroke-width:0.5px;}.cls-4{opacity:0.4;}.cls-5{fill:#32b475;}.cls-7{fill:#caedff;}.cls-18,.cls-8{fill:#fff;}.cls-9{fill:#fad264;}.cls-10{fill:#63d398;}.cls-11{fill:#046ca3;}.cls-12,.cls-14,.cls-16,.cls-18,.cls-20{stroke-miterlimit:10;}.cls-12{stroke-dasharray:4 7;opacity:0.6;}.cls-13{opacity:0.2;}.cls-15{fill:#0f9d58;}.cls-16,.cls-17,.cls-18,.cls-19,.cls-20{stroke-width:0.25px;}.cls-21{opacity:0.3;}</style></defs><title>learn-how-to-learn-illustration</title><circle class="cls-1" cx="166.78" cy="146.97" r="3.32"/><circle class="cls-1" cx="147.24" cy="132.88" r="14.09"/><rect class="cls-2" x="146.59" y="124.93" width="1.3" height="11.66" rx="0.65" ry="0.65" transform="translate(294.48 261.53) rotate(180)"/><circle class="cls-2" cx="147.24" cy="139.32" r="1.31"/><path class="cls-3" d="M205.54,143.66c.76-.53.52-1.36-.4-2.06a4.67,4.67,0,0,1-1.66-3.67,5.21,5.21,0,0,1,0-.61h7.08a5.21,5.21,0,0,1,0,.61,4.37,4.37,0,0,1-2.3,4c-.49.23-1,1.09-.13,1.57h0a4.34,4.34,0,0,1,2.4,4.07,5.21,5.21,0,0,1,0,.61h-7.08a5.21,5.21,0,0,1,0-.61A4.5,4.5,0,0,1,205.54,143.66Z"/><rect class="cls-2" x="202.16" y="136.94" width="9.89" height="0.45" transform="translate(414.2 274.33) rotate(-180)"/><path class="cls-2" d="M210.27,148.22l-.15-.48-.24-.18v-.63h-.31l-.58-.44s0,.33-.15,0,.09.07-.12-.33l-.21-.41-.52-.26-.24.18s0,.11-.21-.18-.7-.15-.73-.3a1.36,1.36,0,0,1,0-.37l.28.26v.26s-.18-.07-.21,0-.43.3-.43.3l-.37.11v.48l-.34.11s-.21.07-.24.15.12-.07,0,.07.15,0-.15.15a1.74,1.74,0,0,1-.49.22l-.24.33s-.31-.33-.4.18a1.69,1.69,0,0,1-.28.74l3.79.07Z"/><path class="cls-2" d="M208.33,142l-.51.5-.77.6a1.31,1.31,0,0,0-.24.41,6.72,6.72,0,0,0,0,.7l0,1.22a1.54,1.54,0,0,1,0-.33,2.41,2.41,0,0,0-.13-.55c0-.15-.06-.48-.06-.48l-.06-.59s-.24-.48-.31-.66l-.18-.45-.48-.3-.45-.42-.45-.41-.33-.4-.39-.67-.39-1.16.29.15.61.33a2.67,2.67,0,0,1,.4.5s.28-.06.37,0a5.78,5.78,0,0,0,.61.2l1.38.78.52-.44.86-.44.37-.33,1.51-.58-.31.9-.74,1-1,.66Z"/><rect class="cls-2" x="202.16" y="148.38" width="9.89" height="0.45" transform="translate(414.2 297.2) rotate(-180)"/><g class="cls-4"><path class="cls-5" d="M225.65,168a3.2,3.2,0,1,1,3.2-3.2A3.21,3.21,0,0,1,225.65,168Zm0-4.91a1.7,1.7,0,1,0,1.7,1.7A1.71,1.71,0,0,0,225.65,163.13Z"/></g><path class="cls-2" d="M179,196.14H189.3v55.62h44.82V196.14h7.5a1.61,1.61,0,1,0,0-3.21H179a1.61,1.61,0,1,0,0,3.21Zm0-1a.64.64,0,1,1,0-1.27h62.57a.64.64,0,1,1,0,1.27h-8.47V250.8H190.27V195.18Z"/><ellipse class="cls-2" cx="177.44" cy="170.34" rx="12.31" ry="7.93" transform="translate(-47.87 71.66) rotate(-20.18)"/><path class="cls-2" d="M145.3,174.19c8.22-6.63,26.79,8.06,30.39,9.25,1.87.62,7.85-.32,11.47-.9a3.26,3.26,0,0,1,3.67,2.4h0c.46,1.75-.85,4.55-2.6,5-3.16.81-7.69,1-10.49,1.68-4.46,1.07-13.64-5.48-15.79-4.31s-2.92,16.5-2.55,18.47,12.91,4.15,15.77,7.8c1.8,2.3,2.57,30.9,2.57,30.9,1.36,2.39,7.37,3.44,6.61,5.91s-12.79-.61-13.55-1.84-2.87-26.79-6.33-27.81-15.06-1.24-23.75-4S138.62,179.58,145.3,174.19Z"/><path class="cls-6" d="M135.56,251.76a2.67,2.67,0,0,0,2.38-1.48l7.29-.74,7.06.66a2.67,2.67,0,1,0,.32-2.74l-6-.56V228l10.41.5a2.39,2.39,0,0,0,2.52-2.29l.12-2.56a2.41,2.41,0,0,0-2.29-2.52l-24.57-1.17c-2-16.82-3.52-31.09-3-35.94a3.27,3.27,0,0,0-.73-2.61,4,4,0,0,0-3-1.16c-2.22,0-4.86,1.27-5.38,3.61-1.15,5.13,1.71,35.19,4.93,40a1.69,1.69,0,0,0,1.07.84,13.34,13.34,0,0,0,2.23.22h0a7.42,7.42,0,0,0,.83,0,2.41,2.41,0,0,0,2.3,2.44l11.37.54v19.11l-5.72.58a2.67,2.67,0,1,0-2.13,4.27Z"/><path class="cls-2" d="M154.7,252.26a3.16,3.16,0,0,1-2.74-1.59l-6.78-.63-6.93.71a3.17,3.17,0,1,1-.35-3.78l5-.5V228.29l-10.9-.52a2.91,2.91,0,0,1-2.73-2.41,12.92,12.92,0,0,1-2.69-.22,2.15,2.15,0,0,1-1.4-1c-3.26-4.86-6.17-35.22-5-40.39.58-2.6,3.46-4,5.87-4a4.45,4.45,0,0,1,3.39,1.33,3.75,3.75,0,0,1,.85,3c-.53,4.78,1,18.84,2.94,35.4l24.15,1.15a2.91,2.91,0,0,1,2.77,3l-.12,2.56A2.89,2.89,0,0,1,157,229l-9.88-.47v18l5.28.49a3.13,3.13,0,0,1,2.32-1,3.17,3.17,0,1,1,0,6.34ZM145.18,249l7.44.68.12.26a2.17,2.17,0,1,0,.26-2.23l-.17.22-6.72-.62V227.44L157,228a1.89,1.89,0,0,0,2-1.82l.12-2.56a1.91,1.91,0,0,0-1.82-2l-25-1.19,0-.42c-2-16.81-3.53-31.12-3-36a2.78,2.78,0,0,0-.6-2.23,3.47,3.47,0,0,0-2.65-1c-2,0-4.43,1.13-4.9,3.22-.54,2.39-.19,10.78.83,20,1.12,10.1,2.67,17.63,4,19.66a1.26,1.26,0,0,0,.73.62,10.51,10.51,0,0,0,2.92.17l.56-.06v.57a1.91,1.91,0,0,0,1.82,1.94l11.85.56v20l-6.45.65-.17-.23a2.17,2.17,0,1,0,.21,2.26l.12-.25Z"/><rect class="cls-7" x="222.74" y="171.82" width="5.12" height="19.52"/><path class="cls-2" d="M227.95,191.42h-5.3V171.73h5.3Zm-5.12-.17h5V171.91h-5Z"/><rect class="cls-8" x="222.74" y="174.75" width="5.12" height="2.12"/><path class="cls-2" d="M227.95,177h-5.3v-2.3h5.3Zm-5.12-.17h5v-1.95h-5Z"/><rect class="cls-8" x="222.74" y="186.36" width="5.12" height="2.12"/><path class="cls-2" d="M227.95,188.57h-5.3v-2.3h5.3Zm-5.12-.17h5v-1.95h-5Z"/><rect class="cls-8" x="227.86" y="173.23" width="1.22" height="18.1"/><path class="cls-2" d="M229.17,191.42h-1.39V173.15h1.39Zm-1.22-.17h1V173.32h-1Z"/><rect class="cls-8" x="229.08" y="172.6" width="1.07" height="18.74"/><path class="cls-2" d="M230.24,191.42H229V172.51h1.25Zm-1.07-.17h.9V172.69h-.9Z"/><rect class="cls-8" x="230.15" y="170.65" width="1.02" height="20.69"/><path class="cls-2" d="M231.27,191.42h-1.2V170.56h1.2Zm-1-.17h.85V170.73h-.85Z"/><rect class="cls-7" x="230.15" y="174.37" width="1.02" height="13.4"/><path class="cls-2" d="M231.27,187.86h-1.2V174.29h1.2Zm-1-.17h.85V174.46h-.85Z"/><rect class="cls-7" x="233.35" y="172.65" width="4.83" height="18.35" transform="translate(-34.53 56.99) rotate(-12.85)"/><path class="cls-2" d="M235.39,191.41l0-.08-4.1-18,4.88-1.11,0,.08,4.1,18Zm-3.91-17.93,4,17.72,4.54-1-4-17.72Z"/><rect class="cls-8" x="231.87" y="174.89" width="4.83" height="0.84" transform="translate(-33.12 56.49) rotate(-12.85)"/><path class="cls-2" d="M232,176.36l-.22-1,4.88-1.11.22,1Zm0-.85.15.65,4.54-1-.15-.65Z"/><rect class="cls-8" x="234.76" y="187.61" width="4.83" height="0.74" transform="matrix(0.97, -0.22, 0.22, 0.97, -35.87, 57.45)"/><path class="cls-2" d="M234.84,189l-.2-.89,4.88-1.11.2.89Zm0-.76.13.56,4.54-1-.13-.56Z"/><ellipse class="cls-9" cx="234.75" cy="177.36" rx="1.88" ry="0.59" transform="translate(-33.56 56.65) rotate(-12.85)"/><path class="cls-2" d="M233.78,178.15h-.24c-.42,0-.66-.15-.71-.35s.12-.41.49-.62a5.31,5.31,0,0,1,2.64-.6c.42,0,.66.15.71.35.1.43-.84.88-1.77,1.09A5.18,5.18,0,0,1,233.78,178.15Zm1.95-1.42a5,5,0,0,0-1.08.13,4.57,4.57,0,0,0-1.23.45c-.33.19-.42.35-.4.43s.17.18.55.21a4.56,4.56,0,0,0,1.31-.13c1.08-.25,1.68-.68,1.64-.88h0c0-.08-.17-.18-.55-.21Z"/><path class="cls-8" d="M218.23,172.95a.7.7,0,0,0,.7-.7h0a.7.7,0,0,0-.7-.7h-24.1a.7.7,0,0,0-.7.7h0v5.26a.7.7,0,0,0,.7.7h24.1a.7.7,0,1,0,0-1.4H195.09v-3.86Z"/><path class="cls-2" d="M218.23,178.36h-24.1a.85.85,0,0,1-.84-.84v-5.26a.85.85,0,0,1,.84-.84h24.1a.84.84,0,0,1,0,1.69h-23v3.57h23a.84.84,0,1,1,0,1.69Zm-24.1-6.66a.55.55,0,0,0-.55.55v5.26a.55.55,0,0,0,.55.55h24.1a.55.55,0,1,0,0-1.11H194.94V172.8h23.28a.55.55,0,0,0,0-1.11Z"/><rect class="cls-8" x="195.09" y="172.95" width="22.52" height="3.86"/><path class="cls-2" d="M217.76,177H194.94V172.8h22.81Zm-22.52-.29h22.23v-3.57H195.24Z"/><rect class="cls-2" x="195.27" y="174.3" width="6.35" height="0.15"/><rect class="cls-2" x="195.27" y="175.4" width="3.87" height="0.15"/><rect class="cls-2" x="204.75" y="174.81" width="2.77" height="0.15"/><rect class="cls-2" x="210.74" y="174.3" width="6.87" height="0.15"/><path class="cls-7" d="M194.13,179.66a.7.7,0,0,1-.7-.7h0a.7.7,0,0,1,.7-.7h24.1a.7.7,0,0,1,.7.7h0v5.26a.7.7,0,0,1-.7.7h-24.1a.7.7,0,1,1,0-1.4h23.14v-3.86Z"/><path class="cls-2" d="M218.23,185.07h-24.1a.84.84,0,0,1,0-1.69h23v-3.57h-23a.84.84,0,0,1,0-1.69h24.1a.85.85,0,0,1,.84.84v5.26A.85.85,0,0,1,218.23,185.07Zm-24.1-1.4a.55.55,0,0,0,0,1.11h24.1a.55.55,0,0,0,.55-.55V179a.55.55,0,0,0-.55-.55h-24.1a.55.55,0,0,0,0,1.11h23.28v4.16Z"/><rect class="cls-8" x="194.75" y="179.66" width="22.52" height="3.86" transform="translate(412.01 363.19) rotate(-180)"/><path class="cls-2" d="M217.41,183.67H194.6v-4.15h22.81Zm-22.52-.29h22.23v-3.57H194.89Z"/><rect class="cls-2" x="197.81" y="182.44" width="3.87" height="0.15"/><rect class="cls-2" x="204.83" y="181.52" width="2.77" height="0.15"/><rect class="cls-2" x="194.75" y="181.02" width="6.87" height="0.15"/><path class="cls-8" d="M218.23,186.38a.7.7,0,0,0,.7-.7h0a.7.7,0,0,0-.7-.7h-24.1a.7.7,0,0,0-.7.7h0v5.26a.7.7,0,0,0,.7.7h24.1a.7.7,0,1,0,0-1.4H195.09v-3.86Z"/><path class="cls-2" d="M218.23,191.78h-24.1a.85.85,0,0,1-.84-.84v-5.26a.85.85,0,0,1,.84-.84h24.1a.84.84,0,1,1,0,1.69h-23v3.57h23a.84.84,0,1,1,0,1.69Zm-24.1-6.66a.55.55,0,0,0-.55.55v5.26a.55.55,0,0,0,.55.55h24.1a.55.55,0,1,0,0-1.11H194.94v-4.16h23.28a.55.55,0,1,0,0-1.11Z"/><rect class="cls-8" x="195.09" y="186.38" width="22.52" height="3.86"/><path class="cls-2" d="M217.76,190.38H194.94v-4.16h22.81Zm-22.52-.29h22.23v-3.57H195.24Z"/><rect class="cls-2" x="195.27" y="187.73" width="6.35" height="0.15"/><rect class="cls-2" x="196.25" y="188.99" width="3.87" height="0.15"/><rect class="cls-2" x="203.37" y="188.27" width="1.7" height="0.15"/><rect class="cls-2" x="207.96" y="188.99" width="2.77" height="0.15"/><rect class="cls-2" x="210.74" y="188.32" width="6.87" height="0.15"/><line class="cls-10" x1="215.34" y1="181.38" x2="208.99" y2="181.38"/><rect class="cls-11" x="208.99" y="181.27" width="6.35" height="0.22"/><polygon class="cls-9" points="214.22 187.9 212.21 186.42 210.19 187.9 210.19 181.49 214.22 181.49 214.22 187.9"/><path class="cls-8" d="M194.05,152.86a.7.7,0,0,1-.7-.7h0a.7.7,0,0,1,.7-.7h24.1a.7.7,0,0,1,.7.7h0v5.26a.7.7,0,0,1-.7.7h-24.1a.7.7,0,1,1,0-1.4h23.14v-3.86Z"/><path class="cls-2" d="M193.21,157.43a.85.85,0,0,1,.84-.84h23V153h-23a.84.84,0,0,1,0-1.69h24.1a.85.85,0,0,1,.84.84v5.26a.85.85,0,0,1-.84.84h-24.1A.85.85,0,0,1,193.21,157.43Zm.84-5.81a.55.55,0,0,0,0,1.11h23.28v4.15H194.05a.55.55,0,1,0,0,1.11h24.1a.55.55,0,0,0,.55-.55v-5.26a.55.55,0,0,0-.55-.55Z"/><rect class="cls-8" x="194.67" y="152.86" width="22.52" height="3.86" transform="translate(411.86 309.59) rotate(-180)"/><path class="cls-2" d="M194.52,152.72h22.81v4.15H194.52ZM217,153H194.81v3.57H217Z"/><line class="cls-8" x1="217.01" y1="154.29" x2="210.66" y2="154.29"/><rect class="cls-2" x="210.66" y="154.22" width="6.35" height="0.15"/><line class="cls-8" x1="217.01" y1="155.39" x2="213.15" y2="155.39"/><rect class="cls-2" x="213.15" y="155.31" width="3.87" height="0.15"/><line class="cls-8" x1="207.53" y1="154.8" x2="204.75" y2="154.8"/><rect class="cls-2" x="204.75" y="154.72" width="2.77" height="0.15"/><line class="cls-8" x1="201.54" y1="154.29" x2="194.67" y2="154.29"/><rect class="cls-2" x="194.67" y="154.22" width="6.87" height="0.15"/><path class="cls-7" d="M218.15,159.58a.7.7,0,0,0,.7-.7h0a.7.7,0,0,0-.7-.7h-24.1a.7.7,0,0,0-.7.7h0v5.26a.7.7,0,0,0,.7.7h24.1a.7.7,0,1,0,0-1.4H195v-3.86Z"/><path class="cls-2" d="M193.21,164.14v-5.26a.85.85,0,0,1,.84-.84h24.1a.84.84,0,0,1,0,1.69h-23v3.57h23a.84.84,0,1,1,0,1.69h-24.1A.85.85,0,0,1,193.21,164.14Zm1.66-.55v-4.16h23.28a.55.55,0,1,0,0-1.11h-24.1a.55.55,0,0,0-.55.55v5.26a.55.55,0,0,0,.55.55h24.1a.55.55,0,0,0,0-1.11Z"/><rect class="cls-8" x="195.01" y="159.58" width="22.52" height="3.86"/><path class="cls-2" d="M194.87,159.43h22.81v4.15H194.87Zm22.52.29H195.16v3.57h22.23Z"/><rect class="cls-2" x="210.61" y="162.35" width="3.87" height="0.15"/><rect class="cls-2" x="204.67" y="161.44" width="2.77" height="0.15"/><rect class="cls-2" x="210.66" y="160.93" width="6.87" height="0.15"/><path class="cls-8" d="M194.05,166.29a.7.7,0,0,1-.7-.7h0a.7.7,0,0,1,.7-.7h24.1a.7.7,0,0,1,.7.7h0v5.26a.7.7,0,0,1-.7.7h-24.1a.7.7,0,1,1,0-1.4h23.14v-3.86Z"/><path class="cls-2" d="M193.21,170.85a.85.85,0,0,1,.84-.84h23v-3.57h-23a.84.84,0,0,1,0-1.69h24.1a.85.85,0,0,1,.84.84v5.26a.85.85,0,0,1-.84.84h-24.1A.85.85,0,0,1,193.21,170.85Zm.84-5.81a.55.55,0,0,0,0,1.11h23.28v4.16H194.05a.55.55,0,1,0,0,1.11h24.1a.55.55,0,0,0,.55-.55v-5.26a.55.55,0,0,0-.55-.55Z"/><rect class="cls-8" x="194.67" y="166.29" width="22.52" height="3.86" transform="translate(411.86 336.45) rotate(-180)"/><path class="cls-2" d="M194.52,166.15h22.81v4.16H194.52Zm22.52.29H194.81V170H217Z"/><rect class="cls-2" x="210.66" y="167.65" width="6.35" height="0.15"/><rect class="cls-2" x="212.16" y="168.9" width="3.87" height="0.15"/><rect class="cls-2" x="207.21" y="168.19" width="1.7" height="0.15"/><rect class="cls-2" x="201.54" y="168.9" width="2.77" height="0.15"/><rect class="cls-2" x="194.67" y="168.23" width="6.87" height="0.15"/><line class="cls-10" x1="196.94" y1="161.3" x2="203.29" y2="161.3"/><rect class="cls-11" x="196.94" y="161.19" width="6.35" height="0.22"/><path class="cls-2" d="M267.53,230.26a.24.24,0,0,1-.22.26l-1.45.12q0,1.11-.08,2.19l1.48.54a.24.24,0,0,1-.08.47h-.08l-1.35-.49c-.06.8-.15,1.58-.27,2.35l1.9.77a.24.24,0,0,1-.09.46l-.09,0-1.8-.73q-.14.84-.32,1.65l1.32.19a.24.24,0,0,1,0,.48h0l-1.36-.2q-.16.68-.35,1.33l1.49.35a.24.24,0,0,1-.05.48H266l-1.52-.35c-.21.67-.45,1.31-.7,1.92h2.05a1.23,1.23,0,0,1,1.22,1.44v0a1.23,1.23,0,0,1-1.22,1h-.45l-1.2,7a.24.24,0,0,1-.24.2H251.31a.24.24,0,0,1-.24-.2l-1.2-7h-.45a1.23,1.23,0,0,1-1.22-1v0a1.23,1.23,0,0,1,1.22-1.44h2.05a23.77,23.77,0,0,1-1.19-3.68l-.89.77a.24.24,0,1,1-.31-.36l1.08-.94q-.15-.68-.27-1.39l-1.34.74a.24.24,0,0,1-.12,0,.24.24,0,0,1-.12-.45l1.49-.83q-.14-.9-.23-1.83l-1.56,1a.24.24,0,0,1-.26-.4l1.75-1.13h0q-.1-1.15-.12-2.33l-1.43.56-.09,0a.24.24,0,0,1-.09-.47l1.6-.62c0-.09,0-.18,0-.27q0-.54,0-1.06l-1.44.52h-.08a.24.24,0,0,1-.08-.47l1.62-.59q0-1,.14-1.91l-1.2-.33a.24.24,0,0,1,.13-.46l1.12.31a25.89,25.89,0,0,1,.5-2.87h-1.69a.24.24,0,1,1,0-.48h1.81q.23-.9.53-1.72l-1.22-.47a.24.24,0,0,1,.17-.45l1.22.47q.29-.73.62-1.39l-1.58-.45a.24.24,0,0,1,.13-.46l1.68.48a11.42,11.42,0,0,1,.85-1.31l-1.4-.85a.24.24,0,1,1,.25-.41l1.45.88a8.24,8.24,0,0,1,1.05-1.06l-1.13-1.49a.24.24,0,1,1,.38-.29l1.13,1.48a5.74,5.74,0,0,1,2.16-1l-.81-1.18a.24.24,0,0,1,.4-.27l.94,1.37.52,0h.11l.37,0,.7-1.75a.24.24,0,1,1,.45.18l-.65,1.63a5.43,5.43,0,0,1,1.49.5l1.67-1a.24.24,0,0,1,.25.41l-1.45.89a7.09,7.09,0,0,1,1.23,1l2.34-1.12a.24.24,0,1,1,.21.43l-2.2,1.05a10.69,10.69,0,0,1,1.36,1.93l1.36-.47a.24.24,0,1,1,.16.45l-1.29.45a15.84,15.84,0,0,1,.79,1.84l2.33-.17a.24.24,0,0,1,0,.48l-2.2.16q.27.83.49,1.73l1.66-.25a.24.24,0,0,1,.07.48l-1.62.25q.15.7.27,1.44l1.35.18a.24.24,0,0,1,0,.48h0l-1.22-.16q.1.74.17,1.52h1.43a.24.24,0,0,1,0,.48h-1.4q.07,1.07.08,2.19l1.41-.11A.24.24,0,0,1,267.53,230.26Zm-1,13.09a.75.75,0,0,0-.74-.88h-16.4a.75.75,0,0,0-.74.88v0a.75.75,0,0,0,.74.62h16.39a.75.75,0,0,0,.74-.62Zm-1.19-12.94a32.21,32.21,0,0,0-.32-4.67.24.24,0,0,1,0-.06q-.14-.92-.33-1.77v-.05h0a20.16,20.16,0,0,0-.61-2.14l0-.05a15.08,15.08,0,0,0-1-2.28,7.35,7.35,0,0,0-4.05-3.74,8.48,8.48,0,0,1,1.68,3.56c.19.67.35,1.4.49,2.19l.72-.57a.24.24,0,1,1,.3.38l-.93.74q.17,1.07.3,2.25l.9-.39a.24.24,0,0,1,.19.44l-1,.45c.09,1,.16,2,.2,3l.7-.7a.24.24,0,1,1,.34.34l-1,1-.05,0q0,1,0,2.06,0,.21,0,.42l.85-.31a.24.24,0,1,1,.16.45l-1,.37c0,1.2-.06,2.38-.13,3.52l.71-.24a.24.24,0,1,1,.15.46l-.9.3c-.07,1-.17,2.06-.29,3a4.59,4.59,0,0,1,.74-.16.24.24,0,0,1,0,.48l-.82.19c-.15,1.09-.32,2.11-.52,3.06h2.43a21.42,21.42,0,0,0,.83-2.26h0a28.17,28.17,0,0,0,.89-3.95h0A35.16,35.16,0,0,0,265.38,230.41Zm-1.64,20.8,1.15-6.74H250.37l1.15,6.74Zm-2.35-20.45q0-.18,0-.36,0-1.13,0-2.2l-1.11-.59a.24.24,0,0,1,.23-.42l.86.46c0-1-.11-2-.2-3l-.85-.65a.24.24,0,1,1,.29-.38l.49.38c-.08-.7-.17-1.37-.27-2l-1-.72a.24.24,0,1,1,.29-.39l.55.41c-.13-.71-.28-1.38-.45-2-.63-2.27-1.47-3.65-2.36-3.86v3.23l.45-.44a.24.24,0,1,1,.34.34l-.79.78v2.72l.46-.41a.24.24,0,0,1,.32.36l-.78.7v3l.8-.8a.24.24,0,1,1,.34.34l-1.14,1.13v2.91l.67-.65a.24.24,0,1,1,.34.35l-1,1v2.71l.83-.61a.24.24,0,0,1,.29.39l-1.11.82v2.39l.71-.47a.24.24,0,0,1,.26.4l-1,.64v2.84l.71-.45a.24.24,0,1,1,.26.41l-1,.61V242h2.46c.22-1,.4-2.09.56-3.26L260,238a.24.24,0,1,1,.32-.36l.62.56c.11-.91.2-1.87.27-2.85L260,233.89a.24.24,0,0,1,.36-.32l.91,1c.06-1.07.1-2.18.12-3.3l-1.07-.59a.24.24,0,0,1,.23-.42Zm-4,11.22v-2.27l-1-.61a.24.24,0,0,1,.24-.42l.8.47v-2.71l-1-.56a.24.24,0,0,1,.23-.42l.81.43V233.5l0,0-1-1.14a.24.24,0,1,1,.37-.31l.65.76V230l-1-1a.24.24,0,1,1,.34-.35l.66.64v-2.86l-1.33-.79a.24.24,0,1,1,.25-.41l1.09.64v-3h0l-.74-.6a.24.24,0,0,1,.3-.37l.46.37v-2.71l-.05,0-.95-1a.24.24,0,1,1,.34-.34l.66.67v-3.46c-.88.21-1.73,1.59-2.36,3.86-.11.41-.22.84-.31,1.3l.5-.37a.24.24,0,1,1,.29.39l-.93.7c-.15.83-.28,1.73-.39,2.68l.49-.37a.24.24,0,1,1,.29.38l-.85.65c-.09.95-.16,1.95-.2,3l.86-.46a.24.24,0,1,1,.23.42l-1.1.59q0,1.07,0,2.2,0,.59,0,1.18l.78-.73a.24.24,0,0,1,.33.35l-1.09,1c0,.8.05,1.6.1,2.37l.91-1a.24.24,0,0,1,.36.32l-1.23,1.4c0,.71.11,1.41.18,2.09l.7-.63a.24.24,0,0,1,.32.36l-1,.86c.17,1.45.39,2.81.65,4Zm-2.82-22.8a8.48,8.48,0,0,1,1.68-3.56,7.35,7.35,0,0,0-4.05,3.74,16.73,16.73,0,0,0-1.52,4,.25.25,0,0,1,0,.06,29.17,29.17,0,0,0-.78,7A29.73,29.73,0,0,0,252,242h2.43c-.25-1.19-.47-2.51-.63-3.93l-.72-.17a.24.24,0,0,1,0-.48,3.92,3.92,0,0,1,.64.14c-.08-.7-.14-1.43-.19-2.17l-.9-.3a.24.24,0,1,1,.15-.46l.72.24c-.05-.83-.09-1.67-.11-2.53l-1-.38a.24.24,0,1,1,.16-.45l.87.31q0-.7,0-1.41,0-1.05,0-2.06l-.06,0-1-1a.24.24,0,0,1,.34-.34l.7.7c0-1.07.11-2.08.2-3l-1.55-.92a.24.24,0,0,1,.25-.41l1.35.8c.11-1,.24-2,.4-2.85l-1-.75a.24.24,0,0,1,.3-.38l.75.6C254.3,220.2,254.43,219.68,254.56,219.19Z"/><path class="cls-9" d="M266.4,242.74a.75.75,0,0,1,.17.61v0a.75.75,0,0,1-.74.62H249.43a.75.75,0,0,1-.74-.62v0a.75.75,0,0,1,.74-.88h16.4A.75.75,0,0,1,266.4,242.74Z"/><path class="cls-7" d="M265.05,225.74a32.21,32.21,0,0,1,.32,4.67,35.16,35.16,0,0,1-.4,5.37h0a28.14,28.14,0,0,1-.89,3.95h0a21.42,21.42,0,0,1-.83,2.26h-2.43c.2-.94.38-2,.52-3.06l.82-.19a.24.24,0,0,0,0-.48,4.59,4.59,0,0,0-.74.16c.12-1,.22-2,.29-3l.9-.3a.24.24,0,1,0-.15-.46l-.71.24c.07-1.14.12-2.32.13-3.52l1-.37a.24.24,0,1,0-.16-.45l-.85.31q0-.21,0-.42,0-1.06,0-2.06l.05,0,1-1a.24.24,0,1,0-.34-.34l-.7.7c0-1.06-.11-2.07-.2-3l1-.45a.24.24,0,0,0-.19-.44l-.9.39q-.12-1.19-.3-2.25l.93-.74a.24.24,0,1,0-.3-.38l-.72.57c-.14-.79-.31-1.52-.49-2.19a8.48,8.48,0,0,0-1.68-3.56,7.35,7.35,0,0,1,4.05,3.74,15.08,15.08,0,0,1,1,2.28l0,.05a20.16,20.16,0,0,1,.61,2.14h0v.05q.19.86.33,1.77A.24.24,0,0,0,265.05,225.74Z"/><path class="cls-7" d="M256.24,215.63a8.48,8.48,0,0,0-1.68,3.56c-.13.49-.26,1-.37,1.56l-.75-.6a.24.24,0,0,0-.3.38l1,.75c-.16.88-.3,1.83-.4,2.85l-1.35-.8a.24.24,0,0,0-.25.41l1.55.92c-.09,1-.16,2-.2,3l-.7-.7a.24.24,0,0,0-.34.34l1,1,.06,0q0,1,0,2.06,0,.71,0,1.41l-.87-.31a.24.24,0,1,0-.16.45l1,.38c0,.86.06,1.7.11,2.53l-.72-.24a.24.24,0,1,0-.15.46l.9.3c.05.74.12,1.46.19,2.17a3.92,3.92,0,0,0-.64-.14.24.24,0,0,0,0,.48l.72.17c.16,1.41.38,2.73.63,3.93H252a29.73,29.73,0,0,1-2.13-11.58,29.17,29.17,0,0,1,.78-7,.25.25,0,0,0,0-.06,16.73,16.73,0,0,1,1.52-4A7.35,7.35,0,0,1,256.24,215.63Z"/><line class="cls-12" x1="360" y1="22.67" x2="360" y2="277.33"/><g class="cls-13"><path class="cls-2" d="M489.36,73.9c-1,.84-2.09,1.71-3.09,2.57a.5.5,0,0,0,.66.75c1-.86,2-1.72,3.06-2.55a.5.5,0,1,0-.62-.78Z"/><path class="cls-2" d="M481.13,81.28c-.94.94-1.87,1.92-2.78,2.91a.5.5,0,1,0,.74.68c.89-1,1.82-1.94,2.75-2.88a.5.5,0,1,0-.71-.71Z"/><path class="cls-2" d="M473.79,89.55c-.83,1.06-1.65,2.14-2.43,3.21a.5.5,0,1,0,.81.59c.77-1.06,1.58-2.13,2.41-3.17a.5.5,0,0,0-.79-.62Z"/><path class="cls-2" d="M468.12,98.44a.5.5,0,0,0-.69.16c-.71,1.14-1.4,2.31-2.05,3.47a.5.5,0,0,0,.87.49c.65-1.15,1.33-2.3,2-3.43A.5.5,0,0,0,468.12,98.44Z"/><path class="cls-2" d="M453.56,144.7h0a.5.5,0,0,0,.5-.47c.07-1.32.17-2.66.3-4a.5.5,0,0,0-.45-.55.51.51,0,0,0-.55.45c-.13,1.32-.23,2.67-.3,4A.5.5,0,0,0,453.56,144.7Z"/><path class="cls-2" d="M454.73,133.77h.08a.5.5,0,0,0,.49-.42c.22-1.29.47-2.61.75-3.91a.5.5,0,0,0-1-.21c-.28,1.32-.54,2.65-.76,3.95A.5.5,0,0,0,454.73,133.77Z"/><path class="cls-2" d="M454.1,155.17c-.08-1.3-.12-2.64-.15-4a.5.5,0,1,0-1,0c0,1.35.07,2.7.15,4a.5.5,0,0,0,.5.47h0A.5.5,0,0,0,454.1,155.17Z"/><path class="cls-2" d="M454.18,161.67a.5.5,0,0,0-.43.56c.17,1.32.38,2.66.6,4a.5.5,0,0,0,.49.42h.09a.5.5,0,0,0,.41-.58c-.23-1.3-.43-2.63-.6-3.94A.5.5,0,0,0,454.18,161.67Z"/><path class="cls-2" d="M456.78,172.85a.5.5,0,1,0-1,.24c.32,1.3.68,2.61,1.05,3.88a.5.5,0,0,0,.48.36l.14,0a.5.5,0,0,0,.34-.62C457.45,175.43,457.1,174.14,456.78,172.85Z"/><path class="cls-2" d="M464.45,193.28a.5.5,0,1,0-.89.46c.6,1.18,1.25,2.37,1.91,3.53a.5.5,0,0,0,.87-.49C465.68,195.62,465,194.44,464.45,193.28Z"/><path class="cls-2" d="M462.81,108.08a.5.5,0,0,0-.67.24c-.57,1.21-1.12,2.45-1.64,3.68a.5.5,0,0,0,.92.39c.51-1.22,1.06-2.45,1.63-3.64A.5.5,0,0,0,462.81,108.08Z"/><path class="cls-2" d="M460,183.29a.5.5,0,0,0-.94.35c.46,1.24,1,2.49,1.49,3.72a.5.5,0,0,0,.46.3.49.49,0,0,0,.2,0,.5.5,0,0,0,.26-.66C461,185.76,460.49,184.52,460,183.29Z"/><path class="cls-2" d="M458.64,118.27a.5.5,0,0,0-.63.31c-.43,1.27-.83,2.56-1.21,3.84a.5.5,0,0,0,.34.62l.14,0a.5.5,0,0,0,.48-.36c.37-1.27.77-2.54,1.19-3.8A.5.5,0,0,0,458.64,118.27Z"/><path class="cls-2" d="M631.15,97.09a.5.5,0,0,0-.84.54c.72,1.12,1.42,2.26,2.09,3.38a.5.5,0,1,0,.86-.51C632.59,99.37,631.88,98.22,631.15,97.09Z"/><path class="cls-2" d="M636.61,106.69a.5.5,0,1,0-.9.44c.59,1.19,1.15,2.4,1.69,3.6a.5.5,0,0,0,.91-.41C637.77,109.11,637.2,107.89,636.61,106.69Z"/><path class="cls-2" d="M624.64,88.17a.5.5,0,0,0-.77.63c.83,1,1.66,2.06,2.46,3.13a.5.5,0,0,0,.4.2.49.49,0,0,0,.3-.1.5.5,0,0,0,.1-.7C626.31,90.26,625.47,89.19,624.64,88.17Z"/><path class="cls-2" d="M624,210.26c-.84,1-1.71,2-2.58,3a.5.5,0,1,0,.75.66c.88-1,1.76-2,2.61-3.06a.5.5,0,1,0-.77-.63Z"/><path class="cls-2" d="M645.54,160.07a.5.5,0,0,0-.55.44c-.15,1.31-.33,2.64-.53,3.94a.5.5,0,0,0,.42.57H645a.5.5,0,0,0,.49-.42c.21-1.32.38-2.66.54-4A.5.5,0,0,0,645.54,160.07Z"/><path class="cls-2" d="M646.1,148.88a.5.5,0,0,0-.5.5v.21c0,1.32,0,2.66-.08,4a.5.5,0,0,0,.48.52h0a.5.5,0,0,0,.5-.48c.05-1.33.08-2.69.08-4v-.21A.5.5,0,0,0,646.1,148.88Z"/><path class="cls-2" d="M642.21,120.66c-.4-1.27-.83-2.56-1.28-3.81a.5.5,0,1,0-.94.34c.45,1.24.87,2.51,1.27,3.77a.5.5,0,0,0,.48.35l.15,0A.5.5,0,0,0,642.21,120.66Z"/><path class="cls-2" d="M643.74,170.92a.5.5,0,0,0-.6.37c-.3,1.29-.63,2.58-1,3.86a.5.5,0,0,0,.35.62l.13,0a.5.5,0,0,0,.48-.37c.35-1.29.69-2.6,1-3.9A.5.5,0,0,0,643.74,170.92Z"/><path class="cls-2" d="M561.89,53.51c-1.33-.17-2.67-.31-4-.42a.52.52,0,0,0-.54.46.5.5,0,0,0,.46.54c1.31.11,2.64.25,4,.41h.06a.5.5,0,0,0,.06-1Z"/><path class="cls-2" d="M572.76,55.5c-1.3-.32-2.62-.61-3.93-.87a.5.5,0,0,0-.2,1c1.29.26,2.6.55,3.88.86h.12a.5.5,0,0,0,.12-1Z"/><path class="cls-2" d="M558,245.07c-1.31.11-2.65.2-4,.26a.5.5,0,0,0,0,1h0c1.34-.06,2.69-.15,4-.26a.5.5,0,0,0-.09-1Z"/><path class="cls-2" d="M550.86,52.76h-1.09c-1,0-2,0-2.93,0a.5.5,0,0,0,0,1h0q1.42,0,2.85,0h1.13a.5.5,0,0,0,0-1Z"/><path class="cls-2" d="M583.34,58.73c-1.25-.46-2.54-.91-3.81-1.32a.5.5,0,0,0-.31,1c1.26.41,2.53.85,3.77,1.3a.5.5,0,0,0,.35-.94Z"/><path class="cls-2" d="M589.61,236.77c-1.2.55-2.42,1.08-3.64,1.58a.5.5,0,0,0,.38.93c1.23-.5,2.47-1,3.68-1.59a.5.5,0,0,0-.42-.91Z"/><path class="cls-2" d="M608.29,225.49c-1,.81-2.12,1.61-3.2,2.36a.5.5,0,0,0,.29.91.5.5,0,0,0,.29-.09c1.08-.77,2.17-1.57,3.23-2.39a.5.5,0,1,0-.61-.79Z"/><path class="cls-2" d="M593.49,63.16c-1.19-.6-2.41-1.19-3.63-1.75a.5.5,0,1,0-.41.91c1.21.55,2.41,1.13,3.59,1.73a.5.5,0,1,0,.45-.89Z"/><path class="cls-2" d="M599.27,231.66c-1.13.68-2.29,1.35-3.44,2a.5.5,0,0,0,.48.88c1.17-.64,2.34-1.32,3.48-2a.5.5,0,1,0-.52-.86Z"/><path class="cls-2" d="M616.56,218.32c-.93.91-1.91,1.82-2.91,2.71a.5.5,0,1,0,.67.74c1-.9,2-1.82,2.94-2.74a.5.5,0,1,0-.7-.72Z"/></g><rect class="cls-9" x="557.35" y="133.88" width="3.6" height="1.28" rx="0.64" ry="0.64" transform="translate(23.07 342.76) rotate(-34.76)"/><rect class="cls-9" x="555.85" y="130.66" width="3.6" height="1.28" rx="0.64" ry="0.64" transform="translate(-11.66 67.3) rotate(-6.83)"/><rect class="cls-9" x="557.2" y="125.96" width="1.28" height="3.6" rx="0.64" ry="0.64" transform="translate(237.94 602.27) rotate(-68.91)"/><rect class="cls-9" x="559.02" y="122.91" width="1.28" height="3.6" rx="0.64" ry="0.64" transform="translate(55.43 397.69) rotate(-40.99)"/><rect class="cls-9" x="562.06" y="121.07" width="1.28" height="3.6" rx="0.64" ry="0.64" transform="translate(-13.21 130.44) rotate(-13.07)"/><rect class="cls-9" x="564.45" y="122.03" width="3.6" height="1.28" rx="0.64" ry="0.64" transform="translate(302.55 638.56) rotate(-75.15)"/><rect class="cls-9" x="567.68" y="123.51" width="3.6" height="1.28" rx="0.64" ry="0.64" transform="translate(91.63 457.88) rotate(-47.23)"/><rect class="cls-9" x="569.83" y="126.33" width="3.6" height="1.28" rx="0.64" ry="0.64" transform="translate(-9.83 196.15) rotate(-19.31)"/><rect class="cls-9" x="571.58" y="128.68" width="1.28" height="3.6" rx="0.64" ry="0.64" transform="translate(357.51 676.7) rotate(-81.39)"/><rect class="cls-9" x="570.46" y="132.05" width="1.28" height="3.6" rx="0.64" ry="0.64" transform="translate(123.57 513.04) rotate(-53.47)"/><path class="cls-9" d="M566.07,141l-.1.28a1.08,1.08,0,0,1-2.08,0l-.1-.28h2.28m.73-.75h-3.73a.64.64,0,1,0,0,1.28h.12a1.83,1.83,0,0,0,3.49,0h.12a.64.64,0,1,0,0-1.28Z"/><path class="cls-9" d="M566.79,138.36h-3.73a.64.64,0,1,0,0,1.28h3.73a.64.64,0,0,0,0-1.28Z"/><path class="cls-9" d="M564.93,125.67a4.38,4.38,0,0,1,4.31,4.37,8.63,8.63,0,0,1-1.21,3.53,12.08,12.08,0,0,0-1.29,3.39h-3.63a12.08,12.08,0,0,0-1.29-3.39,8.63,8.63,0,0,1-1.21-3.53,4.38,4.38,0,0,1,4.31-4.37m0-.75a5.12,5.12,0,0,0-5.06,5.12c0,2.56,2.56,5.16,2.56,7.68h5c0-2.52,2.56-5.12,2.56-7.68a5.12,5.12,0,0,0-5.06-5.12Z"/><rect class="cls-14" x="580.11" y="222.65" width="2.36" height="26.18" transform="translate(1162.58 471.48) rotate(-180)"/><polygon class="cls-14" points="571.04 250.23 581.06 249.3 590.93 250.29 591.12 248.37 581.26 247.37 571.23 248.3 571.04 250.23"/><circle class="cls-14" cx="591.3" cy="249.33" r="2.31"/><circle class="cls-14" cx="571.04" cy="249.33" r="2.31"/><rect class="cls-14" x="567.68" y="220.54" width="27.27" height="6.79" rx="1.93" ry="1.93" transform="translate(1172.63 419.96) rotate(177.27)"/><ellipse class="cls-15" cx="564.93" cy="162.04" rx="8.07" ry="12.53" transform="translate(-17.84 86.01) rotate(-8.57)"/><path class="cls-15" d="M564.1,220.37c3.41-1,14.84-1.22,23.41-3.93s2.53-32.86-4.05-38.17c-8.1-6.54-27.53,4.24-30.3,5-1.87.5-7.73-.31-11.31-.89a3.21,3.21,0,0,0-3.62,2.36h0a3.22,3.22,0,0,0,2.32,3.93c3.12.79,7.83,2,10.58,2.65,4.39,1.06,13.44-3.08,15.56-1.92s2.78,14.31,2.41,16.24-12.73,4.09-15.55,7.69c-1.78,2.27-2.53,30.46-2.53,30.46-1.34,2.36-7.26,3.39-6.52,5.83s12.61-.6,13.35-1.81S560.69,221.39,564.1,220.37Z"/><path class="cls-2" d="M512.22,188.91a.17.17,0,1,1-.21.12A.17.17,0,0,1,512.22,188.91Z"/><path class="cls-2" d="M515.8,188.11h-.16v0a.38.38,0,0,0-.38-.38h-1.49c-.11-.34-.29-.42-.43-.43s-.7.31-.89,1.16l.53.67a.15.15,0,0,1,0,.13l-.34,1.31a.15.15,0,0,1-.18.11l-1.33-.35a.15.15,0,0,1-.11-.18l.34-1.31a.15.15,0,0,1,.09-.1l.79-.33a2,2,0,0,1,.24-.68h-2a.38.38,0,0,0-.38.38v3.4a1.44,1.44,0,0,0,1.41,1.43.57.57,0,0,0,.54.37h1.64a.57.57,0,0,0,.54-.37,1.44,1.44,0,0,0,1.39-1.18h.19a1.3,1.3,0,0,0,1.3-1.3v-1A1.3,1.3,0,0,0,515.8,188.11Zm-2.83-.43a.47.47,0,0,1,.35-.22c.1,0,.17.11.22.22Zm3.37,2.73a.54.54,0,0,1-.54.54h-.16v-2.08h.16a.54.54,0,0,1,.54.54Z"/><path class="cls-2" d="M525,191.33h19.13a1.81,1.81,0,0,1,1.81,1.81v0a0,0,0,0,1,0,0H523.2a0,0,0,0,1,0,0v0A1.81,1.81,0,0,1,525,191.33Z" transform="translate(1069.14 384.51) rotate(-180)"/><rect class="cls-2" x="521.26" y="169.87" width="0.81" height="20.98" rx="0.4" ry="0.4" transform="translate(1065.71 273.48) rotate(170.64)"/><path class="cls-2" d="M489,197.81h9.72v52.69h42.46V197.81h7.1a1.52,1.52,0,1,0,0-3H489a1.52,1.52,0,1,0,0,3Zm0-.92a.6.6,0,1,1,0-1.21h59.28a.6.6,0,0,1,0,1.21h-8v52.69H499.61V196.9Z"/><polygon class="cls-16" points="476.2 138.83 470.98 133.63 472.14 132.48 477.35 137.68 476.2 138.83"/><path class="cls-17" d="M468.66,114.39v20.49a1.37,1.37,0,0,1-1.37,1.37H448.54a1.37,1.37,0,0,1-1.37-1.37v-25.5a1.37,1.37,0,0,1,1.37-1.37H462.2"/><path class="cls-16" d="M468.65,114.34h-5.1a1.37,1.37,0,0,1-1.37-1.37v-5"/><path class="cls-16" d="M462.66,129.45a5.75,5.75,0,1,1,5.74,5.76,5.76,5.76,0,0,1-5.74-5.76Z"/><path class="cls-18" d="M464.34,129.34a4,4,0,1,1,4,4,4,4,0,0,1-4-4Z"/><path class="cls-18" d="M461.9,120a.52.52,0,0,0-.28-.47L454.74,116a.52.52,0,0,0-.76.46v7.06a.52.52,0,0,0,.76.47l6.88-3.52a.52.52,0,0,0,.28-.46Z"/><line class="cls-19" x1="462.33" y1="108.07" x2="468.63" y2="114.38"/><line class="cls-20" x1="446.91" y1="131.69" x2="460.31" y2="131.69"/><line class="cls-20" x1="466.34" y1="116.28" x2="466.34" y2="121.88"/><path class="cls-17" d="M455,189h0c-.76-.32-2.55-.94-3.65-1.26-.1,0-.11,0-.11-.43a2.27,2.27,0,0,1,.26-.93,4.69,4.69,0,0,0,.37-1.26,2.82,2.82,0,0,0,.54-1.31,1.73,1.73,0,0,0,0-1.1l0-.07a7.21,7.21,0,0,1,.12-1.55,2.83,2.83,0,0,0-.6-2,3.05,3.05,0,0,0-2.33-1.12h-.7A3,3,0,0,0,446.6,179a2.84,2.84,0,0,0-.6,2,7.26,7.26,0,0,1,.12,1.55l0,.07a1.72,1.72,0,0,0,0,1.1,2.84,2.84,0,0,0,.54,1.31,4.76,4.76,0,0,0,.37,1.26,2.23,2.23,0,0,1,.15.94c0,.39,0,.4-.1.43-1.14.34-3,1-3.65,1.29v2.86H455Z"/><path class="cls-17" d="M477.23,189h0c-.76-.32-2.55-.94-3.65-1.26-.1,0-.11,0-.11-.43a2.27,2.27,0,0,1,.26-.93,4.69,4.69,0,0,0,.37-1.26,2.82,2.82,0,0,0,.54-1.31,1.73,1.73,0,0,0,0-1.1l0-.07a7.21,7.21,0,0,1,.12-1.55,2.83,2.83,0,0,0-.6-2,3.05,3.05,0,0,0-2.33-1.12h-.7a3,3,0,0,0-2.31,1.12,2.84,2.84,0,0,0-.6,2,7.26,7.26,0,0,1,.12,1.55l0,.07a1.72,1.72,0,0,0,0,1.1,2.84,2.84,0,0,0,.54,1.31,4.76,4.76,0,0,0,.37,1.26,2.23,2.23,0,0,1,.15.94c0,.39,0,.4-.1.43-1.14.34-3,1-3.65,1.29v2.86h11.66Z"/><path class="cls-17" d="M468.41,193h0c-1.06-.44-3.58-1.32-5.13-1.78-.13,0-.15,0-.15-.6a3.19,3.19,0,0,1,.37-1.3,6.61,6.61,0,0,0,.52-1.77,4,4,0,0,0,.76-1.84,2.43,2.43,0,0,0,0-1.55l0-.1a10.13,10.13,0,0,1,.17-2.18A4,4,0,0,0,464,179a4.29,4.29,0,0,0-3.28-1.57h-1a4.27,4.27,0,0,0-3.25,1.57,4,4,0,0,0-.84,2.88,10.22,10.22,0,0,1,.17,2.17l0,.1a2.43,2.43,0,0,0,0,1.55,4,4,0,0,0,.76,1.84,6.69,6.69,0,0,0,.52,1.77,3.14,3.14,0,0,1,.21,1.32c0,.55,0,.56-.15.6-1.61.48-4.17,1.4-5.12,1.82l0,0v4h16.39Z"/><path class="cls-16" d="M653.28,126.2,643,123.26a1.85,1.85,0,0,0-2.28,1.27l-6,20.82a1.85,1.85,0,0,0,1.26,2.28l10.25,2.94a1.84,1.84,0,0,0,2.28-1.26l6-20.82a1.85,1.85,0,0,0-1.26-2.28m-1.49.78a.47.47,0,1,1-.58.32.47.47,0,0,1,.58-.32m-6.38-1.64,4.75,1.36-.15.52-4.75-1.36ZM641.48,148a1.24,1.24,0,1,1,1.53-.85,1.24,1.24,0,0,1-1.53.85m6.59-2-11.14-3.19,4.8-16.75,11.14,3.19Z"/><path class="cls-17" d="M548.82,44.85H522.13A4.11,4.11,0,0,0,518,49V63.32a4.11,4.11,0,0,0,4.11,4.11h2.05v7.18a1,1,0,0,0,1.75.73l8.51-7.91h14.37a4.11,4.11,0,0,0,4.11-4.11V49a4.11,4.11,0,0,0-4.11-4.11M525.21,51h16.42a1,1,0,1,1,0,2.05H525.21a1,1,0,0,1,0-2.05m8.21,10.26h-8.21a1,1,0,0,1,0-2.05h8.21a1,1,0,1,1,0,2.05m12.32-4.1H525.21a1,1,0,0,1,0-2.05h20.53a1,1,0,1,1,0,2.05"/><path class="cls-17" d="M509.9,55.54H493a2.6,2.6,0,0,0-2.6,2.6v9.1a2.6,2.6,0,0,0,2.6,2.6h9.1l5.39,5a.65.65,0,0,0,1.11-.46V69.84h1.3a2.6,2.6,0,0,0,2.6-2.6v-9.1A2.6,2.6,0,0,0,509.9,55.54Zm-2,10.4h-5.2a.65.65,0,1,1,0-1.3h5.2a.65.65,0,0,1,0,1.3Zm0-2.6h-13a.65.65,0,1,1,0-1.3h13a.65.65,0,0,1,0,1.3Zm0-2.6h-10.4a.65.65,0,1,1,0-1.3h10.4a.65.65,0,0,1,0,1.3Z"/><path class="cls-17" d="M656.63,122.09a1.51,1.51,0,1,0,.55,2.06,1.51,1.51,0,0,0-.55-2.06"/><path class="cls-17" d="M654.57,118.44l.09,0,.09,0h0a4.93,4.93,0,0,1,5.81,3.55l.08.3.11.41a.95.95,0,0,1-1.83.49l-.19-.71a3,3,0,0,0-3.72-2.15l-.51.13A.94.94,0,0,1,653.5,119a.92.92,0,0,1,.57-.43Z"/><path class="cls-17" d="M653.28,115.53l.43-.11h0l.34-.09.18,0a8.22,8.22,0,0,1,9.48,5.79l0,.06.21.77a.86.86,0,0,1-1.67.44l-.21-.77a0,0,0,0,0,0,0,6.49,6.49,0,0,0-7.73-4.53l-.61.16a.86.86,0,0,1-.44-1.67"/><path class="cls-16" d="M614.88,90.2H611a.26.26,0,0,1-.26-.26V89a.26.26,0,0,0-.26-.26H605a.26.26,0,0,0-.26.26v.95a.26.26,0,0,1-.26.26h-2.93a.26.26,0,0,0-.26.26v1.1a.26.26,0,0,0,.26.26h13.29a.26.26,0,0,0,.26-.26v-1.1a.26.26,0,0,0-.26-.26Zm0,0"/><path class="cls-16" d="M621.42,64.56H593.63a1.76,1.76,0,0,0-1.75,1.75v4.57c0,.6,0,.69.36.69h.7c.34,0,.27-.09.27-.7V66.31a.43.43,0,0,1,.43-.43h27.79a.43.43,0,0,1,.43.43V83.43H602s-.7,0-.7.9v2.14c0,.9.72.9.72.9h19.37a1.76,1.76,0,0,0,1.75-1.75V66.31a1.76,1.76,0,0,0-1.75-1.75Zm-13.9,21.31a.79.79,0,1,1,.79-.79.79.79,0,0,1-.79.79Zm0,0"/><path class="cls-16" d="M598.63,73.14H588.58a1.13,1.13,0,0,0-1.13,1.13V90.8a1.13,1.13,0,0,0,1.13,1.13h10.05a1.13,1.13,0,0,0,1.13-1.13V74.27a1.13,1.13,0,0,0-1.13-1.13Zm-6.27,1.15h2.48a.21.21,0,0,1,0,.43h-2.48a.21.21,0,0,1,0-.43Zm1.23,16.84a.59.59,0,1,1,.59-.59.59.59,0,0,1-.59.59Zm5.2-1.72a.27.27,0,0,1-.27.27h-9.84a.27.27,0,0,1-.27-.27V75.68a.27.27,0,0,1,.27-.27h9.84a.27.27,0,0,1,.27.27Zm0,0"/><g class="cls-21"><path class="cls-17" d="M614.82,77.78V74.46a1.9,1.9,0,0,0-.69-1.57,1.69,1.69,0,0,0-.74-.34h0l-1.77,0a11.28,11.28,0,0,0-.07-2.16.84.84,0,0,0-.83-.66A1.32,1.32,0,0,0,610,70l-.09.06-1.78,2.59-2.87,1,0,4.62,3.31,1.92,4.92,0,.11,0A2.44,2.44,0,0,0,614.82,77.78Z"/><rect class="cls-17" x="601.81" y="73.35" width="2.87" height="5.45"/></g><path class="cls-16" d="M648.62,193a13.24,13.24,0,0,0-2.53-6.43A13.79,13.79,0,0,0,637,181c-.75-.13-1.52-.16-2.28-.24h-.15c-.71.08-1.43.13-2.13.24a14,14,0,0,0-11.68,15.3,14,14,0,0,0,15.37,12.48,13.35,13.35,0,0,0,8.27-3.84A13.75,13.75,0,0,0,648.62,193m-3,7.19a10.35,10.35,0,0,1-1-2.22c-.29-1.07-1,0-1,.66s-.52,1.22-1.46.17-1.11-.81-1.4-.81-.81.7-.7,4c.08,2.33,1,2.7,1.6,2.87a12,12,0,0,1-16.31-17.33c.07.52.13,1,.19,1.47a12,12,0,0,1-.23,3.84,1.87,1.87,0,0,0,0,.85.57.57,0,0,0,.41.33c.12,0,.33-.18.37-.32a3.55,3.55,0,0,0,.12-.81c0-.19,0-.39,0-.69.2.16.34.26.46.38.31.31.61.61.89.94a.9.9,0,0,1,.24.53,1.52,1.52,0,0,0,.36.93,5.37,5.37,0,0,1,.47,1.12c.06.16.07.34.14.49a.89.89,0,0,0,.78.58c.42,0,.58.19.64.62l-.32,0c-.51,0-.77.28-.75.8a3.67,3.67,0,0,0,1.17,2.63c.21.2.43.38.64.58a1.46,1.46,0,0,1,.4,1.64,5.1,5.1,0,0,0-.3.91,2.59,2.59,0,0,0,0,1c.08.32,0,1,.38,1,.59-.1.93,0,1-.65a.53.53,0,0,0,0-.26,4.09,4.09,0,0,1,1.1-2.71,12,12,0,0,0,1.19-.88,1.58,1.58,0,0,0,.55-1.77,1.4,1.4,0,0,1,.5-1.57,2,2,0,0,0,.75-1.6c0-.66-.47-1.15-1-1.08a4.3,4.3,0,0,0-.81.26,8.57,8.57,0,0,1-1.19.39c-.57.1-.92-.27-1.17-.72s-.27-.39-.63-.17-.6.38-.91.56-.5.11-.75-.16a2.41,2.41,0,0,0-.54-.39c-.14-.08-.32-.11-.43-.21s-.35-.35-.33-.5a.73.73,0,0,1,.41-.48,6.12,6.12,0,0,1,1-.22,3.36,3.36,0,0,0,.53-.15c.23-.09.22-.24,0-.39a1.17,1.17,0,0,0-.3-.16l-1.54-.61a2,2,0,0,1-.37-.19c-.32-.21-.36-.44-.07-.7,1.15-1,2.5-1.31,3.69,0,.37.42.62.94,1,1.38a5.41,5.41,0,0,0,.94.94.7.7,0,0,0,.63,0,.49.49,0,0,0,.13-.68,3.51,3.51,0,0,0-.37-.62,2.25,2.25,0,0,1,.7-3.28,1.93,1.93,0,0,0,1.1-1.13l-.62.17c-1,.31-.31-.44.16-.57.28-.08-.25-.3-.25-.3s.35-.12.73-.28a3.07,3.07,0,0,0,.74-.41,1.61,1.61,0,0,0,.29-.51l-.07-.08-.8.11c-.45.05-.56,0-.6-.49a.42.42,0,0,0-.64-.32c-.2.11-.37.27-.57.39-.45.29-.78.17-1-.32-.1-.3-.25-.35-.52-.19s-.25.2-.39.28a4.58,4.58,0,0,1-.71.34c-.24.08-.53.15-.69-.12a.54.54,0,0,1,.2-.73,6.33,6.33,0,0,1,.9-.56c.44-.25.9-.45,1.33-.72a.78.78,0,0,0,.35-.9.38.38,0,0,0-.6-.28c-.25.12-.46.31-.71.41a1.21,1.21,0,0,1-.61,0c-.07,0-.15-.22-.15-.33s.14-.19.22-.2q.92-.14,1.84-.25a.34.34,0,0,1,.26.11,3,3,0,0,0,1.57.94c.5.15.57.08.64-.45.64-.15,1.3-.45,1.95,0a6,6,0,0,1,1,.81c.08.07,0,.3,0,.45s-.16.38-.21.58a.52.52,0,0,0,.55.68l.38,0c.37,0,.5.12.47.5,0,.53,0,.59.57.5a1.07,1.07,0,0,1,.48.1,1.14,1.14,0,0,1,.25.18c.49.37.87.23,1-.38,0-.07,0-.14,0-.21.06-.28.21-.35.4-.15.39.42.76.86,1.16,1.31a1.31,1.31,0,0,0-.35,1.34,2.28,2.28,0,0,1-.24,1.43,10,10,0,0,0-.54,1.33c-.2.69,0,1,.73,1.16s.78.28.8.93a2.11,2.11,0,0,0,1.27,1.9c.17.09.36.15.54.23a11.07,11.07,0,0,1-1.15,4.16"/><path class="cls-15" d="M485.18,225.06a.14.14,0,0,0-.14-.16.06.06,0,0,0-.08-.05,7.86,7.86,0,0,0-3.41,2.13c-1,1.23-.88,2.89-.73,4.35a.16.16,0,0,0,0,.07,12.91,12.91,0,0,0-1,3.25,13.76,13.76,0,0,0-1.3-3.23,3.38,3.38,0,0,0-1.21-3.47c-1.25-1-2.85-.57-4.27-1.05a.06.06,0,0,0-.08,0h0a.1.1,0,0,0-.1.17c1.24.76,1.2,2.35,2.12,3.35s2.5.7,3.52,1.68l.13.27a24.52,24.52,0,0,1,1.5,5.48c0,.16.3.13.29,0a21.33,21.33,0,0,0-.47-2.69,20.48,20.48,0,0,1,1.34-3.91c1-.71,2.39-.49,3.21-1.65s.39-3,.64-4.51"/><path class="cls-17" d="M491,240.8c-.62-2.11-3.43-1.34-4.56-.23a.19.19,0,0,0,.25.29l.22.3,0,0c-.18.18.1.46.28.28a2.8,2.8,0,0,1,1.84-.85c1.41-.07,1,1.82.55,2.51a8,8,0,0,1-1.69,1.82c-.37.33-1.06.74-1.17,1.28-.19.94.82,1.37,1.62,1.16a.76.76,0,0,0,.51-.75.67.67,0,0,0-.53-.6C489.69,244.65,491.6,243,491,240.8Z"/><path class="cls-17" d="M469.26,240.8c.62-2.11,3.43-1.34,4.56-.23a.19.19,0,0,1-.25.29l-.22.3,0,0a.2.2,0,0,1-.28.28,2.8,2.8,0,0,0-1.84-.85c-1.41-.07-1,1.82-.54,2.51a8,8,0,0,0,1.69,1.82c.37.33,1.06.74,1.17,1.28.19.94-.82,1.37-1.62,1.16a.76.76,0,0,1-.51-.75.66.66,0,0,1,.53-.6C470.53,244.65,468.62,243,469.26,240.8Z"/><path class="cls-6" d="M486,239.31a2.55,2.55,0,0,1-.35-2.84c.5-.7,0-1.28-1.09-1.28H475.6c-1.1,0-1.58.59-1.08,1.3a2.6,2.6,0,0,1-.31,2.87,7.31,7.31,0,1,0,11.74-.07Z"/><path class="cls-19" d="M486,239.31a2.55,2.55,0,0,1-.35-2.84c.5-.7,0-1.28-1.09-1.28H475.6c-1.1,0-1.58.59-1.08,1.3a2.6,2.6,0,0,1-.31,2.87,7.31,7.31,0,1,0,11.74-.07Z"/><path class="cls-15" d="M479,221.71c1.39,2.34,1.07,4.63.63,7.18a19.22,19.22,0,0,0,.13,6.18c0,.3.5.17.45-.12a21,21,0,0,1,.13-7.32,8.63,8.63,0,0,0-.94-6.16.23.23,0,0,0-.41.24Z"/><path class="cls-9" d="M475.78,221.3a4.41,4.41,0,0,1-1.19-1.12,1,1,0,0,1-.08-1.35,1.05,1.05,0,0,1,0-.2.84.84,0,0,1,.26-.18c.13-.06.27-.06.39-.12l0,0a1.15,1.15,0,0,1,.72.16h0a.62.62,0,0,0,0,.12c-.26,1.08.75,2.5,1.56,3.05a2.32,2.32,0,0,0,.7.32,3.7,3.7,0,0,1-2.47-.65m3.08.8c.07.59-.41.85-.9,1a1.88,1.88,0,0,1,.6-.87l.3-.11a.15.15,0,0,0,0,0m1.08.59a1,1,0,0,1-.7-.68v0l.25-.07c.08.1.18.18.24.29a1.59,1.59,0,0,1,.21.49m-.2-1.28a.09.09,0,0,0-.05,0l-.15.11h0a.12.12,0,0,0-.14.09c-1.3.58-3.06-1.38-3.13-3,.06-.39.22-.76.67-.83a1.17,1.17,0,0,1,.91.33.13.13,0,0,0,.14.13l0,0a.09.09,0,0,0,.14-.1l0,0h0a4.18,4.18,0,0,1,.22-.69q1.09-1,1.59,0a3.1,3.1,0,0,1,.38,1.31,5.34,5.34,0,0,1-.29,2.22,1.8,1.8,0,0,1-.26.31h0m1.53.14a1.88,1.88,0,0,1-1.39.15,1.36,1.36,0,0,0,.23-.22l.06,0a.15.15,0,0,0,.12,0,.93.93,0,0,1,1,.08m.19-2.33a6.38,6.38,0,0,1-1.07,1.74l0-.06a.11.11,0,0,0-.07-.13,3.67,3.67,0,0,0-.33-3.63l-.06-.06h0q1.12-1.39,1.76,0a2.22,2.22,0,0,1,.09,1.07,3.65,3.65,0,0,1-.34,1"/><path class="cls-9" d="M479.66,216.83h0a2.76,2.76,0,0,1-.1-.76,2.57,2.57,0,0,1,.1-.53l.06,0c.39.06.81-.32.64-.71a.75.75,0,0,0-.9-.34l-.05,0a.43.43,0,0,0-.2.32.36.36,0,0,0,.11.34.58.58,0,0,0,.14.24,1.81,1.81,0,0,0,0,1.3c-.7-.27-1.29.45-1.55,1.23h0c-.14-.51-.29-1-.45-1.52a.63.63,0,0,0,.25-.22.62.62,0,0,0,.05-.61.45.45,0,0,0-.55-.16.65.65,0,0,0-.48.43.51.51,0,0,0,0,.2.12.12,0,0,0,0,.18.64.64,0,0,0,.59.24,6.65,6.65,0,0,0,.39,1.26,1.1,1.1,0,0,0-.86-.14,1.12,1.12,0,0,0-.62.45,2.09,2.09,0,0,0-.84-1,.51.51,0,0,0-.3-.75.54.54,0,0,0-.54.21.43.43,0,0,0,0,.43.37.37,0,0,0,0,.11.46.46,0,0,0,.57.27l.11-.05a3,3,0,0,1,.43.3,2.53,2.53,0,0,1,.46.58c-1.46-.72-2.57.68-1.74,2a4.3,4.3,0,0,0,3.82,2.05,2,2,0,0,0-.48.94.16.16,0,0,0,.17.19,2.05,2.05,0,0,0,1.28-.6l.14-.27,0-.07a1.22,1.22,0,0,0,1,.57.17.17,0,0,0,.16-.18,1.93,1.93,0,0,0-.25-.79L480,222a2.09,2.09,0,0,0,1.63-.26.18.18,0,0,0,0-.25,1.2,1.2,0,0,0-.92-.5,6.57,6.57,0,0,0,.88-1.35,3.32,3.32,0,0,0,.44-2.51c-.36-1.17-2.24-1.68-2.43-.3m-.8,5.27c.07.59-.41.85-.9,1a1.88,1.88,0,0,1,.6-.87l.3-.11a.12.12,0,0,0,0,0m1.08.59a1,1,0,0,1-.7-.68v0l.25-.07c.08.1.18.18.24.29a1.59,1.59,0,0,1,.21.49m1.32-1.15a1.87,1.87,0,0,1-1.39.15,1.34,1.34,0,0,0,.23-.22l.06,0a.15.15,0,0,0,.12,0,.93.93,0,0,1,1,.08"/></svg>