<svg id="Layer_1" data-name="Layer 1" xmlns="http://www.w3.org/2000/svg" viewBox="0 0 60 75"><defs><style>.cls-1{fill:#c3f1fc;}.cls-2{fill:#fad264;}.cls-3{fill:#3273ad;}</style></defs><title>lesson-end</title><polygon class="cls-1" points="40.23 17.94 46.09 17.94 46.09 23.2 49.25 23.2 49.25 28.97 39.78 28.97 41.98 23.2 38.17 23.2 40.23 17.94"/><polygon class="cls-1" points="34.93 28.97 10.75 28.97 10.75 23.2 13.86 23.2 14.06 17.94 35.61 17.94 33.81 23.2 37.15 23.2 34.93 28.97"/><polygon class="cls-2" points="17.94 65.54 18.72 72.67 41.28 72.67 42.05 65.63 17.94 65.54"/><path class="cls-3" d="M46.54,28.57a.6.6,0,0,0-.45-.2H40l-.46,1.2h5.87l-4.68,42.5H19.26l-4.68-42.5H35.94l.46-1.2H13.91a.6.6,0,0,0-.6.67l4.81,43.7a.6.6,0,0,0,.6.54H41.28a.6.6,0,0,0,.6-.54L46.69,29A.6.6,0,0,0,46.54,28.57Z"/><path class="cls-3" d="M11.2,28.37V23.8h2.71a.6.6,0,0,0,.6-.6V18.54H35.56a.6.6,0,0,0,0-1.2H13.91a.6.6,0,0,0-.6.6V22.6H10.6a.6.6,0,0,0-.6.6V29a.6.6,0,0,0,.6.6H35.94l.46-1.2Z"/><path class="cls-3" d="M49.4,22.6H17.22a.6.6,0,0,0,0,1.2H48.8v4.57H40l-.46,1.2H49.4A.6.6,0,0,0,50,29V23.2A.6.6,0,0,0,49.4,22.6Z"/><path class="cls-3" d="M46.09,23.8a.6.6,0,0,1-.6-.6V18.54H40.23a.6.6,0,0,1,0-1.2h5.86a.6.6,0,0,1,.6.6V23.2A.6.6,0,0,1,46.09,23.8Z"/><path class="cls-3" d="M45.31,2.06,18.59,71.36a.6.6,0,0,0,.34.78.59.59,0,0,0,.22,0,.6.6,0,0,0,.56-.39L46.65,1.91a.59.59,0,0,0,0-.19Z"/></svg>