<svg id="Layer_1" data-name="Layer 1" xmlns="http://www.w3.org/2000/svg" viewBox="0 0 721 300"><defs><style>.cls-1{fill:#c3f1fc;}.cls-2{fill:#fad264;}.cls-3{fill:#92e7f4;}.cls-4{fill:#fff;}.cls-5{fill:#3273ad;}.cls-6{fill:#eff5f8;}.cls-7{fill:#0f9d58;}.cls-8{fill:#1f9356;}.cls-9{fill:#32b475;}.cls-10{fill:#e3b462;}.cls-11{fill:#349b67;}.cls-12{fill:#0aa5e3;}.cls-13{fill:#cdebfc;}</style></defs><title>lets-begin-illustration</title><path class="cls-1" d="M395.59,164a1.2,1.2,0,0,1,.34-.19l9.77-3.53a1.2,1.2,0,1,1,.82,2.27l-9.77,3.53a1.2,1.2,0,0,1-1.16-2.08Z"/><path class="cls-1" d="M389.66,140.53a1.2,1.2,0,0,1,1.75,1.62l-5.81,8.63a1.2,1.2,0,1,1-2-1.35l5.81-8.63A1.17,1.17,0,0,1,389.66,140.53Z"/><path class="cls-1" d="M365.13,133.49a1.21,1.21,0,0,1,2,.9l.42,10.46a1.2,1.2,0,0,1-2.41.1l-.42-10.46A1.2,1.2,0,0,1,365.13,133.49Z"/><path class="cls-1" d="M341.09,142.15a1.2,1.2,0,0,1,1.69.2l6.56,8.3a1.21,1.21,0,0,1-1.89,1.49l-6.56-8.3A1.2,1.2,0,0,1,341.09,142.15Z"/><path class="cls-1" d="M326.78,163.35a1.2,1.2,0,0,1,1.08-.21l10.23,2.93a1.21,1.21,0,0,1-.66,2.32l-10.23-2.93a1.21,1.21,0,0,1-.41-2.1Z"/><circle class="cls-2" cx="367.25" cy="178.34" r="24.5"/><path class="cls-1" d="M541.75,254.26l-62.47-74.43,14-22s10.28-19.84,25.34,0,55.83,71.1,55.83,71.1l31.08,25.65-63.75-.29"/><polygon class="cls-3" points="483.15 173.72 537.08 236.6 534.52 240.19 480.5 177.91 483.15 173.72"/><path class="cls-4" d="M527.92,170.72l-7.69-10.6a29.29,29.29,0,0,0-3.27-4.22c-2.29-2.46-6.58-7.08-10.13-6.93a14.84,14.84,0,0,0-10.12,4.15l-12.8,19s.81,2,5.35-4.15,5.82-4.06,5.82-4.06l1.36,6.7s2.45,3.07,4.91-1.17,3.32-7.35,6.25-4.09c0,0,2.69,4.7,3.66,5.17s4.32,1.4,4.3-3.3,3.64-1.93,4.53-1.18S525.64,171.39,527.92,170.72Z"/><path class="cls-5" d="M574.42,229.39a.5.5,0,0,1-.39-.19c-.41-.51-40.95-51.5-55.84-71.11-4.61-6.08-9.22-9-13.64-8.58-6.67.57-10.82,8.43-10.86,8.51l-14,22.08a.5.5,0,1,1-.85-.54l14-22c.16-.31,4.43-8.39,11.64-9,4.81-.42,9.69,2.61,14.52,9,14.88,19.6,55.42,70.58,55.83,71.09a.5.5,0,0,1-.39.81Z"/><path class="cls-1" d="M605.53,254.26s-9.78-13.84-23.78-35.63-27.47-7.18-31.16-1.47c-3.93,6.07-16.06,23-16.06,23"/><path class="cls-5" d="M484.07,172.77a.5.5,0,0,1-.06-1c1.78-.21,3.85-2.87,5.68-5.22s3.54-4.51,5.08-4.44,1.81,2.24,2,4.3c.2,2.59.48,4.29,1.89,4.16,1.75-.12,2.88-2.34,3.88-4.3s2-3.77,3.5-3.69,2.39,1.75,3.35,3.51c1.05,1.93,2.18,3.94,3.91,3.87,1.5,0,1.75-1.42,2-3.53.16-1.62.33-3.44,2-3.38,1.39.07,2.92,1.47,4.69,3.1s4.08,3.73,6,3.75a.5.5,0,0,1,0,1h0c-2.27,0-4.59-2.14-6.63-4-1.49-1.37-3-2.78-4.07-2.84h0c-.64,0-.79.8-.95,2.47-.18,1.84-.42,4.37-2.92,4.43s-3.68-2.29-4.82-4.39c-.82-1.51-1.6-2.94-2.53-3s-1.71,1.5-2.56,3.15c-1.12,2.19-2.39,4.68-4.69,4.84-2.57.18-2.78-2.73-3-5.08-.13-1.63-.26-3.33-1-3.38-1-.06-2.71,2.12-4.22,4.05-2,2.63-4.16,5.35-6.35,5.6Z"/><path class="cls-6" d="M482,134.92H433.74a3.63,3.63,0,0,0,0,7.25h12.38a3.63,3.63,0,0,1,0,7.25h-7.75a3.63,3.63,0,0,0,0,7.25h31.25a3.62,3.62,0,0,0,0-7.25h-5.25a3.62,3.62,0,0,1,0-7.25H482a3.62,3.62,0,0,0,0-7.25Z"/><path class="cls-6" d="M509.49,137h48.25a3.63,3.63,0,0,0,0-7.25H545.36a3.62,3.62,0,0,1,0-7.25h7.75a3.63,3.63,0,0,0,0-7.25H521.86a3.62,3.62,0,0,0,0,7.25h5.25a3.62,3.62,0,1,1,0,7.25H509.49a3.63,3.63,0,0,0,0,7.25Z"/><path class="cls-6" d="M342.78,127.92H301.53a3.63,3.63,0,1,0,0,7.25h5.38a3.62,3.62,0,0,1,0,7.25H295.16a3.62,3.62,0,0,0,0,7.25h41.25a3.63,3.63,0,0,0,0-7.25H325.16a3.63,3.63,0,0,1,0-7.25h17.63a3.63,3.63,0,0,0,0-7.25Z"/><path class="cls-6" d="M164.81,188.8h28.48a2.14,2.14,0,0,0,0-4.28H186a2.14,2.14,0,1,1,0-4.28h4.57a2.14,2.14,0,1,0,0-4.28H172.12a2.14,2.14,0,0,0,0,4.28h3.1a2.14,2.14,0,0,1,0,4.28h-10.4a2.14,2.14,0,0,0,0,4.28Z"/><path class="cls-6" d="M251.53,96.84H224a2.42,2.42,0,1,0,0,4.83h3.58a2.42,2.42,0,1,1,0,4.83h-7.83a2.42,2.42,0,0,0,0,4.83h27.5a2.42,2.42,0,0,0,0-4.83h-7.5a2.42,2.42,0,1,1,0-4.83h11.75a2.42,2.42,0,0,0,0-4.83Z"/><path class="cls-1" d="M367.07,196.24l41.6-57.33s18.78-25.68,38.25-.06l64.3,74.81,4.15,4.42L547.42,255H348.25l-25-.81Z"/><polygon class="cls-3" points="370.38 191.67 390.02 214.62 388.03 217.49 368.91 193.7 370.38 191.67"/><polygon class="cls-3" points="547.01 254.28 549.94 254.29 536.75 237.93 534.52 240.19 547.01 254.28"/><path class="cls-4" d="M391.91,162l13.46-18.55a51.28,51.28,0,0,1,5.72-7.39c4-4.31,9.77-8.86,16-8.62,11.68.46,15,5.93,15,5.93l26.87,31s-1.43,3.46-9.36-7.27-10.2-7.11-10.2-7.11L447,161.75s-4.29,5.38-8.59-2-5.81-12.86-11-7.16c0,0-4.71,8.23-6.41,9.05s-7.57,2.46-7.52-5.78-6.38-3.39-7.93-2.07S395.9,163.18,391.91,162Z"/><path class="cls-5" d="M547.42,255.63a.5.5,0,0,1-.38-.17L446.58,139.11c-5.71-7.51-11.82-11.28-18.33-11.21-10.86.1-19,11.07-19.09,11.18l-41.51,57.21a.5.5,0,1,1-.81-.59l41.51-57.21c.34-.47,8.53-11.49,19.89-11.59,6.83,0,13.23,3.83,19.12,11.58L547.8,254.8a.5.5,0,0,1-.38.83Z"/><path class="cls-5" d="M469.75,166.16h-.06c-3.72-.42-7.43-5-11-9.37-2.86-3.51-5.8-7.13-7.83-7-1.74.12-2,3-2.21,6.06-.32,4-.69,8.61-4.85,8.3-3.87-.26-6.07-4.38-8-8-1.55-2.9-3-5.64-4.91-5.54s-3.3,2.61-4.81,5.26c-2,3.46-4.21,7.38-8.2,7.25s-4.48-4-4.8-7.2c-.29-2.85-.56-4.6-2.17-4.51-2,.1-4.64,2.44-7.47,4.91-3.58,3.13-7.63,6.68-11.5,6.71a.49.49,0,0,1-.5-.5.5.5,0,0,1,.5-.5c3.5,0,7.41-3.44,10.85-6.46,3.09-2.7,5.76-5,8.08-5.16,2.63-.13,2.94,2.69,3.21,5.41.38,3.76.85,6.23,3.83,6.3H418c3.3,0,5.26-3.43,7.16-6.75,1.65-2.89,3.21-5.63,5.63-5.77s4.14,2.87,5.85,6.07c1.82,3.4,3.88,7.26,7.2,7.48,3,.24,3.41-2.78,3.78-7.38.28-3.5.55-6.8,3.14-7s5.37,3.33,8.67,7.38,7,8.63,10.35,9a.5.5,0,0,1-.05,1Z"/><path class="cls-3" d="M505,256.26l-55.74-57.88s-10.57-17-25.58-12.12"/><path class="cls-6" d="M300.23,59.71h39.94a2.48,2.48,0,0,1,0,5h-15.4a2.48,2.48,0,0,0,0,5h8a2.48,2.48,0,0,1,0,5H304.59a2.48,2.48,0,0,1,0-5h7.69a2.48,2.48,0,0,0,0-5H300.23a2.48,2.48,0,1,1,0-5Z"/><path class="cls-1" d="M387.47,218.22l19.28-25s19-25,36.5,0l52.17,61.3"/><polygon class="cls-3" points="388.81 218.96 417.58 255 422.75 255 390.43 214.81 388.03 217.62 388.81 218.96"/><path class="cls-6" d="M415.1,96.65H375.16a2.48,2.48,0,1,0,0,5h15.4a2.48,2.48,0,0,1,0,5h-8a2.48,2.48,0,1,0,0,5h28.21a2.48,2.48,0,0,0,0-5H403a2.48,2.48,0,1,1,0-5H415.1a2.48,2.48,0,1,0,0-5Z"/><path class="cls-4" d="M402.6,198.63l7.65-9.13s9.83-8.27,15.44-7.35,8.63,1.43,15,8.21a141.44,141.44,0,0,1,9.81,11.41Z"/><path class="cls-4" d="M402.6,198.63s.65,10.87,10.65,6.87,8.25-4.25,12.5-1.25,9-.48,11-2.49,5,0,8.51,2.24,5.23-2.24,5.23-2.24"/><path class="cls-5" d="M409.23,206.88a6.25,6.25,0,0,1-3.42-.94c-3.37-2.13-3.7-7.07-3.71-7.28a.5.5,0,0,1,.47-.53.51.51,0,0,1,.53.47s.32,4.64,3.25,6.5c1.68,1.07,3.94,1,6.71-.06,1.7-.68,3.07-1.25,4.17-1.72,4.92-2.07,5.11-2.15,7.86-.15l.94.68c4.44,3.13,9.41-1.48,10.36-2.43,2.25-2.27,5.52-.16,9,2.07l.16.1a2.61,2.61,0,0,0,2.25.45c1.46-.47,2.24-2.43,2.25-2.45a.5.5,0,0,1,.93.36c0,.1-1,2.42-2.87,3a3.56,3.56,0,0,1-3.1-.56l-.16-.1c-3.24-2.09-6-3.9-7.73-2.21-1.05,1.06-6.55,6.14-11.64,2.54l-1-.68c-2.29-1.67-2.29-1.67-6.88.26-1.11.47-2.48,1-4.19,1.73A11.43,11.43,0,0,1,409.23,206.88Z"/><path class="cls-5" d="M495.42,255a.5.5,0,0,1-.38-.18l-52.17-61.29c-5-7.15-10.57-10.82-16.56-10.93-10.62-.21-19.08,10.8-19.16,10.91l-19.28,25a.5.5,0,1,1-.79-.61l19.28-25c.35-.46,8.72-11.31,19.65-11.31h.32c6.33.12,12.16,3.93,17.33,11.32l52.15,61.26a.5.5,0,0,1-.38.82Z"/><path class="cls-1" d="M116.75,254.41,257.42,109.74s23.83-27.33,44,0L417.58,254.26"/><path class="cls-4" d="M234.43,134l23.47-23.92s11.89-13.37,24.51-13.41c14.42,0,35.88,34.9,35.88,34.9"/><ellipse class="cls-7" cx="136.66" cy="180.61" rx="3.27" ry="5.08" transform="matrix(0.99, -0.13, 0.13, 0.99, -22.33, 19.31)"/><path class="cls-7" d="M151.13,213.35c-.46-.84.59-3.45.1-7.2-.33-2.51-2.75-3.41-7.74-4.4a1.36,1.36,0,0,1-1.09-1.25l-.52-8.26c0-.39.42-1.24,1-1.24,1.37,0,3.1.5,3.91.36,1.63-.28,6.48-2.89,6.36-5,0-.83-.23-1.39-2.92.58a6,6,0,0,1-3.71,1.11c-.83-.08-4-1.7-6.1-1.65a11.62,11.62,0,0,0-3,.6,4.56,4.56,0,0,0-1.85,1v0c-1.66,1-5.12,5.08-6.5,7.24-.86,1.33-.66,5.19-.05,7.33a1.11,1.11,0,0,0,.66.72,1.14,1.14,0,0,0,.47.06h0a1.09,1.09,0,0,0,1-1c.18-1.73.09-3.33.23-3.88.31-1.21,3.25-3.58,3.25-3.58.66,4.26,2.34,16.69,2.24,18.68-.15,2.82-2.13,13.32-1.83,13.85.51.92,5.41,1.68,6.62.76.73-.56-2-1.5-2.63-2.48s1.71-7.11,2.07-9c.33-1.71.93-5.89,1.14-8a1.06,1.06,0,0,1,.73-.9c1.38-.45,4-.69,4.47,0,.61.88.2,7.34,1,8,1,.83,6.06-.34,6.05-.93C154.48,214,151.47,213.95,151.13,213.35Z"/><path class="cls-8" d="M125.15,220.62c-.92,0-2.09-1.61-2.16-3,0-.57.12-1.93,2.12-2.14a1.54,1.54,0,0,0,1.56-1.28c.24-1.5-1.25-3.89-4.07-5.14-.85-.38-1.27-.88-1.25-1.5.07-2.32,7.11-5.1,8.52-5.63l23.06-16.12L278.86,78a.38.38,0,0,1,.49.57l-126,107.86-23.17,16.19c-3.17,1.21-8.08,3.58-8.12,5,0,.29.26.56.8.8,3.19,1.42,4.79,4.13,4.51,5.94a2.28,2.28,0,0,1-2.22,1.91c-1,.11-1.49.55-1.45,1.35a2.84,2.84,0,0,0,1.41,2.26.38.38,0,1,1,0,.75Z"/><path class="cls-4" d="M318.3,131.61c-6.66.38,3.79,16.11-5.62,15.3S297,132.13,290.34,132.43s-4.57,13-14,12.68-7.32-12.13-14-11.9S249.45,144.77,240,144.84s1-11-5.61-10.8"/><path class="cls-5" d="M313.36,147.44c-.23,0-.47,0-.72,0-5.14-.41-9.37-4.63-13.09-8.36-3.22-3.21-6.24-6.25-9.19-6.12-2.71.12-3.82,2.56-5.11,5.38-1.6,3.52-3.45,7.51-8.91,7.3s-7.19-3.86-8.79-7.12c-1.29-2.62-2.4-4.88-5.15-4.78s-5.75,2.46-8.83,4.95c-3.84,3.11-8.2,6.63-13.52,6.68-1.93,0-3.25-.41-4-1.32-1.12-1.39-.62-3.54-.18-5.43.34-1.45.68-3,.16-3.59a2,2,0,0,0-1.59-.45.53.53,0,0,1-.52-.48.5.5,0,0,1,.48-.52,2.81,2.81,0,0,1,2.4.81c.84,1,.45,2.69,0,4.45s-.83,3.57,0,4.58c.52.65,1.61,1,3.19.95,5,0,9-3.3,12.9-6.45,3.21-2.6,6.24-5.05,9.42-5.17,3.41-.13,4.7,2.53,6.08,5.33,1.55,3.15,3.16,6.41,7.93,6.56s6.42-3.32,8-6.71c1.3-2.86,2.65-5.82,6-6s6.56,3,9.94,6.41c3.61,3.6,7.69,7.69,12.47,8.07a3.35,3.35,0,0,0,2.88-.73c1.18-1.27.72-4.09.28-6.82s-.87-5.35.27-6.76a2.79,2.79,0,0,1,2.12-1h0a.5.5,0,0,1,0,1,1.82,1.82,0,0,0-1.4.61c-.86,1.07-.45,3.56-.06,6,.48,3,1,6-.53,7.66A3.83,3.83,0,0,1,313.36,147.44Z"/><path class="cls-8" d="M279.26,97.71a1,1,0,0,1-1-1v-53a1,1,0,0,1,2,0v53A1,1,0,0,1,279.26,97.71Z"/><path class="cls-8" d="M299.86,71.42,260,75.25a3.66,3.66,0,0,1-3.94-3.79l-.22-18.78a4.48,4.48,0,0,1,3.85-4.54l39.86-3.83a3.66,3.66,0,0,1,3.94,3.79l.22,18.78A4.48,4.48,0,0,1,299.86,71.42Z"/><path class="cls-4" d="M275.26,54.12l-.51,0a.27.27,0,0,1-.26-.28v-.09a5.08,5.08,0,0,1,.66-.12,7.47,7.47,0,0,1,.78,0,.31.31,0,0,0,.3-.28l.12-1a6.64,6.64,0,0,0-1.67,0,2.09,2.09,0,0,0-1.3.53A2,2,0,0,0,273,54.3a1.44,1.44,0,0,0,.33,1,2.05,2.05,0,0,0,.91.27h.62a.27.27,0,0,1,.27.28V56a6.21,6.21,0,0,1-.82.15,5.4,5.4,0,0,1-.89,0,.3.3,0,0,0-.3.27l-.14,1a6.61,6.61,0,0,0,1.68,0l.6-.1a2.82,2.82,0,0,0,.52-.18,1.21,1.21,0,0,0,.46-.32,1.62,1.62,0,0,0,.27-.54,2.54,2.54,0,0,0,.11-.83,1.34,1.34,0,0,0-.36-1A2.41,2.41,0,0,0,275.26,54.12Zm1.84,0c.1,0,.18.11.18.26l0,1.82a.79.79,0,0,0,.06.31.61.61,0,0,0,.45.31,5.63,5.63,0,0,0,1,0,.33.33,0,0,0,.27-.31l0-.84H279a.29.29,0,0,1-.26-.3l0-1.16a.31.31,0,0,1,.24-.32.31.31,0,0,0,.24-.32v-.41a.23.23,0,0,0-.24-.26.23.23,0,0,1-.24-.26v-.42a.18.18,0,0,0-.26-.18l-.88.36a.44.44,0,0,0-.25.39v0c0,.16-.07.3-.17.31s-.17.15-.17.31v.41C276.93,54,277,54.13,277.1,54.12Zm5.66,2.09a.32.32,0,0,0,.26-.32l0-2.37q0-1.25-1.69-1a5.37,5.37,0,0,0-1.6.44l.18,1.07a4.24,4.24,0,0,1,1.35-.38h.11c.14,0,.26,0,.26.12s-.12.15-.26.17h0q-1.89.24-1.87,1.61a1,1,0,0,0,.41,1,1.06,1.06,0,0,0,.37.13,1.85,1.85,0,0,0,.5,0,1.88,1.88,0,0,0,.65-.23,1.42,1.42,0,0,0,.35-.26.27.27,0,0,1,.38,0l0,0a.63.63,0,0,0,.45.14Zm-1.15-1.12a.28.28,0,0,1-.08.21.29.29,0,0,1-.13.07l-.4.07c-.08,0-.14-.11-.15-.27v0a.3.3,0,0,1,.11-.28l.1-.05.4-.07c.08,0,.14.11.15.27Zm4.08-3.18a2.84,2.84,0,0,0-.8.48.3.3,0,0,1-.4,0h0a.62.62,0,0,0-.45-.15l-.17,0a.32.32,0,0,0-.26.32l.05,3.23a.24.24,0,0,0,.27.25l.87-.11a.32.32,0,0,0,.26-.32l0-1.89a.84.84,0,0,1,.36-.26l.18-.08a.35.35,0,0,0,.23-.35Zm.48,1c.1,0,.18.11.18.26l0,1.82a.79.79,0,0,0,.06.31.61.61,0,0,0,.45.31,5.63,5.63,0,0,0,1,0,.33.33,0,0,0,.27-.31l0-.84H288a.29.29,0,0,1-.26-.3l0-1.16a.31.31,0,0,1,.24-.32.31.31,0,0,0,.24-.32V52a.23.23,0,0,0-.24-.26.23.23,0,0,1-.24-.26v-.42a.18.18,0,0,0-.26-.18l-.88.36a.44.44,0,0,0-.25.39v0c0,.16-.07.3-.17.31s-.17.15-.17.31v.41C286,52.84,286.08,53,286.18,52.94Zm4.7,2a.3.3,0,0,1,.4,0l0,0a.64.64,0,0,0,.45.14l.17,0a.32.32,0,0,0,.26-.32l-.05-3.23a.24.24,0,0,0-.27-.25l-.87.11a.32.32,0,0,0-.26.32l0,2.2a.3.3,0,0,1-.11.28l-.1.05-.37.07c-.06,0-.11-.12-.11-.27l0-2.23a.24.24,0,0,0-.27-.25l-.87.11a.32.32,0,0,0-.26.32l0,2.37a1.22,1.22,0,0,0,.3.93,1.13,1.13,0,0,0,.91.17A2,2,0,0,0,290.88,54.9Zm5.24-3.68a1,1,0,0,0-.47-.42,1.37,1.37,0,0,0-.73-.08,1.75,1.75,0,0,0-.92.44c-.11.11-.26.12-.34,0a.47.47,0,0,0-.39-.14l-.17,0a.32.32,0,0,0-.26.32l.07,4.48a.22.22,0,0,0,.27.23l.87-.18a.35.35,0,0,0,.26-.34V55a.32.32,0,0,1,.26-.32l.54-.07a1.47,1.47,0,0,0,.6-.2,1.38,1.38,0,0,0,.4-.37,2.56,2.56,0,0,0,.36-1.51A2.69,2.69,0,0,0,296.12,51.21ZM295,53.32a.3.3,0,0,1-.11.28l-.1.05-.37.07c-.06,0-.11-.12-.11-.27l0-1.24a.29.29,0,0,1,.07-.2.35.35,0,0,1,.16-.1l.06,0,.29,0c.06,0,.11.11.11.27Zm-18.53,4.41-.83.11a.35.35,0,0,0-.27.28l-.39,2.21a.72.72,0,0,1-.07.26.6.6,0,0,1-.08-.24l-.46-2.1A.26.26,0,0,0,274,58l-.83.11a.21.21,0,0,0-.17.27l.89,3.57a.27.27,0,0,0,.29.21l1.32-.17a.37.37,0,0,0,.28-.28l.78-3.78C276.63,57.81,276.55,57.71,276.42,57.73Zm1.53-.41a.82.82,0,0,0-.54,0,1,1,0,0,0-.54.19.59.59,0,0,0-.13.44.46.46,0,0,0,.14.4.86.86,0,0,0,.54,0,1,1,0,0,0,.54-.18.57.57,0,0,0,.13-.43A.49.49,0,0,0,277.95,57.31Zm-.15,1.1-.76.2a.33.33,0,0,0-.22.31l0,2.66a.21.21,0,0,0,.23.22l.76-.1a.28.28,0,0,0,.23-.28l0-2.83A.18.18,0,0,0,277.8,58.41Zm2,1.84,0-3a.19.19,0,0,0-.23-.2l-.76.16a.31.31,0,0,0-.22.3l.05,3.45a.7.7,0,0,0,.05.27.54.54,0,0,0,.39.27,4.39,4.39,0,0,0,.8,0,.29.29,0,0,0,.24-.27l0-.73h-.07A.26.26,0,0,1,279.83,60.25Zm1.88-.24,0-3a.19.19,0,0,0-.23-.2l-.76.16a.31.31,0,0,0-.22.3l.05,3.45a.69.69,0,0,0,.05.27.54.54,0,0,0,.39.27,4.38,4.38,0,0,0,.8,0A.29.29,0,0,0,282,61l0-.73h-.07A.26.26,0,0,1,281.72,60Zm2.23-2.52a4.68,4.68,0,0,0-1.4.39l.16.93a3.71,3.71,0,0,1,1.18-.33H284c.13,0,.23,0,.23.1s-.1.13-.23.15h0q-1.66.21-1.64,1.41a.91.91,0,0,0,.36.85.92.92,0,0,0,.33.12,1.61,1.61,0,0,0,.44,0,1.64,1.64,0,0,0,.57-.2,1.25,1.25,0,0,0,.31-.23.23.23,0,0,1,.33,0l0,0a.55.55,0,0,0,.39.13l.15,0a.28.28,0,0,0,.23-.28l0-2.08Q285.41,57.3,283.94,57.49Zm.28,2.29A.25.25,0,0,1,284,60l-.35.06c-.07,0-.13-.1-.13-.23v0a.26.26,0,0,1,.1-.24l.09,0,.35-.06c.07,0,.13.1.13.23Zm4.31-3.11a.26.26,0,0,0-.35,0l-.34.34a3,3,0,0,0-.52,0,2,2,0,0,0-1.16.44,1.19,1.19,0,0,0-.35.92,1.21,1.21,0,0,0,.24.83,1,1,0,0,0,.45.23.22.22,0,0,1,.15.29l-.1.35a.38.38,0,0,0,0,.09.18.18,0,0,0,.06.07.52.52,0,0,0,.22.07,3.2,3.2,0,0,0,.48,0,.21.21,0,0,1,.23.21l-.29.05a4.54,4.54,0,0,1-1,0,.25.25,0,0,0-.26.22l-.11.76a4.74,4.74,0,0,0,1.31,0,3.85,3.85,0,0,0,1-.22,1.05,1.05,0,0,0,.7-1.09.64.64,0,0,0-.28-.61,2.36,2.36,0,0,0-.7-.1c-.13,0-.22-.07-.21-.16a1.48,1.48,0,0,0,.85-.42,1.22,1.22,0,0,0,.23-.81,1.79,1.79,0,0,0,0-.35.64.64,0,0,1,.09-.45l0-.07a.28.28,0,0,0,0-.36Zm-1,1.68a.26.26,0,0,1-.1.24l-.09,0-.32.06c-.05,0-.1-.1-.1-.24v-.18a.26.26,0,0,1,.1-.24l.09,0,.32-.06c.05,0,.1.1.1.24Zm4.7-.73a1,1,0,0,0-.34-.9,1.88,1.88,0,0,0-1.18-.1,1.75,1.75,0,0,0-1.22.6,2.16,2.16,0,0,0-.36,1.38,1.8,1.8,0,0,0,.4,1.28,1.42,1.42,0,0,0,1.24.28,7.16,7.16,0,0,0,1.12-.3.3.3,0,0,0,.18-.32L292,58.8a3.71,3.71,0,0,1-1.15.35l-.13,0a.22.22,0,0,1-.23-.22,3,3,0,0,0,1.41-.44A1.05,1.05,0,0,0,292.27,57.61Zm-1.13.19a.26.26,0,0,1-.1.24l-.09,0-.35.06c-.07,0-.13-.1-.13-.23v0a.26.26,0,0,1,.1-.24l.09,0,.35-.06c.07,0,.13.1.13.23Z"/><path class="cls-4" d="M277.8,63.09l0,0Zm2.36-.15,0,0Zm-4,.55,0-.21-.1-.05C276.13,63.39,276,63.45,276.15,63.49Zm1.39-.47c0,.1.16,0,.23,0S277.57,63,277.54,63Zm-2,.54c.06,0,.08-.11.12-.17s0-.25-.08-.14l0,.12C275.5,63.37,275.5,63.49,275.5,63.57Zm4.66-.62a.51.51,0,0,0-.19-.11c0,.08.1.11.13.07S280.13,62.94,280.15,62.94Zm-4.8.55c.05,0,.11.06.12-.08S275.4,63.46,275.36,63.49Zm-2-.19.07,0-.09-.12Zm.32,0c0-.06,0-.09,0-.14h-.05C273.64,63.21,273.65,63.29,273.71,63.28Zm15-1.75a.26.26,0,0,0,0,.16s0,0,0,0Zm-8.18,1.15c0,.08,0,0,.06.09S280.57,62.64,280.56,62.67Zm8.2-1.19c.09,0,.1.15.2.12l-.08-.17,0,.06C288.85,61.54,288.8,61.42,288.76,61.48ZM273.2,63.32l0,0S273.19,63.35,273.2,63.32Zm15.39-1.73,0-.1c-.05.11-.09-.09-.07.1C288.5,61.6,288.54,61.63,288.58,61.6Zm-8.47,1,0-.06-.05.05Zm9.8-1.1,0,0Zm-8.26,1.08h-.06S281.62,62.62,281.65,62.61Zm-8.54.78,0,0S273.06,63.27,273.11,63.4Zm.28,0-.27.07,1-.13c.05.09.15.07.19.25,0,0,0,0,0,0s.09,0,.13,0l-.06-.11c.1-.22.11.07.22,0s-.13-.09-.14-.15h.09s0,0,0,0v0l.24,0,0,0,0,0,.22,0a.23.23,0,0,1-.06.12s.11-.14.12,0c0-.1.08-.06.11,0s0-.09,0-.15l.17,0a.2.2,0,0,1,0,.08s-.11,0-.06.13c0-.17,0,.06.09,0s0-.16,0-.23l.13,0,0,0v0l.21,0s0,.09,0,.08,0,0,.06,0,0,.14,0,.1l0-.16H276a.3.3,0,0,1-.07.15h0c.07.06-.08.25.05.2a.45.45,0,0,1,.08-.35h.09v0a.66.66,0,0,0,.17.19l-.16-.21.19,0h0c0,.06-.06.13,0,.23.13-.24.26.08.38-.18,0,0,0-.06,0-.06V63h.07l.16,0h0s0,.05,0,0,0,0,.07-.07l.45-.06a.22.22,0,0,0,.22,0h0c.08.13.09.22.21.23l0-.15.13-.08a.08.08,0,0,1,0,0l.47-.06h.08l0,0v0c0-.09.09.12.15,0l0,0h0l0,0c.13,0,.15.17.26.17s0,0,0,.07.09-.1.06-.16.08.12.14.11l0,.23c.1.07.19-.09.26-.16s-.17-.11-.23-.11c0-.42-.25-.07-.3-.19h0l.4-.05c0,.08.13.09,0,.22.11.07.14,0,.25.11,0-.12.07-.16.08-.28s.1.13.14,0l-.08-.07a.11.11,0,0,0,.05-.07l.12,0a.24.24,0,0,1,0,0c.1-.06.21,0,.31-.07s0,0-.06,0l.21,0a.79.79,0,0,1,.25.38c.19.09.11-.35.34-.08,0,0,0-.17,0-.23s.09-.06.14,0l-.08.14c.11.1.25,0,.36-.06s0-.13-.07-.17.07-.1.11-.12,0,.26.14.31c1-.25,2-.26,3-.53V62a6.26,6.26,0,0,0,2-.33v.06c.21-.38.12.38.35,0,.16.32.36,0,.54.18l0-.11c.13.28.29-.26.44-.07.05-.11.08-.24.17-.16s0,.2,0,.1l-.06-.19a.15.15,0,0,1,.25,0l.11,0,0-.06.08,0h.1a.15.15,0,0,1,0,.06l0-.07.23,0a.53.53,0,0,0,0,.16c.11-.09.07.29.17.19v-.13c.08,0,.13,0,.18.11v-.07c.15-.09.23.06.34-.19l.07.07a.12.12,0,0,1,0-.13c.06,0,.14.14.11.21.2-.22.25.07.47,0,0-.15.09-.06.06-.19l.06.07s0,0,0-.06,0,0,0,.05v0l.1,0v.13l.07-.12c0-.16-.14,0-.15-.2l0,0h.1s0,0,0,.14c.09-.06,0,.15.14.06v-.08l.11.06s0-.09,0-.16h-.13l.09,0,.19,0s0,0,0,0a.28.28,0,0,1,.14,0c0,.11-.05.16,0,.23.64.12,1-.63,1.62-.16.08-.13.27-.28.33-.2l0,0c.08.08.14-.18.19,0l.06.18s.14-.06.13-.14c.05.09.19-.06.17.18a1.13,1.13,0,0,1,.35-.08.09.09,0,0,1,0,0c0-.09,0,.14.09,0S294,61,294,61c0,.17.2,0,.26-.11a.2.2,0,0,1,.08.11c.05,0,.14-.19.07-.22.13.06.16-.14.16.11.15.15.29-.15.42.07a1.55,1.55,0,0,0,.63-.36A96.53,96.53,0,0,0,275,62.77a.6.6,0,0,0,.06.18L275,63c0-.08,0-.12-.1-.17l-.25.06v0h0l-.06,0a.09.09,0,0,1,0,0s0,0-.05,0l-.28.07a.1.1,0,0,1,0,.07c.09.18.23-.23.28.06l-.2.05c0-.08-.11-.08-.16-.12v.05s-.06,0-.07-.08L274,63h0l-.18,0v0c.06,0,.09.08.13.16l-.48.13-.07,0v0ZM291.09,61l.15,0a.22.22,0,0,0,0,.07s-.07,0-.1-.06,0,0,0,.06Zm-.38.05h.08v0Zm-11,1.53h0c0,.06.08.15,0,.22C279.73,62.62,279.51,62.72,279.67,62.61Zm-2.88.38h0Zm-1.13-.17a.17.17,0,0,1,0-.13.56.56,0,0,1,.05.11Zm-.88.23c0-.06.05-.11.1,0Zm-.86.23a.15.15,0,0,1,0-.16c.05-.11.14.05.23.08l-.05,0v0Zm5.79-.33,0,0Zm-5.9.47c0,.12.06.23.17.28l.05-.09,0,0,.08-.15C274,63.43,273.93,63.5,273.82,63.41Zm2.95-.33h0S276.78,63.1,276.77,63.08Zm-2,.33.06.07c.05,0,0-.1.06-.07S274.82,63.33,274.79,63.41Zm4-.64v0S278.75,62.79,278.75,62.77Zm0,0s0,0,0,0Z"/><path class="cls-4" d="M271.21,61h0a3.74,3.74,0,0,1,.41-1.21.66.66,0,0,0,.06-.14v-.06c0-.38-.62-.38-.74-.35h0a1.08,1.08,0,0,0-.79.55c-.23.47-.15.76-.73,1-.39.18-.79.08-1.18.22s-.36.7-.38,1.06-.05.92-.48,1.07-.93.16-1.06.88a4.2,4.2,0,0,1-.17,1.18,1.62,1.62,0,0,1-1,.61c-.48.13-.72.39-.65,1,0,.11,0,.22,0,.33h0a.85.85,0,0,0,.73.72,3.37,3.37,0,0,0,1.16-.25,10.61,10.61,0,0,1,1.94-.4c1.92-.24,2.46-1.94,2.69-3.79C271.1,62.77,271.06,61.83,271.21,61Z"/><path class="cls-4" d="M267.23,61.7a.27.27,0,0,1-.12,0l-.92-.35a.42.42,0,0,0-.53.15s-1.35,1.84-1.51,2.13-.35.13-.35.13-.71-.39-.88-.46a.14.14,0,0,0-.21.1l-.11.55c0,.15-.13-.21-.13-.21l-.2-.91c-.06-.29.13-.19.13-.19s1.13.17,1.25.17a.22.22,0,0,0,.17-.08h0s.35-.68.44-.87a.43.43,0,0,0,.05-.32l-.47-1.31c-.09-.22-.23-.21-.23-.21l-.7,0a.46.46,0,0,0-.3.13l-.46.58a2.14,2.14,0,0,0-.29,1.25q0,.4.08.79c.73,4.14,1.08,4.72,2.23,4.86.2,0,.23-.2.21-.41a2.34,2.34,0,0,1-.07-1c.16-.65.78-.52,1.2-.71.61-.3.36-.9.4-1.47,0-.82.46-.77,1-1,.72-.29.46-.94.52-1.52v-.06l-.07.13C267.32,61.67,267.25,61.7,267.23,61.7Zm3.93-7.4h0c0-.1-.09-.07-.13,0l-.2.13a.4.4,0,0,0-.19.41,1.19,1.19,0,0,1,.09.39c0,.19-.2,0-.25,0a.4.4,0,0,0-.33-.05.92.92,0,0,0-.32.32c-.06.09-.16.32-.21.09a4.18,4.18,0,0,1,0-.56c0-.25-.21-.28-.42-.37s-.41-.13-.42-.25.06-.08.14-.08a1.36,1.36,0,0,0,.42-.06h0l.07,0a.42.42,0,0,0,.3-.33c.05-.15.05-.37.17-.5s.24.15.27.23a.73.73,0,0,0,.25.34.92.92,0,0,0,.54,0l.11,0h0a.07.07,0,0,0,.05-.11h0a1.43,1.43,0,0,0-1.57-.89,5.33,5.33,0,0,0-.91.1,4,4,0,0,1-.92,0c-4.33-.62-5.65.8-5.93,1.18a4,4,0,0,0-.65,2.52,12.8,12.8,0,0,0,.65,3.27c0,.14.1.32.24.12l0-.05.24-.33a.76.76,0,0,1,.36-.26l1.29-.38h0l1.2-.58h0l1-.64.06,0h0a1,1,0,0,1,.22-.08.13.13,0,0,1,.14,0c.06.1-.15.3-.15.3h0l-.73.75a1.07,1.07,0,0,1-.2.16h0l-.64.45a.23.23,0,0,0,0,.28l0,0h0l.25.47c.16.24.35.18.35.18l.57-.15a.54.54,0,0,1,.45.1L267,61s.21.16.33,0,.65-.68.52-.22a5.2,5.2,0,0,1,1-.33c.84-.27.39-1.06.86-1.63a1.11,1.11,0,0,1,.71-.33.52.52,0,0,0,.43-.5s0,0,0-.05a7.26,7.26,0,0,1,.06-1A9.94,9.94,0,0,0,271.15,54.3Zm-7.26,4.61c-.31.17-.78-.05-1.08-.5s-.3-.95,0-1.09a1.07,1.07,0,0,1,1.15.54C264.27,58.28,264.21,58.75,263.9,58.91Z"/><path class="cls-4" d="M275.05,65.45a.8.8,0,0,1-.13.49.51.51,0,0,1-.37.22.29.29,0,0,1-.23-.06.45.45,0,0,1,0,.12.09.09,0,0,1-.08.07q-.08,0-.08-.1v-.1q0-.12,0-.26t0-.42a4.71,4.71,0,0,0,0-.49s0-.08,0-.13V64.7a.08.08,0,0,1,0-.06l.06,0s.08,0,.1.11a3,3,0,0,1,0,.38.52.52,0,0,1,.3-.15.34.34,0,0,1,.32.11A.6.6,0,0,1,275.05,65.45Zm-.17,0a.46.46,0,0,0-.08-.28.21.21,0,0,0-.21-.08.33.33,0,0,0-.27.19v.15q0,.11,0,.23v.14h0a.21.21,0,0,0,.24.15.32.32,0,0,0,.23-.15A.6.6,0,0,0,274.88,65.48Z"/><path class="cls-4" d="M276.17,65.84a.13.13,0,0,1,0,.08.09.09,0,0,1-.06,0s-.09-.07-.12-.22a.49.49,0,0,1-.35.27q-.35,0-.36-.57a3.62,3.62,0,0,1,0-.56q0-.15.11-.16a.06.06,0,0,1,.06,0,.08.08,0,0,1,0,.06s0,.1,0,.24a3.34,3.34,0,0,0,0,.39q0,.42.21.39a.28.28,0,0,0,.21-.14.62.62,0,0,0,.07-.33v-.06a3.52,3.52,0,0,1,0-.42q0-.13.1-.14s.07,0,.08.1,0,.06,0,.15,0,.16,0,.23a2.85,2.85,0,0,0,0,.45A.84.84,0,0,0,276.17,65.84Z"/><path class="cls-4" d="M276.59,64.77a7.26,7.26,0,0,1,0,.87.64.64,0,0,1,0,.16.09.09,0,0,1-.08.06.07.07,0,0,1-.06,0,.08.08,0,0,1,0-.06v-.07q0-.08,0-.19t0-.33,0-.17v-.1a.59.59,0,0,1,0-.19.09.09,0,0,1,.08-.07Q276.59,64.67,276.59,64.77Zm0-.37q0,.14-.12.15a.1.1,0,0,1-.08,0,.12.12,0,0,1,0-.09.16.16,0,0,1,0-.1.13.13,0,0,1,.09-.05.09.09,0,0,1,.08,0A.13.13,0,0,1,276.62,64.4Z"/><path class="cls-4" d="M277.12,65.8a.36.36,0,0,1,0,.09.07.07,0,0,1-.06.05q-.08,0-.1-.14t0-.69q0-.49,0-.6t.09-.13.09.11s0,.1,0,.23,0,.26,0,.37,0,.23,0,.39S277.12,65.74,277.12,65.8Z"/><path class="cls-4" d="M278.27,64.19v.15q0,.18,0,.38t0,.61s0,.09,0,.14v.07q0,.14-.08.16t-.09-.15s0,0,0-.06a.58.58,0,0,1-.38.23.32.32,0,0,1-.29-.09.5.5,0,0,1-.11-.35.85.85,0,0,1,.15-.52.56.56,0,0,1,.4-.24.53.53,0,0,1,.24,0,3,3,0,0,1,0-.32q0-.1.1-.11S278.26,64.12,278.27,64.19Zm-.19.53a.37.37,0,0,0-.23,0,.38.38,0,0,0-.28.17.66.66,0,0,0-.1.38.36.36,0,0,0,.07.24.21.21,0,0,0,.19.06.31.31,0,0,0,.23-.14l0-.08a.11.11,0,0,1,.06-.06Q278.07,65,278.08,64.72Z"/><path class="cls-4" d="M278.8,65.34a.19.19,0,0,1,0,.12.15.15,0,0,1-.1.06.1.1,0,0,1-.09,0,.14.14,0,0,1,0-.1.16.16,0,0,1,0-.11.15.15,0,0,1,.1-.06Q278.8,65.2,278.8,65.34Z"/><path class="cls-4" d="M280.5,64.75a.8.8,0,0,1-.13.49.51.51,0,0,1-.37.22.29.29,0,0,1-.23-.06.44.44,0,0,1,0,.12.09.09,0,0,1-.08.07q-.08,0-.08-.1v-.1q0-.12,0-.26t0-.42a4.71,4.71,0,0,0,0-.49s0-.08,0-.13V64a.08.08,0,0,1,0-.06l.06,0s.08,0,.1.11a3,3,0,0,1,0,.38.52.52,0,0,1,.3-.15.34.34,0,0,1,.32.11A.6.6,0,0,1,280.5,64.75Zm-.17,0a.46.46,0,0,0-.08-.28.21.21,0,0,0-.21-.08.33.33,0,0,0-.27.19v.15q0,.11,0,.23v.14h0a.21.21,0,0,0,.24.15.32.32,0,0,0,.23-.15A.6.6,0,0,0,280.33,64.78Z"/><path class="cls-4" d="M281.33,64.29a.11.11,0,0,1,0,.06l0,0-.06,0a.11.11,0,0,0-.07,0,.18.18,0,0,0-.13.1.44.44,0,0,0,0,.23v.13a1.19,1.19,0,0,1,0,.34c0,.08-.06.13-.1.13s-.08,0-.08-.08a1.2,1.2,0,0,1,0-.13,1,1,0,0,0,0-.21,1.06,1.06,0,0,0-.08-.43l0-.09a.17.17,0,0,1,0-.07.09.09,0,0,1,0-.06l.06,0q.09,0,.16.23a.33.33,0,0,1,.26-.23.2.2,0,0,1,.14,0A.13.13,0,0,1,281.33,64.29Z"/><path class="cls-4" d="M282.32,64.3a.2.2,0,0,1-.06.16l-.18.08a1.66,1.66,0,0,1-.34.09h-.15q0,.37.26.33a.22.22,0,0,0,.12-.06l.1-.12a.09.09,0,0,1,.05,0,.07.07,0,0,1,.06,0,.1.1,0,0,1,0,.07.12.12,0,0,1,0,.07.51.51,0,0,1-.35.23q-.42.05-.43-.48a.92.92,0,0,1,.13-.5.51.51,0,0,1,.37-.28.33.33,0,0,1,.29.09A.43.43,0,0,1,282.32,64.3Zm-.17,0a.34.34,0,0,0-.07-.21.16.16,0,0,0-.15-.06.31.31,0,0,0-.2.12.65.65,0,0,0-.13.28h.13A1.75,1.75,0,0,0,282.14,64.34Z"/><path class="cls-4" d="M283.22,64.43a2.47,2.47,0,0,1-.06.57q0,.15-.1.16s-.07,0-.07-.08a.19.19,0,0,1,0,0,.39.39,0,0,1-.18.08.3.3,0,0,1-.27-.07.39.39,0,0,1-.1-.28.49.49,0,0,1,.1-.32.4.4,0,0,1,.27-.15.29.29,0,0,1,.25.08q0-.38-.26-.35a.25.25,0,0,0-.11.05l-.08,0a.06.06,0,0,1-.05,0,.08.08,0,0,1,0-.06.16.16,0,0,1,.07-.12.38.38,0,0,1,.19-.08Q283.21,63.79,283.22,64.43Zm-.17.25q0-.25-.21-.22a.24.24,0,0,0-.23.27q0,.25.23.22a.22.22,0,0,0,.15-.08A.29.29,0,0,0,283.05,64.68Z"/><path class="cls-4" d="M283.71,63.57l0,.06a1.31,1.31,0,0,0,0,.17,2,2,0,0,0,0,.29q0,.09,0,.27t0,.27a.59.59,0,0,1,0,.19.09.09,0,0,1-.08.07.05.05,0,0,1-.06,0,.27.27,0,0,1,0-.08s0-.07,0-.12v-.1q0-.1,0-.26t0-.23a1.6,1.6,0,0,1,0-.41q0-.15.11-.15a.08.08,0,0,1,.06,0A.08.08,0,0,1,283.71,63.57Zm.61.12s0,.09-.11.14l-.33.22a2.82,2.82,0,0,1,.33.37.48.48,0,0,1,.11.22.12.12,0,0,1,0,.08.08.08,0,0,1-.06,0,.06.06,0,0,1-.06,0l-.19-.3a1.48,1.48,0,0,0-.24-.25l-.05,0a.13.13,0,0,1,0-.08.11.11,0,0,1,.05-.08l.15-.1.24-.17a.4.4,0,0,1,.13-.08Q284.32,63.6,284.32,63.69Z"/><path class="cls-4" d="M284.77,64.57a.18.18,0,0,1,0,.12.15.15,0,0,1-.1.06.1.1,0,0,1-.09,0,.14.14,0,0,1,0-.1.16.16,0,0,1,0-.11.15.15,0,0,1,.1-.06Q284.77,64.43,284.77,64.57Z"/><path class="cls-4" d="M285.77,63.58a7.28,7.28,0,0,1,0,.87.64.64,0,0,1,0,.16.09.09,0,0,1-.08.06.07.07,0,0,1-.06,0,.08.08,0,0,1,0-.06v-.07c0-.06,0-.12,0-.19s0-.21,0-.33,0-.11,0-.17v-.1a.59.59,0,0,1,0-.19.09.09,0,0,1,.08-.07C285.74,63.48,285.77,63.51,285.77,63.58Zm0-.37q0,.14-.12.15a.1.1,0,0,1-.08,0,.12.12,0,0,1,0-.09.16.16,0,0,1,0-.1.13.13,0,0,1,.09-.05.09.09,0,0,1,.08,0A.13.13,0,0,1,285.8,63.21Z"/><path class="cls-4" d="M286.9,63.88a1.68,1.68,0,0,1-.06.47q0,.15-.1.16l-.06,0a.07.07,0,0,1,0-.05l0-.18a1.44,1.44,0,0,0,0-.34q0-.38-.22-.35a.28.28,0,0,0-.2.13.47.47,0,0,0-.08.28,1.93,1.93,0,0,0,0,.26,1.9,1.9,0,0,1,0,.24q0,.17-.08.18a.07.07,0,0,1-.06,0,.15.15,0,0,1,0-.07s0-.16,0-.34,0-.45,0-.57,0-.3.1-.31l.06,0a.06.06,0,0,1,0,.05.58.58,0,0,1,0,.08.62.62,0,0,0,0,.1v0a.43.43,0,0,1,.31-.24.27.27,0,0,1,.27.11A.66.66,0,0,1,286.9,63.88Z"/><path class="cls-4" d="M288,63.74a1.67,1.67,0,0,1-.06.47q0,.15-.1.16l-.06,0a.07.07,0,0,1,0-.05l0-.18a1.43,1.43,0,0,0,0-.34q0-.38-.22-.35a.28.28,0,0,0-.2.13.47.47,0,0,0-.08.28,1.93,1.93,0,0,0,0,.26,1.88,1.88,0,0,1,0,.24q0,.17-.08.18a.07.07,0,0,1-.06,0,.15.15,0,0,1,0-.07s0-.15,0-.34,0-.45,0-.57,0-.3.1-.31l.06,0a.06.06,0,0,1,0,.05.58.58,0,0,1,0,.08.62.62,0,0,0,0,.1v0a.43.43,0,0,1,.31-.24.27.27,0,0,1,.27.11A.66.66,0,0,1,288,63.74Z"/><path class="cls-4" d="M289.12,63.55A.73.73,0,0,1,289,64a.58.58,0,0,1-.4.22.34.34,0,0,1-.33-.12.66.66,0,0,1-.12-.42.74.74,0,0,1,.14-.48.55.55,0,0,1,.39-.21.37.37,0,0,1,.34.12A.61.61,0,0,1,289.12,63.55Zm-.17,0a.45.45,0,0,0-.09-.29.25.25,0,0,0-.23-.08q-.33,0-.32.48a.53.53,0,0,0,.08.3.21.21,0,0,0,.21.08.38.38,0,0,0,.27-.15A.54.54,0,0,0,288.95,63.57Z"/><path class="cls-4" d="M290.06,62.91a1.35,1.35,0,0,1,0,.25l-.06.27a3.75,3.75,0,0,1-.15.46q-.11.27-.19.28s-.06,0-.08-.1l-.08-.29a3.8,3.8,0,0,0-.27-.68l0-.06a.12.12,0,0,1,0-.06.08.08,0,0,1,.08-.1q.09,0,.2.23a5.71,5.71,0,0,1,.25.73,3.44,3.44,0,0,0,.21-.84q0-.13,0-.15a.08.08,0,0,1,.07-.06Q290.05,62.77,290.06,62.91Z"/><path class="cls-4" d="M291,63.42a2.47,2.47,0,0,1-.06.57q0,.15-.1.16s-.07,0-.07-.08a.19.19,0,0,1,0,0,.39.39,0,0,1-.18.08.3.3,0,0,1-.27-.07.39.39,0,0,1-.1-.28.49.49,0,0,1,.1-.32.4.4,0,0,1,.27-.15.29.29,0,0,1,.25.08q0-.38-.26-.35a.25.25,0,0,0-.11.05l-.08,0a.06.06,0,0,1-.05,0,.08.08,0,0,1,0-.06.16.16,0,0,1,.07-.12.38.38,0,0,1,.19-.08Q291,62.78,291,63.42Zm-.17.25q0-.25-.21-.22a.24.24,0,0,0-.23.27q0,.25.23.22a.22.22,0,0,0,.15-.08A.29.29,0,0,0,290.82,63.67Z"/><path class="cls-4" d="M291.94,63a.1.1,0,0,1,0,.06l0,0-.1,0a.4.4,0,0,0-.17,0h-.06a1.51,1.51,0,0,0,0,.29.5.5,0,0,0,.06.25.14.14,0,0,0,.14.07l.07,0,.07,0s.07,0,.07.08a.13.13,0,0,1-.06.1.32.32,0,0,1-.16.06q-.37,0-.38-.5a1.48,1.48,0,0,1,0-.26l-.11,0-.08,0q-.09,0-.09-.07t.32-.18q.06-.24.16-.26l.05,0a.08.08,0,0,1,0,.06.22.22,0,0,1,0,.07l0,.08Q291.94,62.83,291.94,63Z"/><path class="cls-4" d="M292.91,62.93a.2.2,0,0,1-.06.16l-.18.08a1.65,1.65,0,0,1-.34.09h-.15q0,.37.26.33a.22.22,0,0,0,.12-.06l.1-.12a.09.09,0,0,1,.05,0,.07.07,0,0,1,.06,0,.1.1,0,0,1,0,.07.12.12,0,0,1,0,.07.51.51,0,0,1-.35.23q-.42.05-.43-.48a.92.92,0,0,1,.13-.5.51.51,0,0,1,.37-.28.33.33,0,0,1,.29.09A.43.43,0,0,1,292.91,62.93Zm-.17,0a.34.34,0,0,0-.07-.21.16.16,0,0,0-.15-.06.31.31,0,0,0-.2.12.65.65,0,0,0-.13.28h.13A1.75,1.75,0,0,0,292.74,63Z"/><path class="cls-9" d="M298.84,70.93,259,74.76A3.66,3.66,0,0,1,255,71l-.22-18.78a4.48,4.48,0,0,1,3.85-4.54l39.86-3.83a3.66,3.66,0,0,1,3.94,3.79l.22,18.78A4.48,4.48,0,0,1,298.84,70.93Z"/><path class="cls-8" d="M275.32,55.29l-.51,0a.27.27,0,0,1-.26-.28V54.9a5.08,5.08,0,0,1,.66-.12,7.47,7.47,0,0,1,.78,0,.31.31,0,0,0,.3-.28l.12-1a6.64,6.64,0,0,0-1.67,0,2.09,2.09,0,0,0-1.3.53,2,2,0,0,0-.36,1.39,1.44,1.44,0,0,0,.33,1,2.05,2.05,0,0,0,.91.27h.62a.27.27,0,0,1,.27.28v.09a6.21,6.21,0,0,1-.82.15,5.4,5.4,0,0,1-.89,0,.3.3,0,0,0-.3.27l-.14,1a6.61,6.61,0,0,0,1.68,0l.6-.1a2.82,2.82,0,0,0,.52-.18,1.21,1.21,0,0,0,.46-.32,1.62,1.62,0,0,0,.27-.54,2.54,2.54,0,0,0,.11-.83,1.34,1.34,0,0,0-.36-1A2.41,2.41,0,0,0,275.32,55.29Zm1.84,0c.1,0,.18.11.18.26l0,1.82a.79.79,0,0,0,.06.31.61.61,0,0,0,.45.31,5.63,5.63,0,0,0,1,0,.33.33,0,0,0,.27-.31l0-.84H279a.29.29,0,0,1-.26-.3l0-1.16A.31.31,0,0,1,279,55a.31.31,0,0,0,.24-.32v-.41a.23.23,0,0,0-.24-.26.23.23,0,0,1-.24-.26V53.4a.18.18,0,0,0-.26-.18l-.88.36a.44.44,0,0,0-.25.39v0c0,.16-.07.3-.17.31s-.17.15-.17.31V55C277,55.17,277.06,55.29,277.16,55.28Zm5.66,2.09a.32.32,0,0,0,.26-.32l0-2.37q0-1.25-1.69-1a5.37,5.37,0,0,0-1.6.44l.18,1.07a4.24,4.24,0,0,1,1.35-.38h.11c.14,0,.26,0,.26.12s-.12.15-.26.17h0q-1.89.24-1.87,1.61a1,1,0,0,0,.41,1,1.06,1.06,0,0,0,.37.13,1.85,1.85,0,0,0,.5,0,1.88,1.88,0,0,0,.65-.23,1.42,1.42,0,0,0,.35-.26.27.27,0,0,1,.38,0l0,0a.63.63,0,0,0,.45.14Zm-1.15-1.12a.28.28,0,0,1-.08.21.29.29,0,0,1-.13.07l-.4.07c-.08,0-.14-.11-.15-.27v0A.3.3,0,0,1,281,56l.1-.05.4-.07c.08,0,.14.11.15.27Zm4.08-3.18a2.84,2.84,0,0,0-.8.48.3.3,0,0,1-.4,0h0a.62.62,0,0,0-.45-.15l-.17,0a.32.32,0,0,0-.26.32L283.7,57a.24.24,0,0,0,.27.25l.87-.11a.32.32,0,0,0,.26-.32l0-1.89a.84.84,0,0,1,.36-.26l.18-.08a.35.35,0,0,0,.23-.35Zm.48,1c.1,0,.18.11.18.26l0,1.82a.79.79,0,0,0,.06.31.61.61,0,0,0,.45.31,5.63,5.63,0,0,0,1,0,.33.33,0,0,0,.27-.31l0-.84h-.15a.29.29,0,0,1-.26-.3l0-1.16a.31.31,0,0,1,.24-.32.31.31,0,0,0,.24-.32v-.41a.23.23,0,0,0-.24-.26.23.23,0,0,1-.24-.26v-.42a.18.18,0,0,0-.26-.18l-.88.36a.44.44,0,0,0-.25.39v0c0,.16-.07.3-.17.31s-.17.15-.17.31v.41C286.06,54,286.14,54.12,286.23,54.11Zm4.7,2a.3.3,0,0,1,.4,0l0,0a.64.64,0,0,0,.45.14l.17,0a.32.32,0,0,0,.26-.32l-.05-3.23a.24.24,0,0,0-.27-.25l-.87.11a.32.32,0,0,0-.26.32l0,2.2a.3.3,0,0,1-.11.28l-.1.05-.37.07c-.06,0-.11-.12-.11-.27l0-2.23a.24.24,0,0,0-.27-.25l-.87.11a.32.32,0,0,0-.26.32l0,2.37a1.22,1.22,0,0,0,.3.93,1.13,1.13,0,0,0,.91.17A2,2,0,0,0,290.93,56.06Zm5.24-3.68a1,1,0,0,0-.47-.42,1.37,1.37,0,0,0-.73-.08,1.75,1.75,0,0,0-.92.44c-.11.11-.26.12-.34,0a.47.47,0,0,0-.39-.14l-.17,0a.32.32,0,0,0-.26.32L293,57a.22.22,0,0,0,.27.23l.87-.18a.35.35,0,0,0,.26-.34v-.57a.32.32,0,0,1,.26-.32l.54-.07a1.47,1.47,0,0,0,.6-.2,1.38,1.38,0,0,0,.4-.37,2.56,2.56,0,0,0,.36-1.51A2.69,2.69,0,0,0,296.17,52.38ZM295,54.48a.3.3,0,0,1-.11.28l-.1.05-.37.07c-.06,0-.11-.12-.11-.27l0-1.24a.29.29,0,0,1,.07-.2.35.35,0,0,1,.16-.1l.06,0,.29,0c.06,0,.11.11.11.27Zm-18.53,4.41-.83.11a.35.35,0,0,0-.27.28L275,61.49a.72.72,0,0,1-.07.26.6.6,0,0,1-.08-.24l-.46-2.1a.26.26,0,0,0-.28-.21l-.83.11a.21.21,0,0,0-.17.27l.89,3.57a.27.27,0,0,0,.29.21l1.32-.17a.37.37,0,0,0,.28-.28l.78-3.78C276.68,59,276.6,58.87,276.47,58.89Zm1.53-.41a.82.82,0,0,0-.54,0,1,1,0,0,0-.54.19.59.59,0,0,0-.13.44.46.46,0,0,0,.14.4.86.86,0,0,0,.54,0,1,1,0,0,0,.54-.18.57.57,0,0,0,.13-.43A.49.49,0,0,0,278,58.48Zm-.15,1.1-.76.2a.33.33,0,0,0-.22.31l0,2.66a.21.21,0,0,0,.23.22l.76-.1a.28.28,0,0,0,.23-.28l0-2.83A.18.18,0,0,0,277.85,59.58Zm2,1.84,0-3a.19.19,0,0,0-.23-.2l-.76.16a.31.31,0,0,0-.22.3l.05,3.45a.7.7,0,0,0,.05.27.54.54,0,0,0,.39.27,4.39,4.39,0,0,0,.8,0,.29.29,0,0,0,.24-.27l0-.73h-.07A.26.26,0,0,1,279.89,61.41Zm1.88-.24,0-3a.19.19,0,0,0-.23-.2l-.76.16a.31.31,0,0,0-.22.3l.05,3.45a.69.69,0,0,0,.05.27.54.54,0,0,0,.39.27,4.38,4.38,0,0,0,.8,0,.29.29,0,0,0,.24-.27l0-.73H282A.26.26,0,0,1,281.77,61.17ZM284,58.65a4.68,4.68,0,0,0-1.4.39l.16.93a3.71,3.71,0,0,1,1.18-.33H284c.13,0,.23,0,.23.1s-.1.13-.23.15h0q-1.66.21-1.64,1.41a.91.91,0,0,0,.36.85.92.92,0,0,0,.33.12,1.61,1.61,0,0,0,.44,0,1.64,1.64,0,0,0,.57-.2,1.25,1.25,0,0,0,.31-.23.23.23,0,0,1,.33,0l0,0a.55.55,0,0,0,.39.13l.15,0a.28.28,0,0,0,.23-.28l0-2.08Q285.46,58.46,284,58.65Zm.28,2.29a.25.25,0,0,1-.19.25l-.35.06c-.07,0-.13-.1-.13-.23v0a.26.26,0,0,1,.1-.24l.09,0,.35-.06c.07,0,.13.1.13.23Zm4.31-3.11a.26.26,0,0,0-.35,0l-.34.34a3,3,0,0,0-.52,0,2,2,0,0,0-1.16.44,1.19,1.19,0,0,0-.35.92,1.21,1.21,0,0,0,.24.83,1,1,0,0,0,.45.23.22.22,0,0,1,.15.29l-.1.35a.38.38,0,0,0,0,.09.18.18,0,0,0,.06.07.52.52,0,0,0,.22.07,3.2,3.2,0,0,0,.48,0,.21.21,0,0,1,.23.21l-.29.05a4.54,4.54,0,0,1-1,0,.25.25,0,0,0-.26.22l-.11.76a4.74,4.74,0,0,0,1.31,0,3.85,3.85,0,0,0,1-.22,1.05,1.05,0,0,0,.7-1.09.64.64,0,0,0-.28-.61,2.36,2.36,0,0,0-.7-.1c-.13,0-.22-.07-.21-.16a1.48,1.48,0,0,0,.85-.42,1.22,1.22,0,0,0,.23-.81,1.79,1.79,0,0,0,0-.35.64.64,0,0,1,.09-.45l0-.07a.28.28,0,0,0,0-.36Zm-1,1.68a.26.26,0,0,1-.1.24l-.09,0-.32.06c-.05,0-.1-.1-.1-.24v-.18a.26.26,0,0,1,.1-.24l.09,0,.32-.06c.05,0,.1.1.1.24Zm4.7-.73a1,1,0,0,0-.34-.9,1.88,1.88,0,0,0-1.18-.1,1.75,1.75,0,0,0-1.22.6,2.16,2.16,0,0,0-.36,1.38,1.8,1.8,0,0,0,.4,1.28,1.42,1.42,0,0,0,1.24.28A7.16,7.16,0,0,0,292,61a.3.3,0,0,0,.18-.32l-.12-.72a3.71,3.71,0,0,1-1.15.35l-.13,0a.22.22,0,0,1-.23-.22,3,3,0,0,0,1.41-.44A1.05,1.05,0,0,0,292.33,58.77ZM291.2,59a.26.26,0,0,1-.1.24l-.09,0-.35.06c-.07,0-.13-.1-.13-.23v0a.26.26,0,0,1,.1-.24l.09,0,.35-.06c.07,0,.13.1.13.23Z"/><path class="cls-8" d="M277.85,64.25l0,0Zm2.36-.15,0,0Zm-4,.55,0-.21-.1-.05C276.18,64.55,276.09,64.62,276.2,64.66Zm1.39-.47c0,.1.16,0,.23,0S277.63,64.12,277.59,64.19Zm-2,.54c.06,0,.08-.11.12-.17s0-.25-.08-.14l0,.12C275.56,64.54,275.55,64.65,275.55,64.73Zm4.66-.62A.51.51,0,0,0,280,64c0,.08.1.11.13.07S280.18,64.1,280.21,64.11Zm-4.8.55c.05,0,.11.06.12-.08S275.46,64.62,275.41,64.66Zm-2-.19.07,0-.09-.12Zm.32,0c0-.06,0-.09,0-.14h-.05C273.69,64.37,273.71,64.45,273.76,64.44Zm15-1.75a.26.26,0,0,0,0,.16s0,0,0,0Zm-8.18,1.15c0,.08,0,0,.06.09S280.63,63.8,280.61,63.84Zm8.2-1.19c.09,0,.1.15.2.12l-.08-.17,0,.06C288.9,62.71,288.85,62.59,288.81,62.65Zm-15.56,1.84,0,0S273.24,64.51,273.25,64.49Zm15.39-1.73,0-.1c-.05.11-.09-.09-.07.1C288.55,62.77,288.59,62.79,288.64,62.76Zm-8.47,1,0-.06-.05.05Zm9.8-1.1,0,0Zm-8.26,1.08h-.06S281.67,63.79,281.7,63.78Zm-8.54.78,0,0S273.11,64.43,273.17,64.56Zm.28,0-.27.07,1-.13c.05.09.15.07.19.25,0,0,0,0,0,0s.09,0,.13,0l-.06-.11c.1-.22.11.07.22,0s-.13-.09-.14-.15h.09s0,0,0,0v0l.24,0,0,0,0,0,.22,0a.23.23,0,0,1-.06.12s.11-.14.12,0c0-.1.08-.06.11,0s0-.09,0-.15l.17,0a.2.2,0,0,1,0,.08s-.11,0-.06.13c0-.17,0,.06.09,0s0-.16,0-.23l.13,0,0,0v0l.21,0s0,.09,0,.08,0,0,.06,0,0,.14,0,.1l0-.16h.19a.3.3,0,0,1-.07.15h0c.07.06-.08.25.05.2a.45.45,0,0,1,.08-.35h.09v0a.66.66,0,0,0,.17.19l-.16-.21.19,0h0c0,.06-.06.13,0,.23.13-.24.26.08.38-.18,0,0,0-.06,0-.06v-.05h.07l.16,0h0s0,.05,0,0,0,0,.07-.07l.45-.06a.22.22,0,0,0,.22,0h0c.08.13.09.22.21.23l0-.15.13-.08a.08.08,0,0,1,0,0l.47-.06h.08l0,0v0c0-.09.09.12.15,0l0,0h0l0,0c.13,0,.15.17.26.17s0,0,0,.07.09-.1.06-.16.08.12.14.11l0,.23c.1.07.19-.09.26-.16s-.17-.11-.23-.11c0-.42-.25-.07-.3-.19h0l.4-.05c0,.08.13.09,0,.22.11.07.14,0,.25.11,0-.12.07-.16.08-.28s.1.13.14,0l-.08-.07a.11.11,0,0,0,.05-.07l.12,0a.24.24,0,0,1,0,0c.1-.06.21,0,.31-.07s0,0-.06,0l.21,0a.79.79,0,0,1,.25.38c.19.09.11-.35.34-.08,0,0,0-.17,0-.23s.09-.06.14,0l-.08.14c.11.1.25,0,.36-.06s0-.13-.07-.17.07-.1.11-.12,0,.26.14.31c1-.25,2-.26,3-.53v-.08a6.26,6.26,0,0,0,2-.33v.06c.21-.38.12.38.35,0,.16.32.36,0,.54.18l0-.11c.13.28.29-.26.44-.07.05-.11.08-.24.17-.16s0,.2,0,.1l-.06-.19a.15.15,0,0,1,.25,0l.11,0,0-.06.08,0h.1a.15.15,0,0,1,0,.06l0-.07.23,0a.53.53,0,0,0,0,.16c.11-.09.07.29.17.19v-.13c.08,0,.13,0,.18.11v-.07c.15-.09.23.06.34-.19l.07.07a.12.12,0,0,1,0-.13c.06,0,.14.14.11.21.2-.22.25.07.47,0,0-.15.09-.06.06-.19l.06.07s0,0,0-.06,0,0,0,.05v0l.1,0v.13l.07-.12c0-.16-.14,0-.15-.2l0,0h.1s0,0,0,.14c.09-.06,0,.15.14.06v-.08l.11.06s0-.09,0-.16h-.13l.09,0,.19,0s0,0,0,0a.28.28,0,0,1,.14,0c0,.11-.05.16,0,.23.64.12,1-.63,1.62-.16.08-.13.27-.28.33-.2l0,0c.08.08.14-.18.19,0l.06.18s.14-.06.13-.14c.05.09.19-.06.17.18a1.13,1.13,0,0,1,.35-.08.09.09,0,0,1,0,0c0-.09,0,.14.09,0s-.12-.05,0-.13c0,.17.2,0,.26-.11a.2.2,0,0,1,.08.11c.05,0,.14-.19.07-.22.13.06.16-.14.16.11.15.15.29-.15.42.07a1.55,1.55,0,0,0,.63-.36,96.53,96.53,0,0,0-20.62,2.2.6.6,0,0,0,.06.18l-.08,0c0-.08,0-.12-.1-.17l-.25.06v0h0l-.06,0a.09.09,0,0,1,0,0s0,0-.05,0l-.28.07a.1.1,0,0,1,0,.07c.09.18.23-.23.28.06l-.2.05c0-.08-.11-.08-.16-.12v.05s-.06,0-.07-.08l-.09,0h0l-.18,0v0c.06,0,.09.08.13.16l-.48.13-.07,0v0Zm17.69-2.38.15,0a.22.22,0,0,0,0,.07s-.07,0-.1-.06,0,0,0,.06Zm-.38.05h.08v0Zm-11,1.53h0c0,.06.08.15,0,.22C279.78,63.78,279.56,63.88,279.73,63.77Zm-2.88.38h0ZM275.72,64a.17.17,0,0,1,0-.13.56.56,0,0,1,.05.11Zm-.88.23c0-.06.05-.11.1,0Zm-.86.23a.15.15,0,0,1,0-.16c.05-.11.14.05.23.08l-.05,0v0Zm5.79-.33,0,0Zm-5.9.47c0,.12.06.23.17.28l.05-.09,0,0,.08-.15C274,64.59,274,64.66,273.88,64.57Zm2.95-.33h0S276.83,64.27,276.83,64.24Zm-2,.33.06.07c.05,0,0-.1.06-.07S274.88,64.5,274.84,64.58Zm4-.64v0S278.8,64,278.81,63.93Zm0,0s0,0,0,0Z"/><path class="cls-8" d="M271.26,62.12h0a3.74,3.74,0,0,1,.41-1.21.66.66,0,0,0,.06-.14V60.7c0-.38-.62-.38-.74-.35h0a1.08,1.08,0,0,0-.79.55c-.23.47-.15.76-.73,1-.39.18-.79.08-1.18.22s-.36.7-.38,1.06-.05.92-.48,1.07-.93.16-1.06.88a4.2,4.2,0,0,1-.17,1.18,1.62,1.62,0,0,1-1,.61c-.48.13-.72.39-.65,1,0,.11,0,.22,0,.33h0a.85.85,0,0,0,.73.72,3.37,3.37,0,0,0,1.16-.25,10.61,10.61,0,0,1,1.94-.4c1.92-.24,2.46-1.94,2.69-3.79C271.16,63.93,271.11,63,271.26,62.12Z"/><path class="cls-8" d="M267.28,62.87a.27.27,0,0,1-.12,0l-.92-.35a.42.42,0,0,0-.53.15s-1.35,1.84-1.51,2.13-.35.13-.35.13-.71-.39-.88-.46a.14.14,0,0,0-.21.1l-.11.55c0,.15-.13-.21-.13-.21l-.2-.91c-.06-.29.13-.19.13-.19s1.13.17,1.25.17a.22.22,0,0,0,.17-.08h0s.35-.68.44-.87a.43.43,0,0,0,.05-.32l-.47-1.31c-.09-.22-.23-.21-.23-.21l-.7,0a.46.46,0,0,0-.3.13l-.46.58a2.14,2.14,0,0,0-.29,1.25q0,.4.08.79c.73,4.14,1.08,4.72,2.23,4.86.2,0,.23-.2.21-.41a2.34,2.34,0,0,1-.07-1c.16-.65.78-.52,1.2-.71.61-.3.36-.9.4-1.47,0-.82.46-.77,1-1,.72-.29.46-.94.52-1.52v-.06l-.07.13C267.38,62.83,267.31,62.86,267.28,62.87Zm3.93-7.4h0c0-.1-.09-.07-.13,0l-.2.13a.4.4,0,0,0-.19.41,1.19,1.19,0,0,1,.09.39c0,.19-.2,0-.25,0a.4.4,0,0,0-.33-.05.92.92,0,0,0-.32.32c-.06.09-.16.32-.21.09a4.18,4.18,0,0,1,0-.56c0-.25-.21-.28-.42-.37s-.41-.13-.42-.25.06-.08.14-.08a1.36,1.36,0,0,0,.42-.06h0l.07,0a.42.42,0,0,0,.3-.33c.05-.15.05-.37.17-.5s.24.15.27.23a.73.73,0,0,0,.25.34.92.92,0,0,0,.54,0l.11,0h0a.07.07,0,0,0,.05-.11h0a1.43,1.43,0,0,0-1.57-.89,5.33,5.33,0,0,0-.91.1,4,4,0,0,1-.92,0c-4.33-.62-5.65.8-5.93,1.18a4,4,0,0,0-.65,2.52,12.8,12.8,0,0,0,.65,3.27c0,.14.1.32.24.12l0-.05.24-.33a.76.76,0,0,1,.36-.26l1.29-.38h0l1.2-.58h0l1-.64.06,0h0a1,1,0,0,1,.22-.08.13.13,0,0,1,.14,0c.06.1-.15.3-.15.3h0l-.73.75a1.07,1.07,0,0,1-.2.16h0l-.64.45a.23.23,0,0,0,0,.28l0,0h0l.25.47c.16.24.35.18.35.18l.57-.15a.54.54,0,0,1,.45.1l.63.56s.21.16.33,0,.65-.68.52-.22a5.2,5.2,0,0,1,1-.33c.84-.27.39-1.06.86-1.63a1.11,1.11,0,0,1,.71-.33.52.52,0,0,0,.43-.5s0,0,0-.05a7.26,7.26,0,0,1,.06-1A9.94,9.94,0,0,0,271.21,55.46Zm-7.26,4.61c-.31.17-.78-.05-1.08-.5s-.3-.95,0-1.09a1.07,1.07,0,0,1,1.15.54C264.32,59.44,264.26,59.91,263.95,60.07Z"/><path class="cls-8" d="M275.11,66.62a.8.8,0,0,1-.13.49.51.51,0,0,1-.37.22.29.29,0,0,1-.23-.06.45.45,0,0,1,0,.12.09.09,0,0,1-.08.07q-.08,0-.08-.1v-.1q0-.12,0-.26t0-.42a4.71,4.71,0,0,0,0-.49s0-.08,0-.13v-.08a.08.08,0,0,1,0-.06l.06,0s.08,0,.1.11a3,3,0,0,1,0,.38.52.52,0,0,1,.3-.15.34.34,0,0,1,.32.11A.6.6,0,0,1,275.11,66.62Zm-.17,0a.46.46,0,0,0-.08-.28.21.21,0,0,0-.21-.08.33.33,0,0,0-.27.19v.15q0,.11,0,.23V67h0a.21.21,0,0,0,.24.15.32.32,0,0,0,.23-.15A.6.6,0,0,0,274.93,66.65Z"/><path class="cls-8" d="M276.22,67a.13.13,0,0,1,0,.08.09.09,0,0,1-.06,0s-.09-.07-.12-.22a.49.49,0,0,1-.35.27q-.35,0-.36-.57a3.62,3.62,0,0,1,0-.56q0-.15.11-.16a.06.06,0,0,1,.06,0,.08.08,0,0,1,0,.06s0,.1,0,.24a3.34,3.34,0,0,0,0,.39q0,.42.21.39a.28.28,0,0,0,.21-.14.62.62,0,0,0,.07-.33v-.06a3.52,3.52,0,0,1,0-.42q0-.13.1-.14s.07,0,.08.1,0,.06,0,.15,0,.16,0,.23a2.85,2.85,0,0,0,0,.45A.84.84,0,0,0,276.22,67Z"/><path class="cls-8" d="M276.65,65.94a7.26,7.26,0,0,1,0,.87.64.64,0,0,1,0,.16.09.09,0,0,1-.08.06.07.07,0,0,1-.06,0,.08.08,0,0,1,0-.06v-.07q0-.08,0-.19t0-.33,0-.17v-.1a.59.59,0,0,1,0-.19.09.09,0,0,1,.08-.07Q276.65,65.83,276.65,65.94Zm0-.37q0,.14-.12.15a.1.1,0,0,1-.08,0,.12.12,0,0,1,0-.09.16.16,0,0,1,0-.1.13.13,0,0,1,.09-.05.09.09,0,0,1,.08,0A.13.13,0,0,1,276.68,65.56Z"/><path class="cls-8" d="M277.17,67a.36.36,0,0,1,0,.09.07.07,0,0,1-.06.05q-.08,0-.1-.14t0-.69q0-.49,0-.6t.09-.13.09.11s0,.1,0,.23,0,.26,0,.37,0,.23,0,.39S277.17,66.9,277.17,67Z"/><path class="cls-8" d="M278.32,65.35v.15q0,.18,0,.38t0,.61s0,.09,0,.14v.07q0,.14-.08.16t-.09-.15s0,0,0-.06a.58.58,0,0,1-.38.23.32.32,0,0,1-.29-.09.5.5,0,0,1-.11-.35.85.85,0,0,1,.15-.52.56.56,0,0,1,.4-.24.53.53,0,0,1,.24,0,3,3,0,0,1,0-.32q0-.1.1-.11S278.32,65.28,278.32,65.35Zm-.19.53a.37.37,0,0,0-.23,0,.38.38,0,0,0-.28.17.66.66,0,0,0-.1.38.36.36,0,0,0,.07.24.21.21,0,0,0,.19.06.31.31,0,0,0,.23-.14l0-.08a.11.11,0,0,1,.06-.06Q278.12,66.14,278.13,65.88Z"/><path class="cls-8" d="M278.86,66.5a.19.19,0,0,1,0,.12.15.15,0,0,1-.1.06.1.1,0,0,1-.09,0,.14.14,0,0,1,0-.1.16.16,0,0,1,0-.11.15.15,0,0,1,.1-.06Q278.86,66.37,278.86,66.5Z"/><path class="cls-8" d="M280.56,65.91a.8.8,0,0,1-.13.49.51.51,0,0,1-.37.22.29.29,0,0,1-.23-.06.44.44,0,0,1,0,.12.09.09,0,0,1-.08.07q-.08,0-.08-.1v-.1q0-.12,0-.26t0-.42a4.71,4.71,0,0,0,0-.49s0-.08,0-.13v-.08a.08.08,0,0,1,0-.06l.06,0s.08,0,.1.11a3,3,0,0,1,0,.38.52.52,0,0,1,.3-.15.34.34,0,0,1,.32.11A.6.6,0,0,1,280.56,65.91Zm-.17,0a.46.46,0,0,0-.08-.28.21.21,0,0,0-.21-.08.33.33,0,0,0-.27.19v.15q0,.11,0,.23v.14h0a.21.21,0,0,0,.24.15.32.32,0,0,0,.23-.15A.6.6,0,0,0,280.38,65.94Z"/><path class="cls-8" d="M281.38,65.46a.11.11,0,0,1,0,.06l0,0-.06,0a.11.11,0,0,0-.07,0,.18.18,0,0,0-.13.1.44.44,0,0,0,0,.23V66a1.19,1.19,0,0,1,0,.34c0,.08-.06.13-.1.13s-.08,0-.08-.08a1.2,1.2,0,0,1,0-.13,1,1,0,0,0,0-.21,1.06,1.06,0,0,0-.08-.43l0-.09a.17.17,0,0,1,0-.07.09.09,0,0,1,0-.06l.06,0q.09,0,.16.23a.33.33,0,0,1,.26-.23.2.2,0,0,1,.14,0A.13.13,0,0,1,281.38,65.46Z"/><path class="cls-8" d="M282.37,65.47a.2.2,0,0,1-.06.16l-.18.08a1.66,1.66,0,0,1-.34.09h-.15q0,.37.26.33a.22.22,0,0,0,.12-.06l.1-.12a.09.09,0,0,1,.05,0,.07.07,0,0,1,.06,0,.1.1,0,0,1,0,.07.12.12,0,0,1,0,.07.51.51,0,0,1-.35.23q-.42.05-.43-.48a.92.92,0,0,1,.13-.5.51.51,0,0,1,.37-.28.33.33,0,0,1,.29.09A.43.43,0,0,1,282.37,65.47Zm-.17,0a.34.34,0,0,0-.07-.21.16.16,0,0,0-.15-.06.31.31,0,0,0-.2.12.65.65,0,0,0-.13.28h.13A1.75,1.75,0,0,0,282.2,65.5Z"/><path class="cls-8" d="M283.28,65.59a2.47,2.47,0,0,1-.06.57q0,.15-.1.16s-.07,0-.07-.08a.19.19,0,0,1,0,0,.39.39,0,0,1-.18.08.3.3,0,0,1-.27-.07.39.39,0,0,1-.1-.28.49.49,0,0,1,.1-.32.4.4,0,0,1,.27-.15.29.29,0,0,1,.25.08q0-.38-.26-.35a.25.25,0,0,0-.11.05l-.08,0a.06.06,0,0,1-.05,0,.08.08,0,0,1,0-.06.16.16,0,0,1,.07-.12.38.38,0,0,1,.19-.08Q283.27,65,283.28,65.59Zm-.17.25q0-.25-.21-.22a.24.24,0,0,0-.23.27q0,.25.23.22a.22.22,0,0,0,.15-.08A.29.29,0,0,0,283.11,65.84Z"/><path class="cls-8" d="M283.76,64.74l0,.06a1.31,1.31,0,0,0,0,.17,2,2,0,0,0,0,.29q0,.09,0,.27t0,.27a.59.59,0,0,1,0,.19.09.09,0,0,1-.08.07.05.05,0,0,1-.06,0,.27.27,0,0,1,0-.08s0-.07,0-.12v-.1q0-.1,0-.26t0-.23a1.6,1.6,0,0,1,0-.41q0-.15.11-.15a.08.08,0,0,1,.06,0A.08.08,0,0,1,283.76,64.74Zm.61.12s0,.09-.11.14l-.33.22a2.82,2.82,0,0,1,.33.37.48.48,0,0,1,.11.22.12.12,0,0,1,0,.08.08.08,0,0,1-.06,0,.06.06,0,0,1-.06,0l-.19-.3a1.48,1.48,0,0,0-.24-.25l-.05,0a.13.13,0,0,1,0-.08.11.11,0,0,1,.05-.08l.15-.1.24-.17a.4.4,0,0,1,.13-.08Q284.37,64.77,284.38,64.85Z"/><path class="cls-8" d="M284.83,65.73a.18.18,0,0,1,0,.12.15.15,0,0,1-.1.06.1.1,0,0,1-.09,0,.14.14,0,0,1,0-.1.16.16,0,0,1,0-.11.15.15,0,0,1,.1-.06Q284.82,65.59,284.83,65.73Z"/><path class="cls-8" d="M285.82,64.75a7.28,7.28,0,0,1,0,.87.64.64,0,0,1,0,.16.09.09,0,0,1-.08.06.07.07,0,0,1-.06,0,.08.08,0,0,1,0-.06v-.07c0-.06,0-.12,0-.19s0-.21,0-.33,0-.11,0-.17v-.1a.59.59,0,0,1,0-.19.09.09,0,0,1,.08-.07C285.79,64.65,285.82,64.68,285.82,64.75Zm0-.37q0,.14-.12.15a.1.1,0,0,1-.08,0,.12.12,0,0,1,0-.09.16.16,0,0,1,0-.1.13.13,0,0,1,.09-.05.09.09,0,0,1,.08,0A.13.13,0,0,1,285.85,64.37Z"/><path class="cls-8" d="M287,65a1.68,1.68,0,0,1-.06.47q0,.15-.1.16l-.06,0a.07.07,0,0,1,0-.05l0-.18a1.44,1.44,0,0,0,0-.34q0-.38-.22-.35a.28.28,0,0,0-.2.13.47.47,0,0,0-.08.28,1.93,1.93,0,0,0,0,.26,1.9,1.9,0,0,1,0,.24q0,.17-.08.18a.07.07,0,0,1-.06,0,.15.15,0,0,1,0-.07s0-.16,0-.34,0-.45,0-.57,0-.3.1-.31l.06,0a.06.06,0,0,1,0,.05.58.58,0,0,1,0,.08.62.62,0,0,0,0,.1v0a.43.43,0,0,1,.31-.24.27.27,0,0,1,.27.11A.66.66,0,0,1,287,65Z"/><path class="cls-8" d="M288,64.91a1.67,1.67,0,0,1-.06.47q0,.15-.1.16l-.06,0a.07.07,0,0,1,0-.05l0-.18a1.43,1.43,0,0,0,0-.34q0-.38-.22-.35a.28.28,0,0,0-.2.13.47.47,0,0,0-.08.28,1.93,1.93,0,0,0,0,.26,1.88,1.88,0,0,1,0,.24q0,.17-.08.18a.07.07,0,0,1-.06,0,.15.15,0,0,1,0-.07s0-.15,0-.34,0-.45,0-.57,0-.3.1-.31l.06,0a.06.06,0,0,1,0,.05.58.58,0,0,1,0,.08.62.62,0,0,0,0,.1v0a.43.43,0,0,1,.31-.24.27.27,0,0,1,.27.11A.66.66,0,0,1,288,64.91Z"/><path class="cls-8" d="M289.17,64.71a.73.73,0,0,1-.14.47.58.58,0,0,1-.4.22.34.34,0,0,1-.33-.12.66.66,0,0,1-.12-.42.74.74,0,0,1,.14-.48.55.55,0,0,1,.39-.21.37.37,0,0,1,.34.12A.61.61,0,0,1,289.17,64.71Zm-.17,0a.45.45,0,0,0-.09-.29.25.25,0,0,0-.23-.08q-.33,0-.32.48a.53.53,0,0,0,.08.3.21.21,0,0,0,.21.08.38.38,0,0,0,.27-.15A.54.54,0,0,0,289,64.73Z"/><path class="cls-8" d="M290.11,64.08a1.35,1.35,0,0,1,0,.25l-.06.27a3.75,3.75,0,0,1-.15.46q-.11.27-.19.28s-.06,0-.08-.1l-.08-.29a3.8,3.8,0,0,0-.27-.68l0-.06a.12.12,0,0,1,0-.06.08.08,0,0,1,.08-.1q.09,0,.2.23a5.71,5.71,0,0,1,.25.73,3.44,3.44,0,0,0,.21-.84q0-.13,0-.15a.08.08,0,0,1,.07-.06Q290.11,63.94,290.11,64.08Z"/><path class="cls-8" d="M291,64.59a2.47,2.47,0,0,1-.06.57q0,.15-.1.16s-.07,0-.07-.08a.19.19,0,0,1,0,0,.39.39,0,0,1-.18.08.3.3,0,0,1-.27-.07.39.39,0,0,1-.1-.28.49.49,0,0,1,.1-.32.4.4,0,0,1,.27-.15.29.29,0,0,1,.25.08q0-.38-.26-.35a.25.25,0,0,0-.11.05l-.08,0a.06.06,0,0,1-.05,0,.08.08,0,0,1,0-.06.16.16,0,0,1,.07-.12.38.38,0,0,1,.19-.08Q291,63.95,291,64.59Zm-.17.25q0-.25-.21-.22a.24.24,0,0,0-.23.27q0,.25.23.22a.22.22,0,0,0,.15-.08A.29.29,0,0,0,290.87,64.84Z"/><path class="cls-8" d="M292,64.15a.1.1,0,0,1,0,.06l0,0-.1,0a.4.4,0,0,0-.17,0h-.06a1.51,1.51,0,0,0,0,.29.5.5,0,0,0,.06.25.14.14,0,0,0,.14.07l.07,0,.07,0s.07,0,.07.08a.13.13,0,0,1-.06.1.32.32,0,0,1-.16.06q-.37,0-.38-.5a1.48,1.48,0,0,1,0-.26l-.11,0-.08,0q-.09,0-.09-.07t.32-.18q.06-.24.16-.26l.05,0a.08.08,0,0,1,0,.06.22.22,0,0,1,0,.07l0,.08Q292,64,292,64.15Z"/><path class="cls-8" d="M293,64.1a.2.2,0,0,1-.06.16l-.18.08a1.65,1.65,0,0,1-.34.09h-.15q0,.37.26.33a.22.22,0,0,0,.12-.06l.1-.12a.09.09,0,0,1,.05,0,.07.07,0,0,1,.06,0,.1.1,0,0,1,0,.07.12.12,0,0,1,0,.07.51.51,0,0,1-.35.23q-.42.05-.43-.48a.92.92,0,0,1,.13-.5.51.51,0,0,1,.37-.28.33.33,0,0,1,.29.09A.43.43,0,0,1,293,64.1Zm-.17,0a.34.34,0,0,0-.07-.21.16.16,0,0,0-.15-.06.31.31,0,0,0-.2.12.65.65,0,0,0-.13.28h.13A1.75,1.75,0,0,0,292.79,64.13Z"/><path class="cls-4" d="M275.09,54.79l-.51,0a.27.27,0,0,1-.26-.28v-.09a5.08,5.08,0,0,1,.66-.12,7.47,7.47,0,0,1,.78,0,.31.31,0,0,0,.3-.28l.12-1a6.64,6.64,0,0,0-1.67,0,2.09,2.09,0,0,0-1.3.53,2,2,0,0,0-.36,1.39,1.44,1.44,0,0,0,.33,1,2.05,2.05,0,0,0,.91.27h.62a.27.27,0,0,1,.27.28v.09a6.21,6.21,0,0,1-.82.15,5.4,5.4,0,0,1-.89,0,.3.3,0,0,0-.3.27l-.14,1a6.61,6.61,0,0,0,1.68,0l.6-.1a2.82,2.82,0,0,0,.52-.18,1.21,1.21,0,0,0,.46-.32,1.62,1.62,0,0,0,.27-.54,2.54,2.54,0,0,0,.11-.83,1.34,1.34,0,0,0-.36-1A2.41,2.41,0,0,0,275.09,54.79Zm1.84,0c.1,0,.18.11.18.26l0,1.82a.79.79,0,0,0,.06.31.61.61,0,0,0,.45.31,5.63,5.63,0,0,0,1,0,.33.33,0,0,0,.27-.31l0-.84h-.15a.29.29,0,0,1-.26-.3l0-1.16a.31.31,0,0,1,.24-.32.31.31,0,0,0,.24-.32v-.41a.23.23,0,0,0-.24-.26.23.23,0,0,1-.24-.26V52.9a.18.18,0,0,0-.26-.18l-.88.36a.44.44,0,0,0-.25.39v0c0,.16-.07.3-.17.31s-.17.15-.17.31v.41C276.75,54.68,276.83,54.8,276.93,54.79Zm5.66,2.09a.32.32,0,0,0,.26-.32l0-2.37q0-1.25-1.69-1a5.37,5.37,0,0,0-1.6.44l.18,1.07a4.24,4.24,0,0,1,1.35-.38h.11c.14,0,.26,0,.26.12s-.12.15-.26.17h0q-1.89.24-1.87,1.61a1,1,0,0,0,.41,1,1.06,1.06,0,0,0,.37.13,1.85,1.85,0,0,0,.5,0,1.88,1.88,0,0,0,.65-.23,1.42,1.42,0,0,0,.35-.26.27.27,0,0,1,.38,0l0,0a.63.63,0,0,0,.45.14Zm-1.15-1.12a.28.28,0,0,1-.08.21.29.29,0,0,1-.13.07l-.4.07c-.08,0-.14-.11-.15-.27v0a.3.3,0,0,1,.11-.28l.1-.05.4-.07c.08,0,.14.11.15.27Zm4.08-3.18a2.84,2.84,0,0,0-.8.48.3.3,0,0,1-.4,0h0a.62.62,0,0,0-.45-.15l-.17,0a.32.32,0,0,0-.26.32l.05,3.23a.24.24,0,0,0,.27.25l.87-.11a.32.32,0,0,0,.26-.32l0-1.89a.84.84,0,0,1,.36-.26l.18-.08a.35.35,0,0,0,.23-.35Zm.48,1c.1,0,.18.11.18.26l0,1.82a.79.79,0,0,0,.06.31.61.61,0,0,0,.45.31,5.63,5.63,0,0,0,1,0A.33.33,0,0,0,288,56l0-.84h-.15a.29.29,0,0,1-.26-.3l0-1.16a.31.31,0,0,1,.24-.32.31.31,0,0,0,.24-.32v-.41a.23.23,0,0,0-.24-.26.23.23,0,0,1-.24-.26v-.42a.18.18,0,0,0-.26-.18l-.88.36a.44.44,0,0,0-.25.39v0c0,.16-.07.3-.17.31s-.17.15-.17.31v.41C285.82,53.5,285.91,53.62,286,53.61Zm4.7,2a.3.3,0,0,1,.4,0l0,0a.64.64,0,0,0,.45.14l.17,0a.32.32,0,0,0,.26-.32L292,52.14a.24.24,0,0,0-.27-.25l-.87.11a.32.32,0,0,0-.26.32l0,2.2a.3.3,0,0,1-.11.28l-.1.05-.37.07c-.06,0-.11-.12-.11-.27l0-2.23a.24.24,0,0,0-.27-.25l-.87.11a.32.32,0,0,0-.26.32l0,2.37a1.22,1.22,0,0,0,.3.93,1.13,1.13,0,0,0,.91.17A2,2,0,0,0,290.7,55.57Zm5.24-3.68a1,1,0,0,0-.47-.42,1.37,1.37,0,0,0-.73-.08,1.75,1.75,0,0,0-.92.44c-.11.11-.26.12-.34,0a.47.47,0,0,0-.39-.14l-.17,0a.32.32,0,0,0-.26.32l.07,4.48a.22.22,0,0,0,.27.23l.87-.18a.35.35,0,0,0,.26-.34v-.57a.32.32,0,0,1,.26-.32l.54-.07a1.47,1.47,0,0,0,.6-.2,1.38,1.38,0,0,0,.4-.37,2.56,2.56,0,0,0,.36-1.51A2.69,2.69,0,0,0,295.94,51.88ZM294.77,54a.3.3,0,0,1-.11.28l-.1.05-.37.07c-.06,0-.11-.12-.11-.27l0-1.24a.29.29,0,0,1,.07-.2.35.35,0,0,1,.16-.1l.06,0,.29,0c.06,0,.11.11.11.27Zm-18.53,4.41-.83.11a.35.35,0,0,0-.27.28L274.75,61a.72.72,0,0,1-.07.26.6.6,0,0,1-.08-.24l-.46-2.1a.26.26,0,0,0-.28-.21l-.83.11a.21.21,0,0,0-.17.27l.89,3.57a.27.27,0,0,0,.29.21l1.32-.17a.37.37,0,0,0,.28-.28l.78-3.78C276.45,58.48,276.37,58.38,276.24,58.39Zm1.53-.41a.82.82,0,0,0-.54,0,1,1,0,0,0-.54.19.59.59,0,0,0-.13.44.46.46,0,0,0,.14.4.86.86,0,0,0,.54,0,1,1,0,0,0,.54-.18.57.57,0,0,0,.13-.43A.49.49,0,0,0,277.77,58Zm-.15,1.1-.76.2a.33.33,0,0,0-.22.31l0,2.66a.21.21,0,0,0,.23.22l.76-.1a.28.28,0,0,0,.23-.28l0-2.83A.18.18,0,0,0,277.62,59.08Zm2,1.84,0-3a.19.19,0,0,0-.23-.2l-.76.16a.31.31,0,0,0-.22.3l.05,3.45a.7.7,0,0,0,.05.27.54.54,0,0,0,.39.27,4.39,4.39,0,0,0,.8,0,.29.29,0,0,0,.24-.27l0-.73h-.07A.26.26,0,0,1,279.66,60.92Zm1.88-.24,0-3a.19.19,0,0,0-.23-.2l-.76.16a.31.31,0,0,0-.22.3l.05,3.45a.69.69,0,0,0,.05.27.54.54,0,0,0,.39.27,4.38,4.38,0,0,0,.8,0,.29.29,0,0,0,.24-.27l0-.73h-.07A.26.26,0,0,1,281.54,60.67Zm2.23-2.52a4.68,4.68,0,0,0-1.4.39l.16.93a3.71,3.71,0,0,1,1.18-.33h.09c.13,0,.23,0,.23.1s-.1.13-.23.15h0q-1.66.21-1.64,1.41a.91.91,0,0,0,.36.85.92.92,0,0,0,.33.12,1.61,1.61,0,0,0,.44,0,1.64,1.64,0,0,0,.57-.2,1.25,1.25,0,0,0,.31-.23.23.23,0,0,1,.33,0l0,0a.55.55,0,0,0,.39.13l.15,0a.28.28,0,0,0,.23-.28l0-2.08Q285.23,58,283.77,58.15Zm.28,2.29a.25.25,0,0,1-.19.25l-.35.06c-.07,0-.13-.1-.13-.23v0a.26.26,0,0,1,.1-.24l.09,0,.35-.06c.07,0,.13.1.13.23Zm4.31-3.11a.26.26,0,0,0-.35,0l-.34.34a3,3,0,0,0-.52,0,2,2,0,0,0-1.16.44,1.19,1.19,0,0,0-.35.92,1.21,1.21,0,0,0,.24.83,1,1,0,0,0,.45.23.22.22,0,0,1,.15.29l-.1.35a.38.38,0,0,0,0,.09.18.18,0,0,0,.06.07.52.52,0,0,0,.22.07,3.2,3.2,0,0,0,.48,0,.21.21,0,0,1,.23.21l-.29.05a4.54,4.54,0,0,1-1,0,.25.25,0,0,0-.26.22l-.11.76a4.74,4.74,0,0,0,1.31,0,3.85,3.85,0,0,0,1-.22,1.05,1.05,0,0,0,.7-1.09.64.64,0,0,0-.28-.61,2.36,2.36,0,0,0-.7-.1c-.13,0-.22-.07-.21-.16a1.48,1.48,0,0,0,.85-.42,1.22,1.22,0,0,0,.23-.81,1.79,1.79,0,0,0,0-.35.64.64,0,0,1,.09-.45l0-.07a.28.28,0,0,0,0-.36Zm-1,1.68a.26.26,0,0,1-.1.24l-.09,0-.32.06c-.05,0-.1-.1-.1-.24v-.18a.26.26,0,0,1,.1-.24l.09,0,.32-.06c.05,0,.1.1.1.24Zm4.7-.73a1,1,0,0,0-.34-.9,1.88,1.88,0,0,0-1.18-.1,1.75,1.75,0,0,0-1.22.6,2.16,2.16,0,0,0-.36,1.38,1.8,1.8,0,0,0,.4,1.28,1.42,1.42,0,0,0,1.24.28,7.16,7.16,0,0,0,1.12-.3.3.3,0,0,0,.18-.32l-.12-.72a3.71,3.71,0,0,1-1.15.35l-.13,0a.22.22,0,0,1-.23-.22,3,3,0,0,0,1.41-.44A1.05,1.05,0,0,0,292.09,58.28Zm-1.13.19a.26.26,0,0,1-.1.24l-.09,0-.35.06c-.07,0-.13-.1-.13-.23v0a.26.26,0,0,1,.1-.24l.09,0,.35-.06c.07,0,.13.1.13.23Z"/><path class="cls-4" d="M277.62,63.76l0,0Zm2.36-.15,0,0Zm-4,.55,0-.21-.1-.05C276,64.06,275.86,64.12,276,64.16Zm1.39-.47c0,.1.16,0,.23,0S277.39,63.63,277.36,63.69Zm-2,.54c.06,0,.08-.11.12-.17s0-.25-.08-.14l0,.12C275.33,64,275.32,64.16,275.32,64.23Zm4.66-.62a.51.51,0,0,0-.19-.11c0,.08.1.11.13.07S279.95,63.61,280,63.61Zm-4.8.55c.05,0,.11.06.12-.08S275.22,64.12,275.18,64.16Zm-2-.19.07,0-.09-.12Zm.32,0c0-.06,0-.09,0-.14h-.05C273.46,63.88,273.48,64,273.53,63.94Zm15-1.75a.26.26,0,0,0,0,.16s0,0,0,0Zm-8.18,1.15c0,.08,0,0,.06.09S280.39,63.31,280.38,63.34Zm8.2-1.19c.09,0,.1.15.2.12l-.08-.17,0,.06C288.67,62.21,288.62,62.09,288.58,62.15ZM273,64l0,0S273,64,273,64Zm15.39-1.73,0-.1c-.05.11-.09-.09-.07.1C288.32,62.27,288.36,62.3,288.41,62.27Zm-8.47,1,0-.06-.05.05Zm9.8-1.1,0,0Zm-8.26,1.08h-.06S281.44,63.29,281.47,63.28Zm-8.54.78,0,0S272.88,63.94,272.93,64.07Zm.28,0-.27.07,1-.13c.05.09.15.07.19.25,0,0,0,0,0,0s.09,0,.13,0l-.06-.11c.1-.22.11.07.22,0s-.13-.09-.14-.15h.09s0,0,0,0v0l.24,0,0,0,0,0,.22,0a.23.23,0,0,1-.06.12s.11-.14.12,0c0-.1.08-.06.11,0s0-.09,0-.15l.17,0a.2.2,0,0,1,0,.08s-.11,0-.06.13c0-.17,0,.06.09,0s0-.16,0-.23l.13,0,0,0v0l.21,0s0,.09,0,.08,0,0,.06,0,0,.14,0,.1l0-.16h.19a.3.3,0,0,1-.07.15h0c.07.06-.08.25.05.2a.45.45,0,0,1,.08-.35H276v0a.66.66,0,0,0,.17.19l-.16-.21.19,0h0c0,.06-.06.13,0,.23.13-.24.26.08.38-.18,0,0,0-.06,0-.06v-.05h.07l.16,0h0s0,.05,0,0,0,0,.07-.07l.45-.06a.22.22,0,0,0,.22,0h0c.08.13.09.22.21.23l0-.15.13-.08a.08.08,0,0,1,0,0l.47-.06h.08l0,0v0c0-.09.09.12.15,0l0,0h0l0,0c.13,0,.15.17.26.17s0,0,0,.07.09-.1.06-.16.08.12.14.11l0,.23c.1.07.19-.09.26-.16s-.17-.11-.23-.11c0-.42-.25-.07-.3-.19h0l.4-.05c0,.08.13.09,0,.22.11.07.14,0,.25.11,0-.12.07-.16.08-.28s.1.13.14,0l-.08-.07a.11.11,0,0,0,.05-.07l.12,0a.24.24,0,0,1,0,0c.1-.06.21,0,.31-.07s0,0-.06,0l.21,0a.79.79,0,0,1,.25.38c.19.09.11-.35.34-.08,0,0,0-.17,0-.23s.09-.06.14,0l-.08.14c.11.1.25,0,.36-.06s0-.13-.07-.17.07-.1.11-.12,0,.26.14.31c1-.25,2-.26,3-.53v-.08a6.26,6.26,0,0,0,2-.33v.06c.21-.38.12.38.35,0,.16.32.36,0,.54.18l0-.11c.13.28.29-.26.44-.07.05-.11.08-.24.17-.16s0,.2,0,.1l-.06-.19a.15.15,0,0,1,.25,0l.11,0,0-.06.08,0h.1a.15.15,0,0,1,0,.06l0-.07.23,0a.53.53,0,0,0,0,.16c.11-.09.07.29.17.19v-.13c.08,0,.13,0,.18.11v-.07c.15-.09.23.06.34-.19l.07.07a.12.12,0,0,1,0-.13c.06,0,.14.14.11.21.2-.22.25.07.47,0,0-.15.09-.06.06-.19l.06.07s0,0,0-.06,0,0,0,.05v0l.1,0v.13l.07-.12c0-.16-.14,0-.15-.2l0,0h.1s0,0,0,.14c.09-.06,0,.15.14.06v-.08l.11.06s0-.09,0-.16h-.13l.09,0,.19,0s0,0,0,0a.28.28,0,0,1,.14,0c0,.11-.05.16,0,.23.64.12,1-.63,1.62-.16.08-.13.27-.28.33-.2l0,0c.08.08.14-.18.19,0l.06.18s.14-.06.13-.14c.05.09.19-.06.17.18a1.13,1.13,0,0,1,.35-.08.09.09,0,0,1,0,0c0-.09,0,.14.09,0s-.12-.05,0-.13c0,.17.2,0,.26-.11a.2.2,0,0,1,.08.11c.05,0,.14-.19.07-.22.13.06.16-.14.16.11.15.15.29-.15.42.07a1.55,1.55,0,0,0,.63-.36,96.53,96.53,0,0,0-20.62,2.2.6.6,0,0,0,.06.18l-.08,0c0-.08,0-.12-.1-.17l-.25.06v0h0l-.06,0a.09.09,0,0,1,0,0s0,0-.05,0l-.28.07a.1.1,0,0,1,0,.07c.09.18.23-.23.28.06l-.2.05c0-.08-.11-.08-.16-.12v.05s-.06,0-.07-.08l-.09,0h0l-.18,0v0c.06,0,.09.08.13.16l-.48.13-.07,0v0Zm17.69-2.38.15,0a.22.22,0,0,0,0,.07s-.07,0-.1-.06,0,0,0,.06Zm-.38.05h.08v0Zm-11,1.53h0c0,.06.08.15,0,.22C279.55,63.28,279.33,63.39,279.49,63.28Zm-2.88.38h0Zm-1.13-.17a.17.17,0,0,1,0-.13.56.56,0,0,1,.05.11Zm-.88.23c0-.06.05-.11.1,0Zm-.86.23a.15.15,0,0,1,0-.16c.05-.11.14.05.23.08l-.05,0v0Zm5.79-.33,0,0Zm-5.9.47c0,.12.06.23.17.28l.05-.09,0,0,.08-.15C273.8,64.1,273.75,64.17,273.64,64.08Zm2.95-.33h0S276.6,63.77,276.59,63.75Zm-2,.33.06.07c.05,0,0-.1.06-.07S274.65,64,274.61,64.08Zm4-.64v0S278.57,63.46,278.57,63.44Zm0,0s0,0,0,0Z"/><path class="cls-4" d="M271,61.63h0a3.74,3.74,0,0,1,.41-1.21.66.66,0,0,0,.06-.14v-.06c0-.38-.62-.38-.74-.35h0a1.08,1.08,0,0,0-.79.55c-.23.47-.15.76-.73,1-.39.18-.79.08-1.18.22s-.36.7-.38,1.06-.05.92-.48,1.07-.93.16-1.06.88a4.2,4.2,0,0,1-.17,1.18,1.62,1.62,0,0,1-1,.61c-.48.13-.72.39-.65,1,0,.11,0,.22,0,.33h0a.85.85,0,0,0,.73.72,3.37,3.37,0,0,0,1.16-.25,10.61,10.61,0,0,1,1.94-.4c1.92-.24,2.46-1.94,2.69-3.79C270.93,63.43,270.88,62.5,271,61.63Z"/><path class="cls-4" d="M267,62.37a.27.27,0,0,1-.12,0L266,62a.42.42,0,0,0-.53.15S264.13,64,264,64.28s-.35.13-.35.13-.71-.39-.88-.46a.14.14,0,0,0-.21.1l-.11.55c0,.15-.13-.21-.13-.21l-.2-.91c-.06-.29.13-.19.13-.19s1.13.17,1.25.17a.22.22,0,0,0,.17-.08h0s.35-.68.44-.87a.43.43,0,0,0,.05-.32l-.47-1.31c-.09-.22-.23-.21-.23-.21l-.7,0a.46.46,0,0,0-.3.13l-.46.58a2.14,2.14,0,0,0-.29,1.25q0,.4.08.79c.73,4.14,1.08,4.72,2.23,4.86.2,0,.23-.2.21-.41a2.34,2.34,0,0,1-.07-1c.16-.65.78-.52,1.2-.71.61-.3.36-.9.4-1.47,0-.82.46-.77,1-1,.72-.29.46-.94.52-1.52v-.06l-.07.13C267.14,62.34,267.08,62.37,267,62.37ZM271,55h0c0-.1-.09-.07-.13,0l-.2.13a.4.4,0,0,0-.19.41,1.19,1.19,0,0,1,.09.39c0,.19-.2,0-.25,0a.4.4,0,0,0-.33-.05.92.92,0,0,0-.32.32c-.06.09-.16.32-.21.09a4.18,4.18,0,0,1,0-.56c0-.25-.21-.28-.42-.37s-.41-.13-.42-.25.06-.08.14-.08a1.36,1.36,0,0,0,.42-.06h0l.07,0a.42.42,0,0,0,.3-.33c.05-.15.05-.37.17-.5s.24.15.27.23a.73.73,0,0,0,.25.34.92.92,0,0,0,.54,0l.11,0h0a.07.07,0,0,0,.05-.11h0a1.43,1.43,0,0,0-1.57-.89,5.33,5.33,0,0,0-.91.1,4,4,0,0,1-.92,0c-4.33-.62-5.65.8-5.93,1.18a4,4,0,0,0-.65,2.52,12.8,12.8,0,0,0,.65,3.27c0,.14.1.32.24.12l0-.05.24-.33a.76.76,0,0,1,.36-.26l1.29-.38h0l1.2-.58h0l1-.64.06,0h0a1,1,0,0,1,.22-.08.13.13,0,0,1,.14,0c.06.1-.15.3-.15.3h0l-.73.75a1.07,1.07,0,0,1-.2.16h0l-.64.45a.23.23,0,0,0,0,.28l0,0h0l.25.47c.16.24.35.18.35.18l.57-.15a.54.54,0,0,1,.45.1l.63.56s.21.16.33,0,.65-.68.52-.22a5.2,5.2,0,0,1,1-.33c.84-.27.39-1.06.86-1.63a1.11,1.11,0,0,1,.71-.33.52.52,0,0,0,.43-.5s0,0,0-.05a7.26,7.26,0,0,1,.06-1A9.94,9.94,0,0,0,271,55Zm-7.26,4.61c-.31.17-.78-.05-1.08-.5s-.3-.95,0-1.09a1.07,1.07,0,0,1,1.15.54C264.09,58.95,264,59.41,263.72,59.58Z"/><path class="cls-4" d="M274.88,66.12a.8.8,0,0,1-.13.49.51.51,0,0,1-.37.22.29.29,0,0,1-.23-.06.45.45,0,0,1,0,.12.09.09,0,0,1-.08.07q-.08,0-.08-.1v-.1q0-.12,0-.26t0-.42a4.71,4.71,0,0,0,0-.49s0-.08,0-.13v-.08a.08.08,0,0,1,0-.06l.06,0s.08,0,.1.11a3,3,0,0,1,0,.38.52.52,0,0,1,.3-.15.34.34,0,0,1,.32.11A.6.6,0,0,1,274.88,66.12Zm-.17,0a.46.46,0,0,0-.08-.28.21.21,0,0,0-.21-.08.33.33,0,0,0-.27.19v.15q0,.11,0,.23v.14h0a.21.21,0,0,0,.24.15.32.32,0,0,0,.23-.15A.6.6,0,0,0,274.7,66.15Z"/><path class="cls-4" d="M276,66.51a.13.13,0,0,1,0,.08.09.09,0,0,1-.06,0s-.09-.07-.12-.22a.49.49,0,0,1-.35.27q-.35,0-.36-.57a3.62,3.62,0,0,1,0-.56q0-.15.11-.16a.06.06,0,0,1,.06,0,.08.08,0,0,1,0,.06s0,.1,0,.24a3.34,3.34,0,0,0,0,.39q0,.42.21.39a.28.28,0,0,0,.21-.14.62.62,0,0,0,.07-.33V66a3.52,3.52,0,0,1,0-.42q0-.13.1-.14s.07,0,.08.1,0,.06,0,.15,0,.16,0,.23a2.85,2.85,0,0,0,0,.45A.84.84,0,0,0,276,66.51Z"/><path class="cls-4" d="M276.41,65.44a7.26,7.26,0,0,1,0,.87.64.64,0,0,1,0,.16.09.09,0,0,1-.08.06.07.07,0,0,1-.06,0,.08.08,0,0,1,0-.06v-.07q0-.08,0-.19t0-.33,0-.17v-.1a.59.59,0,0,1,0-.19.09.09,0,0,1,.08-.07Q276.41,65.34,276.41,65.44Zm0-.37q0,.14-.12.15a.1.1,0,0,1-.08,0,.12.12,0,0,1,0-.09.16.16,0,0,1,0-.1.13.13,0,0,1,.09-.05.09.09,0,0,1,.08,0A.13.13,0,0,1,276.45,65.07Z"/><path class="cls-4" d="M276.94,66.47a.36.36,0,0,1,0,.09.07.07,0,0,1-.06.05q-.08,0-.1-.14t0-.69q0-.49,0-.6t.09-.13.09.11s0,.1,0,.23,0,.26,0,.37,0,.23,0,.39S276.94,66.41,276.94,66.47Z"/><path class="cls-4" d="M278.09,64.86V65q0,.18,0,.38t0,.61s0,.09,0,.14v.07q0,.14-.08.16t-.09-.15s0,0,0-.06a.58.58,0,0,1-.38.23.32.32,0,0,1-.29-.09.5.5,0,0,1-.11-.35.85.85,0,0,1,.15-.52.56.56,0,0,1,.4-.24.53.53,0,0,1,.24,0,3,3,0,0,1,0-.32q0-.1.1-.11S278.09,64.79,278.09,64.86Zm-.19.53a.37.37,0,0,0-.23,0,.38.38,0,0,0-.28.17.66.66,0,0,0-.1.38.36.36,0,0,0,.07.24.21.21,0,0,0,.19.06.31.31,0,0,0,.23-.14l0-.08a.11.11,0,0,1,.06-.06Q277.89,65.64,277.9,65.39Z"/><path class="cls-4" d="M278.63,66a.19.19,0,0,1,0,.12.15.15,0,0,1-.1.06.1.1,0,0,1-.09,0,.14.14,0,0,1,0-.1.16.16,0,0,1,0-.11.15.15,0,0,1,.1-.06Q278.62,65.87,278.63,66Z"/><path class="cls-4" d="M280.33,65.42a.8.8,0,0,1-.13.49.51.51,0,0,1-.37.22.29.29,0,0,1-.23-.06.44.44,0,0,1,0,.12.09.09,0,0,1-.08.07q-.08,0-.08-.1V66q0-.12,0-.26t0-.42a4.71,4.71,0,0,0,0-.49s0-.08,0-.13v-.08a.08.08,0,0,1,0-.06l.06,0s.08,0,.1.11a3,3,0,0,1,0,.38.52.52,0,0,1,.3-.15.34.34,0,0,1,.32.11A.6.6,0,0,1,280.33,65.42Zm-.17,0a.46.46,0,0,0-.08-.28.21.21,0,0,0-.21-.08.33.33,0,0,0-.27.19v.15q0,.11,0,.23v.14h0a.21.21,0,0,0,.24.15.32.32,0,0,0,.23-.15A.6.6,0,0,0,280.15,65.45Z"/><path class="cls-4" d="M281.15,65a.11.11,0,0,1,0,.06l0,0L281,65a.11.11,0,0,0-.07,0,.18.18,0,0,0-.13.1.44.44,0,0,0,0,.23v.13a1.19,1.19,0,0,1,0,.34c0,.08-.06.13-.1.13s-.08,0-.08-.08a1.2,1.2,0,0,1,0-.13,1,1,0,0,0,0-.21,1.06,1.06,0,0,0-.08-.43l0-.09a.17.17,0,0,1,0-.07.09.09,0,0,1,0-.06l.06,0q.09,0,.16.23a.33.33,0,0,1,.26-.23.2.2,0,0,1,.14,0A.13.13,0,0,1,281.15,65Z"/><path class="cls-4" d="M282.14,65a.2.2,0,0,1-.06.16l-.18.08a1.66,1.66,0,0,1-.34.09h-.15q0,.37.26.33a.22.22,0,0,0,.12-.06l.1-.12a.09.09,0,0,1,.05,0,.07.07,0,0,1,.06,0,.1.1,0,0,1,0,.07.12.12,0,0,1,0,.07.51.51,0,0,1-.35.23q-.42.05-.43-.48a.92.92,0,0,1,.13-.5.51.51,0,0,1,.37-.28.33.33,0,0,1,.29.09A.43.43,0,0,1,282.14,65ZM282,65a.34.34,0,0,0-.07-.21.16.16,0,0,0-.15-.06.31.31,0,0,0-.2.12.65.65,0,0,0-.13.28h.13A1.75,1.75,0,0,0,282,65Z"/><path class="cls-4" d="M283,65.1a2.47,2.47,0,0,1-.06.57q0,.15-.1.16s-.07,0-.07-.08a.19.19,0,0,1,0,0,.39.39,0,0,1-.18.08.3.3,0,0,1-.27-.07.39.39,0,0,1-.1-.28.49.49,0,0,1,.1-.32.4.4,0,0,1,.27-.15.29.29,0,0,1,.25.08q0-.38-.26-.35a.25.25,0,0,0-.11.05l-.08,0a.06.06,0,0,1-.05,0,.08.08,0,0,1,0-.06.16.16,0,0,1,.07-.12.38.38,0,0,1,.19-.08Q283,64.46,283,65.1Zm-.17.25q0-.25-.21-.22a.24.24,0,0,0-.23.27q0,.25.23.22a.22.22,0,0,0,.15-.08A.29.29,0,0,0,282.87,65.35Z"/><path class="cls-4" d="M283.53,64.24l0,.06a1.31,1.31,0,0,0,0,.17,2,2,0,0,0,0,.29q0,.09,0,.27t0,.27a.59.59,0,0,1,0,.19.09.09,0,0,1-.08.07.05.05,0,0,1-.06,0,.27.27,0,0,1,0-.08s0-.07,0-.12v-.1q0-.1,0-.26t0-.23a1.6,1.6,0,0,1,0-.41q0-.15.11-.15a.08.08,0,0,1,.06,0A.08.08,0,0,1,283.53,64.24Zm.61.12s0,.09-.11.14l-.33.22a2.82,2.82,0,0,1,.33.37.48.48,0,0,1,.11.22.12.12,0,0,1,0,.08.08.08,0,0,1-.06,0,.06.06,0,0,1-.06,0l-.19-.3a1.48,1.48,0,0,0-.24-.25l-.05,0a.13.13,0,0,1,0-.08.11.11,0,0,1,.05-.08l.15-.1.24-.17a.4.4,0,0,1,.13-.08Q284.14,64.27,284.14,64.36Z"/><path class="cls-4" d="M284.59,65.24a.18.18,0,0,1,0,.12.15.15,0,0,1-.1.06.1.1,0,0,1-.09,0,.14.14,0,0,1,0-.1.16.16,0,0,1,0-.11.15.15,0,0,1,.1-.06Q284.59,65.1,284.59,65.24Z"/><path class="cls-4" d="M285.59,64.25a7.28,7.28,0,0,1,0,.87.64.64,0,0,1,0,.16.09.09,0,0,1-.08.06.07.07,0,0,1-.06,0,.08.08,0,0,1,0-.06V65.2c0-.06,0-.12,0-.19s0-.21,0-.33,0-.11,0-.17v-.1a.59.59,0,0,1,0-.19.09.09,0,0,1,.08-.07C285.56,64.15,285.59,64.18,285.59,64.25Zm0-.37q0,.14-.12.15a.1.1,0,0,1-.08,0,.12.12,0,0,1,0-.09.16.16,0,0,1,0-.1.13.13,0,0,1,.09-.05.09.09,0,0,1,.08,0A.13.13,0,0,1,285.62,63.88Z"/><path class="cls-4" d="M286.72,64.55a1.68,1.68,0,0,1-.06.47q0,.15-.1.16l-.06,0a.07.07,0,0,1,0-.05l0-.18a1.44,1.44,0,0,0,0-.34q0-.38-.22-.35a.28.28,0,0,0-.2.13.47.47,0,0,0-.08.28,1.93,1.93,0,0,0,0,.26,1.9,1.9,0,0,1,0,.24q0,.17-.08.18a.07.07,0,0,1-.06,0,.15.15,0,0,1,0-.07s0-.16,0-.34,0-.45,0-.57,0-.3.1-.31l.06,0a.06.06,0,0,1,0,.05.58.58,0,0,1,0,.08.62.62,0,0,0,0,.1v0a.43.43,0,0,1,.31-.24.27.27,0,0,1,.27.11A.66.66,0,0,1,286.72,64.55Z"/><path class="cls-4" d="M287.79,64.41a1.67,1.67,0,0,1-.06.47q0,.15-.1.16l-.06,0a.07.07,0,0,1,0-.05l0-.18a1.43,1.43,0,0,0,0-.34q0-.38-.22-.35a.28.28,0,0,0-.2.13.47.47,0,0,0-.08.28,1.93,1.93,0,0,0,0,.26,1.88,1.88,0,0,1,0,.24q0,.17-.08.18a.07.07,0,0,1-.06,0,.15.15,0,0,1,0-.07s0-.15,0-.34,0-.45,0-.57,0-.3.1-.31l.06,0a.06.06,0,0,1,0,.05.58.58,0,0,1,0,.08.62.62,0,0,0,0,.1v0a.43.43,0,0,1,.31-.24.27.27,0,0,1,.27.11A.66.66,0,0,1,287.79,64.41Z"/><path class="cls-4" d="M288.94,64.22a.73.73,0,0,1-.14.47.58.58,0,0,1-.4.22.34.34,0,0,1-.33-.12.66.66,0,0,1-.12-.42.74.74,0,0,1,.14-.48.55.55,0,0,1,.39-.21.37.37,0,0,1,.34.12A.61.61,0,0,1,288.94,64.22Zm-.17,0a.45.45,0,0,0-.09-.29.25.25,0,0,0-.23-.08q-.33,0-.32.48a.53.53,0,0,0,.08.3.21.21,0,0,0,.21.08.38.38,0,0,0,.27-.15A.54.54,0,0,0,288.77,64.24Z"/><path class="cls-4" d="M289.88,63.58a1.35,1.35,0,0,1,0,.25l-.06.27a3.75,3.75,0,0,1-.15.46q-.11.27-.19.28s-.06,0-.08-.1l-.08-.29a3.8,3.8,0,0,0-.27-.68l0-.06a.12.12,0,0,1,0-.06.08.08,0,0,1,.08-.1q.09,0,.2.23a5.71,5.71,0,0,1,.25.73,3.44,3.44,0,0,0,.21-.84q0-.13,0-.15a.08.08,0,0,1,.07-.06Q289.88,63.44,289.88,63.58Z"/><path class="cls-4" d="M290.81,64.09a2.47,2.47,0,0,1-.06.57q0,.15-.1.16s-.07,0-.07-.08a.19.19,0,0,1,0,0,.39.39,0,0,1-.18.08.3.3,0,0,1-.27-.07.39.39,0,0,1-.1-.28.49.49,0,0,1,.1-.32.4.4,0,0,1,.27-.15.29.29,0,0,1,.25.08q0-.38-.26-.35a.25.25,0,0,0-.11.05l-.08,0a.06.06,0,0,1-.05,0,.08.08,0,0,1,0-.06.16.16,0,0,1,.07-.12.38.38,0,0,1,.19-.08Q290.8,63.45,290.81,64.09Zm-.17.25q0-.25-.21-.22a.24.24,0,0,0-.23.27q0,.25.23.22a.22.22,0,0,0,.15-.08A.29.29,0,0,0,290.64,64.34Z"/><path class="cls-4" d="M291.76,63.65a.1.1,0,0,1,0,.06l0,0-.1,0a.4.4,0,0,0-.17,0h-.06a1.51,1.51,0,0,0,0,.29.5.5,0,0,0,.06.25.14.14,0,0,0,.14.07l.07,0,.07,0s.07,0,.07.08a.13.13,0,0,1-.06.1.32.32,0,0,1-.16.06q-.37,0-.38-.5a1.48,1.48,0,0,1,0-.26l-.11,0-.08,0q-.09,0-.09-.07t.32-.18q.06-.24.16-.26l.05,0a.08.08,0,0,1,0,.06.22.22,0,0,1,0,.07l0,.08Q291.76,63.5,291.76,63.65Z"/><path class="cls-4" d="M292.74,63.6a.2.2,0,0,1-.06.16l-.18.08a1.65,1.65,0,0,1-.34.09H292q0,.37.26.33a.22.22,0,0,0,.12-.06l.1-.12a.09.09,0,0,1,.05,0,.07.07,0,0,1,.06,0,.1.1,0,0,1,0,.07.12.12,0,0,1,0,.07.51.51,0,0,1-.35.23q-.42.05-.43-.48a.92.92,0,0,1,.13-.5.51.51,0,0,1,.37-.28.33.33,0,0,1,.29.09A.43.43,0,0,1,292.74,63.6Zm-.17,0a.34.34,0,0,0-.07-.21.16.16,0,0,0-.15-.06.31.31,0,0,0-.2.12.65.65,0,0,0-.13.28h.13A1.75,1.75,0,0,0,292.56,63.64Z"/><path class="cls-10" d="M472.3,143a3.2,3.2,0,1,1,3.2-3.2A3.21,3.21,0,0,1,472.3,143Zm0-4.91a1.7,1.7,0,1,0,1.7,1.7A1.71,1.71,0,0,0,472.3,138.12Z"/><path class="cls-9" d="M225.26,84.55a3.2,3.2,0,1,1,3.2-3.2A3.21,3.21,0,0,1,225.26,84.55Zm0-4.91a1.7,1.7,0,1,0,1.7,1.7A1.71,1.71,0,0,0,225.26,79.64Z"/><path class="cls-11" d="M390.35,127.9a2.06,2.06,0,1,1,2.06-2.06A2.06,2.06,0,0,1,390.35,127.9Zm0-3.12a1.06,1.06,0,1,0,1.06,1.06A1.06,1.06,0,0,0,390.35,124.77Z"/><path class="cls-10" d="M324,116.09a4.75,4.75,0,1,1,4.75-4.75A4.76,4.76,0,0,1,324,116.09Zm0-8a3.25,3.25,0,1,0,3.25,3.25A3.25,3.25,0,0,0,324,108.09Z"/><path class="cls-10" d="M105.79,239.45a5.66,5.66,0,1,1,5.66-5.66A5.66,5.66,0,0,1,105.79,239.45Zm0-9.82a4.16,4.16,0,1,0,4.16,4.16A4.16,4.16,0,0,0,105.79,229.64Z"/><path class="cls-12" d="M177.29,152.62a5.25,5.25,0,1,1,5.25-5.25A5.26,5.26,0,0,1,177.29,152.62Zm0-9a3.75,3.75,0,1,0,3.75,3.75A3.75,3.75,0,0,0,177.29,143.62Z"/><path class="cls-12" d="M327.29,195.62a5.25,5.25,0,1,1,5.25-5.25A5.26,5.26,0,0,1,327.29,195.62Zm0-9a3.75,3.75,0,1,0,3.75,3.75A3.75,3.75,0,0,0,327.29,186.62Z"/><path class="cls-10" d="M197,227.09a4.75,4.75,0,1,1,4.75-4.75A4.76,4.76,0,0,1,197,227.09Zm0-8a3.25,3.25,0,1,0,3.25,3.25A3.25,3.25,0,0,0,197,219.09Z"/><path class="cls-12" d="M408.76,78.93l-.55,0a5.64,5.64,0,1,1,.55,0Zm0-9.81A4.15,4.15,0,1,0,412,70.62h0A4.15,4.15,0,0,0,408.74,69.12Z"/><path class="cls-9" d="M376.65,105.75a3.4,3.4,0,1,1,2.17-.78A3.4,3.4,0,0,1,376.65,105.75Zm0-5.31a1.91,1.91,0,1,0,.18,0Z"/><path class="cls-10" d="M540.57,134.18a4.75,4.75,0,1,1,3.66-7.77h0a4.75,4.75,0,0,1-3.66,7.77Zm0-8a3.25,3.25,0,1,0,2.51,1.18h0A3.25,3.25,0,0,0,540.56,126.19Z"/><path class="cls-12" d="M571.75,187.81a5.65,5.65,0,1,1,3.6-1.29A5.65,5.65,0,0,1,571.75,187.81Zm0-9.81a4.16,4.16,0,1,0,3.21,1.51A4.14,4.14,0,0,0,571.74,178Z"/><path class="cls-10" d="M466.15,102.09l-.51,0a5.24,5.24,0,1,1,.51,0Zm0-9a3.75,3.75,0,1,0,.36,0Z"/><path class="cls-9" d="M445.26,215.55a3.2,3.2,0,1,1,3.2-3.2A3.21,3.21,0,0,1,445.26,215.55Zm0-4.91a1.7,1.7,0,1,0,1.7,1.7A1.71,1.71,0,0,0,445.26,210.64Z"/><path class="cls-13" d="M147.4,116.05h5.81a.47.47,0,0,0,.47-.49,4.27,4.27,0,0,1,1.14-3.26c1.77-1.82,5-1.8,5-1.81a.53.53,0,0,0,.36-.16.48.48,0,0,0,.11-.38,9.84,9.84,0,0,1,2-6.76,7.79,7.79,0,0,1,6.14-2.43,7.2,7.2,0,0,1,5.4,2.06c2.4,2.51,2.26,6.5,2.26,6.54a.48.48,0,0,0,.19.4.48.48,0,0,0,.44.07,6.65,6.65,0,0,1,5.61.26c2.84,1.65,3.64,5.54,3.65,5.58a.48.48,0,0,0,.47.38h11.42a.48.48,0,1,0,0-1h-11c-.29-1.1-1.32-4.27-4-5.83a7.29,7.29,0,0,0-5.78-.53,10.44,10.44,0,0,0-2.51-6.57,8.1,8.1,0,0,0-6.09-2.36,8.72,8.72,0,0,0-6.86,2.75,10.73,10.73,0,0,0-2.31,7,8.31,8.31,0,0,0-5.19,2.08,5.06,5.06,0,0,0-1.41,3.47H147.4a.48.48,0,0,0,0,1Z"/><path class="cls-13" d="M541,100.8h0l10-.45a1.16,1.16,0,0,0,.73-.1,1.2,1.2,0,0,0,.36-.87c0-.07,0-.13,0-.16a8.69,8.69,0,0,1,.34-1,6.56,6.56,0,0,1,.89-1.54,5.56,5.56,0,0,1,2.34-1.73A6.88,6.88,0,0,1,558,94.5a7.46,7.46,0,0,1,.83,0,1.25,1.25,0,0,0,.67,0c.35-.13.48-.52.71-1.46,0-.15.07-.27.09-.34a17.94,17.94,0,0,1,1-2.28,11.87,11.87,0,0,1,2.28-3.15,8.76,8.76,0,0,1,5.19-2.42A11.55,11.55,0,0,1,579.31,90a12.59,12.59,0,0,1,1.87,7.8.48.48,0,0,0,.95.1,13.57,13.57,0,0,0-2-8.41,12.37,12.37,0,0,0-11.5-5.5,9.7,9.7,0,0,0-5.75,2.68,12.8,12.8,0,0,0-2.46,3.4,18.81,18.81,0,0,0-1,2.4c0,.08-.07.23-.11.42s-.13.52-.2.74l-.19,0a9,9,0,0,0-.93,0,7.85,7.85,0,0,0-2.57.52,6.52,6.52,0,0,0-2.74,2,7.48,7.48,0,0,0-1,1.77,9.69,9.69,0,0,0-.38,1.11c0,.06,0,.16-.05.27l0,.17H551l-10,.45a.47.47,0,0,0,0,.95Z"/><path class="cls-13" d="M444.92,90.24h5.81a.47.47,0,0,0,.47-.49,4.27,4.27,0,0,1,1.14-3.26c1.77-1.82,5-1.8,5-1.81a.53.53,0,0,0,.36-.16.48.48,0,0,0,.11-.38,9.84,9.84,0,0,1,2-6.76A7.79,7.79,0,0,1,466,74.95a7.2,7.2,0,0,1,5.4,2.06c2.4,2.51,2.26,6.5,2.26,6.54a.48.48,0,0,0,.19.4.48.48,0,0,0,.44.07,6.65,6.65,0,0,1,5.61.26c2.84,1.65,3.64,5.54,3.65,5.58a.48.48,0,0,0,.47.38h11.42a.48.48,0,1,0,0-1h-11c-.29-1.1-1.32-4.27-4-5.83a7.29,7.29,0,0,0-5.78-.53,10.44,10.44,0,0,0-2.51-6.57A8.1,8.1,0,0,0,466,74a8.72,8.72,0,0,0-6.86,2.75,10.73,10.73,0,0,0-2.31,7,8.31,8.31,0,0,0-5.19,2.08,5.06,5.06,0,0,0-1.41,3.47h-5.33a.48.48,0,0,0,0,1Z"/><path class="cls-3" d="M212.52,254.26s24-22.74,57.11-55.59c28.69-28.45,42.87-11.2,48.62-2.29,6.12,9.48,40.74,57.88,40.74,57.88"/><path class="cls-1" d="M207.52,254.26s24-22.74,57.11-55.59c28.69-28.45,42.87-11.2,48.62-2.29,6.12,9.48,40.74,57.88,40.74,57.88"/><path class="cls-4" d="M322.23,210.7s-8.92-14.32-12.33-18.78c-3.6-4.7-6.51-9.19-17.31-9.19-15.85,0-37.91,26.13-37.91,26.13"/><path class="cls-4" d="M254.68,208.86c5,.29,1.37,12.17,8.47,11.55S275,209.25,280,209.48s3.45,9.84,10.55,9.57,5.53-9.16,10.55-9,9.77,8.72,16.86,8.78-.79-8.31,4.24-8.15"/><path class="cls-5" d="M262.63,220.93c-3.83,0-4.56-3.69-5.15-6.68s-1.07-4.79-2.83-4.89a.5.5,0,0,1-.47-.53.49.49,0,0,1,.53-.47c2.67.15,3.22,3,3.76,5.7.73,3.71,1.45,6.13,4.64,5.85,3.56-.29,6.63-3.35,9.34-6.06s5-5,7.59-4.87,3.61,2.38,4.61,4.58c1.2,2.64,2.35,5.14,5.9,5s4.73-2.54,5.89-4.89c1-2.06,2.11-4.17,4.7-4.09,2.44.09,4.75,2,7.19,3.93,2.93,2.37,6,4.82,9.66,4.84a2.83,2.83,0,0,0,2.32-.67c.58-.71.27-2.06,0-3.35s-.61-2.65.06-3.47a2.23,2.23,0,0,1,1.91-.66.5.5,0,0,1,0,1h0a1.34,1.34,0,0,0-1.11.29c-.36.44-.1,1.54.14,2.61.34,1.46.72,3.11-.16,4.21a3.65,3.65,0,0,1-3.11,1c-4.06,0-7.36-2.71-10.28-5.07-2.31-1.87-4.49-3.63-6.59-3.71H301c-1.8,0-2.56,1.36-3.64,3.54-1.17,2.37-2.62,5.31-6.75,5.44s-5.62-2.89-6.84-5.58c-1-2.09-1.78-3.9-3.75-4-2.18-.11-4.43,2.18-6.84,4.58-2.83,2.83-6,6-10,6.34Z"/><path class="cls-5" d="M354,254.75a.5.5,0,0,1-.41-.21c-.35-.48-34.7-48.52-40.76-57.9-5.36-8.3-11.34-12.66-18.28-13.33-8.76-.84-18.7,4.43-29.56,15.7-32.52,33.73-57.9,55.41-58.15,55.62a.5.5,0,0,1-.65-.76c.25-.21,25.59-21.86,58.08-55.55,11.09-11.5,21.31-16.89,30.38-16,7.26.7,13.48,5.21,19,13.79,6,9.36,40.38,57.37,40.73,57.86a.5.5,0,0,1-.41.79Z"/><path class="cls-3" d="M512.72,255.26s-7.56-10.7-18.38-27.53-21.23-5.54-24.08-1.13c-3,4.69-19.55,27.95-19.55,27.95"/><path class="cls-1" d="M509.72,255.26s-7.56-10.7-18.38-27.53-21.23-5.54-24.08-1.13c-3,4.69-19.55,27.95-19.55,27.95"/><path class="cls-4" d="M462.82,233.69s4.42-7.09,6.11-9.3,5-5.6,10.32-5.6c7.85,0,14.93,14,14.93,14"/><path class="cls-4" d="M494.18,232.77c-2.49.14,1.42,6-2.1,5.72s-5.86-5.52-8.35-5.41S482,238,478.5,237.82s-2.74-4.54-5.23-4.45-4.84,4.32-8.35,4.35.39-4.11-2.1-4"/><path class="cls-5" d="M492.33,239H492c-2-.16-3.66-1.78-5.09-3.21-1.15-1.15-2.25-2.21-3.2-2.2-.78,0-1.13.72-1.64,1.83-.61,1.33-1.35,3-3.63,2.91s-3-1.6-3.56-2.84c-.5-1-.83-1.61-1.58-1.61h-.05c-1,0-2,.88-3.12,1.78-1.48,1.19-3.15,2.55-5.25,2.57a2.1,2.1,0,0,1-1.74-.61,2.65,2.65,0,0,1-.13-2.3c.08-.33.22-1,.12-1.07s-.08-.07-.34-.05h0a.5.5,0,0,1,0-1,1.35,1.35,0,0,1,1.15.42c.41.5.24,1.23.08,1.93-.12.53-.27,1.19-.07,1.45a1.35,1.35,0,0,0,.95.24c1.75,0,3.22-1.2,4.63-2.34,1.24-1,2.42-2,3.71-2s2.05,1.13,2.56,2.17,1.1,2.23,2.69,2.28,2.1-1,2.69-2.33c.5-1.1,1.07-2.35,2.5-2.41s2.64,1.18,4,2.49,2.79,2.79,4.47,2.93a1,1,0,0,0,.82-.17c.34-.36.16-1.43,0-2.29-.18-1.1-.35-2.14.17-2.78a1.35,1.35,0,0,1,1-.48.49.49,0,0,1,.53.47.5.5,0,0,1-.47.53c-.22,0-.28.08-.3.11-.23.29-.08,1.23,0,2,.19,1.18.39,2.41-.28,3.13A1.75,1.75,0,0,1,492.33,239Z"/><path class="cls-5" d="M509.22,255a.5.5,0,0,1-.41-.21c-.07-.1-7.19-10.33-17.89-27-3.71-5.77-7.69-8.85-11.83-8.85h0c-6.31,0-10.89,6.95-11.39,7.72-3,4.65-19.4,27.8-19.56,28a.51.51,0,0,1-.7.15.48.48,0,0,1-.12-.68c.17-.23,16.54-23.43,19.54-28.06,2.4-3.71,7-8.17,12.23-8.17h0c4.5,0,8.77,3.23,12.67,9.31,10.69,16.63,17.79,26.76,17.86,26.86a.57.57,0,0,1-.41.86Z"/><path class="cls-5" d="M69.9,255.13H59.66c-.5,0-.91-.18-.91-.41s.41-.41.91-.41H69.9c.5,0,.91.18.91.41S70.4,255.13,69.9,255.13Z"/><path class="cls-5" d="M643.73,255.13H78.35c-.54,0-1-.19-1-.44s.44-.44,1-.44H643.73c.54,0,1,.19,1,.44S644.27,255.13,643.73,255.13Z"/><path class="cls-5" d="M661.28,255.13h-7.06c-.54,0-1-.19-1-.44s.44-.44,1-.44h7.06c.54,0,1,.19,1,.44S661.82,255.13,661.28,255.13Z"/><path class="cls-5" d="M116.75,254.91a.5.5,0,0,1-.36-.85L257.06,109.4c.09-.11,11.31-12.82,24.86-12.28,7.39.3,14.09,4.45,19.91,12.33L418,253.94a.5.5,0,1,1-.78.63L301,110.06c-5.64-7.64-12.09-11.66-19.16-11.94-13-.53-24,11.84-24.08,12L117.11,254.76A.5.5,0,0,1,116.75,254.91Z"/><path class="cls-4" d="M544.84,226.34s5.71-9.18,7.9-12c2.31-3,6.43-7.24,13.35-7.24,10.16,0,19.33,18.1,19.33,18.1"/><path class="cls-4" d="M585.42,225.16c-3.22.19,1.83,7.8-2.72,7.4s-7.59-7.15-10.81-7-2.21,6.31-6.76,6.14-3.54-5.87-6.76-5.76-6.26,5.59-10.81,5.62.51-5.32-2.72-5.22"/><path class="cls-5" d="M583,233.08l-.36,0c-2.58-.21-4.66-2.28-6.5-4.12-1.51-1.51-2.92-2.93-4.25-2.89-1.1,0-1.57,1-2.25,2.46-.77,1.69-1.71,3.78-4.56,3.68s-3.71-2-4.48-3.59c-.7-1.41-1.1-2.2-2.25-2.17s-2.66,1.16-4.12,2.34c-1.89,1.53-4,3.27-6.7,3.29a2.59,2.59,0,0,1-2.13-.74c-.62-.77-.36-1.87-.14-2.85.13-.58.3-1.3.13-1.52a.76.76,0,0,0-.56-.12.48.48,0,0,1-.52-.48.5.5,0,0,1,.48-.52,1.6,1.6,0,0,1,1.37.49c.49.59.29,1.46.07,2.38-.17.75-.37,1.61-.06,2a1.83,1.83,0,0,0,1.34.36c2.32,0,4.23-1.57,6.08-3.07,1.59-1.29,3.09-2.5,4.71-2.56,1.78,0,2.51,1.35,3.18,2.73.75,1.52,1.46,3,3.61,3s2.87-1.46,3.61-3.1c.66-1.46,1.35-3,3.11-3s3.33,1.5,5,3.18,3.66,3.65,5.87,3.83a1.44,1.44,0,0,0,1.18-.27c.48-.52.26-1.88.07-3.08-.23-1.39-.44-2.7.18-3.48a1.6,1.6,0,0,1,1.21-.57.47.47,0,0,1,.53.47.5.5,0,0,1-.47.53.61.61,0,0,0-.49.2c-.34.43-.15,1.63,0,2.69.24,1.5.49,3-.32,3.93A2.13,2.13,0,0,1,583,233.08Z"/><path class="cls-5" d="M605.53,254.75a.5.5,0,0,1-.41-.21c-.1-.14-9.95-13.88-23.8-35.42-4.83-7.52-10-11.12-15.44-11.12h0c-8.25,0-14.21,8.64-14.87,9.65-3.89,6-16,22.77-16.08,22.94a.49.49,0,0,1-.7.06.53.53,0,0,1-.12-.72c.12-.17,12.17-16.81,16-22.81,3.08-4.77,9-10.12,15.71-10.12h0c5.77,0,11.25,3.76,16.28,11.58,13.84,21.52,23.67,35.36,23.77,35.5a.44.44,0,0,1-.12.64C605.73,254.78,605.63,254.75,605.53,254.75Z"/></svg>