<svg xmlns="http://www.w3.org/2000/svg" xmlns:xlink="http://www.w3.org/1999/xlink" viewBox="0 0 150 150"><defs><style>.cls-1{isolation:isolate;}.cls-2{fill:#fff;}.cls-3{fill:url(#linear-gradient);}.cls-4{fill:url(#linear-gradient-2);}.cls-5,.cls-6{mix-blend-mode:multiply;}.cls-5{fill:url(#linear-gradient-3);}.cls-6{fill:url(#linear-gradient-4);}.cls-7{fill:url(#linear-gradient-5);}.cls-8{opacity:0.7;mix-blend-mode:overlay;}.cls-9{fill:#929497;}</style><linearGradient id="linear-gradient" x1="112.23" y1="17.34" x2="42.79" y2="79.93" gradientUnits="userSpaceOnUse"><stop offset="0.1" stop-color="#7dcdcc"/><stop offset="0.53" stop-color="#562f80"/><stop offset="1" stop-color="#8a55a1"/></linearGradient><linearGradient id="linear-gradient-2" x1="114" y1="19.31" x2="44.57" y2="81.9" xlink:href="#linear-gradient"/><linearGradient id="linear-gradient-3" x1="84.58" y1="38.66" x2="59.9" y2="63.34" gradientUnits="userSpaceOnUse"><stop offset="0" stop-color="#fff"/><stop offset="0.33" stop-color="#a4a4a4"/><stop offset="0.59" stop-color="#595959"/><stop offset="0.64" stop-color="#606060"/><stop offset="0.71" stop-color="#757575"/><stop offset="0.8" stop-color="#969696"/><stop offset="0.89" stop-color="#c4c4c4"/><stop offset="1" stop-color="#fff"/></linearGradient><linearGradient id="linear-gradient-4" x1="56.12" y1="64.68" x2="82.7" y2="46.84" gradientUnits="userSpaceOnUse"><stop offset="0.02" stop-color="#fff"/><stop offset="0.09" stop-color="#f7f7f7"/><stop offset="0.2" stop-color="#e0e0e0"/><stop offset="0.33" stop-color="#bababa"/><stop offset="0.48" stop-color="#868686"/><stop offset="0.59" stop-color="#595959"/><stop offset="0.63" stop-color="#606060"/><stop offset="0.7" stop-color="#757575"/><stop offset="0.77" stop-color="#969696"/><stop offset="0.86" stop-color="#c4c4c4"/><stop offset="0.96" stop-color="#fff"/></linearGradient><linearGradient id="linear-gradient-5" x1="115.78" y1="21.29" x2="46.34" y2="83.87" xlink:href="#linear-gradient"/></defs><title>mobme-logo</title><g class="cls-1"><g id="Layer_1" data-name="Layer 1"><path class="cls-2" d="M100.3,30.81,87.72,40.86c-7,5.6-18.45,5.6-25.45,0L49.7,30.81C42.7,25.22,37,28,37,36.93V66.63A16.34,16.34,0,0,0,53.26,82.92H96.74A16.34,16.34,0,0,0,113,66.63V36.93C113,28,107.3,25.22,100.3,30.81Zm8.5,36.05A14.52,14.52,0,0,1,94.32,81.34H55.68A14.52,14.52,0,0,1,41.2,66.86V40.47c0-8,5.09-10.41,11.31-5.44L63.69,44c6.22,5,16.4,5,22.63,0L97.49,35c6.22-5,11.31-2.52,11.31,5.44Z"/><path class="cls-2" d="M94.68,39.25,84.9,47.07a16.64,16.64,0,0,1-19.79,0l-9.78-7.82c-5.44-4.35-9.9-2.21-9.9,4.76V67.1A12.7,12.7,0,0,0,58.09,79.77H91.91A12.71,12.71,0,0,0,104.58,67.1V44C104.58,37,100.12,34.89,94.68,39.25Zm5.67,28.09A10.89,10.89,0,0,1,89.49,78.2h-29A10.89,10.89,0,0,1,49.65,67.34V47.54c0-6,3.82-7.81,8.48-4.08l8.38,6.7a14.27,14.27,0,0,0,17,0l8.38-6.7c4.67-3.73,8.48-1.89,8.48,4.08Z"/><path class="cls-3" d="M103.11,26.6l-14,11.17c-7.78,6.21-20.5,6.21-28.28,0l-14-11.17c-7.78-6.22-14.14-3.16-14.14,6.8v33a18.15,18.15,0,0,0,18.1,18.1h48.3a18.16,18.16,0,0,0,18.1-18.1v-33C117.25,23.44,110.89,20.38,103.11,26.6Zm9.91,40A16.34,16.34,0,0,1,96.74,82.92H53.26A16.34,16.34,0,0,1,37,66.63V36.93c0-9,5.73-11.71,12.72-6.12L62.27,40.87c7,5.59,18.45,5.59,25.45,0L100.3,30.81C107.3,25.22,113,28,113,36.93Z"/><path class="cls-4" d="M97.49,35,86.31,44c-6.22,5-16.4,5-22.63,0L52.51,35c-6.22-5-11.31-2.52-11.31,5.44V66.86A14.52,14.52,0,0,0,55.68,81.34H94.32A14.52,14.52,0,0,0,108.8,66.86V40.47C108.8,32.5,103.71,30.06,97.49,35Zm7.09,32.07A12.71,12.71,0,0,1,91.91,79.77H58.09A12.7,12.7,0,0,1,45.42,67.1V44c0-7,4.45-9.11,9.9-4.76l9.78,7.82a16.64,16.64,0,0,0,19.79,0l9.78-7.82c5.44-4.35,9.9-2.21,9.9,4.76Z"/><path class="cls-5" d="M68.87,81.34H55.68A14.52,14.52,0,0,1,41.2,66.86V40.47c0-8,5.09-10.41,11.31-5.44L63.69,44c6.22,5,16.4,5,22.63,0L97.49,35c6.22-5,11.31-2.52,11.31,5.44V64.73H113V36.93c0-9-5.73-11.71-12.72-6.12L87.72,40.87c-7,5.59-18.45,5.59-25.45,0L49.7,30.81C42.7,25.22,37,28,37,36.93V66.63A16.34,16.34,0,0,0,53.26,82.92H68.87Z"/><path class="cls-6" d="M68.87,78.2H60.51A10.89,10.89,0,0,1,49.65,67.34V47.54c0-6,3.82-7.81,8.48-4.08l8.38,6.7a14.27,14.27,0,0,0,17,0l8.38-6.7c4.67-3.73,8.49-1.89,8.49,4.08V64.73h4.23V44c0-7-4.45-9.11-9.9-4.76L84.9,47.07a16.64,16.64,0,0,1-19.79,0l-9.78-7.82C49.88,34.9,45.42,37,45.42,44V67.1A12.7,12.7,0,0,0,58.09,79.77H68.87Z"/><path class="cls-7" d="M91.87,43.46l-8.38,6.7a14.27,14.27,0,0,1-17,0l-8.38-6.7c-4.67-3.73-8.48-1.89-8.48,4.08v19.8A10.89,10.89,0,0,0,60.51,78.2h29a10.89,10.89,0,0,0,10.86-10.86V47.54C100.35,41.57,96.53,39.74,91.87,43.46Zm4.26,24.11a9.08,9.08,0,0,1-9,9.05H62.92a9.08,9.08,0,0,1-9-9.05V51.08c0-5,3.18-6.51,7.07-3.4l7,5.58a11.88,11.88,0,0,0,14.14,0l7-5.58c3.89-3.11,7.07-1.58,7.07,3.4Z"/><g class="cls-8"><path class="cls-2" d="M100.3,30.81,87.72,40.86c-7,5.6-18.45,5.6-25.45,0L49.7,30.81C42.7,25.22,37,28,37,36.93V66.63A16.34,16.34,0,0,0,53.26,82.92H96.74A16.34,16.34,0,0,0,113,66.63V36.93C113,28,107.3,25.22,100.3,30.81Zm8.5,36.05A14.52,14.52,0,0,1,94.32,81.34H55.68A14.52,14.52,0,0,1,41.2,66.86V40.47c0-8,5.09-10.41,11.31-5.44L63.69,44c6.22,5,16.4,5,22.63,0L97.49,35c6.22-5,11.31-2.52,11.31,5.44Z"/><path class="cls-2" d="M94.68,39.25,84.9,47.07a16.64,16.64,0,0,1-19.79,0l-9.78-7.82c-5.44-4.35-9.9-2.21-9.9,4.76V67.1A12.7,12.7,0,0,0,58.09,79.77H91.91A12.71,12.71,0,0,0,104.58,67.1V44C104.58,37,100.12,34.89,94.68,39.25Zm5.67,28.09A10.89,10.89,0,0,1,89.49,78.2h-29A10.89,10.89,0,0,1,49.65,67.34V47.54c0-6,3.82-7.81,8.48-4.08l8.38,6.7a14.27,14.27,0,0,0,17,0l8.38-6.7c4.67-3.73,8.48-1.89,8.48,4.08Z"/><path class="cls-3" d="M103.11,26.6l-14,11.17c-7.78,6.21-20.5,6.21-28.28,0l-14-11.17c-7.78-6.22-14.14-3.16-14.14,6.8v33a18.15,18.15,0,0,0,18.1,18.1h48.3a18.16,18.16,0,0,0,18.1-18.1v-33C117.25,23.44,110.89,20.38,103.11,26.6Zm9.91,40A16.34,16.34,0,0,1,96.74,82.92H53.26A16.34,16.34,0,0,1,37,66.63V36.93c0-9,5.73-11.71,12.72-6.12L62.27,40.87c7,5.59,18.45,5.59,25.45,0L100.3,30.81C107.3,25.22,113,28,113,36.93Z"/><path class="cls-4" d="M97.49,35,86.31,44c-6.22,5-16.4,5-22.63,0L52.51,35c-6.22-5-11.31-2.52-11.31,5.44V66.86A14.52,14.52,0,0,0,55.68,81.34H94.32A14.52,14.52,0,0,0,108.8,66.86V40.47C108.8,32.5,103.71,30.06,97.49,35Zm7.09,32.07A12.71,12.71,0,0,1,91.91,79.77H58.09A12.7,12.7,0,0,1,45.42,67.1V44c0-7,4.45-9.11,9.9-4.76l9.78,7.82a16.64,16.64,0,0,0,19.79,0l9.78-7.82c5.44-4.35,9.9-2.21,9.9,4.76Z"/><path class="cls-5" d="M68.87,81.34H55.68A14.52,14.52,0,0,1,41.2,66.86V40.47c0-8,5.09-10.41,11.31-5.44L63.69,44c6.22,5,16.4,5,22.63,0L97.49,35c6.22-5,11.31-2.52,11.31,5.44V64.73H113V36.93c0-9-5.73-11.71-12.72-6.12L87.72,40.87c-7,5.59-18.45,5.59-25.45,0L49.7,30.81C42.7,25.22,37,28,37,36.93V66.63A16.34,16.34,0,0,0,53.26,82.92H68.87Z"/><path class="cls-6" d="M68.87,78.2H60.51A10.89,10.89,0,0,1,49.65,67.34V47.54c0-6,3.82-7.81,8.48-4.08l8.38,6.7a14.27,14.27,0,0,0,17,0l8.38-6.7c4.67-3.73,8.49-1.89,8.49,4.08V64.73h4.23V44c0-7-4.45-9.11-9.9-4.76L84.9,47.07a16.64,16.64,0,0,1-19.79,0l-9.78-7.82C49.88,34.9,45.42,37,45.42,44V67.1A12.7,12.7,0,0,0,58.09,79.77H68.87Z"/><path class="cls-7" d="M91.87,43.46l-8.38,6.7a14.27,14.27,0,0,1-17,0l-8.38-6.7c-4.67-3.73-8.48-1.89-8.48,4.08v19.8A10.89,10.89,0,0,0,60.51,78.2h29a10.89,10.89,0,0,0,10.86-10.86V47.54C100.35,41.57,96.53,39.74,91.87,43.46Zm4.26,24.11a9.08,9.08,0,0,1-9,9.05H62.92a9.08,9.08,0,0,1-9-9.05V51.08c0-5,3.18-6.51,7.07-3.4l7,5.58a11.88,11.88,0,0,0,14.14,0l7-5.58c3.89-3.11,7.07-1.58,7.07,3.4Z"/></g><path class="cls-9" d="M17.29,121.61h3.66v.78H18.15v1.28h2.47v.77H18.15v1.32H21v.77H17.29Z"/><path class="cls-9" d="M27.73,121.61,26,124l1.79,2.52h-1l-1.3-1.88-1.3,1.88h-1L25,124l-1.71-2.42h1l1.23,1.79,1.23-1.79Z"/><path class="cls-9" d="M30.24,121.61h1.94a1.66,1.66,0,0,1,1.87,1.65h0c0,1.11-.89,1.68-2,1.68h-1v1.59h-.87Zm1.87,2.56c.66,0,1.06-.37,1.06-.88h0c0-.58-.42-.88-1.06-.88h-1v1.78Z"/><path class="cls-9" d="M36.5,121.61h.87v4.14H40v.79H36.5Z"/><path class="cls-9" d="M41.91,124.09h0a2.58,2.58,0,0,1,5.16,0h0a2.58,2.58,0,0,1-5.16,0Zm4.25,0h0a1.69,1.69,0,0,0-1.68-1.75,1.67,1.67,0,0,0-1.66,1.74h0a1.68,1.68,0,0,0,1.68,1.75A1.66,1.66,0,0,0,46.16,124.09Z"/><path class="cls-9" d="M49.67,121.61h2.2a2,2,0,0,1,1.42.49,1.49,1.49,0,0,1,.41,1.06h0a1.48,1.48,0,0,1-1.17,1.49l1.33,1.87h-1l-1.21-1.72H50.53v1.72h-.87Zm2.13,2.45c.62,0,1-.32,1-.82h0c0-.53-.38-.82-1-.82H50.53v1.66Z"/><path class="cls-9" d="M56.31,121.61H60v.78H57.18v1.28h2.47v.77H57.18v1.32H60v.77H56.31Z"/><path class="cls-9" d="M62.58,121.61h2.2a2,2,0,0,1,1.42.49,1.49,1.49,0,0,1,.41,1.06h0a1.48,1.48,0,0,1-1.17,1.49l1.33,1.87h-1l-1.21-1.72H63.45v1.72h-.87Zm2.13,2.45c.62,0,1-.32,1-.82h0c0-.53-.38-.82-1-.82H63.45v1.66Z"/><path class="cls-9" d="M68.9,125.82l.52-.62a2.28,2.28,0,0,0,1.56.64c.54,0,.87-.25.87-.62h0c0-.35-.2-.54-1.11-.75s-1.64-.56-1.64-1.47h0a1.51,1.51,0,0,1,1.68-1.43,2.74,2.74,0,0,1,1.79.62l-.47.66a2.24,2.24,0,0,0-1.34-.51c-.51,0-.8.26-.8.58h0c0,.38.23.55,1.18.77s1.58.63,1.58,1.44h0c0,.92-.73,1.47-1.76,1.47A3,3,0,0,1,68.9,125.82Z"/><path class="cls-9" d="M78.73,124.09h0a2.58,2.58,0,0,1,5.16,0h0a2.58,2.58,0,0,1-5.16,0Zm4.25,0h0a1.69,1.69,0,0,0-1.68-1.75,1.67,1.67,0,0,0-1.66,1.74h0a1.68,1.68,0,0,0,1.68,1.75A1.66,1.66,0,0,0,83,124.09Z"/><path class="cls-9" d="M86.49,121.61h3.67v.79h-2.8v1.35h2.49v.79H87.35v2h-.87Z"/><path class="cls-9" d="M96.32,121.61H100v.79h-2.8v1.35h2.49v.79H97.19v2h-.87Z"/><path class="cls-9" d="M102.42,124.45v-2.84h.87v2.8c0,.92.47,1.4,1.25,1.4s1.24-.46,1.24-1.37v-2.84h.87v2.8a2,2,0,0,1-2.12,2.21A1.94,1.94,0,0,1,102.42,124.45Z"/><path class="cls-9" d="M110.59,122.41H109v-.8h4v.8h-1.56v4.13h-.87Z"/><path class="cls-9" d="M115.42,124.45v-2.84h.87v2.8c0,.92.47,1.4,1.25,1.4s1.24-.46,1.24-1.37v-2.84h.87v2.8a2,2,0,0,1-2.12,2.21A1.94,1.94,0,0,1,115.42,124.45Z"/><path class="cls-9" d="M122.38,121.61h2.2a2,2,0,0,1,1.42.49,1.49,1.49,0,0,1,.41,1.06h0a1.48,1.48,0,0,1-1.17,1.49l1.33,1.87h-1l-1.21-1.72h-1.08v1.72h-.87Zm2.14,2.45c.62,0,1-.32,1-.82h0c0-.53-.38-.82-1-.82h-1.26v1.66Z"/><path class="cls-9" d="M129,121.61h3.66v.78h-2.79v1.28h2.47v.77h-2.47v1.32h2.79v.77H129Z"/><polygon points="29.49 107.57 17.29 95.37 17.29 118.81 22.88 118.81 22.88 108.87 29.49 115.48 36.1 108.87 36.1 118.81 41.69 118.81 41.69 95.37 29.49 107.57"/><polygon points="132.71 100.99 132.71 95.37 118 95.37 118 118.81 132.71 118.81 132.71 113.19 123.62 113.19 123.62 109.9 132.71 109.9 132.71 104.28 123.62 104.28 123.62 100.99 132.71 100.99"/><polygon points="103 107.57 90.8 95.37 90.8 118.81 96.39 118.81 96.39 108.87 103 115.48 109.61 108.87 109.61 118.81 115.2 118.81 115.2 95.37 103 107.57"/><path d="M88,102.64a7.27,7.27,0,0,0-7.27-7.27h-10v23.44h10a7.21,7.21,0,0,0,4.68-1.71c.16-.13.31-.27.46-.42a7.26,7.26,0,0,0,.6-9.59A7.21,7.21,0,0,0,88,102.64ZM76.32,101h4.43a1.64,1.64,0,0,1,0,3.29H76.32Zm0,12.2V109.9h4.43a1.64,1.64,0,0,1,0,3.29Z"/><path d="M56.19,95.4A11.71,11.71,0,1,0,67.9,107.1,11.71,11.71,0,0,0,56.19,95.4Zm0,17.82a6.11,6.11,0,1,1,6.11-6.11A6.11,6.11,0,0,1,56.19,113.21Z"/></g></g></svg>