<?xml version="1.0" encoding="utf-8"?>
<!-- Generator: Adobe Illustrator 20.0.0, SVG Export Plug-In . SVG Version: 6.00 Build 0)  -->
<svg version="1.1" id="Capa_1" xmlns="http://www.w3.org/2000/svg" xmlns:xlink="http://www.w3.org/1999/xlink" x="0px" y="0px"
	 viewBox="0 0 612 612" style="enable-background:new 0 0 612 612;" xml:space="preserve">
<style type="text/css">
	.st0{fill:#FFFFFF;}
</style>
<g>
	<g id="_x32__21_">
		<g>
			<path class="st0" d="M306,561.1L40.8,438.8c0.9,0.6-23.5-10.5-40.8-20.4c0,14.8,3.7,41.9,17.5,49.2l259.6,116.7
				c23,10.8,32.8,10.8,57.7,0l259.6-116.7c12.8-6,17.5-34.1,17.5-49.2c-16.7,8.4-40.3,20.3-40.8,20.4L306,561.1z M306,51.6
				C307.9,53.9,307.4,52.1,306,51.6L306,51.6z M17.5,345.4l259.6,116.7c23,10.8,32.8,10.8,57.7,0l259.6-116.7
				c12.8-6,17.5-34.1,17.5-49.2c-16.7,8.4-40.3,20.3-40.8,20.4L306,438.8L40.8,316.5c0.9,0.6-23.5-10.5-40.8-20.4
				C0,311,3.7,338.1,17.5,345.4z M17.5,223.1l259.6,116.7c23,10.8,32.8,10.8,57.7,0l259.6-116.7c19.1-8.9,19.8-46.8,0-57.6
				L334.8,28.4c-20.4-12.1-34.8-11.5-57.7,0L17.5,165.5C-2.3,178.2-2.9,212.3,17.5,223.1z M306,51.6l265.2,142.6L306,306L40.8,194.3
				L306,51.6z"/>
		</g>
	</g>
</g>
</svg>
