<?xml version="1.0" encoding="utf-8"?>
<!-- Generator: Adobe Illustrator 20.0.0, SVG Export Plug-In . SVG Version: 6.00 Build 0)  -->
<svg version="1.1" id="Layer_1" xmlns="http://www.w3.org/2000/svg" xmlns:xlink="http://www.w3.org/1999/xlink" x="0px" y="0px"
	 viewBox="0 0 129 129" style="enable-background:new 0 0 129 129;" xml:space="preserve">
<style type="text/css">
	.st0{fill:#999999;}
</style>
<g>
	<g>
		<path class="st0" d="M90-4H40.9c-2.3,0-4.1,1.8-4.1,4.1v5.7H18.7c-2.3,0-4.1,1.8-4.1,4.1v108c0,2.3,1.8,4.1,4.1,4.1h91.6
			c2.3,0,4.1-1.8,4.1-4.1V9.9c0-2.3-1.8-4.1-4.1-4.1H94.1V0.1C94.1-2.2,92.3-4,90-4z M45,9.9V4.2h40.9v5.7v7.2H45V9.9z M106.2,14
			v99.8H22.8V14h14v7.2c0,2.3,1.8,4.1,4.1,4.1H90c2.3,0,4.1-1.8,4.1-4.1V14H106.2z"/>
		<path class="st0" d="M95,67H35.9c-2.3,0-4.1,1.8-4.1,4.1c0,2.3,1.8,4.1,4.1,4.1H95c2.3,0,4.1-1.8,4.1-4.1S97.3,67,95,67z"/>
		<path class="st0" d="M65.5,86.8H35.9c-2.3,0-4.1,1.8-4.1,4.1s1.8,4.1,4.1,4.1h29.5c2.3,0,4.1-1.8,4.1-4.1S67.7,86.8,65.5,86.8z"/>
		<path class="st0" d="M31.8,51.2c0,2.3,1.8,4.1,4.1,4.1H95c2.3,0,4.1-1.8,4.1-4.1s-1.8-4.1-4.1-4.1H35.9
			C33.6,47.1,31.8,49,31.8,51.2z"/>
	</g>
</g>
</svg>
