<svg id="Layer_1" data-name="Layer 1" xmlns="http://www.w3.org/2000/svg" viewBox="0 0 340 340"><defs><style>.cls-1{fill:#3273ad;}.cls-2{fill:#0aa5e3;}.cls-3{fill:#c3f1fc;}</style></defs><title>read-now-icon</title><path class="cls-1" d="M220,38.77a2,2,0,0,1-1.88-2.68l7.48-20.55a2,2,0,1,1,3.76,1.37L221.9,37.46A2,2,0,0,1,220,38.77Z"/><path class="cls-1" d="M262.57,63.92A2,2,0,0,1,261,60.63L275.1,43.87a2,2,0,0,1,3.06,2.57L264.1,63.2A2,2,0,0,1,262.57,63.92Z"/><path class="cls-1" d="M294,102.1a2,2,0,0,1-1-3.73L311.9,87.43a2,2,0,1,1,2,3.46L295,101.83A2,2,0,0,1,294,102.1Z"/><path class="cls-1" d="M310.39,148.71a2,2,0,0,1-.35-4l21.54-3.8a2,2,0,0,1,.7,3.94l-21.54,3.8A2,2,0,0,1,310.39,148.71Z"/><path class="cls-1" d="M331.43,201.92a2,2,0,0,1-.35,0l-21.54-3.8a2,2,0,0,1,.7-3.94l21.54,3.8a2,2,0,0,1-.35,4Z"/><path class="cls-1" d="M311.46,255.33a2,2,0,0,1-1-.27l-18.94-10.94a2,2,0,0,1,2-3.46l18.94,10.94a2,2,0,0,1-1,3.73Z"/><path class="cls-1" d="M274.43,298.69a2,2,0,0,1-1.53-.71l-14.06-16.76a2,2,0,1,1,3.06-2.57L276,295.4a2,2,0,0,1-1.53,3.29Z"/><path class="cls-1" d="M224.8,326.77a2,2,0,0,1-1.88-1.32l-7.48-20.55a2,2,0,1,1,3.76-1.37l7.48,20.55a2,2,0,0,1-1.2,2.56A2,2,0,0,1,224.8,326.77Z"/><path class="cls-1" d="M168.56,336.17a2,2,0,0,1-2-2V312.3a2,2,0,0,1,4,0v21.87A2,2,0,0,1,168.56,336.17Z"/><path class="cls-1" d="M112.5,325.78a2,2,0,0,1-.68-.12,2,2,0,0,1-1.2-2.56l7.48-20.55a2,2,0,0,1,3.76,1.37l-7.48,20.55A2,2,0,0,1,112.5,325.78Z"/><path class="cls-1" d="M63.37,296.84a2,2,0,0,1-1.53-3.29L75.9,276.8A2,2,0,1,1,79,279.37L64.9,296.13A2,2,0,0,1,63.37,296.84Z"/><path class="cls-1" d="M27.1,252.84a2,2,0,0,1-1-3.73L45,238.17a2,2,0,0,1,2,3.46L28.1,252.57A2,2,0,0,1,27.1,252.84Z"/><path class="cls-1" d="M8.07,199.09a2,2,0,0,1-.34-4l21.54-3.8a2,2,0,1,1,.69,3.94l-21.54,3.8A2,2,0,0,1,8.07,199.09Z"/><path class="cls-1" d="M30.11,145.87a2,2,0,0,1-.35,0L8.22,142a2,2,0,1,1,.69-3.94l21.54,3.8a2,2,0,0,1-.34,4Z"/><path class="cls-1" d="M47.48,99.6a2,2,0,0,1-1-.27L27.54,88.4a2,2,0,1,1,2-3.46L48.48,95.87a2,2,0,0,1-1,3.73Z"/><path class="cls-1" d="M79.63,62.07a2,2,0,0,1-1.53-.71L64,44.6A2,2,0,1,1,67.11,42L81.17,58.78a2,2,0,0,1-1.53,3.29Z"/><path class="cls-1" d="M122.68,37.79a2,2,0,0,1-1.88-1.32l-7.48-20.55a2,2,0,1,1,3.76-1.37l7.48,20.55a2,2,0,0,1-1.88,2.68Z"/><path class="cls-1" d="M171.44,29.7a2,2,0,0,1-2-2V5.83a2,2,0,0,1,4,0V27.7A2,2,0,0,1,171.44,29.7Z"/><path class="cls-2" d="M86.76,227l16.74-16.37,52.75.06S169.5,218,169.5,226.59c0,0,3.17-16,15.25-16s52.75.1,52.75.1L254.24,227Z"/><polygon class="cls-3" points="103.33 111.5 103.33 210.5 86.68 226.25 86.38 127.5 103.33 111.5"/><polygon class="cls-3" points="237.33 111.5 237.33 210.5 254.16 226.25 254.38 127.5 237.33 111.5"/><path class="cls-1" d="M169.83,230h-84c-1.1,0-2.5-.9-2.5-2V127.5a2.3,2.3,0,0,1,.93-1.5l17.79-15.5a2.34,2.34,0,0,1,1.44-.5h53.25c9.09,0,13.54,7.81,14.75,11.94.05.18-.17.37-.17.56V228C171.33,229.1,170.94,230,169.83,230Zm-82.5-4h80V122.81c0-1.48-2.92-8.81-10.58-8.81h-52.5L87.33,128.41Z"/><path class="cls-1" d="M85.83,228.75a2.13,2.13,0,0,1-1.55-3.52l16-13.9V114a2,2,0,0,1,4,0v98.25a1.82,1.82,0,0,1-.45,1.52L87,228.27A1.69,1.69,0,0,1,85.83,228.75Z"/><path class="cls-1" d="M169.67,230a2,2,0,0,1-1.92-1.42c0-.15-4.5-14.58-13.38-14.58H103.83a2,2,0,0,1,0-4h50.54c11.85,0,17,16.71,17.21,17.43a2,2,0,0,1-1.92,2.57Z"/><path class="cls-1" d="M154.38,129.5h-35a2,2,0,0,1,0-4h35a2,2,0,0,1,0,4Z"/><path class="cls-1" d="M154.38,145.5h-35a2,2,0,1,1,0-4h35a2,2,0,0,1,0,4Z"/><path class="cls-1" d="M154.38,162.5h-35a2,2,0,1,1,0-4h35a2,2,0,0,1,0,4Z"/><path class="cls-1" d="M154.38,179.5h-35a2,2,0,1,1,0-4h35a2,2,0,0,1,0,4Z"/><path class="cls-1" d="M154.38,195.5h-35a2,2,0,1,1,0-4h35a2,2,0,0,1,0,4Z"/><path class="cls-1" d="M253.83,230h-84c-1.1,0-2.5-.9-2.5-2V122.5c0-.15.27-.3.3-.45,1-4.17,5.45-12.05,14.62-12.05H235.5a2,2,0,0,1,1.29.47L254.87,126a1.82,1.82,0,0,1,.46,1.53V228C255.33,229.1,254.94,230,253.83,230Zm-82.5-4h80V128.43L234.77,114H182.25c-7.62,0-9.92,7.45-10.92,8.76Z"/><path class="cls-1" d="M253.83,228.75a2,2,0,0,1-1.3-.48l-17.25-14.5a2.3,2.3,0,0,1-1-1.52V114a2,2,0,0,1,4,0v97.33l16.55,13.9a2,2,0,0,1,.35,2.82A1.75,1.75,0,0,1,253.83,228.75Z"/><path class="cls-1" d="M169.67,230a2,2,0,0,1-1.93-2.54c.2-.71,5-17.46,16.89-17.46h51.21a2,2,0,1,1,0,4H184.63c-8.88,0-13,14.39-13,14.54A2,2,0,0,1,169.67,230Z"/><path class="cls-1" d="M219.63,129.5h-35a2,2,0,0,1,0-4h35a2,2,0,0,1,0,4Z"/><path class="cls-1" d="M219.63,145.5h-35a2,2,0,0,1,0-4h35a2,2,0,0,1,0,4Z"/><path class="cls-1" d="M219.63,162.5h-35a2,2,0,0,1,0-4h35a2,2,0,0,1,0,4Z"/><path class="cls-1" d="M219.63,179.5h-35a2,2,0,0,1,0-4h35a2,2,0,0,1,0,4Z"/><path class="cls-1" d="M219.63,195.5h-35a2,2,0,0,1,0-4h35a2,2,0,0,1,0,4Z"/></svg>