<svg id="Layer_1" data-name="Layer 1" xmlns="http://www.w3.org/2000/svg" viewBox="0 0 720 340"><defs><style>.cls-1,.cls-15,.cls-16,.cls-3{fill:#c3f1fc;}.cls-1,.cls-4{stroke:#008ac1;}.cls-1,.cls-12,.cls-14,.cls-4{stroke-miterlimit:10;}.cls-2{fill:#008ac1;}.cls-2,.cls-21{opacity:0.4;}.cls-17,.cls-21,.cls-4,.cls-6{fill:none;}.cls-18,.cls-19,.cls-20,.cls-5,.cls-9{fill:#fff;}.cls-15,.cls-16,.cls-17,.cls-6,.cls-9{stroke:#3273ad;}.cls-15,.cls-16,.cls-17,.cls-21,.cls-6,.cls-9{stroke-linecap:round;stroke-linejoin:round;}.cls-15,.cls-7{opacity:0.1;}.cls-8{fill:#92e7f4;}.cls-10{fill:#3273ad;}.cls-11{fill:#0f9d58;}.cls-12,.cls-14{fill:#fad264;stroke:#bc8e1d;}.cls-13{fill:#bc8e1d;}.cls-14,.cls-17{stroke-width:0.75px;}.cls-15{fill-rule:evenodd;}.cls-18{opacity:0.2;}.cls-19{opacity:0.3;}.cls-20{opacity:0.39;}.cls-21{stroke:#c3f1fc;stroke-width:2px;}</style></defs><title>rear-view</title><circle class="cls-1" cx="361.53" cy="54.53" r="20.84"/><path class="cls-1" d="M476.31,92.31,363.4,90.93,246.74,92.31h0a46,46,0,0,1,45.89-45.89H430.42a46,46,0,0,1,45.89,45.89h0"/><polygon class="cls-2" points="471.2 72.25 252.06 71.03 255.05 65.78 468.48 65.78 471.2 72.25"/><path class="cls-3" d="M640.1,265a2548.23,2548.23,0,0,1-560.2,0c-21.63-2.66-37.26-21.17-34-40.76,8.94-39.18,19-78.59,24.52-118.14,1.66-19.94,17.91-36.35,37.95-36.35H611.64c20,0,36.29,16.4,37.95,36.35,5.54,39.55,15.59,79,24.52,118.14C677.36,243.78,661.73,262.29,640.1,265Z"/><path class="cls-4" d="M640.1,265a2548.23,2548.23,0,0,1-560.2,0c-21.63-2.66-37.26-21.17-34-40.76,8.94-39.18,19-78.59,24.52-118.14,1.66-19.94,17.91-36.35,37.95-36.35H611.64c20,0,36.29,16.4,37.95,36.35,5.54,39.55,15.59,79,24.52,118.14C677.36,243.78,661.73,262.29,640.1,265Z"/><path class="cls-5" d="M624.27,244.34C455.35,263,264.65,263,95.73,244.34c-19.62-2.41-33.81-19.21-30.86-37C73,171.8,82.09,150.5,87.12,114.61c1.51-18.1,16.25-33,34.43-33h476.9c18.19,0,32.93,14.88,34.43,33,5,35.89,14.14,57.19,22.25,92.75C658.09,225.13,643.9,241.93,624.27,244.34Z"/><path class="cls-4" d="M624.27,244.34C455.35,263,264.65,263,95.73,244.34c-19.62-2.41-32.37-19.21-29.41-37,8.11-35.55,12.85-53.73,20.81-92.75,3.63-17.79,16.25-33,34.43-33h476.9c18.19,0,30.8,15.19,34.43,33,8,39.26,12.7,57.19,20.81,92.75C656.64,225.13,643.9,241.93,624.27,244.34Z"/><path class="cls-3" d="M379.38,88q-3.27,2.89-6.72,5.83a11.56,11.56,0,0,1-14.24,0Q355,90.91,351.7,88c-3.6-3.21-6.79-1.48-7.26,3.75q-.71,8.67-1.19,17.34a9.15,9.15,0,0,0,9.29,9.57q13,.05,26,0a9.15,9.15,0,0,0,9.29-9.57q-.48-8.67-1.19-17.34C386.17,86.54,383,84.81,379.38,88Zm6.23,21.21a8.27,8.27,0,0,1-8.38,8.63q-11.69,0-23.38,0a8.27,8.27,0,0,1-8.38-8.63q.39-7.83.94-15.65c.37-4.71,3.26-6.26,6.56-3.35q3,2.61,6.12,5.27a10.5,10.5,0,0,0,12.9,0q3.13-2.65,6.12-5.27c3.3-2.9,6.19-1.36,6.56,3.35Q385.22,101.4,385.61,109.23Z"/><path class="cls-3" d="M376.81,92.44q-2.7,2.33-5.5,4.7a9.42,9.42,0,0,1-11.53,0q-2.8-2.36-5.5-4.7c-3-2.59-5.57-1.24-5.85,3q-.42,7-.73,13.94a7.39,7.39,0,0,0,7.47,7.68q10.37,0,20.74,0a7.39,7.39,0,0,0,7.47-7.68q-.31-7-.73-13.94C382.38,91.2,379.79,89.85,376.81,92.44Zm4.35,17a6.5,6.5,0,0,1-6.56,6.72q-9.06,0-18.12,0a6.49,6.49,0,0,1-6.56-6.72q.23-6.11.55-12.22c.21-3.68,2.48-4.86,5.13-2.58q2.4,2.05,4.87,4.12a8.3,8.3,0,0,0,10.14,0q2.47-2.07,4.87-4.12c2.65-2.28,4.93-1.1,5.13,2.58Q380.93,103.35,381.16,109.46Z"/><path class="cls-3" d="M374.13,96.89q-2.08,1.76-4.22,3.54a7.18,7.18,0,0,1-8.74,0Q359,98.65,357,96.89c-2.31-2-4.27-1-4.41,2.2q-.22,5.25-.39,10.49a5.6,5.6,0,0,0,5.64,5.77H373.3a5.6,5.6,0,0,0,5.64-5.77q-.17-5.25-.39-10.49C378.4,95.93,376.44,94.93,374.13,96.89Zm2.58,12.82a4.69,4.69,0,0,1-4.71,4.81h-12.9a4.69,4.69,0,0,1-4.71-4.81q.12-4.38.27-8.76c.1-2.64,1.74-3.47,3.69-1.83l3.55,3a6,6,0,0,0,7.32,0l3.55-3c1.95-1.64,3.59-.81,3.69,1.83Q376.59,105.33,376.7,109.71Z"/><path class="cls-3" d="M333.9,137.27l2,.08v.4l-1.53-.06q0,.33,0,.66l1.36.05v.4l-1.36-.06q0,.34,0,.69l1.55.07v.4l-2-.09Q333.88,138.55,333.9,137.27Z"/><path class="cls-3" d="M339.63,137.48l-1,1.23,1,1.35-.56,0-.71-1-.72,1-.55,0,1-1.27-.92-1.3.56,0,.66,1,.69-.91Z"/><path class="cls-3" d="M341,137.52l1.07,0c.63,0,1,.37,1,.89h0c0,.58-.5.87-1.09.85l-.54,0q0,.42,0,.83l-.48,0Q341,138.81,341,137.52Zm1,1.37c.36,0,.59-.17.59-.44h0c0-.3-.22-.47-.58-.48l-.55,0q0,.46,0,.93Z"/><path class="cls-3" d="M344.44,137.62h.47q0,1.09,0,2.18l1.42,0v.42l-1.9-.05Q344.42,138.92,344.44,137.62Z"/><path class="cls-3" d="M347.39,139h0a1.34,1.34,0,0,1,1.43-1.31,1.37,1.37,0,0,1,1.4,1.37h0a1.34,1.34,0,0,1-1.43,1.32A1.38,1.38,0,0,1,347.39,139Zm2.33.05h0a.92.92,0,0,0-.91-.95.88.88,0,0,0-.92.9h0a.92.92,0,0,0,.91.94A.88.88,0,0,0,349.72,139.06Z"/><path class="cls-3" d="M351.65,137.78l1.21,0a1.13,1.13,0,0,1,.78.27.78.78,0,0,1,.22.57h0a.78.78,0,0,1-.65.78l.73,1h-.56l-.66-.92h-.6q0,.45,0,.91h-.48Q351.65,139.09,351.65,137.78Zm1.16,1.31c.34,0,.56-.16.56-.43h0c0-.28-.21-.44-.56-.44h-.69q0,.44,0,.88Z"/><path class="cls-3" d="M355.3,137.84l2,0v.41l-1.53,0q0,.34,0,.68l1.36,0v.41l-1.36,0q0,.35,0,.7l1.55,0q0,.21,0,.41l-2,0Q355.29,139.15,355.3,137.84Z"/><path class="cls-3" d="M358.73,137.88h1.21a1.12,1.12,0,0,1,.78.27.78.78,0,0,1,.22.57h0a.79.79,0,0,1-.64.79l.73,1h-.56l-.66-.92h-.6q0,.46,0,.91h-.48Q358.73,139.18,358.73,137.88Zm1.17,1.31c.34,0,.56-.17.56-.43h0c0-.28-.21-.44-.56-.44h-.69q0,.44,0,.88Z"/><path class="cls-3" d="M362.19,140.14l.29-.33a1.28,1.28,0,0,0,.85.34c.29,0,.48-.13.48-.33h0c0-.19-.11-.29-.61-.4s-.9-.3-.9-.79h0c0-.45.39-.76.92-.76a1.53,1.53,0,0,1,1,.33l-.26.35a1.26,1.26,0,0,0-.73-.27c-.28,0-.44.14-.44.31h0c0,.2.12.29.64.41s.87.34.87.77h0c0,.49-.4.78-1,.78A1.7,1.7,0,0,1,362.19,140.14Z"/><path class="cls-3" d="M367.59,139.22h0a1.37,1.37,0,0,1,1.42-1.36,1.35,1.35,0,0,1,1.41,1.34h0a1.37,1.37,0,0,1-1.42,1.36A1.35,1.35,0,0,1,367.59,139.22Zm2.33,0h0a.92.92,0,1,0-1.83,0h0a.92.92,0,1,0,1.83,0Z"/><path class="cls-3" d="M371.84,137.88l2,0v.42h-1.54q0,.36,0,.71h1.36v.42h-1.36q0,.53,0,1.07h-.48Q371.84,139.19,371.84,137.88Z"/><path class="cls-3" d="M377.23,137.82l2,0q0,.21,0,.42l-1.54,0q0,.36,0,.71l1.36,0q0,.21,0,.42l-1.36,0q0,.53,0,1.06h-.48Q377.24,139.12,377.23,137.82Z"/><path class="cls-3" d="M380.58,139.26q0-.75,0-1.5H381q0,.74,0,1.48c0,.48.26.74.69.73a.65.65,0,0,0,.68-.74q0-.75,0-1.5h.48q0,.74,0,1.47a1.08,1.08,0,0,1-1.16,1.19A1,1,0,0,1,380.58,139.26Z"/><path class="cls-3" d="M385.06,138.09l-.86,0v-.42l2.19-.05v.42l-.86,0q0,1.09,0,2.17h-.48Q385.07,139.17,385.06,138.09Z"/><path class="cls-3" d="M387.71,139.08q0-.75,0-1.49h.48q0,.74,0,1.47c0,.48.27.73.69.71a.65.65,0,0,0,.67-.74q0-.74,0-1.49H390q0,.73,0,1.46a1.08,1.08,0,0,1-1.15,1.2A1,1,0,0,1,387.71,139.08Z"/><path class="cls-3" d="M391.51,137.48l1.21,0a1.11,1.11,0,0,1,.78.23.74.74,0,0,1,.23.55h0a.8.8,0,0,1-.63.8l.74.94-.56,0-.67-.87-.6,0q0,.45,0,.9l-.48,0Q391.53,138.76,391.51,137.48Zm1.19,1.24c.34,0,.55-.19.55-.45h0c0-.28-.21-.42-.57-.41l-.69,0q0,.43,0,.86Z"/><path class="cls-3" d="M395.16,137.35l2-.08v.4l-1.53.06q0,.33,0,.67l1.36-.06v.4l-1.36.06q0,.34,0,.69l1.53-.07v.4l-2,.09Q395.18,138.63,395.16,137.35Z"/><path class="cls-3" d="M340.73,130.17q-3.25-3.26-6.41-6.49-.28,6.07-.4,12.14l3.06.11q0-2.59.12-5.17l3.53,3.55,3.68-3.38q-.05,2.61-.09,5.22l3.06.07q.07-6.17.23-12.35Q344.14,127.05,340.73,130.17Z"/><path class="cls-3" d="M396.88,126.6q-.06-1.46-.12-2.91l-8,.13q.21,6.14.3,12.28,4-.11,8.06-.27,0-1.46-.07-2.91l-5,.15q0-.86,0-1.72l5-.14q0-1.46-.1-2.91l-4.95.12q0-.86-.05-1.72Z"/><path class="cls-3" d="M380.8,130.34q-3.38-3.18-6.72-6.4.08,6.21.11,12.43l3.06,0q0-2.63,0-5.26l3.65,3.45,3.56-3.55q0,2.62.08,5.23l3.06-.07q-.08-6.15-.28-12.3Q384.09,127.07,380.8,130.34Z"/><path class="cls-3" d="M372.61,127.81a3.84,3.84,0,0,0-1.43-2.94,4,4,0,0,0-2.54-.9h-5.43q0,6.22,0,12.45h5.5a4,4,0,0,0,2.56-.92l.25-.22a3.77,3.77,0,0,0,.3-5.09A3.75,3.75,0,0,0,372.61,127.81Zm-6.35-.85h2.4a.89.89,0,0,1,.89.87.86.86,0,0,1-.26.62.9.9,0,0,1-.62.26h-2.41Zm0,6.48q0-.87,0-1.75h2.42a.89.89,0,0,1,.89.87.86.86,0,0,1-.26.62.9.9,0,0,1-.63.26Z"/><path class="cls-3" d="M355.37,124a6.2,6.2,0,1,0-.13,12.4,6.2,6.2,0,1,0,.13-12.4Zm-.11,9.44a3.24,3.24,0,1,1,3.36-3.21A3.28,3.28,0,0,1,355.26,133.39Z"/><line class="cls-6" x1="338" y1="240.63" x2="377" y2="240.63"/><g class="cls-7"><path class="cls-3" d="M309.42,188.94c-12-14.59-23.66-29.29-35.09-43.91q3.49-6.51,6.93-13s4.95-11.73,13.28,0,31.58,42,31.67,41.94q8.77,7.51,17.68,14.92-17.23.09-34.48.07"/><path class="cls-8" d="M276.26,141.42c9.85,12.35,19.9,24.76,30.15,37.11l-1.28,2.12c-10.26-12.23-20.32-24.53-30.19-36.76Z"/><path class="cls-5" d="M299.77,139.65l-4.31-6.27a18.47,18.47,0,0,0-1.81-2.49c-1.26-1.46-3.61-4.18-5.46-4.1a7.14,7.14,0,0,0-5.2,2.46q-3.16,5.61-6.36,11.21s.47,1.16,2.74-2.46,3-2.4,3-2.4l.85,4s1.35,1.81,2.56-.69,1.58-4.34,3.2-2.42c0,0,1.52,2.78,2,3.05s2.31.83,2.18-1.95,1.87-1.14,2.35-.7S298.59,140,299.77,139.65Z"/><path class="cls-6" d="M326.22,173.94c-.09,0-23.43-30.18-31.67-41.94s-13.26,0-13.28,0q-3.44,6.51-6.93,13"/><path class="cls-3" d="M343.9,188.7s-5.86-8-14.11-20.79-14.87-4.23-16.7-.85c-1.9,3.58-7.95,13.59-8,13.59"/><path class="cls-6" d="M276.72,140.56c2-.27,4-5.82,5.43-5.71s.26,5.17,2.24,5,2.26-4.81,3.67-4.72,2,4.43,4,4.36.5-4.16,1.91-4.08,3.79,4,5.78,4.05"/><path class="cls-3" d="M215,154.93q11.11-16.63,21.81-33.62s9.55-15.27,19.93-.33c11.46,14.54,23.2,29.28,35.21,44l2.32,2.63q9,10.91,18.22,21.78-53.87.23-107.81-.63l-13.51-.7Q203.32,171.79,215,154.93Z"/><path class="cls-8" d="M216.78,152.28l10.46,13.28-1.06,1.67q-5.13-6.92-10.18-13.77Z"/><path class="cls-8" d="M312.26,188.94h1.58q-3.81-4.8-7.58-9.63l-1.14,1.34Q308.68,184.8,312.26,188.94Z"/><path class="cls-5" d="M228.14,134.93q3.52-5.45,7-10.93a30.92,30.92,0,0,1,2.94-4.37c2.07-2.56,5-5.28,8.25-5.2,6.06.17,7.86,3.36,7.86,3.36q7.16,9,14.46,18.15s-.7,2-5-4.26-5.43-4.14-5.43-4.14q-.55,3.46-1.11,6.91s-2.19,3.18-4.53-1.16-3.16-7.52-5.81-4.14c0,0-2.4,4.86-3.29,5.35s-4,1.48-4-3.34-3.36-1.93-4.16-1.15S230.24,135.59,228.14,134.93Z"/><path class="cls-6" d="M215.12,154.79q11.09-16.6,21.76-33.55s9.52-15.23,19.9-.3c17.9,22.62,36.48,45.72,55.73,68.5"/><path class="cls-6" d="M269.07,136.69c-3.55-.43-7.68-9.8-10.16-9.59s0,8.74-3.5,8.48-4.46-8.08-6.94-7.89-3.17,7.5-6.7,7.42-1.25-7-3.74-6.81-6.35,6.85-9.89,6.93"/><path class="cls-8" d="M289.58,190.16C279.1,178.76,268.8,167.34,258.7,156c0,0-5.8-10-13.69-7.07"/><path class="cls-3" d="M225.88,167.65q5.14-7.25,10.2-14.58s9.86-14.73,19.37-.08c9.45,12,19.09,24.07,28.91,36.15"/><path class="cls-8" d="M226.6,168.09q7.72,10.5,15.63,21.14l2.8,0q-8.9-11.86-17.57-23.57l-1.28,1.63Z"/><path class="cls-5" d="M233.9,156.22l4-5.36s5.16-4.87,8.12-4.36,4.57.81,8,4.78a85.55,85.55,0,0,1,5.34,6.7Q246.63,157.09,233.9,156.22Z"/><path class="cls-9" d="M233.9,156.22s.39,6.34,5.7,4,4.36-2.5,6.65-.74,4.79-.29,5.83-1.47,2.67,0,4.55,1.31,2.76-1.32,2.76-1.32"/><path class="cls-6" d="M225.88,167.65q5.14-7.25,10.2-14.58s9.86-14.73,19.37-.08c9.45,12,19.09,24.07,28.91,36.15"/><path class="cls-3" d="M79.48,185.07c27.55-22.8,53.95-49.13,79.17-77.23.06.09,12.74-16.08,22.7-1.35,19.31,26,39.6,53.89,60.87,82.28"/><path class="cls-5" d="M146.18,121.83Q152.59,115,158.9,108s6.41-7.79,12.87-8.26c7.35-.61,18,18.61,18,18.67"/><path class="cls-9" d="M189.82,118.44c-3.47.35,1.8,9.07-3.1,8.78s-8-8-11.44-7.71-2.59,7.39-7.5,7.38-3.58-6.57-7-6.27-7,6.67-11.9,6.92.82-6-2.65-5.72"/><path class="cls-8" d="M131.25,186.69s13.73-11.63,32-30c15.72-16,22.86-6.61,25.87-1.5s21.34,33.11,21.42,33.2"/><path class="cls-3" d="M128.55,186.62s13.75-11.58,32-29.89c15.75-16,22.87-6.6,25.87-1.51s21.29,33,21.37,33.14"/><path class="cls-5" d="M191.06,163.32s-4.6-8.11-6.35-10.6-3.33-5.15-9-5.05c-8.34.21-20.59,14.76-20.61,14.71"/><path class="cls-9" d="M155.05,162.37c2.68.15.47,6.68,4.28,6.36s6.55-6.17,9.22-6.05,1.67,5.49,5.48,5.35,3.09-5.14,5.77-5,5.1,4.92,8.9,5-.33-4.71,2.35-4.63"/><path class="cls-6" d="M128,186.6a309.75,309.75,0,0,0,32.56-29.88c15.42-16.33,22.86-6.6,25.87-1.51s21.29,33,21.37,33.14"/><path class="cls-8" d="M293.74,189.57s-4.35-6.32-10.5-16.26-11.46-3.28-12.94-.68c-1.53,2.78-10.12,16.44-10.14,16.44"/><path class="cls-3" d="M292.11,189.57s-4.35-6.32-10.48-16.26-11.46-3.28-12.93-.68c-1.53,2.78-10.14,16.44-10.15,16.43"/><path class="cls-5" d="M266.42,176.8s2.27-4.17,3.14-5.48A6.51,6.51,0,0,1,275,168c4.19,0,8.26,8.26,8.27,8.26"/><path class="cls-9" d="M283.25,176.29c-1.34.08.88,3.56-1,3.38s-3.26-3.26-4.6-3.2-.83,2.88-2.73,2.79-1.55-2.68-2.89-2.63-2.53,2.54-4.42,2.55.15-2.42-1.19-2.38"/><path class="cls-6" d="M291.83,189.14s-4.06-5.9-10.2-15.84-11.46-3.28-12.93-.68c-1.53,2.78-10.14,16.44-10.15,16.43"/><path class="cls-10" d="M364.58,189C270,190.33,175,189,80.44,185.46c-.29,0-.52-.12-.51-.23s.26-.21.55-.2c94.54,3.5,189.52,4.76,284.05,3.41.29,0,.54.11.55.24S364.87,188.95,364.58,189Z"/><path class="cls-10" d="M341.45,189.23l-3.82,0c-.29,0-.53-.11-.54-.25s.22-.26.51-.26l3.82,0c.29,0,.53.11.54.25S341.74,189.23,341.45,189.23Z"/><path class="cls-6" d="M79.48,185.07c27.55-22.8,53.95-49.13,79.17-77.23.06.09,12.74-16.08,22.7-1.35,19.31,26,39.6,53.89,60.87,82.28"/><path class="cls-5" d="M310.28,172.47s2.79-5.41,3.87-7.1,3.21-4.27,6.89-4.26c5.4,0,10.93,10.63,10.94,10.62"/><path class="cls-9" d="M332,171.74c-1.72.11,1.26,4.57-1.19,4.35s-4.32-4.18-6-4.1-1,3.71-3.42,3.62-2.09-3.45-3.81-3.38-3.18,3.3-5.63,3.32.12-3.14-1.61-3.08"/><path class="cls-6" d="M343.9,188.7s-5.86-8-14.11-20.79-14.87-4.23-16.7-.85c-1.9,3.58-7.95,13.59-8,13.59"/></g><path class="cls-6" d="M111.92,230.84a1903.66,1903.66,0,0,0,197.21,8.54"/><path class="cls-10" d="M299.35,182.47c.1-.26,0-.76-.06-.76h.14c-.27-1.1-2.74-1.84-4.22-1.54-2.93.6-5.86,1.12-8.79,1.71q-12.57,2.53-25.23,4.87c-7.06,1.31-14.12,2.44-21.27,3.29-1.66.2-3.32.39-5,.63a6.78,6.78,0,0,1-1.66.16c-.3,0-.34-.16-.72-.15a5.75,5.75,0,0,0-2.7.49c-.51.4-.43,1.47-.32,2.08.16.87.58,1.39.47,2.23a28.2,28.2,0,0,0-.34,3.73A38.76,38.76,0,0,0,231.77,210c.27.88.6,2.18,1.4,2.71a4.71,4.71,0,0,0,2.85.33c.61-.06,1.64-.17,1.77-1a2.71,2.71,0,0,0-.38-1.35,31.38,31.38,0,0,1-2.47-8c-.24-1.61-.35-3.24-.5-4.86a7.46,7.46,0,0,0-.53-2.69c-.12-.24-.47-.54-.47-.88s.38-.5.28-.77a50,50,0,0,1,7.81-1.4q4.27-.6,8.54-1.14c4.56-.57,9.1-1.17,13.64-1.84,8.54-1.27,17-2.55,25.46-4.24,2.28-.46,4.55-.85,6.81-1.35C296.81,183.44,298.95,183.46,299.35,182.47Z"/><path class="cls-10" d="M267.14,158.92c-2.42,2.28-7.06.67-10.32-3.57s-3.91-9.51-1.5-11.79,7-.7,10.25,3.54S269.56,156.64,267.14,158.92Z"/><path class="cls-10" d="M292.46,214.62c-.36-1.52.14-18.77,0-22a15.92,15.92,0,0,0-2.31-6.74c-1.45-2.25-4.49-6.34-4.49-6.34a21.78,21.78,0,0,1-2.89-6,6.92,6.92,0,0,1,5.92,2.89,22.25,22.25,0,0,1,3.47,7.09,2.39,2.39,0,0,0,2.42,1.82h.05l.18,0a2.94,2.94,0,0,0,1.37-.9,2.42,2.42,0,0,0,.41-1.2c.33-5-3.48-11.14-5.73-13.81-6-7-12.45-9.92-18-11-6.62-1.3-10.75,18.09-11.68,19.43s-5.27,5.77-7.52,9.56a3,3,0,0,0,.56,3.59,2.42,2.42,0,0,0,3.15.2,57.86,57.86,0,0,0,7.45-7.38c2.55-2.87,2.73-6,3.52-5.76.33.1,1.45,1.55,2.64,4.19h0s2.44,6.51,2.15,8c-.07.36.28.59.85.78-1.55,2.6-8.06,14.89-9.52,18.89s.62,22.12-.16,23c-1.56,1.69-8.3,2.48-7.7,4.19s13.23,1.28,13.41-.68.83-18,2.51-20.57c3.15-4.73,7.78-14.71,8.7-14s3.38,13.33,4.41,16.51,7.88,13.61,7.51,15.5c-.35,1.71-5.4,3.49-5.15,4.36.46,1.57,10.83-.79,12.37-2.27S292.81,216.19,292.46,214.62Z"/><path class="cls-10" d="M149.2,160.67c1.31-4.82-.06-9.3-3-10s-6.45,2.68-7.8,7.43,0,9.17,3,9.9S147.9,165.5,149.2,160.67Z"/><path class="cls-10" d="M132.63,209.1c.11,2.29-1.89,14.92-2.08,17s4.66,4,4.34,5.4c-.22,1-5.37,0-8.35-.65a2.68,2.68,0,0,1-2.13-2.5q-.23-8.42-.44-16.81s-4.54-11-5.39-17.77c-.27-6.37,7.28-22.82,11.85-24.86,6.8-3,17.5,8,19.23,9.1,1.14.7,5.17,1.27,7.71,1.58a2.31,2.31,0,0,1,2.05,2.22,2.35,2.35,0,0,1-2.39,2.42c-2.27-.07-5.71-.19-7.71-.28-3.2-.16-8.62-5.31-10.08-4.37a3.57,3.57,0,0,0-.82,1c-2.27,8.55-4.48,15.81-5.64,15.95Q132.71,202.83,132.63,209.1Z"/><path class="cls-10" d="M122.5,210.23s-7.63,13.26-7.23,14.08,4.73,5.71,5.63,5.06-1.08-4.7-1.07-4.84,3.63-4.63,3.63-4.63q-.07-3.81-.13-7.62Z"/><path class="cls-10" d="M171.2,189l1.24-1.58s-1.12.21-2.85-2.38-6.49-2.79-6.49-2.79Zm-7.55-7.36"/><path class="cls-10" d="M154.87,192.51l8.11,6.8,3.45-4.27,9.05-1a2.65,2.65,0,0,0,2.2,1.79.9.9,0,0,0,.38.06c.44,0,.81-.39,1-1a4.62,4.62,0,0,0,.22-1.88c-.1-1.39-.73-2.49-1.46-2.62h0a.74.74,0,0,0-.18,0,.85.85,0,0,0-.32.09,2.71,2.71,0,0,0-1.88,1.8l-7.49.85,2.76-3.48-8.09-6.75-.69.86c-.26-2.26-.94-4.71-3.18-2.86-2.6,2.14-2.35,5.61-1.56,8.75Zm23-1.32,0,0a2.81,2.81,0,0,1,.67,1.85,3.86,3.86,0,0,1-.17,1.54c-.11.28-.25.47-.38.51ZM157.76,189c-.51-2.12-.67-4.32.41-6.15.31-.51,1.79-2.73,2.47-1.52a5.07,5.07,0,0,1,.53,1.89c.06.46.1.93.12,1.39L157.76,189Zm.84-.73"/><path class="cls-10" d="M181.16,201.24c0-.27-.46-.86-.46-.86s-.5.56-.5.83a.49.49,0,0,0,.47.51.49.49,0,0,0,.49-.48Zm.81-1.89"/><path class="cls-10" d="M177.86,202.17c0-.49-.83-1.54-.83-1.54s-.89,1-.9,1.48a.89.89,0,0,0,.84.92.87.87,0,0,0,.89-.87Zm.9-1.84"/><path class="cls-10" d="M178.68,196.86s-.84.94-.85,1.4a.83.83,0,0,0,.79.87.83.83,0,0,0,.84-.82c0-.46-.78-1.45-.78-1.45Zm.75-1.59"/><path class="cls-11" d="M213.06,236.67l1.15,0,.17-38.9-1.13,0Z"/><path class="cls-5" d="M210.38,221c2,2.15,2.48,8,2.48,8s-5.6-.77-7.58-2.93-2.45-8-2.45-8S208.4,218.83,210.38,221Z"/><path class="cls-11" d="M212.81,229.58c-.24,0-5.83-.83-7.93-3.12s-2.59-8.1-2.61-8.35l-.06-.72.69.09c.24,0,5.79.8,7.89,3.08s2.63,8.14,2.65,8.39l.06.72Zm-7.11-3.93c1.41,1.54,5,2.34,6.52,2.62-.25-1.93-.93-5.47-2.24-6.89s-5-2.32-6.49-2.6C203.72,220.71,204.39,224.23,205.7,225.65Z"/><path class="cls-5" d="M217,221.19c-2,2-2.56,7.85-2.56,7.85s5.61-.35,7.6-2.39,2.52-7.9,2.52-7.9S219,219.17,217,221.19Z"/><path class="cls-11" d="M213.91,229c0-.25.61-6.06,2.72-8.21s7.68-2.58,7.91-2.6l.69-.05-.06.72c0,.25-.56,6.11-2.68,8.26s-7.72,2.54-8,2.55l-.69,0Zm3.53-7.34c-1.43,1.45-2.08,5.17-2.3,6.76,1.84-.2,5.22-.82,6.54-2.17s2.06-5.19,2.27-6.79C222.12,219.65,218.77,220.29,217.44,221.63Z"/><path class="cls-5" d="M210.48,206.65c2,2.13,2.46,8,2.46,8s-5.56-.73-7.52-2.86-2.43-8-2.43-8S208.51,204.51,210.48,206.65Z"/><path class="cls-11" d="M212.88,215.23c-.24,0-5.79-.78-7.87-3s-2.57-8.08-2.58-8.32l-.06-.72.68.09c.23,0,5.74.74,7.82,3s2.61,8.11,2.63,8.36l.06.72Zm-7.06-3.86c1.4,1.53,4.95,2.3,6.47,2.56-.24-1.93-.92-5.46-2.22-6.87s-4.93-2.28-6.44-2.54C203.87,206.44,204.53,210,205.83,211.37Z"/><path class="cls-11" d="M217.08,206.81c-2,2-2.54,7.88-2.54,7.88s5.56-.4,7.54-2.45,2.5-7.92,2.5-7.92S219.06,204.77,217.08,206.81Z"/><path class="cls-11" d="M214,214.61c0-.25.6-6.07,2.7-8.23s7.62-2.64,7.85-2.66l.68-.06-.06.72c0,.25-.56,6.11-2.66,8.28s-7.66,2.6-7.89,2.61l-.69,0Zm3.5-7.37c-1.41,1.46-2.06,5.18-2.28,6.78,1.83-.21,5.18-.86,6.49-2.22s2-5.21,2.25-6.81C222.12,205.22,218.79,205.89,217.48,207.24Z"/><path class="cls-12" d="M220.24,194.2a6.65,6.65,0,0,1-6.61,6.88,6.9,6.9,0,0,1-6.54-7.11,6.73,6.73,0,0,1,6.61-6.87A6.89,6.89,0,0,1,220.24,194.2Z"/><path class="cls-13" d="M215.63,192.29a.14.14,0,0,0-.1,0h-.76a1.72,1.72,0,0,0-.28-.69l1,0a.13.13,0,0,0,.1,0,.15.15,0,0,0,0-.11v-.48a.15.15,0,0,0,0-.11.14.14,0,0,0-.1,0l-3.7-.06a.13.13,0,0,0-.1,0,.15.15,0,0,0,0,.11v.63a.15.15,0,0,0,0,.11.13.13,0,0,0,.1,0h.65q.94,0,1.19.55l-1.84,0a.13.13,0,0,0-.1,0,.15.15,0,0,0,0,.11v.48a.15.15,0,0,0,0,.11.14.14,0,0,0,.1,0l1.9,0a.9.9,0,0,1-.46.59,1.9,1.9,0,0,1-.95.19h-.5a.13.13,0,0,0-.1,0,.15.15,0,0,0,0,.11v.6a.15.15,0,0,0,0,.1q.85,1,2.21,2.75a.13.13,0,0,0,.11.06l.87,0a.13.13,0,0,0,.13-.08.14.14,0,0,0,0-.16q-1.3-1.72-2-2.58a2.16,2.16,0,0,0,1.23-.5,1.78,1.78,0,0,0,.58-1.1h.75a.13.13,0,0,0,.1,0,.15.15,0,0,0,0-.11v-.48a.15.15,0,0,0,0-.11Zm.09-2"/><path class="cls-11" d="M187.2,235.57l1,.06.39-20.93-1,0Z"/><path class="cls-5" d="M185,221.81c1.74,1.9,2.11,7,2.11,7s-5-.74-6.72-2.65-2.08-7-2.08-7S183.26,219.91,185,221.81Z"/><path class="cls-11" d="M187,229.36c-.21,0-5.19-.8-7-2.82s-2.21-7.11-2.22-7.32l0-.63.61.09c.21,0,5.15.76,7,2.77s2.24,7.15,2.25,7.36l0,.63Zm-6.29-3.52c1.24,1.36,4.42,2.11,5.77,2.37-.19-1.69-.76-4.79-1.91-6.05s-4.4-2.08-5.75-2.34C179.06,221.5,179.61,224.58,180.76,225.85Z"/><path class="cls-5" d="M190.93,222.07c-1.8,1.75-2.38,6.84-2.38,6.84s5-.24,6.8-2S197.7,220,197.7,220,192.73,220.33,190.93,222.07Z"/><path class="cls-11" d="M188,228.84c0-.22.62-5.29,2.53-7.15s6.88-2.17,7.09-2.19l.61,0-.07.63c0,.22-.58,5.34-2.5,7.21s-6.91,2.13-7.12,2.14l-.62,0Zm3.24-6.38c-1.29,1.25-1.92,4.5-2.13,5.88,1.65-.15,4.66-.66,5.85-1.82s1.9-4.52,2.11-5.92C195.47,220.78,192.47,221.3,191.28,222.46Z"/><path class="cls-14" d="M191.95,213.94a3.78,3.78,0,0,1-3.9,3.8,4,4,0,0,1-3.74-4.1,3.81,3.81,0,0,1,3.9-3.8A4,4,0,0,1,191.95,213.94Z"/><path class="cls-13" d="M189.29,212.81l-.06,0-.44,0a1,1,0,0,0-.16-.39l.6,0,.06,0a.08.08,0,0,0,0-.06V212a.09.09,0,0,0,0-.06.08.08,0,0,0-.06,0l-2.15-.08-.06,0a.08.08,0,0,0,0,.06v.36a.09.09,0,0,0,0,.06.08.08,0,0,0,.06,0h.38q.55,0,.69.33l-1.07,0-.06,0a.08.08,0,0,0,0,.06v.27a.09.09,0,0,0,0,.06l.06,0,1.11,0a.51.51,0,0,1-.27.32,1.13,1.13,0,0,1-.55.09h-.29l-.06,0a.08.08,0,0,0,0,.06V214a.08.08,0,0,0,0,.06q.49.56,1.26,1.58a.08.08,0,0,0,.06,0l.51,0a.07.07,0,0,0,.08,0,.08.08,0,0,0,0-.09q-.74-1-1.16-1.48a1.26,1.26,0,0,0,.72-.27,1,1,0,0,0,.35-.61l.44,0,.06,0a.08.08,0,0,0,0-.06v-.27a.09.09,0,0,0,0-.06Zm.85-2.8"/><path class="cls-15" d="M582.69,148.08c-.05-.68,1.38-.89.49-1.84.91-.83,1.2-2.24.08-2.67-3-1.14-3.52-4-5.23-6.05-.23-1.31-1.38-1.62-2-1.05-1.43,1.29-3.15.87-4.8,1-2.07-.13-2.2,2.65-4.16,2.71-1.81-1.14-2.72,0-3.62,1.24a.11.11,0,0,0-.07,0,2.91,2.91,0,0,0-1.68,1.9c-.08.58.23,1.33-.63,1.54-.79-1.41-1.3-.75-1.77.16-.44.66-1.13.57-1.82.61-1.4.08-1.25.86-.58,1.79-.58.93,1.26,2.45-.59,3.08a13.57,13.57,0,0,1-6.21-.16c-.89-1-1.66-.21-2.46.09-.7-1.43-3.73-.46-3.12-3.24h0c-.24-1.55.64-3.41-1.31-4.5-1.39-.07-2.76-.09-3.65,1.27q0,2.85,0,5.71c-1,2.95-3.63,1.47-5.54,2-1.63,0-3.13-2.74-4.86-.36-.74-1.82-2.3-.53-3.45-1-1.77-.8-2.15-3.1-4-3.64-1.3-2.58-2.75-1.16-4.19-.28l0,0c-1-.61-2-1.4-3.24-.89-2.38-1-5.17-1.18-6.84-3.73.17-1.21-.74-1.55-1.4-2.2-1-1-2.79-.59-3.43-2.2.06,0,.13-.07.19-.2h0c1.28-1.37,2.24-2.87,1.63-5,.21-.92,1.09-1.13,1.71-1.86a21,21,0,0,1-5.37-4.54,1.63,1.63,0,0,0-2.37-1l-1.35-1.94c.58-1.45-.55-2.32-1-3.41l1.26-1.4s.05,0,.08-.07c.64-.5,2.11-.11,1.65-1.81l.17-1.32a1.72,1.72,0,0,0-.14-2.63h0c-.41-.88-2.12-1.12-1.16-2.69h0l1.19-2.09a5.66,5.66,0,0,1,3.08-4.38c1.38-.89,2.35-3.83,1.64-5.06-.07-.12-.38-.07-.57-.1a3.54,3.54,0,0,1-4.1-2.6c-1.43-1.68-3.21-1.57-4.06.24l-1.89,1.23c-1.1-1.52-2.16.15-3.24,0q-.3.07-.37-.26c-.87-1.21-1.32-2.92-3-3.15-2.68-.84-4.28-3.44-6.49-5,.59-.95-.18-1.09-.67-1.31-2.54-1.13-4.8-.34-7,1.17v0c-1.1.18-2.69-1.1-3.08,1.24a4.3,4.3,0,0,0-2.42,2.68,1.46,1.46,0,0,0-1.25,1.41c-.07.83.45,1.08,1.06,1.17.64,1.35,2.57-.6,2.95,1.42.08,1.83.91,2.91,2.53,3.2a4.26,4.26,0,0,1-.13,2.42L471,102.65c-.64,0-1.22.08-1.36.94s.16,1.52,1,1.65l0,.68c-1.16,2.14-.14,4,.57,5.92.84,1,2.28,1,3,2.17-.43,1.83,1.17,1.43,1.84,2,.75.29,1.67,0,2.29.76l-1.87.3.64,1a1.79,1.79,0,0,0-1.83,1.31c-1.19,1.89-.63,4-.65,6.05l-2.53,3.36c-1.1,0-1.49,1.09-2.2,1.68a.54.54,0,0,0-.32.22c-1.3,1.27-1.53,3.06-1.91,4.76-.56,1.71-2.15,2.19-3.25,3.26-1.88.74-2.27,3.44-4.31,4-.31.36-1.44-.76-1.11.75-1.54,1.78-2,.32-2.55-.94l-.51-.11a1.18,1.18,0,0,1,.3,0c-1-.36-2.07-1-2.24,1.1.11,2.15-2.08,2.37-2.75,3.86-1.37.93-1.54,1.76-.53,2.61l1.85,1.39c.58.8-.7,2.45,1,2.73,0,1.21.92,1.75,1.42,2.61.3,2.07,1.59,3.65,2.24,5.55l-1.34,1.29-.6-.15.22-.88c-.94-.24-1.53.3-2,1.07-2.08-.2-4.1-1.34-6.36-.42l1.32.95c-1.75-.63-1.52,2.11-3.19,2.16s-1.71,1.49-.53,2.47a6.52,6.52,0,0,1,1.66,2.19c-.08,1.61,1.52,2.14,1.87,3.47a1.81,1.81,0,0,0-.72,1.73c.49,3.08,2.93,4.42,4.78,6.28.61.85.85,2.37,2.42,1.5l2.51.71-.72.94c1.2-.34,2.89.32,3.2-1.85l3.23-2,1.86,1.35c1.14,1.63-.25,3.21-.21,4.8.05,2.06-1.11,4.46,1.18,6a10.07,10.07,0,0,1,.52,4,28.78,28.78,0,0,0,3.67,16.7c.26.45.4-.43.55-.74l1.67,3.43c.6,4.14,1.26,8.25,3.14,12,.19,1.17.34,2.37,1.76,2.61a4.32,4.32,0,0,1,2,2.62c-1.09,1.78.61,3.07.56,4.67a15.58,15.58,0,0,1,1.35,4.31c.35,2.11.78,4.39,3,5.48a3.79,3.79,0,0,0,3.28,3.27.67.67,0,0,0,.4.18c1.86.73,2.86-.41,3.53-2.26a5.34,5.34,0,0,1,4.53-4.94c.76.07,1.8,1,2.17.17s-.87-.75-1.52-.84c0-.57-.61-.85-.33-1.7.75-2.26,2.54-3,4.35-3.78,2.56-.84,1.09-2.84,1-4-.2-1.66-.68-3.25.37-4.73,1.73-2.43,2-5.08,1.84-7.86q-.62-4.6-1.24-9.2s.08,0,.12-.11c.8-.78,1.22-2.09,2.63-2l1.17-.64a4.72,4.72,0,0,0,3.09-2.62,7.9,7.9,0,0,0,3.14-1.57c.83.71,1.2-.13,1.18-.62-.07-1.64,1.07-2.39,2-3.31a3.08,3.08,0,0,0,2.52-2c.05,0,.1-.05.14-.15.58-.48,1.79-.57,1-1.87l1.93-1.38c1.88-.19,2.75-1.4,3-3.2h0a7.58,7.58,0,0,0,3.16-3.45,5,5,0,0,0,3.61-1.14.8.8,0,0,0,.18-.15h0c1.58-.5,3.17-1,2.63-3.26-.08-1,1.1-1.13,1.23-2,.44.12,1.35.35,1.07-.28-1.16-2.66.5-3.18,2.35-3.67.58-.15.75-.62.83-1.16l2.53.63c1.17,2.1,2.16,1.18,3.11-.2h0c1.72-1.58,1.73-2.29,0-6.35,0,.53-.07.95-.1,1.36-1.19-1.84-.25-4.5-2.32-6.06-.54-.41,0-.84.33-1.25,1.27-1.7.13-2.41-1.27-3l1.2-.18c-2-2.31.23-2.49,1.42-3.3.65-.44.26-1.11-.17-1.63a8.32,8.32,0,0,1-2.28-1.44c-.62-.75-2.27-1.22-1.33-2.73.8-1.27,1.82-.91,3.15-.59,3,.72,5.29,1.67,4.78,5.43,1.14,2.27,3.18.8,4.73,1.34,2.11.72,4.82-.9,6.39,1.87-.53,1.73-1.56,2.76-3.5,2.54-1.68.05-2.13,1.28-2.28,2.65a3.47,3.47,0,0,0,1.78,2.91c.9-.09,1.37,1.42,2.43.7,2.21-.76,2.07,1.09,2.57,2.3.36.85-.8,2.12.75,2.62,1.47,1.32,2.56.58,3.55-.63.62,0,1.45-.18,1.08-.94-.63-1.29.17-2.32.22-3.46h0c.76-1.56.78-3.81,3.4-3.61l0-.87c2.32-2.38,3.77-5.06,2.93-8.59,1-3.35,1.36-7.07,5.28-8.44,1.36.57,2.67-.1,4,.1l1.51.09C584.54,148.89,583.34,148.57,582.69,148.08ZM472.45,88h0l.12,0Z"/><path class="cls-5" d="M481,223a3.26,3.26,0,0,0-2-1.52c.05-.12.29-.26.29-.38l0-2.34h-.42c-.1-2.14-8.79-2.12-9.78-2.11s-9.69.29-9.87,2.45h.62l-.06,2.36c0,.73.55,1.32,1.87,1.72,0,.06-.35.22-.35.22h-.54l-.06,2.64c-1,.41-1.68,2.78-1.72,2.78h.63l0,1.48c0,.51.08,1.59.79,1.94,0,.08-.38.9-.39.9h-.47l0,1.38c0,1.28,2.94,2,6,2.32h.26c.59.06,1.22.1,1.81.12h.08c.75,0,1.49,0,2.19,0s1.44-.06,2.19-.12H472c.59-.05,1.19-.12,1.78-.21h-.26c3.06-.45,5.49-1.31,5.5-2.58l0-1.37.68,0c0-2.15-.18-1.5-.93-1.81a7.67,7.67,0,0,0,.29-1l0-2.5c0-.42,1-1,1.05-1.73l0-2.63Z"/><path class="cls-10" d="M482.12,223.4c0-.72-.84-1.26-2.47-1.65a1,1,0,0,0,.09-.39l0-2.94h0c-.11-2.44-9.66-2.33-10.76-2.32s-10.65.23-10.86,2.69h0l-.07,3c0,.8,1,1.42,2.4,1.87a1,1,0,0,0,0,.21h0l-.07,3c-1.59.45-2.39,1-2.45,1.73h0l-.07,3c0,.56.46,1,1.23,1.41a1,1,0,0,0-.06.26h0l-.07,3c0,1.41,3,2.23,6.33,2.56h.09c.65.06,1.31.11,2,.14h.06c.83,0,1.64,0,2.4,0s1.58-.07,2.41-.14h.06c.65-.06,1.31-.14,2-.23h0l.07,0c3.37-.5,6.41-1.46,6.43-2.85l0-2.94h0c0-.51-.44-.93-1.26-1.27a1,1,0,0,0,.08-.38l0-2.75c1.45-.5,2.43-1.15,2.44-1.94l0-2.94Zm-3.37,7.78-.14.13a3.76,3.76,0,0,1-1,.61l0-2a6.2,6.2,0,0,0,1.22-.61l0,1.74a.28.28,0,0,1,0,.14Zm-9,2.18h-.18l-.44,0,0-2.11h.4l1.22-.07,0,2.1-.26,0-.74,0Zm-1.76,0h-.62l-.65,0,0-2.11,1.21,0h.4l0,2.11H468Zm-7.26-.82h0l0-2c.37.1.78.19,1.2.27l0,2.06q-.55-.11-1-.24l-.15,0Zm8.43,3.32h.33l0,2.11q-.84,0-1.62,0l0-2.11h1.28Zm1.54,0,1.22-.07,0,2.1c-.52,0-1.06.07-1.62.09l0-2.11h.4Zm3.24-.27,0,2.09-1.21.14,0-2.1,1.21-.13Zm.81-.11,1.21-.21,0,2.07-1.21.23Zm2-.38c.43-.1.84-.21,1.21-.32l0,2c-.36.12-.77.24-1.22.35Zm-13.73.32,0,2.06c-.44-.09-.85-.19-1.2-.29l0-2c.37.1.78.19,1.2.27Zm.8.13c.39.06.79.11,1.21.15l0,2.09-1.21-.17Zm2,.23,1.21.08,0,2.1-1.21-.08Zm-.95-2.5h-.21l0-2.1,1.21.08,0,2.1-1-.07Zm-1-2.19,0,2.09-1.2-.17,0-2.07c.39.06.79.11,1.2.16Zm7.88,2.11-.27,0,0-2.1,1.21-.13,0,2.09-.77.09-.18,0Zm1.75-.23,0-2.08q.62-.09,1.21-.21l0,2.07c-.38.08-.79.16-1.21.22Zm2.06-2.46c.43-.1.84-.21,1.21-.32l0,2q-.54.18-1.22.34Zm-5.47-1.8-.89,0h0l0-2.11,1.21,0h.39l0,2.1h-.67Zm-9.25-5.86,0-2c.37.1.77.19,1.2.27l0,2.06-.15,0-.62-.15-.43-.12Zm7.31-1.26h.33l0,2.11c-.54,0-1.08,0-1.6,0l0-2.11,1.21,0Zm1.53,0,1.21-.06,0,2.1-.2,0h0l-.82,0h-.56l0-2.11h.4Zm9.14,0h0l-.15.12a4.08,4.08,0,0,1-1,.54l0-2a6,6,0,0,0,1.21-.6l0,1.74a.36.36,0,0,1-.1.21Zm-5.15,1.7,0-2.08,1.21-.2,0,2.06-1.21.22Zm2-.4,0-2q.64-.15,1.21-.32l0,2c-.36.12-.77.23-1.21.34Zm-2.78-1.57,0,2.09-1.21.14,0-2.1,1.21-.13Zm-8.06,2.24,0-2.09,1.2.08,0,2.1-1.2-.09Zm-.76-2.17,0,2.09-.24,0-.15,0-.68-.1-.13,0,0-2.07,1.2.16Zm4.17,7.28h-.16l-.75-.06h-.19l0-2.09,1.21.08,0,2.1Zm-2.65-.26-.46-.08,0-2.07,1.2.16,0,2.09-.72-.09Zm-1.22-2.28,0,2.06c-.44-.09-.84-.19-1.2-.3l0-2c.37.1.77.19,1.2.27Zm-2-.52,0,2a2.35,2.35,0,0,1-1.15-.73l0,0v0l0-1.75a5.62,5.62,0,0,0,1.19.56Zm9.62,1,1.21-.07,0,2.1c-.53,0-1.07.07-1.61.08l0-2.1h.4Zm5.17,1.49-.54.11-.32.06-.31,0,0-2.08,1.21-.21,0,2.06Zm-2.73.42-.46,0,0-2.1,1.21-.13,0,2.09-.71.09Zm4.61-.9-.63.18-.31.08-.1,0,0-2c.43-.1.83-.2,1.21-.32l0,2-.18.06Zm2.24-4.14c0,.29-.66.68-1.77,1.06a26.26,26.26,0,0,1-6.48,1.16l-.43,0-.36,0-1,0h-1.82a25,25,0,0,1-6.44-.9c-1.09-.34-1.69-.71-1.73-1v0l.08,0,.48.11a25.66,25.66,0,0,0,2.61.4h0c.64.07,1.3.11,2,.14h0l1.49,0h.91l.65,0a29.59,29.59,0,0,0,7.52-1.13l.26-.09.15-.05.42-.16.07,0,.33-.15.09,0,.32-.17.13-.08.14-.09.08-.05c1.79.36,2.26.8,2.3,1ZM469,216.95c6.6-.11,9.92.9,10,1.53-.05.29-.67.68-1.77,1.05a25.93,25.93,0,0,1-6.47,1.14l-.43,0-.36,0-1,0h-1.81a24.81,24.81,0,0,1-6.43-.91c-1.08-.34-1.69-.71-1.73-1,.08-.63,3.44-1.76,10-1.87Zm-10.12,4.8,0-1.75a5.45,5.45,0,0,0,1.19.56l0,2c-.77-.3-1.19-.6-1.18-.84Zm1.81,5.82,0,0a6.36,6.36,0,0,0,3.08,1.33l.1,0,.32.07a29,29,0,0,0,4.55.52h0c.55,0,1.1,0,1.67,0h.74l.85,0c.53,0,1-.06,1.56-.1h0a30.09,30.09,0,0,0,4.66-.73,7.51,7.51,0,0,1-1.2.51,26.83,26.83,0,0,1-7,1.2h-.57l-.77,0h-1.82a25,25,0,0,1-6.46-.9c-1.1-.34-1.71-.71-1.74-1s.47-.56,2-1Zm-2,3.9,0-1.75a5.5,5.5,0,0,0,1.19.56l0,2-.23-.09h0c-.63-.26-1-.53-1-.74Zm1.1,4.63,0-1.75a5.65,5.65,0,0,0,1.2.56l0,2c-.78-.29-1.2-.59-1.19-.83Zm19,.41,0-2a6.28,6.28,0,0,0,1.22-.61l0,1.74c0,.24-.43.56-1.22.89Zm1.26-3.79c0,.28-.67.68-1.78,1.06A26.33,26.33,0,0,1,471.7,235l-.44,0-.36,0-1,0H468a25,25,0,0,1-6.47-.88c-1.06-.32-1.67-.68-1.74-1l.37.12h0l.33.1.13,0,.2,0a27.26,27.26,0,0,0,5.35.7h0c.63,0,1.26,0,1.91,0h.51l.68,0c.59,0,1.17-.06,1.74-.11h0c.69-.06,1.36-.14,2-.23h0c.72-.1,1.4-.23,2-.37l.38-.09.08,0a10.93,10.93,0,0,0,2.95-1.07l.11-.07.13-.09.12-.08c.79.27,1,.53,1,.64Zm.08-5.48,0-2a6.08,6.08,0,0,0,1.21-.61l0,1.74c0,.24-.43.55-1.22.88Zm.84-4.14"/><path class="cls-5" d="M480.29,208a3.63,3.63,0,0,0-2.16-1.47c.05-.12.29-.12.29-.25l0-2.54H478c-.11-2.14-9.25-2.31-10.3-2.3s-10.2.39-10.4,2.55h-.24l-.06,2.56c0,.77,1,1.23,2.42,1.67,0,.07.09.07.08.07h.51l-.07,3.12c-1,.43-2.81,1.23-2.85,1.23h-.24l-.08,3.29A3,3,0,0,0,458.1,218c0,.08,0,1,0,1h.65l0,1.29c0,1.36,2.52,2.16,5.73,2.5l-.09,0h-.06c.62.06,1.21.11,1.83.14h0c.79,0,1.56,0,2.29,0s1.51-.05,2.3-.12h.06c.62-.05,1.26-.12,1.88-.21h0l.21,0c3.23-.46,6.28-1.37,6.3-2.71l0-1.28H479c0-2.15-.2-1.68-1-2a9.47,9.47,0,0,0,.3-1.15l0-2.65c1-.47,1-1.06,1-1.83l0-3.11Z"/><path class="cls-10" d="M481.29,209.3c0-.72-.83-1.26-2.45-1.66a1,1,0,0,0,.09-.39l0-2.94h0c-.11-2.44-9.6-2.39-10.69-2.38s-10.58.18-10.79,2.65h0l-.07,3c0,.8.94,1.42,2.39,1.88a1,1,0,0,0,0,.21h0l-.07,3c-1.58.45-2.38,1-2.43,1.72h0l-.07,3c0,.56.45,1,1.23,1.41a1,1,0,0,0-.06.26h0l-.07,3c0,1.41,3,2.24,6.29,2.59l.07,0h0c.64.07,1.3.11,1.94.14h.06c.82,0,1.63,0,2.39,0s1.57-.06,2.39-.13h.06c.65-.06,1.3-.13,2-.22h0l.07,0c3.35-.48,6.37-1.42,6.39-2.82l0-2.94h0c0-.51-.43-.94-1.25-1.28a1,1,0,0,0,.08-.38l0-2.75c1.44-.49,2.41-1.13,2.42-1.92l0-2.94Zm-3.35,7.76-.14.13a3.7,3.7,0,0,1-1,.6l0-2a6.09,6.09,0,0,0,1.21-.6l0,1.74a.29.29,0,0,1,0,.14Zm-9,2.13h-.61l0-2.11h.39L470,217l0,2.1-.26,0-.73,0Zm-1.75,0h-.62l-.65,0,0-2.11,1.2,0h.39l0,2.11h-.34Zm-7.21-.85h0l0-2c.37.1.77.19,1.19.28l0,2.06c-.37-.08-.7-.16-1-.24l-.15,0Zm8.37,3.36h.33l0,2.11q-.83,0-1.6,0l0-2.11,1.21,0Zm1.53,0,1.21-.06,0,2.1c-.52,0-1.05.07-1.61.08l0-2.11h.39Zm3.22-.25,0,2.09-1.21.14,0-2.1,1.2-.12Zm.8-.11,1.21-.2,0,2.07-1.21.22Zm2-.37c.43-.1.83-.2,1.21-.32l0,2c-.36.12-.76.23-1.21.34Zm-13.64.25,0,2.06c-.44-.09-.84-.19-1.2-.3l0-2c.37.1.77.19,1.2.27Zm.8.14c.39.06.79.12,1.2.16l0,2.09-1.2-.17Zm2,.24,1.2.08,0,2.1-1.2-.09Zm-.94-2.51h-.21l0-2.1,1.2.08,0,2.1-1-.07Zm-1-2.2,0,2.09-1.2-.18,0-2.08q.58.09,1.2.16ZM471,219l-.27,0,0-2.1,1.2-.12,0,2.09-.76.09-.17,0Zm1.74-.22,0-2.08,1.21-.2,0,2.07c-.38.08-.78.15-1.21.22Zm2-2.45c.43-.09.83-.2,1.21-.31l0,2q-.54.17-1.21.34Zm-5.43-1.83-.88,0h0l0-2.11,1.2,0h.39l0,2.11h-.67Zm-9.18-5.91,0-2c.37.1.77.19,1.19.28l0,2.06-.15,0-.61-.15-.43-.12Zm7.27-1.22h.33l0,2.11c-.54,0-1.07,0-1.59,0l0-2.11,1.2,0Zm1.52,0,1.2-.06,0,2.1-.2,0h0l-.82,0h-.56l0-2.11H469Zm9.08.07h0l-.15.12a4,4,0,0,1-1,.53l0-2a6,6,0,0,0,1.21-.6l0,1.74a.35.35,0,0,1-.09.21Zm-5.12,1.67,0-2.08,1.2-.19,0,2.06-1.2.21Zm2-.39,0-2q.64-.14,1.2-.31l0,2c-.36.11-.76.23-1.2.33Zm-2.76-1.59,0,2.09-1.2.13,0-2.1,1.2-.12Zm-8,2.2,0-2.09,1.19.09,0,2.1-1.19-.09Zm-.75-2.18,0,2.09-.24,0-.15,0-.67-.1-.13,0,0-2.07,1.19.16Zm4.14,7.3h-.16l-.75-.06h-.19l0-2.1,1.2.09,0,2.1Zm-2.63-.28-.46-.08,0-2.07,1.2.16,0,2.09-.71-.1Zm-1.21-2.29,0,2.06c-.44-.1-.84-.2-1.19-.3l0-2q.56.15,1.19.28Zm-2-.53,0,2a2.35,2.35,0,0,1-1.15-.74l0,0v0l0-1.75a5.59,5.59,0,0,0,1.19.57Zm9.55,1,1.2-.06,0,2.1c-.53,0-1.06.06-1.6.07l0-2.1h.39Zm5.13,1.53-.53.1-.32.06-.31,0,0-2.08,1.2-.2,0,2.06Zm-2.71.41-.46,0,0-2.1,1.2-.12,0,2.09-.7.09Zm4.58-.87-.63.18-.31.08-.1,0,0-2.05c.43-.1.83-.2,1.2-.31l0,2-.18.05Zm2.23-4.13c0,.29-.66.68-1.76,1.05a25.92,25.92,0,0,1-6.44,1.12l-.43,0-.36,0-1,0h-1.8a24.78,24.78,0,0,1-6.4-.93c-1.08-.34-1.68-.71-1.72-1v0l.08,0,.48.11a25.48,25.48,0,0,0,2.6.41h0c.63.07,1.3.12,2,.15h0l1.48,0h.9l.64,0a29.22,29.22,0,0,0,7.47-1.09l.25-.08.15,0,.42-.16.07,0,.33-.15.09,0,.32-.17.13-.08.14-.09.08-.05c1.78.38,2.24.81,2.29,1Zm-12.22-6.57c6.55-.08,9.85,1,9.91,1.58-.05.29-.67.67-1.76,1a25.6,25.6,0,0,1-6.42,1.1l-.43,0h-.36l-1,0h-1.8a24.62,24.62,0,0,1-6.38-.94c-1.07-.34-1.67-.72-1.71-1,.08-.63,3.42-1.75,10-1.83Zm-10.05,4.75,0-1.75a5.41,5.41,0,0,0,1.18.57l0,2c-.77-.3-1.18-.61-1.17-.84Zm1.79,5.83,0,0a6.33,6.33,0,0,0,3.06,1.35l.1,0,.31.07a28.73,28.73,0,0,0,4.51.54h0c.54,0,1.09,0,1.66,0h.74l.85,0c.52,0,1-.05,1.55-.09h0a29.75,29.75,0,0,0,4.63-.71,7.4,7.4,0,0,1-1.19.51,26.5,26.5,0,0,1-6.93,1.16h-.57l-.76,0h-1.81a24.82,24.82,0,0,1-6.41-.93c-1.09-.35-1.7-.72-1.72-1s.46-.56,2-1Zm-2,3.9,0-1.75a5.48,5.48,0,0,0,1.18.57l0,2-.23-.09h0c-.62-.27-1-.53-.95-.75Zm1.09,4.64,0-1.75a5.62,5.62,0,0,0,1.19.57l0,2c-.77-.3-1.19-.6-1.18-.84Zm18.84.51,0-2a6.19,6.19,0,0,0,1.21-.61l0,1.74c0,.24-.43.56-1.22.88Zm1.25-3.78c0,.28-.67.67-1.77,1.05a26,26,0,0,1-6.47,1.14l-.43,0-.36,0-1,0H467.3a24.79,24.79,0,0,1-6.43-.91c-1.05-.33-1.66-.69-1.73-1l.37.12h0l.33.1.13,0,.19.05a27,27,0,0,0,5.32.72h0c.62,0,1.26,0,1.9,0h.51l.67,0c.59,0,1.16-.05,1.73-.1h0q1-.09,2-.22h0c.71-.1,1.39-.22,2-.36l.38-.08.08,0a10.76,10.76,0,0,0,2.93-1.05l.11-.07L478,218l.12-.08c.79.28,1,.54,1,.64Zm.09-5.49,0-2a6,6,0,0,0,1.2-.6l0,1.74c0,.24-.43.55-1.21.87Zm.66-3.2"/><path class="cls-6" d="M398.23,239.82c74.85.73,150-3.9,224.66-12.69"/><path class="cls-5" d="M566.07,219.2a5.39,5.39,0,0,0-2.7-1.54c.05-.12-.09-.34-.09-.47l0-1.84.33,0c-.23-3-9.74-1.84-10.84-1.78s-10.64-.15-10.74,2.93l.78,0,0,1.88c0,.76.61,1.44,2.08,1.81a2.2,2.2,0,0,1-.42.33l-.6,0,0,2.58c-1,.46-1.73,2.65-1.77,2.66l.78,0,0,1.87c0,.53.12,1.81.91,2.13,0,.08-.43,1.11-.43,1.11l-.42,0,0,1.14c0,1.34,3.27,2,6.63,2.1h.25c.65,0,1.34,0,2,0H552c.83,0,1.64,0,2.4-.1s1.58-.14,2.4-.25h.06c.65-.09,1.31-.19,2-.31h0l.33,0c3.35-.63,6.61-1.7,6.57-3l0-1.11-.52,0a2.07,2.07,0,0,0-1.5-1.93,9,9,0,0,0-.12-1.16l-.07-2.57c2-.57,3.06-1.22,3-2l-.07-2.52Z"/><path class="cls-9" d="M538.4,235.6q-36.95,2.38-73.9,3.18,4-6.09,8-12.16,29-.63,58-2.09Q534.43,230.1,538.4,235.6Z"/><path class="cls-9" d="M538.35,231.83q-36.88,2.25-73.77,3,4-6.08,8-12.15,28.95-.59,57.9-2Q534.39,226.32,538.35,231.83Z"/><path class="cls-9" d="M538.3,228.06q-36.82,2.12-73.64,2.83,4-6.08,8-12.14,28.89-.55,57.8-1.82Q534.35,222.54,538.3,228.06Z"/><path class="cls-9" d="M538.25,224.29q-36.75,2-73.5,2.66,4-6.07,8-12.13,28.84-.51,57.69-1.68Q534.3,218.76,538.25,224.29Z"/><path class="cls-9" d="M464.75,227q4-6.07,8-12.13,28.84-.51,57.69-1.68"/><path class="cls-9" d="M486.86,225.7l-.15,13.69q12.93-.45,25.85-1.1,0-6.56,0-13.13-.91-5.52-1.81-11-9.92.33-19.84.58Q488.89,220.19,486.86,225.7Z"/><path class="cls-6" d="M487.64,225.68q13-.38,26-.92"/><path class="cls-16" d="M539.69,217.22c-1.49-.82-2.42-2.78-3.21-4.22a10.08,10.08,0,0,1-1.2-2.38c-.29-1.39-.33-1.11.61-2.46a21,21,0,0,0,3.56-13.07c-.21-8-5.54-14-5.69-22.07q-25.35,2.71-50.82,5.52c-1.21.13-5.86-.19-6.81.74-.48.47-.54,4.41-.78,5.27C474.1,189,471.17,192.23,471,197a19.87,19.87,0,0,0,1,7.1c.35,1.06.78,1.55.44,2.45-.28.75-1.55,1.72-2.07,2.36-2.3,2.84-2.92,4.59.62,6.09a12.38,12.38,0,0,0,5.43.9,20.54,20.54,0,0,0,3-.58c.37-.08.91-.52,1.26-.51.68,0,1.73.93,2.36,1.2a46.21,46.21,0,0,0,11.07,3,69.7,69.7,0,0,0,14.78.91,55.8,55.8,0,0,0,7.88-.91c1.28-.24,2.55-.54,3.8-.89,1-.29,2.63-1.27,3.63-1.22,1.37.06,3.13,1.15,4.61,1.35a32.34,32.34,0,0,0,5.56.23c.6,0,6-.87,5.31-1.27Z"/><path class="cls-16" d="M475.6,167s-10.4,13.45,3.84,12.13,15.56.91,21.79,1.74c13,1.69,19.31-7.79,24.39-6.64s12.31,6.95,13.51,3-4-6.4-4-6.4,4.5-5.38.71-7.39-15.81-10.77-52.62-1.07Z"/><path class="cls-9" d="M478.3,168.26c-.11.14,28.49,13.87,53.47-3.3"/><path class="cls-9" d="M480.39,167.84s5.12-3.22,11.4-11.1,12.22-8.91,30.76,4.41a43.09,43.09,0,0,0,6.51,3.81"/><path class="cls-17" d="M527.34,177.39c0,.06,8.74,21.68,3.71,32.46"/><path class="cls-17" d="M531.42,181s-1.12,4.86-4,7.76"/><path class="cls-17" d="M523.71,181.82a13.46,13.46,0,0,1,8.75,5.62"/><path class="cls-17" d="M534.34,196.55s-2.18,5.17-4.95,6.48"/><path class="cls-17" d="M528.18,196.71a10.84,10.84,0,0,1,6.22,5.48"/><path class="cls-9" d="M513.36,161.93c5.16-5.72,2.81-10.84,2.82-10.84l8.18-8.91c-1.32-4.63-6.56-5-6.56-5,0,2.3-5.61,10.39-9.22,12.28s-7.25,9.94-7.25,9.94"/><path class="cls-6" d="M509.61,151s5.17,2.71-1.43,10.9"/><path class="cls-6" d="M504.26,164.37a8.91,8.91,0,0,1,9.09-1.94c2.63.27,3.53-.84,4.08-2.29"/><path class="cls-6" d="M507.53,160.71s-4.13-2.81-10.35,0"/><path class="cls-10" d="M566,219.64c-.06-.67-.89-1.14-2.53-1.44a.87.87,0,0,0,.08-.37l-.07-2.75h0c-.21-2.27-9.76-1.84-10.86-1.79s-10.65.59-10.76,2.94h0l0,2.81c0,.76,1,1.31,2.48,1.68a.89.89,0,0,0,0,.2h0l0,2.8c-1.57.5-2.36,1.07-2.38,1.75h0l0,2.82c0,.53.5,1,1.29,1.28a.93.93,0,0,0-.05.25h0l0,2.81c0,1.34,3.06,2,6.44,2.11h.09c.65,0,1.31,0,2,0h.06c.83,0,1.64,0,2.41-.1s1.58-.14,2.4-.25h.06c.65-.09,1.31-.19,2-.32h0l.07,0c3.35-.64,6.36-1.69,6.33-3l-.07-2.75h0c0-.48-.47-.85-1.31-1.13a.87.87,0,0,0,.07-.36l-.07-2.57c1.43-.53,2.38-1.18,2.37-1.91l-.08-2.74Zm-3.06,7.41-.13.13a3.85,3.85,0,0,1-1,.61l0-1.88a6.4,6.4,0,0,0,1.2-.63l0,1.63a.26.26,0,0,1,0,.13Zm-9,2.46-.18,0-.44,0,0-2,.33,0h.06l1.21-.12,0,2-.26,0-.74.07Zm-1.76.12-.55,0h-.07l-.65,0,0-2,1.21,0h.07l.33,0,0,2h-.34Zm-7.3-.44h0l0-1.94c.38.08.78.15,1.21.2l0,2c-.37-.05-.71-.12-1-.18l-.15,0Zm8.57,2.74.33,0,0,2q-.84.05-1.62.07l0-2,1.22,0Zm1.54-.11,1.22-.13,0,2c-.52.06-1.06.12-1.61.17l0-2,.33,0Zm3.23-.41,0,2-1.21.19,0-2,1.21-.18Zm.81-.14,1.21-.26,0,1.94-1.21.27Zm2-.46c.43-.11.83-.23,1.2-.36l0,1.9c-.36.13-.76.26-1.2.38Zm-13.72,1,0,2c-.45-.06-.86-.14-1.22-.22l0-1.93c.38.08.79.14,1.21.2Zm.81.09,1.21.09,0,2-1.21-.1Zm2,.12h1.21l0,2-1.21,0Zm-1-2.32h-.21l0-2,1.21,0,0,2-1,0Zm-1.05-2,0,2-1.21-.11,0-2q.59.06,1.21.09Zm8,1.63-.27,0,0-2,1.21-.18,0,2-.76.12-.18,0Zm1.74-.3,0-2,1.21-.25,0,1.94c-.38.09-.78.18-1.21.27Zm2-2.4c.43-.11.83-.23,1.2-.35l0,1.9q-.54.19-1.2.38Zm-5.54-1.45-.89,0h0l0-2,1.21,0h.06l.33,0,0,2-.58,0ZM544.71,220l0-1.94c.38.08.78.15,1.21.21l0,2-.15,0-.62-.12-.43-.09Zm7.27-1.47h.33l0,2c-.54,0-1.08,0-1.61,0l0-2,1.21,0Zm1.53-.09,1.21-.11,0,2-.2,0h0l-.82.07h-.13l-.44,0,0-2,.33,0Zm9.14-.33h0l-.14.12a4.17,4.17,0,0,1-.94.54l0-1.87a6.2,6.2,0,0,0,1.19-.61l0,1.63a.32.32,0,0,1-.09.2Zm-5.09,1.8,0-2,1.2-.24,0,1.94-1.2.25Zm2-.45,0-1.92q.64-.16,1.2-.34l0,1.9c-.36.12-.76.25-1.2.37ZM556.72,218l0,2-1.2.18,0-2,1.2-.17Zm-8,2.43,0-2,1.2,0,0,2-1.21,0Zm-.84-2,0,2-.24,0h-.15l-.68-.07-.13,0,0-2,1.21.1Zm4.45,6.7h-.16l-.76,0h-.19l0-2,1.21,0,0,2Zm-2.66-.13-.46-.05,0-2,1.21.1,0,2-.72-.06Zm-1.3-2.1,0,1.95c-.45-.07-.85-.15-1.21-.23l0-1.93c.38.08.78.15,1.21.21Zm-2-.41,0,1.9a2.36,2.36,0,0,1-1.18-.64l0,0v0l0-1.66a5.77,5.77,0,0,0,1.22.48ZM556,223l1.21-.11,0,2c-.53.06-1.06.11-1.61.15l0-2,.33,0Zm5.23,1.18-.53.12-.32.07-.31.06,0-1.95,1.2-.24,0,1.93Zm-2.71.52-.46.06,0-2,1.2-.17,0,2-.71.12Zm4.58-1-.62.2-.3.09-.1,0,0-1.92c.43-.11.82-.23,1.2-.35l0,1.9-.18.06Zm2.08-4c0,.27-.64.66-1.73,1.07a28.05,28.05,0,0,1-6.44,1.35l-.43,0-.36,0-1,.07-1,.05h-.8a26.27,26.27,0,0,1-6.48-.58c-1.1-.27-1.72-.6-1.77-.87v0h.08l.48.08c.8.13,1.69.22,2.63.27h0c.64,0,1.31.05,2,.06h0l1.5,0,.91,0,.64,0a31.55,31.55,0,0,0,7.48-1.37l.25-.09.15-.05.42-.17.07,0,.32-.15.09,0,.32-.17.12-.08.14-.09.08-.05c1.81.27,2.29.66,2.34.82Zm-12.57-5.63c6.6-.34,10,.49,10,1.07,0,.27-.65.66-1.73,1.05a27.59,27.59,0,0,1-6.43,1.32l-.43,0-.36,0-1,.07-1,0h-.8a26.08,26.08,0,0,1-6.47-.62c-1.09-.28-1.71-.61-1.77-.88.05-.6,3.38-1.8,10-2.13ZM542.68,219l0-1.66a5.58,5.58,0,0,0,1.21.49l0,1.92c-.78-.25-1.21-.52-1.22-.75Zm2,5.45,0,0a6.52,6.52,0,0,0,3.13,1.13l.1,0,.32,0a30.47,30.47,0,0,0,4.57.29h0c.55,0,1.1,0,1.67,0l.74,0,.85-.07c.53,0,1-.1,1.56-.16h0a32.24,32.24,0,0,0,4.63-.89,7.88,7.88,0,0,1-1.18.53,28.66,28.66,0,0,1-6.93,1.43l-.27,0-.3,0-.77.06-1,.05h-.8a26.25,26.25,0,0,1-6.5-.56c-1.11-.27-1.74-.6-1.78-.87s.44-.56,1.93-1Zm-1.89,3.79,0-1.66a5.63,5.63,0,0,0,1.22.48l0,1.91-.23-.07h0c-.64-.22-1-.46-1-.66Zm1.28,4.34,0-1.66a5.76,5.76,0,0,0,1.22.48l0,1.92c-.79-.24-1.22-.51-1.22-.73Zm19-.54,0-1.88a6.54,6.54,0,0,0,1.19-.63l0,1.62c0,.22-.41.54-1.19.89Zm1.11-3.6c0,.27-.65.67-1.74,1.08a28.22,28.22,0,0,1-6.47,1.42l-.44,0-.36,0-1,.08-1,.06-.36,0h-.44a26.22,26.22,0,0,1-6.51-.53c-1.07-.26-1.7-.57-1.78-.83l.37.1h0l.34.07.13,0,.2,0a28.59,28.59,0,0,0,5.38.41h0c.63,0,1.27,0,1.91-.06l.51,0,.68-.05c.59-.05,1.17-.11,1.74-.18h0q1-.14,2-.31h0c.71-.13,1.39-.28,2-.44l.38-.1.08,0a11.54,11.54,0,0,0,2.91-1.14l.11-.07L563,228l.12-.08c.8.22,1,.45,1.06.55Zm-.13-5.13,0-1.88a6.28,6.28,0,0,0,1.19-.62l0,1.62c0,.22-.41.54-1.18.87Zm-1.46-.22"/><path class="cls-5" d="M563.77,205.27a13.1,13.1,0,0,0-3.2-1.27c.05-.12-.7-.07-.7-.2l-.06-2.39,1.54-.06c-.19-2-9.34-1.93-10.39-1.9s-10.19.62-10.3,2.68l.85,0,0,2.43c0,.74.53,1.16,1.94,1.54,0,.06-.46.08-.46.08l-.43,0,0,3c0,.39-1.82,1.22-1.86,1.22l.86,0,0,3.13c0,.51.06,1.69.82,2,0,.08-.46,1-.47,1l.72,0,0,1.23c0,1.29,2.57,2,5.79,2.15l-.11,0h-.07c.62,0,1.08.06,1.71.07H550c1,0,1.69,0,2.42-.07s1.57-.11,2.36-.21h.1c.62-.08,1.26-.17,1.88-.27h-.24c3.21-.56,5.76-1.5,5.72-2.76l0-1.2.66,0c-.08-2-1.25-1.51-2.05-1.79,0-.11-.73-.91-.73-1l-.06-2.49c2-.52,3-1.13,3-1.85l-.08-2.91Z"/><path class="cls-10" d="M564.51,206.39c-.06-.67-.88-1.15-2.52-1.48a.88.88,0,0,0,.08-.37l-.07-2.75h0c-.2-2.28-9.69-2-10.78-2s-10.58.43-10.69,2.78h0l0,2.82c0,.76,1,1.33,2.46,1.71a.94.94,0,0,0,0,.2h0l0,2.81c-1.56.48-2.34,1-2.37,1.72h0l0,2.82c0,.53.49,1,1.28,1.3a.94.94,0,0,0-.05.25h0l0,2.82c0,1.34,3,2,6.39,2.2h.09c.65,0,1.3.05,2,.06h.06c.82,0,1.63,0,2.39-.07s1.57-.12,2.39-.22h.06c.65-.08,1.3-.17,1.94-.29h0l.07,0c3.33-.59,6.32-1.59,6.29-2.89l-.07-2.75h0c0-.48-.47-.86-1.3-1.15a.87.87,0,0,0,.07-.36l-.07-2.57c1.42-.51,2.37-1.14,2.35-1.88l-.07-2.75Zm-3,7.37-.13.12a3.74,3.74,0,0,1-1,.6l0-1.88a6.23,6.23,0,0,0,1.19-.61l0,1.63a.26.26,0,0,1,0,.13Zm-8.91,2.32h-.18l-.43,0,0-2,.33,0h.06l1.21-.1,0,2-.26,0-.73.06Zm-1.75.1-.55,0h-.72l0-2,1.21,0h.39l0,2h-.34Zm-7.25-.55h0l0-1.94c.37.08.78.16,1.2.22l0,2c-.37-.06-.71-.13-1-.19l-.15,0Zm8.51,2.87h.33l0,2q-.83,0-1.61,0l0-2,1.21,0Zm1.53-.09,1.21-.11,0,2c-.51.06-1,.1-1.6.14l0-2,.33,0Zm3.21-.36,0,2-1.2.18,0-2,1.2-.16Zm.8-.13,1.2-.24,0,1.94-1.2.25Zm2-.43c.42-.11.82-.22,1.19-.34l0,1.9c-.35.12-.76.25-1.2.37Zm-13.63.75,0,2c-.44-.07-.85-.15-1.21-.23l0-1.94c.38.08.78.15,1.21.21Zm.81.1q.58.07,1.21.11l0,2-1.21-.12Zm2,.15,1.2,0,0,2-1.21,0Zm-1-2.34h-.21l0-2,1.2,0,0,2-1,0Zm-1-2,0,2-1.2-.12,0-2,1.2.11Zm7.92,1.75-.27,0,0-2,1.2-.16,0,2-.76.11-.17,0Zm1.73-.27,0-2,1.2-.23,0,1.94c-.38.09-.78.17-1.2.25Zm1.95-2.37c.42-.1.82-.22,1.2-.34l0,1.91q-.53.18-1.2.36Zm-5.51-1.53h-.93l0-2,1.21,0h.39l0,2-.58,0Zm-9.42-5.3,0-1.94c.37.09.77.16,1.2.23l0,2-.15,0-.62-.12-.43-.1Zm7.22-1.37h.33l0,2c-.54,0-1.07,0-1.6,0l0-2h1.27Zm1.52-.06,1.2-.09,0,2-.2,0h0l-.82.06h-.13l-.43,0,0-2,.33,0Zm9.08-.19h0l-.14.12a4.06,4.06,0,0,1-.94.53l0-1.88a6.07,6.07,0,0,0,1.18-.59l0,1.63a.32.32,0,0,1-.09.2Zm-5.06,1.72,0-2,1.19-.22,0,1.94-1.19.24Zm2-.42,0-1.93q.63-.15,1.19-.32l0,1.9c-.36.12-.76.23-1.19.35Zm-2.82-1.41,0,2-1.2.16,0-2,1.19-.15ZM547.36,207l0-2,1.2.05,0,2-1.2-.05Zm-.84-2,0,2-.24,0-.15,0-.68-.08-.13,0,0-2,1.2.12Zm4.42,6.77h-.16l-.75,0h-.19l0-2,1.2,0,0,2Zm-2.65-.17-.46-.06,0-2,1.2.11,0,2-.72-.07Zm-1.3-2.13,0,1.95c-.45-.08-.85-.16-1.21-.25l0-1.93c.38.09.78.16,1.2.23Zm-2-.44,0,1.9a2.38,2.38,0,0,1-1.18-.66l0,0v0l0-1.66a5.77,5.77,0,0,0,1.21.5Zm9.6.66,1.2-.1,0,2c-.52.05-1.06.09-1.6.12l0-2,.33,0Zm5.2,1.26-.53.11-.32.06-.31.05,0-2,1.19-.22,0,1.94Zm-2.7.47-.45.05,0-2,1.19-.15,0,2-.7.1Zm4.55-1-.62.19-.3.08-.1,0,0-1.92q.63-.16,1.19-.33l0,1.9-.17.06Zm2.07-3.93c0,.27-.63.65-1.72,1a27.49,27.49,0,0,1-6.4,1.25l-.43,0-.36,0-1,.06-1,0H552a26.12,26.12,0,0,1-6.44-.68c-1.09-.29-1.71-.63-1.76-.89v0l.08,0,.48.09c.8.14,1.68.24,2.61.31h0c.64,0,1.3.07,2,.09h1.51l.9,0,.64,0a31,31,0,0,0,7.43-1.25l.25-.09.15-.05.41-.16.07,0,.32-.15.09,0,.31-.17.12-.08.14-.09.08,0c1.79.3,2.28.69,2.33.85Zm-12.48-5.83c6.55-.24,9.89.65,10,1.23,0,.27-.64.65-1.72,1a27.08,27.08,0,0,1-6.38,1.22l-.43,0-.36,0-1,.05-1,0h-.79a25.92,25.92,0,0,1-6.42-.72c-1.09-.3-1.7-.64-1.75-.91.05-.6,3.35-1.75,9.91-2Zm-9.87,4.77,0-1.67a5.6,5.6,0,0,0,1.2.51l0,1.92c-.78-.26-1.2-.54-1.21-.77Zm2,5.48,0,0a6.54,6.54,0,0,0,3.11,1.18l.1,0,.32.05a30.25,30.25,0,0,0,4.54.36h0c.54,0,1.1,0,1.66,0l.74,0,.85-.05c.52,0,1-.08,1.55-.14h0a31.63,31.63,0,0,0,4.6-.82,7.65,7.65,0,0,1-1.17.52,28.11,28.11,0,0,1-6.89,1.33l-.27,0-.3,0-.76,0-1,0h-.8a26.08,26.08,0,0,1-6.45-.66c-1.1-.29-1.72-.63-1.76-.9s.44-.55,1.92-1Zm-1.88,3.77,0-1.67a5.64,5.64,0,0,0,1.21.5l0,1.91-.23-.08h0c-.63-.23-1-.47-1-.67Zm1.27,4.36,0-1.66a5.77,5.77,0,0,0,1.21.49l0,1.92c-.78-.25-1.21-.52-1.22-.75Zm18.87-.25,0-1.88a6.33,6.33,0,0,0,1.19-.61l0,1.63c0,.22-.41.54-1.18.87Zm1.11-3.59c0,.27-.64.66-1.73,1.05a27.65,27.65,0,0,1-6.43,1.32l-.43,0-.36,0-1,.07-1,0H551a26,26,0,0,1-6.47-.62c-1.07-.27-1.68-.59-1.76-.86l.37.1h0l.33.08.13,0,.2,0a28.35,28.35,0,0,0,5.35.49h0c.62,0,1.26,0,1.9,0l.51,0,.67,0c.58,0,1.16-.09,1.72-.16h0c.69-.08,1.35-.17,2-.28h0c.71-.12,1.38-.26,2-.41l.38-.09.08,0a11.24,11.24,0,0,0,2.89-1.1l.11-.07.13-.09.12-.08c.8.23,1,.47,1,.57Zm-.13-5.14,0-1.88a6.1,6.1,0,0,0,1.18-.6l0,1.63c0,.22-.41.53-1.18.86Zm-1.08-.23"/><path class="cls-5" d="M455.51,224.52c0-1.08-.65-1.14-2.12-1.52.05-.12.19-.22.19-.34l0-1.36h-.21c-.08-2.16-8.76-2.23-9.76-2.23s-9.69.19-9.9,2.35h-.61l0,1.37c0,.73,1.15,1.28,2.47,1.71,0,.06.27.17.27.17h.27l-.09,2.74c-2.07.4-2.53,2.69-2.56,2.69h-.61l-.06,1.57a2.88,2.88,0,0,0,1.39,1.91,6,6,0,0,0,.22.85h-.68l-.05,1.47c0,1.28,3,2.07,6.06,2.42H440c.59.07,1.23.12,1.82.15h.09c.75,0,1.5.06,2.19.05s1.44,0,2.19-.09h.06c.59,0,1.19-.11,1.79-.18h.15c3.07-.41,5.91-1.24,5.94-2.52l0-1.47h-.14c0-1.08-.27-1.48-1-1.79a6.81,6.81,0,0,0,.2-1l.07-2.52a1.54,1.54,0,0,0,1.07-1.73l.07-2.74Z"/><path class="cls-10" d="M455.5,225.28c0-.66-.75-1.16-2.22-1.54a.91.91,0,0,0,.09-.36l.07-2.69h0c-.07-2.24-8.76-2.23-9.76-2.23s-9.69.11-9.9,2.35h0l-.1,2.7c0,.73.85,1.31,2.17,1.73a.93.93,0,0,0,0,.19h0l-.09,2.7c-1.45.4-2.19.91-2.24,1.55h0l-.1,2.7c0,.51.4.94,1.11,1.3a1,1,0,0,0-.06.24h0l-.09,2.7c0,1.28,2.68,2.07,5.73,2.42h.09c.59.07,1.19.12,1.78.15h.06c.75,0,1.49.06,2.18.05s1.43,0,2.19-.09h.06c.59,0,1.19-.11,1.79-.18h.09c3.07-.41,5.84-1.24,5.88-2.52l.07-2.69h0c0-.47-.39-.86-1.13-1.18a.9.9,0,0,0,.08-.35l.07-2.52c1.32-.44,2.22-1,2.24-1.75l.07-2.69Zm-3.15,7.09-.13.12a3.4,3.4,0,0,1-1,.54l0-1.83a5.58,5.58,0,0,0,1.11-.54l0,1.59a.26.26,0,0,1,0,.13Zm-8.25,1.87h-.56l.06-1.93H444l1.11,0L445,234.2l-.24,0-.67,0Zm-1.6,0h-.56l-.59,0,.06-1.92,1.1,0h.36l-.06,1.93h-.31Zm-6.59-.84h0l.06-1.86c.34.1.7.18,1.09.26l-.06,1.88c-.33-.07-.64-.15-.92-.23l-.13,0Zm7.62,3.15h.3l-.06,1.93q-.76,0-1.47,0l.06-1.93,1.11,0Zm1.4,0,1.11,0-.06,1.92c-.47,0-1,.05-1.47.06l.06-1.93h.36Zm2.95-.2-.05,1.91-1.1.11.06-1.92,1.1-.1Zm.74-.09,1.1-.18-.05,1.89-1.11.19Zm1.84-.32c.39-.09.76-.18,1.11-.28l-.05,1.86c-.33.1-.7.21-1.11.3ZM438,236l-.06,1.88c-.4-.09-.77-.18-1.09-.28l.06-1.86c.34.09.7.18,1.09.26Zm.73.13,1.09.16-.06,1.91-1.09-.17Zm1.83.24,1.1.09-.06,1.92-1.1-.09Zm-.83-2.3h-.19l.06-1.92,1.09.09-.06,1.92-.91-.08Zm-.86-2-.06,1.91-1.09-.17.06-1.89,1.09.16Zm7.14,2-.25,0,.06-1.92,1.1-.1-.06,1.91-.7.08Zm1.59-.19.06-1.91,1.1-.18-.05,1.89-1.11.19Zm1.89-2.23c.39-.08.76-.18,1.11-.28l-.05,1.86q-.5.16-1.11.3Zm-5-1.71-.81,0h0l.06-1.93,1.1,0h.36l-.06,1.93h-.61Zm-8.34-5.46.06-1.86c.34.1.7.18,1.08.26l-.06,1.88-.13,0-.56-.14-.39-.11Zm6.66-1.07h.3l-.06,1.93c-.49,0-1,0-1.46,0l.06-1.92,1.1,0Zm1.39,0,1.1,0-.06,1.92h-.2l-.75,0h-.51l.06-1.93h.36Zm8.31.12h0l-.14.11a3.7,3.7,0,0,1-.88.48l0-1.83a5.49,5.49,0,0,0,1.11-.54l0,1.59a.33.33,0,0,1-.09.19Zm-4.7,1.5.06-1.9L449,223l-.05,1.89-1.1.19Zm1.83-.34.05-1.88q.59-.13,1.1-.28l-.05,1.86c-.33.1-.7.2-1.1.3Zm-2.51-1.47-.06,1.91-1.1.11.06-1.92,1.1-.1Zm-7.36,2,.06-1.91,1.09.09-.06,1.92-1.09-.09Zm-.67-2-.06,1.91-.22,0-.14,0-.62-.1-.12,0,.06-1.89,1.09.16Zm3.71,6.7h-.15l-.68-.06h-.17l.06-1.91L443,228l-.06,1.92Zm-2.41-.27-.42-.07.06-1.89,1.09.16-.06,1.91-.65-.09Zm-1.08-2.1-.06,1.88c-.4-.09-.77-.19-1.09-.28l.06-1.86c.34.1.7.18,1.09.26Zm-1.81-.49-.06,1.83a2.14,2.14,0,0,1-1-.68l0,0v0l.05-1.6a5.08,5.08,0,0,0,1.08.53Zm8.73,1,1.1,0-.06,1.92c-.48,0-1,0-1.46.06l.06-1.92h.36ZM451,229.5l-.49.09-.29,0-.29,0,.05-1.9,1.1-.17-.05,1.89Zm-2.49.36-.42,0,.06-1.92,1.1-.1-.05,1.91-.64.07Zm4.2-.77-.58.16-.28.07-.09,0,.05-1.88c.39-.09.76-.18,1.1-.28l0,1.86-.16,0Zm2.08-3.77c0,.26-.61.62-1.62,1a23.68,23.68,0,0,1-5.91,1l-.4,0h-.33l-.93,0h-1.65a22.67,22.67,0,0,1-5.85-.89c-1-.32-1.53-.66-1.57-.92v0l.08,0,.43.1a23.2,23.2,0,0,0,2.37.39h0c.58.07,1.18.12,1.8.15h0l1.36.05H444a26.69,26.69,0,0,0,6.85-1l.23-.08.14,0,.38-.14.06,0,.3-.13.08,0,.29-.15.12-.07.13-.08.07,0c1.62.35,2,.76,2.08.92Zm-11.12-6.08c6,0,9,.92,9.05,1.5-.05.26-.62.61-1.62.95a23.42,23.42,0,0,1-5.89,1l-.4,0h-.33l-.92,0h-1.65a22.53,22.53,0,0,1-5.84-.9c-1-.32-1.53-.66-1.56-.93.08-.58,3.15-1.58,9.15-1.61Zm-9.25,4.28.06-1.6a5,5,0,0,0,1.07.53l-.06,1.85c-.7-.28-1.07-.56-1.07-.78Zm1.58,5.33,0,0a5.79,5.79,0,0,0,2.78,1.25l.09,0,.29.06a26.25,26.25,0,0,0,4.13.53h0c.5,0,1,0,1.52,0h.67l.78,0c.48,0,1,0,1.42-.07h0a27.12,27.12,0,0,0,4.24-.61,6.79,6.79,0,0,1-1.09.46,24.18,24.18,0,0,1-6.35,1h-2.87a22.73,22.73,0,0,1-5.86-.9c-1-.32-1.54-.67-1.57-.93s.43-.51,1.8-.86Zm-1.89,3.54.06-1.6a5,5,0,0,0,1.08.53l-.06,1.84-.21-.08h0c-.57-.25-.87-.49-.86-.69Zm1,4.24.06-1.6a5.14,5.14,0,0,0,1.08.53l-.06,1.85c-.7-.28-1.08-.56-1.07-.78Zm17.23.63,0-1.84a5.65,5.65,0,0,0,1.11-.55l0,1.59c0,.22-.4.51-1.12.8Zm1.19-3.46c0,.26-.62.61-1.63,1a23.7,23.7,0,0,1-5.93,1l-.4,0h-.33l-.93,0h-1.66a22.69,22.69,0,0,1-5.87-.89c-1-.31-1.51-.64-1.57-.9l.33.12h0l.3.09.12,0,.18,0A24.72,24.72,0,0,0,441,235h0c.57,0,1.15,0,1.73.05h1.08c.54,0,1.06,0,1.58-.08h0q.94-.07,1.83-.19h0c.65-.09,1.27-.19,1.85-.31l.35-.07.08,0a9.84,9.84,0,0,0,2.69-.94l.1-.06.12-.08.11-.07c.72.26.91.5.93.6Zm.14-5,0-1.84a5.5,5.5,0,0,0,1.11-.54l0,1.59c0,.22-.4.5-1.12.79Zm1.58-4.73"/><ellipse class="cls-10" cx="491.43" cy="163.98" rx="0.38" ry="0.35" transform="translate(326.81 655.19) rotate(-89.93)"/><ellipse class="cls-10" cx="494.4" cy="165.04" rx="0.35" ry="0.38"/><ellipse class="cls-10" cx="492.4" cy="166.1" rx="0.35" ry="0.38"/><ellipse class="cls-10" cx="490.41" cy="166.1" rx="0.35" ry="0.38"/><ellipse class="cls-10" cx="491.39" cy="168.23" rx="0.35" ry="0.38"/><ellipse class="cls-10" cx="494.38" cy="167.17" rx="0.35" ry="0.38"/><ellipse class="cls-10" cx="493.37" cy="169.29" rx="0.35" ry="0.38" transform="translate(-0.28 0.81) rotate(-0.09)"/><ellipse class="cls-10" cx="496.36" cy="169.29" rx="0.35" ry="0.38" transform="translate(-0.29 0.85) rotate(-0.1)"/><ellipse class="cls-10" cx="497.38" cy="166.11" rx="0.35" ry="0.38"/><ellipse class="cls-10" cx="497.39" cy="163.98" rx="0.38" ry="0.35" transform="matrix(0, -1, 1, 0, 332.72, 661.15)"/><ellipse class="cls-10" cx="494.43" cy="161.86" rx="0.38" ry="0.35" transform="translate(331.33 655.87) rotate(-89.86)"/><ellipse class="cls-10" cx="487.4" cy="168.24" rx="0.35" ry="0.38"/><ellipse class="cls-10" cx="489.39" cy="168.23" rx="0.35" ry="0.38"/><ellipse class="cls-10" cx="498.36" cy="168.22" rx="0.35" ry="0.38" transform="translate(-0.19 0.56) rotate(-0.06)"/><ellipse class="cls-10" cx="500.35" cy="170.34" rx="0.35" ry="0.38" transform="translate(-0.42 1.23) rotate(-0.14)"/><ellipse class="cls-10" cx="500.36" cy="167.16" rx="0.35" ry="0.38"/><path class="cls-18" d="M91.2,117.05c-5,34.79-14,55.44-22,89.91-1.52,9,1.58,17.75,7.67,24.38L115.92,86.42A35.12,35.12,0,0,0,91.2,117.05Z"/><polygon class="cls-18" points="359.21 256.37 359.21 256.37 365.5 233.01 359.21 256.37"/><path class="cls-19" d="M500.43,85.08l-45.71,169.6q18.08-.65,36-1.53l45.3-168.07Z"/><path class="cls-18" d="M633.49,133,603.36,244.77q9.49-.94,18.9-2c19.4-2.34,33.43-18.63,30.51-35.85C646.06,178.09,638.64,158.91,633.49,133Z"/><path class="cls-20" d="M597.9,85.08a33,33,0,0,0-9.32,1.34L549.52,231.35a35.55,35.55,0,0,0,10.55,7.84L601.61,85.08Z"/><polygon class="cls-18" points="359.21 256.37 359.21 256.37 365.5 233.01 359.21 256.37"/><path class="cls-21" d="M287.22,110.25s76.36,76.25,151.56,84.37"/><path class="cls-21" d="M348.54,130.45s43.43,38.27,96.95,45.39"/><path class="cls-10" d="M127.07,291c2.93-2.42,4.58-3.88,4.71-5.31a1.58,1.58,0,0,0-1.53-1.9,2.63,2.63,0,0,0-2,.9l-.59-.72a3.51,3.51,0,0,1,2.82-1.1,2.48,2.48,0,0,1,2.42,2.87c-.16,1.67-1.83,3.19-4.14,5.2.49,0,1,0,1.5.06l2.58.24-.09,1-5.75-.53Z"/><path class="cls-10" d="M134,291.61c2.92-2.42,4.57-3.89,4.7-5.33a1.58,1.58,0,0,0-1.53-1.9,2.63,2.63,0,0,0-2,.9l-.6-.71a3.51,3.51,0,0,1,2.81-1.11,2.48,2.48,0,0,1,2.43,2.86c-.15,1.67-1.82,3.2-4.12,5.21.49,0,1,0,1.5.05l2.58.23-.09,1-5.75-.52Z"/><path class="cls-10" d="M145.09,284.06l1.17.1-.7,8.16,4,.34-.08,1-5.16-.44Z"/><path class="cls-10" d="M155.13,289.8c.07-.86-.15-1.73-1.26-1.82a3.66,3.66,0,0,0-2.08.56l-.4-.83a5,5,0,0,1,2.74-.66c1.66.14,2.27,1.29,2.13,3l-.34,4.16-.95-.08,0-.82h0a3.7,3.7,0,0,1-2.33.79,1.85,1.85,0,0,1-1.84-2.09C150.88,290.51,152.22,289.88,155.13,289.8ZM153,293.19a2.79,2.79,0,0,0,1.93-.75l.15-1.88c-2.3.09-3.11.59-3.18,1.45A1,1,0,0,0,153,293.19Z"/><path class="cls-10" d="M158.87,284.42l1.13.09-.53,6.73h0l3.17-3.35,1.27.1-2.49,2.54,2.26,4.27-1.26-.1-1.73-3.42-1.39,1.38-.14,1.79-1.13-.09Z"/><path class="cls-10" d="M165.74,285l1.15.09-.2,2.71-.15,1.39a3.25,3.25,0,0,1,2.35-.95c1.42.11,2,1.08,1.87,2.81l-.32,4.3-1.15-.09.31-4.15c.1-1.27-.25-1.84-1.15-1.91a2.6,2.6,0,0,0-1.94.91l-.37,4.91L165,294.9Z"/><path class="cls-10" d="M172.52,293.92a3.06,3.06,0,0,0,1.94,1c.89.06,1.37-.38,1.42-1s-.74-1.06-1.46-1.4c-.94-.42-2-1-1.88-2.1s1-1.86,2.47-1.76a3.4,3.4,0,0,1,2.05.92l-.6.69a2.53,2.53,0,0,0-1.51-.71c-.85-.06-1.28.37-1.31.89s.68.93,1.42,1.28c1,.43,2,.92,1.92,2.2-.08,1.1-1,2-2.63,1.85a4.09,4.09,0,0,1-2.46-1.12Z"/><path class="cls-10" d="M181.94,286.93l5.28.36-.07,1L183,288l-.19,2.88,3.46.23-.07,1-3.46-.23-.23,3.32,4.24.29-.07,1-5.42-.37Z"/><path class="cls-10" d="M189,289.78l1,.06,0,1h0a3,3,0,0,1,2.18-1,1.79,1.79,0,0,1,1.79,1.42,3.21,3.21,0,0,1,2.32-1.16c1.4.09,2,1.05,1.9,2.78l-.27,4.3-1.15-.07.26-4.15c.08-1.27-.29-1.84-1.14-1.9a2.5,2.5,0,0,0-1.77.94l-.31,4.92-1.15-.07.26-4.15c.08-1.27-.29-1.84-1.16-1.9a2.55,2.55,0,0,0-1.77.94l-.31,4.92-1.15-.07Z"/><path class="cls-10" d="M201.24,297.93l-.13,2.29-1.15-.07.56-9.66,1,.06.05.79h0a3.52,3.52,0,0,1,2.22-.83c1.75.1,2.6,1.51,2.48,3.62-.13,2.31-1.6,3.58-3.15,3.49a3.15,3.15,0,0,1-1.84-.89Zm1.74-1.27c1.12.06,2-.91,2.1-2.58.09-1.5-.36-2.53-1.64-2.61a2.86,2.86,0,0,0-1.87.82l-.21,3.56A2.69,2.69,0,0,0,203,296.65Z"/><path class="cls-10" d="M208.4,287.77l1.15.06-.47,8.67c0,.36.13.51.29.52a1,1,0,0,0,.25,0l.11.88a1.55,1.55,0,0,1-.66.08c-.87,0-1.19-.61-1.13-1.6Z"/><path class="cls-10" d="M214.4,291.09c1.66.09,3.08,1.46,3,3.74a3.17,3.17,0,1,1-6.29-.32C211.19,292.23,212.74,291,214.4,291.09Zm-.32,6.18c1.17.06,2-.95,2.09-2.5s-.65-2.67-1.82-2.73-2,1-2.09,2.53S212.93,297.21,214.09,297.27Z"/><path class="cls-10" d="M218.88,300.28c.77,0,1.29-.55,1.61-1.38l.18-.5-2.4-6.94,1.19.06,1.2,3.83c.18.6.39,1.31.56,1.95h.06c.23-.61.45-1.3.67-1.89l1.4-3.7,1.12.05L221.55,299c-.54,1.32-1.29,2.31-2.66,2.24a2.25,2.25,0,0,1-.79-.18l.27-.9A2,2,0,0,0,218.88,300.28Z"/><path class="cls-10" d="M225.75,291.82l1,0,.06,1h0a3,3,0,0,1,2.16-1.06,1.79,1.79,0,0,1,1.82,1.38,3.21,3.21,0,0,1,2.29-1.21c1.4.06,2,1,2,2.75l-.18,4.31-1.15,0,.18-4.16c.05-1.27-.33-1.84-1.18-1.87a2.5,2.5,0,0,0-1.75,1l-.21,4.93-1.15,0,.18-4.16c.05-1.27-.33-1.84-1.2-1.87a2.55,2.55,0,0,0-1.75,1l-.21,4.93-1.15,0Z"/><path class="cls-10" d="M239.85,292.22c1.74.06,2.67,1.35,2.6,3.29a4.06,4.06,0,0,1-.06.63l-4.59-.17a2.27,2.27,0,0,0,2.18,2.48,3.08,3.08,0,0,0,1.71-.47l.38.77a4.05,4.05,0,0,1-2.26.62,3.6,3.6,0,0,1,.05-7.14Zm1.59,3.13c.05-1.39-.54-2.18-1.6-2.22a2.12,2.12,0,0,0-2,2.08Z"/><path class="cls-10" d="M244.19,292.54l1,0,.07,1h0a3.21,3.21,0,0,1,2.32-1.07c1.43,0,2,1,2,2.73l-.14,4.31-1.15,0,.14-4.16c0-1.27-.33-1.83-1.23-1.86a2.6,2.6,0,0,0-1.9,1l-.16,4.93-1.15,0Z"/><path class="cls-10" d="M252,293.73l-1,0,0-.87,1.07,0,.19-1.9,1,0-.05,1.9,1.83.05,0,.94-1.83-.05-.11,3.78c0,.84.23,1.32,1,1.34a2.47,2.47,0,0,0,.77-.16l.2.87a4.21,4.21,0,0,1-1.27.22c-1.46,0-1.92-1-1.88-2.32Z"/><path class="cls-10" d="M446.76,300.16l2,0-.12-6.58-1.62,0v-.74a5.31,5.31,0,0,0,1.88-.69l.88,0,.15,8,1.85,0,0,1-5,.09Z"/><path class="cls-10" d="M456.43,291.73l1.17,0,.12,4.6h0l3.7-4.7,1.33,0L460,295.14l3.46,5.59-1.3,0-2.87-4.7-1.52,1.9.08,2.91-1.17,0Z"/><path class="cls-10" d="M465.1,300.44v-.06a1.26,1.26,0,0,1-.64-1.09,1.59,1.59,0,0,1,.7-1.28V298a2.4,2.4,0,0,1,1.55-4.3,2.72,2.72,0,0,1,1,.14l2.36-.07,0,.88-1.4,0a2,2,0,0,1,.6,1.38,2.34,2.34,0,0,1-2.42,2.44,2.37,2.37,0,0,1-1-.21,1,1,0,0,0-.41.83c0,.43.3.73,1.23.7l1.31,0c1.58,0,2.39.42,2.43,1.55s-1.26,2.39-3.37,2.46c-1.67.05-2.83-.57-2.87-1.75A2,2,0,0,1,465.1,300.44Zm2.07,2.51c1.3,0,2.13-.74,2.11-1.45s-.52-.82-1.4-.8l-1.18,0a3.31,3.31,0,0,1-.88-.08,1.43,1.43,0,0,0-.67,1.17C465.18,302.55,465.93,303,467.17,303Zm1.06-6.92a1.45,1.45,0,1,0-2.88.09,1.45,1.45,0,1,0,2.88-.09Z"/><path class="cls-10" d="M479.59,300.19l-2.35-3.79-1.65.06.14,3.88-1.17,0-.34-9.18,2.88-.11c1.86-.07,3.23.55,3.3,2.46a2.52,2.52,0,0,1-2,2.68l2.49,3.92Zm-4-4.68,1.54-.06c1.43-.05,2.19-.67,2.14-1.86S478.38,292,477,292l-1.54.06Z"/><path class="cls-10" d="M482,291.13a.8.8,0,0,1,1.59-.07.8.8,0,0,1-1.59.07Zm.3,2.13,1.15,0,.28,6.8-1.15,0Z"/><path class="cls-10" d="M488.44,292.83a2.81,2.81,0,0,1,2,.72l-.54.77a2.06,2.06,0,0,0-1.4-.54c-1.23.06-2.08,1.16-2,2.73s1,2.56,2.21,2.51a2.43,2.43,0,0,0,1.56-.76l.55.73a3.37,3.37,0,0,1-2.17,1c-1.81.08-3.25-1.16-3.35-3.41A3.3,3.3,0,0,1,488.44,292.83Z"/><path class="cls-10" d="M494.26,292.57c1.73-.08,2.77,1.11,2.86,3.06a4,4,0,0,1,0,.63l-4.58.22a2.26,2.26,0,0,0,2.38,2.28,3.07,3.07,0,0,0,1.67-.61l.44.74a4.05,4.05,0,0,1-2.2.81,3.6,3.6,0,0,1-.55-7.12Zm1.85,3c-.07-1.38-.72-2.12-1.78-2.07a2.12,2.12,0,0,0-1.85,2.25Z"/><path class="cls-10" d="M504.38,290a1.91,1.91,0,0,0-.78-.13c-.64,0-.93.5-.88,1.36l.06,1.08,1.44-.08,0,.94-1.44.08.31,5.86-1.15.06-.31-5.86-.92,0,0-.87.92-.12-.06-1.08c-.07-1.38.51-2.28,1.86-2.36a3.09,3.09,0,0,1,1.14.16Z"/><path class="cls-10" d="M508,291.84c1.66-.09,3.22,1.12,3.35,3.4a3.17,3.17,0,1,1-6.29.36C504.91,293.32,506.32,291.94,508,291.84Zm.35,6.18c1.17-.07,1.9-1.16,1.81-2.71s-.93-2.58-2.11-2.52-1.9,1.17-1.81,2.74S507.17,298.08,508.33,298Z"/><path class="cls-10" d="M512.89,291.72l1-.06.17,1.22h0a2.33,2.33,0,0,1,1.84-1.52,1.69,1.69,0,0,1,.74.1l-.16,1a1.9,1.9,0,0,0-.66-.07c-.57,0-1.23.5-1.62,1.67l.27,4.36-1.15.07Z"/><path class="cls-10" d="M520.34,297.39c2.51-2.85,3.91-4.55,3.82-6a1.58,1.58,0,0,0-1.81-1.64,2.63,2.63,0,0,0-1.83,1.2l-.7-.61a3.51,3.51,0,0,1,2.61-1.53,2.48,2.48,0,0,1,2.84,2.45c.11,1.68-1.3,3.44-3.27,5.79.49-.07,1-.15,1.49-.18l2.59-.17.06,1-5.76.38Z"/><path class="cls-10" d="M527.53,295.79a3,3,0,0,0,2.32.86,1.93,1.93,0,0,0,1.81-2.18,1.79,1.79,0,0,0-2-1.82,2.51,2.51,0,0,0-1.48.65l-.64-.35v-4.31l4.45-.31.07,1-3.45.24-.05,2.66a2.74,2.74,0,0,1,1.34-.46,2.57,2.57,0,0,1,3,2.6A2.92,2.92,0,0,1,530,297.6a3.91,3.91,0,0,1-3-1Z"/><path class="cls-10" d="M540.56,287.27a3.4,3.4,0,0,1,2.59.94l-.6.79a2.46,2.46,0,0,0-1.89-.71c-1.75.13-2.79,1.65-2.62,3.92s1.39,3.67,3.14,3.54a2.68,2.68,0,0,0,2-1.18l.71.66a3.52,3.52,0,0,1-2.68,1.54c-2.3.18-4.16-1.45-4.38-4.44S538.21,287.45,540.56,287.27Z"/><path class="cls-10" d="M545,289.48l1-.08.2,1.22h0a2.33,2.33,0,0,1,1.81-1.55,1.7,1.7,0,0,1,.74.08l-.14,1a1.89,1.89,0,0,0-.67-.06c-.57,0-1.22.52-1.59,1.7l.35,4.36-1.15.09Z"/><path class="cls-10" d="M552.29,288.72c1.66-.14,3.25,1,3.44,3.31a3.17,3.17,0,1,1-6.28.53C549.26,290.28,550.63,288.86,552.29,288.72Zm.52,6.16c1.17-.1,1.86-1.21,1.73-2.76s-1-2.56-2.17-2.46-1.86,1.22-1.73,2.79S551.65,295,552.81,294.88Z"/><path class="cls-10" d="M557.18,288.46l.95-.08.21,1.22h0a2.33,2.33,0,0,1,1.8-1.56,1.68,1.68,0,0,1,.74.08l-.13,1a1.89,1.89,0,0,0-.67-.05c-.57.05-1.22.53-1.58,1.71l.39,4.35-1.14.1Z"/><path class="cls-10" d="M564.39,287.64c1.73-.16,2.82,1,3,2.93a4.08,4.08,0,0,1,0,.63l-4.58.42a2.27,2.27,0,0,0,2.48,2.18,3.08,3.08,0,0,0,1.64-.69l.47.72a4.05,4.05,0,0,1-2.17.9,3.6,3.6,0,0,1-.86-7.09Zm2,2.9c-.13-1.38-.81-2.09-1.87-2a2.12,2.12,0,0,0-1.75,2.33Z"/><path class="cls-10" d="M569.07,292.66a3.06,3.06,0,0,0,2.07.62c.89-.09,1.29-.6,1.24-1.19s-.91-.93-1.67-1.13c-1-.26-2.1-.61-2.21-1.76s.68-2,2.14-2.15a3.39,3.39,0,0,1,2.18.56l-.47.78a2.53,2.53,0,0,0-1.6-.45c-.85.08-1.2.58-1.15,1.09s.82.81,1.62,1c1,.27,2.14.57,2.26,1.85.11,1.1-.68,2.1-2.29,2.26a4.1,4.1,0,0,1-2.61-.69Z"/><path class="cls-10" d="M577.18,284.19l1.17-.12.92,9.14-1.17.12Z"/><path class="cls-10" d="M580.9,286.2l.95-.1.2,1h0a3.21,3.21,0,0,1,2.15-1.38c1.42-.15,2.16.7,2.34,2.43l.45,4.29-1.14.12-.43-4.14c-.13-1.27-.58-1.77-1.47-1.68-.7.07-1.13.49-1.74,1.24l.52,4.9-1.14.12Z"/><path class="cls-10" d="M590.93,285a2.81,2.81,0,0,1,2,.57l-.18-1.15-.29-2.6,1.16-.13,1.09,9.91-.95.1-.18-.78h0a3.07,3.07,0,0,1-1.94,1.18c-1.7.19-2.94-1-3.18-3.23S589.38,285.14,590.93,285Zm.78,6.12a2.3,2.3,0,0,0,1.62-1.12l-.39-3.53a2.37,2.37,0,0,0-1.72-.53c-1.09.12-1.83,1.26-1.67,2.8S590.53,291.22,591.71,291.09Z"/><path class="cls-10" d="M595.72,282.44a.8.8,0,0,1,1.59-.18.8.8,0,0,1-1.59.18Zm.45,2.1,1.14-.13.77,6.76-1.14.13Z"/><path class="cls-10" d="M603.69,286.19c-.1-.86-.49-1.66-1.59-1.53a3.66,3.66,0,0,0-1.93,1l-.55-.74a5,5,0,0,1,2.55-1.19c1.65-.19,2.48.82,2.68,2.5l.49,4.14-.95.11-.19-.79h0a3.7,3.7,0,0,1-2.12,1.24,1.85,1.85,0,0,1-2.21-1.69C599.66,287.73,600.85,286.85,603.69,286.19Zm-1.43,3.75a2.79,2.79,0,0,0,1.74-1.12l-.22-1.88c-2.23.54-2.93,1.19-2.83,2.05A1,1,0,0,0,602.25,289.94Z"/><path class="cls-10" d="M606.63,283.33l.95-.12.22,1h0a3.21,3.21,0,0,1,2.13-1.42c1.42-.17,2.17.67,2.38,2.39l.52,4.28-1.14.14-.5-4.13c-.15-1.26-.61-1.76-1.5-1.65-.7.08-1.12.5-1.72,1.27l.6,4.89-1.14.14Z"/><path class="cls-10" d="M614.68,287.64a3.06,3.06,0,0,0,2.09.55c.89-.11,1.27-.64,1.2-1.23s-.93-.9-1.7-1.08c-1-.23-2.12-.55-2.26-1.69s.62-2,2.07-2.21a3.4,3.4,0,0,1,2.19.5l-.45.79a2.53,2.53,0,0,0-1.62-.4c-.85.11-1.18.62-1.11,1.13s.85.78,1.65,1c1,.24,2.15.5,2.32,1.78.14,1.1-.62,2.13-2.22,2.33a4.1,4.1,0,0,1-2.63-.61Z"/></svg>