<svg id="Layer_1" data-name="Layer 1" xmlns="http://www.w3.org/2000/svg" viewBox="0 0 720 399"><defs><style>.cls-1,.cls-8,.cls-9{fill:none;}.cls-1,.cls-4,.cls-8,.cls-9{stroke:#3974aa;}.cls-1,.cls-4,.cls-5,.cls-8,.cls-9{stroke-miterlimit:10;}.cls-1,.cls-4,.cls-5{stroke-width:0.5px;}.cls-1,.cls-4{stroke-dasharray:4 7;}.cls-2{fill:#1e9b5a;}.cls-3{fill:#e5e5e5;}.cls-4,.cls-7{fill:#fff;}.cls-5{fill:#c4f0fa;stroke:#3975ab;}.cls-10,.cls-6{fill:#3974aa;}.cls-8,.cls-9{stroke-width:0.75px;}.cls-9{stroke-linecap:round;}.cls-10{font-size:11px;font-family:SourceSansPro-Regular, Source Sans Pro;}</style></defs><title>sixways-illustration</title><ellipse class="cls-1" cx="359.56" cy="199.05" rx="278.24" ry="102.75"/><path class="cls-2" d="M275.82,195.74c.19,0,.37,0,.56.05l.32-.12A5.26,5.26,0,0,1,275.82,195.74Z"/><ellipse class="cls-3" cx="359.56" cy="214.33" rx="58.43" ry="3.78"/><path class="cls-2" d="M359.35,128.36h.17c.33,0,.66-.05,1-.08a11.93,11.93,0,0,1-1.91-.24l.87.39Z"/><path class="cls-2" d="M416.81,158.67l-.56-.25a7.7,7.7,0,0,0,1.23.16,8.09,8.09,0,0,0,3.7-1.24,5.09,5.09,0,0,0,.4-.35l.08-.09a5.75,5.75,0,0,0-.3-8.21c-6.52-5.91-11.05-9.51-15.52-16.31-.38-.51-.76-1-1.12-1.55-5.81-8.42-9.66-19.51-12-28.62q-.26-1-.5-2c-2.15-8-8.51-23.22-32.57-23.22-26.37,0-33.23,26-33.23,26h0a122.69,122.69,0,0,1-3.67,11.76,74.09,74.09,0,0,1-8.1,16.09q-.5.72-1,1.42c-4.5,6.89-9,10.5-15.61,16.45a5.75,5.75,0,0,0-.3,8.21l.08.09a5.19,5.19,0,0,0,.72.63,8.1,8.1,0,0,0,3.07,1,7.23,7.23,0,0,0,1.21-.1l-.44.17h0c-6.83,3.93-7.83,9.4-7.83,12.24a15,15,0,0,0,3.25,8.17c2.39,3,7.16,6.66,16.29,6.66a40.44,40.44,0,0,0,4.3-.24c6.07-.65,12.2-1.63,18.12-2.58,2.15-.35,4.3-.46,6.44-.79a120.41,120.41,0,0,1,15.34-.63h2.51a120.39,120.39,0,0,1,15.34.63c2.15.33,4.3.56,6.45.9,5.92.95,12,1.87,18.11,2.52a40.25,40.25,0,0,0,4.31.21c9.13,0,13.9-3.64,16.29-6.67a15,15,0,0,0,3.25-8.18C424.56,168,423.56,162.59,416.81,158.67ZM320,148.85h0a49.15,49.15,0,0,0,7.79-8.57c.57-.81,1.12-1.66,1.67-2.52a91,91,0,0,0,7.8-15.74,94.49,94.49,0,0,1,.57,10.49c0,9.16-3.39,15-5.85,17.71a6.21,6.21,0,0,1-2.11,1.69,40.56,40.56,0,0,1-8.57,1.91c-1.14.16-2.55.36-4.41.65s-3.5.45-5,.77l.11-.06-.43.14A54.17,54.17,0,0,0,320,148.85Zm85.76,20.29s-1.48-.3-3.74-.56a67.34,67.34,0,0,0-8.26-.47c-.75,0-1.5,0-2.23.1s-1.46.08-2.15.18-1.37.09-2,.15-1.25.08-1.8.16-1.07.11-1.53.15-.84.13-1.18.16l-.63.08a24.48,24.48,0,0,1-1.77,2.07,25.52,25.52,0,0,1-4,3.51,20.5,20.5,0,0,1-4.61,2.29,53.78,53.78,0,0,1-9,2.26c-5.65,1-10.37,1.52-13.67,2l-5.19.71,5.15-.94c3.28-.59,8-1.31,13.58-2.45a53.08,53.08,0,0,0,8.82-2.41,19.66,19.66,0,0,0,4.34-2.27,24.37,24.37,0,0,0,3.82-3.46,14.59,14.59,0,0,0,2.92-4.28,2.88,2.88,0,0,0,.08-2.23,2.66,2.66,0,0,0-1.83-1.23,11.88,11.88,0,0,0-5.31.25,25,25,0,0,0-5.2,1.93c-3.25,1.8-6.84,3.71-10.71,4.21a20,20,0,0,1-5.72-.06l-5.4-.66c-7.09-.85-13.7-1.72-19.35-2.48a48.55,48.55,0,0,0-13.66.37c-1.64.29-2.91.59-3.78.79a12.2,12.2,0,0,1-1.34.28,12.18,12.18,0,0,0,1.32-.37c.85-.26,2.11-.65,3.74-1a44.86,44.86,0,0,1,13.81-.92c5.7.57,12.32,1.27,19.41,2.09l5.4.61a18.64,18.64,0,0,0,5.38,0,22.58,22.58,0,0,0,5.26-1.51c1.74-.69,3.31-1.62,5.07-2.52a26.22,26.22,0,0,1,5.49-2,13,13,0,0,1,5.9-.21,3.83,3.83,0,0,1,2.6,1.88,4,4,0,0,1-.05,3.16,10.56,10.56,0,0,1-1.14,2.08l.19-.09a16.5,16.5,0,0,1,2.64-.94,18.63,18.63,0,0,1,1.83-.4,20.06,20.06,0,0,1,2.07-.26c.72-.06,1.47,0,2.22,0s1.52.06,2.29.09a55.78,55.78,0,0,1,8.32,1.09c2.24.46,3.69.9,3.69.9Zm1.75-13.82a53.86,53.86,0,0,0-5.36-.83c-1.86-.29-3.27-.51-4.41-.65a19.26,19.26,0,0,1-9.5-3.6c-4.69-3.57-7-9.55-7-17.71a94,94,0,0,1,.62-10.89,91.55,91.55,0,0,0,8,16.2l0,.05c7.92,12.11,16.08,16,22.68,19.1-1.88-.67-3.72-1.27-5-1.67Z"/><ellipse class="cls-2" cx="359.56" cy="52.09" rx="13.33" ry="20.69" transform="translate(-1.14 8.56) rotate(-1.36)"/><circle class="cls-4" cx="630.09" cy="211.05" r="50"/><circle class="cls-5" cx="630.09" cy="211.05" r="40"/><path class="cls-6" d="M633.08,224.35c-.79-.25-3.11-1.25-3.39-1.37-.25-1-.13-8.24-.11-9.06a.58.58,0,0,0,0-.14c-.13-.62-1.39-4.19-1.66-5.28a.68.68,0,0,1,.07-.5l4-7.47a.29.29,0,0,1,.41-.09l2.28,1.77a.53.53,0,0,0,.18.1l5.19,2.62a.31.31,0,0,0,.32-.52l-8.42-8.18a1.24,1.24,0,0,0-1.84.11c-1.46,1.83-5.66,7.38-7.67,10.06a2.49,2.49,0,0,0,0,3c1.37,1.88,3.56,4.92,3.77,5.42a.63.63,0,0,1,0,.16c.13.91,1.31,9.12,1.46,9.57a.82.82,0,0,0,1,.52c.31-.07,3.29-.08,4.35-.24A.22.22,0,0,0,633.08,224.35Z"/><path class="cls-6" d="M635.06,197.19c1.59.39,3-.65,3.79-3.06.64-2-.38-4.07-2-4.46a3.34,3.34,0,0,0-3.79,3.06C632.87,194.64,633.47,196.8,635.06,197.19Z"/><path class="cls-6" d="M647.2,198.82c-1.12-1.56-5-.78-6.13-.53a.16.16,0,0,0-.08.27l5.66,5.93a.14.14,0,0,0,.23,0C647.2,203.62,648.33,200.39,647.2,198.82Z"/><path class="cls-6" d="M640.35,199.16a.78.78,0,0,0-.83-.19,20.8,20.8,0,0,0-2.15.89.28.28,0,0,0-.07.45c1,.93,3.12,3.24,3.92,4.24a.78.78,0,0,1-.79,1.18l-6.72-2.94a.65.65,0,0,0-.78.2l-3.93,5a.48.48,0,0,0-.1.42l1.68,5.1v8.75a.42.42,0,0,0,.23.37l1.66.79a.16.16,0,0,0,.23-.17,4.82,4.82,0,0,0-.54-1.49.37.37,0,0,1,.11-.5c4-2.62,12.13-9.83,13.67-15.55a1,1,0,0,0-.26-1Z"/><path class="cls-6" d="M631.5,225.6l-3.84.28a.69.69,0,0,1-.73-.6l-1.62-10a.55.55,0,0,0,0-.17c-.1-.21-.84-1.35-.89-1.45a.81.81,0,0,0-.22-.27c-4.56-3.46-8.88,3.53-10.08,6.38a.14.14,0,0,0,.22.17c3-2.11,4.62-.57,5.13.14a.39.39,0,0,1-.06.53L618,221.82a.46.46,0,0,0,0,.66l4.6,4.77a.3.3,0,0,0,.45,0c.27-.3.76-.85,1.36-1.46a.44.44,0,0,1,.54-.08c1.9,1.13,1.2,3.75.22,5.42a.14.14,0,0,0,.19.19,19.88,19.88,0,0,0,6.37-5.38A.2.2,0,0,0,631.5,225.6Z"/><path class="cls-6" d="M617.31,223.08a.36.36,0,0,0-.47,0,8.22,8.22,0,0,0-2.87,3.35.09.09,0,0,0,.15.09c.48-.44,1.21-.71.83.11s-2.28,3.26-2.45,5.5a.39.39,0,0,0,.41.42,10.57,10.57,0,0,0,5.5-2.14c.54-.29.76-.27.27,1a.11.11,0,0,0,.15.13c2.34-1.3,3.06-2.55,3.27-3.14a.53.53,0,0,0-.12-.56Z"/><path class="cls-6" d="M619.86,203l1.89,1.42a.55.55,0,0,0,.76-.09l5.91-7.18a.4.4,0,0,0,0-.54l-1.2-1.17a1.06,1.06,0,0,0-1.5,0l-5.94,6.05A1,1,0,0,0,619.86,203Z"/><circle class="cls-4" cx="89.03" cy="211.05" r="50"/><circle class="cls-5" cx="89.03" cy="211.05" r="40"/><ellipse class="cls-6" cx="72.46" cy="197.14" rx="3.15" ry="2.03" transform="translate(-125.18 268.21) rotate(-89.6)"/><ellipse class="cls-6" cx="91.86" cy="197.14" rx="2.03" ry="3.15" transform="translate(-1.38 0.65) rotate(-0.4)"/><path class="cls-6" d="M67.61,202.51c1.23-1.44,3.74-1.8,5.12-1.58s3.3.33,4.6,2,2.14,3.18,2.87,3.48a12.79,12.79,0,0,0,2.75.36.86.86,0,0,1,.81.88h0a.86.86,0,0,1-.65.81c-1,.26-3,.69-3.64.41-.94-.38-2.78-2.66-2.77-2s.28,6.47-.05,7.35A109.14,109.14,0,0,0,76,226.57c.17.36,2.08.83,2,1.21s-3.62.54-3.92,0-.82-11.63-1.15-11.49-1.28,10.26-1.28,10.49,1.33.71,1.23,1.06-3.13.42-3.31-.28-.78-18.89-.5-21.14c-.33,0-1.17,1.68-1.11,2.78,0,.78.16,2.73.22,3.78a.77.77,0,0,1-.65.81h0a.77.77,0,0,1-.86-.54C66,211.08,64.85,205.75,67.61,202.51Z"/><path class="cls-6" d="M95.17,201.71a10.62,10.62,0,0,0-1.78-.45l-.77,2.44-.38-1.61-.68,0-.52,1.66-.58-2.4c-.36.08-.73.19-1.12.31-2,.62-3.61,3-4.38,4s-.81.74-1.47.92a1.39,1.39,0,0,1,.59,1.2,1.1,1.1,0,0,1-.84.91s.36.36,1.6.2,3.07-2.64,3.3-2.36-.34,6.9-.4,7.32.31.4.36.75.45,11.26.36,11.74-2,.94-1.87,1.44,3.7.35,4-.24,1.12-11.37,1.21-11.36,1.4,9.82,1.32,10.41-1.51,1.13-1.26,1.39,3-.07,3.12-.47c.08-.19.25-10.7.38-13.31a.6.6,0,0,1,.13-.34.88.88,0,0,0,.18-.58c-.06-2.17-.46-6.48-.22-6.66s.67.28.93,1.64a20.67,20.67,0,0,1,0,4.17.76.76,0,0,0,1.49.22,23.23,23.23,0,0,0,.49-5.14C98.44,204.95,97.52,202.51,95.17,201.71Z"/><path class="cls-6" d="M91.34,201.23l.14.48h.87l.14-.54A7.14,7.14,0,0,0,91.34,201.23Z"/><ellipse class="cls-6" cx="105.87" cy="197.55" rx="1.96" ry="3.05" transform="translate(-1.38 0.75) rotate(-0.4)"/><path class="cls-6" d="M109.06,202a8.36,8.36,0,0,0-2.54-.4l-.13.51h-.91l-.13-.46s-1.52.21-1.9.33a4.45,4.45,0,0,0-1.11.55c-2.7,2.34-2.82,6.23-2.68,9.22a.77.77,0,0,0,.67.72h0a.77.77,0,0,0,.87-.7c.15-1.86.7-5.37,1.12-4.93.09,1.11-.37,6.51-.42,6.88s.3.38.35.73.43,10.88.35,11.35-1.92.91-1.8,1.39,3.58.34,3.88-.23.91-7.93,1.11-10.28a.08.08,0,0,1,.16,0c.31,2.2,1.3,9,1.23,9.52s-1.51.93-1.28,1.18,2.88.22,3-.17c.08-.21.2-4.3.3-7.66,0-.06.45-6.4.45-6.4,0-2-.56-6.22-.32-6.41s.64.28.9,1.58a19.94,19.94,0,0,1,0,4,.73.73,0,0,0,1.44.22,22.44,22.44,0,0,0,.48-5C112.23,205.1,111.29,202.88,109.06,202Zm-3.33,5.76-.9-1.51.86-3.84h.45l.61,3.93Z"/><ellipse class="cls-4" cx="243.64" cy="297.11" rx="60" ry="57.62"/><ellipse class="cls-5" cx="243.64" cy="297.11" rx="50" ry="48.02"/><path class="cls-6" d="M254.93,305.62c-.84-5-5.59-4.85-8.25-6.17-2.21-1.09-2.9-6-2.9-9a.79.79,0,0,0-.8-.77h0a.8.8,0,0,0-.81.68,20.91,20.91,0,0,0,.2,6.5c.6,3,1.8,5.43,2.17,7.14.42,2-1.28,7.36.34,19.59.08.6-1.24,2.29-.83,2.48s2.65-1.69,2.58-2.19a78.14,78.14,0,0,1,1-10.59c.32-.33.73,5.21.73,5.47s-.46,4.38-.39,4.82,1.68,2.44,2.21,2.25-.34-1.71-.17-2.47a41.12,41.12,0,0,0,1.26-9.75c.27-6-.72-8.87-.31-9.53.3-.48,2,1.33,2.13,2.68a25.8,25.8,0,0,1,.36,3.6.79.79,0,0,0,1.54.3A11.49,11.49,0,0,0,254.93,305.62Z"/><path class="cls-6" d="M247,294.72c-.61,1.68-.05,3.4,1.26,3.84s2.87-.56,3.48-2.24.05-3.4-1.26-3.84S247.63,293,247,294.72Z"/><path class="cls-6" d="M242.89,293.42l-.14-4.52c-.1-.69.08-4.17.19-6.48,0-.74.07-1.32.08-1.58h.29c0,.26,0,.84-.08,1.58-.11,2.17-.3,5.79-.2,6.43.14.88.14,4.4.14,4.55Z"/><path class="cls-6" d="M212.29,316.62a.15.15,0,0,1-.09,0,.14.14,0,0,1,0-.2L226.29,299a.09.09,0,0,1,.13,0L240,311.79a.14.14,0,0,1,0,.2.15.15,0,0,1-.21,0L226.45,299.4a.09.09,0,0,0-.13,0L212.4,316.56A.15.15,0,0,1,212.29,316.62Z"/><path class="cls-6" d="M242.64,299.53l-.81-.75a.05.05,0,0,0-.07,0l-8.3,7a.14.14,0,0,0,0,.2.15.15,0,0,0,.21,0l8.1-6.87a.05.05,0,0,1,.07,0l.62.58a.13.13,0,0,0,.21,0v0A.13.13,0,0,0,242.64,299.53Z"/><path class="cls-6" d="M255.92,311.86l-.74-.69a.15.15,0,0,0-.22,0h0a.13.13,0,0,0,0,.18l.74.68a.15.15,0,0,0,.21,0A.14.14,0,0,0,255.92,311.86Z"/><path class="cls-6" d="M253.1,309.25l-1.4-1.3a.15.15,0,0,0-.22,0h0a.13.13,0,0,0,0,.17l1.4,1.3a.15.15,0,0,0,.2,0h0A.13.13,0,0,0,253.1,309.25Z"/><path class="cls-6" d="M253.92,314.23a.15.15,0,0,1-.09,0,.14.14,0,0,1,0-.2l8.95-10a.1.1,0,0,1,.14,0l6.86,6.68a.14.14,0,0,1,0,.2.15.15,0,0,1-.21,0l-6.63-6.46a.1.1,0,0,0-.14,0L254,314.18A.15.15,0,0,1,253.92,314.23Z"/><path class="cls-6" d="M242.86,262.09c-4.57,0-9.31,4.73-8.39,10.51,1.25,7.85,8.41,13.23,8.41,13.23s8.21-5.54,8.12-13.06C250.93,266.92,247.42,262.14,242.86,262.09Z"/><circle class="cls-4" cx="475.48" cy="294.73" r="60"/><circle class="cls-5" cx="475.48" cy="294.73" r="50"/><path class="cls-6" d="M451,292.52a5.7,5.7,0,0,0,1,.11v1.5h.68V292.6a2.56,2.56,0,0,0,1.35-.52,1.42,1.42,0,0,0,.56-1.14,1.23,1.23,0,0,0-.38-1,2.17,2.17,0,0,0-1-.48l-.26-.06-.22,0v-1.65a2.76,2.76,0,0,1,.82.17,5.58,5.58,0,0,1,.67.34h.19v-1l-.05,0a4.89,4.89,0,0,0-.79-.22,5.29,5.29,0,0,0-.84-.1v-1.13H452V287a2.49,2.49,0,0,0-1.39.51,1.4,1.4,0,0,0-.54,1.11,1.31,1.31,0,0,0,.33.91,2,2,0,0,0,1.06.54l.28.07.26.05v1.67a3.34,3.34,0,0,1-.55-.08,4.85,4.85,0,0,1-.52-.15,3.22,3.22,0,0,1-.4-.18l-.29-.16,0,0H450v1l0,0A4.41,4.41,0,0,0,451,292.52Zm1.7-2.24a1.9,1.9,0,0,1,.7.25.58.58,0,0,1,.22.51.63.63,0,0,1-.25.55,1.46,1.46,0,0,1-.67.23ZM451.26,289a.62.62,0,0,1-.21-.51.59.59,0,0,1,.28-.52,1.48,1.48,0,0,1,.66-.22v1.54A1.88,1.88,0,0,1,451.26,289Z"/><path class="cls-6" d="M465.36,284.13a5.7,5.7,0,0,0,1,.11v1.5h.68v-1.53a2.56,2.56,0,0,0,1.35-.52,1.42,1.42,0,0,0,.56-1.14,1.23,1.23,0,0,0-.38-1,2.17,2.17,0,0,0-1-.48l-.26-.06-.22,0v-1.65a2.76,2.76,0,0,1,.82.17,5.58,5.58,0,0,1,.67.34h.19v-1l-.05,0a4.89,4.89,0,0,0-.79-.22,5.29,5.29,0,0,0-.84-.1v-1.13h-.68v1.15a2.49,2.49,0,0,0-1.39.51,1.4,1.4,0,0,0-.54,1.11,1.31,1.31,0,0,0,.33.91,2,2,0,0,0,1.06.54l.28.07.26.05v1.67a3.34,3.34,0,0,1-.55-.08,4.85,4.85,0,0,1-.52-.15,3.22,3.22,0,0,1-.4-.18l-.29-.16,0,0h-.18v1l0,0A4.41,4.41,0,0,0,465.36,284.13Zm1.7-2.24a1.9,1.9,0,0,1,.7.25.58.58,0,0,1,.22.51.63.63,0,0,1-.25.55,1.46,1.46,0,0,1-.67.23Zm-1.41-1.26a.62.62,0,0,1-.21-.51.59.59,0,0,1,.28-.52,1.48,1.48,0,0,1,.66-.22v1.54A1.88,1.88,0,0,1,465.64,280.63Z"/><path class="cls-6" d="M480.8,276.72a5.7,5.7,0,0,0,1,.11v1.5h.68V276.8a2.56,2.56,0,0,0,1.35-.52,1.42,1.42,0,0,0,.56-1.14,1.23,1.23,0,0,0-.38-1,2.17,2.17,0,0,0-1-.48l-.26-.06-.22,0v-1.65a2.76,2.76,0,0,1,.82.17,5.58,5.58,0,0,1,.67.34h.19v-1l-.05,0a4.89,4.89,0,0,0-.79-.22,5.29,5.29,0,0,0-.84-.1V270h-.68v1.15a2.49,2.49,0,0,0-1.39.51,1.4,1.4,0,0,0-.54,1.11,1.31,1.31,0,0,0,.33.91,2,2,0,0,0,1.06.54l.28.07.26.05V276a3.34,3.34,0,0,1-.55-.08,4.85,4.85,0,0,1-.52-.15,3.22,3.22,0,0,1-.4-.18l-.29-.16,0,0h-.18v1l0,0A4.41,4.41,0,0,0,480.8,276.72Zm1.7-2.24a1.9,1.9,0,0,1,.7.25.58.58,0,0,1,.22.51.63.63,0,0,1-.25.55,1.46,1.46,0,0,1-.67.23Zm-1.41-1.26a.62.62,0,0,1-.21-.51.59.59,0,0,1,.28-.52,1.48,1.48,0,0,1,.66-.22v1.54A1.88,1.88,0,0,1,481.09,273.21Z"/><path class="cls-7" d="M500.07,278.88l-.07.4a.11.11,0,0,1-.11.09h-.62a.11.11,0,0,1-.11-.09l-.09-.41a.11.11,0,0,1,.11-.13H500A.11.11,0,0,1,500.07,278.88Z"/><ellipse class="cls-6" cx="499.5" cy="273.45" rx="3.85" ry="2.58" transform="translate(221.65 770.52) rotate(-89.49)"/><path class="cls-6" d="M506.15,280.76c-1.68-2.08-4.16-1.7-4.93-1.74a.14.14,0,0,0-.16.1l-.7,2.61a0,0,0,0,1-.06,0c-.08-.38-.3-1.49-.36-1.82a.12.12,0,0,0-.12-.09h-.45a.12.12,0,0,0-.12.1l-.32,1.79a0,0,0,0,1-.06,0l-1-2.58a.14.14,0,0,0-.15-.09c-3.86.46-5.44,2.34-5.44,7.67a38,38,0,0,0,.26,5.29.84.84,0,0,0,.8.7c.58,0,1-.32,1-.66.1-1.9.26-7.66,1.05-8.13.11,2.06.24,7.73.3,8.92s.86,15.82.86,16.12-1.78,1-1.63,1.62c0,.19,3.39.16,4-.32s.25-7.18.25-7.18.53-9.16,1-9.2.49,9,.49,9,.46,6.9.59,7.39,4.82.9,4.82.47-2.23-.88-2.2-1.81c.11-3,.54-10.51.67-16.53.11-4.81-.06-8.67-.06-8.67.66-.09,1,4.83,1.15,7.06a1.1,1.1,0,0,0,2.19,0C507.84,288.5,507.81,282.82,506.15,280.76Z"/><path class="cls-8" d="M448.49,296.92h7.84a1.24,1.24,0,0,1,1.24,1.24v12.23a0,0,0,0,1,0,0H447.25a0,0,0,0,1,0,0V298.16A1.24,1.24,0,0,1,448.49,296.92Z"/><path class="cls-8" d="M463.22,288.08h7.94a1.19,1.19,0,0,1,1.19,1.19v21.12a0,0,0,0,1,0,0H462a0,0,0,0,1,0,0V289.27A1.19,1.19,0,0,1,463.22,288.08Z"/><path class="cls-8" d="M478,280.84h8a1.16,1.16,0,0,1,1.16,1.16v28.38a0,0,0,0,1,0,0H476.81a0,0,0,0,1,0,0V282A1.16,1.16,0,0,1,478,280.84Z"/><line class="cls-9" x1="439.02" y1="310.39" x2="511.08" y2="310.39"/><circle class="cls-4" cx="207.21" cy="117.94" r="45"/><circle class="cls-5" cx="207.21" cy="117.94" r="35"/><path class="cls-6" d="M225.19,133.28c-.26-.26.3-5.82-.23-7.1a64.84,64.84,0,0,0-3.39-6.23c-.45-.6-.68-6.55-.43-6.68s.55.81,1.6,1.49a20.3,20.3,0,0,0,3,1.68.86.86,0,0,0,1-.28h0a.85.85,0,0,0-.08-1.12,32.49,32.49,0,0,0-3.18-2.33c-.4-.34-3.22-5.85-5.34-5a10.35,10.35,0,0,0-5.12,4.62c-.54,1-.23,3.63.28,5.1a.74.74,0,0,0,.23.33l.42-.72.46.27-.36.62h.08a.76.76,0,0,0,.65-.72c0-1.21,0-2.26-.05-2.66A2.55,2.55,0,0,1,216,113c.06,1.22-.6,5.74-.6,7.52,0,1,.39,6.61.29,7.08s-2.87,6.12-2.34,6.58,4,1.17,4.08.69c.07-.27-1.6-.82-1.74-1.34s2-3.79,2.29-4.77,1-5.17,1.28-5.4,2,3.17,3,4.64c.58.79.93,5.75,1,6.35s4.22.8,4.4.27S225.72,133.81,225.19,133.28Z"/><ellipse class="cls-6" cx="221.79" cy="104.72" rx="3.09" ry="1.99" transform="translate(31.85 259.91) rotate(-64.52)"/><path class="cls-6" d="M213.54,117.79,210.46,123a.79.79,0,0,1-.09.47l-3.58,6.5a1.53,1.53,0,0,1-.81.7l-.71,1.22a1.48,1.48,0,0,1,.48.25L214.06,118A.76.76,0,0,1,213.54,117.79Z"/><path class="cls-6" d="M214,117.07l-.42.72a.76.76,0,0,0,.52.17l.36-.62Z"/><path class="cls-6" d="M205.58,133.35a.76.76,0,1,1-.76-.76h.05l.39-.66a1.49,1.49,0,1,0,.48.25l-.37.63A.76.76,0,0,1,205.58,133.35Z"/><path class="cls-6" d="M204.87,132.59a.76.76,0,0,1,.49.22l.37-.63a1.48,1.48,0,0,0-.48-.25Z"/><path class="cls-6" d="M210.11,122.47l-2.72-1.82a1.53,1.53,0,0,0-2,.29l-4.57,5.48a1.53,1.53,0,0,0,.35,2.27l3.05,1.94a1.53,1.53,0,0,0,1.08.22l.42-.07.26-.07,4.49-7.66A.79.79,0,0,0,210.11,122.47Z"/><path class="cls-6" d="M206.78,130l3.58-6.5a.79.79,0,0,0,.09-.47L206,130.71A1.53,1.53,0,0,0,206.78,130Z"/><path class="cls-6" d="M186.67,138.09V97.78L197.61,101v30.12Zm.3-39.92v39.38l10.35-6.6V101.22Zm1.54,22.49c-.54,0-1-.75-1-1.71s.42-1.71,1-1.71,1,.75,1,1.71S189.05,120.66,188.51,120.66Zm0-3.13c-.31,0-.67.58-.67,1.42s.35,1.42.67,1.42.67-.58.67-1.42S188.83,117.53,188.51,117.53Z"/><circle class="cls-4" cx="511.91" cy="119.44" r="45"/><circle class="cls-5" cx="511.91" cy="119.44" r="35"/><ellipse class="cls-6" cx="508.93" cy="104.35" rx="3.94" ry="2.54" transform="translate(400.26 612.38) rotate(-89.51)"/><path class="cls-6" d="M509.48,109.91l-.07.41a.11.11,0,0,1-.11.1h-.61a.11.11,0,0,1-.11-.09l-.09-.42a.11.11,0,0,1,.11-.14h.77A.11.11,0,0,1,509.48,109.91Z"/><path class="cls-6" d="M501.81,117.79c0-5.46,1.55-7.38,5.35-7.86a.14.14,0,0,1,.15.09l1,2.64a0,0,0,0,0,.06,0l.32-1.84a.12.12,0,0,1,.12-.1h.44a.12.12,0,0,1,.11.1c.06.33.28,1.47.36,1.86a0,0,0,0,0,.06,0l.69-2.67a.14.14,0,0,1,.16-.11c.23,0,.62.08.86.13a1.09,1.09,0,0,0,.82-.29,3.51,3.51,0,0,0,.32-.27,13.85,13.85,0,0,0,4.28-9.07,1.15,1.15,0,0,1,.52-.81,1.18,1.18,0,0,1,1.79,1,23.42,23.42,0,0,1-1.84,6.87c-.83,2-3.66,6.27-3.72,7.79,0,.07,0,.18,0,.32-.07,2.9-.31,19.27-.51,24.88,0,.95,2.16,1.42,2.16,1.85s-4.61,0-4.74-.48-.58-7.56-.58-7.56-.4-9.12-.83-9.1c-.65,0-.61,9.35-.61,9.35s.31,6.86-.25,7.36-3.85.52-3.9.33c-.15-.62,1.6-1.35,1.6-1.66s-1.13-15.13-1.2-16.43.16-7.11.05-9.21c-.78.49-1.25,6.26-1.35,8.21a.72.72,0,0,1-1.44.07A40.46,40.46,0,0,1,501.81,117.79Z"/><path class="cls-6" d="M523.85,96.35l.08.28,1.78-.23a.24.24,0,0,1,.28.23c0,.13,0,.25,0,.38a6.14,6.14,0,0,1-.31,2.2,2.58,2.58,0,0,1-1,1.36l-1.06.68a3.25,3.25,0,0,0-.39.31l-.62.6a.17.17,0,0,0,0,.14c.05.44.11.88.17,1.31a.87.87,0,0,0,.68.77l.14,0-2.29.3.2-.13a.82.82,0,0,0,.39-.81c-.05-.46-.11-.93-.18-1.39,0,0-.06-.09-.11-.12l-.68-.37a5.43,5.43,0,0,0-.7-.31l-.86-.27a2.73,2.73,0,0,1-1.56-1.23,12,12,0,0,1-.89-2.32.19.19,0,0,1,.16-.24l1.87-.25V97Zm-6.25,1.73a.52.52,0,0,0,0,.1c.14.4.27.81.44,1.2a2.58,2.58,0,0,0,2,1.58,7.08,7.08,0,0,1-1-3.06Zm7.81-1-1.42.18a7.05,7.05,0,0,1-.22,3.21l.18-.07a2.8,2.8,0,0,0,1-.93A4.46,4.46,0,0,0,525.4,97.06Z"/><path class="cls-6" d="M520.93,105.09l2.9-.38a.21.21,0,0,1,.2.09c.18.26.85.45,1.14.7a.13.13,0,0,1-.08.23l-5.22.68a.11.11,0,0,1-.11-.16c.2-.32.87-.7,1-1A.21.21,0,0,1,520.93,105.09Z"/><text class="cls-10" transform="translate(29.97 199.68) rotate(-76.98)">G</text><text class="cls-10" transform="matrix(0.32, -0.95, 0.95, 0.32, 31.47, 193.3)">e</text><text class="cls-10" transform="translate(33.14 188.41) rotate(-67.19)">t</text><text class="cls-10" transform="matrix(0.43, -0.9, 0.9, 0.43, 34.57, 185.07)"> </text><text class="cls-10" transform="translate(35.4 183.14) rotate(-60.53)">A</text><text class="cls-10" transform="translate(38.22 178.12) rotate(-55.25)">q</text><text class="cls-10" transform="translate(41.57 173.28) rotate(-49.62)">q</text><text class="cls-10" transform="translate(45.37 168.79) rotate(-44)">u</text><text class="cls-10" transform="translate(49.63 164.76) rotate(-39.94)">i</text><text class="cls-10" transform="matrix(0.8, -0.6, 0.6, 0.8, 51.62, 163.07)">-</text><text class="cls-10" transform="translate(54.2 161.06) rotate(-32.73)">h</text><text class="cls-10" transform="translate(59.16 157.93) rotate(-28.69)">i</text><text class="cls-10" transform="matrix(0.9, -0.43, 0.43, 0.9, 61.44, 156.66)">r</text><text class="cls-10" transform="translate(64.65 155.08) rotate(-21.5)">e</text><text class="cls-10" transform="translate(69.58 153.11) rotate(-16.16)">d</text><text class="cls-10" transform="matrix(1, -0.02, 0.02, 1, 626, 150.68)">G</text><text class="cls-10" transform="translate(632.58 150.54) rotate(4.3)">e</text><text class="cls-10" transform="translate(637.73 150.95) rotate(8.44)">t</text><text class="cls-10" transform="translate(641.31 151.49) rotate(11.19)"> </text><text class="cls-10" transform="translate(643.43 151.91) rotate(13.49)">i</text><text class="cls-10" transform="matrix(0.95, 0.3, -0.3, 0.95, 645.95, 152.45)">n</text><text class="cls-10" transform="translate(651.53 154.25) rotate(22.03)">t</text><text class="cls-10" transform="translate(654.78 155.51) rotate(26.39)">o</text><text class="cls-10" transform="translate(659.99 158.16) rotate(30.17)"> </text><text class="cls-10" transform="translate(661.83 159.17) rotate(33.78)">a</text><text class="cls-10" transform="matrix(0.79, 0.61, -0.61, 0.79, 666.4, 162.29)"> </text><text class="cls-10" transform="translate(668.12 163.52) rotate(41.13)">S</text><text class="cls-10" transform="translate(672.38 167.28) rotate(45.56)">t</text><text class="cls-10" transform="matrix(0.65, 0.76, -0.76, 0.65, 674.78, 169.67)">a</text><text class="cls-10" transform="matrix(0.59, 0.81, -0.81, 0.59, 678.31, 173.88)">r</text><text class="cls-10" transform="translate(680.49 176.89) rotate(57.65)">t</text><text class="cls-10" transform="translate(682.41 179.82) rotate(62.11)">u</text><text class="cls-10" transform="translate(685.14 184.96) rotate(67.73)">p</text><text class="cls-10" transform="matrix(0.32, 0.95, -0.95, 0.32, 687.35, 190.52)"> </text><text class="cls-10" transform="translate(688.09 192.48) rotate(75.56)">A</text><text class="cls-10" transform="translate(689.53 198.08) rotate(80.3)">c</text><text class="cls-10" transform="translate(690.32 202.64) rotate(84.72)">c</text><text class="cls-10" transform="translate(690.78 207.27) rotate(89.4)">e</text><text class="cls-10" transform="matrix(-0.06, 1, -1, -0.06, 690.79, 212.62)">l</text><text class="cls-10" transform="translate(690.69 215.3) rotate(97.12)">e</text><text class="cls-10" transform="translate(690 220.57) rotate(101.43)">r</text><text class="cls-10" transform="translate(689.37 223.93) rotate(105.57)">a</text><text class="cls-10" transform="translate(687.86 229.22) rotate(109.91)">t</text><text class="cls-10" transform="matrix(-0.41, 0.91, -0.91, -0.41, 686.74, 232.49)">o</text><text class="cls-10" transform="translate(684.3 237.8) rotate(118.78)">r</text><text class="cls-10" transform="matrix(0.75, -0.66, 0.66, 0.75, 473.92, 79.78)">B</text><text class="cls-10" transform="translate(478.59 75.69) rotate(-35.32)">e</text><text class="cls-10" transform="translate(482.92 72.63) rotate(-30)">c</text><text class="cls-10" transform="matrix(0.91, -0.42, 0.42, 0.91, 486.89, 70.29)">o</text><text class="cls-10" transform="translate(492.08 67.77) rotate(-17.07)">m</text><text class="cls-10" transform="translate(500.61 65.26) rotate(-9.76)">e</text><text class="cls-10" transform="matrix(0.99, -0.1, 0.1, 0.99, 505.87, 64.41)"> </text><text class="cls-10" transform="translate(507.94 64.13) rotate(-1.89)">S</text><text class="cls-10" transform="translate(513.58 63.94) rotate(3.78)">e</text><text class="cls-10" transform="translate(518.9 64.34) rotate(7.96)">l</text><text class="cls-10" transform="translate(521.59 64.7) rotate(11.01)">f</text><text class="cls-10" transform="translate(524.64 65.31) rotate(13.76)"> </text><text class="cls-10" transform="translate(526.72 65.75) rotate(17.86)">S</text><text class="cls-10" transform="matrix(0.91, 0.4, -0.4, 0.91, 532.07, 67.46)">u</text><text class="cls-10" transform="translate(537.38 69.83) rotate(29.2)">s</text><text class="cls-10" transform="matrix(0.84, 0.55, -0.55, 0.84, 541.29, 72.03)">t</text><text class="cls-10" transform="translate(544.14 73.85) rotate(37.81)">a</text><text class="cls-10" transform="translate(548.45 77.25) rotate(41.97)">i</text><text class="cls-10" transform="matrix(0.69, 0.72, -0.72, 0.69, 550.42, 78.93)">n</text><text class="cls-10" transform="matrix(0.61, 0.79, -0.79, 0.61, 554.45, 83.16)">a</text><text class="cls-10" transform="translate(557.8 87.46) rotate(58.27)">b</text><text class="cls-10" transform="translate(560.89 92.57) rotate(62.79)">l</text><text class="cls-10" transform="translate(562.15 94.91) rotate(66.96)">e</text><text class="cls-10" transform="matrix(0.3, -0.95, 0.95, 0.3, 154.21, 104.41)">G</text><text class="cls-10" transform="matrix(0.41, -0.91, 0.91, 0.41, 156.22, 98.17)">o</text><text class="cls-10" transform="translate(158.67 92.88) rotate(-61.64)"> </text><text class="cls-10" transform="translate(159.67 90.99) rotate(-58.89)">f</text><text class="cls-10" transform="translate(161.14 88.43) rotate(-54.38)">o</text><text class="cls-10" transform="translate(164.56 83.73) rotate(-49.45)">r</text><text class="cls-10" transform="matrix(0.69, -0.72, 0.72, 0.69, 166.99, 80.92)"> </text><text class="cls-10" transform="matrix(0.75, -0.67, 0.67, 0.75, 168.35, 79.33)">H</text><text class="cls-10" transform="translate(173.6 74.77) rotate(-36.82)">i</text><text class="cls-10" transform="matrix(0.84, -0.54, 0.54, 0.84, 175.64, 73.18)">g</text><text class="cls-10" transform="translate(180.15 70.26) rotate(-26.86)">h</text><text class="cls-10" transform="matrix(0.93, -0.36, 0.36, 0.93, 185.32, 67.64)">e</text><text class="cls-10" transform="translate(190.3 65.76) rotate(-16.37)">r</text><text class="cls-10" transform="translate(193.87 64.72) rotate(-13.3)"> </text><text class="cls-10" transform="matrix(0.99, -0.16, 0.16, 0.99, 195.91, 64.17)">E</text><text class="cls-10" transform="matrix(1, -0.06, 0.06, 1, 201.36, 63.27)">d</text><text class="cls-10" transform="translate(207.28 62.92) rotate(2.79)">u</text><text class="cls-10" transform="translate(213.11 63.22) rotate(8.27)">c</text><text class="cls-10" transform="translate(217.8 63.88) rotate(13.51)">a</text><text class="cls-10" transform="matrix(0.95, 0.31, -0.31, 0.95, 223.12, 65.19)">t</text><text class="cls-10" transform="matrix(0.93, 0.37, -0.37, 0.93, 226.56, 66.34)">i</text><text class="cls-10" transform="translate(228.96 67.21) rotate(25.9)">o</text><text class="cls-10" transform="matrix(0.85, 0.53, -0.53, 0.85, 234.17, 69.72)">n</text><text class="cls-10" transform="matrix(0.63, -0.77, 0.77, 0.63, 419.02, 252.81)">G</text><text class="cls-10" transform="matrix(0.7, -0.72, 0.72, 0.7, 423.22, 247.74)">e</text><text class="cls-10" transform="matrix(0.74, -0.67, 0.67, 0.74, 426.85, 244.03)">t</text><text class="cls-10" transform="matrix(0.77, -0.64, 0.64, 0.77, 429.56, 241.58)"> </text><text class="cls-10" transform="translate(431.2 240.2) rotate(-37.81)">f</text><text class="cls-10" transform="matrix(0.83, -0.56, 0.56, 0.83, 433.48, 238.36)">u</text><text class="cls-10" transform="translate(438.3 235.07) rotate(-29.46)">n</text><text class="cls-10" transform="translate(443.42 232.17) rotate(-24.57)">d</text><text class="cls-10" transform="translate(448.84 229.7) rotate(-19.93)">e</text><text class="cls-10" transform="translate(453.81 227.87) rotate(-15.32)">d</text><text class="cls-10" transform="translate(249.12 227.65) rotate(6.76)">G</text><text class="cls-10" transform="translate(255.66 228.45) rotate(11.58)">e</text><text class="cls-10" transform="matrix(0.97, 0.26, -0.26, 0.97, 260.73, 229.51)">t</text><text class="cls-10" transform="translate(264.26 230.47) rotate(17.41)"> </text><text class="cls-10" transform="translate(266.3 231.06) rotate(20.53)">a</text><text class="cls-10" transform="matrix(0.92, 0.4, -0.4, 0.92, 271.46, 233.03)"> </text><text class="cls-10" transform="matrix(0.89, 0.46, -0.46, 0.89, 273.43, 233.82)">B</text><text class="cls-10" transform="matrix(0.85, 0.53, -0.53, 0.85, 278.99, 236.69)">e</text><text class="cls-10" transform="matrix(0.81, 0.58, -0.58, 0.81, 283.39, 239.45)">t</text><text class="cls-10" transform="matrix(0.78, 0.62, -0.62, 0.78, 286.34, 241.55)">t</text><text class="cls-10" transform="matrix(0.74, 0.67, -0.67, 0.74, 289.11, 243.7)">e</text><text class="cls-10" transform="translate(293.06 247.29) rotate(45.72)">r</text><text class="cls-10" transform="translate(295.66 249.98) rotate(48.13)"> </text><text class="cls-10" transform="matrix(0.63, 0.78, -0.78, 0.63, 297.12, 251.54)">J</text><text class="cls-10" transform="translate(300.33 255.49) rotate(55.54)">o</text><text class="cls-10" transform="translate(303.63 260.28) rotate(60.32)">b</text></svg>