<svg id="Layer_1" data-name="Layer 1" xmlns="http://www.w3.org/2000/svg" viewBox="0 0 720 750"><defs><style>.cls-1,.cls-4{font-size:12px;font-family:SourceSansPro-Regular, Source Sans Pro;}.cls-1{fill:#3974aa;}.cls-2{letter-spacing:-0.01em;}.cls-3{letter-spacing:-0.07em;}.cls-16,.cls-4{fill:#087caa;}.cls-5{letter-spacing:-0.01em;}.cls-6{letter-spacing:-0.01em;}.cls-7{letter-spacing:-0.01em;}.cls-8{letter-spacing:0em;}.cls-9{letter-spacing:0em;}.cls-10{letter-spacing:-0.02em;}.cls-11{letter-spacing:-0.02em;}.cls-12{letter-spacing:-0.01em;}.cls-13{letter-spacing:0em;}.cls-14{letter-spacing:-0.01em;}.cls-15{fill:none;stroke:#087caa;stroke-miterlimit:10;}.cls-17{fill:#fff;}.cls-18{fill:#1e9b5a;}</style></defs><title>Early-to-start-illustration</title><text class="cls-1" transform="translate(324.95 135.52)"><tspan class="cls-2">F</tspan><tspan x="5.7" y="0">orm a </tspan><tspan class="cls-3" x="37.31" y="0">T</tspan><tspan class="cls-2" x="42.89" y="0">e</tspan><tspan x="48.67" y="0">am</tspan></text><text class="cls-4" transform="translate(499.15 135.52)">Identify an Id<tspan class="cls-2" x="65.7" y="0">e</tspan><tspan x="71.48" y="0">a</tspan></text><text class="cls-4" transform="translate(489.33 325.18)">C<tspan class="cls-5" x="6.79" y="0">r</tspan><tspan class="cls-2" x="10.84" y="0">e</tspan><tspan x="16.62" y="0">a</tspan><tspan class="cls-5" x="22.76" y="0">t</tspan><tspan x="26.7" y="0">e a P</tspan><tspan class="cls-5" x="50.5" y="0">r</tspan><tspan x="54.54" y="0">o</tspan><tspan class="cls-5" x="61.04" y="0">t</tspan><tspan x="64.98" y="0">otype</tspan></text><text class="cls-4" transform="translate(307.67 325.18)">G<tspan class="cls-6" x="7.34" y="0">e</tspan><tspan x="13.13" y="0">t Fi</tspan><tspan class="cls-7" x="28.43" y="0">r</tspan><tspan x="32.47" y="0">st </tspan><tspan class="cls-5" x="43.98" y="0">C</tspan><tspan x="50.65" y="0">us</tspan><tspan class="cls-5" x="62.21" y="0">t</tspan><tspan x="66.14" y="0">ome</tspan><tspan class="cls-7" x="88.55" y="0">r</tspan><tspan x="92.59" y="0">s</tspan></text><text class="cls-4" transform="translate(126.58 325.18)">Find an Efficient <tspan class="cls-7" x="83.12" y="0">w</tspan><tspan class="cls-8" x="91.62" y="0">ay</tspan><tspan class="cls-5" x="8.63" y="14.4">t</tspan><tspan x="12.56" y="14.4">o G</tspan><tspan class="cls-2" x="28.84" y="14.4">e</tspan><tspan x="34.62" y="14.4">t </tspan><tspan class="cls-5" x="41.1" y="14.4">C</tspan><tspan class="cls-9" x="47.77" y="14.4">us</tspan><tspan class="cls-5" x="59.33" y="14.4">t</tspan><tspan x="63.26" y="14.4">ome</tspan><tspan class="cls-7" x="85.67" y="14.4">r</tspan><tspan x="89.71" y="14.4">s</tspan></text><text class="cls-4" transform="translate(155.23 513.18)">S<tspan class="cls-7" x="6.35" y="0">c</tspan><tspan x="11.7" y="0">ale Up</tspan><tspan x="-9.71" y="14.4">the Business</tspan></text><text class="cls-4" transform="translate(321.09 513.18)">Gene<tspan class="cls-10" x="25.81" y="0">r</tspan><tspan class="cls-8" x="29.68" y="0">a</tspan><tspan class="cls-5" x="35.82" y="0">t</tspan><tspan class="cls-9" x="39.76" y="0">e P</tspan><tspan class="cls-5" x="54.98" y="0">r</tspan><tspan x="59.03" y="0">ofits</tspan></text><text class="cls-4" transform="translate(504.63 513.18)">De<tspan class="cls-5" x="13.3" y="0">f</tspan><tspan class="cls-9" x="16.68" y="0">end P</tspan><tspan class="cls-7" x="45.13" y="0">r</tspan><tspan x="49.18" y="0">ofits</tspan><tspan x="-15.52" y="14.4">A</tspan><tspan class="cls-11" x="-9.06" y="14.4">g</tspan><tspan x="-3.2" y="14.4">ainst Comp</tspan><tspan class="cls-2" x="53.87" y="14.4">e</tspan><tspan x="59.65" y="14.4">tition</tspan></text><text class="cls-4" transform="translate(502.87 704.05)">Mana<tspan class="cls-2" x="27.52" y="0">g</tspan><tspan class="cls-9" x="33.4" y="0">e Cash</tspan></text><text class="cls-4" transform="translate(306.01 704.05)">Gene<tspan class="cls-10" x="25.81" y="0">r</tspan><tspan class="cls-8" x="29.68" y="0">a</tspan><tspan class="cls-5" x="35.82" y="0">t</tspan><tspan class="cls-9" x="39.76" y="0">e </tspan><tspan class="cls-7" x="48.13" y="0">R</tspan><tspan class="cls-2" x="54.92" y="0">e</tspan><tspan class="cls-12" x="60.71" y="0">t</tspan><tspan x="64.69" y="0">urns on</tspan><tspan x="-18.19" y="14.4">In</tspan><tspan class="cls-13" x="-8.53" y="14.4">v</tspan><tspan class="cls-9" x="-2.98" y="14.4">estment </tspan><tspan class="cls-5" x="41" y="14.4">t</tspan><tspan x="44.94" y="14.4">o Sha</tspan><tspan class="cls-14" x="72.89" y="14.4">r</tspan><tspan class="cls-9" x="76.93" y="14.4">eholde</tspan><tspan class="cls-7" x="111.59" y="14.4">r</tspan><tspan x="115.63" y="14.4">s</tspan></text><path class="cls-15" d="M357.26,109.52H546.74c52,0,94.59,42.57,94.59,94.59h0c0,52-42.57,94.59-94.59,94.59H356.26"/><path class="cls-15" d="M355.74,487.9H172.26c-52,0-94.59-42.57-94.59-94.59h0c0-52,42.57-94.59,94.59-94.59H354.74"/><path class="cls-15" d="M355.26,487.9H547.74c52,0,94.59,42.57,94.59,94.59h0c0,52-42.57,94.59-94.59,94.59H356.26"/><circle class="cls-16" cx="537.19" cy="109.52" r="6"/><path class="cls-17" d="M537.19,104.52a5,5,0,1,1-5,5,5,5,0,0,1,5-5m0-2a7,7,0,1,0,7,7,7,7,0,0,0-7-7Z"/><circle class="cls-16" cx="537.19" cy="299.52" r="6"/><path class="cls-17" d="M537.19,294.52a5,5,0,1,1-5,5,5,5,0,0,1,5-5m0-2a7,7,0,1,0,7,7,7,7,0,0,0-7-7Z"/><circle class="cls-16" cx="357.48" cy="109.52" r="6"/><path class="cls-17" d="M357.48,104.52a5,5,0,1,1-5,5,5,5,0,0,1,5-5m0-2a7,7,0,1,0,7,7,7,7,0,0,0-7-7Z"/><ellipse class="cls-18" cx="373.67" cy="48.49" rx="4.54" ry="2.93" transform="translate(314.01 420.54) rotate(-88.28)"/><path class="cls-18" d="M375.34,54.46a.23.23,0,0,1,.26-.16c2.6.42,6.66,1.5,7.9,5.25,1.12,3.38-.17,7.55-3.2,8.31h0a1.29,1.29,0,0,1-1.4-1.29v-.35a1.22,1.22,0,0,1,.79-1.26,2.69,2.69,0,0,0,1.42-2.79c-.29-3.11-2.81-3.11-2.81-3.11s.48,8.08.48,11.33c0,.25-.26.29-.26.48a.07.07,0,0,1,0,0c0,1.75.09,1,.1,2.94,0,8.5-.25,17.95-.25,18.42,0,.86,3.37,2,2.82,2.51s-5.78-.24-5.93-.94-1.59-18.51-2.14-18.66-1.07,18.12-1.4,18.66-4.87.78-5,.08,2.35-.94,2.43-2.12c0-.62-.7-9.19-1-17.43h0c0-1.45.11-1.78.12-3.13,0-.2-.36-.28-.36-.48s.74-11,.75-12.35a3.58,3.58,0,0,0-1.42.54,8.37,8.37,0,0,0-2.24-3c.21,0,3.39-1.66,6.23-1.61a.21.21,0,0,1,.19.15A4.2,4.2,0,0,0,375.34,54.46Z"/><ellipse class="cls-18" cx="340.83" cy="48.49" rx="2.93" ry="4.54" transform="translate(-1.3 10.24) rotate(-1.72)"/><path class="cls-18" d="M349.6,55.91a17.53,17.53,0,0,0-6.14-1.61h-.09a.2.2,0,0,0-.17.11,5.77,5.77,0,0,1-4.1,0,.23.23,0,0,0-.19-.07h0c-2.6.42-6.22,1.5-7.46,5.25-1.12,3.38-.06,7.55,3,8.31h0a1.29,1.29,0,0,0,1.4-1.29v-.35a1.41,1.41,0,0,0-1-1.26,2.69,2.69,0,0,1-1.42-2.79c.29-3.11,2.81-3.11,2.81-3.11s-.48,8.08-.48,11.33c0,.25.26.29.26.48a.07.07,0,0,0,0,0c0,1.75-.09,1-.1,2.94,0,8.5.25,17.95.25,18.42,0,.86-3.37,2-2.82,2.51s5.78-.24,5.93-.94,1.59-18.51,2.14-18.66,1.07,18.12,1.4,18.66,4.87.78,5,.08-2.35-.94-2.43-2.12c0-.62.7-9.19,1-17.43h0c0-1.45-.11-1.78-.12-3.13,0-.2.36-.28.36-.48s-.74-11-.75-12.35a3.58,3.58,0,0,1,1.42.54A8.37,8.37,0,0,1,349.6,55.91Z"/><ellipse class="cls-18" cx="356.85" cy="48.49" rx="2.93" ry="4.54" transform="translate(-1.29 10.72) rotate(-1.72)"/><path class="cls-18" d="M366.55,59.57c-.93-3.67-4.38-4.92-7.09-5.28a.23.23,0,0,0-.23.11,5.74,5.74,0,0,1-4.09,0,.23.23,0,0,0-.22-.08c-2.6.42-5.92,1.82-7,5.16s0,6.16,2.11,7.38l.16.09a7.29,7.29,0,0,0,2,.71.88.88,0,0,0,.65-.28,1.94,1.94,0,0,0,.53-1.64c-.2-.74-1.19-1.19-1.2-1.19h0a3,3,0,0,1-1.7-2.13,2.89,2.89,0,0,1,1.82-3.33s0,2.6,0,4.48a.32.32,0,0,0,0,.07v.74a2.47,2.47,0,0,1,1.28,1.32,2.15,2.15,0,0,1-.59,1.86,1.13,1.13,0,0,1-.69.33v.34a.07.07,0,0,0,0,0q0,2.62,0,5.59c0,8.5,0,18,0,18.42,0,.86-3.37,2-2.82,2.51s5.78-.24,5.93-.94,1.59-18.51,2.14-18.66,1.07,18.12,1.4,18.66,4.87.78,5,.08-2.35-.94-2.43-2.12c0-.62.28-9.7.61-17.95h0V68.21h0v-.35a1.25,1.25,0,0,1-.86-.42,1.9,1.9,0,0,1-.49-1.67A2.63,2.63,0,0,1,362,64.4h0V60.35h0c0-.43,0-.85,0-1.29a3,3,0,0,1,1.8,3.37,3.13,3.13,0,0,1-1.69,2.18h0l-.06,0h0a2.3,2.3,0,0,0-1.13,1.17,1.69,1.69,0,0,0,.44,1.46,1,1,0,0,0,.87.35,7.24,7.24,0,0,0,1.9-.7l.16-.09C366.33,65.62,367.36,62.79,366.55,59.57Z"/><path class="cls-18" d="M362.13,64.6h0Z"/><path class="cls-18" d="M509,79a23.38,23.38,0,0,1-4.41-.37c-1.48-.3-2.17-.73-2.17-1.34s.69-1,2.17-1.34a26.43,26.43,0,0,1,8.81,0c1.48.3,2.17.73,2.17,1.34s-.69,1-2.17,1.34A23.38,23.38,0,0,1,509,79Zm-5.51-1.71a20.62,20.62,0,0,0,11,0,20.63,20.63,0,0,0-11,0Z"/><polygon class="cls-18" points="506.77 77.91 507.56 77.24 508.48 78.26 506.77 77.91"/><polygon class="cls-18" points="509.02 77.99 509.7 77.24 510.27 76.52 511.55 77.26 512.48 77.24 512.48 78.74 509.02 78.4 509.02 77.99"/><path class="cls-18" d="M523.18,84.94v-.06a.33.33,0,1,0-.64-.13l-.19.93-.19.93a.33.33,0,1,0,.64.13v-.06a.94.94,0,0,0,.36-1.75Z"/><path class="cls-18" d="M522,84.3a.33.33,0,0,0-.39.26l-.19.93-.19.93a.33.33,0,0,0,.64.13l.19-.93.19-.93A.33.33,0,0,0,522,84.3Z"/><path class="cls-18" d="M517.75,82.1a2.61,2.61,0,0,0-2.1.48l.19.14.54-.06.16.44-.22-.26-.4,0,.36.37.57.23-.05.42.24.24-.44-.15.08-.38-.45-.17-.21.63.11.46-.32-.4.27-.8-.59-.62a2.56,2.56,0,0,0,.31,4.07l1.07-.48.44-1.35V84.3l.24.68-.28.93.45-.13.27-.6.92-.07.1-.25v.45l-.85,0-.3.7-.72.2-.06.21-1,.47a2.21,2.21,0,0,0,.68.24c1.28.26,2.85-.75,4.11-.5l.26-1.25.26-1.25C520.07,83.91,519,82.37,517.75,82.1Z"/><polygon class="cls-18" points="515.39 87.35 514.37 87.52 514.74 88.02 514.99 87.69 515.27 87.69 515.27 87.45 515.39 87.35"/><polygon class="cls-18" points="516.54 87.26 516.32 87.87 516.79 88.11 516.79 87.73 516.61 87.52 516.54 87.26"/><path class="cls-18" d="M507.65,91.14v-.06a.33.33,0,1,1,.65-.07l.1.95.1.95a.33.33,0,1,1-.65.07v-.06a.94.94,0,0,1-.19-1.78Z"/><path class="cls-18" d="M508.91,90.61a.33.33,0,0,1,.36.29l.1.95.1.95a.33.33,0,0,1-.65.07l-.1-.95-.1-.95A.33.33,0,0,1,508.91,90.61Z"/><path class="cls-18" d="M513.33,88.83a2.61,2.61,0,0,1,2,.68l-.2.12-.53-.11-.2.42.24-.24.39.09-.4.33-.59.18v.43l-.26.22.46-.11,0-.39.46-.13.15.65-.15.45.36-.37-.19-.82.65-.56a2.56,2.56,0,0,1-.7,4l-1-.58-.31-1.38.06-.67-.3.66.19,1-.44-.17-.21-.62-.9-.16-.08-.26,0,.45.84.13.23.72.7.27,0,.22,1,.57a2.21,2.21,0,0,1-.7.17c-1.3.14-2.76-1-4-.89l-.13-1.27-.13-1.27C510.84,90.41,512,89,513.33,88.83Z"/><polygon class="cls-18" points="514.89 94.94 514.98 93.92 514.41 94.14 514.67 94.47 514.6 94.74 514.82 94.8 514.89 94.94"/><polygon class="cls-18" points="517.97 93.97 518.07 92.94 517.49 93.17 517.75 93.5 517.68 93.77 517.91 93.83 517.97 93.97"/><polygon class="cls-18" points="516.6 94.44 516.06 94.08 515.72 94.47 516.08 94.56 516.33 94.44 516.6 94.44"/><path class="cls-18" d="M509.34,79,505,78.33l-2.21-1.09,1.34,9.29a2.54,2.54,0,0,0,2.43,2.18l4.49,0a2.54,2.54,0,0,0,2.57-2l1.58-9.44Zm-1.16,6.85-1.36-.1a.62.62,0,0,1-.52-.89l.5-1-.27-.05a.1.1,0,0,1,0-.17l1.16-.86a.15.15,0,0,1,.24.11l.06,1.31a.1.1,0,0,1-.15.08l-.25-.16-.34.82a.11.11,0,0,0,.09.15l.93.09Zm-.07-3.46-.58-.39.77-1.13a.62.62,0,0,1,1,0l.64.95.18-.2a.1.1,0,0,1,.17.05l.17,1.43a.15.15,0,0,1-.22.15l-1.17-.6a.1.1,0,0,1,0-.17l.27-.13-.54-.71a.11.11,0,0,0-.17,0Zm3.21,3-1.11.26.13.24a.1.1,0,0,1-.11.14l-1.4-.35a.15.15,0,0,1-.06-.26l1-.87a.1.1,0,0,1,.16.06l0,.3.85-.25a.11.11,0,0,0,.06-.16l-.52-.78.57-.4.78,1.12A.62.62,0,0,1,511.32,85.37Z"/><rect class="cls-18" x="540.99" y="32.86" width="0.99" height="2.78" rx="0.49" ry="0.49" transform="translate(191.61 448.94) rotate(-53.47)"/><rect class="cls-18" x="541.01" y="29.79" width="2.78" height="0.99" rx="0.49" ry="0.49" transform="translate(-0.35 53.5) rotate(-5.64)"/><rect class="cls-18" x="539.02" y="26.24" width="2.78" height="0.99" rx="0.49" ry="0.49" transform="translate(157.76 409.28) rotate(-47.82)"/><rect class="cls-18" x="536.06" y="24.05" width="0.99" height="2.78" rx="0.49" ry="0.49"/><rect class="cls-18" x="532.33" y="25.68" width="0.99" height="2.78" rx="0.49" ry="0.49" transform="translate(119.82 364.8) rotate(-42.18)"/><rect class="cls-18" x="530.66" y="29.39" width="0.99" height="2.78" rx="0.49" ry="0.49" transform="translate(448.35 556.34) rotate(-84.36)"/><rect class="cls-18" x="531.02" y="34.15" width="2.78" height="0.99" rx="0.49" ry="0.49" transform="translate(84.03 323.81) rotate(-36.54)"/><path class="cls-18" d="M537.53,39.12l-.06.17a.77.77,0,0,1-1.48,0l-.06-.17h1.6m.58-.58h-2.76a.47.47,0,1,0,0,.95h.09a1.36,1.36,0,0,0,2.59,0h.09a.47.47,0,1,0,0-.95Z"/><path class="cls-18" d="M538.1,37.12h-2.76a.47.47,0,0,0,0,.95h2.76a.47.47,0,0,0,0-.95Z"/><path class="cls-18" d="M536.72,27.75a3.22,3.22,0,0,1,3.16,3.2,6.37,6.37,0,0,1-.89,2.6,9.06,9.06,0,0,0-1,2.5h-2.64a9.06,9.06,0,0,0-1-2.5,6.37,6.37,0,0,1-.89-2.6,3.22,3.22,0,0,1,3.16-3.2m0-.58A3.79,3.79,0,0,0,533,31c0,1.89,1.89,3.82,1.89,5.68h3.71c0-1.87,1.89-3.79,1.89-5.68a3.79,3.79,0,0,0-3.75-3.79Z"/><ellipse class="cls-18" cx="537.23" cy="51.22" rx="2.85" ry="4.42" transform="translate(-0.41 4.56) rotate(-0.49)"/><path class="cls-18" d="M540.37,57.35c.31.06.65-.29.95-.51a4.07,4.07,0,0,0,.37-.32,16.07,16.07,0,0,0,5-10.52,1.33,1.33,0,0,1,.61-.94,1.37,1.37,0,0,1,2.08,1.19c-.06,2.66-1.57,6.64-2.13,8-1,2.27-5.18,7.13-5.25,8.9,0,.09,0,.21,0,.38-.06,2.83.14,8.73.08,10C542,75,540.64,92.24,540.64,92.6s2,1.21,1.86,1.93c-.05.22-3.87.2-4.52-.38s-.29-8.53-.29-8.53,0-10.82-.7-10.85c-.49,0-1,10.56-1,10.56s-.53,8.2-.68,8.78-5.5,1.06-5.5.56,2.55-1,2.51-2.15c-.23-6.51-.51-25.5-.59-28.87,0-.16,0-.29,0-.38-.07-1.77-3.35-6.77-4.32-9-.56-1.32-2.07-5.31-2.13-8a1.37,1.37,0,0,1,2.08-1.19A1.33,1.33,0,0,1,528,46a16.07,16.07,0,0,0,5,10.52,4.07,4.07,0,0,0,.37.32c.29.22.64.56.95.51A15.28,15.28,0,0,1,540.37,57.35Z"/><ellipse class="cls-18" cx="518.54" cy="239.61" rx="2.89" ry="4.48" transform="translate(-6.95 15.65) rotate(-1.72)"/><path class="cls-18" d="M526.3,249.93c-1.48-4.63-5.4-5.17-7.84-5.21h-1.32v0c-2.43.15-5.76,1-7.1,5.18a15.72,15.72,0,0,0,.13,9.46,1.05,1.05,0,0,0,1,.81h0a1,1,0,0,0,.94-1c-.31-6.29,1.11-8.39,1.11-8.39s-.21,9.45-.21,10c0,.19.45.37.45.56-.05,9.07-.32,20.42-.32,20.95,0,.85-3.33,1.93-2.79,2.48s5.7-.23,5.85-.93,1.25-18.1,1.79-18.25,1.38,17.71,1.7,18.25,4.81.77,5,.08-2.32-.93-2.4-2.09c0-.69.31-11.43.67-20.19,0-.23.26-.24.27-.47v-1.8h0l0-2.81,0,0c0-2.72,0-5.72,0-5.72s1.42,2.1,1.11,8.39a1,1,0,0,0,.94,1h0a1.05,1.05,0,0,0,1-.81A15.72,15.72,0,0,0,526.3,249.93Z"/><line class="cls-18" x1="559.94" y1="256.91" x2="561.19" y2="257.85"/><ellipse class="cls-18" cx="536.71" cy="239.38" rx="2.86" ry="4.44" transform="translate(-6.93 16.19) rotate(-1.72)"/><line class="cls-18" x1="556.24" y1="256.49" x2="554.57" y2="257.01"/><line class="cls-18" x1="555.04" y1="256.01" x2="558.06" y2="258.68"/><line class="cls-18" x1="556.12" y1="258.34" x2="561.41" y2="256.78"/><line class="cls-18" x1="554.55" y1="253.79" x2="559.63" y2="252.81"/><line class="cls-18" x1="557.59" y1="252.54" x2="561.19" y2="254.45"/><path class="cls-18" d="M558.53,252.93l-2.89.57v3.17l1.62,1.42,3-.89v-3.31Zm-1.54,4.4-.79-.66.48-.14v-.3l-.72.16v-2.45l1,.86Zm.2-2.87-1-.77,2.14-.41v.54h.36v-.45l1.08.58-1.08.25v-.15h-.36v.2Zm2.79,2.22-.44-.29-.22.3.41.27-2.37.6v-2.78l1-.18V255h.34v-.43l1.29-.3Z"/><polygon class="cls-18" points="558.35 255.41 558.77 255.41 558.77 255.8 559.13 256.09 558.89 256.39 558.5 256.09 557.94 256.32 557.81 255.93 558.35 255.72 558.35 255.41"/><path class="cls-18" d="M557.09,259.79h7.1a.54.54,0,0,0,.54-.54v-.33H551.31a.08.08,0,0,0-.08.08v.26a.54.54,0,0,0,.54.54h5.32m-3.18-.31h-.75v-.25h.75Z"/><path class="cls-18" d="M550.75,257.92a1.13,1.13,0,0,0,.79-1.22,1.1,1.1,0,0,0-1.09-.94c-1.45,0-4.21,0-5-.6l-.09-.08v3A13.38,13.38,0,0,0,550.75,257.92Z"/><path class="cls-18" d="M561.25,260.24h-2.37C559.15,261.3,560.75,261.26,561.25,260.24Z"/><path class="cls-18" d="M554.35,281.66c0-.7.38-12.48.74-21.24a.12.12,0,0,0-.12-.12h-3.19a1,1,0,0,1-1-1v-.67a.1.1,0,0,0-.11-.09,17.34,17.34,0,0,1-5.3,0c0,9-.06,23-.06,23.6,0,.84-3.29,1.91-2.76,2.45s5.64-.23,5.79-.92,1.56-18.07,2.09-18.23,1,17.69,1.37,18.23,4.76.77,4.91.08S554.42,282.8,554.35,281.66Z"/><path class="cls-18" d="M559.67,250.4a8.16,8.16,0,0,0-1.7-2.34c-1.4-1.36-3.14-2.95-7.68-3.14-2.37-.1-7.53.51-9.06,5.28-1.12,3.49,0,5.91,2,7.1l.16.09a7.19,7.19,0,0,0,2,.72,17.32,17.32,0,0,0,5.23,0l.73-.08c.17,0,.25-.07.25-.22a.26.26,0,0,0,0-.13.29.29,0,0,0,.18-.41,1.56,1.56,0,0,1,.19-.66.3.3,0,0,0-.11-.23h1.13a.3.3,0,0,0,0-.61h-2.5c-1.45,0-4.21,0-5-.6l-.09-.08a3.58,3.58,0,0,1-.68-.78c-1.12-1.78.69-3.36.69-3.36s0,1.37,0,3.22c.42.72,1.45,1,2.79,1.09a34.9,34.9,0,0,0,3.67,0,.08.08,0,0,0,.08-.08l0-3.18c0-1.09.8-1.45,1.63-1.45h1.93a.06.06,0,0,0,.06-.06c0-.3,0-.53,0-.66a.06.06,0,0,1,.09,0,4.67,4.67,0,0,1,.74.73l0,0h3.15A.06.06,0,0,0,559.67,250.4Z"/><rect class="cls-18" x="552.48" y="256.81" width="0.7" height="1.65" rx="0.07" ry="0.07"/><path class="cls-18" d="M562.43,251.12h-9a.94.94,0,0,0-.94.94v3.06a.08.08,0,0,0,.08.08h.54a.08.08,0,0,0,.08-.08V252a.21.21,0,0,1,.21-.21h9.06a.21.21,0,0,1,.21.21v6.5h.71v-6.4A.94.94,0,0,0,562.43,251.12Z"/><path class="cls-18" d="M552.48,255.2h0Z"/><ellipse class="cls-18" cx="549.87" cy="239.38" rx="2.86" ry="4.44" transform="translate(-6.93 16.59) rotate(-1.72)"/><path class="cls-18" d="M543.54,246.07a17.21,17.21,0,0,0-7-1.15c-2.38,0-6.52.39-8.06,5.16a15.56,15.56,0,0,0,.13,9.37,1,1,0,0,0,1,.8h0a1,1,0,0,0,.93-1c-.31-6.22,1.1-8.3,1.1-8.3s-.21,9.36-.21,9.88c0,.18.45.37.45.55-.05,9-.32,20.22-.32,20.74,0,.84-3.29,1.91-2.76,2.45s5.64-.23,5.79-.92,1.24-17.91,1.78-18.07,1.37,17.53,1.68,18.07,4.76.77,4.91.08-2.3-.92-2.37-2.07c0-.68.31-11.31.66-20,0-.23.26-.24.26-.46l0-4.56a7.37,7.37,0,0,1-1.2-4.77A9.08,9.08,0,0,1,543.54,246.07Z"/><path class="cls-18" d="M554.57,245.2a10.83,10.83,0,0,0,1.66,1,.35.35,0,0,0,.49-.2,1.07,1.07,0,0,0-.17-1.06C555.73,243.92,554,244.69,554.57,245.2Z"/><path class="cls-18" d="M210.44,445.67c-1.16-7.1-7.7-7-11.36-8.85-3-1.57-4-8.64-4-12.91a1.11,1.11,0,0,0-1.11-1.11h0a1.11,1.11,0,0,0-1.11,1,31.21,31.21,0,0,0,.28,9.31c.82,4.28,2.48,7.79,3,10.23.58,2.83-1.88,9.57.34,27.1.11.86-3.37,1.41-3.22,2,.2.8,6.47,0,6.37-.7-.23-1.58.43-14.76.76-15.11s1,7.84,1,8.2.27,6.39.36,7,4.37,1.34,4.76.67c.63-1.07-2.37-1-2.14-2.12.67-3.14.88-6.21,1-13.32.17-8.55-1-12.72-.43-13.66.41-.69,2.73,1.91,2.93,3.84a38.49,38.49,0,0,1,.49,5.16,1.12,1.12,0,0,0,.9,1.19,1.08,1.08,0,0,0,1.22-.76A17.15,17.15,0,0,0,210.44,445.67Z"/><ellipse class="cls-18" cx="202.8" cy="431.19" rx="4.62" ry="3.46" transform="translate(-271.25 479.47) rotate(-70.63)"/><path class="cls-18" d="M153,472.52a.2.2,0,0,1-.2-.2V427.45a.2.2,0,0,1,.4,0v44.87A.2.2,0,0,1,153,472.52Z"/><path class="cls-18" d="M161,461.67a.2.2,0,0,0,.07-.15V427.45a.2.2,0,0,0-.4,0v34.07a.2.2,0,0,0,.32.15Z"/><path class="cls-18" d="M160.68,464.78a.2.2,0,0,0,0,.13v7.4a.2.2,0,0,0,.4,0v-7.41a.2.2,0,0,0-.35-.13Z"/><path class="cls-18" d="M168.77,457.21a.2.2,0,0,0,.11-.18V427.45a.2.2,0,0,0-.4,0V457a.2.2,0,0,0,.29.18Z"/><path class="cls-18" d="M168.58,459.58a.2.2,0,0,0-.1.17v12.56a.2.2,0,0,0,.4,0V459.75a.2.2,0,0,0-.3-.17Z"/><path class="cls-18" d="M176.67,449.34l.06-.14V427.45a.2.2,0,0,0-.4,0v21.76a.2.2,0,0,0,.34.13Z"/><path class="cls-18" d="M176.38,453.39a.31.31,0,0,0-.06.18v18.74a.2.2,0,1,0,.4,0V453.49a.19.19,0,0,0-.34-.11Z"/><path class="cls-18" d="M184.51,440.65l.06-.14V427.45a.2.2,0,0,0-.4,0v13.06a.2.2,0,0,0,.34.14Z"/><path class="cls-18" d="M184.26,443.32a.2.2,0,0,0-.09.16v28.84a.2.2,0,0,0,.4,0V443.48a.2.2,0,0,0-.31-.16Z"/><path class="cls-18" d="M192.15,472.52H153a.2.2,0,0,1,0-.4h39.17a.2.2,0,1,1,0,.4Z"/><path class="cls-18" d="M158.12,464.89a.2.2,0,0,0-.18-.29h-5a.2.2,0,0,0,0,.4h5a.2.2,0,0,0,.18-.11Z"/><path class="cls-18" d="M192.15,464.6H160.92a.2.2,0,0,0-.15.07h0a.2.2,0,0,0,.15.33h31.24a.2.2,0,1,0,0-.4Z"/><path class="cls-18" d="M168.26,457.47a.2.2,0,0,0-.09-.38H153a.2.2,0,0,0,0,.4h15.17l.09,0Z"/><path class="cls-18" d="M192.15,457.09H172.76a.2.2,0,0,0-.13,0h0a.2.2,0,0,0,.13.35h19.39a.2.2,0,1,0,0-.4Z"/><path class="cls-18" d="M176.21,449.9a.2.2,0,0,0-.16-.32H153a.2.2,0,1,0,0,.4H176a.2.2,0,0,0,.16-.08Z"/><path class="cls-18" d="M192.15,449.58h-13a.2.2,0,0,0-.16.08h0a.2.2,0,0,0,.16.32h13a.2.2,0,1,0,0-.4Z"/><path class="cls-18" d="M181.93,442.43a.2.2,0,0,0-.12-.36H153a.2.2,0,1,0,0,.4h28.83a.2.2,0,0,0,.12,0Z"/><path class="cls-18" d="M192.15,442.07H186a.2.2,0,0,0-.13,0h0a.2.2,0,0,0,.13.35h6.18a.2.2,0,1,0,0-.4Z"/><path class="cls-18" d="M188.06,434.83a.2.2,0,0,0-.18-.28H153a.2.2,0,1,0,0,.4h34.89a.2.2,0,0,0,.18-.12Z"/><path class="cls-18" d="M192.15,434.56h-1.68a.2.2,0,0,0-.19.13h0a.2.2,0,0,0,.19.27h1.68a.2.2,0,1,0,0-.4Z"/><path class="cls-18" d="M154.66,470.24a.2.2,0,0,1-.15-.33c2.12-2.45,7.59-8.66,7.65-8.72l0,0,0,0L174,455.33l6.56-10.71,6.75-5.28,1.86-6.78a.2.2,0,1,1,.39.11l-1.9,6.9-6.8,5.32-6.58,10.75-11.89,5.84c-.42.47-5.57,6.32-7.62,8.69A.2.2,0,0,1,154.66,470.24Z"/><ellipse class="cls-18" cx="169.44" cy="248.55" rx="5.07" ry="3.27" transform="translate(-101.59 379.05) rotate(-81.43)"/><ellipse class="cls-18" cx="198.2" cy="234.03" rx="3.54" ry="2.28" transform="translate(-38.7 428.79) rotate(-89.16)"/><path class="cls-18" d="M185.11,246.38l-3.17,11.19a.61.61,0,0,0,.38.74l1.9.7a.61.61,0,0,0,.42,0l1.1-.4a.61.61,0,0,1,.29,0l8.28,1.18a.61.61,0,0,0,.64-.34l2.38-4.88a.61.61,0,0,0-.26-.81c-1.92-1-8.5-4.58-8.5-5.29,0-.4,0-.75,0-1a.61.61,0,0,0-.4-.61l-2.29-.85A.61.61,0,0,0,185.11,246.38Z"/><rect class="cls-18" x="185" y="260.05" width="6.63" height="0.67" rx="0.34" ry="0.34"/><rect class="cls-18" x="187.3" y="258.32" width="2.36" height="2.07"/><rect class="cls-18" x="176.97" y="259.88" width="6.11" height="0.62" transform="translate(-22.55 17.15) rotate(-5.13)"/><path class="cls-18" d="M179.68,262.34h-4.09a.64.64,0,0,1,0-1.28h25.85a.64.64,0,0,1,0,1.28h-3v22.19H179.68Zm18.38-.39h3.38a.25.25,0,0,0,0-.51H175.58a.25.25,0,0,0,0,.51h4.48v22.19h18Z"/><rect class="cls-18" x="157.29" y="272.22" width="11.03" height="2.75" rx="0.78" ry="0.78" transform="translate(13.2 -7.44) rotate(2.73)"/><rect class="cls-18" x="162.34" y="273.07" width="0.96" height="10.59"/><path class="cls-18" d="M169.78,272.15c-1.38-.41-6-.49-9.47-1.59s-1-13.3,1.64-15.44c3.28-2.65,11.14,1.71,12.26,2a18.31,18.31,0,0,0,4.58-.36,1.3,1.3,0,0,1,1.46,1h0a1.3,1.3,0,0,1-.94,1.59c-1.26.32-3.17.8-4.28,1.07-1.78.43-5.44-1.25-6.3-.78s-1.12,5.79-1,6.57,5.15,1.66,6.29,3.11c.72.92,1,12.33,1,12.33.54,1,2.94,1.37,2.64,2.36s-5.1-.24-5.4-.73S171.15,272.56,169.78,272.15Z"/><polygon class="cls-18" points="166.97 284.23 162.91 283.86 158.92 284.26 158.84 283.48 162.83 283.08 166.89 283.45 166.97 284.23"/><circle class="cls-18" cx="158.77" cy="283.87" r="0.94"/><circle class="cls-18" cx="166.97" cy="283.87" r="0.94"/><path class="cls-18" d="M198.06,243a7.57,7.57,0,0,1-5.54-2.4,7.59,7.59,0,0,1,11.08,0A7.57,7.57,0,0,1,198.06,243Z"/><ellipse class="cls-18" cx="181.88" cy="237.01" rx="2.04" ry="1.31" transform="translate(-57.77 415.41) rotate(-89.16)"/><path class="cls-18" d="M181.79,242.17a4.35,4.35,0,0,1-3.18-1.38,4.36,4.36,0,0,1,6.37,0A4.35,4.35,0,0,1,181.79,242.17Z"/><ellipse class="cls-18" cx="185.71" cy="227.71" rx="1.2" ry="0.78" transform="translate(-44.69 410.07) rotate(-89.16)"/><path class="cls-18" d="M185.66,230.76a2.57,2.57,0,0,1-1.88-.82,2.58,2.58,0,0,1,3.77,0A2.57,2.57,0,0,1,185.66,230.76Z"/><path class="cls-18" d="M190.4,249.08a.19.19,0,0,1-.07-.24l3-6.64a8.3,8.3,0,1,1,2.54,1.2L190.64,249a.19.19,0,0,1-.25,0Zm5.42-6.08a7.9,7.9,0,1,0-2.18-1,.19.19,0,0,1,.07.24l-2.54,5.71,4.46-4.86a.19.19,0,0,1,.14-.06Z"/><path class="cls-18" d="M185.55,244.51l-1.5-2.3a5,5,0,1,1,1.18-.82l.67,3a.19.19,0,0,1-.11.22l-.08,0A.19.19,0,0,1,185.55,244.51Zm-8.4-6.8A4.65,4.65,0,0,0,184,241.8a.19.19,0,0,1,.25.06l1,1.54-.46-2a.19.19,0,0,1,.06-.19,4.65,4.65,0,1,0-7.74-3.47Z"/><path class="cls-18" d="M187.69,234.12l-1.49-2.92a3.22,3.22,0,1,1,1.13-.41l.73,3.19a.19.19,0,0,1-.12.22h-.07A.19.19,0,0,1,187.69,234.12ZM182.85,228a2.83,2.83,0,0,0,3.41,2.77.19.19,0,0,1,.21.1l.86,1.67-.42-1.83a.19.19,0,0,1,.1-.21,2.83,2.83,0,1,0-4.16-2.5Z"/><ellipse class="cls-18" cx="349" cy="240.08" rx="5.38" ry="3.47" transform="translate(25.56 513.62) rotate(-74.75)"/><path class="cls-18" d="M363.94,284.81H351.35V260.38h-4.29a.74.74,0,0,1,0-1.47h21.16a.74.74,0,1,1,0,1.47h-4.29Zm-12.07-.52h11.55V259.86h4.81a.21.21,0,1,0,0-.43H347.07a.21.21,0,0,0,0,.43h4.81Z"/><path class="cls-18" d="M335.53,284.81a1.25,1.25,0,0,1-1.13-.71l-3.18-.3-3.29.33a1.26,1.26,0,1,1-.12-1.35l2.54-.26v-8.61l-5.13-.24a1.14,1.14,0,0,1-1.08-1.11,5.23,5.23,0,0,1-1.36-.08.81.81,0,0,1-.51-.4c-1.47-2.19-2.77-15.88-2.25-18.21a2.58,2.58,0,0,1,2.9-1.64,1.49,1.49,0,0,1,1.33,1.73c-.24,2.2.47,8.66,1.35,16.29l10,.53a1.14,1.14,0,0,1,1.08,1.19l-.06,1.16a1.14,1.14,0,0,1-1.19,1.08l-3.57-.22v8.52l2.66.25a1.24,1.24,0,0,1,1-.47,1.25,1.25,0,1,1,0,2.51Zm-4.31-1.53,3.56.33.05.17a.73.73,0,1,0,.07-.6l-.08.14-3.45-.32v-9.55l4.12.25a.62.62,0,0,0,.64-.59l.06-1.16a.62.62,0,0,0-.59-.64h0l-10.45-.55,0-.22c-1.07-9.19-1.61-14.56-1.38-16.62a1,1,0,0,0-.9-1.15,2.07,2.07,0,0,0-2.3,1.24,44.26,44.26,0,0,0,.37,8.91c.5,4.53,1.18,7.93,1.79,8.87.11.18.18.2.18.2a3.88,3.88,0,0,0,1.48,0l.34-.08,0,.58a.62.62,0,0,0,.59.64l5.63.27V283l-3.33.34-.08-.15a.72.72,0,0,0-.63-.37.73.73,0,1,0,.69,1l.06-.16Z"/><path class="cls-18" d="M358.2,253a19.12,19.12,0,0,1-4.7-1c-1-.65-7.67-7.51-11.82-5.84-2.8,1.13-7.13,11.31-6.86,15.31.63,4.24,3.48,11,3.48,11l.48,10.73a1,1,0,0,0,.89,1c1.51.2,4.51.53,4.64-.12.17-.87-2.7-1.22-2.61-2.52s1.83-9.31,1.74-10.71-.1-3.8-.52-6.7a9.49,9.49,0,0,0,1.1,0c.7-.09,1.35-5.45,2.66-10.63a2.06,2.06,0,0,1,.49-.6c.88-.55,4.21,2.63,6.15,2.74,1.22.07,3.3.17,4.68.24a1.38,1.38,0,0,0,1.45-1.41A1.42,1.42,0,0,0,358.2,253Z"/><ellipse class="cls-18" cx="367.57" cy="240.6" rx="3.47" ry="5.38" transform="translate(-50.35 105.18) rotate(-15.25)"/><polygon class="cls-18" points="347.13 253.35 347.71 256.13 347.13 257.18 346.48 256.48 347.13 253.35"/><path class="cls-18" d="M379.95,271.6s4.35,8.39,4.09,8.91-2.87,3.4-3.4,3,.7-2.87.7-3-2.09-3-2.09-3l.17-4.7Z"/><path class="cls-18" d="M370.49,284.68h-6v-1.3h1.91v-8.1h-1.92v-3.4h7.27a1.7,1.7,0,0,1,0,3.4H368v8.1h2.47Zm-5.51-.52h5v-.26H367.5v-9.14h4.22a1.18,1.18,0,1,0,0-2.35H365v2.35h1.92v9.14H365Z"/><path class="cls-18" d="M375.68,246.13c-4.15-1.67-10.78,5.19-11.82,5.84a18.48,18.48,0,0,1-4.57,1,1.71,1.71,0,0,1,.71,1.45,2.51,2.51,0,0,1-.59,1.32c1.38-.06,3.43-.16,4.64-.24,1.94-.12,5.27-3.29,6.15-2.74a2.06,2.06,0,0,1,.49.6c1.31,5.18,2.56,9.62,3.26,9.71l0,7.66c-.09,1.39,1,9.14,1.07,10.45s-2.79,2.3-2.61,3.17c.12.62,3.17.16,4.93-.15a1.56,1.56,0,0,0,1.29-1.47l.47-10.35s2.86-6.73,3.48-11C382.81,257.44,378.47,247.26,375.68,246.13Z"/><path class="cls-18" d="M382.68,271.62h-9.81a1.23,1.23,0,0,1-1.23-1.23v-6a1.23,1.23,0,0,1,1.23-1.23h9.81a1.23,1.23,0,0,1,1.23,1.23v6A1.23,1.23,0,0,1,382.68,271.62Zm-9.81-8a.71.71,0,0,0-.71.71v6a.71.71,0,0,0,.71.71h9.81a.71.71,0,0,0,.71-.71v-6a.71.71,0,0,0-.71-.71Z"/><path class="cls-18" d="M369.57,467.22a4.87,4.87,0,0,1-.67-1.75S368.69,466.84,369.57,467.22Z"/><path class="cls-18" d="M376.86,465.34s.31,1.9,1.64,2A6.74,6.74,0,0,1,376.86,465.34Z"/><path class="cls-18" d="M362.57,467.32a7.6,7.6,0,0,1-1-2.74S361.2,466.73,362.57,467.32Z"/><path class="cls-18" d="M348.32,428.23c1.74.16,3.25-1.81,3.36-4.39s-1.2-4.8-2.95-5-3.25,1.81-3.36,4.39S346.58,428.08,348.32,428.23Z"/><path class="cls-18" d="M342.75,442.27v.43A1.12,1.12,0,0,0,342.75,442.27Z"/><path class="cls-18" d="M353.68,441.39l0-.54A1.09,1.09,0,0,0,353.68,441.39Z"/><path class="cls-18" d="M353.68,441.39l0-.54A1.09,1.09,0,0,0,353.68,441.39Z"/><path class="cls-18" d="M342.75,442.27v.43A1.12,1.12,0,0,0,342.75,442.27Z"/><path class="cls-18" d="M349.22,429.51l-.37.63h-1l-.48-.75c-6.54.55-10.92,4.17-11.07,7s2.57,5.78,4.49,7.09a1.33,1.33,0,0,0,1.92-.46,1.13,1.13,0,0,0,.1-.33v-.43a1.2,1.2,0,0,0-.42-.67c-1.27-1-3-3-3-4.27,0-1.68,2.79-2.77,3.15-2.32s.2,4.84.2,4.84c0,.72,0,1.54,0,2.42a1.12,1.12,0,0,1,0,.43c.14,7.23.34,18.68.52,23.47,0,1.12-2.72,1.66-2.72,2.18s5.8,0,6-.56.73-8.9.73-8.9.51-10.73,1-10.71c.81,0,.76,11,.76,11s-.39,8.07.31,8.65,4.85.61,4.9.39c.18-.73-2-1.59-2-2s1.43-17.79,1.5-19.33c0-.57,0-2.15-.09-3.94a1.09,1.09,0,0,1,0-.54c-.06-1.75-.11-3.62-.07-4.93,0-1.69.08-2.26.62-2.5s3.58,1,3.61,2.59c0,1.13-1.91,3.06-3.62,4.09a1.17,1.17,0,0,0-.55.75l0,.54a1.13,1.13,0,0,0,.27.46l0,0a1.31,1.31,0,0,0,1.56.22c2-1.11,5.54-4.31,5.45-6.24C360.85,434.68,357.71,429.72,349.22,429.51Zm-.9,7.84L347.14,436l1.09-5.44h.27l1,5.42Z"/><path class="cls-18" d="M371.51,442.35a3.39,3.39,0,0,0-2.68.72A2.08,2.08,0,0,1,371.51,442.35Z"/><path class="cls-18" d="M373.89,461.73l-.2-.16a2.4,2.4,0,0,0-.29-.18,5,5,0,0,0-.61-.27c-.3-.12-.48-.2-.51-.31s.05-.27.4-.47a1.15,1.15,0,0,0,.74-.89.7.7,0,0,0-.19-.54,2.22,2.22,0,0,0-1.53-.42l-.4,0c-1,0-1.19.4-1.22.53a.43.43,0,0,0,.18.49,1.7,1.7,0,0,1,.81,1.07c0,.22,0,.24-.38.34a4.39,4.39,0,0,0-.47.14l-.68.38,0,0a5,5,0,0,0-1.51,2.91c0,.08,0,.15-.05.24l-.09,1h0c0,2.34,2.12,3.17,4,3.17h0a3.57,3.57,0,0,0,1.11-.14,3,3,0,0,0,2-2.68l0-.22c0-.25,0-.38,0-.42a8.72,8.72,0,0,0-.07-1.21A3.64,3.64,0,0,0,373.89,461.73Zm.75,4v.21a2.57,2.57,0,0,1-1.74,2.37,3.21,3.21,0,0,1-1,.12h0c-.6,0-3.59-.13-3.65-2.79l.09-1,0-.21a4.8,4.8,0,0,1,1.36-2.69l.62-.35a4.15,4.15,0,0,1,.42-.12c.37-.09.79-.2.66-.79a2.09,2.09,0,0,0-1-1.31.06.06,0,0,1,0-.07c0-.1.25-.29.86-.26h.41a1.87,1.87,0,0,1,1.25.3.32.32,0,0,1,.09.26c0,.27-.22.4-.55.59s-.7.39-.58.89c.07.32.38.44.74.58a4.72,4.72,0,0,1,.56.26,2.11,2.11,0,0,1,.24.15l.17.14a3.29,3.29,0,0,1,1,2.16,8.33,8.33,0,0,1,.07,1.16S374.65,465.58,374.64,465.73Z"/><path class="cls-18" d="M369.23,463.41a3.39,3.39,0,0,1,2.16-1.74A2.08,2.08,0,0,0,369.23,463.41Z"/><path class="cls-18" d="M372,463.8l-.34-.07,0-.48-.28,0,0,.49a1,1,0,0,0-.59.17.61.61,0,0,0-.26.45.57.57,0,0,0,.1.4.83.83,0,0,0,.41.27l.11,0,.1,0-.06.71-.22-.05-.21-.08-.16-.09-.11-.08h-.08l0,.41h0a1.75,1.75,0,0,0,.36.15,2.24,2.24,0,0,0,.41.08l-.05.64.28,0,.05-.65a1,1,0,0,0,.57-.17.61.61,0,0,0,.27-.47.54.54,0,0,0-.12-.42.87.87,0,0,0-.41-.24l-.11,0-.09,0,.06-.7a1.09,1.09,0,0,1,.33.1l.26.17h.08l0-.41h0A1.94,1.94,0,0,0,372,463.8Zm-.7.89a.75.75,0,0,1-.29-.15.27.27,0,0,1-.07-.23.25.25,0,0,1,.13-.21.59.59,0,0,1,.28-.07Zm.52.57a.25.25,0,0,1,.07.23.27.27,0,0,1-.12.23.58.58,0,0,1-.28.07l.06-.66A.76.76,0,0,1,371.82,465.26Z"/><path class="cls-18" d="M379.31,459.06c.63,1.85,2.6,2.07,3.49,2.07h0a4.58,4.58,0,0,0,1.85-.33,3,3,0,0,0,1.64-2.91v-.21c0-.26,0-.39,0-.42a8.75,8.75,0,0,0-.23-1.19,3.64,3.64,0,0,0-1.37-2.24l-.21-.13a2.37,2.37,0,0,0-.31-.14,5,5,0,0,0-.64-.2c-.31-.08-.5-.13-.54-.25s0-.28.34-.52a1.15,1.15,0,0,0,.62-1c0-.29-.2-.78-1.26-.78a5,5,0,0,0-1,.1c-1,.09-1.12.54-1.15.68a.44.44,0,0,0,.24.48,1.7,1.7,0,0,1,.93,1c.07.21.07.23-.33.39a4.32,4.32,0,0,0-.45.2l-.63.46,0,0a5,5,0,0,0-1.13,3.08c0,.08,0,.15,0,.25l0,1a.73.73,0,0,1,.14.28A.84.84,0,0,1,379.31,459.06Zm.22-1.84a4.8,4.8,0,0,1,1-2.84l.58-.42a4.16,4.16,0,0,1,.4-.17c.35-.14.75-.29.55-.87a2.09,2.09,0,0,0-1.13-1.17.05.05,0,0,1,0-.07c0-.1.21-.31.82-.37h0a4.67,4.67,0,0,1,.89-.1c.57,0,.87.14.88.42s-.17.43-.47.65-.64.48-.47,1c.11.31.43.39.8.48a4.68,4.68,0,0,1,.59.18,2,2,0,0,1,.26.12l.19.12a3.29,3.29,0,0,1,1.22,2,8.33,8.33,0,0,1,.22,1.14s0,.25,0,.4v.2a2.57,2.57,0,0,1-1.43,2.57,4.34,4.34,0,0,1-1.68.29h0c-1.08,0-2.95-.31-3.26-2.36l0-1C379.52,457.36,379.52,457.29,379.53,457.22Z"/><path class="cls-18" d="M381,459.73a7.17,7.17,0,0,1-1.3-2.44S379.69,459.34,381,459.73Z"/><path class="cls-18" d="M382.11,453.88a2.08,2.08,0,0,0-1.92,2A3.39,3.39,0,0,1,382.11,453.88Z"/><path class="cls-18" d="M381.65,456.82a.57.57,0,0,0,.15.38.83.83,0,0,0,.44.21l.12,0,.11,0,0,.71-.22,0-.22-.05-.17-.07-.12-.06h-.08l0,.41h0a1.75,1.75,0,0,0,.37.1,2.24,2.24,0,0,0,.42,0l0,.64h.28l0-.65a1,1,0,0,0,.54-.24.61.61,0,0,0,.21-.5.54.54,0,0,0-.17-.4.87.87,0,0,0-.44-.19l-.11,0-.09,0,0-.7a1.09,1.09,0,0,1,.34.06l.28.13h.08l0-.41h0l-.33-.08-.34,0,0-.48h-.28l0,.49a1,1,0,0,0-.56.24A.61.61,0,0,0,381.65,456.82Zm1.39.76a.25.25,0,0,1,.1.21.27.27,0,0,1-.09.24.58.58,0,0,1-.27.11l0-.66A.76.76,0,0,1,383,457.58Zm-.88-1.05a.59.59,0,0,1,.26-.11l0,.66a.75.75,0,0,1-.3-.11.27.27,0,0,1-.09-.22A.25.25,0,0,1,382.16,456.53Z"/><path class="cls-18" d="M378.63,440.77a.74.74,0,0,0-.74-.45,3.68,3.68,0,0,0-1.57.57c-.88.41-.87.89-.85,1a.44.44,0,0,0,.39.37,1.7,1.7,0,0,1,1.2.58c.14.17.14.2-.18.48a4.38,4.38,0,0,0-.36.34l-.43.64v0a5,5,0,0,0,0,3.28l.06.22.38.94v0a2.89,2.89,0,0,0,2.67,1.6,5.29,5.29,0,0,0,3.29-1.26,3,3,0,0,0,.54-3.3l-.09-.2-.17-.38a8.72,8.72,0,0,0-.62-1,3.65,3.65,0,0,0-2.06-1.64l-.25-.05a2.4,2.4,0,0,0-.34,0,4.83,4.83,0,0,0-.66,0l-.34,0c-.17,0-.23,0-.26-.07s-.08-.27.14-.6A1.15,1.15,0,0,0,378.63,440.77Zm-.57.92c-.2.3-.44.67-.12,1.06a.68.68,0,0,0,.54.2l.38,0c.16,0,.33,0,.52,0h.1l.29,0,.21,0a3.29,3.29,0,0,1,1.84,1.49,8.33,8.33,0,0,1,.59,1l.16.36.08.19a2.57,2.57,0,0,1-.47,2.9,4.94,4.94,0,0,1-3,1.14,2.5,2.5,0,0,1-2.33-1.4l-.36-.91-.05-.2a4.8,4.8,0,0,1,0-3l.4-.6a4.12,4.12,0,0,1,.32-.3c.29-.25.61-.53.23-1a2.09,2.09,0,0,0-1.46-.72s0,0-.05-.05.09-.37.64-.62h0a3.31,3.31,0,0,1,1.38-.52c.27,0,.35.12.39.22S378.27,441.38,378.06,441.69Z"/><path class="cls-18" d="M377.65,443.72a2.08,2.08,0,0,0-1.12,2.54A3.39,3.39,0,0,1,377.65,443.72Z"/><path class="cls-18" d="M378.55,446.74a.83.83,0,0,0,.49,0l.12,0,.11,0,.27.66-.22.06-.22,0h-.18l-.14,0h0l-.07,0,.16.38h0a1.76,1.76,0,0,0,.38,0,2.25,2.25,0,0,0,.4-.12l.24.59.26-.11-.25-.6a1,1,0,0,0,.43-.42.61.61,0,0,0,0-.54.54.54,0,0,0-.3-.32.87.87,0,0,0-.47,0l-.11,0-.09,0-.27-.65a1.09,1.09,0,0,1,.34-.06l.31,0h0l.06,0-.15-.38h0l-.33,0-.33.09-.18-.45-.26.11.19.45a1,1,0,0,0-.44.42.61.61,0,0,0,0,.52A.57.57,0,0,0,378.55,446.74Zm1.29-.06a.25.25,0,0,1,.17.17.27.27,0,0,1,0,.26.58.58,0,0,1-.22.2l-.25-.61A.76.76,0,0,1,379.84,446.68Zm-1.19-.69a.59.59,0,0,1,.21-.19l.25.61a.75.75,0,0,1-.32,0,.27.27,0,0,1-.16-.17A.25.25,0,0,1,378.66,446Z"/><path class="cls-18" d="M376.66,447.53s.64,1.95,2.05,1.85A7.17,7.17,0,0,1,376.66,447.53Z"/><path class="cls-18" d="M391.86,459.7c-.18-.67-1.27-1.21-1.45-1.3a1.71,1.71,0,0,0-.88-.32.59.59,0,0,0-.52.25.43.43,0,0,0,0,.42,1.7,1.7,0,0,1,.15,1.33c-.06.18-.11.18-.16.18a1.46,1.46,0,0,1-.34-.08,4.31,4.31,0,0,0-.47-.12l-.79,0h0a5,5,0,0,0-2.78,1.74l-.17.18-.58.81v0a2.84,2.84,0,0,0-.14,2.73,5.18,5.18,0,0,0,3,2.49,3.5,3.5,0,0,0,.62.06,3.05,3.05,0,0,0,2.45-1.36l.11-.16.24-.36a8.73,8.73,0,0,0,.55-1.08,3.65,3.65,0,0,0,.29-2.61c0-.08-.05-.15-.09-.24a2.35,2.35,0,0,0-.16-.3,5,5,0,0,0-.38-.55c-.2-.25-.31-.41-.28-.53s.12-.2.45-.2h.29a1,1,0,0,0,.94-.39A.7.7,0,0,0,391.86,459.7Zm-.42.38a.68.68,0,0,1-.63.23h-.29a.74.74,0,0,0-.81.47c-.1.31.11.57.34.87a4.7,4.7,0,0,1,.36.51,2,2,0,0,1,.13.25c0,.07.05.13.08.21a3.29,3.29,0,0,1-.27,2.35,8.4,8.4,0,0,1-.53,1l-.23.34-.11.16a2.65,2.65,0,0,1-2.15,1.2,3.12,3.12,0,0,1-.56-.05,4.89,4.89,0,0,1-2.75-2.28,2.48,2.48,0,0,1,.12-2.38l.57-.78.15-.16a4.8,4.8,0,0,1,2.54-1.62l.72,0a4.16,4.16,0,0,1,.42.11,1.65,1.65,0,0,0,.45.09.55.55,0,0,0,.52-.44,2.09,2.09,0,0,0-.17-1.62.05.05,0,0,1,0-.05.23.23,0,0,1,.2-.07,1.33,1.33,0,0,1,.69.26h0c.31.14,1.14.62,1.25,1.06A.32.32,0,0,1,391.44,460.09Z"/><path class="cls-18" d="M384.51,465a7.17,7.17,0,0,1,.47-2.72S383.67,463.83,384.51,465Z"/><path class="cls-18" d="M388.3,463.32a2.08,2.08,0,0,0-.25-.23l.28-.39-.23-.16-.28.4a1,1,0,0,0-.59-.15.61.61,0,0,0-.45.26.57.57,0,0,0-.11.39.83.83,0,0,0,.22.44l.08.09.07.08-.41.58-.16-.16-.14-.17-.09-.16-.06-.12h0l-.06,0-.24.33v0a1.75,1.75,0,0,0,.23.31,2.24,2.24,0,0,0,.31.28l-.37.52.23.16.38-.53a1,1,0,0,0,.58.14.61.61,0,0,0,.47-.26.54.54,0,0,0,.11-.42.87.87,0,0,0-.23-.42l-.07-.08-.06-.07.41-.57a1.09,1.09,0,0,1,.23.25,2.24,2.24,0,0,1,.14.28h0l.06,0,.24-.33v0A1.94,1.94,0,0,0,388.3,463.32Zm-1,1.4a.27.27,0,0,1-.22.13.58.58,0,0,1-.28-.08l.38-.54a.76.76,0,0,1,.17.25A.25.25,0,0,1,387.35,464.72Zm-.1-1a.75.75,0,0,1-.17-.27.27.27,0,0,1,.06-.23.25.25,0,0,1,.22-.11.59.59,0,0,1,.27.08Z"/><path class="cls-18" d="M386.31,461.63a3.39,3.39,0,0,1,2.75-.4A2.08,2.08,0,0,0,386.31,461.63Z"/><path class="cls-18" d="M371.55,437.32c.34,2.45,2.67,2.72,3.66,2.72h0a4.54,4.54,0,0,0,1.81-.32,3,3,0,0,0,1.66-2.9v-.23c0-.25,0-.37,0-.41a8.73,8.73,0,0,0-.22-1.2,3.65,3.65,0,0,0-1.36-2.25l-.21-.13a2.38,2.38,0,0,0-.31-.15,5,5,0,0,0-.63-.2c-.31-.08-.5-.14-.54-.25s0-.28.34-.51a1.15,1.15,0,0,0,.63-1c0-.3-.2-.79-1.28-.79a5,5,0,0,0-.93.1c-1,.08-1.12.53-1.15.67a.44.44,0,0,0,.23.48,1.7,1.7,0,0,1,.93,1c.07.21.07.23-.34.39a4.39,4.39,0,0,0-.45.19l-.63.45,0,0a5,5,0,0,0-1.15,3.07c0,.08,0,.15,0,.25l0,1Zm.37-1.22a4.8,4.8,0,0,1,1-2.83l.58-.42a4.13,4.13,0,0,1,.4-.17c.35-.13.76-.29.56-.86a2.09,2.09,0,0,0-1.12-1.18.05.05,0,0,1,0-.07c0-.1.22-.31.82-.36h0a4.69,4.69,0,0,1,.87-.09c.59,0,.89.14.9.43s-.17.43-.47.65-.65.47-.48.95c.11.31.43.39.8.49a4.7,4.7,0,0,1,.59.19l.26.12.19.12a3.29,3.29,0,0,1,1.21,2,8.36,8.36,0,0,1,.21,1.14s0,.24,0,.38v.22a2.57,2.57,0,0,1-1.45,2.55,4.18,4.18,0,0,1-1.63.27h0c-1.1,0-3-.31-3.28-2.38l0-1C371.91,436.24,371.92,436.17,371.92,436.1Z"/><path class="cls-18" d="M374,435.71a.57.57,0,0,0,.15.38.83.83,0,0,0,.44.22l.12,0,.11,0,0,.71-.22,0-.22-.05-.17-.07-.12-.07h-.08v.41h0a1.75,1.75,0,0,0,.37.1,2.24,2.24,0,0,0,.42,0l0,.64h.28l0-.65a1,1,0,0,0,.55-.24.61.61,0,0,0,.21-.49.54.54,0,0,0-.17-.4.87.87,0,0,0-.44-.19l-.11,0-.09,0,0-.7a1.09,1.09,0,0,1,.34.06l.28.13h.08v-.41h0a1.94,1.94,0,0,0-.33-.08l-.34,0,0-.48h-.28l0,.49a1,1,0,0,0-.56.24A.61.61,0,0,0,374,435.71Zm1.38.77a.25.25,0,0,1,.1.22.27.27,0,0,1-.09.24.58.58,0,0,1-.27.11l0-.66A.76.76,0,0,1,375.43,436.48Zm-.87-1.06a.59.59,0,0,1,.26-.1l0,.66a.75.75,0,0,1-.3-.11.27.27,0,0,1-.09-.22A.25.25,0,0,1,374.56,435.42Z"/><path class="cls-18" d="M374.53,432.78a2.08,2.08,0,0,0-1.94,2A3.39,3.39,0,0,1,374.53,432.78Z"/><path class="cls-18" d="M373.42,438.62a7.17,7.17,0,0,1-1.28-2.45S372.06,438.22,373.42,438.62Z"/><path class="cls-18" d="M370,449.37h.24a3,3,0,0,0,2.66-1.66l.09-.18.2-.38a8.71,8.71,0,0,0,.42-1.14,3.65,3.65,0,0,0,0-2.63c0-.08-.07-.14-.12-.23a2.42,2.42,0,0,0-.19-.28,5,5,0,0,0-.44-.5c-.22-.23-.36-.37-.34-.49s.16-.23.56-.27a1.15,1.15,0,0,0,1-.52.7.7,0,0,0,0-.61c-.26-.64-1.41-1.06-1.59-1.12a1.88,1.88,0,0,0-.8-.22.64.64,0,0,0-.59.29.43.43,0,0,0,0,.44,1.7,1.7,0,0,1,.31,1.3c0,.2-.1.2-.18.2a2,2,0,0,1-.31,0,4.36,4.36,0,0,0-.49-.06h0l-.76.07h0a5,5,0,0,0-2.55,2.05l-.14.2-.49.87v0a2.84,2.84,0,0,0,.18,2.73A5.18,5.18,0,0,0,370,449.37Zm-3.13-4.7.47-.84.13-.17a4.8,4.8,0,0,1,2.33-1.91l.71-.07a4.1,4.1,0,0,1,.43.06,2.25,2.25,0,0,0,.37,0c.3,0,.48-.16.55-.5a2.09,2.09,0,0,0-.36-1.59.05.05,0,0,1,0-.06s.1-.09.26-.09a1.51,1.51,0,0,1,.64.18h0c.32.11,1.2.48,1.37.9a.32.32,0,0,1,0,.29c-.13.24-.37.28-.74.32s-.8.08-.89.57c-.06.32.17.56.44.83a4.7,4.7,0,0,1,.41.46,2.09,2.09,0,0,1,.16.23l.1.2a3.29,3.29,0,0,1,0,2.37,8.34,8.34,0,0,1-.4,1.09l-.19.36-.09.17a2.61,2.61,0,0,1-2.33,1.47H370a4.88,4.88,0,0,1-3-1.94A2.48,2.48,0,0,1,366.89,444.68Z"/><path class="cls-18" d="M369,446.05a2.24,2.24,0,0,0,.34.24l-.31.56.24.13.31-.57a1,1,0,0,0,.59.07.61.61,0,0,0,.43-.32.54.54,0,0,0,.06-.43.87.87,0,0,0-.28-.39l-.08-.07-.07-.06.34-.62a1.09,1.09,0,0,1,.26.23,2.24,2.24,0,0,1,.17.26h0l.06,0,.2-.36v0a1.94,1.94,0,0,0-.24-.24,2.08,2.08,0,0,0-.28-.2l.23-.42-.24-.13-.23.43a1,1,0,0,0-.6-.08.61.61,0,0,0-.42.31.57.57,0,0,0-.07.4.83.83,0,0,0,.27.41l.09.08.08.07-.34.62-.18-.14-.16-.16-.11-.15-.07-.12h0l-.06,0-.2.36v0A1.75,1.75,0,0,0,369,446.05Zm.82-1.25a.27.27,0,0,1,0-.23.25.25,0,0,1,.21-.14.59.59,0,0,1,.28,0l-.32.58A.75.75,0,0,1,369.85,444.8Zm.25.75a.76.76,0,0,1,.2.23.25.25,0,0,1,0,.24.27.27,0,0,1-.2.16.58.58,0,0,1-.29,0Z"/><path class="cls-18" d="M367.63,443.84s-1.11,1.73-.15,2.76A7.17,7.17,0,0,1,367.63,443.84Z"/><path class="cls-18" d="M382.79,464.19l-.1-.4a8.77,8.77,0,0,0-.45-1.13,3.65,3.65,0,0,0-1.78-1.94l-.24-.09a2.39,2.39,0,0,0-.33-.08,5,5,0,0,0-.66-.07c-.32,0-.52,0-.58-.14s0-.27.23-.57a1.53,1.53,0,0,0,.43-.71,3.55,3.55,0,0,1-.15-.62v0h0a.91.91,0,0,0-.76-.3,4.2,4.2,0,0,0-1.41.34c-.93.27-1,.74-1,.88a.44.44,0,0,0,.33.42,1.7,1.7,0,0,1,1.1.76c.11.19.11.22-.25.45a4.32,4.32,0,0,0-.4.28l-.53.57,0,0a5,5,0,0,0-.52,3.24c0,.08,0,.15,0,.23l.23,1v0a3,3,0,0,0,3,2h0a5.29,5.29,0,0,0,2.79-.78,3,3,0,0,0,1-3.17Zm-1.23,3.09a4.93,4.93,0,0,1-2.55.7h0a2.63,2.63,0,0,1-2.68-1.79l-.22-1c0-.07,0-.13,0-.21a4.8,4.8,0,0,1,.45-3l.48-.53a4.22,4.22,0,0,1,.36-.25c.32-.2.69-.43.38-1a2.09,2.09,0,0,0-1.33-.94s0,0,0-.06.15-.35.73-.52h0a3.93,3.93,0,0,1,1.27-.31c.46,0,.51.21.53.29.07.27-.08.45-.34.73s-.54.59-.28,1c.17.28.5.3.88.32a4.69,4.69,0,0,1,.62.07l.28.07.21.08a3.29,3.29,0,0,1,1.59,1.75,8.39,8.39,0,0,1,.43,1.08l.1.38.05.2A2.57,2.57,0,0,1,381.56,467.28Z"/><path class="cls-18" d="M379.17,458.44a3.55,3.55,0,0,0,.15.62.84.84,0,0,0,0-.36.73.73,0,0,0-.14-.28h0Z"/><path class="cls-18" d="M377.94,461.28a2.08,2.08,0,0,0-1.5,2.33A3.39,3.39,0,0,1,377.94,461.28Z"/><path class="cls-18" d="M379.87,464.42a.87.87,0,0,0-.46-.1h-.2l-.16-.69a1.09,1.09,0,0,1,.34,0l.3.08h0l.07,0-.09-.4h0l-.34,0-.34,0-.11-.47-.27.06.11.48a1,1,0,0,0-.5.34.61.61,0,0,0-.1.51.57.57,0,0,0,.22.34.83.83,0,0,0,.48.12H379l.17.69-.22,0h-.22l-.18,0-.13,0h0l-.07,0,.1.4h0a1.76,1.76,0,0,0,.38,0,2.24,2.24,0,0,0,.42-.05l.15.62.27-.06-.15-.63a1,1,0,0,0,.49-.34.61.61,0,0,0,.11-.53A.54.54,0,0,0,379.87,464.42Zm-1.27-.12a.27.27,0,0,1-.13-.19.25.25,0,0,1,.06-.24.59.59,0,0,1,.24-.15l.15.64A.75.75,0,0,1,378.6,464.29Zm1.09.87a.58.58,0,0,1-.24.16l-.15-.64a.76.76,0,0,1,.3,0,.25.25,0,0,1,.14.19A.27.27,0,0,1,379.69,465.17Z"/><path class="cls-18" d="M366.16,461.81l-.2-.16a2.41,2.41,0,0,0-.29-.18,5,5,0,0,0-.61-.27c-.3-.12-.48-.2-.51-.31s.05-.27.4-.47a1.15,1.15,0,0,0,.74-.89.7.7,0,0,0-.19-.54,2.22,2.22,0,0,0-1.53-.42l-.4,0c-1,0-1.19.4-1.22.53a.43.43,0,0,0,.18.49,1.7,1.7,0,0,1,.81,1.07c0,.22,0,.24-.38.34a4.4,4.4,0,0,0-.47.14l-.68.38,0,0a5,5,0,0,0-1.51,2.91l-.05.24-.09,1h0c0,2.34,2.12,3.17,4,3.17h0a3.56,3.56,0,0,0,1.11-.14,3,3,0,0,0,2-2.68v-.2c0-.24,0-.39,0-.43a8.75,8.75,0,0,0-.07-1.21A3.65,3.65,0,0,0,366.16,461.81Zm.75,4V466a2.57,2.57,0,0,1-1.74,2.37,3.2,3.2,0,0,1-1,.12h0c-.6,0-3.59-.13-3.65-2.79l.09-1,0-.21a4.8,4.8,0,0,1,1.36-2.69l.62-.35a4.15,4.15,0,0,1,.42-.12c.37-.09.79-.2.66-.79a2.09,2.09,0,0,0-1-1.31.05.05,0,0,1,0-.07c0-.1.25-.28.86-.26H364a1.87,1.87,0,0,1,1.25.3.32.32,0,0,1,.09.26c0,.27-.22.4-.55.59s-.7.39-.58.89c.07.32.38.44.74.58a4.71,4.71,0,0,1,.56.25l.24.15.17.14a3.29,3.29,0,0,1,1,2.16,8.37,8.37,0,0,1,.07,1.16S366.92,465.67,366.91,465.82Z"/><path class="cls-18" d="M361.5,463.49a3.39,3.39,0,0,1,2.16-1.74A2.08,2.08,0,0,0,361.5,463.49Z"/><path class="cls-18" d="M364.27,463.87l-.34-.07,0-.48-.28,0,0,.49a1,1,0,0,0-.59.17.61.61,0,0,0-.26.45.57.57,0,0,0,.1.4.83.83,0,0,0,.41.27l.11,0,.1,0-.06.71-.22-.05-.21-.08-.16-.09-.11-.08h-.08l0,.41h0a1.76,1.76,0,0,0,.36.15,2.25,2.25,0,0,0,.41.08l-.05.64.28,0,.05-.65a1,1,0,0,0,.57-.17.61.61,0,0,0,.27-.47.54.54,0,0,0-.12-.42.87.87,0,0,0-.41-.24l-.11,0-.09,0,.06-.7a1.09,1.09,0,0,1,.33.1l.26.17h.08l0-.41h0A1.94,1.94,0,0,0,364.27,463.87Zm-.7.89a.75.75,0,0,1-.29-.15.27.27,0,0,1-.07-.23.25.25,0,0,1,.13-.21.59.59,0,0,1,.28-.07Zm.52.57a.25.25,0,0,1,.07.23.27.27,0,0,1-.12.23.58.58,0,0,1-.28.07l.06-.66A.76.76,0,0,1,364.09,465.34Z"/><path class="cls-18" d="M368.3,459.56h0l.28,0a3,3,0,0,0,2.46-2.26l.05-.21.11-.41a8.79,8.79,0,0,0,.16-1.2,3.65,3.65,0,0,0-.61-2.56l-.16-.19a2.38,2.38,0,0,0-.25-.23,5,5,0,0,0-.54-.38c-.27-.17-.43-.28-.44-.41s.1-.26.48-.39a1.15,1.15,0,0,0,.89-.73.7.7,0,0,0-.1-.6c-.39-.57-1.61-.72-1.8-.74-.67-.15-1.18,0-1.32.33a.43.43,0,0,0,.1.48,1.7,1.7,0,0,1,.59,1.2c0,.22,0,.24-.44.27a4.38,4.38,0,0,0-.49,0l-.74.24h0a5,5,0,0,0-2,2.57l-.1.23-.28,1v0a2.85,2.85,0,0,0,.61,2.43A5.19,5.19,0,0,0,368.3,459.56Zm-3.82-3.9.27-.93.08-.2a4.8,4.8,0,0,1,1.85-2.38l.68-.22a4.18,4.18,0,0,1,.43,0c.38,0,.81,0,.8-.65a2.1,2.1,0,0,0-.71-1.47.05.05,0,0,1,0-.06c0-.06.15-.16.45-.16a2,2,0,0,1,.45.06h0c.34,0,1.28.2,1.54.57a.32.32,0,0,1,0,.29c-.07.26-.29.36-.65.47s-.76.25-.74.76c0,.33.29.5.61.71a4.72,4.72,0,0,1,.51.36,2.06,2.06,0,0,1,.21.19l.14.17a3.29,3.29,0,0,1,.53,2.3,8.4,8.4,0,0,1-.15,1.15l-.1.38-.05.2a2.57,2.57,0,0,1-2.16,2h-.22a4.87,4.87,0,0,1-3.3-1.41A2.49,2.49,0,0,1,364.48,455.67Z"/><path class="cls-18" d="M368.32,454l-.27-.08-.13.47a1,1,0,0,0-.61.06.61.61,0,0,0-.34.39.57.57,0,0,0,0,.41.83.83,0,0,0,.36.34l.1.06.1.05-.19.68-.21-.09-.19-.12-.14-.12-.09-.1h0l-.07,0-.11.39h0a1.75,1.75,0,0,0,.32.21,2.24,2.24,0,0,0,.39.16l-.17.61.27.08.18-.63a1,1,0,0,0,.59-.06.61.61,0,0,0,.35-.41.54.54,0,0,0,0-.43.87.87,0,0,0-.36-.31l-.1-.05-.08,0,.19-.68a1.09,1.09,0,0,1,.3.16l.23.21h0l.07,0,.11-.39h0a1.94,1.94,0,0,0-.29-.18,2.08,2.08,0,0,0-.32-.13Zm-.92,1.14a.27.27,0,0,1,0-.23.25.25,0,0,1,.17-.18.59.59,0,0,1,.28,0l-.18.63A.75.75,0,0,1,367.39,455.12Zm.66.86a.25.25,0,0,1,0,.23.27.27,0,0,1-.16.2.58.58,0,0,1-.29,0l.18-.64A.76.76,0,0,1,368,456Z"/><path class="cls-18" d="M368.19,452.37a2.08,2.08,0,0,0-2.45,1.3A3.39,3.39,0,0,1,368.19,452.37Z"/><path class="cls-18" d="M365.49,457.4a7.17,7.17,0,0,1-.47-2.72S364.32,456.61,365.49,457.4Z"/><path class="cls-18" d="M379,454l-.05-.2-.11-.41a8.71,8.71,0,0,0-.45-1.13,3.65,3.65,0,0,0-1.78-1.94l-.24-.09-.33-.08a5,5,0,0,0-.66-.07c-.32,0-.52,0-.58-.14s0-.29.23-.57a1.15,1.15,0,0,0,.42-1.08c-.05-.22-.24-.58-.9-.58a4.2,4.2,0,0,0-1.41.34c-.93.27-1,.74-1,.88a.44.44,0,0,0,.33.42,1.7,1.7,0,0,1,1.1.76c.11.19.11.22-.25.45a4.34,4.34,0,0,0-.4.28l-.53.57,0,0a5,5,0,0,0-.52,3.24c0,.08,0,.15,0,.23l.23,1v0a3,3,0,0,0,3,2h0a5.29,5.29,0,0,0,2.79-.78A3,3,0,0,0,379,454Zm-3.84,3.58h0a2.63,2.63,0,0,1-2.68-1.79l-.22-1c0-.07,0-.13,0-.21a4.8,4.8,0,0,1,.45-3l.48-.53a4.24,4.24,0,0,1,.36-.25c.32-.2.68-.43.38-1a2.09,2.09,0,0,0-1.33-.94s0,0,0-.06.15-.35.73-.52h0a3.93,3.93,0,0,1,1.27-.31c.46,0,.51.21.53.29.07.27-.08.45-.34.73s-.54.59-.28,1c.17.28.5.3.88.32a4.68,4.68,0,0,1,.61.07l.28.07.21.08a3.29,3.29,0,0,1,1.59,1.75,8.38,8.38,0,0,1,.43,1.08l.1.39,0,.2a2.57,2.57,0,0,1-.91,2.79A4.93,4.93,0,0,1,375.19,457.57Z"/><path class="cls-18" d="M374.31,450.86a2.08,2.08,0,0,0-1.5,2.33A3.39,3.39,0,0,1,374.31,450.86Z"/><path class="cls-18" d="M372.49,454.66s.33,2,1.74,2.15A7.17,7.17,0,0,1,372.49,454.66Z"/><path class="cls-18" d="M376.05,454a.87.87,0,0,0-.46-.1h-.2l-.16-.69a1.1,1.1,0,0,1,.34,0l.3.08h0l.07,0-.09-.4h0l-.34,0-.34,0-.11-.47-.27.06.11.48a1,1,0,0,0-.5.34.61.61,0,0,0-.1.51.57.57,0,0,0,.22.34.83.83,0,0,0,.48.12h.23l.17.69-.22,0h-.22l-.18,0-.13,0h0l-.07,0,.1.4h0a1.75,1.75,0,0,0,.38,0,2.24,2.24,0,0,0,.42-.05l.15.62.27-.06-.15-.63a1,1,0,0,0,.49-.34.61.61,0,0,0,.11-.53A.54.54,0,0,0,376.05,454Zm-1.27-.12a.27.27,0,0,1-.13-.19.25.25,0,0,1,.06-.24.59.59,0,0,1,.24-.15l.15.64A.75.75,0,0,1,374.78,453.88Zm1.09.87a.58.58,0,0,1-.24.16l-.15-.64a.76.76,0,0,1,.3,0,.25.25,0,0,1,.14.19A.27.27,0,0,1,375.87,454.76Z"/><path class="cls-18" d="M544.56,460.32c-.83-.26-3.27-1.31-3.55-1.44-.26-1.09-.14-8.64-.11-9.5a.61.61,0,0,0,0-.15c-.14-.65-1.46-4.39-1.74-5.54a.71.71,0,0,1,.07-.52l4.18-7.84a.3.3,0,0,1,.43-.1l2.39,1.86a.56.56,0,0,0,.19.11l5.44,2.74a.33.33,0,0,0,.34-.54l-8.83-8.58a1.3,1.3,0,0,0-1.93.12c-1.53,1.92-5.93,7.74-8,10.55a2.61,2.61,0,0,0,0,3.1c1.43,2,3.73,5.16,4,5.68a.66.66,0,0,1,0,.17c.14,1,1.37,9.57,1.53,10a.86.86,0,0,0,1.1.55c.33-.07,3.45-.08,4.56-.26A.23.23,0,0,0,544.56,460.32Z"/><path class="cls-18" d="M546.64,431.84c1.67.4,3.19-.68,4-3.21.67-2.14-.4-4.27-2.07-4.68a3.51,3.51,0,0,0-4,3.21C544.34,429.17,545,431.44,546.64,431.84Z"/><path class="cls-18" d="M559.37,433.55c-1.18-1.64-5.29-.82-6.42-.55a.17.17,0,0,0-.08.29l5.93,6.22a.14.14,0,0,0,.24,0C559.37,438.59,560.56,435.2,559.37,433.55Z"/><path class="cls-18" d="M552.19,433.91a.82.82,0,0,0-.87-.2,21.81,21.81,0,0,0-2.26.93.29.29,0,0,0-.07.47c1,1,3.28,3.4,4.11,4.44a.81.81,0,0,1-.83,1.24l-7-3.08a.69.69,0,0,0-.81.2l-4.13,5.19a.51.51,0,0,0-.1.44l1.76,5.35v9.17a.44.44,0,0,0,.24.39l1.74.83a.16.16,0,0,0,.24-.18,5.06,5.06,0,0,0-.57-1.56.39.39,0,0,1,.12-.53c4.21-2.75,12.72-10.31,14.34-16.31a1.07,1.07,0,0,0-.27-1Z"/><path class="cls-18" d="M542.91,461.63l-4,.29a.72.72,0,0,1-.76-.63l-1.7-10.47a.58.58,0,0,0-.05-.18c-.11-.22-.88-1.42-.93-1.52a.85.85,0,0,0-.23-.29c-4.78-3.63-9.31,3.7-10.57,6.69a.15.15,0,0,0,.23.18c3.18-2.22,4.84-.6,5.38.15a.41.41,0,0,1-.07.55l-1.44,1.25a.48.48,0,0,0,0,.69l4.83,5a.32.32,0,0,0,.47,0c.28-.32.8-.89,1.43-1.53a.46.46,0,0,1,.56-.08c2,1.18,1.26,3.94.23,5.68a.15.15,0,0,0,.19.2A20.85,20.85,0,0,0,543.1,462,.21.21,0,0,0,542.91,461.63Z"/><path class="cls-18" d="M528,459a.38.38,0,0,0-.49,0,8.62,8.62,0,0,0-3,3.51.09.09,0,0,0,.15.1c.51-.46,1.27-.74.87.11s-2.4,3.42-2.57,5.77a.41.41,0,0,0,.43.44,11.09,11.09,0,0,0,5.77-2.24c.57-.31.8-.28.28,1a.11.11,0,0,0,.15.14c2.45-1.36,3.2-2.68,3.43-3.29a.56.56,0,0,0-.13-.59Z"/><path class="cls-18" d="M533,439.71a.74.74,0,0,1-.45-.15l-2-1.49a1.21,1.21,0,0,1-.13-1.81l6.23-6.35a1.27,1.27,0,0,1,1.8,0l1.26,1.23a.58.58,0,0,1,0,.78l-6.19,7.53A.74.74,0,0,1,533,439.71Zm4.58-9.85a1,1,0,0,0-.68.28l-6.23,6.35a.89.89,0,0,0,.1,1.33l2,1.49a.42.42,0,0,0,.58-.07l6.19-7.53a.26.26,0,0,0,0-.35l-1.26-1.23A1,1,0,0,0,537.6,429.85Z"/><path class="cls-18" d="M524.53,646.4l-12.34-5.69a1.38,1.38,0,0,1-.68-1.83l3.93-8.53a1.38,1.38,0,0,1,1.83-.68l4.32,2,.36-.77a.87.87,0,0,1,1.16-.43l.57.26-.11.2a.45.45,0,0,0,0,.1c-.07.23.24.57.81.9l-.19.37-1.1-.51-.21.46,1.92.89.38-.82,1.24.56-.38.82,3.62,1.67a1.38,1.38,0,0,1,.68,1.83l-3.93,8.53a1.38,1.38,0,0,1-1.83.68Zm.81-13.53-.38.83-2.5-1.15-.19-.1.56-1.21.32.15a.7.7,0,0,1,0-.45l-.18-.08a.45.45,0,0,0-.6.22l-.53,1.16-4.71-2.17a1,1,0,0,0-1.27.47l-3.93,8.53a1,1,0,0,0,.47,1.27L524.7,646a1,1,0,0,0,1.27-.47l3.93-8.53a1,1,0,0,0-.47-1.27l-4-1.85.38-.82Z"/><path class="cls-18" d="M521.7,640.09a1.11,1.11,0,0,0,.75-.62,1,1,0,0,0,.05-.78,1.58,1.58,0,0,0-.55-.66l-.16-.12-.13-.1.54-1.16a2,2,0,0,1,.49.38,4.07,4.07,0,0,1,.34.45h0l.11.05.31-.67,0,0a3.51,3.51,0,0,0-.46-.4,3.77,3.77,0,0,0-.53-.33l.37-.79-.46-.21-.37.8a1.8,1.8,0,0,0-1.1-.08,1.1,1.1,0,0,0-.72.61,1,1,0,0,0-.07.74,1.5,1.5,0,0,0,.54.71l.17.13.16.12-.54,1.17a2.39,2.39,0,0,1-.34-.22,3.48,3.48,0,0,1-.3-.26,2.33,2.33,0,0,1-.21-.25l-.14-.2v0l-.12-.06-.31.67,0,0a3.17,3.17,0,0,0,.51.47,4.05,4.05,0,0,0,.65.39l-.49,1,.46.21.5-1.07A1.85,1.85,0,0,0,521.7,640.09Zm-.86-3a.49.49,0,0,1,0-.42.46.46,0,0,1,.36-.28,1.06,1.06,0,0,1,.51,0l-.5,1.08A1.36,1.36,0,0,1,520.83,637.09Zm.56,2.46a1.05,1.05,0,0,1-.53,0l.5-1.08a1.38,1.38,0,0,1,.39.4.46.46,0,0,1,0,.43A.5.5,0,0,1,521.4,639.54Z"/><path class="cls-18" d="M525.41,632,523,630.83a1.11,1.11,0,0,1,.74-.46,6.58,6.58,0,0,1,1.49-.05l.18,0h0l.44,0c2.17.46,6.62,1.24,7.24,1.36l0,0,8.46.48.11,0c1.39-.15,7.4-.78,8.73-.91a4.38,4.38,0,0,1,2.66.66l4.66,2.66a1.22,1.22,0,0,1-1,2.21l-5.56-2a2.94,2.94,0,0,0-2.07,0c-.93.43-4.37,1.82-4.37,1.82s-.91.26-1.09,1.78l-.79,8.84a2.34,2.34,0,0,0,.86,1.73c.91.92,3.42,3.25,3.42,3.25l.05,0a1.37,1.37,0,0,0,1.18,0c.81-.27,7.57-4.05,7.57-4.05s1-1,1.16.81l.23,5.83s.08,2.31-.47,1.56l-1.63-3s-.49-.9-1.45-.06-4.76,4.84-4.76,4.84a1.54,1.54,0,0,1-2.43.07c-1.48-1.26-10.18-8.21-10.18-8.21a2.81,2.81,0,0,0-3.37,0L525.54,655a2.09,2.09,0,0,1-.74.4,1.58,1.58,0,0,1-1.27-.52l-.67-.59,0,.06-3.45-2.82h0c-1.61-2.33,2.64-.4,3.6,0s1.82-.69,2-1l3.4-4.3a4.18,4.18,0,0,1,2.62-1.7l3.4-1s1.28-.08,1.89-1.88l.78-3.39h0l.06-.25a1.26,1.26,0,0,0-.76-1.53l-4.73-1.09a6.24,6.24,0,0,1-1.55-.44c-.44-.19-2.58-1.14-4.47-2l.07-.14A.66.66,0,0,0,525.41,632Z"/><path class="cls-18" d="M524.82,632.58l-1-.47c-.46-.26-1-.69-.91-1.14a.65.65,0,0,1,.06-.14l2.45,1.13a.66.66,0,0,1,.32.88l-.07.14-.86-.39Z"/><path class="cls-18" d="M524.81,632.59l-.49-.22h0a5.14,5.14,0,0,1-.51-.26l1,.47Z"/><path class="cls-18" d="M545.09,618.88c2.21,0,3,2.63,1.89,5.8s-3.43,5.32-5.44,5.11-3.09-2.55-2.25-5.42S542.85,618.93,545.09,618.88Z"/><ellipse class="cls-18" cx="356.39" cy="617.7" rx="4.5" ry="2.9" transform="translate(-264.31 968.85) rotate(-89.51)"/><path class="cls-18" d="M362.88,632.51a3.77,3.77,0,0,1,1.66-2.51,6.35,6.35,0,0,0-5.23-5.9v0a23.3,23.3,0,0,0-4.93,0c-4.35.48-6.11,2.74-6.11,9,0,2.27,0,4.54.12,5.93a1,1,0,0,0,1,1h0a1,1,0,0,0,1-1c.05-2.88.13-8.36,1.28-9.16.12,2.41.14,9.52.21,10.91s.45,18.17.45,18.53-2.44,1.28-2.27,2c.05.22,4.75,0,5.08-.83.2-.49.53-8.58.53-8.58s.42-10.29.91-10.28,1.13,10.22,1.13,10.22.34,8.25.48,8.82,5.41,1,5.41.55-2.51-1-2.47-2.12c.23-6.4.44-29.84.44-29.88A8.74,8.74,0,0,1,362.88,632.51Z"/><path class="cls-18" d="M367.55,634.75a1,1,0,0,0-.5-.24l-.13,0-.11,0v-.83a1.29,1.29,0,0,1,.4.09l.32.17h.09v-.48h0a2.27,2.27,0,0,0-.38-.11,2.45,2.45,0,0,0-.4-.05v-.57h-.33v.58a1.17,1.17,0,0,0-.67.26.71.71,0,0,0-.26.56.67.67,0,0,0,.16.45,1,1,0,0,0,.51.27l.13,0,.12,0v.84l-.26,0-.25-.07-.19-.09-.14-.08h-.1v.48h0a2.06,2.06,0,0,0,.43.14,2.63,2.63,0,0,0,.49.05v.75h.33v-.77a1.21,1.21,0,0,0,.65-.26.72.72,0,0,0,.27-.57A.63.63,0,0,0,367.55,634.75Zm-1.07-.34a.89.89,0,0,1-.35-.14.32.32,0,0,1-.1-.26.3.3,0,0,1,.14-.26.69.69,0,0,1,.32-.11Zm.65,1.15a.68.68,0,0,1-.32.12v-.78a.9.9,0,0,1,.34.13.3.3,0,0,1,.11.26A.32.32,0,0,1,367.13,635.56Z"/><path class="cls-18" d="M367,639.15a5.54,5.54,0,0,1-2.68-.62,3.3,3.3,0,0,1-1.71-2.69v-1.21c0-.09,0-.18,0-.27a6.33,6.33,0,0,1,1.44-3.53,5.36,5.36,0,0,1,1.23-.9,2.89,2.89,0,0,0,.53-.35,2.06,2.06,0,0,0-1.06-1.17.46.46,0,0,1-.24-.53c0-.15.23-.65,1.34-.7.21,0,1.62-.26,2.24.25a.78.78,0,0,1,.29.62,1.32,1.32,0,0,1-.76,1.08c-.38.26-.52.39-.44.64s.27.23.65.35a5.86,5.86,0,0,1,.73.26,2.75,2.75,0,0,1,.35.18l.24.17a4.25,4.25,0,0,1,1.49,2.68,10.17,10.17,0,0,1,.21,1.41s0,.22,0,.5v.24a3.47,3.47,0,0,1-2,3.31A5.21,5.21,0,0,1,367,639.15Zm-4-3.33a3,3,0,0,0,1.52,2.4,5.71,5.71,0,0,0,4.23.31,3.06,3.06,0,0,0,1.83-3v-.23c0-.19,0-.44,0-.48h0a9.84,9.84,0,0,0-.2-1.36A3.91,3.91,0,0,0,369,631l-.22-.15a2.48,2.48,0,0,0-.3-.15,5.57,5.57,0,0,0-.69-.25c-.42-.13-.78-.24-.89-.58-.17-.53.25-.82.58-1s.6-.41.6-.78a.42.42,0,0,0-.16-.34,3.13,3.13,0,0,0-2-.17h0c-.74,0-1,.28-1,.42a.11.11,0,0,0,.05.13,2.42,2.42,0,0,1,1.25,1.41c.08.28-.23.46-.7.74a5.08,5.08,0,0,0-1.15.84,6,6,0,0,0-1.35,3.34c0,.08,0,.16,0,.24Z"/><path class="cls-18" d="M363.48,634.9a8.44,8.44,0,0,0,1.41,2.93C363.31,637.31,363.48,634.9,363.48,634.9Z"/><path class="cls-18" d="M364.08,633a2.45,2.45,0,0,1,2.36-2.26A4,4,0,0,0,364.08,633Z"/><path class="cls-18" d="M367.81,628.8a1,1,0,0,1-.4,1.63c-.74.13-1.94,0-1.9-1.06C365.54,628.55,366.84,628.19,367.81,628.8Z"/><ellipse class="cls-18" cx="332.28" cy="614.59" rx="4.82" ry="3.11" transform="translate(-285.11 941.65) rotate(-89.51)"/><path class="cls-18" d="M333,621.39l-.08.5a.14.14,0,0,1-.14.12H332a.14.14,0,0,1-.14-.11l-.11-.51a.14.14,0,0,1,.13-.17q.46,0,.94,0A.14.14,0,0,1,333,621.39Z"/><path class="cls-18" d="M323.57,631c0-6.68,1.9-9,6.54-9.61a.17.17,0,0,1,.18.11l1.22,3.23a0,0,0,0,0,.07,0l.39-2.25a.14.14,0,0,1,.14-.12h.54a.14.14,0,0,1,.14.12c.07.41.34,1.79.44,2.28a0,0,0,0,0,.08,0c.16-.6.7-2.69.85-3.27a.17.17,0,0,1,.19-.13c.28,0,.76.1,1,.16a1.33,1.33,0,0,0,1-.35,4.29,4.29,0,0,0,.39-.33,17,17,0,0,0,5.24-11.1,1.4,1.4,0,0,1,.64-1,1.44,1.44,0,0,1,2.19,1.26c-.07,2.81-1.66,7-2.25,8.4-1,2.39-4.48,7.67-4.55,9.54,0,.09,0,.22,0,.4-.09,3.55-.38,23.59-.62,30.45,0,1.16,2.64,1.73,2.64,2.27s-5.65,0-5.8-.59-.71-9.26-.71-9.26-.49-11.16-1-11.14c-.79,0-.74,11.44-.74,11.44s.38,8.39-.31,9-4.72.64-4.77.4c-.18-.76,2-1.65,2-2s-1.39-18.51-1.46-20.11.19-8.7.06-11.28c-1,.6-1.53,7.66-1.65,10a.88.88,0,0,1-1.76.09A49.51,49.51,0,0,1,323.57,631Z"/><path class="cls-18" d="M346.23,618.13a5.57,5.57,0,0,1-2.76,0,3.32,3.32,0,0,1-2.32-2.21v0l-.28-1.16c0-.09,0-.18,0-.27a6.37,6.37,0,0,1,.55-3.8,5.39,5.39,0,0,1,1-1.18,2.91,2.91,0,0,0,.43-.47,2.07,2.07,0,0,0-1.32-.88.47.47,0,0,1-.36-.46c0-.16.07-.69,1.14-1,.2-.09,1.52-.65,2.24-.3a.79.79,0,0,1,.43.53,1.33,1.33,0,0,1-.48,1.24c-.31.34-.42.5-.28.73s.32.16.72.18a5.89,5.89,0,0,1,.78.08,2.76,2.76,0,0,1,.39.09l.28.1a4.27,4.27,0,0,1,2.1,2.25,10.22,10.22,0,0,1,.54,1.32s.06.22.13.49l.06.23a3.48,3.48,0,0,1-1.19,3.72A5.24,5.24,0,0,1,346.23,618.13Z"/><path class="cls-17" d="M341.5,615.86a3,3,0,0,0,2.07,2,5.74,5.74,0,0,0,4.21-.72,3.08,3.08,0,0,0,1.07-3.35l-.06-.22-.13-.47h0a9.89,9.89,0,0,0-.52-1.28,3.93,3.93,0,0,0-1.92-2.08l-.25-.09a2.49,2.49,0,0,0-.33-.08,5.6,5.6,0,0,0-.73-.07c-.44,0-.82,0-1-.35-.3-.48,0-.86.31-1.16s.49-.55.4-.91a.42.42,0,0,0-.24-.29,3.15,3.15,0,0,0-1.95.31h0c-.71.21-.89.52-.89.66a.11.11,0,0,0,.08.11,2.44,2.44,0,0,1,1.56,1.07c.15.25-.11.51-.5.89a5.1,5.1,0,0,0-.92,1.1,6,6,0,0,0-.51,3.59c0,.08,0,.17,0,.25Z"/><path class="cls-18" d="M341.79,614.84a8.49,8.49,0,0,0,2.08,2.52C342.21,617.23,341.79,614.84,341.79,614.84Z"/><path class="cls-18" d="M341.92,612.88a2.46,2.46,0,0,1,1.75-2.77A4,4,0,0,0,341.92,612.88Z"/><path class="cls-18" d="M345.72,613.7a1,1,0,0,0-.55-.11h-.24l-.2-.81a1.29,1.29,0,0,1,.41,0l.36.09h0l.08,0-.12-.47h0a2.29,2.29,0,0,0-.4,0,2.46,2.46,0,0,0-.41,0l-.14-.55-.32.08.14.56a1.18,1.18,0,0,0-.59.41.72.72,0,0,0-.12.6.68.68,0,0,0,.27.4,1,1,0,0,0,.57.14h.27l.2.82-.27,0h-.26l-.21,0-.15,0h0l-.08,0,.12.47h0a2.07,2.07,0,0,0,.45,0,2.65,2.65,0,0,0,.49-.07l.18.73.32-.08-.19-.75a1.21,1.21,0,0,0,.57-.41.73.73,0,0,0,.12-.62A.64.64,0,0,0,345.72,613.7Zm-1.12-.08a.89.89,0,0,1-.38-.05.32.32,0,0,1-.16-.23.3.3,0,0,1,.07-.29.69.69,0,0,1,.28-.19Zm.92,1a.69.69,0,0,1-.29.19L345,614a.9.9,0,0,1,.36,0,.3.3,0,0,1,.17.22A.33.33,0,0,1,345.51,614.59Z"/><path class="cls-18" d="M344.33,607.89a1,1,0,0,1,.22,1.83c-.72.42-2,.74-2.36-.36C341.91,608.5,343.11,607.63,344.33,607.89Z"/><ellipse class="cls-18" cx="381.7" cy="614.59" rx="3.11" ry="4.82" transform="matrix(1, -0.01, 0.01, 1, -5.2, 3.26)"/><path class="cls-18" d="M381,621.39l.08.5a.14.14,0,0,0,.14.12H382a.14.14,0,0,0,.14-.11l.11-.51a.14.14,0,0,0-.13-.17q-.46,0-.94,0A.14.14,0,0,0,381,621.39Z"/><path class="cls-18" d="M390.41,631c0-6.68-1.9-9-6.54-9.61a.17.17,0,0,0-.18.11l-1.22,3.23a0,0,0,0,1-.07,0L382,622.5a.14.14,0,0,0-.14-.12h-.54a.14.14,0,0,0-.14.12c-.07.41-.34,1.79-.44,2.28a0,0,0,0,1-.08,0c-.16-.6-.7-2.69-.85-3.27a.17.17,0,0,0-.19-.13c-.28,0-.76.1-1,.16a1.33,1.33,0,0,1-1-.35,4.29,4.29,0,0,1-.39-.33,17,17,0,0,1-5.24-11.1,1.4,1.4,0,0,0-.64-1,1.44,1.44,0,0,0-2.19,1.26c.07,2.81,1.66,7,2.25,8.4,1,2.39,4.48,7.67,4.55,9.54,0,.09,0,.22,0,.4.09,3.55.38,23.59.62,30.45,0,1.16-2.64,1.73-2.64,2.27s5.65,0,5.8-.59.71-9.26.71-9.26.49-11.16,1-11.14c.79,0,.74,11.44.74,11.44s-.38,8.39.31,9,4.72.64,4.77.4c.18-.76-2-1.65-2-2s1.39-18.51,1.46-20.11-.19-8.7-.06-11.28c1,.6,1.53,7.66,1.65,10a.88.88,0,0,0,1.76.09A49.51,49.51,0,0,0,390.41,631Z"/><path class="cls-18" d="M367.8,618.39a5.57,5.57,0,0,1-2.32-1.49,3.32,3.32,0,0,1-.71-3.12v0l.41-1.12.12-.24a6.37,6.37,0,0,1,2.56-2.86,5.39,5.39,0,0,1,1.47-.44,2.91,2.91,0,0,0,.62-.16,2.07,2.07,0,0,0-.61-1.46.47.47,0,0,1,0-.58c.08-.13.44-.54,1.51-.21.21,0,1.62.3,2,1a.79.79,0,0,1,.07.68,1.33,1.33,0,0,1-1.08.77c-.44.12-.63.19-.63.46s.18.31.5.55a5.89,5.89,0,0,1,.61.49,2.76,2.76,0,0,1,.27.29c.06.08.12.15.17.24a4.27,4.27,0,0,1,.5,3,10.22,10.22,0,0,1-.28,1.4l-.16.48-.08.23a3.48,3.48,0,0,1-3.05,2.44A5.24,5.24,0,0,1,367.8,618.39Z"/><path class="cls-17" d="M365.12,613.87a3,3,0,0,0,.63,2.79,5.74,5.74,0,0,0,3.9,1.73,3.08,3.08,0,0,0,2.75-2.2l.07-.22.15-.46h0a9.89,9.89,0,0,0,.27-1.35,3.93,3.93,0,0,0-.45-2.79l-.16-.21a2.49,2.49,0,0,0-.24-.25,5.6,5.6,0,0,0-.57-.47c-.35-.26-.66-.49-.65-.85,0-.56.51-.69.91-.8s.71-.19.83-.53a.42.42,0,0,0,0-.38c-.28-.48-1.39-.76-1.79-.82h0c-.71-.22-1-.07-1.11.06a.11.11,0,0,0,0,.14,2.44,2.44,0,0,1,.7,1.76c0,.29-.37.36-.91.46a5.1,5.1,0,0,0-1.37.4,6,6,0,0,0-2.41,2.7l-.11.22Z"/><path class="cls-18" d="M365.92,613.18a8.49,8.49,0,0,0,.34,3.25C364.94,615.4,365.92,613.18,365.92,613.18Z"/><path class="cls-18" d="M367.11,611.63a2.46,2.46,0,0,1,3-1.34A4,4,0,0,0,367.11,611.63Z"/><path class="cls-18" d="M371.89,608.8a1,1,0,0,1-.83,1.65c-.83-.05-2.07-.48-1.76-1.61C369.53,608,371,607.91,371.89,608.8Z"/><path class="cls-18" d="M369.82,614.41a1,1,0,0,0-.4-.4l-.11-.07-.09-.06.28-.79a1.29,1.29,0,0,1,.34.22,2.66,2.66,0,0,1,.25.27h0l.08,0,.16-.45,0,0a2.29,2.29,0,0,0-.32-.23,2.46,2.46,0,0,0-.36-.18l.19-.54-.31-.11-.19.54a1.18,1.18,0,0,0-.72,0,.72.72,0,0,0-.43.44.68.68,0,0,0,0,.48,1,1,0,0,0,.39.43l.12.08.11.07-.28.79-.24-.12-.21-.15-.15-.15-.1-.12h0l-.08,0-.16.46,0,0a2.07,2.07,0,0,0,.36.27,2.65,2.65,0,0,0,.45.22l-.25.71.31.11.26-.72a1.21,1.21,0,0,0,.71,0,.73.73,0,0,0,.45-.45A.64.64,0,0,0,369.82,614.41Zm-.89-.69a.89.89,0,0,1-.29-.25.32.32,0,0,1,0-.28.3.3,0,0,1,.22-.2.69.69,0,0,1,.34,0Zm.23,1.31a.69.69,0,0,1-.35,0l.26-.74a.9.9,0,0,1,.28.23.3.3,0,0,1,0,.28A.33.33,0,0,1,369.15,615Z"/><circle class="cls-16" cx="177.9" cy="299.52" r="6"/><path class="cls-17" d="M177.9,294.52a5,5,0,1,1-5,5,5,5,0,0,1,5-5m0-2a7,7,0,1,0,7,7,7,7,0,0,0-7-7Z"/><circle class="cls-16" cx="357.48" cy="299.52" r="6"/><path class="cls-17" d="M357.48,294.52a5,5,0,1,1-5,5,5,5,0,0,1,5-5m0-2a7,7,0,1,0,7,7,7,7,0,0,0-7-7Z"/><circle class="cls-16" cx="177.9" cy="487.52" r="6"/><path class="cls-17" d="M177.9,482.52a5,5,0,1,1-5,5,5,5,0,0,1,5-5m0-2a7,7,0,1,0,7,7,7,7,0,0,0-7-7Z"/><circle class="cls-16" cx="537.19" cy="487.52" r="6"/><path class="cls-17" d="M537.19,482.52a5,5,0,1,1-5,5,5,5,0,0,1,5-5m0-2a7,7,0,1,0,7,7,7,7,0,0,0-7-7Z"/><circle class="cls-16" cx="537.19" cy="677.52" r="6"/><path class="cls-17" d="M537.19,672.52a5,5,0,1,1-5,5,5,5,0,0,1,5-5m0-2a7,7,0,1,0,7,7,7,7,0,0,0-7-7Z"/><circle class="cls-16" cx="357.48" cy="487.52" r="6"/><path class="cls-17" d="M357.48,482.52a5,5,0,1,1-5,5,5,5,0,0,1,5-5m0-2a7,7,0,1,0,7,7,7,7,0,0,0-7-7Z"/><circle class="cls-16" cx="357.48" cy="677.52" r="6"/><path class="cls-17" d="M357.48,672.52a5,5,0,1,1-5,5,5,5,0,0,1,5-5m0-2a7,7,0,1,0,7,7,7,7,0,0,0-7-7Z"/><path class="cls-16" d="M109.92,81.23a9.53,9.53,0,0,0,5.49,2.27c1.88,0,2.67-.61,2.67-1.66s-1.19-1.48-3.18-2.27L112,78.34a6.93,6.93,0,0,1-4.73-6.53c0-4,3.61-7.29,8.74-7.29a11.28,11.28,0,0,1,7.8,3.14l-3.1,3.9a7.73,7.73,0,0,0-4.69-1.7c-1.52,0-2.45.54-2.45,1.59S114.87,73,117,73.79l2.85,1.12c2.92,1.16,4.58,3.18,4.58,6.43,0,4-3.32,7.51-9.17,7.51a13.59,13.59,0,0,1-8.88-3.36Z"/><path class="cls-16" d="M131.94,70.15h-6.21v-5.2h18.63v5.2h-6.21V88.41h-6.21Z"/><path class="cls-16" d="M157.5,83.43h-6.57l-1.16,5h-6.35l7.15-23.46h7.51l7.15,23.46h-6.57Zm-1.12-4.8L156,77c-.58-2.24-1.16-5.09-1.73-7.44h-.14C153.6,72,153,74.77,152.44,77l-.4,1.62Z"/><path class="cls-16" d="M180.09,88.41l-4-7.87h-2.38v7.87h-6.21V64.95h8.88c5.05,0,9.39,1.73,9.39,7.58a7.2,7.2,0,0,1-3.79,6.79l5.09,9.1Zm-6.43-12.78h2.24c2.45,0,3.75-1.08,3.75-3.1s-1.3-2.67-3.75-2.67h-2.24Z"/><path class="cls-16" d="M194,70.15h-6.21v-5.2h18.63v5.2h-6.21V88.41H194Z"/><path class="cls-16" d="M209.84,64.95H216V88.41h-6.21Z"/><path class="cls-16" d="M221.24,64.95h6.35l5.2,10.47L235,80.69h.14a84.27,84.27,0,0,1-.79-9V64.95h5.92V88.41h-6.35l-5.2-10.5-2.24-5.23h-.14a87.83,87.83,0,0,1,.79,9v6.79h-5.92Z"/><path class="cls-16" d="M256.33,64.51a10.49,10.49,0,0,1,7.51,3.1l-3.39,3.83a5.43,5.43,0,0,0-4-1.59c-3.18,0-5.56,2.53-5.56,6.79s1.95,6.86,6.14,6.86a3.51,3.51,0,0,0,1.8-.43V79.82h-3.47V74.77h9V86a13.24,13.24,0,0,1-8.09,2.89c-6.43,0-11.7-4-11.7-12S249.9,64.51,256.33,64.51Z"/><path class="cls-16" d="M109.37,95.38h24.12v8.27H119.24v5.86h12.17v8.27H119.24v6.66h14.81v8.27H109.37Z"/><path class="cls-16" d="M159,124.78H148.53l-1.84,7.92H136.59L148,95.38H159.9l11.37,37.32H160.82Zm-1.78-7.64-.63-2.58c-.92-3.56-1.84-8.1-2.76-11.83h-.23c-.8,3.79-1.72,8.27-2.64,11.83l-.63,2.58Z"/><path class="cls-16" d="M194.93,132.71l-6.43-12.52h-3.79v12.52h-9.88V95.38H189c8,0,14.93,2.76,14.93,12.06,0,5.34-2.41,8.84-6,10.79l8.1,14.47Zm-10.22-20.33h3.56c3.9,0,6-1.72,6-4.94s-2.07-4.25-6-4.25h-3.56Z"/><path class="cls-16" d="M211,95.38h9.88v29.06H235v8.27H211Z"/><path class="cls-16" d="M242.82,119.85,231.56,95.38h10.57l2.76,7.81c.92,2.81,1.84,5.4,2.81,8.33h.23c1-2.93,2-5.51,2.93-8.33l2.76-7.81h10.34L252.7,119.85v12.86h-9.88Z"/><path class="cls-16" d="M284.83,48h-4a.5.5,0,0,0,0,1h4a.5.5,0,0,0,0-1Zm-8,0h-4a.5.5,0,0,0,0,1h4a.5.5,0,0,0,0-1Zm-8,0h-4a.5.5,0,0,0,0,1h4a.5.5,0,0,0,0-1Zm-8,0h-4a.5.5,0,0,0,0,1h4a.5.5,0,0,0,0-1Zm-8,0h-4a.5.5,0,0,0,0,1h4a.5.5,0,0,0,0-1Zm-8,0h-4a.5.5,0,0,0,0,1h4a.5.5,0,0,0,0-1Zm-8,0h-4a.5.5,0,0,0,0,1h4a.5.5,0,0,0,0-1Zm-8,0h-4a.5.5,0,0,0,0,1h4a.5.5,0,0,0,0-1Zm-8,0h-4a.5.5,0,0,0,0,1h4a.5.5,0,0,0,0-1Zm-8,0h-4a.5.5,0,0,0,0,1h4a.5.5,0,0,0,0-1Zm-8,0h-4a.5.5,0,0,0,0,1h4a.5.5,0,0,0,0-1Zm-8,0h-4a.5.5,0,0,0,0,1h4a.5.5,0,0,0,0-1Zm-8,0h-4a.5.5,0,0,0,0,1h4a.5.5,0,0,0,0-1Zm-8,0h-4a.5.5,0,0,0,0,1h4a.5.5,0,0,0,0-1Zm-8,0h-4a.5.5,0,0,0,0,1h4a.5.5,0,0,0,0-1Zm-8,0h-4a.5.5,0,0,0,0,1h4a.5.5,0,0,0,0-1Zm-8,0h-4a.5.5,0,0,0,0,1h4a.5.5,0,0,0,0-1Zm-8,0h-4a.5.5,0,0,0,0,1h4a.5.5,0,0,0,0-1Zm-8,0h-4a.5.5,0,0,0,0,1h4a.5.5,0,0,0,0-1Zm-8,0h-4a.5.5,0,0,0,0,1h4a.5.5,0,0,0,0-1Zm-8,0h-4a.5.5,0,0,0,0,1h4a.5.5,0,0,0,0-1Zm-8,0h-4a.5.5,0,0,0,0,1h4a.5.5,0,0,0,0-1Zm-8,0h-4a.5.5,0,0,0,0,1h4a.5.5,0,0,0,0-1Zm-8,0h-4a.5.5,0,0,0,0,1h4a.5.5,0,0,0,0-1Zm-8,0h-4a.5.5,0,0,0,0,1h4a.5.5,0,0,0,0-1Zm-8,0h-4a.5.5,0,0,0,0,1h4a.5.5,0,0,0,0-1Zm-6.5.5a.5.5,0,0,0-.5.5v4a.5.5,0,0,0,1,0V49a.5.5,0,0,0-.5-.5Zm0,8a.5.5,0,0,0-.5.5v4a.5.5,0,0,0,1,0V57a.5.5,0,0,0-.5-.5Zm0,8a.5.5,0,0,0-.5.5v4a.5.5,0,0,0,1,0V65a.5.5,0,0,0-.5-.5Zm0,8a.5.5,0,0,0-.5.5v4a.5.5,0,0,0,1,0V73a.5.5,0,0,0-.5-.5Zm0,8a.5.5,0,0,0-.5.5v4a.5.5,0,0,0,1,0V81a.5.5,0,0,0-.5-.5Zm0,8a.5.5,0,0,0-.5.5v4a.5.5,0,0,0,1,0V89a.5.5,0,0,0-.5-.5Zm0,8a.5.5,0,0,0-.5.5v4a.5.5,0,0,0,1,0V97a.5.5,0,0,0-.5-.5Zm0,8a.5.5,0,0,0-.5.5v4a.5.5,0,0,0,1,0v-4a.5.5,0,0,0-.5-.5Zm0,8a.5.5,0,0,0-.5.5v4a.5.5,0,0,0,1,0v-4a.5.5,0,0,0-.5-.5Zm0,8a.5.5,0,0,0-.5.5v4a.5.5,0,0,0,1,0v-4a.5.5,0,0,0-.5-.5Zm0,8a.5.5,0,0,0-.5.5v4a.5.5,0,0,0,1,0v-4a.5.5,0,0,0-.5-.5Zm0,8a.5.5,0,0,0-.5.5v4a.5.5,0,0,0,1,0v-4a.5.5,0,0,0-.5-.5Zm0,8a.5.5,0,0,0-.5.5v4a.5.5,0,0,0,0,.2h.92a.5.5,0,0,0,0-.2v-4a.5.5,0,0,0-.5-.5Zm7.3,3.7h-4a.5.5,0,0,0,0,1h4a.5.5,0,0,0,0-1Zm8,0h-4a.5.5,0,0,0,0,1h4a.5.5,0,0,0,0-1Zm8,0h-4a.5.5,0,0,0,0,1h4a.5.5,0,1,0,0-1Zm8,0h-4a.5.5,0,0,0,0,1h4a.5.5,0,1,0,0-1Zm8,0h-4a.5.5,0,0,0,0,1h4a.5.5,0,1,0,0-1Zm8,0h-4a.5.5,0,0,0,0,1h4a.5.5,0,1,0,0-1Zm8,0h-4a.5.5,0,0,0,0,1h4a.5.5,0,0,0,0-1Zm8,0h-4a.5.5,0,0,0,0,1h4a.5.5,0,0,0,0-1Zm8,0h-4a.5.5,0,0,0,0,1h4a.5.5,0,0,0,0-1Zm8,0h-4a.5.5,0,0,0,0,1h4a.5.5,0,0,0,0-1Zm8,0h-4a.5.5,0,0,0,0,1h4a.5.5,0,0,0,0-1Zm8,0h-4a.5.5,0,0,0,0,1h4a.5.5,0,0,0,0-1Zm8,0h-4a.5.5,0,0,0,0,1h4a.5.5,0,0,0,0-1Zm8,0h-4a.5.5,0,0,0,0,1h4a.5.5,0,0,0,0-1Zm8,0h-4a.5.5,0,0,0,0,1h4a.5.5,0,0,0,0-1Zm8,0h-4a.5.5,0,0,0,0,1h4a.5.5,0,0,0,0-1Zm8,0h-4a.5.5,0,0,0,0,1h4a.5.5,0,0,0,0-1Zm8,0h-4a.5.5,0,0,0,0,1h4a.5.5,0,0,0,0-1Zm8,0h-4a.5.5,0,0,0,0,1h4a.5.5,0,0,0,0-1Zm8,0h-4a.5.5,0,0,0,0,1h4a.5.5,0,0,0,0-1Zm8,0h-4a.5.5,0,0,0,0,1h4a.5.5,0,0,0,0-1Zm8,0h-4a.5.5,0,0,0,0,1h4a.5.5,0,0,0,0-1Zm8,0h-4a.5.5,0,0,0,0,1h4a.5.5,0,0,0,0-1Zm8,0h-4a.5.5,0,0,0,0,1h4a.5.5,0,0,0,0-1Zm8,0h-4a.5.5,0,0,0,0,1h4a.5.5,0,0,0,0-1Zm8,0h-4a.5.5,0,0,0,0,1h4a.5.5,0,0,0,0-1Zm6.7-.3a.5.5,0,0,0-.46.3h-2.24a.5.5,0,0,0,0,1h3.2v-1h0a.5.5,0,0,0-.46-.3Zm0-8a.5.5,0,0,0-.5.5v4a.5.5,0,0,0,1,0v-4a.5.5,0,0,0-.5-.5Zm0-8a.5.5,0,0,0-.5.5v4a.5.5,0,0,0,1,0v-4a.5.5,0,0,0-.5-.5Zm0-8a.5.5,0,0,0-.5.5v4a.5.5,0,0,0,1,0v-4a.5.5,0,0,0-.5-.5Zm0-8a.5.5,0,0,0-.5.5v4a.5.5,0,1,0,1,0v-4a.5.5,0,0,0-.5-.5Zm0-8a.5.5,0,0,0-.5.5v4a.5.5,0,1,0,1,0v-4a.5.5,0,0,0-.5-.5Zm0-8a.5.5,0,0,0-.5.5v4a.5.5,0,1,0,1,0v-4a.5.5,0,0,0-.5-.5Zm0-8a.5.5,0,0,0-.5.5v4a.5.5,0,0,0,1,0v-4a.5.5,0,0,0-.5-.5Zm0-8a.5.5,0,0,0-.5.5v4a.5.5,0,0,0,1,0v-4a.5.5,0,0,0-.5-.5Zm0-8a.5.5,0,0,0-.5.5v4a.5.5,0,0,0,1,0v-4a.5.5,0,0,0-.5-.5Zm0-8a.5.5,0,0,0-.5.5v4a.5.5,0,0,0,1,0v-4a.5.5,0,0,0-.5-.5Zm0-8a.5.5,0,0,0-.5.5v4a.5.5,0,0,0,1,0v-4a.5.5,0,0,0-.5-.5Zm0-8a.5.5,0,0,0-.5.5v4a.5.5,0,0,0,1,0v-4a.5.5,0,0,0-.5-.5Zm.5-3.9h-4a.5.5,0,0,0,0,1h4V48Z"/></svg>