<?xml version="1.0" encoding="utf-8"?>
<!-- Generator: Adobe Illustrator 20.0.0, SVG Export Plug-In . SVG Version: 6.00 Build 0)  -->
<svg version="1.1" id="Capa_1" xmlns="http://www.w3.org/2000/svg" xmlns:xlink="http://www.w3.org/1999/xlink" x="0px" y="0px"
	 viewBox="0 0 512 512" style="enable-background:new 0 0 512 512;" xml:space="preserve">
<style type="text/css">
	.st0{fill:#32B475;}
</style>
<g>
	<g id="check-circle-outline">
		<path class="st0" d="M151,207.4l-35.8,35.8l115.2,115.2l256-256l-35.8-35.8L230.4,286.7L151,207.4z M460.8,256
			c0,112.6-92.2,204.8-204.8,204.8S51.2,368.6,51.2,256S143.4,51.2,256,51.2c20.5,0,38.4,2.6,56.3,7.7l41-41
			C322.6,7.7,289.3,0,256,0C115.2,0,0,115.2,0,256s115.2,256,256,256s256-115.2,256-256H460.8z"/>
	</g>
</g>
</svg>
