<?xml version="1.0" encoding="utf-8"?>
<!-- Generator: Adobe Illustrator 20.0.0, SVG Export Plug-In . SVG Version: 6.00 Build 0)  -->
<svg version="1.1" id="Layer_1" xmlns="http://www.w3.org/2000/svg" xmlns:xlink="http://www.w3.org/1999/xlink" x="0px" y="0px"
	 viewBox="0 0 129 129" style="enable-background:new 0 0 129 129;" xml:space="preserve">
<style type="text/css">
	.st0{fill:#999999;}
</style>
<g>
	<g>
		<path class="st0" d="M12.3,70.2c0,28.8,23.4,52.2,52.2,52.2s52.2-23.4,52.2-52.2c0-14.3-5.8-27.4-15.2-36.8l4.1-4.1l1.9,1.9
			c0.8,0.8,1.8,1.2,2.9,1.2s2.1-0.4,2.9-1.2c1.6-1.6,1.6-4.2,0-5.8l-9.5-9.5c-1.6-1.6-4.2-1.6-5.8,0c-1.6,1.6-1.6,4.2,0,5.8l1.9,1.9
			l-4.5,4.5c-7.6-5.6-16.7-9.1-26.7-9.9v-3.5h9.1c2.3,0,4.1-1.8,4.1-4.1s-1.8-4.1-4.1-4.1h-27c-2.3,0-4.1,1.8-4.1,4.1
			s1.8,4.1,4.1,4.1h9.7v3.5C33.5,20.3,12.3,42.8,12.3,70.2z M64.5,26.2c24.3,0,44.1,19.8,44.1,44.1s-19.8,44.1-44.1,44.1
			S20.4,94.6,20.4,70.3C20.4,45.9,40.2,26.2,64.5,26.2z"/>
		<path class="st0" d="M64.5,73.6H82c2.3,0,4.1-1.8,4.1-4.1c0-2.3-1.8-4.1-4.1-4.1H68.6V44.3c0-2.3-1.8-4.1-4.1-4.1
			c-2.3,0-4.1,1.8-4.1,4.1v25.3C60.4,71.8,62.2,73.6,64.5,73.6z"/>
	</g>
</g>
</svg>
