<svg id="Layer_1" data-name="Layer 1" xmlns="http://www.w3.org/2000/svg" xmlns:xlink="http://www.w3.org/1999/xlink" viewBox="0 0 720 330"><defs><style>.cls-1,.cls-12,.cls-13,.cls-14,.cls-15,.cls-5{fill:none;}.cls-2{fill:#caedff;}.cls-3{fill:#fff;}.cls-4{fill:#3273ad;}.cls-5{stroke:#3273ad;}.cls-15,.cls-5{stroke-linecap:round;stroke-linejoin:round;}.cls-6{clip-path:url(#clip-path);}.cls-7{fill:#c3f1fc;}.cls-8{fill:#fad264;}.cls-9{opacity:0.8;}.cls-10{fill:#eff5f8;opacity:0.6;}.cls-11{opacity:0.7;}.cls-12{stroke:#e3b462;}.cls-12,.cls-13,.cls-14{stroke-miterlimit:10;}.cls-12,.cls-13,.cls-15{stroke-width:1.5px;}.cls-12,.cls-13,.cls-14,.cls-15,.cls-19{opacity:0.4;}.cls-13{stroke:#32b475;}.cls-14{stroke:#349b67;}.cls-15{stroke:#0aa5e3;}.cls-16{opacity:0.3;}.cls-17{fill:#cdebfc;}.cls-18{fill:#31b375;}</style><clipPath id="clip-path"><rect class="cls-1" x="146.1" y="42.83" width="443.29" height="249.08"/></clipPath></defs><title>waves</title><path class="cls-2" d="M270,310.55V308h353a32.24,32.24,0,0,0,32.21-32.21V59a32.24,32.24,0,0,0-32.21-32.21h-510A32.24,32.24,0,0,0,80.68,59V275.77A32.24,32.24,0,0,0,112.89,308h34.48v2.57h20.85V308h23.28v2.57h34.33V308h9.8v2.57Z"/><path class="cls-3" d="M602.9,167.37a19,19,0,1,0,19-19A19.05,19.05,0,0,0,602.9,167.37Z"/><path class="cls-4" d="M621.92,148.46A18.91,18.91,0,1,1,603,167.37a18.93,18.93,0,0,1,18.91-18.91m0-1a19.91,19.91,0,1,0,19.91,19.91,19.93,19.93,0,0,0-19.91-19.91Z"/><path class="cls-4" d="M651.32,62.72V272a32.41,32.41,0,0,1-32.38,32.38H116.46A32.41,32.41,0,0,1,84.09,272V62.72a32.41,32.41,0,0,1,32.38-32.38H618.94A32.41,32.41,0,0,1,651.32,62.72ZM85,272a31.53,31.53,0,0,0,31.5,31.5H618.94a31.53,31.53,0,0,0,31.5-31.5V62.72a31.53,31.53,0,0,0-31.5-31.5H116.46A31.53,31.53,0,0,0,85,62.72Z"/><path class="cls-4" d="M101.38,167.9a3.54,3.54,0,1,1-3.54-3.54A3.55,3.55,0,0,1,101.38,167.9Zm-6.21,0a2.67,2.67,0,1,0,2.67-2.67A2.67,2.67,0,0,0,95.17,167.9Z"/><path class="cls-4" d="M119.13,206.06a4.88,4.88,0,1,1-4.88-4.88A4.88,4.88,0,0,1,119.13,206.06Zm-8.88,0a4,4,0,1,0,4-4A4,4,0,0,0,110.25,206.06Z"/><path class="cls-4" d="M116.46,151.59v33.05a2.55,2.55,0,1,1-5.09,0V151.59a2.55,2.55,0,1,1,5.09,0Zm-4.21,33.05a1.67,1.67,0,1,0,3.34,0V151.59a1.67,1.67,0,1,0-3.34,0Z"/><path class="cls-4" d="M638.56,167.37a16.64,16.64,0,1,1-16.64-16.64A16.66,16.66,0,0,1,638.56,167.37Zm-32.4,0a15.76,15.76,0,1,0,15.76-15.76A15.78,15.78,0,0,0,606.16,167.37Z"/><path class="cls-4" d="M227.62,309.23v3.56H189.67v-3.56Zm-.9,2.65v-1.73H190.57v1.73Z"/><path class="cls-4" d="M170,309.23v3.56H145.61v-3.56Zm-.58,2.65v-1.73H146.19v1.73Z"/><path class="cls-4" d="M271.62,309.23v3.56H233.67v-3.56Zm-.9,2.65v-1.73H234.57v1.73Z"/><path class="cls-4" d="M589.27,42.95V291.79h-443V42.95h443m1-1h-445V292.79h445V41.95Z"/><rect class="cls-3" x="146.1" y="42.83" width="443.29" height="249.08"/><path class="cls-5" d="M656.88,59V275.77a34,34,0,0,1-34,34H271.71v2.57H233.87v-2.57h-6.3v2.57H189.74v-2.57H170v2.57H145.61v-2.57H112.89a34,34,0,0,1-34-34V59a34,34,0,0,1,34-34h510A34,34,0,0,1,656.88,59Z"/><g class="cls-6"><path class="cls-7" d="M569.93,95.53a1.67,1.67,0,0,1,.47-.26L584,90.35a1.68,1.68,0,1,1,1.14,3.15l-13.6,4.91a1.68,1.68,0,0,1-1.61-2.89Z"/><path class="cls-7" d="M561.69,62.91a1.68,1.68,0,0,1,2.43,2.25l-8.09,12a1.68,1.68,0,1,1-2.78-1.87l8.09-12A1.63,1.63,0,0,1,561.69,62.91Z"/><path class="cls-7" d="M527.55,53.11a1.68,1.68,0,0,1,2.71,1.25l.58,14.56a1.68,1.68,0,1,1-3.35.13l-.58-14.56A1.67,1.67,0,0,1,527.55,53.11Z"/><path class="cls-7" d="M494.1,65.16a1.68,1.68,0,0,1,2.36.28L505.58,77a1.68,1.68,0,1,1-2.63,2.08l-9.12-11.55A1.68,1.68,0,0,1,494.1,65.16Z"/><path class="cls-7" d="M474.19,94.65a1.68,1.68,0,0,1,1.5-.3l14.24,4.08a1.68,1.68,0,0,1-.92,3.23l-14.24-4.08a1.68,1.68,0,0,1-.58-2.93Z"/><circle class="cls-8" cx="530.5" cy="115.51" r="34.09"/><path class="cls-3" d="M589.4,181S591,126,511,107.67,512.33,165,512.33,165,581.13,208.61,589.4,181Z"/><g class="cls-9"><path class="cls-10" d="M382.68,168.12H340.9a3.14,3.14,0,0,0,0,6.28h10.72a3.14,3.14,0,0,1,0,6.28H344.9a3.14,3.14,0,1,0,0,6.28H372a3.14,3.14,0,0,0,0-6.28h-4.55a3.14,3.14,0,0,1,0-6.28h15.26a3.14,3.14,0,0,0,0-6.28Z"/><path class="cls-10" d="M474.51,141.59H516.3a3.14,3.14,0,0,0,0-6.28H505.58a3.14,3.14,0,1,1,0-6.28h6.71a3.14,3.14,0,1,0,0-6.28H485.23a3.14,3.14,0,0,0,0,6.28h4.55a3.14,3.14,0,0,1,0,6.28H474.51a3.14,3.14,0,0,0,0,6.28Z"/><path class="cls-10" d="M330.16,133.7H294.44a3.14,3.14,0,0,0,0,6.28h4.65a3.14,3.14,0,0,1,0,6.28H288.92a3.14,3.14,0,1,0,0,6.28h35.72a3.14,3.14,0,0,0,0-6.28H314.9a3.14,3.14,0,0,1,0-6.28h15.26a3.14,3.14,0,0,0,0-6.28Z"/><path class="cls-10" d="M176,186.43H200.7a1.85,1.85,0,1,0,0-3.71h-6.33a1.85,1.85,0,1,1,0-3.71h4a1.85,1.85,0,1,0,0-3.71h-16a1.85,1.85,0,0,0,0,3.71h2.68a1.85,1.85,0,1,1,0,3.71h-9a1.85,1.85,0,1,0,0,3.71Z"/><path class="cls-10" d="M251.14,106.79H227.33a2.09,2.09,0,1,0,0,4.19h3.1a2.09,2.09,0,0,1,0,4.19h-6.78a2.09,2.09,0,0,0,0,4.19h23.81a2.09,2.09,0,1,0,0-4.19H241a2.09,2.09,0,0,1,0-4.19h10.17a2.09,2.09,0,0,0,0-4.19Z"/><path class="cls-10" d="M293.31,74.64h34.58a2.15,2.15,0,0,1,0,4.29H314.56a2.15,2.15,0,0,0,0,4.29h7a2.15,2.15,0,0,1,0,4.29H297.08a2.15,2.15,0,1,1,0-4.29h6.66a2.15,2.15,0,0,0,0-4.29H293.31a2.15,2.15,0,1,1,0-4.29Z"/><path class="cls-10" d="M392.78,106.63H358.2a2.15,2.15,0,1,0,0,4.29h13.34a2.15,2.15,0,0,1,0,4.29h-7a2.15,2.15,0,0,0,0,4.29H389a2.15,2.15,0,1,0,0-4.29h-6.66a2.15,2.15,0,0,1,0-4.29h10.44a2.15,2.15,0,0,0,0-4.29Z"/><g class="cls-11"><circle class="cls-12" cx="424.04" cy="154.45" r="2.13"/><circle class="cls-13" cx="228.39" cy="93.38" r="2.13"/><circle class="cls-14" cx="329.15" cy="90.63" r="1.35"/><circle class="cls-12" cx="313.93" cy="119.35" r="3.46"/><circle class="cls-12" cx="253.23" cy="125.63" r="4.25"/><circle class="cls-15" cx="186.85" cy="150.55" r="3.9"/><circle class="cls-15" cx="285.78" cy="211.62" r="3.9"/><circle class="cls-12" cx="455.53" cy="71" r="3.46"/><circle class="cls-15" cx="387.28" cy="86.38" r="4.25" transform="translate(33.7 266.45) rotate(-39.56)"/><circle class="cls-13" cx="359.49" cy="111.56" r="2.3" transform="matrix(0.77, -0.64, 0.64, 0.77, 11.29, 254.52)"/><circle class="cls-12" cx="571.7" cy="113.86" r="3.46" transform="translate(58.44 390.21) rotate(-39.56)"/><circle class="cls-15" cx="345.67" cy="177.54" r="4.25" transform="translate(-33.9 260.83) rotate(-39.56)"/><circle class="cls-12" cx="281.88" cy="151.61" r="3.9" transform="translate(-31.99 214.26) rotate(-39.56)"/><circle class="cls-13" cx="408.8" cy="191.68" r="2.13"/></g><g class="cls-16"><path class="cls-17" d="M161,123.43h5a.41.41,0,0,0,.41-.43,3.7,3.7,0,0,1,1-2.82c1.53-1.57,4.31-1.56,4.34-1.57a.46.46,0,0,0,.31-.14.41.41,0,0,0,.1-.33,8.52,8.52,0,0,1,1.77-5.85,6.74,6.74,0,0,1,5.32-2.1,6.23,6.23,0,0,1,4.68,1.79,8.67,8.67,0,0,1,2,5.66.41.41,0,0,0,.16.35.42.42,0,0,0,.38.06,5.75,5.75,0,0,1,4.86.22c2.46,1.43,3.15,4.8,3.16,4.83a.41.41,0,0,0,.4.33h9.89a.41.41,0,1,0,0-.82h-9.57a8.45,8.45,0,0,0-3.47-5,6.31,6.31,0,0,0-5-.46,9,9,0,0,0-2.17-5.69,7,7,0,0,0-5.27-2,7.55,7.55,0,0,0-5.94,2.39,9.29,9.29,0,0,0-2,6.06,7.19,7.19,0,0,0-4.49,1.8,4.38,4.38,0,0,0-1.22,3H161a.41.41,0,0,0,0,.82Z"/></g><g class="cls-16"><path class="cls-17" d="M501.81,110.22h0l8.65-.39a1,1,0,0,0,.64-.09,1,1,0,0,0,.31-.75c0-.06,0-.11,0-.14a7.53,7.53,0,0,1,.29-.86,5.68,5.68,0,0,1,.77-1.34,4.82,4.82,0,0,1,2-1.5,6,6,0,0,1,2-.39,6.46,6.46,0,0,1,.72,0,1.08,1.08,0,0,0,.58,0c.3-.11.42-.45.62-1.26,0-.13.06-.24.08-.29a15.54,15.54,0,0,1,.84-2,10.28,10.28,0,0,1,2-2.73,7.59,7.59,0,0,1,4.5-2.09,10,10,0,0,1,9.18,4.39,10.9,10.9,0,0,1,1.62,6.75.41.41,0,0,0,.82.08,11.75,11.75,0,0,0-1.75-7.28,10.71,10.71,0,0,0-10-4.76,8.4,8.4,0,0,0-5,2.32,11.08,11.08,0,0,0-2.13,2.95,16.29,16.29,0,0,0-.88,2.08c0,.07-.06.2-.1.36s-.11.45-.18.64l-.16,0a7.75,7.75,0,0,0-.81,0,6.8,6.8,0,0,0-2.22.45,5.64,5.64,0,0,0-2.37,1.76,6.48,6.48,0,0,0-.88,1.53,8.39,8.39,0,0,0-.33,1c0,.05,0,.14,0,.24l0,.15h-.15l-8.65.39a.41.41,0,0,0,0,.82Z"/></g><g class="cls-16"><path class="cls-17" d="M418.6,101.08h5a.41.41,0,0,0,.41-.43,3.7,3.7,0,0,1,1-2.82c1.53-1.57,4.31-1.56,4.34-1.57a.46.46,0,0,0,.31-.14.41.41,0,0,0,.1-.33,8.52,8.52,0,0,1,1.77-5.85,6.74,6.74,0,0,1,5.32-2.1,6.23,6.23,0,0,1,4.68,1.79,8.67,8.67,0,0,1,2,5.66.41.41,0,0,0,.16.35.42.42,0,0,0,.38.06,5.75,5.75,0,0,1,4.86.22c2.46,1.43,3.15,4.8,3.16,4.83a.41.41,0,0,0,.4.33h9.89a.41.41,0,1,0,0-.82h-9.57a8.45,8.45,0,0,0-3.47-5,6.31,6.31,0,0,0-5-.46,9,9,0,0,0-2.17-5.69,7,7,0,0,0-5.27-2,7.55,7.55,0,0,0-5.94,2.39,9.29,9.29,0,0,0-2,6.06,7.19,7.19,0,0,0-4.49,1.8,4.38,4.38,0,0,0-1.22,3H418.6a.41.41,0,0,0,0,.82Z"/></g></g><path class="cls-2" d="M775.18,258.12s-134-11.37-166.52-92.6L588.15,182l3.64,29.85s52.6,44.68,107,50.36c0,0-57.67-17.87-87.73-52,0,0,53.1,37.36,84.48,38.18,0,0-57.67-21.93-73.92-45.08C621.66,203.29,685.83,258.12,775.18,258.12Z"/><path class="cls-2" d="M434.1,190.22l-18-19s-20.31,38.18-78,42.65c0,0,52,4.47,73.92-24.77,0,0-6.5,18.36-36.55,25C375.53,214.09,417.93,224.67,434.1,190.22Z"/><path class="cls-2" d="M349.54,226.6s-91-.16-54.42-61.08c0,0-79.6,88.54-204.7,86.1,0,0,109.66,5.43,182.77-58.21,0,0-8.94,11.23,7.31,22.21,0,0,6.5,28.6-25.18,19.79,0,0-4.06,12.15-22.74,10.52,0,0-4.87,13.23-26.81,5.8,0,0,18,13.86,30.87,2.26,0,0,17.06,1.52,23.56-12.94,0,0,26,2.76,35.74-14.46C295.93,226.6,315.92,241.2,349.54,226.6Z"/><path class="cls-2" d="M117.22,245.93s78-31.68,115.35-67.42c0,0,3.25,13.3-12.59,37.11,0,0,23.15-19.24,19.9-50.11C239.88,165.52,149.72,232.94,117.22,245.93Z"/><path class="cls-2" d="M451.08,140.16a11.5,11.5,0,0,0,2.42-2.89c1.32-2.34,2-5.58-4.86-5.06-3.12.24-8.58,3.68-15.33,8.28h0s47.82,101.38-148.76,121.69h69s60-8.78,84.83-60.84c0,0,8.38,23.79-24.83,52.06,0,0,55.37-28,48.86-98.57a17.84,17.84,0,0,1-7-2.31C445.42,146.65,449.19,141.83,451.08,140.16Z"/><path class="cls-2" d="M462.46,154.83s30,31.81-3.27,88.67c0,0,33.3-29.24,24.37-95C483.57,148.46,473.12,156.07,462.46,154.83Z"/><path class="cls-2" d="M501.44,175.26s4.87-22.41,0-33.13a56.69,56.69,0,0,0-17.88,6.33S498.19,146.83,501.44,175.26Z"/><path class="cls-2" d="M555.86,182c11.37-21.33-3.25-11.58-11.37-7.52l-2,1c-4.75,15.81-15.5,46.86-31.34,65.63a260.63,260.63,0,0,0,42.23-45.37C552.6,191.73,553.09,187.16,555.86,182Z"/><path class="cls-2" d="M573.58,215.59a22,22,0,0,0-3.09-1.69c-.67-.31-1.73-.83-3-1.56-4.17,15.13-18.55,57.47-49.83,62.8,0,0,49.33-2.21,61.07-54.29A19.19,19.19,0,0,0,573.58,215.59Z"/><path class="cls-2" d="M537.36,161.37a5.24,5.24,0,1,1-7.26-7.56c10.44-10,34.07-27.64,51.54-2.35-7-11.4-13.92-17.08-13.92-17.08a228.92,228.92,0,0,0-39.49-25.72c-106-26-164,14.6-183.29,29a4.23,4.23,0,1,1-5.06-6.79c61.56-45.69,130.51-39.85,173.59-29C420,63.42,341.9,115.76,341.9,115.76s-30.05,14.62-14.62,31.68S372,136.88,372,136.88s-14.62,18.68,8.94,22.74,60.92-33.3,71.48-34.12c6.86-.53,6.18,2.72,4.86,5.06a11.5,11.5,0,0,1-2.42,2.89c-1.88,1.68-5.65,6.5,4.39,12.36,12.51,7.31,28.1-4.06,28.1-4.06s13.81-8.12,26-6.5c6.71.89,8.49,5.23,8.74,9a8.84,8.84,0,0,1-3.37,7.3c-2.52,2.11-4.92,6.41,1.94,13.8,10.56,11.37,19.49,6.5,27.62,2.44s22.74-13.81,11.37,7.52c-10.19,19.11,10.27,29.89,14.64,31.93a22,22,0,0,1,3.09,1.69c19.31,13.11,4.21,53.9,4.21,53.9,13.36-30.13,15.67-54.88,13-74.35C587.69,163.48,571.4,128.8,537.36,161.37ZM395.12,140.46a4.34,4.34,0,1,1-6.36-5.84c11.5-10.3,48-35.91,116.49-23.91C505.25,110.72,422,106.39,395.12,140.46Z"/><path class="cls-2" d="M598.79,208.55c0,.22.06.43.09.65C598.88,209.21,598.85,209,598.79,208.55Z"/><path class="cls-2" d="M273.18,193.41s-38.77,51.83-128.73,65.21c0,0,87.53-10.52,137.6-52.9l-5.64-12.31"/><path class="cls-2" d="M222.8,178.06S211.45,217,171.58,240.3c0,0,21.9-14.65,25.61-35.18Z"/><path class="cls-2" d="M286.62,235.89s40.89,13.25,90.48,5.17c0,0-50,17.2-116.91,0Z"/><path class="cls-2" d="M462.23,254.37s38.48-23.85,44.4-57.31c0,0,8.07,21.74-15.73,57.92Z"/><path class="cls-2" d="M209.87,310.69c-.85-34.58-42.61-48.15-58.95-52.15-4.53.79-9,1.71-13.34,2.78C137.58,261.32,181.6,320.46,209.87,310.69Z"/><path class="cls-2" d="M279,262.12a207.33,207.33,0,0,0-37.33-6.39c-13.35-1-28.82-1.64-44.88-1.31,23.71,3.78,60.66,11.47,77.39,24.52C283.85,272.94,279.12,262.42,279,262.12Z"/><path class="cls-2" d="M317.13,291.57s32.41,19.12,63-10.2c35.74-34.25,99.78-30.68,146.11-10.21,0,0-86-19.56-134.77,17.07A75.62,75.62,0,0,1,366.38,301c-10.24,2.83-23.12,3.93-36.07-1.45,23.43,12.65,73.85,33.09,116,3.8,17.28-12,37.12-19.46,56.38-24-50.17-11-106.18,24-106.18,24,43.72-40.69,99.29-26.13,106.35-24.06a253.87,253.87,0,0,1,38.58-5.86,146,146,0,0,1-22.45-7.7,172.41,172.41,0,0,0-44.18-13.08,199.68,199.68,0,0,0-94.66,8.68l-.14,0a57.33,57.33,0,0,0-20.67,12.31C350.65,281.9,337.12,290.13,317.13,291.57Z"/><path class="cls-2" d="M284.77,297.32a65.31,65.31,0,0,1,23,13.37c19.71,17.07,55.56,19,84,17.28-45.14-3.66-74.66-36.4-74.66-36.4s16.81-7.7,29.33-21.42a129.83,129.83,0,0,1-23.6,1.86C317.59,279.88,306.74,290.39,284.77,297.32Z"/><path class="cls-2" d="M274.08,300.19a191,191,0,0,1-33.89,4.2c63.49,1.33,60.61,15.19,42.93,28.3h66a137.1,137.1,0,0,1-53.6-21S288.17,303.18,274.08,300.19Z"/><path class="cls-2" d="M209.87,310.69c28.27-9.77,7.08-19.12,7.08-19.12s-9.93-11.18,31.49-8.71c12.85.76,20.65-.94,25.32-3.66-9.66-2.67-80.63-22-104.1-22l1.26-1.29c-6.33.61-12.63,1.43-18.81,2.48C225.2,271.08,209.87,310.69,209.87,310.69Z"/><path class="cls-2" d="M240.19,304.39a51.1,51.1,0,0,1,33.59-9.26c14.95-5.55,30.07-13.69,34-24.62h0a68.61,68.61,0,0,1-10-2.64q-9.26-3.25-18.74-5.74c23.15,16.07,1.3,29.44-26.79,27.06a78.14,78.14,0,0,0-10.24-.4,7.69,7.69,0,0,0-6.48,11c6.51,14.21-15.06,21.5-15.06,21.5-53,11.61-82.86-60-82.86-60l15.92,71.37h127C308.29,307.8,240.19,304.39,240.19,304.39Z"/><path class="cls-2" d="M240.19,304.39s9.35-1.67,21.14-5.14A64,64,0,0,0,240.19,304.39Z"/><path class="cls-2" d="M630.69,273.67a174.27,174.27,0,0,1-28.74,4.43v13.46s-61.86-29.63-142.75,19.12a129.93,129.93,0,0,1-25.1,11.81h0s-1,.47-2.86,1.21c83.81-8.44,91.89.14,83.59,9h43.93c-12.43-40.25-112.47-15.11-112.47-15.11,100.52-27.36,114,.15,114.65,15.11h26.64c2-53.11-109.33-32.25-109.33-32.25,102.87-22,117.4,6.18,112.55,32.25h27.3Z"/><path class="cls-2" d="M429.89,324.25a159.71,159.71,0,0,1-32.31,8.44h112.3C509.95,321.31,451.77,323.15,429.89,324.25Z"/></g><path class="cls-18" d="M411,275c-9.69-.59-54.55-6.62-45.58-14.33,8.63-7.43,63.25-4.2,88,5.78S423.93,275.76,411,275Z"/><path class="cls-3" d="M376.16,267.37l-1.07-.34c-.69-.23-1.71-.57-3-1.09-.63-.26-1.33-.56-2.06-.94a8.16,8.16,0,0,1-2.21-1.54,1.36,1.36,0,0,1-.37-1.49,2.56,2.56,0,0,1,1.26-1A14.12,14.12,0,0,1,372,260c2.3-.41,4.82-.78,7.5-1s5.5-.46,8.43-.52,6-.07,9,0c1.54.07,3.09.1,4.64.19l4.67.31,4.66.47c1.55.15,3.08.39,4.61.58s3,.42,4.52.67,3,.44,4.4.74l4.24.82c1.38.27,2.72.61,4,.9,2.62.57,5.07,1.23,7.34,1.83s4.31,1.24,6.14,1.78,3.39,1.07,4.68,1.52l4.06,1.39-4.1-1.27c-1.3-.41-2.88-.9-4.72-1.38s-3.89-1.11-6.17-1.64-4.72-1.18-7.35-1.7-5.39-1.08-8.26-1.61c-1.43-.29-2.91-.47-4.39-.71s-3-.47-4.51-.64-3.05-.4-4.6-.55l-4.64-.44-4.65-.33c-1.55-.1-3.09-.14-4.62-.22-3.06-.1-6.08-.13-9-.06s-5.73.2-8.4.42-5.17.54-7.48.91a14.5,14.5,0,0,0-3.19.85,2.28,2.28,0,0,0-1.13.86,1.07,1.07,0,0,0,.29,1.18,8,8,0,0,0,2.09,1.55c.72.4,1.4.72,2,1,1.25.55,2.25.92,2.94,1.17Z"/><path class="cls-18" d="M430.57,233.23c-1.51,2.38-6.38,11.53-6.16,12.89s7.24,18,5.66,19.25-11.53,2.73-11.83,1.34c-.17-.78,4.74-2.09,5.21-3.57.53-1.65-5.1-11.21-5.8-14.07s.34-13.48-.48-14.18-8.44,7.26-11.78,11.29c-1.8,2.18-3.61,16.36-3.92,18.07s-12.23,1.62-12.67.07,6-2,7.55-3.42c.8-.71,0-16.77,1.79-20.33,4.55-9.07,15.75-16.55,17.14-18.21l-5.16-14.93A189.71,189.71,0,0,0,389.68,217c-2.65,1.05-4.93-1.6-1.22-4.6,9.27-7.48,22-17.81,36.55-16.85,16.3,1.08,24.71,8.26,26.15,9.24s7.3,7.21-8.47,2.18c-16.47-5.25-14.26-.81-14.26-.81S436.49,223.92,430.57,233.23Z"/><path class="cls-3" d="M430.57,233.23a95.88,95.88,0,0,0-5.3,10.3c-.19.44-.37.89-.52,1.35a2.91,2.91,0,0,0-.24,1.38c.27.91.64,1.82,1,2.72l2,5.43c.67,1.81,1.32,3.63,1.9,5.48.29.92.56,1.85.78,2.8a12.15,12.15,0,0,1,.25,1.45,3.51,3.51,0,0,1,0,.76,1.53,1.53,0,0,1-.1.41.9.9,0,0,1-.32.32,11.29,11.29,0,0,1-2.79,1c-.95.23-1.9.41-2.86.56s-1.93.27-2.9.33a8,8,0,0,1-3-.21,1,1,0,0,1-.4-.28.6.6,0,0,1-.11-.31.46.46,0,0,1,0-.17.49.49,0,0,1,.08-.15,2.14,2.14,0,0,1,.65-.52c.43-.25.87-.46,1.31-.67a16.36,16.36,0,0,0,2.5-1.36c.35-.28.72-.57.68-1a2.91,2.91,0,0,0-.09-.62l-.2-.67c-.31-.9-.7-1.78-1.1-2.65-.8-1.75-1.67-3.48-2.51-5.22-.42-.87-.84-1.74-1.22-2.64a9,9,0,0,1-.85-2.83c-.3-3.9.09-7.76,0-11.6a6.6,6.6,0,0,0-.16-1.37c0-.09-.06-.16-.07-.13s0,0,0,0l-.13,0a3.7,3.7,0,0,0-.58.34,22.64,22.64,0,0,0-2.19,1.84c-1.41,1.31-2.76,2.69-4.09,4.09s-2.62,2.83-3.87,4.29l-.46.55c-.12.14-.25.39-.38.58a11.29,11.29,0,0,0-.5,1.29c-.3.9-.53,1.84-.75,2.77-.85,3.76-1.43,7.58-2,11.39l-.21,1.43a3.35,3.35,0,0,1-.16.76,1.45,1.45,0,0,1-.71.56,10.71,10.71,0,0,1-2.91.59,32.62,32.62,0,0,1-5.84,0,11,11,0,0,1-2.91-.59,1.27,1.27,0,0,1-.69-.56l0-.07a.39.39,0,0,1,0-.08v-.09a.84.84,0,0,1,0-.29,1,1,0,0,1,.26-.4,4,4,0,0,1,1.36-.73,56.92,56.92,0,0,0,5.48-1.75,2.51,2.51,0,0,0,.5-.34c.09-.13,0-.12.08-.25s0-.22.06-.34c.06-.46.09-.94.12-1.42.05-1,.08-1.92.1-2.89l.15-5.8c.07-1.93.17-3.87.39-5.8a19.13,19.13,0,0,1,.52-2.89,5.82,5.82,0,0,1,.6-1.37l.71-1.27a39.77,39.77,0,0,1,3.45-4.71q1.91-2.2,4-4.21c1.41-1.33,2.86-2.61,4.35-3.85l2.24-1.84a26.23,26.23,0,0,0,2.15-1.87l0,.24-5.16-14.93.32.15c-3.49,1.34-6.93,2.89-10.33,4.48s-6.76,3.29-10.08,5h0a3,3,0,0,1-2.27,0,2,2,0,0,1-1.23-1.92,3.72,3.72,0,0,1,.91-2.06,11,11,0,0,1,1.6-1.48c2.22-1.78,4.44-3.57,6.73-5.26a67.25,67.25,0,0,1,14.74-8.63,35.12,35.12,0,0,1,8.25-2.31,31.25,31.25,0,0,1,8.56-.13,53.71,53.71,0,0,1,8.43,1.5,48.59,48.59,0,0,1,8.06,2.9,41.64,41.64,0,0,1,7.35,4.41,8.43,8.43,0,0,1,1.64,1.43,4.1,4.1,0,0,1,1.1,2,1.13,1.13,0,0,1-.57,1.14,3,3,0,0,1-1.13.3,10,10,0,0,1-2.18-.12,54.51,54.51,0,0,1-8.28-2.17,56.11,56.11,0,0,0-8.24-2.08,17.74,17.74,0,0,0-2.1-.2,4.89,4.89,0,0,0-2,.28,1,1,0,0,0-.63.65,1.38,1.38,0,0,0,.2.94c.28.66.53,1.32.78,2a60.85,60.85,0,0,1,2.4,8.19,36.21,36.21,0,0,1,.89,8.48A16,16,0,0,1,430.57,233.23Zm0,0a16,16,0,0,0,2.13-8.15,36.11,36.11,0,0,0-1-8.45,57.41,57.41,0,0,0-2.48-8.14c-.26-.66-.52-1.32-.8-2a1.63,1.63,0,0,1-.23-1.1,1.25,1.25,0,0,1,.77-.85,5.14,5.14,0,0,1,2.15-.34,18.06,18.06,0,0,1,2.15.17,56.49,56.49,0,0,1,8.32,2,60.78,60.78,0,0,0,8.22,2.12,9.56,9.56,0,0,0,2.07.12,2.54,2.54,0,0,0,.92-.24.62.62,0,0,0,.32-.65,3.71,3.71,0,0,0-1-1.69,7.9,7.9,0,0,0-1.57-1.36,41.12,41.12,0,0,0-7.26-4.36,48.1,48.1,0,0,0-8-2.87A53.18,53.18,0,0,0,427,196a30.73,30.73,0,0,0-8.44.13,34.62,34.62,0,0,0-8.14,2.28,66.77,66.77,0,0,0-14.63,8.57c-2.28,1.69-4.5,3.46-6.72,5.25a10.51,10.51,0,0,0-1.53,1.41,3.25,3.25,0,0,0-.8,1.77,1.44,1.44,0,0,0,.92,1.44,2.54,2.54,0,0,0,1.89-.05h0q5-2.63,10.1-5c3.41-1.6,6.84-3.14,10.37-4.5l.24-.09.08.24,5.16,14.93,0,.14-.09.1a25.67,25.67,0,0,1-2.21,1.94L411,226.3c-1.48,1.24-2.92,2.51-4.32,3.83s-2.72,2.72-4,4.17a39.43,39.43,0,0,0-3.39,4.63l-.7,1.26a5.28,5.28,0,0,0-.56,1.27,18.69,18.69,0,0,0-.5,2.81c-.22,1.91-.31,3.83-.38,5.76l-.15,5.79c0,1,0,1.93-.1,2.9,0,.49-.06,1-.12,1.46,0,.12,0,.25-.06.38a1.28,1.28,0,0,1-.16.43,2.41,2.41,0,0,1-.68.49,55,55,0,0,1-5.54,1.78,3.6,3.6,0,0,0-1.18.62c-.29.28-.14.49.31.67a10.65,10.65,0,0,0,2.76.55,32.13,32.13,0,0,0,5.74,0,10.34,10.34,0,0,0,2.75-.55,1.6,1.6,0,0,0,.44-.28,3,3,0,0,0,.13-.65l.21-1.43c.57-3.82,1.15-7.65,2-11.43.23-.94.45-1.89.76-2.82a10.82,10.82,0,0,1,.56-1.41,7.08,7.08,0,0,1,.41-.63l.47-.56c1.26-1.47,2.56-2.91,3.89-4.31s2.69-2.79,4.11-4.11a23,23,0,0,1,2.25-1.88,4.12,4.12,0,0,1,.67-.39l.21-.07a.7.7,0,0,1,.33,0l0,0s.1.05.11.07l.1.13a1.65,1.65,0,0,1,.1.22,6.87,6.87,0,0,1,.19,1.5c.12,3.89-.27,7.76,0,11.57a8.48,8.48,0,0,0,.81,2.69c.38.88.79,1.75,1.21,2.62.84,1.74,1.7,3.47,2.51,5.23.4.88.79,1.77,1.11,2.7l.21.71a3.61,3.61,0,0,1,.1.8v.27a.77.77,0,0,1-.05.15,1.54,1.54,0,0,1-.23.37,3.24,3.24,0,0,1-.58.53,16.7,16.7,0,0,1-2.58,1.42c-.43.21-.87.41-1.27.65a1.84,1.84,0,0,0-.49.37s0,0,0,0a.61.61,0,0,0,.19.12,8.28,8.28,0,0,0,2.76.18c1,0,1.91-.15,2.86-.29s1.9-.3,2.83-.51a11.22,11.22,0,0,0,2.68-.88.55.55,0,0,0,.2-.18,1.22,1.22,0,0,0,.07-.29,3.2,3.2,0,0,0,0-.68,11.84,11.84,0,0,0-.22-1.41c-.2-.94-.46-1.87-.73-2.79-.56-1.85-1.18-3.67-1.82-5.49l-2-5.44c-.33-.91-.68-1.8-1-2.75a3,3,0,0,1,.26-1.44c.16-.46.34-.91.54-1.35A95.92,95.92,0,0,1,430.57,233.23Z"/><ellipse class="cls-18" cx="413.1" cy="184.18" rx="5.72" ry="8.88" transform="translate(-26.73 78.72) rotate(-10.55)"/><path class="cls-3" d="M414.72,192.92l-.52.06c-.17,0-.38,0-.63,0a6.4,6.4,0,0,1-.84-.16,5.86,5.86,0,0,1-2.06-1.06,7.54,7.54,0,0,1-1.95-2.32,12.7,12.7,0,0,1-1.32-3.32,15.24,15.24,0,0,1-.34-1.91,12.93,12.93,0,0,1-.06-2,10.2,10.2,0,0,1,1-4.14,4.53,4.53,0,0,1,7.56-1.41,10.2,10.2,0,0,1,2.45,3.5,13.54,13.54,0,0,1,1,7.41,7.6,7.6,0,0,1-1,2.86,5.89,5.89,0,0,1-1.54,1.73,6.33,6.33,0,0,1-.72.46c-.23.09-.42.19-.58.23Zm0,0,.5-.14a3.6,3.6,0,0,0,1.25-.75,5.22,5.22,0,0,0,1.29-1.82,12,12,0,0,0,.81-2.77,13,13,0,0,0-1-7.13,9.71,9.71,0,0,0-2.32-3.32,4,4,0,0,0-6.79,1.26,9.71,9.71,0,0,0-1,3.94,12.47,12.47,0,0,0,.06,2,14.73,14.73,0,0,0,.33,1.86,11.6,11.6,0,0,0,3,5.48,5.25,5.25,0,0,0,1.86,1.24,3.58,3.58,0,0,0,1.43.25Z"/><g class="cls-19"><path class="cls-4" d="M356,256.58s-.42.2-1.18.62a24,24,0,0,0-3.13,2.1,13.46,13.46,0,0,0-1.9,1.86,5.86,5.86,0,0,0-1.33,2.7,4,4,0,0,0,.87,3.14,11,11,0,0,0,2.88,2.55,36.85,36.85,0,0,0,8.13,3.64c3,1,6.27,1.85,9.69,2.62,1.7.41,3.43.81,5.19,1.14s3.53.74,5.34,1l5.46.91,5.52.77c3.69.45,7.39.87,11,1.16,1.82.18,3.64.29,5.43.4s3.56.22,5.31.28c3.49.17,6.86.22,10.06.24s6.22-.05,9-.13l7.61-.33c1.13,0,2.19-.13,3.17-.2s1.88-.13,2.69-.23c1.62-.16,2.89-.32,3.75-.47l1.33-.2-1.31.27c-.85.19-2.12.41-3.73.66-.81.14-1.7.24-2.68.37s-2,.27-3.17.36-2.34.24-3.61.34-2.62.12-4,.2c-2.8.08-5.83.15-9,.13s-6.59-.07-10.09-.24q-2.62-.09-5.32-.28c-1.8-.11-3.62-.22-5.45-.4-3.66-.29-7.37-.71-11.08-1.16l-5.54-.77-5.47-.92c-1.81-.29-3.6-.7-5.37-1s-3.51-.74-5.2-1.14c-3.4-.77-6.7-1.63-9.76-2.64a37.54,37.54,0,0,1-8.31-3.72,11.06,11.06,0,0,1-3.08-2.75,4.66,4.66,0,0,1-.83-3.68,6.34,6.34,0,0,1,1.58-2.87,13.8,13.8,0,0,1,2-1.82,22.24,22.24,0,0,1,3.27-1.94C355.57,256.75,356,256.58,356,256.58Z"/></g><g class="cls-19"><path class="cls-4" d="M451,258.3s3.23.81,8,2.34c2.37.77,5.13,1.73,8,2.92a48.79,48.79,0,0,1,8.72,4.49,11.92,11.92,0,0,1,3.62,3.55,4.06,4.06,0,0,1,.56,2.56,4.47,4.47,0,0,1-1.16,2.28,12.34,12.34,0,0,1-3.82,2.58,33,33,0,0,1-3.8,1.45c-1.19.39-2.31.67-3.3.91s-1.85.43-2.57.57l-2.25.42,0-.07,2.21-.6,2.51-.73c1-.28,2-.65,3.22-1.06a32.34,32.34,0,0,0,3.68-1.53,12.41,12.41,0,0,0,3.56-2.45,3.73,3.73,0,0,0,1-1.87,3.39,3.39,0,0,0-.43-2.11,11.34,11.34,0,0,0-3.35-3.4,48.33,48.33,0,0,0-8.55-4.58c-2.86-1.23-5.58-2.25-7.93-3.07-4.71-1.64-7.92-2.52-7.92-2.52Z"/></g></svg>