<svg xmlns="http://www.w3.org/2000/svg" viewBox="0 0 896 240"><style><![CDATA[.B{stroke:#00cef3}.C{stroke:#ff8060}.D{stroke:#00e7c2}.E{stroke:#ffb16d}]]></style><defs><clipPath id="A"><path fill="none" d="M0 0h896v240H0z"/></clipPath></defs><g clip-path="url(#A)"><g opacity=".30" fill="none"><path d="M869.5 370.62c4.26-10.12-6.32-28-10.4-36.7-8.08-17.13-17.08-33.58-25.86-50.16s-17.63-33.14-25.34-50.5c-5-11.28-11.06-24.16-12-37.62-2-28.68 34.37-9.1 44.4-5.43 25.48 9.28 53.82 22.05 82.4 19.7 17.07-1.4 27.86-11.32 32.48-30.5 1.5-6.24 1.5-14.16 6.34-18.8 5.17-5 12.6-5.93 18.54-6.17 21.64-.9 42.76 6.93 62.27 14 21.05 7.56 41.64 16.73 62.08 25.3 8.66 3.64 19.3 3.7 28.86 4.1 12.5.56 25.1.56 37.7.72 27.66.4 56.25.58 82.2 8.73 16.26 5.1 32.44 14.44 38.9 32.93 3.24 9.28 2.2 20.58 2 30.92l-.7 37.44c.2 40.07 7 82 40.17 98.08 5 2.43 10.4 3.75 15.55 5.77 3.3 1.28 5.77 3.47 5.22 8.13-1.4 11.7-17.9 24.05-25.34 30.64-16.24 14.42-33.24 27.56-49.8 41.4-11 9.16-28.13 20.75-34.28 34.93-5.5 12.63 4.42 27.66 9.3 37.1 4.55 8.84 13.84 22.45 9.55 34.67-2.07 5.92-7.22 9.37-12.05 11.7-8.46 4.06-17 5.84-25.24 11.06-13.57 8.56-27.7 22.27-33.5 39.1-4 11.66-1.9 21.34 1.83 31.3 1.56 4.18 3 7.27 1 12.18-3 7.8-9 14.87-14 21.14-18.12 22.42-38.94 42.7-60.23 60.84-10.63 9.07-21.72 17.9-33.5 24.5-7.73 4.32-17.72 9.14-25.32 5.9-8.8-3.74-16.47-11.58-23.8-18.12-13.67-12.22-26.8-25.2-39.8-38.32Q954 715 911.5 666.33c-20-22.88-40.43-46-57.17-72.27a92.93 92.93 0 0 1-8.28-16.61c-2.44-6.24-6.95-10.48-11.75-14.25-29.78-23.43-69.62-32.12-105.28-42.1l-27-7.94c-7.68-2.48-17.35-4.33-23.3-10.27-11.75-11.7 9.53-27.34 18.38-33.63 31.2-22.16 65.76-37.42 98.82-54 15.72-7.88 31.5-15.7 47-24.52 7.98-4.55 22.84-11.24 26.57-20.1z" class="D"/><path d="M876.57 371.62c-1.1-13.1-7.65-25.22-12.7-36.15-7.3-15.75-15.2-31.05-22.8-46.57-7.2-14.68-14.35-29.47-20.13-45.13-3.52-9.54-8.1-21.1-6.87-32.5 2.7-24.64 36.78-6.23 45.78-3.08 22.4 7.85 47.22 18 72.26 15.1 15.64-1.83 25.88-11.54 30.23-29.22 1.5-6.1 1.9-11.7 6.44-16.5 5.25-5.54 12.63-7.25 19-8 20-2.2 40 4 58.16 9.84 18.8 6 38.16 12.9 55.17 21.56 6.8 3.46 16 4.15 23.85 5 12 1.3 24.2 2.05 36.3 3.1 24.58 2.1 49.6 4.7 72.4 13.48 16.44 6.33 32 16.55 40.53 34 8.6 17.7 6.82 38.72 7 59.46.2 35.86 2.2 80.2 29.74 99.5 4.18 2.93 8.82 4.27 13.3 6.46 2.3 1.13 4.83 2.65 4.82 6 0 8.68-14.27 18.53-19.53 23-14.54 12.22-29.74 23.27-44.53 35-11.74 9.34-25.82 19.28-34.5 32.58-10.52 16.15 4.38 37.16 6.26 52.48 3.23 26.55-25.25 28.78-41.07 34.06-18.17 6-38.12 22.7-34 45.8 1.6 8.83 5.4 15.3 3.6 25.18-2.83 15.44-12.07 30.53-20.56 43.37a300.48 300.48 0 0 1-44.07 52.79c-11.72 11-30.64 28.06-44.43 20.3-9.3-5.2-17.55-13.3-25.57-20.77-12-11.2-23.55-23-34.92-35-26.24-27.7-51.52-56.7-75.52-87-16.37-20.66-55.64-93.33-59.4-96.93-11.2-10.7-26.73-16.27-40.8-21.33-18.73-6.74-38.07-11.8-57.3-17-9.16-2.5-18.47-4.76-27.4-7.88-6.37-2.22-14.65-5.33-18.2-12-6.94-13.07 13.2-27.66 21.6-33.88 25.76-19.07 54-33 81.33-48 13.4-7.36 26.92-14.64 39.9-23.22 5.24-3.53 17.34-9.83 16.66-17.9z" class="B"/><path d="M886.7 369.46c-6.32-28-20.84-52.93-31.6-78.62-5.4-12.9-10.77-26.06-14.18-40.13-1.77-7.3-3.95-16.54-1.45-24.62 6.68-21.63 37.48-5.22 47.4-1.94 19.16 6.35 40.57 14.1 61.86 10.66 13-2.1 22.58-10.56 26.6-25.32 1.78-6.55 2.7-12.37 7.45-17.52s11.26-7.6 17.3-8.9c17.34-3.7 35.2.38 51.2 4.55a323 323 0 0 1 54.47 19.58c15.34 7.1 33.2 8.1 50 10.86 22.2 3.67 44.5 8.12 64.8 17.52 16 7.43 30.72 18.43 40.07 35 9.5 16.9 11 36.84 11.2 57.7.25 31.54-.5 73.35 20.6 94.26 3.07 3 6.44 4.67 10.14 6.54 1.8.92 4.17 2 4.1 4.7-.2 6.6-13 14.13-16.95 17-12.47 9.14-25.32 17.46-37.9 26.36-11.75 8.3-24.32 16.82-34.25 28.18-15.82 18.1.93 39.74-8.2 59.5-5.68 12.28-19.23 17-29.6 19.93-12.74 3.54-28.56 2.7-39.22 14.5-7.93 8.8-4.92 17.18-4 26.83 1.63 16.35-5.52 34.53-12.8 49.56a234.18 234.18 0 0 1-37.7 55.88c-6.75 7.33-14.34 14.72-22.73 19.07-7.87 4.1-13.47 3.6-19.86-.63-19.55-13-36.3-33.1-52.5-51.6a848.14 848.14 0 0 1-57.68-73.4c-12.24-17.56-24.6-35.9-33.1-56.58-2.2-5.4-4.38-11.15-5.06-17.3-.52-4.63-.1-8.1-2.75-11.74-7.86-10.8-23.23-15.4-34.8-19.55-18.5-6.64-37.68-11.5-56.7-16.63-11.1-3-32.82-6.74-36.45-21.42-3.14-12.67 12.53-25.33 20.58-31.9 20.36-16.6 42.83-29.2 64.5-42.82 9.92-6.23 20.12-12.44 29.4-20.12 2.36-2 5.86-4.4 7.52-7.3 1.88-3.28 1.15-6.74.37-10.18z" class="D"/><path d="M885.92 375c-6.2-25-16.76-47.83-24.54-72-3.48-10.86-6.87-22.13-8-34-.6-6.4-.8-14.23 2.74-20.37 10.13-17.63 35.72-4.76 46.8-1.33 16.48 5.12 35.3 11.23 53.53 7.15 11.94-2.67 19.5-10.9 23.1-24.12 3.87-14.18 12.1-22.17 24.62-25.68 15.68-4.4 32.07-1.93 46.8 1.13a246.9 246.9 0 0 1 51.34 16.75c16 7.24 33 10.6 49.9 15.25 22.44 6.2 45 14.12 63.47 28.87 16.12 12.84 27.88 31 32.9 53.57 5.26 23.53 2 49 4 73.37 1.25 15.23 3.38 35.57 13.56 45.6 3.4 3.35 11.75 4.33 5.12 10.88-3.8 3.75-9 6.24-13.3 8.78l-21.12 12c-15 8.5-30.8 17-44.38 28.82-17.1 14.92-9.72 35.14-19.47 53.5-5.25 9.87-14.57 15.57-23.48 19.37a114.87 114.87 0 0 1-17.54 5.56c-6.16 1.53-12.82 1.86-18.82 4.68-8.55 4-9.3 12.72-11.75 21.55a240.15 240.15 0 0 1-17.65 45c-9 17.6-20.1 35-33.66 48.68-5.28 5.34-11.4 10.78-18 13.06s-11.44-.13-16.37-3.76c-14.63-10.75-27.07-26.58-38.9-41.6a522.29 522.29 0 0 1-41.06-59.82c-8.53-14.6-16.8-30-21.87-47a77.8 77.8 0 0 1-3.17-15.49c-.32-3.68.46-7.93-.9-11.17-4.3-10.18-19.84-14.23-28.5-17.5-17.36-6.42-35.77-9.66-53.17-16-9.5-3.43-24.57-8.3-27.28-20.85-2.56-11.8 9.32-23.6 16.86-30.7 14.83-14 31.44-25 47.3-37.07 6.52-5 13.53-10.1 19.13-16.58 5-5.72 3.34-12.14 1.75-18.54z" class="B"/><path d="M889.3 376.8c-4.3-21.47-11.65-42.07-15.88-63.8-2.47-12.75-6.9-34.3 4.2-46.08 12.2-12.93 32.16-4.94 44.12-1.3 14.24 4.32 31.07 9.1 46.8 4.47a25.27 25.27 0 0 0 13.39-8.85c3.83-5.05 4.38-10.66 6.58-16.4 4.63-12.06 14.5-19.12 25-22.4 14.8-4.64 30.24-3.24 44.37-.83a203.54 203.54 0 0 1 46.27 13.7c14.12 6.08 28.3 11.65 42.64 17.24 18.77 7.3 37.15 16.23 52.57 29.87a106.2 106.2 0 0 1 32.26 53.08c5.56 21.17 5.6 44.17 4.45 67.1-.65 13-.8 32.8 6.63 42.67 3.3 4.4 7.7 6.05.23 10.65-9.4 5.78-20.14 9.06-30 13.25-14.16 6.05-28.66 12.2-42.06 20.85a42.9 42.9 0 0 0-18 22.26c-3 7.78-4.93 15.9-8.84 23.3-9.18 17.4-26.08 24.82-41.28 32-9.77 4.6-18.22 7.67-26.1 16.76-9.33 10.74-16.78 23.57-25 35.36-9 12.94-18.7 26.26-30.48 36-10.5 8.7-19.6 10.7-28.8 3.26-14.34-11.62-25.53-30-35.5-46.8-10.13-17.14-19.44-35.54-25.33-55.64-3.17-10.86-3.66-22.22-5.84-33.36-2.76-14-21.18-17-31.48-20.27-17.1-5.47-73.73-16.08-53.23-51 8.56-14.58 22.47-25.48 34-36.66 4.78-4.63 11.1-9.95 14.4-16.2 3.6-6.8 1.16-15.75-.12-22.2z" class="C"/><path d="M894.68 380.76c-2.25-18.77-6.56-37.44-7.07-56.9-.34-12.6.92-28.72 11.9-37.23 12.38-9.62 29.12-6 41.2-2.73 12.43 3.34 27 7.9 40.68 2.43a21.59 21.59 0 0 0 11.16-9.5c2.46-4.52 3.2-9.77 5.65-14.4 5.53-10.38 14.66-17 24.3-20.48 28.53-10.37 60.72-1.68 85.57 8.3 12.44 5 24.58 11.7 36.6 17.9 15.6 8.06 30.62 17.5 43.32 30.3 27 27.17 36.37 65.93 36.07 109.1-.1 13.58-1.72 27.63 1.87 40.1 1.85 6.44-.46 9.52-6.3 12.2-9.12 4.18-18.9 6.17-28.23 8.93-13.25 3.93-26.77 7.9-39.57 13.9-8.82 4.14-15.8 8.78-21.36 18.26-4 6.76-6.85 14.14-10.46 21.1-6.86 13.22-16.24 25.25-27.44 33.87a204.09 204.09 0 0 1-27.94 17.57 204.52 204.52 0 0 0-34.92 23.51c-14.94 12.46-38.9 37-54.82 21-17.55-17.6-28.14-47.85-32.76-74.75-1.55-9-1.6-19.33-5.54-27.18-5.9-11.74-15.37-15.44-26.35-20.08-16.45-6.94-54-17.8-41.65-48 4.9-12 13.9-21.4 20.8-32 7.73-11.84 6.84-22.43 5.3-35.23z" class="E"/><path d="M-129.72 315.43c-.44-33.13-14.86-67.55-7.74-101.3 5.85-27.72 35.3-30 53-42.6 14-10 22-27.65 29.6-44.6C-48.08 111.7-42 96-34.77 81-30.12 71.36-22.13 52.35-12 52c9.66-.34 18.52 14.48 24.12 23.24 7.32 11.4 13.8 23.58 20.9 35.18 12 19.56 26.33 34 42.78 47.74q28.07 23.4 57.06 45.18c14.23 10.72 28.56 21.37 42.24 33.16 8.58 7.4 27.52 21.27 27.6 34.9 0 6.5-5 13.7-8.4 18.9a265.51 265.51 0 0 1-18.92 24.73c-12.27 14.67-25.06 28.67-37.7 42.84-16.42 18.4-32.1 36.5-46.55 57.38-14.92 21.6-29.18 43.94-43.73 66-9.86 14.9-19.7 31.67-33.92 40.83-17.8 11.44-32.4-.63-50.42-.77-15.48-.12-14.34-43.93-16.3-56.1s-6.33-23.8-8-36.17c-2.1-15.43-2.13-31.2-2.64-46.8-.63-19.07-.88-37.23-17.58-44.5-9.5-4.13-19.8-5-29.62-7.48-6.45-1.62-18.47-4.37-18.6-14.83z" class="C"/><path d="M-122.1 309.53c-1.63-27.76-11.22-63.3-2.15-92 7.75-24.5 32-27.67 48.3-40.54 13.47-10.6 19.47-28 26.2-45 5.4-13.68 10.65-27.5 16.78-40.75C-28.45 81.48-21.55 65-12.16 63-3.7 61.2 5.35 75.74 10.1 83.14c6.92 10.8 12.84 22.55 19 34 10.74 20.18 21.73 38.33 37.45 53.16s33.06 26 50.5 37.62c13.66 9.06 27.24 18.4 40.22 28.86 9.66 7.8 23.56 17.77 28 31.67 3.5 11-14.25 29.24-19.5 35.68-10.78 13.24-22.2 25.67-33.64 38-13.94 15-28.34 28.22-40.65 45.4-22 30.7-40.45 68.93-68.8 91.74-17.1 13.76-36.13 17.28-55.14 15.23-7.53-.82-9.34-13.8-10.3-21.37-1.58-12.57-1.78-25.36-3-38-1.14-11.82-3.66-23.05-5.7-34.64s-2.64-23.77-4.15-35.6c-.94-7.34-1.87-15.88-6-21.78-4.24-6.1-11.25-8.67-17.38-10.6-11.54-3.57-42-3.37-43.15-22.97z" class="D"/><path d="M-112.3 297.9c-2.73-25.5-6.55-57.23 4.57-80.7 9.1-19.2 28.48-23.35 42.33-35.86 11.52-10.4 15.87-27 21.6-42.32 4.7-12.6 9.4-25.28 15.1-37.28 4.32-9.1 9.87-21.45 18.44-24.62C-3 74.4 5.3 86.56 9.37 92.6c6.9 10.3 12.54 21.86 18.14 33.26 9.15 18.65 17.58 38.58 30.6 53.75 12.66 14.73 27.7 23.42 43 33.2A376.68 376.68 0 0 1 135.59 237c8.5 6.85 19 15 23.44 26.37 3.82 9.83-6 21.47-10.9 28.4-8.1 11.45-17.1 22-26 32.5-9.58 11.38-20.18 21.87-29.44 33.52-19.48 24.53-35 51.68-59 70.47-15.55 12.17-36.47 23.23-54.85 21.24-13.22-1.43-12.35-37.14-13.62-48.55-2.08-18.65-6.1-38.25-12.52-55.43-5.5-14.72-18.56-19.26-30.58-22.57-7.53-2.07-15.43-3.2-22.7-6.4-8.4-3.72-10.56-7.96-11.7-18.64z" class="B"/><path d="M-103.16 286c-1.63-21.55-1.26-47 9.27-65.67 9.23-16.32 25.66-20.62 37.34-33.48 9.12-10 12.7-26.4 17.6-39.67 6-16.22 14.4-46.2 29.52-52.3 14.06-5.67 28.77 30.6 33.87 41.4 8.06 17.1 14.8 35.88 24.58 51.68 8.42 13.6 19.7 21.13 31.68 29.2 15.27 10.33 38.45 22.57 46.6 42.7 6.08 15-13.7 37.28-20.46 47.67-7.07 10.85-12.4 23.7-19.68 34.18-11.5 16.5-30.16 29.8-45.55 40-15 9.88-34.4 20.8-51.4 20.15-11.16-.5-13.24-21.54-15.67-31.86-3.4-14.6-7.94-27.7-17.7-37.63C-53 322.3-64.72 317.52-77 313.35c-6.3-2.12-13.5-3.78-19.15-8.08-6.24-4.67-6.38-11.02-7-19.27z" class="E"/><path d="M-92 273.54c.1-18.6 3.57-38.46 13.9-52.82 8.62-12 22.1-16 30.34-28.2 6.53-9.68 9.85-23.27 14.23-34.5 5.34-13.78 12.9-37.84 26.2-42.62 13-4.66 24.45 21.85 29.43 32.34 7.3 15.38 13.2 31.68 20.54 47 5.76 12 12.8 19.8 22.18 27.55 11 9.1 26.37 19.2 32.25 34.27 4.24 10.9-6 28.35-9.75 38a108.44 108.44 0 0 0-6 20c-1 5.45-1.07 10.5-3.9 15.17C70.22 341.48 54.57 343 44 346.9c-14.14 5.15-29.1 11-43.86 12.1-9.07.7-13.7-9.5-18.88-16.68-6.12-8.5-14.78-14.6-22.34-21-10-8.46-20.85-13.72-32.1-19.1-5.06-2.44-11-4.82-15-9.66-4.05-4.98-3.83-12.3-3.83-19z" class="C"/><g class="B"><path d="M-80.33 262.5c1.8-15.63 7.38-30.58 16.82-41.63 7.23-8.5 16.83-13.26 22.63-23.46 5.4-9.5 9.18-20.3 13.65-30.47 4.72-10.74 11.75-28.7 22.65-31.62 11.75-3.15 20.8 15 25.8 25C27.57 173 32.38 186.65 38 199.77a112 112 0 0 0 16.14 26.54c6.75 8.23 15.9 16.12 19.3 27.45 3 10-2.63 22.16-3.62 32.33-1.07 10.87.8 22.28-5.1 31.6C52.57 336.94 22 333.37 4.48 333.78c-17.26.43-31.14-11.35-45.1-22.55-9.23-7.4-18.83-13.65-28.3-20.54-9.64-7.04-13-14.44-11.42-28.2z"/><path d="M-69.46 253.54c5.3-22.65 21.86-34.7 33.7-51.8 9.68-14 16.94-43 33.25-46.88 18.5-4.35 29.6 34.1 36 48.94 7.14 16.45 19.86 29.84 25.15 47.25 2.78 9.15.4 17.68-1.08 26.82-1.63 10-2.85 20.3-8.45 28.37-11 15.9-32.53 15.76-48.04 16.22C-15 322.9-29.2 312-42 301.15c-13.57-11.5-32.9-24.38-27.46-47.6z"/></g><path d="M-60.58 247.4c6-16.14 18.52-29.26 28.7-41.64 8.5-10.33 17.64-31.1 30.6-32.6 15.23-1.75 24.46 20.44 30.45 34.05 5.9 13.38 14.4 27.5 17.67 42.17 3.4 15.3-5.67 35.88-14.32 46.7-9.64 12.07-25.43 16.52-39 16-14.18-.5-27.2-10.46-37.94-20.8-11.45-11-23.12-25.16-16.17-43.9z" class="C"/><path d="M-52.34 244.36c5.7-13.42 15.6-24.77 24.7-34.9 7-7.82 17.42-21.12 27.57-21.44 11.17-.36 20.63 10.8 25.07 22.24 4.38 11.28 9 25.42 9.64 37.8 1.42 27-27.54 57.15-49.3 54.7-20.62-2.33-49.08-31.64-37.7-58.4z" class="B"/><path d="M-44.73 242.88c7.87-17.5 27-42.42 44.7-43 20.3-.68 25.4 27.07 22.76 47.17-2.72 20.5-26.1 50.22-44.78 46.2-18.23-3.9-31.94-29.63-22.67-50.37z" class="D"/><path d="M-36.68 240.05C-30 225.4-15.8 207.12-1 206.57c17.67-.66 17.34 22.77 13.33 37.35-4.17 15.13-22.52 41-38 36.9-15-4-17.4-26.74-11-40.78z" class="C"/><path d="M-29.68 238.37c4.4-10.45 15.4-23.65 25.87-24.08 12.8-.5 10.3 18.07 7 27-3.93 10.7-17.1 29.25-28.14 26.25-10.88-2.96-8.36-20.54-4.73-29.17z" class="B"/><path d="M493.15-54.23c21.8-19.26 46.6-35.43 70.47-51.18 30.56-20.16 62-39.36 95-53.52 19.37-8.3 42.28-17.66 63.55-13 7.6 1.66 13.67 6.62 20.5 10.84 7.77 4.8 15.76 9.13 23.75 13.36q24.66 13.06 49.67 25c8.84 4.24 18.7 10.13 28.24 10.88 7.57.6 15.77-2.4 23.15-3.85l39.9-7.66c15.36-2.82 30.78-5.57 46.32-7.14 8.66-.87 23.33-4.15 30.2 2 6 5.35-11 29.06-14 33.54-9.24 14-19.1 27.4-27.5 42.16-5 8.7-11 19.3-12.3 30.26-1.1 9.33 4.14 19.24 7.5 27.38 4.18 10.2 7.83 20.84 12.47 30.76 4.14 8.84 10 16.47 15.28 24.34 5.8 8.65 11.7 17.45 16.37 27.07 2.86 5.93 7.62 15.85 4 22.22-4.23 7.34-20.1 4.63-26.53 4.37-13-.54-26.1-2.07-39.14-3.3-21.64-2-42.24-3.6-63.67-.25-27.92 4.34-55.62 10.3-83.5 15-10.3 1.75-20.68 4.1-31.1 4.63-6 .3-10.76-1.4-14.78-6-5.48-6.28-16.77-8.84-24.77-11.9-12.47-4.77-25-9.1-37.6-13.5-27.55-9.7-55.54-18.86-82.15-32.4-8.42-4.3-18-9-24.8-16.9-3.77-4.4-3.47-9.07-6-13.9-3.36-6.35-12.3-8.4-17.68-10-10.4-3.08-21-4.74-31.57-6.23A549.08 549.08 0 0 0 431 13.91c-5.6-.05-27.6.06-17.44-12.43 11.23-13.8 28.77-21.9 42.84-30.56 12.6-7.77 25.38-15.12 36.75-25.15z" class="D"/><path d="M526.2-54.83c20.6-17.1 44-30.76 66.82-43.88 27.66-15.9 56.2-30.52 86-40.26 18.7-6.1 39.5-11.53 59.26-7.07 13.5 3 24.9 14.06 37.26 21.15a302.56 302.56 0 0 0 38.07 18.77c8 3.2 16.67 6.38 25 4.9 20.4-3.6 40.55-9 60.94-12.8 13.48-2.53 27-4.9 40.68-6.17 8.24-.78 19.48-2.65 27.35 1.82 8.7 4.93-28.56 59.6-32 65.67C927-37.5 916.8-17.44 921 2.35c4 18.92 13.76 32.3 24.65 46.25 6.18 7.94 25.5 28.84 20.53 40.63-2.84 6.73-14.78 5.85-20.38 6-11 .38-22.13-.23-33.2-.6-16.14-.52-32.85-2.24-48.92-1.5-11.18.52-22.24 2.74-33.36 4l-47.9 5.07c-13.4 1.35-26.9 3-40.4 2.95-8.4 0-15-1.5-21.6-7-5.77-4.74-13.93-7-20.9-9.63-11.53-4.37-23.16-8.32-34.76-12.35-24.28-8.44-48.8-16.63-72.4-27.94-10.77-5.16-28.7-12.06-32.77-27-1.47-5.4-2.36-7.7-7.1-10.34-6.74-3.73-14.45-4.9-21.65-5.85-16.8-2.22-33.53.27-50.28-1.9-6.83-.9-15.9-3.5-9.23-12.5 7.77-10.54 20.06-17.23 30-24.3 5-3.54 10.1-6.9 14.72-11.06 3.6-3.16 6.5-7.08 10.16-10.1z" class="B"/><path d="M568.85-55c19.22-14.17 40.58-25.3 61.62-35.53 23.38-11.36 47.52-21.3 72.44-27.17 17.2-4.06 35.73-6.77 53.38-2.22 11.17 2.87 19.4 10.63 29.4 16.8 15.13 9.3 31.14 16.23 47.6 12.26q27.7-6.66 55.78-11.6a329 329 0 0 1 34.09-4.53c7.24-.5 16.57-1 23.28 2.26 9 4.4-18 48.48-21.2 54.83A143.82 143.82 0 0 0 909.63.61c-1.74 15.2 6.5 26.07 14.92 36.35 5.22 6.4 21.55 22.1 18.05 31.54-1.92 5.2-10.1 5.86-14.43 6.6-8.3 1.4-16.7 1.85-25.07 2.57-12.35 1-25.2 4.82-37.6 4.33-27.5-1.08-54.9-1.6-82.42-1.38-15.18.13-30.43.42-45.63-.9-5.46-.47-11.1-1-16.43-2.86-3.43-1.2-5.5-3.66-8.5-5.53C698.27 62.4 680.6 59 665.1 54c-20.6-6.65-41.28-13.16-61.53-21.48-10.66-4.37-25.38-9.12-33.54-19.58-2.47-3.15-1.9-6-3.57-9.08-1.93-3.6-6.64-4.2-9.72-4.92-7-1.62-35.54-2.07-24.14-17.5 5.44-7.35 12.85-12.5 19.24-18.5a39.8 39.8 0 0 0 6.38-7.15c3.04-4.7 6.24-7.55 10.63-10.8z" class="E"/><path d="M614.32-54.9c38.42-23.74 84.5-42.15 129-44.58 14.8-.8 30.95.24 44.78 8.47 8.16 4.86 14.9 10.62 24.16 11.67 6.68.75 13.52-1.72 20-3.07 9.4-2 18.8-3.8 28.26-5.52 11.7-2.1 23.47-4 35.32-5 8.47-.7 20.1-2.28 28.06 2.43 9.5 5.62-9.32 39.1-11.84 45C906-31.34 902.12-17.78 902-1.44c0 4.76-1.4 9.8-.63 14.5s3.72 8.84 6.4 12.4c3.5 4.65 15.05 15.32 12.8 21.72-1.24 3.54-7.27 4.65-10.33 5.7-5.76 2-11.67 3.4-17.5 5.13-9.87 3-19.2 10-29.34 11-27.25 2.6-56-4.6-83.28-7.25-16.22-1.6-32.52-2.87-48.68-5.68a81 81 0 0 1-15.37-3.74c-3.47-1.34-5.93-4.16-9.18-5.73-12.5-6.05-26.4-9-39.5-12.56l-50.93-14.08c-10.6-3.16-24-5.48-33.67-12.47-7-5.1-2.86-7.34-.1-13.14 1.4-3 .7-5.64 1.1-8.85.56-4.6 3.2-8.14 5.7-11.35 3.45-4.44 8.26-8.3 10.9-13.57.93-1.85.63-4 1.37-5.6 2.16-4.7 8.93-7.66 12.54-9.9z" class="C"/><path d="M658.23-52.9c31.57-15.76 67.45-26.74 102.6-27.46 12.24-.25 24.7 1 36.63 5.37 5.42 2 9.6 4.43 15.24 3.95 13.1-1.1 26-3.82 39.06-5.58a233.91 233.91 0 0 1 28.1-2.52c6.3-.1 14.8-.3 20.43 3.8 8.18 6-2.62 30.54-4.63 37.22-3.33 11.08-6.5 23.34-3.32 35.38 1 3.68 2.3 6.88 2.86 10.68.5 3.26.5 6.33 1.8 9.36 1.6 3.75 7.53 9.2 6.13 13-1 2.58-4.58 3.1-6.92 4.15a66.39 66.39 0 0 0-10.91 6.26c-3.66 2.6-6.6 6.32-10.44 8.55-6.24 3.63-13.55 4.73-20.44 5.5-27.5 3-56.1-.47-83.7-4.4-14.36-2-28.83-4.3-43-8.25-4.3-1.2-9.16-2.34-13.13-5-2.47-1.66-4.28-3.88-7-5-23.32-9.8-49.2-11.5-73.47-17.76-6.32-1.62-41.2-9.5-24.88-22.43 9.92-7.86 20.86-12.15 29.57-22.35 2.66-3.1 4.38-5.62 5.06-10 .45-2.9-1.23-1.26 1-4.5 2.7-3.9 9.66-6.14 13.34-7.97z" class="E"/><g class="B"><path d="M693.27-49.6a257.2 257.2 0 0 1 118.37-14.88c10.12 1.1 20.36-.6 30.36-1.15 9.77-.56 26.9-3.6 35 4.72 5.86 6 1.9 20.7.8 28.3-1.38 9.7-2.43 19.66 2.6 28.35 3 5.1 6.75 9.82 9.86 14.84 1.5 2.4 4.4 6 3.65 8.52-1.27 4.15-9.1 6.72-12.78 9-11.76 7.36-24.75 10.36-38 11.8-24.55 2.67-49.68 1.35-74.38-1.5-11.36-1.3-22.9-2.78-34.08-6-6.33-1.83-11.33-6.18-17.42-8.4-19.63-7.18-40.15-9.9-60-16.23-5.74-1.84-27.1-7.72-17.88-18.5 8.92-10.44 23.6-11 33-20.9a11.22 11.22 0 0 0 2.87-4.2c.3-1-.62-2.78-.37-3.37 2.44-6.37 13.64-8.6 18.4-10.4z"/><path d="M719-45.9c19.4-5.53 39.53-8.62 59.62-11.08 11-1.35 23-3.56 34.1-1.37a175.22 175.22 0 0 0 20.39 3c7.5.6 19.4.3 24.73 7.5 4 5.38 3 17.46 3.68 24.46.73 7.68 2.66 13.23 7.7 18.22 3.18 3.14 17.38 14.25 16.3 18-1 3.6-9.88 5.13-13.63 6.46a154.07 154.07 0 0 1-36.51 7.81 289.41 289.41 0 0 1-58.11-.29c-8-.83-16.27-1.7-24.12-4.26-5.28-1.74-9.93-5.34-15.18-7.16-15.08-5.16-30.72-8.1-45.84-13.4-4.85-1.74-20.52-6-17.95-15.55 2.14-8 12.08-11.45 16.5-17.13 7.55-9.7 17.6-12.18 28.3-15.22z"/></g><path d="M731.93-42.9a355.46 355.46 0 0 1 47.31-8.54c10.27-1.18 21.1-2.57 31.5-.88 5.22.84 10 3.66 15 5.48C831-45 838.1-43 840.86-37.7c2.6 5 2.7 12.72 5.17 18.82 2.2 5.42 5.86 8.5 9.8 11.9C858.36-4.83 871.08 4.33 870 6.8c-1.15 2.63-8.1 3.2-11.68 4A230.38 230.38 0 0 1 828.54 15a208.6 208.6 0 0 1-41.27-.59c-9.74-1.2-17.5-5.84-26.8-8.83-12-3.9-24.37-6.64-36.35-11-6-2.18-14.74-4.87-18.46-11.82-1.42-2.67-3.3-9.64-2.37-12.56 1.1-3.52 6.5-5.56 9-6.72a117 117 0 0 1 19.63-6.39z" class="C"/><path d="M-198.14-166c24.8-17.4 52.34-31.26 78.9-44.78 34-17.32 68.7-33.56 104.5-44.38 21-6.35 45.82-13.37 67.3-6.08 7.67 2.6 13.4 8.44 20 13.6 7.48 5.9 15.26 11.28 23 16.6q24 16.38 48.52 31.65c8.65 5.42 18.18 12.67 28 14.55 7.77 1.5 16.6-.67 24.4-1.3l42.2-3.3c16.23-1.15 32.5-2.2 48.78-2 9.06.1 24.63-1.58 31 5.57 5.6 6.24-14.77 28.8-18.35 33.1-11.2 13.4-22.95 26.14-33.37 40.45-6.15 8.44-13.64 18.7-16.23 29.9-2.2 9.54 2 20.4 4.56 29.22 3.15 11 5.7 22.48 9.35 33.3 3.25 9.63 8.44 18.2 13 27 5 9.63 10.08 19.4 13.8 29.92 2.28 6.47 6.05 17.3 1.52 23.45-5.23 7.1-21.34 2.47-28 1.45-13.44-2.08-26.77-5.17-40.12-7.95-22.17-4.6-43.3-8.62-65.88-7.66C129.33 47.44 100 50.4 70.56 52c-10.85.62-21.88 1.85-32.74 1.18-6.23-.38-11-2.7-14.6-7.94C18.28 38.13 6.88 34.18-1 30.07c-12.4-6.4-24.9-12.33-37.38-18.35-27.4-13.23-55.3-26-81.27-43.08-8.22-5.4-17.63-11.44-23.7-20.38-3.4-5-2.53-9.8-4.6-15.08-2.75-7-11.76-10.1-17.14-12.4-10.4-4.4-21.22-7.36-32-10.12a571.11 571.11 0 0 0-73.36-13.4c-5.78-.7-28.57-3.14-16.6-14.9 13.22-13 32.3-19.34 47.88-26.66 14.07-6.58 28.1-12.72 41.04-21.72z" class="D"/><path d="M-163.86-162.83c23.32-15.3 49.15-26.73 74.26-37.65 30.48-13.26 61.72-25.08 93.68-31.7 20.08-4.15 42.2-7.34 62.15-.44 13.62 4.7 24.16 17.45 36.12 26.22a316.84 316.84 0 0 0 37.22 23.85c8 4.26 16.52 8.55 25.37 8 21.52-1.36 43-4.6 64.56-6.18 14.25-1.06 28.54-1.92 42.83-1.66 8.62.15 20.47-.48 28.1 5 8.44 6.12-36.48 58.4-40.73 64.27-10.64 14.75-23.53 34.32-21.48 55.3 2 20 10.5 35 20.15 50.74 5.48 8.93 23 32.8 16.53 44.43-3.7 6.65-16 4.35-21.8 3.9-11.48-.9-22.9-2.8-34.3-4.48-16.64-2.4-33.74-6.14-50.46-7.23-11.64-.76-23.35.26-35 .28-16.72 0-33.44-.13-50.16-.3-14-.16-28.2 0-42.18-1.64-8.7-1-15.3-3.3-21.53-9.7C14.05 12.6 5.86 9.34-1 5.8-12.48-.07-24-5.5-35.6-11c-24.16-11.6-48.6-22.9-71.7-37.35-10.56-6.6-28.3-15.82-30.78-31.8-.9-5.76-1.55-8.25-6.16-11.53-6.55-4.65-14.4-6.74-21.73-8.57-17.12-4.24-34.74-3.6-51.83-7.8-7-1.73-16-5.47-8.1-14 9.27-10 22.77-15.5 33.87-21.7 5.55-3.08 11.26-6 16.53-9.73 4.04-2.92 7.5-6.64 11.64-9.34z" class="B"/><path d="M-119.7-158c21.55-12.43 44.94-21.47 67.92-29.62 25.52-9 51.65-16.53 78.14-19.72 18.28-2.2 37.76-2.85 55.5 3.9 11.22 4.27 18.83 13.26 28.5 20.8 14.58 11.4 30.35 20.42 47.86 18.22q29.44-3.7 59.1-5.53a339.8 339.8 0 0 1 35.82-.78c7.54.32 17.26.87 23.83 5 8.78 5.6-24.2 48.1-28.32 54.3a150 150 0 0 0-22 50.53c-3.56 15.53 3.72 27.74 11.23 39.36 4.66 7.22 19.75 25.37 15 34.74-2.6 5.17-11.12 4.9-15.7 5.17-8.73.5-17.5 0-26.24-.25-12.9-.36-26.64 2.06-39.43.12-28.35-4.3-56.62-8-85.15-11C70.6 5.6 54.77 4.12 39.2 1 33.6-.15 27.8-1.34 22.5-3.9c-3.4-1.63-5.27-4.42-8.15-6.7C.64-21.5-17.27-27.1-32.72-34.08c-20.55-9.28-41.2-18.4-61.2-29.37-10.5-5.77-25.2-12.4-32.44-24.16-2.2-3.56-1.26-6.4-2.63-9.82-1.6-3.94-6.4-5.12-9.5-6.22-7-2.5-36.55-6.27-22.95-20.9 6.48-7 14.75-11.45 22.06-16.93a40.93 40.93 0 0 0 7.44-6.66c3.7-4.5 7.33-7.05 12.24-9.85z" class="E"/><path d="M-72.64-152.67c42.53-20.1 92.37-33.82 138.74-31.16 15.42.88 32 3.84 45.37 14 7.88 6 14.18 12.73 23.65 14.9 6.83 1.56 14.2-.2 21.07-.85l29.9-2.43c12.36-.82 24.76-1.45 37.15-1.12 8.85.25 21.07 0 28.76 5.77 9.18 6.93-14.2 39.4-17.47 45.18-8 14-13.56 27.6-15.58 44.5-.6 4.92-2.6 10-2.33 14.93s2.83 9.58 5.2 13.57c3.1 5.22 13.8 17.6 10.73 24-1.7 3.52-8.06 4-11.35 4.7-6.2 1.4-12.47 2.16-18.7 3.28-10.56 1.9-21 8.1-31.65 7.94C142.33 4 113.4-6.8 85.48-12.7c-16.6-3.54-33.33-6.74-49.74-11.53a83.81 83.81 0 0 1-15.47-5.65c-3.44-1.8-5.65-5-8.84-7C-.8-44.6-14.86-49.3-28-54.48L-79.08-75c-10.6-4.5-24.26-8.47-33.4-16.83-6.68-6.1-2.12-7.93 1.4-13.6 1.8-2.9 1.38-5.75 2.16-9 1.12-4.7 4.27-8.06 7.23-11.1 4.08-4.2 9.52-7.64 12.86-12.77 1.17-1.8 1.12-4.06 2.07-5.63 2.75-4.58 10.1-6.84 14.1-8.74z" class="C"/><path d="M367.05 180.12c29.55-6.68 60.3-9.06 90-11.5 38-3.14 76.3-5 113.54-1.4 21.86 2.1 47.46 5 64.57 19.9 6.1 5.3 9.18 12.9 13.3 20.16 4.7 8.28 9.83 16.22 15 24.08q16 24.27 32.87 47.7c6 8.3 12 18.62 20.35 24.06 6.63 4.34 15.62 5.7 23.08 8.07l40.28 13c15.46 5.1 30.92 10.3 45.9 16.65 8.35 3.54 23.4 7.88 26.6 16.93 2.8 7.9-24.6 21.05-29.54 23.66-15.43 8.14-31.16 15.47-46.22 24.76-8.9 5.47-19.72 12.13-26.37 21.5-5.66 8-5.84 19.65-6.86 28.76-1.28 11.4-3.27 23-4 34.35-.64 10.15.9 20.05 1.78 29.88 1 10.8 2 21.8 1.4 32.92-.35 6.85-1 18.3-7.5 22.28-7.53 4.6-20.68-5.83-26.42-9.28-11.65-7-22.8-15-34.1-22.58-18.77-12.67-36.8-24.4-58.05-32.1-27.67-10-56-18.4-83.8-28-10.27-3.55-20.94-6.6-30.74-11.33-5.62-2.72-9.12-6.67-10.5-12.9-1.86-8.5-10.9-16.47-16.67-23.28-9-10.6-18.33-20.85-27.58-31.15-20.32-22.63-41.3-45-58.85-70.7-5.55-8.12-12-17.28-14.2-27.85-1.24-5.9 1.37-10 1.46-15.7.1-7.5-7-13.82-11.15-18-8-8-16.84-14.86-25.73-21.5a571 571 0 0 0-62.78-40.23c-5.1-2.85-25.25-13.75-9.72-20.08 17.17-7 37.25-5.63 54.43-6.5 15.47-.8 30.78-1.14 46.2-4.63z" class="D"/><path d="M397.54 196.1c27.4-5.3 55.62-6.08 83-6.65 33.23-.7 66.6.22 98.7 6.22 20.15 3.78 41.84 9.23 57.67 23.18 10.8 9.53 15.72 25.32 23.46 38A314.89 314.89 0 0 0 685.76 293c5.75 7 12 14.17 20.44 17 20.43 6.9 41.55 12.06 62.08 18.78 13.6 4.43 27.13 9.05 40.26 14.72 7.9 3.4 19.1 7.32 24.07 15.34 5.48 8.86-55.9 40.17-62.07 44-15.45 9.6-34.8 22.83-40.86 43-5.8 19.3-3.57 36.4-.6 54.6 1.68 10.35 8.86 39.1-1.57 47.4-6 4.74-16.43-2-21.64-4.67-10.28-5.18-20.1-11.3-30-17.16-14.48-8.55-28.9-18.48-43.94-25.84-10.48-5.12-21.7-8.62-32.5-13l-46.28-19.3c-12.93-5.47-26.08-10.7-38.4-17.53-7.66-4.24-12.9-8.85-16.24-17.15-2.9-7.23-9.24-13.36-14.3-19.27-8.35-9.76-17-19.18-25.58-28.66-18-19.87-36.27-39.6-52.18-61.75-7.26-10.1-20.18-25.38-16.4-41.1 1.36-5.67 1.7-8.22-1.33-13-4.3-6.8-10.75-11.7-16.85-16.18-14.23-10.43-30.77-16.53-45-26.9-5.78-4.24-12.77-11.15-2.17-16.05 12.38-5.73 26.95-5.7 39.57-7.2 6.3-.75 12.7-1.25 19-2.74 4.8-1.14 9.4-3.3 14.26-4.2z" class="B"/><path d="M436.6 217.3c24.65-3.33 49.73-2.8 74.08-1.63 27 1.32 54.06 4.3 79.77 11.4 17.75 4.9 36 11.7 49.88 24.68 8.76 8.2 12.4 19.4 18.47 30.05 9.16 16.07 20.32 30.4 37.36 35q28.64 7.77 56.77 17.3A339.51 339.51 0 0 1 786.35 347c6.86 3.16 15.65 7.36 20.14 13.7 6 8.5-40.65 35.3-46.8 39.48a150.11 150.11 0 0 0-39.57 38.38c-9.2 13-7.1 27.08-4.56 40.68 1.58 8.45 8.65 31 .73 37.85-4.36 3.8-12.16.3-16.5-1.2-8.27-2.85-16.2-6.66-24.2-10.2-11.8-5.22-25.42-8.2-36.52-14.85-24.6-14.75-49.34-28.93-74.6-42.5-13.93-7.47-28-14.84-41.23-23.66-4.75-3.16-9.64-6.46-13.58-10.83-2.53-2.8-3.2-6.1-5-9.3-8.56-15.3-23-27.27-34.65-39.6-15.5-16.38-31.13-32.67-45.47-50.4-7.54-9.32-18.62-21-20.85-34.66-.67-4.12 1.27-6.4 1.3-10.08 0-4.25-4-7.16-6.42-9.36-5.58-5-31.44-19.67-13.3-28.06 8.64-4 18-5 26.83-7.28a41.48 41.48 0 0 0 9.41-3.34c5.13-2.76 9.5-3.75 15.1-4.52z" class="E"/><path d="M478.08 240.13c47-2.47 98.3 3.77 140.2 23.82 13.93 6.67 28.15 15.7 36.68 30.14 5 8.52 8.3 17.16 16.23 22.75 5.73 4 13.2 5.2 19.8 7.2q14.35 4.38 28.58 9.1c11.75 3.93 23.46 8.05 34.8 13.07 8.1 3.58 19.5 8 24.42 16.25 5.87 9.9-28.07 31.06-33.3 35.16-12.7 9.95-23 20.4-31.3 35.27-2.42 4.33-6.2 8.24-7.83 12.93s-1 9.93-.35 14.52c.88 6 6.1 21.53.84 26.25-2.9 2.6-9 .6-12.3.05-6.26-1.05-12.35-2.73-18.54-4.06-10.5-2.25-22.55-.48-32.3-4.67-26.2-11.25-48.86-32.2-72.45-48.3-14-9.57-28.28-18.88-41.64-29.54-4.23-3.37-8.58-6.85-12.17-11.1-2.5-3-3.34-6.76-5.53-9.83-8.38-11.78-19.62-21.45-29.8-31.23l-39.48-38.34c-8.1-8.2-19.23-17-24.52-28.25-3.87-8.18 1.05-8.13 6.47-12.05 2.76-2 3.46-4.8 5.43-7.54 2.8-3.9 7-5.83 10.9-7.5 5.36-2.33 11.7-3.46 16.73-6.94 1.78-1.23 2.58-3.33 4.06-4.42 4.3-3.2 11.96-2.5 16.37-2.74z" class="C"/></g></g></svg>
