<svg id="Layer_1" data-name="Layer 1" xmlns="http://www.w3.org/2000/svg" viewBox="0 0 62 63"><defs><style>.cls-1{fill:#0d71ba;}</style></defs><title>faculty-icon</title><path class="cls-1" d="M47,56a16,16,0,0,0-8.7-14.2A13.2,13.2,0,0,0,44,31V30H32V18H31A13,13,0,0,0,18,31a13.2,13.2,0,0,0,5.7,10.8A16,16,0,0,0,15,56v5H6V59H4v2H0v2H58V61H47Zm-2,0v5H34.9L34,52.2l.2-.5.9.9,5.1-7.1A13.9,13.9,0,0,1,45,56ZM24.9,43.4l3.8,4.5-1.5,1.5-3.7-5.2Zm13.7.9-3.7,5.2L33.4,48l3.8-4.5A7,7,0,0,1,38.6,44.3ZM31,47.6l-3.4-4.1a11.8,11.8,0,0,0,6.8,0Zm0,.8,1.8,1.8-.4.8H29.6l-.4-.8ZM29.9,53h2.2l.8,8H29.1ZM20,31A11.1,11.1,0,0,1,30,20V32H42a11,11,0,0,1-22-1ZM17,56a13.9,13.9,0,0,1,4.8-10.5l5.1,7.1.9-.9.2.5L27.1,61H17Z"/><rect class="cls-1" x="60" y="61" width="2" height="2"/><path class="cls-1" d="M48,27A13,13,0,0,0,35,14H34V28H48ZM36,26V16A11.1,11.1,0,0,1,46,26Z"/><polygon class="cls-1" points="4 4 4 57 6 57 6 4 8.4 5.8 9.6 4.2 5 0.8 0.4 4.2 1.6 5.8 4 4"/><polygon class="cls-1" points="22 5 22 18 24 18 24 5 26.4 6.8 27.6 5.2 23 1.8 18.4 5.2 19.6 6.8 22 5"/><polygon class="cls-1" points="40 8 40 13 42 13 42 8 44.4 9.8 45.6 8.2 41 4.8 36.4 8.2 37.6 9.8 40 8"/><polygon class="cls-1" points="8.6 15.8 11 14 11 51 13 51 13 14 15.4 15.8 16.6 14.2 12 10.8 7.4 14.2 8.6 15.8"/><rect class="cls-1" x="11" y="57" width="2" height="2"/><rect class="cls-1" x="11" y="53" width="2" height="2"/><polygon class="cls-1" points="60.4 5.8 61.6 4.2 57 0.8 52.4 4.2 53.6 5.8 56 4 56 51 58 51 58 4 60.4 5.8"/><rect class="cls-1" x="56" y="57" width="2" height="2"/><rect class="cls-1" x="56" y="53" width="2" height="2"/><polygon class="cls-1" points="51 36 53.4 37.8 54.6 36.2 50 32.8 45.4 36.2 46.6 37.8 49 36 49 49 51 49 51 36"/><rect class="cls-1" x="49" y="51" width="2" height="2"/><rect class="cls-1" x="49" y="55" width="2" height="2"/></svg>