<svg id="Layer_1" data-name="Layer 1" xmlns="http://www.w3.org/2000/svg" viewBox="0 0 62 46"><defs><style>.cls-1{fill:#0d71ba;}</style></defs><title>online-icon</title><path class="cls-1" d="M55,13a3.1,3.1,0,0,0-1.2-2.4l4-4.8A2.5,2.5,0,0,0,59,6a2.9,2.9,0,0,0,3-3,3,3,0,0,0-6,0,2.3,2.3,0,0,0,.4,1.4L51.7,10H10a2.9,2.9,0,0,0-3,3V39H0v4a2.9,2.9,0,0,0,3,3H59a2.9,2.9,0,0,0,3-3V39H55ZM59,2a.9.9,0,0,1,1,1,1,1,0,0,1-2,0A.9.9,0,0,1,59,2ZM9,13a.9.9,0,0,1,1-1H50l-.8,1H10V38H52V13h-.2l.7-.8a1,1,0,0,1,.5.8V39H9ZM38,29a1,1,0,1,1-1-1A.9.9,0,0,1,38,29Zm.2-2.8L37,26a3.2,3.2,0,0,0-2.1.8l-7-3.5v-.4a3,3,0,0,0-6,0,2.8,2.8,0,0,0,.3,1.3l-5,5L16,29a3,3,0,1,0,3,3,2.8,2.8,0,0,0-.3-1.3l5-5A2.8,2.8,0,0,0,25,26a3.2,3.2,0,0,0,2.1-.8l7,3.5v.4a3,3,0,0,0,6,0,2.3,2.3,0,0,0-.4-1.4L50,15.2V36H12V15H47.5ZM24,23a1,1,0,1,1,1,1A.9.9,0,0,1,24,23Zm-7,9a1,1,0,1,1-1-1A.9.9,0,0,1,17,32Zm43,9v2a.9.9,0,0,1-1,1H3a.9.9,0,0,1-1-1V41H60Z"/></svg>