<svg id="Layer_1" data-name="Layer 1" xmlns="http://www.w3.org/2000/svg" viewBox="0 0 100 70"><defs><style>.cls-1{fill:#31b475;}</style></defs><title>batch-starts</title><path class="cls-1" d="M64.44,25.86l5.51-12.39a.66.66,0,0,0-.6-.93H48.63l0,0,0,0,0,0,0,0-.09.09,0,0,0,0,0,0,0,0v.25s0,0,0,.07v2.15H34.13V14.6a2.07,2.07,0,1,0-4.13,0V56.8a.66.66,0,0,0,.66.66h2.81a.66.66,0,0,0,.66-.66V42H50.35a2.07,2.07,0,0,0,2.07-2.07v-.75H69.34a.66.66,0,0,0,.6-.93ZM49.6,14.79l.56.56H49.6ZM32.81,56.14H31.32V14.6a.75.75,0,1,1,1.49,0ZM51.1,39.92a.75.75,0,0,1-.75.75H34.13v-24h17Zm1.32-2.07V16s0,0,0-.07V15.7l0,0,0,0,0,0,0,0,0,0-1.69-1.69H68.33L63.11,25.59a.66.66,0,0,0,0,.54l5.21,11.73Zm0,0"/><path class="cls-1" d="M48.94,18.16H45.43a.66.66,0,0,0,0,1.32h3.52a.66.66,0,1,0,0-1.32Zm0,0"/><path class="cls-1" d="M63.71,16.67h1.41a.66.66,0,0,0,0-1.32H63.71a.66.66,0,0,0,0,1.32Zm0,0"/><path class="cls-1" d="M60.9,15.35H55.27a.66.66,0,1,0,0,1.32H60.9a.66.66,0,0,0,0-1.32Zm0,0"/></svg>