<svg id="Layer_1" data-name="Layer 1" xmlns="http://www.w3.org/2000/svg" viewBox="0 0 100 70"><defs><style>.cls-1{fill:#1ca4dd;}</style></defs><title>task</title><path class="cls-1" d="M71.53,18.69H28.47a.81.81,0,0,0-.81.81V47.05a.81.81,0,0,0,.81.81H71.53a.81.81,0,0,0,.81-.81V19.5a.81.81,0,0,0-.81-.81Zm-.81,1.61v5.27H29.28V20.31ZM29.28,46.25V27.2H70.72V46.25Zm0,0"/><path class="cls-1" d="M76.69,49.69h-.92V19.15a3.91,3.91,0,0,0-3.91-3.9H28.13a3.91,3.91,0,0,0-3.91,3.9V49.69h-.92a.81.81,0,0,0-.81.81v1.18a3.07,3.07,0,0,0,3.07,3.07H74.43a3.07,3.07,0,0,0,3.07-3.07V50.5a.81.81,0,0,0-.81-.81ZM25.84,19.15a2.3,2.3,0,0,1,2.3-2.29H71.86a2.3,2.3,0,0,1,2.3,2.29V49.69H25.84Zm50,32.53a1.45,1.45,0,0,1-1.45,1.45H25.57a1.45,1.45,0,0,1-1.45-1.45v-.38h22.5s0,0,0,.05a.81.81,0,0,0,.81.81h5.17a.81.81,0,0,0,.81-.81s0,0,0-.05h22.5Zm0,0"/><path class="cls-1" d="M31.92,23.75h4.31a.81.81,0,1,0,0-1.61H31.92a.81.81,0,0,0,0,1.61Zm0,0"/><path class="cls-1" d="M52.58,23.75h.86a.81.81,0,1,0,0-1.61h-.86a.81.81,0,0,0,0,1.61Zm0,0"/><path class="cls-1" d="M56.89,23.75h.86a.81.81,0,0,0,0-1.61h-.86a.81.81,0,0,0,0,1.61Zm0,0"/><path class="cls-1" d="M61.19,23.75h.86a.81.81,0,1,0,0-1.61h-.86a.81.81,0,0,0,0,1.61Zm0,0"/><path class="cls-1" d="M65.5,23.75h.86a.81.81,0,0,0,0-1.61H65.5a.81.81,0,0,0,0,1.61Zm0,0"/><path class="cls-1" d="M47.42,29H31.92a.81.81,0,0,0-.81.81V43.61a.81.81,0,0,0,.81.81h15.5a.81.81,0,0,0,.81-.81V29.83a.81.81,0,0,0-.81-.81ZM46.61,42.8H32.73V30.64H46.61Zm0,0"/><path class="cls-1" d="M50.86,30.64H67.22a.81.81,0,1,0,0-1.61H50.86a.81.81,0,1,0,0,1.61Zm0,0"/><path class="cls-1" d="M57.75,35.92H50.86a.81.81,0,0,0,0,1.61h6.89a.81.81,0,0,0,0-1.61Zm0,0"/><path class="cls-1" d="M57.75,39.36H50.86a.81.81,0,1,0,0,1.61h6.89a.81.81,0,1,0,0-1.61Zm0,0"/><path class="cls-1" d="M57.75,42.8H50.86a.81.81,0,1,0,0,1.61h6.89a.81.81,0,0,0,0-1.61Zm0,0"/><path class="cls-1" d="M68.08,35.92H61.19a.81.81,0,0,0,0,1.61h6.89a.81.81,0,1,0,0-1.61Zm0,0"/><path class="cls-1" d="M68.08,39.36H61.19a.81.81,0,1,0,0,1.61h6.89a.81.81,0,1,0,0-1.61Zm0,0"/><path class="cls-1" d="M68.08,42.8H61.19a.81.81,0,0,0,0,1.61h6.89a.81.81,0,1,0,0-1.61Zm0,0"/><path class="cls-1" d="M50.86,34.08H62.05a.81.81,0,1,0,0-1.61H50.86a.81.81,0,1,0,0,1.61Zm0,0"/></svg>