<svg id="Layer_1" data-name="Layer 1" xmlns="http://www.w3.org/2000/svg" viewBox="0 0 220 100"><defs><style>.cls-1{fill:#eff5f8;}.cls-2{fill:#cdebfc;}.cls-3{fill:#caedff;}.cls-4{fill:#3273ad;}.cls-5{fill:#fad264;}.cls-6{fill:#b7d1e5;}.cls-7{fill:#ede0d6;}.cls-8{fill:#0aa5e3;}.cls-9{fill:#fff;}</style></defs><title>program-feature-completely-online</title><path class="cls-1" d="M213.39,91.37H183.14a2.27,2.27,0,1,1,0-4.55h7.76a2.27,2.27,0,0,0,0-4.55H186a2.27,2.27,0,0,1,0-4.55h19.6a2.27,2.27,0,0,1,0,4.55h-3.29a2.27,2.27,0,1,0,0,4.55h11.05a2.27,2.27,0,1,1,0,4.55Z"/><path class="cls-1" d="M149.22,44.79h36.89a2.77,2.77,0,0,1,0,5.54h-9.46a2.77,2.77,0,0,0,0,5.54h5.93a2.77,2.77,0,0,1,0,5.54H158.68a2.77,2.77,0,0,1,0-5.54h4a2.77,2.77,0,1,0,0-5.54H149.22a2.77,2.77,0,0,1,0-5.54Z"/><path class="cls-1" d="M36.67,85.31H62.94a2.31,2.31,0,0,1,0,4.62H59.52a2.31,2.31,0,1,0,0,4.62H67a2.31,2.31,0,0,1,0,4.62H40.73a2.31,2.31,0,0,1,0-4.62H47.9a2.31,2.31,0,0,0,0-4.62H36.67a2.31,2.31,0,1,1,0-4.62Z"/><path class="cls-1" d="M45,63.89H14.62a2.28,2.28,0,0,1,0-4.57h7.79a2.28,2.28,0,1,0,0-4.57H17.53a2.28,2.28,0,1,1,0-4.57H37.21a2.28,2.28,0,0,1,0,4.57H33.9a2.28,2.28,0,1,0,0,4.57H45a2.28,2.28,0,1,1,0,4.57Z"/><path class="cls-2" d="M199.66,20.93h-4.27a.35.35,0,0,1-.35-.36,3.14,3.14,0,0,0-.84-2.4,5.85,5.85,0,0,0-3.69-1.33.39.39,0,0,1-.27-.12.35.35,0,0,1-.08-.28,7.24,7.24,0,0,0-1.51-5,5.73,5.73,0,0,0-4.52-1.79,5.29,5.29,0,0,0-4,1.52A7.37,7.37,0,0,0,178.5,16a.35.35,0,0,1-.14.29.36.36,0,0,1-.32.05,4.89,4.89,0,0,0-4.13.19c-2.09,1.22-2.68,4.08-2.68,4.11a.35.35,0,0,1-.34.28h-8.4a.35.35,0,1,1,0-.7h8.13a7.18,7.18,0,0,1,2.95-4.29,5.36,5.36,0,0,1,4.25-.39,7.68,7.68,0,0,1,1.85-4.84A6,6,0,0,1,184.13,9a6.42,6.42,0,0,1,5.05,2,7.89,7.89,0,0,1,1.7,5.15,6.11,6.11,0,0,1,3.82,1.53,3.72,3.72,0,0,1,1,2.55h3.92a.35.35,0,0,1,0,.7Z"/><path class="cls-2" d="M53.89,29.92h0l-7.35-.33a.85.85,0,0,1-.54-.08.88.88,0,0,1-.27-.64s0-.09,0-.12a6.39,6.39,0,0,0-.25-.73,4.83,4.83,0,0,0-.65-1.14,4.09,4.09,0,0,0-1.72-1.27,5.07,5.07,0,0,0-1.66-.33,5.49,5.49,0,0,0-.61,0,.92.92,0,0,1-.5,0c-.26-.09-.35-.38-.52-1.07,0-.11,0-.2-.06-.25A13.2,13.2,0,0,0,39,22.31,8.73,8.73,0,0,0,37.33,20a6.45,6.45,0,0,0-3.82-1.78,8.5,8.5,0,0,0-7.8,3.73,9.26,9.26,0,0,0-1.38,5.74.35.35,0,0,1-.7.07,10,10,0,0,1,1.48-6.19,9.1,9.1,0,0,1,8.46-4,7.14,7.14,0,0,1,4.23,2A9.42,9.42,0,0,1,39.63,22a13.84,13.84,0,0,1,.75,1.77c0,.06,0,.17.08.31s.1.39.15.55l.14,0a6.59,6.59,0,0,1,.69,0,5.78,5.78,0,0,1,1.89.38,4.8,4.8,0,0,1,2,1.49,5.51,5.51,0,0,1,.75,1.3,7.13,7.13,0,0,1,.28.81s0,.12,0,.2l0,.12h.13l7.35.33a.35.35,0,0,1,0,.7Z"/><path class="cls-2" d="M105.93,15h-4.27a.35.35,0,0,1-.35-.36,3.14,3.14,0,0,0-.84-2.4,5.85,5.85,0,0,0-3.69-1.33.39.39,0,0,1-.27-.12.35.35,0,0,1-.08-.28,7.24,7.24,0,0,0-1.51-5A5.73,5.73,0,0,0,90.4,3.7a5.29,5.29,0,0,0-4,1.52A7.37,7.37,0,0,0,84.77,10a.35.35,0,0,1-.14.29.36.36,0,0,1-.32.05,4.89,4.89,0,0,0-4.13.19c-2.09,1.22-2.68,4.08-2.68,4.11a.35.35,0,0,1-.34.28h-8.4a.35.35,0,0,1,0-.7h8.13A7.18,7.18,0,0,1,79.82,10a5.36,5.36,0,0,1,4.25-.39,7.68,7.68,0,0,1,1.85-4.84A6,6,0,0,1,90.4,3a6.42,6.42,0,0,1,5.05,2,7.89,7.89,0,0,1,1.7,5.15A6.11,6.11,0,0,1,101,11.7a3.72,3.72,0,0,1,1,2.55h3.92a.35.35,0,1,1,0,.7Z"/><rect class="cls-3" x="40.39" y="85.56" width="126.63" height="5.06" rx="2.53" ry="2.53"/><path class="cls-4" d="M164.48,90.86H42.92a2.77,2.77,0,1,1,0-5.54H164.48a2.77,2.77,0,1,1,0,5.54ZM42.92,85.79a2.3,2.3,0,1,0,0,4.59H164.48a2.3,2.3,0,1,0,0-4.59Z"/><polygon class="cls-4" points="44.18 100 43.7 100 43.7 90.38 51.76 90.38 51.76 95.31 51.28 95.31 51.28 90.86 44.18 90.86 44.18 100"/><polygon class="cls-4" points="164.02 100 163.54 100 163.54 90.86 156.44 90.86 156.44 95.31 155.96 95.31 155.96 90.38 164.02 90.38 164.02 100"/><path class="cls-4" d="M67.19,83.63a2.78,2.78,0,0,1-2.78-2.78V78.67a2.78,2.78,0,1,1,5.55,0v2.18A2.78,2.78,0,0,1,67.19,83.63Zm0-7.26a2.31,2.31,0,0,0-2.3,2.3v2.18a2.3,2.3,0,0,0,4.61,0V78.67A2.31,2.31,0,0,0,67.19,76.37Z"/><rect class="cls-5" x="67.28" y="73.29" width="10.47" height="12.31" rx="0.95" ry="0.95"/><path class="cls-4" d="M76.81,85.83H68.23A1.19,1.19,0,0,1,67,84.65V74.23a1.19,1.19,0,0,1,1.18-1.18h8.58A1.19,1.19,0,0,1,78,74.23V84.65A1.19,1.19,0,0,1,76.81,85.83ZM68.23,73.52a.71.71,0,0,0-.71.71V84.65a.71.71,0,0,0,.71.71h8.58a.71.71,0,0,0,.71-.71V74.23a.71.71,0,0,0-.71-.71Z"/><path class="cls-6" d="M110.85,59.13s13.68-1.48,12.62,14.11H90.9s.85-14.76,14.55-14.15Z"/><path class="cls-4" d="M123.73,73.53H90.6l0-.3c0-.15,1-15,14.85-14.42l5.37,0c.41,0,5.79-.51,9.53,3.09,2.59,2.49,3.73,6.3,3.39,11.33ZM91.2,73h32c.27-4.73-.81-8.3-3.23-10.62-3.62-3.48-9-2.94-9.1-2.93h0l-5.4,0C93.26,58.83,91.42,70.89,91.2,73Z"/><path class="cls-7" d="M103.72,56.92v2.49a4.34,4.34,0,0,0,3.81,1.93,3.47,3.47,0,0,0,3.31-2.21V56.62"/><path class="cls-4" d="M107.37,61.63a4.58,4.58,0,0,1-3.89-2.07l0-.07V56.92H104v2.41a4.05,4.05,0,0,0,3.52,1.73,3.22,3.22,0,0,0,3-2V56.62h.56v2.6a3.79,3.79,0,0,1-3.57,2.41Z"/><polygon class="cls-4" points="107.82 73.24 107.25 73.24 107.25 65.32 101 59.65 101.38 59.23 107.82 65.07 107.82 73.24"/><rect class="cls-4" x="106.36" y="62.04" width="8.25" height="0.56" transform="translate(-12.16 94.69) rotate(-44.21)"/><rect class="cls-4" x="95.06" y="68.8" width="0.56" height="4.44"/><rect class="cls-4" x="119.53" y="69.22" width="0.56" height="4.02"/><path class="cls-8" d="M96.45,44.7s-1.79-.43-1.86-6.45c0,0-5-1.17-1.73-7.82S113.5,18,115.57,29.19c0,0,9.85-1,3.47,14.61"/><path class="cls-4" d="M96.45,45h-.07c-.2,0-2-.65-2.09-6.52a4.2,4.2,0,0,1-2.43-2.12c-.73-1.54-.49-3.58.72-6.05,2.25-4.59,10.54-8.44,16.46-7.63a7.46,7.46,0,0,1,6.77,6.2,5.47,5.47,0,0,1,4.5,2c1.86,2.47,1.52,6.85-1,13a.3.3,0,1,1-.56-.23c2.4-5.88,2.77-10.18,1.07-12.44a5,5,0,0,0-4.23-1.76.3.3,0,0,1-.33-.24,6.92,6.92,0,0,0-6.31-6c-5.69-.78-13.68,2.9-15.83,7.3-1.13,2.3-1.37,4.16-.72,5.53A3.64,3.64,0,0,0,94.66,38a.3.3,0,0,1,.23.29c.06,5.53,1.61,6.16,1.63,6.16a.3.3,0,0,1-.07.59Z"/><circle class="cls-4" cx="112.94" cy="44.7" r="0.8"/><path class="cls-7" d="M115.37,31s-6,7.06-17.87,4.29c0,0-1.11-.28-1.25,3.74s0,18.7,10.11,19,14.4-9.56,12-20.08c0,0-1-5.57-3.19-5.26Z"/><path class="cls-4" d="M106.78,58.3h-.42a8.49,8.49,0,0,1-6.17-2.71C96,51.14,95.83,42.51,96,39c.07-2.1.42-3.4,1-3.86a.71.71,0,0,1,.59-.16c11.59,2.69,17.51-4.13,17.56-4.2a.3.3,0,0,1,.53.22l-.11,1.33c2.15.21,3.05,4.95,3.15,5.52,1.43,6.39.41,12.48-2.74,16.3A11.48,11.48,0,0,1,106.78,58.3ZM97.43,35.58s-.76.15-.88,3.46,0,11.86,4.07,16.14a7.91,7.91,0,0,0,5.75,2.52,11,11,0,0,0,9.14-3.92c3-3.67,4-9.58,2.61-15.8-.26-1.48-1.28-5.24-2.85-5a.3.3,0,0,1-.25-.08.3.3,0,0,1-.09-.24l.07-.84C113.19,33.45,107.28,37.87,97.43,35.58Z"/><rect class="cls-9" x="98.47" y="41.66" width="7.89" height="6.09" rx="3.05" ry="3.05"/><path class="cls-4" d="M103.32,48h-1.8a3.35,3.35,0,1,1,0-6.7h1.8a3.35,3.35,0,1,1,0,6.7ZM101.52,42a2.75,2.75,0,1,0,0,5.49h1.8a2.75,2.75,0,1,0,0-5.49Z"/><rect class="cls-9" x="109" y="41.66" width="7.89" height="6.09" rx="3.05" ry="3.05"/><path class="cls-4" d="M113.84,48H112a3.35,3.35,0,0,1,0-6.7h1.8a3.35,3.35,0,0,1,0,6.7ZM112,42a2.75,2.75,0,0,0,0,5.49h1.8a2.75,2.75,0,1,0,0-5.49Z"/><path class="cls-9" d="M104,50.93h7.18a3.39,3.39,0,0,1-3.54,3.44C104.17,54.34,104,52.26,104,50.93Z"/><path class="cls-4" d="M107.7,54.68h-.05c-3.94,0-3.94-2.63-3.94-3.74a.3.3,0,0,1,.3-.3h7.18a.3.3,0,0,1,.3.3,4.23,4.23,0,0,1-1.12,2.76A3.65,3.65,0,0,1,107.7,54.68Zm-3.39-3.44c0,1.12.29,2.81,3.34,2.84h0a3.07,3.07,0,0,0,2.25-.81,3.5,3.5,0,0,0,.92-2Z"/><path class="cls-4" d="M116,39.88a.3.3,0,0,1-.26-.15,2.18,2.18,0,0,0-1.34-1.13,3.8,3.8,0,0,0-2.53.48.3.3,0,0,1-.31-.51,4.38,4.38,0,0,1,3-.54,2.76,2.76,0,0,1,1.72,1.42.3.3,0,0,1-.26.45Z"/><path class="cls-4" d="M99.37,39.88a.3.3,0,0,1-.26-.45c1.2-2.07,4-1.34,5.37-.66a.3.3,0,0,1-.27.54s-3.36-1.67-4.58.43A.3.3,0,0,1,99.37,39.88Z"/><path class="cls-4" d="M109,45a.3.3,0,0,1-.28-.18c-.21-.5-.47-.76-.76-.8-.52-.06-1.16.6-1.35.86a.3.3,0,0,1-.48-.36c.09-.12.93-1.21,1.9-1.1.52.06.94.45,1.24,1.16a.3.3,0,0,1-.16.4Z"/><circle class="cls-4" cx="102.22" cy="45.39" r="0.8"/><circle class="cls-4" cx="113.3" cy="45.39" r="0.8"/><rect class="cls-3" x="86.46" y="63.14" width="42.46" height="22.45" rx="0.95" ry="0.95"/><path class="cls-4" d="M128,85.83H87.41a1.19,1.19,0,0,1-1.18-1.18V64.09a1.19,1.19,0,0,1,1.18-1.18H128a1.19,1.19,0,0,1,1.18,1.18V84.65A1.19,1.19,0,0,1,128,85.83ZM87.41,63.38a.71.71,0,0,0-.71.71V84.65a.71.71,0,0,0,.71.71H128a.71.71,0,0,0,.71-.71V64.09a.71.71,0,0,0-.71-.71Z"/><circle class="cls-9" cx="107.69" cy="74.37" r="3.06"/><rect class="cls-4" x="96.98" y="42.68" width="0.55" height="2.76" transform="translate(12.93 109.55) rotate(-62.21)"/></svg>