<svg id="Layer_1" data-name="Layer 1" xmlns="http://www.w3.org/2000/svg" viewBox="0 0 220 100"><defs><style>.cls-1{fill:#eff5f8;}.cls-2{fill:#cdebfc;}.cls-3{fill:#fff8d9;}.cls-4{fill:#3273ad;}.cls-5{fill:#0aa5e3;}.cls-6{fill:#ffefe9;}.cls-7{fill:#fad264;}.cls-8{fill:#ede0d6;}.cls-9{fill:#fff;}.cls-10{fill:#fff6f3;}.cls-11{fill:#ead9ce;}</style></defs><title>program-feature-students-only</title><path class="cls-1" d="M205.42,66.57H182.83a2,2,0,0,0,0,4h2.94a2,2,0,0,1,0,4h-6.44a2,2,0,1,0,0,4h22.59a2,2,0,0,0,0-4h-6.16a2,2,0,1,1,0-4h9.65a2,2,0,1,0,0-4Z"/><path class="cls-1" d="M3,80.36H29a2,2,0,1,0,0-3.91H22.3a2,2,0,1,1,0-3.91h4.18a2,2,0,0,0,0-3.91H9.63a2,2,0,0,0,0,3.91h2.83a2,2,0,1,1,0,3.91H3a2,2,0,1,0,0,3.91Z"/><path class="cls-1" d="M181.84,49.53H208a2,2,0,1,0,0-3.93h-6.7a2,2,0,0,1,0-3.93h4.2a2,2,0,0,0,0-3.93H188.54a2,2,0,0,0,0,3.93h2.84a2,2,0,0,1,0,3.93h-9.55a2,2,0,0,0,0,3.93Z"/><path class="cls-1" d="M26.73,53.3H45a1.37,1.37,0,1,0,0-2.74H40.28a1.37,1.37,0,1,1,0-2.74h2.93a1.37,1.37,0,1,0,0-2.74H31.41a1.37,1.37,0,0,0,0,2.74h2a1.37,1.37,0,1,1,0,2.74H26.73a1.37,1.37,0,0,0,0,2.74Z"/><path class="cls-2" d="M185.17,30.6h0l6.32-.28a.73.73,0,0,0,.46-.06.76.76,0,0,0,.23-.55s0-.08,0-.1a5.5,5.5,0,0,1,.22-.63,4.15,4.15,0,0,1,.56-1,3.52,3.52,0,0,1,1.48-1.1,4.36,4.36,0,0,1,1.43-.29,4.72,4.72,0,0,1,.52,0,.79.79,0,0,0,.43,0c.22-.08.3-.33.45-.92,0-.09,0-.17.06-.21a11.36,11.36,0,0,1,.61-1.44,7.51,7.51,0,0,1,1.44-2,5.54,5.54,0,0,1,3.29-1.53,7.31,7.31,0,0,1,6.71,3.21,8,8,0,0,1,1.18,4.93.3.3,0,0,0,.6.06,8.59,8.59,0,0,0-1.28-5.32,7.83,7.83,0,0,0-7.28-3.48,6.14,6.14,0,0,0-3.64,1.7,8.1,8.1,0,0,0-1.56,2.15,11.91,11.91,0,0,0-.64,1.52c0,.05,0,.15-.07.27s-.08.33-.13.47l-.12,0a5.67,5.67,0,0,0-.59,0,5,5,0,0,0-1.63.33,4.13,4.13,0,0,0-1.73,1.28,4.74,4.74,0,0,0-.65,1.12,6.13,6.13,0,0,0-.24.7s0,.1,0,.17l0,.11h-.11l-6.32.28a.3.3,0,0,0,0,.6Z"/><path class="cls-2" d="M98.56,20.28h3.68a.3.3,0,0,0,.3-.31,2.7,2.7,0,0,1,.72-2.06,5,5,0,0,1,3.17-1.15.33.33,0,0,0,.23-.1.3.3,0,0,0,.07-.24,6.23,6.23,0,0,1,1.3-4.28,4.93,4.93,0,0,1,3.89-1.54,4.55,4.55,0,0,1,3.42,1.31A6.34,6.34,0,0,1,116.76,16a.3.3,0,0,0,.12.25.31.31,0,0,0,.28,0,4.21,4.21,0,0,1,3.55.16A5.84,5.84,0,0,1,123,20a.3.3,0,0,0,.3.24h7.23a.3.3,0,0,0,0-.6h-7A6.17,6.17,0,0,0,121,16a4.61,4.61,0,0,0-3.66-.33,6.61,6.61,0,0,0-1.59-4.16A5.13,5.13,0,0,0,111.92,10a5.52,5.52,0,0,0-4.34,1.74,6.79,6.79,0,0,0-1.46,4.43,5.26,5.26,0,0,0-3.28,1.32,3.2,3.2,0,0,0-.89,2.19H98.56a.3.3,0,0,0,0,.6Z"/><path class="cls-2" d="M23.41,31.6h1.84a.15.15,0,0,0,.15-.16,1.35,1.35,0,0,1,.36-1,2.51,2.51,0,0,1,1.59-.57.17.17,0,0,0,.11-.05.15.15,0,0,0,0-.12,3.11,3.11,0,0,1,.65-2.14,2.46,2.46,0,0,1,1.94-.77,2.28,2.28,0,0,1,1.71.65,3.17,3.17,0,0,1,.71,2.07.15.15,0,0,0,.06.13.15.15,0,0,0,.14,0,2.1,2.1,0,0,1,1.78.08,2.92,2.92,0,0,1,1.15,1.77.15.15,0,0,0,.15.12H39.4a.15.15,0,0,0,0-.3H35.9a3.09,3.09,0,0,0-1.27-1.85,2.31,2.31,0,0,0-1.83-.17A3.3,3.3,0,0,0,32,27.21a2.56,2.56,0,0,0-1.93-.75,2.76,2.76,0,0,0-2.17.87,3.39,3.39,0,0,0-.73,2.21,2.63,2.63,0,0,0-1.64.66,1.6,1.6,0,0,0-.45,1.1H23.41a.15.15,0,0,0,0,.3Z"/><circle class="cls-3" cx="48.2" cy="65.92" r="13.57" transform="translate(-1.61 1.2) rotate(-1.41)"/><path class="cls-4" d="M48.54,79.74A13.82,13.82,0,1,1,62,65.58,13.84,13.84,0,0,1,48.54,79.74Zm-.67-27.13a13.32,13.32,0,1,0,13.64,13A13.33,13.33,0,0,0,47.87,52.61Z"/><path class="cls-5" d="M40.75,67.41s-5.43-.06-4-4c0,0,1.74-1.2,2.78-.78,0,0-9.28-6.59-.33-9.27,0,0,2-10.12,13.59-4.14,0,0,11.33-4.09,4.21,13.69,0,0,3-1,3.65.36S60,66.8,56.29,66.47"/><path class="cls-4" d="M40.75,67.62c-.12,0-2.95-.05-4-1.62a2.82,2.82,0,0,1-.16-2.68l0-.06.06,0a5.6,5.6,0,0,1,2.17-.89c-1.28-1-4.05-3.58-3.67-5.94.23-1.4,1.54-2.48,3.89-3.21a8.3,8.3,0,0,1,4.11-5.4c2.52-1.21,5.78-.81,9.68,1.19.59-.19,3.73-1.11,5.54.76s1.58,6.29-1,12.83c.91-.24,2.94-.62,3.48.61a2.14,2.14,0,0,1-.28,2.11c-.77,1.07-2.34,1.58-4.32,1.41l0-.43c1.82.16,3.25-.29,3.93-1.23a1.71,1.71,0,0,0,.23-1.69c-.44-1-2.59-.51-3.38-.24l-.45.15.17-.44c2.6-6.5,3-10.92,1.24-12.78s-5.14-.64-5.17-.63l-.09,0-.08,0c-3.81-2-7-2.39-9.38-1.23-3.13,1.5-3.9,5.18-3.9,5.22l0,.13-.12,0c-2.25.67-3.5,1.65-3.71,2.9-.45,2.72,4.05,6,4.1,6l1.53,1.09-1.74-.71c-.73-.3-2,.38-2.52.71a2.39,2.39,0,0,0,.13,2.22c1,1.39,3.65,1.44,3.68,1.44Z"/><path class="cls-6" d="M57.29,56.59c-.09,1.74-8.28,2.9-12,.62,0,0-2.82,2.77-5.51.59,0,0-.92-1-1,0,0,0,1.73,18.88,9.7,18.14,0,0,9,1.48,8.78-19.37"/><path class="cls-4" d="M49,76.19a3.25,3.25,0,0,1-.5,0,5,5,0,0,1-3.75-1.25C42.68,73.2,41,69.8,39.8,64.81a54.37,54.37,0,0,1-1.21-7c0-.38.13-.6.34-.68.39-.14.86.34,1,.49,2.49,2,5.17-.57,5.2-.6l.12-.12.14.09c2.88,1.77,8.78,1.43,11,.28.45-.24.7-.49.71-.72h.43c.1,11.44-2.59,16.15-4.86,18.09A5.85,5.85,0,0,1,49,76.19Zm-.49-.46h0a5.14,5.14,0,0,0,3.83-1.4c2.14-1.84,4.67-6.29,4.7-17a2.87,2.87,0,0,1-.51.34c-2.29,1.2-8.17,1.57-11.25-.21-.59.51-3.2,2.5-5.67.49a1.2,1.2,0,0,0-.55-.4.48.48,0,0,0-.06.26c0,.1,1.23,12.8,6,16.77a4.62,4.62,0,0,0,3.46,1.15Z"/><path class="cls-4" d="M48.54,67.43h-.1c-1.36-.11-1.66-1.62-1.68-1.68l.42-.08c0,.05.26,1.25,1.28,1.33h0a1.71,1.71,0,0,0,1.15-.4,1.2,1.2,0,0,0,.29-1l.43,0a1.61,1.61,0,0,1-.42,1.29A2.07,2.07,0,0,1,48.54,67.43Z"/><circle class="cls-4" cx="43.48" cy="64.51" r="0.65" transform="translate(-1.57 1.09) rotate(-1.41)"/><circle class="cls-4" cx="52.72" cy="64.28" r="0.65" transform="translate(-1.56 1.31) rotate(-1.41)"/><path class="cls-4" d="M49.3,72.2h0a4.92,4.92,0,0,1-3.39-1.64l.33-.29a4.56,4.56,0,0,0,3.06,1.49h0a3.72,3.72,0,0,0,2.77-1.63l.34.27A4.12,4.12,0,0,1,49.3,72.2Z"/><path class="cls-4" d="M41.17,64l-.38-.21a4,4,0,0,1,5.15-1.67l-.17.4A3.49,3.49,0,0,0,41.17,64Z"/><path class="cls-4" d="M55,62.34a2.17,2.17,0,0,0-1.45-1.09,3.56,3.56,0,0,0-2.4.72l-.27-.34a3.94,3.94,0,0,1,2.74-.8,2.58,2.58,0,0,1,1.75,1.29Z"/><polygon class="cls-4" points="48.39 72.98 47.72 74.14 50.75 74.07 50.3 72.93 48.39 72.98"/><path class="cls-7" d="M53.68,46.11l3.44-6.63L49.95,42l-3.1-6.94-2.48,7.19L37,40.35l4,6.31a13,13,0,0,1,12.67-.55Z"/><path class="cls-4" d="M41,46.82a.16.16,0,0,1-.13-.07l-4-6.31a.16.16,0,0,1,.17-.24l7.22,1.87,2.44-7a.16.16,0,0,1,.14-.11A.15.15,0,0,1,47,35l3,6.81,7-2.49a.16.16,0,0,1,.17,0,.16.16,0,0,1,0,.18l-3.44,6.63a.16.16,0,0,1-.21.07,12.82,12.82,0,0,0-12.51.54Zm-3.65-6.21,3.7,5.84a13.14,13.14,0,0,1,12.55-.54l3.18-6.13L50,42.17a.16.16,0,0,1-.2-.08l-2.93-6.58-2.35,6.81a.16.16,0,0,1-.19.1Z"/><circle class="cls-3" cx="91.89" cy="59.27" r="14.64" transform="translate(30.6 149.82) rotate(-88.73)"/><path class="cls-4" d="M91.56,74.18A14.92,14.92,0,1,1,106.8,59.6,14.93,14.93,0,0,1,91.56,74.18Zm.65-29.28a14.37,14.37,0,1,0,14,14.68A14.39,14.39,0,0,0,92.21,44.9Z"/><path class="cls-5" d="M81.67,58s-1.62-.43-1.56-5.89c0,0-4.5-1.16-1.41-7.13s19-10.9,20.65-.68c0,0,9-.75,2.86,13.34"/><path class="cls-4" d="M81.67,58.27H81.6c-.18,0-1.78-.63-1.76-6a3.82,3.82,0,0,1-2.16-2c-.63-1.42-.37-3.26.78-5.48,2.13-4.12,9.74-7.45,15.09-6.6a6.77,6.77,0,0,1,6,5.77,5,5,0,0,1,4,1.92c1.63,2.28,1.24,6.25-1.17,11.81a.27.27,0,1,1-.5-.22c2.3-5.29,2.72-9.19,1.22-11.27a4.58,4.58,0,0,0-3.81-1.68.27.27,0,0,1-.29-.23,6.28,6.28,0,0,0-5.61-5.55C88.31,38,81,41.15,78.94,45.09c-1.07,2.07-1.33,3.75-.77,5a3.31,3.31,0,0,0,2,1.74.27.27,0,0,1,.2.27c-.05,5,1.34,5.62,1.36,5.62a.27.27,0,0,1-.08.54Z"/><circle class="cls-4" cx="96.65" cy="58.32" r="0.73" transform="translate(36.2 153.66) rotate(-88.73)"/><path class="cls-8" d="M99.12,45.92s-5.55,6.29-16.31,3.54c0,0-1-.27-1.21,3.37s-.38,17,8.8,17.43,13.27-8.39,11.34-18c0,0-.79-5.08-2.79-4.84Z"/><path class="cls-4" d="M90.77,70.55h-.38a7.71,7.71,0,0,1-5.55-2.59c-3.71-4.12-3.69-12-3.51-15.13.11-1.91.45-3.08,1-3.49a.65.65,0,0,1,.54-.13c10.47,2.68,16-3.4,16-3.46a.27.27,0,0,1,.48.21l-.13,1.21c1.94.24,2.67,4.55,2.75,5.07,1.17,5.83.12,11.34-2.81,14.74A10.42,10.42,0,0,1,90.77,70.55Zm-8-20.82s-.7.12-.87,3.12-.2,10.77,3.37,14.73A7.18,7.18,0,0,0,90.42,70a10,10,0,0,0,8.38-3.37c2.82-3.27,3.83-8.62,2.69-14.29-.21-1.35-1.05-4.78-2.49-4.63a.27.27,0,0,1-.22-.08.27.27,0,0,1-.08-.22l.08-.76C97.09,48.11,91.64,52,82.75,49.73Z"/><rect class="cls-9" x="83.5" y="55.35" width="7.17" height="5.53" rx="2.77" ry="2.77" transform="translate(1.31 -1.91) rotate(1.27)"/><path class="cls-4" d="M87.84,61.17l-1.63,0a3,3,0,0,1,.13-6.08l1.63,0a3,3,0,1,1-.13,6.08ZM86.33,55.6a2.49,2.49,0,1,0-.11,5l1.63,0a2.49,2.49,0,1,0,.11-5Z"/><rect class="cls-9" x="93.06" y="55.56" width="7.17" height="5.53" rx="2.77" ry="2.77" transform="translate(1.31 -2.12) rotate(1.27)"/><path class="cls-4" d="M97.4,61.38l-1.63,0a3,3,0,0,1,.13-6.08l1.63,0a3,3,0,1,1-.13,6.08Zm-1.51-5.57a2.49,2.49,0,0,0-.11,5l1.63,0a2.49,2.49,0,1,0,.11-5Z"/><path class="cls-9" d="M88.41,63.8l6.52.14A3.07,3.07,0,0,1,91.65,67C88.49,66.9,88.38,65,88.41,63.8Z"/><path class="cls-4" d="M91.69,67.27h0c-3.58-.11-3.53-2.47-3.5-3.48a.27.27,0,0,1,.28-.27l6.52.14a.27.27,0,0,1,.27.28,3.84,3.84,0,0,1-1.07,2.48A3.31,3.31,0,0,1,91.69,67.27Zm-3-3.19c0,1,.2,2.56,3,2.64h0A2.79,2.79,0,0,0,93.76,66a3.18,3.18,0,0,0,.87-1.82Z"/><path class="cls-4" d="M99.51,54a.27.27,0,0,1-.24-.15,2,2,0,0,0-1.2-1,3.45,3.45,0,0,0-2.31.38.27.27,0,0,1-.27-.47,4,4,0,0,1,2.73-.43,2.5,2.5,0,0,1,1.53,1.32.27.27,0,0,1-.25.4Z"/><path class="cls-4" d="M84.42,53.67a.27.27,0,0,1-.23-.41c1.13-1.86,3.69-1.14,4.89-.49a.27.27,0,0,1-.26.48s-3-1.59-4.17.3A.27.27,0,0,1,84.42,53.67Z"/><path class="cls-4" d="M93.06,58.52a.27.27,0,0,1-.25-.17c-.19-.45-.41-.7-.68-.74-.47-.06-1.06.52-1.25.75a.27.27,0,0,1-.43-.34c.09-.11.87-1.08,1.75-1,.47.07.84.43,1.11,1.08a.27.27,0,0,1-.15.36Z"/><circle class="cls-4" cx="86.59" cy="58.1" r="0.73" transform="translate(26.58 143.38) rotate(-88.73)"/><circle class="cls-4" cx="96.65" cy="58.32" r="0.73" transform="translate(36.2 153.66) rotate(-88.73)"/><path class="cls-4" d="M100.27,58.68a.27.27,0,0,1-.18-.47l1.78-1.71a.27.27,0,0,1,.38.39l-1.78,1.71A.27.27,0,0,1,100.27,58.68Z"/><path class="cls-4" d="M83.47,58.73a.27.27,0,0,1-.19-.08l-1.71-1.78a.27.27,0,1,1,.39-.38l1.71,1.78a.27.27,0,0,1-.2.46Z"/><path class="cls-7" d="M99.55,37.7l5-8.25-9.45,2.67-3.4-9.21-3.81,9-9.32-3.08,4.62,8.46a16.76,16.76,0,0,1,16.37.36Z"/><path class="cls-4" d="M99.55,37.85l-.08,0a16.61,16.61,0,0,0-16.22-.36.15.15,0,0,1-.21-.06l-4.62-8.46a.15.15,0,0,1,.18-.22l9.19,3,3.75-8.92a.14.14,0,0,1,.14-.09.15.15,0,0,1,.14.1l3.35,9.08,9.31-2.63a.15.15,0,0,1,.17.23l-5,8.25A.15.15,0,0,1,99.55,37.85ZM91,35.22h.37a16.92,16.92,0,0,1,8.08,2.26l4.71-7.79-9.07,2.56a.15.15,0,0,1-.19-.09l-3.27-8.84L88,32a.15.15,0,0,1-.19.09l-9-3,4.36,8A16.92,16.92,0,0,1,91,35.22Z"/><circle class="cls-3" cx="134.18" cy="73.72" r="13.6" transform="translate(-6.15 12.52) rotate(-5.22)"/><path class="cls-4" d="M135.44,87.52A13.85,13.85,0,1,1,148,72.46,13.87,13.87,0,0,1,135.44,87.52ZM133,60.43a13.35,13.35,0,1,0,14.5,12.07A13.36,13.36,0,0,0,133,60.43Z"/><path class="cls-5" d="M144.45,62.93l-.94,6.74S130.41,61,123.87,73.24c0,0-7.9-16.14,8.37-17.63C136.1,55.26,141.79,55.63,144.45,62.93Z"/><path class="cls-4" d="M123.87,73.71l-.19-.38a22.43,22.43,0,0,1-1.51-4.52c-.52-2.38-.82-5.79.74-8.56s4.71-4.44,9.32-4.86c2.32-.21,9.39-.86,12.43,7.46l0,.05-1,7.14-.29-.19c-.06,0-6.3-4.1-12.18-2.61-3,.76-5.39,2.81-7.15,6.11Zm8.4-17.89c-4.46.41-7.48,2-9,4.64-2.49,4.42-.09,10.68.61,12.29a11.53,11.53,0,0,1,7.22-5.94c5.33-1.35,10.92,1.71,12.24,2.5l.88-6.36C141.61,55.83,136.15,55.47,132.27,55.83Z"/><path class="cls-4" d="M143.29,74.82l-.13-.41c1.37-.42,2.11-1,2.19-1.6.12-1-1.45-2.18-2.07-2.55l.22-.37c.1.06,2.46,1.47,2.28,3C145.68,73.68,144.85,74.34,143.29,74.82Z"/><path class="cls-10" d="M123.87,73.24s-1.88,3.13,2,3.77"/><path class="cls-10" d="M143.88,70.62s3.46,2.48-.62,3.8"/><path class="cls-4" d="M125.28,77.27a2.72,2.72,0,0,1-2.11-1.52,3.24,3.24,0,0,1,.53-2.64l.35.25a2.86,2.86,0,0,0-.48,2.24,2.33,2.33,0,0,0,1.81,1.24Z"/><path class="cls-5" d="M130.29,80.61l-5.69.59-.23-4.48a16.93,16.93,0,0,0,2,.69h0"/><path class="cls-4" d="M124.4,81.44l-.26-5.06.32.14a16.87,16.87,0,0,0,2,.68l.51.14-.11.42-.51-.14A17.76,17.76,0,0,1,124.6,77l.2,3.92,5.46-.56,0,.43Z"/><path class="cls-5" d="M140.08,78.79l5.49-.5-1.62-3.93s-1.19,0-1.82,1.84"/><path class="cls-4" d="M145.87,78.48,140.1,79l0-.43,5.19-.47-1.44-3.51c-.3.06-1,.34-1.48,1.68l-.41-.14c.68-2,2-2,2-2h.14Z"/><path class="cls-10" d="M123.87,73.24s3.59,8.88,10.5,8,9.48-6.75,9.15-11.6l-1.32-3.54-3.08.28-3.21-6-.73,5.39L124.3,68.21Z"/><path class="cls-4" d="M134.15,81.51c-6.83.62-10.44-8.1-10.47-8.19l0,0L124.1,68,135,65.59l.8-5.91,3.46,6.5,3.1-.28,1.39,3.72v0c.35,5.1-2.42,11-9.34,11.83Zm-10.05-8.3c.29.69,3.84,8.65,10.25,7.85,6.62-.82,9.28-6.44,9-11.34L142,66.36l-3.06.28-3-5.56-.66,4.88L124.5,68.38Z"/><path class="cls-4" d="M136.19,69.64l-.25-.36A8,8,0,0,1,140.63,68l0,.43A7.67,7.67,0,0,0,136.19,69.64Z"/><path class="cls-4" d="M126.47,71.06l-.3-.31c2.52-2.4,4.77-1.54,4.87-1.5l-.16.4C130.8,69.62,128.78,68.86,126.47,71.06Z"/><path class="cls-4" d="M134,75.13a2.84,2.84,0,0,1-1.89-.84l.3-.31s.88.86,1.64.7c.36-.07.65-.37.87-.89l.4.17a1.7,1.7,0,0,1-1.18,1.15Z"/><path class="cls-4" d="M134.91,78.82a3.41,3.41,0,0,1-2.17-.61l.26-.34a2.7,2.7,0,0,0,3.73-.5l.32.29A3.27,3.27,0,0,1,134.91,78.82Z"/><circle class="cls-4" cx="129.52" cy="72.25" r="0.69" transform="translate(-6.04 12.09) rotate(-5.22)"/><circle class="cls-4" cx="138.33" cy="71.45" r="0.69" transform="translate(-5.93 12.89) rotate(-5.22)"/><path class="cls-7" d="M139.49,54.19l3.9-8.24-8.63,3.42L130.66,41,128,49.92l-9.06-2,5.16,7.52a15.85,15.85,0,0,1,15.43-1.24Z"/><path class="cls-4" d="M124.05,55.59a.16.16,0,0,1-.13-.07L118.76,48a.16.16,0,0,1,.16-.24l8.92,2L130.51,41a.16.16,0,0,1,.29,0l4,8.2,8.49-3.37a.16.16,0,0,1,.17,0,.16.16,0,0,1,0,.18l-3.9,8.24a.16.16,0,0,1-.21.08,15.68,15.68,0,0,0-15.28,1.23Zm-4.8-7.43,4.84,7.06A16,16,0,0,1,139.41,54l3.66-7.74-8.26,3.27a.16.16,0,0,1-.2-.08l-3.91-8L128.11,50a.16.16,0,0,1-.19.11Z"/><circle class="cls-3" cx="171.83" cy="60.93" r="13.34" transform="matrix(0.19, -0.98, 0.98, 0.19, 78.63, 217.62)"/><path class="cls-4" d="M169.18,74.26a13.59,13.59,0,1,1,16-10.68A13.6,13.6,0,0,1,169.18,74.26Zm5.19-26.17a13.09,13.09,0,1,0,10.29,15.39A13.1,13.1,0,0,0,174.37,48.09Z"/><path class="cls-5" d="M161.14,56.26s-1.33-12,4.94-12c0,0,2.42-7.24,8.56-2.17,0,0,5.63-2.42,7,1.78A3.85,3.85,0,0,1,184.28,48s2.06,0,1.84,2.75-2.48,9.74-2.48,9.74"/><path class="cls-4" d="M160.93,56.29c0-.31-.81-7.67,2-10.85a4.07,4.07,0,0,1,3-1.41c.24-.64,1.33-3.18,3.6-3.83,1.54-.44,3.27.11,5.15,1.63.6-.24,3.25-1.18,5.26-.29a3.56,3.56,0,0,1,1.92,2.15,4.07,4.07,0,0,1,2.64,4.16,2.11,2.11,0,0,1,1.22.65,3,3,0,0,1,.61,2.3c-.22,2.72-2.4,9.5-2.49,9.79l-.41-.13c0-.07,2.26-7,2.47-9.69a2.55,2.55,0,0,0-.5-2,1.71,1.71,0,0,0-1.13-.54H184l0-.23a3.61,3.61,0,0,0-2.43-4l-.11,0,0-.1a3.17,3.17,0,0,0-1.73-2c-2.07-.92-5,.32-5,.34l-.12.05-.1-.08c-1.8-1.49-3.43-2-4.86-1.63-2.32.66-3.35,3.67-3.36,3.7l0,.14h-.15a3.68,3.68,0,0,0-2.83,1.27c-2.69,3-1.91,10.44-1.9,10.52Z"/><path class="cls-11" d="M162.93,60.18s-4-.43-1.78-3.91c0,0,1.22-.92,2.12-.29"/><path class="cls-4" d="M162.62,60.35a3.07,3.07,0,0,1-2.19-1.4,2.88,2.88,0,0,1,.53-2.8l.05-.06c.05,0,1.35-1,2.37-.29l-.24.35c-.69-.48-1.66.14-1.84.26a2.48,2.48,0,0,0-.48,2.35c.48,1,2.12,1.2,2.13,1.21l0,.42Z"/><path class="cls-11" d="M181.51,60.24s2.3-.45,2.59,1,.21,3.58-3.28,2.47"/><path class="cls-4" d="M181.6,64.16a7.83,7.83,0,0,1-.85-.22l.13-.41c1.29.41,2.19.4,2.67,0s.48-1.46.33-2.2c-.24-1.25-2.32-.86-2.34-.86l-.08-.42c.1,0,2.51-.47,2.83,1.2a2.66,2.66,0,0,1-.47,2.6A2.53,2.53,0,0,1,181.6,64.16Z"/><path class="cls-11" d="M164.31,51.36s-5.49,18,5.41,19.48c0,0,11.35,3.8,12.58-16.69,0,0-4.46-.56-5-3.57,0,0-.55-.82-1,.83s-2.54,3.74-5.62.75c0,0-3.3,2-5.41-.62C165.24,51.54,164.58,50.37,164.31,51.36Z"/><path class="cls-4" d="M170.22,71.19a5.08,5.08,0,0,1-.58-.15,7.09,7.09,0,0,1-5.25-3.25c-1.5-2.35-2-5.85-1.5-10.39a37.84,37.84,0,0,1,1.21-6.1c.09-.34.25-.52.47-.55.4,0,.75.51.85.68,1.95,2.46,5,.63,5.12.55l.14-.09.12.12c1.21,1.17,2.38,1.65,3.39,1.38a2.92,2.92,0,0,0,1.88-2c.21-.75.46-1.13.8-1.18a.63.63,0,0,1,.58.29l0,.08c.53,2.82,4.8,3.39,4.84,3.4l.2,0v.2c-.48,8-2.55,13.34-6.15,15.77A8.14,8.14,0,0,1,170.22,71.19Zm-.48-.56a7.82,7.82,0,0,0,6.38-1.05c3.45-2.34,5.45-7.47,5.95-15.25-.89-.15-4.44-.91-5-3.66,0,0-.1-.09-.14-.08s-.23.06-.46.88a3.32,3.32,0,0,1-2.18,2.33c-.79.21-2.07.15-3.68-1.37-.68.36-3.6,1.71-5.55-.75a1.2,1.2,0,0,0-.45-.5s-.06,0-.11.24h0c0,.11-3.22,10.72.24,16.14A6.73,6.73,0,0,0,169.74,70.63Z"/><rect class="cls-4" x="167.51" y="53.84" width="0.43" height="5.08" transform="translate(109.81 223.58) rotate(-89.48)"/><rect class="cls-4" x="177.14" y="55.66" width="0.43" height="5.26" transform="translate(57.91 201.76) rotate(-68.42)"/><path class="cls-4" d="M171.57,62.67l-.1,0a2,2,0,0,1-1.25-2h.43c0,.05,0,1.25.94,1.55h0a1.69,1.69,0,0,0,1.19-.14,1.17,1.17,0,0,0,.49-.85l.42.07a1.58,1.58,0,0,1-.68,1.14A2,2,0,0,1,171.57,62.67Z"/><polygon class="cls-4" points="171.62 67.57 169.84 67.22 169.25 64.93 173.66 65.81 171.62 67.57"/><polygon class="cls-9" points="170.19 66.85 171.5 67.11 172.73 66.05 169.83 65.48 170.19 66.85"/><circle class="cls-4" cx="167.34" cy="58.78" r="0.63" transform="translate(77.12 211.49) rotate(-78.78)"/><circle class="cls-4" cx="176.26" cy="60.55" r="0.63" transform="translate(82.57 221.67) rotate(-78.78)"/><path class="cls-7" d="M184.17,41.43l6.29-7.61-10,1.28-2.06-9.84-5.21,8.59-9-4.52,3.41,9.26a17.16,17.16,0,0,1,16.52,2.82Z"/><path class="cls-4" d="M184.17,41.59a.16.16,0,0,1-.1,0,17,17,0,0,0-16.37-2.8.16.16,0,0,1-.2-.09l-3.41-9.26a.16.16,0,0,1,.22-.2l8.85,4.45,5.14-8.47a.16.16,0,0,1,.29,0l2,9.69,9.82-1.26a.16.16,0,0,1,.14.26l-6.29,7.61A.16.16,0,0,1,184.17,41.59Zm-10.78-4.13a17.3,17.3,0,0,1,10.76,3.75L190.08,34l-9.57,1.23a.16.16,0,0,1-.18-.12l-2-9.44-5,8.25a.16.16,0,0,1-.21.06l-8.62-4.34,3.22,8.74A17.29,17.29,0,0,1,173.39,37.46Z"/></svg>