<?xml version="1.0" encoding="utf-8"?>
<!-- Generator: Adobe Illustrator 21.0.2, SVG Export Plug-In . SVG Version: 6.00 Build 0)  -->
<svg version="1.1" id="Layer_1" xmlns="http://www.w3.org/2000/svg" xmlns:xlink="http://www.w3.org/1999/xlink" x="0px" y="0px"
	 viewBox="0 0 72 62" style="enable-background:new 0 0 72 62;" xml:space="preserve">
<style type="text/css">
	.st0{fill:#0D71BA;}
	.st1{fill:none;}
</style>
<title>silicon-valley-trip-icon</title>
<path class="st0" d="M69,46.8v-9.3l3,2.2v-1.9c-3.4-2.4-6.4-5.3-9-8.5V24h-3v5.3C57.2,32.8,48,43,36,43S14.8,32.8,12,29.3V24H9v5.3
	c-2.6,3.2-5.6,6.1-9,8.5v1.9l3-2.2v9.3H0v3h7.5v-3h-3V36.2c1.6-1.4,3.1-2.9,4.5-4.5v25.7H7.5v3H6V62h9v-1.5h-1.5v-3H12V31.7
	c1.4,1.6,2.9,3.1,4.5,4.5v10.6h-3v3h45v-3h-3V36.2c1.6-1.4,3.1-2.9,4.5-4.5v25.7h-1.5v3H57V62h9v-1.5h-1.5v-3H63V31.7
	c1.4,1.6,2.9,3.1,4.5,4.5v10.6h-3v3H72v-3H69z M18,46.8v-9.3c1.9,1.5,3.9,2.8,6,3.9v5.4H18z M25.5,46.8v-4.6c1.9,0.9,3.9,1.5,6,1.9
	v2.7L25.5,46.8z M33,46.8v-2.5l3,0.2l3-0.2v2.5H33z M40.5,46.8v-2.7c2.1-0.4,4.1-1,6-1.9v4.6L40.5,46.8z M54,46.8h-6v-5.4
	c2.1-1.1,4.1-2.4,6-3.9V46.8z"/>
<rect x="-382" y="-1064" class="st1" width="1440" height="6808"/>
</svg>
