<svg id="Layer_1" data-name="Layer 1" xmlns="http://www.w3.org/2000/svg" viewBox="0 0 62 62"><defs><style>.cls-1{fill:#0d71ba;}</style></defs><title>sixways-icon</title><path class="cls-1" d="M38,0A23.9,23.9,0,0,0,15.7,32.8L0,39.3v3.8l20.8-2L17.8,62h3.8l7.1-15.9A24.5,24.5,0,0,0,38,48,24,24,0,0,0,38,0ZM20.4,60h-.2l3-21.1L2,40.9v-.2L35.1,26.9ZM21,24A17,17,0,1,1,38,41a17.4,17.4,0,0,1-6.4-1.3L32.8,37A13.4,13.4,0,0,0,38,38,14,14,0,1,0,24,24a13.3,13.3,0,0,0,.9,4.9l-2.8,1.2A18.3,18.3,0,0,1,21,24Zm15,0a2,2,0,1,1,2,2h-.3L39,23.1l-3,1.2Zm.8,3.8L38,28a4,4,0,1,0-4-4,4.3,4.3,0,0,0,.2,1.1l-2.8,1.2A6.2,6.2,0,0,1,31,24a7,7,0,1,1,7,7,6.7,6.7,0,0,1-2.4-.4Zm-2,4.6A8.7,8.7,0,0,0,38,33a9,9,0,1,0-9-9,9.9,9.9,0,0,0,.5,3l-2.8,1.1A14.1,14.1,0,0,1,26,24,12,12,0,1,1,38,36a11.2,11.2,0,0,1-4.4-.9ZM38,46a22.6,22.6,0,0,1-8.5-1.7l1.2-2.8A18.3,18.3,0,0,0,38,43,19,19,0,1,0,19,24a20.1,20.1,0,0,0,1.3,6.9L17.5,32A22,22,0,1,1,38,46Z"/><path class="cls-1" d="M3.1,59.9,1.7,58.4,3.1,57l1.4,1.4ZM6,57,4.6,55.6,6,54.2l1.4,1.4Zm2.8-2.8L7.4,52.8l1.4-1.4,1.4,1.4Zm2.8-2.8L10.2,50l1.4-1.4L13,50Zm2.8-2.8L13,47.1l1.4-1.4,1.4,1.4Zm2.8-2.8-1.4-1.4,1.4-1.4,1.4,1.4Z"/></svg>