<svg id="Layer_1" data-name="Layer 1" xmlns="http://www.w3.org/2000/svg" viewBox="0 0 62 62"><defs><style>.cls-1{fill:#0d71ba;}</style></defs><title>student-founders-icon</title><path class="cls-1" d="M26,14.2V15H25v2h1v3H36V17h1V15H36v-.8A7.9,7.9,0,0,0,39,8,8,8,0,0,0,23,8,7.9,7.9,0,0,0,26,14.2ZM34,18H28V17h6ZM30,8a1,1,0,0,1,2,0,1,1,0,0,1-2,0Zm1-6a6,6,0,0,1,6,6,5.9,5.9,0,0,1-2.6,4.9l-.4.3V15H32V10.8A2.9,2.9,0,0,0,34,8a3,3,0,0,0-6,0,2.9,2.9,0,0,0,2,2.8V15H28V13.2l-.4-.3A5.9,5.9,0,0,1,25,8,6,6,0,0,1,31,2Z"/><path class="cls-1" d="M39.8,43.2l-1.1,1.7A11.4,11.4,0,0,1,44,54.5V60H31.6l7.3-12.5-1.7-1L31,57,24.9,46.5l-1.7,1L30.4,60H18V54.5a11.7,11.7,0,0,1,5.3-9.7l-1.1-1.7A13.5,13.5,0,0,0,16,54.5V62H46V54.5A13.3,13.3,0,0,0,39.8,43.2Z"/><path class="cls-1" d="M19.9,34a11,11,0,1,0,11-11A11,11,0,0,0,19.9,34ZM40,34a9,9,0,1,1-9-9A9,9,0,0,1,40,34Z"/><path class="cls-1" d="M17.4,37.7a10.9,10.9,0,0,1-2.5.4,9,9,0,1,1,7-14.7l1.5-1.3A10.9,10.9,0,0,0,14.9,18a11,11,0,1,0,0,22,10.3,10.3,0,0,0,3-.4Z"/><path class="cls-1" d="M2,49.5a11.7,11.7,0,0,1,5.3-9.7L6.2,38.1A13.6,13.6,0,0,0,0,49.5V57H13V55H2Z"/><path class="cls-1" d="M58,29A11,11,0,0,0,47,18a10.9,10.9,0,0,0-8.5,4.1L40,23.4a9,9,0,1,1,7,14.7,7.3,7.3,0,0,1-2.5-.4l-.6,1.9a10.3,10.3,0,0,0,3,.4A11,11,0,0,0,58,29Z"/><path class="cls-1" d="M55.8,38.2l-1.1,1.7A11.4,11.4,0,0,1,60,49.5V55H50v-.5H48V57H62V49.5A13.3,13.3,0,0,0,55.8,38.2Z"/></svg>