<svg id="e566a76c-f403-4c27-bab1-999ba8fb3be4" data-name="Layer 1" xmlns="http://www.w3.org/2000/svg" xmlns:xlink="http://www.w3.org/1999/xlink" viewBox="0 0 140 140"><defs><mask id="f6875188-ce7b-4057-a283-ff1c544757c3" x="68.38" y="46.33" width="24.06" height="32.39" maskUnits="userSpaceOnUse"><g id="b3949c44-d72f-4780-bb6b-72fc031e2688" data-name="mask-2"><polygon id="a8defe17-bb63-40dd-9717-06e98671a591" data-name="path-1" points="68.38 46.33 92.44 46.33 92.44 78.72 68.38 78.72 68.38 46.33" fill="#fff" fill-rule="evenodd"/></g></mask><mask id="b91f8bab-ab1f-46ff-bf1f-61a17514210b" x="52.46" y="30.42" width="33.93" height="33.14" maskUnits="userSpaceOnUse"><g id="ab95742b-33a1-4658-9bfe-7a9702994bf0" data-name="mask-4"><polygon id="be20f8f7-c5ad-4bd1-882d-c09910e1289d" data-name="path-3" points="52.46 30.42 86.39 30.42 86.39 63.56 52.46 63.56 52.46 30.42" fill="#fff" fill-rule="evenodd"/></g></mask></defs><title>Artboard 1</title><g id="b74a898f-98ba-4c78-8f48-e6ada12b0dc9" data-name="Pick-an-answer." style="isolation:isolate"><g style="isolation:isolate"><path d="M26.05,88.26h3.08a6.75,6.75,0,0,1,1.39.14,2.82,2.82,0,0,1,1.1.48,2.3,2.3,0,0,1,.73.87,3.51,3.51,0,0,1,0,2.65,2.43,2.43,0,0,1-.74.93,3.08,3.08,0,0,1-1.1.55,5.11,5.11,0,0,1-1.38.18H27.67v3.36H26.05ZM29,92.75c1.34,0,2-.55,2-1.66a1.32,1.32,0,0,0-.51-1.2A2.77,2.77,0,0,0,29,89.56H27.67v3.19Z" fill="#d3d1d1"/><path d="M35.37,89.34a1,1,0,0,1-.71-.25.84.84,0,0,1-.28-.66.88.88,0,0,1,.28-.67,1,1,0,0,1,.71-.26,1,1,0,0,1,.72.26.91.91,0,0,1,.28.67.87.87,0,0,1-.28.66A1.09,1.09,0,0,1,35.37,89.34Zm-.81,1.2h1.61v6.88H34.56Z" fill="#d3d1d1"/><path d="M38.14,94a4.09,4.09,0,0,1,.28-1.53,3.26,3.26,0,0,1,.76-1.13,3.2,3.2,0,0,1,1.1-.71,3.59,3.59,0,0,1,1.31-.25,2.66,2.66,0,0,1,1.17.24,3,3,0,0,1,.84.56l-.77,1a2.71,2.71,0,0,0-.56-.37,1.32,1.32,0,0,0-.6-.13,1.7,1.7,0,0,0-1.36.62A2.59,2.59,0,0,0,39.8,94a2.5,2.5,0,0,0,.51,1.65,1.62,1.62,0,0,0,1.32.63,1.72,1.72,0,0,0,.78-.18,2.73,2.73,0,0,0,.63-.41l.68,1a3.57,3.57,0,0,1-1.08.66,3.28,3.28,0,0,1-1.18.22,3.76,3.76,0,0,1-1.31-.23,3.16,3.16,0,0,1-1.06-.7,3.25,3.25,0,0,1-.69-1.14A4.25,4.25,0,0,1,38.14,94Z" fill="#d3d1d1"/><path d="M45.42,87.53H47v6.18h0l2.54-3.17h1.77L49,93.34l2.59,4.08H49.85l-1.77-3L47,95.67v1.75H45.42Z" fill="#d3d1d1"/><path d="M56,95.57a1.91,1.91,0,0,1,1-1.71A7.71,7.71,0,0,1,60.08,93a1.7,1.7,0,0,0-.07-.51,1.25,1.25,0,0,0-.22-.43.91.91,0,0,0-.37-.3,1.45,1.45,0,0,0-.59-.1,2.69,2.69,0,0,0-1,.19,5.85,5.85,0,0,0-.93.48l-.59-1.08a7.37,7.37,0,0,1,1.29-.63,4.24,4.24,0,0,1,1.53-.27,2.35,2.35,0,0,1,1.93.77,3.37,3.37,0,0,1,.63,2.2v4.08H60.37l-.12-.76h0a5.33,5.33,0,0,1-1,.66,2.45,2.45,0,0,1-1.14.26A2,2,0,0,1,56.6,97,2,2,0,0,1,56,95.57Zm1.57-.13a.77.77,0,0,0,.28.67,1.1,1.1,0,0,0,.7.21,1.54,1.54,0,0,0,.77-.19,3.48,3.48,0,0,0,.73-.56V94a7.15,7.15,0,0,0-1.18.22,3.47,3.47,0,0,0-.76.32,1.05,1.05,0,0,0-.41.4A.88.88,0,0,0,57.6,95.44Z" fill="#d3d1d1"/><path d="M64,90.54h1.33l.12.93h.05a5.23,5.23,0,0,1,1-.77,2.37,2.37,0,0,1,1.26-.33,1.86,1.86,0,0,1,1.61.71,3.5,3.5,0,0,1,.5,2v4.32H68.27V93.31a2.12,2.12,0,0,0-.25-1.2,1,1,0,0,0-.83-.35,1.4,1.4,0,0,0-.79.22,4.67,4.67,0,0,0-.78.63v4.81H64Z" fill="#d3d1d1"/><path d="M75.16,95.57a1.91,1.91,0,0,1,1-1.71A7.82,7.82,0,0,1,79.2,93a1.7,1.7,0,0,0-.07-.51,1.23,1.23,0,0,0-.21-.43,1,1,0,0,0-.38-.3,1.44,1.44,0,0,0-.58-.1,2.62,2.62,0,0,0-1,.19,5.11,5.11,0,0,0-.93.48l-.59-1.08a7.26,7.26,0,0,1,1.28-.63,4.24,4.24,0,0,1,1.53-.27,2.35,2.35,0,0,1,1.93.77,3.37,3.37,0,0,1,.63,2.2v4.08H79.5l-.13-.76h0a5.33,5.33,0,0,1-1,.66,2.45,2.45,0,0,1-1.14.26A2,2,0,0,1,75.72,97,2,2,0,0,1,75.16,95.57Zm1.57-.13a.79.79,0,0,0,.27.67,1.13,1.13,0,0,0,.71.21,1.57,1.57,0,0,0,.77-.19,3.72,3.72,0,0,0,.72-.56V94a7,7,0,0,0-1.17.22,3.57,3.57,0,0,0-.77.32,1.13,1.13,0,0,0-.41.4A1,1,0,0,0,76.73,95.44Z" fill="#d3d1d1"/><path d="M83.14,90.54h1.33l.11.93h.06a4.94,4.94,0,0,1,1-.77,2.33,2.33,0,0,1,1.25-.33,1.85,1.85,0,0,1,1.61.71,3.43,3.43,0,0,1,.5,2v4.32H87.39V93.31a2.12,2.12,0,0,0-.25-1.2,1,1,0,0,0-.82-.35,1.38,1.38,0,0,0-.79.22,4.67,4.67,0,0,0-.78.63v4.81H83.14Z" fill="#d3d1d1"/><path d="M91.41,95.6a4.36,4.36,0,0,0,.92.56,2.31,2.31,0,0,0,1,.21,1.18,1.18,0,0,0,.82-.24.74.74,0,0,0,.27-.59.56.56,0,0,0-.13-.37,1.18,1.18,0,0,0-.33-.29,3.59,3.59,0,0,0-.48-.23l-.53-.22c-.23-.08-.45-.18-.69-.29a2.67,2.67,0,0,1-.62-.41,2,2,0,0,1-.45-.55,1.49,1.49,0,0,1-.17-.75A1.85,1.85,0,0,1,91.68,91a2.75,2.75,0,0,1,1.83-.58,3.13,3.13,0,0,1,1.29.26,4.68,4.68,0,0,1,1,.57l-.74,1a4,4,0,0,0-.73-.43,2.09,2.09,0,0,0-.78-.16,1.08,1.08,0,0,0-.76.22.66.66,0,0,0-.25.54.56.56,0,0,0,.12.36A1.19,1.19,0,0,0,93,93a2.35,2.35,0,0,0,.45.21l.54.2a6.91,6.91,0,0,1,.7.29,2.65,2.65,0,0,1,.64.4,1.77,1.77,0,0,1,.46.58,1.74,1.74,0,0,1,.17.82,1.9,1.9,0,0,1-.68,1.5,2.81,2.81,0,0,1-.84.46,3.72,3.72,0,0,1-1.15.16,3.88,3.88,0,0,1-1.41-.27,4.41,4.41,0,0,1-1.19-.68Z" fill="#d3d1d1"/><path d="M97.05,90.54h1.63l.82,3.57c.08.33.14.66.19,1s.11.66.18,1h0l.21-1c.07-.32.14-.65.23-1l.89-3.57h1.47l.91,3.57c.09.33.17.66.24,1s.15.66.23,1h.05c.07-.34.13-.67.18-1s.12-.65.19-1l.82-3.57h1.51l-1.75,6.88h-1.91l-.8-3.21c-.08-.33-.15-.65-.21-1s-.14-.67-.21-1h-.06c-.06.36-.13.71-.19,1l-.21,1-.79,3.2H98.87Z" fill="#d3d1d1"/><path d="M108,94a4.07,4.07,0,0,1,.27-1.52,3.51,3.51,0,0,1,.71-1.13,3.05,3.05,0,0,1,3.42-.73,2.49,2.49,0,0,1,.89.67,2.94,2.94,0,0,1,.54,1,4.58,4.58,0,0,1,.18,1.32,3,3,0,0,1-.07.75h-4.37a2.26,2.26,0,0,0,.65,1.44,1.93,1.93,0,0,0,1.38.51,2.72,2.72,0,0,0,.83-.13,3.67,3.67,0,0,0,.77-.38l.54,1a4.6,4.6,0,0,1-1.09.53,3.79,3.79,0,0,1-1.26.21,3.65,3.65,0,0,1-1.33-.24,3.12,3.12,0,0,1-1.08-.71,3.42,3.42,0,0,1-.72-1.13A4.15,4.15,0,0,1,108,94Zm4.61-.62a2.13,2.13,0,0,0-.34-1.29,1.23,1.23,0,0,0-1.06-.46,1.54,1.54,0,0,0-1.08.44,2.1,2.1,0,0,0-.57,1.31Z" fill="#d3d1d1"/><path d="M116,90.54h1.33l.12,1.22h0a2.91,2.91,0,0,1,.88-1,1.86,1.86,0,0,1,1.07-.36,1.88,1.88,0,0,1,.78.14l-.28,1.4-.33-.08a2.09,2.09,0,0,0-.38,0,1.53,1.53,0,0,0-.86.32,2.5,2.5,0,0,0-.77,1.1v4.2H116Z" fill="#d3d1d1"/></g></g><g id="ba17c80d-cf76-444a-ab09-8dadad2d66c8" data-name="Group-3"><g mask="url(#f6875188-ce7b-4057-a283-ff1c544757c3)"><path id="ead6155e-a7ef-4daa-ab01-8d33f839b512" data-name="Fill-1" d="M77.4,64.55a1,1,0,0,0-.84.45l-6.18,9.36V49.48L88.62,64.55Zm14.67.22L70,46.55a1,1,0,0,0-1.63.79V77.71a1,1,0,0,0,.71,1,1.35,1.35,0,0,0,.29,0,1,1,0,0,0,.83-.45l7.73-11.7H91.43a1,1,0,0,0,.95-.67A1,1,0,0,0,92.07,64.77Z" fill="#d3d1d1" fill-rule="evenodd"/></g></g><g id="f9bc76f6-4a5e-4a36-8439-cb5236bb80fa" data-name="Group-6"><g mask="url(#b91f8bab-ab1f-46ff-bf1f-61a17514210b)"><path id="f8632ff9-b8be-4e2a-94ad-bca08320a338" data-name="Fill-4" d="M75.52,31.56a17,17,0,0,0-21.93,9.82,17.18,17.18,0,0,0,9.75,22.11,1.15,1.15,0,0,0,.36.07,1,1,0,0,0,.36-2,15.14,15.14,0,0,1-8.6-19.51A14.94,14.94,0,0,1,74.8,33.44a15.14,15.14,0,0,1,8.6,19.5,1,1,0,0,0,.57,1.3,1,1,0,0,0,1.29-.57,17.17,17.17,0,0,0-9.74-22.11" fill="#d3d1d1" fill-rule="evenodd"/></g></g><path id="bfbc913b-913c-4a56-9acd-fc246041c00a" data-name="Fill-7" d="M79.44,43.69a10.94,10.94,0,0,0-20.2.51,10.88,10.88,0,0,0,6.28,14.08,1,1,0,0,0,.35.06,1,1,0,0,0,.93-.64,1,1,0,0,0-.57-1.27A8.92,8.92,0,1,1,77.62,44.49a8.82,8.82,0,0,1,.18,6.82,1,1,0,0,0,.57,1.28A1,1,0,0,0,79.65,52a10.75,10.75,0,0,0-.21-8.33" fill="#d3d1d1" fill-rule="evenodd"/><g id="ab9befce-c449-4588-9556-1a8635afa4c5" data-name="Rectangle"><g opacity="0.3"><path d="M130.12,5.94a4,4,0,0,1,3.94,3.94V130.12a4,4,0,0,1-3.94,3.94H9.88a4,4,0,0,1-3.94-3.94V9.88A4,4,0,0,1,9.88,5.94H130.12m0-3.94H9.88A7.88,7.88,0,0,0,2,9.88V130.12A7.88,7.88,0,0,0,9.88,138H130.12a7.88,7.88,0,0,0,7.88-7.88V9.88A7.88,7.88,0,0,0,130.12,2Z" fill="#e5e5e5"/></g></g></svg>