<?xml version="1.0" encoding="UTF-8"?>
<svg width="492px" height="492px" viewBox="0 0 492 492" version="1.1" xmlns="http://www.w3.org/2000/svg" xmlns:xlink="http://www.w3.org/1999/xlink">
    <!-- Generator: Sketch 52.4 (67378) - http://www.bohemiancoding.com/sketch -->
    <title>cancel (3)</title>
    <desc>Created with Sketch.</desc>
    <g id="Page-1" stroke="none" stroke-width="1" fill="none" fill-rule="evenodd">
        <g id="cancel-(3)">
            <path d="M246,0 C378.55,0 492,113.45 492,246 C492,378.55 378.55,492 246,492 C113.45,492 0,378.55 0,246 C0,113.45 113.45,0 246,0 Z" id="Path" fill="#F55151"></path>
            <path d="M337.21,154.79 C348.93,166.5 348.93,185.5 337.21,197.21 L288.42,246 L337.21,294.79 C348.93,306.5 348.93,325.5 337.21,337.21 C331.35,343.07 323.68,346 316,346 C308.32,346 300.65,343.07 294.79,337.21 L246,288.42 L197.21,337.21 C191.35,343.07 183.68,346 176,346 C168.32,346 160.65,343.07 154.79,337.21 C143.07,325.5 143.07,306.5 154.79,294.79 L203.58,246 L154.79,197.21 C143.07,185.5 143.07,166.5 154.79,154.79 C166.51,143.07 185.49,143.07 197.21,154.79 L246,203.58 L294.79,154.79 C306.51,143.07 325.49,143.07 337.21,154.79 Z" id="Path" fill="#FFFFFF"></path>
            <path d="M441.975,163.804 C431.105,138.548 415.612,115.76 395.926,96.075 C376.24,76.389 353.453,60.896 328.197,50.026 C301.948,38.728 274.293,33 246,33 C207.538,33 167.445,46.134 130.055,70.981 C125.455,74.038 124.204,80.245 127.261,84.844 C130.318,89.444 136.526,90.694 141.124,87.638 C175.224,64.978 211.489,53 246,53 C350.617,53 439,141.383 439,246 C439,350.617 350.617,439 246,439 C141.383,439 53,350.617 53,246 C53,211.496 64.975,175.229 87.629,141.123 C90.685,136.522 89.433,130.316 84.833,127.26 C80.231,124.204 74.025,125.457 70.97,130.057 C46.13,167.454 33,207.546 33,246 C33,274.293 38.728,301.948 50.025,328.196 C60.895,353.452 76.388,376.24 96.074,395.925 C115.76,415.611 138.547,431.104 163.803,441.974 C190.052,453.272 217.707,459 246,459 C274.293,459 301.948,453.272 328.196,441.975 C353.452,431.105 376.24,415.612 395.925,395.926 C415.611,376.24 431.104,353.453 441.974,328.197 C453.272,301.948 459,274.293 459,246 C459,217.707 453.272,190.052 441.975,163.804 Z" id="Path" fill="#FFFFFF"></path>
            <path d="M104,95 C98.48,95 94,99.48 94,105 C94,110.52 98.48,115 104,115 C109.52,115 114,110.52 114,105 C114,99.48 109.52,95 104,95 Z" id="Path" fill="#FFFFFF"></path>
        </g>
    </g>
</svg>