<svg id="e043d2c3-4e9e-4178-b303-68581ea5d43d" data-name="Layer 1" xmlns="http://www.w3.org/2000/svg" viewBox="0 0 320 240"><title>access ended</title><path d="M309.59,148.38a36,36,0,0,0-14.87-25.21,21.86,21.86,0,0,0-18.27-4c-4.76,1-9.33,2.61-14,4-5.45,1.6-10.9,3-16.7,2.19A21.41,21.41,0,0,1,234.17,120c-5.22-4.73-8-10.83-9.84-17.47S222.15,88.86,221.44,82a85.89,85.89,0,0,0-2.36-14.17,42.36,42.36,0,0,0-10.18-18A55.33,55.33,0,0,0,190.6,37a67,67,0,0,0-23.74-5.38A88.22,88.22,0,0,0,158,31.5c-3.79.19-7.58.47-11.32,1a154.48,154.48,0,0,0-28.17,7A161,161,0,0,0,39.09,99.9a163.93,163.93,0,0,0-14,24.73,161.36,161.36,0,0,0-6.87,17.59,166.36,166.36,0,0,0-8.16,45.6,158.18,158.18,0,0,0,.53,18.6c.09,1.16.48,1.58,1.67,1.56h1.14v0H284.64v-.56a10.43,10.43,0,0,0,4.07-2.2,34,34,0,0,0,5.76-6.62c4.74-7,8.06-14.65,11.14-22.44C309.15,167.24,310.84,158,309.59,148.38Z" fill="#f6ede1"/><rect x="22.14" y="60.9" width="27.74" height="103.91" fill="#f3c47f"/><rect x="53.38" y="38.26" width="27.74" height="125.43" fill="#f3c47f"/><rect x="85.13" y="94.86" width="27.74" height="69.38" fill="#f3c47f"/><rect x="24.88" y="76.68" width="20.72" height="6.71" fill="#fff"/><rect x="56.89" y="49.68" width="20.72" height="6.71" fill="#fff"/><rect x="88.64" y="100.98" width="20.72" height="6.71" fill="#fff"/><path d="M68.36,220.85h73S89,211.74,68.36,220.85Z" fill="#f6ede1"/><path d="M195.39,224.22h73S216,215.12,195.39,224.22Z" fill="#f6ede1"/><path d="M51.28,168.73c-.74.28-1,1.42-2,1.18-1.05,0-1.71-1.07-2.85-1-.51,0-.57-.78-.69-1.52a2.42,2.42,0,0,1-1.14,1.32c.08.81,1.09-.55,1,.57,0,.39.47.88,0,1.18s-.57-.42-.89-.62c-.16-.1-.29-.25-.46-.34s-.08-.79-.65-.5-.32.59-.2,1c.28.92-.06,1.39-1,1.37l0,0c-.29-.63,1.19-.43.57-1.09-.4-.43-1-1-1.72-.35a.37.37,0,0,1-.5.08c-1.35-.84-1.92,0-2.39,1.1-1.6.27-2.11-.5-2.56-2-.6-2-1.58-3.89-1.78-6,0-.55-.16-1.21.57-1.47s1.14.22,1.5.6c.9,1,1.7,2,2.55,3.09,0,.13.07.25.11.38l.11-.08-.22-.3c-.36-3.33-1.1-6.61-.87-10a23.46,23.46,0,0,1,1.74-8.09,1.8,1.8,0,0,1,1.85-1.3,2,2,0,0,1,1.85,1.36A46.52,46.52,0,0,1,46.42,161c.16,1.61.18,3.22.29,5a26,26,0,0,1,1.57-2.18c.43-.51,1-1.07,1.71-.75a1.63,1.63,0,0,1,1,1.75c0,.43,0,.86,0,1.29l-.37.14.36.15c.37.88.68.06.81-.11.58-.76,1.05-1.73,2.27-1.23s1.53,1.6,1.58,2.82a6.5,6.5,0,0,1-.32,2c-.36-.28-.42-.71-.6-1.09-.33-.68-.67-1.14-1.33-.16s-1.39.13-2.11.11l-.39-1.33C50.31,168.16,50.36,168.6,51.28,168.73Zm-12.39.85a1.83,1.83,0,0,0,.36-2.1.49.49,0,0,0-.75-.07C38,168.17,38.55,168.8,38.89,169.58Zm4-1.43a4.17,4.17,0,0,0-.92-.69c-.41-.19-.44.19-.47.47,0,.54.16.83.74.79C42.51,168.71,42.78,168.67,42.85,168.15Zm1-.11s0-.07,0-.09a.2.2,0,0,0-.11,0l0,.14Z" fill="#86c49f"/><path d="M83.26,165.06c-.52.19-.71,1-1.44.83-.75,0-1.21-.76-2-.71-.37,0-.4-.55-.49-1.08a1.73,1.73,0,0,1-.81.93c.06.58.77-.38.72.4,0,.28.33.62,0,.83s-.41-.3-.63-.44-.21-.17-.32-.24,0-.55-.46-.35-.23.43-.14.69c.2.65,0,1-.74,1l0,0c-.21-.45.84-.3.41-.77-.29-.32-.7-.71-1.22-.25-.11.09-.21.14-.35,0-1-.58-1.36,0-1.69.79-1.13.19-1.49-.35-1.81-1.41A22.3,22.3,0,0,1,71,161c0-.39-.11-.85.4-1s.82.15,1.07.43c.63.69,1.2,1.45,1.8,2.18a2.58,2.58,0,0,0,.08.26.18.18,0,0,0,.07,0l-.15-.22a40.64,40.64,0,0,1-.62-7.06,16.5,16.5,0,0,1,1.22-5.71,1.28,1.28,0,0,1,1.31-.92,1.4,1.4,0,0,1,1.3,1,33.06,33.06,0,0,1,2.33,9.71c.11,1.14.12,2.27.2,3.55a18.27,18.27,0,0,1,1.11-1.54c.3-.36.7-.76,1.21-.53a1.18,1.18,0,0,1,.72,1.24c0,.3,0,.6,0,.91l-.26.1.26.11c.27.62.48,0,.57-.08.41-.53.75-1.22,1.61-.86a2,2,0,0,1,1.11,2,4.41,4.41,0,0,1-.22,1.4c-.26-.2-.3-.51-.42-.77-.23-.48-.47-.81-.94-.11s-1,.11-1.49.09c-.08-.29-.17-.58-.28-.94C82.57,164.66,82.61,165,83.26,165.06Zm-8.75.61a1.28,1.28,0,0,0,.24-1.48.33.33,0,0,0-.52-.06C73.85,164.66,74.27,165.11,74.51,165.67Zm2.79-1a3.81,3.81,0,0,0-.65-.49c-.28-.13-.31.13-.33.34,0,.38.12.58.53.56C77.06,165.05,77.26,165,77.3,164.65Zm.71-.07s0-.05,0-.06-.06,0-.08,0a.43.43,0,0,1,0,.11Z" fill="#86c49f"/><path d="M179.07,166.67s1.19,2.23-6.43,5.77c0,0-7.61,13.84-11.28,19.81s-4.79,12.4-4.33,13.26-11-.4-10.76-1.57,3.81-5.12,5.77-15.62,7.75-20.07,9.32-21,4.33-5.39,4.59-6.3S179.07,166.67,179.07,166.67Z" fill="#f0c5bf"/><polygon points="161.36 167.32 173.81 165.58 165.95 161.02 161.36 167.32" fill="#e0a19c"/><path d="M197.57,168.63s-.85,8.4,2.24,13.78,15.35,25.19,15.35,25.19,8.66-.91,8.79-3.28-8.79-13.38-12.34-25.32-.91-13.78-.91-13.78Z" fill="#f0c5bf"/><polygon points="197.49 172.59 210.3 167.97 197.57 168.63 197.49 172.59" fill="#e0a19c"/><path d="M208.2,117.45s-13.51-2.36-16.27-1-14.27,2.66-15.61,2-1.71-3-1.71-3l-1.05-20.74S172,75.91,172.91,74s.92-12.83,2.49-14,1.49-6,2.78-5.23a5.05,5.05,0,0,0,5,.24c2-.92,17.85,30,20.21,31.62S207.81,116.14,208.2,117.45Z" fill="#fec550"/><path d="M161.36,160s13.71,6.16,17.45,7.87,12.28.46,14.18.92a38.22,38.22,0,0,0,7.35.65c2.1,0,7.87-1.5,10-1.44s4.4-.92,6.82-2,2.57-2.24,2.63-3.68S208,116.1,208,116.1s-12.4-1.93-13.07-1.67a60.58,60.58,0,0,1-8.39,2c-2.36.26-12.25-2.18-11.95-1.05S162.08,158.79,161.36,160Z" fill="#cc2127"/><polygon points="182.99 118.2 175.85 160.93 186.55 116.41 182.99 118.2" fill="#931a1d"/><polygon points="191.93 116.41 191.93 165.22 194.95 114.44 191.93 116.41" fill="#931a1d"/><polygon points="201.5 116.49 207.28 166.11 205.74 117.06 201.5 116.49" fill="#931a1d"/><path d="M83.47,221.81h73S104.11,212.7,83.47,221.81Z" fill="#f6ede1"/><path d="M210.5,225.18h73S231.14,216.07,210.5,225.18Z" fill="#f6ede1"/><path d="M196.26,58.41l-4.33-2.24,1-6.43,3.82,1.12S195.6,55.51,196.26,58.41Z" fill="#e0a19c"/><path d="M193,49.74s8.73,3.41,11.42,0c0,0-1.38-2.42,0-3s.79-2.36.79-2.36a5.82,5.82,0,0,0,2.1-2.1c.53-1.19-2.16-1.91-2.23-3.28s.65-6.69.65-6.69-13.78-4.41-19.42,2.36c-2,2.43-.65,11.28,0,11.42s-1.12,8-1.12,8,5.72.79,6.77,2.1S193,49.74,193,49.74Z" fill="#f0c5bf"/><path d="M202.69,82.92s8.1-.34,8,1.88,0,5.46,0,5.46l-5,1.58Z" fill="#e0a19c"/><path d="M199.35,65.7s7,20,9.59,30.05S199.06,67,195.1,65.7,196.88,62,196.88,62Z" fill="#ef5592"/><path d="M154.79,73.76c.18.43-1.25,4.85-7.48,6.56s3.15,6.56,2,20.47,2.1,13,2,16.66,1.25,4.07,4.6,4.6,13.78.85,18.1-2.63-.06-34.32-.65-38.84,2.49-24.54,6.17-25.07-5.39-1.57-7.22,0-5.25,3.15-6.17,2.89l-.92-.27s-2.75,2-4.46,3.15-6.5-1.9-6.83,2.49S152.82,69.1,154.79,73.76Z" fill="#ed1d68"/><path d="M180.91,61.42c.14-.39.21-5.51,2.23-6.43s9.38-3.09,14.56,5.51,3.35,16.14,5,18.77,2.17,8.33,3,8.92-17.52,1.77-18.77.65S178.68,67.85,180.91,61.42Z" fill="#fec550"/><path d="M172.25,55.51S194,45.25,198.68,65.93s7,22.26,7,22.26,5,10,3.91,12-38.31,21.91-37.93,15.11c.13-2.26,31-14.85,31-14.85s3.93-1.7.72-6.45-5.73-29.78-13-34.42-15,.34-15,.34Z" fill="#ef5592"/><path d="M188,21.59s1.57-5.43,0-5.83-6.23-1.9-6.56,0-2.09,1.25-3.31.65-3-.16-2.46,1.8-1.18,3.39-2.36,2.41-4.72-.46-2.88,2,.54,5-.52,4.59-4.73-.46-.79,2,3.87,3,2.76,3.8-4.47,3.55-.4,3.68S177,33,178,34.52,186.51,21.33,188,21.59Z" fill="#0e2227"/><path d="M217.52,221a34.91,34.91,0,0,1-1.05-5.51,52.32,52.32,0,0,0-.65-5.77s-2.63-1.82-.65-2.11,7.08-1.64,8.79-3.28,1.84.17,1.84,1.46,2.69,1.49,3,1.82a4.1,4.1,0,0,0,1.84.79c.39,0,.12-.79,1.7,0s1.71-.39,3,.13-1.25,1,1.31.53,2.56.19,3.55.39,6.69-3.61,4.85-.13-7.35,10.24-13.91,10-6.5,3-6,3.28S217.82,222.22,217.52,221Z" fill="#0a3a45"/><path d="M155.45,218.23a6.12,6.12,0,0,1,1.44.5c1.29.53,3.16,1.39,4.47,2,2.1,1,11.35-.65,11.55-1.84s-2.43-2.49-3.94-2.75-4.07-2.36-4.07-2.36.4-1.38-.72-1.44-2.89-1.25-2.83-1.84-1-1.25-1.44-1.05l-1.84-2.76s.13-.39-1-1.18-10.76-1.57-10.76-1.57l-4.07,7.22s-2.23,1.77-.91,3,5.7,4.2,8.66,4.07S155.45,218.23,155.45,218.23Z" fill="#0a3a45"/><polygon points="197.46 90.34 204.2 89.31 207.35 99.53 197.88 100.5 197.46 90.34" fill="#e0a19c"/><path d="M208.2,88.46s3.34-1.9,4.92,0-3.24,2.74-2.41,4.79,1.09,5.19.11,5.31-4.34,2-4.62,0-2.79-9.39-2.79-9.39Z" fill="#f0c5bf"/><path d="M178,30.76s0-9,10-9.17C188,21.59,177.73,28.06,178,30.76Z" fill="#ef5592"/><path d="M205.71,34.26v-2l1.57,1s.27-4.92-5.38-7.15-6.89-7.87-19-1.83c0,0-5.76,5.24-4.59,9.18s2.36,10.7,5,12.2,4,1.84,4.2,3,1.44-3.09,1.18-5.12-4.46-6.5-1.83-6S189.44,40,190.36,40s.27-1,.53-2.62,1.83,0,2.88-.4-.39-2.1,1.31-2.36,2.7,2.22,3.95.59.91-4.46,2.49-3.08A12.59,12.59,0,0,0,205.71,34.26Z" fill="#0e2227"/><path d="M156.69,75.91S165,101.63,162.75,120c0,0,1.23,2.67-2.84,2.36,0,0,1.68-36.84-6.42-45.85C153.49,76.51,155.12,70.46,156.69,75.91Z" fill="#ef5592"/><path d="M160.7,61.29s6,8.76,6.62,26.32c0,0-6.69-26-9-26.11s2.31.16,2.31.16" fill="#ef5592"/><path d="M163.13,96.38l10.43-1.76.69,13.58s-5.27,6.32-8.37,1.82S163.13,96.38,163.13,96.38Z" fill="#ef5592"/><path d="M203.88,39.44a.92.92,0,0,1-1.84,0" fill="#0e2227"/><ellipse cx="188.66" cy="40.57" rx="0.66" ry="1.13" fill="#e0a19c"/><path d="M204,46.43a3.14,3.14,0,0,1-1.13-.2l.17-.43a3.22,3.22,0,0,0,2,0l.16.43A3.86,3.86,0,0,1,204,46.43Z" fill="#030404"/><path d="M200.6,38.92l-.18-.42c.1,0,2.42-1,3.77,0l-.28.36C202.77,38,200.62,38.91,200.6,38.92Z" fill="#030404"/><path d="M205.24,44.16l-.14-.44c.67-.2,1.79-.69,1.94-1.16a.29.29,0,0,0-.07-.3l-2.1-2.85.37-.28,2.1,2.85a.75.75,0,0,1,.13.73C207.2,43.55,205.44,44.1,205.24,44.16Z" fill="#030404"/><path d="M202.14,46.92l-.12-.45a1.07,1.07,0,0,0,.71-.48.82.82,0,0,0,.06-.64l.44-.14a1.34,1.34,0,0,1-.09,1A1.54,1.54,0,0,1,202.14,46.92Z" fill="#030404"/><path d="M190.41,57.14s-3.55-8-9.93,0-6.17,31.39-6.17,31.39l-.5,10.94s4.73,5.92,24,1h4.86l-2.5-11.2-13.25-.46s3.76-19.11,3.61-25.41Z" fill="#dd7526"/></svg>