<svg id="ed4d8d3d-35f2-46ce-9fb9-d840c853f34e" data-name="Layer 1" xmlns="http://www.w3.org/2000/svg" viewBox="0 0 320 240"><title>course-complete</title><path d="M305.1,139.94a34.92,34.92,0,0,0-14.42-24.46A21.23,21.23,0,0,0,273,111.59c-4.62,1-9,2.53-13.57,3.85-5.29,1.55-10.58,3-16.2,2.12a20.81,20.81,0,0,1-11.25-5.2c-5.06-4.59-7.78-10.5-9.54-17s-2.12-13.2-2.8-19.86a83,83,0,0,0-2.29-13.74,41.14,41.14,0,0,0-9.88-17.48,53.43,53.43,0,0,0-17.75-12.45,64.83,64.83,0,0,0-23-5.23c-2.88-.14-5.75-.23-8.65-.09-3.68.19-7.35.46-11,1a149.81,149.81,0,0,0-27.33,6.78,155.86,155.86,0,0,0-77,58.58,160.54,160.54,0,0,0-20.21,41,161.63,161.63,0,0,0-5.57,22.2,163.33,163.33,0,0,0-2.36,22,155.23,155.23,0,0,0,.52,18c.09,1.12.46,1.53,1.62,1.51h1.11v0H280.9v-.54a10.2,10.2,0,0,0,4-2.13,32.9,32.9,0,0,0,5.58-6.43c4.6-6.76,7.83-14.2,10.81-21.77C304.68,158.23,306.31,149.26,305.1,139.94Z" fill="#f6ede1"/><rect x="26.28" y="55.08" width="26.9" height="100.8" fill="#f3c47f"/><rect x="56.58" y="33.12" width="26.9" height="121.67" fill="#f3c47f"/><rect x="87.38" y="88.03" width="26.9" height="67.3" fill="#f3c47f"/><rect x="28.93" y="70.39" width="20.1" height="6.51" fill="#fff"/><rect x="59.99" y="44.2" width="20.1" height="6.51" fill="#fff"/><rect x="90.78" y="93.96" width="20.1" height="6.51" fill="#fff"/><path d="M71.11,210.24h70.83S91.12,201.4,71.11,210.24Z" fill="#f6ede1"/><path d="M216.49,125.29s.71-2.33-.82-2.57-4.43-1.1-4.39,0-.33,4,2.21,4.39A2.48,2.48,0,0,0,216.49,125.29Z" fill="#0a3a45"/><path d="M172.15,68.1s10.31-1.43,13.17,2.57,5.74,5.18,4.21,13.75c0,0-9.33-12.62-10.91-12s-6.83,2.54-6.83,2.54S165.36,71.26,172.15,68.1Z" fill="#dd7526"/><path d="M151.3,69.36s-2.69-1.66-4.92-1.17-14,31.14-14.39,33.16,6.13,3.78,6.13,3.78Z" fill="#2a7abc"/><path d="M162.54,64.78s-4.72-3.86-8.32-.3S141.85,90.61,139.65,98s-5.92,6.82-7.62,8.1,5.07,13.14,11.14,10.28,6.15-11.72,6.15-11.72Z" fill="#229d54"/><path d="M175.17,67.56s-8.27-8.09-12.62-2.82S147,93,146.91,109.2C146.92,109.2,176.69,72.79,175.17,67.56Z" fill="#866cb0"/><path d="M147.45,92.87l1.91.83a4.19,4.19,0,0,0,5.52-2.18L157,86.73a4.2,4.2,0,0,0-2.18-5.53l-1.91-.83a4.21,4.21,0,0,0-5.53,2.18l-2.08,4.8A4.19,4.19,0,0,0,147.45,92.87Z" fill="#0c2227"/><rect x="151.21" y="79.03" width="4.78" height="4.62" transform="translate(17.82 189.84) rotate(-66.53)" fill="#0c2227"/><rect x="154.18" y="76.18" width="0.45" height="6.29" transform="translate(20.15 189.37) rotate(-66.53)" fill="#0c2227"/><rect x="142.22" y="88.13" width="11.61" height="12.73" transform="translate(2.4 192.65) rotate(-66.53)" fill="#866cb0"/><polygon points="158.79 187.51 171.17 152.54 176.39 154.03 178.85 157.8 166.34 189.57 158.79 187.51" fill="#cc2127"/><path d="M200.35,75.9s7.55-3.2,8.28-11.47.87-9.6.87-9.6S200.93,48.59,198,51.2s-9.08,4.87-9.43,6.25-.73,7-.73,7-.43,4.29-3,6.25c0,0,4.35,5.37,4.5,7.7,0,0,4.28-5.45,5.95-5.08S198.88,76.69,200.35,75.9Z" fill="#f0c5bf"/><path d="M180.66,71.83S191.48,85.69,194,90.56a74.05,74.05,0,0,0-8.71,6.82L183,94.62s-13.79,16.56-13.79,18.59v3.05s-25,7.55-24.84,8.71-5.95-1.16-4.65-2.76,1.52-4.36,2.9-5.52a4.31,4.31,0,0,0,1.31-3.19s2.47.14,3.05-1.6,8.86-18.3,8.86-18.3S169.05,70.88,180.66,71.83Z" fill="#fec550"/><path d="M192.51,91.62l19.09,27.55s8.43-1.59,6.1,4.65c0,0-6.46-1.52-6.39,0s-1.52.37-1.31-1.59l-1.89-1.75L186.57,96.2Z" fill="#f0c5bf"/><path d="M173.12,132l6.53,14.37-4.5,10.61s-16.42-17.87-16.42-19.9a33.05,33.05,0,0,0-1.31-6.39Z" fill="#cc2127"/><path d="M169.59,157.8l-3.25,5.33,16.36,10.75a2.57,2.57,0,0,0,0-3.58c-1.65-2-6.83-5.62-6.87-6.3s.09-3.68.09-3.68Z" fill="#0a3a45"/><polygon points="155.02 133.65 163.82 175.71 167.6 175.13 158.59 132.34 155.02 133.65" fill="#229d54"/><polygon points="129.06 180.65 157.43 144.25 156.36 140.1 126.06 178.52 129.06 180.65" fill="#229d54"/><polygon points="218.11 140.1 219.59 143.79 160.14 143.79 159.46 140.1 218.11 140.1" fill="#229d54"/><polygon points="219.59 146 166.78 180.65 169.05 183.37 221.24 149.48 219.59 146" fill="#229d54"/><rect x="129.06" y="180.65" width="37.71" height="3.58" fill="#229d54"/><polygon points="235.18 178.24 216.49 125.29 213.49 127.11 231.79 179.79 235.18 178.24" fill="#229d54"/><path d="M226.1,154.82c11.94-3.78,24.24-.23,31,8-6.3-9.85-19.71-14.42-32.7-10.31-15.19,4.81-24,19.68-19.76,33.22.92,2.9,1.86,5.66,3.72,7.92C207.33,192,207,190,206.34,188,202.05,174.5,210.9,159.63,226.1,154.82Z" fill="#229d54"/><path d="M234.53,156.37a26.89,26.89,0,1,0,26.89,26.88A26.89,26.89,0,0,0,234.53,156.37Zm0,50.88a24,24,0,1,1,24-24A24,24,0,0,1,234.53,207.25Z" fill="#0a3a45"/><circle cx="234.53" cy="183.25" r="4.79" fill="#0a3a45"/><path d="M139.27,156.18c10.94,6.09,16.81,17.48,15.48,28.09,2.83-11.34-3.06-24.23-15-30.84-13.94-7.75-30.83-4-37.71,8.44-1.48,2.66-2.85,5.24-3.21,8.13.48-1.93,1.68-3.57,2.69-5.38C108.45,152.22,125.33,148.44,139.27,156.18Z" fill="#229d54"/><path d="M125.74,155.83a26.89,26.89,0,1,0,26.89,26.89A26.89,26.89,0,0,0,125.74,155.83Zm0,50.89a24,24,0,1,1,24-24A24,24,0,0,1,125.74,206.72Z" fill="#0a3a45"/><circle cx="125.74" cy="182.72" r="4.79" fill="#0a3a45"/><path d="M167.63,176.12a6.79,6.79,0,1,0,6.79,6.79A6.78,6.78,0,0,0,167.63,176.12Zm0,12.85a6.06,6.06,0,1,1,6.06-6.06A6.06,6.06,0,0,1,167.63,189Z" fill="#0a3a45"/><path d="M167.63,177.39a5.52,5.52,0,1,0,5.51,5.52A5.52,5.52,0,0,0,167.63,177.39Zm0,10.43a4.92,4.92,0,1,1,4.92-4.91A4.91,4.91,0,0,1,167.63,187.82Z" fill="#0a3a45"/><path d="M167.63,179.25a3.19,3.19,0,1,0,3.19,3.19A3.19,3.19,0,0,0,167.63,179.25Zm0,6a2.85,2.85,0,1,1,2.85-2.85A2.84,2.84,0,0,1,167.63,185.29Z" fill="#0a3a45"/><polygon points="177.11 173.88 166.34 167.49 166.78 164.29 178.17 170.9 177.11 173.88" fill="#0a3a45"/><polygon points="156.75 194.3 155.88 197.31 166.34 200.11 166.78 197.21 156.75 194.3" fill="#0a3a45"/><polygon points="172.56 171.18 167.21 182.44 169.05 183.37 173.69 171.85 172.56 171.18" fill="#0a3a45"/><polygon points="161.57 196.34 167.63 184.23 166.34 183.37 160.84 195.49 161.57 196.34" fill="#0a3a45"/><path d="M158.79,187.51l-2,6.8,18.13,5s1.1-1.94-1.74-3.59-7.24-2.54-6.81-6.18Z" fill="#0a3a45"/><ellipse cx="154.12" cy="133.62" rx="7.21" ry="1.56" fill="#0a3a45"/><path d="M152.64,97.61s13.7,7.52,30.36-3c0,0,.32,4.12-1.77,5.45s-12.44,5-29.68,2.28Z" fill="#805823"/><path d="M195.77,73.28,193,68.1l-.64,7.37S194.76,72.81,195.77,73.28Z" fill="#e0a19c"/><polygon points="191.08 92.72 189.95 99.99 186.58 96.2 191.08 92.72" fill="#e0a19c"/><circle cx="212.89" cy="124.52" r="1.13" fill="#010101"/><polygon points="179.49 87.9 182.99 94.63 180.77 95.93 179.49 87.9" fill="#dd7526"/><path d="M171.74,108.91s-4.89,6.62-6.8,7.37,4.26,0,4.26,0Z" fill="#dd7526"/><polygon points="147.09 112.76 154.39 102.77 151.54 102.36 147.09 112.76" fill="#dd7526"/><path d="M210,117.39l.7,3.52L214,119S210.75,119,210,117.39Z" fill="#e0a19c"/><path d="M194,133.26c0-.36,5.74-5.71,2.47-8.74s-27.3-8.25-27.3-8.25l-24.84,7.26s-2.1,9.22,1.16,9.73,34.71.72,34.71.72l-11.77,23.24,8.14,4.22Z" fill="#e4362f"/><path d="M194.33,213.51h70.83S214.35,204.67,194.33,213.51Z" fill="#f6ede1"/><path d="M209.14,47s4.86-.37,5.23-1.6-1.75,4.29-2.61,4.22.65,2,3.92,0c0,0-3.27,4.29-4.36,3.92s3.34,2,3.34,2h-3.34L212.41,58l-2.54-1.89S202,50.4,199.7,52.8s-5.37,6.25-5.37,6.25,1.15-2.26-1.6-2.33-2.33,2.54-2,3.63-.65,7.26-2.18,7.4-9.8-9.22,0-19.17C188.51,48.59,193.67,34.65,209.14,47Z" fill="#0e2227"/><path d="M208.75,61.59s-.15,4,.42,5.39-1.4.78-1.79.77S208.75,61.59,208.75,61.59Z" fill="#f0c5bf"/><path d="M207.07,61.6h0a1,1,0,0,1-.68-.36,1,1,0,0,1-.2-.44,10.66,10.66,0,0,1-1.7-.65l.2-.4s2.07,1,3.17.73a.32.32,0,0,1,.34.08.28.28,0,0,1,0,.33A1.61,1.61,0,0,1,207.07,61.6Zm-.41-.69,0,0a.55.55,0,0,0,.38.2.79.79,0,0,0,.38-.18A3.55,3.55,0,0,1,206.66,60.91Z" fill="#030404"/><path d="M205.71,70.86c-2.31,0-3.41-2.65-3.42-2.68l.41-.16c.05.12,1.22,3,3.75,2.3l.11.43A3.25,3.25,0,0,1,205.71,70.86Z" fill="#030404"/><path d="M208.38,68.36h-.16c-.41,0-1.74-.1-1.92-.82l.43-.11c0,.12.19.23.44.32a4,4,0,0,0,1.89.1c-.68-.88-.58-5-.53-6.27H209c-.1,2.69,0,5.74.42,6a.36.36,0,0,1,.2.41C209.5,68.3,208.85,68.36,208.38,68.36Z" fill="#030404"/><polygon points="201.68 69.42 201.32 69.15 203 66.86 203.36 67.13 201.68 69.42" fill="#030404"/><path d="M54.54,159.68c-.72.27-1,1.38-2,1.14-1,0-1.65-1-2.76-1-.5,0-.55-.76-.67-1.47a2.38,2.38,0,0,1-1.1,1.28c.07.79,1-.53,1,.55,0,.38.45.85,0,1.15s-.55-.41-.86-.61c-.16-.1-.28-.24-.44-.33s-.08-.76-.64-.48-.31.57-.19.95c.27.89-.06,1.34-1,1.32h0c-.28-.62,1.15-.42.56-1.06-.4-.42-1-1-1.67-.34a.38.38,0,0,1-.49.07c-1.31-.81-1.86,0-2.32,1.07-1.55.26-2-.48-2.48-1.94-.58-1.94-1.54-3.77-1.72-5.83,0-.54-.16-1.17.54-1.43s1.11.21,1.46.59c.87.95,1.65,2,2.47,3l.11.37.1-.07-.21-.3c-.35-3.22-1.06-6.41-.84-9.68a22.54,22.54,0,0,1,1.69-7.85,1.73,1.73,0,0,1,1.8-1.26,1.91,1.91,0,0,1,1.79,1.31,45.38,45.38,0,0,1,3.19,13.34c.15,1.56.17,3.13.27,4.87.57-.81,1-1.5,1.53-2.12s.95-1,1.66-.72a1.57,1.57,0,0,1,1,1.69c0,.42,0,.84,0,1.26l-.36.13.35.15c.36.85.66.06.78-.11.57-.74,1-1.68,2.21-1.19s1.48,1.55,1.53,2.73a6.54,6.54,0,0,1-.31,1.92,2.78,2.78,0,0,1-.59-1.06c-.32-.66-.65-1.11-1.28-.15s-1.35.12-2.05.1c-.11-.39-.23-.79-.38-1.29C53.6,159.13,53.65,159.55,54.54,159.68Zm-12,.82a1.77,1.77,0,0,0,.35-2,.47.47,0,0,0-.72-.07C41.63,159.13,42.19,159.75,42.52,160.5Zm3.84-1.39a4.6,4.6,0,0,0-.89-.67c-.39-.17-.43.18-.45.47,0,.51.16.8.72.76C46,159.66,46.3,159.62,46.36,159.11Zm1-.1s0-.07,0-.08-.07,0-.1,0a.68.68,0,0,1,0,.14A.29.29,0,0,0,47.33,159Z" fill="#86c49f"/><path d="M85.56,156.12c-.51.19-.68,1-1.4.8-.72,0-1.16-.73-2-.69-.35,0-.38-.53-.47-1a1.73,1.73,0,0,1-.78.9c.05.56.74-.37.69.38,0,.28.32.61,0,.82s-.39-.3-.6-.43-.21-.17-.32-.23,0-.54-.44-.34-.22.41-.14.67c.19.63,0,.95-.72.93l0,0c-.2-.43.82-.29.4-.74s-.68-.69-1.18-.25a.26.26,0,0,1-.35.05c-.92-.57-1.31,0-1.63.76-1.09.18-1.45-.34-1.75-1.37a21.69,21.69,0,0,1-1.22-4.12c0-.38-.11-.82.39-1s.79.15,1,.42c.62.67,1.17,1.41,1.75,2.11a2.58,2.58,0,0,0,.08.26l.07,0-.15-.22a40.07,40.07,0,0,1-.6-6.84,15.94,15.94,0,0,1,1.19-5.54,1.24,1.24,0,0,1,1.26-.9,1.37,1.37,0,0,1,1.27.93,32.17,32.17,0,0,1,2.25,9.42c.11,1.11.12,2.21.2,3.45.4-.57.7-1.06,1.08-1.5s.67-.73,1.17-.51a1.15,1.15,0,0,1,.7,1.2,8.77,8.77,0,0,0,0,.89l-.25.1.25.1c.26.6.46,0,.55-.08.4-.51.73-1.18,1.56-.83s1,1.09,1.08,1.93a4.11,4.11,0,0,1-.22,1.35c-.24-.19-.28-.49-.4-.74-.23-.47-.46-.79-.91-.11s-1,.11-1.45.09c-.08-.28-.17-.56-.26-.91C84.89,155.74,84.93,156,85.56,156.12Zm-8.49.59a1.25,1.25,0,0,0,.24-1.44.33.33,0,0,0-.51-.05C76.44,155.74,76.84,156.17,77.07,156.71Zm2.71-1a3.91,3.91,0,0,0-.62-.48c-.28-.12-.31.13-.33.33,0,.37.12.57.51.55C79.55,156.11,79.74,156.08,79.78,155.72Zm.69-.07s0-.05,0-.06l-.07,0s0,.08,0,.11Z" fill="#86c49f"/></svg>