<svg xmlns="http://www.w3.org/2000/svg" viewBox="0 0 320 240"><path d="M291.68 166.9c-1.12-9.76-5.2-17.65-12.2-23.5-4.5-3.76-9.45-5.07-15-3.74-3.9.94-7.66 2.43-11.48 3.7-4.47 1.5-8.94 2.85-13.7 2a16.78 16.78 0 0 1-9.51-5c-4.28-4.4-6.57-10.1-8.07-16.3S220 111.4 219.4 105a90.08 90.08 0 0 0-1.94-13.21A41.22 41.22 0 0 0 209.1 75a45.81 45.81 0 0 0-15-12 49.39 49.39 0 0 0-19.47-5 63.63 63.63 0 0 0-7.31-.09 84.57 84.57 0 0 0-9.28 1 115.13 115.13 0 0 0-23.11 6.51 125.12 125.12 0 0 0-27.71 15.35 136.37 136.37 0 0 0-24.42 22.84 146.23 146.23 0 0 0-13 18.12 159.15 159.15 0 0 0-11.47 23 165.24 165.24 0 0 0-5.63 16.41 175.38 175.38 0 0 0-4.7 21.35 178.74 178.74 0 0 0-2 21.18 167.17 167.17 0 0 0 .46 17.33c.07 1.08.4 1.47 1.37 1.46h223.4V222a8.22 8.22 0 0 0 3.34-2.05 30.63 30.63 0 0 0 4.72-6.18c3.9-6.5 6.62-13.65 9.14-20.92a58 58 0 0 0 3.26-25.96z" fill="#f3ebde"/><path d="M151.06 20.83s.1 4.57 1.27 6.13a4.34 4.34 0 0 1 .81 3.23l2-2.47z" fill="#0e2127"/><path d="M154.64 29.2s-1.4 6.6-2.66 7.93 1.62.58 1.62.58l4.5-3.35z" fill="#eec3bc"/><path d="M150.28 163s2.67-2.72 2.67-3.5-.4-3.5 1.23-3.9 5.07-1.74 4.6-1.94-.82-1.23-1.44-1.85-3.08-3.54-2.8-4.1a3.69 3.69 0 0 0-.49-2.87c-.5-.5-4.2-1.6-4.7-1.85s-3.44-2.1-3.7-3.28-5.54-4.7-5.54-4.7l-8-2.87 4.2-10.56c.92-2.4 5.3-12.58 5.54-14.58s-14.3-10.8-14.65-10.76-9.82 3.68-9.82 3.68l-1.77 3.9-2.15 23.07s-1.54 11.07 1.23 13.22 9.74 8.3 9.74 8.3l12.1 6.15c.87.3 3.7 1.74 5.33 1.13s3.75.7 4.4 1.43 1.95 1.6 2.16 2 1.84 3.87 1.84 3.87z" fill="#2e373a"/><path d="M148 191.28s1.33-3.08 3-3.8-3.54-3-3.5-3.6a32.56 32.56 0 0 0-.51-4.51c-.15-.46-2.77-5.64-2.25-6.87a42.88 42.88 0 0 0 1.64-4.72c.35-1.38-1.47-5.22-1.7-6s-1.16-6.67-1.16-6.67l-1.65-16.5v-8.3s0-23.27 0-23.27l-3.8-5.74-8-2.87-9 2.67-2.87.82s1.5 9 1.54 12.3 2.87 21.32 3.7 23.47a58.62 58.62 0 0 1 2.56 9.13l1 8.3s-1 7.08 1.23 12.1l5.33 12a25.48 25.48 0 0 1 .21 5.23c-.16.62 1 2.87 1 2.87s3.53-1.84 5-.2 1.8 2 2.87 2.15 2.46-.15 3.18.6a8.43 8.43 0 0 0 2.18 1.39z" fill="#4b5154"/><path d="M146.18 202.15a9.76 9.76 0 0 0 .72-1.85c.2-.87.5-3 .5-3v-7l-1.23-2.16s-3.64-2.6-4.92-2.76a57.64 57.64 0 0 0-6.5.41l-2.2-.44a7.08 7.08 0 0 0-.62 1.87c0 .57-.87 1.8-.82 2.26s-2.25 1.74-2.25 1.74l-4.82 3.5c-.36.1-4.05.46-4.3.5s-3.07.3-3.07.3-1.64.92-1.64 2v3.58s4.8 2.36 7.27 2.36 9-1.28 9.44-1.23 6.92 0 7.9 0l6.56-.1zm19.68-45.42a1.75 1.75 0 0 1 1.34 2c-.16 1.64-6.15 9-6.36 9.43s-3 4.92-3.28 5.33-3.28 7.08-3.28 7.08a22.37 22.37 0 0 0-3 0c-2 .2-2.78-2.36-2.78-2.36s-.2-3.54.6-4.3 1-5 1-5l.2-4.24s-1.07-2.2-.58-2.7a64.31 64.31 0 0 0 2.74-6.34s2.7-2.82 3.58-2.66 2.67.72 2.67.72l1-.73z" fill="#b86a29"/><g fill="#8c4a18"><path d="M156 163.87a25.24 25.24 0 0 0 4.35-5.67l.12-.22.08.24c.52 1.62-.1 3.3-.73 4.73a28.13 28.13 0 0 0-1.7 4.47 11 11 0 0 1-.34 1.17 1.45 1.45 0 0 1-.87.91 1 1 0 0 1-.67 0 .93.93 0 0 1-.45-.49 9.79 9.79 0 0 1-.4-1.15 7.85 7.85 0 0 1 0-4.77l.3.4.14.2a.61.61 0 0 1 .17.18zm0 0a1.13 1.13 0 0 0-.12-.21l-.15-.2-.3-.38a8.26 8.26 0 0 0 .12 4.7 10.63 10.63 0 0 0 .4 1.12.65.65 0 0 0 .85.38 1.22 1.22 0 0 0 .72-.78c.13-.36.2-.76.3-1.15a22.58 22.58 0 0 1 1.7-4.52c.64-1.42 1.25-3 .8-4.54h.2a22 22 0 0 1-4.5 5.57zm-2.14-1.5a2.2 2.2 0 0 1-2.27.26l.17-.27a1.8 1.8 0 0 0 1 .23 3 3 0 0 0 1.1-.22zm0 0a3.07 3.07 0 0 1-1.09.38 1.88 1.88 0 0 1-1.2-.13l.16-.27a2 2 0 0 0 2.13.02zm-2.62 3.64a.91.91 0 0 1 1.24-.11 3 3 0 0 1-.61.13 2.74 2.74 0 0 1-.63-.02zm1.06 3a.51.51 0 0 0-.55-.09.89.89 0 0 0 .57 1.24 10.58 10.58 0 0 0 1.69.24 1.77 1.77 0 0 1 .86.36 1.28 1.28 0 0 1 .47.81 3.21 3.21 0 0 1-.28 1.74 4 4 0 0 0 .06-1.69 1.3 1.3 0 0 0-1.16-.92 6.88 6.88 0 0 1-1.74-.29 1 1 0 0 1-.56-1.56.52.52 0 0 1 .64.16zm.18 4c-.28-.1-.48.18-.6.4l-.37.74-.7 1.5-1.27 3a13.16 13.16 0 0 1 1-3.18l.77-1.48.45-.7a1.27 1.27 0 0 1 .31-.3.35.35 0 0 1 .39.04zm1.2-15.08a5.55 5.55 0 0 0 4.26-2.94l.1-.17.14.12a3.44 3.44 0 0 0 2.76.79 3.17 3.17 0 0 1-3-.57h.22a4.83 4.83 0 0 1-4.47 2.77zm7.92-.16a6 6 0 0 1 .27 1.13 5.58 5.58 0 0 1 0 1.16 3.15 3.15 0 0 1-.36-1.11 3.35 3.35 0 0 1 .09-1.18zm3.46.4l-2.74 5.8-2.8 5.76a10.31 10.31 0 0 1-2 2.56 12.76 12.76 0 0 0-2.05 2.41c-1.13 1.8-1.9 3.87-3.44 5.4 1.44-1.6 2.12-3.68 3.26-5.5s3-3.07 3.94-5l2.9-5.7 2.94-5.7zm-32.58 29c.27.14.47.3.7.44l.7.46a1.28 1.28 0 0 1-.87-.19 1.26 1.26 0 0 1-.53-.71zM131 196.1a3.87 3.87 0 0 0 1.62-.15l1.57-.46a27.48 27.48 0 0 0 3-1.21 44.26 44.26 0 0 0 5.68-3.24l.33-.23-.17.37a10.43 10.43 0 0 1-3.79 3.9L134.6 198a13.7 13.7 0 0 1-2.49 1.14 5.24 5.24 0 0 1-2.72.18 1.29 1.29 0 0 1-1.06-.84 2.83 2.83 0 0 1 .25-1.35 9 9 0 0 1 1.42-2.32.71.71 0 0 0 .11.87 1.5 1.5 0 0 0 .9.41zm0 0a1.55 1.55 0 0 1-.83-.43.74.74 0 0 1-.13-.9 9 9 0 0 0-1.37 2.33 2.7 2.7 0 0 0-.23 1.3 1.17 1.17 0 0 0 1 .73c1.8.37 3.54-.5 5.07-1.38l4.56-2.95a10.28 10.28 0 0 0 3.78-3.74l.16.15a44.56 44.56 0 0 1-5.75 3.16 28.36 28.36 0 0 1-3.07 1.15l-1.58.43a3.76 3.76 0 0 1-1.61.15z"/><path d="M116.17 199.84a66.18 66.18 0 0 0 7.4 1.16 55 55 0 0 0 7.48.17 53.15 53.15 0 0 0 7.44-.76 63.23 63.23 0 0 0 7.29-1.72 45.59 45.59 0 0 1-7.25 1.93 49.12 49.12 0 0 1-15 .59 47.26 47.26 0 0 1-7.36-1.37zm21.53-10.24a4 4 0 0 0 1.66 1.53 16.8 16.8 0 0 1 1.91 1.34 13.49 13.49 0 0 1 3 3.53 23.93 23.93 0 0 0-3.24-3.28 19.32 19.32 0 0 0-1.85-1.38 3.53 3.53 0 0 1-1.48-1.74zm-20.9 6.76a4.59 4.59 0 0 0 2.75 1.22 7 7 0 0 0 3-.35 36.56 36.56 0 0 0 5.49-2.75 37.33 37.33 0 0 0 5.17-3.33c1.6-1.27 3.1-2.7 4.58-4.12a47.55 47.55 0 0 1-4.43 4.32 34.64 34.64 0 0 1-5.16 3.41 33.8 33.8 0 0 1-5.58 2.7 7 7 0 0 1-3.09.27 4.56 4.56 0 0 1-2.73-1.37zm11.84-4c.17.06.36-.07.53-.13l.52-.24.52-.25a1.52 1.52 0 0 1 .62-.18v.28a.83.83 0 0 1-.68-.31.81.81 0 0 1-.18-.74l.2-.1c-.06 0 .1 0 .15-.08l.24-.1.48-.26.75-.36.13-.05h.1s.17 0 .12.14v.06a.72.72 0 0 1-.78-.7.67.67 0 0 0 .75.52l-.07.06c0 .07.1.13.07.1l-.12.06-.7.42-.48.27-.24.13a.68.68 0 0 1-.36.11l.2-.1a.57.57 0 0 0 .53.68v.28a3.2 3.2 0 0 0-.47.13l-.54.2c-.18.07-.37.13-.55.18s-.55.12-.72.01z"/><path d="M127.1 194.5a1.77 1.77 0 0 1-1.14-.69l-.56-.7.77.48a.66.66 0 0 1 .31.62v-.12c.1.15.43.2.62.42zm0 0c-.27-.1-.53 0-.84-.2h-.06v-.1a.37.37 0 0 0-.19-.33l.2-.23a4.31 4.31 0 0 0 .88.85zm-2.02 2.5c0-.1-.2 0-.15.06a.63.63 0 0 0 .17.24l.4.5.75 1a18.71 18.71 0 0 1 1.32 2.19 19.13 19.13 0 0 1-1.58-2l-.7-1.07-.32-.55a.72.72 0 0 1-.13-.32c-.02-.15.25-.2.24-.05z"/></g><path d="M137.66 169.3c.82 1.44 2.37 2.13 3.53 3.3a5 5 0 0 1 1.25 2.12 21 21 0 0 0 .81 2.27 21.61 21.61 0 0 0 2.42 4.15l3 3.8a46.44 46.44 0 0 1-3.19-3.66 20 20 0 0 1-2.52-4.17c-.7-1.48-.77-3.2-1.94-4.34s-2.64-1.95-3.36-3.46zm15.7-19.5a2.6 2.6 0 0 0-1.26-.23h-1.3c-.87 0-1.74-.14-2.6-.26a23.19 23.19 0 0 1-5.05-1.39l5.1 1.07 2.57.33 1.3.12a2.52 2.52 0 0 1 1.25.36z" fill="#242b2d"/><path d="M126.9 101c-.1 0-.12-.15 0-.2a.23.23 0 0 1 .26 0 2.81 2.81 0 0 1 .39.38 4.2 4.2 0 0 1 .63.87 7 7 0 0 1 .57 2.06 5.31 5.31 0 0 0 1 1.8l1.25 1.74 2.2 3.66a36.74 36.74 0 0 1 1.76 3.89 58.28 58.28 0 0 0-4.22-7.37l-1.2-1.74a5 5 0 0 1-1-1.92 6.89 6.89 0 0 0-.47-2 3.89 3.89 0 0 0-.55-.89 3.34 3.34 0 0 0-.35-.4.22.22 0 0 0-.23-.05c-.12.06-.12.22-.02.17zm.38 4.17c.48.08.74.58.94 1l.56 1.27c.35.85.65 1.73.93 2.62a25.85 25.85 0 0 1 1 5.44l-1.33-5.35-.85-2.62-.48-1.3a1.53 1.53 0 0 0-.77-1.06zM133.3 116c.76 5.7 2.34 11.27 2.7 17a31.29 31.29 0 0 1 0 4.33c-.1 1.44-.32 2.86-.53 4.28a27.21 27.21 0 0 0-.36 8.53c.46 2.83 1.85 5.4 2.9 8.07a48.47 48.47 0 0 1 2.28 8.33c1 5.67 1.75 11.37 2.6 17.06l-1.4-8.5-1.42-8.5a47.46 47.46 0 0 0-2.32-8.27c-1.05-2.65-2.47-5.22-3-8.1a27.46 27.46 0 0 1 .4-8.63c.22-1.42.44-2.84.56-4.26a32.48 32.48 0 0 0 .06-4.3 68.49 68.49 0 0 0-1.14-8.53l-.72-4.25zm-1.8 1.5a24.66 24.66 0 0 0 .42 8.52l1.66 8.43a25.76 25.76 0 0 1 .29 4.3c0 1.43-.16 2.86-.3 4.3a33.26 33.26 0 0 0-.21 8.51c.4 2.82 1.64 5.44 2.46 8.2a81.94 81.94 0 0 1 2.16 8.32 84.13 84.13 0 0 1 1.26 8.5 81.92 81.92 0 0 1 .32 8.58 86.25 86.25 0 0 0-1.79-17 84.83 84.83 0 0 0-2.2-8.28c-.83-2.73-2.1-5.34-2.52-8.22a32.93 32.93 0 0 1 .26-8.59l.33-4.27a26.42 26.42 0 0 0-.26-4.26c-.4-2.83-1.1-5.6-1.6-8.43a24.82 24.82 0 0 1-.26-8.59z" fill="#7c7b7d"/><path d="M159.25 99.2a7 7 0 0 0 1.35-.52 6.9 6.9 0 0 0 1.2-.79 2.31 2.31 0 0 1-1.06 1.11 2.27 2.27 0 0 1-1.49.2zm-1.25 4.1l3.08-1.2a4 4 0 0 1-1.42.91 4.11 4.11 0 0 1-1.66.3z" fill="#cb8a96"/><path fill="#e3362e" d="M162.75 40.87l-1.78-5.75-1.83-.2-1.85-.5-6.2 5.37 6-1.07 5.67 2.13z"/><path d="M147.45 38.27l-6.5 6-4.17 7.5-7.8 15.3-5 16c.1.55-4.66 6.84-4.56 7.37s-.95 9.12-1 9.48a10.36 10.36 0 0 0 1.33 2.2 42.15 42.15 0 0 0 4.36-1.31c.23-.23 7.55-1.3 7.55-1.3s8.34 4 8.82 7.4 1.34 3 1.34 3l2.87-3.83a49.31 49.31 0 0 0 2.22-4.61l.5-4.8 1.58-7.26 2.12-2.56 3.1-9.27 4.6-6.64h1.85l.75-1.27 2.57-9.12.97-9.5-.74-2.85-.9-5.35s-1.26-4.35-2.62-4.6-5.1-.52-5.1-.52l-7.2-1.23s-.82-.26-.98 1.73z" fill="#fcc252"/><path d="M161.3 45.87l-4 1.66-3.85 4.34-5 7.33-.83 4-.3 2.86-1.2 11.83-5.5 11.4-2.2-3.42 4.85-7.33.8-12.9 1.57-4.78s5.74-10.23 5.74-10.23 3.72-5.2 6.26-6.9 3.87-1.56 5.66-.86 2.85 5.9 2.9 7.92-.67 11.58-.67 11.58l.8 3.38 1.23 1-.9 8.63s2 6.53 2.5 9-2.14 10.4-3.1 12.25-2.13 8.8-4.44 10.16-4.07 2.57-4.07 2.57-4 .52-4 .83a19.3 19.3 0 0 1-1.52 2.73l-4.5-.46-5.82-2.55L145 98.1l5.58-16.23 10.54-15.4 3.4-11.1-.05-6.18z" fill="#434044"/><path d="M156.78 21.2a6.54 6.54 0 0 1 1.07 4.09v.17h-.16a1.72 1.72 0 0 1-1.25-2 1.77 1.77 0 0 0 1.31 1.75l-.18.14a10.28 10.28 0 0 0-.79-4.15zm.55 7.93a3.25 3.25 0 0 1 1.09 1.06 3.34 3.34 0 0 1 .52 1.43l-.8-1.26-.82-1.23zm11.83 1.6a2.64 2.64 0 0 0 .87.92.7.7 0 0 1-.87-.92zm-.3 2.34a5.61 5.61 0 0 1-1-.68l.25-.12a6.37 6.37 0 0 1 0 1.8 6.74 6.74 0 0 1-.33-1.78v-.37l.27.25a5.62 5.62 0 0 1 .81.9zM168 22.9a2.93 2.93 0 0 1 3.62 1.5 4.65 4.65 0 0 0-3.62-1.5zm2.43 1.1a10.77 10.77 0 0 0-.85 1.13 13.15 13.15 0 0 0-.7 1.23 2.61 2.61 0 0 1 1.55-2.36z" fill="#cb8a96"/><path d="M141.82 44.8a20 20 0 0 1 6.68-3.35c-.85.23-2.08-.35-2.72.26-1.4 1.3-2.93 1.45-3.96 3.1z" fill="#eaa22f"/><path d="M145.83 79.1a4.72 4.72 0 0 1 1.55 2 9.61 9.61 0 0 1 .5 2.72" fill="none" stroke="#82509f" stroke-miterlimit="10" stroke-width=".64"/><path d="M149.9 41.85a3.4 3.4 0 0 1 2.22-.57l2.33.06a20.66 20.66 0 0 1 4.55.86l-4.58-.54-2.3-.13a3.82 3.82 0 0 0-2.22.32zm-6.62 13.05a1.15 1.15 0 0 0-.9.28l-.75.62-1.53 1.2-3 2.55a35.81 35.81 0 0 0-2.78 2.73 28.85 28.85 0 0 0-2.44 3.05 20.35 20.35 0 0 1 2.25-3.21 33.15 33.15 0 0 1 2.75-2.81l3-2.5 1.57-1.18.8-.56a1.18 1.18 0 0 1 1.01-.17zm8.42 5.34c-.14.1-.3-.15-.2-.27a1 1 0 0 1 .35-.26l.73-.44 1.5-.82 3.1-1.44a38 38 0 0 1 6.51-2l-6.4 2.3-3.1 1.36-1.54.74-.76.37a1.15 1.15 0 0 0-.35.22c-.1.07 0 .3.15.23zm-3.3.6l-.1-.06 3.73.3a5.29 5.29 0 0 1 1.86.42 7 7 0 0 1 1.59 1 22.1 22.1 0 0 1 2.53 2.77l2.34 2.92-2.53-2.76a25.94 25.94 0 0 0-2.59-2.65 7 7 0 0 0-1.51-1 5.68 5.68 0 0 0-1.76-.43l-3.7-.55zM139 87.56l-5.6 3.6-5.4 3.9a42.61 42.61 0 0 1 5.21-4.16 43.78 43.78 0 0 1 5.78-3.34zm-15-3.48l-.82 2.4-.88 2.37a12.87 12.87 0 0 0-.34 5 15.24 15.24 0 0 1-.32-2.52 7.34 7.34 0 0 1 .36-2.54 21.12 21.12 0 0 1 1-2.36c.38-.78.6-1.58 1-2.34zm3.52-6.98a6.91 6.91 0 0 1 1.22-2.89l1.82-2.56a41.13 41.13 0 0 1 4.17-4.65l-3.92 4.88-1.87 2.5a8.19 8.19 0 0 0-1.42 2.72zm-1.45 7.58A8.94 8.94 0 0 1 127.6 81a22.58 22.58 0 0 1 2.59-3l2.9-2.7 3-2.6-2.8 2.8-2.85 2.74a25 25 0 0 0-2.62 2.92 10.15 10.15 0 0 0-1.76 3.53z" fill="#eaa22f"/><g fill="#7c7b7d"><path d="M166.4 68.1l.22-2h.1a24.91 24.91 0 0 1-1.84 6.19 29.17 29.17 0 0 1-3.28 5.58c-2.55 3.46-5.45 6.72-7 10.76a22.55 22.55 0 0 1 3-5.72c1.22-1.78 2.56-3.47 3.8-5.22a33 33 0 0 0 3.31-5.49 28.93 28.93 0 0 0 2-6.12h.1zm-.4 9.37c-.1 1.4-.3 2.76-.52 4.13l-.83 4.08c.1-1.4.3-2.76.5-4.13s.45-2.73.84-4.08zm-4.14 9.8a12.18 12.18 0 0 1-2.48 4.85 23.62 23.62 0 0 1-4 3.75l-2.22 1.6a5.85 5.85 0 0 0-1.83 1.91 3.75 3.75 0 0 0-.37 1.27 2.05 2.05 0 0 1-.66 1.23 4.55 4.55 0 0 1-2.62.73 4.45 4.45 0 0 0 2.51-.85c.73-.6.46-1.64.92-2.5a5.65 5.65 0 0 1 1.88-2l2.2-1.6a25.2 25.2 0 0 0 4-3.66 13.27 13.27 0 0 0 2.67-4.72z"/><path d="M149.88 89.9a.41.41 0 0 0-.5 0 12.65 12.65 0 0 0 9.42 2.56 12.26 12.26 0 0 0 4.68-1.65 34.56 34.56 0 0 0 4.1-3 26.36 26.36 0 0 1-4 3.16 12 12 0 0 1-4.77 1.75 12.41 12.41 0 0 1-5.07-.39 11.41 11.41 0 0 1-4.41-2.45.42.42 0 0 1 .55.02z"/></g><path d="M170.6 65.45a1.45 1.45 0 0 1 .94.72 1.34 1.34 0 0 1-.08.9L170.25 71a1.85 1.85 0 0 1-.75 1.16 1.65 1.65 0 0 1-.82.12h-2.33l.32-2.15c.73.06 1.65 0 1.94-.66a1.91 1.91 0 0 0 0-1 3.42 3.42 0 0 0-.83-2c-.52-.54-1.7-.4-1.55-1.4.27-1.86 3.58.08 4.38.4z" fill="#b86a29"/><path d="M166.58 90.05l-3.86 4.9-3.72 5-3.56 5.1-3.43 5.2q1.53-2.7 3.22-5.33l3.5-5.15 3.8-5 4.05-4.7zm-3.13-12.73c-.5 1.17-1.1 2.28-1.68 3.4s-1.23 2.2-2 3.24c.48-1.16 1.08-2.28 1.67-3.4s1.3-2.2 2-3.25z" fill="#7c7b7d"/><path d="M145.2 55.32c.36.52.1 1.24-.14 1.84s-.38 1.4.13 1.78a1.49 1.49 0 0 1-2.19-.68 3.73 3.73 0 0 1 .15-1.92 6.11 6.11 0 0 0 0-2.52 3 3 0 0 0-1.4 0c.65-.15 1.05-.9 1.92-.92.36-1.65.73-6.5 3.83-5 2.2 1.02-1.5 5.86-2.3 7.42z" fill="#e3362e"/><path d="M141.63 41.47a19.13 19.13 0 0 0-2.5 4.81l6.9-5c1.17-.86 2-2.92-.14-2.92-1.47.01-3.45 2.06-4.25 3.1z" fill="#434044"/><path d="M156.5 25.62s-.6 2.07-1.4 2.4l-1.24-.3s-1.28-3.9-1.95-4.06-1.45 1.4-1.93 1.34.7-10.6 1.83-11.26 13.7-.15 13.7-.15l12.9 1.4s1.5 5.32-.14 7.67a7.16 7.16 0 0 1-3.12 2.83l1.54-2.58s-2.88 2-3.6 1.87l2.83-2.48-3.77-.28 1.92-2.9s-4.55 2.48-7.17 2.42l.23-.95-1.76.58-1-.26-3-.15.4 3.16-2.48-4.24s-4-1.08-3.92 1.95 1.1 4 1.1 4z" fill="#0e2127"/><path d="M149.2 63.4l3.27.34 4.83 5.13-7.3 19.38L136.6 105a15.59 15.59 0 0 1-1.13 2 41.16 41.16 0 0 0-1.86 4l-4.6-8.4 8.06-9.28 8.57-14.27z" fill="#eec3bc"/><path d="M164.58 108.18a7.49 7.49 0 0 1 0 3.33c-.4 1.2-1.46 2.08-2 3.24-1.38 3 1.17 7.32-1.23 9.63-.62.6-1.54 1-1.66 1.87s.5 1.38.8 2.06a2.86 2.86 0 0 1-3.37 3.93 26.73 26.73 0 0 1 2.82-9.65 6.85 6.85 0 0 0 .95-2.57 11.87 11.87 0 0 0-.12-1.68c-.3-3.65 2.46-7 2.12-10.7-.1-1.1-.5-2.15-.57-3.24-.06-.77.8-5.5 2.33-4.16.47.38-.23 6.88-.08 7.94z" fill="#434044"/><ellipse cx="223.49" cy="198.24" rx="48.39" ry="4.03" fill="#e0d3bf"/><path d="M202.64 140.18l-3.7 1.7c-1.08.54-4.23 2.38-6.6 1.84s6 2.77 6 2.77l5.08-1.7s2.14-2.3-.78-4.6z" fill="#f29643"/><path d="M149.15 112.53c2.12 4.15 10.4 19.47 14.28 22.05a8.05 8.05 0 0 1 2.34 1.86 10.56 10.56 0 0 1 1 2.68c1.6 4.42 7 6.5 8.78 10.86a5.28 5.28 0 0 1 2.3-2.16c-4.45-4.37-8.9-8.76-13-13.47s-13.1-20.8-16.46-25.8c-.54 1.35.13 2.77.76 4z" fill="#434044"/><path d="M178.34 164.86l-2.3-3.7s-2-6.7-.3-6.46 5.84.16 5.84.16l7.7-.3s-4 3.6-8.76 3.07-2.62 1.85-2.62 1.85 1.12.3.46 5.38z" fill="#f29643"/><path d="M237.1 170.93s3.92 10.4 6.3 12.08c0 0-2.23 6.38-4.77 7.53 0 0-7.22.54-5.7 3.08s7.7-.16 7.7-.16l7.54-2.6L252 183l-7.38-16.76z" fill="#f39643"/><path d="M200.18 169.32l-1.7 8.6c-.08 1.53-8.77 12-11.38 13.07s-10.23 2.93-8.15 4.92 6.3 2.3 9.23.16 2.6-.77 2.6-.77 10.76-11.6 14.45-12.15c0 0 5.23-6.84 5.4-7.38s-10.46-6.46-10.46-6.46z" fill="#f29643"/><path d="M194.18 195.13c-.85.6-1.33 3.4-.6 4.18.86.93 3.84-.24 5.07 0s5.08 1.22 5.85 0a37.86 37.86 0 0 0 2-4.67s12.77-8.12 12.77-9.1.92-8.84.92-8.84v-4.42s23-9.93 24.9-12.78c0 0-6.23 10.68 4.92 24.3l-2.92 6s-5.6.2-8.15 2 .46 3.36.46 3.36l10.6-1s6.23-10.53 7.7-11.07-1.84-2.24-2.46-3.3-2.92-5.9-.92-7.25 7.7-4.13 7.84-14.82-8.84-13.45-10.92-12.76-19 7.3-24.6 8.23-17 1.54-18.3.7a33.17 33.17 0 0 1-3.23-2.6s4.7-2.1 3.38-9.24c0 0-8.76 4.77-10.15 4.15s-6.68-3.46-8.15-3.07-4 4.53-5.07 4.15-2.54.6-6 0-3.53 2.3-3.53 2.3.38 5.45 4.15 6.3 8.6-1.23 8.6-1.23a8.17 8.17 0 0 1-9.07 2.61c-6-1.76-2.85 3.66.77 3.87s13.68-3.7 13.68-3.7 7.38 9.76 14.46 11.3c0 0-.4 9.08 4.15 14.05l-12.46 12.18s-4.54-.62-5.7.2z" fill="#fab780"/><path d="M245.54 129.34s7.46 5.92 9.54 8c0 0 2.7 7.07.6 8.92l4.46 5.22s5.38-6.76 1.08-14.6c0 0-15.6-8.54-15.7-7.54z" fill="#f49542"/><path d="M220.17 176.7l14.3-5.06c2.7-.84 12.92-6.3 12.92-6.3l.15-7.22-11.84 4.9-17.7 8.47zm-30.9-18.14l4.46-1.23 15.7 11.38-.62 5.7-8.6-5.08s-9.07-7.76-10.92-10.76z" fill="#f7c8a4"/><path d="M245.54 129.34s-2.35-2.87 4.3 0 11.7 5.82 12 8.82-5.87-2.67-5.87-2.67-3.7-3.07-5.38-3.38-5.06-2.77-5.06-2.77zm10.92 14.3s3.23-.77 3.08-2.15-4.54-5.7-5.54-5.84 1.54 1.35 2.46 8z" fill="#fab780"/><path d="M192.18 150.1s-3.53.38-5.07-1.7c0 0 .6-1.92 1.54-1.85s3.35 1.93 3.53 3.54z" fill="#f9edde"/><g fill="#855d25"><path d="M203.4 150.1l-2-1.23 1.7-.46-1.54-1.23s2.3-1.23 4.62-2.15 1.53-1.85 1.53-1.85-.53 4.23-1.7 4.92a21.59 21.59 0 0 0-2.61 2z"/><ellipse cx="177.11" cy="147.87" rx="2" ry="1.15"/></g><ellipse cx="189.19" cy="148.1" rx="1.15" ry="1.38" fill="#434044"/><path d="M224 153.77a1.68 1.68 0 0 0 1.22.57 4.2 4.2 0 0 0 1.36-.17l2.68-.8a31.45 31.45 0 0 1 5.53-.92 68.64 68.64 0 0 1 11.2.25c-1.87 0-3.73-.1-5.6-.1l-5.58.18a34 34 0 0 0-5.5.84l-2.7.73a4.45 4.45 0 0 1-1.41.09 1.72 1.72 0 0 1-1.21-.65zm20.27-5.2l-.1-.48v-.1c1.9.7 3.94.52 6 .6a10.31 10.31 0 0 1 3 .54 4.76 4.76 0 0 1 2.42 1.78 5.32 5.32 0 0 0-2.5-1.56 11.63 11.63 0 0 0-2.94-.45c-1 0-2 0-3-.12a8.49 8.49 0 0 1-2.94-.74zm-34.72 6.58a3.35 3.35 0 0 1 2-.18 6.08 6.08 0 0 1 1.88.73c1.15.7 2.12 1.58 3.23 2.3a26.19 26.19 0 0 1-3.4-2 5.09 5.09 0 0 0-3.71-.84zm-18.67-9.55a2.25 2.25 0 0 1 1.72-.35 6.57 6.57 0 0 1 1.64.67 30.41 30.41 0 0 1 3 1.74c-1.1-.42-2.13-.94-3.18-1.46a8 8 0 0 0-1.55-.71 2.57 2.57 0 0 0-1.63.11zm49.28 4.65a5 5 0 0 1 1.73-.05 5.14 5.14 0 0 1 1.66.5c-.6 0-1.14-.13-1.7-.18a13.03 13.03 0 0 1-1.7-.27zm-30.3 8.15a1.83 1.83 0 0 1 2.32 1.21 3.87 3.87 0 0 0-2.32-1.21zm5.07 23.6a7.62 7.62 0 0 0 1.61-.54 8.25 8.25 0 0 0 1.44-.91 3 3 0 0 1-1.3 1.2 2.87 2.87 0 0 1-1.75.25zm35.66-17.6a4.75 4.75 0 0 0 .95 1.08 5 5 0 0 0 1.21.76 2.07 2.07 0 0 1-1.42-.51 2.1 2.1 0 0 1-.74-1.33z" fill="#e29f71"/><path d="M182.33 157.94a8.09 8.09 0 0 1 .49 2.93l.2 4.7a3.84 3.84 0 0 1 3.09-2.15 7.31 7.31 0 0 1-1.26-3.67 8.94 8.94 0 0 0-.35-3.15 1 1 0 0 0-.5-.55 1.15 1.15 0 0 0-.61 0 5.18 5.18 0 0 0-1.9.5 12.9 12.9 0 0 1 .83 1.4z" fill="#434044"/><path d="M208.22 218.46c-.52.2-.7 1-1.43.83-.73 0-1.2-.75-2-.7-.36 0-.4-.55-.5-1.07a1.75 1.75 0 0 1-.8.93c.06.57.77-.38.72.4 0 .28.32.62 0 .84s-.4-.3-.62-.44-.2-.17-.32-.24-.06-.55-.46-.35-.22.42-.14.7c.2.64-.05 1-.73.95-.2-.44.83-.3.4-.76s-.7-.7-1.2-.25a.25.25 0 0 1-.35 0c-.94-.58-1.34 0-1.67.77-1.12.2-1.48-.34-1.8-1.4a21.3 21.3 0 0 1-1.24-4.22c0-.38-.1-.84.4-1a1 1 0 0 1 1.06.43c.63.68 1.2 1.43 1.78 2.16l.08.26.08-.05-.15-.22a39.92 39.92 0 0 1-.61-7 16.44 16.44 0 0 1 1.21-5.66 1.26 1.26 0 0 1 1.3-.91 1.37 1.37 0 0 1 1.29.94 32.65 32.65 0 0 1 2.3 9.63l.2 3.52 1.1-1.53c.38-.45.7-.74 1.2-.52a1.14 1.14 0 0 1 .7 1.22v.9l-.26.1.26.1c.26.62.47 0 .56-.07.4-.53.74-1.2 1.6-.86a1.94 1.94 0 0 1 1.11 2 4.58 4.58 0 0 1-.22 1.38c-.26-.2-.3-.5-.43-.77-.23-.47-.47-.8-.92-.1s-1 .1-1.48.07l-.27-.93c-.43.54-.4.84.25.93zm-8.67.6a1.28 1.28 0 0 0 .25-1.47.35.35 0 0 0-.53-.05c-.37.53.04.97.28 1.52zm2.77-1a3.78 3.78 0 0 0-.65-.48c-.28-.13-.3.13-.32.34 0 .37.12.58.52.55.2-.02.4-.05.45-.42zm.7-.07v-.06h-.07v.1z" fill="#84c29d"/><rect x="27.98" y="183.97" width="82.38" height="17.44" rx="2.48" fill="#f0c27f"/><g fill="#eec3bc"><path d="M153.26 19.57s-.44 11.7 4.43 16.65a13.85 13.85 0 0 0 14.06-5c6.16-7.35 2-14.33-.82-15.47s-16.2-6.4-17.67 3.82z"/><ellipse cx="153.49" cy="23.02" rx="1.04" ry="2.31"/></g><path d="M172 17s1.67 4.34 1.38 5a22.41 22.41 0 0 1 .72-2.84l-.1 3.63 2-.46-1.06-4.28S172.9 16.1 172 17z" fill="#0e2127"/><path d="M158.77 22.07c.6 0 1.16.1 1.75.18a4.27 4.27 0 0 1 1.67.64 6.89 6.89 0 0 1 2.08 2.83 10.77 10.77 0 0 0-2.27-2.56 4.12 4.12 0 0 0-1.53-.66l-1.7-.43zM173 27.7c-.44-.2-.86-.46-1.3-.7a3.56 3.56 0 0 0-1.31-.47 9.6 9.6 0 0 0-2.85.24 5.41 5.41 0 0 1 2.9-.55 3.42 3.42 0 0 1 1.39.57 11.96 11.96 0 0 1 1.16.91z" fill="#5b2824"/><path d="M155.33 31.65c.1 0 0-.18 0-.1a2.36 2.36 0 0 1 .36.77l.22.8a2.31 2.31 0 0 0 .75 1.45A1.36 1.36 0 0 1 156 34a4.53 4.53 0 0 1-.3-.8 6.7 6.7 0 0 0-.47-1.6s.05-.05.08 0a.21.21 0 0 1 0 .06s.08.01.02-.01z" fill="#b79c9c"/><path d="M167.55 28.4a7.52 7.52 0 0 0 3 1h.22l-.1.18a.68.68 0 0 1-1 .28l-.6-.36.66.18a7.46 7.46 0 0 1 .88.28c-.3 0-.62 0-.92-.1l.07-.18a.47.47 0 0 0 .58-.23l.13.2a4.4 4.4 0 0 1-2.94-1.26zM158.7 24a8.57 8.57 0 0 0 1.52 1.49 7.39 7.39 0 0 0 1.86 1l-.06.25-.75-.2.07-.15a3.45 3.45 0 0 0 .6.54 2.61 2.61 0 0 1-.72-.42l-.23-.18h.3l.77.1-.06.25a5.31 5.31 0 0 1-2-1 4.7 4.7 0 0 1-1.31-1.7zm7.86 4.46a7.8 7.8 0 0 0-1.26 3.9v.2h-.17a5.66 5.66 0 0 1-1.47-.54 1.87 1.87 0 0 1-1-1.18 2 2 0 0 0 1.07 1 7.14 7.14 0 0 0 1.43.43l-.18.15a5.76 5.76 0 0 1 1.58-3.95z" fill="#5b2824"/><path d="M160.25 32.48c-.08 0-.13-.1-.07-.17a.25.25 0 0 1 .24 0c1.2.3 2 1.78 3.25 1.73a.55.55 0 0 1 .22 0 .29.29 0 0 1 .07.44.67.67 0 0 1-.47.21c-1.43.2-2.7-1-3.3-2.3" fill="#491d18"/><path d="M155.24 22.48l-2.73-5.17c-.17-.32 2.9-2.74 3.36-2.74.13 2.52-.87 5.22-.63 7.9z" fill="#0e2127"/><path d="M160.36 26c0 .3.28.54.54.7a1.11 1.11 0 0 0 .48.22.42.42 0 0 0 .45-.21 2.43 2.43 0 0 1-1.56-.75" fill="none" stroke="#5b2824" stroke-miterlimit="10" stroke-width=".32"/><path d="M168.9 29.4a2.17 2.17 0 0 0 1.24.7H170a.94.94 0 0 0 .25-.52l.13.16a10.47 10.47 0 0 1-1.65-.5 10.28 10.28 0 0 1 1.69.2h.14v.13a1 1 0 0 1-.35.71h-.13a1.63 1.63 0 0 1-1.19-.88zm-15.44-7.16c-.13-.1-.27-.25-.36-.3s0 .17.05.32c0 .32.07.65.1 1a3 3 0 0 0 .19.9c.1.26.33.55.66.5-.3.22-.72-.1-.88-.38a2.64 2.64 0 0 1-.29-1v-1.24a.34.34 0 0 1 0-.17.16.16 0 0 1 .22-.07 1.87 1.87 0 0 1 .3.44z" fill="#5b2824"/><g fill="#fff"><rect x="33.86" y="189.92" width="38.85" height="5.55" rx="2.77"/><rect x="85.76" y="189.8" width="19.89" height="5.78" rx="2.89"/></g><rect x="102.59" y="202.62" width="82.38" height="17.44" rx="2.48" fill="#f0c27f"/><g fill="#fff"><rect x="108.47" y="208.57" width="38.85" height="5.55" rx="2.77"/><rect x="160.36" y="208.45" width="19.89" height="5.78" rx="2.89"/></g><rect x="175.91" y="221.56" width="82.38" height="17.44" rx="2.48" fill="#f0c27f"/><g fill="#fff"><rect x="182.43" y="227.51" width="38.85" height="5.55" rx="2.77"/><circle cx="240.74" cy="214.11" r="14.35"/></g><path d="M240.74 221.9h-7.3a1.38 1.38 0 0 1-1.29-.73 1.4 1.4 0 0 1 0-1.46l6.36-11 1-1.68a1.41 1.41 0 0 1 2.47 0l4.35 7.52q1.5 2.58 3 5.16a1.43 1.43 0 0 1-1.26 2.19zm0-1.16H248c.3 0 .44-.22.28-.48l-4-6.94-3.28-5.65c-.16-.27-.37-.27-.52 0l-3.53 6.1-2.4 4.2-1.36 2.36a.24.24 0 0 0 0 .31.3.3 0 0 0 .29.12z"/><path d="M240.74 220.75h-7.28a.3.3 0 0 1-.29-.12.24.24 0 0 1 0-.31l3.77-6.54 3.53-6.1c.15-.26.36-.26.52 0l3.26 5.65 4 6.94c.16.26 0 .48-.28.48zm.2-3.56v-.08l.66-5.26a1.42 1.42 0 0 0 0-.71.9.9 0 0 0-1.41-.48 1 1 0 0 0-.38 1l.57 4.7c0 .3.07.6.1.88zm-.22.85a.85.85 0 0 0-.93.88.92.92 0 1 0 .93-.88z" fill="#fcc252"/><path d="M241 217.2h-.45c0-.3-.08-.6-.1-.88l-.57-4.7a1 1 0 0 1 .38-1 .9.9 0 0 1 1.41.48 1.42 1.42 0 0 1 0 .71l-.66 5.26v.12zm-.27.8a.9.9 0 1 1-.93.88.86.86 0 0 1 .93-.88z"/><path d="M151.2 13.75c-.58-.38-.28-1.45-.15-2.18.6-3.23 3.27-5.84 6-7.54a12.59 12.59 0 0 1 9.89-1.77 15.89 15.89 0 0 1 6.71 3.91 21 21 0 0 1 3.71 4.68 11.67 11.67 0 0 1 1.34 2.75c.18.7 0 2.9.07 3.62-3-.2-5.8-1.83-8.78-2-4.9-.35-9.47.47-14.37.1-1.16-.08-3.4.37-4.5 0-.12-.06.15-1.54.1-1.58z" fill="#29aecc"/><path d="M160.13 4.16A11.3 11.3 0 0 0 158 7.75c-.53 1.3-.87 2.67-1.32 4a19.28 19.28 0 0 1 1-4.14 8.06 8.06 0 0 1 2.45-3.45zm8.3 1.22a4.16 4.16 0 0 0 1.45.66 5.26 5.26 0 0 1 1.45.8 5 5 0 0 1 1.77 2.73 7.16 7.16 0 0 0-2-2.48 6.09 6.09 0 0 0-1.34-.82 3.17 3.17 0 0 1-1.33-.89z" fill="#434b9a"/><ellipse cx="164.4" cy="1.39" rx="1.62" ry="1.39" transform="matrix(.998081 -.06192 .06192 .998081 .23 10.19)" fill="#0f84a8"/><path d="M170 15.18c-4.9-.35-7.94-2.46-14.37.1a8.62 8.62 0 0 1-4.51 0" fill="#29aecc"/><path d="M157.52 14.65s14.4-.78 21.22 2.57a30.92 30.92 0 0 1 2.45 4.38c.17.87-9.37-4.86-16.54-3.24s-7.13-3.7-7.13-3.7z" fill="#434b9a"/><ellipse cx="167.48" cy="12.05" rx="1.05" ry="2.89" transform="matrix(.049198 -.998789 .998789 .049198 147.22 178.74)" fill="#2399ad"/></svg>