<svg xmlns="http://www.w3.org/2000/svg" viewBox="0 0 512 360"><path d="M286.47,30.23s-8.12,7.9-9.06,16,1.46,21.41,1.46,21.41l2.42,11.1,5,13.49,29,7.24,7.33-22.67,3.54-12.17L328,43.38l-3.33-5.61Z" fill="#d8b28d"/><path d="M278.88,67.5s6.05,13.31,11.65,16.35-4.25,8.23-4.25,8.23S279.32,76.12,278.88,67.5Z" fill="#c69c79"/><path d="M299.05,48.88s-11.84-.93-14.86,8.44-3.19-2-3.19-2-8.48-16.17,6-18.27S299.05,48.88,299.05,48.88Z" fill="#c69c79"/><path d="M247.29,317.69s132.78,18.48,205.92-73.63C549,123.57,418.83-30.85,335.73,76.59c-79,102.38-227.28,11.82-247.85,130C63.47,346,247.29,317.69,247.29,317.69Z" fill="#f1edf7"/><path d="M45,177l73-19.65c8.15-2.23,10.09-3.18,7.94-10.73l-9.83-31.45c-1.23-5.13-3.71-9-8.79-8.88L33.5,110.78c-6.95,0-9.6,3-8.83,7.85L34,165.25C35.32,172.28,36.58,179.07,45,177Z" fill="#4d1e9a"/><path d="M42.1,177.85a6.63,6.63,0,0,1-3.65-1c-3.13-2-4-6.55-4.94-11.38l0-.14-9.3-46.61a6.85,6.85,0,0,1,1.27-5.81c1.52-1.77,4.24-2.65,8-2.63l73.76-4.52c4.64-.16,7.78,3,9.3,9.25l9.81,31.41c1,3.6,1.1,5.68.25,7.18-1.16,2.07-4,2.93-8.52,4.17l-73,19.66A12.28,12.28,0,0,1,42.1,177.85Zm-8.74-66.58c-3.46,0-5.86.77-7.16,2.29a5.9,5.9,0,0,0-1,5l9.32,46.74c.89,4.62,1.73,9,4.5,10.74,1.46.93,3.37,1.08,5.85.46l73-19.65c4.29-1.18,7-2,7.92-3.71.7-1.25.61-3.11-.33-6.42l-9.83-31.43c-1.41-5.9-4.15-8.67-8.3-8.54l-73.78,4.53Z" fill="#4d1e9a"/><path d="M55.74,179.83l73-19.65c8.14-2.23,10.08-3.18,7.93-10.73L126.87,118c-1.23-5.14-3.71-9-8.79-8.88l-73.79,4.53c-6.95-.05-9.6,3-8.83,7.85l9.3,46.62C46,175.14,47.37,181.94,55.74,179.83Z" fill="#dfdae8"/><path d="M52.89,180.72a6.73,6.73,0,0,1-3.73-1c-3.23-2.09-4.11-7.08-4.88-11.49L35,121.6a6.85,6.85,0,0,1,1.27-5.81c1.52-1.77,4.21-2.64,8-2.63l73.76-4.53c4.64-.16,7.79,3,9.3,9.26l9.82,31.41c1,3.6,1.09,5.68.25,7.18-1.17,2.06-4,2.93-8.52,4.17l-73,19.66A12.35,12.35,0,0,1,52.89,180.72Zm-8.74-66.58c-3.46,0-5.86.77-7.16,2.29a5.9,5.9,0,0,0-1,5L45.24,168c.74,4.22,1.59,9,4.45,10.85,1.48,1,3.42,1.12,5.93.49l73-19.65c4.29-1.18,7-2,7.92-3.71.71-1.25.61-3.11-.33-6.42l-9.83-31.43c-1.41-5.9-4.16-8.68-8.3-8.54l-73.78,4.53Z" fill="#dfdae8"/><path d="M99.31,233.79a7.11,7.11,0,0,1-3.67-.94c-2.21-1.28-3.79-3.87-4.82-7.93L68.14,112.69c-.81-3.34-.63-5.69.56-7.37,1.39-2,4.07-3,9-3.52L204,94.56c4.85.28,6.71,4.49,8.34,9.16l26.37,87.34a5,5,0,0,1-.18,4c-1.3,2.4-4.88,3.35-8.34,4.28l-.65.17L102.37,233.34A11.45,11.45,0,0,1,99.31,233.79ZM204,95.54,77.74,102.78c-4.5.46-7,1.42-8.24,3.1-1,1.44-1.14,3.54-.4,6.6L91.77,224.71c1,3.76,2.39,6.15,4.36,7.3a7.58,7.58,0,0,0,6,.38h0l127.77-34c3.26-.87,6.63-1.77,7.73-3.8a4,4,0,0,0,.1-3.25L211.36,104C209.79,99.54,208.14,95.79,204,95.54Z" fill="#b08ee6"/><path d="M84.49,217.14a7.13,7.13,0,0,1-3.56-.89c-2.24-1.27-3.8-3.8-4.93-8L53.33,96c-.81-3.34-.64-5.69.55-7.38,1.39-2,4.07-3,9-3.51l126.29-7.24c4.85.28,6.71,4.49,8.34,9.15l26.37,87.34a5,5,0,0,1-.17,4c-1.31,2.39-4.89,3.35-8.35,4.27l-.65.18L87.56,216.68A11.21,11.21,0,0,1,84.49,217.14ZM189.13,78.89,62.92,86.12c-4.5.46-7,1.42-8.24,3.11-1,1.44-1.14,3.53-.4,6.6L77,208.05c1,3.87,2.47,6.22,4.46,7.35a7.44,7.44,0,0,0,5.89.34h0l127.76-34c3.26-.87,6.63-1.78,7.74-3.8a4,4,0,0,0,.09-3.26L196.54,87.36C195,82.88,193.33,79.13,189.13,78.89Z" fill="#4d1e9a"/><path d="M108.87,220.41,236,186.59c5-1.35,10.52-2.56,8.83-7.85L218.45,91.42c-1.52-4.33-3.27-8.56-7.85-8.82L84.33,89.83c-8.06.83-10.8,3.26-9.09,10.31l22.67,112.2C99.34,218.08,102.16,222.26,108.87,220.41Z" fill="#976ae2"/><path d="M115.31,213l113.35-30.14c4.55-1.27,9.32-2.29,7.83-7L213,98.05c-1.42-3.85-2.85-7.59-7-7.83L93.48,96.61c-7.24.76-9.72,3-8.08,9.19l20.19,100C106.83,211,109.32,214.66,115.31,213Z" fill="#f1edf7"/><path d="M256.16,266.72s3.19,14-3.89,18.27,9.22,7.61,9.22,7.61,74.84,27.82,99.94-6.42L366,221.41l-16.31-75.78-18.93-20.9s-47-2.51-56.53,1.41-29.92,30.07-29.92,30.07l4.83,50.6Z" fill="#976ae2"/><path d="M348.24,185.14s2-16.73,18.68-11.17l6.58,8.52,0,7.54Z" fill="#c69c79"/><path d="M286.89,101.78,286.41,114a48.93,48.93,0,0,0,12.89,15.36l2.91,8.77,3.14-9.47s6.06-2.83,6.42-15.07l.17-10.94Z" fill="#c69c79"/><path d="M310.06,132.71s-3.12-7,13.32-.05-6.95-20.2-6.95-20.2l-5-2.41-9.66,26.06L304,160.52Z" fill="#4d1e9a"/><path d="M303.72,164.36,301.14,136l0-.12,9.88-26.67,5.82,2.84c2.55,3,15.16,18,12.56,21.51-.86,1.19-2.86,1.07-6.29-.38-9.48-4-11.85-3.1-12.42-2.51s-.13,1.76-.13,1.77l.08.18,0,.19Zm-1.39-28.17,1.87,20.49,5.25-23.92a2.81,2.81,0,0,1,.43-2.88c1.67-1.7,6.16-1,13.73,2.24,3.86,1.64,4.71,1,4.88.78,1.5-2.05-6.34-12.87-12.42-20l-4.36-2.08Z" fill="#4d1e9a"/><path d="M285.82,110.09s-1.73-2.82-4,1.65-4.19,25.32-6.29,27.08,15.11-4.65,15.11-4.65,0,6.48,4.85,5.82,9.84,43.35,9.84,43.35l-3.61-47.23C301.85,136.12,289.17,111.22,285.82,110.09Z" fill="#4d1e9a"/><path d="M304.75,183.4c-1.23-10.94-5.22-40-8.84-42.7a.41.41,0,0,0-.32-.13,4.19,4.19,0,0,1-3.49-.93,7.31,7.31,0,0,1-2-4.64c-14.64,5.43-15,4.87-15.25,4.37-.11-.18-.22-.56.3-1,.91-.76,2-7.35,2.92-12.65,1-5.9,2-12,3.23-14.26.95-1.86,1.94-2.79,3-2.84a2.3,2.3,0,0,1,1.85,1c.75.33,2.78,1.87,9.36,13.58.07.11,6.28,11.33,6.74,12.89h0l3.61,47.22Zm-9.12-44a1.65,1.65,0,0,1,1,.37c2.53,1.92,4.91,13.27,6.63,23.94l-2.1-27.46c-.77-1.75-12.68-24.63-15.52-25.6l-.21-.07-.1-.17s-.42-.63-.94-.6c-.35,0-1.07.32-2,2.2-1.12,2.1-2.14,8.11-3.12,13.92-1.05,6.24-1.82,10.54-2.71,12.44,2.43-.61,8.48-2.72,13.92-4.74l.79-.3v.85s0,3.17,1.64,4.59a3,3,0,0,0,2.54.65Z" fill="#4d1e9a"/><path d="M316.56,112.35s8.25,1.9,15-.77,12.72-6,18.17-2.59,9.11,7.6,10.32,11.09c2.14,6.18,4.64,12.27,7.31,18.25a102.88,102.88,0,0,0,5.54,11c2.22,3.68,5.41,8.77,7,12.85,3.49,9.14-.93,16,1.1,25.22.84,3.82-1.67,4.38-3.36,3.22s-7.39-17.84-18.85-15.33S348,183.47,348,183.47s-2.32-16.86,5.56-18.52c0,0-6.39.45-7-4.54s-4.37-9.92-4.37-9.92Z" fill="#4d1e9a"/><path d="M379.23,191.75a3.48,3.48,0,0,1-2-.64c-.47-.32-.95-1.16-1.92-2.89-2.79-5-8-14.22-16.46-12.36-10.62,2.36-10.33,7.51-10.33,7.56l-1.17.13c-.08-.63-1.85-14.1,3.74-18.17-2.28-.44-4.81-1.75-5.22-4.89-.62-4.77-4.22-9.6-4.25-9.64l-26.43-39.4,1.45.33c.08,0,8.16,1.82,14.66-.75.87-.34,1.73-.7,2.57-1,5.72-2.37,11.12-4.61,16.13-1.5s9.19,7.43,10.56,11.4c2,5.7,4.37,11.66,7.3,18.19A102,102,0,0,0,373.42,149l.78,1.3A81.05,81.05,0,0,1,380.43,162c2,5.15,1.48,9.65,1,14-.38,3.54-.78,7.21.12,11.3.57,2.6-.35,3.66-.95,4.07A2.43,2.43,0,0,1,379.23,191.75Zm-18.16-17.3c7.91,0,12.83,8.77,15.32,13.2a13.73,13.73,0,0,0,1.56,2.49,1.84,1.84,0,0,0,2,.23c.6-.4.77-1.44.46-2.84-.94-4.28-.53-8-.14-11.68.48-4.41.92-8.58-.94-13.46a81.26,81.26,0,0,0-6.13-11.46l-.79-1.3a105.16,105.16,0,0,1-5.58-11.06c-2.94-6.57-5.34-12.56-7.33-18.3-1-2.91-4.18-7.27-10.06-10.78-4.5-2.79-9.4-.76-15.07,1.58-.85.35-1.71.71-2.59,1.06-5.25,2.07-11.28,1.48-14,1.06l24.8,37c.14.18,3.8,5.09,4.47,10.17.57,4.38,6.18,4,6.41,4l.17,1.16c-5.33,1.12-5.59,10.14-5.35,14.92,1.21-1.93,4-4.32,10.32-5.72A11,11,0,0,1,361.07,174.45Z" fill="#4d1e9a"/><path d="M280.42,115.66S269.68,122,258,124s-26,.6-37.58,26l-2.13,4.35,4.15-.58,10.72,44.46s7.18-24.09,12.15-24.39,1.49-25.48,7.14-27.51S283.32,130.68,280.42,115.66Z" fill="#4d1e9a"/><path d="M233.12,200.47,222,154.41l-4.73.66,2.63-5.35c10.33-22.55,22.7-24.2,33.62-25.65,1.52-.2,3-.39,4.38-.63,11.42-2,22.1-8.22,22.2-8.29l.72-.42.16.82c2.91,15.09-21.77,29.1-28.34,31.32-2.53.91-3,8.09-3.47,14.43-.48,6.94-.9,12.93-3.83,13.11-3.31.2-8.88,14.81-11.62,24ZM222.91,153.1,233.25,196c1.94-6.13,7.54-22.48,12-22.75,1.9-.12,2.36-6.72,2.73-12,.51-7.34,1-14.28,4.26-15.45,6.26-2.11,29.43-15.14,27.69-29.17-2.65,1.45-12,6.29-21.85,8-1.45.25-2.89.44-4.42.65-10.62,1.41-22.65,3-32.72,25l-1.66,3.37Z" fill="#4d1e9a"/><path d="M179.83,163.52l-11.2,4.06,17,65.44s46.25-9,52.54-13.89l-15.62-65.37Z" fill="#fff"/><path d="M241,155.31l-7.7,43L245.44,174A42.54,42.54,0,0,1,241,155.31Z" fill="#351475"/><path d="M232,202.27l8.42-47.07,1.17.1A42.37,42.37,0,0,0,246,173.66l.15.27Zm8.74-42.17-6.14,34.31L244.78,174A42,42,0,0,1,240.73,160.1Z" fill="#4d1e9a"/><polygon points="366.04 221.41 379.33 270.26 361.43 286.18 366.04 221.41" fill="#815ecc"/><path d="M248.75,177.79s.82,30.34,6.74,41.88,15.34,36,48.79,40.2c0,0-30.84,29.78-47.18,12.91,0,0-2.3-21-4.16-31.58S242.06,187.42,248.75,177.79Z" fill="#815ecc"/><path d="M259.52,292l-.26,22.49S339.89,334.18,366,288.57l3.75-9.68S351,300.78,326.41,300.63,262.66,294.67,259.52,292Z" fill="#4d1e9a"/><path d="M297.78,319.31a184.31,184.31,0,0,1-38.66-4.23l-.45-.11.27-24.21,1,.8c3,2.57,42.1,8.35,66.52,8.49h.23c24,0,42.47-21.32,42.65-21.54l2.24-2.62-5,12.89c-10.82,18.92-32.83,29.42-63.69,30.45C301.15,319.29,299.45,319.31,297.78,319.31ZM259.86,314a183.14,183.14,0,0,0,43,4c21.21-.71,49.29-6.45,62.64-29.77l2.63-6.82c-5.54,5.56-21.67,19.76-41.47,19.76h-.24c-22.26-.12-59.2-5.15-66.32-8.22Z" fill="#4d1e9a"/><path d="M285.91,318.35c-10.64,0-20.68-.92-26.58-3.73l-.07,0v-.08l.55-17.62,5.87,3.75c.05,0,5.9,4.29,16.53,8.14a112.68,112.68,0,0,0,46.31,6l0,.24C328.2,315.07,306,318.35,285.91,318.35Zm-26.41-3.91c14.62,6.88,54.54,2.27,65.93.76a112.06,112.06,0,0,1-43.32-6.2c-10.55-3.82-16.4-8-16.57-8.17l-5.5-3.51Z"/><path d="M367.18,286.52s2,16.49-14.65,23-18.29,4.47-18.29,4.47S360.34,302.73,367.18,286.52Z" fill="#815ecc"/><path d="M303.46,163.08,310,257.25S307.38,172.62,303.46,163.08Z" fill="#4d1e9a"/><path d="M309.39,257.3l-6.77-97.8,1.38,3.36c3.92,9.52,6.46,90.92,6.56,94.38Zm-4.56-82.88,2.87,41.43C307,200.79,306,184.91,304.83,174.42Z" fill="#4d1e9a"/><path d="M367.54,242s-10.72,10.1-17.05,9.49,3.21,25.76,3.21,25.76,12.66-2.91,16.09-11.08S367.54,242,367.54,242Z" fill="#4d1e9a"/><path d="M353.32,277.94l-.17-.49c-.79-2.22-7.65-21.76-4.54-25.74a2.09,2.09,0,0,1,1.94-.8c6,.53,16.49-9.24,16.59-9.34l.66-.62.3.85c.23.67,5.7,16.32,2.23,24.6s-16,11.3-16.5,11.42Zm-3-25.87a.86.86,0,0,0-.75.36c-2,2.58,1.55,15.64,4.54,24.11,2.36-.64,12.28-3.72,15.16-10.6s-.88-19.5-2-22.9c-2.49,2.23-11.2,9.55-16.83,9Z" fill="#4d1e9a"/><path d="M353.11,243s2.54-3.15,3.12,1,1.23,11.27,1.23,11.27l-2.63.67Z" fill="#f9d698"/><path d="M354.72,256.14V256L353,243l0,0c.05-.06,1.18-1.42,2.15-1.16.61.17,1,.92,1.19,2.22.58,4,1.22,11.2,1.23,11.27v.11Zm-1.49-13.06,1.7,12.76,2.4-.62c-.08-.89-.68-7.42-1.22-11.15-.17-1.2-.51-1.88-1-2C354.34,241.83,353.42,242.86,353.23,243.08Z"/><path d="M350.47,163.12s11.07-4,19.57-.16-14.71,1.74-20.13,5.66S350.47,163.12,350.47,163.12Z" fill="#351475"/><path d="M348.05,170.12a.91.91,0,0,1-.68-.26c-.79-.75.09-3.13,2.61-7.06l.1-.17.19-.07c.47-.16,11.4-4,20-.13,1.22.54,2.34,1.17,2.19,2-.21,1.23-2.55,1.47-8.27,1.94-5.14.41-11.54.94-13.94,2.68A4.62,4.62,0,0,1,348.05,170.12Zm2.81-6.51a20,20,0,0,0-2.63,5.3,5.82,5.82,0,0,0,1.35-.77c2.66-1.93,9-2.44,14.52-2.9,2.81-.23,6.26-.51,7.1-1a5.81,5.81,0,0,0-1.4-.79C362.21,160.11,352.33,163.12,350.86,163.61Z" fill="#4d1e9a"/><path d="M360.24,125s15.49,39.32,17,43.06S371,135.92,360.24,125Z" fill="#351475"/><path d="M377.46,169c-.44,0-.62-.4-.72-.62-1.53-3.72-16.9-42.69-17.05-43.09l-1.05-2.66,2,2c9.8,9.89,18.06,42.25,17.37,43.95l-.15.36-.41,0Zm-15.35-40.77c3,7.58,10.26,26,13.81,34.93C373.83,154.48,368.62,137.17,362.11,128.19Z" fill="#4d1e9a"/><path d="M275.54,138.71s19.21.06,20.08,1.17S295.47,128.32,275.54,138.71Z" fill="#351475"/><path d="M295.71,140.54a.68.68,0,0,1-.51-.25c-1.09-.59-10.8-1-19.66-1h-2.39l2.12-1.1c14.48-7.55,19.11-3,20.42-.73.44.77,1.11,2.51.36,3A.67.67,0,0,1,295.71,140.54Zm.35-1s0,0,0,0S296.07,139.5,296.06,139.49Zm-18-1.36c7,.06,14.41.29,17.09,1a4.94,4.94,0,0,0-1.91-2.65C291.07,134.9,286.73,134.05,278,138.13Z" fill="#4d1e9a"/><path d="M308.87,139l18.8-5.14s-16.4-7.68-18.91-3A7.65,7.65,0,0,0,308.87,139Z" fill="#351475"/><path d="M308.64,139.68l-.24-.32a8.22,8.22,0,0,1-.16-8.77c2.7-5,17.95,1.93,19.68,2.74l1.45.67Zm3.74-9.73c-1.52,0-2.65.35-3.1,1.2a7.23,7.23,0,0,0-.15,7.17l16.81-4.6C321.6,131.84,315.92,130,312.38,130Z" fill="#4d1e9a"/><path d="M311.75,105.94a68.63,68.63,0,0,0,4.69,6.41c3.18,4,8,11.78,8,11.78L311.65,113.6Z" fill="#4d1e9a"/><path d="M326.84,126.83l-15.78-13,.12-10,1.07,1.73A71.24,71.24,0,0,0,316.9,112c3.17,3.94,8,11.76,8.07,11.84Zm-14.6-13.51,9.76,8c-1.7-2.63-4.16-6.31-6-8.63-1.68-2.08-2.89-3.75-3.67-4.86Z" fill="#4d1e9a"/><path d="M286.46,105.06s-5.1,4.65-6.15,10.59,6-1.65,6-1.65Z" fill="#4d1e9a"/><path d="M281,118.51a1.27,1.27,0,0,1-.58-.13c-1.07-.53-.76-2.26-.66-2.83,1.07-6.07,6.12-10.73,6.34-10.93l1-.92-.2,10.54-.15.16C285.51,115.71,282.71,118.51,281,118.51Zm4.88-12c-1.51,1.67-4.24,5.16-5,9.23-.23,1.34,0,1.57,0,1.57.51.25,2.77-1.42,4.79-3.57Z" fill="#4d1e9a"/><ellipse cx="307.27" cy="170.49" rx="1.88" ry="1.53" transform="translate(119.15 467.29) rotate(-86.66)" fill="#815ecc"/><ellipse cx="308.36" cy="202.13" rx="1.88" ry="1.53" transform="translate(88.59 498.18) rotate(-86.66)" fill="#815ecc"/><ellipse cx="311.35" cy="233.77" rx="1.88" ry="1.53" transform="translate(59.82 530.95) rotate(-86.66)" fill="#815ecc"/><path d="M215.27,321.24s-47.81,5.58-22.6,11.76S222.08,325.76,215.27,321.24Z" fill="#f1edf7"/><path d="M410.51,30.88s18.6-5.75,30.17,10.13S424.92,44.45,410.51,30.88Z" fill="#f1edf7"/><path d="M398.46,309.79s-12.75-13.59,1-17.14S416.32,304.59,398.46,309.79Z" fill="#f1edf7"/><path d="M487.46,188.2s-14.59,92.36-73,106.5C414.32,294.58,479.93,232.42,487.46,188.2Z" fill="#f1edf7"/><path d="M279.2,62s-4.62-3.69-4.37.21,3,7.83,3,7.83,1,2.3,1.57,1.27S279.2,62,279.2,62Z" fill="#c69c79"/><path d="M324.93,63.82s5-3.12,4.32.73S325.39,72,325.39,72s-1.3,2.16-1.71,1.08C323,72,324.93,63.82,324.93,63.82Z" fill="#c69c79"/><path d="M325,66.3s6.89-11,3.07-24.33l-5,3.83s1.64,10.11,1,13.26C324,59.06,325.92,61.05,325,66.3Z"/><path d="M279.29,38.18s.69,4.4,3.58,5.28l-2,11.9s-2.64,4.91-1.79,6.49C279.2,62,273.68,47.51,279.29,38.18Z"/><path d="M319,47.81l7.62-5.33a7.75,7.75,0,0,0-1.6-9c-4.2-4.61-11.5-6.8-11.5-6.8s-13.73-2.92-22.28.23-15.51,11.23-6.36,18l1.93,1.29L285,41l6.28,5.43,1.06-1.94s6.75,5.46,11.25,5,10-3.78,10-3.78l-.36,2.22,7.61-5.21Z"/><path d="M284,62.38s7.79-4.26,13.41,2.31a1.79,1.79,0,0,1-2,.24A14.94,14.94,0,0,0,284,62.38Z"/><path d="M320.33,63.91s-7.24-5.14-13.6.74a1.8,1.8,0,0,0,2,.46C309.91,64.71,313.83,62.11,320.33,63.91Z"/><path d="M280.19,73.35s.53,9,7.15,12.67l-.41,2.92s7.23-6.65,12.27-6.23,6.8.51,9.83,3.16a51.68,51.68,0,0,1,4.24,4l-.12-2s9.7-6.62,9.43-12.17c0,0,1,13.6-.83,18.33S313,108.49,313,108.49l-1.34-1.25s-2.71,6-11.44,6.28-13.31-8.2-13.31-8.2l-.35,2S278.28,93.86,278.15,90C278.28,85.84,280.19,73.35,280.19,73.35Z"/><path d="M300.56,65.46l-2.32,11.42s5.1,5.48,6,.82c1-5.37-1-11.73-1-11.73Z" fill="#c69c79"/><path d="M179.83,163.52s-3.31-3.85,3.66-4.27c0,0,1.58-4.85,6.57-1.5,0,0-1.31-5.73,5.07-2.06,0,0,.68-5.62,4.23-1.87s5.3,16.21,3.24,21.28c0,0-.26,2.34-1.68,2.49s-2.17,2.82-5.33,2.52-4.67,1.26-6.24-.13-3.28,1.69-4.9-.76S178.11,164.59,179.83,163.52Z" fill="#d8b28d"/><path d="M203,152.14s9,5,6,7.43-6.48.09-6.48.09l-3.08-5.72C199.47,154.06,198.49,150.58,203,152.14Z" fill="#d8b28d"/><path d="M183.49,159.37,186.58,177S186.1,165.06,183.49,159.37Z" fill="#c69c79"/><path d="M190.05,157.87l2,17.79S192.42,161.78,190.05,157.87Z" fill="#c69c79"/><path d="M195.12,155.81,199,176.42S198.07,161.87,195.12,155.81Z" fill="#c69c79"/><path d="M282.48,62.29l16.92,1a6.33,6.33,0,0,0,2.9,1,7.66,7.66,0,0,0,3.18-.64l15.87.93-.07,1.17" fill="#4d1e9a"/><path d="M321.87,65.77l-1.17-.07,0-.59-15.14-.88a8.16,8.16,0,0,1-3.32.63,7,7,0,0,1-3.06-1l-16.76-1,.06-1.17,17.08,1,.14.09a5.78,5.78,0,0,0,2.61.89,6.88,6.88,0,0,0,2.89-.58l.14-.07L322,64Z" fill="#4d1e9a"/><polygon points="277.35 59.28 282.53 61.46 282.41 63.46 277.35 59.28" fill="#4d1e9a"/><polygon points="325.47 62.56 320.33 63.91 321.28 65.73 325.47 62.56" fill="#4d1e9a"/><ellipse cx="298.84" cy="76.79" rx="1.88" ry="2" transform="translate(204.75 370.64) rotate(-86.66)" fill="#c69c79"/><ellipse cx="304.49" cy="76.89" rx="1.88" ry="2" transform="translate(209.97 376.37) rotate(-86.66)" fill="#c69c79"/><path d="M303.23,66.09s-1.73,11.45-.74,10.68S303.23,66.09,303.23,66.09Z" fill="#d8b28d"/><path d="M293,118.4s6.73-4.32,10.34-5.64c0,0-8.86,2.54-16.16-7.78l-.14,4.47Z" fill="#a88062"/><path d="M292.44,74.46c-7.28,0-9.64-2.76-10.39-11.81L282,62l17.42,1,.07.48c0,.24.78,5.91-1.89,9.05a5.76,5.76,0,0,1-4.47,2Zm-9.15-11.24c.82,8.68,3.35,10.2,9.81,10.06a4.62,4.62,0,0,0,3.6-1.59c1.92-2.26,1.79-6.27,1.67-7.65Z" fill="#4d1e9a"/><path d="M315.08,74.7c-7.31,0-9.43-1.45-10.31-10.67l-.06-.69,16.89,1.19.08.45c0,.2.83,4.82-1.47,7.64a6,6,0,0,1-4.71,2.08ZM306,64.61c.86,8.13,2.69,9,9.48,8.91a4.78,4.78,0,0,0,3.8-1.64c1.59-1.94,1.42-5.08,1.29-6.24Z" fill="#4d1e9a"/><path d="M327.67,133.86s7.45-8.52,11.76-5.68,16.55,27.36,11,34.94-15,11.37-15,11.37Z" fill="#976ae2"/><path d="M362.74,171s15.39,4.67,17.11,11.6-2.23,7.89-2.23,7.89Z" fill="#351475"/><path d="M377.39,191.17l-16.23-21.24,1.75.53c.64.19,15.73,4.85,17.51,12,.72,2.89.58,5.17-.39,6.77a4,4,0,0,1-2.27,1.83Zm-13-19,13.44,17.6c.81-.42,2.72-2,1.46-7S368.43,173.66,364.38,172.2Z" fill="#4d1e9a"/><path d="M346.29,190.33s.55,10.75,1.31,13.86a53.33,53.33,0,0,0,3.4,8.33l3.13,9s4,6.48,5.77,6.11l2.73,5.7s.78,2.75,2.74,1.45l2-.47.32,4.62s4.56,2.62,4.91-1.25-.15-1.54-.15-1.54,3.86.58,4.08-1.29a64.93,64.93,0,0,0-.06-15.09c-1.12-7-1.8-9.53-1.8-9.53s3.26,4.79,4.42,3.09,2.09-11.66,2.09-11.66.53-5-1.09-7.49-8.34-10.62-9.94-11.42-8.43-3-10.68-.74-4.52.67-6.9,1.12a12.77,12.77,0,0,0-6,3.31C346.49,186.92,346.29,190.33,346.29,190.33Z" fill="#d8b28d"/><path d="M369.25,214.88l1.6,8.81,1.49,10.81s-1,1-1.8-3.4S369.25,214.88,369.25,214.88Z" fill="#c69c79"/><path d="M364.16,215.17l3.13,19S364.61,221.68,364.16,215.17Z" fill="#c69c79"/><path d="M359.78,227.64s-.95-7.95-1.8-9.53-.53-5.1-.53-5.1Z" fill="#c69c79"/><path d="M376,212l-2.09-8.49s.4-4.93-1.2-5.73S375.05,210.39,376,212Z" fill="#c69c79"/><path d="M367.5,204.41a11.15,11.15,0,0,1-7-3.59,9.53,9.53,0,0,0-8.22-2.48A16.1,16.1,0,0,0,367.5,204.41Z" fill="#c69c79"/><path d="M292.94,66.21l.6.12a6.71,6.71,0,0,1,2.13,1,3.55,3.55,0,0,0-1.8-1.8,5.82,5.82,0,0,0-2.52-.62,5.69,5.69,0,0,0-2.56.56A3.37,3.37,0,0,0,287,67.26a5.79,5.79,0,0,1,2.09-1,8.06,8.06,0,0,1,1.38-.2,1.54,1.54,0,0,0-.86,1.23A1.81,1.81,0,0,0,291.53,69a1.85,1.85,0,0,0,2.09-1.5A1.52,1.52,0,0,0,292.94,66.21Z"/><path d="M318,68.58a3.55,3.55,0,0,0-1.78-1.8,5.52,5.52,0,0,0-2.53-.54,5.86,5.86,0,0,0-2.5.6,3.94,3.94,0,0,0-1.84,1.72,8.25,8.25,0,0,1,2.16-.86c.25-.06.5-.1.74-.14a1.42,1.42,0,0,0-.28.79,1.77,1.77,0,0,0,3.52.21,1.52,1.52,0,0,0-.35-1c.25,0,.51.07.76.13A6.51,6.51,0,0,1,318,68.58Z"/><path d="M295,87l-2,9,3.49-1.48L298,93l-.65-2.3,6.77.9-1.19,1.93.29,1.4,3.91,2.55L308,89S304,85,295,87Z" fill="#d8b28d"/><path d="M301,87.67A16.26,16.26,0,0,1,305.86,89a12.66,12.66,0,0,1-5,.27A16,16,0,0,1,296,87.94,16.46,16.46,0,0,1,301,87.67Z" fill="#b5311f"/><path d="M298.64,89.43a8.56,8.56,0,0,0,2.18.6,6.91,6.91,0,0,0,1.11.08c.38,0,.76,0,1.16,0a3.72,3.72,0,0,1-3.5.09A2.75,2.75,0,0,1,298.64,89.43Z" fill="#b5311f"/></svg>