<svg version="1.1" id="Layer_1" xmlns="http://www.w3.org/2000/svg" xmlns:xlink="http://www.w3.org/1999/xlink" x="0px" y="0px" viewBox="167.90133666992188 131.809814453125 475.6235046386719 387.48931884765625" style="enable-background:new 0 0 841.9 595.3;" xml:space="preserve">
<style type="text/css">
	.st0{fill:#EDF2F7;}
	.st1{fill:#47C4D5;}
	.st2{fill:#054664;}
	.st3{fill:none;stroke:#CCD6E0;stroke-width:0.628;stroke-miterlimit:10;}
	.st4{fill:none;stroke:#866CB0;stroke-width:1.3895;stroke-miterlimit:10;}
	.st5{fill:#D8B28E;}
	.st6{fill:#C3A082;}
	.st7{fill:#BE9A7A;}
	.st8{fill:#975B25;}
	.st9{fill:none;stroke:#262323;stroke-width:0.6947;stroke-miterlimit:10;}
	.st10{fill:#C69C79;}
	.st11{fill:#CE177B;}
	.st12{fill:#E63A8F;}
	.st13{fill:none;stroke:#B67A2B;stroke-width:2.779;stroke-linecap:round;stroke-miterlimit:10;}
	.st14{fill:#CCD6E0;}
	.st15{fill:#BC4E7F;}
	.st16{fill:#ED2490;}
	.st17{fill:#AF2070;}
	.st18{fill:#4B5668;}
	.st19{fill:#718196;}
	.st20{fill:#866CB0;}
	.st21{fill:none;stroke:#B67A2B;stroke-width:0.6149;stroke-miterlimit:10;}
	.st22{fill:#FFFFFF;}
	.st23{fill:#C63130;}
	.st24{fill:none;stroke:#AF2070;stroke-width:0.8483;stroke-miterlimit:10;}
	.st25{fill:none;stroke:#C69C79;stroke-width:0.6947;stroke-miterlimit:10;}
	.st26{fill:none;stroke:#AF2070;stroke-width:0.7656;stroke-miterlimit:10;}
	.st27{fill:none;stroke:#AF2070;stroke-width:0.5603;stroke-miterlimit:10;}
	.st28{fill:#512E91;}
	.st29{fill:#E7579F;}
	.st30{fill:none;stroke:#512E91;stroke-width:1.3895;stroke-miterlimit:10;}
	.st31{fill:none;stroke:#AF2070;stroke-width:1.2561;stroke-miterlimit:10;}
	.st32{fill:none;stroke:#CCD6E0;stroke-width:1.3895;stroke-miterlimit:10;}
	.st33{fill:none;stroke:#CCD6E0;stroke-width:2.779;stroke-linecap:round;stroke-miterlimit:10;}
	.st34{fill:#106685;}
	.st35{fill:none;stroke:#5C4C4C;stroke-width:0.6947;stroke-miterlimit:10;}
	.st36{fill:#A84575;}
	.st37{fill:#7F1C57;}
	.st38{fill:#E2E8F0;}
</style>
<path class="st0" d="M515.9,473.1c0,0,117.2-49.3,127-168.1c12.8-155.5-175.2-229.4-184.7-91.8c-9.1,130.9-177.4,123.4-130.7,239.4
	C382.5,589.6,515.9,473.1,515.9,473.1z"></path>
<path class="st1" d="M436.4,362.2l-95.8,49.8c-4.5,2.3-7.3,1.1-10.9-0.7l-59.3-31.7c-2.9-1.6,0.2-4.3,10.7-8.1l101.7-38.8
	c7.4-2.5,8.9-2.3,13.1,0l47.4,21.7C446.5,356.2,446,357,436.4,362.2z"></path>
<path class="st2" d="M436.4,358.4l-95.8,49.8c-4.5,2.3-7.3,1.1-10.9-0.7l-59.3-31.7c-2.9-1.6,0.2-4.3,10.7-8.1l101.7-38.8
	c7.4-2.5,8.9-2.3,13.1,0l47.4,21.7C446.5,352.5,446,353.2,436.4,358.4z"></path>
<path class="st3" d="M424.9,360l-81.5,42.3c-3.8,2-6.2,0.9-9.2-0.6l-50.5-26.9c-2.5-1.3,0.2-3.6,9.1-6.9l86.5-33
	c6.3-2.1,7.6-1.9,11.1,0l40.3,18.5C433.5,355,433.1,355.7,424.9,360z"></path>
<path class="st4" d="M421.3,193.9l-5.2-8.9l1.1-1.1C417.2,184,421.6,191.7,421.3,193.9z"></path>
<path class="st5" d="M463.6,172.9c0,0,6.5,6.8,6.8,9s1.6,8.1,1.6,11.1c0,2.9-1.4,9.9-1.8,11.1c-0.5,1.1-7.8,6.6-7.8,6.6L463.6,172.9
	z"></path>
<g>
	<path class="st6" d="M367.4,359.7c0,0-2.5-0.8-5.1,4.3c-2.5,5.1-8.4,10.7-8.2,12.5c0.2,1.8,4,0.3,4,0.3L367.4,359.7z"></path>
	<path class="st5" d="M380.1,355.9c0,0-14.4,4.2-15.1,4.7c-0.6,0.5-1.7,3.8-1.7,3.8l1,0.3l18.8-5.2l9-2.2l1.6-0.9L380.1,355.9z"></path>
	<polygon class="st7" points="433.9,352.3 390.4,355.8 418.1,366.3 433.1,366.2 443.1,366.1 	"></polygon>
	<path class="st5" d="M379.8,359.6c0,0,3.4-2.1,5.7-2.6c2.3-0.5,4.6-0.3,6.8,0.3c2.1,0.5,4,0.9,4,0.9l5.5,1.4l-7-5.5
		c0,0-4.5-4.2-9.1-1.7c-4.6,2.5-13.2,7.5-13.2,7.5S375.3,360,379.8,359.6z"></path>
	<path class="st6" d="M370,355.7c0,0-10.8-1.1-12.9,0.5s-8.3,8.2-8.3,8.2l-4.7,7c0,0,3,3.1,8.1-2.5c5.1-5.6,5.1-5.6,5.1-5.6l6.8-1.4
		L370,355.7z"></path>
	<path class="st6" d="M339.8,364.8c0,0-0.1,1.8,3.6,1.2c3.8-0.6,6.4-1.6,6.4-1.6l8.3-8.2c0,0,0-0.9-4.7,0.8
		c-4.7,1.7-10.4,4.4-10.4,4.4S339.2,363.1,339.8,364.8z"></path>
	<path class="st6" d="M363,383.4c0,0,2.9,1.1,5.1-1.6c2.2-2.7,1.9-5.8,1.9-5.8s3.9-4.9,4.2-6c0.3-1.1-7.1-0.6-7.1-0.6
		s-1.4,3.6-2.1,5.5C364.3,376.6,363,383.4,363,383.4z"></path>
	<path class="st5" d="M394,358.5c0,0-1.4-3.1-7.4-1.3c-6,1.8-10.4,2.4-12.1,2.9c-1.7,0.5-6.1,1.5-10.1,4.5
		c-4,3.1-10.3,14.7-9.5,14.8c0.8,0.1,3.8,1.6,6.9-3.5c3.1-5.1,7.5-8.3,7.5-8.3l15.1-1.9c0,0,5.8,2.5,6.2,2.6c0.4,0.1,4.7,2,7.4,2.1
		s4-6.6,4-6.6l-4.7-6.6L394,358.5z"></path>
	<path class="st5" d="M353.3,364.8c0,0,0.2,5.9,8.1,5.7c0,0,4.2,0.3,7.3-0.3c0,0,4.2,1.1,5.5,1c1.3-0.1,3.8,1.4,7.9,1l6.1,2.5
		c0,0,13.2,8.7,19.7,9.1c6.6,0.4,9.2-0.5,9.2-0.5l7.5,0.9l5.2-18.4c0,0-8.6,1.3-17-3.9c-8.4-5.2-16.8-9.8-17.5-10.8
		c-0.8-1-2-3.6-7.3-2.5s-16.5,1.9-16.5,1.9s-3.1,0.6-4.2,3.8s-2.9,10.3-2.9,10.3l4.7-3.6l3.2-1c0,0,6.6-3.3,7.8-4
		c1.2-0.7,5.5-3.5,5.5-3.5s3.5-2,6.8,0.3c3.2,2.3,6.4,4.3,6.4,4.3s3.1,10.8,0.5,12.7s-8.7-6.1-8.7-6.1s-0.8-1.2-5.7,0.3
		c-4.9,1.4-11,0.5-11,0.5s-1.4,0.1-6,0.3S353.3,364.8,353.3,364.8z"></path>
	<path class="st6" d="M395.2,351.1c0,0-1.8,3.8-1.4,5.2c0.3,1.4-2.5,1.6-2.1,2.6c0.4,1,1,3.1,0.9,3.8c-0.1,0.6-2.9-0.9-2.1,0.9
		c0.8,1.8,9.5,10.3,12.9,11.4c3.4,1.2,14.2-7.7,10.7-12.2L395.2,351.1z"></path>
	<path class="st5" d="M365.1,360.6c0,0,1.4-0.6,6.8-2.7c5.4-2.1,13.1-4.4,13.1-4.4s1.7,1.9-0.6,3.1c-2.3,1.2-13.5,4.2-13.5,4.2
		l-6.4,3.9L365.1,360.6z"></path>
	<path class="st6" d="M359,364.9c0,0,28.3-1.4,31.6-1.3s7.1,5.7,7.1,5.7s-6-3.5-12.2-3.8C379.3,365.3,359,364.9,359,364.9z"></path>
	<path class="st6" d="M366.1,359.6c0,0,20.7-3.1,23.1-2.9c2.4,0.2,4.8,1.8,4.8,1.8S386.1,357,366.1,359.6z"></path>
	<path class="st6" d="M371.4,354.8c0,0,15-3.7,18.2-3.4c3.2,0.3,5.2,1.7,5.2,1.7S388.1,350.9,371.4,354.8z"></path>
</g>
<g>
	<polygon class="st8" points="439.7,365.4 447.6,369.3 452.3,363.4 	"></polygon>
	<path class="st5" d="M422.7,370.4c0,0,59.9-4.4,79.6-10.9c19.7-6.5-29.4-17.5-29.4-17.5l-48,11L422.7,370.4z"></path>
	<path class="st9" d="M430,351.7c0,0-3.3-2.4-3.4,3.4c-0.1,6-0.2,15.7,3.5,15.8c1.3,0,1.3-1.3,1.3-1.3"></path>
	<path class="st9" d="M431.3,351.5c0,0-3.3-2.4-3.4,3.4c-0.1,6-0.2,15.7,3.5,15.8c1.3,0,1.3-1.3,1.3-1.3"></path>
	<path class="st9" d="M435.3,350.3c0,0-4.2-1.4-4.4,4.3c-0.1,6-0.2,15.7,3.5,15.8c1.3,0,1.3-1.3,1.3-1.3"></path>
	<path class="st10" d="M461.4,344.6c0,0,11.8,6.3,17.2,8.1c5.4,1.8,15.8,8.8,15.8,8.8l-20.3,3.5c0,0-17.2-17.1-24.6-17.7
		L461.4,344.6z"></path>
	<path class="st9" d="M426.8,352.1c0,0-3.3-2.4-3.4,3.4c-0.1,6-0.2,15.7,3.5,15.8c1.3,0,1.3-1.3,1.3-1.3"></path>
</g>
<ellipse class="st2" cx="512.2" cy="473.9" rx="40.6" ry="19.5"></ellipse>
<ellipse class="st1" cx="512.2" cy="466.4" rx="40.6" ry="19.5"></ellipse>
<path class="st11" d="M449.4,414.8c0,0-61.9,36.5-69.5,51.4c-7.7,14.9-5.2,38-5.2,38l77.9-83.5L449.4,414.8z"></path>
<g>
	<path class="st12" d="M510.5,369.6c-6.2-2.6-12.9-1.1-14.8,3.4l-3.3,7.9l-53.7,126.9c6.9,1,14.1,2.3,22.7,2.3L516,381.1l-6.3-9.3
		L510.5,369.6z"></path>
	<path class="st12" d="M544.3,436.3c-1.6-12.3-5.2-38.8-28.3-55.3l-54.8,129.3"></path>
</g>
<path class="st12" d="M448.7,414.6c0,0-73.6,78.6-74.1,90.8c-0.5,12.2,107.4,29.2,163.1-42.6c11.9-15.3,3.1-22.5-3.3-29.7
	C528.2,425.9,448.7,414.6,448.7,414.6z"></path>
<path class="st11" d="M459.4,509.4l53.7-113.1L459.4,409c0,0-7.9,67.9-10.6,101.2C452.1,510.8,455.7,508.9,459.4,509.4z"></path>
<path class="st12" d="M537.9,410.3c0,0,11.3,29.2,5.3,42.7c-6.1,13.5-27,49.9-122.6,60.8L537.9,410.3z"></path>
<path class="st2" d="M377.9,312.3l-137,51.7c-6.4,2.4-9.4-4.1-12.9-12.9l-59.3-151.8c-2.9-7.5,2-12.4,16.3-13.2l139.7-13.4
	c10,0,11.8,2.2,16,12.9l48.8,110.7C392.7,304.9,391.7,306.7,377.9,312.3z"></path>
<path class="st1" d="M383.5,290.1l-137,51.7c-6.4,2.4-9.4-4.1-12.9-12.9L174.3,177c-2.9-7.5,2-12.4,16.3-13.2l139.7-13.4
	c10,0,11.8,2.2,16,12.9L395,274.1C398.2,282.7,397.3,284.4,383.5,290.1z"></path>
<line class="st13" x1="369.2" y1="293" x2="360.1" y2="303.3"></line>
<path class="st14" d="M398.7,294.1l-137,51.7c-6.4,2.4-9.4-4.1-12.9-12.9L189.5,181c-2.9-7.5,2-12.4,16.3-13.2l139.7-13.4
	c10,0,11.8,2.2,16,12.9l48.8,110.7C413.4,286.7,412.5,288.4,398.7,294.1z"></path>
<path class="st1" d="M389.9,289.6L267,335.9c-5.8,2.1-8.4-3.6-11.6-11.6l-53.1-136.2c-2.6-6.7,1.8-11.1,14.6-11.9l125.3-12
	c9,0,10.6,2,14.3,11.6l43.7,99.3C403.1,282.9,402.3,284.5,389.9,289.6z"></path>
<path class="st5" d="M507.3,332l-44.7,3.7l-5.6,78.4c0,0,55.1-14.2,71.9-20.6C528.9,393.5,496.6,357.8,507.3,332z"></path>
<path class="st11" d="M529.6,309.7c0,0,7.7,82.8-32.4,93.7c0,0-20.6-1.4-29,3.9c-8.4,5.3-0.5-19.4,2.9-24.6
	C483.8,363,524,330.2,529.6,309.7z"></path>
<path class="st5" d="M447.5,273.3c0,0,11.5-31.4,11.5-36.7c0-5.3-4.1-20.2-4.1-20.2s14-8.9,14.3-27c0,0,7.9,36.3,11.5,42.5
	C484.4,238,466.2,235.5,447.5,273.3z"></path>
<path class="st15" d="M506.7,331c-0.1-5.9,4.3-35.1,4.3-35.1l16.3,4.3c0,0-9.6-19.8-2.7-38.5l-21-22.7c0,0-12.5-24.4-52.6,23.6
	c0,0-16.9,27.8-18.6,41.3c-1.7,13.5-5.2,26.2,3.8,43.8c9,17.5,14-46.6,11.8-14.8"></path>
<path class="st16" d="M502.7,238.5c0,0-17.1-27.7-59.1,37.3c0,0-14.3,11.4-15.7,33c-0.8,11.8,3.2,29.4,8.2,39
	c5.1,9.6,14.3,65.6,13.8,75.7s9.8,45.5,9.8,45.5S454.7,249.3,502.7,238.5z"></path>
<path class="st17" d="M478.7,431.6c0,0-3.4,54.8,33.3,52.9C512,484.5,485.6,492.3,478.7,431.6z"></path>
<polygon class="st17" points="463.8,328.2 506.3,327.6 507.3,332 462.6,335.7 "></polygon>
<path class="st17" d="M502.7,238.5c0,0-48.1,155.6-37.8,222.4L449,509.6l9.2-67.7c0,0-3.3-15.8-1.8-32.7c1.4-16.8,7-96.2,17.6-123.6
	S486.5,237.8,502.7,238.5z"></path>
<path class="st18" d="M422.6,156.1c0,0,14.3-19.5,40.1,3.6c25.8,23.1,29.9,30.9,29.9,30.9S446.7,121.8,422.6,156.1z"></path>
<path class="st19" d="M424.5,150.3c0,0,26.9-25.7,52.8,12.6C477.3,162.9,453.8,128.5,424.5,150.3z"></path>
<g>
	<path class="st12" d="M484.9,204.4c0,0-5.9,3.2-4.6,5c1.3,1.8,4.4-1.3,5.5-2.7c-0.8,2-2.7,5.4-1.2,6.5c1.5,1.1,3.8-4.1,3.8-6
		c-0.1,3.6-0.2,6,1.7,6.7c1.9-0.1,2.3-4.9,1-7.9c1.2,0.8,3.3,2.5,4.1,1.5s-1-4.5-3.9-5c1.3-0.6,5.2-1.3,4.7-3.5s-5.6,0.9-5.6,0.9
		s4.2-5.3,2.8-6.7s-4.7,5.8-4.7,5.8s0-6.8-1.8-6.6c-1.8,0.2-0.5,6.1,0.4,7.3s-2.4-5.1-4.4-2.9c-0.9,1,1,3.7,2.6,5
		c-2.3-0.9-4.6-2.7-5.1-0.6C479.7,203.1,483.5,204.6,484.9,204.4z"></path>
	<path class="st12" d="M487,202.5c0.2-0.5,0.5-0.8,0.9-0.9c0.7-0.2,1.9-0.3,2.1,1.4c0.3,2.3-1.4,2.6-2,2.3
		C487.5,205,486.5,203.7,487,202.5z"></path>
</g>
<path class="st17" d="M419.6,473.2c0,0,1,3.5-1.3,3.8c-1.9,0.2-2.9-2.7-2.2-5.8c0.7-3.1,7.2-5.6,7-2.3c0,0-0.4,1.7-2.1,1.4
	c1.6,1.3,3.2,2.1,2.4,3.5C423,474.9,421,474.9,419.6,473.2z"></path>
<path class="st17" d="M508.4,454.8c0,0,1.8,3.1-0.3,3.9c-1.8,0.6-3.4-1.8-3.5-4.9c-0.1-3.1,5.4-7,6-3.9c0,0,0.1,1.7-1.6,1.8
	c1.8,0.8,3.6,1.2,3.2,2.7C512,455.5,510.1,456.1,508.4,454.8z"></path>
<path class="st20" d="M465.2,391.6c0.1-0.9-0.2-1.8-0.8-2.4c-1.1-1.1-3.3-2.8-5.3-0.7c-2.8,3,0,5.6,1.4,5.9
	C461.7,394.5,464.9,394,465.2,391.6z"></path>
<path class="st16" d="M463.1,406.3c0.1-0.8-0.2-1.5-0.7-2.1c-0.9-0.9-2.8-2.4-4.4-0.6c-2.3,2.5,0,4.7,1.2,4.9
	C460.1,408.8,462.8,408.4,463.1,406.3z"></path>
<path class="st20" d="M466.9,376.3c0.1-0.9-0.2-1.8-0.8-2.4c-1.1-1.1-3.3-2.8-5.3-0.7c-2.8,3,0,5.6,1.4,5.9
	C463.4,379.2,466.6,378.7,466.9,376.3z"></path>
<path class="st16" d="M476.5,327.8c0.2-0.9-0.1-1.8-0.6-2.5c-1-1.2-3-3.1-5.2-1.2c-3,2.7-0.6,5.6,0.8,6
	C472.7,330.4,476,330.3,476.5,327.8z"></path>
<path class="st16" d="M473,342.3c0.2-0.7,0-1.5-0.5-2.1c-0.8-1-2.5-2.6-4.4-1c-2.6,2.3-0.5,4.7,0.7,5
	C469.8,344.5,472.5,344.3,473,342.3z"></path>
<path class="st16" d="M479.6,312.8c0.2-0.9-0.1-1.8-0.6-2.5c-1-1.2-3-3.1-5.2-1.2c-3,2.7-0.6,5.6,0.8,6
	C475.8,315.4,479,315.2,479.6,312.8z"></path>
<path class="st16" d="M492.2,270.2c0.2-0.9,0-1.8-0.5-2.5c-0.9-1.3-2.9-3.2-5.1-1.4c-3.2,2.5-0.8,5.6,0.6,6
	C488.3,272.6,491.5,272.6,492.2,270.2z"></path>
<path class="st16" d="M488,284.4c0.2-0.7,0-1.5-0.4-2.1c-0.8-1.1-2.4-2.7-4.3-1.2c-2.7,2.1-0.7,4.7,0.5,5.1
	C484.7,286.5,487.4,286.5,488,284.4z"></path>
<path class="st16" d="M495.9,255.2c0.2-0.9,0-1.8-0.5-2.5c-0.9-1.3-2.9-3.2-5.1-1.4c-3.2,2.5-0.8,5.6,0.6,6
	C492,257.7,495.3,257.7,495.9,255.2z"></path>
<path class="st21" d="M476.3,218.9c0,0,4.8,3.4,0.7,6.8c-10.1,8.4-23.7,38.8-19.2,15.8"></path>
<path class="st5" d="M419.4,156.9c0,0-8.3,2-0.9,19.7l2.3,8.2c0,0,1,9.7,0.2,11.3c-0.8,1.6-3.8,6.5,1.4,7.1c5.2,0.5,6.2,1.8,5.3,2.8
	s-0.9,1-0.9,1l10.7,3c0,0-2.1,4-4.1,5.6c0,0,2.7-0.5,3.8,4.7c1.2,5.1,10,3.1,11.7,1.6c1.7-1.5,10.9-10.2,14.7-10.2
	c3.8,0,0-21.7,0.1-25.4s-3.6-13.8-8.9-15.1c-5.3-1.3-7.9-6.6-11.7-6.3C439.3,165.3,421.2,160,419.4,156.9z"></path>
<polygon class="st22" points="421.6,172.1 458.8,172.2 460.1,174.3 422.7,175.9 420.8,176.8 419.6,173.2 "></polygon>
<path class="st23" d="M434.6,210.7c0,0-6.1,0.4-7.7-1.5c-1.6-1.9,0-2.2,0-2.2l10.7,3c0,0-1.8,5-4.1,5.6
	C431.1,216.2,428.2,211.8,434.6,210.7z"></path>
<path class="st10" d="M423.9,202l4.5,1C428.4,203,425.2,204,423.9,202z"></path>
<path d="M436,175.8c0,0-1.1,3.7-3.1,3.8s-6.2,1.3-6.2,1.3l-0.6,2.4l0.8,1.4l3.3-1.8C430.3,183,433.3,182.3,436,175.8z"></path>
<path d="M429.7,185.9c0,0,3.9-2.7,3.6-4.5C432.9,179.6,431.4,183.5,429.7,185.9z"></path>
<ellipse transform="matrix(0.9875 -0.1575 0.1575 0.9875 -22.976 75.0543)" class="st5" cx="462.1" cy="182.5" rx="5.2" ry="9.7"></ellipse>
<path class="st10" d="M466.7,201.7c0,0-8.7,12.8-9.7,13.1c-1,0.2,18.1,4.2,19.7,7.6c1.7,3.4-7.5-33-7.5-33S467.7,200.2,466.7,201.7z
	"></path>
<path class="st10" d="M458.3,177.5c0,0,5.9-4.4,7,5.5c0,0,0.8,4.9-0.3,5.3C463.9,188.8,464.8,176.9,458.3,177.5z"></path>
<path class="st24" d="M492.9,234.4c0,0-39.3,102.2-43,189"></path>
<path class="st25" d="M427.7,197.7c0,0,5.6,1.9,2.1,5.3"></path>
<polyline class="st26" points="471.3,501.5 471.1,405.7 477.5,501.8 "></polyline>
<path class="st27" d="M476.3,411.7c0,0,9.7,68.9,44.8,67"></path>
<path class="st24" d="M442.1,369.7c0,0-7.6-33.8,41.1-133.1"></path>
<path class="st28" d="M495.3,292.3l18.5,3.9c0,0-4.4,8.1-5.9,14.9C506.6,317.3,495.3,292.3,495.3,292.3z"></path>
<path class="st24" d="M436.1,347.7c0,0,10.1-61.1,22.2-93.4"></path>
<path class="st29" d="M428.1,463.6c3.8,4.2,17.2-22.8,20.6-9.7c3.4,13.1-33.6,33.1-21.6,30.9s38-28.6,32.5-15.9
	c-5.5,12.7-42.2,40.9-16.9,31.5c25.3-9.4,27.9-24.6,32.3-26.7c7.4-3.5,12.2-66.7,9.1-70.5C471.3,387,419.9,454.6,428.1,463.6z"></path>
<path class="st17" d="M442.5,450.7l-16.9,32.6c0,0,20.9-15.5,23-24.7C450.7,449.3,445.2,444.1,442.5,450.7z"></path>
<path class="st17" d="M434.4,499.8l7.1-22.5l18.1-13.8C459.5,463.5,465.2,480.5,434.4,499.8z"></path>
<path class="st30" d="M474.2,398.9c0,0,9.8-25.5,34-39c24.2-13.5,22-25.8,22-25.8"></path>
<path class="st30" d="M527.5,354c0,0-37.6,19.7-44,44.2"></path>
<line class="st26" x1="476.2" y1="405.1" x2="485.2" y2="503.3"></line>
<path class="st24" d="M448.8,457.4c0,0,28.3-24,27.4-52.3"></path>
<path class="st31" d="M459.6,468.8c0,0,15.4-10,24.5-65.7"></path>
<path class="st11" d="M458.3,428.1c0.4-0.5,0.5-1.2,0.3-1.8c-0.3-1.1-1-2.8-2.9-2.3c-2.7,0.8-2,3.4-1.2,4
	C455.2,428.6,457.3,429.5,458.3,428.1z"></path>
<path class="st17" d="M451.9,436.2c0.3-0.4,0.4-1,0.3-1.5c-0.2-0.9-0.8-2.4-2.5-1.9c-2.3,0.7-1.7,2.8-1,3.4
	C449.2,436.7,451,437.4,451.9,436.2z"></path>
<path class="st11" d="M464.7,419.5c0.4-0.5,0.5-1.2,0.3-1.8c-0.3-1.1-1-2.8-2.9-2.3c-2.7,0.8-2,3.4-1.2,4
	C461.5,420,463.6,420.9,464.7,419.5z"></path>
<path class="st20" d="M485.7,332c0.1-0.5,0-0.9-0.3-1.3c-0.5-0.6-1.6-1.6-2.7-0.6c-1.6,1.4-0.3,2.9,0.4,3.1
	C483.7,333.3,485.4,333.2,485.7,332z"></path>
<path class="st17" d="M517.2,417.6c0,0,1,3.5-1.3,3.8c-1.9,0.2-2.9-2.7-2.2-5.8c0.7-3.1,7.2-5.6,7-2.3c0,0-0.4,1.7-2.1,1.4
	c1.6,1.3,3.2,2.1,2.4,3.5C520.6,419.2,518.6,419.3,517.2,417.6z"></path>
<path class="st17" d="M403.9,497.1c0,0,1,3.5-1.3,3.8c-1.9,0.2-2.9-2.7-2.2-5.8c0.7-3.1,7.2-5.6,7-2.3c0,0-0.4,1.7-2.1,1.4
	c1.6,1.3,3.2,2.1,2.4,3.5C407.3,498.7,405.3,498.7,403.9,497.1z"></path>
<path class="st17" d="M526.8,442.8c0,0,1,3.5-1.3,3.8c-1.9,0.2-2.9-2.7-2.2-5.8s7.2-5.6,7-2.3c0,0-0.4,1.7-2.1,1.4
	c1.6,1.3,3.2,2.1,2.4,3.5C530.2,444.5,528.2,444.5,526.8,442.8z"></path>
<path class="st20" d="M468,205.1c-0.1-1-0.7-1.9-1.5-2.4c-1.4-1-4.2-2.3-5.9,0.5c-2.3,3.9,1.3,6.1,2.9,6
	C464.8,209.2,468.2,207.9,468,205.1z"></path>
<path class="st16" d="M467,197c-0.1-1-0.7-1.9-1.5-2.4c-1.4-1-4.2-2.3-5.9,0.5c-2.3,3.9,1.3,6.1,2.9,6
	C463.9,201,467.2,199.8,467,197z"></path>
<path class="st15" d="M496.5,233.7c0,0,23-3.7,30,16c7,19.7,3.6,64.5,3.6,64.5l-37.7,11.7l-1.4-36.2l19-36.5L496.5,233.7z"></path>
<polygon class="st17" points="489.5,312.1 492.4,325.8 530.1,314.2 530.5,301.1 "></polygon>
<line class="st13" x1="284.3" y1="242.2" x2="288.4" y2="255.3"></line>
<line class="st13" x1="253.1" y1="256.4" x2="266.3" y2="268.7"></line>
<g>
	<path class="st32" d="M315.6,293.8l-40.6,17.2c-5.1,2.3-8.9,0.4-11.1-4.3l-45.3-101.7c-2.7-6.3-1.3-10.7,4.3-11.1l46.5-4.4
		c6.6-0.7,8.7-0.6,11.1,4.3l39.4,88.9C322,287.3,320.9,291.4,315.6,293.8z"></path>
	<path class="st14" d="M320.6,289.9L280,307.1c-5.1,2.3-8.9,0.4-11.1-4.3l-45.3-101.7c-2.7-6.3-1.3-10.7,4.3-11.1l46.5-4.4
		c6.6-0.7,8.7-0.6,11.1,4.3l39.4,88.9C327,283.4,325.8,287.5,320.6,289.9z"></path>
	<path class="st22" d="M333.4,293.8l-40.6,17.2c-5.1,2.3-8.9,0.4-11.1-4.3l-45.3-101.7c-2.7-6.3-1.3-10.7,4.3-11.1l46.5-4.4
		c6.6-0.7,8.7-0.6,11.1,4.3l39.4,88.9C339.8,287.3,338.6,291.4,333.4,293.8z"></path>
	<path class="st14" d="M263.8,212c1.8,4.6,1,9.7-2.9,11.2c-3.9,1.5-9.5-1-11.3-5.6c-1.8-4.6-1-9.7,2.9-11.2
		C256.4,204.8,262,207.3,263.8,212z"></path>
	<line class="st33" x1="269.1" y1="209.6" x2="295.4" y2="205.9"></line>
	<line class="st33" x1="271.8" y1="214.1" x2="298.1" y2="210.4"></line>
	<path class="st14" d="M275.6,237.3c1.8,4.6,1,9.7-2.9,11.2s-9.5-1-11.3-5.6s-1-9.7,2.9-11.2C268.2,230.1,273.7,232.6,275.6,237.3z"></path>
	<line class="st33" x1="280.9" y1="234.9" x2="307.1" y2="231.2"></line>
	<line class="st33" x1="283.6" y1="239.4" x2="309.8" y2="235.7"></line>
	<path class="st14" d="M290.9,264.4c1.8,4.6,1,9.7-2.9,11.2s-9.5-1-11.3-5.6s-1-9.7,2.9-11.2S289.1,259.8,290.9,264.4z"></path>
	<line class="st33" x1="296.2" y1="262" x2="322.5" y2="258.3"></line>
	<line class="st33" x1="298.9" y1="266.5" x2="325.2" y2="262.9"></line>
</g>
<path class="st2" d="M455.2,151.3c0,0-10.7-17.6,3.8-17.8s27.2,8.5,34.7,23.4c7.4,14.9,5,17.9,9.1,25.3c4.1,7.4,2.9,17.1-1.6,24.9
	c0,0,6.8,9.7-3.7,18.2c0,0,4.2,7.9-8,10.1c0,0-2.1-1.3-5.5,3.4c-3.3,4.7-4.8,6.9-9.5,8.4c0,0,0.7,7.1-9,13.7c0,0,0.7,6.1-2.7,11.2
	c0,0,2.2,3.1-0.5,8.9c0,0,3.2,7.7-0.4,15.3c0,0,3.1,5.5-0.9,12.6c-4,7.1-6.2,10.8-5.1,17.4c1.1,6.7-9.6-9.8-4.4-20.6l1.9-4.1
	c0,0-5-7.6,0.9-13.5c0,0-3.5-6.5,2-12.1c0,0-2.3-5.5,0.7-10.5c0,0-3.7-6.1,3.2-14.6c0,0-4.2-12.7,4.4-18.5c0,0-9-13.6,6.4-28.7
	C471,203.6,476.3,188.5,455.2,151.3z"></path>
<path class="st34" d="M476.4,231.6c0,0,24.3-1,25.5-11.7C502,219.8,497.5,227.9,476.4,231.6z"></path>
<path class="st34" d="M465.5,247.6c0,0,5.8-10.7,24.2-13.2C489.8,234.4,478.4,235.6,465.5,247.6z"></path>
<path class="st34" d="M472.7,248.9c0,0-6.9,1.8-10,10c-3.1,8.2-5.6,15.8-5.6,15.8s5.1-17.4,9.3-19.6c4.3-2.2,8.5-6.4,8.5-6.4
	L472.7,248.9z"></path>
<path class="st34" d="M462.2,277.3c0,0,4.3,2-6.7,11.7C455.5,289.1,462.8,281.3,462.2,277.3z"></path>
<path class="st2" d="M414.7,161.3c0,0,19.8-52.8,69.6-17.1c11.8,8.4-3.4,48.5-3.4,48.5S432.8,153.6,414.7,161.3z"></path>
<path class="st2" d="M420.8,153.8c0,0,25.8,9.6,30.1,27.7s3.2,25.3,3.2,25.3S460.5,175.3,420.8,153.8z"></path>
<path class="st34" d="M473,166.7c0,0,7.1,30.7,5.3,46.2s-5,18.2-5,18.2S487.9,217.1,473,166.7z"></path>
<path class="st2" d="M416,158.9c0,0-3.5,0.6-3.4,15.4C412.6,174.3,414.5,162.1,416,158.9z"></path>
<path class="st10" d="M420.5,179.4c0,0,4.2,7.6,6.6,13.7C427.1,193.1,428.4,187.7,420.5,179.4z"></path>
<path class="st10" d="M436.4,192.2c0,0-4.6,2.7-3.2,6.8s3.9,9.1,3.9,9.1S432.1,197.3,436.4,192.2z"></path>
<path class="st17" d="M467.7,212.1c-0.1-0.7-0.5-1.4-1.1-1.8c-1.1-0.7-3.1-1.7-4.3,0.4c-1.7,2.8,0.9,4.5,2.1,4.4
	C465.4,215.1,467.9,214.1,467.7,212.1z"></path>
<path class="st4" d="M416.6,182.7l3-9.5l1.9-1.1c0,0,8.4,19,7.5,22.3s-4.5,2.1-9.2-4.6l-2.7-5.8L416.6,182.7z"></path>
<path class="st22" d="M419.6,173.2l1.9-1.1c0,0,8.3,18.1,7.5,22.3C429.1,194.4,421.9,172.9,419.6,173.2z"></path>
<polygon points="428.1,184.1 430.1,184.9 432.2,181.8 "></polygon>
<polygon class="st10" points="487.9,334.2 472,361.9 477.4,334.5 "></polygon>
<polygon class="st10" points="484.2,407.7 528.9,393.5 483.5,398.1 "></polygon>
<path class="st5" d="M530.1,314.2c0,0,3.3,71.6-1.1,77.8s-48.3,12.5-111-8.5l6.9-15.6c0,0,74.6,6,73.5-8.1
	c-1-13.3-5.9-33.8-5.9-33.8L530.1,314.2z"></path>
<path class="st10" d="M445.8,369.3c0,0-17,6.1-27.9,12.1c-7.7,4.2,6.9-13.6,6.9-13.6L445.8,369.3z"></path>
<path class="st35" d="M432.7,368.4c0,0-0.8-2.9-3.9-1.8c-3.1,1.2-15.2,16.9-13.5,18.4c1.6,1.5,4.9-1.1,4.9-1.1"></path>
<path class="st35" d="M434.6,368.9c0,0-0.8-2.9-3.9-1.8c-3.1,1.2-15.2,16.9-13.5,18.4c1.6,1.5,4.2-0.6,4.2-0.6"></path>
<path class="st35" d="M437.7,368.7c0,0-0.8-2.9-3.9-1.8c-3.1,1.2-15.2,16.9-13.5,18.4c1.6,1.5,3.2,0.3,3.2,0.3"></path>
<path class="st35" d="M430.9,367.9c0,0-0.8-2.9-3.9-1.8c-3.1,1.2-15.2,16.9-13.5,18.4c1.6,1.5,4.9-1.1,4.9-1.1"></path>
<polygon class="st10" points="492.4,325.8 498.4,356.9 514.3,319.3 "></polygon>
<path class="st34" d="M485.6,160.5c0,0,10.7,20.6,10.6,36s-8.6,26.9-18.5,31.7C477.7,228.1,506.8,210.4,485.6,160.5z"></path>
<path class="st34" d="M484.8,163.1c0,0-5.7,8-1.5,18.5c4.2,10.5,5.5,32-1.4,41.8c0,0,11.4-13,3.2-45.6
	C485.1,177.9,482.3,173,484.8,163.1z"></path>
<path class="st34" d="M451,169.8c0,0,18.2,9.6,21.2,30C472.2,199.8,478.6,177.6,451,169.8z"></path>
<path class="st34" d="M461.9,296.2c0,0-12.1,8.5-11.2,18C450.6,314.2,449.6,299.1,461.9,296.2z"></path>
<path class="st34" d="M462.5,304.7c0,0,5.6-1.5-4.4,33.5c0,0-4.6,13.7-0.7,26.1c0,0-10.8-31.2-3.7-48.1
	C460.8,299.3,462.5,304.7,462.5,304.7z"></path>
<path class="st34" d="M488.5,234.4c0,0,0,5.4-10.3,13.7c-10.3,8.3-11.2,16.9-11.2,16.9"></path>
<polygon class="st36" points="487.2,295.7 489.5,312.1 484.5,322.8 479.8,326.9 "></polygon>
<ellipse transform="matrix(7.477177e-02 -0.9972 0.9972 7.477177e-02 56.9987 708.0966)" class="st2" cx="410.1" cy="323.3" rx="6.1" ry="12"></ellipse>
<ellipse transform="matrix(7.477177e-02 -0.9972 0.9972 7.477177e-02 58.6554 706.6643)" class="st1" cx="410.1" cy="321.7" rx="6.1" ry="12"></ellipse>
<path class="st35" d="M398.2,320.8c0,0,4.9-1.7,10.2-0.9"></path>
<path class="st17" d="M498.7,249.6c0,0,4.2-14.1,9.8-17.2c5.8-3.2-12-0.6-12-0.6s-6.6,5.1-10.3,20.1
	C486.2,251.9,496.1,247.2,498.7,249.6z"></path>
<polygon class="st37" points="509.3,231.1 513.2,235.6 506.5,233.8 "></polygon>
<ellipse class="st14" cx="560.2" cy="347.7" rx="7.1" ry="10.1"></ellipse>
<ellipse class="st38" cx="577.7" cy="399.2" rx="8.4" ry="13.5"></ellipse>
<path class="st34" d="M434.3,144c0,0,35-10.2,41.1,31.2C475.3,175.2,470.6,144.5,434.3,144z"></path>
</svg>
