<svg id="b80cb2a8-6168-4814-8ad2-b6c8efd7b6c9" data-name="Layer 1" xmlns="http://www.w3.org/2000/svg" viewBox="0 0 1145.6 819.9"><title>level-lock</title><path d="M1097.42,607.14c-26.6,54.8-80.5,91.5-136.4,115.6-75.3,32.5-158.2,45.5-239.9,40-14.3-1-28.6-2.5-42.8-4.6A542,542,0,0,1,535,716.44c-13.2-5.9-26.1-12.4-38.7-19.4a502.58,502.58,0,0,1-60.5-39.5c-4.8-3.7-9.6-7.5-14.3-11.3-3.2-2.7-6.5-5.4-9.7-8.1-6.9-5.6-14-10.9-21.9-14.9a67.31,67.31,0,0,0-7.3-3.2c-25.1-9.5-54-5.9-80.1,1.5-19.9,5.7-39.2,13.4-59.1,18.9a204.12,204.12,0,0,1-26.9,5.7,142.5,142.5,0,0,1-60.5-5.3l-1.7-.5c-2.8-.9-5.6-1.8-8.3-2.9l-1.7-.6q-4-1.5-7.8-3.3l-1.7-.8q-4-1.8-7.8-3.9l-2.7-1.5a165.42,165.42,0,0,1-39.2-30.5,9.43,9.43,0,0,0-1-1c-1.6-1.7-3.1-3.5-4.7-5.3l-1.7-2c-1.8-2.2-3.5-4.4-5.2-6.7-.2-.3-.5-.7-.7-1a146.42,146.42,0,0,1-16.9-30.5c-.1-.3-.3-.7-.4-1-1.3-3.4-2.6-6.9-3.7-10.5-.4-1.5-.9-3-1.3-4.5a6.47,6.47,0,0,0-.4-1.3c-5.5-21.7-6.2-44.3-6.2-66.8v-7.9c.2-36.3.7-73.3,6.1-109.1,0-.2.1-.5.1-.7a333.88,333.88,0,0,1,7.3-35.8,258.43,258.43,0,0,1,12.3-36.3c12.3-29,30.3-55.4,50.2-79.9C169.42,135,235.12,83.34,312.12,64c83-20.8,175.1-.9,242.1,52.4,20.4,16.2,38.7,35.5,61.6,47.9,20,10.8,43.4,15.3,64.8,6.8,17.7-7.1,29.2-10.6,49.1-9.5a410.53,410.53,0,0,1,120.4,25.2c1.6.6,3.1,1.2,4.7,1.8,100.7,38.5,187.2,115.1,232.2,213.5,1.2,2.6,2.3,5.2,3.5,7.9C1117.32,472.64,1127,546,1097.42,607.14Z" fill="#ededf2"/><path d="M100.12,164.45h922.4a12.59,12.59,0,0,1,12.5,12.66V687.58a12.58,12.58,0,0,1-12.5,12.66H100.12a12.58,12.58,0,0,1-12.5-12.66V177.11A12.66,12.66,0,0,1,100.12,164.45Z" fill="#fff"/><path d="M1022.52,700.74H100.12a13.1,13.1,0,0,1-13-13.16V177.11a13.24,13.24,0,0,1,13-13.16h922.4a13.1,13.1,0,0,1,13,13.16V687.58A13.09,13.09,0,0,1,1022.52,700.74ZM100.12,165a12.08,12.08,0,0,0-12,12.16V687.58a12.09,12.09,0,0,0,12,12.15h922.4a12.09,12.09,0,0,0,12-12.15V177.11a12.09,12.09,0,0,0-12-12.15Z" fill="#a2a2bc"/><path d="M1030.32,165.14H92.52a4.8,4.8,0,0,0-4.8,4.8v20.3H1035v-20.3A4.85,4.85,0,0,0,1030.32,165.14Z" fill="#5a5773"/><circle cx="106.62" cy="177.74" r="6.5" fill="#fff"/><circle cx="124.12" cy="177.74" r="6.5" fill="#fff"/><circle cx="141.62" cy="177.74" r="6.5" fill="#fff"/><rect x="437.12" y="251.24" width="254.2" height="21.6" fill="#f0f0f7"/><rect x="165.72" y="324.14" width="791.4" height="332" fill="#f0f0f7"/><path d="M629,347.84h-13.5v-26.3c0-29.7-23.7-54.4-53.4-54.8a54.2,54.2,0,0,0-54.8,53.7v27.4h-13.5a22.68,22.68,0,0,0-22.6,22.5v108.2a22.56,22.56,0,0,0,22.6,22.5H629a22.53,22.53,0,0,0,22.5-22.5V370.34A22.47,22.47,0,0,0,629,347.84Zm-59.7,70.3v38.8a8.09,8.09,0,0,1-7.5,8.1,7.93,7.93,0,0,1-8.3-7.5v-39.4a18,18,0,1,1,24.1-8.3,18.52,18.52,0,0,1-8.3,8.3Zm30.4-70.3H523v-27.1a38.3,38.3,0,1,1,76.6,0Z" fill="#dfdfef"/><path d="M629,343.84h-13.5v-26.3c0-29.7-23.7-54.4-53.4-54.8a54.2,54.2,0,0,0-54.8,53.7v27.4h-13.5a22.68,22.68,0,0,0-22.6,22.5v108.2a22.56,22.56,0,0,0,22.6,22.5H629a22.53,22.53,0,0,0,22.5-22.5V366.34A22.47,22.47,0,0,0,629,343.84Zm-59.7,70.3v38.8a8.09,8.09,0,0,1-7.5,8.1,7.93,7.93,0,0,1-8.3-7.5v-39.4a18,18,0,1,1,24.1-8.3,18.52,18.52,0,0,1-8.3,8.3Zm30.4-70.3H523v-27.1a38.3,38.3,0,1,1,76.6,0Z" fill="#aa9fc3"/><rect x="876.92" y="292.14" width="80.1" height="18.9" fill="#f0f0f7"/><ellipse cx="127.52" cy="737.44" rx="71.5" ry="11.5" fill="#ededf2"/><rect x="125.22" y="517.44" width="4.6" height="103.6" fill="#535461"/><path d="M158.72,620.74l-.3,4.7-.4,6.5-.2,2.8-.4,6.6-.2,2.8-.4,6.6-4.6,74.9a12.68,12.68,0,0,1-12.6,11.9h-24.1a12.61,12.61,0,0,1-12.6-11.9l-4.7-74.9-.4-6.6-.2-2.8-.4-6.6-.2-2.8-.4-6.6-.3-4.7a6.66,6.66,0,0,1,6.2-7h49.7a6.59,6.59,0,0,1,6.6,6.6A.9.9,0,0,1,158.72,620.74Z" fill="#5a5773"/><polygon points="158.52 625.44 158.02 631.94 97.02 631.94 96.62 625.44 158.52 625.44" fill="#9d9cb5"/><polygon points="157.92 634.74 157.52 641.34 97.52 641.34 97.12 634.74 157.92 634.74" fill="#9d9cb5"/><polygon points="157.32 644.04 156.92 650.64 98.22 650.64 97.72 644.04 157.32 644.04" fill="#9d9cb5"/><path d="M89.52,556.24c26.8,19.4,38,49.7,38,49.7s-32.3-1.1-59.1-20.5-38-49.7-38-49.7S62.72,536.94,89.52,556.24Z" fill="#aa9fc3"/><path d="M127.17,606.83C125.45,606,84.82,585.74,74,570.31c-10.55-15-43.63-33.51-44-33.7l1-1.75c1.38.77,33.83,18.89,44.64,34.3,10.53,15,52,35.68,52.42,35.88Z" fill="#535461"/><path d="M106.92,517.34c14.6,10.5,20.7,27.1,20.7,27.1s-17.6-.6-32.2-11.2-20.7-27.1-20.7-27.1S92.32,506.64,106.92,517.34Z" fill="#aa9fc3"/><path d="M127.18,545.13c-1-.46-23.2-11.51-29.18-20C92.3,517,74.41,507,74.23,506.91l1-1.75c.75.42,18.47,10.31,24.44,18.8,5.68,8.1,28.19,19.27,28.42,19.38Z" fill="#535461"/><path d="M148.72,543.44c-16.7,18.4-20.3,42.5-20.3,42.5s23.7-5.8,40.3-24.2c16.8-18.4,20.3-42.4,20.3-42.4S165.42,524.94,148.72,543.44Z" fill="#aa9fc3"/><path d="M129,586.72l-1.24-1.57c.27-.21,27.56-21.79,33-34.41,5.63-13.06,26.77-31.48,27.66-32.26l1.31,1.51c-.21.19-21.69,18.9-27.13,31.54C157,564.62,130.18,585.83,129,586.72Z" fill="#535461"/></svg>