<svg id="b49c538b-d2f0-4d56-8d1f-7f4005552b2e" data-name="Layer 1" xmlns="http://www.w3.org/2000/svg" width="809.83511" height="872.15034" viewBox="0 0 809.83511 872.15034"><title>completed</title><circle cx="436.83511" cy="499.15034" r="373" fill="#f2f2f2"/><path d="M414.10287,447.11594a30.11371,30.11371,0,0,0,3.98291-15.266c0-13.79652-8.54358-24.98081-19.08256-24.98081s-19.08256,11.18429-19.08256,24.98081a30.11411,30.11411,0,0,0,3.98291,15.266,31.248,31.248,0,0,0,0,30.53213,31.248,31.248,0,0,0,0,30.53208,31.248,31.248,0,0,0,0,30.53208,30.11408,30.11408,0,0,0-3.98291,15.266c0,13.79652,8.54353,24.98081,19.08256,24.98081s19.08256-11.18429,19.08256-24.98081a30.11368,30.11368,0,0,0-3.98291-15.266,31.248,31.248,0,0,0,0-30.53208,31.248,31.248,0,0,0,0-30.53208,31.248,31.248,0,0,0,0-30.53213Z" transform="translate(-195.08244 -13.92483)" fill="#3f3d56"/><ellipse cx="203.92076" cy="387.393" rx="19.08256" ry="24.9808" fill="#3f3d56"/><ellipse cx="203.92076" cy="356.86091" rx="19.08256" ry="24.9808" fill="#3f3d56"/><path d="M470.43871,161.84489a91.61081,91.61081,0,0,0,7.10658-10.46092l-50.141-8.23491,54.22885.4033a91.566,91.566,0,0,0,1.74556-72.426L410.62418,108.8677l67.09658-49.32086a91.41255,91.41255,0,1,0-150.971,102.298,91.45842,91.45842,0,0,0-10.42451,16.66946l65.0866,33.81447-69.40046-23.292a91.46011,91.46011,0,0,0,14.73837,85.83669,91.40575,91.40575,0,1,0,143.68892,0,91.41808,91.41808,0,0,0,0-113.02862Z" transform="translate(-195.08244 -13.92483)" fill="#38a169"/><path d="M307.1885,218.3592a91.01343,91.01343,0,0,0,19.56129,56.51431,91.40575,91.40575,0,1,0,143.68892,0C482.68982,259.32067,307.1885,208.10008,307.1885,218.3592Z" transform="translate(-195.08244 -13.92483)" opacity="0.1"/><path d="M900.66632,759.46878c-23.65362,84.287-206.16663,162.4611-400.25283,107.99432S174.1644,646.51415,197.818,562.22713s194.16663-54.46109,388.25283.00569S924.32,675.18177,900.66632,759.46878Z" transform="translate(-195.08244 -13.92483)" fill="#3f3d56"/><path d="M900.66632,759.46878c-23.65362,84.287-206.16663,162.4611-400.25283,107.99432S174.1644,646.51415,197.818,562.22713s194.16663-54.46109,388.25283.00569S924.32,675.18177,900.66632,759.46878Z" transform="translate(-195.08244 -13.92483)" opacity="0.1"/><ellipse cx="549.24217" cy="660.84796" rx="158.51081" ry="365" transform="translate(-430.51054 997.17954) rotate(-74.32419)" fill="#3f3d56"/><ellipse cx="294.83511" cy="652.15034" rx="107" ry="31" opacity="0.1"/><path d="M621.67318,487.68009l-135.333,135.33319-56.881-56.88163a19.44416,19.44416,0,0,0-27.49819-.00013l-2.04342-3.05635c-7.59348,7.59341-5.55011,22.9612,2.04335,30.55464l73.80253,73.80235a14.83616,14.83616,0,0,0,20.976.00546l152.41792-152.259c7.59835-7.59043,10.35467-21.50914,2.76019-29.10343h0C644.326,478.48381,629.26463,480.08863,621.67318,487.68009Z" transform="translate(-195.08244 -13.92483)" fill="#57b894"/><path d="M621.67318,487.68009l-135.333,135.33319-56.881-56.88163a19.44416,19.44416,0,0,0-27.49819-.00013l-2.04342-3.05635c-7.59348,7.59341-5.55011,22.9612,2.04335,30.55464l73.80253,73.80235a14.83616,14.83616,0,0,0,20.976.00546l152.41792-152.259c7.59835-7.59043,10.35467-21.50914,2.76019-29.10343h0C644.326,478.48381,629.26463,480.08863,621.67318,487.68009Z" transform="translate(-195.08244 -13.92483)" opacity="0.1"/><path d="M621.67318,481.68009l-135.333,135.33319-56.881-56.88163a19.44416,19.44416,0,0,0-27.49819-.00013l0,0a19.44414,19.44414,0,0,0,0,27.49826l73.80253,73.80235a14.83616,14.83616,0,0,0,20.976.00546l152.41792-152.259a19.43931,19.43931,0,0,0,.007-27.49867l0,0A19.43931,19.43931,0,0,0,621.67318,481.68009Z" transform="translate(-195.08244 -13.92483)" fill="#57b894"/><path d="M687.57455,712.05039s-12.10288,3.63087-18.15432,10.8926c0,0-10.8926,4.84115-17.54918,3.63086s-18.75947,10.89259-9.07716,14.52346,68.98642,13.31317,70.19671,10.28745,1.21029-33.88807,1.21029-33.88807Z" transform="translate(-195.08244 -13.92483)" fill="#575a89"/><path d="M782.64455,706.85365s-11.30486,5.64474-16.027,13.83337c0,0-9.90564,6.63052-16.67112,6.575s-16.62329,13.93673-6.4631,15.86045,70.24662,1.33431,70.92231-1.85367-4.59574-33.5968-4.59574-33.5968Z" transform="translate(-195.08244 -13.92483)" fill="#575a89"/><circle cx="512.15929" cy="255.46267" r="27.23148" fill="#ffb9b9"/><path d="M729.32949,273.92608s3.02572,20.5749,8.472,22.99548a40.2077,40.2077,0,0,1,10.28745,7.26173L732.96035,311.445l-29.652-1.81544s2.42057-13.31317-1.81544-19.96975S729.32949,273.92608,729.32949,273.92608Z" transform="translate(-195.08244 -13.92483)" fill="#ffb9b9"/><path d="M785.60789,371.35428s13.91831,35.7035,0,70.19671-19.96976,39.93951-19.96976,39.93951l-4.236-45.3858,4.87082-4.4189s2.94952-13.76938.55221-21.92185,1.23355-33.56852,1.23355-33.56852Z" transform="translate(-195.08244 -13.92483)" fill="#ffb9b9"/><path d="M681.52311,448.81272s-17.54918,39.93951-15.73375,59.30412S681.52311,609.1759,681.52311,609.1759,679.70768,714.471,685.154,714.471s31.46749,9.6823,31.46749,3.02572,5.4463-166.41462,5.4463-166.41462,30.86235,70.19671,33.88807,75.643,22.39033,90.77161,29.04691,90.77161,27.23149-6.05144,25.41606-10.28745S788.02847,608.57076,776.53073,584.365s-9.07716-115.58251-9.07716-115.58251L748.089,426.42239Z" transform="translate(-195.08244 -13.92483)" fill="#2f2e41"/><path d="M699.07229,256.98205s-16.944-1.21029-18.15433-5.4463-3.63086-7.86687-2.42057-7.86687,1.81543-3.02572,1.81543-3.02572,1.21029-.60514,1.81543,0,1.21029-4.236,1.21029-4.236.60514-1.81543,1.21029-.60514.60514.60514,1.21029-1.21029S689.39,231.566,689.39,231.566s11.49774.60514,13.31317-1.81543,22.39033-.60515,26.62634,2.42057,22.99547,13.91832,19.96975,22.99548-13.91831,29.04691-13.91831,32.07263-4.236,2.42058-5.4463-.60514-10.89259-6.65659-10.89259-8.472-5.4463-18.75946-8.472-17.54918-6.65658,10.8926-7.86687,9.07717S699.07229,256.98205,699.07229,256.98205Z" transform="translate(-195.08244 -13.92483)" fill="#3f3d56"/><path d="M782.58217,339.88679s-24.81091-36.30865-32.07264-38.12408-23.60062-6.65658-23.60062-6.65658-16.33889,2.42057-21.18,4.84115-22.99547,6.65658-23.60062,13.91831,4.84116,76.8533,1.81543,83.50988-13.31316,70.19672-8.472,68.98643,1.21029-16.944,22.39033-17.54918,32.67778-13.31317,40.54465,1.81543,30.2572,26.62634,30.2572,26.62634a146.40876,146.40876,0,0,1,2.42058-14.52346c1.81543-8.472-4.84115-29.04691-4.84115-29.04691s.60514-47.80638,3.02572-53.25268S782.58217,339.88679,782.58217,339.88679Z" transform="translate(-195.08244 -13.92483)" fill="#575a89"/><path d="M773.505,338.6765l9.07716,1.21029s-.60515,12.10288,1.81543,15.73374,6.65659,22.39033,4.236,22.99548-24.20576,4.236-24.20576,4.236l-1.21029-27.83663Z" transform="translate(-195.08244 -13.92483)" fill="#575a89"/><path d="M675.47167,360.46169s-6.05144,39.33436-9.07716,44.17551-18.15433,72.61729-18.15433,72.61729-24.87763,34.596-12.77475,33.99086,24.87764-31.57028,24.87764-31.57028,37.51893-68.38128,37.51893-75.643,9.07716-43.57037,9.07716-43.57037Z" transform="translate(-195.08244 -13.92483)" fill="#ffb9b9"/><path d="M693.02085,307.209l-10.8926,4.236s-13.91831,49.62181-10.89259,53.85782,39.33436-1.81543,39.93951-3.63087S704.51858,307.209,693.02085,307.209Z" transform="translate(-195.08244 -13.92483)" fill="#575a89"/><path d="M206.47444,434.718c0,42.17026,26.45541,76.2939,59.14921,76.2939" transform="translate(-195.08244 -13.92483)" fill="#3f3d56"/><path d="M265.62365,511.01194c0-42.64408,29.5227-77.15113,66.00709-77.15113" transform="translate(-195.08244 -13.92483)" fill="#38a169"/><path d="M227.90532,438.54084c0,40.05727,16.87011,72.4711,37.71833,72.4711" transform="translate(-195.08244 -13.92483)" fill="#38a169"/><path d="M265.62365,511.01194c0-54.48966,34.12364-98.582,76.29391-98.582" transform="translate(-195.08244 -13.92483)" fill="#3f3d56"/><path d="M253.18018,511.54983s8.38833-.25836,10.91636-2.05853,12.90337-3.94969,13.53051-1.0626,12.60611,14.35907,3.13572,14.43546-22.005-1.47516-24.52812-3.01212S253.18018,511.54983,253.18018,511.54983Z" transform="translate(-195.08244 -13.92483)" fill="#a8a8a8"/><path d="M280.93178,521.85915c-9.47038.07641-22.005-1.47514-24.52812-3.01211-1.92153-1.17048-2.68724-5.37044-2.94344-7.30813-.17743.00762-.28.01091-.28.01091s.53129,6.76525,3.05446,8.30221,15.05774,3.08853,24.52813,3.01212c2.73372-.02205,3.678-.99467,3.62615-2.4352C284.00915,521.29928,282.96653,521.84275,280.93178,521.85915Z" transform="translate(-195.08244 -13.92483)" opacity="0.2"/></svg>