<svg xmlns="http://www.w3.org/2000/svg" viewBox="0 0 512 512"><style><![CDATA[.B{fill-rule:evenodd}.C{fill:#1f0d40}.D{fill:#976ae2}]]></style><path d="M153.1 419.94c-37.95-13.52-62.2-46.34-66.56-90-3.65-36.68 7.6-78 31.66-116.28 23.7-37.74 57.58-69.18 95.4-88.52a189.54 189.54 0 0 1 45-16.55l.3 1.36a188.84 188.84 0 0 0-44.71 16.43c-37.58 19.23-71.27 50.5-94.84 88-23.9 38-35.07 79-31.45 115.4 4.3 43.13 28.22 75.5 65.64 88.85zm79.44 1.5l-.35-1.35a206.38 206.38 0 0 0 41.55-16 243.6 243.6 0 0 0 105.41-105.45c22.2-43.57 27.58-89.54 14.76-126.13-9.76-28.28-29.66-48.78-57.56-59.28l.5-1.3c28.3 10.65 48.5 31.44 58.4 60.12 12.94 36.94 7.53 83.32-14.83 127.22a245.14 245.14 0 0 1-106 106 207.7 207.7 0 0 1-41.86 16.17z" fill="#b08ee6"/><path d="M245.8 280.1a36 36 0 0 1 9.48-14.87 12.16 12.16 0 0 0 9 7.06 11.61 11.61 0 0 0 11.89-5.35 12.12 12.12 0 0 0 .74-11.17 33.26 33.26 0 0 1 16.24 3.08c15.87 7.4 23.7 26.75 17.95 43.67-6.25 18.4-25.93 28.7-44.1 22.38-17.66-6.13-27.38-26.37-21.2-44.8zm-30.2-103.76c5-2.4 6.58-8.47 3.56-13.64l-31.65-54.25c-3.23-5.54-10.24-8.37-15.7-6.27s-7.28 8.44-3.92 14.07l32.88 55a12.47 12.47 0 0 0 9.29 6 10.35 10.35 0 0 0 5.54-.91zm72-17.58V105.6a12 12 0 0 0-9.22-11.36c-5.18-1-9.42 2.43-9.42 7.78v54.25a11.14 11.14 0 0 0 9.42 10.85 8.09 8.09 0 0 0 9.22-8.36zM344.77 187l22.7-39c2.17-3.73 1-9.24-2.57-12.34s-8.4-2.65-10.65 1.1l-23.42 39.32c-2.38 4-1.13 9.7 2.78 12.7a8.35 8.35 0 0 0 4.24 1.75 7 7 0 0 0 6.93-3.55z" fill="#4d1e9a" class="B"/><path d="M378.06 269.87c-17.76-28-57.9-81.34-109.46-86.55-58-5.86-114.5 49.94-143.62 84.56C112.9 282.25 112.9 302 125 316c29.1 33.77 85.58 87.9 143.62 80.33 51.55-6.72 91.7-61.2 109.46-89.78a35.15 35.15 0 0 0-.02-36.68zm-45.55 25.76c-2.8 31.07-26.17 58.2-56.9 64.2-45.1 8.77-86.32-28-81.22-76.75 3.74-35.78 33.1-63 67.1-64.33 42.3-1.67 74.76 35.26 71.02 76.9z" fill="#d69e2e" class="B"/><path d="M251.4 280.1a36 36 0 0 1 9.47-14.87 12.2 12.2 0 0 0 9 7.06 11.61 11.61 0 0 0 11.9-5.35 12.15 12.15 0 0 0 .74-11.17 33.26 33.26 0 0 1 16.24 3.08c15.87 7.4 23.7 26.75 18 43.67-6.26 18.4-25.93 28.7-44.1 22.38-17.7-6.13-27.44-26.37-21.24-44.8z" class="B D"/><path d="M283.55 327.47a34.24 34.24 0 0 1-11.23-1.91c-18.24-6.34-27.93-26.83-21.6-45.68l.67.22-.67-.22a37.14 37.14 0 0 1 9.67-15.16l.7-.67.4.9a11.41 11.41 0 0 0 8.5 6.65 11 11 0 0 0 11.17-5 11.38 11.38 0 0 0 .7-10.53l-.4-.9 1-.06a34.15 34.15 0 0 1 16.53 3.12c16.2 7.54 24.24 27.1 18.3 44.53a36.37 36.37 0 0 1-18.55 21.16 34.56 34.56 0 0 1-15.21 3.56zm-22.9-61.07a35.59 35.59 0 0 0-8.61 13.92c-6 17.82 3.5 37.93 20.72 43.92a32.88 32.88 0 0 0 25.39-1.58A35 35 0 0 0 316 302.3c5.7-16.77-2-35.58-17.58-42.82a33 33 0 0 0-14.95-3.06 12.73 12.73 0 0 1-1.14 10.88 12.24 12.24 0 0 1-12.62 5.7 13 13 0 0 1-9.05-6.6z" class="C"/><path d="M394.8 271.27c-17.76-28-57.92-81.35-109.46-86.55-58-5.86-114.52 49.93-143.62 84.56-12.08 14.37-12.08 34.1 0 48.1 29.1 33.76 85.57 87.9 143.62 80.32 51.54-6.72 91.7-61.2 109.46-89.77a35.15 35.15 0 0 0 0-36.67zM349.25 297c-2.8 31.07-26.18 58.2-56.9 64.18-45.1 8.78-86.3-28-81.2-76.74 3.73-35.78 33.1-63 67.1-64.33 42.28-1.64 74.77 35.26 71.02 76.9z" fill="#ecc94b" class="B"/><path d="M274.25 399.12c-54.5 0-106.14-50-133.06-81.28-12.28-14.25-12.28-34.4 0-49 28.76-34.2 85.73-90.7 144.23-84.8 22.67 2.3 45.48 14 67.8 34.9 18.75 17.53 33.28 37.94 42.17 52a35.86 35.86 0 0 1 0 37.41c-8.9 14.3-23.42 35.13-42.17 53.2-22.3 21.52-45.12 33.93-67.8 36.9a87.53 87.53 0 0 1-11.19.68zM276.82 185c-54.86 0-107.38 52.4-134.57 84.73-11.83 14.08-11.83 33.5 0 47.2 28.57 33.15 85.15 87.65 143 80.1 21.68-2.83 64.67-18.2 109-89.45a34.45 34.45 0 0 0 0-35.93c-44.28-69.93-87.26-84-108.94-86.23q-4.3-.42-8.5-.42zm2.1 178.22a68 68 0 0 1-46.16-18C216.12 330 208 307.82 210.43 284.4c3.73-35.65 32.86-63.57 67.77-64.95a67.54 67.54 0 0 1 52.24 21.27 72.39 72.39 0 0 1 19.5 56.38l-.7-.06.7.06c-2.84 31.62-27 58.88-57.47 64.8a71.1 71.1 0 0 1-13.56 1.31zm2.1-142.44q-1.38 0-2.76.06c-34.23 1.35-62.8 28.73-66.44 63.7-2.4 23 5.57 44.72 21.88 59.65a66.88 66.88 0 0 0 58.51 16.34c29.86-5.8 53.56-32.54 56.34-63.56a71 71 0 0 0-19.12-55.3A66.1 66.1 0 0 0 281 220.78z" class="C"/><path d="M222.57 173.55c5-2.4 6.58-8.47 3.57-13.64l-31.66-54.25c-3.23-5.54-10.24-8.37-15.7-6.27s-7.27 8.45-3.92 14.07l32.88 55a12.49 12.49 0 0 0 9.29 6 10.35 10.35 0 0 0 5.54-.91z" class="B D"/><path d="M218.2 175.22c-.4 0-.82 0-1.23-.07a13.1 13.1 0 0 1-9.82-6.31l-32.87-55a11.27 11.27 0 0 1-1.27-9.44 9.22 9.22 0 0 1 5.53-5.64c5.73-2.2 13.15.74 16.55 6.57l31.66 54.25a11.09 11.09 0 0 1 1.18 8.79 9.54 9.54 0 0 1-5 5.83 10.9 10.9 0 0 1-4.73 1.02zM182.63 99.4a10 10 0 0 0-3.6.65 7.84 7.84 0 0 0-4.71 4.79 9.9 9.9 0 0 0 1.14 8.27l32.88 55a11.9 11.9 0 0 0 8.77 5.65 9.76 9.76 0 0 0 5.16-.85 8.07 8.07 0 0 0 4.31-5 9.71 9.71 0 0 0-1-7.68L193.88 106a13.46 13.46 0 0 0-11.25-6.61z" class="C"/><path d="M294.57 156v-53.2a12 12 0 0 0-9.23-11.36 7.6 7.6 0 0 0-9.42 7.78v54.25a11.14 11.14 0 0 0 9.42 10.85 8.1 8.1 0 0 0 9.23-8.33z" class="B D"/><path d="M286.46 165.1a9.93 9.93 0 0 1-1.21-.07 11.85 11.85 0 0 1-10-11.54V99.23a8.61 8.61 0 0 1 3-6.84 8.48 8.48 0 0 1 7.21-1.62 12.79 12.79 0 0 1 9.79 12V156a9.12 9.12 0 0 1-3 7 8.64 8.64 0 0 1-5.79 2.09zM283.52 92a6.8 6.8 0 0 0-4.37 1.51 7.24 7.24 0 0 0-2.53 5.76v54.25a10.43 10.43 0 0 0 8.8 10.16 7.44 7.44 0 0 0 5.92-1.75 7.74 7.74 0 0 0 2.53-5.92v-53.2a11.31 11.31 0 0 0-8.67-10.67 8.21 8.21 0 0 0-1.68-.14z" class="C"/><path d="M351.74 184.23l22.7-39c2.17-3.73 1-9.24-2.57-12.34s-8.4-2.65-10.64 1.12l-23.43 39.3c-2.38 4-1.12 9.7 2.78 12.7a8.49 8.49 0 0 0 4.25 1.76 7 7 0 0 0 6.92-3.56z" class="B D"/><path d="M345.58 188.53a7.87 7.87 0 0 1-.84 0 9.13 9.13 0 0 1-4.59-1.89c-4.2-3.22-5.5-9.34-3-13.63l23.43-39.3a7 7 0 0 1 4.92-3.42 8.41 8.41 0 0 1 6.78 2.13c3.82 3.3 5 9.23 2.7 13.22l-22.7 39a7.76 7.76 0 0 1-6.72 3.9zm21.1-57a5.51 5.51 0 0 0-4.86 2.83l-23.43 39.32c-2.2 3.7-1 9 2.6 11.8a7.75 7.75 0 0 0 3.89 1.61 6.31 6.31 0 0 0 6.25-3.22l22.7-39c2-3.44.9-8.58-2.42-11.46a7.35 7.35 0 0 0-4.73-1.87z" class="C"/></svg>