<svg id="Layer_1" data-name="Layer 1" xmlns="http://www.w3.org/2000/svg" viewBox="0 0 40 40"><defs><style>.cls-1{fill:#97c6dd;}.cls-2,.cls-8,.cls-9{fill:none;}.cls-2{fill-rule:evenodd;}.cls-3{fill:#afd8ee;}.cls-4{fill:#497fab;}.cls-5{fill:#487eaa;}.cls-6{fill:#b0d8f1;}.cls-7{fill:#497ea8;}.cls-9{stroke:#497ea8;stroke-linecap:round;stroke-miterlimit:10;}</style></defs><title>Untitled-7</title><path class="cls-1" d="M14.61,30.46V27.88s-0.85-2.54-4.92-2.77L7.31,27.49,4.92,25.11a6.43,6.43,0,0,0-3.72,1.24,20,20,0,0,0,7,9.66C11.14,35.11,14.61,30.46,14.61,30.46Z"/><path class="cls-2" d="M7.31,23.82c0.79,0,2.84-1.65,2.84-3.69s-0.53-3.69-2.84-3.69c-2.11,0-2.84,1.65-2.84,3.69S6.52,23.82,7.31,23.82Z"/><path class="cls-3" d="M9.72,20.13a3.75,3.75,0,0,1-2.41,3.26A3.74,3.74,0,0,1,4.9,20.13c0-2.16.81-3.26,2.41-3.26S9.72,17.81,9.72,20.13Z"/><path class="cls-4" d="M9.72,20.13c0-2.32-.7-3.26-2.41-3.26S4.9,18,4.9,20.13a3.74,3.74,0,0,0,2.41,3.26A3.75,3.75,0,0,0,9.72,20.13Zm0.85,0c0,2.21-2.19,4.11-3.26,4.11s-3.26-1.9-3.26-4.11C4.05,17.48,5.2,16,7.31,16,10.57,16,10.57,19.11,10.57,20.13Z"/><path class="cls-5" d="M7.31,28.09l2.55-2.55C13.12,25.8,14,27.6,14.18,28v2.51H15V27.88l0-.13c0-.11-1-2.81-5.3-3.06H9.52L7.31,26.89,5.09,24.67H4.9a6.93,6.93,0,0,0-3.85,1.25c0.09,0.29.21,0.56,0.31,0.85a5.79,5.79,0,0,1,3.4-1.23Z"/><path class="cls-1" d="M34.17,25.11l-2.38,2.38-2.38-2.38c-4.07.23-4.92,2.77-4.92,2.77v2.58a11,11,0,0,0,7.3,3,10.35,10.35,0,0,0,4.12-1.16,20,20,0,0,0,2.86-5C38.25,26.51,37,25.27,34.17,25.11Z"/><path class="cls-3" d="M34,20.13a3.75,3.75,0,0,1-2.41,3.26,3.75,3.75,0,0,1-2.41-3.26c0-2.16.81-3.26,2.41-3.26S34,17.81,34,20.13Z"/><path class="cls-4" d="M34,20.13c0-2.32-.7-3.26-2.41-3.26s-2.41,1.1-2.41,3.26a3.75,3.75,0,0,0,2.41,3.26A3.75,3.75,0,0,0,34,20.13Zm0.85,0c0,2.21-2.19,4.11-3.26,4.11s-3.26-1.9-3.26-4.11c0-2.65,1.16-4.11,3.26-4.11C34.89,16,34.89,19.11,34.89,20.13Z"/><path class="cls-5" d="M33.93,24.68H33.74l-2.22,2.22-2.22-2.22H29.12c-4.31.24-5.26,2.94-5.3,3.06l0,2.72h0.85V28c0.15-.34,1.07-2.16,4.33-2.41l2.55,2.55,2.55-2.55c2.91,0.22,4,1.68,4.25,2.24,0.14-.32.24-0.66,0.36-1A6.15,6.15,0,0,0,33.93,24.68Z"/><path class="cls-6" d="M23.77,26.61l-3.62,3.62-3.62-3.62c-6.18.35-7.46,4.2-7.46,4.2v3.92a16.7,16.7,0,0,0,11.08,4.55c4.66,0,11.08-4.55,11.08-4.55V30.81S30,27,23.77,26.61Z"/><path class="cls-3" d="M23.82,19.06c0,2.84-2.9,5-3.66,5s-3.66-2.11-3.66-5c0-3.29,1.23-4.95,3.66-4.95C22.76,14.11,23.82,15.54,23.82,19.06Z"/><path class="cls-4" d="M23.82,19.06c0-3.52-1.06-4.95-3.66-4.95-2.43,0-3.66,1.66-3.66,4.95,0,2.84,2.89,5,3.66,5S23.82,21.9,23.82,19.06Zm-3.66-6.24c4.95,0,4.95,4.69,4.95,6.24,0,3.35-3.32,6.24-4.95,6.24s-4.95-2.89-4.95-6.24C15.21,15,17,12.82,20.16,12.82Z"/><path class="cls-5" d="M23.81,26l-0.29,0-3.36,3.36L16.79,26l-0.29,0c-6.54.37-8,4.47-8,4.64l0,4.13H9.72v-3.8c0.22-.52,1.63-3.28,6.57-3.66l3.86,3.86L24,27.28c5,0.38,6.35,3.12,6.57,3.65v3.8h1.29V30.81l0-.2C31.79,30.44,30.35,26.34,23.81,26Z"/><path class="cls-7" d="M20,0h0Z"/><path class="cls-7" d="M39.94,21.13C40,20.75,40,20.38,40,20s0-.75-0.06-1.13C40,19.25,40,19.62,40,20S40,20.75,39.94,21.13Z"/><path class="cls-7" d="M20,40h0Z"/><path class="cls-7" d="M39.94,21.13C40,20.75,40,20.38,40,20s0-.75-0.06-1.13A20,20,0,0,0,20.06,0H20a20,20,0,0,0,0,40h0.06A20,20,0,0,0,39.94,21.13ZM20,38A18,18,0,1,1,38,20,18,18,0,0,1,20,38Z"/><circle class="cls-8" cx="20" cy="20" r="20"/><path class="cls-9" d="M28.21,7.59a11.6,11.6,0,0,0-16.42.31"/></svg>