<svg id="Layer_1" data-name="Layer 1" xmlns="http://www.w3.org/2000/svg" viewBox="0 0 60 72"><defs><style>.cls-1{fill:#0089d0;}</style></defs><title>graduation-icon</title><path class="cls-1" d="M2.74,70.81a2.09,2.09,0,0,1-.87-1.45,3.79,3.79,0,0,1,.73-3.21c1-1.17,4.07-1.29,7.07-1.4,2.44-.09,5-0.19,5.29-0.94a12.44,12.44,0,0,0,.25-2.54c0.08-1.7.16-3.46,0.56-4,1.1-1.36,3.17-1.41,4.84-1.45a15.24,15.24,0,0,0,1.53-.08c2.94-.38,4.71-1.13,5.41-2.29a7.53,7.53,0,0,0,.75-3.57,12.31,12.31,0,0,1,.22-2.07c0.67-2.85,2.29-3.12,4.34-3.45,0.49-.08,1-0.16,1.55-0.29,2.27-.46,2.44-3.08,2.55-4.81,0-.32,0-0.66,0-1,0-1.6,0-3.6,2.22-4.07a11,11,0,0,1,3-.13,9.77,9.77,0,0,0,3.34-.22,4.15,4.15,0,0,0,3.15-2.93,12.23,12.23,0,0,1,.79-1.62C50.24,28,51.8,27.2,53.9,27h0.21c0.5,0,2.81.19,3.73,1.21a1.34,1.34,0,0,1,.36,1.16c0,0.1,0,.2-0.07.3a2.91,2.91,0,0,1-.37.7A15.69,15.69,0,0,0,55.46,36a0.14,0.14,0,0,1,0,.05,74.91,74.91,0,0,0-1,9c-0.15,2-.29,4-0.49,5.26C53.11,55.82,51.72,60,49.72,63a12.51,12.51,0,0,1-11,5.89H38.68c-2.67,0-6.89.37-10.27,0.65L25,69.76l-4.36.32C14.77,70.52,8.36,71,5,71A7.42,7.42,0,0,1,2.74,70.81Zm36-2.24A12.25,12.25,0,0,0,49.49,62.8c2-3,3.35-7.06,4.19-12.52,0.2-1.29.34-3.21,0.49-5.23a75.83,75.83,0,0,1,1-9,0.14,0.14,0,0,1,0,0,16,16,0,0,1,2.35-5.75,2.64,2.64,0,0,0,.34-0.62q0-.13.07-0.26a1.06,1.06,0,0,0-.29-0.93c-0.81-.89-2.94-1.15-3.51-1.11H53.91c-2,.15-3.48.91-4.17,2.13A12,12,0,0,0,49,31a4.42,4.42,0,0,1-3.33,3.09,10,10,0,0,1-3.44.23,10.83,10.83,0,0,0-2.93.12c-2,.42-2,2.14-2,3.79,0,0.37,0,.72,0,1-0.12,1.82-.29,4.56-2.77,5.07-0.55.12-1.06,0.21-1.56,0.29-2.1.34-3.49,0.57-4.11,3.24a12.13,12.13,0,0,0-.21,2,7.72,7.72,0,0,1-.79,3.7c-0.75,1.24-2.59,2-5.61,2.42a15.48,15.48,0,0,1-1.56.09c-1.69,0-3.61.08-4.63,1.34-0.34.42-.43,2.29-0.5,3.79a11.78,11.78,0,0,1-.27,2.64c-0.39.91-2.78,1-5.54,1.11s-6,.23-6.86,1.3a3.51,3.51,0,0,0-.67,3,1.89,1.89,0,0,0,.72,1.25h0c1,0.5,10.29-.19,17.72-0.75l4.36-.32,3.45-.27c3.39-.27,7.61-0.61,10.29-0.65h0.06Z"/><path class="cls-1" d="M16.24,21.32c-1.65.62-4.17-.75-5.73-3.13s-1.55-4.85.32-5.33,4.7,1.08,6.12,3.37S17.93,20.72,16.24,21.32Z"/><path class="cls-1" d="M10.45,18.23C9.4,16.68,9,15.1,9.44,14a1.91,1.91,0,0,1,1.37-1.2c1.93-.46,4.76,1.1,6.19,3.4A4.54,4.54,0,0,1,17.66,20a2.25,2.25,0,0,1-1.4,1.41,2.52,2.52,0,0,1-.89.15C13.77,21.53,11.77,20.24,10.45,18.23Zm0.4-5.3a1.77,1.77,0,0,0-1.28,1.12c-0.4,1.06,0,2.59,1,4.1,1.54,2.35,4,3.71,5.65,3.1h0a2.11,2.11,0,0,0,1.31-1.33,4.46,4.46,0,0,0-.64-3.65,7.09,7.09,0,0,0-5.35-3.42A3,3,0,0,0,10.85,12.93Z"/><path class="cls-1" d="M15.9,27.7a1.52,1.52,0,0,0-1.21-1.16s-3-.38-3.76-0.53a2.36,2.36,0,0,0-1.6.43L5.11,30.19a0.91,0.91,0,0,1-1.24,0h0a0.91,0.91,0,0,1-.08-1.23l3.46-4.31a3.51,3.51,0,0,1,1.93-1l5.36-.82,1.61-.24h0.09l6.48-2.09h0c0.46-.22,3.76-1.73,5.35-2.53l0.33-.13h0l0.13-.05a5.29,5.29,0,0,1,1.17-.26,0.79,0.79,0,0,1,.75.31c0.3,0.52-.82,1.37-0.82,1.37h0c-1.41,1.14-3.62,2.91-4,3.21a5,5,0,0,1-1.11.66L21,24.8a1,1,0,0,0-.35.43,1.15,1.15,0,0,0,.07.91l0.1,0.19h0l1.29,2.48A1.92,1.92,0,0,0,24,29.89L27,29.51a3.36,3.36,0,0,1,2.38.79l3.31,3.14c0.21,0.19,1.09.91,1.76,0.36s3.56-2.9,2.79-.76c-0.13.19-1.84,2.53-2.08,2.81l-0.06.07-0.38.55a1.27,1.27,0,0,1-.88.66A1.68,1.68,0,0,1,33.23,37l-4.91-2.31a2.22,2.22,0,0,0-2.86.42s-7.38,8.19-8.27,9.47a1.23,1.23,0,0,1-1.91.44s-3.79-2.35-4.68-2.79-1.11.34-1.11,0.34L8.83,45.2c-0.28.69-.68-1.12-0.68-1.12l-1-4.58c-0.27-1.45.74-.87,0.74-0.87s6,1.56,6.71,1.61A1.1,1.1,0,0,0,15.5,40l0,0s1.93-3.1,2.45-4a1.88,1.88,0,0,0,.31-1.52Z"/><path class="cls-1" d="M8.68,45.42a2.22,2.22,0,0,1-.6-1.33l-1-4.58a1,1,0,0,1,.16-1,0.71,0.71,0,0,1,.68,0c0.26,0.07,6,1.56,6.69,1.61a1,1,0,0,0,.86-0.26l0,0h0s1.94-3.11,2.45-4a1.84,1.84,0,0,0,.31-1.46l-2.4-6.71a1.45,1.45,0,0,0-1.15-1.12s-3-.38-3.77-0.53a2.31,2.31,0,0,0-1.55.42L5.16,30.25a1,1,0,0,1-1.42-1.35L7.2,24.58a3.55,3.55,0,0,1,2-1.07l5.36-.82,1.61-.24h0.09l6.33-2,0.09,0,1-.49c1.19-.55,3.19-1.48,4.31-2l0.33-.13h0l0.1,0a5.41,5.41,0,0,1,1.19-.27,0.84,0.84,0,0,1,.81.34c0.31,0.52-.63,1.3-0.81,1.44l0,0c-1.21,1-3.6,2.9-4,3.21a5,5,0,0,1-1.12.66l-3.45,1.8a0.92,0.92,0,0,0-.32.4,1.08,1.08,0,0,0,.06.85l1.39,2.66A1.85,1.85,0,0,0,24,29.82L27,29.44a3.39,3.39,0,0,1,2.44.81l3.31,3.14c0.17,0.15,1,.88,1.67.36,1.61-1.32,2.56-1.84,2.9-1.6a0.8,0.8,0,0,1,0,.92h0c-0.14.21-1.85,2.54-2.08,2.82l-0.43.62a1.32,1.32,0,0,1-.94.69A1.73,1.73,0,0,1,33.2,37l-4.91-2.31a2.08,2.08,0,0,0-2-.16,2.39,2.39,0,0,0-.78.56c-0.07.08-7.39,8.2-8.27,9.46a1.48,1.48,0,0,1-1,.74,1.39,1.39,0,0,1-1-.28s-3.8-2.36-4.68-2.79a0.82,0.82,0,0,0-.7-0.09,0.64,0.64,0,0,0-.31.38L8.9,45.22a0.25,0.25,0,0,1-.2.2h0Zm2-3.28c0.88,0.44,4.65,2.77,4.7,2.8a1.28,1.28,0,0,0,.91.26,1.36,1.36,0,0,0,.9-0.68C18,43.26,25.34,35.13,25.41,35a2.27,2.27,0,0,1,2.94-.43l4.91,2.31a1.6,1.6,0,0,0,.62.16,1.2,1.2,0,0,0,.83-0.63l0.38-.56,0.06-.07c0.22-.26,1.9-2.56,2.07-2.8a0.76,0.76,0,0,0,0-.75c-0.13-.09-0.65-0.11-2.73,1.59-0.73.6-1.67-.2-1.86-0.36l-3.31-3.14A3.3,3.3,0,0,0,27,29.58L24,30a2,2,0,0,1-1.92-1.12l-1.29-2.47-0.11-.2a1.22,1.22,0,0,1-.07-1A1.06,1.06,0,0,1,21,24.74l3.46-1.81a5,5,0,0,0,1.1-.65c0.4-.31,2.76-2.2,4-3.18l0,0c0.3-.23,1-0.9.8-1.28a0.71,0.71,0,0,0-.68-0.27,5.27,5.27,0,0,0-1.15.26l-0.13.05-0.07,0h0l-0.25.1c-1.12.56-3.12,1.49-4.31,2l-0.81.38h0.12l-6.79,2.19-1.71.25-5.36.82a3.47,3.47,0,0,0-1.89,1L3.85,29a0.84,0.84,0,0,0,1.22,1.16l4.22-3.75a2.4,2.4,0,0,1,1.66-.44c0.8,0.15,3.73.52,3.75,0.52A1.58,1.58,0,0,1,16,27.68l2.4,6.72A1.93,1.93,0,0,1,18.05,36c-0.51.89-2.44,4-2.45,4l0,0a1.16,1.16,0,0,1-1,.29c-0.68-.05-6.47-1.55-6.72-1.62h0a0.59,0.59,0,0,0-.54-0.06,0.89,0.89,0,0,0-.1.85l1,4.58a2.63,2.63,0,0,0,.48,1.22,0.15,0.15,0,0,0,.07-0.1l0.66-2.65a0.77,0.77,0,0,1,.39-0.48A0.68,0.68,0,0,1,10.1,42,1.23,1.23,0,0,1,10.64,42.14Z"/><path class="cls-1" d="M46.75,12.72c-0.72-.26-0.59-1.32-0.46-2.35a2.77,2.77,0,0,0-.08-1.78A5,5,0,0,0,44.28,8C43.1,7.73,42,7.51,42,6.88c0-.43.82-0.66,2.28-1,0.89-.23,2.23-0.57,2.26-0.86a4.28,4.28,0,0,0-.22-1.12c-0.27-1-.61-2.22.07-2.74A0.53,0.53,0,0,1,46.79,1a3.43,3.43,0,0,1,1.47,1.65,4.52,4.52,0,0,0,1.41,1.69,5,5,0,0,0,2.08-.9c1.15-.66,2.14-1.23,2.55-0.87,0.66,0.59-1.36,3.52-2,4.47A7.26,7.26,0,0,0,53.51,9c0.82,1,1.24,1.6,1.11,1.89-0.37.79-1.7,0.29-3-.2-0.8-.3-1.7-0.64-1.94-0.45a8.31,8.31,0,0,0-.86.93c-0.68.79-1.37,1.61-1.9,1.61Zm5-2.33c1.12,0.42,2.38.9,2.64,0.35a6,6,0,0,0-1.07-1.6A5.44,5.44,0,0,1,52,7a0.14,0.14,0,0,1,0-.08c1.46-2,2.41-3.88,2.11-4.14s-1.39.42-2.22,0.9c-1,.58-1.87,1.07-2.31.92A4.46,4.46,0,0,1,48,2.81a3.66,3.66,0,0,0-1.28-1.53,0.25,0.25,0,0,0-.21.06c-0.53.41-.22,1.54,0,2.45A4.24,4.24,0,0,1,46.8,5c0,0.46-1,.72-2.46,1.11-0.72.18-2.07,0.53-2.07,0.76,0,0.4,1.15.63,2.08,0.82a4.86,4.86,0,0,1,2.07.69,2.72,2.72,0,0,1,.16,2c-0.11.92-.23,1.87,0.28,2.05S48,11.6,48.6,11a8.38,8.38,0,0,1,.9-1,0.62,0.62,0,0,1,.4-0.11A6.36,6.36,0,0,1,51.72,10.39Z"/><path class="cls-1" d="M39.56,36.18l0.08,0a6.71,6.71,0,0,1,3.06-.39,17,17,0,0,0,3.59-.28,6.34,6.34,0,0,0,4-3.43l0.1-.17a0.14,0.14,0,1,0-.24-0.14l-0.1.18a6.1,6.1,0,0,1-3.81,3.3,16.8,16.8,0,0,1-3.53.27c-1.41,0-2.63,0-3.22.45A0.14,0.14,0,0,0,39.56,36.18Z"/><path class="cls-1" d="M30.53,47.44a0.14,0.14,0,0,0,.13-0.09c0.32-.82,1.39-1,3-1.17l1-.14a4.68,4.68,0,0,0,3.88-3.27,0.14,0.14,0,1,0-.27-0.07,4.4,4.4,0,0,1-3.65,3.06l-1,.14c-1.72.22-2.86,0.37-3.24,1.35a0.14,0.14,0,0,0,.08.18h0.05Z"/><path class="cls-1" d="M17,63.26a0.14,0.14,0,0,0,.13-0.1,6.19,6.19,0,0,0,0-1.53c0-1.24-.12-2.94.49-3.58s2.35-.64,4.13-0.74a16.05,16.05,0,0,0,3.77-.48,0.14,0.14,0,1,0-.09-0.26,16,16,0,0,1-3.69.46c-1.92.11-3.73,0.21-4.32,0.83s-0.62,2.42-.57,3.78a6.4,6.4,0,0,1,0,1.44,0.14,0.14,0,0,0,.09.17h0Z"/><path class="cls-1" d="M34.49,67h0a17.09,17.09,0,0,1,3.41-.26c2.51,0,4.88,0,7.86-2.66C50.12,60.3,51.38,53.17,51.47,51a0.14,0.14,0,1,0-.28,0c-0.08,1.76-1.26,9.12-5.58,12.93-2.91,2.56-5.23,2.57-7.68,2.59a17.31,17.31,0,0,0-3.47.26A0.14,0.14,0,0,0,34.49,67Z"/></svg>