<svg xmlns="http://www.w3.org/2000/svg" xmlns:xlink="http://www.w3.org/1999/xlink" viewBox="0 0 896 200" opacity="0.3"><style><![CDATA[.B{fill:#ffd400}.C{fill:#8c00ff}.D{fill:#0089ff}.E{fill:#0095fd}.F{fill:#3eb6ff}]]></style><g fill="#2b006a"><path d="M0 0h896v200H0z"/><path d="M740.87 197.88a.57.57 0 0 0-.8 0L738 200h1.6l1.32-1.32a.57.57 0 0 0-.04-.8z"/><path d="M736.17 197.88a.57.57 0 0 0 0 .8l1.32 1.32h1.6l-2.08-2.12a.56.56 0 0 0-.83 0zm11.23-7.3l-3.9 3.9a.57.57 0 0 0 .8.8l3.9-3.9a.56.56 0 0 0-.79-.79z"/><path d="M744.28 190.57a.57.57 0 0 0-.8 0 .56.56 0 0 0 0 .79l3.9 3.9a.55.55 0 0 0 .4.16.54.54 0 0 0 .39-.16.57.57 0 0 0 0-.8z"/></g><g class="C"><use xlink:href="#B"/><use xlink:href="#C"/><use xlink:href="#D"/><path d="M51.26 197.1l-2.9 2.9h1.44l2.18-2.2-.72-.72z"/><use xlink:href="#C" x="-5.472" y="-5.483"/><use xlink:href="#B" x="-10.955" y="-10.94"/><use xlink:href="#C" x="-10.948" y="-10.957"/><path d="M37.4 200h.17l-.1-.08-.08.08z"/><use xlink:href="#C" x="-19.24" y="-2.649"/><use xlink:href="#B" x="-16.421" y="-16.415"/><use xlink:href="#C" x="-33.016" y="0.167"/><use xlink:href="#C" x="-16.414" y="-16.421"/><use xlink:href="#C" x="-24.713" y="-8.13"/><use xlink:href="#D" x="-16.414" y="-16.423"/><path d="M17.745 197.774l4.55-4.557.722.72-4.55 4.557z"/><use xlink:href="#D" x="-42.337" y="-1.446"/><path d="M9.793 194.798l4.275-4.28.722.72-4.275 4.28zM5.5 199.07l-.93.93H6l.2-.2-.72-.72z"/><use xlink:href="#B" x="-56.322" y="-9.346"/><path d="M6.96 186.68l4.565-4.57.722.72-4.565 4.57zm-4.56 4.56l-2.4 2.4v1.44l3.1-3.1-.72-.72z"/><use xlink:href="#D" x="-53.082" y="-12.589"/><use xlink:href="#E"/><path d="M1.83 180.85L0 182.7v1.44l2.56-2.56-.73-.72z"/><use xlink:href="#E" x="16.603" y="-16.59"/><use xlink:href="#C" x="-46.61" y="-30.019"/><use xlink:href="#B" x="-43.784" y="-43.778"/><use xlink:href="#C" x="-60.366" y="-27.185"/><use xlink:href="#C" x="-52.086" y="-35.493"/><use xlink:href="#C" x="-43.784" y="-43.777"/><use xlink:href="#B" x="-49.258" y="-49.246"/><use xlink:href="#C" x="-49.256" y="-49.259"/><use xlink:href="#C" x="-57.541" y="-40.968"/><use xlink:href="#D" x="-49.257" y="-49.256"/><use xlink:href="#C" x="-54.722" y="-54.723"/><path d="M2 147.84l-2 2v1.44l2.73-2.73-.72-.72z"/><use xlink:href="#B" x="-60.205" y="-60.192"/><use xlink:href="#E" x="-5.293" y="-38.48"/><use xlink:href="#B" x="-65.671" y="-65.667"/><path d="M0 129.24v.17l.08-.1-.08-.08z"/><use xlink:href="#B" x="-71.144" y="-71.134"/><path d="M133.76 165.87a.24.24 0 0 0-.22.26l.45 4.25a.23.23 0 0 0 .24.21.24.24 0 0 0 .21-.27l-.45-4.22a.25.25 0 0 0-.23-.23zm-.14-3.77a.25.25 0 0 0 .25-.24v-.23l.14-4.24a.25.25 0 0 0-.49 0l-.14 4.28v.23a.24.24 0 0 0 .24.24zm1.28 12.2a.25.25 0 0 0-.19.29l1 4.15a.24.24 0 0 0 .23.18h.07a.25.25 0 0 0 .17-.3l-1-4.12a.25.25 0 0 0-.28-.2zm6.02 16.12a.25.25 0 0 0-.33-.11.24.24 0 0 0-.1.33l2.1 3.72a.23.23 0 0 0 .2.11.28.28 0 0 0 .13 0 .24.24 0 0 0 .08-.34l-2.1-3.7zM135.85 145h.07a.23.23 0 0 0 .23-.18l1.3-4.05a.26.26 0 0 0-.15-.31.24.24 0 0 0-.31.15l-1.3 4.08a.25.25 0 0 0 .17.31zm9.15 52.58a.25.25 0 0 0-.06.34l1.55 2.08h.63l-1.78-2.36a.25.25 0 0 0-.34-.06zm-10.84-44.2a.25.25 0 0 0 .24-.21l.7-4.2a.24.24 0 0 0-.47-.1l-.73 4.22a.25.25 0 0 0 .25.28zm4.6-16.37a.25.25 0 0 0 .22-.15l1.83-3.84a.242.242 0 1 0-.43-.22l-1.84 3.87a.24.24 0 0 0 .12.32zm6.07-11.5l-2.35 3.58a.26.26 0 0 0 .08.34.28.28 0 0 0 .13 0 .25.25 0 0 0 .21-.12l2.33-3.54a.25.25 0 0 0-.06-.34.24.24 0 0 0-.34.08zm-7.34 57.16a.23.23 0 0 0-.31-.15.25.25 0 0 0-.15.31l1.6 4a.25.25 0 0 0 .22.15h.1a.24.24 0 0 0 .12-.32l-1.57-4z"/><use xlink:href="#F"/><path d="M251.44 133.07a.27.27 0 0 0 .12 0 .24.24 0 0 0 .1-.33l-2.1-3.72a.25.25 0 0 0-.42.26l2.1 3.7a.24.24 0 0 0 .21.1zm-4.3-7.3a.24.24 0 0 0 0-.34l-2.6-3.4a.241.241 0 0 0-.37.31l2.57 3.38a.25.25 0 0 0 .2.1.3.3 0 0 0 .19-.05zm-15.02-15.36a.23.23 0 0 0-.34.06.25.25 0 0 0 .06.34l3.4 2.56a.21.21 0 0 0 .15.05.25.25 0 0 0 .19-.09.24.24 0 0 0 0-.34l-3.45-2.58zm26.2 47.1a.24.24 0 0 0 .22-.26l-.44-4.26a.243.243 0 1 0-.48.07l.44 4.22a.24.24 0 0 0 .26.23zm-5.18 28.8l-1.8 3.84a.24.24 0 0 0 .1.33.22.22 0 0 0 .11 0 .24.24 0 0 0 .22-.13l1.83-3.87a.25.25 0 0 0-.13-.32.25.25 0 0 0-.32.15zm5.33-25.03a.24.24 0 0 0-.24.24v.12l-.14 4.12a.25.25 0 0 0 .23.26.25.25 0 0 0 .25-.22l.13-4.28a.24.24 0 0 0-.23-.24zm-.53 8.5a.23.23 0 0 0-.27.21l-.7 4.18a.26.26 0 0 0 .19.29h.05a.25.25 0 0 0 .24-.19l.7-4.22a.24.24 0 0 0-.21-.27zm-3.1-28.9h.08a.25.25 0 0 0 .15-.31l-1.58-4a.25.25 0 0 0-.32-.13.24.24 0 0 0-.12.32l1.56 3.94a.24.24 0 0 0 .23.18z"/><use xlink:href="#G"/><path d="M257.16 149.06a.24.24 0 0 0 .18-.29l-1-4.16a.24.24 0 0 0-.3-.16.24.24 0 0 0-.17.3l1 4.12a.24.24 0 0 0 .29.19zm-18.4-33.28a.244.244 0 1 0-.34.35l3 3a.23.23 0 0 0 .18.08.27.27 0 0 0 .17-.06.25.25 0 0 0 0-.35l-3-3.02zm-75.3-7.68l-3.57 2.35a.24.24 0 0 0-.06.34.26.26 0 0 0 .2.1.24.24 0 0 0 .14 0l3.55-2.33a.243.243 0 1 0-.26-.41zm7.54-3.95l-3.86 1.84a.24.24 0 0 0-.1.33.25.25 0 0 0 .22.13h.1l3.82-1.83a.24.24 0 1 0-.19-.44zm53.82 1.8a.25.25 0 0 0-.33.11.24.24 0 0 0 .11.32l3.7 2.1a.28.28 0 0 0 .13 0 .25.25 0 0 0 .21-.12.24.24 0 0 0-.09-.33l-3.73-2.07zm-74.58 12.92q-1.45 1.56-2.8 3.23a.24.24 0 0 0 0 .34.3.3 0 0 0 .16 0 .21.21 0 0 0 .18-.09l2.8-3.2a.244.244 0 0 0-.36-.33zm28.86-17.58l-4.08 1.3a.25.25 0 0 0-.15.31.25.25 0 0 0 .23.16h.1l4-1.3a.244.244 0 1 0-.13-.47zM156.48 113l-3.22 2.82a.25.25 0 0 0 .18.42.23.23 0 0 0 .17-.07c1-1 2.1-1.9 3.2-2.8a.24.24 0 0 0 0-.34.25.25 0 0 0-.32-.04zm56.42-11.75l-4.16-1a.23.23 0 0 0-.28.18.24.24 0 0 0 .18.29l4.13 1h.06a.25.25 0 0 0 .24-.18.24.24 0 0 0-.17-.29zm4.1 1.3a.23.23 0 0 0-.31.15.24.24 0 0 0 .15.31l3.95 1.55a.18.18 0 0 0 .1 0 .24.24 0 0 0 .22-.14.23.23 0 0 0-.12-.32l-4-1.55zm-29.54-3l-4.22.73a.24.24 0 0 0 0 .48h.05l4.18-.72a.25.25 0 0 0 .21-.28.25.25 0 0 0-.22-.21zM196 99l-4.28.15a.24.24 0 0 0-.22.26.23.23 0 0 0 .24.22l4.24-.14a.25.25 0 0 0 0-.49zm8.52.53l-4.26-.43a.25.25 0 0 0 0 .49l4.22.42a.26.26 0 0 0 .25-.21.25.25 0 0 0-.21-.27zm175.56-89.7a.17.17 0 0 0-.17.17 87.74 87.74 0 0 1-175.48 0 .18.18 0 0 0-.18-.17.18.18 0 0 0-.17.17 88.09 88.09 0 1 0 176.17 0 .18.18 0 0 0-.17-.17zm-87.9 38A37.78 37.78 0 0 0 328.64 0h-.27A37.57 37.57 0 1 1 256 0h-.27a37.82 37.82 0 0 0 36.48 47.83z"/></g><path d="M2 2.94a.14.14 0 0 0-.2.06C1.18 3.65.58 4.36 0 5.1v.5l2-2.43a.14.14 0 0 0 0-.21zm99.3 20.42a.15.15 0 0 0 .1-.19l-1.68-4.4a.152.152 0 1 0-.28.12l1.67 4.4a.15.15 0 0 0 .15.1zm-3.68-8.66a.15.15 0 0 0 .06-.2l-2.37-4.1a.15.15 0 0 0-.21 0 .14.14 0 0 0 0 .21l2.35 4.06a.16.16 0 0 0 .14.08zM95.17 73l-2.66 3.87a.16.16 0 0 0 0 .22.16.16 0 0 0 .09 0 .14.14 0 0 0 .12-.06l2.68-3.9a.14.14 0 0 0-.05-.21.16.16 0 0 0-.18.08zM92.6 6.74a.15.15 0 0 0 0-.21l-3-3.65a.15.15 0 0 0-.21 0 .16.16 0 0 0 0 .22l3 3.63a.14.14 0 0 0 .12.06zm-3.06 73.74c-1 1.17-2.12 2.3-3.25 3.4a.14.14 0 0 0 0 .21.16.16 0 0 0 .11 0 .18.18 0 0 0 .1 0l3.27-3.42a.14.14 0 0 0 0-.21.16.16 0 0 0-.23.02zm-87.37.25a.16.16 0 0 0-.22 0 .15.15 0 0 0 0 .21c1 1.17 2.15 2.3 3.3 3.4a.15.15 0 0 0 .21 0 .14.14 0 0 0 0-.21l-3.28-3.4zm100.5-25.13a.15.15 0 0 0-.19.11l-1.3 4.52a.14.14 0 0 0 .09.19.15.15 0 0 0 .15-.1l1.3-4.55a.15.15 0 0 0-.06-.17zm1.45-9.3a.15.15 0 0 0-.16.14l-.55 4.66a.15.15 0 0 0 .12.18.15.15 0 0 0 .15-.13l.55-4.7a.14.14 0 0 0-.11-.16zm-.04-9.42a.16.16 0 0 0-.14.17l.2 4.7a.14.14 0 0 0 .15.15.15.15 0 0 0 .15-.15l-.2-4.72a.15.15 0 0 0-.16-.14zm-.56-4.38a.16.16 0 0 0 .13-.18c-.25-1.55-.57-3.1-1-4.63a.15.15 0 0 0-.18-.11.16.16 0 0 0-.11.19l.94 4.6a.15.15 0 0 0 .22.13zm-4 32.13l-2 4.25a.16.16 0 0 0 .06.21h.07a.15.15 0 0 0 .14-.09l2-4.27a.152.152 0 1 0-.28-.12zM16.7 92.53a.154.154 0 1 0-.15.27l4.2 2.18h.06a.14.14 0 0 0 .14-.09.14.14 0 0 0-.07-.2l-4.17-2.16zM82.78 87l-3.74 2.84a.15.15 0 0 0 0 .21.15.15 0 0 0 .12.07.16.16 0 0 0 .09 0l3.77-2.85a.16.16 0 0 0-.2-.24zm-53.1 11l-4.46-1.47a.14.14 0 0 0-.19.09.16.16 0 0 0 .08.2l4.5 1.48a.15.15 0 0 0 .15-.11.16.16 0 0 0-.07-.19zM9 87.22a.14.14 0 0 0-.21 0 .16.16 0 0 0 0 .21l3.8 2.83a.11.11 0 0 0 .08 0 .17.17 0 0 0 .13-.07.15.15 0 0 0 0-.21c-1.35-.83-2.6-1.78-3.8-2.76zm29.88 12.63l-4.64-.73a.16.16 0 0 0-.18.12.16.16 0 0 0 .12.18l4.67.74A.16.16 0 0 0 39 100a.16.16 0 0 0-.12-.15zm27.72-3.43l-4.46 1.5a.14.14 0 0 0-.1.18.15.15 0 0 0 .14.11h.05l4.47-1.5a.16.16 0 0 0 .09-.2.14.14 0 0 0-.19-.08zm-18.32 3.78h-4.7a.17.17 0 0 0-.16.15.16.16 0 0 0 .15.16h2.22l2.5-.06a.15.15 0 0 0 .15-.16.15.15 0 0 0-.16-.09zm26.8-7.84l-4.15 2.2a.14.14 0 0 0-.07.2.14.14 0 0 0 .14.09.07.07 0 0 0 .06 0l4.18-2.2a.16.16 0 0 0-.16-.27zm-17.47 6.7l-4.64.76a.16.16 0 0 0-.13.17.16.16 0 0 0 .15.14l4.66-.76a.153.153 0 0 0-.06-.3z" class="B"/><g class="C"><path d="M1.56 12.44a.31.31 0 0 0 .22-.09.3.3 0 0 0 0-.43L0 10.14V11l1.35 1.35a.29.29 0 0 0 .21.09z"/><path d="M1.78 8.34a.3.3 0 0 0-.43 0L0 9.7v.86l1.78-1.78a.3.3 0 0 0 0-.43zM5 1.53a.315.315 0 0 0-.42.47l3.57 3.54a.31.31 0 0 0 .22.09.27.27 0 0 0 .21-.09.3.3 0 0 0 0-.43z"/><path d="M8.15 1.53L4.58 5.1a.3.3 0 0 0 0 .43.3.3 0 0 0 .21.09.31.31 0 0 0 .21-.09L8.58 2a.304.304 0 0 0-.43-.43zm-6.7 24.4a.29.29 0 0 0 .21-.09.3.3 0 0 0 0-.43L0 23.75v.87l1.23 1.23a.31.31 0 0 0 .22.09z"/><path d="M1.66 21.84a.3.3 0 0 0-.43 0L0 23.08v.86l1.66-1.67a.3.3 0 0 0 0-.43zM4.9 15a.304.304 0 1 0-.43.43L8 19a.31.31 0 0 0 .22.09.3.3 0 0 0 .25-.09.3.3 0 0 0 0-.43z"/><path d="M8 15l-3.53 3.6a.3.3 0 0 0 0 .43.29.29 0 0 0 .21.09.31.31 0 0 0 .22-.13l3.57-3.57A.3.3 0 0 0 8 15z"/><use xlink:href="#H"/><path d="M14.85 8.23l-3.58 3.57a.32.32 0 0 0 0 .43.31.31 0 0 0 .44 0l3.57-3.57a.304.304 0 0 0-.43-.43zm3.65-6.8a.304.304 0 0 0-.43.43l3.58 3.58a.3.3 0 0 0 .21.08.35.35 0 0 0 .22-.08.33.33 0 0 0 0-.44z"/><path d="M21.66 1.42L18.08 5a.3.3 0 0 0 0 .43.31.31 0 0 0 .22.09.29.29 0 0 0 .21-.09l3.58-3.57a.304.304 0 0 0-.43-.43zM1.33 39.44a.31.31 0 0 0 .22-.09.3.3 0 0 0 0-.43L0 37.37v.86l1.12 1.12a.3.3 0 0 0 .21.09zm.22-4.1a.3.3 0 0 0-.43 0L0 36.47v.86l1.55-1.55a.3.3 0 0 0 0-.43zm3.23-6.8a.304.304 0 1 0-.43.43l3.58 3.57a.29.29 0 0 0 .21.09.31.31 0 0 0 .22-.09.3.3 0 0 0 0-.43z"/><path d="M7.93 28.54L4.35 32.1a.3.3 0 0 0 0 .43.31.31 0 0 0 .22.09.29.29 0 0 0 .21-.09L8.36 29a.304.304 0 0 0-.43-.43zm3.67-6.8a.304.304 0 0 0-.43.43l3.57 3.57a.31.31 0 0 0 .44 0 .32.32 0 0 0 0-.43z"/><path d="M14.74 21.73l-3.58 3.57a.3.3 0 0 0 0 .43.31.31 0 0 0 .22.09.3.3 0 0 0 .21-.09l3.58-3.57a.304.304 0 0 0-.43-.43zm3.66-6.8a.304.304 0 0 0-.43.43l3.57 3.58a.31.31 0 0 0 .22.09.29.29 0 0 0 .21-.09.3.3 0 0 0 0-.43z"/><path d="M21.54 14.92L18 18.5a.3.3 0 0 0 0 .43.3.3 0 0 0 .21.09.31.31 0 0 0 .22-.09L22 15.35a.304.304 0 0 0-.43-.43zM25.2 8.1a.32.32 0 0 0-.43 0 .31.31 0 0 0 0 .44l3.57 3.57a.31.31 0 0 0 .22.09.3.3 0 0 0 .21-.09.3.3 0 0 0 0-.43z"/><path d="M28.35 8.1l-3.57 3.58a.3.3 0 0 0 0 .43.29.29 0 0 0 .21.09.31.31 0 0 0 .22-.09l3.57-3.57a.31.31 0 0 0 0-.44.32.32 0 0 0-.43 0zM32 1.3a.3.3 0 0 0-.43 0 .32.32 0 0 0 0 .43l3.58 3.57a.3.3 0 0 0 .21.09.31.31 0 0 0 .22-.09.3.3 0 0 0 0-.43z"/><path d="M35.16 1.3l-3.58 3.57a.32.32 0 0 0 0 .43.31.31 0 0 0 .44 0l3.57-3.57a.304.304 0 1 0-.43-.43zM1.22 52.94a.31.31 0 0 0 .22-.09.3.3 0 0 0 0-.43L0 51v.87l1 1a.29.29 0 0 0 .22.07zm.22-4.1a.3.3 0 0 0-.43 0l-1 1v.86l1.44-1.43a.3.3 0 0 0-.01-.43zM4.67 42a.304.304 0 1 0-.43.43L7.8 46a.31.31 0 0 0 .22.09.27.27 0 0 0 .21-.09.3.3 0 0 0 0-.43z"/><path d="M7.8 42l-3.57 3.6a.3.3 0 0 0 0 .43.31.31 0 0 0 .22.09.3.3 0 0 0 .21-.13l3.57-3.57a.304.304 0 1 0-.43-.43zm3.68-6.77a.304.304 0 1 0-.43.43l3.57 3.58a.31.31 0 0 0 .22.09.3.3 0 0 0 .21-.09.3.3 0 0 0 0-.43z"/><path d="M14.62,35.23l-3.57,3.58a.3.3,0,0,0,0,.43.3.3,0,0,0,.21.09.31.31,0,0,0,.22-.09l3.57-3.58a.3.3,0,1,0-.43-.43Z"/><use xlink:href="#H" x="6.6" y="20.2"/><path d="M21.43 28.42L17.86 32a.3.3 0 0 0 0 .43.29.29 0 0 0 .21.09.31.31 0 0 0 .22-.09l3.57-3.58a.3.3 0 0 0 0-.43.32.32 0 0 0-.43 0zm3.67-6.8a.304.304 0 0 0-.43.43l3.58 3.57a.29.29 0 0 0 .21.09.31.31 0 0 0 .22-.09.3.3 0 0 0 0-.43z"/><path d="M28.24 21.62l-3.58 3.57a.3.3 0 0 0 0 .43.31.31 0 0 0 .22.09.29.29 0 0 0 .21-.09l3.58-3.57a.304.304 0 0 0-.43-.43zm3.66-6.82a.304.304 0 0 0-.43.43L35 18.8a.31.31 0 0 0 .44 0 .32.32 0 0 0 0-.43z"/><use xlink:href="#I"/><path d="M38.7 8a.3.3 0 0 0-.43.43L41.85 12a.31.31 0 0 0 .22.09.29.29 0 0 0 .21-.09.3.3 0 0 0 0-.43z"/><path d="M41.85 8l-3.57 3.57a.31.31 0 0 0 0 .44.34.34 0 0 0 .21.08.35.35 0 0 0 .22-.08l3.57-3.58a.304.304 0 0 0-.43-.43zm3.67-6.8a.304.304 0 0 0-.43.43l3.57 3.58a.31.31 0 0 0 .22.09.3.3 0 0 0 .21-.09.3.3 0 0 0 0-.43z"/><path d="M48.66 1.2L45.1 4.77a.3.3 0 0 0 0 .43.29.29 0 0 0 .21.09.31.31 0 0 0 .22-.09l3.57-3.58a.304.304 0 0 0-.43-.43zM4.56 55.54a.304.304 0 1 0-.43.43l3.57 3.58a.31.31 0 0 0 .22.09.29.29 0 0 0 .21-.09.3.3 0 0 0 0-.43z"/><path d="M7.7 55.54l-3.57 3.58a.3.3 0 0 0 0 .43.29.29 0 0 0 .21.09.31.31 0 0 0 .22-.09L8.13 56a.304.304 0 1 0-.43-.43zm3.67-6.8a.31.31 0 0 0-.44 0 .32.32 0 0 0 0 .43l3.58 3.57a.3.3 0 0 0 .21.09.31.31 0 0 0 .22-.09.3.3 0 0 0 0-.43z"/><path d="M14.5 48.73l-3.58 3.58a.32.32 0 0 0 0 .43.31.31 0 0 0 .44 0l3.57-3.57a.31.31 0 0 0 0-.44.32.32 0 0 0-.43 0zm3.67-6.8a.304.304 0 1 0-.43.43l3.58 3.57a.29.29 0 0 0 .21.09.31.31 0 0 0 .22-.09.3.3 0 0 0 0-.43z"/><path d="M21.32 41.93l-3.58 3.57a.3.3 0 0 0 0 .43.31.31 0 0 0 .26.07.29.29 0 0 0 .21-.09l3.58-3.57a.32.32 0 0 0 0-.43.3.3 0 0 0-.47.02zm3.68-6.8a.304.304 0 1 0-.43.43l3.57 3.57a.31.31 0 0 0 .22.09.27.27 0 0 0 .21-.09.3.3 0 0 0 0-.43z"/><path d="M28.12 35.12l-3.57 3.57a.3.3 0 0 0 0 .43.31.31 0 0 0 .22.09.3.3 0 0 0 .21-.09l3.57-3.57a.304.304 0 1 0-.43-.43zm3.68-6.82a.304.304 0 0 0-.43.43l3.57 3.58a.31.31 0 0 0 .22.09.29.29 0 0 0 .21-.09.3.3 0 0 0 0-.43z"/><path d="M34.93 28.3l-3.57 3.57a.31.31 0 0 0 0 .44.29.29 0 0 0 .21.08.3.3 0 0 0 .22-.08l3.57-3.58a.304.304 0 0 0-.43-.43zm3.67-6.8a.32.32 0 0 0-.43 0 .31.31 0 0 0 0 .44l3.57 3.57a.31.31 0 0 0 .22.09.3.3 0 0 0 .21-.09.3.3 0 0 0 0-.43z"/><path d="M41.74 21.5l-3.57 3.58a.3.3 0 0 0 0 .43.29.29 0 0 0 .21.09.31.31 0 0 0 .22-.09l3.57-3.58a.304.304 0 0 0-.43-.43zm3.66-6.8a.3.3 0 0 0-.43 0 .32.32 0 0 0 0 .43l3.58 3.57a.29.29 0 0 0 .21.09.31.31 0 0 0 .24-.09.3.3 0 0 0 0-.43z"/><path d="M48.55 14.7L45 18.27a.32.32 0 0 0 0 .43.31.31 0 0 0 .22.09.27.27 0 0 0 .21-.09L49 15.13a.304.304 0 1 0-.43-.43zm3.65-6.8a.304.304 0 0 0-.43.43l3.58 3.57a.29.29 0 0 0 .21.09.31.31 0 0 0 .22-.09.3.3 0 0 0 0-.43z"/><path d="M55.36 7.9l-3.58 3.57a.3.3 0 0 0 0 .43.31.31 0 0 0 .22.11.29.29 0 0 0 .21-.09l3.58-3.57a.304.304 0 1 0-.43-.43zm-44.1 54.34a.304.304 0 1 0-.43.43l3.58 3.57a.29.29 0 0 0 .21.09.31.31 0 0 0 .22-.09.32.32 0 0 0 0-.43z"/><use xlink:href="#I" x="-20.65" y="47.44"/><path d="M18.06,55.43a.3.3,0,1,0-.43.43l3.57,3.57a.31.31,0,0,0,.22.09.29.29,0,0,0,.21-.09.3.3,0,0,0,0-.43Z"/><path d="M21.2 55.43L17.63 59a.3.3 0 0 0 0 .43.31.31 0 0 0 .22.09.3.3 0 0 0 .21-.09l3.57-3.57a.304.304 0 1 0-.43-.43zm3.67-6.8a.304.304 0 1 0-.43.43L28 52.63a.31.31 0 0 0 .22.09.3.3 0 0 0 .21-.09.3.3 0 0 0 0-.43z"/><path d="M28 48.62l-3.56 3.58a.3.3 0 0 0 0 .43.29.29 0 0 0 .21.09.31.31 0 0 0 .22-.09l3.57-3.58a.304.304 0 1 0-.43-.43zm3.67-6.82a.3.3 0 0 0-.43 0 .32.32 0 0 0 0 .43l3.58 3.58a.3.3 0 0 0 .21.09.31.31 0 0 0 .22-.09.3.3 0 0 0 0-.43z"/><path d="M34.82 41.8l-3.57 3.58a.3.3 0 0 0 0 .43.27.27 0 0 0 .21.09.31.31 0 0 0 .22-.09l3.57-3.58a.304.304 0 0 0-.43-.43zm3.66-6.8a.304.304 0 0 0-.43.43L41.63 39a.29.29 0 0 0 .21.09.31.31 0 0 0 .22-.09.3.3 0 0 0 0-.43z"/><path d="M41.63 35l-3.58 3.57a.3.3 0 0 0 0 .43.31.31 0 0 0 .22.09.29.29 0 0 0 .21-.09l3.58-3.57a.304.304 0 0 0-.43-.43zm3.67-6.8a.304.304 0 0 0-.43.43l3.57 3.57a.31.31 0 0 0 .22.09.27.27 0 0 0 .21-.09.3.3 0 0 0 0-.43z"/><use xlink:href="#I" x="13.39" y="13.4"/><path d="M52.1 21.4a.3.3 0 0 0-.43.43l3.57 3.58a.35.35 0 0 0 .22.08.32.32 0 0 0 .21-.08.31.31 0 0 0 0-.44z"/><path d="M55.24 21.4L51.67 25a.3.3 0 0 0 0 .43.3.3 0 0 0 .21.09.31.31 0 0 0 .22-.09l3.57-3.57a.304.304 0 0 0-.43-.43zm3.66-6.82a.304.304 0 1 0-.43.43l3.57 3.58a.31.31 0 0 0 .22.09.3.3 0 0 0 .21-.09.3.3 0 0 0 0-.43z"/><path d="M62.05,14.58l-3.57,3.58a.3.3,0,0,0,0,.43.29.29,0,0,0,.21.09.31.31,0,0,0,.22-.09L62.48,15a.3.3,0,1,0-.43-.43Z"/></g><path d="M219.05 12.62v3.52a.61.61 0 1 0 1.21 0v-.58l.4.4a.63.63 0 0 0 .87 0 .62.62 0 0 0 0-.86zM231 24.55a.61.61 0 0 0-.86.86l3.15 3.15a.6.6 0 0 0 .43.18.61.61 0 0 0 .43-.18.6.6 0 0 0 0-.86zm-6.32-6.3a.62.62 0 0 0-.86 0 .62.62 0 0 0 0 .87l3.18 3.14a.61.61 0 0 0 .43.18.61.61 0 0 0 .43-1zm18.9 18.9a.6.6 0 0 0-.86 0 .62.62 0 0 0 0 .86l3.15 3.14a.61.61 0 0 0 .43.18.61.61 0 0 0 .43-1zm-6.3-6.3a.61.61 0 0 0-.86.86l3.14 3.15a.612.612 0 0 0 .87-.86zm12.6 12.6a.61.61 0 0 0-.86.86l3.15 3.15a.61.61 0 1 0 .86-.86zm5.43 6.3a.6.6 0 0 0 0 .86l.4.4h-.58a.61.61 0 1 0 0 1.22h3.52l-2.5-2.5a.6.6 0 0 0-.86 0zM251.42 51h-3.7a.61.61 0 0 0 0 1.22h3.7a.61.61 0 1 0 0-1.22zm-22.3 0h-3.7a.61.61 0 1 0 0 1.22h3.7a.61.61 0 1 0 0-1.22zm7.43 0h-3.7a.61.61 0 1 0 0 1.22h3.7a.61.61 0 0 0 0-1.22zm7.44 0h-3.7a.61.61 0 0 0 0 1.22h3.7a.61.61 0 0 0 0-1.22zm-22.3 0h-1.45v-1.43a.61.61 0 1 0-1.21 0v2.66h2.66a.61.61 0 0 0 0-1.22zm-2.05-16.9a.6.6 0 0 0-.6.61v3.72a.61.61 0 0 0 1.21 0V34.7a.61.61 0 0 0-.61-.61zm0 7.43a.6.6 0 0 0-.6.61v3.7a.61.61 0 1 0 1.21 0v-3.7a.61.61 0 0 0-.61-.61zm0-14.86a.6.6 0 0 0-.6.61V31a.61.61 0 0 0 1.21 0v-3.72a.61.61 0 0 0-.61-.61zm0-7.43a.61.61 0 0 0-.6.61v3.72a.61.61 0 1 0 1.21 0v-3.72a.61.61 0 0 0-.61-.61z" class="B"/><path d="M148 107.08L158 97.1 148 87.12v19.96z" class="C"/><path d="M229.3 192.43l7.58 7.57h1.3l-8.23-8.23-.66.66zm4.95-4.96L246.78 200h1.3l-13.18-13.2-.66.66zm4.95-4.97l17.5 17.5h1.3l-18.15-18.15-.65.66zm4.97-4.95L266.62 200h1.3l-23.1-23.1-.65.65zm4.96-4.95l27.4 27.4h1.3l-28.06-28.06-.65.65zm4.95-4.97L286.45 200h1.3l-33.02-33.02-.66.65zm4.96-4.95L296.37 200h1.3l-37.98-37.98-.66.66zm4.96-4.96L306.28 200h1.3l-42.94-42.94-.65.66zm4.96-4.96L316.2 200h1.3l-47.9-47.9-.65.66z" class="B"/><path d="M81.52,33.43a.35.35,0,0,0-.5.5l43.14,43.14a.36.36,0,0,0,.5,0,.37.37,0,0,0,0-.5Z" class="C"/><path d="M61.44 88.68l-50.12 50.1a.41.41 0 0 0 .58.58L62 89.26a.42.42 0 0 0 .12-.29.41.41 0 0 0-.69-.29z" class="B"/><path d="M285.4 39.23l-16.25 16.24a.27.27 0 0 0 .38.38l16.24-16.25a.27.27 0 0 0 .08-.19.27.27 0 0 0-.08-.18.25.25 0 0 0-.37 0zM41.3 139.38a1 1 0 0 0 0 1.35L100.58 200h2.7l-60.62-60.62a1 1 0 0 0-1.35 0zM153 25.68a2.23 2.23 0 1 0 2.22 2.23 2.22 2.22 0 0 0-2.22-2.23zm34.68 164.12a2.23 2.23 0 1 0 2.22 2.19 2.22 2.22 0 0 0-2.22-2.19z" class="D"/><use xlink:href="#J" class="B"/><path d="M137.75 12.65A13.54 13.54 0 0 0 151.24 0h-1a12.51 12.51 0 0 1-12.46 11.62A12.52 12.52 0 0 1 125.29 0h-1a13.55 13.55 0 0 0 13.46 12.65z" fill="#fff"/><path d="M94.48 128.07a9.92 9.92 0 1 0 9.91 9.92 9.93 9.93 0 0 0-9.91-9.92zm0 19.1a9.17 9.17 0 1 1 9.17-9.17 9.18 9.18 0 0 1-9.17 9.17z" class="C"/><g class="E"><path d="M88.14 119.6a1 1 0 0 0 .29 0 19.27 19.27 0 0 1 6-1 .92.92 0 0 0 .92-.92.93.93 0 0 0-.92-.92 21 21 0 0 0-6.55 1.06.91.91 0 0 0-.59 1.16.92.92 0 0 0 .85.62zM75.08 138a19.69 19.69 0 0 1 .93-6 .92.92 0 1 0-1.75-.56 21.11 21.11 0 0 0-1 6.52.9.9 0 0 0 .92.9.93.93 0 0 0 .9-.86zm25.32-18.48a19 19 0 0 1 5.41 2.74.89.89 0 0 0 .54.17.92.92 0 0 0 .54-1.66 21.1 21.1 0 0 0-5.93-3 .91.91 0 0 0-1.15.59.92.92 0 0 0 .59 1.16zM76 144a.93.93 0 0 0-1.16-.59.92.92 0 0 0-.59 1.17 21.45 21.45 0 0 0 3 5.91.91.91 0 0 0 .75.38.9.9 0 0 0 .54-.18.93.93 0 0 0 .2-1.29A19.29 19.29 0 0 1 76 144zm36.9-12.07a.93.93 0 0 0 .88.63.93.93 0 0 0 .87-1.21 21.24 21.24 0 0 0-3-5.91.93.93 0 0 0-1.29-.19.9.9 0 0 0-.19 1.28 19.32 19.32 0 0 1 2.73 5.4zm1.9 5.07a1 1 0 0 0-.92 1 19.54 19.54 0 0 1-.94 6 .92.92 0 0 0 .59 1.16.9.9 0 0 0 .28 0 .92.92 0 0 0 .88-.63 21.37 21.37 0 0 0 1-6.56v-.08a.88.88 0 0 0-.89-.89zm-4.63 12.38a19.4 19.4 0 0 1-4.29 4.29.93.93 0 0 0-.2 1.29.91.91 0 0 0 .75.38.94.94 0 0 0 .54-.18 21.12 21.12 0 0 0 4.69-4.7.91.91 0 0 0-.2-1.28.92.92 0 0 0-1.29.2z"/><use xlink:href="#K"/><path d="M88.5 156.45a19.67 19.67 0 0 1-5.4-2.75.926.926 0 1 0-1.1 1.49 21.2 21.2 0 0 0 5.92 3 .86.86 0 0 0 .28 0 .93.93 0 0 0 .88-.64.91.91 0 0 0-.58-1.1zM83.24 121a.93.93 0 0 0-1.29-.2 21.12 21.12 0 0 0-4.68 4.71.91.91 0 0 0 .2 1.28.9.9 0 0 0 .53.21.91.91 0 0 0 .75-.38 19.19 19.19 0 0 1 4.28-4.3.93.93 0 0 0 .21-1.32z"/></g><path d="M69 58.33a5.12 5.12 0 1 0-7.24 7.23L93.3 97.13a5.12 5.12 0 0 0 7.24 0 5.14 5.14 0 0 0 0-7.24zm30.7 37.94a4 4 0 0 1-5.51 0L62.6 64.7a3.9 3.9 0 0 1 5.52-5.51l31.56 31.56a3.91 3.91 0 0 1 0 5.52z" class="F"/><path d="M113 107.26l7.32 7.32 7.32-7.32-7.32-7.32zm7.32 5.6l-5.6-5.6 5.6-5.6 5.6 5.6zm72.955-72.8l3.55-3.55 3.55 3.55-3.55 3.55z" class="B"/><path d="M242.972 141.88l3.55-3.55 3.55 3.55-3.55 3.55z" class="D"/><path d="M59.092 113.494l4.412-4.413 4.413 4.412-4.412 4.413zM292.17 31.2A21.2 21.2 0 0 0 310.86 0h-1.67a19.77 19.77 0 1 1-34 0h-1.67a21.19 21.19 0 0 0 18.69 31.21z" class="B"/><path d="M248.17 9.23a3.68 3.68 0 1 0 3.67 3.68 3.68 3.68 0 0 0-3.67-3.68zm0 6.13a2.46 2.46 0 1 1 2.45-2.45 2.46 2.46 0 0 1-2.45 2.45zm15.35 14.8a1.84 1.84 0 1 0 1.83 1.85 1.84 1.84 0 0 0-1.83-1.85zm0 3.07a1.23 1.23 0 1 1 1.22-1.22 1.23 1.23 0 0 1-1.22 1.22z" class="D"/><use xlink:href="#L" class="E"/><path d="M169.8 69a6.364 6.364 0 0 0-9 9l38 38a6.364 6.364 0 1 0 9-9zm36.7 45.7a4.51 4.51 0 0 1-6.38 0l-38-38a4.515 4.515 0 1 1 6.38-6.39l38 38a4.53 4.53 0 0 1 0 6.42zm-3.13-5a1.88 1.88 0 1 0 1.87 1.87 1.87 1.87 0 0 0-1.87-1.87z" class="D"/><g class="B"><circle cx="195.64" cy="157.95" r="5.91"/><path d="M171.18 162.87a24.47 24.47 0 0 0 1.43 4.67l.84-.35a24.35 24.35 0 0 1-1.37-4.5zM191 181.53l-.18.9a25.21 25.21 0 0 0 4.84.47v-.9a24.14 24.14 0 0 1-4.66-.45zm-18.94-28.2l-.9-.18a25.84 25.84 0 0 0-.46 4.83h.9a23.83 23.83 0 0 1 .45-4.65zm9.74 25.38a24.78 24.78 0 0 0 4.31 2.3l.35-.84a23.65 23.65 0 0 1-4.15-2.22zm-6.17-34.05l-.76-.5a24.78 24.78 0 0 0-2.3 4.31l.84.35a23.74 23.74 0 0 1 2.22-4.16zm15.25-10.25l-.18-.9a25.24 25.24 0 0 0-4.67 1.44l.35.84a23.64 23.64 0 0 1 4.5-1.38zm-8.65 3.6l-.5-.76a25.42 25.42 0 0 0-3.76 3.12l.64.64a24.83 24.83 0 0 1 3.63-3zm-7.3 33.84a25.62 25.62 0 0 0 3.11 3.78l.65-.65a24.4 24.4 0 0 1-3-3.64zm43.73-23.52l-.85.35a23.67 23.67 0 0 1 1.39 4.5l.9-.18a24.47 24.47 0 0 0-1.43-4.67zm-5.45-8.07l-.65.65a24.28 24.28 0 0 1 3 3.63l.75-.5a25.54 25.54 0 0 0-3.1-3.77zm2.42 31.05l.76.5a24.79 24.79 0 0 0 2.31-4.31l-.85-.35a23.3 23.3 0 0 1-2.22 4.15zm4.04-13.45v.1a24.52 24.52 0 0 1-.45 4.69l.9.18a24.82 24.82 0 0 0 .48-4.87v-.1zM195.63 133v.27l.06.64a24.5 24.5 0 0 1 4.61.44l.17-.9a25.41 25.41 0 0 0-4.84-.45zM209 177.92l.5.76a24.87 24.87 0 0 0 3.77-3.1l-.64-.65a24.22 24.22 0 0 1-3.64 2.99zm-8.65 3.58l.18.9a24.17 24.17 0 0 0 4.67-1.41l-.35-.84a23.8 23.8 0 0 1-4.5 1.35zm4.75-46.63l-.34.85a23.61 23.61 0 0 1 4.15 2.21l.5-.76a24.52 24.52 0 0 0-4.32-2.3zm-34.7-16.8c-1.26 1.25-2.78 1-4.55.67s-3.92-.7-5.62 1-1.34 3.8-1 5.63.6 3.3-.67 4.55-2.78 1-4.55.67-3.9-.7-5.62 1-1.33 3.78-1 5.62.6 3.3-.67 4.54-2.78 1-4.54.68-3.92-.7-5.62 1-1.34 3.78-1 5.6.58 3.3-.67 4.55-2.8 1-4.55.67-3.9-.7-5.62 1-1.33 3.78-1 5.62.6 3.3-.67 4.54-2.78 1-4.54.67-3.92-.7-5.62 1-1.33 3.78-1 5.62.6 3.3-.67 4.54-2.78 1-4.54.67-3.9-.7-5.62 1a.6.6 0 0 0 0 .86.61.61 0 0 0 .43.18.6.6 0 0 0 .43-.18c1.26-1.25 2.78-1 4.55-.67s3.9.7 5.62-1 1.33-3.78 1-5.6-.58-3.3.67-4.55 2.78-1 4.54-.67 3.92.7 5.62-1 1.34-3.8 1-5.62-.58-3.3.67-4.55 2.78-1 4.55-.67 3.9.7 5.62-1 1.33-3.78 1-5.62-.6-3.3.67-4.54 2.78-1 4.54-.68 3.92.7 5.62-1 1.34-3.78 1-5.6-.58-3.3.67-4.55 2.78-1 4.55-.67 3.92.7 5.62-1 1.34-3.8 1-5.62-.58-3.3.68-4.55 2.78-1 4.55-.68 3.9.7 5.62-1a.61.61 0 0 0-.86-.86z"/></g><path d="M82.43 11.27a2.4 2.4 0 0 1-1.64-.73A2.43 2.43 0 0 1 80.06 9a.612.612 0 0 0-1.22.11 3.69 3.69 0 0 0 1.09 2.34 3.65 3.65 0 0 0 2.41 1.09.6.6 0 0 0 .61-.56.62.62 0 0 0-.52-.71zm-2.56-6.1a.61.61 0 0 0 .56-.65 3.63 3.63 0 0 0-1.09-2.44A3.6 3.6 0 0 0 77.08 1 .61.61 0 1 0 77 2.2a2.43 2.43 0 0 1 1.57.73 2.48 2.48 0 0 1 .74 1.66.61.61 0 0 0 .56.57zm-7.34-2.53a.61.61 0 0 0 0-1.22 2.48 2.48 0 0 1-1.61-.74 2.76 2.76 0 0 1-.48-.67h-1.3a3.46 3.46 0 0 0 .92 1.53 3.65 3.65 0 0 0 2.47 1.1zM89.74 15h.05a.62.62 0 0 0 .56-.66 3.76 3.76 0 0 0-3.47-3.46.61.61 0 0 0-.09 1.21 2.47 2.47 0 0 1 1.61.74 2.41 2.41 0 0 1 .73 1.61.61.61 0 0 0 .61.56zm26.56 25.46a.61.61 0 0 0 0 1.21 2.55 2.55 0 0 1 2.49 2.21.6.6 0 0 0 .6.53h.08a.61.61 0 0 0 .53-.68 3.6 3.6 0 0 0-1.07-2.17 3.68 3.68 0 0 0-2.63-1.1zm-4.4.42a2.51 2.51 0 0 1-1.5-.73 2.42 2.42 0 0 1-.74-1.73.61.61 0 0 0-1.22 0 3.77 3.77 0 0 0 3.31 3.62h.07a.62.62 0 0 0 .61-.54.61.61 0 0 0-.53-.62zm-2.43-6.28h.07a.62.62 0 0 0 .54-.68 3.6 3.6 0 0 0-1.08-2.24 3.7 3.7 0 0 0-2.5-1.1.611.611 0 0 0-.07 1.22 2.47 2.47 0 0 1 1.71.74 2.37 2.37 0 0 1 .72 1.52.62.62 0 0 0 .61.54zM92.25 21.14a2.53 2.53 0 0 1-2.33-2.37.61.61 0 0 0-1.21.09 3.65 3.65 0 0 0 1.09 2.41 3.61 3.61 0 0 0 2.34 1.08h.06a.61.61 0 0 0 0-1.22zm7.35 3.66h.06a.6.6 0 0 0 .55-.66 3.74 3.74 0 0 0-3.52-3.4.61.61 0 1 0-.08 1.21 2.48 2.48 0 0 1 1.66.74 2.43 2.43 0 0 1 .73 1.56.61.61 0 0 0 .6.55zm2.47 6.2a2.53 2.53 0 0 1-2.28-2.42.611.611 0 0 0-1.22.08 3.76 3.76 0 0 0 3.43 3.56.62.62 0 0 0 .61-.55.61.61 0 0 0-.54-.67zm17.47 17.33a.61.61 0 0 0-1.21.07 3.66 3.66 0 0 0 1.1 2.5.58.58 0 0 0 .43.18.61.61 0 0 0 .43-.18.62.62 0 0 0 0-.86 2.48 2.48 0 0 1-.75-1.71zM99.58 2.87c1.45-.26 2.7-.48 3.7.53s.8 2.25.53 3.7-.6 3.3.87 4.77 3.22 1.14 4.78.87 2.68-.48 3.7.53.8 2.25.54 3.7-.6 3.3.87 4.77 3.22 1.15 4.77.87 2.7-.47 3.7.54.8 2.26.54 3.7-.6 3.3.87 4.77a.61.61 0 1 0 .86-.86c-1-1-.8-2.25-.53-3.7s.58-3.3-.88-4.77-3.22-1.15-4.77-.88-2.7.48-3.7-.53-.8-2.26-.54-3.7.6-3.3-.87-4.77-3.2-1.15-4.77-.87-2.7.48-3.7-.53-.78-2.26-.53-3.7.6-3.32-.87-4.77-3.22-1.15-4.77-.87-2.7.48-3.7-.53A2.45 2.45 0 0 1 95 0h-1.22a3.65 3.65 0 0 0 1 2c1.5 1.45 3.22 1.14 4.8.87zM347 199.35c.75-2.68 1.6-5.7-.7-8s-5.33-1.45-8-.7-4.56 1.16-5.85-.13-.9-3.07-.13-5.86 1.6-5.7-.7-8-5.33-1.45-8-.7-4.57 1.16-5.86-.13-.9-3.07-.13-5.86 1.6-5.7-.7-8-5.32-1.44-8-.7-4.57 1.15-5.85-.13-.9-3.07-.13-5.86 1.6-5.7-.7-8-5.32-1.44-8-.7-4.57 1.16-5.85-.13-.9-3.07-.13-5.86 1.6-5.7-.7-8-5.32-1.44-8-.7-4.57 1.16-5.85-.13-.9-3.07-.13-5.86 1.6-5.7-.7-8a1.09 1.09 0 0 0-1.55 0 1.1 1.1 0 0 0 0 1.56c1.28 1.28.9 3.07.13 5.85s-1.6 5.7.7 8 5.33 1.45 8 .7 4.57-1.16 5.86.13.9 3.07.13 5.85-1.6 5.7.7 8 5.32 1.44 8 .7 4.57-1.16 5.86.13.9 3.07.13 5.85-1.6 5.7.7 8 5.32 1.44 8 .7 4.57-1.16 5.86.13.9 3.07.13 5.85-1.6 5.72.7 8 5.33 1.44 8 .7 4.57-1.16 5.85.13.9 3.08.14 5.86-1.6 5.7.7 8 5.33 1.45 8 .7 4.57-1.16 5.86.13.9 3.08.13 5.86l-.34 1.24h2.28l.2-.64z" class="D"/><g class="C"><path d="M257.06,79.62a.47.47,0,0,0-.67.67l4.37,4.37a.46.46,0,0,0,.33.13.5.5,0,0,0,.34-.13.48.48,0,0,0,0-.67Z"/><path d="M260.76 79.62L256.4 84a.47.47 0 0 0 .66.67l4.37-4.37a.46.46 0 0 0 0-.67.45.45 0 0 0-.66-.01zm4.62-8.32a.474.474 0 1 0-.67.67l4.37 4.37a.47.47 0 0 0 .33.14.49.49 0 0 0 .34-.14.48.48 0 0 0 0-.67z"/><path d="M269.08 71.3l-4.37 4.37a.48.48 0 0 0 0 .67.49.49 0 0 0 .34.14.47.47 0 0 0 .33-.14l4.37-4.33a.474.474 0 0 0-.67-.67zm4.62-8.3a.474.474 0 0 0-.67.67L277.4 68a.51.51 0 0 0 .34.14.47.47 0 0 0 .33-.14.46.46 0 0 0 0-.67z"/><use xlink:href="#M"/><path d="M282,54.65a.46.46,0,0,0-.67,0,.45.45,0,0,0,0,.66l4.37,4.37a.43.43,0,0,0,.33.14.47.47,0,0,0,.34-.8Z"/><path d="M285.73 54.65L281.36 59a.45.45 0 0 0 0 .66.47.47 0 0 0 .33.14.51.51 0 0 0 .34-.14l4.37-4.37a.47.47 0 0 0 0-.66.46.46 0 0 0-.67.02zm4.62-8.33a.474.474 0 1 0-.67.67l4.37 4.37a.51.51 0 0 0 .34.14.47.47 0 0 0 .33-.14.47.47 0 0 0 0-.67z"/><path d="M294.05 46.32l-4.37 4.37a.48.48 0 0 0 0 .67.49.49 0 0 0 .34.14.47.47 0 0 0 .33-.14l4.37-4.36a.47.47 0 0 0 0-.67.48.48 0 0 0-.67-.01zm4.62-8.32a.47.47 0 0 0-.66.66l4.37 4.34a.46.46 0 0 0 .66 0 .45.45 0 0 0 0-.66z"/><path d="M302.38 38L298 42.37a.45.45 0 0 0 0 .66.43.43 0 0 0 .33.14.47.47 0 0 0 .34-.14l4.37-4.37a.47.47 0 0 0 0-.66.46.46 0 0 0-.66 0zm4.62-8.33a.474.474 0 1 0-.67.67l4.37 4.37a.49.49 0 0 0 .34.14.47.47 0 0 0 .33-.14.48.48 0 0 0 0-.67z"/><path d="M310.7 29.67L306.33 34a.48.48 0 0 0 0 .67.49.49 0 0 0 .34.14.47.47 0 0 0 .33-.14l4.37-4.37a.474.474 0 0 0-.67-.67zm4.62-8.32a.47.47 0 1 0-.66.66l4.34 4.4a.47.47 0 1 0 .66-.67z"/><path d="M319 21.35l-4.37 4.37a.47.47 0 0 0 .66.67l4.4-4.4a.47.47 0 1 0-.66-.66zM265.24 87.8a.474.474 0 1 0-.67.67l4.37 4.37a.49.49 0 0 0 .34.14.47.47 0 0 0 .33-.14.48.48 0 0 0 0-.67z"/><path d="M268.94,87.8l-4.37,4.38a.47.47,0,0,0,0,.66.51.51,0,0,0,.34.14.47.47,0,0,0,.33-.14l4.37-4.37a.47.47,0,0,0-.67-.67Z"/><use xlink:href="#N"/><use xlink:href="#O"/><path d="M281.9 71.16a.46.46 0 0 0-.67 0 .47.47 0 0 0 0 .66l4.37 4.37a.43.43 0 0 0 .33.14.45.45 0 0 0 .34-.14.47.47 0 0 0 0-.66z"/><use xlink:href="#P"/><path d="M290.2 62.83a.47.47 0 0 0-.67.67l4.38 4.37a.46.46 0 1 0 .66-.67z"/><path d="M293.92 62.83l-4.37 4.37a.47.47 0 0 0 0 .67.46.46 0 0 0 .66 0l4.37-4.37a.47.47 0 1 0-.66-.67z"/><use xlink:href="#Q"/><use xlink:href="#R"/><path d="M306.86,46.18a.47.47,0,1,0-.67.67l4.37,4.37a.51.51,0,0,0,.34.14.47.47,0,0,0,.33-.14.46.46,0,0,0,0-.67Z"/><use xlink:href="#S"/><path d="M315.2 37.86a.47.47 0 0 0-.67.67l4.37 4.37a.47.47 0 1 0 .66-.67z"/><use xlink:href="#T"/><path d="M323.5 29.53a.47.47 0 1 0-.67.67l4.37 4.37a.49.49 0 0 0 .34.14.47.47 0 0 0 .33-.14.48.48 0 0 0 0-.67z"/><use xlink:href="#U"/><path d="M273.43,96a.48.48,0,0,0-.67,0,.46.46,0,0,0,0,.67l4.37,4.37a.46.46,0,0,0,.33.13.5.5,0,0,0,.34-.13.48.48,0,0,0,0-.67Z"/><path d="M277.13 96l-4.37 4.37a.47.47 0 1 0 .66.67l4.38-4.37a.474.474 0 1 0-.67-.67zm4.62-8.33a.46.46 0 0 0-.67 0 .47.47 0 0 0 0 .66l4.37 4.37a.45.45 0 0 0 .34.14.43.43 0 0 0 .33-.14.47.47 0 0 0 0-.66z"/><path d="M285.45 87.67L281.08 92a.47.47 0 0 0 0 .66.45.45 0 0 0 .34.14.43.43 0 0 0 .33-.14l4.37-4.37a.47.47 0 0 0 0-.66.46.46 0 0 0-.67.04zm4.62-8.33a.47.47 0 1 0-.66.67l4.37 4.37a.46.46 0 0 0 .66 0 .47.47 0 0 0 0-.67z"/><use xlink:href="#V"/><path d="M298.4,71a.46.46,0,0,0-.67,0,.47.47,0,0,0,0,.66l4.37,4.37a.43.43,0,0,0,.33.14.44.44,0,0,0,.34-.14.47.47,0,0,0,0-.66Z"/><use xlink:href="#P" x="16.5" y="-0.16"/><use xlink:href="#N" x="33.16" y="-16.78"/><use xlink:href="#O" x="33.16" y="-16.78"/><path d="M315.05,54.37a.46.46,0,0,0-.67,0,.47.47,0,0,0,0,.67l4.37,4.37a.46.46,0,0,0,.33.13.5.5,0,0,0,.34-.13.48.48,0,0,0,0-.67Z"/><path d="M318.75 54.37l-4.37 4.37a.48.48 0 0 0 0 .67.46.46 0 0 0 .33.13.48.48 0 0 0 .34-.13l4.37-4.4a.48.48 0 0 0 0-.67.46.46 0 0 0-.67.04zm4.62-8.37a.474.474 0 1 0-.67.67l4.37 4.37a.51.51 0 0 0 .34.14.47.47 0 0 0 .33-.14.45.45 0 0 0 0-.66z"/><use xlink:href="#O" x="49.81" y="-33.48"/><path d="M331.7 37.72a.47.47 0 0 0-.66 0 .46.46 0 0 0 0 .67l4.37 4.37a.46.46 0 0 0 .33.13.5.5 0 0 0 .34-.13.48.48 0 0 0 0-.67z"/><path d="M335.4 37.72L331 42.1a.46.46 0 0 0 0 .67.47.47 0 0 0 .33.14.51.51 0 0 0 .34-.14l4.37-4.37a.47.47 0 1 0-.67-.67z"/><use xlink:href="#W"/><use xlink:href="#S" x="-25.26" y="57.99"/><path d="M289.94,95.85a.48.48,0,0,0-.67,0,.47.47,0,0,0,0,.67l4.37,4.37a.47.47,0,0,0,.33.14.51.51,0,0,0,.34-.14.48.48,0,0,0,0-.67Z"/><path d="M293.64 95.85l-4.37 4.37a.47.47 0 0 0 0 .67.47.47 0 0 0 .33.14.51.51 0 0 0 .34-.14l4.37-4.37a.474.474 0 1 0-.67-.67zm4.62-8.32a.46.46 0 0 0-.67 0 .47.47 0 0 0 0 .66l4.4 4.37a.44.44 0 0 0 .34.14.43.43 0 0 0 .33-.14.47.47 0 0 0 0-.66z"/><path d="M302 87.53l-4.37 4.37a.47.47 0 0 0 .34.8.43.43 0 0 0 .33-.14l4.37-4.37a.47.47 0 1 0-.67-.66z"/><use xlink:href="#N" x="33.02" y="-0.28"/><path d="M310.3 79.2l-4.37 4.37a.47.47 0 1 0 .66.67l4.42-4.37a.46.46 0 0 0 0-.67.47.47 0 0 0-.71 0zm4.6-8.32a.46.46 0 0 0-.67 0 .48.48 0 0 0 0 .67l4.37 4.37a.46.46 0 0 0 .33.13.47.47 0 0 0 .34-.13.48.48 0 0 0 0-.67z"/><path d="M318.6 70.88l-4.37 4.37a.48.48 0 0 0 0 .67.46.46 0 0 0 .33.13.47.47 0 0 0 .34-.13l4.37-4.37a.48.48 0 0 0 0-.67.46.46 0 0 0-.67 0zm4.63-8.33a.474.474 0 1 0-.67.67l4.38 4.37a.47.47 0 1 0 .66-.67z"/><use xlink:href="#O" x="49.67" y="-16.93"/><path d="M331.56,54.23a.47.47,0,0,0-.67.67l4.37,4.37a.47.47,0,0,0,.33.14.49.49,0,0,0,.34-.14.48.48,0,0,0,0-.67Z"/><path d="M335.26 54.23l-4.37 4.37a.48.48 0 0 0 0 .67.46.46 0 0 0 .33.13.48.48 0 0 0 .34-.13l4.37-4.37a.48.48 0 0 0 0-.67.46.46 0 0 0-.67 0z"/><use xlink:href="#X"/><path d="M343.58 45.9l-4.37 4.38a.47.47 0 0 0 0 .66.51.51 0 0 0 .34.14.47.47 0 0 0 .33-.14l4.37-4.37a.46.46 0 0 0 0-.67.48.48 0 0 0-.67 0z"/><use xlink:href="#Y"/><path d="M293.5 112.36l-4.37 4.37a.48.48 0 0 0 0 .67.47.47 0 0 0 .33.14.49.49 0 0 0 .34-.14l4.37-4.37a.474.474 0 1 0-.67-.67zm4.62-8.36a.46.46 0 0 0-.67 0 .48.48 0 0 0 0 .67l4.37 4.37a.5.5 0 0 0 .34.13.47.47 0 0 0 .33-.8z"/><path d="M301.82 104l-4.37 4.37a.47.47 0 0 0 .34.8.43.43 0 0 0 .33-.14l4.37-4.37a.45.45 0 0 0 0-.66.46.46 0 0 0-.67 0z"/><use xlink:href="#Z"/><use xlink:href="#O" x="32.88" y="16.22"/><use xlink:href="#W" x="33.17" y="-16.77"/><path d="M318.47 87.4l-4.37 4.37a.47.47 0 0 0 .34.8.46.46 0 0 0 .33-.13l4.37-4.37a.47.47 0 0 0 0-.67.46.46 0 0 0-.67 0z"/><use xlink:href="#a"/><use xlink:href="#O" x="49.53" y="-0.42"/><path d="M331.42,70.74a.47.47,0,0,0-.67.67l4.37,4.37a.48.48,0,0,0,.34.14.47.47,0,0,0,.33-.14.48.48,0,0,0,0-.67Z"/><path d="M335.12 70.74l-4.37 4.37a.48.48 0 0 0 0 .67.46.46 0 0 0 .33.13.47.47 0 0 0 .34-.13l4.37-4.37a.474.474 0 1 0-.67-.67zm4.62-8.32a.47.47 0 1 0-.66.66l4.37 4.37a.46.46 0 0 0 .66 0 .45.45 0 0 0 0-.66z"/><path d="M343.45 62.42l-4.37 4.36a.46.46 0 1 0 .66.67l4.37-4.37a.47.47 0 0 0-.66-.66z"/><use xlink:href="#Y" x="58.27" y="-58.26"/><path d="M351.77 54.1l-4.37 4.37a.48.48 0 0 0 0 .67.47.47 0 0 0 .33.14.49.49 0 0 0 .34-.14l4.37-4.37a.474.474 0 1 0-.67-.67zM298 120.55a.47.47 0 1 0-.66.66l4.37 4.37a.46.46 0 0 0 .66 0 .45.45 0 0 0 0-.66z"/><use xlink:href="#b"/><path d="M306.3 112.22a.47.47 0 0 0-.67.67l4.37 4.37a.47.47 0 0 0 .33.14.51.51 0 0 0 .34-.14.48.48 0 0 0 0-.67z"/><path d="M310 112.22l-4.37 4.37a.48.48 0 0 0 0 .67.47.47 0 0 0 .33.14.49.49 0 0 0 .34-.14l4.37-4.37a.474.474 0 1 0-.67-.67zm4.63-8.32a.46.46 0 0 0-.67 0 .48.48 0 0 0 0 .67l4.37 4.37a.5.5 0 0 0 .34.13.47.47 0 0 0 .33-.8z"/><path d="M318.34 103.9l-4.34 4.37a.48.48 0 0 0 0 .67.5.5 0 0 0 .34.13.46.46 0 0 0 .33-.13l4.37-4.37a.46.46 0 0 0 0-.67.45.45 0 0 0-.7 0zm4.66-8.32a.46.46 0 0 0-.67 0 .45.45 0 0 0 0 .66l4.37 4.37a.47.47 0 0 0 .33.14.51.51 0 0 0 .34-.14.47.47 0 0 0 0-.66z"/><use xlink:href="#c"/><path d="M331.28 87.25a.47.47 0 0 0-.67.67l4.4 4.37a.51.51 0 0 0 .34.14.47.47 0 0 0 .33-.14.48.48 0 0 0 0-.67z"/><path d="M335 87.25l-4.37 4.37a.48.48 0 0 0 0 .67.51.51 0 0 0 .34.14.47.47 0 0 0 .33-.14l4.37-4.37a.474.474 0 0 0-.67-.67zm4.6-8.32a.47.47 0 1 0-.66.66l4.37 4.4a.46.46 0 0 0 .66 0 .45.45 0 0 0 0-.66z"/><path d="M343.3 78.93l-4.37 4.37a.45.45 0 0 0 0 .66.46.46 0 0 0 .66 0l4.4-4.37a.47.47 0 0 0 0-.66.46.46 0 0 0-.69 0zm4.63-8.33a.474.474 0 0 0-.67.67l4.37 4.37a.49.49 0 0 0 .34.14.47.47 0 0 0 .33-.14.48.48 0 0 0 0-.67z"/><path d="M351.63 70.6l-4.37 4.4a.48.48 0 0 0 0 .67.49.49 0 0 0 .34.14.47.47 0 0 0 .33-.14l4.37-4.37a.474.474 0 1 0-.67-.67zm4.62-8.32a.47.47 0 1 0-.66.66l4.4 4.37a.46.46 0 0 0 .66 0 .45.45 0 0 0 0-.66z"/><path d="M360,62.28l-4.37,4.37a.45.45,0,0,0,0,.66.46.46,0,0,0,.66,0l4.37-4.37a.47.47,0,0,0-.66-.66Z"/></g><g class="B"><path d="M137 47.1a.82.82 0 0 0-1.16 0 .83.83 0 0 0 0 1.17l6.42 6.42a.84.84 0 0 0 .59.24.82.82 0 0 0 .58-1.4z"/><path d="M142.22 47.1l-6.42 6.43a.835.835 0 0 0 1.2 1.16l6.42-6.42a.83.83 0 0 0 0-1.17.82.82 0 0 0-1.2 0zm79.06 82.26a.42.42 0 0 0-.59.59l3.26 3.26a.42.42 0 0 0 .29.12.42.42 0 0 0 .3-.71z"/><path d="M224 129.36l-3.26 3.26a.42.42 0 0 0 .3.71.42.42 0 0 0 .29-.12l3.25-3.26a.4.4 0 0 0 0-.59.41.41 0 0 0-.58 0zM36.75 64.08a.495.495 0 0 0-.7.7l3.9 3.9a.5.5 0 0 0 .35.15.47.47 0 0 0 .35-.15.48.48 0 0 0 0-.7z"/><path d="M39.94 64.08L36.05 68a.5.5 0 0 0 0 .7.49.49 0 0 0 .35.15.47.47 0 0 0 .35-.15l3.9-3.9a.48.48 0 0 0 0-.7.5.5 0 0 0-.7-.03zM54.66 183a.48.48 0 0 0-.65 0 .46.46 0 0 0 0 .65l3.57 3.58a.47.47 0 0 0 .65 0 .46.46 0 0 0 0-.65z"/><path d="M57.58 183L54 186.6a.46.46 0 0 0 0 .65.47.47 0 0 0 .65 0l3.57-3.58a.46.46 0 0 0 0-.65.48.48 0 0 0-.64-.02zm174-112.52a.52.52 0 0 0-.52.51v5.7a.52.52 0 0 0 1 0V71a.52.52 0 0 0-.48-.52z"/><path d="M234.42 73.33h-5.7a.52.52 0 0 0 0 1h5.7a.52.52 0 1 0 0-1zM169.7 38.5a.56.56 0 0 0-.79.79l3.9 3.9a.57.57 0 0 0 .4.16.55.55 0 0 0 .4-.16.57.57 0 0 0 0-.8z"/><path d="M172.8 38.5l-3.9 3.9a.57.57 0 0 0 0 .8.54.54 0 0 0 .39.16.55.55 0 0 0 .4-.16l3.9-3.9a.56.56 0 0 0 0-.79.57.57 0 0 0-.8 0zm4.2 7.3a.57.57 0 0 0-.8 0 .59.59 0 0 0 0 .8l3.9 3.9a.56.56 0 0 0 .79-.79z"/><path d="M180.12 45.8l-3.9 3.9a.59.59 0 0 0 0 .8.57.57 0 0 0 .4.16.55.55 0 0 0 .4-.16l3.9-3.9a.57.57 0 0 0 0-.8.56.56 0 0 0-.79 0zm4.2 7.32a.57.57 0 1 0-.8.8l3.9 3.9a.56.56 0 0 0 .79-.79z"/><path d="M187.44 53.12l-3.9 3.88a.57.57 0 0 0 .4 1 .58.58 0 0 0 .4-.17l3.9-3.9a.57.57 0 0 0 0-.8.56.56 0 0 0-.79-.01zm4.2 7.32a.56.56 0 0 0-.79.79l3.9 3.9a.57.57 0 0 0 .4.16.55.55 0 0 0 .4-.16.57.57 0 0 0 0-.8z"/><path d="M194.75 60.44l-3.9 3.9a.56.56 0 1 0 .79.79l3.9-3.9a.56.56 0 0 0 0-.79.57.57 0 0 0-.8 0zm4.25 7.32a.56.56 0 0 0-.79.79l3.9 3.9a.57.57 0 1 0 .8-.8z"/><use xlink:href="#d"/><path d="M206.28 75.07a.57.57 0 0 0-.8.8l3.9 3.9a.56.56 0 1 0 .79-.79z"/><path d="M209.4 75.07l-3.9 3.93a.56.56 0 1 0 .8.79l3.9-3.9a.57.57 0 0 0 0-.8.56.56 0 0 0-.79-.02z"/></g><g class="C"><path d="M457.12 144.067l2.157-2.157.72.72-2.157 2.157z"/><use xlink:href="#E" x="409.663" y="8.854"/><use xlink:href="#C" x="346.46" y="-4.589"/><path d="M403.2 198l-2 2h1.44l1.3-1.28-.72-.73zm45.63-45.64l4.15-4.152.722.72-4.15 4.152z"/><use xlink:href="#C" x="363.054" y="-21.181"/><use xlink:href="#C" x="379.647" y="-37.763"/><use xlink:href="#C" x="371.344" y="-29.479"/><use xlink:href="#C" x="349.279" y="-18.353"/><use xlink:href="#C" x="332.692" y="-1.756"/><use xlink:href="#C" x="340.994" y="-10.063"/><use xlink:href="#E" x="437.387" y="-29.802"/><use xlink:href="#C" x="374.164" y="-43.243"/><use xlink:href="#C" x="365.88" y="-34.953"/><use xlink:href="#C" x="357.578" y="-26.645"/><path d="M451.65 138.6l.72.72 2.16-2.15-.73-.72-2.15 2.15z"/><use xlink:href="#C" x="335.511" y="-15.521"/><use xlink:href="#C" x="327.219" y="-7.237"/><path d="M383.96 195.34l-4.15 4.15.5.5h.42l3.94-3.94-.72-.72z"/><use xlink:href="#C" x="352.104" y="-32.127"/><use xlink:href="#C" x="376.99" y="-57.003"/><use xlink:href="#E" x="423.616" y="-26.977"/><use xlink:href="#C" x="360.397" y="-40.421"/><use xlink:href="#C" x="343.814" y="-23.829"/><use xlink:href="#D" x="377.009" y="-56.986"/><path d="M370.2 198.17l-1.83 1.83h1.44l1.1-1.1-.72-.72z"/><use xlink:href="#C" x="330.038" y="-21.003"/><use xlink:href="#C" x="321.737" y="-12.705"/><use xlink:href="#C" x="313.452" y="-4.413"/><use xlink:href="#C" x="338.337" y="-29.303"/><use xlink:href="#C" x="346.632" y="-37.595"/><use xlink:href="#C" x="354.931" y="-45.885"/><use xlink:href="#C" x="371.518" y="-62.483"/><use xlink:href="#C" x="363.226" y="-54.186"/><use xlink:href="#B" x="366.045" y="-67.953"/><use xlink:href="#D" x="293.388" y="4.726"/><use xlink:href="#C" x="332.864" y="-34.761"/><use xlink:href="#C" x="307.972" y="-9.878"/><use xlink:href="#C" x="316.271" y="-18.179"/><use xlink:href="#C" x="324.574" y="-26.477"/><use xlink:href="#C" x="357.75" y="-59.651"/><use xlink:href="#C" x="366.052" y="-67.959"/><use xlink:href="#C" x="349.458" y="-51.367"/><use xlink:href="#C" x="341.156" y="-43.069"/><use xlink:href="#B" x="360.569" y="-73.427"/><use xlink:href="#D" x="287.916" y="-0.742"/><use xlink:href="#C" x="310.804" y="-23.643"/><use xlink:href="#E" x="374.001" y="-10.205"/><use xlink:href="#C" x="302.496" y="-15.353"/><path d="M388.278 158.18l4.148-4.154.722.72L389 158.9z"/><use xlink:href="#C" x="352.277" y="-65.123"/><use xlink:href="#C" x="335.691" y="-48.533"/><use xlink:href="#C" x="360.576" y="-73.423"/><use xlink:href="#C" x="343.984" y="-56.835"/><use xlink:href="#D" x="360.593" y="-73.42"/><use xlink:href="#B" x="276.962" y="-11.69"/><path d="M358.32 177.188l4.55-4.557.722.72-4.55 4.557zm18.203-18.203l4.55-4.557.722.72-4.55 4.557zm-9.085 9.112l4.557-4.55.72.722-4.557 4.55zm18.208-18.213l4.557-4.55.72.722-4.557 4.55zm9.09-9.112l4.55-4.557.722.72-4.55 4.557z"/><use xlink:href="#D" x="334.671" y="-58.442"/><use xlink:href="#D" x="276.967" y="-11.69"/><path d="M352.57 172l4.275-4.28.722.72-4.275 4.28zm8.55-8.543l4.275-4.28.722.72-4.275 4.28zm25.663-25.662l4.275-4.28.722.72-4.275 4.28zm-17.1 17.11l4.275-4.28.722.72-4.275 4.28zm8.552-8.552l4.275-4.28.722.72-4.275 4.28z"/><use xlink:href="#B" x="320.678" y="-66.348"/><use xlink:href="#D" x="271.501" y="-17.166"/><path d="M356.536 157.084l4.565-4.57.722.72-4.565 4.57zm-9.14 9.146l4.565-4.57.722.72-4.565 4.57zm27.423-27.417l4.565-4.57.722.72-4.565 4.57zm-9.14 9.137l4.565-4.57.722.72-4.565 4.57zm18.283-18.283l4.565-4.57.722.72-4.565 4.57z"/><use xlink:href="#D" x="323.916" y="-69.586"/><use xlink:href="#D" x="266.018" y="-22.633"/><use xlink:href="#C" x="305.494" y="-62.131"/><use xlink:href="#C" x="297.204" y="-53.823"/><use xlink:href="#C" x="288.918" y="-45.543"/><use xlink:href="#C" x="280.609" y="-37.241"/><use xlink:href="#C" x="338.689" y="-95.323"/><use xlink:href="#C" x="330.39" y="-87.021"/><use xlink:href="#C" x="313.804" y="-70.433"/><use xlink:href="#C" x="322.088" y="-78.723"/><path d="M407.88 94.817l2.15-2.15.72.72-2.15 2.15z"/><use xlink:href="#B" x="255.065" y="-33.577"/><use xlink:href="#C" x="291.737" y="-59.308"/><use xlink:href="#C" x="300.029" y="-67.606"/><use xlink:href="#C" x="283.434" y="-51.013"/><use xlink:href="#C" x="275.144" y="-42.716"/><use xlink:href="#C" x="316.622" y="-84.198"/><use xlink:href="#E" x="363.228" y="-54.17"/><use xlink:href="#e"/><use xlink:href="#C" x="324.914" y="-92.496"/><path d="M402.396 89.344l2.15-2.15.72.72-2.15 2.15z"/><use xlink:href="#B" x="249.599" y="-39.052"/><use xlink:href="#C" x="286.254" y="-64.78"/><use xlink:href="#C" x="269.668" y="-48.191"/><use xlink:href="#C" x="277.962" y="-56.483"/><use xlink:href="#C" x="294.564" y="-73.08"/><use xlink:href="#C" x="311.157" y="-89.663"/><use xlink:href="#e" x="-5.465" y="-5.47"/><use xlink:href="#C" x="302.848" y="-81.371"/><use xlink:href="#e" x="-13.758" y="2.822"/><path d="M396.924 83.867l2.15-2.15.72.72-2.15 2.15z"/><use xlink:href="#D" x="249.603" y="-39.056"/><use xlink:href="#C" x="289.08" y="-78.548"/><use xlink:href="#C" x="264.188" y="-53.665"/><use xlink:href="#C" x="272.497" y="-61.956"/><use xlink:href="#C" x="280.788" y="-70.253"/><use xlink:href="#e" x="-19.232" y="-2.642"/><use xlink:href="#e" x="-10.932" y="-10.95"/><use xlink:href="#E" x="352.296" y="-65.112"/><use xlink:href="#C" x="305.674" y="-95.143"/><path d="M391.458 78.397l2.15-2.15.72.72-2.15 2.15z"/><use xlink:href="#D" x="244.138" y="-44.532"/><use xlink:href="#C" x="275.324" y="-75.729"/><use xlink:href="#C" x="283.607" y="-84.02"/><use xlink:href="#C" x="258.722" y="-59.13"/><use xlink:href="#C" x="267.021" y="-67.431"/><use xlink:href="#e" x="-33.004" y="0.179"/><use xlink:href="#e" x="-16.407" y="-16.42"/><use xlink:href="#e" x="-24.704" y="-8.118"/><use xlink:href="#E" x="346.831" y="-70.587"/><path d="M385.982 72.927l2.15-2.15.72.72-2.15 2.15z"/><use xlink:href="#D" x="238.666" y="-49.99"/><use xlink:href="#C" x="261.548" y="-72.903"/><use xlink:href="#C" x="269.84" y="-81.196"/><use xlink:href="#C" x="253.256" y="-64.603"/><use xlink:href="#C" x="278.142" y="-89.493"/><use xlink:href="#e" x="-21.887" y="-21.89"/><use xlink:href="#e" x="-30.17" y="-13.598"/><use xlink:href="#e" x="-46.77" y="2.992"/><use xlink:href="#e" x="-38.47" y="-5.291"/><path d="M380.5 67.454l2.15-2.15.72.72-2.15 2.15zm134 58.206a.24.24 0 0 0-.31-.15.26.26 0 0 0-.15.31l1.6 4a.25.25 0 0 0 .22.15h.1a.25.25 0 0 0 .12-.33l-1.57-3.98zm-2.6-8.36a.26.26 0 0 0-.19.29l1 4.15a.24.24 0 0 0 .23.18h.07a.25.25 0 0 0 .17-.3l-1-4.12a.25.25 0 0 0-.28-.2zm6.02 16.12a.25.25 0 0 0-.33-.11.24.24 0 0 0-.1.33l2.1 3.72a.26.26 0 0 0 .21.11.28.28 0 0 0 .13 0 .25.25 0 0 0 .08-.34l-2.1-3.7zm-7.05-28.56v-.23l.14-4.24a.24.24 0 0 0-.23-.26.25.25 0 0 0-.26.22l-.14 4.28v.23a.25.25 0 0 0 .49 0zm-.1 4a.24.24 0 0 0-.22.26l.45 4.25a.23.23 0 0 0 .24.21.24.24 0 0 0 .21-.27l-.44-4.22a.26.26 0 0 0-.24-.23zm41.64 54.43l-3.95-1.55a.24.24 0 0 0-.32.12.23.23 0 0 0 .12.32l4 1.56h.08a.24.24 0 0 0 .23-.16.23.23 0 0 0-.16-.29zm8.17 2.25l-4.13-1a.24.24 0 0 0-.3.17.24.24 0 0 0 .17.29l4.16 1a.25.25 0 0 0 .24-.2.25.25 0 0 0-.14-.26zm-38.22-24.9a.25.25 0 0 0-.34-.06.24.24 0 0 0 0 .34l2.6 3.4a.25.25 0 0 0 .19.09.27.27 0 0 0 .15 0 .25.25 0 0 0 0-.35l-2.6-3.42zm11.6 12.36a.24.24 0 1 0-.3.37l3.4 2.58a.24.24 0 0 0 .14 0 .25.25 0 0 0 .14-.45l-3.4-2.5zm-6.2-5.8a.25.25 0 0 0-.35 0 .26.26 0 0 0 0 .35l3 3a.24.24 0 0 0 .16.07.25.25 0 0 0 .17-.43l-2.98-3zm-16.57-50.83a.25.25 0 0 0 .24-.21l.7-4.2a.24.24 0 0 0-.19-.29.24.24 0 0 0-.28.19l-.72 4.22a.23.23 0 0 0 .24.28zm29.74 61.5a.25.25 0 0 0-.34.08.23.23 0 0 0 .09.33l3.73 2.1h.1a.25.25 0 0 0 .22-.13.24.24 0 0 0-.1-.33l-3.7-2.05zm3.4-108.4h.1l3.83-1.83a.23.23 0 0 0 .12-.32.25.25 0 0 0-.32-.12l-3.86 1.84a.25.25 0 0 0-.1.33.25.25 0 0 0 .22.1zm16-5.7h.05l4.2-.72a.25.25 0 0 0 .2-.28.24.24 0 0 0-.27-.21l-4.22.73a.24.24 0 0 0-.18.29.24.24 0 0 0 .23.19zm-8.2 2.3h.1l4-1.3a.25.25 0 0 0 .17-.3.24.24 0 0 0-.3-.17l-4.08 1.3a.24.24 0 0 0-.14.31.23.23 0 0 0 .26.15zm16.63-3.45l4.24-.14a.25.25 0 0 0 0-.49l-4.28.15a.24.24 0 0 0-.22.26.23.23 0 0 0 .26.22zm66.6 57.9a.24.24 0 0 0 .22-.26l-.44-4.26a.24.24 0 0 0-.27-.2.23.23 0 0 0-.21.27l.44 4.22a.24.24 0 0 0 .26.23zM537 53.88a.24.24 0 0 0 .14-.05l3.54-2.33a.24.24 0 0 0 .09-.33.24.24 0 0 0-.34-.08l-3.57 2.35a.24.24 0 0 0-.06.34.26.26 0 0 0 .2.1zM515.77 80a.25.25 0 0 0 .23-.15l1.82-3.84a.23.23 0 0 0-.1-.32.24.24 0 0 0-.33.1l-1.84 3.87a.24.24 0 0 0 .12.32zm-2.92 8h.07a.23.23 0 0 0 .23-.18l1.3-4a.25.25 0 0 0-.15-.31.24.24 0 0 0-.31.15l-1.3 4.08a.24.24 0 0 0 .16.26zm6.85-15.56a.25.25 0 0 0 .21-.12l2.33-3.55a.24.24 0 0 0-.06-.33.24.24 0 0 0-.34 0l-2.35 3.58a.24.24 0 0 0 .08.33.2.2 0 0 0 .13.09zm10.73-13.18a.23.23 0 0 0 .17-.07c1-1 2.1-1.9 3.2-2.8a.242.242 0 1 0-.3-.38l-3.23 2.82a.25.25 0 0 0 .17.42zm-5.8 6.22a.21.21 0 0 0 .18-.09l2.8-3.2a.23.23 0 0 0 0-.34.24.24 0 0 0-.34 0c-1 1-1.92 2.13-2.8 3.22a.25.25 0 0 0 0 .35.3.3 0 0 0 .18.06zm65.44-20.93a.24.24 0 0 0-.17-.3l-4.16-1a.23.23 0 0 0-.28.18.24.24 0 0 0 .19.29l4.12 1h.07a.24.24 0 0 0 .23-.17zm38.38 31.52a.27.27 0 0 0 .12 0 .25.25 0 0 0 .1-.33l-2.1-3.72a.25.25 0 1 0-.42.26l2.1 3.7a.24.24 0 0 0 .21.1zm1.7 53.23l-1.82 3.84a.25.25 0 0 0 .11.33.2.2 0 0 0 .11 0 .24.24 0 0 0 .22-.13l1.83-3.87a.25.25 0 0 0-.13-.32.25.25 0 0 0-.32.15z"/><use xlink:href="#F" x="377" y="-57"/><path d="M621.36 143.77l-2.78 3.2a.24.24 0 0 0 0 .34.23.23 0 0 0 .16.07.25.25 0 0 0 .18-.08q1.46-1.56 2.8-3.23a.24.24 0 0 0 0-.34.25.25 0 0 0-.37.03zm2.8-75a.24.24 0 0 0 .05-.34l-2.6-3.4a.241.241 0 0 0-.37.31l2.57 3.38a.25.25 0 0 0 .2.1.3.3 0 0 0 .14-.05zm-5.35-6.6a.25.25 0 0 0 0-.35l-3-3a.25.25 0 0 0-.34 0 .25.25 0 0 0 0 .35l3 3a.26.26 0 0 0 .18.07.27.27 0 0 0 .16-.07zM569 166.68l-4.23-.42a.242.242 0 1 0-.06.48l4.26.42a.23.23 0 0 0 .24-.23.23.23 0 0 0-.21-.25zm66.47-62.4a.24.24 0 0 0-.24.24v.12l-.14 4.12a.241.241 0 1 0 .48.04l.13-4.28a.24.24 0 0 0-.23-.24zm-.47 8.5a.24.24 0 0 0-.28.21l-.7 4.18a.26.26 0 0 0 .19.29h.05a.24.24 0 0 0 .24-.19l.7-4.22a.24.24 0 0 0-.2-.27z"/><use xlink:href="#G" x="377" y="-57"/><path d="M634.16 92.06h.05a.24.24 0 0 0 .18-.29l-1-4.16a.24.24 0 0 0-.3-.16.24.24 0 0 0-.17.3l1 4.12a.24.24 0 0 0 .24.19zm-2.3-8.2h.08a.24.24 0 0 0 .15-.31l-1.58-4a.25.25 0 0 0-.32-.13.24.24 0 0 0-.12.32l1.56 3.94a.26.26 0 0 0 .23.18zm-33.77-36.44a.23.23 0 0 0-.12-.32l-4-1.57a.244.244 0 0 0-.16.46l4 1.55a.18.18 0 0 0 .1 0 .24.24 0 0 0 .18-.12zM615.58 150c-1 1-2.1 1.9-3.2 2.8a.25.25 0 0 0 0 .34.25.25 0 0 0 .19.09.24.24 0 0 0 .16-.05l3.2-2.82a.241.241 0 1 0-.33-.35zm-29.72 15.5l-4.18.72a.25.25 0 0 0 0 .49l4.2-.73a.24.24 0 1 0-.1-.47zm-4.13-122.7a.25.25 0 0 0-.21-.27l-4.26-.43a.24.24 0 0 0-.26.23.25.25 0 0 0 .23.26l4.22.42a.26.26 0 0 0 .28-.21zm-4.27 123.85l-4.24.16a.23.23 0 0 0-.24.24.24.24 0 0 0 .24.24l4.27-.15a.25.25 0 0 0 .23-.26.25.25 0 0 0-.26-.23zm16.54-3.47l-4 1.3a.25.25 0 0 0-.17.3.25.25 0 0 0 .24.18h.07l4.07-1.3a.25.25 0 1 0-.17-.46zm15-7.83l-3.54 2.34a.25.25 0 0 0-.09.34.26.26 0 0 0 .21.11.28.28 0 0 0 .13 0l3.57-2.36a.244.244 0 0 0-.28-.4zm3.58-99.05a.23.23 0 0 0 0-.34l-3.4-2.58a.24.24 0 0 0-.34.06.25.25 0 0 0 .06.34l3.4 2.56a.21.21 0 0 0 .15 0 .25.25 0 0 0 .15-.04zm-6.94-4.93a.24.24 0 0 0-.09-.33l-3.73-2.1a.25.25 0 0 0-.22.44l3.7 2.08a.28.28 0 0 0 .13 0 .25.25 0 0 0 .21-.09zm-3.84 108.4l-3.83 1.84a.23.23 0 0 0-.12.32.24.24 0 0 0 .22.14.2.2 0 0 0 .1 0l3.85-1.85a.23.23 0 0 0 .1-.32.24.24 0 0 0-.32-.13zM669.17 41.1A88.09 88.09 0 0 0 743.63 0h-.4a87.77 87.77 0 0 1-74.06 40.74A87.74 87.74 0 0 1 595.11 0h-.4a88.12 88.12 0 0 0 74.47 41.09z"/></g><path d="M371.07 12.08a.15.15 0 0 0-.2-.06.14.14 0 0 0-.07.2l2.37 4.1a.17.17 0 0 0 .13.07.11.11 0 0 0 .08 0 .13.13 0 0 0 .05-.2l-2.36-4.1zm-3.7-8.62a.16.16 0 0 0-.2-.1.14.14 0 0 0-.09.19l1.68 4.4a.15.15 0 0 0 .14.1L369 8a.15.15 0 0 0 .08-.2c-.65-1.4-1.2-2.87-1.7-4.34zM376.1 20a.15.15 0 0 0-.24.18l3 3.65a.13.13 0 0 0 .12.05.19.19 0 0 0 .1 0 .17.17 0 0 0 0-.22L376.1 20zm6.25 7a.16.16 0 0 0-.22 0 .17.17 0 0 0 0 .22l3.54 3.13a.17.17 0 0 0 .1 0 .15.15 0 0 0 .09-.27c-1.2-.93-2.38-1.97-3.5-3.08zm96-23.75a.14.14 0 0 0-.19.09l-1.67 4.4a.16.16 0 0 0 .08.2h.06a.14.14 0 0 0 .14-.09l1.68-4.42a.15.15 0 0 0-.1-.18zM463.2 27l-3.52 3.12a.16.16 0 0 0 0 .21.14.14 0 0 0 .12.06.11.11 0 0 0 .09 0l3.54-3.13a.16.16 0 0 0 0-.22.15.15 0 0 0-.23-.04zm11.26-15l-2.35 4.07a.15.15 0 0 0 .05.21.11.11 0 0 0 .08 0 .15.15 0 0 0 .13-.07l2.36-4.1a.15.15 0 0 0-.06-.2.15.15 0 0 0-.21.08zm-5.02 7.93l-3 3.64a.15.15 0 0 0 0 .21.12.12 0 0 0 .1 0 .16.16 0 0 0 .11-.05l3-3.66a.15.15 0 0 0-.24-.18zm-39.6 22.9l-4.7.37a.16.16 0 0 0 0 .31l4.7-.38a.15.15 0 1 0-.02-.3zM389.63 33a.16.16 0 0 0-.21 0 .15.15 0 0 0 0 .21l4 2.53h.08a.16.16 0 0 0 .13-.08.16.16 0 0 0-.05-.21q-2-1.15-3.95-2.45zM439 41l-4.57 1.12a.15.15 0 0 0-.11.18.14.14 0 0 0 .14.13l4.6-1.13a.152.152 0 1 0-.05-.3zm16.94-8.1l-4 2.5a.16.16 0 0 0-.06.21.16.16 0 0 0 .14.08h.07l4-2.53a.16.16 0 0 0 0-.22.15.15 0 0 0-.15-.05zm-8.14 4.7l-4.32 1.85a.15.15 0 0 0 .06.29h.05l4.34-1.85a.17.17 0 0 0 .08-.21.16.16 0 0 0-.21-.08zm-45.7 1.9l-4.33-1.84a.15.15 0 0 0-.2.07.15.15 0 0 0 .07.2l4.35 1.85h.06a.14.14 0 0 0 .14-.1.15.15 0 0 0-.09-.18zm18.35 3.7l-4.68-.37a.16.16 0 0 0-.17.13.15.15 0 0 0 .13.17l4.7.37a.15.15 0 1 0 0-.3zm-9.33-1.1l-4.56-1.12a.15.15 0 0 0-.19.1.15.15 0 0 0 .11.19l4.58 1.12a.14.14 0 0 0 .15-.12.14.14 0 0 0-.09-.17z" class="B"/><path d="M525 50.08L535 40.1 525 30.12v19.96z" class="C"/><path d="M576.54 165.18L611.37 200h1.3l-35.48-35.48-.66.66zm4.96-4.96L621.28 200h1.3l-40.44-40.44-.65.66zm4.96-4.96L631.2 200h1.3l-45.4-45.4-.65.66zm4.96-4.96l49.7 49.7h1.3l-50.36-50.35-.65.65zm4.96-4.96L651.03 200h1.3l-55.3-55.3-.65.65zm4.95-4.96L660.95 200h1.3L602 139.73l-.66.65zm4.97-4.95L670.87 200h1.3l-65.22-65.23-.66.66zm4.946-4.966l.658-.658 67.8 67.8-.658.658zm4.96-4.964l.658-.658 67.797 67.797-.658.658zm4.96-4.955l.658-.658 67.797 67.797-.658.658zm4.96-4.955l.658-.658 67.8 67.8-.658.658zm4.95-4.95l.658-.658 67.8 67.8-.658.658zm4.96-4.964l.658-.658 67.8 67.8-.658.658zm4.96-4.956l.658-.658 67.8 67.8-.658.658zm4.96-4.963l.658-.658 67.8 67.8-.658.658z" class="B"/><path d="M501.4 20.17a.35.35 0 0 0 .25-.1.37.37 0 0 0 0-.5L482.1 0h-1l20.07 20.07a.35.35 0 0 0 .25.1z" class="C"/><path d="M438.44 31.68l-50.12 50.1a.41.41 0 0 0 .58.58l50.1-50.1a.42.42 0 0 0 .12-.29.41.41 0 0 0-.69-.29z" class="B"/><path d="M419.66,82.38a1,1,0,0,0-1.35,1.35l71.85,71.85a1,1,0,0,0,1.35,0,1,1,0,0,0,0-1.35Z" class="D"/><path d="M519 119a13.41 13.41 0 0 0-9.48 22.89L567.7 200h2.6l-59.45-59.45a11.58 11.58 0 1 1 16.38-16.37L603 200h2.6l-77.1-77.12A13.32 13.32 0 0 0 519 119z" class="C"/><path d="M564.68 132.8a2.23 2.23 0 1 0 2.22 2.19 2.22 2.22 0 0 0-2.22-2.19z" class="D"/><use xlink:href="#J" x="377" y="-57" class="B"/><path d="M471.47 71.07a9.92 9.92 0 1 0 9.92 9.93 9.93 9.93 0 0 0-9.92-9.93zm0 19.1a9.17 9.17 0 1 1 9.18-9.16 9.18 9.18 0 0 1-9.18 9.16z" class="C"/><g class="E"><path d="M452.08 81a19.53 19.53 0 0 1 .92-6 .92.92 0 1 0-1.75-.57 21.11 21.11 0 0 0-1 6.52.9.9 0 0 0 .92.9.93.93 0 0 0 .91-.85zm13.06-18.4a1 1 0 0 0 .29 0 19.27 19.27 0 0 1 6-1 .92.92 0 0 0 0-1.84 21.1 21.1 0 0 0-6.56 1.06.92.92 0 0 0 .29 1.79zm12.26-.08a19.16 19.16 0 0 1 5.41 2.74.89.89 0 0 0 .54.17.92.92 0 0 0 .54-1.67 21.34 21.34 0 0 0-5.93-3 .92.92 0 1 0-.56 1.75zm12.5 12.4a.93.93 0 0 0 .88.64.93.93 0 0 0 .87-1.21 21.1 21.1 0 0 0-3-5.91.923.923 0 0 0-1.49 1.09 19.16 19.16 0 0 1 2.74 5.39zM453 87a.92.92 0 1 0-1.75.57 21.45 21.45 0 0 0 3 5.91.94.94 0 0 0 .75.38.9.9 0 0 0 .54-.18.93.93 0 0 0 .2-1.29A19.37 19.37 0 0 1 453 87zm39.7-6.1a.88.88 0 0 0-.92-.88 1 1 0 0 0-.92 1 19.25 19.25 0 0 1-.95 6 .93.93 0 0 0 .6 1.16.92.92 0 0 0 .28 0 .93.93 0 0 0 .88-.64 21.42 21.42 0 0 0 1-6.59h-.92z"/><use xlink:href="#K" x="377" y="-57"/><path d="M487.17 92.38a19.4 19.4 0 0 1-4.29 4.29.93.93 0 0 0-.2 1.29.91.91 0 0 0 .75.38.94.94 0 0 0 .54-.18 21.29 21.29 0 0 0 4.69-4.69.923.923 0 0 0-1.49-1.09zm-21.67 7.06a19.37 19.37 0 0 1-5.4-2.74.926.926 0 1 0-1.1 1.49 21.34 21.34 0 0 0 5.92 3 .86.86 0 0 0 .28 0 .92.92 0 0 0 .28-1.8zM460.23 64a.91.91 0 0 0-1.28-.2 21.38 21.38 0 0 0-4.69 4.71.92.92 0 0 0 .21 1.28.9.9 0 0 0 .53.21.93.93 0 0 0 .75-.38 19.35 19.35 0 0 1 4.27-4.3.93.93 0 0 0 .21-1.32z"/></g><path d="M438.73 8.56l31.57 31.57a5.12 5.12 0 0 0 7.24 0 5.14 5.14 0 0 0 0-7.24L446 1.33A5 5 0 0 0 443.6 0h-2.5a5 5 0 0 0-2.37 1.33 5.11 5.11 0 0 0 0 7.23zm3.62-7.5a3.87 3.87 0 0 1 2.76 1.14l31.56 31.56a3.91 3.91 0 0 1 0 5.52 4 4 0 0 1-5.51 0L439.6 7.7a3.9 3.9 0 0 1 2.76-6.65z" class="F"/><path d="M490,50.26l7.32,7.32,7.32-7.32-7.32-7.32Zm7.32,5.6-5.6-5.6,5.6-5.6,5.6,5.6Z" class="B"/><path d="M619.952 84.867l3.55-3.55 3.55 3.55-3.55 3.55z" class="D"/><path d="M436.082 56.5l4.412-4.413 4.413 4.412-4.412 4.413z" class="B"/><use xlink:href="#L" x="377" y="-57" class="E"/><path d="M546.8 12a6.364 6.364 0 0 0-9 9l38 38a6.364 6.364 0 1 0 9-9zm36.7 45.72a4.51 4.51 0 0 1-6.38 0l-38-38a4.515 4.515 0 1 1 6.38-6.39l38 38a4.5 4.5 0 0 1 0 6.39zm-3.13-5.02a1.88 1.88 0 1 0 1.87 1.87 1.87 1.87 0 0 0-1.87-1.87z" class="D"/><g class="B"><circle cx="572.64" cy="100.95" r="5.91"/><path d="M548.18 105.87a25.45 25.45 0 0 0 1.43 4.67l.84-.35a24.35 24.35 0 0 1-1.37-4.5zm10.62 15.83a24.78 24.78 0 0 0 4.31 2.3l.35-.84a23.65 23.65 0 0 1-4.15-2.22zm-6.88-6.86a25.12 25.12 0 0 0 3.11 3.78l.65-.65a24.4 24.4 0 0 1-3-3.64zm.7-27.2l-.76-.5a24.78 24.78 0 0 0-2.3 4.31l.84.35a24.43 24.43 0 0 1 2.22-4.16zm15.25-10.25l-.18-.9a25.21 25.21 0 0 0-4.7 1.43l.35.85a23.64 23.64 0 0 1 4.53-1.38zm-8.64 3.6l-.5-.76a25.54 25.54 0 0 0-3.73 3.12l.65.65a23.25 23.25 0 0 1 3.59-3.01zm-10.18 15.32l-.9-.18a25.71 25.71 0 0 0-.46 4.81h.9a23.83 23.83 0 0 1 .45-4.63zm18.94 28.2l-.18.9a25.21 25.21 0 0 0 4.84.47v-.9a24.14 24.14 0 0 1-4.66-.45zm27.65-33.2l-.85.35a23.67 23.67 0 0 1 1.39 4.5l.9-.18a24.47 24.47 0 0 0-1.43-4.67zm-3.03 22.98l.76.5a24.79 24.79 0 0 0 2.31-4.31l-.85-.35a24 24 0 0 1-2.22 4.15zm4.04-13.3a24.44 24.44 0 0 1-.45 4.69l.9.18a24.82 24.82 0 0 0 .48-4.87v-.1h-.92zm-6.46-17.75l-.65.65a24.28 24.28 0 0 1 3 3.63l.75-.5a25.54 25.54 0 0 0-3.1-3.77zm-4.2 37.67l.5.76a25.48 25.48 0 0 0 3.77-3.1l-.65-.65a23.66 23.66 0 0 1-3.63 2.99zm-8.65 3.6l.18.9a24.17 24.17 0 0 0 4.67-1.41l-.35-.84a24.58 24.58 0 0 1-4.5 1.36zM572.64 76h-.08l.08.9a24.5 24.5 0 0 1 4.61.44l.17-.9a25.38 25.38 0 0 0-4.78-.45zm9.46 1.88l-.35.84a23.69 23.69 0 0 1 4.16 2.21l.5-.76a24.08 24.08 0 0 0-4.31-2.29zm-34.7-16.82c-1.26 1.25-2.8 1-4.55.67s-3.92-.7-5.62 1-1.34 3.8-1 5.63.6 3.3-.67 4.55-2.78 1-4.55.67-3.9-.7-5.62 1-1.33 3.78-1 5.62.6 3.3-.67 4.54-2.78 1-4.54.68-3.92-.7-5.62 1-1.34 3.78-1 5.6.58 3.3-.67 4.55-2.78 1-4.55.67-3.9-.7-5.62 1-1.33 3.78-1 5.62.6 3.3-.67 4.54-2.78 1-4.54.67-3.9-.7-5.62 1-1.33 3.78-1 5.62.6 3.3-.67 4.54-2.77 1-4.54.67-3.9-.7-5.62 1a.6.6 0 0 0 0 .86.61.61 0 0 0 .43.18.6.6 0 0 0 .43-.18c1.26-1.25 2.78-1 4.55-.67s3.9.7 5.62-1 1.33-3.78 1-5.6-.58-3.3.67-4.55 2.78-1 4.54-.67 3.92.7 5.62-1 1.34-3.8 1-5.62-.58-3.3.67-4.55 2.78-1 4.55-.67 3.9.7 5.62-1 1.33-3.78 1-5.62-.6-3.3.67-4.54 2.78-1 4.54-.68 3.92.7 5.62-1 1.34-3.78 1-5.6-.58-3.3.67-4.55 2.78-1 4.55-.67 3.9.7 5.62-1 1.34-3.8 1-5.63-.58-3.3.68-4.54 2.78-1 4.55-.68 3.9.7 5.62-1a.61.61 0 0 0-.86-.86z"/></g><path d="M723.28 134.35c-2.3-2.3-5.33-1.45-8-.7s-4.57 1.16-5.85-.13-.9-3.07-.13-5.86 1.6-5.7-.7-8-5.33-1.44-8-.7-4.57 1.16-5.86-.13-.9-3.07-.13-5.86 1.6-5.7-.7-8-5.32-1.44-8-.7-4.57 1.15-5.85-.13-.9-3.07-.13-5.86 1.6-5.7-.7-8-5.32-1.44-8-.7-4.57 1.15-5.85-.13-.9-3.07-.13-5.86 1.6-5.7-.7-8-5.33-1.44-8-.7-4.57 1.15-5.85-.13-.9-3.07-.13-5.86 1.6-5.7-.7-8a1.1 1.1 0 0 0-1.55 1.55c1.28 1.3.9 3.08.13 5.86s-1.6 5.7.7 8 5.33 1.45 8 .7 4.57-1.16 5.86.13.9 3.07.13 5.85-1.6 5.7.7 8 5.32 1.44 8 .7 4.57-1.16 5.86.13.9 3.07.13 5.85-1.6 5.7.7 8 5.32 1.44 8 .7 4.57-1.16 5.86.13.9 3.07.13 5.85-1.6 5.72.7 8 5.33 1.44 8 .7 4.57-1.15 5.85.13.9 3.08.14 5.86-1.6 5.7.7 8 5.33 1.45 8 .7 4.57-1.16 5.85.13.92 3.08.14 5.86-1.6 5.72.7 8a1.13 1.13 0 0 0 .78.32 1.1 1.1 0 0 0 .78-1.88c-1.3-1.3-.9-3.07-.13-5.86s1.6-5.7-.7-7.98z" class="D"/><g class="C"><path d="M634.06,22.62a.47.47,0,1,0-.67.67l4.37,4.37a.46.46,0,0,0,.33.13.5.5,0,0,0,.34-.13.48.48,0,0,0,0-.67Z"/><path d="M637.76 22.62L633.4 27a.47.47 0 0 0 .66.67l4.38-4.37a.48.48 0 0 0 0-.67.46.46 0 0 0-.67-.01z"/><use xlink:href="#Y" x="352.58" y="-98.06"/><path d="M646.08 14.3l-4.37 4.37a.48.48 0 0 0 .34.81.47.47 0 0 0 .33-.14l4.37-4.33a.474.474 0 0 0-.67-.67zM650.7 6a.474.474 0 1 0-.67.67L654.4 11a.51.51 0 0 0 .34.14.47.47 0 0 0 .33-.14.46.46 0 0 0 0-.67z"/><use xlink:href="#M" x="377" y="-57"/><path d="M663.06 2.82a.47.47 0 0 0 .34-.8l-2-2h-1.33l2.68 2.68a.43.43 0 0 0 .31.12z"/><path d="M658.36 2.68a.47.47 0 0 0 .33.14.51.51 0 0 0 .34-.14L661.7 0h-1.34l-2 2a.47.47 0 0 0-.01.68zM642.24 30.8a.474.474 0 1 0-.67.67l4.37 4.37a.51.51 0 0 0 .34.14.47.47 0 0 0 .33-.14.48.48 0 0 0 0-.67z"/><path d="M645.94,30.8l-4.37,4.38a.47.47,0,0,0,0,.66.51.51,0,0,0,.34.14.47.47,0,0,0,.33-.14l4.37-4.37a.47.47,0,1,0-.67-.67Z"/><use xlink:href="#N" x="377" y="-57"/><use xlink:href="#O" x="377" y="-57"/><path d="M658.9 14.16a.47.47 0 1 0-.67.66l4.37 4.37a.43.43 0 0 0 .33.14.45.45 0 0 0 .34-.14.47.47 0 0 0 0-.66z"/><use xlink:href="#f"/><use xlink:href="#W" x="385.6" y="-98.34"/><path d="M670.92 5.83l-4.38 4.37a.48.48 0 0 0 0 .67.51.51 0 0 0 .34.14.47.47 0 0 0 .33-.14l4.37-4.37a.47.47 0 1 0-.66-.67zm8.65-3.15a.47.47 0 0 0 .34-.8L678 0h-1.34l2.55 2.54a.43.43 0 0 0 .36.14z"/><path d="M674.87 2.54a.43.43 0 0 0 .33.14.47.47 0 0 0 .34-.14L678.08 0h-1.33l-1.88 1.88a.47.47 0 0 0 0 .66zM650.43 39a.48.48 0 0 0-.67 0 .46.46 0 0 0 0 .67l4.37 4.33a.46.46 0 0 0 .33.13.5.5 0 0 0 .34-.13.48.48 0 0 0 0-.67z"/><path d="M654.13 39l-4.37 4.37a.46.46 0 0 0 0 .67.47.47 0 0 0 .33.14.51.51 0 0 0 .34-.14l4.37-4.37a.474.474 0 0 0-.67-.67zm4.62-8.33a.47.47 0 1 0-.67.66l4.37 4.37a.45.45 0 0 0 .34.14.43.43 0 0 0 .33-.14.47.47 0 0 0 0-.66z"/><path d="M662.45 30.67L658.08 35a.47.47 0 0 0 0 .66.44.44 0 0 0 .34.14.43.43 0 0 0 .33-.14l4.37-4.37a.47.47 0 0 0 0-.66.47.47 0 0 0-.67.04zm4.62-8.33a.47.47 0 1 0-.66.67l4.37 4.37a.46.46 0 0 0 .66 0 .47.47 0 0 0 0-.67z"/><use xlink:href="#V" x="377" y="-57"/><path d="M675.4 14a.47.47 0 1 0-.67.66l4.37 4.37a.43.43 0 0 0 .33.14.44.44 0 0 0 .34-.14.47.47 0 0 0 0-.66z"/><use xlink:href="#f" x="16.5" y="-0.16"/><use xlink:href="#W" x="402.12" y="-98.47"/><path d="M687.42 5.7l-4.36 4.37a.46.46 0 0 0 0 .67.46.46 0 0 0 .66 0l4.37-4.37a.46.46 0 0 0 0-.67.48.48 0 0 0-.67 0zm8.66-3.16a.5.5 0 0 0 .34-.13.48.48 0 0 0 0-.67L694.68 0h-1.34l2.4 2.4a.46.46 0 0 0 .33.13z"/><path d="M691.38 2.4a.46.46 0 0 0 .33.13.48.48 0 0 0 .34-.13l2.4-2.4h-1.33l-1.74 1.74a.48.48 0 0 0 0 .67z"/><use xlink:href="#X" x="318.72" y="1.28"/><path d="M662.3 47.18l-4.37 4.37a.47.47 0 0 0 .34.8.43.43 0 0 0 .33-.14l4.4-4.37a.45.45 0 0 0 0-.66.46.46 0 0 0-.69 0zm4.64-8.33a.48.48 0 0 0-.67 0 .47.47 0 0 0 0 .67l4.37 4.37a.47.47 0 0 0 .36.11.51.51 0 0 0 .34-.14.48.48 0 0 0 0-.67z"/><path d="M670.64 38.85l-4.37 4.37a.47.47 0 0 0 0 .67.47.47 0 0 0 .33.14.51.51 0 0 0 .34-.14l4.37-4.37a.474.474 0 0 0-.67-.67zm4.62-8.32a.46.46 0 0 0-.67 0 .47.47 0 0 0 0 .66l4.4 4.37a.43.43 0 0 0 .33.14.44.44 0 0 0 .34-.14.47.47 0 0 0 0-.66z"/><path d="M679 30.53l-4.37 4.37a.47.47 0 0 0 .34.8.43.43 0 0 0 .33-.14l4.37-4.37a.47.47 0 1 0-.67-.66z"/><use xlink:href="#N" x="410.02" y="-57.28"/><path d="M687.3 22.2l-4.37 4.37a.47.47 0 1 0 .66.67l4.42-4.37a.474.474 0 0 0-.67-.67zm4.6-8.32a.47.47 0 0 0-.67 0 .48.48 0 0 0 0 .67l4.37 4.37a.46.46 0 0 0 .33.13.47.47 0 0 0 .34-.13.48.48 0 0 0 0-.67z"/><path d="M695.6 13.88l-4.37 4.37a.48.48 0 0 0 0 .67.47.47 0 0 0 .34.13.46.46 0 0 0 .33-.13l4.37-4.37a.48.48 0 0 0 0-.67.47.47 0 0 0-.67 0zm4.63-8.33a.474.474 0 1 0-.67.67l4.37 4.37a.51.51 0 0 0 .34.14.47.47 0 0 0 .33-.14.46.46 0 0 0 0-.67z"/><use xlink:href="#g"/><path d="M712.6 2.4a.51.51 0 0 0 .34-.14.48.48 0 0 0 0-.67l-1.6-1.6H710l2.27 2.27a.47.47 0 0 0 .32.14z"/><path d="M707.9 2.27a.46.46 0 0 0 .33.13.5.5 0 0 0 .34-.13L710.82 0h-1.33l-1.6 1.6a.48.48 0 0 0 0 .67zm-41.1 53.1a.474.474 0 1 0-.67.67l4.37 4.37a.47.47 0 0 0 .33.14.48.48 0 0 0 .34-.81z"/><path d="M670.5 55.36l-4.37 4.37a.48.48 0 0 0 0 .67.47.47 0 0 0 .33.14.51.51 0 0 0 .34-.14l4.37-4.4a.474.474 0 1 0-.67-.67zm4.62-8.36a.46.46 0 0 0-.67 0 .47.47 0 0 0 0 .66l4.37 4.37a.47.47 0 0 0 .34.14.43.43 0 0 0 .33-.14.45.45 0 0 0 0-.66z"/><path d="M678.82 47l-4.37 4.37a.47.47 0 0 0 .34.8.43.43 0 0 0 .33-.14l4.37-4.37a.47.47 0 0 0 0-.66.46.46 0 0 0-.67 0z"/><use xlink:href="#Z" x="377" y="-57"/><path d="M687.15 38.7l-4.37 4.37a.46.46 0 0 0 0 .67.47.47 0 0 0 .33.14.51.51 0 0 0 .34-.14l4.37-4.37a.474.474 0 0 0-.67-.67zm4.62-8.3a.474.474 0 1 0-.67.67l4.37 4.37a.51.51 0 0 0 .34.14.47.47 0 0 0 .33-.14.48.48 0 0 0 0-.67z"/><path d="M695.47 30.4l-4.37 4.37a.48.48 0 0 0 0 .67.5.5 0 0 0 .34.13.46.46 0 0 0 .33-.13l4.37-4.37a.48.48 0 0 0 0-.67.46.46 0 0 0-.67 0z"/><use xlink:href="#a" x="377" y="-57"/><use xlink:href="#O" x="426.53" y="-57.42"/><path d="M708.42,13.74a.47.47,0,0,0-.67.67l4.37,4.37a.48.48,0,0,0,.34.14.47.47,0,0,0,.33-.14.48.48,0,0,0,0-.67Z"/><path d="M712.12 13.74l-4.37 4.37a.48.48 0 0 0 0 .67.46.46 0 0 0 .33.13.47.47 0 0 0 .34-.13l4.37-4.37a.474.474 0 0 0-.67-.67zm4.62-8.32a.47.47 0 0 0-.66.66l4.37 4.37a.46.46 0 0 0 .66 0 .45.45 0 0 0 0-.66z"/><path d="M720.45 5.42l-4.37 4.36a.46.46 0 0 0 0 .67.46.46 0 0 0 .66 0l4.37-4.37a.47.47 0 0 0-.66-.66zm8.65-3.15a.47.47 0 0 0 .33-.14.48.48 0 0 0 0-.67L728 0h-1.34l2.13 2.13a.48.48 0 0 0 .32.14z"/><path d="M724.4 2.13a.47.47 0 0 0 .33.14.48.48 0 0 0 .34-.14L727.2 0h-1.34l-1.46 1.46a.48.48 0 0 0 0 .67zM675 63.55a.47.47 0 0 0-.66.66l4.37 4.37a.46.46 0 0 0 .66 0 .45.45 0 0 0 0-.66z"/><use xlink:href="#b" x="377" y="-57"/><path d="M683.3 55.22a.47.47 0 1 0-.67.67l4.36 4.37a.47.47 0 0 0 .33.14.51.51 0 0 0 .34-.14.48.48 0 0 0 0-.67z"/><path d="M687 55.22l-4.37 4.37a.48.48 0 0 0 0 .67.47.47 0 0 0 .33.14.51.51 0 0 0 .34-.14l4.37-4.37a.474.474 0 1 0-.67-.67zm4.63-8.32a.46.46 0 0 0-.67 0 .48.48 0 0 0 0 .67l4.37 4.37a.5.5 0 0 0 .34.13.47.47 0 0 0 .33-.8z"/><path d="M695.33 46.9L691 51.27a.48.48 0 0 0 0 .67.5.5 0 0 0 .34.13.46.46 0 0 0 .33-.13l4.33-4.37a.474.474 0 0 0-.67-.67zm4.67-8.32a.46.46 0 0 0-.67 0 .45.45 0 0 0 0 .66l4.37 4.37a.47.47 0 0 0 .33.14.51.51 0 0 0 .34-.14.47.47 0 0 0 0-.66z"/><use xlink:href="#c" x="377" y="-57"/><path d="M708.28 30.25a.47.47 0 1 0-.67.67l4.4 4.37a.51.51 0 0 0 .34.14.47.47 0 0 0 .33-.14.48.48 0 0 0 0-.67z"/><path d="M712 30.25l-4.37 4.37a.48.48 0 0 0 0 .67.51.51 0 0 0 .34.14.47.47 0 0 0 .33-.14l4.37-4.37a.474.474 0 1 0-.67-.67zm4.6-8.32a.47.47 0 1 0-.66.66l4.37 4.4a.46.46 0 0 0 .66 0 .45.45 0 0 0 0-.66z"/><path d="M720.3 21.93l-4.37 4.37a.45.45 0 0 0 0 .66.43.43 0 0 0 .33.14.47.47 0 0 0 .34-.14l4.4-4.37a.47.47 0 0 0 0-.66.46.46 0 0 0-.69 0zm4.63-8.33a.474.474 0 0 0-.67.67l4.37 4.37a.48.48 0 0 0 .34.14.47.47 0 0 0 .33-.14.48.48 0 0 0 0-.67z"/><path d="M728.63 13.6l-4.37 4.4a.48.48 0 0 0 .34.81.47.47 0 0 0 .33-.14l4.37-4.37a.474.474 0 0 0-.67-.67zm4.62-8.32a.47.47 0 0 0-.66.66l4.4 4.37a.46.46 0 0 0 .66 0 .45.45 0 0 0 0-.66z"/><path d="M737 5.28l-4.37 4.37a.45.45 0 0 0 0 .66.46.46 0 0 0 .66 0l4.37-4.37a.47.47 0 0 0-.66-.66zM436 197a.48.48 0 0 0 0 .67l2.4 2.33h1.33l-3-3a.48.48 0 0 0-.73 0z"/><path d="M441.07 197a.47.47 0 0 0-.66 0l-3 3h1.34l2.36-2.36a.46.46 0 0 0-.04-.64zm3.93-8.36a.48.48 0 0 0-.67 0 .46.46 0 0 0 0 .67l4.37 4.37a.43.43 0 0 0 .33.14.47.47 0 0 0 .34-.8z"/><path d="M448.73 188.64l-4.37 4.36a.46.46 0 0 0 0 .67.47.47 0 0 0 .33.14.51.51 0 0 0 .34-.14l4.37-4.37a.474.474 0 0 0-.67-.67zm4.62-8.32a.474.474 0 1 0-.67.67l4.37 4.37a.51.51 0 0 0 .34.14.47.47 0 0 0 .33-.14.47.47 0 0 0 0-.67z"/><path d="M457.05 180.32l-4.37 4.37a.48.48 0 0 0 0 .67.51.51 0 0 0 .34.14.47.47 0 0 0 .33-.14l4.37-4.37a.47.47 0 0 0 0-.67.48.48 0 0 0-.67 0zm4.62-8.32a.45.45 0 0 0-.66 0 .46.46 0 0 0 0 .67l4.37 4.37a.47.47 0 1 0 .66-.67z"/><path d="M465.38 172l-4.38 4.37a.45.45 0 0 0 0 .66.43.43 0 0 0 .33.14.47.47 0 0 0 .34-.14l4.37-4.37a.47.47 0 0 0 0-.66.46.46 0 0 0-.66 0zm4.62-8.33a.474.474 0 1 0-.67.67l4.37 4.37a.49.49 0 0 0 .34.14.47.47 0 0 0 .33-.14.48.48 0 0 0 0-.67z"/><path d="M473.7 163.67l-4.37 4.33a.48.48 0 0 0 .34.81.47.47 0 0 0 .33-.14l4.37-4.37a.474.474 0 0 0-.67-.67zm4.62-8.32a.47.47 0 0 0-.66.66l4.37 4.38a.47.47 0 1 0 .66-.67z"/><path d="M482 155.35l-4.37 4.37a.47.47 0 0 0 .33.8.5.5 0 0 0 .34-.13l4.4-4.4a.47.47 0 0 0 0-.66.46.46 0 0 0-.7.01zm-29.46 41.48a.48.48 0 0 0 0 .67L455 200h1.34l-3.17-3.17a.48.48 0 0 0-.63 0z"/><path d="M457.58 196.83a.47.47 0 0 0-.66 0l-3.17 3.17h1.33l2.5-2.5a.46.46 0 0 0 0-.67z"/><use xlink:href="#Q" x="163" y="134"/><use xlink:href="#R" x="163" y="134"/><path d="M469.86,180.18a.47.47,0,1,0-.67.67l4.37,4.37a.51.51,0,0,0,.34.14.47.47,0,0,0,.33-.14.48.48,0,0,0,0-.67Z"/><use xlink:href="#S" x="163" y="134"/><path d="M478.2 171.86a.47.47 0 0 0-.67.67l4.37 4.37a.47.47 0 1 0 .66-.67z"/><path d="M481.9 171.86l-4.37 4.37a.47.47 0 0 0 .33.8.5.5 0 0 0 .34-.13l4.37-4.37a.48.48 0 0 0 0-.67.46.46 0 0 0-.67 0zm4.6-8.33a.474.474 0 1 0-.67.67l4.37 4.37a.48.48 0 0 0 .34.14.47.47 0 0 0 .33-.14.48.48 0 0 0 0-.67z"/><use xlink:href="#U" x="163" y="134"/><path d="M469.05 196.7a.48.48 0 0 0 0 .67l2.64 2.64h1.3l-3.3-3.3a.48.48 0 0 0-.64 0z"/><path d="M474.1 196.7a.48.48 0 0 0-.67 0l-3.3 3.3h1.33l2.64-2.64a.46.46 0 0 0 0-.67zm3.95-8.33a.46.46 0 0 0-.67 0 .48.48 0 0 0 0 .67l4.37 4.37a.46.46 0 0 0 .33.13.5.5 0 0 0 .34-.13.48.48 0 0 0 0-.67z"/><path d="M481.75 188.37l-4.37 4.37a.48.48 0 0 0 0 .67.46.46 0 0 0 .33.13.48.48 0 0 0 .34-.13l4.37-4.37a.48.48 0 0 0 0-.67.47.47 0 0 0-.67 0zm4.62-8.37a.474.474 0 1 0-.67.67l4.37 4.37a.51.51 0 0 0 .34.14.47.47 0 0 0 .33-.14.48.48 0 0 0 0-.67z"/><path d="M490.08 180l-4.38 4.37a.48.48 0 0 0 0 .67.51.51 0 0 0 .34.14.47.47 0 0 0 .33-.14l4.37-4.37a.46.46 0 0 0 0-.67.47.47 0 0 0-.66 0zm4.62-8.28a.48.48 0 0 0-.67 0 .46.46 0 0 0 0 .67l4.37 4.37a.46.46 0 0 0 .33.13.5.5 0 0 0 .34-.13.48.48 0 0 0 0-.67z"/><path d="M498.4 171.72l-4.4 4.37a.46.46 0 0 0 0 .67.47.47 0 0 0 .33.14.51.51 0 0 0 .34-.14l4.37-4.37a.474.474 0 1 0-.67-.67zm-12.84 24.83a.48.48 0 0 0 0 .67l2.78 2.78h1.34l-3.45-3.45a.48.48 0 0 0-.67 0z"/><path d="M490.6 196.55a.47.47 0 0 0-.66 0L486.5 200h1.34l2.77-2.78a.46.46 0 0 0 0-.67zm3.96-8.32a.474.474 0 0 0-.67.67l4.37 4.37a.47.47 0 0 0 .33.14.51.51 0 0 0 .34-.14.48.48 0 0 0 0-.67z"/><use xlink:href="#h"/><path d="M502.88 179.9a.46.46 0 0 0-.67 0 .47.47 0 0 0 0 .66l4.37 4.37a.47.47 0 0 0 .34.14.43.43 0 0 0 .33-.14.45.45 0 0 0 0-.66z"/><use xlink:href="#S" x="196.02" y="133.72"/><path d="M502.08 196.42a.45.45 0 0 0 0 .66L505 200h1.34l-3.6-3.58a.45.45 0 0 0-.67 0z"/><path d="M507.1 196.4a.47.47 0 0 0-.66 0l-3.6 3.6h1.34l2.9-2.92a.46.46 0 0 0 0-.67zm3.97-8.3a.474.474 0 0 0-.67.67l4.37 4.37a.48.48 0 0 0 .34.14.47.47 0 0 0 .33-.14.48.48 0 0 0 0-.67z"/><path d="M514.77 188.1l-4.37 4.37a.48.48 0 0 0 0 .67.47.47 0 0 0 .33.14.48.48 0 0 0 .34-.14l4.37-4.37a.474.474 0 0 0-.67-.67zm3.83 8.18a.45.45 0 0 0 0 .66l3 3.06h1.4l-3.73-3.72a.45.45 0 0 0-.68 0z"/><path d="M523.62 196.28a.45.45 0 0 0-.66 0l-3.73 3.72h1.34l3-3.06a.45.45 0 0 0 .05-.66z"/></g><g class="B"><path d="M598.28 72.36a.42.42 0 0 0-.59.59l3.3 3.26a.42.42 0 0 0 .29.12.42.42 0 0 0 .3-.71z"/><path d="M601 72.36l-3.26 3.26a.42.42 0 0 0 .3.71.42.42 0 0 0 .29-.12l3.2-3.2a.41.41 0 0 0 0-.59.41.41 0 0 0-.53-.05zM413.75 7.08a.495.495 0 1 0-.7.7l3.9 3.9a.5.5 0 0 0 .35.15.47.47 0 0 0 .35-.15.48.48 0 0 0 0-.7z"/><path d="M416.94 7.08l-3.9 3.92a.5.5 0 0 0 0 .7.49.49 0 0 0 .35.15.47.47 0 0 0 .35-.15l3.9-3.9a.48.48 0 0 0 0-.7.5.5 0 0 0-.7-.03zM431.66 126a.48.48 0 0 0-.65 0 .46.46 0 0 0 0 .65l3.57 3.58a.47.47 0 0 0 .65 0 .46.46 0 0 0 0-.65z"/><path d="M434.58 126l-3.58 3.6a.46.46 0 0 0 0 .65.47.47 0 0 0 .65 0l3.57-3.58a.46.46 0 0 0 0-.65.48.48 0 0 0-.64-.02zm174-112.52a.52.52 0 0 0-.52.51v5.7a.52.52 0 1 0 1.04 0V14a.51.51 0 0 0-.52-.52z"/><path d="M611.42 16.33h-5.7a.52.52 0 0 0 0 1h5.7a.52.52 0 1 0 0-1zM564.83 1a.56.56 0 0 0 .4-.17.56.56 0 0 0 0-.79h-1.6l.82.82a.56.56 0 0 0 .37.14zm-4.3-.18a.56.56 0 0 0 .4.17.58.58 0 0 0 .4-.17l.82-.82h-1.6a.56.56 0 0 0-.03.82zm8.1 2.62a.56.56 0 1 0-.79.79l3.9 3.9a.57.57 0 0 0 .4.16.55.55 0 0 0 .4-.16.57.57 0 0 0 0-.8z"/><path d="M571.75 3.44l-3.9 3.9a.56.56 0 1 0 .79.79l3.9-3.9a.56.56 0 0 0 0-.79.57.57 0 0 0-.8 0zm4.25 7.32a.56.56 0 0 0-.79.79l3.9 3.9a.57.57 0 0 0 .8-.8z"/><use xlink:href="#d" x="377" y="-57"/><path d="M583.28 18.07a.57.57 0 1 0-.8.8l3.9 3.9a.56.56 0 1 0 .79-.79z"/><path d="M586.4 18.07l-3.9 3.93a.56.56 0 1 0 .8.79l3.9-3.9a.57.57 0 0 0 0-.8.56.56 0 0 0-.79-.02z"/></g><g class="C"><use xlink:href="#i"/><use xlink:href="#j"/><use xlink:href="#j" x="16.629" y="16.623"/><use xlink:href="#j" x="-8.261" y="-8.267"/><use xlink:href="#j" x="8.358" y="8.36"/><use xlink:href="#j" x="49.84" y="49.85"/><use xlink:href="#j" x="41.549" y="41.543"/><use xlink:href="#j" x="33.258" y="33.25"/><use xlink:href="#j" x="24.92" y="24.93"/><use xlink:href="#i" x="-72.603" y="-72.591"/><use xlink:href="#i" x="-78.139" y="-67.196"/><use xlink:href="#j" x="11.149" y="22.103"/><use xlink:href="#j" x="-5.44" y="5.506"/><use xlink:href="#j" x="2.858" y="13.796"/><use xlink:href="#j" x="-13.734" y="-2.794"/><use xlink:href="#j" x="19.45" y="30.396"/><use xlink:href="#j" x="36.065" y="47.015"/><use xlink:href="#j" x="44.34" y="55.276"/><use xlink:href="#j" x="27.748" y="38.686"/><use xlink:href="#i" x="-5.413" y="5.552"/><use xlink:href="#i" x="-83.593" y="-61.688"/><use xlink:href="#j" x="-10.883" y="11.01"/><use xlink:href="#j" x="-2.582" y="19.302"/><use xlink:href="#j" x="-19.181" y="2.72"/><use xlink:href="#j" x="5.679" y="27.57"/><use xlink:href="#j" x="38.9" y="60.782"/><use xlink:href="#j" x="13.97" y="35.862"/><use xlink:href="#j" x="30.599" y="52.5"/><use xlink:href="#j" x="22.271" y="44.16"/><use xlink:href="#i" x="-10.916" y="10.986"/><use xlink:href="#i" x="-89.033" y="-56.187"/><use xlink:href="#j" x="0.239" y="33.078"/><use xlink:href="#j" x="-24.681" y="8.155"/><use xlink:href="#j" x="-16.352" y="16.484"/><use xlink:href="#j" x="-8.089" y="24.745"/><use xlink:href="#j" x="33.42" y="66.273"/><use xlink:href="#j" x="8.507" y="41.335"/><use xlink:href="#j" x="25.099" y="57.925"/><use xlink:href="#j" x="16.831" y="49.672"/><use xlink:href="#i" x="-16.416" y="16.422"/><use xlink:href="#i" x="-94.555" y="-50.774"/><use xlink:href="#j" x="-21.83" y="21.958"/><use xlink:href="#j" x="-5.231" y="38.53"/><use xlink:href="#j" x="-13.532" y="30.258"/><use xlink:href="#j" x="-30.121" y="13.65"/><use xlink:href="#j" x="19.658" y="63.43"/><use xlink:href="#j" x="27.92" y="71.698"/><use xlink:href="#j" x="11.358" y="55.148"/><use xlink:href="#j" x="3.06" y="46.848"/><use xlink:href="#i" x="-21.827" y="21.974"/><use xlink:href="#i" x="-100.033" y="-45.299"/><use xlink:href="#j" x="-19.002" y="35.723"/><use xlink:href="#j" x="-10.741" y="43.99"/><use xlink:href="#j" x="-27.36" y="27.353"/><use xlink:href="#j" x="-35.594" y="19.123"/><use xlink:href="#j" x="-2.44" y="52.283"/><use xlink:href="#j" x="14.123" y="68.833"/><use xlink:href="#j" x="22.48" y="77.203"/><use xlink:href="#j" x="5.888" y="60.613"/><use xlink:href="#i" x="-27.325" y="27.406"/><use xlink:href="#i" x="-105.447" y="-39.766"/><path d="M740.354 44.17l.72-.72 4.554 4.554-.72.72zm9.04 9.05l.72-.72 4.554 4.554-.72.72zM776.77 80.6l.72-.72 4.554 4.554-.72.72zm-9.114-9.1l.72-.72 4.554 4.554-.72.72zm-9.1-9.1l.72-.72 4.554 4.554-.72.72z"/><use xlink:href="#i" x="-53.275" y="12.401"/><use xlink:href="#i" x="-110.978" y="-34.36"/><path d="M743.15 57.925l.72-.72 4.278 4.278-.72.72zm-8.55-8.557l.72-.72 4.278 4.278-.72.72zm17.1 17.1l.72-.72 4.278 4.278-.72.72zm17.042 17.03l.72-.72 4.278 4.278-.72.72zm-8.492-8.48l.72-.72 4.278 4.278-.72.72z"/><use xlink:href="#i" x="-61.793" y="14.828"/><path d="M722.677 48.382l.72-.72 2.157 2.157-.72.72zm15.86 15.87l.72-.72 4.568 4.568-.72.72zm-9.146-9.15l.72-.72 4.568 4.568-.72.72zm18.282 18.29l.72-.72 4.568 4.568-.72.72zm18.252 18.25l.72-.72 4.568 4.568-.72.72zm-9.126-9.1l.72-.72 4.568 4.568-.72.72z"/><use xlink:href="#i" x="-63.996" y="23.571"/><use xlink:href="#i" x="-121.863" y="-23.351"/><use xlink:href="#j" x="-40.922" y="57.58"/><use xlink:href="#j" x="-49.197" y="49.31"/><use xlink:href="#j" x="-57.514" y="40.99"/><use xlink:href="#j" x="-32.599" y="65.91"/><use xlink:href="#j" x="-7.741" y="90.767"/><use xlink:href="#j" x="0.56" y="99.06"/><use xlink:href="#j" x="-24.33" y="74.17"/><use xlink:href="#j" x="-16.032" y="82.47"/><path d="M789.87 126.53l2.15 2.15.73-.72-2.16-2.15-.72.72z"/><use xlink:href="#i" x="-127.343" y="-17.869"/><use xlink:href="#j" x="-46.392" y="63.046"/><use xlink:href="#j" x="-54.663" y="54.793"/><use xlink:href="#j" x="-62.961" y="46.493"/><use xlink:href="#j" x="-38.071" y="71.383"/><use xlink:href="#j" x="-13.211" y="96.243"/><use xlink:href="#j" x="-4.91" y="104.526"/><path d="M759.5 107.1l4.15 4.15.72-.72-4.15-4.15-.72.72z"/><use xlink:href="#j" x="-29.831" y="79.6"/><use xlink:href="#i" x="-54.695" y="54.759"/><use xlink:href="#i" x="-132.873" y="-12.474"/><use xlink:href="#j" x="-60.133" y="60.26"/><use xlink:href="#j" x="-51.849" y="68.56"/><use xlink:href="#j" x="-68.431" y="51.96"/><use xlink:href="#j" x="-43.571" y="76.82"/><use xlink:href="#j" x="-18.681" y="101.71"/><use xlink:href="#j" x="-35.273" y="85.12"/><use xlink:href="#j" x="-10.383" y="110.01"/><use xlink:href="#j" x="-26.979" y="93.41"/><path d="M778.93 137.47l2.15 2.15.72-.72-2.15-2.15-.72.72z"/><use xlink:href="#i" x="-138.333" y="-6.99"/><use xlink:href="#j" x="-57.312" y="74.032"/><use xlink:href="#j" x="-73.911" y="57.435"/><use xlink:href="#j" x="-65.62" y="65.732"/><use xlink:href="#j" x="-49.041" y="82.285"/><use xlink:href="#j" x="-40.75" y="90.592"/><use xlink:href="#j" x="-24.151" y="107.175"/><use xlink:href="#j" x="-15.86" y="115.482"/><use xlink:href="#j" x="-32.452" y="98.892"/><path d="M773.45 142.94l2.16 2.16.72-.72-2.15-2.16-.73.72z"/><use xlink:href="#i" x="-143.75" y="-1.454"/><use xlink:href="#j" x="-62.812" y="79.468"/><use xlink:href="#j" x="-79.374" y="62.908"/><use xlink:href="#j" x="-54.521" y="87.775"/><use xlink:href="#j" x="-71.09" y="71.208"/><path d="M734.8 115.23l4.14 4.15.73-.72-4.15-4.15-.72.72zm8.3 8.3l4.15 4.15.72-.73-4.15-4.14-.72.72z"/><use xlink:href="#j" x="-21.33" y="120.948"/><use xlink:href="#j" x="-29.637" y="112.658"/><path d="M767.98 148.42l2.15 2.15.73-.72-2.16-2.16-.72.73z"/><use xlink:href="#i" x="-149.289" y="3.958"/><path d="M721.03 112.4l4.15 4.15.72-.73-4.15-4.14-.72.72z"/><use xlink:href="#j" x="-68.282" y="84.933"/><use xlink:href="#j" x="-76.553" y="76.68"/><use xlink:href="#j" x="-84.851" y="68.38"/><use xlink:href="#j" x="-43.392" y="109.823"/><path d="M729.32 120.7l4.15 4.15.72-.72-4.14-4.15-.73.72z"/><use xlink:href="#j" x="-26.8" y="126.423"/><use xlink:href="#j" x="-35.101" y="118.13"/><use xlink:href="#i" x="-76.585" y="76.646"/></g><path d="M770.9 139a.41.41 0 1 0-.58.58l50.12 50.1a.4.4 0 1 0 .57-.57z" class="B"/><path d="M872.84 65.48a1 1 0 0 0-.68.28l-71.85 71.86a1 1 0 0 0 0 1.34 1 1 0 0 0 1.35 0L873.5 67.1a1 1 0 0 0 0-1.35 1 1 0 0 0-.67-.28z" class="D"/><use xlink:href="#J" x="759" y="-60.62" class="B"/><path d="M853.47 130.44a9.92 9.92 0 1 0 9.92 9.91 9.93 9.93 0 0 0-9.92-9.91zm0 19.1a9.18 9.18 0 1 1 9.18-9.18 9.19 9.19 0 0 1-9.18 9.18z" class="C"/><path d="M833.88 134.92a.9.9 0 0 0 .28 0 .92.92 0 0 0 .88-.63 19.29 19.29 0 0 1 2.76-5.4.923.923 0 0 0-1.49-1.09 21.45 21.45 0 0 0-3 5.91.92.92 0 0 0 .57 1.21zm.2 5.4a.9.9 0 0 0-.92-.9.93.93 0 0 0-.92.94 21.11 21.11 0 0 0 1 6.52.93.93 0 0 0 .88.64.9.9 0 0 0 .28 0 .92.92 0 0 0 .59-1.16 19.69 19.69 0 0 1-.91-6.04zm7.48-15.5a.91.91 0 0 0 .54-.17 19.13 19.13 0 0 1 5.4-2.75.923.923 0 0 0-.56-1.76 21.1 21.1 0 0 0-5.92 3 .91.91 0 0 0-.21 1.28.91.91 0 0 0 .75.4zm-3.8 26.9a.92.92 0 0 0-1.29-.21.93.93 0 0 0-.21 1.29 21.55 21.55 0 0 0 4.69 4.7.9.9 0 0 0 .54.18.92.92 0 0 0 .51-1.68 19.61 19.61 0 0 1-4.24-4.28zM853.5 121a19.2 19.2 0 0 1 6 1 1 1 0 0 0 .29 0 .9.9 0 0 0 .87-.63.91.91 0 0 0-.59-1.16 21 21 0 0 0-6.55-1 .92.92 0 1 0 0 1.84zm19.02 12.2a.93.93 0 0 0-.6 1.16 19.29 19.29 0 0 1 1 6v.08a.89.89 0 0 0 .92.89 1 1 0 0 0 .92-1 21.42 21.42 0 0 0-1-6.56.93.93 0 0 0-1.24-.57zm-2.6-3.86a.94.94 0 0 0 .54-.18.91.91 0 0 0 .2-1.28 21.12 21.12 0 0 0-4.69-4.7.923.923 0 0 0-1.09 1.49 19.4 19.4 0 0 1 4.29 4.29.91.91 0 0 0 .75.38zm-16.5 30.4a19.51 19.51 0 0 1-6-1 .92.92 0 1 0-.57 1.75 21.28 21.28 0 0 0 6.55 1.05.92.92 0 0 0 .92-.92.9.9 0 0 0-.9-.88zm19.65-13.92a.92.92 0 0 0-1.17.59 19.4 19.4 0 0 1-2.77 5.39.92.92 0 0 0 .19 1.29.94.94 0 0 0 .55.17.93.93 0 0 0 .74-.37 21 21 0 0 0 3-5.91.92.92 0 0 0-.54-1.16zm-8.25 10.25a19 19 0 0 1-5.41 2.74.92.92 0 0 0-.59 1.16.91.91 0 0 0 .87.64.86.86 0 0 0 .28 0 21.1 21.1 0 0 0 5.93-3 .924.924 0 0 0-1.08-1.5z" class="E"/><path d="M859.54 181.2a5.12 5.12 0 0 0-7.24 0L833.5 200h1.72l17.93-17.93a3.9 3.9 0 0 1 5.51 0 3.91 3.91 0 0 1 0 5.52l-12.4 12.4H848l11.56-11.55a5.14 5.14 0 0 0-.02-7.24z" class="F"/><path d="M872 171.08l7.32 7.32 7.32-7.32-7.32-7.32zm7.32 5.6l-5.6-5.6 5.6-5.6 5.6 5.6zm-61.24-11.85l4.412-4.412 4.412 4.412-4.412 4.412zM895 128.78c-1.77.32-3.3.6-4.54-.67s-1-2.78-.68-4.54.7-3.92-1-5.62-3.78-1.34-5.6-1-3.3.58-4.55-.67-1-2.78-.67-4.54.7-3.92-1-5.62-3.78-1.34-5.6-1-3.3.6-4.55-.67-1-2.78-.67-4.54.7-3.92-1-5.62a.6.6 0 0 0-.86 0 .62.62 0 0 0 0 .86c1.26 1.25 1 2.78.67 4.54s-.7 3.92 1 5.62 3.8 1.34 5.62 1 3.3-.6 4.54.67 1 2.78.67 4.54-.7 3.9 1 5.62 3.78 1.33 5.62 1 3.3-.6 4.54.67 1 2.78.67 4.55-.7 3.9 1 5.6 3.8 1.34 5.62 1l.8-.13v-1.23z" class="B"/><g class="C"><use xlink:href="#T" x="486.86" y="-35.16"/><path d="M802.05 2.7a.47.47 0 0 0-.66.66l4.37 4.37a.47.47 0 0 0 .33.14.51.51 0 0 0 .34-.14.47.47 0 0 0 0-.66zm12.03 8.3l-4.37 4.37a.48.48 0 0 0 0 .67.47.47 0 0 0 .33.14.48.48 0 0 0 .34-.14l4.37-4.37a.474.474 0 0 0-.67-.67z"/><use xlink:href="#Y" x="520.58" y="-101.36"/><path d="M822.4 19.33L818 23.7a.47.47 0 0 0 0 .66.51.51 0 0 0 .34.14.47.47 0 0 0 .33-.14l4.4-4.37a.46.46 0 0 0 0-.67.48.48 0 0 0-.67 0z"/><path d="M818.7 19.33a.484.484 0 1 0-.7.67l4.38 4.37a.46.46 0 0 0 .66 0 .45.45 0 0 0 0-.66zm12.03 8.33L826.36 32a.47.47 0 0 0 .33.8.5.5 0 0 0 .34-.13l4.37-4.37a.48.48 0 0 0 0-.67.46.46 0 0 0-.67.03z"/><path d="M827,27.66a.46.46,0,0,0-.67,0,.48.48,0,0,0,0,.67l4.37,4.37a.46.46,0,0,0,.33.13.5.5,0,0,0,.34-.13.48.48,0,0,0,0-.67Z"/><use xlink:href="#S" x="528.49" y="-10.18"/><path d="M835.35 36a.474.474 0 1 0-.67.67l4.37 4.33a.51.51 0 0 0 .34.14.47.47 0 0 0 .33-.14.46.46 0 0 0 0-.67zm12.03 8.3L843 48.68a.45.45 0 0 0 0 .66.46.46 0 0 0 .66 0L848 45a.47.47 0 1 0-.66-.66z"/><path d="M843.68 44.3a.46.46 0 0 0-.67 0 .45.45 0 0 0 0 .66l4.37 4.37a.43.43 0 0 0 .33.14.47.47 0 0 0 .34-.8zm12.02 8.33L851.33 57a.48.48 0 0 0 .34.81.47.47 0 0 0 .33-.14l4.37-4.37a.474.474 0 1 0-.67-.67z"/><path d="M852 52.63a.474.474 0 1 0-.67.67l4.37 4.37a.51.51 0 0 0 .34.14.47.47 0 0 0 .33-.14.48.48 0 0 0 0-.67zM864 61l-4.37 4.37a.45.45 0 0 0 0 .66.46.46 0 0 0 .66 0l4.37-4.37A.47.47 0 1 0 864 61z"/><path d="M860.33 61a.46.46 0 0 0-.67 0 .45.45 0 0 0 0 .66L864 66a.43.43 0 0 0 .33.14.47.47 0 0 0 .34-.8zM822.27 2.82L817.9 7.2a.46.46 0 0 0 0 .67.46.46 0 0 0 .66 0l4.37-4.37a.46.46 0 0 0 0-.67.47.47 0 0 0-.66 0z"/><path d="M818.56,2.82a.47.47,0,0,0-.66,0,.46.46,0,0,0,0,.67l4.37,4.37a.46.46,0,0,0,.66,0,.46.46,0,0,0,0-.67Z"/><use xlink:href="#h" x="332.34" y="-177.08"/><path d="M826.9 11.15a.47.47 0 0 0-.67 0 .48.48 0 0 0 0 .67l4.37 4.37a.46.46 0 0 0 .33.13.47.47 0 0 0 .34-.8z"/><use xlink:href="#S" x="528.34" y="-26.71"/><path d="M835.2 19.47a.47.47 0 1 0-.67.67l4.38 4.37a.46.46 0 1 0 .66-.67z"/><use xlink:href="#R" x="545" y="-26.7"/><path d="M843.54 27.8a.46.46 0 0 0-.67 0 .47.47 0 0 0 0 .66l4.37 4.37a.43.43 0 0 0 .33.14.47.47 0 0 0 .34-.8zm12.02 8.32l-4.37 4.37a.48.48 0 0 0 0 .67.51.51 0 0 0 .34.14.47.47 0 0 0 .33-.14l4.37-4.37a.474.474 0 0 0-.67-.67z"/><path d="M851.86 36.12a.474.474 0 0 0-.67.67l4.37 4.37a.51.51 0 0 0 .34.14.47.47 0 0 0 .33-.14.46.46 0 0 0 0-.67zm12.04 8.33l-4.37 4.37a.45.45 0 0 0 0 .66.43.43 0 0 0 .33.14.47.47 0 0 0 .34-.14l4.36-4.37a.47.47 0 1 0-.66-.66z"/><path d="M860.2 44.45a.46.46 0 0 0-.67 0 .45.45 0 0 0 0 .66l4.37 4.37a.43.43 0 0 0 .33.14.47.47 0 0 0 .34-.8zm12 8.32l-4.37 4.37a.48.48 0 0 0 0 .67.51.51 0 0 0 .34.14.47.47 0 0 0 .33-.14l4.37-4.37a.474.474 0 1 0-.67-.67z"/><path d="M868.5 52.77a.47.47 0 1 0-.67.67l4.37 4.37a.51.51 0 0 0 .34.14.47.47 0 0 0 .33-.14.48.48 0 0 0 0-.67z"/><use xlink:href="#g" x="134.84" y="-2.55"/><path d="M835.07 3a.47.47 0 0 0-.66 0 .46.46 0 0 0 0 .67L838.78 8a.46.46 0 0 0 .66 0 .46.46 0 0 0 0-.67zm12.03 8.3l-4.37 4.37a.47.47 0 0 0 0 .66.43.43 0 0 0 .33.14.47.47 0 0 0 .34-.14l4.37-4.32a.47.47 0 0 0 0-.66.47.47 0 0 0-.67-.05z"/><path d="M843.4 11.3a.47.47 0 1 0-.67.66l4.37 4.37a.44.44 0 0 0 .34.14.43.43 0 0 0 .33-.14.47.47 0 0 0 0-.66zm12.02 8.3l-4.37 4.4a.48.48 0 0 0 0 .67.51.51 0 0 0 .34.14.47.47 0 0 0 .33-.14l4.37-4.37a.47.47 0 0 0 0-.67.48.48 0 0 0-.67-.02z"/><path d="M851.72 19.6a.47.47 0 1 0-.66.67l4.36 4.37a.51.51 0 0 0 .34.14.47.47 0 0 0 .33-.14.47.47 0 0 0 0-.67z"/><use xlink:href="#R" x="561.51" y="-26.56"/><path d="M860.05 27.94a.47.47 0 1 0-.67.66l4.37 4.4a.43.43 0 0 0 .33.14.44.44 0 0 0 .34-.14.47.47 0 0 0 0-.66zm12.02 8.32l-4.37 4.37a.48.48 0 0 0 0 .67.51.51 0 0 0 .34.14.47.47 0 0 0 .33-.14l4.37-4.37a.474.474 0 0 0-.67-.67z"/><path d="M868.37 36.26a.474.474 0 0 0-.67.67l4.38 4.37a.47.47 0 1 0 .66-.67zm12.03 8.32L876 49a.45.45 0 0 0 0 .66.47.47 0 0 0 .33.14.51.51 0 0 0 .34-.14l4.37-4.37a.474.474 0 0 0-.67-.67z"/><path d="M876.7 44.58a.48.48 0 0 0-.67 0 .46.46 0 0 0 0 .67l4.37 4.37a.47.47 0 0 0 .33.14.51.51 0 0 0 .34-.14.47.47 0 0 0 0-.66zM855.3 3.1l-4.37 4.37a.46.46 0 0 0 0 .67.46.46 0 0 0 .66 0l4.4-4.37a.46.46 0 0 0 0-.67.47.47 0 0 0-.71 0z"/><path d="M851.58 3.1a.47.47 0 1 0-.66.67l4.37 4.37a.47.47 0 0 0 .33.14.51.51 0 0 0 .34-.14.48.48 0 0 0 0-.67zm12.02 8.33l-4.37 4.37a.47.47 0 0 0 0 .66.44.44 0 0 0 .34.14.43.43 0 0 0 .33-.14l4.37-4.37a.47.47 0 1 0-.67-.66z"/><path d="M859.9 11.43a.47.47 0 1 0-.67.66l4.37 4.37a.43.43 0 0 0 .33.14.44.44 0 0 0 .34-.14.47.47 0 0 0 0-.66zm12.03 8.32l-4.37 4.37a.48.48 0 0 0 0 .67.5.5 0 0 0 .34.13.46.46 0 0 0 .33-.13l4.37-4.37a.474.474 0 0 0-.67-.67z"/><use xlink:href="#N" x="594.67" y="-59.73"/><path d="M880.26,28.07l-4.37,4.37a.48.48,0,0,0,0,.67.47.47,0,0,0,.33.14.51.51,0,0,0,.34-.14l4.37-4.37a.47.47,0,1,0-.67-.67Z"/><path d="M876.56 28.08a.47.47 0 1 0-.67.66l4.37 4.37a.43.43 0 0 0 .33.14.47.47 0 0 0 .34-.8zm12.02 8.32l-4.37 4.37a.48.48 0 0 0 0 .67.5.5 0 0 0 .34.13.46.46 0 0 0 .33-.13l4.37-4.37a.474.474 0 0 0-.67-.67z"/><path d="M884.88 36.4a.46.46 0 0 0-.67 0 .48.48 0 0 0 0 .67l4.37 4.37a.5.5 0 0 0 .34.13.47.47 0 0 0 .33-.8zM859.7 0h-.52a.48.48 0 0 0 .26.09.51.51 0 0 0 .26-.09zm4.37 0h-.53a.44.44 0 0 0 .27.09.43.43 0 0 0 .26-.09zm7.73 3.24l-4.37 4.37a.47.47 0 0 0 .66.67l4.37-4.37a.46.46 0 0 0 0-.67.45.45 0 0 0-.66 0z"/><path d="M868.1 3.24a.47.47 0 0 0-.66 0 .46.46 0 0 0 0 .67l4.37 4.37a.46.46 0 0 0 .66 0 .46.46 0 0 0 0-.67zm12.02 8.32l-4.37 4.37a.48.48 0 0 0 0 .67.47.47 0 0 0 .33.14.48.48 0 0 0 .34-.14l4.37-4.37a.474.474 0 0 0-.67-.67z"/><path d="M876.42,11.56a.47.47,0,0,0-.67.67l4.37,4.37a.48.48,0,0,0,.34.14.47.47,0,0,0,.33-.8Z"/><use xlink:href="#b" x="586.75" y="-100.65"/><path d="M884.74 19.9a.47.47 0 0 0-.66 0 .46.46 0 0 0 0 .67l4.37 4.37a.47.47 0 0 0 .66-.67zm7.66 12.68a.48.48 0 0 0 0 .67.47.47 0 0 0 .33.14.48.48 0 0 0 .34-.14l2.93-2.93V29z"/><path d="M893.07 28.2a.474.474 0 0 0-.67.67l3.6 3.6v-1.33zM876 .23a.47.47 0 0 0 .33-.14l.1-.1h-.82l.06.1a.51.51 0 0 0 .34.14zm4.32 0a.47.47 0 0 0 .33-.14.47.47 0 0 0 .06-.09h-.82l.1.1a.51.51 0 0 0 .34.14zm7.98 3.15l-4.37 4.37a.47.47 0 0 0 .66.67L889 4a.47.47 0 0 0-.66-.66z"/><path d="M884.6 3.38a.46.46 0 0 0-.67 0 .45.45 0 0 0 0 .66l4.37 4.38a.46.46 0 0 0 .33.13.5.5 0 0 0 .34-.13.48.48 0 0 0 0-.67zm7.66 12.7a.48.48 0 0 0 0 .67.47.47 0 0 0 .33.14.48.48 0 0 0 .34-.14l3.07-3.07v-1.34z"/><path d="M892.93 11.7a.47.47 0 0 0-.67.67L896 16.1v-1.34z"/></g><g class="B"><path d="M816.58 91.1L813 94.67a.46.46 0 0 0 0 .65.45.45 0 0 0 .32.13.46.46 0 0 0 .33-.13l3.57-3.58a.45.45 0 0 0 0-.64.46.46 0 0 0-.64 0z"/><path d="M813.66,91.1a.46.46,0,0,0-.65,0,.45.45,0,0,0,0,.64l3.57,3.58a.46.46,0,0,0,.33.13.45.45,0,0,0,.32-.13.46.46,0,0,0,0-.65Z"/></g><path d="M747.65 158.82a6.34 6.34 0 0 0-10.82-4.49l-38 38a6.34 6.34 0 0 0-1 7.66h2.27a4.52 4.52 0 0 1 0-6.37l38-38a4.518 4.518 0 1 1 6.4 6.38l-38 38h2.6l36.7-36.7a6.29 6.29 0 0 0 1.87-4.48zm-6.28-1.92a1.87 1.87 0 1 0 1.87 1.87 1.87 1.87 0 0 0-1.87-1.87z" class="D"/><defs ><path id="B" d="M74.658 195.59l2.148-2.15.722.72-2.148 2.15z"/><path id="C" d="M60.886 198.423l4.148-4.154.722.72-4.148 4.154z"/><path id="D" d="M69.177 190.126l2.15-2.148.72.722-2.15 2.148z"/><path id="E" d="M5.977 176.7l4.154-4.148.72.722-4.154 4.148z"/><path id="F" d="M249.25 193.83l-2.33 3.56a.25.25 0 0 0 .06.34.23.23 0 0 0 .14 0 .26.26 0 0 0 .2-.1l2.34-3.58a.24.24 0 1 0-.41-.26z"/><path id="G" d="M256.27 178.12a.24.24 0 0 0-.3.17l-1.27 4a.24.24 0 0 0 .14.31h.1a.25.25 0 0 0 .23-.16l1.28-4.08a.24.24 0 0 0-.17-.24z"/><path id="H" d="M11.7 8.23a.31.31 0 0 0-.44 0 .32.32 0 0 0 0 .43l3.58 3.57a.3.3 0 0 0 .21.09.31.31 0 0 0 .22-.09.3.3 0 0 0 0-.43z"/><path id="I" d="M35.05 14.8l-3.58 3.57a.3.3 0 0 0 0 .43.31.31 0 0 0 .22.09.3.3 0 0 0 .21-.09l3.58-3.57a.32.32 0 0 0 0-.43.3.3 0 0 0-.43 0z"/><path id="J" d="M35.85 158.67a10.81 10.81 0 1 0 10.81 10.81 10.82 10.82 0 0 0-10.81-10.81zm0 19.8a9 9 0 1 1 9-9 9 9 0 0 1-9 9z"/><path id="K" d="M100.48 156.43a19.2 19.2 0 0 1-6 .95.92.92 0 1 0 0 1.84 21 21 0 0 0 6.55-1 .91.91 0 0 0 .59-1.16.92.92 0 0 0-1.14-.63z"/><path id="L" d="M248.18 93.7a9.51 9.51 0 1 0 9.51 9.51 9.53 9.53 0 0 0-9.51-9.51zm0 17.66a8.15 8.15 0 1 1 8.14-8.15 8.16 8.16 0 0 1-8.14 8.15z"/><path id="M" d="M277.4 63l-4.4 4.34a.48.48 0 0 0 0 .67.51.51 0 0 0 .34.14.47.47 0 0 0 .33-.14l4.37-4.37a.46.46 0 0 0 0-.67.47.47 0 0 0-.63.03z"/><path id="N" d="M273.56 79.48a.47.47 0 0 0-.66 0 .46.46 0 0 0 0 .67l4.37 4.37a.46.46 0 1 0 .66-.67z"/><path id="O" d="M277.27 79.48l-4.37 4.37a.46.46 0 1 0 .66.67l4.37-4.37a.46.46 0 0 0 0-.67.47.47 0 0 0-.66 0z"/><path id="P" d="M285.6 71.16l-4.37 4.37a.47.47 0 0 0 0 .66.43.43 0 0 0 .33.14.44.44 0 0 0 .34-.14l4.37-4.37a.47.47 0 0 0 0-.66.46.46 0 0 0-.67 0z"/><path id="Q" d="M298.54 54.5a.46.46 0 0 0-.67 0 .47.47 0 0 0 0 .66l4.37 4.37a.43.43 0 0 0 .33.14.47.47 0 0 0 .34-.8z"/><path id="R" d="M302.24 54.5l-4.37 4.37a.47.47 0 0 0 0 .66.43.43 0 0 0 .33.14.47.47 0 0 0 .34-.14l4.37-4.37a.47.47 0 0 0 0-.66.46.46 0 0 0-.67 0z"/><path id="S" d="M310.56 46.18l-4.37 4.37a.48.48 0 0 0 0 .67.51.51 0 0 0 .34.14.47.47 0 0 0 .33-.14l4.37-4.37a.46.46 0 0 0 0-.67.48.48 0 0 0-.67 0z"/><path id="T" d="M318.9 37.86l-4.37 4.37a.45.45 0 0 0 0 .66.43.43 0 0 0 .33.14.47.47 0 0 0 .34-.14l4.37-4.37a.47.47 0 0 0 0-.66.46.46 0 0 0-.67 0z"/><path id="U" d="M327.2 29.53l-4.37 4.37a.48.48 0 0 0 0 .67.51.51 0 0 0 .34.14.47.47 0 0 0 .33-.14l4.37-4.37a.47.47 0 0 0-.67-.67z"/><path id="V" d="M293.78 79.34l-4.37 4.37a.47.47 0 0 0 0 .67.46.46 0 0 0 .66 0l4.37-4.38a.47.47 0 0 0 0-.67.47.47 0 0 0-.66.01z"/><path id="W" d="M281.6 104.17a.47.47 0 1 0-.67.67l4.37 4.37a.51.51 0 0 0 .34.14.47.47 0 0 0 .33-.14.46.46 0 0 0 0-.67z"/><path id="X" d="M339.88 45.9a.46.46 0 0 0-.67 0 .47.47 0 0 0 0 .66l4.37 4.37a.51.51 0 0 0 .34.14.47.47 0 0 0 .33-.14.45.45 0 0 0 0-.66z"/><path id="Y" d="M289.8 112.36a.47.47 0 0 0-.67.67l4.37 4.37a.47.47 0 0 0 .33.14.48.48 0 0 0 .34-.81z"/><path id="Z" d="M306.45 95.7a.48.48 0 0 0-.67 0 .46.46 0 0 0 0 .67l4.37 4.37a.47.47 0 0 0 .33.14.51.51 0 0 0 .34-.14.48.48 0 0 0 0-.67z"/><path id="a" d="M323.1 79.06a.47.47 0 0 0-.66 0 .46.46 0 0 0 0 .67l4.37 4.37a.46.46 0 0 0 .66 0 .45.45 0 0 0 0-.66z"/><path id="b" d="M301.7 120.55l-4.37 4.37a.45.45 0 0 0 0 .66.46.46 0 0 0 .66 0l4.37-4.37a.47.47 0 0 0-.66-.66z"/><path id="c" d="M326.66 95.58l-4.37 4.36a.46.46 0 0 0 0 .67.47.47 0 0 0 .33.14.51.51 0 0 0 .34-.14l4.37-4.37a.47.47 0 0 0 0-.66.46.46 0 0 0-.67 0z"/><path id="d" d="M202.07 67.76l-3.9 3.9a.57.57 0 0 0 0 .8.53.53 0 0 0 .39.16.55.55 0 0 0 .4-.16l3.9-3.9a.56.56 0 0 0 0-.79.57.57 0 0 0-.8 0z"/><path id="e" d="M394.092 97.638l4.15-4.15.72.72-4.15 4.15z"/><path id="f" d="M662.6 14.16l-4.37 4.37a.47.47 0 0 0 0 .66.43.43 0 0 0 .33.14.44.44 0 0 0 .34-.14l4.37-4.37a.47.47 0 1 0-.67-.66z"/><path id="g" d="M703.94 5.55l-4.37 4.37a.46.46 0 0 0 0 .67.46.46 0 0 0 .66 0l4.37-4.37a.46.46 0 0 0 0-.67.47.47 0 0 0-.66 0z"/><path id="h" d="M498.26 188.23l-4.37 4.37a.48.48 0 0 0 0 .67.46.46 0 0 0 .33.13.5.5 0 0 0 .34-.13l4.37-4.37a.48.48 0 0 0 0-.67.47.47 0 0 0-.67 0z"/><path id="i" d="M839.093 77.234l.72-.72 2.15 2.15-.72.72z"/><path id="j" d="M781.017 19.17l.72-.72 4.15 4.15-.72.72z"/></defs></svg>
