<?xml version="1.0" encoding="UTF-8" standalone="no"?>
<svg width="17px" height="17px" viewBox="0 0 17 17" version="1.1" xmlns="http://www.w3.org/2000/svg" xmlns:xlink="http://www.w3.org/1999/xlink">
    <!-- Generator: Sketch 39 (31667) - http://www.bohemiancoding.com/sketch -->
    <title>Group</title>
    <desc>Created with Sketch.</desc>
    <defs></defs>
    <g id="Page-1" stroke="none" stroke-width="1" fill="none" fill-rule="evenodd" opacity="0.599999964">
        <g id="Apply-Form" transform="translate(-775.000000, -309.000000)">
            <g id="Group-3" transform="translate(735.000000, 127.000000)">
                <g id="Group" transform="translate(40.000000, 182.000000)">
                    <path d="M8.49412625,9.21998671 C10.2425847,9.21998671 11.6651063,7.46559801 11.6651063,5.30919601 C11.6651063,3.1528505 10.2425282,1.39851827 8.49406977,1.39851827 C6.7456113,1.39851827 5.3230897,3.15290698 5.3230897,5.30919601 C5.3230897,7.46559801 6.74566777,9.21998671 8.49412625,9.21998671 L8.49412625,9.21998671 Z" id="Shape"></path>
                    <path d="M13.6305548,12.0658771 C12.267505,11.1047841 10.4433654,10.5754684 8.49418272,10.5754684 C6.545,10.5754684 4.72074751,11.1047276 3.35769767,12.0658771 C2.30324585,12.8093588 1.63572757,13.7375249 1.4264186,14.7312625 L3.96760797,14.7312625 L3.96760797,13.5208173 C3.96760797,13.1465349 4.27106645,12.8430764 4.64534884,12.8430764 C5.01963123,12.8430764 5.3230897,13.1465349 5.3230897,13.5208173 L5.3230897,14.7312625 L11.6651063,14.7312625 L11.6651063,13.5208173 C11.6651063,13.1465349 11.9685648,12.8430764 12.3428472,12.8430764 C12.7171296,12.8430764 13.020588,13.1465349 13.020588,13.5208173 L13.020588,14.7312625 L15.5617774,14.7312625 C15.3525249,13.7373555 14.6850066,12.8093588 13.6305548,12.0658771 L13.6305548,12.0658771 Z" id="Shape" fill="#73D0F4"></path>
                    <path d="M14.4116512,10.9579967 C13.4864219,10.3056146 12.3875216,9.82424917 11.1916478,9.5354186 C12.3008272,8.57472093 13.020588,7.03788704 13.020588,5.30913953 C13.020588,2.4053588 10.9900199,0.0429800664 8.49406977,0.0429800664 C5.99823256,0.0429800664 3.96760797,2.4053588 3.96760797,5.30913953 C3.96760797,7.03788704 4.68736877,8.57472093 5.79654817,9.53553156 C4.6007309,9.82419269 3.50183056,10.3056146 2.57660133,10.9579967 C0.915063123,12.1295282 0,13.7102458 0,15.4090033 C0,15.7832857 0.303458472,16.0867442 0.677740864,16.0867442 L16.3103987,16.0867442 C16.6847375,16.0867442 16.9881395,15.7832857 16.9881395,15.4090033 C16.9881395,13.7102458 16.0731329,12.1295282 14.4116512,10.9579967 L14.4116512,10.9579967 Z M13.020588,14.7312625 L13.020588,13.5208173 C13.020588,13.1465349 12.7171296,12.8430764 12.3428472,12.8430764 C11.9685648,12.8430764 11.6651063,13.1465349 11.6651063,13.5208173 L11.6651063,14.7312625 L5.3230897,14.7312625 L5.3230897,13.5208173 C5.3230897,13.1465349 5.01963123,12.8430764 4.64534884,12.8430764 C4.27106645,12.8430764 3.96760797,13.1465349 3.96760797,13.5208173 L3.96760797,14.7312625 L1.42636213,14.7312625 C1.6356711,13.7374684 2.30318937,12.8093588 3.3576412,12.0658771 C4.72074751,11.1047841 6.54494352,10.5754684 8.49412625,10.5754684 C10.443309,10.5754684 12.267505,11.1047276 13.6304983,12.0658771 C14.6849502,12.8093588 15.3524684,13.737412 15.5617209,14.7312625 L13.020588,14.7312625 L13.020588,14.7312625 Z M5.3230897,5.30919601 C5.3230897,3.1528505 6.7456113,1.39851827 8.49406977,1.39851827 C10.2425847,1.39851827 11.6651063,3.15290698 11.6651063,5.30919601 C11.6651063,7.46565449 10.2425847,9.21998671 8.49412625,9.21998671 C6.74566777,9.21998671 5.3230897,7.46559801 5.3230897,5.30919601 L5.3230897,5.30919601 Z" id="Shape" fill="#3D6889"></path>
                </g>
            </g>
        </g>
    </g>
</svg>