<?xml version="1.0" encoding="UTF-8" standalone="no"?>
<svg width="17px" height="17px" viewBox="0 0 17 17" version="1.1" xmlns="http://www.w3.org/2000/svg" xmlns:xlink="http://www.w3.org/1999/xlink">
    <!-- Generator: Sketch 39 (31667) - http://www.bohemiancoding.com/sketch -->
    <title>padlock(1)</title>
    <desc>Created with Sketch.</desc>
    <defs></defs>
    <g id="Page-1" stroke="none" stroke-width="1" fill="none" fill-rule="evenodd" opacity="0.599999964">
        <g id="Apply-Form" transform="translate(-775.000000, -368.000000)">
            <g id="Group-3" transform="translate(735.000000, 127.000000)">
                <g id="padlock(1)" transform="translate(40.000000, 241.000000)">
                    <g id="Group">
                        <path d="M8.49982872,3.37542532 C6.958267,3.37542532 5.69362972,4.58720253 5.59762469,6.11272658 L11.4022469,6.11272658 C11.3061562,4.58720253 10.0414761,3.37542532 8.49982872,3.37542532 L8.49982872,3.37542532 Z" id="Shape"></path>
                        <path d="M14.9507935,7.14559494 L2.04899244,7.14559494 C1.48589421,7.14559494 1.02770781,7.60597215 1.02770781,8.17205063 L1.02770781,14.9164025 C1.02770781,15.4823519 1.48585139,15.9428582 2.04899244,15.9428582 L14.9507935,15.9428582 C15.5138917,15.9428582 15.9720781,15.4823949 15.9720781,14.9164025 L15.9720781,8.17205063 C15.9720353,7.60601519 15.5138917,7.14559494 14.9507935,7.14559494 L14.9507935,7.14559494 Z M9.92521662,12.3036101 L9.92521662,13.9337595 C9.92521662,14.2189722 9.69518136,14.4502152 9.41136272,14.4502152 L7.58838035,14.4502152 C7.30456171,14.4502152 7.07452645,14.2189722 7.07452645,13.9337595 L7.07452645,12.3036101 C6.62070781,11.8975899 6.35667254,11.3145114 6.35667254,10.6948937 C6.35667254,9.50713165 7.3180932,8.54088608 8.49987154,8.54088608 C9.68164987,8.54088608 10.6430705,9.50713165 10.6430705,10.6948937 C10.6430705,11.3145114 10.3790353,11.8975899 9.92521662,12.3036101 L9.92521662,12.3036101 Z" id="Shape"></path>
                        <path d="M8.49987154,9.57379747 C7.88478841,9.57379747 7.38438035,10.0767392 7.38438035,10.6948937 C7.38438035,11.0677747 7.56821159,11.4153494 7.87613854,11.624557 C8.01749118,11.7206177 8.10219144,11.8809342 8.10219144,12.0523975 L8.10219144,13.4172608 L8.89746599,13.4172608 L8.89746599,12.0523975 C8.89746599,11.8809342 8.98220907,11.7206177 9.12351889,11.624557 C9.43144584,11.4153494 9.61527708,11.0677316 9.61527708,10.6948937 C9.61536272,10.0767392 9.11495466,9.57379747 8.49987154,9.57379747 L8.49987154,9.57379747 Z" id="Shape" fill="#73D0F4"></path>
                        <path d="M8.49982872,2.34251392 C10.6083426,2.34251392 12.3347632,4.01720759 12.4319244,6.11272658 L13.7119345,6.11272658 C13.6139169,3.3082 11.3137355,1.05692658 8.49982872,1.05692658 C5.68600756,1.05692658 3.3858262,3.3082 3.28780856,6.11272658 L4.56781864,6.11272658 C4.66497985,4.01720759 6.3914005,2.34251392 8.49982872,2.34251392 L8.49982872,2.34251392 Z" id="Shape" fill="#73D0F4"></path>
                        <path d="M14.9507935,6.11268354 L14.7403703,6.11268354 C14.6418816,2.73850633 11.8804736,0.0239721519 8.49987154,0.0239721519 C5.11926952,0.0240151899 2.35786146,2.73850633 2.25941562,6.11268354 L2.04899244,6.11268354 C0.919156171,6.11268354 0,7.03649367 0,8.17205063 L0,14.9164025 C0,16.0519595 0.919156171,16.9757696 2.04899244,16.9757696 L14.9507935,16.9757696 C16.0806297,16.9757696 16.9997859,16.0519595 16.9997859,14.9164025 L16.9997859,8.17205063 C16.9997431,7.03649367 16.0805869,6.11268354 14.9507935,6.11268354 L14.9507935,6.11268354 Z M8.49982872,1.05692658 C11.3137355,1.05692658 13.6139169,3.3082 13.7119345,6.11272658 L12.4319244,6.11272658 C12.3347204,4.01725063 10.6083426,2.34251392 8.49982872,2.34251392 C6.3914005,2.34251392 4.66497985,4.01720759 4.56781864,6.11272658 L3.28780856,6.11272658 C3.3858262,3.30815696 5.68600756,1.05692658 8.49982872,1.05692658 L8.49982872,1.05692658 Z M11.402204,6.11268354 L5.59762469,6.11268354 C5.69362972,4.58720253 6.958267,3.37538228 8.49982872,3.37538228 C10.0414761,3.37542532 11.3061562,4.58720253 11.402204,6.11268354 L11.402204,6.11268354 Z M15.9720353,14.9164025 C15.9720353,15.4823519 15.5138917,15.9428582 14.9507506,15.9428582 L2.04899244,15.9428582 C1.48589421,15.9428582 1.02770781,15.4823949 1.02770781,14.9164025 L1.02770781,8.17205063 C1.02770781,7.60601519 1.48585139,7.14559494 2.04899244,7.14559494 L14.9507935,7.14559494 C15.5138917,7.14559494 15.9720781,7.60597215 15.9720781,8.17205063 L15.9720781,14.9164025 L15.9720353,14.9164025 Z" id="Shape" fill="#3D6889"></path>
                        <path d="M8.49987154,8.54088608 C7.3180932,8.54088608 6.35667254,9.50713165 6.35667254,10.6948937 C6.35667254,11.3144684 6.62070781,11.8975899 7.07452645,12.3036101 L7.07452645,13.9337595 C7.07452645,14.2189722 7.30456171,14.4502152 7.58838035,14.4502152 L9.41136272,14.4502152 C9.69518136,14.4502152 9.92521662,14.2189722 9.92521662,13.9337595 L9.92521662,12.3036101 C10.3790353,11.8975899 10.6430705,11.3145114 10.6430705,10.6948937 C10.6430705,9.50713165 9.68164987,8.54088608 8.49987154,8.54088608 L8.49987154,8.54088608 Z M9.12360453,11.6246 C8.98225189,11.7206608 8.89755164,11.8809772 8.89755164,12.0524405 L8.89755164,13.4173038 L8.10227708,13.4173038 L8.10227708,12.0524405 C8.10227708,11.8809772 8.01753401,11.7206608 7.87622418,11.6246 C7.56829723,11.4153924 7.38446599,11.0677747 7.38446599,10.6949367 C7.38446599,10.0767823 7.88487406,9.57384051 8.49995718,9.57384051 C9.1150403,9.57384051 9.61544836,10.0767823 9.61544836,10.6949367 C9.61536272,11.0677747 9.43153149,11.4153494 9.12360453,11.6246 L9.12360453,11.6246 Z" id="Shape" fill="#3D6889"></path>
                    </g>
                </g>
            </g>
        </g>
    </g>
</svg>