<svg id="Layer_1" data-name="Layer 1" xmlns="http://www.w3.org/2000/svg" viewBox="0 0 160 100"><defs><style>.cls-1{opacity:0.6;}.cls-10,.cls-2{fill:#fff;}.cls-2,.cls-3{stroke:#3273ad;stroke-linecap:round;stroke-linejoin:round;stroke-width:0.25px;}.cls-3{fill:none;}.cls-4{fill:#eff5f8;}.cls-5{fill:#0aa5e3;}.cls-6{fill:#32b475;}.cls-7{opacity:0.7;}.cls-8{fill:#e3b462;}.cls-9{fill:#3273ad;}.cls-11{fill:#c3f1fc;}.cls-12{fill:#fad264;}</style></defs><title>Artboard 1</title><g class="cls-1"><path class="cls-2" d="M120.12,89.75a11,11,0,0,0-14-10.6,7.72,7.72,0,0,0-5.83-3.8,4.71,4.71,0,0,0-7.23-2.74,8.41,8.41,0,0,0-11.21-.31,5.36,5.36,0,0,0-9.57,3.33c0,.07,0,.14,0,.21a5.33,5.33,0,0,0-4.55.76,7.35,7.35,0,0,0-9.12,1.47A8.89,8.89,0,0,0,47.8,86.77"/><path class="cls-3" d="M64.38,82.93a3.06,3.06,0,0,0-3.58,2.42"/><path class="cls-3" d="M114.47,85.83A4.84,4.84,0,0,0,108.22,83"/><path class="cls-3" d="M85.21,75.49a4,4,0,0,1,5.7-.11"/><path class="cls-3" d="M79.5,88.2a3.57,3.57,0,0,0-4.25-3.55,3.92,3.92,0,0,0-7.39.3,3.42,3.42,0,0,0-1.52-.37A3.45,3.45,0,0,0,62.89,88"/><path class="cls-3" d="M101.16,82.86A3.07,3.07,0,0,0,96,80.65,2.12,2.12,0,0,0,94,80.06a2.81,2.81,0,0,0-1.69-.57"/></g><path class="cls-4" d="M114.22,34.7h24.43a2.15,2.15,0,0,1,0,4.29h-3.18a2.15,2.15,0,0,0,0,4.29h7a2.15,2.15,0,0,1,0,4.29H118a2.15,2.15,0,0,1,0-4.29h6.66a2.15,2.15,0,0,0,0-4.29H114.22a2.15,2.15,0,0,1,0-4.29Z"/><path class="cls-4" d="M30,68.85H54.39a2.15,2.15,0,0,1,0,4.29H51.2a2.15,2.15,0,0,0,0,4.29h7a2.15,2.15,0,1,1,0,4.29H33.73a2.15,2.15,0,1,1,0-4.29h6.66a2.15,2.15,0,0,0,0-4.29H30a2.15,2.15,0,0,1,0-4.29Z"/><path class="cls-4" d="M93.48,10.25H63.22a1.88,1.88,0,0,0,0,3.76H74.89a1.88,1.88,0,1,1,0,3.76H68.8a1.88,1.88,0,1,0,0,3.76H90.18a1.88,1.88,0,0,0,0-3.76H84.35a1.88,1.88,0,0,1,0-3.76h9.13a1.88,1.88,0,0,0,0-3.76Z"/><path class="cls-4" d="M152.07,83.62H123.49a2.15,2.15,0,0,1,0-4.29h7.33a2.15,2.15,0,0,0,0-4.29h-4.59a2.15,2.15,0,0,1,0-4.29h18.51a2.15,2.15,0,0,1,0,4.29h-3.11a2.15,2.15,0,1,0,0,4.29h10.44a2.15,2.15,0,0,1,0,4.29Z"/><path class="cls-4" d="M7.15,45.41H35.73a2.15,2.15,0,0,1,0,4.29H28.4a2.15,2.15,0,0,0,0,4.29H33a2.15,2.15,0,0,1,0,4.29H14.48a2.15,2.15,0,0,1,0-4.29h3.11a2.15,2.15,0,1,0,0-4.29H7.15a2.15,2.15,0,0,1,0-4.29Z"/><path class="cls-5" d="M35.09,23.57a3.32,3.32,0,1,1,3.32,3.32A3.33,3.33,0,0,1,35.09,23.57Zm.83,0a2.49,2.49,0,1,0,2.49-2.49A2.5,2.5,0,0,0,35.92,23.57Z"/><path class="cls-6" d="M118.73,18.24A3.32,3.32,0,1,1,122,21.56,3.33,3.33,0,0,1,118.73,18.24Zm.83,0A2.49,2.49,0,1,0,122,15.75,2.49,2.49,0,0,0,119.56,18.24Z"/><g class="cls-7"><path class="cls-6" d="M46.8,45.2a2,2,0,1,1,2,2A2,2,0,0,1,46.8,45.2Zm.83,0A1.16,1.16,0,1,0,48.79,44,1.16,1.16,0,0,0,47.63,45.2Z"/></g><path class="cls-8" d="M68.38,18.17A2.78,2.78,0,1,1,71.16,21,2.79,2.79,0,0,1,68.38,18.17Zm.83,0a2,2,0,1,0,2-2A2,2,0,0,0,69.21,18.17Z"/><path class="cls-5" d="M21.71,76A3.32,3.32,0,1,1,25,79.33,3.33,3.33,0,0,1,21.71,76Zm.83,0A2.49,2.49,0,1,0,25,73.52,2.49,2.49,0,0,0,22.54,76Z"/><path class="cls-8" d="M128.83,77a3.32,3.32,0,1,1,3.32,3.32A3.33,3.33,0,0,1,128.83,77Zm.83,0a2.49,2.49,0,1,0,2.49-2.49A2.49,2.49,0,0,0,129.66,77Z"/><path class="cls-8" d="M21.19,48.31a3.08,3.08,0,1,1,3.08,3.08A3.08,3.08,0,0,1,21.19,48.31Zm.83,0a2.25,2.25,0,1,0,2.25-2.25A2.25,2.25,0,0,0,22,48.31Z"/><path class="cls-5" d="M148.84,55.89A3.08,3.08,0,1,1,151.92,59,3.08,3.08,0,0,1,148.84,55.89Zm.83,0a2.25,2.25,0,1,0,2.25-2.25A2.25,2.25,0,0,0,149.67,55.89Z"/><g class="cls-1"><path class="cls-6" d="M116.8,58.2a2,2,0,1,1,2,2A2,2,0,0,1,116.8,58.2Zm.83,0A1.16,1.16,0,1,0,118.79,57,1.16,1.16,0,0,0,117.63,58.2Z"/></g><rect class="cls-5" x="71.39" y="38.22" width="3.77" height="3.77"/><path class="cls-9" d="M75.16,42.18H71.39A.19.19,0,0,1,71.2,42V38.22a.19.19,0,0,1,.19-.19h3.77a.19.19,0,0,1,.19.19V42A.19.19,0,0,1,75.16,42.18Zm-3.58-.38H75V38.41H71.58Z"/><rect class="cls-5" x="93.3" y="38.22" width="3.77" height="3.77"/><path class="cls-9" d="M97.07,42.18H93.3A.19.19,0,0,1,93.1,42V38.22A.19.19,0,0,1,93.3,38h3.77a.19.19,0,0,1,.19.19V42A.19.19,0,0,1,97.07,42.18Zm-3.58-.38h3.39V38.41H93.49Z"/><path class="cls-10" d="M83.81,15.05c-6.87,0-9.94,13.79-9.94,13.79V64.91H93.74V28.84S90.68,15.05,83.81,15.05Z"/><path class="cls-9" d="M93.74,65.11H73.87a.19.19,0,0,1-.19-.19V28.84a.19.19,0,0,1,0,0,37.77,37.77,0,0,1,2.41-6.94c2.16-4.58,4.83-7,7.72-7s5.56,2.42,7.72,7a37.78,37.78,0,0,1,2.41,6.94.19.19,0,0,1,0,0V64.91A.19.19,0,0,1,93.74,65.11Zm-19.68-.38H93.55V28.86c-.14-.6-3.23-13.62-9.75-13.62s-9.61,13-9.75,13.62Z"/><path class="cls-9" d="M93.71,29.54H74.16a.19.19,0,1,1,0-.38H93.71a.19.19,0,0,1,0,.38Z"/><path class="cls-11" d="M67.46,30.46c-3,0-4.34,10.15-4.34,10.15V70.55H71.8V40.61S70.46,30.46,67.46,30.46Z"/><path class="cls-9" d="M71.8,70.74H63.12a.19.19,0,0,1-.19-.19V40.61A41.7,41.7,0,0,1,64,35.48c1-3.46,2.14-5.21,3.48-5.21S70,32,70.94,35.48a42.25,42.25,0,0,1,1,5.1v30A.19.19,0,0,1,71.8,70.74Zm-8.49-.38h8.3V40.61c-.36-2.75-1.82-10-4.15-10s-3.78,7.2-4.15,10Z"/><path class="cls-5" d="M63.25,42h2.67a2,2,0,0,1,1.92,2.13v4.26a2,2,0,0,1-1.92,2.13H63.25"/><path class="cls-9" d="M65.92,50.71H63.25a.19.19,0,0,1,0-.38h2.67a1.85,1.85,0,0,0,1.73-1.94V44.12a1.85,1.85,0,0,0-1.73-1.94H63.25a.19.19,0,0,1,0-.38h2.67A2.23,2.23,0,0,1,68,44.12v4.26A2.23,2.23,0,0,1,65.92,50.71Z"/><path class="cls-11" d="M100.26,30.46c3,0,4.34,10.15,4.34,10.15V70.55H95.92V40.61S97.25,30.46,100.26,30.46Z"/><path class="cls-9" d="M104.6,70.74H95.92a.19.19,0,0,1-.19-.19V40.61a41.64,41.64,0,0,1,1.05-5.12c1-3.46,2.14-5.21,3.48-5.21s2.51,1.75,3.48,5.21a42.21,42.21,0,0,1,1.05,5.1v30A.19.19,0,0,1,104.6,70.74Zm-8.49-.38h8.3V40.61c-.36-2.75-1.82-10-4.15-10s-3.78,7.2-4.15,10Z"/><path class="cls-5" d="M104.47,42h-2.67a2,2,0,0,0-1.92,2.13v4.26a2,2,0,0,0,1.92,2.13h2.67"/><path class="cls-9" d="M104.47,50.71h-2.67a2.23,2.23,0,0,1-2.11-2.32V44.12a2.23,2.23,0,0,1,2.11-2.32h2.67a.19.19,0,1,1,0,.38h-2.67a1.85,1.85,0,0,0-1.73,1.94v4.26a1.85,1.85,0,0,0,1.73,1.94h2.67a.19.19,0,1,1,0,.38Z"/><path class="cls-10" d="M77.08,42.49s-2.69,6.82-6.73,9.9-9,9.14-7.24,14.23L77,65.36"/><path class="cls-9" d="M63.12,66.81a.19.19,0,0,1-.18-.13c-1.67-4.83,2.61-10.87,7.3-14.44,3.95-3,6.64-9.75,6.66-9.81a.19.19,0,0,1,.36.14c0,.07-2.76,6.91-6.79,10C67.21,55,61.55,61.1,63.25,66.41L77,65.17a.19.19,0,0,1,.21.17.19.19,0,0,1-.17.21L63.14,66.81Z"/><path class="cls-10" d="M73.87,53.26a19.92,19.92,0,0,1-3.95,4.23,8.64,8.64,0,0,0-3,4.13"/><path class="cls-9" d="M66.9,61.81h0a.19.19,0,0,1-.14-.23,8.76,8.76,0,0,1,3.09-4.23,19.88,19.88,0,0,0,3.91-4.18.19.19,0,1,1,.32.21,20.31,20.31,0,0,1-4,4.27,8.51,8.51,0,0,0-3,4A.19.19,0,0,1,66.9,61.81Z"/><path class="cls-9" d="M72.76,65.91a.19.19,0,0,1-.19-.19V62.58a.19.19,0,1,1,.38,0v3.14A.19.19,0,0,1,72.76,65.91Z"/><path class="cls-10" d="M90.43,42.49s2.69,6.82,6.73,9.9,9,9.14,7.24,14.23L90.52,65.36"/><path class="cls-9" d="M104.39,66.81h0L90.51,65.55a.19.19,0,1,1,0-.38l13.72,1.24C106,61.1,100.3,55,97,52.54c-4-3.07-6.76-9.91-6.79-10a.19.19,0,1,1,.36-.14c0,.07,2.72,6.81,6.66,9.81,4.69,3.57,9,9.62,7.3,14.44A.19.19,0,0,1,104.39,66.81Z"/><path class="cls-10" d="M93.64,53.26a19.92,19.92,0,0,0,3.95,4.23,8.64,8.64,0,0,1,3,4.13"/><path class="cls-9" d="M100.61,61.81a.19.19,0,0,1-.19-.14,8.54,8.54,0,0,0-3-4,20.32,20.32,0,0,1-4-4.27.19.19,0,0,1,.32-.21,19.89,19.89,0,0,0,3.91,4.18,8.75,8.75,0,0,1,3.09,4.23.19.19,0,0,1-.14.23Z"/><path class="cls-9" d="M94.75,65.91a.19.19,0,0,1-.19-.19V62.58a.19.19,0,1,1,.38,0v3.14A.19.19,0,0,1,94.75,65.91Z"/><path class="cls-5" d="M83.78,24.33C79,24.33,76.92,36,76.92,36V66.48H90.63V36S88.52,24.33,83.78,24.33Z"/><path class="cls-9" d="M90.63,66.68H76.92a.19.19,0,0,1-.19-.19V36c.09-.52,2.2-11.85,7-11.85s7,11.33,7,11.82V66.48A.19.19,0,0,1,90.63,66.68Zm-13.52-.38H90.44V36c0-.08-2.14-11.47-6.66-11.47S77.13,35.91,77.11,36Z"/><path class="cls-9" d="M87.17,38.41a.19.19,0,0,1-.19-.19,3.31,3.31,0,1,0-6.63,0,.19.19,0,1,1-.38,0,3.7,3.7,0,1,1,7.4,0A.19.19,0,0,1,87.17,38.41Z"/><path class="cls-11" d="M77.12,49.92h2.74a1.93,1.93,0,0,1,1.92,1.92v4.23A1.93,1.93,0,0,1,79.86,58H77.12"/><path class="cls-9" d="M79.86,58.18H77.12V57.8h2.74a1.73,1.73,0,0,0,1.73-1.73V51.84a1.73,1.73,0,0,0-1.73-1.73H77.12v-.38h2.74A2.12,2.12,0,0,1,82,51.84v4.23A2.12,2.12,0,0,1,79.86,58.18Z"/><rect class="cls-12" x="75.16" y="66.48" width="16.53" height="4.74" rx="1.92" ry="1.92"/><path class="cls-9" d="M89.77,71.42H77.08A2.12,2.12,0,0,1,75,69.3v-.9a2.12,2.12,0,0,1,2.11-2.11H89.77a2.12,2.12,0,0,1,2.11,2.11v.9A2.12,2.12,0,0,1,89.77,71.42ZM77.08,66.68a1.73,1.73,0,0,0-1.73,1.73v.9A1.73,1.73,0,0,0,77.08,71H89.77A1.73,1.73,0,0,0,91.5,69.3v-.9a1.73,1.73,0,0,0-1.73-1.73Z"/><rect class="cls-10" x="81.79" y="61.61" width="3.46" height="11.34" rx="1.73" ry="1.73"/><path class="cls-9" d="M83.52,73.14a1.92,1.92,0,0,1-1.92-1.92V63.34a1.92,1.92,0,1,1,3.84,0v7.88A1.92,1.92,0,0,1,83.52,73.14Zm0-11.34A1.54,1.54,0,0,0,82,63.34v7.88a1.54,1.54,0,1,0,3.07,0V63.34A1.54,1.54,0,0,0,83.52,61.81Z"/><rect class="cls-12" x="61.71" y="69.97" width="11.05" height="4.42" rx="1.92" ry="1.92"/><path class="cls-9" d="M70.84,74.59H63.63a2.12,2.12,0,0,1-2.11-2.11V71.9a2.12,2.12,0,0,1,2.11-2.11h7.21A2.12,2.12,0,0,1,73,71.9v.58A2.12,2.12,0,0,1,70.84,74.59Zm-7.21-4.42A1.73,1.73,0,0,0,61.9,71.9v.58a1.73,1.73,0,0,0,1.73,1.73h7.21a1.73,1.73,0,0,0,1.73-1.73V71.9a1.73,1.73,0,0,0-1.73-1.73Z"/><rect class="cls-12" x="94.38" y="69.97" width="11.05" height="4.42" rx="1.92" ry="1.92"/><path class="cls-9" d="M103.51,74.59H96.3a2.12,2.12,0,0,1-2.11-2.11V71.9a2.12,2.12,0,0,1,2.11-2.11h7.21a2.12,2.12,0,0,1,2.11,2.11v.58A2.12,2.12,0,0,1,103.51,74.59ZM96.3,70.17a1.73,1.73,0,0,0-1.73,1.73v.58A1.73,1.73,0,0,0,96.3,74.2h7.21a1.73,1.73,0,0,0,1.73-1.73V71.9a1.73,1.73,0,0,0-1.73-1.73Z"/><path class="cls-9" d="M65.09,74.59a.19.19,0,0,1-.19-.19V72.57a.19.19,0,0,1,.38,0v1.83A.19.19,0,0,1,65.09,74.59Z"/><path class="cls-9" d="M79.07,71.42a.19.19,0,0,1-.19-.19V69.4a.19.19,0,0,1,.38,0v1.83A.19.19,0,0,1,79.07,71.42Z"/><path class="cls-9" d="M69.7,74.59a.19.19,0,0,1-.19-.19V72.57a.19.19,0,0,1,.38,0v1.83A.19.19,0,0,1,69.7,74.59Z"/><path class="cls-9" d="M67.39,74.59a.19.19,0,0,1-.19-.19V73.34a.19.19,0,1,1,.38,0v1.06A.19.19,0,0,1,67.39,74.59Z"/><path class="cls-9" d="M87.91,71.42a.19.19,0,0,1-.19-.19V69.4a.19.19,0,0,1,.38,0v1.83A.19.19,0,0,1,87.91,71.42Z"/><path class="cls-9" d="M97.76,74.59a.19.19,0,0,1-.19-.19V72.57a.19.19,0,0,1,.38,0v1.83A.19.19,0,0,1,97.76,74.59Z"/><path class="cls-9" d="M102.37,74.59a.19.19,0,0,1-.19-.19V72.57a.19.19,0,0,1,.38,0v1.83A.19.19,0,0,1,102.37,74.59Z"/><path class="cls-9" d="M100.06,74.59a.19.19,0,0,1-.19-.19V73.34a.19.19,0,0,1,.38,0v1.06A.19.19,0,0,1,100.06,74.59Z"/></svg>