<svg width="354" height="603" viewBox="0 0 354 603" fill="none" xmlns="http://www.w3.org/2000/svg">
<path d="M0.5 12.5C0.5 5.87255 5.87258 0.5 12.5 0.5H341.5C348.127 0.5 353.5 5.87258 353.5 12.5V590.595C353.5 597.222 348.127 602.595 341.5 602.595H12.5C5.87258 602.595 0.5 597.222 0.5 590.595V12.5Z" fill="#F2FFF4"/>
<mask id="mask0_51_161" style="mask-type:alpha" maskUnits="userSpaceOnUse" x="0" y="0" width="354" height="603">
<path d="M0.5 12.5C0.5 5.87255 5.87258 0.5 12.5 0.5H341.5C348.127 0.5 353.5 5.87258 353.5 12.5V590.595C353.5 597.222 348.127 602.595 341.5 602.595H12.5C5.87258 602.595 0.5 597.222 0.5 590.595V12.5Z" fill="url(#paint0_linear_51_161)"/>
</mask>
<g mask="url(#mask0_51_161)">
<path fill-rule="evenodd" clip-rule="evenodd" d="M-0.379786 586.375L-0.379761 0.5L0.620239 0.5L0.620214 586.375L-0.379786 586.375Z" fill="#00BC1E" fill-opacity="0.1"/>
<path fill-rule="evenodd" clip-rule="evenodd" d="M43.9553 614.365L43.9553 0.5L44.9553 0.5L44.9553 614.365L43.9553 614.365Z" fill="#00BC1E" fill-opacity="0.1"/>
<path fill-rule="evenodd" clip-rule="evenodd" d="M88.2904 614.365L88.2904 0.5L89.2904 0.5L89.2904 614.365L88.2904 614.365Z" fill="#00BC1E" fill-opacity="0.1"/>
<path fill-rule="evenodd" clip-rule="evenodd" d="M132.625 614.365L132.625 0.5L133.625 0.5L133.625 614.365L132.625 614.365Z" fill="#00BC1E" fill-opacity="0.1"/>
<path fill-rule="evenodd" clip-rule="evenodd" d="M176.96 614.365L176.96 0.5L177.96 0.5L177.96 614.365L176.96 614.365Z" fill="#00BC1E" fill-opacity="0.1"/>
<path fill-rule="evenodd" clip-rule="evenodd" d="M221.296 614.365L221.296 0.5L222.296 0.5L222.296 614.365L221.296 614.365Z" fill="#00BC1E" fill-opacity="0.1"/>
<path fill-rule="evenodd" clip-rule="evenodd" d="M265.631 614.365L265.631 0.5L266.631 0.5L266.631 614.365L265.631 614.365Z" fill="#00BC1E" fill-opacity="0.1"/>
<path fill-rule="evenodd" clip-rule="evenodd" d="M309.966 614.365L309.966 0.5L310.966 0.5L310.966 614.365L309.966 614.365Z" fill="#00BC1E" fill-opacity="0.1"/>
<path fill-rule="evenodd" clip-rule="evenodd" d="M-0.379669 293.437L354.301 293.437L354.301 294.437L-0.379669 294.437L-0.379669 293.437Z" fill="#00BC1E" fill-opacity="0.1"/>
<path fill-rule="evenodd" clip-rule="evenodd" d="M-0.379669 37.1172L354.301 37.1172L354.301 38.1172L-0.379669 38.1172L-0.379669 37.1172Z" fill="#00BC1E" fill-opacity="0.1"/>
<path fill-rule="evenodd" clip-rule="evenodd" d="M-0.379669 330.054L354.301 330.054L354.301 331.054L-0.379669 331.054L-0.379669 330.054Z" fill="#00BC1E" fill-opacity="0.1"/>
<path fill-rule="evenodd" clip-rule="evenodd" d="M-0.379669 73.7343L354.301 73.7344L354.301 74.7344L-0.379669 74.7343L-0.379669 73.7343Z" fill="#00BC1E" fill-opacity="0.1"/>
<path fill-rule="evenodd" clip-rule="evenodd" d="M-0.379669 366.672L354.301 366.672L354.301 367.672L-0.379669 367.672L-0.379669 366.672Z" fill="#00BC1E" fill-opacity="0.1"/>
<path fill-rule="evenodd" clip-rule="evenodd" d="M-0.379669 110.352L354.301 110.352L354.301 111.352L-0.379669 111.352L-0.379669 110.352Z" fill="#00BC1E" fill-opacity="0.1"/>
<path fill-rule="evenodd" clip-rule="evenodd" d="M-0.379669 403.289L354.301 403.289L354.301 404.289L-0.379669 404.289L-0.379669 403.289Z" fill="#00BC1E" fill-opacity="0.1"/>
<path fill-rule="evenodd" clip-rule="evenodd" d="M-0.379669 146.969L354.301 146.969L354.301 147.969L-0.379669 147.969L-0.379669 146.969Z" fill="#00BC1E" fill-opacity="0.1"/>
<path fill-rule="evenodd" clip-rule="evenodd" d="M-0.379669 439.906L354.301 439.906L354.301 440.906L-0.379669 440.906L-0.379669 439.906Z" fill="#00BC1E" fill-opacity="0.1"/>
<path fill-rule="evenodd" clip-rule="evenodd" d="M-0.379669 183.586L354.301 183.586L354.301 184.586L-0.379669 184.586L-0.379669 183.586Z" fill="#00BC1E" fill-opacity="0.1"/>
<path fill-rule="evenodd" clip-rule="evenodd" d="M-0.379669 476.523L354.301 476.523L354.301 477.523L-0.379669 477.523L-0.379669 476.523Z" fill="#00BC1E" fill-opacity="0.1"/>
<path fill-rule="evenodd" clip-rule="evenodd" d="M-0.379669 220.203L354.301 220.203L354.301 221.203L-0.379669 221.203L-0.379669 220.203Z" fill="#00BC1E" fill-opacity="0.1"/>
<path fill-rule="evenodd" clip-rule="evenodd" d="M-0.379669 513.14L354.301 513.14L354.301 514.14L-0.379669 514.14L-0.379669 513.14Z" fill="#00BC1E" fill-opacity="0.1"/>
<path fill-rule="evenodd" clip-rule="evenodd" d="M-0.379669 256.82L354.301 256.82L354.301 257.82L-0.379669 257.82L-0.379669 256.82Z" fill="#00BC1E" fill-opacity="0.1"/>
<path fill-rule="evenodd" clip-rule="evenodd" d="M-0.379669 549.757L354.301 549.757L354.301 550.757L-0.379669 550.757L-0.379669 549.757Z" fill="#00BC1E" fill-opacity="0.1"/>
<path fill-rule="evenodd" clip-rule="evenodd" d="M-0.379669 586.374L354.301 586.375L354.301 587.375L-0.379669 587.374L-0.379669 586.374Z" fill="#00BC1E" fill-opacity="0.1"/>
</g>
<g filter="url(#filter0_d_51_161)">
<path fill-rule="evenodd" clip-rule="evenodd" d="M183.886 297.422C155.523 242.016 171.896 202.427 184.205 189.26L187.127 191.992C176.086 203.802 159.771 241.537 187.446 295.6C201.655 323.355 204.738 351.566 203.282 374.158C202.554 385.455 200.69 395.373 198.499 403.159C196.327 410.877 193.783 416.686 191.592 419.631L188.383 417.245C190.129 414.896 192.515 409.659 194.649 402.075C196.764 394.56 198.581 384.919 199.29 373.901C200.711 351.86 197.696 324.401 183.886 297.422Z" fill="url(#paint1_linear_51_161)"/>
</g>
<g filter="url(#filter1_di_51_161)">
<path d="M180.728 426.137C181.079 425.067 182.213 424.538 183.259 424.955V424.955C184.305 425.373 184.869 426.58 184.518 427.65L182.247 434.567C181.896 435.638 180.763 436.167 179.716 435.749V435.749C178.67 435.331 178.106 434.125 178.458 433.054L180.728 426.137Z" fill="#6571FF"/>
<path d="M187.625 428.891C187.976 427.82 189.109 427.291 190.156 427.709V427.709C191.202 428.127 191.766 429.333 191.414 430.404L189.144 437.321C188.793 438.391 187.659 438.92 186.613 438.503V438.503C185.567 438.085 185.003 436.878 185.355 435.808L187.625 428.891Z" fill="#6571FF"/>
<path d="M179.971 419.778C181.235 415.442 185.775 412.951 190.111 414.215V414.215C194.447 415.479 196.938 420.019 195.674 424.355L193.928 430.345C193.705 431.109 192.905 431.548 192.14 431.325L179.206 427.555C178.441 427.332 178.002 426.532 178.225 425.768L179.971 419.778Z" fill="#6571FF"/>
</g>
<g filter="url(#filter2_di_51_161)">
<path d="M219.36 442.539C213.126 438.138 206.268 434.536 198.906 431.887C197.678 433.438 196.19 435.552 195.122 437.254C187.263 434.625 179.266 433.242 171.129 433.104C170.695 431.143 169.979 428.647 169.334 426.773C161.502 426.794 153.824 427.89 146.472 429.951C129.135 448.603 121.875 468.461 120.237 488.992C128.132 497.454 136.215 503.163 144.399 507.399C147.053 504.782 149.509 501.936 151.73 498.873C148.811 497.125 146.072 495.118 143.541 492.899C144.389 492.464 145.226 492 146.041 491.515C161.889 502.702 180.649 505.946 199.127 500.697C199.74 501.429 200.372 502.146 201.017 502.84C197.877 504.086 194.615 505.056 191.279 505.722C192.344 509.344 193.691 512.857 195.32 516.215C204.46 514.975 213.999 512.314 224.279 506.987C230.51 483.936 228.122 462.603 219.36 442.539ZM156.976 482.546C151.793 481.649 148.393 476.001 149.427 470.018C150.462 464.035 155.473 459.832 160.747 460.744C166.021 461.657 169.422 467.305 168.295 473.281C167.268 479.266 162.25 483.458 156.976 482.546ZM191.839 488.576C186.656 487.679 183.255 482.031 184.29 476.047C185.325 470.064 190.335 465.862 195.609 466.774C200.883 467.686 204.284 473.335 203.157 479.311C202.122 485.294 197.113 489.488 191.839 488.576Z" fill="#6571FF"/>
</g>
<g filter="url(#filter3_di_51_161)">
<path d="M133.686 116.354H146.935V122.204H219.802V116.354H233.051C233.863 116.353 234.651 116.073 235.282 115.562C235.913 115.05 236.349 114.337 236.518 113.542C236.687 112.747 236.578 111.919 236.209 111.195C235.84 110.471 235.234 109.895 234.492 109.564L184.809 87.4954C184.356 87.2943 183.865 87.1904 183.368 87.1904C182.872 87.1904 182.381 87.2943 181.927 87.4954L132.245 109.575C131.509 109.91 130.91 110.485 130.545 111.207C130.181 111.928 130.074 112.753 130.242 113.543C130.411 114.334 130.843 115.044 131.47 115.555C132.096 116.066 132.878 116.348 133.686 116.354ZM183.368 104.916C184.808 104.916 186.216 105.344 187.413 106.144C188.611 106.944 189.544 108.081 190.095 109.411C190.646 110.742 190.79 112.206 190.509 113.618C190.228 115.03 189.534 116.327 188.516 117.345C187.497 118.364 186.2 119.057 184.787 119.337C183.375 119.618 181.911 119.474 180.581 118.922C179.251 118.371 178.114 117.437 177.314 116.24C176.514 115.042 176.088 113.635 176.088 112.195C176.089 110.264 176.856 108.413 178.221 107.048C179.586 105.683 181.438 104.916 183.368 104.916ZM130.144 129.364C130.144 128.424 130.517 127.523 131.181 126.858C131.845 126.193 132.746 125.819 133.686 125.817H146.935V125.753H219.802V125.817H233.051C233.992 125.817 234.895 126.191 235.56 126.857C236.226 127.522 236.6 128.425 236.6 129.366C236.6 130.307 236.226 131.21 235.56 131.876C234.895 132.541 233.992 132.915 233.051 132.915H231.072V182.967H207.429V167.121C207.429 154.629 197.208 144.409 184.717 144.409C172.225 144.409 162.005 154.629 162.005 167.121V182.967H135.665V132.913H133.686C132.746 132.911 131.845 132.536 131.181 131.871C130.517 131.206 130.144 130.304 130.144 129.364ZM236.593 190.086C236.593 191.027 236.219 191.93 235.554 192.596C234.888 193.261 233.985 193.635 233.044 193.635H133.686C132.745 193.635 131.842 193.261 131.177 192.596C130.511 191.93 130.137 191.027 130.137 190.086C130.137 189.145 130.511 188.242 131.177 187.577C131.842 186.911 132.745 186.538 133.686 186.538H135.665V186.523L233.051 186.538C233.991 186.539 234.892 186.914 235.556 187.579C236.22 188.245 236.593 189.146 236.593 190.086Z" fill="#965DF4"/>
</g>
<defs>
<filter id="filter0_d_51_161" x="164.196" y="185.26" width="51.4128" height="246.371" filterUnits="userSpaceOnUse" color-interpolation-filters="sRGB">
<feFlood flood-opacity="0" result="BackgroundImageFix"/>
<feColorMatrix in="SourceAlpha" type="matrix" values="0 0 0 0 0 0 0 0 0 0 0 0 0 0 0 0 0 0 127 0" result="hardAlpha"/>
<feOffset dx="4" dy="4"/>
<feGaussianBlur stdDeviation="4"/>
<feComposite in2="hardAlpha" operator="out"/>
<feColorMatrix type="matrix" values="0 0 0 0 0 0 0 0 0 0 0 0 0 0 0 0 0 0 0.25 0"/>
<feBlend mode="normal" in2="BackgroundImageFix" result="effect1_dropShadow_51_161"/>
<feBlend mode="normal" in="SourceGraphic" in2="effect1_dropShadow_51_161" result="shape"/>
</filter>
<filter id="filter1_di_51_161" x="167.167" y="407.886" width="39.8356" height="46.7593" filterUnits="userSpaceOnUse" color-interpolation-filters="sRGB">
<feFlood flood-opacity="0" result="BackgroundImageFix"/>
<feColorMatrix in="SourceAlpha" type="matrix" values="0 0 0 0 0 0 0 0 0 0 0 0 0 0 0 0 0 0 127 0" result="hardAlpha"/>
<feOffset dy="5"/>
<feGaussianBlur stdDeviation="5.5"/>
<feComposite in2="hardAlpha" operator="out"/>
<feColorMatrix type="matrix" values="0 0 0 0 0 0 0 0 0 0 0 0 0 0 0 0 0 0 0.25 0"/>
<feBlend mode="normal" in2="BackgroundImageFix" result="effect1_dropShadow_51_161"/>
<feBlend mode="normal" in="SourceGraphic" in2="effect1_dropShadow_51_161" result="shape"/>
<feColorMatrix in="SourceAlpha" type="matrix" values="0 0 0 0 0 0 0 0 0 0 0 0 0 0 0 0 0 0 127 0" result="hardAlpha"/>
<feOffset dy="-1"/>
<feComposite in2="hardAlpha" operator="arithmetic" k2="-1" k3="1"/>
<feColorMatrix type="matrix" values="0 0 0 0 0 0 0 0 0 0 0 0 0 0 0 0 0 0 0.25 0"/>
<feBlend mode="normal" in2="shape" result="effect2_innerShadow_51_161"/>
</filter>
<filter id="filter2_di_51_161" x="77.2369" y="401.773" width="193.535" height="175.443" filterUnits="userSpaceOnUse" color-interpolation-filters="sRGB">
<feFlood flood-opacity="0" result="BackgroundImageFix"/>
<feColorMatrix in="SourceAlpha" type="matrix" values="0 0 0 0 0 0 0 0 0 0 0 0 0 0 0 0 0 0 127 0" result="hardAlpha"/>
<feOffset dy="18"/>
<feGaussianBlur stdDeviation="21.5"/>
<feComposite in2="hardAlpha" operator="out"/>
<feColorMatrix type="matrix" values="0 0 0 0 0 0 0 0 0 0 0 0 0 0 0 0 0 0 0.25 0"/>
<feBlend mode="normal" in2="BackgroundImageFix" result="effect1_dropShadow_51_161"/>
<feBlend mode="normal" in="SourceGraphic" in2="effect1_dropShadow_51_161" result="shape"/>
<feColorMatrix in="SourceAlpha" type="matrix" values="0 0 0 0 0 0 0 0 0 0 0 0 0 0 0 0 0 0 127 0" result="hardAlpha"/>
<feOffset dx="-2" dy="-4"/>
<feComposite in2="hardAlpha" operator="arithmetic" k2="-1" k3="1"/>
<feColorMatrix type="matrix" values="0 0 0 0 0 0 0 0 0 0 0 0 0 0 0 0 0 0 0.25 0"/>
<feBlend mode="normal" in2="shape" result="effect2_innerShadow_51_161"/>
</filter>
<filter id="filter3_di_51_161" x="86.1372" y="75.1904" width="160.462" height="160.445" filterUnits="userSpaceOnUse" color-interpolation-filters="sRGB">
<feFlood flood-opacity="0" result="BackgroundImageFix"/>
<feColorMatrix in="SourceAlpha" type="matrix" values="0 0 0 0 0 0 0 0 0 0 0 0 0 0 0 0 0 0 127 0" result="hardAlpha"/>
<feOffset dx="-17" dy="15"/>
<feGaussianBlur stdDeviation="13.5"/>
<feComposite in2="hardAlpha" operator="out"/>
<feColorMatrix type="matrix" values="0 0 0 0 0 0 0 0 0 0 0 0 0 0 0 0 0 0 0.25 0"/>
<feBlend mode="normal" in2="BackgroundImageFix" result="effect1_dropShadow_51_161"/>
<feBlend mode="normal" in="SourceGraphic" in2="effect1_dropShadow_51_161" result="shape"/>
<feColorMatrix in="SourceAlpha" type="matrix" values="0 0 0 0 0 0 0 0 0 0 0 0 0 0 0 0 0 0 127 0" result="hardAlpha"/>
<feOffset dx="5"/>
<feComposite in2="hardAlpha" operator="arithmetic" k2="-1" k3="1"/>
<feColorMatrix type="matrix" values="0 0 0 0 0 0 0 0 0 0 0 0 0 0 0 0 0 0 0.25 0"/>
<feBlend mode="normal" in2="shape" result="effect2_innerShadow_51_161"/>
</filter>
<linearGradient id="paint0_linear_51_161" x1="177" y1="0.5" x2="177" y2="602.595" gradientUnits="userSpaceOnUse">
<stop stop-color="#404EED"/>
<stop offset="0.71875" stop-color="#6025C0"/>
</linearGradient>
<linearGradient id="paint1_linear_51_161" x1="187.521" y1="190.626" x2="187.521" y2="396.695" gradientUnits="userSpaceOnUse">
<stop stop-color="#6025C0"/>
<stop offset="1" stop-color="#6571FF"/>
</linearGradient>
</defs>
</svg>
