<svg id="be5bdf70-a00f-4cd0-891d-e09237cc0afc" data-name="Layer 1" xmlns="http://www.w3.org/2000/svg" viewBox="0 0 100 140"><title>Artboard 3 copy 4</title><path d="M36.8,103.06A2.59,2.59,0,0,1,35.22,102L27.16,90.58a2.54,2.54,0,0,1-.43-1.93,2.61,2.61,0,0,1,2.57-2.17,2.6,2.6,0,0,1,2.15,1.12l6.47,9.21,30.55-23.9.12-.12a2.25,2.25,0,0,1,.57-.45A2.56,2.56,0,0,1,70.51,72a2.62,2.62,0,0,1,1.29,4.89l-.14.09L38.93,102.5a2.61,2.61,0,0,1-1.59.56Z" fill="#715c99"/><path d="M85.21,132.68H14.79a7.05,7.05,0,0,1-7-7V26.36a7.05,7.05,0,0,1,7-7H85.21a7.05,7.05,0,0,1,7,7v99.28A7.05,7.05,0,0,1,85.21,132.68ZM14.79,24a2.35,2.35,0,0,0-2.35,2.34v99.28A2.35,2.35,0,0,0,14.79,128H85.21a2.35,2.35,0,0,0,2.35-2.35V26.36A2.35,2.35,0,0,0,85.21,24Z" fill="#715c99"/><rect x="9.9" y="45.07" width="79.81" height="4.69" fill="#715c99"/><path d="M23.1,35.53H77.3a1.86,1.86,0,0,0,0-3.72H23.1a1.86,1.86,0,0,0,0,3.72Z" fill="#715c99"/><path d="M64.25,21.67H59.56a9.66,9.66,0,1,0-19.31,0H35.56a14.35,14.35,0,1,1,28.69,0Z" fill="#715c99"/></svg>