<?xml version="1.0" encoding="UTF-8"?><svg id="a" xmlns="http://www.w3.org/2000/svg" viewBox="0 0 100 140"><path d="m85.21,19.36h-21.06c-1.11-6.82-7.01-12.04-14.15-12.04s-13.04,5.22-14.15,12.04H14.79c-3.85.03-6.97,3.15-7,7v99.32c.03,3.85,3.15,6.97,7,7h70.42c3.87-.03,6.99-3.17,7-7.04V26.36c-.03-3.85-3.15-6.97-7-7Zm-35.21-7.35c4.54,0,8.33,3.13,9.37,7.35h-18.74c1.04-4.22,4.83-7.35,9.37-7.35Zm37.56,113.64c0,1.3-1.05,2.35-2.35,2.35H14.79s-.02,0-.03,0c-1.3-.02-2.34-1.08-2.32-2.38V26.34c0-1.29,1.06-2.34,2.35-2.34h70.43c1.3,0,2.35,1.06,2.34,2.36v99.29Zm-5.94-78.22v.35c0,1.81-1.48,3.29-3.29,3.29H21.67c-1.81,0-3.29-1.48-3.29-3.29v-.35c0-1.81,1.48-3.29,3.29-3.29h56.67c1.81,0,3.29,1.48,3.29,3.29Zm-63.24-8.21c0-1.33,1.07-2.4,2.4-2.4h17.72c1.33,0,2.4,1.07,2.4,2.4s-1.07,2.4-2.4,2.4h-17.72c-1.33,0-2.4-1.07-2.4-2.4Zm63.24,71.82v1.37c0,1.53-1.25,2.78-2.78,2.78h-19.69c-1.53,0-2.78-1.25-2.78-2.78v-1.37c0-1.53,1.25-2.78,2.78-2.78h19.69c1.53,0,2.78,1.25,2.78,2.78Zm0-12.1v.35c0,1.81-1.48,3.29-3.29,3.29H21.67c-1.81,0-3.29-1.48-3.29-3.29v-.35c0-1.81,1.48-3.29,3.29-3.29h56.67c1.81,0,3.29,1.48,3.29,3.29Zm-60.84-5.81c-1.33,0-2.4-1.07-2.4-2.4s1.07-2.4,2.4-2.4h17.72c1.33,0,2.4,1.07,2.4,2.4s-1.07,2.4-2.4,2.4h-17.72Zm60.84-19.94v.35c0,1.81-1.48,3.29-3.29,3.29H21.67c-1.81,0-3.29-1.48-3.29-3.29v-.35c0-1.81,1.48-3.29,3.29-3.29h56.67c1.81,0,3.29,1.48,3.29,3.29Zm-60.84-5.81c-1.33,0-2.4-1.07-2.4-2.4s1.07-2.4,2.4-2.4h17.72c1.33,0,2.4,1.07,2.4,2.4s-1.07,2.4-2.4,2.4h-17.72Z" fill="#715c99"/></svg>