<svg width="12" height="12" viewBox="0 0 12 12" fill="none" xmlns="http://www.w3.org/2000/svg">
<path d="M11.9941 3.10128C11.9401 4.33804 11.1245 6.03145 9.54727 8.18786C7.91608 10.4457 6.53676 11.5557 5.39733 11.5557C4.70767 11.5557 4.11396 10.8707 3.6282 9.49439C3.29837 8.25129 2.99851 6.9955 2.66268 5.73971C2.30286 4.36975 1.91905 3.68478 1.49926 3.68478C1.4153 3.68478 1.10345 3.88773 0.563721 4.2873L0 3.51353C0.599703 2.96175 1.17542 2.40996 1.75113 1.85817C2.54274 1.13514 3.13645 0.754599 3.52625 0.716545C4.46179 0.615067 5.0375 1.30004 5.2534 2.7461C5.48728 4.31267 5.6492 5.28305 5.73916 5.6636C5.99703 6.95744 6.29688 7.59168 6.62672 7.59168C6.87859 7.59168 7.2564 7.18577 7.76016 6.34223C8.26391 5.50504 8.53377 4.86446 8.56975 4.42049C8.64172 3.69746 8.37185 3.33595 7.76016 3.33595C7.4723 3.33595 7.17844 3.40571 6.8726 3.54524C7.4603 1.49666 8.58775 0.500904 10.2489 0.557985C11.4843 0.596039 12.066 1.44592 11.9941 3.10128Z" fill="#4D1E9A"/>
</svg>
