<svg id="Layer_1" data-name="Layer 1" xmlns="http://www.w3.org/2000/svg" viewBox="0 0 12 14.8"><defs><style>.cls-1{fill:#60686e;}</style></defs><title>About-icon</title><path class="cls-1" d="M11.41,1.81H9.6v1A1.54,1.54,0,0,1,8.06,4.39H4A1.54,1.54,0,0,1,2.51,2.85v-1H0.64A0.62,0.62,0,0,0,0,2.43V14.18a0.62,0.62,0,0,0,.62.62H11.41A0.62,0.62,0,0,0,12,14.18V2.43A0.62,0.62,0,0,0,11.41,1.81ZM2.07,8.15a0.31,0.31,0,0,1,.31-0.31H7a0.31,0.31,0,0,1,.31.31V8.58A0.31,0.31,0,0,1,7,8.89H2.38a0.31,0.31,0,0,1-.31-0.31V8.15Zm5.19,3.93a0.31,0.31,0,0,1-.31.31H2.38a0.31,0.31,0,0,1-.31-0.31V11.64a0.31,0.31,0,0,1,.31-0.31H7a0.31,0.31,0,0,1,.31.31v0.44Zm1.9-1.75a0.31,0.31,0,0,1-.31.31H2.38a0.31,0.31,0,0,1-.31-0.31V9.89a0.31,0.31,0,0,1,.31-0.31H8.85a0.31,0.31,0,0,1,.31.31v0.44Zm0-3.49a0.31,0.31,0,0,1-.31.31H2.38a0.31,0.31,0,0,1-.31-0.31V6.4a0.31,0.31,0,0,1,.31-0.31H8.85a0.31,0.31,0,0,1,.31.31V6.84Z"/><rect class="cls-1" x="3.43" y="0.93" width="5.24" height="2.54" rx="0.62" ry="0.62"/><path class="cls-1" d="M5.23,0.59V0.8a0.62,0.62,0,0,0,.62.62H6.26A0.62,0.62,0,0,0,6.87.8V0.59A0.62,0.62,0,0,0,6.42,0H5.68A0.62,0.62,0,0,0,5.23.59Z"/></svg>