<svg id="Layer_1" data-name="Layer 1" xmlns="http://www.w3.org/2000/svg" viewBox="0 0 12 17.7"><defs><style>.cls-1{fill:#60686e;}</style></defs><title>skills-icon</title><g id="Icons"><path class="cls-1" d="M8.24,13.23H3.86a0.59,0.59,0,0,0,0,1.18H8.24A0.59,0.59,0,1,0,8.24,13.23Z"/><path class="cls-1" d="M4.9,16.72V17a0.66,0.66,0,0,0,.66.66h1A0.66,0.66,0,0,0,7.2,17V16.72A1.43,1.43,0,0,0,8.53,15.3h-5A1.43,1.43,0,0,0,4.9,16.72Z"/><path class="cls-1" d="M6.05,0A5.9,5.9,0,0,0,1.41,9.56a25.26,25.26,0,0,1,1.94,2.83H8.76A25.18,25.18,0,0,1,10.7,9.56,5.9,5.9,0,0,0,6.05,0Zm0,2.05a3.81,3.81,0,0,0-3.81,3.8,0.59,0.59,0,0,1-1.18,0,5,5,0,0,1,5-5A0.59,0.59,0,0,1,6.06,2.05Z"/></g></svg>