<svg id="Layer_1" data-name="Layer 1" xmlns="http://www.w3.org/2000/svg" viewBox="0 0 252 252"><defs><style>.cls-1{fill:#33b475;}.cls-2{fill:#e3b562;}</style></defs><title>bootcamp</title><g id="Page-1"><g id="Founder-targets-Dashboard"><g id="Group-62"><g id="Group-35"><path id="Shape" class="cls-1" d="M190.7,44a18.44,18.44,0,0,0-4.43.54,1.23,1.23,0,0,0-.36,2.23,16,16,0,0,1-4.65,29A1.23,1.23,0,0,0,180.9,78a18.42,18.42,0,1,0,9.81-34Z"/><g id="Group"><g id="Group-60"><path id="Shape-2" data-name="Shape" class="cls-2" d="M60.37,89.59l-3.78-.42-2.4-3a.82.82,0,0,0-1.38.18l-1.56,3.47-3.55,1.37a.82.82,0,0,0-.26,1.37l2.82,2.56.2,3.8a.82.82,0,0,0,1.22.67L55,97.75l3.68,1a.82.82,0,0,0,1-1L58.89,94,61,90.85a.82.82,0,0,0-.6-1.26Z"/><path id="Shape-3" data-name="Shape" class="cls-2" d="M82.55,66a.82.82,0,0,0-.65-.46l-3.78-.42-2.4-3a.82.82,0,0,0-1.38.18l-1.56,3.47L69.22,67.2A.82.82,0,0,0,69,68.57l2.82,2.56.2,3.8a.82.82,0,0,0,.42.67.82.82,0,0,0,.8,0l3.31-1.89,3.68,1a.82.82,0,0,0,1-1L80.42,70l2.07-3.2A.82.82,0,0,0,82.55,66Z"/><path id="Shape-4" data-name="Shape" class="cls-2" d="M38.84,65.56l-3.78-.42-2.4-3a.82.82,0,0,0-1.38.18l-1.56,3.47L26.16,67.2a.82.82,0,0,0-.26,1.37l2.82,2.56.2,3.8a.82.82,0,0,0,.43.67.82.82,0,0,0,.8,0l3.31-1.89,3.68,1a.82.82,0,0,0,1-1L37.37,70l2.07-3.2a.82.82,0,0,0-.6-1.26Z"/></g></g><path id="Shape-5" data-name="Shape" class="cls-1" d="M241.56,198.21H221.65L130.36,69.76,144,49a3.27,3.27,0,1,0-5.46-3.6L126,64.48l-12.54-19A3.27,3.27,0,1,0,108,49l13.64,20.71L30.35,198.21H10.43a4.91,4.91,0,0,0,0,9.82H241.57a4.91,4.91,0,0,0,0-9.82ZM126,134l25.42,64.25H100.58Z"/></g></g></g></g></svg>