<svg id="Capa_1" data-name="Capa 1" xmlns="http://www.w3.org/2000/svg" viewBox="0 0 512 512"><defs><style>.cls-1{fill:#32b475;}.cls-2{fill:#e3b462;}</style></defs><title>idea-icon</title><path class="cls-1" d="M384,192c0,64-64,127-64,192H192c0-63-64-128-64-192a128,128,0,0,1,256,0Z"/><path class="cls-1" d="M304,448H208a16,16,0,0,0,0,32h2.94a47.73,47.73,0,0,0,90.13,0H304a16,16,0,0,0,0-32Z"/><path class="cls-1" d="M304,400H208a16,16,0,0,0,0,32h96a16,16,0,0,0,0-32Z"/><path class="cls-2" d="M81.72,109.88l28.72,16.56a159.29,159.29,0,0,1,16.09-27.66L97.72,82.13Z"/><path class="cls-2" d="M272,33.63V0H240V33.63c5.34-.56,10.5-1.62,16-1.62S266.66,33.06,272,33.63Z"/><path class="cls-2" d="M190.44,46.44,173.88,17.72l-27.75,16,16.66,28.81A159.2,159.2,0,0,1,190.44,46.44Z"/><path class="cls-2" d="M430.28,109.88l-16-27.75L385.47,98.78a159.41,159.41,0,0,1,16.13,27.66Z"/><path class="cls-2" d="M365.84,33.72l-27.69-16L321.59,46.44A160.9,160.9,0,0,1,349.22,62.5Z"/><path class="cls-2" d="M96,192c0-5.5,1.06-10.66,1.63-16H64v32H97.69C97.06,202.69,96,197.44,96,192Z"/><path class="cls-2" d="M414.38,176c.56,5.34,1.63,10.5,1.63,16s-1.06,10.69-1.69,16H448V176Z"/><path class="cls-2" d="M388.09,286.72l26.19,15.13,16-27.72-29.06-16.75C397.19,267.31,392.81,277.06,388.09,286.72Z"/><path class="cls-2" d="M81.72,274.13l16,27.72,26-15c-4.69-9.69-9.06-19.5-13-29.44Z"/></svg>