<svg id="Layer_1" data-name="Layer 1" xmlns="http://www.w3.org/2000/svg" viewBox="0 0 160 160"><defs><style>.cls-1{fill:#fff;}.cls-1,.cls-2,.cls-3,.cls-4,.cls-5{stroke:#3273ad;stroke-width:0.75px;}.cls-1,.cls-2,.cls-3,.cls-4{stroke-linecap:round;stroke-linejoin:round;}.cls-2{fill:#f7f7f7;}.cls-3{fill:#fad264;}.cls-4{fill:none;}.cls-5{fill:#c3f1fc;stroke-miterlimit:10;}</style></defs><title>alpha</title><circle class="cls-1" cx="79.9" cy="105" r="4.5"/><circle class="cls-2" cx="56" cy="105" r="15"/><circle class="cls-3" cx="56" cy="105" r="3.6"/><circle class="cls-2" cx="104" cy="105" r="15"/><circle class="cls-3" cx="104" cy="105" r="3.6"/><path class="cls-4" d="M104,104.9,95,77.1h9.4a2.2,2.2,0,0,1,2.2,2.2c.1,2.9-2.2,2.7-2.2,2.7"/><polygon class="cls-4" points="71.1 84.5 97.2 84.5 80.5 104.9 71.1 84.5"/><polyline class="cls-4" points="80.5 104.9 56 105.2 71.1 84.5 69.5 82"/><path class="cls-3" d="M67.3,79.4h5.6a1.8,1.8,0,0,1,1.8,1.8h0A1.8,1.8,0,0,1,72.9,83H67.3a1.8,1.8,0,0,1-1.8-1.8h0A1.8,1.8,0,0,1,67.3,79.4Z"/><path class="cls-5" d="M96.1,75.6h.2a4.1,4.1,0,0,0,1.8.8,2.8,2.8,0,0,0,2.7-1.1,2.9,2.9,0,0,0,.7-2.2,3.7,3.7,0,0,0-1.3-2.2c-.1-.1-12.5-10.8-17.7-14.8A11.1,11.1,0,0,0,78,53.9c-2.5-.4-3.8,1.4-4.5,2.4S67.8,68.5,66.6,72c-2.8,7.3.3,10.6,8.3,12.9a4.1,4.1,0,0,1,1.8,1.8,6.2,6.2,0,0,1-.2,4.4l-2.9,12.5a2.9,2.9,0,0,0,1.4,2.7,6,6,0,0,0,3.7.6l.6-.3a3.6,3.6,0,0,0,1.3-2.2s.7-3,1.9-7.7c2.8-11.3,2.1-12.2-1.9-16.7-1.1-1.3-2.6-2.9-4.3-5.2l5.9-10.3L92.9,73Z"/><circle class="cls-5" cx="86" cy="46.5" r="6.5"/><path class="cls-5" d="M58.9,69.9,63,71.6a1,1,0,0,0,1.3-.5l7.2-15.7a.7.7,0,0,0-.2-1h-.1l-2.7-1.5a2,2,0,0,0-2.7.7L57.9,67.2a1.9,1.9,0,0,0,.7,2.6Z"/></svg>