<?xml version="1.0" encoding="UTF-8"?>
<svg width="35px" height="35px" viewBox="0 0 35 35" version="1.1" xmlns="http://www.w3.org/2000/svg" xmlns:xlink="http://www.w3.org/1999/xlink">
    <!-- Generator: Sketch 44.1 (41455) - http://www.bohemiancoding.com/sketch -->
    <title>Group 31</title>
    <desc>Created with Sketch.</desc>
    <defs></defs>
    <g id="Page-1" stroke="none" stroke-width="1" fill="none" fill-rule="evenodd">
        <g id="sv.co/stats" transform="translate(-843.000000, -1715.000000)" fill-rule="nonzero" fill="#0F89BF">
            <g id="Group-31" transform="translate(843.000000, 1715.000000)">
                <path d="M17.5,10.9752436 C20.5258686,10.9752436 22.9875847,8.51352754 22.9875847,5.48758475 C22.9875847,2.4617161 20.5258686,0 17.5,0 C14.4741314,0 12.0124153,2.4617161 12.0124153,5.48758475 C12.0124153,8.51352754 14.4741314,10.9752436 17.5,10.9752436 Z M17.5,1.11228814 C19.912553,1.11228814 21.8752966,3.07503178 21.8752966,5.48758475 C21.8752966,7.90013771 19.912553,9.86295551 17.5,9.86295551 C15.087447,9.86295551 13.1247034,7.90013771 13.1247034,5.48758475 C13.1247034,3.07503178 15.087447,1.11228814 17.5,1.11228814 Z" id="Shape"></path>
                <path d="M17.5,13.1998199 C21.9352119,13.1998199 25.5768432,16.6620021 25.8638877,21.0258051 L13.0108051,21.0258051 C12.7036653,21.0258051 12.454661,21.2747352 12.454661,21.5819492 C12.454661,21.8891631 12.7036653,22.1380932 13.0108051,22.1380932 L26.4383475,22.1380932 C26.7454873,22.1380932 26.9944915,21.8891631 26.9944915,21.5819492 C26.9944915,16.3467055 22.7353178,12.0875318 17.5,12.0875318 C12.2646822,12.0875318 8.00550847,16.3467055 8.00550847,21.5819492 C8.00550847,21.8891631 8.25451271,22.1380932 8.56165254,22.1380932 L10.7862288,22.1380932 C11.0933686,22.1380932 11.3423729,21.8891631 11.3423729,21.5819492 C11.3423729,21.2747352 11.0933686,21.0258051 10.7862288,21.0258051 L9.13603814,21.0258051 C9.42315678,16.6620021 13.0648623,13.1998199 17.5,13.1998199 L17.5,13.1998199 Z" id="Shape"></path>
                <path d="M10.4857627,28.0083051 L7.43490466,27.4962818 L6.00516949,24.7530085 C5.90936441,24.5691843 5.71931144,24.4538771 5.51198093,24.4538771 C5.30465042,24.4538771 5.11459746,24.5691843 5.01879237,24.7530085 L3.5890572,27.4962818 L0.538199153,28.0083051 C0.333760593,28.0426377 0.165360169,28.1877542 0.101292373,28.3849258 C0.0372245763,28.5820233 0.0881673729,28.7984746 0.233358051,28.9463347 L2.40061441,31.1538559 L1.94479873,34.2136123 C1.91424788,34.4187182 2.00026483,34.6236758 2.16799788,34.7455085 C2.33558263,34.8674153 2.55722458,34.8858051 2.74275424,34.793411 L5.51190678,33.4143962 L8.28105932,34.793411 C8.35951271,34.8324153 8.44441737,34.8516949 8.52887712,34.8516949 C8.64433263,34.8516949 8.75904661,34.8158051 8.85581568,34.7454343 C9.02354873,34.6236017 9.10956568,34.4186441 9.07901483,34.2135381 L8.62319915,31.1537818 L10.7904555,28.9462606 C10.9356462,28.7984004 10.986589,28.5819492 10.9225212,28.3848517 C10.8586017,28.1877542 10.6902013,28.0426377 10.4857627,28.0083051 L10.4857627,28.0083051 Z M7.63556144,30.5722775 C7.5134322,30.6967055 7.45663136,30.8712606 7.48236229,31.0438136 L7.82175847,33.3220021 L5.75994703,32.2952119 C5.60385593,32.2174258 5.42025424,32.2174258 5.26408898,32.2952119 L3.20220339,33.3220021 L3.54159958,31.0438136 C3.56733051,30.8712606 3.51060381,30.6966314 3.38840042,30.5722775 L1.7746928,28.9286123 L4.04628178,28.5473199 C4.21831568,28.5184004 4.36684322,28.4105085 4.44744703,28.2558263 L5.51198093,26.2132203 L6.57651483,28.2558263 C6.65711864,28.4105085 6.80564619,28.5184004 6.97768008,28.5473199 L9.24926907,28.9286123 L7.63556144,30.5722775 L7.63556144,30.5722775 Z" id="Shape"></path>
                <path d="M22.4737818,28.0083051 L19.4229237,27.4962818 L17.9931886,24.7530085 C17.8973835,24.5691843 17.7073305,24.4538771 17.5,24.4538771 C17.2926695,24.4538771 17.1026165,24.5691843 17.0068114,24.7530085 L15.5770763,27.4962818 L12.5262182,28.0083051 C12.3217797,28.0426377 12.1533792,28.1877542 12.0893114,28.3849258 C12.0252436,28.5820233 12.0761864,28.7984746 12.2213771,28.9463347 L14.3886335,31.1538559 L13.9328919,34.2136123 C13.9023411,34.4187182 13.9883581,34.6236758 14.1560911,34.7455085 C14.3236758,34.8674153 14.5453178,34.8858051 14.7308475,34.793411 L17.5,33.4143962 L20.2691525,34.793411 C20.3476059,34.8324153 20.4325106,34.8516949 20.5169703,34.8516949 C20.6324258,34.8516949 20.7471398,34.8158051 20.8439089,34.7454343 C21.0116419,34.6236017 21.0976589,34.4186441 21.0671081,34.2135381 L20.6113665,31.1537818 L22.7786229,28.9462606 C22.9238136,28.7984004 22.9747564,28.5819492 22.9106886,28.3848517 C22.8466208,28.1877542 22.6782203,28.0426377 22.4737818,28.0083051 L22.4737818,28.0083051 Z M19.6235805,30.5722775 C19.5014513,30.6967055 19.4446504,30.8712606 19.4703814,31.0438136 L19.8097034,33.3220021 L17.7478919,32.2952119 C17.6698093,32.2563559 17.5849047,32.236928 17.5,32.236928 C17.4150953,32.236928 17.3301165,32.2563559 17.2521081,32.2952119 L15.1902966,33.3220021 L15.5296186,31.0438136 C15.5553496,30.8712606 15.4986229,30.6966314 15.3764195,30.5722775 L13.7627119,28.9286123 L16.0343008,28.5473199 C16.2063347,28.5184004 16.3548623,28.4105085 16.4354661,28.2558263 L17.5,26.2132945 L18.5645339,28.2559004 C18.6451377,28.4105826 18.7936653,28.5184746 18.9656992,28.5473941 L21.2372881,28.9286864 L19.6235805,30.5722775 L19.6235805,30.5722775 Z" id="Shape"></path>
                <path d="M34.8986335,28.3849258 C34.8345657,28.1877542 34.6662394,28.0426377 34.4617267,28.0083051 L31.4108686,27.4962818 L29.9811335,24.7530085 C29.8853284,24.5691843 29.6952754,24.4538771 29.4879449,24.4538771 C29.2806144,24.4538771 29.0905614,24.5691843 28.9947564,24.7530085 L27.5650212,27.4962818 L24.5141631,28.0083051 C24.3097246,28.0426377 24.1413242,28.1877542 24.0772564,28.3849258 C24.0131886,28.5820233 24.0641314,28.7984746 24.209322,28.9463347 L26.3765784,31.1538559 L25.9207627,34.2136123 C25.8902119,34.4187182 25.9762288,34.6236758 26.1439619,34.7455085 C26.3115466,34.8674153 26.5331886,34.8858051 26.7187182,34.793411 L29.4878708,33.4143962 L32.2570233,34.793411 C32.3354767,34.8324153 32.4203814,34.8516949 32.5048411,34.8516949 C32.6202966,34.8516949 32.7350106,34.8158051 32.8317797,34.7454343 C32.9995127,34.6236017 33.0855297,34.4186441 33.0549788,34.2135381 L32.5991631,31.1537818 L34.7664195,28.9462606 C34.9117585,28.7984746 34.9627013,28.5820233 34.8986335,28.3849258 L34.8986335,28.3849258 Z M31.6115996,30.5722775 C31.4894703,30.6967055 31.4326695,30.8712606 31.4584004,31.0438136 L31.7977966,33.3220021 L29.735911,32.2952119 C29.6578284,32.2563559 29.5729237,32.236928 29.4880191,32.236928 C29.4030403,32.236928 29.3181356,32.2563559 29.2401271,32.2952119 L27.1783157,33.3220021 L27.5177119,31.0438136 C27.5434428,30.8712606 27.4867161,30.6966314 27.3645127,30.5722775 L25.7508051,28.9286123 L28.0223941,28.5473199 C28.194428,28.5184004 28.3429555,28.4105085 28.4235593,28.2558263 L29.4880932,26.2132203 L30.5526271,28.2558263 C30.6332309,28.4105085 30.7817585,28.5184004 30.9537924,28.5473199 L33.2253814,28.9286123 L31.6115996,30.5722775 L31.6115996,30.5722775 Z" id="Shape"></path>
                <path d="M17.5,8.00914195 C18.2289936,8.00914195 18.9225424,7.69236229 19.4027542,7.14 C19.6042267,6.90819915 19.5797564,6.55693856 19.3479555,6.35539195 C19.1160805,6.15384534 18.7648199,6.17838983 18.5633475,6.41019068 C18.2945445,6.71948093 17.906875,6.89685381 17.5,6.89685381 C17.093125,6.89685381 16.7055297,6.71948093 16.4366525,6.41019068 C16.2351059,6.17838983 15.8838453,6.15391949 15.6520445,6.35539195 C15.4202436,6.55693856 15.3956992,6.90819915 15.5972458,7.14 C16.0774576,7.69228814 16.7710064,8.00914195 17.5,8.00914195 L17.5,8.00914195 Z" id="Shape"></path>
            </g>
        </g>
    </g>
</svg>