<?xml version="1.0" encoding="UTF-8"?>
<svg width="44px" height="28px" viewBox="0 0 44 28" version="1.1" xmlns="http://www.w3.org/2000/svg" xmlns:xlink="http://www.w3.org/1999/xlink">
    <!-- Generator: Sketch 44.1 (41455) - http://www.bohemiancoding.com/sketch -->
    <title>Page 1</title>
    <desc>Created with Sketch.</desc>
    <defs>
        <polygon id="path-1" points="0 0.0510956522 0 16.6261391 29.5926502 16.6261391 29.5926502 0.0510956522"></polygon>
    </defs>
    <g id="Page-1" stroke="none" stroke-width="1" fill="none" fill-rule="evenodd">
        <g id="sv.co/stats" transform="translate(-840.000000, -2007.000000)">
            <g id="Page-1" transform="translate(840.000000, 2007.000000)">
                <g id="Group-3" transform="translate(0.000000, 0.035913)">
                    <mask id="mask-2" fill="white">
                        <use xlink:href="#path-1"></use>
                    </mask>
                    <g id="Clip-2"></g>
                    <path d="M1.40468794,13.7458783 L5.69169563,1.43213913 L10.0705343,2.90648696 L10.1197169,2.93066087 L5.82917727,15.2374435 L1.40468794,13.7458783 Z M11.752808,3.51666087 C12.2016322,3.67405217 12.67518,3.7537913 13.1602951,3.7537913 C13.80894,3.7537913 14.4572317,3.60735652 15.0349724,3.33048696 L15.5830447,3.06926957 C15.9899268,2.87135652 16.448817,2.76674783 16.9102679,2.76674783 C17.2442149,2.76674783 17.5710097,2.82013913 17.8815575,2.92561739 L28.308617,6.46648696 C28.2258808,6.88587826 28.0140513,7.56761739 27.4848751,7.9284 C27.2327812,8.09953043 26.9179068,8.1864 26.5487284,8.1864 C26.203744,8.1864 25.8086057,8.11066087 25.3737328,7.96118261 L20.7887158,6.42135652 C20.722933,6.40109565 20.6557374,6.39083478 20.5889833,6.39083478 C20.4857617,6.39083478 20.3874849,6.41483478 20.2969783,6.4624 C20.1526094,6.53822609 20.0432951,6.67361739 19.9899625,6.84196522 C19.9896093,6.84318261 19.9873135,6.85074783 19.9869603,6.85187826 C19.9122593,7.10587826 19.2004806,9.36353043 17.2239061,10.4017043 C16.5420608,10.7639652 15.765912,10.9476174 14.9168283,10.9476174 C14.133439,10.9476174 13.2726998,10.7912696 12.3593343,10.4832696 C12.2944345,10.4605739 12.2267974,10.4490957 12.1583656,10.4490957 C11.8977951,10.4490957 11.663626,10.6133565 11.5755918,10.8578783 C11.5207581,11.0099652 11.5308242,11.1744 11.6037592,11.3209217 C11.6760762,11.4659652 11.8011959,11.5756174 11.9568672,11.6300522 C12.9943811,11.9794435 13.9873924,12.156487 14.908175,12.156487 C15.9654679,12.156487 16.9421438,11.9218783 17.81083,11.4591826 C19.7217983,10.4478783 20.6360467,8.59353043 20.9646075,7.76170435 L24.9543123,9.10822609 C25.5239295,9.30170435 26.0574324,9.3997913 26.5399868,9.3997913 L26.5401634,9.3997913 C27.1576387,9.3997913 27.7081834,9.23970435 28.1766982,8.92370435 C28.7147044,8.55857391 29.1122267,8.00109565 29.3580513,7.26683478 C29.4446727,7.0077913 29.5553997,6.59353043 29.5902779,6.09083478 L29.5922204,6.06422609 C29.6024631,5.80422609 29.4286023,5.55596522 29.1795989,5.47431304 L18.2744884,1.76987826 C17.8342292,1.62170435 17.3716305,1.54657391 16.8992305,1.54657391 C16.2522633,1.54657391 15.6055609,1.69126957 15.0286149,1.96518261 L14.4809841,2.22622609 C14.0734839,2.42205217 13.6168895,2.52553043 13.16056,2.52553043 C12.814251,2.52553043 12.4765954,2.46753043 12.1565996,2.35292174 L11.2287531,2.02535652 C11.1846919,1.99935652 11.138953,1.97283478 11.0867682,1.9524 L5.50582611,0.0827478261 C5.44180929,0.0617043478 5.374702,0.0510956522 5.30635853,0.0510956522 C5.20993596,0.0510956522 5.11519106,0.0726608696 5.03218995,0.113530435 C4.88349433,0.186747826 4.7737386,0.309530435 4.72323154,0.458747826 L0.0349046186,13.9274435 C-0.019929098,14.0795304 -0.00995130412,14.2439652 0.063160318,14.390487 C0.135388949,14.5356174 0.260508718,14.6451826 0.416179962,14.6996174 L5.99941786,16.5842261 C6.06890922,16.6136174 6.13213134,16.6261391 6.21071751,16.6261391 C6.3052858,16.6261391 6.39826471,16.6048348 6.47985305,16.5647478 C6.62846036,16.4915304 6.7383044,16.3686609 6.78872316,16.2195304 L11.2717548,3.3464 L11.752808,3.51666087 Z" id="Fill-1" fill="#008AC1" mask="url(#mask-2)"></path>
                </g>
                <path d="M36.0239946,1.5956087 L41.8272738,13.2916087 L37.6328035,15.310913 L31.8207828,3.615 L36.0239946,1.5956087 Z M43.2343193,13.267087 L36.8588623,0.510043478 C36.7845144,0.363695652 36.6597479,0.255521739 36.5076086,0.205608696 C36.4435918,0.184565217 36.3764845,0.173956522 36.3080527,0.173956522 C36.2117184,0.173956522 36.1169735,0.195521739 36.0346788,0.236043478 L30.7271989,2.79291304 C30.4218607,2.94326087 30.2954165,3.29908696 30.4401387,3.60456522 L36.5920225,15.980913 L34.5655591,17.8066522 C32.8221824,19.3855217 30.8477271,20.7119565 28.6970269,21.749087 L18.5330986,26.645 C18.3847562,26.7181304 18.2267892,26.7551739 18.0634359,26.7551739 C17.9417598,26.7551739 17.8199071,26.7343043 17.7014098,26.693 C17.4258284,26.5972609 17.201902,26.4025652 17.0710428,26.1448261 C16.9416847,25.8900435 16.9243781,25.599087 17.0223017,25.3256957 C17.1196073,25.0542174 17.3173089,24.8337826 17.5784092,24.7053478 L23.2565686,21.9658696 C23.5619067,21.8154348 23.6884393,21.4596087 23.5433639,21.1535217 C23.4361689,20.9424783 23.2216905,20.8113478 22.9833713,20.8113478 C22.8910988,20.8113478 22.8023582,20.8313478 22.7191805,20.8708261 L17.1651696,23.549087 L14.3663543,24.8968261 C14.215981,24.9685652 14.0549235,25.005 13.8875085,25.005 C13.4688826,25.005 13.0827508,24.7702174 12.9037686,24.4066522 C12.6426683,23.8762174 12.8663298,23.2297826 13.4017753,22.9662174 L21.5613149,19.0354348 C21.8667414,18.885 21.9931856,18.529087 21.848022,18.223087 C21.7408269,18.0120435 21.5263485,17.880913 21.2880293,17.880913 C21.1956685,17.880913 21.106928,17.900913 21.0238385,17.9403913 L14.9843594,20.8534348 L12.8651819,21.8707391 L11.8674909,22.349 C11.7171176,22.4207391 11.5559718,22.4571739 11.3886451,22.4571739 C10.9700192,22.4571739 10.5838874,22.2223043 10.4049052,21.8587391 C10.2781078,21.6011739 10.2600065,21.3088261 10.3539567,21.0355217 C10.4480835,20.7616087 10.6429595,20.5425652 10.9030002,20.4183043 L11.9095212,19.9313478 L19.2125599,16.4092609 C19.5178981,16.258913 19.6443423,15.903 19.499267,15.597 C19.3921602,15.3859565 19.1775052,15.2548261 18.9392743,15.2548261 C18.8469135,15.2548261 18.7581729,15.2748261 18.6749952,15.3143043 L13.9863151,17.5751739 L11.3720448,18.8363913 C11.2237907,18.9093478 11.0657354,18.9464783 10.9024704,18.9464783 C10.7807943,18.9464783 10.6589416,18.9256087 10.540356,18.8843043 C10.2646863,18.7885652 10.0408482,18.5937826 9.90998899,18.3361304 C9.78063087,18.0813478 9.76332425,17.7904783 9.86124791,17.517087 C9.95855347,17.2456087 10.1562551,17.025087 10.4172671,16.8966522 L14.2943022,15.0267391 C14.5997287,14.8763913 14.7260846,14.5204783 14.5810093,14.2143913 C14.4738142,14.0033478 14.2592475,13.8722174 14.0209283,13.8722174 C13.9286558,13.8722174 13.8399153,13.8922174 13.7567376,13.9316957 L9.8803205,15.8013478 C9.31917998,16.073087 8.89887645,16.5416957 8.6967599,17.1206522 C8.49367206,17.7024783 8.53278854,18.3252609 8.80660393,18.8734348 C8.99644691,19.2637826 9.30010738,19.5894348 9.68879984,19.821 C9.04130283,20.514913 8.88713267,21.5282174 9.31017347,22.3784783 C9.70319259,23.1701304 10.5050364,23.6620435 11.4027729,23.6620435 C11.4658184,23.6620435 11.528864,23.6584783 11.5917329,23.6536087 C11.5414024,24.0920435 11.6157502,24.5296957 11.8090369,24.9263043 C12.202056,25.7179565 13.0038998,26.2097826 13.901548,26.2097826 C14.2611901,26.2097826 14.6042319,26.1306522 14.9208724,25.9746522 L15.7450558,25.5725652 C15.7303982,25.9516957 15.8126929,26.3239565 15.9856707,26.656913 C16.2616053,27.2095217 16.7374489,27.6233478 17.3261388,27.8226522 C17.5811465,27.9064783 17.8371254,27.948913 18.0869235,27.948913 C18.4321728,27.948913 18.7844861,27.8677826 19.1058946,27.7139565 L29.2690282,22.8183913 C31.5000806,21.7458696 33.5718414,20.3513478 35.4268281,18.6737826 L37.7219856,16.5953478 L42.9472591,14.078913 C43.2525972,13.9284783 43.3791298,13.5726522 43.2343193,13.267087 L43.2343193,13.267087 Z" id="Fill-4" fill="#008AC1"></path>
            </g>
        </g>
    </g>
</svg>