<svg id="Layer_1" data-name="Layer 1" xmlns="http://www.w3.org/2000/svg" viewBox="0 0 160 160"><defs><style>.cls-1,.cls-4{fill:#f7f7f7;}.cls-1,.cls-2,.cls-3,.cls-4,.cls-5,.cls-6{stroke:#3273ad;}.cls-1,.cls-2,.cls-3,.cls-5,.cls-6{stroke-linecap:round;stroke-linejoin:round;}.cls-1,.cls-2,.cls-3,.cls-4,.cls-6{stroke-width:0.75px;}.cls-2{fill:#caedff;}.cls-3{fill:#fad264;}.cls-4{stroke-miterlimit:10;}.cls-5,.cls-6{fill:none;}.cls-5{stroke-width:0.59px;}</style></defs><title>Artboard 1</title><rect class="cls-1" x="49.4" y="40" width="36.4" height="66.14" rx="5.3" ry="5.3"/><path class="cls-2" d="M100,66.6a4.2,4.2,0,0,0-3-1.2H79.9a14.8,14.8,0,0,1-12.4,6.8,14.6,14.6,0,0,1-12.2-6.6,12.3,12.3,0,0,0-10,12.1V90.2a4,4,0,0,0,3.4,4,3.8,3.8,0,0,0,3-1.1,3.6,3.6,0,0,0,1.1-2.7V77.9a1,1,0,0,1,2,0v37.3a4.9,4.9,0,0,0,4.8,4.8h.1a4.9,4.9,0,0,0,4.8-4.8V101.5a3.1,3.1,0,0,1,2.3-3,2.9,2.9,0,0,1,2.8.8,3.2,3.2,0,0,1,.9,2.1v13.7a4.8,4.8,0,0,0,4.8,4.8h.1a4.8,4.8,0,0,0,4.8-4.8h0V112h0V74a1,1,0,0,1,1-1h16a3.7,3.7,0,0,0,2.7-1.1,3.6,3.6,0,0,0,1.1-2.6A3.4,3.4,0,0,0,100,66.6Z"/><path class="cls-1" d="M75.6,83.4v-7a1,1,0,0,0-1-1h-14a1,1,0,0,0-1,1v7a1,1,0,0,0,1,1h14A1,1,0,0,0,75.6,83.4Z"/><polygon class="cls-3" points="73.6 82.4 61.6 82.4 61.6 77.4 73.7 77.4 73.7 82.4 73.6 82.4"/><path class="cls-1" d="M67.6,87.3h-7a1,1,0,1,0,0,2h7a1,1,0,0,0,0-2Z"/><path class="cls-1" d="M74.6,87.3H73a1,1,0,0,0,0,2h1.7a1,1,0,0,0,0-2Z"/><path class="cls-2" d="M82.4,57.4a14.9,14.9,0,1,1-14.9-15A14.9,14.9,0,0,1,82.4,57.4Z"/><path class="cls-4" d="M78.7,59.2c-1,5.6-6.1,10.1-11.2,10.1S57.3,64.7,56.3,59.2,60.3,49,67.5,49,79.7,53.6,78.7,59.2Z"/><path class="cls-5" d="M78.7,59.2c-1,5.6-6.1,10.1-11.2,10.1S57.3,64.7,56.3,59.2,60.3,49,67.5,49,79.7,53.6,78.7,59.2Z"/><path class="cls-3" d="M114.6,46.6h-18a.9.9,0,0,0-.7-.4h-.7a.9.9,0,0,0-.9.9h0v71.3a.9.9,0,0,0,.9.9H96a.9.9,0,0,0,.9-.9h0V60.1h17.8Z"/><path class="cls-6" d="M64.9,52.9a6.2,6.2,0,0,0-6.2,6.2h0"/></svg>