<svg id="Layer_1" data-name="Layer 1" xmlns="http://www.w3.org/2000/svg" viewBox="0 0 35 35"><defs><style>.cls-1{fill:#0f89bf;}</style></defs><title>total-hours-of-learning-stats-icon</title><path class="cls-1" d="M16,12.3l-1.7-1.7a9.8,9.8,0,0,1-3-6.2.5.5,0,0,0-.5-.4h-.1l-.4.2a.5.5,0,0,0-.1.4,10.9,10.9,0,0,0,3.3,6.9l1.7,1.7h.4l.4-.3A.5.5,0,0,0,16,12.3Z"/><path class="cls-1" d="M17.3,14.3a.5.5,0,0,0,.2-.3.5.5,0,0,0-.1-.4l-.4-.4h-.7a.5.5,0,0,0-.2.3.5.5,0,0,0,.1.4l.4.4h.7Z"/><path class="cls-1" d="M11.2,27.4h.1a.5.5,0,0,0-.3.3v.3a.5.5,0,0,0,.1.4l.3.2h.2a.5.5,0,0,0,.5-.3v-.3a.5.5,0,0,0-.1-.4h0l.3-.2a10.3,10.3,0,0,1,2.2-3L16,22.7a.5.5,0,0,0,0-.7l-.4-.2h-.3l-1.7,1.7A11.3,11.3,0,0,0,11.2,27,.5.5,0,0,0,11.2,27.4Z"/><path class="cls-1" d="M30.5,33.9H26.9V30.4a11,11,0,0,0-3.2-7.9l-4.3-4.3a.8.8,0,0,1,0-1.2l4.3-4.3a10.9,10.9,0,0,0,3.2-7.9V1.1h3.6a.5.5,0,0,0,0-1.1H4.5a.5.5,0,0,0,0,1.1H8.1V4.6a10.9,10.9,0,0,0,3.4,8l4.4,4.3a.8.8,0,0,1,.2.6.8.8,0,0,1-.2.6l-4.4,4.3a10.9,10.9,0,0,0-3.4,8v3.5H4.5a.5.5,0,1,0,0,1.1H30.5a.5.5,0,0,0,0-1.1ZM17.1,17.5a1.9,1.9,0,0,0-.6-1.4l-4.4-4.3a9.9,9.9,0,0,1-3-7.3V1.1H25.9V4.7a9.9,9.9,0,0,1-2.9,7.2l-4.3,4.3a1.9,1.9,0,0,0,0,2.7l4.3,4.3a9.9,9.9,0,0,1,2.9,7.2v3.6H9.1V30.5a9.9,9.9,0,0,1,3-7.3l4.4-4.3A1.9,1.9,0,0,0,17.1,17.5Z"/></svg>