<?xml version="1.0" encoding="utf-8"?>
<!-- Generator: Adobe Illustrator 21.0.2, SVG Export Plug-In . SVG Version: 6.00 Build 0)  -->
<svg version="1.1" id="Layer_1" xmlns="http://www.w3.org/2000/svg" xmlns:xlink="http://www.w3.org/1999/xlink" x="0px" y="0px"
	 viewBox="0 0 160 160" style="enable-background:new 0 0 160 160;" xml:space="preserve">
<style type="text/css">
	.st0{fill:#C3F1FC;stroke:#3273AD;stroke-width:0.75;stroke-miterlimit:10;}
	.st1{fill:#FAD264;stroke:#3273AD;stroke-width:0.75;stroke-linecap:round;stroke-linejoin:round;}
</style>
<title>leadership</title>
<path class="st0" d="M93.3,98.1l-2.7,8.5l-5.8,7.2c-1.2,1.3-1.5,3.3-0.2,4.5c1.1,1.1,2.9,1,4-0.1c0.1-0.1,0.2-0.2,0.2-0.3l7.1-7.8
	c0.4-0.4,0.6-0.9,0.7-1.5l1.4-6.5L93.3,98.1z"/>
<path class="st0" d="M103,64.2c-3.1,0-5.6,2.5-5.6,5.6s2.5,5.6,5.6,5.6s5.6-2.5,5.6-5.6l0,0C108.6,66.7,106.1,64.2,103,64.2z"/>
<path class="st0" d="M115.1,90h-0.6l4.6-23.7l-2.2-0.4l-4.5,23.5c-1.7-0.4-3.4-1.2-4.7-2.3c-0.9-0.8-1.5-1.9-1.9-3
	c-0.5-1.4-0.8-3-1.2-4.4l0,0c-0.5-1.4-1.8-2.4-3.3-2.5h-1.5c-1.9,0-3.8,0.4-5.5,1.3l0,0c-3.4,1.9-5.6,3.5-7,5.9s-1.8,5.9-1.8,10.2
	c0,1.2,1,2.2,2.2,2.2c1.2,0,2.2-1,2.2-2.2c0-4.2,0.2-6.3,1.2-7.9s2.1-2.4,4.6-3.8l-2,9.7l-0.2,0.8c-0.3,1.2-0.8,3.9-0.1,5l4.5,4.2
	l0.9,1.4l0.2,0.3l2.1,3.3l6.6,10.3c0.9,1.5,2.9,1.9,4.3,0.9c1.5-0.9,1.9-2.9,1-4.3l0,0L101.2,96l1.1-4.5l0.8-3.3
	c1.8,3.2,5.3,4.6,8.5,5.4v0.5c-0.1,0.6,0.3,1.2,0.9,1.3c0.6,0.1,1.2-0.3,1.3-0.9v-0.4h0.4c1.2,0.3,2.4-0.5,2.7-1.7s-0.5-2.4-1.7-2.7
	L115.1,90z"/>
<path class="st0" d="M122.8,39.1c-0.6,0-1.1,0.4-1.2,1l-1,5.3l2.5,0.5l1-5.3c0.2-0.6-0.2-1.3-0.8-1.5c0,0-0.1,0-0.2,0H122.8z"/>
<rect x="111.2" y="41.9" transform="matrix(0.1908 -0.9816 0.9816 0.1908 42.2565 162.7653)" class="st0" width="17.4" height="27.6"/>
<polygon class="st1" points="123,51 130.9,57.9 121,61.4 121.5,58.4 108.3,55.8 109.1,51.5 122.4,54 "/>
<path d="M101.2,77L101.2,77z"/>
<path class="st0" d="M61.2,100.7l-2.4,7.5l-5.1,6.3c-1,1.2-1.3,2.9-0.1,3.9c1,0.9,2.5,0.9,3.4-0.1c0.1-0.1,0.1-0.2,0.2-0.2l6.2-6.9
	c0.3-0.4,0.5-0.8,0.6-1.3l1.2-5.7L61.2,100.7z"/>
<path class="st0" d="M69.8,70.9c-2.7,0-4.9,2.2-4.9,4.9s2.2,4.9,4.9,4.9c2.7,0,4.9-2.2,4.9-4.9S72.5,70.9,69.8,70.9L69.8,70.9z"/>
<path class="st0" d="M66.9,82.2c-1.7,0-3.3,0.4-4.8,1.2l0,0c-3,1.6-4.9,3.1-6.1,5.2s-1.6,5.2-1.6,8.9c0,1.1,0.9,2,2,2s2-0.9,2-2
	c0-3.6,0.2-5.6,1-6.9s1.8-2.1,4-3.4l-1.8,8.5v0.7c-0.2,1.1-0.7,3.4-0.1,4.4l4,3.7l0.8,1.2l0.2,0.3l1.9,2.9l5.8,9
	c0.6,1.4,2.2,2.1,3.6,1.6s2.1-2.2,1.6-3.6c-0.1-0.3-0.3-0.7-0.6-0.9l-10.3-16l0.9-3.9l0.7-2.9c2,3.6,6.6,4.6,9.7,5.3
	c1,0.2,2.1-0.4,2.4-1.4c0.2-1-0.4-2.1-1.5-2.4c-3.6-0.8-5.4-1.5-6.5-2.6c-0.7-0.8-1.3-1.7-1.6-2.7c-0.5-1.3-0.7-2.7-1.1-3.9l0,0
	c-0.4-1.3-1.6-2.1-2.9-2.2L66.9,82.2z"/>
<path class="st0" d="M32.6,103l-2.1,6.5l-4.4,5.5c-1,0.9-1,2.4-0.1,3.4c0,0,0,0,0,0c0.8,0.8,2.2,0.8,3,0c0.1-0.1,0.2-0.2,0.2-0.3
	l5.4-6c0.3-0.3,0.4-0.7,0.5-1.1l1.1-5L32.6,103z"/>
<path class="st0" d="M40.1,76.9c-2.4,0-4.3,1.9-4.3,4.3s1.9,4.3,4.3,4.3s4.3-1.9,4.3-4.3S42.5,76.9,40.1,76.9L40.1,76.9z"/>
<path class="st0" d="M37.6,86.8c-1.5,0-2.9,0.3-4.2,1l0,0c-2.6,1.4-4.3,2.7-5.4,4.5s-1.4,4.5-1.4,7.8c0,0.9,0.8,1.7,1.7,1.7
	c0.9,0,1.7-0.8,1.7-1.7c0,0,0,0,0,0c0-3.2,0.2-4.9,0.9-6.1c0.9-1.2,2.1-2.2,3.5-2.9l-1.6,7.4v0.6c-0.2,0.9-0.6,3-0.1,3.8l3.5,3.2
	l0.7,1.1v0.2l1.6,2.5l5.1,7.9c0.7,1.1,2.2,1.5,3.3,0.8s1.5-2.2,0.8-3.3l0,0l-9-14l0.8-3.4l0.6-2.5c1.7,3.1,5.7,4,8.5,4.6
	c0.9,0.3,1.8-0.2,2.1-1.1c0.3-0.9-0.2-1.8-1.1-2.1c-0.1,0-0.1,0-0.2,0c-3.1-0.7-4.7-1.3-5.7-2.3c-0.6-0.7-1.1-1.4-1.4-2.3
	c-0.4-1.1-0.6-2.3-0.9-3.4l0,0c-0.4-1.1-1.4-1.9-2.6-1.9L37.6,86.8z"/>
</svg>
