<?xml version="1.0" encoding="UTF-8"?>
<svg width="35px" height="35px" viewBox="0 0 35 35" version="1.1" xmlns="http://www.w3.org/2000/svg" xmlns:xlink="http://www.w3.org/1999/xlink">
    <!-- Generator: Sketch 44.1 (41455) - http://www.bohemiancoding.com/sketch -->
    <title>Group 29</title>
    <desc>Created with Sketch.</desc>
    <defs></defs>
    <g id="Page-1" stroke="none" stroke-width="1" fill="none" fill-rule="evenodd">
        <g id="sv.co/stats" transform="translate(-1131.000000, -1145.000000)" fill-rule="nonzero" fill="#0F89BF">
            <g id="Group-29" transform="translate(1131.000000, 1145.000000)">
                <path d="M14.0120909,16.4671818 C14.1075455,16.5193636 14.2131818,16.5454545 14.3181818,16.5454545 C14.4371818,16.5454545 14.5555455,16.5117273 14.6599091,16.4461818 L21.6599091,11.9916364 C21.8431818,11.8745455 21.9545455,11.6721818 21.9545455,11.4545455 C21.9545455,11.2369091 21.8431818,11.0345455 21.6599091,10.9174545 L14.6599091,6.46290909 C14.4626364,6.33881818 14.2163636,6.33054545 14.0114545,6.44190909 C13.8084545,6.55390909 13.6818182,6.76772727 13.6818182,7 L13.6818182,15.9090909 C13.6818182,16.1413636 13.8084545,16.3551818 14.0120909,16.4671818 Z M14.9545455,8.15881818 L20.1332727,11.4545455 L14.9545455,14.7502727 L14.9545455,8.15881818 Z" id="Shape"></path>
                <path d="M0.318181818,0 L0.318181818,35 L34.6818182,35 L34.6818182,0 L0.318181818,0 Z M33.4090909,1.27272727 L33.4090909,22.2727273 L1.59090909,22.2727273 L1.59090909,1.27272727 L33.4090909,1.27272727 Z M1.59090909,33.7272727 L1.59090909,23.5454545 L33.4090909,23.5454545 L33.4090909,33.7272727 L1.59090909,33.7272727 Z" id="Shape"></path>
                <path d="M30.2272727,28 L14.9545455,28 L14.9545455,26.7272727 C14.9545455,26.3753636 14.6700909,26.0909091 14.3181818,26.0909091 C13.9662727,26.0909091 13.6818182,26.3753636 13.6818182,26.7272727 L13.6818182,28 L11.1363636,28 C10.7844545,28 10.5,28.2844545 10.5,28.6363636 C10.5,28.9882727 10.7844545,29.2727273 11.1363636,29.2727273 L13.6818182,29.2727273 L13.6818182,30.5454545 C13.6818182,30.8973636 13.9662727,31.1818182 14.3181818,31.1818182 C14.6700909,31.1818182 14.9545455,30.8973636 14.9545455,30.5454545 L14.9545455,29.2727273 L30.2272727,29.2727273 C30.5791818,29.2727273 30.8636364,28.9882727 30.8636364,28.6363636 C30.8636364,28.2844545 30.5791818,28 30.2272727,28 Z" id="Shape"></path>
                <path d="M4.77272727,26.0909091 C4.42081818,26.0909091 4.13636364,26.3753636 4.13636364,26.7272727 L4.13636364,30.5454545 C4.13636364,30.8973636 4.42081818,31.1818182 4.77272727,31.1818182 C5.12463636,31.1818182 5.40909091,30.8973636 5.40909091,30.5454545 L5.40909091,26.7272727 C5.40909091,26.3753636 5.12463636,26.0909091 4.77272727,26.0909091 Z" id="Shape"></path>
                <path d="M7.31818182,26.0909091 C6.96627273,26.0909091 6.68181818,26.3753636 6.68181818,26.7272727 L6.68181818,30.5454545 C6.68181818,30.8973636 6.96627273,31.1818182 7.31818182,31.1818182 C7.67009091,31.1818182 7.95454545,30.8973636 7.95454545,30.5454545 L7.95454545,26.7272727 C7.95454545,26.3753636 7.67009091,26.0909091 7.31818182,26.0909091 Z" id="Shape"></path>
            </g>
        </g>
    </g>
</svg>