<?xml version="1.0" encoding="UTF-8"?>
<svg width="35px" height="35px" viewBox="0 0 35 35" version="1.1" xmlns="http://www.w3.org/2000/svg" xmlns:xlink="http://www.w3.org/1999/xlink">
    <!-- Generator: Sketch 44.1 (41455) - http://www.bohemiancoding.com/sketch -->
    <title>Group 22</title>
    <desc>Created with Sketch.</desc>
    <defs></defs>
    <g id="Page-1" stroke="none" stroke-width="1" fill="none" fill-rule="evenodd">
        <g id="sv.co/stats" transform="translate(-849.000000, -1146.000000)" fill-rule="nonzero" fill="#008AC1">
            <g id="Group-22" transform="translate(849.000000, 1146.000000)">
                <path d="M1.19930851,16.3415 L4.98541489,16.3415 L6.34460638,19.0600319 C6.43918085,19.2491809 6.63257447,19.3687766 6.8441383,19.3687766 C7.05570213,19.3687766 7.24909574,19.2492553 7.34367021,19.0600319 L8.70293617,16.3415 L8.98025532,16.3415 C9.28870213,16.3415 9.53876596,16.0915106 9.53876596,15.7829894 C9.53876596,15.4744681 9.28870213,15.2244787 8.98025532,15.2244787 L8.3577766,15.2244787 C8.14621277,15.2244787 7.95281915,15.3439255 7.85824468,15.5332234 L6.8441383,17.5613617 L5.83010638,15.5332234 C5.73553191,15.3440745 5.5421383,15.2244787 5.33057447,15.2244787 L1.19930851,15.2244787 C1.15395745,15.2244787 1.11702128,15.187617 1.11702128,15.142266 L1.11702128,1.19930851 C1.11702128,1.15395745 1.15395745,1.11702128 1.19930851,1.11702128 L12.4889681,1.11702128 C12.5343936,1.11702128 12.5713298,1.15395745 12.5713298,1.19930851 L12.5713298,7.25401064 C12.5713298,7.56253191 12.8213936,7.81252128 13.1298404,7.81252128 C13.4382872,7.81252128 13.6883511,7.56253191 13.6883511,7.25401064 L13.6883511,1.19930851 C13.6883511,0.538031915 13.1503191,0 12.4889681,0 L1.19930851,0 C0.538031915,0 0,0.538031915 0,1.19930851 L0,15.1421915 C0,15.8035426 0.538031915,16.3415 1.19930851,16.3415 Z" id="Shape"></path>
                <path d="M6.84421277,2.23404255 C5.30361702,2.23404255 4.05031915,3.48734043 4.05031915,5.02793617 C4.05031915,6.56853191 5.30369149,7.82190426 6.84421277,7.82190426 C8.38473404,7.82190426 9.63810638,6.56853191 9.63810638,5.02793617 C9.63810638,3.48734043 8.38473404,2.23404255 6.84421277,2.23404255 L6.84421277,2.23404255 Z M6.84421277,6.70480851 C5.91954255,6.70480851 5.16734043,5.95253191 5.16734043,5.0278617 C5.16734043,4.10334043 5.91954255,3.35106383 6.84421277,3.35106383 C7.76888298,3.35106383 8.52108511,4.10334043 8.52108511,5.02793617 C8.52108511,5.95260638 7.76880851,6.70480851 6.84421277,6.70480851 Z" id="Shape"></path>
                <path d="M6.84421277,10.0558723 C7.50094681,10.0558723 8.1407766,10.2389894 8.69437234,10.5853404 C8.95597872,10.7490213 9.30046809,10.6697128 9.46407447,10.4081809 C9.62768085,10.1466489 9.54837234,9.80201064 9.28691489,9.63847872 C8.55541489,9.18079787 7.7107234,8.9387766 6.84421277,8.9387766 C4.30209574,8.93885106 2.23404255,11.0069787 2.23404255,13.5489468 C2.23404255,13.8574681 2.48410638,14.1074574 2.79255319,14.1074574 L8.98025532,14.1074574 C9.28870213,14.1074574 9.53876596,13.8574681 9.53876596,13.5489468 C9.53876596,13.2404255 9.28870213,12.9904362 8.98025532,12.9904362 L3.39567021,12.9904362 C3.66382979,11.3289787 5.1081383,10.0558723 6.84421277,10.0558723 Z" id="Shape"></path>
                <path d="M33.800766,0 L22.5110319,0 C21.8496809,0 21.3116489,0.538031915 21.3116489,1.19930851 L21.3116489,7.25401064 C21.3116489,7.56253191 21.5616383,7.81252128 21.8701596,7.81252128 C22.1786809,7.81252128 22.4286702,7.56253191 22.4286702,7.25401064 L22.4286702,1.19930851 C22.4286702,1.15395745 22.4656064,1.11702128 22.5110319,1.11702128 L33.8006915,1.11702128 C33.8460426,1.11702128 33.8829043,1.15395745 33.8829043,1.19930851 L33.8829043,15.1421915 C33.8829043,15.1875426 33.8460426,15.2244043 33.8006915,15.2244043 L29.6693511,15.2244043 C29.4577872,15.2244043 29.2643936,15.3439255 29.1698191,15.5331489 L28.1557872,17.5612872 L27.1416809,15.5331489 C27.0470319,15.3439255 26.8537128,15.2244043 26.6421489,15.2244043 L26.0197447,15.2244043 C25.7112234,15.2244043 25.461234,15.4743936 25.461234,15.7829149 C25.461234,16.0914362 25.7112234,16.3414255 26.0197447,16.3414255 L26.2970638,16.3414255 L27.6563298,19.0599574 C27.7509787,19.2491809 27.9442979,19.3687021 28.1558617,19.3687021 C28.3674255,19.3687021 28.5608191,19.2491809 28.6553936,19.0599574 L30.0146596,16.3414255 L33.800766,16.3414255 C34.4620426,16.3414255 35,15.8033936 35,15.1421915 L35,1.19930851 C35,0.538031915 34.4619681,0 33.800766,0 Z" id="Shape"></path>
                <path d="M28.1558617,2.23404255 C26.615266,2.23404255 25.3618936,3.48734043 25.3618936,5.02793617 C25.3618936,6.56853191 26.615266,7.82190426 28.1558617,7.82190426 C29.6964574,7.82190426 30.9497553,6.56853191 30.9497553,5.02793617 C30.9497553,3.48734043 29.696383,2.23404255 28.1558617,2.23404255 L28.1558617,2.23404255 Z M28.1558617,6.70480851 C27.2311915,6.70480851 26.4789149,5.95253191 26.4789149,5.0278617 C26.4789149,4.10326596 27.2311915,3.35098936 28.1558617,3.35098936 C29.0804574,3.35098936 29.832734,4.10326596 29.832734,5.0278617 C29.8326596,5.95260638 29.0804574,6.70480851 28.1558617,6.70480851 L28.1558617,6.70480851 Z" id="Shape"></path>
                <path d="M25.461234,13.5489468 C25.461234,13.8574681 25.7112234,14.1074574 26.0197447,14.1074574 L32.2074468,14.1074574 C32.5159681,14.1074574 32.7659574,13.8574681 32.7659574,13.5489468 C32.7659574,11.0069043 30.6979043,8.93885106 28.1558617,8.93885106 C27.2892766,8.93885106 26.4446596,9.18079787 25.7131596,9.63855319 C25.4517021,9.80208511 25.3723936,10.1467234 25.5359255,10.4082553 C25.6996064,10.6697128 26.0440213,10.7490213 26.3057021,10.5854149 C26.8593723,10.2390638 27.4990532,10.0559468 28.1558617,10.0559468 C29.8919362,10.0559468 31.3361702,11.3290532 31.6044043,12.9905106 L26.0198191,12.9905106 C25.7112979,12.9904362 25.461234,13.2405 25.461234,13.5489468 L25.461234,13.5489468 Z" id="Shape"></path>
                <path d="M10.6557872,10.1284043 L10.6557872,24.0713617 C10.6557872,24.7326383 11.1938191,25.2705957 11.8550957,25.2705957 L15.6412021,25.2705957 L17.0003936,27.9891277 C17.0950426,28.1782766 17.2884362,28.2978723 17.4999255,28.2978723 C17.7114149,28.2978723 17.904883,28.1783511 17.9994574,27.9891277 L19.3587234,25.2705957 L23.1447553,25.2705957 C23.8061064,25.2705957 24.3440638,24.7325638 24.3440638,24.0713617 L24.3440638,10.1284043 C24.3440638,9.46712766 23.8060319,8.92917021 23.1447553,8.92917021 L11.8550957,8.92917021 C11.1938191,8.92909574 10.6557872,9.46712766 10.6557872,10.1284043 L10.6557872,10.1284043 Z M23.227117,10.1284043 L23.227117,24.0713617 C23.227117,24.1167128 23.1901809,24.1535745 23.1448298,24.1535745 L19.0136383,24.1535745 C18.8020745,24.1535745 18.6086809,24.2730213 18.5141064,24.4623191 L17.5,26.4904574 L16.4859681,24.4623191 C16.3913936,24.2731702 16.198,24.1535745 15.9864362,24.1535745 L11.8551702,24.1535745 C11.8098191,24.1535745 11.772883,24.1167128 11.772883,24.0713617 L11.772883,10.1284043 C11.772883,10.0830532 11.8098191,10.0461915 11.8551702,10.0461915 L23.1448298,10.0461915 C23.1901809,10.046117 23.227117,10.0829787 23.227117,10.1284043 Z" id="Shape"></path>
                <path d="M17.5,16.7509255 C19.0405213,16.7509255 20.2938936,15.4975532 20.2938936,13.9569574 C20.2938936,12.4163617 19.0405957,11.1630638 17.5,11.1630638 C15.9594043,11.1630638 14.7061064,12.4163617 14.7061064,13.9569574 C14.7061064,15.4975532 15.9594043,16.7509255 17.5,16.7509255 L17.5,16.7509255 Z M17.5,12.2801596 C18.4245957,12.2801596 19.1768723,13.0324362 19.1768723,13.9570319 C19.1768723,14.8817021 18.4245957,15.6339787 17.5,15.6339787 C16.5753298,15.6339787 15.8231277,14.8817021 15.8231277,13.9570319 C15.8231277,13.0324362 16.5753298,12.2801596 17.5,12.2801596 L17.5,12.2801596 Z" id="Shape"></path>
                <path d="M13.4483404,23.0366277 L21.5515851,23.0366277 C21.8601064,23.0366277 22.1100957,22.7866383 22.1100957,22.478117 C22.1100957,19.9360745 20.0420426,17.8680213 17.5,17.8680213 C14.9579574,17.8680213 12.8898298,19.9360745 12.8898298,22.478117 C12.8898298,22.7865638 13.1398936,23.0366277 13.4483404,23.0366277 L13.4483404,23.0366277 Z M17.5,18.9849681 C19.236,18.9849681 20.6803085,20.2580745 20.9485426,21.9195319 L14.0515319,21.9195319 C14.319617,20.2580745 15.7639255,18.9849681 17.5,18.9849681 L17.5,18.9849681 Z" id="Shape"></path>
                <path d="M28.4095745,32.8031915 C28.7380532,32.8031915 29.0053191,32.5359255 29.0053191,32.2074468 C29.0053191,31.8789681 28.7380532,31.6117021 28.4095745,31.6117021 C28.0810957,31.6117021 27.8138298,31.8789681 27.8138298,32.2074468 C27.8138298,32.5359255 28.0810957,32.8031915 28.4095745,32.8031915 Z" id="Shape"></path>
                <path d="M25.356383,32.8031915 C25.6848617,32.8031915 25.9521277,32.5359255 25.9521277,32.2074468 C25.9521277,31.8789681 25.6848617,31.6117021 25.356383,31.6117021 C25.0279043,31.6117021 24.7606383,31.8789681 24.7606383,32.2074468 C24.7606383,32.5359255 25.0279043,32.8031915 25.356383,32.8031915 Z" id="Shape"></path>
                <path d="M31.462766,32.8031915 C31.7912447,32.8031915 32.0585106,32.5359255 32.0585106,32.2074468 C32.0585106,31.8789681 31.7912447,31.6117021 31.462766,31.6117021 C31.1342872,31.6117021 30.8670213,31.8789681 30.8670213,32.2074468 C30.8670213,32.5359255 31.1342872,32.8031915 31.462766,32.8031915 Z" id="Shape"></path>
                <path d="M34.4414894,29.4148936 L0.558510638,29.4148936 C0.25006383,29.4148936 0,29.664883 0,29.9734043 L0,34.4414894 C0,34.7500106 0.25006383,35 0.558510638,35 L34.4414894,35 C34.7500106,35 35,34.7500106 35,34.4414894 L35,29.9734043 C35,29.664883 34.7500106,29.4148936 34.4414894,29.4148936 Z M1.11702128,30.5319149 L21.7819149,30.5319149 L21.7819149,33.8829787 L1.11702128,33.8829787 L1.11702128,30.5319149 Z M33.8829787,33.8829787 L22.8989362,33.8829787 L22.8989362,30.5319149 L33.8829787,30.5319149 L33.8829787,33.8829787 Z" id="Shape"></path>
            </g>
        </g>
    </g>
</svg>