<?xml version="1.0" encoding="UTF-8"?>
<svg width="35px" height="35px" viewBox="0 0 35 35" version="1.1" xmlns="http://www.w3.org/2000/svg" xmlns:xlink="http://www.w3.org/1999/xlink">
    <!-- Generator: Sketch 44.1 (41455) - http://www.bohemiancoding.com/sketch -->
    <title>Group 28</title>
    <desc>Created with Sketch.</desc>
    <defs></defs>
    <g id="Page-1" stroke="none" stroke-width="1" fill="none" fill-rule="evenodd">
        <g id="sv.co/stats" transform="translate(-1130.000000, -1998.000000)" fill-rule="nonzero" fill="#0F89BF">
            <g id="Group-28" transform="translate(1130.000000, 1998.000000)">
                <path d="M33.6714149,2.43201699 L28.5481596,2.43201699 L28.5481596,0.557324841 C28.5481596,0.249458599 28.2981702,0 27.9896489,0 L7.01035106,0 C6.70190426,0 6.45184043,0.249458599 6.45184043,0.557324841 L6.45184043,2.43201699 L1.32858511,2.43201699 C0.595968085,2.43201699 0,3.02664544 0,3.75770701 L0,28.2208493 C0,28.9519108 0.595968085,29.5466136 1.32858511,29.5466136 L13.5269787,29.5466136 L13.5269787,33.8110403 L8.25918085,33.8110403 C7.95073404,33.8110403 7.70067021,34.0604989 7.70067021,34.3683652 C7.70067021,34.6762314 7.95073404,34.92569 8.25918085,34.92569 L24.2682553,34.92569 C24.5767766,34.92569 24.826766,34.6762314 24.826766,34.3683652 C24.826766,34.0604989 24.5767766,33.8110403 24.2682553,33.8110403 L21.4730213,33.8110403 L21.4730213,29.5466136 L23.7716277,29.5466136 C24.0801489,29.5466136 24.3301383,29.297155 24.3301383,28.9892887 C24.3301383,28.6814225 24.0801489,28.4319639 23.7716277,28.4319639 L1.32858511,28.4319639 C1.21390426,28.4319639 1.11702128,28.3352866 1.11702128,28.2208493 L1.11702128,3.75770701 C1.11702128,3.64326964 1.21390426,3.54659236 1.32858511,3.54659236 L6.45184043,3.54659236 L6.45184043,23.8973461 L2.86873404,23.8973461 C2.56028723,23.8973461 2.3102234,24.1468047 2.3102234,24.4546709 C2.3102234,24.7625372 2.56028723,25.0119958 2.86873404,25.0119958 L23.7717021,25.0119958 C24.0802234,25.0119958 24.3302128,24.7625372 24.3302128,24.4546709 C24.3302128,24.1468047 24.0802234,23.8973461 23.7717021,23.8973461 L19.3867234,23.8973461 L19.3867234,19.3424416 C19.3867234,19.0345754 19.136734,18.7851168 18.8282128,18.7851168 L9.98907447,18.7851168 C9.68062766,18.7851168 9.43056383,19.0345754 9.43056383,19.3424416 L9.43056383,23.8973461 L7.5688617,23.8973461 L7.5688617,2.99001062 C7.5688617,2.98852442 7.5688617,1.11464968 7.5688617,1.11464968 L27.4312128,1.11464968 L27.4312128,6.19291932 C27.4312128,6.50078556 27.6812021,6.75024416 27.9897234,6.75024416 C28.2982447,6.75024416 28.548234,6.50078556 28.548234,6.19291932 L28.548234,3.54666667 L33.6714894,3.54666667 C33.7861702,3.54666667 33.8830532,3.64334395 33.8830532,3.75778132 L33.8830532,28.2209236 C33.8830532,28.3353609 33.7861702,28.4320382 33.6714894,28.4320382 L32.2074468,28.4320382 C31.8989255,28.4320382 31.6489362,28.6814968 31.6489362,28.9893631 C31.6489362,29.2972293 31.8989255,29.5466879 32.2074468,29.5466879 L33.6714149,29.5466879 C34.4040319,29.5466879 35,28.9519851 35,28.2209236 L35,3.75770701 C35,3.02664544 34.4040319,2.43201699 33.6714149,2.43201699 Z M20.3560745,33.8110403 L14.644,33.8110403 L14.644,29.5466136 L20.3560745,29.5466136 L20.3560745,33.8110403 Z M10.5475851,19.8998408 L18.2697021,19.8998408 L18.2697021,23.8974204 L10.5475851,23.8974204 L10.5475851,19.8998408 Z" id="Shape"></path>
                <path d="M30.5249149,13.269087 C30.5237234,13.2610616 30.5228298,13.2529618 30.521266,13.2450106 C30.5189574,13.2333439 30.5159043,13.2219745 30.5128511,13.2105308 C30.5112872,13.2047346 30.5100957,13.1988641 30.508383,13.1930679 C30.5048085,13.1811783 30.5005638,13.1696603 30.4962447,13.1581423 C30.4946064,13.1538323 30.4934149,13.1493737 30.4917021,13.145138 L30.4889468,13.1382272 C30.4884255,13.1370382 30.4879787,13.1358493 30.4875319,13.1346603 L28.5079468,8.21452229 C28.4229043,8.00333333 28.2178191,7.86489384 27.9896489,7.86489384 C27.7614787,7.86489384 27.5563936,8.00333333 27.4713511,8.21452229 L25.4914681,13.1351062 C25.4905745,13.1372611 25.4874468,13.1450637 25.4874468,13.1450637 C25.4855851,13.1497452 25.4842447,13.1546497 25.4824574,13.1594055 C25.4783617,13.1704777 25.4741915,13.1815499 25.4708404,13.1929193 C25.4690532,13.1988641 25.4677872,13.2049575 25.4662234,13.2109766 C25.4632447,13.2222718 25.4601915,13.2334183 25.4579574,13.2450106 C25.4563936,13.2530361 25.4555,13.2611359 25.454234,13.2692357 C25.4527447,13.278896 25.4510319,13.2883333 25.4500638,13.2981423 C25.4482766,13.3162739 25.4473085,13.3344798 25.4473085,13.3527601 L25.4473085,32.3887473 C25.4473085,33.7876327 26.5877872,34.9257643 27.9897234,34.9257643 C29.3915106,34.9257643 30.5320638,33.787707 30.5320638,32.3887473 L30.5320638,13.3527601 C30.5320638,13.3344798 30.5310957,13.3162739 30.5293085,13.2981423 C30.5281915,13.288259 30.5264043,13.2787473 30.5249149,13.269087 L30.5249149,13.269087 Z M26.5642553,13.9100106 L29.4148936,13.9100106 L29.4148936,29.8261677 L26.5642553,29.8261677 L26.5642553,13.9100106 Z M27.9895745,9.91800425 L29.1473298,12.7954352 L26.8318191,12.7954352 L27.9895745,9.91800425 L27.9895745,9.91800425 Z M27.9895745,33.8110403 C27.2036383,33.8110403 26.5641809,33.1729406 26.5641809,32.388673 L26.5641809,30.9408174 L29.4148936,30.9408174 L29.4148936,32.388673 C29.4148936,33.1729406 28.7755106,33.8110403 27.9895745,33.8110403 Z" id="Shape"></path>
                <path d="M9.98907447,8.01024416 L25.011,8.01024416 C25.3195213,8.01024416 25.5695106,7.76078556 25.5695106,7.45291932 L25.5695106,3.52972399 C25.5695106,3.22185775 25.3195213,2.97239915 25.011,2.97239915 L9.98907447,2.97239915 C9.68062766,2.97239915 9.43056383,3.22185775 9.43056383,3.52972399 L9.43056383,7.45291932 C9.43056383,7.76078556 9.68062766,8.01024416 9.98907447,8.01024416 Z M10.5475851,4.08704883 L24.4524894,4.08704883 L24.4524894,6.89559448 L10.5475851,6.89559448 L10.5475851,4.08704883 Z" id="Shape"></path>
                <path d="M25.0109255,9.12489384 L9.98907447,9.12489384 C9.68062766,9.12489384 9.43056383,9.37435244 9.43056383,9.68221868 C9.43056383,9.99008493 9.68062766,10.2395435 9.98907447,10.2395435 L25.011,10.2395435 C25.3195213,10.2395435 25.5695106,9.99008493 25.5695106,9.68221868 C25.5695106,9.37435244 25.3194468,9.12489384 25.0109255,9.12489384 L25.0109255,9.12489384 Z" id="Shape"></path>
                <path d="M18.8282128,12.097293 L9.98907447,12.097293 C9.68062766,12.097293 9.43056383,12.3467516 9.43056383,12.6546178 C9.43056383,12.9624841 9.68062766,13.2119427 9.98907447,13.2119427 L18.8282128,13.2119427 C19.136734,13.2119427 19.3867234,12.9624841 19.3867234,12.6546178 C19.3867234,12.3467516 19.136734,12.097293 18.8282128,12.097293 Z" id="Shape"></path>
                <path d="M23.879234,12.097293 L21.0622553,12.097293 C20.753734,12.097293 20.5037447,12.3467516 20.5037447,12.6546178 C20.5037447,12.9624841 20.753734,13.2119427 21.0622553,13.2119427 L23.879234,13.2119427 C24.1877553,13.2119427 24.4377447,12.9624841 24.4377447,12.6546178 C24.4377447,12.3467516 24.1877553,12.097293 23.879234,12.097293 Z" id="Shape"></path>
                <path d="M18.8282128,14.3265924 L9.98907447,14.3265924 C9.68062766,14.3265924 9.43056383,14.576051 9.43056383,14.8839172 C9.43056383,15.1917834 9.68062766,15.441242 9.98907447,15.441242 L18.8282128,15.441242 C19.136734,15.441242 19.3867234,15.1917834 19.3867234,14.8839172 C19.3867234,14.576051 19.136734,14.3265924 18.8282128,14.3265924 Z" id="Shape"></path>
                <path d="M23.7717021,14.3265924 L21.0622553,14.3265924 C20.753734,14.3265924 20.5037447,14.576051 20.5037447,14.8839172 C20.5037447,15.1917834 20.753734,15.441242 21.0622553,15.441242 L23.7717021,15.441242 C24.0802234,15.441242 24.3302128,15.1917834 24.3302128,14.8839172 C24.3302128,14.576051 24.0801489,14.3265924 23.7717021,14.3265924 Z" id="Shape"></path>
                <path d="M18.8282128,16.5558917 L9.98907447,16.5558917 C9.68062766,16.5558917 9.43056383,16.8053503 9.43056383,17.1132166 C9.43056383,17.4210828 9.68062766,17.6705414 9.98907447,17.6705414 L18.8282128,17.6705414 C19.136734,17.6705414 19.3867234,17.4210828 19.3867234,17.1132166 C19.3867234,16.8053503 19.136734,16.5558917 18.8282128,16.5558917 Z" id="Shape"></path>
                <path d="M23.7717021,16.5558917 L21.0622553,16.5558917 C20.753734,16.5558917 20.5037447,16.8053503 20.5037447,17.1132166 C20.5037447,17.4210828 20.753734,17.6705414 21.0622553,17.6705414 L23.7717021,17.6705414 C24.0802234,17.6705414 24.3302128,17.4210828 24.3302128,17.1132166 C24.3302128,16.8053503 24.0801489,16.5558917 23.7717021,16.5558917 Z" id="Shape"></path>
            </g>
        </g>
    </g>
</svg>