<?xml version="1.0" encoding="UTF-8"?>
<svg width="34px" height="29px" viewBox="0 0 34 29" version="1.1" xmlns="http://www.w3.org/2000/svg" xmlns:xlink="http://www.w3.org/1999/xlink">
    <!-- Generator: Sketch 44.1 (41455) - http://www.bohemiancoding.com/sketch -->
    <title>Group 21</title>
    <desc>Created with Sketch.</desc>
    <defs>
        <polygon id="path-1" points="34 14.4500567 34 28.9 0 28.9 0 14.4500567 0 0.000113333333 34 0.000113333333 34 14.4500567"></polygon>
    </defs>
    <g id="Page-1" stroke="none" stroke-width="1" fill="none" fill-rule="evenodd">
        <g id="sv.co/stats" transform="translate(-1130.000000, -860.000000)">
            <g id="Group-21" transform="translate(1130.000000, 860.000000)">
                <mask id="mask-2" fill="white">
                    <use xlink:href="#path-1"></use>
                </mask>
                <g id="Clip-2"></g>
                <path d="M32.8666667,27.1944467 C32.8666667,27.51008 32.6099667,27.76678 32.2943333,27.76678 L29.4666667,27.76678 L29.4666667,6.23344667 L31.1666667,6.23344667 L32.2943333,6.23344667 C32.6099667,6.23344667 32.8666667,6.49014667 32.8666667,6.80578 L32.8666667,27.1944467 Z M1.13333333,27.1944467 L1.13333333,6.80578 C1.13333333,6.49014667 1.39003333,6.23344667 1.70566667,6.23344667 L2.83333333,6.23344667 L4.53333333,6.23344667 L4.53333333,27.76678 L1.70566667,27.76678 C1.39003333,27.76678 1.13333333,27.51008 1.13333333,27.1944467 L1.13333333,27.1944467 Z M3.96666667,5.10011333 L7.36666667,5.10011333 L7.36666667,4.53344667 L3.96666667,4.53344667 L3.96666667,5.10011333 Z M10.7666667,6.23344667 L23.2333333,6.23344667 L25.5,6.23344667 L28.3333333,6.23344667 L28.3333333,27.76678 L5.66666667,27.76678 L5.66666667,6.23344667 L8.5,6.23344667 L10.7666667,6.23344667 Z M11.9,1.81684667 C11.9,1.44001333 12.2065667,1.13344667 12.5834,1.13344667 L21.4166,1.13344667 C21.7934333,1.13344667 22.1,1.44001333 22.1,1.81684667 L22.1,5.10011333 L11.9,5.10011333 L11.9,1.81684667 Z M26.6333333,5.10011333 L30.0333333,5.10011333 L30.0333333,4.53344667 L26.6333333,4.53344667 L26.6333333,5.10011333 Z M32.2943333,5.10011333 L31.1666667,5.10011333 L31.1666667,3.40011333 L25.5,3.40011333 L25.5,5.10011333 L23.2333333,5.10011333 L23.2333333,1.81684667 C23.2333333,0.81498 22.4184667,0.000113333333 21.4166,0.000113333333 L12.5834,0.000113333333 C11.5815333,0.000113333333 10.7666667,0.81498 10.7666667,1.81684667 L10.7666667,5.10011333 L8.5,5.10011333 L8.5,3.40011333 L2.83333333,3.40011333 L2.83333333,5.10011333 L1.70566667,5.10011333 C0.765566667,5.10011333 0,5.86568 0,6.80578 L0,27.1944467 C0,28.1345467 0.765566667,28.9001133 1.70566667,28.9001133 L32.2943333,28.9001133 C33.2344333,28.9001133 34,28.1345467 34,27.1944467 L34,6.80578 C34,5.86568 33.2344333,5.10011333 32.2943333,5.10011333 L32.2943333,5.10011333 Z" id="Fill-1" fill="#158BBF" mask="url(#mask-2)"></path>
                <polygon id="Fill-4" fill="#158BBF" mask="url(#mask-2)" points="17.4006333 21.2987333 17.4006333 11.3333333 16.2673 11.3333333 16.2673 21.2987333 12.7012667 17.7327 11.9 18.6167 16.4333333 23.2333333 17.2346 23.2333333 21.7679333 18.6167 20.9666667 17.7740667"></polygon>
            </g>
        </g>
    </g>
</svg>