<?xml version="1.0" encoding="UTF-8"?>
<svg width="36px" height="36px" viewBox="0 0 36 36" version="1.1" xmlns="http://www.w3.org/2000/svg" xmlns:xlink="http://www.w3.org/1999/xlink">
    <!-- Generator: Sketch 44.1 (41455) - http://www.bohemiancoding.com/sketch -->
    <title>Group 20</title>
    <desc>Created with Sketch.</desc>
    <defs></defs>
    <g id="Page-1" stroke="none" stroke-width="1" fill="none" fill-rule="evenodd">
        <g id="sv.co/stats" transform="translate(-843.000000, -858.000000)">
            <g id="Group-20" transform="translate(844.000000, 859.000000)">
                <polygon id="Stroke-1" stroke="#0088C1" points="14.4437778 16.076 19.0793333 14.5232222 20.5790556 19.001 15.9435 20.5537778"></polygon>
                <path d="M26.8156089,20.0473513 L24.6136509,20.7809749 L25.3747276,23.0644768 C25.6739938,23.9886414 25.1847302,24.9940781 24.2605657,25.2933444 C24.0700247,25.347707 23.852846,25.4017978 23.662305,25.3748883 C22.9558627,25.347707 22.2763299,24.8856247 22.0314263,24.1786388 L21.2706214,21.8956805 L16.7310706,23.4175621 L17.4921473,25.701064 C17.7914136,26.6249568 17.30215,27.6306653 16.3779854,27.9299316 C16.1874444,27.9840224 15.9702657,28.038385 15.7797247,28.0114755 C15.0732824,27.9840224 14.3937496,27.5222119 14.148846,26.815226 L13.3880411,24.5322677 L11.1863549,25.2658912 C10.9960857,25.3202539 10.7786352,25.3748883 10.5883661,25.347707 C9.88165196,25.3202539 9.20211918,24.8581716 8.95748738,24.1517293 C8.65849295,23.2272929 9.14775656,22.2218562 10.0716493,21.92259 L12.2736074,21.1886946 L10.8058165,16.8127752 L8.60413033,17.5466706 C8.41386115,17.6010333 8.19641066,17.6551241 8.00614148,17.6282146 C7.29942739,17.6010333 6.6198946,17.138951 6.3752628,16.4322369 C6.07626838,15.5080723 6.56553198,14.5023638 7.48942475,14.2033694 L9.69138278,13.4694739 L8.93030607,11.185972 C8.63131164,10.2620792 9.12030343,9.25637069 10.0447398,8.95737627 C10.9689044,8.65838184 11.9743411,9.14737363 12.2736074,10.07181 L13.0346841,12.3550402 L17.5739631,10.8328867 L16.8126145,8.5496566 C16.5138919,7.62549201 17.0028837,6.61978349 17.9273201,6.32078907 C18.8512129,6.02152283 19.8569214,6.51105825 20.1561876,7.43522283 L20.9172644,9.71845298 L23.1186788,8.98455758 C24.0431152,8.68556315 25.0488237,9.17482676 25.3478181,10.0987195 C25.6465407,11.0231559 25.1572771,12.0288644 24.2333843,12.3278589 L22.0314263,13.0617543 L23.4994889,17.4376736 L25.7009033,16.70405 C26.6253397,16.4050556 27.6310483,16.8940474 27.9300427,17.8184838 C28.2287653,18.7423765 27.7395017,19.748085 26.8156089,20.0473513 Z M32.7136817,12.4637654 C29.2075643,0.775801555 24.1515686,-1.94232958 12.4638765,1.56405958 C0.775912666,5.07017693 -1.94221847,10.1261727 1.56417069,21.8141365 C5.07055986,33.5021004 10.1262838,36.2202315 21.8142476,32.7138424 C33.5022115,29.2071814 36.2203426,24.1517293 32.7136817,12.4637654 Z" id="Stroke-3" stroke="#008AC1"></path>
            </g>
        </g>
    </g>
</svg>