<svg id="Layer_2" data-name="Layer 2" xmlns="http://www.w3.org/2000/svg" xmlns:xlink="http://www.w3.org/1999/xlink" viewBox="0 0 450.3 337.1"><defs><style>.cls-1{fill:url(#radial-gradient);}.cls-2{mask:url(#mask);}.cls-3{opacity:0.2;}.cls-4{fill:#c4c4c4;}.cls-5{fill:#eff5f8;}.cls-6{fill:#cdebfc;}.cls-12,.cls-14,.cls-15,.cls-7{fill:#fff;}.cls-7{stroke:#cdf1f9;}.cls-10,.cls-11,.cls-13,.cls-14,.cls-15,.cls-17,.cls-18,.cls-19,.cls-22,.cls-23,.cls-26,.cls-27,.cls-28,.cls-29,.cls-33,.cls-34,.cls-38,.cls-39,.cls-7{stroke-miterlimit:10;}.cls-11,.cls-13,.cls-14,.cls-7{stroke-width:0.5px;}.cls-8{opacity:0.6;}.cls-9{fill:#f2f2f2;}.cls-10,.cls-13{fill:none;}.cls-10{stroke:#22a5dd;}.cls-11{fill:#edefef;}.cls-11,.cls-13,.cls-14,.cls-15{stroke:#087caa;}.cls-15{stroke-width:0.75px;}.cls-16{fill:#087caa;}.cls-17,.cls-36{fill:#e3b462;}.cls-17,.cls-18,.cls-19,.cls-20,.cls-21,.cls-22,.cls-23,.cls-26,.cls-27,.cls-28,.cls-29,.cls-33,.cls-34,.cls-38,.cls-39{stroke:#000;}.cls-17,.cls-26,.cls-27,.cls-28,.cls-29{stroke-width:0.26px;}.cls-18,.cls-27,.cls-38{fill:#5aaf86;}.cls-18,.cls-19,.cls-20,.cls-21,.cls-22,.cls-23{stroke-width:0.27px;}.cls-19,.cls-26,.cls-39{fill:#22a5dd;}.cls-20{fill:#f2f6ff;stroke-linecap:round;stroke-linejoin:round;}.cls-21{fill:#d1dff4;stroke-linecap:square;stroke-linejoin:bevel;}.cls-22,.cls-25,.cls-29,.cls-34{fill:#ffcfa3;}.cls-23,.cls-28,.cls-33{fill:#1c81a5;}.cls-24{fill:#e8e8e8;}.cls-30{fill:#2f2a37;}.cls-31{fill:#e2e2e2;}.cls-32{fill:#cecece;}.cls-33,.cls-34,.cls-38,.cls-39{stroke-width:0.25px;}.cls-35{fill:#ffd283;}.cls-37{fill:#838383;}.cls-40{fill:#2d0400;}</style><radialGradient id="radial-gradient" cx="235.67" cy="176.34" r="276" gradientTransform="matrix(0.87, 0.5, -0.87, 0.5, 173.98, -26.61)" gradientUnits="userSpaceOnUse"><stop offset="0" stop-color="#fff"/><stop offset="1"/></radialGradient><mask id="mask" x="-85.25" y="-137.41" width="612.5" height="609.39" maskUnits="userSpaceOnUse"><path class="cls-1" d="M435.7,300.8c-116.2,67.1-304.5,67.1-420.7,0S-101.2,125,15,58,319.5-9.1,435.7,58,551.9,233.8,435.7,300.8Z"/></mask></defs><title>stats-hero-banner</title><g class="cls-2"><g class="cls-3"><rect class="cls-4" x="-132.3" y="58.8" width="706.7" height="1" transform="translate(0 118.5) rotate(-30)"/><rect class="cls-4" x="-95.7" y="304.2" width="667.4" height="1" transform="translate(-120.5 160) rotate(-30)"/><rect class="cls-4" x="-59.1" y="314" width="628.2" height="1" transform="translate(-123.1 169.8) rotate(-30)"/><rect class="cls-4" x="-22.4" y="323.8" width="588.9" height="1" transform="translate(-125.8 179.6) rotate(-30)"/><rect class="cls-4" x="14.2" y="333.6" width="549.6" height="1" transform="translate(-128.4 189.4) rotate(-30)"/><rect class="cls-4" x="50.8" y="343.5" width="510.4" height="1" transform="translate(-131 199.3) rotate(-30)"/><rect class="cls-4" x="87.4" y="353.3" width="471.1" height="1" transform="translate(-133.7 209.1) rotate(-30)"/><rect class="cls-4" x="124.1" y="363.1" width="431.9" height="1" transform="translate(-136.3 218.9) rotate(-30)"/><rect class="cls-4" x="160.7" y="372.9" width="392.6" height="1" transform="translate(-138.9 228.7) rotate(-30)"/><rect class="cls-4" x="197.3" y="382.7" width="353.3" height="1" transform="translate(-141.6 238.5) rotate(-30)"/><rect class="cls-4" x="234" y="392.5" width="314.1" height="1" transform="translate(-144.2 248.4) rotate(-30)"/><rect class="cls-4" x="270.6" y="402.3" width="274.8" height="1" transform="translate(-146.8 258.2) rotate(-30)"/><rect class="cls-4" x="288.5" y="-274.4" width="1" height="549.64" transform="translate(144.1 250.5) rotate(-60)"/><rect class="cls-4" x="271.5" y="-284.2" width="1" height="588.9" transform="translate(127.1 240.7) rotate(-60)"/><rect class="cls-4" x="254.5" y="-294" width="1" height="628.16" transform="translate(110.1 230.9) rotate(-60)"/><rect class="cls-4" x="237.5" y="-303.8" width="1" height="667.42" transform="translate(93.1 221.1) rotate(-60)"/><rect class="cls-4" x="-132.3" y="137.3" width="706.7" height="1" transform="translate(-39.3 129.1) rotate(-30)"/><rect class="cls-4" x="-132.3" y="117.7" width="706.7" height="1" transform="translate(-29.5 126.4) rotate(-30)"/><rect class="cls-4" x="-132.3" y="98.1" width="706.7" height="1" transform="translate(-19.7 123.8) rotate(-30)"/><rect class="cls-4" x="-132.3" y="78.5" width="706.7" height="1" transform="translate(-9.9 121.2) rotate(-30)"/><rect class="cls-4" x="407.5" y="-205.7" width="1" height="274.82" transform="translate(263.1 319.2) rotate(-60)"/><rect class="cls-4" x="390.5" y="-215.5" width="1" height="314.08" transform="translate(246.1 309.4) rotate(-60)"/><rect class="cls-4" x="373.5" y="-225.3" width="1" height="353.34" transform="translate(229.1 299.6) rotate(-60)"/><rect class="cls-4" x="356.5" y="-235.1" width="1" height="392.6" transform="translate(212.1 289.8) rotate(-60)"/><rect class="cls-4" x="339.5" y="-244.9" width="1" height="431.86" transform="translate(195.1 279.9) rotate(-60)"/><rect class="cls-4" x="322.5" y="-254.8" width="1" height="471.12" transform="translate(178.1 270.1) rotate(-60)"/><rect class="cls-4" x="305.5" y="-264.6" width="1" height="510.38" transform="translate(161.1 260.3) rotate(-60)"/><rect class="cls-4" x="33.5" y="265.4" width="1" height="274.82" transform="translate(-331.9 230.9) rotate(-60)"/><rect class="cls-4" x="50.5" y="236" width="1" height="314.08" transform="translate(-314.9 240.7) rotate(-60)"/><rect class="cls-4" x="67.5" y="206.5" width="1" height="353.34" transform="translate(-297.9 250.5) rotate(-60)"/><rect class="cls-4" x="84.5" y="177.1" width="1" height="392.6" transform="translate(-280.9 260.3) rotate(-60)"/><rect class="cls-4" x="101.5" y="147.7" width="1" height="431.86" transform="translate(-263.9 270.1) rotate(-60)"/><rect class="cls-4" x="118.5" y="118.2" width="1" height="471.12" transform="translate(-246.9 279.9) rotate(-60)"/><rect class="cls-4" x="135.5" y="88.8" width="1" height="510.38" transform="translate(-229.9 289.8) rotate(-60)"/><rect class="cls-4" x="152.5" y="59.3" width="1" height="549.64" transform="translate(-212.9 299.6) rotate(-60)"/><rect class="cls-4" x="169.5" y="29.9" width="1" height="588.9" transform="translate(-195.9 309.4) rotate(-60)"/><rect class="cls-4" x="186.5" y="0.4" width="1" height="628.16" transform="translate(-178.9 319.2) rotate(-60)"/><rect class="cls-4" x="203.5" y="-29" width="1" height="667.42" transform="translate(-161.9 329) rotate(-60)"/><rect class="cls-4" x="220.5" y="-58.5" width="1" height="706.68" transform="translate(-144.9 338.8) rotate(-60)"/><rect class="cls-4" x="220.5" y="-78.1" width="1" height="706.68" transform="translate(-127.9 329) rotate(-60)"/><rect class="cls-4" x="220.5" y="-97.7" width="1" height="706.68" transform="translate(-110.9 319.2) rotate(-60)"/><rect class="cls-4" x="220.5" y="-117.3" width="1" height="706.68" transform="translate(-93.9 309.4) rotate(-60)"/><rect class="cls-4" x="220.5" y="-137" width="1" height="706.68" transform="translate(-76.9 299.6) rotate(-60)"/><rect class="cls-4" x="220.5" y="-156.6" width="1" height="706.68" transform="translate(-59.9 289.8) rotate(-60)"/><rect class="cls-4" x="220.5" y="-176.2" width="1" height="706.68" transform="translate(-42.9 279.9) rotate(-60)"/><rect class="cls-4" x="220.5" y="-195.9" width="1" height="706.68" transform="translate(-25.9 270.1) rotate(-60)"/><rect class="cls-4" x="220.5" y="-215.5" width="1" height="706.68" transform="translate(-8.9 260.3) rotate(-60)"/><rect class="cls-4" x="220.5" y="-235.1" width="1" height="706.68" transform="translate(8.1 250.5) rotate(-60)"/><rect class="cls-4" x="220.5" y="-313.6" width="1" height="706.68" transform="translate(76.1 211.2) rotate(-60)"/><rect class="cls-4" x="220.5" y="-294" width="1" height="706.68" transform="translate(59.1 221.1) rotate(-60)"/><rect class="cls-4" x="220.5" y="-274.4" width="1" height="706.68" transform="translate(42.1 230.9) rotate(-60)"/><rect class="cls-4" x="220.5" y="-254.8" width="1" height="706.68" transform="translate(25.1 240.7) rotate(-60)"/><rect class="cls-4" x="-132.3" y="215.9" width="706.7" height="1" transform="translate(-78.6 139.6) rotate(-30)"/><rect class="cls-4" x="-132.3" y="196.2" width="706.7" height="1" transform="translate(-68.8 137) rotate(-30)"/><rect class="cls-4" x="-132.3" y="176.6" width="706.7" height="1" transform="translate(-59 134.3) rotate(-30)"/><rect class="cls-4" x="-132.3" y="157" width="706.7" height="1" transform="translate(-49.1 131.7) rotate(-30)"/><rect class="cls-4" x="-132.3" y="235.5" width="706.7" height="1" transform="translate(-88.4 142.2) rotate(-30)"/><rect class="cls-4" x="-132.3" y="255.1" width="706.7" height="1" transform="translate(-98.2 144.9) rotate(-30)"/><rect class="cls-4" x="-132.3" y="274.8" width="706.7" height="1" transform="translate(-108.1 147.5) rotate(-30)"/><rect class="cls-4" x="-132.3" y="294.4" width="706.7" height="1" transform="translate(-117.9 150.1) rotate(-30)"/><rect class="cls-4" x="-132.3" y="39.2" width="706.7" height="1" transform="translate(9.8 115.9) rotate(-30)"/><rect class="cls-4" x="-129.7" y="29.4" width="667.4" height="1" transform="translate(12.4 106.1) rotate(-30)"/><rect class="cls-4" x="-127.1" y="19.6" width="628.2" height="1" transform="translate(15.1 96.3) rotate(-30)"/><rect class="cls-4" x="-124.4" y="9.7" width="588.9" height="1" transform="translate(17.7 86.4) rotate(-30)"/><rect class="cls-4" x="-121.8" y="-0.1" width="549.6" height="1" transform="translate(20.3 76.5) rotate(-30)"/><rect class="cls-4" x="-119.2" y="-9.9" width="510.4" height="1" transform="translate(22.9 66.7) rotate(-30)"/><rect class="cls-4" x="-116.6" y="-19.7" width="471.1" height="1" transform="translate(25.5 56.9) rotate(-30)"/><rect class="cls-4" x="-113.9" y="-29.5" width="431.9" height="1" transform="translate(28.2 47.1) rotate(-30)"/><rect class="cls-4" x="-111.3" y="-39.3" width="392.6" height="1" transform="translate(30.8 37.3) rotate(-30)"/><rect class="cls-4" x="-108.7" y="-49.1" width="353.3" height="1" transform="translate(33.4 27.5) rotate(-30)"/><rect class="cls-4" x="-106" y="-59" width="314.1" height="1" transform="translate(36.1 17.7) rotate(-30)"/><rect class="cls-4" x="-103.4" y="-68.8" width="274.8" height="1" transform="translate(38.7 7.9) rotate(-30)"/></g></g><path class="cls-5" d="M371.9,245.1l-43.4-25.1c-2.1-1.2-4.4-.8-5.2.8s.3,4,2.4,5.2l5.7,3.3c2.1,1.2,3.2,3.6,2.4,5.2s-3.1,2-5.2.8l-12.4-7.1c-2.1-1.2-4.4-.8-5.2.8s.3,4,2.4,5.2l43.4,25.1c2.1,1.2,4.4.8,5.2-.8s-.3-4-2.4-5.2l-11.8-6.8c-2.1-1.2-3.2-3.6-2.4-5.2s3.1-2,5.2-.8l18.6,10.7c2.1,1.2,4.4.8,5.2-.8S374,246.4,371.9,245.1Z"/><path class="cls-5" d="M98.2,90.3l50,28.9c2.1,1.2,4.4.8,5.1-.8s-.3-3.9-2.4-5.1l-12.8-7.4c-2.1-1.2-3.1-3.5-2.4-5.1s3.1-2,5.1-.8l8,4.6c2.1,1.2,4.4.8,5.1-.8s-.3-3.9-2.4-5.1L119.3,79.9c-2.1-1.2-4.4-.8-5.1.8s.3,3.9,2.4,5.1L122,89c2.1,1.2,3.1,3.5,2.4,5.1s-3.1,2-5.1.8L101,84.4c-2.1-1.2-4.4-.8-5.1.8S96.1,89.1,98.2,90.3Z"/><path class="cls-5" d="M253.5,303.7l-30.1-17.4c-1.5-.8-3.1-.6-3.6.6s.2,2.8,1.7,3.6l3.9,2.3c1.5.8,2.2,2.5,1.7,3.6s-2.2,1.4-3.6.6L215,292c-1.5-.8-3.1-.6-3.6.6s.2,2.8,1.7,3.6l30.1,17.4c1.5.8,3.1.6,3.6-.6s-.2-2.8-1.7-3.6l-8.2-4.7c-1.5-.8-2.2-2.5-1.7-3.6s2.2-1.4,3.6-.6l12.8,7.4c1.5.8,3.1.6,3.6-.6S255,304.6,253.5,303.7Z"/><path class="cls-5" d="M67.4,145.9l34.6,20c1.4.8,3,.6,3.6-.5s-.2-2.7-1.6-3.6l-8.9-5.1c-1.4-.8-2.2-2.4-1.6-3.6s2.1-1.4,3.6-.5l5.6,3.2c1.4.8,3,.6,3.6-.5s-.2-2.7-1.6-3.6L82,138.7c-1.4-.8-3-.6-3.6.5s.2,2.7,1.6,3.6l3.8,2.2c1.4.8,2.2,2.4,1.6,3.6s-2.1,1.4-3.6.5l-12.6-7.3c-1.4-.8-3-.6-3.6.5S66,145,67.4,145.9Z"/><path class="cls-5" d="M368.6,143l50.3,29c2.1,1.2,4.4.8,5.2-.8s-.3-4-2.4-5.2l-12.9-7.4c-2.1-1.2-3.2-3.5-2.4-5.2s3.1-2,5.2-.8l8.1,4.7c2.1,1.2,4.4.8,5.2-.8s-.3-4-2.4-5.2l-32.6-18.8c-2.1-1.2-4.4-.8-5.2.8s.3,4,2.4,5.2l5.5,3.2c2.1,1.2,3.2,3.5,2.4,5.2s-3.1,2-5.2.8L371.3,137c-2.1-1.2-4.4-.8-5.2.8S366.5,141.8,368.6,143Z"/><path class="cls-5" d="M143.7,57.4l35,20.2c1.4.8,3.1.6,3.6-.6s-.2-2.8-1.7-3.6l-9-5.2c-1.4-.8-2.2-2.5-1.7-3.6s2.1-1.4,3.6-.6l5.6,3.2c1.4.8,3.1.6,3.6-.6s-.2-2.8-1.7-3.6L158.5,50.2c-1.4-.8-3.1-.6-3.6.6s.2,2.8,1.7,3.6l3.8,2.2c1.4.8,2.2,2.5,1.7,3.6s-2.1,1.4-3.6.6l-12.8-7.4c-1.4-.8-3.1-.6-3.6.6S142.3,56.6,143.7,57.4Z"/><path class="cls-6" d="M127.9,10.6l7.1,4.1h.5l.3-.2a3.6,3.6,0,0,1,2.8-2.3c3-.5,6.9,1.8,6.9,1.8h.5a.4.4,0,0,0,.3-.3,8,8,0,0,1,5.5-5c2.4-.6,5.4.1,8.6,2a13,13,0,0,1,5.7,5.8,9.7,9.7,0,0,1-.2,7.9.5.5,0,0,0,.1.5l.5.4a12.3,12.3,0,0,1,6.7,4.2,11,11,0,0,1,2,7.9.7.7,0,0,0,.4.7l13.9,8c.3.2.7.1.8-.1a.7.7,0,0,0-.4-.8l-13.4-7.8a12,12,0,0,0-2.3-8.4,13.6,13.6,0,0,0-6.8-4.6,10.6,10.6,0,0,0-.1-8.1,14.6,14.6,0,0,0-6.4-6.5c-3.6-2-6.8-2.8-9.6-2.2a8.8,8.8,0,0,0-5.9,5.1c-1.3-.7-4.5-2.1-7.2-1.6a4.3,4.3,0,0,0-3.3,2.3l-6.5-3.7c-.3-.2-.7-.1-.8.1A.7.7,0,0,0,127.9,10.6Z"/><path class="cls-6" d="M283.3,66.5l7.1,4.1h.5l.3-.2a3.6,3.6,0,0,1,2.8-2.3c3-.5,6.9,1.8,6.9,1.8h.5a.4.4,0,0,0,.3-.3,8,8,0,0,1,5.5-5c2.4-.6,5.4.1,8.6,2a13,13,0,0,1,5.7,5.8,9.7,9.7,0,0,1-.2,7.9.5.5,0,0,0,.1.5l.5.4a12.3,12.3,0,0,1,6.7,4.2,11,11,0,0,1,2,7.9.7.7,0,0,0,.4.7l13.9,8c.3.2.7.1.8-.1a.7.7,0,0,0-.4-.8l-13.4-7.8a12,12,0,0,0-2.3-8.4,13.6,13.6,0,0,0-6.8-4.6,10.6,10.6,0,0,0-.1-8.1,14.6,14.6,0,0,0-6.4-6.5c-3.6-2-6.8-2.8-9.6-2.2a8.8,8.8,0,0,0-5.9,5.1c-1.3-.7-4.5-2.1-7.2-1.6a4.3,4.3,0,0,0-3.3,2.3l-6.5-3.7c-.3-.2-.7-.1-.8.1A.7.7,0,0,0,283.3,66.5Z"/><path class="cls-6" d="M64.7,102.3l4.1,2.4h.5a2.1,2.1,0,0,1,1.6-1.3c1.7-.3,4,1,4,1h.3l.2-.2a4.6,4.6,0,0,1,3.2-2.9,7,7,0,0,1,5,1.2,7.5,7.5,0,0,1,3.3,3.3,5.6,5.6,0,0,1-.1,4.6.3.3,0,0,0,0,.3l.3.2a7.1,7.1,0,0,1,3.9,2.4,6.4,6.4,0,0,1,1.1,4.6.4.4,0,0,0,.2.4l8.1,4.7c.2.1.4.1.5-.1a.4.4,0,0,0-.2-.5l-7.8-4.5a7,7,0,0,0-1.3-4.9,7.9,7.9,0,0,0-3.9-2.6,6.1,6.1,0,0,0-.1-4.7,8.5,8.5,0,0,0-3.7-3.8,7.8,7.8,0,0,0-5.6-1.3,5.1,5.1,0,0,0-3.4,2.9,7.6,7.6,0,0,0-4.2-1,2.5,2.5,0,0,0-1.9,1.4l-3.8-2.2c-.2-.1-.4-.1-.5.1A.4.4,0,0,0,64.7,102.3Z"/><path class="cls-6" d="M268.7,287.9l7.5,4.4h.5l.3-.3a3.8,3.8,0,0,1,3-2.5c3.2-.5,7.3,1.9,7.4,1.9h.5a.4.4,0,0,0,.3-.3,8.5,8.5,0,0,1,5.9-5.4c2.6-.6,5.7.2,9.1,2.1a13.9,13.9,0,0,1,6,6.2,10.4,10.4,0,0,1-.2,8.4.6.6,0,0,0,.1.6,1,1,0,0,0,.5.4A13.1,13.1,0,0,1,317,308a11.7,11.7,0,0,1,2.1,8.4.8.8,0,0,0,.4.7l14.8,8.6c.3.2.7.1.8-.1a.7.7,0,0,0-.4-.8l-14.3-8.3a12.8,12.8,0,0,0-2.4-9,14.5,14.5,0,0,0-7.2-4.9,11.2,11.2,0,0,0-.1-8.6,15.6,15.6,0,0,0-6.8-7c-3.8-2.2-7.3-3-10.2-2.3a9.4,9.4,0,0,0-6.3,5.4c-1.4-.7-4.8-2.2-7.7-1.8a4.6,4.6,0,0,0-3.5,2.5l-6.9-4c-.3-.2-.7-.1-.8.1A.7.7,0,0,0,268.7,287.9Z"/><path class="cls-7" d="M30.8,244.3S19.6,260.1,29.4,268l92.6,57.3s10.3,5.4,22.3-2.3L361.9,197.5s21.3-9.7-2.3-27.2Z"/><g class="cls-8"><path class="cls-9" d="M32.7,236.7c-8.6,4.9-8.7,13.2-.2,18.3l82.8,50.4c8.5,5.1,22.4,5.3,31,.4L364.1,181.3c8.6-4.9,8.6-13,.1-18l-85.4-49.6c-8.6-5-22.6-5-31.2-.1Z"/><path class="cls-10" d="M32.7,236.7c-8.6,4.9-8.7,13.2-.2,18.3l82.8,50.4c8.5,5.1,22.4,5.3,31,.4L364.1,181.3c8.6-4.9,8.6-13,.1-18l-85.4-49.6c-8.6-5-22.6-5-31.2-.1Z"/></g><path class="cls-11" d="M27.8,230.9s-11.5,16.2-1.5,24.3l95.3,59s10.6,5.5,22.9-2.4l224-129.1s21.9-10-2.4-28Z"/><path class="cls-12" d="M32.7,226.7c-8.6,4.9-8.7,13.2-.2,18.3l82.8,50.4c8.5,5.1,22.4,5.3,31,.4L364.1,171.3c8.6-4.9,8.6-13,.1-18l-85.4-49.6c-8.6-5-22.6-5-31.2-.1Z"/><path class="cls-13" d="M32.7,226.7c-8.6,4.9-8.7,13.2-.2,18.3l82.8,50.4c8.5,5.1,22.4,5.3,31,.4L364.1,171.3c8.6-4.9,8.6-13,.1-18l-85.4-49.6c-8.6-5-22.6-5-31.2-.1Z"/><polygon class="cls-14" points="53.7 222.8 155.7 281.7 350.9 170.2 248.9 111.7 53.7 222.8"/><path class="cls-12" d="M321,171.5l-71.5-41.3-48,27.7,47.3-4h.7c.2.1.3.2.2.4l-3.9,22,25.1.9c.4,0,.8.2.8.5l-.7,22.6Zm-41.3-8.5a15.2,15.2,0,0,1,13.7,0c3.8,2.2,3.8,5.7,0,7.9a15.2,15.2,0,0,1-13.7,0C275.9,168.8,275.9,165.3,279.7,163.1Z"/><path class="cls-9" d="M336.4,170.7l-85.5-49.4a3.1,3.1,0,0,0-2.8,0L181.3,160a.9.9,0,0,0,0,1.6l85.5,49.4a3.1,3.1,0,0,0,2.8,0l66.9-38.6A.9.9,0,0,0,336.4,170.7Zm-65.6,6.6-25.1-.9,3.9-22c0-.1-.1-.3-.2-.4h-.7l-47.3,4,48-27.7L321,171.5l-50.1,28.9.7-22.6C271.6,177.6,271.3,177.4,270.9,177.4Z"/><path class="cls-9" d="M279.7,171a15.2,15.2,0,0,0,13.7,0c3.8-2.2,3.8-5.7,0-7.9a15.2,15.2,0,0,0-13.7,0C275.9,165.3,275.9,168.8,279.7,171Z"/><path class="cls-14" d="M97.9,265.1c-4.6,2.7-12.1,2.7-16.8,0s-4.6-7,0-9.7,12.1-2.7,16.8,0S102.5,262.4,97.9,265.1Z"/><line class="cls-15" x1="299.2" y1="127.4" x2="319.7" y2="139"/><path class="cls-16" d="M296.8,125.9a1.3,1.3,0,0,1-1.2,0,.4.4,0,0,1,0-.7,1.3,1.3,0,0,1,1.2,0A.4.4,0,0,1,296.8,125.9Z"/><path class="cls-9" d="M153.9,272.8,70.6,224.6c-1.3-.8-1.2-2.1.4-3l26-15a5.8,5.8,0,0,1,5.2-.2l83.4,48.1c1.3.8,1.2,2.1-.4,3l-26,15A5.8,5.8,0,0,1,153.9,272.8Z"/><path class="cls-17" d="M297.9,244.8s3.1,6.3,4.8,7.1,3.2.4,2.7-1.6-2.8-7.7-2.8-7.7S297.9,241.9,297.9,244.8Z"/><path class="cls-17" d="M305.7,233.7s-3.2,1.5,0,3.9,6.9,5.5,6.9,5.5,1.2-.3.3-2.1a43.6,43.6,0,0,0-3.7-5.4S307.7,232.9,305.7,233.7Z"/><path class="cls-18" d="M290.2,203l-4.9-7,7.9-5.1L314,205.7a5.4,5.4,0,0,1,.7,4.6s-5,24.8-5.4,25.3-4.2-1.4-4.2-1.4.4-14.8,1.2-19.5-1.4-4.4-1.4-4.4l-4.4-2-9.2-4.1s8,11.1,9.2,13,.9,5.3.9,5.3l1.5,22.3c-1.7,2.8-4.8,0-4.8,0l-4.2-21.2s.1-1.9-3.6-5.6L276,203.7s-3.3-2.1-2.8-10.1"/><path class="cls-19" d="M268.8,175.9c3-18.7,15.3-18.3,15.3-18.3l6.4-.4s8.2-2.7,6.1,14.3c0,0,.2,2.3-3.3,3.2,0,0-1.3,14.2.5,16.6,0,0-10.1,6.3-12.8,7.1s-8.6-.2-8.4-9.6"/><polygon class="cls-20" points="292 206.3 312.5 194.4 299.9 187.1 279.3 199 292 206.3"/><polygon class="cls-21" points="292 206.3 303.8 193.9 323.4 182.7 312.8 194.2 292 206.3"/><path class="cls-22" d="M289.3,157.6s2,5.1-1.6,6.5c-5.6-.6-5.1-6.3-5.1-6.3h1.1s5.1-.4,5.7,0"/><path class="cls-22" d="M269.4,176.1l-.3,8.3a4.6,4.6,0,0,0,2.1,3.3A52.3,52.3,0,0,0,286,195s3.6.7,4.4,1.7,2.9,2.2,4.3,1.1,0-1.3,0-1.3,1.6.3.6-.8a6.4,6.4,0,0,0-2.6-1.5s1.2-.6.4-.8-4.3.1-5.7-.7-11.1-6.2-12.2-8.2,1.1-6.1,1.1-6.1Z"/><path class="cls-22" d="M285.7,154.5l-1,3.2s.5,2.3,2.5,2.6c0,0,1,0,1.6-1.9s.9-1.8,2.2-.6,3.6-.7,4.5-2.1,2.8-4.8,2.7-6.8-6.8-2.9-6.8-2.9l-5.1,2.2S284.3,150.1,285.7,154.5Z"/><path d="M289,151.4l1.9-3.5a3,3,0,0,1,3.8,0c1.9,1.6,5.3,1.2,6.1-1.1s-.6-1.7-1.3-2.1-4.1-6.6-8.7-4.6c0,0-2.6,1.2-2.3,2.7,0,0-3.5-2.2-4.5,2.2s-1,9.2.7,9.4a1.9,1.9,0,0,0,2.3-2.5c-.5-1.4-.5-2.8.7-1.7Z"/><path class="cls-23" d="M275,182.8a20.1,20.1,0,0,1,1.4-4.5s3.4-7.4,2.4-13.3-3.8-3.3-3.8-3.3l-.3.3a26.7,26.7,0,0,0-5.9,13.8s-1.7,7.6,0,9.7c4.3,5.3,19.4,10.4,19.4,10.4h.5l1-2.8C285.3,191.8,274.8,184.5,275,182.8Z"/><path class="cls-22" d="M295.3,188.4a2.5,2.5,0,0,1,.8,1.8s-.7,2.5.1,3.3.7-1.7,1.4-2.1.2,2.1,1.4,3.1,1-.4,1-.4,1,.3,1.3,0,.1-1.3.1-1.3.3.7.8,0-.5-1.6-.8-2.1-2.3-1.8-3.2-3.1l-2.7.9"/><path class="cls-23" d="M294.2,157.9s2.4,7.1-1.1,16.6a36.4,36.4,0,0,0-.2,4.2c0,2.5,0,5.2,3,10.9l2.8-1.9-2.7-7.4s.5-7.5.9-12.4S296.4,159.6,294.2,157.9Z"/><path class="cls-24" d="M251.8,124.5c8.2-2.1,16.9-.5,19.5,3.6s-2,9.2-10.2,11.3-16.9.5-19.5-3.6S243.6,126.6,251.8,124.5Z"/><path class="cls-25" d="M245.2,64.8v8.1s3.1,5.3,4.4,2.9.8-11.9.8-11.9Z"/><path class="cls-26" d="M255.9,53.8s-4.4-1.4-6.7.1a9.7,9.7,0,0,0-3.9,6.4,22,22,0,0,0-.2,5.5s.4.6,2.9.4S255.9,53.8,255.9,53.8Z"/><path class="cls-17" d="M251.4,126.1s-4,2.7-4.6,3.4.8,2.6,2.6,2.1,5.6-2.4,5.7-3.4a8.4,8.4,0,0,0-.3-2.5Z"/><path class="cls-17" d="M261.4,131.6s-3.8,2.9-4.4,3.6,1,2.5,2.7,1.9,5.3-2.6,5.4-3.6a8.4,8.4,0,0,0-.4-2.5Z"/><path class="cls-27" d="M266.2,88.4s.1,42.8-.4,43.2-2.4,1.3-3.4,1a1.8,1.8,0,0,1-1.3-.8l-4.9-40.8Z"/><path class="cls-27" d="M258,86.9s-1.8,39.6-2.3,40a7,7,0,0,1-3.4.2,1.8,1.8,0,0,1-1.2-.9l-2-39.6Z"/><path class="cls-28" d="M258.2,53s-6.1-1-8.2,1-2.7,8-2.7,10.2,1.1,23.4,1.1,23.9,3,4.1,9.3,4.1,9.1-3.4,9.6-4.6-.6-16.7-.4-17.2.4-12.9-.8-14.8S260.7,53.3,258.2,53Z"/><path class="cls-29" d="M254.4,50.9l.7,3s-2.4,1-2.8,2.4,1.8,3.1,4.6,1.2a17.4,17.4,0,0,0,4-3.4l-.3-5.1Z"/><path class="cls-29" d="M249.1,43.8c.3,6.3,2.7,9.9,7.7,8.8s5.7-5.5,5.6-9.6a6.9,6.9,0,0,0-7-6.8C251.8,36.4,248.9,39.8,249.1,43.8Z"/><path class="cls-30" d="M248.3,40.5a3.6,3.6,0,0,0,3.8,2.1c2.5-.1,4.1-.8,4.5-.4s0,2.6.8,2.7,3.6,2,4.9,1,1.2-3.9.7-6.5-5-5.9-8.4-4.7-4,2.3-4.7,2.4-2.1.6-2.1,1.4A3.9,3.9,0,0,0,248.3,40.5Z"/><polygon class="cls-31" points="257.4 73.9 229.4 57.8 229.4 82.4 257.4 98.6 257.4 73.9"/><path class="cls-29" d="M228.6,69.6s3.1-1.1,4.1.7.7,3.7-.4,4.3-3.4.5-3.7,0S227.2,70.4,228.6,69.6Z"/><path class="cls-29" d="M264.6,70.3s3.2,6.6,3.2,7.4-5.2,3.4-6.5,4.5a7.9,7.9,0,0,1-3,1.4s-4.1-1.4-5.9-.1.1,4.8,2.4,5.3a7,7,0,0,0,5.2-1c.7-.6,8.3-3.2,11.3-5.6s1.8-6.3,1.4-7.5-1.8-7.1-1.8-7.1Z"/><path class="cls-26" d="M262.5,55.2c.7-.5,4-1.5,5.6,2.6s3.7,10.5,3.6,10.9a3.6,3.6,0,0,1-2.1,2.2c-1.4.7-4.5,1.8-5.5.1s-3.2-10.7-3.3-12.4A3.9,3.9,0,0,1,262.5,55.2Z"/><path class="cls-31" d="M217.6,224.8l-66.9-38.6a4.6,4.6,0,0,1-1.9-3.7v-26c0-1.4.9-2.1,1.9-1.5l66.9,38.6a4.6,4.6,0,0,1,1.9,3.7v26C219.5,224.7,218.6,225.4,217.6,224.8Z"/><polygon class="cls-32" points="212.8 202.9 175.9 181.6 175.9 177.3 212.8 198.6 212.8 202.9"/><polygon class="cls-32" points="209 207 175.9 187.9 175.9 183.6 209 202.7 209 207"/><polygon class="cls-32" points="205.3 211.2 175.9 194.2 175.9 189.9 205.3 206.9 205.3 211.2"/><rect class="cls-33" x="168.9" y="195" width="10.7" height="0.94" rx="0.4" ry="0.4" transform="translate(-60.6 79.6) rotate(-22)"/><path class="cls-32" d="M170.3,182.7c0,6.1-4.3,8.6-9.5,5.5s-9.5-10.4-9.5-16.5,4.3-8.6,9.5-5.5S170.3,176.6,170.3,182.7Z"/><path class="cls-34" d="M140.5,194.7c3-3.5,9,1.4,10.6,2.7l1.5,1.4h.6c1.8-.5,6.6.4,7.9.9a4.1,4.1,0,0,0,2.8-.2c3.7-1.6,7.7-.8,6.2,1.7s-6.4,2-7.2,1.5-3.5.8-6.5.9-5-.3-6-1.2-3.9-1.5-7.4-3.2S140.5,194.7,140.5,194.7Z"/><polygon class="cls-35" points="160.7 254 160.6 268.8 157.5 270.6 157.6 255.9 160.7 254"/><polygon class="cls-36" points="157.6 255.9 157.5 270.6 154.4 268.8 154.4 254 157.6 255.9"/><polygon class="cls-37" points="160.7 254 157.6 255.9 154.4 254 157.6 252.2 160.7 254"/><polygon class="cls-35" points="182 241.6 182 256.3 178.9 258.1 178.9 243.4 182 241.6"/><polygon class="cls-36" points="178.9 243.4 178.9 258.1 175.7 256.3 175.8 241.6 178.9 243.4"/><polygon class="cls-37" points="182 241.6 178.9 243.4 175.8 241.6 178.9 239.8 182 241.6"/><polygon class="cls-35" points="92.2 214.2 92.2 228.9 89.1 230.7 89.1 216 92.2 214.2"/><polygon class="cls-36" points="89.1 216 89.1 230.7 85.9 228.9 86 214.2 89.1 216"/><polygon class="cls-37" points="92.2 214.2 89.1 216 86 214.2 89.1 212.3 92.2 214.2"/><path class="cls-32" d="M183.6,240.3v1.2l-.2.2-.2.2h0l-.3.3-.2.2-.2.2-.3.2-.3.2L162,254.2l-.7.3h-.2l-.5.2h-6.7l-.8-.3-.4-.2h-.2l-.5-.3L86.4,215.8a3.5,3.5,0,0,1-2.1-2.9v3a3.5,3.5,0,0,0,2.1,2.9l65.7,38.4.5.3h.5l.8.3h6.7l.6-.2h.2l.7-.3,19.5-11.3h.3l.3-.2.2-.2.2-.2h0l.3-.3h0v-.2h.1l.2-.2h0V244h.1v-.2h0v-.2h0v-2.8Z"/><path class="cls-31" d="M181.5,237.2c2.7,1.6,2.8,4.1,0,5.7L162,254.2a10.9,10.9,0,0,1-9.9,0L86.4,215.8c-2.7-1.6-2.8-4.1,0-5.7l19.5-11.3a10.9,10.9,0,0,1,9.9,0Z"/><path class="cls-38" d="M171.9,224c-7.4-4.1-25.7-7.2-28.9-8-2.8,8.5.3,15.3,9.8,16.6,3.7.5,13.2.5,18.4-1.5l6.4,3.7S177.7,227.3,171.9,224Z"/><path class="cls-34" d="M174.4,192.7a2.6,2.6,0,0,0-1.2,2.1c.1.4.5.8.5,1.2s-.2.5-.5.9a2.7,2.7,0,0,0-.6,2.7c.4,1.3-.9,2.2-1.8,2.9l-2.9,2.4-3.7,2.8c-.6.5-.9.6-1.1,1.3s-.4,1.7-.7,2.5-.7,1.7-.4,2.4,3.4,1.7,4.8.9,2.2-2.4,3.1-3.6,3.9-5.3,5.7-8.1,3-3.9,3-6.2S176.7,191,174.4,192.7Z"/><path class="cls-34" d="M153.8,186.2c0,.3-.1.6-.1,1.1l-.2,1.3h-.3l-2.5-.2a7.3,7.3,0,0,1-2.8-1l.5-1.7a.2.2,0,0,0,0-.2l.3.2h.3a6.4,6.4,0,0,1,2.2.1,11.4,11.4,0,0,0,2.5.4Z"/><path class="cls-39" d="M143.2,215.4l.3-.4a9.1,9.1,0,0,0,2,2.1,15.1,15.1,0,0,0,5.7,2.4,13.5,13.5,0,0,0,6.5.4,8.7,8.7,0,0,0,2.9-1.2,2.1,2.1,0,0,1,.4.9l-1.5.9-1.2.4-.6.2a13.5,13.5,0,0,1-6.5-.4,24.9,24.9,0,0,1-3.7-1.2,7.8,7.8,0,0,1-1.9-1.2l-1.1-1-.3-.3-.5-.8v-.2h0a1,1,0,0,1-.1-.5Z"/><path class="cls-12" d="M161.9,195.1h0Z"/><path class="cls-39" d="M159.4,209.6l-1.7-3.8-1.1.4h-.2l-2.2.2h-.6l-1.8-.2a19.7,19.7,0,0,1-5.7-2,20.2,20.2,0,0,1-5-3.6l.2.3a12.8,12.8,0,0,1,1.5,5.8v.8l1.8,1,3.7,1.8,2.9.9,2.3.5h3.3a7.3,7.3,0,0,0,3.1-1.1Z"/><path class="cls-39" d="M156.9,204l-.3-.6h-.6a8.7,8.7,0,0,1-2.4.3h-.8l-1.5-.2a19.9,19.9,0,0,1-5.8-2,20.2,20.2,0,0,1-5-3.6l-.7-.7.2.8.2.7.3.3a20.2,20.2,0,0,0,5,3.6,19.7,19.7,0,0,0,6,2.1l1.8.2h.3a8.7,8.7,0,0,0,2.4-.3h.3l.4-.2h.2Z"/><path class="cls-33" d="M156.3,191l1,.5-1-.5Z"/><path class="cls-33" d="M161.4,213.2l-1.4-2.6a7.3,7.3,0,0,1-3.1,1.1h-3.3l-2.3-.5-2.9-.9-3.7-1.8-1.8-1,.2,4c-.6,1.4-.5,2.5.3,3.3h.2a9.1,9.1,0,0,0,2,2.1,15.1,15.1,0,0,0,5.7,2.4,13.5,13.5,0,0,0,6.5.4,8.7,8.7,0,0,0,2.9-1.2l.3-.3a3.3,3.3,0,0,0,.7-3.5Z"/><path class="cls-33" d="M165,201.6l-1.3-3.1-1.8-3.3h-.1a14.1,14.1,0,0,0-4.4-3.5h-.2a10.4,10.4,0,0,1-1.1-2.2l-.4-.3a5.2,5.2,0,0,0-1.7-.5h-.4l-2.8-.2a7.4,7.4,0,0,1-3.1-1.3l-.4-.3-.4.7-.3.7v.4h-2.4l-1.5.6a5.2,5.2,0,0,0-1.8,1.7,9.5,9.5,0,0,0-1.2,4.6c0,.4,0,.7.1,1.1v.6l.7.7a20.2,20.2,0,0,0,5,3.6,19.9,19.9,0,0,0,5.8,2l1.5.2h.8a8.7,8.7,0,0,0,2.4-.3h.6l.3.6v.3l.7,1.6,1.7,3.8.5,1,1.4,2.6.8,1a6.5,6.5,0,0,0,3.5-.7h0a4.6,4.6,0,0,0,1.9-2.1,7,7,0,0,0,.5-1.3h0a8.9,8.9,0,0,0,.3-2ZM156.3,191h0l1,.5Z"/><path class="cls-33" d="M156.4,204.5h-.3a8.7,8.7,0,0,1-2.4.3h-.3l-1.8-.2a19.7,19.7,0,0,1-6-2.1,20.2,20.2,0,0,1-5-3.6l-.3-.3a15.3,15.3,0,0,0,.8,1.9,20.2,20.2,0,0,0,5,3.6,19.7,19.7,0,0,0,5.7,2l1.8.2h.6l2.2-.2h.2l1.1-.4-.7-1.6h-.2Z"/><path class="cls-34" d="M158.8,177.4s1.4,7.9-3.7,9.2-4.7-5.9-4.7-5.9l2.8-4.4Z"/><path class="cls-40" d="M159.2,176.6s-.1-6.5-5.5-7.3-10,1.6-10.2,8.9,6.4,10,11.6,8.4a23,23,0,0,1-.9-5.2c0-2.1,1.1-3.7,1.8-.5A14.6,14.6,0,0,0,159.2,176.6Z"/><path class="cls-40" d="M146.6,174.6a7.4,7.4,0,0,0-4.3-2.9c-2.7-.5-6.3.5-6,5.1s1.5,15.7-2.4,18.1c0,0,2.9-.9,3.6-2.6a7.8,7.8,0,0,1-1.9,5.5c3.1-2.5,5.8-5.1,6.1-9.3a17.1,17.1,0,0,0-.3-4.9c-.4-1.8-.9-3.8-.1-5.5s1.4-1.8,2.2-.8,3.1-1.4,3.1-1.4Z"/></svg>