<?xml version="1.0" encoding="UTF-8"?>
<svg width="35px" height="35px" viewBox="0 0 35 35" version="1.1" xmlns="http://www.w3.org/2000/svg" xmlns:xlink="http://www.w3.org/1999/xlink">
    <!-- Generator: Sketch 44.1 (41455) - http://www.bohemiancoding.com/sketch -->
    <title>Group 23</title>
    <desc>Created with Sketch.</desc>
    <defs></defs>
    <g id="Page-1" stroke="none" stroke-width="1" fill="none" fill-rule="evenodd">
        <g id="sv.co/stats" transform="translate(-846.000000, -1429.000000)" fill-rule="nonzero" fill="#0F89BF">
            <g id="Group-23" transform="translate(846.000000, 1429.000000)">
                <path d="M34.9396809,3.46544681 C34.8304362,3.24993617 34.5944468,3.1287766 34.3564468,3.16601064 L31.3743723,3.62570213 L31.8340638,0.64362766 C31.8708511,0.404957447 31.7500638,0.169638298 31.5346277,0.060393617 C31.319117,-0.0488510638 31.057883,-0.00722340426 30.8871277,0.163606383 L27.4255532,3.62518085 C27.3416277,3.70918085 27.2865957,3.81768085 27.2685745,3.93504255 L26.7206383,7.48962766 L24.739117,9.47114894 C22.0095638,6.937 18.4762021,5.54712766 14.7265851,5.54712766 C10.7899043,5.54712766 7.09092553,7.07811702 4.31103191,9.85801064 C1.53098936,12.6379787 0,16.3369574 0,20.2736383 C0,24.2103191 1.53098936,27.9092234 4.31088298,30.6891915 C7.09085106,33.4690851 10.7898298,35 14.7264362,35 C18.6630426,35 22.3620957,33.4690106 25.1419894,30.689117 C27.921883,27.9091489 29.4528723,24.2101702 29.4528723,20.2735638 C29.4528723,17.1421064 28.4850851,14.1531064 26.6541383,11.6296064 C26.4729574,11.3798404 26.1235532,11.3242872 25.8740851,11.5055426 C25.6243936,11.6867234 25.5688404,12.0359043 25.7500213,12.2855957 C27.4417128,14.6171915 28.3358511,17.3793617 28.3358511,20.2736383 C28.3358511,27.7778617 22.2306596,33.8829787 14.7264362,33.8829787 C7.22221277,33.8829787 1.11702128,27.7778617 1.11702128,20.2736383 C1.11702128,12.7694149 7.22221277,6.6642234 14.7264362,6.6642234 C18.1776596,6.6642234 21.4305,7.938 23.9485638,10.2616277 L21.3955,12.8146915 C19.5596383,11.170734 17.2081596,10.2698936 14.7263617,10.2698936 C9.21021277,10.2698936 4.72254255,14.7576383 4.72254255,20.2737128 C4.72254255,25.7897872 9.21021277,30.2775319 14.7263617,30.2775319 C20.2425106,30.2775319 24.7301064,25.7897872 24.7301064,20.2737128 C24.7301064,18.4326383 24.2267021,16.6335638 23.2744043,15.0709255 C23.1138511,14.8075319 22.7701809,14.7240532 22.5067872,14.8846809 C22.2433936,15.0451596 22.1600638,15.3889043 22.3205426,15.6522979 C23.1660532,17.0397872 23.6130106,18.6378723 23.6130106,20.2737872 C23.6130106,25.1740106 19.6264362,29.1605851 14.7262872,29.1605851 C9.82606383,29.1605851 5.83948936,25.1740106 5.83948936,20.2737872 C5.83948936,15.3735638 9.82606383,11.3869894 14.7262872,11.3869894 C16.9102128,11.3869894 18.9807234,12.171734 20.6045745,13.605617 L18.0454787,16.1647128 C17.1090426,15.4056596 15.9498723,14.9925851 14.7262872,14.9925851 C11.8142872,14.9925851 9.44515957,17.3617128 9.44515957,20.2737872 C9.44515957,23.1858617 11.8142872,25.5549149 14.7262872,25.5549149 C17.6383617,25.5549149 20.0074149,23.1858617 20.0074149,20.2737872 C20.0074149,19.7549681 19.9323511,19.2421809 19.784383,18.7495745 C19.695617,18.4541596 19.3841915,18.2864574 19.0887766,18.3754468 C18.7933617,18.4641383 18.6258085,18.7755638 18.7146489,19.0710532 C18.831266,19.4593298 18.8903936,19.8639149 18.8903936,20.2737872 C18.8903936,22.5698617 17.0223617,24.4378936 14.7262872,24.4378936 C12.4302128,24.4378936 10.5621809,22.5698617 10.5621809,20.2737872 C10.5621809,17.9776383 12.4302128,16.1096064 14.7262872,16.1096064 C15.650883,16.1096064 16.5284149,16.4090426 17.2497128,16.9604787 L14.3313085,19.878883 C14.1131915,20.0970745 14.1131915,20.4506489 14.3313085,20.668766 C14.4403298,20.7777872 14.5833085,20.8322979 14.7262128,20.8322979 C14.869117,20.8322979 15.0120957,20.7777872 15.121117,20.668766 L25.1399787,10.6499043 C25.1434043,10.6464787 27.5101489,8.27973404 27.5101489,8.27973404 L31.064734,7.7317234 C31.1820957,7.71370213 31.2905957,7.65867021 31.3745957,7.57474468 L34.8361702,4.11317021 C35.0072234,3.94211702 35.0488511,3.68088298 34.9396809,3.46544681 L34.9396809,3.46544681 Z M28.3445638,4.2858617 L30.4700319,2.16046809 L30.1821383,4.02805319 L28.0566702,6.15352128 L28.3445638,4.2858617 L28.3445638,4.2858617 Z M30.7141383,6.65551064 L28.8466277,6.94340426 L30.9720957,4.81793617 L32.8395319,4.53004255 L30.7141383,6.65551064 L30.7141383,6.65551064 Z" id="Shape"></path>
            </g>
        </g>
    </g>
</svg>