<svg id="Layer_1" data-name="Layer 1" xmlns="http://www.w3.org/2000/svg" viewBox="0 0 35 35"><defs><style>.cls-1{fill:#0f89bf;}</style></defs><title>timeline-events-status-icon</title><path class="cls-1" d="M33.9,20.9v-.6H31a2.8,2.8,0,0,0-1.7.6v-4H31a2.8,2.8,0,0,0,2.8-2.8v-.6H31a2.8,2.8,0,0,0-1.7.6v-4H31a2.8,2.8,0,0,0,2.8-2.8V6.8H31a2.8,2.8,0,0,0-1.7.6V4.3l.8-.5h0A2,2,0,0,0,29,0h-.4a2,2,0,0,0-1.1,3.7l.8.5V7.4a2.8,2.8,0,0,0-1.7-.6H23.7v.6a2.8,2.8,0,0,0,2.8,2.8h1.7v4a2.8,2.8,0,0,0-1.7-.6H23.7v.6a2.8,2.8,0,0,0,2.8,2.8h1.7v4a2.8,2.8,0,0,0-1.7-.6H23.7v.6a2.8,2.8,0,0,0,2.8,2.8h1.7V33.9H18.1V27.1h1.7a2.8,2.8,0,0,0,2.8-2.8v-.6H19.8a2.8,2.8,0,0,0-1.7.6v-4h1.7a2.8,2.8,0,0,0,2.8-2.8v-.6H19.8a2.8,2.8,0,0,0-1.7.6v-4h1.7a2.8,2.8,0,0,0,2.8-2.8v-.6H19.8a2.8,2.8,0,0,0-2.3,1.1,2.8,2.8,0,0,0-2.3-1.1H12.4v.6a2.8,2.8,0,0,0,2.8,2.8h1.7v4a2.8,2.8,0,0,0-1.7-.6H12.4v.6a2.8,2.8,0,0,0,2.8,2.8h1.7v4a2.8,2.8,0,0,0-1.7-.6H12.4v.6a2.8,2.8,0,0,0,2.8,2.8h1.7v6.8H6.8V30.5H8.5a2.8,2.8,0,0,0,2.8-2.8v-.6H8.5a2.8,2.8,0,0,0-1.7.6v-4H8.5a2.8,2.8,0,0,0,2.8-2.8v-.6H8.5a2.8,2.8,0,0,0-2.3,1.1A2.8,2.8,0,0,0,4,20.3H1.1v.6A2.8,2.8,0,0,0,4,23.7H5.6v4A2.8,2.8,0,0,0,4,27.1H1.1v.6A2.8,2.8,0,0,0,4,30.5H5.6v3.4H0V35H32.7V33.9H29.4V23.7H31A2.8,2.8,0,0,0,33.9,20.9ZM26.5,9a1.7,1.7,0,0,1-1.6-1.1h1.6A1.7,1.7,0,0,1,28.1,9ZM31,7.9h1.6A1.7,1.7,0,0,1,31,9H29.5A1.7,1.7,0,0,1,31,7.9ZM27.7,2a.9.9,0,0,1,.9-.9H29a.9.9,0,0,1,.5,1.7l-.7.5-.7-.5A.9.9,0,0,1,27.7,2ZM26.5,15.8a1.7,1.7,0,0,1-1.6-1.1h1.6a1.7,1.7,0,0,1,1.6,1.1ZM31,14.7h1.6A1.7,1.7,0,0,1,31,15.8H29.5A1.7,1.7,0,0,1,31,14.7Zm-4.5,7.9a1.7,1.7,0,0,1-1.6-1.1h1.6a1.7,1.7,0,0,1,1.6,1.1ZM15.2,12.4a1.7,1.7,0,0,1-1.6-1.1h1.6a1.7,1.7,0,0,1,1.6,1.1Zm4.5-1.1h1.6a1.7,1.7,0,0,1-1.6,1.1H18.2A1.7,1.7,0,0,1,19.8,11.3Zm-4.5,7.9a1.7,1.7,0,0,1-1.6-1.1h1.6a1.7,1.7,0,0,1,1.6,1.1Zm4.5-1.1h1.6a1.7,1.7,0,0,1-1.6,1.1H18.2A1.7,1.7,0,0,1,19.8,18.1ZM15.2,26a1.7,1.7,0,0,1-1.6-1.1h1.6A1.7,1.7,0,0,1,16.8,26Zm4.5-1.1h1.6A1.7,1.7,0,0,1,19.8,26H18.2A1.7,1.7,0,0,1,19.8,24.8ZM4,22.6a1.7,1.7,0,0,1-1.6-1.1H4a1.7,1.7,0,0,1,1.6,1.1Zm4.5-1.1h1.6a1.7,1.7,0,0,1-1.6,1.1H6.9A1.7,1.7,0,0,1,8.5,21.5ZM4,29.4a1.7,1.7,0,0,1-1.6-1.1H4a1.7,1.7,0,0,1,1.6,1.1Zm4.5-1.1h1.6a1.7,1.7,0,0,1-1.6,1.1H6.9A1.7,1.7,0,0,1,8.5,28.2ZM31,22.6H29.5A1.7,1.7,0,0,1,31,21.5h1.6A1.7,1.7,0,0,1,31,22.6Z"/><rect class="cls-1" x="33.9" y="33.9" width="1.1" height="1.13"/><rect class="cls-1" x="3.4" y="31.6" width="1.1" height="1.13"/><rect class="cls-1" x="7.9" y="31.6" width="1.1" height="1.13"/><rect class="cls-1" x="14.7" y="31.6" width="1.1" height="1.13"/><rect class="cls-1" x="19.2" y="31.6" width="1.1" height="1.13"/><rect class="cls-1" x="26" y="31.6" width="1.1" height="1.13"/><rect class="cls-1" x="30.5" y="31.6" width="1.1" height="1.13"/></svg>