<svg id="b029def0-0047-4ef2-8a25-e86f179f9619" data-name="Layer 1" xmlns="http://www.w3.org/2000/svg" viewBox="0 0 400 266.7"><title>enroll-pattern</title><rect x="266.65" width="66.68" height="66.68" fill="#00345b" stroke="#11172b" stroke-linejoin="round" stroke-width="2"/><path d="M266.65,0h66.68a0,0,0,0,1,0,0V0a66.68,66.68,0,0,1-66.68,66.68h0a0,0,0,0,1,0,0V0A0,0,0,0,1,266.65,0Z" fill="#005ca1" stroke="#11172b" stroke-linejoin="round" stroke-width="2"/><rect x="200.03" y="0.03" width="66.65" height="66.62" fill="#f8c300" stroke="#11172b" stroke-linejoin="round" stroke-width="2"/><rect x="50.01" y="66.71" width="99.99" height="99.99" fill="#f8c300" stroke="#11172b" stroke-linejoin="round" stroke-width="2"/><rect x="75.01" y="66.71" width="75" height="75" fill="#db261e" stroke="#11172b" stroke-linejoin="round" stroke-width="2"/><path d="M75,66.71h0a75,75,0,0,0,75,75h0v-75Z" fill="#e47a1e" stroke="#11172b" stroke-linejoin="round" stroke-width="2"/><polygon points="150.01 266.7 150.01 116.71 300 116.71 150.01 266.7" fill="#f0af9a" stroke="#11172b" stroke-linejoin="round" stroke-width="2"/><polygon points="175.01 141.71 150 116.69 150 266.7 175.01 266.7 175.01 141.71" fill="#865040" stroke="#11172b" stroke-linejoin="round" stroke-width="2"/><polygon points="300 141.71 175.01 141.71 175.01 266.7 200.01 266.7 300 166.71 300 141.71" fill="#b86752" stroke="#11172b" stroke-linejoin="round" stroke-width="2"/><polygon points="300 166.7 200.01 166.7 200.01 266.7 250 266.7 300 216.7 300 166.7" fill="#865040" stroke="#11172b" stroke-linejoin="round" stroke-width="2"/><polygon points="225 216.7 300 141.71 300 116.71 200 216.7 225 216.7" fill="#005ca1" stroke="#11172b" stroke-linejoin="round" stroke-width="2"/><polygon points="199.98 216.7 299.99 116.7 299.99 91.7 174.98 216.7 199.98 216.7" fill="#56bcee" stroke="#11172b" stroke-linejoin="round" stroke-width="2"/><path d="M225,191.7h0a75,75,0,0,0-75,75h75Z" fill="#e47a1e" stroke="#11172b" stroke-linejoin="round" stroke-width="2"/><path d="M196.82,227.9l13.12-7.57-8.12-25A74.77,74.77,0,0,0,180.92,206Z" fill="#e9954b" stroke="#11172b" stroke-linejoin="round" stroke-width="2"/><path d="M164.33,222.62a74.9,74.9,0,0,0-10.67,20.9l23.18,7.53,6.65-14.51Z" fill="#e9954b" stroke="#11172b" stroke-linejoin="round" stroke-width="2"/><path d="M225,213.1h0a0,0,0,0,1,0,0v53.6a0,0,0,0,1,0,0h-53.6a0,0,0,0,1,0,0v0A53.6,53.6,0,0,1,225,213.1Z" fill="#db261e" stroke="#11172b" stroke-linejoin="round" stroke-width="2"/><path d="M212.6,243.37l7.68-3.47-4.58-26a53.32,53.32,0,0,0-15.86,5.46Z" fill="#e2514b" stroke="#11172b" stroke-linejoin="round" stroke-width="2"/><path d="M176.82,243.2l22,10.75,4-8.65-16.39-15.83A53.75,53.75,0,0,0,176.82,243.2Z" fill="#e2514b" stroke="#11172b" stroke-linejoin="round" stroke-width="2"/><path d="M196.69,262.72l-24.76-3.48a54,54,0,0,0-.52,7.46h26.48Z" fill="#e2514b" stroke="#11172b" stroke-linejoin="round" stroke-width="2"/><polygon points="300 191.7 225 191.7 225 266.7 300 191.7" fill="#a9d572" stroke="#11172b" stroke-linejoin="round" stroke-width="2"/><polygon points="225 266.7 300 266.7 300 191.7 225 266.7" fill="#326a27" stroke="#11172b" stroke-linejoin="round" stroke-width="2"/><polygon points="246.4 245.3 278.6 245.3 278.6 213.1 246.4 245.3" fill="#a9d572" stroke="#11172b" stroke-linejoin="round" stroke-width="2"/><polygon points="278.6 213.1 246.4 213.1 246.4 245.3 278.6 213.1" fill="#326a27" stroke="#11172b" stroke-linejoin="round" stroke-width="2"/><polygon points="250 191.7 300 191.7 300 141.71 250 191.7" fill="#004579" stroke="#11172b" stroke-linejoin="round" stroke-width="2"/><polygon points="150.01 216.7 100.01 216.7 100.01 266.7 150.01 216.7" fill="#56bcee" stroke="#11172b" stroke-linejoin="round" stroke-width="2"/><polygon points="150.01 216.7 150.01 266.7 100.01 266.7 150.01 216.7" fill="#005ca1" stroke="#11172b" stroke-linejoin="round" stroke-width="2"/><polygon points="135.81 230.9 114.21 230.9 114.21 252.5 135.81 230.9" fill="#005ca1" stroke="#11172b" stroke-linejoin="round" stroke-width="2"/><polygon points="135.81 230.9 135.81 252.5 114.21 252.5 135.81 230.9" fill="#56bcee" stroke="#11172b" stroke-linejoin="round" stroke-width="2"/><polygon points="100.01 216.7 50.01 216.7 50.01 266.7 100.01 216.7" fill="#56bcee" stroke="#11172b" stroke-linejoin="round" stroke-width="2"/><polygon points="50.01 66.71 0.02 66.71 0.02 116.71 50.01 66.71" fill="#865040" stroke="#11172b" stroke-linejoin="round" stroke-width="2"/><polygon points="100.01 216.7 100.01 266.7 50.01 266.7 100.01 216.7" fill="#005ca1" stroke="#11172b" stroke-linejoin="round" stroke-width="2"/><polygon points="50.01 216.7 50.01 266.7 0.02 266.7 50.01 216.7" fill="#865040" stroke="#11172b" stroke-linejoin="round" stroke-width="2"/><polygon points="85.81 230.9 64.21 230.9 64.21 252.5 85.81 230.9" fill="#005ca1" stroke="#11172b" stroke-linejoin="round" stroke-width="2"/><polygon points="85.81 230.9 85.81 252.5 64.21 252.5 85.81 230.9" fill="#56bcee" stroke="#11172b" stroke-linejoin="round" stroke-width="2"/><rect x="50.01" y="166.7" width="99.99" height="50" fill="#68ba2f" stroke="#11172b" stroke-linejoin="round" stroke-width="2"/><polygon points="50.01 191.7 75.01 166.71 100.01 166.71 75.01 191.7 100.01 216.7 75.01 216.7 50.01 191.7" fill="#a9d572" stroke="#11172b" stroke-linejoin="round" stroke-width="2"/><polygon points="100.01 191.7 125.01 166.71 150.01 166.71 125.01 191.7 150.01 216.7 125.01 216.7 100.01 191.7" fill="#a9d572" stroke="#11172b" stroke-linejoin="round" stroke-width="2"/><polygon points="0.02 141.71 50.01 91.71 50.01 66.71 0.02 116.71 0.02 141.71" fill="#f0af9a" stroke="#11172b" stroke-linejoin="round" stroke-width="2"/><polygon points="0.02 166.7 50.01 116.71 50.01 91.71 0.02 141.71 0.02 166.7" fill="#b86752" stroke="#11172b" stroke-linejoin="round" stroke-width="2"/><polygon points="0.02 191.7 50.01 141.71 50.01 116.71 0.02 166.7 0.02 191.7" fill="#f0af9a" stroke="#11172b" stroke-linejoin="round" stroke-width="2"/><polygon points="0.02 216.7 50.01 166.7 50.01 141.71 0.02 191.7 0.02 216.7" fill="#b86752" stroke="#11172b" stroke-linejoin="round" stroke-width="2"/><polygon points="0.02 241.7 50.01 191.7 50.01 166.7 0.02 216.7 0.02 241.7" fill="#f0af9a" stroke="#11172b" stroke-linejoin="round" stroke-width="2"/><polygon points="0.02 266.7 50.01 216.7 50.01 191.7 0.02 241.7 0.02 266.7" fill="#b86752" stroke="#11172b" stroke-linejoin="round" stroke-width="2"/><polygon points="150.01 66.71 150.01 91.68 174.98 66.71 150.01 66.71" fill="#005ca1" stroke="#11172b" stroke-linejoin="round" stroke-width="2"/><polygon points="250 66.71 249.98 66.71 199.98 116.71 224.98 116.71 250 91.68 250 66.71" fill="#005ca1" stroke="#11172b" stroke-linejoin="round" stroke-width="2"/><polygon points="224.98 66.71 199.98 66.71 150.01 116.68 150.01 116.71 174.98 116.71 224.98 66.71" fill="#005ca1" stroke="#11172b" stroke-linejoin="round" stroke-width="2"/><polygon points="199.98 116.71 249.98 66.71 224.98 66.71 174.98 116.71 199.98 116.71" fill="#56bcee" stroke="#11172b" stroke-linejoin="round" stroke-width="2"/><polygon points="250 91.68 224.98 116.71 249.98 116.71 250 116.68 250 91.68" fill="#56bcee" stroke="#11172b" stroke-linejoin="round" stroke-width="2"/><polygon points="150.01 116.68 199.98 66.71 174.98 66.71 150.01 91.68 150.01 116.68" fill="#56bcee" stroke="#11172b" stroke-linejoin="round" stroke-width="2"/><polygon points="0.02 0.03 0.02 33.32 33.31 0.03 0.02 0.03" fill="#68ba2f" stroke="#11172b" stroke-linejoin="round" stroke-width="2"/><polygon points="133.34 0.03 133.31 0.03 66.64 66.69 99.98 66.69 133.34 33.32 133.34 0.03" fill="#68ba2f" stroke="#11172b" stroke-linejoin="round" stroke-width="2"/><polygon points="99.98 0.03 66.64 0.03 0.02 66.65 0.02 66.69 33.31 66.69 99.98 0.03" fill="#68ba2f" stroke="#11172b" stroke-linejoin="round" stroke-width="2"/><polygon points="66.64 66.69 133.31 0.03 99.98 0.03 33.31 66.69 66.64 66.69" fill="#a9d572" stroke="#11172b" stroke-linejoin="round" stroke-width="2"/><polygon points="133.34 33.32 99.98 66.69 133.31 66.69 133.34 66.66 133.34 33.32" fill="#a9d572" stroke="#11172b" stroke-linejoin="round" stroke-width="2"/><polygon points="0.02 66.65 66.64 0.03 33.31 0.03 0.02 33.32 0.02 66.65" fill="#a9d572" stroke="#11172b" stroke-linejoin="round" stroke-width="2"/><path d="M225,230.9h0a0,0,0,0,1,0,0v35.8a0,0,0,0,1,0,0h-35.8a0,0,0,0,1,0,0v0A35.8,35.8,0,0,1,225,230.9Z" fill="#f8c300" stroke="#11172b" stroke-linejoin="round" stroke-width="2"/><path d="M225,248.8h0v17.9H207.11A17.89,17.89,0,0,1,225,248.8Z" fill="#e47a1e" stroke="#11172b" stroke-linejoin="round" stroke-width="2"/><path d="M266.65,66.67h0A66.62,66.62,0,0,0,200,.05h0V66.67Z" fill="#e47a1e" stroke="#11172b" stroke-linejoin="round" stroke-width="2"/><path d="M234.49,41.63l6.73,11.66,22.18-7.21a66.47,66.47,0,0,0-9.47-18.57Z" fill="#e9954b" stroke="#11172b" stroke-linejoin="round" stroke-width="2"/><path d="M239.19,12.77A66.47,66.47,0,0,0,220.62,3.3l-6.69,20.59,12.89,5.9Z" fill="#e9954b" stroke="#11172b" stroke-linejoin="round" stroke-width="2"/><path d="M247.64,19.06h0a0,0,0,0,1,0,0V66.67a0,0,0,0,1,0,0H200a0,0,0,0,1,0,0v0a47.61,47.61,0,0,1,47.61-47.61Z" transform="translate(266.7 -180.97) rotate(90)" fill="#db261e" stroke="#11172b" stroke-linejoin="round" stroke-width="2"/><path d="M220.75,55.65l3.08,6.82,23.09-4.07a46.87,46.87,0,0,0-4.85-14.09Z" fill="#e2514b" stroke="#11172b" stroke-linejoin="round" stroke-width="2"/><path d="M220.9,23.87l-9.54,19.57L219,47,233.1,32.42A47.45,47.45,0,0,0,220.9,23.87Z" fill="#e2514b" stroke="#11172b" stroke-linejoin="round" stroke-width="2"/><path d="M203.56,41.51l3.09-22a48.1,48.1,0,0,0-6.62-.46h0V42.58Z" fill="#e2514b" stroke="#11172b" stroke-linejoin="round" stroke-width="2"/><path d="M231.83,34.87h0a0,0,0,0,1,0,0v31.8a0,0,0,0,1,0,0H200a0,0,0,0,1,0,0v0A31.8,31.8,0,0,1,231.83,34.87Z" transform="translate(266.7 -165.16) rotate(90)" fill="#f8c300" stroke="#11172b" stroke-linejoin="round" stroke-width="2"/><path d="M215.93,66.67H200V50.77h0A15.9,15.9,0,0,1,215.93,66.67Z" fill="#e47a1e" stroke="#11172b" stroke-linejoin="round" stroke-width="2"/><path d="M112.51,66.71H150a0,0,0,0,1,0,0v37.5a0,0,0,0,1,0,0h0a37.5,37.5,0,0,1-37.5-37.5v0A0,0,0,0,1,112.51,66.71Z" fill="#f8c300" stroke="#11172b" stroke-linejoin="round" stroke-width="2"/><polygon points="246.4 213.1 225 191.7 225 266.7 246.4 245.3 246.4 213.1" fill="#68ba2f" stroke="#11172b" stroke-linejoin="round" stroke-width="2"/><polygon points="278.6 245.3 300 266.7 300 191.7 278.6 213.1 278.6 245.3" fill="#68ba2f" stroke="#11172b" stroke-linejoin="round" stroke-width="2"/><polygon points="249.98 116.71 299.99 66.7 249.98 66.7 249.98 116.71" fill="#f8c300" stroke="#11172b" stroke-linejoin="round" stroke-width="2"/><polygon points="299.99 66.7 299.99 91.7 274.98 116.71 249.98 116.71 299.99 66.7" fill="#e47a1e" stroke="#11172b" stroke-linejoin="round" stroke-width="2"/><polygon points="75.01 141.71 50.01 166.7 150.01 166.7 150.01 141.71 75.01 141.71" fill="#e47a1e" stroke="#11172b" stroke-linejoin="round" stroke-width="2"/><rect x="300" y="166.7" width="99.99" height="99.99" fill="#865040" stroke="#11172b" stroke-linejoin="round" stroke-width="2"/><rect x="300" y="191.7" width="75" height="75" fill="#b86752" stroke="#11172b" stroke-linejoin="round" stroke-width="2"/><path d="M375,266.7h0a75,75,0,0,0-75-75h0v75Z" fill="#005ca1" stroke="#11172b" stroke-linejoin="round" stroke-width="2"/><polygon points="300 116.71 350 116.71 350 66.71 300 116.71" fill="#68ba2f" stroke="#11172b" stroke-linejoin="round" stroke-width="2"/><polygon points="300 116.71 300 66.71 350 66.71 300 116.71" fill="#a9d572" stroke="#11172b" stroke-linejoin="round" stroke-width="2"/><polygon points="314.2 102.51 335.8 102.51 335.8 80.91 314.2 102.51" fill="#a9d572" stroke="#11172b" stroke-linejoin="round" stroke-width="2"/><polygon points="314.2 102.51 314.2 80.91 335.8 80.91 314.2 102.51" fill="#68ba2f" stroke="#11172b" stroke-linejoin="round" stroke-width="2"/><polygon points="350 116.71 400 116.71 400 66.71 350 116.71" fill="#68ba2f" stroke="#11172b" stroke-linejoin="round" stroke-width="2"/><polygon points="350 116.71 350 66.71 400 66.71 350 116.71" fill="#a9d572" stroke="#11172b" stroke-linejoin="round" stroke-width="2"/><polygon points="364.2 102.51 385.8 102.51 385.8 80.91 364.2 102.51" fill="#a9d572" stroke="#11172b" stroke-linejoin="round" stroke-width="2"/><polygon points="364.2 102.51 364.2 80.91 385.8 80.91 364.2 102.51" fill="#68ba2f" stroke="#11172b" stroke-linejoin="round" stroke-width="2"/><rect x="300" y="116.71" width="99.99" height="50" fill="#f8c300" stroke="#11172b" stroke-linejoin="round" stroke-width="2"/><polygon points="400 141.71 375 166.7 350 166.7 375 141.71 350 116.71 375 116.71 400 141.71" fill="#e47a1e" stroke="#11172b" stroke-linejoin="round" stroke-width="2"/><polygon points="350 141.71 325 166.7 300 166.7 325 141.71 300 116.71 325 116.71 350 141.71" fill="#e47a1e" stroke="#11172b" stroke-linejoin="round" stroke-width="2"/><path d="M300,229.2h37.5a0,0,0,0,1,0,0v37.5a0,0,0,0,1,0,0h0A37.5,37.5,0,0,1,300,229.2v0A0,0,0,0,1,300,229.2Z" transform="translate(637.5 495.9) rotate(180)" fill="#56bcee" stroke="#11172b" stroke-linejoin="round" stroke-width="2"/><polygon points="375 191.7 400 166.71 300 166.71 300 191.7 375 191.7" fill="#f0af9a" stroke="#11172b" stroke-linejoin="round" stroke-width="2"/><polygon points="300 166.71 274.98 191.73 300 191.73 300 166.71" fill="#00345b" stroke="#11172b" stroke-linejoin="round" stroke-width="2"/><rect x="333.34" y="0.01" width="66.66" height="66.66" fill="#b86752" stroke="#11172b" stroke-linejoin="round" stroke-width="2"/><polygon points="333.33 0.01 400 66.67 333.33 66.67 333.33 0.01" fill="#865040" stroke="#11172b" stroke-linejoin="round" stroke-width="2"/><polygon points="400 0.01 366.67 33.34 333.33 0.01 400 0.01" fill="#f0af9a" stroke="#11172b" stroke-linejoin="round" stroke-width="2"/><polygon points="366.67 33.34 333.33 66.67 400 66.67 366.67 33.34" fill="#f0af9a" stroke="#11172b" stroke-linejoin="round" stroke-width="2"/><circle cx="89.19" cy="34" r="20.62" transform="translate(30.35 109.15) rotate(-72.81)" fill="#f8c300" stroke="#11172b" stroke-linejoin="round" stroke-width="2"/><circle cx="250" cy="141.71" r="20.62" transform="translate(49.55 347.62) rotate(-75.31)" fill="#f8c300" stroke="#11172b" stroke-linejoin="round" stroke-width="2"/><circle cx="350" cy="91.73" r="25" transform="translate(203.4 422.52) rotate(-80.78)" fill="#f8c300" stroke="#11172b" stroke-linejoin="round" stroke-width="2"/><circle cx="350" cy="91.73" r="10.8" fill="#db261e" stroke="#11172b" stroke-linejoin="round" stroke-width="2"/><path d="M25,166.7a25,25,0,1,0,25,25A25,25,0,0,0,25,166.7Zm0,35.79A10.8,10.8,0,1,1,35.8,191.7,10.79,10.79,0,0,1,25,202.49Z" fill="#f8c300" stroke="#11172b" stroke-linejoin="round" stroke-width="2"/><path d="M266.65,33.39h0A33.34,33.34,0,0,0,300,0H266.65Z" fill="#56bcee" stroke="#11172b" stroke-linejoin="round" stroke-width="2"/><polygon points="133.34 0.04 200.03 0.04 133.34 66.67 133.34 0.04" fill="#56bcee" stroke="#11172b" stroke-linejoin="round" stroke-width="2"/><polygon points="133.34 66.67 200.03 66.67 200.03 0.04 133.34 66.67" fill="#005ca1" stroke="#11172b" stroke-linejoin="round" stroke-width="2"/><polygon points="152.79 47.26 152.79 19.46 180.58 47.26 152.79 47.26" fill="#56bcee" stroke="#11172b" stroke-linejoin="round" stroke-width="2"/><polygon points="180.58 47.26 180.58 19.46 152.79 19.46 180.58 47.26" fill="#005ca1" stroke="#11172b" stroke-linejoin="round" stroke-width="2"/></svg>