<?xml version="1.0" encoding="utf-8"?>
<!-- Generator: Adobe Illustrator 23.0.2, SVG Export Plug-In . SVG Version: 6.00 Build 0)  -->
<svg version="1.1" id="a4d0bc90-a459-4998-a1ea-2cafd2d70f7f"
	 xmlns="http://www.w3.org/2000/svg" xmlns:xlink="http://www.w3.org/1999/xlink" x="0px" y="0px" viewBox="0 0 1440 380"
	 style="enable-background:new 0 0 1440 380;" xml:space="preserve">
<style type="text/css">
	.st0{opacity:3.000000e-02;}
	.st1{fill:url(#SVGID_1_);}
	.st2{opacity:5.000000e-02;}
	.st3{fill:url(#SVGID_2_);}
	.st4{opacity:0.5;}
	.st5{fill:#0CADF2;fill-opacity:0.5;}
	.st6{fill:#B5E1FC;}
	.st7{opacity:0.2;}
	.st8{fill:#83D1F8;fill-opacity:0.5;}
	.st9{fill:#B3E3FC;}
	.st10{fill:#B9DEFC;}
	.st11{fill:#A6B6F5;}
	.st12{fill:#A8B6F5;}
	.st13{opacity:0.4;fill:none;stroke:#3C5AE6;stroke-width:2;stroke-miterlimit:10;}
	.st14{opacity:0.4;}
	.st15{fill:#3C5AE6;}
</style>
<title>community-bg</title>
<g id="bb09cc0e-9a44-409e-b459-b4577ef51140" class="st0">
	<linearGradient id="SVGID_1_" gradientUnits="userSpaceOnUse" x1="-616.4716" y1="316.4172" x2="1411.1428" y2="316.4172">
		<stop  offset="0" style="stop-color:#B924FF"/>
		<stop  offset="1" style="stop-color:#2AA3FA"/>
	</linearGradient>
	<path class="st1" d="M1324.9-161.8c-55.2-103.2-191.9-128.4-280.3-51.7L873.1-64.6C818.8-17.5,742-6.7,676.8-36.9L405.6-162.7
		c-68.5-31.7-149.6-18-203.8,34.6l-791.7,943.2L1952.5,891L1324.9-161.8z M438.8,300.5l2.1,1.1L438.8,300.5z M558.5,257.9l1.1-2.4
		L558.5,257.9z"/>
</g>
<g class="st2">
	<linearGradient id="SVGID_2_" gradientUnits="userSpaceOnUse" x1="-233.3801" y1="386.2796" x2="1298.9182" y2="386.2796">
		<stop  offset="0" style="stop-color:#B924FF"/>
		<stop  offset="1" style="stop-color:#2AA3FA"/>
	</linearGradient>
	<path class="st3" d="M1221.8,99.5C1167.6,46.9,1086.6,33.1,1018,65L798.9,166.6c-65.2,30.2-142,19.4-196.3-27.7L476.9,29.8
		c-88.4-76.7-225.1-51.5-280.3,51.7l-409.5,651.3l1921.3,54.7L1221.8,99.5z M438.8,300.5l2.1,1.1L438.8,300.5z M558.5,257.9l1.1-2.4
		L558.5,257.9z"/>
</g>
<g class="st4">
	<path id="ac660f2d-f2b1-40af-a720-ce51c3a94e28" class="st5" d="M1283.3,166.9l-0.6,0.7L1283.3,166.9z M1384.9,181.4l-0.4-0.8
		L1384.9,181.4z M1215.1,104.7l0.6-0.7L1215.1,104.7z M1079,93.9l0.8-0.5L1079,93.9z M957.7,82l0.8,0.4L957.7,82z M1069,77l0.8-0.5
		L1069,77z M918.5,164.9l-0.8-0.4L918.5,164.9z M638.9,236.6l0.3-0.9L638.9,236.6z M721.7,223.9l-0.5-0.7L721.7,223.9z M465.6,194.5
		l-0.3-0.8L465.6,194.5z M510,193.1l-0.3,0.9L510,193.1z M283.2,156.6l-0.8-0.4L283.2,156.6z M249.6,194.2l-0.4-0.8L249.6,194.2z
		 M277.6,167.3l0.8,0.4L277.6,167.3z M138.9,220.4l0.3-0.9L138.9,220.4z M-691.4-24.7l830.1,246l0.5-1.8l-830.1-246L-691.4-24.7z
		 M203.6,216.5L250,195l-0.8-1.7l-46.3,21.5L203.6,216.5z M278.4,167.7L284,157l-1.6-0.8l-5.5,10.7L278.4,167.7z M457.4,198.8
		l8.5-3.5l-0.7-1.7l-8.5,3.5L457.4,198.8z M509.6,194l128.9,43.5l0.6-1.7l-128.9-43.5L509.6,194z M722.2,224.6l80.1-58.4l-1.1-1.5
		l-80.1,58.4L722.2,224.6z M919.3,165.4l39.2-82.9l-1.7-0.8l-39.2,82.9L919.3,165.4z M1068.2,77.5l9.9,16.9l1.6-0.9l-9.9-16.9
		L1068.2,77.5z M1214.5,105.4l68.2,62.2l1.2-1.3l-68.2-62.2L1214.5,105.4z M1385.3,182.2l668.3-327.8l-0.8-1.6l-668.3,327.8
		L1385.3,182.2z M1282.7,167.6c28,25.5,68.7,31.3,102.6,14.7l-0.8-1.6c-33.3,16.3-73.2,10.6-100.6-14.4L1282.7,167.6z M1152.1,105.4
		c17.7-16.1,44.7-16.1,62.4,0l1.2-1.3c-18.4-16.8-46.5-16.8-64.9,0L1152.1,105.4z M1078.2,94.3c13.5,22.9,43,30.5,65.9,17
		c2.9-1.7,5.5-3.7,8-5.9l-1.2-1.3c-18.8,17.3-48.1,16-65.4-2.9c-2.2-2.4-4.1-5-5.8-7.8L1078.2,94.3z M958.6,82.4
		c21.3-45.1,84.4-47.9,109.7-5l1.6-0.9c-26-44.2-91-41.3-112.9,5.1L958.6,82.4z M853.5,173.1c18.1,22.6,53.6,18.4,65.9-7.8l-1.7-0.8
		c-11.8,24.9-45.6,28.9-62.9,7.4L853.5,173.1z M802.4,166.2c16.1-11.7,38.6-8.7,51.1,6.8l1.4-1.1c-13.1-16.3-36.7-19.5-53.6-7.1
		L802.4,166.2z M638.6,237.4c28.3,9.5,59.5,4.8,83.7-12.8l-1.1-1.5c-23.7,17.2-54.2,21.9-82,12.6L638.6,237.4z M466,195.3
		c13.9-5.7,29.5-6.2,43.8-1.4l0.6-1.7c-14.7-5-30.7-4.4-45,1.4L466,195.3z M383.3,164.7c9.8,29.3,41.4,45.1,70.7,35.3
		c1.2-0.4,2.3-0.8,3.5-1.3l-0.7-1.7c-27.6,11.3-59.2-2-70.5-29.6c-0.5-1.1-0.9-2.2-1.2-3.3L383.3,164.7z M284,157
		c22-42.5,84.2-37.6,99.3,7.7l1.7-0.6c-15.6-46.9-79.9-51.9-102.6-8L284,157z M250,195c12.2-5.7,22.3-15.3,28.5-27.3l-1.6-0.8
		c-6,11.6-15.7,20.9-27.6,26.4L250,195z M138.7,221.3c21.5,6.4,44.6,4.7,65-4.8l-0.8-1.7c-19.9,9.3-42.6,10.9-63.7,4.7L138.7,221.3z
		"/>
</g>
<path id="f039cdb2-79a6-4583-b1af-7f72f5a99755" class="st6" d="M496.2,190.1c0,3-2.4,5.5-5.5,5.5c-3,0-5.5-2.4-5.5-5.5
	c0-3,2.4-5.5,5.5-5.5C493.7,184.6,496.2,187.1,496.2,190.1z"/>
<g class="st7">
	<path id="b9059fa7-58f9-45c4-84b8-ec4f9cc94892" class="st8" d="M1132.7,117.1c0,8.1-6.5,14.6-14.6,14.6s-14.6-6.5-14.6-14.6
		s6.5-14.6,14.6-14.6S1132.7,109.1,1132.7,117.1z"/>
</g>
<g class="st7">
	<path id="f189d4c5-d131-4f75-97db-03710dcb6460" class="st8" d="M1127.2,117.1c0,5-4.1,9.1-9.1,9.1s-9.1-4.1-9.1-9.1
		s4.1-9.1,9.1-9.1S1127.2,112.1,1127.2,117.1z"/>
</g>
<path class="st9" d="M180.7,222c0,3-2.4,5.5-5.5,5.5s-5.5-2.4-5.5-5.5s2.4-5.5,5.5-5.5S180.7,219,180.7,222z"/>
<path class="st10" d="M1123.5,117.1c0,3-2.4,5.5-5.5,5.5s-5.5-2.4-5.5-5.5s2.4-5.5,5.5-5.5S1123.5,114.1,1123.5,117.1z"/>
<g id="a3f01e53-8a49-4d12-ac4f-3fb8872db69c">
	<g class="st7">
		<path class="st11" d="M772.5,325.5c0,8.1-6.5,14.6-14.6,14.6s-14.6-6.5-14.6-14.6s6.5-14.6,14.6-14.6S772.5,317.4,772.5,325.5z"/>
	</g>
	<g class="st7">
		<path class="st11" d="M767,325.5c0,5-4.1,9.1-9.1,9.1s-9.1-4.1-9.1-9.1s4.1-9.1,9.1-9.1S767,320.5,767,325.5z"/>
	</g>
	<path class="st11" d="M763.3,325.5c0,3-2.4,5.5-5.5,5.5c-3,0-5.5-2.4-5.5-5.5c0-3,2.4-5.5,5.5-5.5
		C760.9,320,763.3,322.5,763.3,325.5z"/>
</g>
<path class="st12" d="M389.5,353.8c0,3-2.4,5.5-5.5,5.5c-3,0-5.5-2.4-5.5-5.5c0-3,2.4-5.5,5.5-5.5
	C387,348.3,389.5,350.7,389.5,353.8z"/>
<path class="st12" d="M1245.7,316.4c0,3-2.4,5.5-5.5,5.5s-5.5-2.4-5.5-5.5c0-3,2.4-5.5,5.5-5.5S1245.7,313.3,1245.7,316.4z"/>
<path class="st13" d="M578.3,269.9"/>
<g class="st14">
	<polygon class="st15" points="338.5,322.7 338.5,322.7 337,323.7 343.9,334.2 345.4,333.2 	"/>
	<path class="st15" d="M125.3,258.6L125.3,258.6l-664.9,984.7l1.5,1l665-984.7l0,0l0,0c24.5-36.3,80.2-27.9,92.9,14l1.7-0.5
		C208.4,229.7,150.7,221,125.3,258.6z"/>
	<path class="st15" d="M236.5,312.1c-3.2-3.7-5.6-7.9-7-12.5l0.2-0.1l-8-26.4l-1.8,0.5l0,0.1l8,26.3l0.9-0.2l-1,0.3
		c5.8,19,25.9,29.8,44.9,24c4.9-1.5,9.4-4,13.2-7.3l-1.2-1.4C270.5,327.8,248.9,326.4,236.5,312.1z"/>
	<path class="st15" d="M338.5,322.7c-11-16.6-33.3-21.2-49.9-10.2c-1.3,0.9-2.6,1.9-3.8,2.9l1.2,1.4c14.2-12.4,35.8-11,48.2,3.3
		c1,1.1,1.9,2.4,2.8,3.6L338.5,322.7z"/>
	<path class="st15" d="M1193.4,301.6l0.1-0.1c-27.1-20.8-64.7-21.1-92.2-0.9l0-0.1l-30.3,22.2l1.1,1.5l30.3-22.2
		c26.9-19.7,63.6-19.4,90,0.9l0.8-1l-0.8,1.1c28.5,21.9,68.4,21,96-2l-1.2-1.4C1260.3,322.1,1221.3,322.9,1193.4,301.6z"/>
	<path class="st15" d="M1028.1,324.4c-18.2-11.3-42-6.3-54.2,11.3l1.6,1.1c11.6-16.9,34.4-21.6,51.7-10.8
		c13.9,8.6,31.7,7.9,44.9-1.7l-1.1-1.5C1058.4,332,1041.4,332.7,1028.1,324.4z"/>
	<polygon class="st15" points="2055.4,-341.8 1287.3,299.5 1288.5,300.9 2056.6,-340.4 	"/>
	<path class="st15" d="M440.6,301.5c13.1-24.3,33.5-41.4,57.5-48c18.8-5.2,39.2-3.9,60.6,3.9c18.4,7.1,34.3,20.9,43.6,39.9l3.2,6.6
		l1.6-0.8l-1.6,0.9c18.4,37.6,63.8,53.2,101.4,34.8c1.8-0.9,3.7-1.9,5.4-2.9c29.1-17.2,66.1-12.6,90.1,11.3l0.6-0.6l0.6-0.6l0.1-0.1
		c-24.5-24.5-62.5-29.3-92.3-11.6c-35.1,20.8-80.5,9.3-101.4-25.9c-1-1.7-2-3.5-2.9-5.3h0l-3.2-6.6c-9.5-19.4-25.7-33.6-44.5-40.8
		l0,0c-21.8-7.9-42.5-9.2-61.8-3.9c-24.5,6.8-45.3,24.1-58.6,48.9l0,0L422.9,330l0,0c0,0,0,0,0,0.1c-16.4,29.7-58.6,31.3-77.2,3
		l-1.6,1.1c19.5,29.5,63.4,27.7,80.5-3.3l0,0L440.6,301.5"/>
	<path class="st15" d="M952.9,366.3c-24.1,35.1-72.1,44-107.1,19.9c-3.9-2.7-7.5-5.7-10.8-9l-1.3,1.2l1.3-1.3l-31.2-31.2l-1.3,1.3
		l31.2,31.2l0,0c30.8,30.8,80.7,30.8,111.5,0c3.4-3.4,6.5-7.1,9.2-11.1l21-30.5l-1.5-1L952.9,366.3z"/>
</g>
</svg>
