<?xml version="1.0" encoding="utf-8"?>
<!-- Generator: Adobe Illustrator 23.0.2, SVG Export Plug-In . SVG Version: 6.00 Build 0)  -->
<svg version="1.1" id="a4d0bc90-a459-4998-a1ea-2cafd2d70f7f"
	 xmlns="http://www.w3.org/2000/svg" xmlns:xlink="http://www.w3.org/1999/xlink" x="0px" y="0px" viewBox="0 0 1440 380"
	 style="enable-background:new 0 0 1440 380;" xml:space="preserve">
<style type="text/css">
	.st0{opacity:3.000000e-02;}
	.st1{fill:url(#b7a4fbdb-94ce-4684-bcfa-5388750232d9_1_);}
	.st2{opacity:5.000000e-02;}
	.st3{fill:url(#a3dad538-e023-4dc0-b6c0-4b5bf930bd33_1_);}
	.st4{opacity:0.5;}
	.st5{fill:#0CADF2;fill-opacity:0.5;}
	.st6{fill:#B5E1FC;}
	.st7{opacity:0.2;}
	.st8{fill:#83D1F8;fill-opacity:0.5;}
	.st9{fill:#B3E3FC;}
	.st10{fill:#B9DEFC;}
	.st11{opacity:0.4;}
	.st12{fill:#3C5AE6;}
	.st13{fill:#A6B6F5;}
	.st14{fill:#A8B6F5;}
</style>
<title>community-bg</title>
<g>
	<g id="bb09cc0e-9a44-409e-b459-b4577ef51140" class="st0">
		
			<linearGradient id="b7a4fbdb-94ce-4684-bcfa-5388750232d9_1_" gradientUnits="userSpaceOnUse" x1="1467.1097" y1="-763.6901" x2="1468.0216" y2="-763.6901" gradientTransform="matrix(-2223.5901 0 0 -1264.89 3264229.75 -965667.625)">
			<stop  offset="0" style="stop-color:#B924FF"/>
			<stop  offset="1" style="stop-color:#2AA3FA"/>
		</linearGradient>
		<path id="b7a4fbdb-94ce-4684-bcfa-5388750232d9" class="st1" d="M201.8-128.1l-791.7,943.2L1952.5,891L1324.9-161.8
			c-55.2-103.2-191.9-128.4-280.3-51.7L873.1-64.6C818.8-17.5,742-6.7,676.8-36.9L405.6-162.7C337.1-194.4,256-180.7,201.8-128.1z"
			/>
	</g>
	<g class="st2">
		
			<linearGradient id="a3dad538-e023-4dc0-b6c0-4b5bf930bd33_1_" gradientUnits="userSpaceOnUse" x1="1467.4525" y1="-763.5145" x2="1468.3644" y2="-763.5145" gradientTransform="matrix(-1680.4 0 0 -883.33 2467631.25 -674053.3125)">
			<stop  offset="0" style="stop-color:#B924FF"/>
			<stop  offset="1" style="stop-color:#2AA3FA"/>
		</linearGradient>
		<path id="a3dad538-e023-4dc0-b6c0-4b5bf930bd33" class="st3" d="M1216.9,95.2l486.6,688l-1921.3-54.7L191.7,77.2
			C246.9-26,383.6-51.2,472,25.5l125.7,109.1c54.3,47.1,131.1,57.9,196.3,27.7l219.1-101.6C1081.7,28.8,1162.7,42.6,1216.9,95.2z"/>
	</g>
	<g class="st4">
		<path id="ac660f2d-f2b1-40af-a720-ce51c3a94e28" class="st5" d="M1283.3,166.9l-0.6,0.7L1283.3,166.9z M1384.9,181.4l-0.4-0.8
			L1384.9,181.4z M1215.1,104.7l0.6-0.7L1215.1,104.7z M1079,93.9l0.8-0.5L1079,93.9z M957.7,82l0.8,0.4L957.7,82z M1069,77l0.8-0.5
			L1069,77z M918.5,164.9l-0.8-0.4L918.5,164.9z M638.9,236.6l0.3-0.9L638.9,236.6z M721.7,223.9l-0.5-0.7L721.7,223.9z
			 M465.6,194.5l-0.3-0.8L465.6,194.5z M510,193.1l-0.3,0.9L510,193.1z M283.2,156.6l-0.8-0.4L283.2,156.6z M249.6,194.2l-0.4-0.8
			L249.6,194.2z M277.6,167.3l0.8,0.4L277.6,167.3z M138.9,220.4l0.3-0.9L138.9,220.4z M-691.4-24.7l830.1,246l0.5-1.8l-830.1-246
			L-691.4-24.7z M203.6,216.5L250,195l-0.8-1.7l-46.3,21.5L203.6,216.5z M278.4,167.7L284,157l-1.6-0.8l-5.5,10.7L278.4,167.7z
			 M457.4,198.8l8.5-3.5l-0.7-1.7l-8.5,3.5L457.4,198.8z M509.6,194l128.9,43.5l0.6-1.7l-128.9-43.5L509.6,194z M722.2,224.6
			l80.1-58.4l-1.1-1.5l-80.1,58.4L722.2,224.6z M919.3,165.4l39.2-82.9l-1.7-0.8l-39.2,82.9L919.3,165.4z M1068.2,77.5l9.9,16.9
			l1.6-0.9l-9.9-16.9L1068.2,77.5z M1214.5,105.4l68.2,62.2l1.2-1.3l-68.2-62.2L1214.5,105.4z M1385.3,182.2l668.3-327.8l-0.8-1.6
			l-668.3,327.8L1385.3,182.2z M1282.7,167.6c28,25.5,68.7,31.3,102.6,14.7l-0.8-1.6c-33.3,16.3-73.2,10.6-100.6-14.4L1282.7,167.6z
			 M1152.1,105.4c17.7-16.1,44.7-16.1,62.4,0l1.2-1.3c-18.4-16.8-46.5-16.8-64.9,0L1152.1,105.4z M1078.2,94.3
			c13.5,22.9,43,30.5,65.9,17c2.9-1.7,5.5-3.7,8-5.9l-1.2-1.3c-18.8,17.3-48.1,16-65.4-2.9c-2.2-2.4-4.1-5-5.8-7.8L1078.2,94.3z
			 M958.6,82.4c21.3-45.1,84.4-47.9,109.7-5l1.6-0.9c-26-44.2-91-41.3-112.9,5.1L958.6,82.4z M853.5,173.1
			c18.1,22.6,53.6,18.4,65.9-7.8l-1.7-0.8c-11.8,24.9-45.6,28.9-62.9,7.4L853.5,173.1z M802.4,166.2c16.1-11.7,38.6-8.7,51.1,6.8
			l1.4-1.1c-13.1-16.3-36.7-19.5-53.6-7.1L802.4,166.2z M638.6,237.4c28.3,9.5,59.5,4.8,83.7-12.8l-1.1-1.5
			c-23.7,17.2-54.2,21.9-82,12.6L638.6,237.4z M466,195.3c13.9-5.7,29.5-6.2,43.8-1.4l0.6-1.7c-14.7-5-30.7-4.4-45,1.4L466,195.3z
			 M383.3,164.7c9.8,29.3,41.4,45.1,70.7,35.3c1.2-0.4,2.3-0.8,3.5-1.3l-0.7-1.7c-27.6,11.3-59.2-2-70.5-29.6
			c-0.5-1.1-0.9-2.2-1.2-3.3L383.3,164.7z M284,157c22-42.5,84.2-37.6,99.3,7.7l1.7-0.6c-15.6-46.9-79.9-51.9-102.6-8L284,157z
			 M250,195c12.2-5.7,22.3-15.3,28.5-27.3l-1.6-0.8c-6,11.6-15.7,20.9-27.6,26.4L250,195z M138.7,221.3c21.5,6.4,44.6,4.7,65-4.8
			l-0.8-1.7c-19.9,9.3-42.6,10.9-63.7,4.7L138.7,221.3z"/>
	</g>
	<path id="f039cdb2-79a6-4583-b1af-7f72f5a99755" class="st6" d="M496.2,190.1c0,3-2.4,5.5-5.5,5.5c-3,0-5.5-2.4-5.5-5.5
		c0-3,2.4-5.5,5.5-5.5C493.7,184.6,496.2,187.1,496.2,190.1z"/>
	<g class="st7">
		<path id="b9059fa7-58f9-45c4-84b8-ec4f9cc94892" class="st8" d="M1132.7,117.1c0,8.1-6.5,14.6-14.6,14.6s-14.6-6.5-14.6-14.6
			s6.5-14.6,14.6-14.6S1132.7,109.1,1132.7,117.1z"/>
	</g>
	<g class="st7">
		<path id="f189d4c5-d131-4f75-97db-03710dcb6460" class="st8" d="M1127.2,117.1c0,5-4.1,9.1-9.1,9.1s-9.1-4.1-9.1-9.1
			s4.1-9.1,9.1-9.1S1127.2,112.1,1127.2,117.1z"/>
	</g>
	<path class="st9" d="M180.7,222c0,3-2.4,5.5-5.5,5.5s-5.5-2.4-5.5-5.5s2.4-5.5,5.5-5.5S180.7,219,180.7,222z"/>
	<path class="st10" d="M1123.5,117.1c0,3-2.4,5.5-5.5,5.5s-5.5-2.4-5.5-5.5s2.4-5.5,5.5-5.5S1123.5,114.1,1123.5,117.1z"/>
	<g class="st11">
		<path id="aa896f10-a0b4-49c2-87dc-2d8e09849c24" class="st12" d="M1287.8,300.2l-0.6-0.7l0,0L1287.8,300.2z M1101.8,301.3
			l-0.5-0.7L1101.8,301.3z M1071.5,323.5l0.5,0.7L1071.5,323.5z M974.7,336.3l-0.7-0.5L974.7,336.3z M834.3,377.8l-0.6,0.6
			L834.3,377.8z M953.7,366.8l-0.8-0.5L953.7,366.8z M803.1,346.6l0.6-0.6L803.1,346.6z M606.4,303.6l-0.8,0.4L606.4,303.6z
			 M499.7,256.9l0.3,0.8L499.7,256.9z M603.2,297l0.8-0.4L603.2,297z M442.2,296.8l-0.8-0.4l0,0L442.2,296.8z M477.4,265.7l0.3,0.8
			L477.4,265.7z M423.6,330.5l-0.8-0.4L423.6,330.5z M337.8,323.2l0.8-0.5L337.8,323.2z M228.7,299.8l-0.9,0.3L228.7,299.8z
			 M220.7,273.4l-0.9,0.3L220.7,273.4z M-538.1,1244.3l665-984.7l-1.5-1l-665,984.7L-538.1,1244.3z M219.9,273.6l8,26.4l1.8-0.5
			l-8-26.4L219.9,273.6z M337,323.7l6.9,10.5l1.5-1l-6.9-10.5L337,323.7z M424.4,330.9l18.6-33.7l-1.6-0.9L422.8,330L424.4,330.9z
			 M477.7,266.5l22.3-8.8l-0.7-1.7l-22.3,8.8L477.7,266.5z M602.4,297.3l3.2,6.6l1.6-0.8l-3.2-6.6L602.4,297.3z M802.5,347.2
			l31.2,31.2l1.3-1.3l-31.2-31.2L802.5,347.2z M954.4,367.3l21-30.5l-1.5-1l-21,30.5L954.4,367.3z M1072.1,324.2l30.3-22.2l-1.1-1.5
			l-30.3,22.2L1072.1,324.2z M1288.5,300.9l768.1-641.3l-1.2-1.4l-768.1,641.3L1288.5,300.9z M1192.4,303c28.5,21.9,68.4,21,96-2
			l-1.2-1.4c-26.9,22.5-65.9,23.3-93.8,2L1192.4,303z M1102.4,302c26.9-19.7,63.6-19.4,90,0.9l1.1-1.4
			c-27.1-20.8-64.7-21.1-92.2-0.9L1102.4,302z M1027.2,326c13.9,8.6,31.7,7.9,44.9-1.7l-1.1-1.5c-12.6,9.2-29.6,9.9-42.9,1.6
			L1027.2,326z M975.5,336.8c11.6-16.9,34.4-21.6,51.7-10.8l0.9-1.6c-18.2-11.3-42-6.3-54.2,11.3L975.5,336.8z M833.7,378.4
			c30.8,30.8,80.7,30.8,111.5,0c3.4-3.4,6.5-7.1,9.2-11.1l-1.5-1c-24.1,35.1-72.1,44-107.1,19.9c-3.9-2.7-7.5-5.7-10.8-9
			L833.7,378.4z M712.4,335.9c29.1-17.2,66.1-12.6,90.1,11.3l1.3-1.3c-24.5-24.5-62.5-29.3-92.3-11.6L712.4,335.9z M605.6,304
			c18.4,37.6,63.8,53.2,101.4,34.8c1.8-0.9,3.7-1.9,5.4-2.9l-0.9-1.6c-35.1,20.8-80.5,9.3-101.4-25.9c-1-1.7-2-3.5-2.9-5.3
			L605.6,304z M500,257.7c39.2-15.6,83.8,1.7,102.4,39.6l1.6-0.8c-18.9-38.8-64.5-56.5-104.7-40.5L500,257.7z M443,297.2
			c7.7-13.9,20-24.8,34.7-30.6l-0.7-1.7c-15.2,6-27.8,17.1-35.7,31.5L443,297.2z M344,334.2c19.5,29.5,63.4,27.7,80.5-3.3l-1.6-0.9
			c-16.4,29.8-58.6,31.5-77.3,3.1L344,334.2z M286,316.8c14.2-12.4,35.8-11,48.2,3.3c1,1.1,1.9,2.4,2.8,3.6l1.5-1
			c-11-16.6-33.3-21.2-49.9-10.2c-1.3,0.9-2.6,1.9-3.8,2.9L286,316.8z M227.8,300.1c5.8,19,25.9,29.8,44.9,24
			c4.9-1.5,9.4-4,13.2-7.3l-1.2-1.4c-14.2,12.4-35.8,11-48.2-3.3c-3.2-3.7-5.6-7.9-7-12.6L227.8,300.1z M126.9,259.6
			c24.5-36.3,80.2-27.9,92.9,14l1.7-0.5c-13.1-43.4-70.8-52.1-96.2-14.5L126.9,259.6z"/>
	</g>
	<g id="a3f01e53-8a49-4d12-ac4f-3fb8872db69c">
		<g class="st7">
			<path class="st13" d="M772.5,325.5c0,8.1-6.5,14.6-14.6,14.6s-14.6-6.5-14.6-14.6s6.5-14.6,14.6-14.6S772.5,317.4,772.5,325.5z"
				/>
		</g>
		<g class="st7">
			<path class="st13" d="M767,325.5c0,5-4.1,9.1-9.1,9.1c-5,0-9.1-4.1-9.1-9.1c0-5,4.1-9.1,9.1-9.1C762.9,316.4,767,320.5,767,325.5
				z"/>
		</g>
		<path class="st13" d="M763.3,325.5c0,3-2.4,5.5-5.5,5.5c-3,0-5.5-2.4-5.5-5.5c0-3,2.4-5.5,5.5-5.5
			C760.9,320,763.3,322.5,763.3,325.5z"/>
	</g>
	<path class="st14" d="M389.5,353.8c0,3-2.4,5.5-5.5,5.5c-3,0-5.5-2.4-5.5-5.5c0-3,2.4-5.5,5.5-5.5
		C387,348.3,389.5,350.7,389.5,353.8z"/>
	<path class="st14" d="M1245.7,316.4c0,3-2.4,5.5-5.5,5.5s-5.5-2.4-5.5-5.5c0-3,2.4-5.5,5.5-5.5S1245.7,313.3,1245.7,316.4z"/>
</g>
</svg>
