<svg xmlns="http://www.w3.org/2000/svg" width="100" height="100" viewBox="0 0 300 240" xmlns:v="https://vecta.io/nano"><path d="M289.1 168.43c5-13.37 5.31-49.64-21.61-87.56C231 29.49 183 50.1 164.72 64.93c-27 21.89-27 44.88-78.31 42.87-48.54-1.83-62 43.14-62 54.58 0 18.14 8.43 63 63.38 62.38 80.69-.92 67.41.64 112.38 1.37 68.69 1.1 81.05-36.64 88.93-57.7z" fill="#f6ede1"/><path fill="#fbc0ad" d="M224.99 56.05V41.03l-5.77.92-.46 14.1h6.23z"/><path d="M215.1 25.28s-3.57 12.45 3.2 16.66c0 0 9.34 2.29 12.64-4.94 0 0 5.41-.28 4.86-3.21 0 0 .64-1.74-2.2-1l-1.74-5.68-2.75-6.78-4.11-.82h-6.5a12.75 12.75 0 0 0-3.4 5.77z" fill="#fcd2c0"/><path d="M231.67 14.29s-11.81-7.7-16.94 8.79l-1.37 2 4.94-2.56s6.51 3.66 8.52 4l.09-5.41s2.75 4.86 2.75 5.41a14.86 14.86 0 0 0 1 2.75 8.73 8.73 0 0 1 0 4.85l2.85-1.12s6-3 4.3-11.36c-1.37-6.64-6.14-7.35-6.14-7.35z" fill="#514d38"/><g fill="#644e40"><path d="M221.87,26s-1.37-2.57-4.67-.83Z"/><circle cx="218.58" cy="28.39" r=".92"/></g><ellipse cx="221.69" cy="32.69" rx="1.47" ry="1.1" fill="#f09f95"/><path d="M218.58 36.45l4.58 1.19a8.87 8.87 0 0 1-2.29.82 2 2 0 0 1-2.29-2.01z" fill="#ca5c4c"/><g fill="#644e40"><path d="M229.66,28.12s-1.37-2.57-4.67-.83Z"/><circle cx="225.9" cy="30.22" r=".92"/></g><path d="M233.32,20.15s-.27,8.24-3.66,12.27Z" fill="#615b4a"/><path d="M183.5 221.09s-3.3-1.65.91-3.39 4.4-.91 6.05-2.47 6.32-6.14 6.69-7 1-2.2 3.66-.46 4.21 3.57 5.31 3.57 2.57-2.74 4.4-3.2 3.2-.92 4 3a18.67 18.67 0 0 1 .64 5.22s-25.25 5.47-31.66 4.73z" fill="#412d2d"/><path d="M214.64 221.28s2-3.3.55-4.86c0 0-29.31 4.4-32.7 3.85a4.61 4.61 0 0 0 2.75 3.39c2.29 1.1 29.4-2.38 29.4-2.38z" fill="#9b776a"/><path d="M199.34 208.45l1.56-9.71 10.9-1.92s.64 11.91.46 13c-.26 1.29-6.78 3.76-12.92-1.37z" fill="#fdd4c0"/><path d="M200.08 115.22v-9l10.53-.82c1.19 0 2.29 3.75 2.29 3.75s6.41 10.63 7 15.2-1.74 23.27-1.74 23.27l-3.66 35.08-.92 19.05s-11.81 5.31-14.65 0 2.29-9.16 2.56-30-1.41-56.53-1.41-56.53z" fill="#20597e"/><path d="M223.71 223.47l76.29-2.93c-.09-.09-55.14-7.14-76.29 2.93z" fill="#f4ecdf"/><path d="M231.4 42.22s2-2.75 4.76-1.56 7.6 1.93 7.42 4.31.83-4.4.83-4.4 7.14-1.1 8.06 2 8.24 6.68 5.31 17.4.64 29.58-2.29 32.51-12.92 3.3-13.1 1.83a16.87 16.87 0 0 1 .37-4S242 77.12 240 72.72a60.28 60.28 0 0 0-4.67-8.34s-4.21-9.06-3.76-11.72-2.83-9.66-.17-10.44z" fill="#1285a9"/><g fill="#7e1618"><path d="M207.77 71.25s-.92 28.21-4.3 37.74 9.34 2.2 9.34 2.2l3.48-50.74c.09 0-5.59-2.39-8.52 10.8z"/><path d="M218.3 48.08l-6.68 5.31a39.88 39.88 0 0 0-.83 7.79c0 3.75.46 3.48.46 3.48l5.31-10.35 3.76-2.66-1.1-4.21z"/></g><path d="M209.05 86.55s-.09 21.16.46 24.73 10.49 1.65 10.49 1.65l2.57-.28 8-9.34 8.7-10.72 2.74-10-.73-11.72-8.6-20.77a10 10 0 0 0-11.45-.83c-6.5 3.67-10.53 16.67-10.53 16.67l-1.56 14.47z" fill="#e4372e"/><path d="M203 224.66s-3.3-1.64.91-3.38 4.4-.92 6.05-2.48 6.32-6.13 6.68-7 1-2.2 3.67-.46 4.21 3.58 5.31 3.58 2.56-2.75 4.4-3.21 3.2-.92 4 3a18.67 18.67 0 0 1 .64 5.22s-25.24 5.47-31.66 4.73z" fill="#412d2d"/><path d="M234.15 224.94s2-3.3.55-4.85c0 0-29.31 4.39-32.7 3.84a4.58 4.58 0 0 0 2.75 3.39c2.38 1.01 29.4-2.38 29.4-2.38z" fill="#9b776a"/><path d="M220 212.85l1.38-10.17 12 .83s-.64 7-.55 10.16c-1.25-.27-5.37 3.94-12.83-.82z" fill="#fdd4c0"/><path d="M241.29 132.16L242 122l1.29-37.36-.19-13-4-9.89-12 32.42-8.52 12.64 11.54 19c-.12-.06 5.77 8.27 11.17 6.35z" fill="#e4372e"/><path d="M210.61 120.25l-1.1-9 10.35-2c1.1-.07 2.75 3.48 2.75 3.48s7.78 9.71 9 14.29 1.29 23.26 1.29 23.26l.82 35.27 1.47 19s-11 6.68-14.57 1.74 1.1-9.35-1.37-30.14-8.64-55.9-8.64-55.9z" fill="#366e8f"/><path d="M224.44 44.14s5.22-4.39 7.05-.82-3.75 8.24-3.75 8.24l-6.05 8.7-2-5.49s5.48-8.98 4.75-10.63z" fill="#7e1618"/><path d="M212.62 110.09l-.09-1.83h.19l.09 1.83zm.19-12.83h-.19c.19-3.38.55-7.14 1-11h.18c-.44 3.86-.8 7.62-.99 11zm1.65-15.47h-.19l.28-1.84h.18a79.28 79.28 0 0 0-.27 1.84zm.55-3.67h-.19l.28-1.83h.18l-.28 1.83zm2.29-12.64l-.19-.09c1.38-6.41 2.48-10.71 2.48-10.71l.18.09c0 .09-1.1 4.3-2.47 10.71z" fill="#fff"/><path d="M233.41,86.18a5.69,5.69,0,0,0-2.56-3.75,6.28,6.28,0,0,0-4.58-.37l-.09-.18a6.78,6.78,0,0,1,4.76.36,5.86,5.86,0,0,1,2.66,3.85Z" fill="#50575d"/><g fill="#20597e"><path d="M244.59 50.37l-1.1-5.4.18-.09 1.1 5.4zm2.2 12l-.28-1.37h.19l.27 1.37zm-.46-2.66l-.28-1.37h.19l.27 1.37zm3.48 26.38a7 7 0 0 0-.09-1.37h.18c0 .45.09.91.09 1.37zm-.18-2.75c0-.45-.1-.91-.1-1.37h.19c0 .46.09.92.09 1.37zm-1-9.52l-1.19-8.06h.18l1.19 8.06zm.63 21.18l-.18-.09a17.25 17.25 0 0 0 .82-5.4h.18a15.66 15.66 0 0 1-.82 5.49z"/><path d="M244.68,88.11l-.09-.19,2.38-.64.09.18Zm6.87-1.74-.09-.19,1.74-.46.09.19Zm3.48-.92v-.09h-.09l-.09-1.74H255l.09,1.83Zm-.55-12.91v-1l-9.71.36v-.18l10-.37.09,1.29Z"/></g><path d="M186.52,71.07a40.93,40.93,0,0,1-1.46-10.72v-.18h.18v.18a40.93,40.93,0,0,0,1.46,10.72Z" fill="#fff"/><path d="M229 54.13a9.37 9.37 0 0 1-1.83 2.65 30.76 30.76 0 0 0-1.74 4.4c-.09 3.75.55 10.81.55 11.72 0 .73.18 4.76.18 7.15 2.93 4.76 8.06 7.23 12.18 8.61l2.11-16.58s2.55-12.18 1.76-16.21c-.46-2.38-2.84-7.06-4.77-8.52a11.47 11.47 0 0 0-3.29-1.35 46.68 46.68 0 0 0-5 7.24 8.31 8.31 0 0 1-.15.89zm-6.67 36.17l5.22 9.25s4.58 2.94 6.51 2c1.37-.73 2.93-6.5 3.66-9.53-4.49-1.74-10.17-4.12-13.19-6.41z" fill="#7e1618"/><path d="M227.19 46.71l.73 2 1.74-3.48c-1.28.2-2.29.56-2.47 1.48z" fill="#cb9581"/><g fill="#1285a9"><path d="M234.06 45.88a9.08 9.08 0 0 1 .64-.73l-3.3-2.93-1.65 3.11a15 15 0 0 1 4.31.55zm-7.88 34.17a16.28 16.28 0 0 1-2.2-6.23 27.76 27.76 0 0 1 1.47-12.64 5.36 5.36 0 0 1 .27-2 10.8 10.8 0 0 1 1.47-2.38l1.92-3.66a21.93 21.93 0 0 0-1.1-4.4l-7.88 15.57c-2.83 5.86-.36 15.66 2.94 19.88a10.27 10.27 0 0 0 1.46 1.37l1.74-3.66a14.83 14.83 0 0 1-.09-1.85zM244.77 90a36.76 36.76 0 0 1-6.41-1.37l-.18 1.55-.46 1.93 6.32 2.29z"/><path d="M234.06 45.88a15 15 0 0 0-4.31-.55l-1.74 3.48a20.53 20.53 0 0 1 1.1 4.4 53.26 53.26 0 0 1 4.95-7.33zm-8.43 13.28a18.25 18.25 0 0 0-.27 2 44.31 44.31 0 0 1 1.74-4.4 10.8 10.8 0 0 0-1.47 2.4z"/></g><path d="M238.36 88.66c-4.12-1.29-9.25-3.85-12.18-8.61 0 1.09.09 1.92.09 1.92l-1.74 3.66c3 2.29 8.7 4.67 13.19 6.41l.46-1.92z" fill="#7e1618"/><path d="M232.5 104.41l-.09-.18-10.26-13.93v-.09l1.85-3.94 11.8 12.46v.09zM222.42 90.3L232.5 104l3.11-5.22-11.45-12z" fill="#50575d"/><path d="M230.12,203.69l-.19-1.83h.19l.18,1.83ZM228.84,191l-1.1-10.9h.18L229,191Zm-1.56-15.48-.18-1.83h.18l.18,1.83Zm-.37-3.66-.18-1.83h.18l.19,1.83Zm-1.28-12.73-1.1-10.9h.18l1.1,10.9Zm-1.56-15.48-.18-1.83h.18l.19,1.83Zm-.36-3.67-.19-1.83h.19l.18,1.83Zm-1.19-12.73-1.1-10.89h.18l1.1,10.89Z" fill="#20597e"/><path fill="#efc4bd" d="M192.93 62l30.59 15.57-11.17 2.57-19.05-9.44-.37-8.7z"/><path fill="#f7dbe0" d="M157.76 69.7l31.05 15.66-3.66 40.21-30.59-15.3 3.2-40.57z"/><path fill="#efc4bd" d="M192.93 62l-35.17 7.7 13.01 6.59 22.53-5.59-.37-8.7z"/><path fill="#f7dbe0" d="M203.83 48.08L192.93 62l30.59 15.57 10.26-12.45-29.95-17.04z"/><path d="M188.81 85.36l-18.22-13.74-28.67-14.01 15.84 12.09 31.05 15.66zm-31.41 26.28s.18 7 5.13 6.87l8.06-.27z" fill="#efc4bd"/><path d="M115.54 43.32l-2.93-10.35 31.69 5.59v.18l-28.76 4.58zm-6.41-23.72l33.61 17.49v.09l-1.83-.55L112 28.12a1.27 1.27 0 0 1-.83-.83l-1.83-7a2.92 2.92 0 0 1-.21-.69z" fill="#fdc20f"/><path d="M107.21 35.35l2.47-4.4a20.8 20.8 0 0 0 1-1.83.75.75 0 0 1 1.1-.46l17.12 5.13 10.44 3.12c.19.09.37.09.46.27-.18 0-.37-.09-.55-.09l-26.38-4.67a1.82 1.82 0 0 0-1.37.27l-4.3 2.84c.1-.09.1-.09.01-.18zm.09.82l4.76-3.11 1 3.57-5.68-.27a.29.29 0 0 1-.08-.19z" fill="#efac18"/><path fill="#aa8a93" d="M188.81 85.36l31.05-7.79L192.93 62l-29.76 6.51 25.64 16.85z"/><g fill="#f8bfac"><circle cx="223.8" cy="37.37" r=".46"/><circle cx="218.03" cy="36.08" r=".46"/></g><path fill="#a0808a" d="M192.93 62l-2.65 30.87 29.49-15.2L192.93 62z"/><path fill="#ead3d8" d="M185.15 125.57l36.54-7.88 1.83-40.12-34.71 7.79-3.66 40.21z"/><g fill="#efc4bd"><path d="M224.16 93.6l-4.16 8.61-3.71 8.79s2.56 5.86 5.22 5.22 9.49-14.93 9.49-14.93z"/><path d="M216.29 111l-8.89 9.71a10.8 10.8 0 0 0 7.7.92c4-1.19 5.4-1.93 6.41-5.5s-5.22-5.13-5.22-5.13z"/></g><path d="M80,206.62V216a7.34,7.34,0,0,1-7.32,7.33H67.82A7.34,7.34,0,0,1,60.5,216v-9.34" fill="#e0c7bd"/><path d="M65 206.78l-.44-.14c0-.08 2.63-8.22-2.57-11.92l.27-.38c5.49 3.9 2.79 12.36 2.74 12.44zm4.15-.12l-.45-.08c0-.12 2.13-12.79-2.16-18.41l.37-.28c4.4 5.78 2.33 18.24 2.24 18.77z" fill="#030404"/><g fill="#f3c47f"><circle cx="65.53" cy="185.92" r="2.84"/><circle cx="60.5" cy="192.88" r="2.84"/></g><path d="M71.94,206.53h1.47a2,2,0,0,0,1.46-2.29c-.36-1.83-1.46-1.37-1.55-2.84s2.29-1.92,1.37-2.93-2.84-4.3-2.84-4.3v12.36Z" fill="#229d54"/><path d="M21.87 70.89v-.45l3.65-.16v.46l-3.65.15zm-3.67 0c-1.2 0-2.44-.09-3.67-.18v-.45l3.65.18zm11-.47l-.05-.46 3.61-.54.08.45-3.64.53zm-18.33 0l-3.64-.46.06-.45 3.63.45zm-7.27-1L0 68.73l.09-.45 3.59.69zm32.84-.24l-.11-.44 3.51-1 .14.43-3.54.92zm7-2.23l-.17-.43 3.33-1.47.2.41-3.36 1.4zm6.61-3.23l-.24-.39 2.95-1.88.12-.09.27.38-.13.08-2.97 1.81zm6-4.21l-.3-.35 2.76-2.4.31.34-2.74 2.32zm5.44-4.93l-.32-.33 1.42-1.37 1.21-1.18.32.33-1.21 1.17zm5.28-5.07l-.31-.33 2.76-2.43.3.36c-.84.62-1.74 1.41-2.72 2.31zm5.63-4.63l-.26-.37 2.68-1.76.41-.24.23.4-.41.24c-.85.43-1.74 1.01-2.62 1.64zm6.29-3.67l-.2-.41 3.36-1.49.17.43c-1.1.36-2.22.85-3.3 1.38zm6.76-2.72l-.11-.49 3.53-1 .11.44a26.66 26.66 0 0 0-3.5.96zm7.06-1.85l-.09-.45 3.61-.64.07.45c-1.19.1-2.4.31-3.56.55z" fill="#aa8a93"/></svg>