<svg id="f46a9ad2-4052-411d-b711-12b7d967ae1f" data-name="f06401a2-d3e8-4001-b6e5-b31775b68964" xmlns="http://www.w3.org/2000/svg" viewBox="0 0 320 240"><title>reset-password-icon</title><path d="M306.56,145.37c5.59-14.91,5.94-55.46-24.21-97.95C241.6-10,187.89,13,167.45,29.59c-30.16,24.44-30.16,50.19-87.6,48-54.24-2.09-69.32,48.21-69.32,61,0,20.25,9.46,70.44,70.87,69.77,90.21-1,75.41.68,125.68,1.54C283.89,211.18,297.73,168.91,306.56,145.37Z" fill="#f4ece0"/><polygon points="210.73 50.56 210.73 33.69 204.3 34.8 203.83 50.56 210.73 50.56" fill="#fabfac"/><path d="M199.69,16.16s-4,14,3.59,18.64c0,0,10.43,2.55,14.08-5.52,0,0,6.08-.31,5.39-3.61,0,0,.76-1.91-2.49-1.08l-1.93-6.35-3-7.6-4.56-1h-7.31S200.39,12.75,199.69,16.16Z" fill="#fbd2c0"/><path d="M218.18,3.87S205-4.69,199.27,13.67l-1.52,2.21,5.52-2.9s7.25,4.08,9.53,4.56l.13-6.07s3.1,5.46,3,6.07a12.45,12.45,0,0,0,1.11,3,9.87,9.87,0,0,1,0,5.39l3.17-1.38s6.8-3.43,4.84-12.7C223.57,4.69,218.18,3.87,218.18,3.87Z" fill="#524d38"/><path d="M207.28,17s-1.59-2.9-5.25-1Z" fill="#644e40"/><circle cx="203.58" cy="19.57" r="1.07" fill="#644e40"/><ellipse cx="207" cy="24.44" rx="1.66" ry="1.24" fill="#ef9e94"/><path d="M203.58,28.58,208.66,30a13.55,13.55,0,0,1-2.54,1,2.4,2.4,0,0,1-2.54-2.26Z" fill="#ca5c4c"/><path d="M216,19.31s-1.59-2.9-5.24-1Z" fill="#644e40"/><circle cx="211.77" cy="21.62" r="1.07" fill="#644e40"/><path d="M220.09,10.37s-.32,9.2-4.12,13.71Z" fill="#625b4b"/><circle cx="209.4" cy="29.64" r="0.46" fill="#f5beab"/><circle cx="202.97" cy="28.17" r="0.46" fill="#f5beab"/><path d="M201.55,234.36H283S224.55,224.2,201.55,234.36Z" fill="#f4ece0"/><path d="M166.21,51.77s9.44-3.5,17.31,9L182,69.08l-7.5-5.58L172,61.42Z" fill="#efc4be"/><polygon points="191.38 73.31 183.52 60.8 176.34 74.6 188.62 91.6 191.38 73.31" fill="#efc4be"/><path d="M217.79,35s2.28-2.93,5.11-1.54,8,2.47,7.75,5.09,1-4.76,1-4.76,7.68-.89,8.54,2.55,8.46,7.74,4.89,19.4-.65,32.61-3.84,35.71-13.87,3.06-14,1.49a20.89,20.89,0,0,1,.51-4.46S227.53,74,225.62,69A62.41,62.41,0,0,0,221,59.6s-4.13-10.14-3.5-13.07S214.93,35.84,217.79,35Z" fill="#0c86a9"/><polygon points="179.45 72.74 188.56 74.29 190.22 64.48 172.01 61.39 170.35 71.2 172.36 71.54 169.71 87.18 169.71 87.18 168.94 91.74 187.15 94.83 188.81 85.02 177.68 83.14 179.45 72.74" fill="#ea7644"/><path d="M191.38,66s-2.22,31.05-6.24,41.36,9.84,2.8,9.84,2.8l6-55.74S195,51.53,191.38,66Z" fill="#7e1518"/><rect x="98.33" y="102.15" width="115.85" height="19.75" transform="translate(19.67 247.34) rotate(-80.37)" fill="#f4854a"/><path d="M203.66,40.92s-7.32,5.29-7.39,5.56A46.25,46.25,0,0,0,195,55c-.16,4.17.32,3.85.32,3.85l6.1-11.21,4.15-2.73-1-4.66Z" fill="#7e1518"/><path d="M192,82.93s-1,23.32-.65,27.24,11.14,2.28,11.14,2.28l2.75-.16,8.9-9.93L223.9,90.9l3.32-10.83-.27-13-8.24-23.23a10.35,10.35,0,0,0-12.19-1.41c-7.11,3.76-12,17.88-12,17.88L192.2,76.15Z" fill="#e4372f"/><path d="M193.11,116.13s-14.24,30-14.61,34.85.7,12,10,23.71,21.32,27.08,21.32,27.08,10.1-2.62,11.39-8c0,0-14.59-17.51-15.5-20.2S202,143.39,202,143.39Z" fill="#14466c"/><path d="M179.53,234.84s-3.41-1.93,1.08-3.68,4.71-.87,6.59-2.48,7-6.46,7.43-7.39,1.15-2.38,3.9-.32,4.33,4.15,5.49,4.13,2.87-2.94,4.77-3.3,3.46-.84,4.17,3.54.47,5.78.47,5.78S186.26,236,179.53,234.84Z" fill="#412d2d"/><path d="M212.62,236.44s2.28-3.51.81-5.33c0,0-31.42,3.61-35,2.79a5.09,5.09,0,0,0,2.72,3.85C183.67,239.07,212.62,236.44,212.62,236.44Z" fill="#9b796a"/><path d="M221.69,199.82s5.81.84,6.49,3.22-3.4,8.45-4.69,10.49-10.16,14.69-10.16,14.69l-2.94-4.61s5-7.88,4.12-9.62a30.68,30.68,0,0,1-1.55-5.41S222.19,205.87,221.69,199.82Z" fill="#412d2d"/><path d="M232.46,207.81s-1.85-5.81-4.27-4.78c0,0-11.8,23.26-14.84,25.17l.09,2.9s1.3-.25,3.8-1S232.46,207.81,232.46,207.81Z" fill="#9b796a"/><path d="M196.89,221.65l2.09-6.4,13.1-.78s1,9.76-.34,9.45S199.88,228.4,196.89,221.65Z" fill="#fcd4c0"/><path d="M219.79,195.54l3.35,5.13s-6.65,9.41-10.16,7.9.25-8.89.25-8.89Z" fill="#fcd4c0"/><path d="M224.39,134.5l1.2-11.18,3-41.12L229,67.9l-3.83-11.06L210.86,92.08l-9.66,13.55L212.68,127S218.52,136.43,224.39,134.5Z" fill="#e4372f"/><path d="M192.19,120.08l-.81-9.91s9.91-1.74,11.14-1.82,2.75,3.94,2.75,3.94,7.82,11.08,8.93,16.11.31,25.75.31,25.75L213.79,193l.74,21s-12.05,6.88-15.56,1.27,1.59-10.24-.08-33.24S192.19,120.08,192.19,120.08Z" fill="#20587e"/><path d="M210.34,36.77s5.76-4.58,7.53-.61-4.36,8.91-4.36,8.91l-6.81,9.36-1.93-6.13S211,38.71,210.34,36.77Z" fill="#7e1518"/><path d="M207.81,91.31l-4.72,9.34-4.37,9.52s2.42,6.6,5.28,6,10.79-16,10.79-16Z" fill="#efc4be"/><path d="M194.84,109.87c0-.65-.05-1.34-.06-2.05H195c0,.71,0,1.4.05,2Zm.71-14.32h-.25c.34-3.81.85-7.92,1.52-12.21h.26C196.41,87.63,195.9,91.74,195.55,95.55Zm2.37-17.25h-.25l.36-2h.26C198.16,77,198,77.62,197.92,78.3Zm.75-4h-.25l.39-2,.25,0Zm3.07-14-.25-.06c1.73-7.13,3.14-11.87,3.16-11.91l.24.07s-1.42,4.73-3.15,11.85Z" fill="#7e1518"/><path d="M218.05,83.53a6.09,6.09,0,0,0-2.64-4.24,6.75,6.75,0,0,0-4.83-.59l-.07-.25a6.9,6.9,0,0,1,5,.62,6.33,6.33,0,0,1,2.76,4.4Z" fill="#50565c"/><path d="M231.49,44.6c-.55-3.68-1-6-1-6.06h.25s.41,2.38,1,6.07Z" fill="#14466c"/><path d="M233.36,57.94c-.06-.5-.13-1-.19-1.48h.25c.07.49.13,1,.2,1.48ZM233,55c-.06-.51-.13-1-.2-1.49h.26c.06.49.13,1,.2,1.48Z" fill="#14466c"/><path d="M235.48,84V82.51h.25V84Zm0-3q0-.73-.06-1.5h.26q0,.77.06,1.5Zm-.68-10.45c-.25-2.76-.56-5.77-.93-8.94h.25c.37,3.17.69,6.18.94,8.94Z" fill="#14466c"/><path d="M234.51,93.86l-.23-.11a17.1,17.1,0,0,0,1.11-6h.26A17.46,17.46,0,0,1,234.51,93.86Z" fill="#14466c"/><path d="M230,86.14l-.06-.25,1.45-.32.06.25Zm6.44-1.44v-.25l2-.45v.25Zm4-.9v-.25l.67-.15V82.25h.26V83.6Zm.83-13.8H241V68.29H230.66V68h10.61Z" fill="#14466c"/><path d="M243.77,62.39a7.19,7.19,0,0,1-1.45-.77l.15-.21a6.62,6.62,0,0,0,1.39.74Zm-3-2.15a11.68,11.68,0,0,1-1.23-1.66l.22-.14a11.21,11.21,0,0,0,1.2,1.63ZM236,46.84a75,75,0,0,1-.58-9.48V34.53h.26s-.06,1.1-.06,2.81a74.41,74.41,0,0,0,.58,9.44Z" fill="#14466c"/><path d="M214.85,46.93c-.74,1.22-1.49,2.54-2.19,3.94a9.21,9.21,0,0,0,2.09-2.82A3.24,3.24,0,0,0,214.85,46.93Z" fill="none"/><path d="M210.58,55.66a32.1,32.1,0,0,0-2.09,13.85,17.57,17.57,0,0,0,2.07,7c0-2.68.06-7.08.08-7.89C210.66,67.61,210.28,59.82,210.58,55.66Z" fill="none"/><path d="M214.75,48.05a9.33,9.33,0,0,1-2.09,2.82,49.49,49.49,0,0,0-2.08,4.79c-.31,4.16.07,12,0,12.92s-.06,5.21-.08,7.89c2.91,5.36,8.24,8.34,12.57,10L226,68.26s3.28-13.36,2.57-17.81c-.42-2.63-2.68-7.86-4.73-9.57a11.58,11.58,0,0,0-3.45-1.66A58.52,58.52,0,0,0,214.78,47,2.86,2.86,0,0,1,214.75,48.05Z" fill="#7e1518"/><path d="M206,87.62,211.12,98s4.79,3.43,6.83,2.48c1.48-.7,3.42-7,4.35-10.32-4.7-2.08-10.68-5-13.76-7.62Z" fill="#7e1518"/><path d="M213.18,39.79s.32,1,.69,2.3c.76-1.38,1.46-2.64,2-3.71C214.48,38.38,213.38,38.77,213.18,39.79Z" fill="#ca9580"/><path d="M220.46,39.19l.73-.83-3.4-3.4s-.73,1.34-1.88,3.41A16,16,0,0,1,220.46,39.19Z" fill="#0c86a9"/><path d="M210.56,76.47a17.78,17.78,0,0,1-2.07-7,32.1,32.1,0,0,1,2.09-13.85,9.35,9.35,0,0,1,.36-2.23,8.49,8.49,0,0,1,1.72-2.55c.71-1.4,1.45-2.72,2.19-3.94a25.85,25.85,0,0,0-1-4.84c-3.08,5.61-7.17,13.08-9.1,16.78-3.33,6.36-1.09,17.21,2.23,22.06a9.15,9.15,0,0,0,1.55,1.62l2-4S210.55,77.7,210.56,76.47Z" fill="#0c86a9"/><path d="M229.92,88.22a33.8,33.8,0,0,1-6.79-1.79l-.27,1.66s-.2.83-.55,2.06C226,91.79,229,92.91,229,92.91Z" fill="#0c86a9"/><path d="M220.46,39.19a15.23,15.23,0,0,0-4.54-.82l-2,3.71a25.85,25.85,0,0,1,1,4.84A57,57,0,0,1,220.46,39.19Z" fill="#0c86a9"/><path d="M210.94,53.42a9.44,9.44,0,0,0-.36,2.23,49.49,49.49,0,0,1,2.08-4.79A8.73,8.73,0,0,0,210.94,53.42Z" fill="#0c86a9"/><path d="M223.13,86.43c-4.33-1.62-9.66-4.61-12.57-10v2.1l-2,4c3.08,2.61,9.06,5.53,13.76,7.62.35-1.23.55-2.06.55-2.06Z" fill="#7e1518"/><path d="M216.21,103.62l-.11-.17L205.83,87.62l2.2-4.35,12,14.2Zm-10.09-16,10.09,15.53,3.51-5.65L208.08,83.73Z" fill="#50565c"/><path d="M160.13,54.05s-.45,2.5,3.51.91c0,0,.84,2.06,4.85,1.11,0,0,3,1.1,5,0a3.82,3.82,0,0,0,2.19-2.57l-5.19-1.42-4.84-.33H161.8S159.44,52.72,160.13,54.05Z" fill="#efc4be"/><line x1="204" y1="116.13" x2="209.51" y2="214.62" fill="none"/><path d="M108.81,183.28l-1.59,9.77,7.66,5.28.84,3.54-4.5,8.14,5.78,8,9.16-1.68,3.08,1.91,2.58,8.94,9.77,1.59,5.28-7.67,3.53-.83,8.15,4.5,8-5.78-1.68-9.15,1.91-3.09,8.94-2.58,1.59-9.77-7.66-5.28-.83-3.54,4.49-8.14-5.78-8-9.15,1.68-3.09-1.91-2.58-8.94L143,158.68l-5.28,7.66-3.54.84-8.15-4.5-8,5.78,1.68,9.15-1.91,3.09Zm22-.2,4.28.7-.7,4.28-4.28-.69Zm2.89,9.27A8.67,8.67,0,1,0,145,185.54l1.79,5.76-4.14,1.29-3.34-10.75,8.74-6.3,2.53,3.53-3.57,2.56a13,13,0,1,1-17.62,10Z" fill="#ffc653"/></svg>