<svg id="eb3fb9ef-5155-4da1-82ff-324ea99d9ff9" data-name="f06401a2-d3e8-4001-b6e5-b31775b68964" xmlns="http://www.w3.org/2000/svg" viewBox="0 0 320 240"><title>set-new-password-icon</title><path d="M306.56,145.37c5.59-14.91,5.94-55.46-24.21-97.95C241.6-10,187.89,13,167.45,29.59c-30.16,24.44-30.16,50.19-87.6,48-54.24-2.09-69.32,48.21-69.32,61,0,20.25,9.46,70.44,70.87,69.77,90.21-1,75.41.68,125.68,1.54C283.89,211.18,297.73,168.91,306.56,145.37Z" fill="#f4ece0"/><polygon points="102.17 50.56 101.7 34.8 95.27 33.69 95.27 50.56 102.17 50.56" fill="#fabfac"/><path d="M102.54,9.64H95.23l-4.56,1-3,7.6-1.93,6.35c-3.25-.83-2.49,1.08-2.49,1.08-.69,3.3,5.39,3.61,5.39,3.61,3.65,8.07,14.08,5.52,14.08,5.52,7.59-4.64,3.59-18.64,3.59-18.64C105.61,12.75,102.54,9.64,102.54,9.64Z" fill="#fbd2c0"/><path d="M81,11.85c-2,9.27,4.84,12.7,4.84,12.7L89,25.93a9.87,9.87,0,0,1,0-5.39,12.45,12.45,0,0,0,1.11-3c-.1-.61,3-6.07,3-6.07l.13,6.07c2.28-.48,9.53-4.56,9.53-4.56l5.52,2.9-1.52-2.21C101-4.69,87.82,3.87,87.82,3.87S82.43,4.69,81,11.85Z" fill="#524d38"/><path d="M104,16c-3.66-1.9-5.25,1-5.25,1Z" fill="#644e40"/><circle cx="102.42" cy="19.57" r="1.07" fill="#644e40"/><ellipse cx="99" cy="24.44" rx="1.66" ry="1.24" fill="#ef9e94"/><path d="M102.42,28.74A2.4,2.4,0,0,1,99.88,31a13.55,13.55,0,0,1-2.54-1l5.08-1.42Z" fill="#ca5c4c"/><path d="M95.24,18.31c-3.65-1.9-5.24,1-5.24,1Z" fill="#644e40"/><circle cx="94.23" cy="21.62" r="1.07" fill="#644e40"/><path d="M90,24.08c-3.8-4.51-4.12-13.71-4.12-13.71Z" fill="#625b4b"/><circle cx="96.6" cy="29.64" r="0.46" fill="#f5beab"/><circle cx="103.03" cy="28.17" r="0.46" fill="#f5beab"/><path d="M23,234.36h81.45C81.45,224.2,23,234.36,23,234.36Z" fill="#f4ece0"/><path d="M134,61.42l-2.5,2.08L124,69.08l-1.52-8.31c7.87-12.5,17.31-9,17.31-9Z" fill="#efc4be"/><polygon points="117.38 91.6 129.66 74.6 122.48 60.8 114.62 73.31 117.38 91.6" fill="#efc4be"/><path d="M88.5,46.53C89.13,49.46,85,59.6,85,59.6A62.41,62.41,0,0,0,80.38,69c-1.91,5-2.13,19.49-2.13,19.49a20.89,20.89,0,0,1,.51,4.46c-.13,1.57-10.81,1.61-14-1.49s-.27-24-3.84-35.71,4-16,4.89-19.4,8.54-2.55,8.54-2.55,1.25,7.38,1,4.76,4.92-3.7,7.75-5.09S88.21,35,88.21,35C91.07,35.84,87.87,43.6,88.5,46.53Z" fill="#0c86a9"/><path d="M105,54.42l6,55.74s13.86,7.51,9.84-2.8S114.62,66,114.62,66C111,51.53,105,54.42,105,54.42Z" fill="#7e1518"/><path d="M101.43,40.25l-1,4.66,4.15,2.73,6.1,11.21s.48.32.32-3.85a46.25,46.25,0,0,0-1.27-8.52c-.07-.27-7.39-5.56-7.39-5.56Z" fill="#7e1518"/><path d="M113.8,76.15l-2.32-15.84s-4.89-14.12-12-17.88a10.35,10.35,0,0,0-12.19,1.41L79.05,67.07l-.27,13L82.1,90.9l9.76,11.46,8.9,9.93,2.75.16s10.79,1.64,11.14-2.28S114,82.93,114,82.93Z" fill="#e4372f"/><path d="M104,143.39s-2.8,27.49-3.71,30.18-15.5,20.2-15.5,20.2c1.29,5.38,11.39,8,11.39,8s12-15.37,21.32-27.08,10.37-18.86,10-23.71-14.61-34.85-14.61-34.85Z" fill="#14466c"/><path d="M92.57,231.12s-.24-1.4.47-5.78,2.27-3.9,4.17-3.54,3.61,3.28,4.77,3.3,2.74-2.07,5.49-4.13,3.47-.61,3.9.32,5.55,5.78,7.43,7.39,2.1.73,6.59,2.48,1.08,3.68,1.08,3.68C119.74,236,92.57,231.12,92.57,231.12Z" fill="#412d2d"/><path d="M124.85,237.75a5.09,5.09,0,0,0,2.72-3.85c-3.58.82-35-2.79-35-2.79-1.47,1.82.81,5.33.81,5.33S122.33,239.07,124.85,237.75Z" fill="#9b796a"/><path d="M93,208.58A30.68,30.68,0,0,1,91.49,214c-.88,1.74,4.12,9.62,4.12,9.62l-2.94,4.61s-8.87-12.65-10.16-14.69-5.37-8.11-4.69-10.49,6.49-3.22,6.49-3.22C83.81,205.87,93,208.58,93,208.58Z" fill="#412d2d"/><path d="M88.76,230.1c2.5.75,3.8,1,3.8,1l.09-2.9c-3-1.91-14.84-25.17-14.84-25.17-2.42-1-4.27,4.78-4.27,4.78S86.26,229.35,88.76,230.1Z" fill="#9b796a"/><path d="M94.26,223.92c-1.34.31-.34-9.45-.34-9.45l13.1.78,2.09,6.4C106.12,228.4,95.6,223.61,94.26,223.92Z" fill="#fcd4c0"/><path d="M92.77,199.68s3.76,7.38.25,8.89-10.16-7.9-10.16-7.9l3.35-5.13Z" fill="#fcd4c0"/><path d="M93.32,127l11.48-21.37L95.14,92.08,80.83,56.84,77,67.9l.41,14.3,3,41.12,1.2,11.18C87.48,136.43,93.32,127,93.32,127Z" fill="#e4372f"/><path d="M107.11,182c-1.67,23,3.43,27.63-.08,33.24S91.47,214,91.47,214l.74-21-.72-38.85s-.8-20.72.31-25.75,8.93-16.11,8.93-16.11,1.52-4,2.75-3.94,11.14,1.82,11.14,1.82l-.81,9.91S108.78,159,107.11,182Z" fill="#20587e"/><path d="M101.23,48.3,99.3,54.43l-6.81-9.36s-6.13-4.94-4.36-8.91,7.53.61,7.53.61C95,38.71,101.23,48.3,101.23,48.3Z" fill="#7e1518"/><path d="M91.21,100.12s7.93,15.45,10.79,16,5.28-6,5.28-6l-4.37-9.52-4.72-9.34Z" fill="#efc4be"/><path d="M111,109.82c0-.6,0-1.29,0-2h.22c0,.71-.06,1.4-.06,2.05Zm-2-26.48h.26c.67,4.29,1.18,8.4,1.52,12.21h-.25C110.1,91.74,109.59,87.63,108.92,83.34Zm-1.21-7H108l.36,2h-.25C108,77.62,107.84,77,107.71,76.3Zm-.77-4,.25,0,.39,2h-.25Zm-2.68-12.1c-1.73-7.12-3.15-11.85-3.15-11.85l.24-.07s1.43,4.78,3.16,11.91l-.25.06Z" fill="#7e1518"/><path d="M87.73,83.47a6.33,6.33,0,0,1,2.76-4.4,6.9,6.9,0,0,1,5-.62l-.07.25a6.75,6.75,0,0,0-4.83.59A6.09,6.09,0,0,0,88,83.53Z" fill="#50565c"/><path d="M74.26,44.61c.59-3.69,1-6.07,1-6.07h.25c0,.06-.45,2.38-1,6.06Z" fill="#14466c"/><path d="M72.38,57.94c.07-.48.13-1,.2-1.48h.25c-.06.48-.13,1-.19,1.48ZM72.74,55c.07-.48.14-1,.2-1.48h.26c-.07.49-.14,1-.2,1.49Z" fill="#14466c"/><path d="M70.27,84v-1.5h.25V84Zm0-3q.06-.73.06-1.5h.26q-.06.77-.06,1.5Zm.68-10.45c.25-2.76.57-5.77.94-8.94h.25c-.37,3.17-.68,6.18-.93,8.94Z" fill="#14466c"/><path d="M70.35,87.75h.26a17.1,17.1,0,0,0,1.11,6l-.23.11A17.46,17.46,0,0,1,70.35,87.75Z" fill="#14466c"/><path d="M74.55,85.82l.06-.25,1.45.32-.06.25Zm-7-1.57V84l2,.45v.25Zm-2.93-.65V82.25h.26V83.4l.67.15v.25Zm.1-15.6H75.34v.29H65V70h-.27Z" fill="#14466c"/><path d="M62.14,62.15a6.62,6.62,0,0,0,1.39-.74l.15.21a7.19,7.19,0,0,1-1.45.77ZM65,60.07a11.21,11.21,0,0,0,1.2-1.63l.22.14a11.68,11.68,0,0,1-1.23,1.66ZM69.8,46.78a74.41,74.41,0,0,0,.58-9.44c0-1.71-.06-2.81-.06-2.81h.26v2.83A75,75,0,0,1,70,46.84Z" fill="#14466c"/><path d="M91.25,48.05a9.21,9.21,0,0,0,2.09,2.82c-.7-1.4-1.45-2.72-2.19-3.94A3.24,3.24,0,0,0,91.25,48.05Z" fill="none"/><path d="M95.36,68.62c0,.81.08,5.21.08,7.89a17.57,17.57,0,0,0,2.07-7,32.1,32.1,0,0,0-2.09-13.85C95.72,59.82,95.34,67.61,95.36,68.62Z" fill="none"/><path d="M91.22,47a58.52,58.52,0,0,0-5.62-7.74,11.58,11.58,0,0,0-3.45,1.66c-2.05,1.71-4.31,6.94-4.73,9.57C76.71,54.9,80,68.26,80,68.26l2.94,18.21c4.33-1.66,9.66-4.64,12.57-10,0-2.68,0-7-.08-7.89s.31-8.76,0-12.92a49.49,49.49,0,0,0-2.08-4.79,9.33,9.33,0,0,1-2.09-2.82A2.86,2.86,0,0,1,91.22,47Z" fill="#7e1518"/><path d="M97.46,82.54c-3.08,2.62-9.06,5.54-13.76,7.62.93,3.32,2.87,9.62,4.35,10.32,2,1,6.83-2.48,6.83-2.48L100,87.62Z" fill="#7e1518"/><path d="M90.13,38.38c.54,1.07,1.24,2.33,2,3.71.37-1.3.69-2.3.69-2.3C92.62,38.77,91.52,38.38,90.13,38.38Z" fill="#ca9580"/><path d="M90.09,38.37C88.94,36.3,88.21,35,88.21,35l-3.4,3.4.73.83A16,16,0,0,1,90.09,38.37Z" fill="#0c86a9"/><path d="M95.47,78.52l2,4A9.15,9.15,0,0,0,99,80.9c3.32-4.85,5.56-15.7,2.23-22.06-1.93-3.7-6-11.17-9.1-16.78a25.85,25.85,0,0,0-1,4.84c.74,1.22,1.48,2.54,2.19,3.94a8.49,8.49,0,0,1,1.72,2.55,9.35,9.35,0,0,1,.36,2.23,32.1,32.1,0,0,1,2.09,13.85,17.78,17.78,0,0,1-2.07,7C95.45,77.7,95.47,78.52,95.47,78.52Z" fill="#0c86a9"/><path d="M77,92.91s3-1.12,6.69-2.76c-.35-1.23-.55-2.06-.55-2.06l-.27-1.66a33.8,33.8,0,0,1-6.79,1.79Z" fill="#0c86a9"/><path d="M91.08,46.92a25.85,25.85,0,0,1,1-4.84l-2-3.71a15.23,15.23,0,0,0-4.54.82A57,57,0,0,1,91.08,46.92Z" fill="#0c86a9"/><path d="M93.34,50.86a49.49,49.49,0,0,1,2.08,4.79,9.44,9.44,0,0,0-.36-2.23A8.73,8.73,0,0,0,93.34,50.86Z" fill="#0c86a9"/><path d="M83.13,88.09s.2.83.55,2.06c4.7-2.09,10.68-5,13.76-7.62l-2-4v-2.1c-2.91,5.39-8.24,8.38-12.57,10Z" fill="#7e1518"/><path d="M86,97.47l12-14.2,2.2,4.35L89.9,103.45l-.11.17Zm12-13.74L86.28,97.5l3.51,5.65L99.88,87.62Z" fill="#50565c"/><path d="M144.2,51.75h-3.85l-4.84.33-5.19,1.42a3.82,3.82,0,0,0,2.19,2.57c2,1.1,5,0,5,0,4,1,4.85-1.11,4.85-1.11,4,1.59,3.51-.91,3.51-.91C146.56,52.72,144.2,51.75,144.2,51.75Z" fill="#efc4be"/><line x1="96.49" y1="214.62" x2="102" y2="116.13" fill="none"/><rect x="124" y="56" width="151" height="33.13" rx="4.65" transform="translate(399 145.13) rotate(-180)" fill="#ffc552"/><path d="M228,67.93l1.65,3.8h.06L231.42,68l1.65,1-2.55,3.3v.06l4-.52V73.6l-4-.52v0l2.57,3.31-1.54,1-1.76-3.82h-.06l-1.63,3.79-1.7-1,2.6-3.26v0l-4.09.49V71.75l4.09.54v-.05l-2.58-3.39Z" fill="#a56b16"/><path d="M210,67.93l1.65,3.8h0L213.34,68l1.66,1-2.55,3.3v.06l4-.52V73.6l-4-.52v0L215,76.44l-1.55,1-1.76-3.82h-.05L210,77.39l-1.71-1,2.6-3.26v0l-4.09.49V71.75l4.09.54v-.05l-2.57-3.39Z" fill="#a56b16"/><path d="M191.88,67.93l1.65,3.8h.06L195.27,68l1.65,1-2.55,3.3v.06l4-.52V73.6l-4-.52v0l2.57,3.31-1.54,1-1.76-3.82h-.06l-1.63,3.79-1.7-1,2.6-3.26v0l-4.09.49V71.75l4.09.54v-.05l-2.58-3.39Z" fill="#a56b16"/><path d="M173.81,67.93l1.65,3.8h0L177.19,68l1.66,1-2.55,3.3v.06l4-.52V73.6l-4-.52v0l2.58,3.31-1.55,1-1.76-3.82h0l-1.63,3.79-1.71-1,2.6-3.26v0l-4.09.49V71.75l4.09.54v-.05l-2.57-3.39Z" fill="#a56b16"/><path d="M155.73,67.93l1.65,3.8h.06L159.12,68l1.65,1-2.55,3.3v.06l4-.52V73.6l-4-.52v0l2.57,3.31-1.54,1-1.76-3.82h-.06l-1.63,3.79-1.7-1,2.6-3.26v0l-4.09.49V71.75l4.09.54v-.05l-2.58-3.39Z" fill="#a56b16"/><path d="M137.65,67.93l1.66,3.8h.05L141,68l1.66,1-2.55,3.3v.06l4-.52V73.6l-4-.52v0l2.58,3.31-1.55,1-1.76-3.82h0l-1.63,3.79-1.71-1,2.6-3.26v0l-4.09.49V71.75l4.09.54v-.05L136,68.85Z" fill="#a56b16"/><path d="M248,67.93l1.65,3.8h.06L251.42,68l1.65,1-2.55,3.3v.06l4-.52V73.6l-4-.52v0l2.57,3.31-1.54,1-1.76-3.82h-.06l-1.63,3.79-1.7-1,2.6-3.26v0l-4.09.49V71.75l4.09.54v-.05l-2.58-3.39Z" fill="#a56b16"/><rect x="124" y="104" width="151" height="33.13" rx="4.65" transform="translate(399 241.13) rotate(-180)" fill="#ffc552"/><path d="M228,115.93l1.65,3.8h.06l1.68-3.77,1.65,1-2.55,3.3v.06l4-.52v1.85l-4-.52v0l2.57,3.31-1.54,1-1.76-3.82h-.06l-1.63,3.79-1.7-1,2.6-3.26v0l-4.09.49v-1.85l4.09.54v-.05l-2.58-3.39Z" fill="#a56b16"/><path d="M210,115.93l1.65,3.8h0l1.68-3.77,1.66,1-2.55,3.3v.06l4-.52v1.85l-4-.52v0l2.58,3.31-1.55,1-1.76-3.82h-.05L210,125.39l-1.71-1,2.6-3.26v0l-4.09.49v-1.85l4.09.54v-.05l-2.57-3.39Z" fill="#a56b16"/><path d="M191.88,115.93l1.65,3.8h.06l1.68-3.77,1.65,1-2.55,3.3v.06l4-.52v1.85l-4-.52v0l2.57,3.31-1.54,1-1.76-3.82h-.06l-1.63,3.79-1.7-1,2.6-3.26v0l-4.09.49v-1.85l4.09.54v-.05l-2.58-3.39Z" fill="#a56b16"/><path d="M173.81,115.93l1.65,3.8h0l1.68-3.77,1.66,1-2.55,3.3v.06l4-.52v1.85l-4-.52v0l2.58,3.31-1.55,1-1.76-3.82h0l-1.63,3.79-1.71-1,2.6-3.26v0l-4.09.49v-1.85l4.09.54v-.05l-2.57-3.39Z" fill="#a56b16"/><path d="M155.73,115.93l1.65,3.8h.06l1.68-3.77,1.65,1-2.55,3.3v.06l4-.52v1.85l-4-.52v0l2.57,3.31-1.54,1-1.76-3.82h-.06l-1.63,3.79-1.7-1,2.6-3.26v0l-4.09.49v-1.85l4.09.54v-.05l-2.58-3.39Z" fill="#a56b16"/><path d="M137.65,115.93l1.66,3.8h.05L141,116l1.66,1-2.55,3.3v.06l4-.52v1.85l-4-.52v0l2.58,3.31-1.55,1-1.76-3.82h0l-1.63,3.79-1.71-1,2.6-3.26v0l-4.09.49v-1.85l4.09.54v-.05L136,116.85Z" fill="#a56b16"/><path d="M248,115.93l1.65,3.8h.06l1.68-3.77,1.65,1-2.55,3.3v.06l4-.52v1.85l-4-.52v0l2.57,3.31-1.54,1-1.76-3.82h-.06l-1.63,3.79-1.7-1,2.6-3.26v0l-4.09.49v-1.85l4.09.54v-.05l-2.58-3.39Z" fill="#a56b16"/><path d="M262.1,186.49v10.22a8,8,0,0,1-8,8h-5.32a8,8,0,0,1-8-8V186.49" fill="#dec6bb"/><path d="M245.78,186.57l-.47-.16c0-.09,2.93-8.93-2.79-13l.29-.4C248.83,177.28,245.81,186.48,245.78,186.57Z" fill="#040505"/><path d="M250.23,186.53l-.49-.08c0-.14,2.33-14-2.32-20.11l.4-.3C252.59,172.35,250.33,186,250.23,186.53Z" fill="#040505"/><circle cx="246.33" cy="163.89" r="3.09" fill="#f1c37e"/><circle cx="240.84" cy="171.41" r="3.09" fill="#f1c37e"/><path d="M253.38,186.32H255a2.2,2.2,0,0,0,1.63-2.52c-.38-2-1.55-1.49-1.73-3.06s2.47-2.07,1.53-3.15a48.15,48.15,0,0,1-3.06-4.67v13.39Z" fill="#209c53"/></svg>