<svg width="500" height="500" viewBox="0 0 500 500" fill="none" xmlns="http://www.w3.org/2000/svg">
  <g clip-path="url(#clip0_301_105)">
    <path d="M500 242.911C500 377.067 391.245 485.822 257.088 485.822C122.932 485.822 14.1772 377.067 14.1772 242.911C14.1772 108.755 122.932 0 257.088 0C391.245 0 500 108.755 500 242.911Z" fill="#E5E7EB"/>
    <mask id="mask0_301_105" style="mask-type:alpha" maskUnits="userSpaceOnUse" x="14" y="0" width="486" height="486">
      <path d="M500 242.911C500 377.067 391.245 485.822 257.088 485.822C122.932 485.822 14.1772 377.067 14.1772 242.911C14.1772 108.755 122.932 0 257.088 0C391.245 0 500 108.755 500 242.911Z" fill="#E5E7EB"/>
    </mask>
    <g mask="url(#mask0_301_105)">
      <g filter="url(#filter0_d_301_105)">
        <path d="M5.39239 131.101C2.61462 120.734 8.76674 110.078 19.1335 107.3L193.872 60.4791L244.944 90.063L293.787 117.775L369.983 402.144C372.761 412.511 366.609 423.167 356.242 425.945L121.377 488.877C111.01 491.654 100.354 485.502 97.5763 475.135L5.39239 131.101Z" fill="url(#paint0_linear_301_105)"/>
        <path d="M194.952 60.7637L244.172 89.6553L293.803 117.835L233.674 133.947C223.826 136.586 213.703 130.741 211.064 120.893L194.952 60.7637Z" fill="url(#paint1_linear_301_105)"/>
      </g>
      <path d="M69.115 206.035C68.0699 202.135 70.3846 198.126 74.2851 197.081L132.462 181.492C136.363 180.447 140.372 182.762 141.417 186.662C142.462 190.563 140.147 194.572 136.247 195.617L78.0698 211.205C74.1693 212.25 70.1601 209.936 69.115 206.035Z" fill="#E9EBEE"/>
      <path d="M100.617 323.601C99.5719 319.701 101.887 315.692 105.787 314.647L163.964 299.058C167.865 298.013 171.874 300.328 172.919 304.228C173.964 308.129 171.649 312.138 167.749 313.183L109.572 328.772C105.671 329.817 101.662 327.502 100.617 323.601Z" fill="#E9EBEE"/>
      <path d="M74.7262 226.977C74.2739 225.289 75.2757 223.554 76.9638 223.102L257.736 174.664C259.424 174.212 261.159 175.214 261.612 176.902C262.064 178.59 261.062 180.325 259.374 180.777L78.6018 229.215C76.9137 229.667 75.1785 228.666 74.7262 226.977Z" fill="#E9EBEE"/>
      <path d="M106.228 344.544C105.776 342.856 106.778 341.12 108.466 340.668L289.238 292.23C290.926 291.778 292.661 292.78 293.114 294.468C293.566 296.156 292.564 297.891 290.876 298.343L110.104 346.781C108.416 347.233 106.681 346.232 106.228 344.544Z" fill="#E9EBEE"/>
      <path d="M78.1061 239.591C77.6538 237.903 78.6556 236.168 80.3437 235.716L261.116 187.278C262.804 186.826 264.539 187.827 264.992 189.515C265.444 191.204 264.442 192.939 262.754 193.391L81.9817 241.829C80.2936 242.281 78.5584 241.279 78.1061 239.591Z" fill="#E9EBEE"/>
      <path d="M109.608 357.157C109.156 355.469 110.158 353.734 111.846 353.282L292.618 304.844C294.306 304.392 296.041 305.393 296.493 307.082C296.946 308.77 295.944 310.505 294.256 310.957L113.484 359.395C111.796 359.847 110.06 358.845 109.608 357.157Z" fill="#E9EBEE"/>
      <path d="M81.486 252.205C81.0337 250.517 82.0355 248.782 83.7235 248.329L252.437 203.122C254.125 202.67 255.861 203.672 256.313 205.36C256.765 207.048 255.763 208.783 254.075 209.236L85.3616 254.442C83.6735 254.895 81.9383 253.893 81.486 252.205Z" fill="#E9EBEE"/>
      <path d="M112.988 369.771C112.536 368.083 113.537 366.348 115.225 365.895L283.939 320.689C285.627 320.236 287.363 321.238 287.815 322.926C288.267 324.614 287.265 326.349 285.577 326.802L116.864 372.008C115.175 372.461 113.44 371.459 112.988 369.771Z" fill="#E9EBEE"/>
      <path d="M84.8659 264.819C84.4136 263.13 85.4153 261.395 87.1034 260.943L168.934 239.016C170.622 238.564 172.357 239.566 172.81 241.254C173.262 242.942 172.26 244.677 170.572 245.13L88.7414 267.056C87.0533 267.508 85.3182 266.507 84.8659 264.819Z" fill="#E9EBEE"/>
      <path d="M116.368 382.385C115.916 380.697 116.917 378.961 118.605 378.509L200.436 356.583C202.124 356.13 203.859 357.132 204.312 358.82C204.764 360.508 203.762 362.243 202.074 362.696L120.243 384.622C118.555 385.075 116.82 384.073 116.368 382.385Z" fill="#E9EBEE"/>
    </g>
    <path d="M5.32049 131.059C2.58016 120.706 8.73232 110.087 19.0768 107.315L193.873 60.479L244.944 90.0629L293.787 117.775L96.959 153.665C92.1352 154.545 87.8222 157.216 84.8848 161.142L31.9954 231.836L5.32049 131.059Z" fill="url(#paint2_linear_301_105)"/>
    <path d="M194.952 60.7637L244.172 89.6553L293.803 117.835L233.674 133.947C223.826 136.586 213.703 130.741 211.064 120.893L194.952 60.7637Z" fill="url(#paint3_linear_301_105)"/>
    <g filter="url(#filter1_d_301_105)">
      <path d="M163.757 80.4529C163.757 69.7204 172.457 61.02 183.19 61.02H364.093L405.767 102.814L445.773 142.224V436.624C445.773 447.356 437.073 456.057 426.341 456.057H183.19C172.457 456.057 163.757 447.357 163.757 436.624V80.4529Z" fill="url(#paint4_linear_301_105)"/>
      <path d="M365.062 61.5747L405.127 102.221L445.773 142.286H383.523C373.327 142.286 365.062 134.021 365.062 123.825V61.5747Z" fill="url(#paint5_linear_301_105)"/>
    </g>
    <path d="M205.914 169.327C205.914 165.289 209.187 162.016 213.225 162.016H273.455C277.493 162.016 280.766 165.289 280.766 169.327C280.766 173.365 277.493 176.639 273.455 176.639H213.225C209.187 176.639 205.914 173.365 205.914 169.327Z" fill="#E9EBEE"/>
    <path d="M205.914 291.041C205.914 287.002 209.187 283.729 213.225 283.729H273.455C277.493 283.729 280.766 287.002 280.766 291.041C280.766 295.079 277.493 298.352 273.455 298.352H213.225C209.187 298.352 205.914 295.079 205.914 291.041Z" fill="#E9EBEE"/>
    <path d="M205.914 191.008C205.914 189.26 207.33 187.844 209.078 187.844H396.227C397.975 187.844 399.392 189.26 399.392 191.008C399.392 192.756 397.975 194.172 396.227 194.172H209.078C207.33 194.172 205.914 192.756 205.914 191.008Z" fill="#E9EBEE"/>
    <path d="M205.914 312.722C205.914 310.974 207.33 309.557 209.078 309.557H396.227C397.975 309.557 399.392 310.974 399.392 312.722C399.392 314.469 397.975 315.886 396.227 315.886H209.078C207.33 315.886 205.914 314.469 205.914 312.722Z" fill="#E9EBEE"/>
    <path d="M205.914 204.067C205.914 202.319 207.33 200.902 209.078 200.902H396.227C397.975 200.902 399.392 202.319 399.392 204.067C399.392 205.814 397.975 207.231 396.227 207.231H209.078C207.33 207.231 205.914 205.814 205.914 204.067Z" fill="#E9EBEE"/>
    <path d="M205.914 325.78C205.914 324.032 207.33 322.616 209.078 322.616H396.227C397.975 322.616 399.392 324.032 399.392 325.78C399.392 327.528 397.975 328.944 396.227 328.944H209.078C207.33 328.944 205.914 327.528 205.914 325.78Z" fill="#E9EBEE"/>
    <path d="M205.914 217.125C205.914 215.378 207.33 213.961 209.078 213.961H383.743C385.491 213.961 386.908 215.378 386.908 217.125C386.908 218.873 385.491 220.29 383.743 220.29H209.078C207.33 220.29 205.914 218.873 205.914 217.125Z" fill="#E9EBEE"/>
    <path d="M205.914 338.839C205.914 337.091 207.33 335.674 209.078 335.674H383.743C385.491 335.674 386.908 337.091 386.908 338.839C386.908 340.586 385.491 342.003 383.743 342.003H209.078C207.33 342.003 205.914 340.586 205.914 338.839Z" fill="#E9EBEE"/>
    <path d="M205.914 230.184C205.914 228.436 207.33 227.02 209.078 227.02H293.795C295.543 227.02 296.96 228.436 296.96 230.184C296.96 231.932 295.543 233.348 293.795 233.348H209.078C207.33 233.348 205.914 231.932 205.914 230.184Z" fill="#E9EBEE"/>
    <path d="M205.914 351.897C205.914 350.15 207.33 348.733 209.078 348.733H293.795C295.543 348.733 296.96 350.15 296.96 351.897C296.96 353.645 295.543 355.062 293.795 355.062H209.078C207.33 355.062 205.914 353.645 205.914 351.897Z" fill="#E9EBEE"/>
    <path d="M439.398 316.688C439.398 349.422 412.862 375.958 380.128 375.958C347.394 375.958 320.857 349.422 320.857 316.688C320.857 283.954 347.394 257.418 380.128 257.418C412.862 257.418 439.398 283.954 439.398 316.688Z" fill="white" fill-opacity="0.49"/>
    <path fill-rule="evenodd" clip-rule="evenodd" d="M358.873 313.173C358.921 313.173 358.967 313.154 359.002 313.12C359.036 313.086 359.055 313.039 359.055 312.991C359.055 312.943 359.036 312.896 359.002 312.862C358.967 312.828 358.921 312.809 358.873 312.809C358.824 312.809 358.778 312.828 358.744 312.862C358.71 312.896 358.691 312.943 358.691 312.991C358.691 313.039 358.71 313.086 358.744 313.12C358.778 313.154 358.824 313.173 358.873 313.173ZM353.505 307.623C354.929 306.2 356.859 305.4 358.873 305.4C360.886 305.4 362.817 306.2 364.24 307.623C365.664 309.047 366.464 310.978 366.464 312.991C366.464 315.004 365.664 316.935 364.24 318.359C362.817 319.782 360.886 320.582 358.873 320.582C356.859 320.582 354.929 319.782 353.505 318.359C352.081 316.935 351.282 315.004 351.282 312.991C351.282 310.978 352.081 309.047 353.505 307.623ZM403.325 313.173C403.374 313.173 403.42 313.154 403.454 313.12C403.488 313.086 403.508 313.039 403.508 312.991C403.508 312.943 403.488 312.896 403.454 312.862C403.42 312.828 403.374 312.809 403.325 312.809C403.277 312.809 403.231 312.828 403.197 312.862C403.162 312.896 403.143 312.943 403.143 312.991C403.143 313.039 403.162 313.086 403.197 313.12C403.231 313.154 403.277 313.173 403.325 313.173ZM397.958 307.623C399.381 306.2 401.312 305.4 403.325 305.4C405.339 305.4 407.269 306.2 408.693 307.623C410.117 309.047 410.916 310.978 410.916 312.991C410.916 315.004 410.117 316.935 408.693 318.359C407.269 319.782 405.339 320.582 403.325 320.582C401.312 320.582 399.381 319.782 397.958 318.359C396.534 316.935 395.734 315.004 395.734 312.991C395.734 310.978 396.534 309.047 397.958 307.623ZM371.838 335.217L369.09 332.469C367.978 333.581 367.646 335.253 368.247 336.705C368.849 338.157 370.266 339.104 371.838 339.104H390.36C391.932 339.104 393.349 338.157 393.951 336.705C394.552 335.253 394.22 333.581 393.108 332.469L390.36 335.217C393.108 332.469 393.107 332.468 393.106 332.467L393.104 332.465L393.1 332.461L393.089 332.45L393.064 332.426C393.057 332.419 393.049 332.41 393.04 332.402C393.027 332.39 393.013 332.376 392.998 332.361C392.945 332.312 392.878 332.249 392.795 332.174C392.63 332.025 392.405 331.83 392.122 331.604C391.56 331.154 390.756 330.571 389.742 329.991C387.728 328.84 384.747 327.627 381.099 327.627C377.451 327.627 374.47 328.84 372.457 329.991C371.442 330.571 370.639 331.154 370.076 331.604C369.793 331.83 369.568 332.025 369.403 332.174C369.321 332.249 369.253 332.312 369.201 332.361C369.175 332.386 369.152 332.408 369.134 332.426L369.109 332.45L369.099 332.461L369.094 332.465L369.092 332.467C369.091 332.468 369.09 332.469 371.838 335.217Z" fill="#374151"/>
    <g filter="url(#filter2_di_301_105)">
      <path fill-rule="evenodd" clip-rule="evenodd" d="M431.74 288.585C447.836 316.464 438.284 352.112 410.405 368.208C382.527 384.303 346.879 374.752 330.783 346.873C314.687 318.994 324.239 283.346 352.118 267.251C379.996 251.155 415.644 260.707 431.74 288.585ZM425.27 378.227C455.883 356.015 465.374 313.805 446.045 280.326C425.388 244.547 379.638 232.289 343.859 252.946C308.08 273.603 295.821 319.353 316.478 355.132C335.682 388.394 376.572 401.328 410.977 386.387C411.081 386.611 411.196 386.833 411.322 387.051L451.96 457.439C454.241 461.39 459.292 462.743 463.242 460.462C467.192 458.182 468.546 453.131 466.265 449.18L425.627 378.792C425.514 378.598 425.395 378.409 425.27 378.227Z" fill="#4B5563"/>
    </g>
  </g>
  <defs>
    <filter id="filter0_d_301_105" x="-40.2744" y="19.479" width="455.925" height="519.064" filterUnits="userSpaceOnUse" color-interpolation-filters="sRGB">
      <feFlood flood-opacity="0" result="BackgroundImageFix"/>
      <feColorMatrix in="SourceAlpha" type="matrix" values="0 0 0 0 0 0 0 0 0 0 0 0 0 0 0 0 0 0 127 0" result="hardAlpha"/>
      <feOffset dy="4"/>
      <feGaussianBlur stdDeviation="22.5"/>
      <feComposite in2="hardAlpha" operator="out"/>
      <feColorMatrix type="matrix" values="0 0 0 0 0.294118 0 0 0 0 0.333333 0 0 0 0 0.388235 0 0 0 0.23 0"/>
      <feBlend mode="normal" in2="BackgroundImageFix" result="effect1_dropShadow_301_105"/>
      <feBlend mode="normal" in="SourceGraphic" in2="effect1_dropShadow_301_105" result="shape"/>
    </filter>
    <filter id="filter1_d_301_105" x="118.757" y="20.02" width="372.017" height="485.037" filterUnits="userSpaceOnUse" color-interpolation-filters="sRGB">
      <feFlood flood-opacity="0" result="BackgroundImageFix"/>
      <feColorMatrix in="SourceAlpha" type="matrix" values="0 0 0 0 0 0 0 0 0 0 0 0 0 0 0 0 0 0 127 0" result="hardAlpha"/>
      <feOffset dy="4"/>
      <feGaussianBlur stdDeviation="22.5"/>
      <feComposite in2="hardAlpha" operator="out"/>
      <feColorMatrix type="matrix" values="0 0 0 0 0.294118 0 0 0 0 0.333333 0 0 0 0 0.388235 0 0 0 0.23 0"/>
      <feBlend mode="normal" in2="BackgroundImageFix" result="effect1_dropShadow_301_105"/>
      <feBlend mode="normal" in="SourceGraphic" in2="effect1_dropShadow_301_105" result="shape"/>
    </filter>
    <filter id="filter2_di_301_105" x="260.443" y="219.911" width="210.93" height="266.659" filterUnits="userSpaceOnUse" color-interpolation-filters="sRGB">
      <feFlood flood-opacity="0" result="BackgroundImageFix"/>
      <feColorMatrix in="SourceAlpha" type="matrix" values="0 0 0 0 0 0 0 0 0 0 0 0 0 0 0 0 0 0 127 0" result="hardAlpha"/>
      <feOffset dx="-22" dy="1"/>
      <feGaussianBlur stdDeviation="12"/>
      <feComposite in2="hardAlpha" operator="out"/>
      <feColorMatrix type="matrix" values="0 0 0 0 0.294118 0 0 0 0 0.333333 0 0 0 0 0.388235 0 0 0 0.28 0"/>
      <feBlend mode="normal" in2="BackgroundImageFix" result="effect1_dropShadow_301_105"/>
      <feBlend mode="normal" in="SourceGraphic" in2="effect1_dropShadow_301_105" result="shape"/>
      <feColorMatrix in="SourceAlpha" type="matrix" values="0 0 0 0 0 0 0 0 0 0 0 0 0 0 0 0 0 0 127 0" result="hardAlpha"/>
      <feOffset dx="7" dy="4"/>
      <feGaussianBlur stdDeviation="2"/>
      <feComposite in2="hardAlpha" operator="arithmetic" k2="-1" k3="1"/>
      <feColorMatrix type="matrix" values="0 0 0 0 0.898039 0 0 0 0 0.905882 0 0 0 0 0.921569 0 0 0 0.19 0"/>
      <feBlend mode="normal" in2="shape" result="effect2_innerShadow_301_105"/>
    </filter>
    <linearGradient id="paint0_linear_301_105" x1="234.839" y1="83.0252" x2="106.439" y2="482.349" gradientUnits="userSpaceOnUse">
      <stop stop-color="#F9FAFB"/>
      <stop offset="1" stop-color="white"/>
    </linearGradient>
    <linearGradient id="paint1_linear_301_105" x1="215.842" y1="138.725" x2="255.599" y2="72.3004" gradientUnits="userSpaceOnUse">
      <stop stop-color="#D1D5DB"/>
      <stop offset="1" stop-color="#D1D5DB" stop-opacity="0"/>
    </linearGradient>
    <linearGradient id="paint2_linear_301_105" x1="234.839" y1="83.0251" x2="106.439" y2="482.349" gradientUnits="userSpaceOnUse">
      <stop stop-color="#F9FAFB"/>
      <stop offset="1" stop-color="white"/>
    </linearGradient>
    <linearGradient id="paint3_linear_301_105" x1="215.842" y1="138.725" x2="255.599" y2="72.3004" gradientUnits="userSpaceOnUse">
      <stop stop-color="#D1D5DB"/>
      <stop offset="1" stop-color="#D1D5DB" stop-opacity="0"/>
    </linearGradient>
    <linearGradient id="paint4_linear_301_105" x1="397.828" y1="93.4008" x2="170.451" y2="445.885" gradientUnits="userSpaceOnUse">
      <stop stop-color="#F9FAFB"/>
      <stop offset="1" stop-color="white"/>
    </linearGradient>
    <linearGradient id="paint5_linear_301_105" x1="365.062" y1="142.286" x2="420.656" y2="88.415" gradientUnits="userSpaceOnUse">
      <stop stop-color="#D1D5DB"/>
      <stop offset="1" stop-color="#D1D5DB" stop-opacity="0"/>
    </linearGradient>
    <clipPath id="clip0_301_105">
      <rect width="500" height="500" fill="white"/>
    </clipPath>
  </defs>
</svg>
