<svg xmlns="http://www.w3.org/2000/svg" viewBox="0 0 60 74.41"><defs><style>.cls-1{fill:#caedff;stroke:#3273ad;stroke-linecap:round;stroke-linejoin:round;stroke-width:0.25px;}.cls-2{fill:#008ac1;}.cls-3{fill:#fad264;}.cls-4{fill:none;}.cls-5{fill:#fff;}</style></defs><title>Asset 1</title><g id="Layer_2" data-name="Layer 2"><g id="Layer_1-2" data-name="Layer 1"><path class="cls-1" d="M15.37,21.6c-1.76.66-4.44-.79-6.09-3.32s-1.65-5.15.34-5.66,5,1.15,6.5,3.58S17.17,21,15.37,21.6Z"/><path class="cls-1" d="M9.22,18.31C8.11,16.67,7.7,15,8.15,13.82a2,2,0,0,1,1.46-1.28c2-.49,5.06,1.16,6.58,3.61a4.82,4.82,0,0,1,.69,4,2.39,2.39,0,0,1-1.49,1.5,2.68,2.68,0,0,1-.94.16C12.75,21.83,10.62,20.45,9.22,18.31Zm.42-5.63a1.89,1.89,0,0,0-1.36,1.19c-.43,1.12,0,2.75,1.06,4.36,1.64,2.5,4.27,3.94,6,3.29h0a2.25,2.25,0,0,0,1.4-1.41,4.74,4.74,0,0,0-.68-3.88c-1.31-2.12-3.76-3.63-5.68-3.63A3.17,3.17,0,0,0,9.64,12.68Z"/><path class="cls-1" d="M15,28.38c-.47-1.21-1.28-1.23-1.28-1.23s-3.14-.4-4-.56A2.51,2.51,0,0,0,8,27L3.55,31a1,1,0,0,1-1.32,0h0a1,1,0,0,1-.08-1.31l3.68-4.59A3.74,3.74,0,0,1,7.87,24l5.7-.87,1.71-.26h.1l6.88-2.22h0c.49-.24,4-1.84,5.69-2.69l.35-.13h0l.14-.05a5.62,5.62,0,0,1,1.24-.28.84.84,0,0,1,.8.33c.32.55-.87,1.46-.87,1.46h0c-1.5,1.21-3.85,3.1-4.25,3.41a5.33,5.33,0,0,1-1.18.7L20.45,25.3a1.05,1.05,0,0,0-.37.46,1.22,1.22,0,0,0,.07,1l.1.2h0l1.37,2.63a2,2,0,0,0,2,1.15l3.25-.4a3.57,3.57,0,0,1,2.53.84l3.52,3.34c.23.21,1.16,1,1.88.38s3.79-3.08,3-.8c-.13.2-2,2.69-2.21,3l-.06.08-.4.59a1.35,1.35,0,0,1-.94.7,1.79,1.79,0,0,1-.7-.17L28.22,35.8a2.36,2.36,0,0,0-3,.44s-7.84,8.71-8.79,10.07a1.31,1.31,0,0,1-2,.46s-4-2.5-5-3-1.18.37-1.18.37L7.5,47c-.29.73-.73-1.19-.73-1.19L5.71,40.92c-.29-1.54.79-.92.79-.92s6.41,1.66,7.13,1.71a1.17,1.17,0,0,0,1-.29l0,0s2.05-3.29,2.61-4.25a2,2,0,0,0,.33-1.62Z"/><path class="cls-1" d="M7.34,47.22c-.29,0-.54-1-.64-1.42L5.64,40.93c-.1-.55,0-.9.17-1.05s.65,0,.72,0c.28.07,6.41,1.66,7.11,1.71a1.09,1.09,0,0,0,.91-.27l0,0h0s2.06-3.3,2.61-4.25a2,2,0,0,0,.33-1.55l-2.56-7.14c-.45-1.15-1.19-1.19-1.22-1.19s-3.15-.4-4-.56a2.45,2.45,0,0,0-1.64.44l-4.48,4a1,1,0,0,1-1.51-1.44l3.68-4.59a3.77,3.77,0,0,1,2.1-1.14l5.7-.87,1.71-.26h.09l6.73-2.17.1,0,1.11-.52c1.27-.59,3.39-1.57,4.58-2.17l.35-.13h0l.1,0a5.76,5.76,0,0,1,1.26-.28.9.9,0,0,1,.86.36c.33.55-.67,1.38-.86,1.54l0,0c-1.28,1-3.82,3.08-4.25,3.41a5.33,5.33,0,0,1-1.2.71L20.5,25.36a1,1,0,0,0-.34.43,1.15,1.15,0,0,0,.07.9l1.47,2.83c.85,1.3,1.85,1.13,1.89,1.12l3.25-.4a3.6,3.6,0,0,1,2.59.86l3.52,3.34c.18.16,1.1.94,1.78.38,1.71-1.4,2.72-2,3.08-1.7.19.13.19.45,0,1v0c-.15.23-2,2.7-2.21,3l-.46.66a1.4,1.4,0,0,1-1,.74,1.84,1.84,0,0,1-.73-.18l-5.22-2.45a2.21,2.21,0,0,0-2.11-.17,2.54,2.54,0,0,0-.83.6c-.08.09-7.85,8.72-8.79,10.06a1.58,1.58,0,0,1-1.06.79,1.48,1.48,0,0,1-1.07-.3s-4-2.5-5-3a.87.87,0,0,0-.75-.09.68.68,0,0,0-.33.41L7.57,47c-.06.14-.13.21-.22.21Zm2.08-3.48c.94.47,4.94,2.95,5,3a1.36,1.36,0,0,0,1,.27,1.44,1.44,0,0,0,1-.72c.94-1.34,8.72-10,8.8-10.07a2.42,2.42,0,0,1,3.12-.46l5.22,2.45a1.72,1.72,0,0,0,.66.16c.11,0,.48-.08.88-.67l.4-.59.06-.08c.23-.28,2-2.72,2.2-3,.15-.43.17-.71.05-.79s-.69-.12-2.9,1.69c-.78.63-1.78-.21-2-.39l-3.52-3.34a3.52,3.52,0,0,0-2.47-.82l-3.24.4a2.11,2.11,0,0,1-2-1.19L20.2,27l-.11-.21a1.3,1.3,0,0,1-.07-1,1.13,1.13,0,0,1,.4-.5l3.68-1.92a5.3,5.3,0,0,0,1.17-.69c.43-.33,2.93-2.34,4.22-3.38l0,0c.32-.24,1.09-1,.85-1.36a.76.76,0,0,0-.73-.29,5.61,5.61,0,0,0-1.22.27l-.14.05-.08,0h0l-.27.1c-1.19.6-3.32,1.58-4.58,2.17l-.87.4h.13L15.4,22.93h-.11l-1.71.26-5.7.87a3.69,3.69,0,0,0-2,1.09L2.2,29.74A.9.9,0,0,0,3.5,31L8,27a2.56,2.56,0,0,1,1.76-.47c.85.16,4,.55,4,.56s.87,0,1.35,1.28l2.56,7.14a2.06,2.06,0,0,1-.34,1.68c-.55.95-2.59,4.22-2.61,4.25l0,0a1.24,1.24,0,0,1-1,.31c-.72-.05-6.88-1.65-7.14-1.72h0c-.1-.06-.4-.18-.57-.06s-.2.43-.11.9l1.06,4.87a2.8,2.8,0,0,0,.51,1.3s0,0,.08-.11l.7-2.81a.82.82,0,0,1,.41-.51.72.72,0,0,1,.3-.06A1.31,1.31,0,0,1,9.42,43.73Z"/><path class="cls-2" d="M47.8,12.46c-.76-.27-.62-1.4-.49-2.5.1-.79.2-1.61-.08-1.89a5.3,5.3,0,0,0-2-.65c-1.26-.26-2.45-.5-2.45-1.16,0-.45.88-.7,2.43-1.1.94-.24,2.37-.6,2.4-.92A4.54,4.54,0,0,0,47.32,3C47,2,46.67.68,47.39.13A.56.56,0,0,1,47.85,0c.52.09,1,.86,1.56,1.76s1,1.63,1.49,1.8,1.37-.48,2.21-1c1.22-.7,2.28-1.3,2.71-.92.7.62-1.44,3.74-2.17,4.75a7.72,7.72,0,0,0,1.34,2c.87,1.11,1.32,1.7,1.18,2-.39.84-1.81.3-3.18-.21-.85-.32-1.81-.68-2.07-.48a8.8,8.8,0,0,0-.92,1c-.72.84-1.46,1.71-2,1.71A.49.49,0,0,1,47.8,12.46Z"/><path class="cls-3" d="M53.08,10c1.19.45,2.53,1,2.81.37,0-.2-.67-1.1-1.14-1.7-.85-1.08-1.41-1.81-1.41-2.25a.15.15,0,0,1,0-.09c1.55-2.15,2.56-4.12,2.25-4.4s-1.48.45-2.36,1c-1.07.61-2,1.14-2.45,1s-1.12-1.08-1.65-1.92S48.18.37,47.79.3a.27.27,0,0,0-.22.06C47,.79,47.34,2,47.61,3a4.51,4.51,0,0,1,.25,1.3c0,.49-1,.77-2.62,1.18-.77.2-2.2.56-2.2.81,0,.42,1.22.67,2.21.87a5.17,5.17,0,0,1,2.2.73c.39.39.28,1.24.17,2.14s-.25,2,.3,2.18c.39.14,1.28-.91,1.87-1.6a8.93,8.93,0,0,1,1-1,.66.66,0,0,1,.42-.12A6.76,6.76,0,0,1,53.08,10Z"/><path class="cls-4" d="M1.09,74.07c1.38.66,14.93-.51,23.54-1.13,3.94-.28,10.71-.92,14.6-1,11,0,14.61-10,16.09-19.56.53-3.43.65-10.74,1.6-15.19h0a16.66,16.66,0,0,1,2.47-6.05,2.94,2.94,0,0,0,.38-.71c0-.1.05-.2.07-.3.31-1.94-3.48-2.39-4.2-2.34h-.22c-2,.15-3.73.88-4.56,2.34-1.36,2.27-.95,3.86-4.27,4.91-2.26.68-4.53-.13-6.76.37-2.75.58-2.14,3.38-2.27,5.28-.14,2.09-.37,4.75-2.83,5.25-3,.69-5.3.23-6.14,3.86-.41,1.77,0,4.35-1,6s-4,2.26-5.86,2.5-5.17-.29-6.68,1.57c-.68.85-.46,6-.84,6.88-.8,1.86-11.28.25-13.16,2.52C-.48,71.12.26,73.67,1.09,74.07Z"/><path class="cls-2" d="M1,74.2H1A2.22,2.22,0,0,1,.1,72.66a4,4,0,0,1,.78-3.42c1-1.24,4.32-1.37,7.51-1.49,2.6-.1,5.28-.2,5.63-1a13.22,13.22,0,0,0,.26-2.71c.09-1.81.17-3.68.6-4.2C16,58.4,18.24,58.35,20,58.31a16.2,16.2,0,0,0,1.63-.09c3.12-.4,5-1.2,5.75-2.43a8,8,0,0,0,.8-3.79,13.09,13.09,0,0,1,.23-2.2c.71-3,2.43-3.31,4.61-3.67.52-.09,1.07-.17,1.65-.3,2.42-.49,2.6-3.27,2.72-5.11,0-.34,0-.71,0-1.09,0-1.7,0-3.83,2.36-4.32a11.74,11.74,0,0,1,3.2-.13,10.38,10.38,0,0,0,3.55-.23,4.41,4.41,0,0,0,3.35-3.12,13,13,0,0,1,.84-1.72c.79-1.39,2.45-2.25,4.68-2.42h.22c.54,0,3,.2,4,1.28A1.42,1.42,0,0,1,60,30.2c0,.1,0,.21-.08.32a3.11,3.11,0,0,1-.4.74,16.67,16.67,0,0,0-2.44,5.94.15.15,0,0,1,0,.06A79.58,79.58,0,0,0,56,46.84c-.16,2.16-.31,4.2-.52,5.59-.91,5.84-2.38,10.23-4.5,13.42a13.3,13.3,0,0,1-11.67,6.26h-.06c-2.84,0-7.32.4-10.92.69l-3.67.29L20,73.43c-6.2.46-13,1-16.59,1A7.89,7.89,0,0,1,1,74.2Z"/><path class="cls-5" d="M39.29,71.82a13,13,0,0,0,11.43-6.13c2.1-3.16,3.56-7.51,4.46-13.3.21-1.37.36-3.41.52-5.56a80.58,80.58,0,0,1,1.07-9.58.15.15,0,0,1,0,0,17,17,0,0,1,2.5-6.12,2.82,2.82,0,0,0,.36-.66c0-.09.05-.19.07-.28a1.12,1.12,0,0,0-.31-1c-.86-.94-3.13-1.23-3.73-1.19h-.23c-2.12.16-3.69,1-4.43,2.27a12.77,12.77,0,0,0-.82,1.69,4.7,4.7,0,0,1-3.54,3.28,10.61,10.61,0,0,1-3.66.25,11.5,11.5,0,0,0-3.12.13c-2.14.45-2.13,2.27-2.13,4,0,.39,0,.77,0,1.11-.12,1.93-.31,4.85-2.95,5.38-.58.13-1.13.22-1.66.31-2.23.36-3.71.6-4.37,3.44A12.9,12.9,0,0,0,28.49,52,8.21,8.21,0,0,1,27.65,56c-.8,1.31-2.75,2.15-6,2.57a16.46,16.46,0,0,1-1.66.09c-1.8,0-3.84.09-4.92,1.43-.36.45-.46,2.44-.53,4a12.52,12.52,0,0,1-.29,2.81c-.42,1-3,1.07-5.89,1.18S2,68.3,1.1,69.44A3.73,3.73,0,0,0,.39,72.6a2,2,0,0,0,.76,1.33c1.11.53,10.94-.21,18.83-.8l4.63-.34,3.67-.29c3.6-.29,8.09-.65,10.94-.69Z"/><path class="cls-2" d="M40.16,37.39a.15.15,0,0,0,.09,0c.55-.4,1.86-.41,3.25-.42a18.07,18.07,0,0,0,3.82-.3A6.74,6.74,0,0,0,51.56,33l.11-.19a.15.15,0,1,0-.26-.15l-.11.19a6.48,6.48,0,0,1-4.05,3.5,17.85,17.85,0,0,1-3.75.29c-1.5,0-2.8,0-3.42.48a.15.15,0,0,0,.09.27Z"/><path class="cls-2" d="M30.57,49.36a.15.15,0,0,0,.14-.09c.34-.87,1.48-1,3.21-1.25L35,47.87a5,5,0,0,0,4.13-3.47.15.15,0,1,0-.29-.08,4.67,4.67,0,0,1-3.88,3.26l-1.07.14c-1.83.24-3,.39-3.45,1.43a.15.15,0,0,0,.08.19Z"/><path class="cls-2" d="M16.17,66.18a.15.15,0,0,0,.14-.11,6.58,6.58,0,0,0,0-1.63c-.05-1.32-.12-3.13.52-3.8s2.5-.68,4.39-.79a17.06,17.06,0,0,0,4-.51.15.15,0,0,0-.1-.28,17,17,0,0,1-3.93.49c-2,.12-4,.23-4.59.88s-.66,2.57-.6,4A6.8,6.8,0,0,1,16,66a.15.15,0,0,0,.1.18Z"/><path class="cls-2" d="M34.77,70.18h0a18.17,18.17,0,0,1,3.63-.27c2.67,0,5.19,0,8.36-2.83,4.6-4.05,5.93-11.62,6-14a.15.15,0,0,0-.14-.15.15.15,0,0,0-.15.14c-.08,1.87-1.33,9.69-5.93,13.74-3.09,2.72-5.56,2.74-8.17,2.75a18.4,18.4,0,0,0-3.69.28.15.15,0,0,0,0,.29Z"/></g></g></svg>