<svg xmlns="http://www.w3.org/2000/svg" viewBox="0 0 65 62.61"><defs><style>.cls-1{fill:#fff;}.cls-2{fill:#3273ad;}.cls-3{fill:#caedff;}.cls-4{fill:#fad264;}</style></defs><title>Asset 5</title><g id="Layer_2" data-name="Layer 2"><g id="Layer_1-2" data-name="Layer 1"><path class="cls-1" d="M5,29.61S15.72,11.32,40.36,17.06c0,0,3.87-5.58,14.41-4.49,0,0,2.59.75,1.39,4.34-.62,1.86-3.1,6.66-3.1,6.66a45.69,45.69,0,0,1,5.27,7h3.87A2.41,2.41,0,0,1,64.85,33V44.95a2.54,2.54,0,0,1-2.79,2.48H56.79A16.9,16.9,0,0,1,54,51.77l-.31,7.44s.31,3.25-2.17,3.25H43.46a3.51,3.51,0,0,1-2.79-3.56s-8.52,3.87-16.12.31c0,0,0,3.25-2.48,3.25H13.24a3,3,0,0,1-2.17-2.79c0-2.17.15-6.35.15-6.35s-9.3-4.8-7.9-16.74c0,0-4.18-1.86-2.94-5S5,29.61,5,29.61Z"/><path class="cls-2" d="M51.52,62.61H43.46a3.71,3.71,0,0,1-3-3.48c-1.39.57-9,3.39-15.81.31-.06.77-.43,3.17-2.62,3.17H13.2a3.21,3.21,0,0,1-2.28-2.94c0-2,.13-5.63.15-6.26A16.82,16.82,0,0,1,3.16,36.67c-.65-.32-4.09-2.19-2.92-5.11S4.33,29.27,5,29.43a30,30,0,0,1,8.41-8.37c5.26-3.52,14.2-7.1,26.93-4.17a10.54,10.54,0,0,1,3.24-2.62c2.11-1.16,5.77-2.42,11.25-1.86a2.64,2.64,0,0,1,1.51,1.28,4.12,4.12,0,0,1,0,3.26c-.58,1.73-2.7,5.88-3.06,6.59a45.77,45.77,0,0,1,5.17,6.84h3.78a3,3,0,0,1,2.06.71A2.53,2.53,0,0,1,65,33V44.95a2.7,2.7,0,0,1-2.94,2.63H56.89a17.89,17.89,0,0,1-2.74,4.24l-.31,7.39A4.05,4.05,0,0,1,53.11,62,2.05,2.05,0,0,1,51.52,62.61ZM40.67,58.74l.09,0a.16.16,0,0,1,.07.14,3.37,3.37,0,0,0,2.67,3.4h8a1.76,1.76,0,0,0,1.36-.55,3.83,3.83,0,0,0,.65-2.53l.31-7.46a.16.16,0,0,1,0-.09,17,17,0,0,0,2.76-4.29.16.16,0,0,1,.15-.1h5.27a2.36,2.36,0,0,0,2.63-2.32V33a2.23,2.23,0,0,0-.63-1.7,2.72,2.72,0,0,0-1.84-.62H58.34a.15.15,0,0,1-.14-.08A45.85,45.85,0,0,0,53,23.67a.15.15,0,0,1,0-.18s2.48-4.81,3.09-6.64a3.84,3.84,0,0,0,0-3,2.39,2.39,0,0,0-1.3-1.13c-5.36-.55-9,.68-11,1.82a10,10,0,0,0-3.22,2.62.15.15,0,0,1-.16.06c-12.67-2.95-21.56.6-26.78,4.1a29.28,29.28,0,0,0-8.38,8.37.15.15,0,0,1-.18.07c-.13,0-3.29-1-4.46,1.92s2.82,4.74,2.86,4.76a.16.16,0,0,1,.09.16A16.51,16.51,0,0,0,11.3,53.18a.15.15,0,0,1,.08.14s-.15,4.21-.15,6.35a2.83,2.83,0,0,0,2,2.63h8.81c2.29,0,2.32-3,2.32-3.1a.15.15,0,0,1,.07-.13.16.16,0,0,1,.15,0c7.44,3.49,15.9-.27,16-.31Z"/><path class="cls-1" d="M34.06,18.58a11.7,11.7,0,1,0-15.92,3.1A29.08,29.08,0,0,1,34.06,18.58Z"/><path class="cls-2" d="M12.94,11.86a11.55,11.55,0,1,1,20.94,6.7l.36,0A11.86,11.86,0,1,0,18,21.76l.32-.16A11.54,11.54,0,0,1,12.94,11.86Z"/><path class="cls-3" d="M32.68,11.86a8.19,8.19,0,1,0-10,8,29,29,0,0,1,6.59-1.3A8.18,8.18,0,0,0,32.68,11.86Z"/><path class="cls-2" d="M32.83,11.86a8.35,8.35,0,1,0-10.47,8.06l.56-.18a8,8,0,1,1,6-1.18l.59,0A8.33,8.33,0,0,0,32.83,11.86Z"/><circle class="cls-4" cx="47.41" cy="30.77" r="2.25"/><path class="cls-2" d="M47.41,33.17a2.4,2.4,0,1,1,2.4-2.4A2.4,2.4,0,0,1,47.41,33.17Zm0-4.49a2.09,2.09,0,1,0,2.09,2.09A2.09,2.09,0,0,0,47.41,28.68Z"/><path class="cls-2" d="M15.42,25.1a.15.15,0,0,1-.1-.28,29.27,29.27,0,0,1,22.6-4.68.16.16,0,0,1-.07.3,28.94,28.94,0,0,0-22.34,4.62A.15.15,0,0,1,15.42,25.1Z"/></g></g></svg>