<svg xmlns="http://www.w3.org/2000/svg" viewBox="0 0 86.5 48.46"><defs><style>.cls-1{fill:#fff;}.cls-2{fill:#3273ad;}.cls-3{fill:#caedff;}.cls-4{fill:#fad264;}</style></defs><title>Asset 2</title><g id="Layer_2" data-name="Layer 2"><g id="Layer_1-2" data-name="Layer 1"><rect class="cls-1" x="8.55" y="0.25" width="69.56" height="45.11" rx="2.48" ry="2.48"/><path class="cls-2" d="M75.63,45.61H11A2.73,2.73,0,0,1,8.3,42.88V2.73A2.73,2.73,0,0,1,11,0h64.6a2.73,2.73,0,0,1,2.73,2.73V42.88A2.73,2.73,0,0,1,75.63,45.61ZM11,.5A2.23,2.23,0,0,0,8.8,2.73V42.88A2.23,2.23,0,0,0,11,45.11h64.6a2.23,2.23,0,0,0,2.23-2.23V2.73A2.23,2.23,0,0,0,75.63.5Z"/><rect class="cls-3" x="11.53" y="4.63" width="63.61" height="36.35"/><path class="cls-2" d="M75.14,41.23H11.53a.25.25,0,0,1-.25-.25V4.63a.25.25,0,0,1,.25-.25H75.14a.25.25,0,0,1,.25.25V41A.25.25,0,0,1,75.14,41.23Zm-63.36-.5H74.89V4.88H11.78Z"/><path class="cls-1" d="M86.25,44.12v1.8h0A2.3,2.3,0,0,1,84,48.21H2.54A2.31,2.31,0,0,1,.25,45.91h0v-1.8Z"/><path class="cls-2" d="M84,48.46H2.54A2.57,2.57,0,0,1,0,45.91v-1.8a.25.25,0,0,1,.25-.25h86a.25.25,0,0,1,.25.25v1.8A2.55,2.55,0,0,1,84,48.46ZM.5,44.37v1.55a2,2,0,0,0,2.06,2H84a2,2,0,0,0,2-2V44.37Z"/><circle class="cls-1" cx="43.25" cy="2.8" r="0.79"/><path class="cls-2" d="M43.25,3.84a1,1,0,1,1,1-1A1,1,0,0,1,43.25,3.84Zm0-1.58a.54.54,0,1,0,.54.54A.54.54,0,0,0,43.25,2.26Z"/><path class="cls-2" d="M23.64,11.94H15.89a.25.25,0,0,1,0-.5h7.75a.25.25,0,0,1,0,.5Z"/><rect class="cls-1" x="15.89" y="16.27" width="14.49" height="19.07" rx="0.76" ry="0.76"/><path class="cls-2" d="M29.62,35.58h-13a1,1,0,0,1-1-1V17a1,1,0,0,1,1-1h13a1,1,0,0,1,1,1V34.57A1,1,0,0,1,29.62,35.58Zm-13-19.07a.51.51,0,0,0-.51.51V34.57a.51.51,0,0,0,.51.51h13a.51.51,0,0,0,.51-.51V17a.51.51,0,0,0-.51-.51Z"/><circle class="cls-4" cx="23.13" cy="22.5" r="2.67"/><path class="cls-2" d="M23.13,25.42a2.92,2.92,0,1,1,2.92-2.92A2.92,2.92,0,0,1,23.13,25.42Zm0-5.34a2.42,2.42,0,1,0,2.42,2.42A2.42,2.42,0,0,0,23.13,20.08Z"/><path class="cls-2" d="M27.46,29.29H18.81a.25.25,0,0,1,0-.5h8.64a.25.25,0,0,1,0,.5Z"/><path class="cls-2" d="M25.55,31.94H20.72a.25.25,0,0,1,0-.5h4.83a.25.25,0,0,1,0,.5Z"/><rect class="cls-1" x="36" y="16.27" width="14.49" height="19.07" rx="0.76" ry="0.76"/><path class="cls-2" d="M49.73,35.58h-13a1,1,0,0,1-1-1V17a1,1,0,0,1,1-1h13a1,1,0,0,1,1,1V34.57A1,1,0,0,1,49.73,35.58Zm-13-19.07a.51.51,0,0,0-.51.51V34.57a.51.51,0,0,0,.51.51h13a.51.51,0,0,0,.51-.51V17a.51.51,0,0,0-.51-.51Z"/><circle class="cls-4" cx="43.25" cy="22.5" r="2.67"/><path class="cls-2" d="M43.25,25.42a2.92,2.92,0,1,1,2.92-2.92A2.92,2.92,0,0,1,43.25,25.42Zm0-5.34a2.42,2.42,0,1,0,2.42,2.42A2.42,2.42,0,0,0,43.25,20.08Z"/><path class="cls-2" d="M47.57,29.29H38.93a.25.25,0,0,1,0-.5h8.64a.25.25,0,0,1,0,.5Z"/><path class="cls-2" d="M45.67,31.94H40.83a.25.25,0,0,1,0-.5h4.83a.25.25,0,0,1,0,.5Z"/><rect class="cls-1" x="56.12" y="16.27" width="14.49" height="19.07" rx="0.76" ry="0.76"/><path class="cls-2" d="M69.85,35.58h-13a1,1,0,0,1-1-1V17a1,1,0,0,1,1-1h13a1,1,0,0,1,1,1V34.57A1,1,0,0,1,69.85,35.58Zm-13-19.07a.51.51,0,0,0-.51.51V34.57a.51.51,0,0,0,.51.51h13a.51.51,0,0,0,.51-.51V17a.51.51,0,0,0-.51-.51Z"/><circle class="cls-4" cx="63.37" cy="22.5" r="2.67"/><path class="cls-2" d="M63.37,25.42a2.92,2.92,0,1,1,2.92-2.92A2.92,2.92,0,0,1,63.37,25.42Zm0-5.34a2.42,2.42,0,1,0,2.42,2.42A2.42,2.42,0,0,0,63.37,20.08Z"/><path class="cls-2" d="M67.69,29.29H59a.25.25,0,0,1,0-.5h8.64a.25.25,0,0,1,0,.5Z"/><path class="cls-2" d="M65.78,31.94H61a.25.25,0,0,1,0-.5h4.83a.25.25,0,0,1,0,.5Z"/><path class="cls-2" d="M60.7,11.94H57.77a.25.25,0,0,1,0-.5H60.7a.25.25,0,1,1,0,.5Z"/><path class="cls-2" d="M65.65,11.94H62.73a.25.25,0,0,1,0-.5h2.92a.25.25,0,0,1,0,.5Z"/><path class="cls-2" d="M70.61,11.94H67.69a.25.25,0,0,1,0-.5h2.92a.25.25,0,0,1,0,.5Z"/></g></g></svg>