<?xml version="1.0" encoding="utf-8"?>
<!-- Generator: Adobe Illustrator 20.0.0, SVG Export Plug-In . SVG Version: 6.00 Build 0)  -->
<svg version="1.1" id="Layer_1" xmlns="http://www.w3.org/2000/svg" xmlns:xlink="http://www.w3.org/1999/xlink" x="0px" y="0px"
	 viewBox="0 0 55.5 60.7" style="enable-background:new 0 0 55.5 60.7;" xml:space="preserve">
<style type="text/css">
	.st0{fill:#3273AD;}
	.st1{fill:#CAEDFF;}
	.st2{fill:#FFFFFF;}
	.st3{fill:#FAD264;}
</style>
<title>Asset 4</title>
<g id="Layer_2">
	<g id="Layer_1-2">
		<path class="st0" d="M27.8,55.5c-3.5,0.1-7-0.6-10.3-2c-0.1-0.1-0.2-0.2-0.1-0.3c0.1-0.1,0.2-0.2,0.3-0.1c3.2,1.4,6.6,2,10.1,2
			C42.8,55,55,42.8,55,27.8c0-15-12.2-27.3-27.2-27.3c-15,0-27.3,12.2-27.3,27.2c0,6.6,2.4,13,6.8,18c0.1,0.1,0.1,0.3,0,0.4
			c-0.1,0.1-0.3,0.1-0.4,0l0,0C-3.2,34.5-2.1,17,9.5,6.9s29.1-9,39.2,2.6s9,29.1-2.6,39.2C41,53.1,34.5,55.5,27.8,55.5z"/>
		<path d="M27.3,22.5c-0.3-1.1-1.4-1.8-2.5-1.5c-0.1,0-0.2,0.1-0.3,0.1c-1.4,0.4-2.1,1.4-2.8,2.7l-4.9-2.4c1.1-2.9,3.5-5.2,6.5-6.1
			c4.8-1.4,9.1-0.5,10.6,4.7c1.5,4.9-4.1,8-2.3,12.3l-6.1,1.8C23,29.1,28.1,25.1,27.3,22.5z M29,35.2c2.3-0.8,4.8,0.4,5.6,2.7
			s-0.4,4.8-2.7,5.6s-4.8-0.4-5.6-2.7c0-0.1,0-0.1-0.1-0.2c-0.8-2.2,0.4-4.6,2.6-5.4C28.9,35.2,28.9,35.2,29,35.2z"/>
		<path class="st1" d="M17.6,53.3c-3.1,1.6-5,7.1-5,7.1s-7-7.7-5.5-14.6C-3,34.5-1.8,17.1,9.6,7.1s28.8-8.9,38.8,2.5
			s8.9,28.8-2.5,38.8c-5,4.4-11.5,6.8-18.1,6.8C24.2,55.3,20.8,54.7,17.6,53.3z"/>
		<path class="st2" d="M46.2,8.2c-2.8,1.8-0.2,4.8-3,6.5s-5-1.7-7.8,0s-0.7,5.2-3.6,6.9s-5-1.7-7.8,0s-0.7,5.2-3.6,7s-5-1.7-7.8,0
			s-0.7,5.2-3.6,6.9s-4.5-1.9-7.4-0.2l0.6,2c1.1,3.3,3,6.2,5.3,8.7C17.4,57.5,34.6,58.8,46,49s12.7-26.9,2.9-38.3
			c-0.3-0.4-0.7-0.8-1.1-1.2"/>
		<path class="st0" d="M12.6,60.7c-0.1,0-0.1,0-0.2-0.1c-0.3-0.3-6.9-7.8-5.6-14.6C-3.3,34.5-2.1,16.9,9.5,6.8S38.5-2,48.6,9.5
			s8.9,29.1-2.7,39.2c-5,4.4-11.5,6.8-18.2,6.8c-3.5,0.1-7-0.5-10.2-1.9c-2.9,1.6-4.7,6.9-4.8,6.9C12.8,60.6,12.7,60.7,12.6,60.7
			L12.6,60.7z M27.8,0.5c-15,0-27.2,12.2-27.2,27.3c0,6.6,2.4,13,6.8,18c0.1,0.1,0.1,0.1,0.1,0.2c-1.2,5.9,3.9,12.5,5.2,14
			c0.5-1.3,2.3-5.5,4.9-6.9c0.1,0,0.1,0,0.2,0c3.2,1.4,6.6,2,10.1,1.9C42.8,55,55,42.8,55,27.8S42.8,0.5,27.8,0.5z"/>
		<path class="st3" d="M27.3,22.4c-0.3-1.1-1.4-1.8-2.5-1.5c-0.1,0-0.2,0.1-0.3,0.1c-1.4,0.4-2.1,1.4-2.8,2.7l-4.9-2.4
			c1.1-2.9,3.5-5.2,6.5-6.1c4.7-1.4,9.1-0.5,10.6,4.6c1.5,4.9-4.1,8-2.3,12.3l-6.1,1.8C23,29.1,28.1,25,27.3,22.4z M29,35.2
			c2.3-0.8,4.8,0.4,5.6,2.7s-0.4,4.8-2.7,5.6s-4.8-0.4-5.6-2.7c0-0.1,0-0.1-0.1-0.2c-0.8-2.2,0.4-4.6,2.6-5.4
			C28.9,35.2,28.9,35.2,29,35.2z"/>
		<path class="st0" d="M30.3,44c-0.8,0-1.5-0.2-2.2-0.6c-1.1-0.6-1.8-1.6-2.2-2.8c-0.8-2.3,0.4-4.9,2.8-5.7c0.1,0,0.1,0,0.2-0.1l0,0
			c2.4-0.7,4.9,0.6,5.6,3c0,0.1,0,0.1,0,0.2c0.4,1.2,0.3,2.4-0.3,3.5c-0.5,1.1-1.5,1.9-2.7,2.2C31.2,43.9,30.7,44,30.3,44z M29,35.4
			c-2.1,0.6-3.3,2.9-2.7,5c0,0.1,0,0.1,0.1,0.2c0.3,1,1,1.9,2,2.5c1.9,1.1,4.4,0.4,5.4-1.6c0,0,0-0.1,0.1-0.1c0.5-1,0.6-2.1,0.2-3.2
			c-0.6-2.1-2.7-3.4-4.9-2.9C29.2,35.3,29.1,35.3,29,35.4L29,35.4z M25.3,34.4c-0.1,0-0.2-0.1-0.2-0.1c-1.5-3.2-0.1-6,1-8.2
			c0.7-1.4,1.3-2.6,1-3.5l0,0c-0.1-0.5-0.5-1-1-1.2c-0.5-0.2-1.1-0.2-1.6,0c-1.3,0.4-1.9,1.3-2.7,2.6C21.7,24,21.6,24,21.5,24
			l-4.9-2.4c-0.1-0.1-0.2-0.2-0.1-0.3c1.2-3,3.6-5.3,6.6-6.3c5.5-1.7,9.5,0.1,10.9,4.8c0.8,2.5-0.3,4.6-1.3,6.5s-1.9,3.7-1,5.8
			c0.1,0.1,0,0.3-0.1,0.3c0,0,0,0,0,0l-6.1,1.8L25.3,34.4z M25.3,20.7c0.3,0,0.6,0.1,0.9,0.2c0.6,0.3,1.1,0.8,1.3,1.5l0,0
			c0.3,1.1-0.3,2.4-1,3.9c-1.1,2.2-2.3,4.7-1,7.5l5.6-1.7c-0.8-2.2,0.2-4.1,1.2-5.9c0.9-1.8,2-3.8,1.2-6.2c-1.8-6-7.2-5.4-10.3-4.4
			c-2.8,0.9-5.1,3-6.3,5.7l4.5,2.1c0.6-1.2,1.6-2.2,2.9-2.6C24.6,20.7,25,20.7,25.3,20.7L25.3,20.7z"/>
		<path class="st2" d="M17.5,53c-2.4,1.7-4.1,4.1-5,6.9c0,0-6.7-7.2-5.2-14.1"/>
		<path class="st1" d="M12.6,59.9c0,0-1.5-6.2,1-9.4c1.2,1.1,2.5,1.9,4,2.5C15.2,54.7,13.5,57.1,12.6,59.9z"/>
	</g>
</g>
</svg>
