<svg id="Layer_1" data-name="Layer 1" xmlns="http://www.w3.org/2000/svg" viewBox="0 0 109 74.41"><defs><style>.cls-1{fill:#3174ad;}.cls-2{fill:#caebfb;}.cls-3{fill:#f9d165;}.cls-4{fill:#3175af;}</style></defs><title>first-batch-graduation</title><path class="cls-1" d="M36.54,73.13c-15,0-26.75-3-26.75-6.82s11.75-6.82,26.75-6.82,26.75,3,26.75,6.82S51.53,73.13,36.54,73.13Zm0-13.15c-14.23,0-26.25,2.9-26.25,6.33s12,6.33,26.25,6.33,26.25-2.9,26.25-6.33S50.77,60,36.54,60Z"/><path class="cls-2" d="M36.54,73.36c-15.38,0-27-3-27-7.05s11.6-7.05,27-7.05,27,3,27,7.05S51.92,73.36,36.54,73.36Zm0-13.64c-14.62,0-26.51,3-26.51,6.59S21.92,72.9,36.54,72.9,63,69.94,63,66.31,51.15,59.72,36.54,59.72Zm0,13.15C21.93,72.87,10,69.93,10,66.31s11.88-6.56,26.49-6.56S63,62.69,63,66.31,51.14,72.87,36.54,72.87Zm0-12.65c-13.86,0-26,2.85-26,6.09s12.16,6.09,26,6.09,26-2.85,26-6.09S50.4,60.22,36.54,60.22Z"/><rect class="cls-1" x="3.15" y="38.81" width="89.98" height="0.49" transform="translate(-13.65 34.11) rotate(-34.47)"/><path class="cls-2" d="M11.12,65l-.54-.79.19-.13,74.39-51,.54.79-.19.13Zm.11-.67v0L85.06,13.75v0Z"/><rect class="cls-1" x="49.18" y="42.33" width="54.52" height="0.49" transform="translate(1.81 88.24) rotate(-60.58)"/><path class="cls-2" d="M63.34,66.75l-.83-.47,27-47.88.84.47Zm-.2-.65h0L89.73,19h0Z"/><rect class="cls-2" x="85.63" y="8.92" width="3.24" height="9.48" transform="translate(12.62 60.89) rotate(-41.23)"/><path class="cls-1" d="M89.16,18.53h0a.23.23,0,0,1-.16-.08l-6.25-7.13a.23.23,0,0,1,0-.33l2.43-2.13a.24.24,0,0,1,.33,0L91.77,16a.23.23,0,0,1,0,.33l-2.43,2.13A.23.23,0,0,1,89.16,18.53Zm-5.92-7.34L89.18,18l2.08-1.83L85.32,9.36Z"/><rect class="cls-2" x="87.99" y="3.85" width="9.24" height="9.48" transform="translate(17.3 63.16) rotate(-41.23)"/><path class="cls-1" d="M92.26,15.43h0a.23.23,0,0,1-.16-.08L85.83,8.22a.23.23,0,0,1,0-.33L92.81,1.8a.24.24,0,0,1,.33,0L99.39,9a.23.23,0,0,1,0,.33l-6.95,6.09A.23.23,0,0,1,92.26,15.43ZM86.34,8.09l5.94,6.78,6.6-5.78L92.94,2.31Z"/><ellipse class="cls-2" cx="36.05" cy="12.61" rx="5.64" ry="3.63" transform="translate(23.14 48.56) rotate(-89.51)"/><path class="cls-1" d="M36,18.48h0c-2.13,0-3.84-2.67-3.81-5.9a7.67,7.67,0,0,1,1.14-4.1,3.37,3.37,0,0,1,2.76-1.73h0c2.13,0,3.84,2.67,3.81,5.9a7.67,7.67,0,0,1-1.14,4.1A3.37,3.37,0,0,1,36,18.48ZM36,18a3,3,0,0,0,2.39-1.52,7.2,7.2,0,0,0,1.06-3.85c0-3-1.48-5.41-3.35-5.43h0a2.93,2.93,0,0,0-2.37,1.52,7.2,7.2,0,0,0-1.06,3.85C32.63,15.56,34.14,18,36,18Z"/><path class="cls-2" d="M36.85,20.57l-.09.58a.16.16,0,0,1-.16.14h-.87a.16.16,0,0,1-.16-.13l-.12-.59a.16.16,0,0,1,.15-.2q.53,0,1.1,0A.16.16,0,0,1,36.85,20.57Z"/><path class="cls-1" d="M36.59,21.52h-.87a.4.4,0,0,1-.39-.31l-.12-.6a.4.4,0,0,1,.38-.48c.36,0,.74,0,1.11,0a.4.4,0,0,1,.37.46l-.09.59A.39.39,0,0,1,36.59,21.52Zm-.81-.47h.75l.07-.45h-.91Zm.9-.44h0Z"/><path class="cls-2" d="M25.87,31.83c0-7.81,2.22-10.56,7.65-11.24a.2.2,0,0,1,.21.13l1.43,3.77a0,0,0,0,0,.08,0l.45-2.63a.17.17,0,0,1,.17-.14h.63a.17.17,0,0,1,.16.14c.09.48.4,2.1.51,2.66a0,0,0,0,0,.09,0c.18-.7.82-3.15,1-3.83a.2.2,0,0,1,.23-.15c.33.05.88.11,1.22.18a1.56,1.56,0,0,0,1.17-.41,5,5,0,0,0,.45-.39A19.81,19.81,0,0,0,47.44,7a1.64,1.64,0,0,1,.75-1.16,1.69,1.69,0,0,1,2.57,1.47c-.08,3.28-1.94,8.19-2.63,9.82-1.19,2.79-5.24,9-5.32,11.15,0,.11,0,.26,0,.46-.11,4.15-.45,27.57-.73,35.6,0,1.36,3.09,2,3.09,2.65s-6.6,0-6.78-.69-.83-10.82-.83-10.82-.58-13-1.18-13c-.93,0-.87,13.38-.87,13.38s.45,9.81-.36,10.52-5.51.75-5.58.47c-.21-.89,2.29-1.93,2.29-2.38s-1.62-21.64-1.71-23.51.22-10.16.07-13.18c-1.12.7-1.79,9-1.93,11.74a1,1,0,0,1-2.05.11A57.88,57.88,0,0,1,25.87,31.83Z"/><path class="cls-1" d="M43.87,67.45c-1.86,0-5.54-.37-5.72-1.12s-.81-10.45-.84-10.86c-.19-4.31-.61-11.11-1-12.6-.41,1.3-.63,7.33-.6,12.94.08,1.65.41,9.95-.44,10.7s-5.07.78-5.71.58a.32.32,0,0,1-.25-.23c-.16-.69.74-1.31,1.53-1.86a3.62,3.62,0,0,0,.76-.6c0-.18-.34-4.68-.7-9.45-.45-6.09-1-13-1-14,0-.76,0-2.72,0-5,0-2.66.1-5.63.06-7.47-.7,1.73-1.29,7.13-1.49,11a1.27,1.27,0,0,1-2,1,1.25,1.25,0,0,1-.5-.83,57,57,0,0,1-.36-7.79h0c0-7.64,2.12-10.75,7.85-11.47a.42.42,0,0,1,.46.27l1.18,3.12.33-1.93a.4.4,0,0,1,.4-.33h.64a.4.4,0,0,1,.39.33c.06.32.22,1.16.35,1.84l.78-3a.43.43,0,0,1,.49-.32l.4.06c.29,0,.61.08.84.13a1.38,1.38,0,0,0,1-.37,4.85,4.85,0,0,0,.43-.37A19.69,19.69,0,0,0,47.2,7a1.86,1.86,0,0,1,.87-1.35,2,2,0,0,1,2,0A1.91,1.91,0,0,1,51,7.29c-.09,3.85-2.54,9.66-2.65,9.91-.43,1-1.24,2.47-2.09,4-1.48,2.68-3.16,5.71-3.21,7,0,.11,0,.26,0,.46,0,1.36-.09,4.79-.17,9.07-.16,8.92-.37,21.13-.56,26.53,0,.66,1,1.19,1.85,1.62s1.24.63,1.24,1-.51.42-.73.45A6.92,6.92,0,0,1,43.87,67.45ZM36.37,42.2c.28,0,.83.36,1.4,13.24.18,2.8.68,10.21.83,10.77a5.47,5.47,0,0,0,2,.52,14.87,14.87,0,0,0,4.23.16,5.42,5.42,0,0,0-.94-.55c-1-.48-2.14-1.09-2.11-2,.19-5.39.4-17.6.56-26.52.07-4.28.13-7.71.17-9.07,0-.2,0-.36,0-.47.06-1.45,1.69-4.4,3.27-7.26.85-1.53,1.65-3,2.07-4,.1-.24,2.52-6,2.61-9.74A1.45,1.45,0,0,0,49.83,6a1.52,1.52,0,0,0-1.54,0,1.41,1.41,0,0,0-.62,1,20.14,20.14,0,0,1-6.19,13.12,5.24,5.24,0,0,1-.47.41,1.74,1.74,0,0,1-1.36.45c-.22,0-.53-.09-.8-.12l-.41-.06c-.14.66-.77,3.1-1,3.8,0,.11-.16.23-.28.21a.28.28,0,0,1-.26-.23c-.12-.63-.41-2.09-.5-2.61h-.52l-.44,2.57a.32.32,0,0,1-.24.23.27.27,0,0,1-.28-.17L33.51,20.8c-5.46.71-7.41,3.59-7.41,11h0a56.49,56.49,0,0,0,.36,7.72.79.79,0,0,0,.32.52.8.8,0,0,0,1.28-.61c0-.11.57-11,2-11.93a.23.23,0,0,1,.36.19c.09,1.73,0,5.17,0,8.21,0,2.27-.08,4.23,0,5,0,1,.56,7.92,1,14,.43,5.77.69,9.31.69,9.51s-.31.51-1,1-1.3.89-1.35,1.27c.7.15,4.53.09,5.2-.5.45-.41.49-5.58.28-10.34,0-9,.33-13.59,1.09-13.62Z"/><path class="cls-3" d="M57.4,1.16l.11.41,2.55-.33a.35.35,0,0,1,.39.32c0,.18,0,.36,0,.54A8.78,8.78,0,0,1,60,5.26,3.68,3.68,0,0,1,58.58,7.2l-1.51,1a4.65,4.65,0,0,0-.56.45c-.3.29-.6.57-.88.86a.24.24,0,0,0-.07.2c.07.63.16,1.25.24,1.88a1.24,1.24,0,0,0,1,1.11l.21.06-3.28.43L54,13a1.17,1.17,0,0,0,.55-1.16c-.08-.66-.16-1.33-.26-2,0-.06-.09-.13-.16-.17l-1-.52a7.77,7.77,0,0,0-1-.45l-1.23-.39a3.91,3.91,0,0,1-2.23-1.76,17.13,17.13,0,0,1-1.27-3.31.27.27,0,0,1,.23-.35l2.67-.36V2.09ZM48.45,3.63a.75.75,0,0,0,0,.14c.2.57.39,1.15.62,1.71A3.87,3.87,0,0,0,51.5,7.65a3.89,3.89,0,0,0,.45.1,10.13,10.13,0,0,1-1.5-4.37ZM59.63,2.17l-2,.26A10.09,10.09,0,0,1,57.28,7a1.86,1.86,0,0,0,.26-.1A4,4,0,0,0,58.93,5.6,6.39,6.39,0,0,0,59.63,2.17Z"/><path class="cls-4" d="M53.71,13.27a.12.12,0,0,1-.06-.22l.11-.07.17-.11a1.05,1.05,0,0,0,.5-1c-.07-.6-.15-1.25-.26-2a.29.29,0,0,0-.1-.09l-.64-.35-.33-.18a7.75,7.75,0,0,0-1-.44L50.89,8.4a4,4,0,0,1-2.3-1.81,17.28,17.28,0,0,1-1.28-3.34.39.39,0,0,1,.32-.5l.23,0,2.34-.31V2.09a.12.12,0,0,1,.1-.11L57.38,1a.11.11,0,0,1,.13.08l.08.31L60,1.12a.46.46,0,0,1,.35.1.47.47,0,0,1,.17.33c0,.19,0,.37,0,.55a8.88,8.88,0,0,1-.44,3.19,3.78,3.78,0,0,1-1.52,2l-.76.49-.76.49a4.69,4.69,0,0,0-.54.43l-.11.11-.77.75a.13.13,0,0,0,0,.1c.07.58.14,1.16.22,1.73l0,.14a1.13,1.13,0,0,0,.9,1l.21.06a.12.12,0,0,1,0,.23l-3.28.43ZM50.44,2.19v.33a.12.12,0,0,1-.1.11L47.89,3l-.23,0a.16.16,0,0,0-.11.07.16.16,0,0,0,0,.13,17.1,17.1,0,0,0,1.25,3.28A3.77,3.77,0,0,0,51,8.18l1.23.39a7.87,7.87,0,0,1,1,.45l.33.18.64.35a.42.42,0,0,1,.22.26c.11.74.19,1.4.26,2A1.25,1.25,0,0,1,54.18,13l2.28-.3a1.32,1.32,0,0,1-.78-1.1l0-.14c-.08-.58-.15-1.16-.22-1.74a.36.36,0,0,1,.1-.29l.77-.76.11-.11A4.75,4.75,0,0,1,57,8.08l.76-.49.76-.49a3.55,3.55,0,0,0,1.42-1.88,8.64,8.64,0,0,0,.43-3.11c0-.18,0-.35,0-.54a.23.23,0,0,0-.09-.17.2.2,0,0,0-.18-.05l-2.55.33a.11.11,0,0,1-.13-.08l-.08-.31ZM52,7.86h0l-.18,0a1.87,1.87,0,0,1-.29-.07A4,4,0,0,1,49,5.53c-.17-.4-.31-.81-.45-1.21l-.18-.51a.43.43,0,0,1,0-.12v0a.12.12,0,0,1,0-.09.11.11,0,0,1,.08,0l2-.26a.1.1,0,0,1,.09,0,.12.12,0,0,1,0,.08,10,10,0,0,0,1.48,4.32.12.12,0,0,1-.1.18ZM48.58,3.73h0l.18.51c.14.4.28.81.44,1.2a3.74,3.74,0,0,0,2.34,2.1l.18,0A10.17,10.17,0,0,1,50.35,3.5Zm8.7,3.41a.12.12,0,0,1-.08,0,.12.12,0,0,1,0-.12,10,10,0,0,0,.31-4.54.12.12,0,0,1,0-.09.12.12,0,0,1,.08,0l2-.26a.13.13,0,0,1,.09,0,.11.11,0,0,1,0,.09A6.53,6.53,0,0,1,59,5.66,4.12,4.12,0,0,1,57.6,7l-.17.07-.11,0Zm.45-4.61a10.12,10.12,0,0,1-.27,4.3h0a3.88,3.88,0,0,0,1.35-1.29,6.14,6.14,0,0,0,.68-3.23Z"/><path class="cls-3" d="M53.23,13.67l4.14-.54a.3.3,0,0,1,.28.13c.26.37,1.22.65,1.63,1a.19.19,0,0,1-.11.32l-7.46,1a.15.15,0,0,1-.15-.23c.28-.46,1.25-1,1.42-1.45A.3.3,0,0,1,53.23,13.67Z"/><path class="cls-4" d="M51.69,15.67a.27.27,0,0,1-.23-.41,3.43,3.43,0,0,1,.7-.69,2.59,2.59,0,0,0,.71-.74.42.42,0,0,1,.34-.27h0L57.36,13a.43.43,0,0,1,.39.18,2.53,2.53,0,0,0,.83.52,3.88,3.88,0,0,1,.78.45.29.29,0,0,1,.09.31.31.31,0,0,1-.26.22l-7.46,1Zm1.55-1.89a.19.19,0,0,0-.15.12,2.6,2.6,0,0,1-.78.84,3.39,3.39,0,0,0-.65.64,0,0,0,0,0,0,0l0,0,7.46-1a.08.08,0,0,0,.06-.06.06.06,0,0,0,0-.06,3.77,3.77,0,0,0-.73-.42,2.56,2.56,0,0,1-.92-.6.18.18,0,0,0-.17-.08Z"/></svg>