<svg id="Layer_1" data-name="Layer 1" xmlns="http://www.w3.org/2000/svg" xmlns:xlink="http://www.w3.org/1999/xlink" viewBox="0 0 100 75"><defs><style>.cls-1,.cls-9{fill:none;}.cls-2{opacity:0.5;}.cls-3,.cls-6{fill:#c3f1fc;}.cls-10,.cls-3,.cls-4,.cls-9{stroke:#3273ad;}.cls-3,.cls-4{stroke-miterlimit:10;stroke-width:0.5px;}.cls-10,.cls-4,.cls-8{fill:#fff;}.cls-5{clip-path:url(#clip-path);}.cls-7{fill:#fad264;}.cls-10,.cls-9{stroke-linecap:round;stroke-linejoin:round;stroke-width:0.3px;}.cls-11{opacity:0.6;}.cls-12{fill:#eff5f8;}.cls-13{opacity:0.4;}.cls-14{fill:#e3b462;}.cls-15{fill:#32b475;}.cls-16{fill:#349b67;}.cls-17{fill:#0aa5e3;}.cls-18{clip-path:url(#clip-path-2);}.cls-19{fill:#3273ad;}</style><clipPath id="clip-path"><rect class="cls-1" x="9.87" y="14.61" width="79.47" height="46.36" rx="5.54" ry="5.54" transform="translate(4.39 -5.15) rotate(6.22)"/></clipPath><clipPath id="clip-path-2"><rect class="cls-1" x="10.87" y="13.33" width="79.69" height="46.82" rx="4.07" ry="4.07" transform="translate(-3.32 5.09) rotate(-5.57)"/></clipPath></defs><title>startincollege-campaign-icon</title><g class="cls-2"><rect class="cls-3" x="4.67" y="9.41" width="89.87" height="56.76" rx="6.52" ry="6.52" transform="translate(4.39 -5.15) rotate(6.22)"/><rect class="cls-4" x="9.52" y="14.13" width="80.41" height="47.3" rx="5.63" ry="5.63" transform="translate(4.39 -5.17) rotate(6.22)"/><g class="cls-5"><path class="cls-6" d="M60.33,43.1l.07,0,2.07-.5a.25.25,0,1,1,.12.48l-2.07.5a.25.25,0,0,1-.19-.45Z"/><path class="cls-6" d="M59.64,38.18a.25.25,0,0,1,.32.37l-1.38,1.63a.25.25,0,1,1-.38-.32l1.38-1.63Z"/><path class="cls-6" d="M54.79,36.2a.25.25,0,0,1,.38.23L55,38.57a.25.25,0,1,1-.49,0l.15-2.15A.25.25,0,0,1,54.79,36.2Z"/><path class="cls-6" d="M49.69,37.43a.25.25,0,0,1,.34.08l1.15,1.84a.25.25,0,1,1-.42.26l-1.15-1.84A.25.25,0,0,1,49.69,37.43Z"/><path class="cls-6" d="M46.3,41.44a.25.25,0,0,1,.23,0l2,.83a.25.25,0,0,1-.19.46l-2-.83a.25.25,0,0,1,0-.44Z"/><circle class="cls-7" cx="54.23" cy="45.4" r="5.03" transform="translate(3.22 94.39) rotate(-83.78)"/><path class="cls-6" d="M53.27,50.16l9.86-10.88s4.44-4.87,7.88.85L82.58,57l.75,1.07,5.77,8.39L48.06,62l-5.12-.79Z"/><path class="cls-8" d="M59.16,43.67l3.19-3.52a10.63,10.63,0,0,1,1.34-1.39,4.7,4.7,0,0,1,3.49-1.42c2.4.36,3,1.56,3,1.56l4.84,7s-.37.68-1.76-1.71-1.94-1.69-1.94-1.69l-.75,2.36s-1,1-1.72-.61-.91-2.78-2.1-1.72a9.23,9.23,0,0,1-1.52,1.72c-.37.13-1.61.34-1.42-1.36s-1.24-.84-1.59-.6S60,44,59.16,43.67Z"/><path class="cls-9" d="M53.32,50.12l9.83-10.85s4.43-4.86,7.87.86L89.1,66.34"/><path class="cls-9" d="M75.15,46.08c-1.37-.31-2.55-3.76-3.53-3.8s-.39,3.05-1.76,2.8S68.47,42,67.49,42s-1.57,2.48-3,2.29-.19-2.51-1.18-2.57-2.78,2.11-4.16,2"/><path class="cls-6" d="M.4,56.52,32.63,29.88s5.52-5.1,9.07,1L62.38,63.25"/><path class="cls-8" d="M27.35,34.37,32.72,30s2.75-2.49,5.35-2.21c3,.31,6.61,8,6.61,8"/><path class="cls-10" d="M44.72,35.66c-1.38-.07.42,3.4-1.5,3s-2.9-3.4-4.28-3.48-1.23,2.58-3.16,2.3-1.24-2.66-2.61-2.76-2.92,2.09-4.86,1.89.46-2.24-.91-2.35"/><path class="cls-9" d="M.4,56.52,32.63,29.88s5.52-5.1,9.07,1L62.38,63.25"/></g><g class="cls-11"><path class="cls-12" d="M67.75,25.87,82,27.42a.89.89,0,0,1-.19,1.77l-5.49-.6a.89.89,0,0,0-.19,1.77l2.86.31a.89.89,0,1,1-.19,1.77l-10.05-1.1a.89.89,0,0,1,.19-1.77l2.74.3a.89.89,0,1,0,.19-1.77l-4.3-.47a.89.89,0,0,1,.19-1.77Z"/></g><g class="cls-13"><path class="cls-14" d="M70.19,35.61a.53.53,0,1,1,.58-.47A.53.53,0,0,1,70.19,35.61Zm.09-.8a.28.28,0,1,0,.25.31A.28.28,0,0,0,70.28,34.81Z"/></g><g class="cls-13"><path class="cls-14" d="M83.39,25A.53.53,0,1,1,84,24.5.53.53,0,0,1,83.39,25Zm.09-.8a.28.28,0,1,0,.25.31A.28.28,0,0,0,83.47,24.17Z"/></g><g class="cls-13"><path class="cls-15" d="M31,21.69a.53.53,0,1,1,.58-.47A.53.53,0,0,1,31,21.69Zm.09-.8a.28.28,0,1,0,.25.31A.28.28,0,0,0,31.06,20.89Z"/></g><g class="cls-13"><path class="cls-16" d="M57.1,31.68a.34.34,0,1,1,.37-.3A.34.34,0,0,1,57.1,31.68Zm.06-.51a.17.17,0,1,0,.15.19A.17.17,0,0,0,57.16,31.18Z"/></g><g class="cls-13"><path class="cls-16" d="M18.29,16.16a.34.34,0,1,1,.37-.3A.34.34,0,0,1,18.29,16.16Zm.06-.51a.17.17,0,1,0,.15.19A.17.17,0,0,0,18.35,15.65Z"/></g><g class="cls-13"><path class="cls-14" d="M46.51,28.58a.78.78,0,1,1,.86-.69A.78.78,0,0,1,46.51,28.58Zm.14-1.3a.53.53,0,1,0,.47.59A.53.53,0,0,0,46.65,27.28Z"/></g><g class="cls-13"><path class="cls-14" d="M14.51,39.14a.93.93,0,1,1,1-.82A.93.93,0,0,1,14.51,39.14Zm.17-1.6a.68.68,0,1,0,.6.75A.68.68,0,0,0,14.69,37.54Z"/></g><g class="cls-13"><path class="cls-17" d="M21.95,31.93a.86.86,0,1,1,.95-.76A.86.86,0,0,1,21.95,31.93Zm.16-1.47a.61.61,0,1,0,.54.68A.62.62,0,0,0,22.11,30.46Z"/></g><g class="cls-13"><path class="cls-17" d="M45.63,41.6a.86.86,0,1,1,.95-.76A.86.86,0,0,1,45.63,41.6Zm.16-1.47a.61.61,0,1,0,.54.68A.62.62,0,0,0,45.79,40.13Z"/></g><g class="cls-13"><path class="cls-14" d="M23.85,44.41a.78.78,0,1,1,.86-.69A.78.78,0,0,1,23.85,44.41Zm.14-1.3a.53.53,0,1,0,.47.59A.53.53,0,0,0,24,43.11Z"/></g><g class="cls-13"><path class="cls-17" d="M61,24a.93.93,0,1,1,.61-.15A.93.93,0,0,1,61,24Zm.17-1.6a.68.68,0,1,0,.5.3A.68.68,0,0,0,61.15,22.43Z"/></g><g class="cls-13"><path class="cls-15" d="M55.27,27.83a.56.56,0,1,1,.37-.09A.56.56,0,0,1,55.27,27.83Zm.09-.87a.31.31,0,1,0,.23.14A.31.31,0,0,0,55.36,27Z"/></g><g class="cls-13"><path class="cls-15" d="M46.18,19.24a.56.56,0,1,1,.37-.09A.56.56,0,0,1,46.18,19.24Zm.09-.87a.31.31,0,1,0,.23.14A.31.31,0,0,0,46.28,18.38Z"/></g><g class="cls-13"><path class="cls-14" d="M81.47,35.38a.78.78,0,1,1,.51-.12A.78.78,0,0,1,81.47,35.38Zm.14-1.3a.53.53,0,1,0,.05,0Z"/></g><g class="cls-13"><path class="cls-14" d="M17.34,24.87a.78.78,0,1,1,.51-.12A.78.78,0,0,1,17.34,24.87Zm.14-1.3a.53.53,0,1,0,.05,0Z"/></g><g class="cls-13"><path class="cls-17" d="M85.6,44.67h-.09a.93.93,0,1,1,1-1.42h0a.93.93,0,0,1-.87,1.43Zm.17-1.6a.68.68,0,1,0,.5.3A.68.68,0,0,0,85.77,43.07Z"/></g><g class="cls-13"><path class="cls-14" d="M69.91,28.83h-.08a.86.86,0,1,1,.08,0Zm.16-1.47a.62.62,0,1,0,.06,0Z"/></g><g class="cls-13"><path class="cls-15" d="M64.5,46.94a.53.53,0,1,1,.58-.47A.53.53,0,0,1,64.5,46.94Zm.09-.8a.28.28,0,1,0,.25.31A.28.28,0,0,0,64.58,46.14Z"/></g><g class="cls-13"><path class="cls-15" d="M39,24.5a.53.53,0,1,1,.58-.47A.53.53,0,0,1,39,24.5Zm.09-.8a.28.28,0,1,0,.25.31A.28.28,0,0,0,39.05,23.7Z"/></g></g><rect class="cls-3" x="5.67" y="8.41" width="89.87" height="56.76" rx="6.52" ry="6.52" transform="translate(-3.32 5.07) rotate(-5.55)"/><rect class="cls-4" x="10.51" y="13.1" width="80.41" height="47.3" rx="4" ry="4" transform="translate(-3.32 5.08) rotate(-5.55)"/><g class="cls-11"><path class="cls-12" d="M65.94,21.41,80.19,20a.89.89,0,0,1,.17,1.77l-5.5.53A.89.89,0,0,0,75,24.1l2.87-.28a.89.89,0,0,1,.17,1.77L68,26.57a.89.89,0,0,1-.17-1.77l2.75-.27a.89.89,0,0,0-.17-1.77l-4.3.42a.89.89,0,1,1-.17-1.77Z"/></g><g class="cls-13"><path class="cls-14" d="M70.31,30.45a.53.53,0,1,1,.47-.57A.53.53,0,0,1,70.31,30.45Zm-.08-.8a.28.28,0,1,0,.31.25A.28.28,0,0,0,70.23,29.65Z"/></g><g class="cls-13"><path class="cls-14" d="M81.06,17.35a.53.53,0,1,1,.47-.57A.53.53,0,0,1,81.06,17.35Zm-.08-.8a.28.28,0,1,0,.31.25A.28.28,0,0,0,81,16.55Z"/></g><g class="cls-13"><path class="cls-15" d="M29.08,24.83a.53.53,0,1,1,.47-.57A.53.53,0,0,1,29.08,24.83ZM29,24a.28.28,0,1,0,.3.25A.28.28,0,0,0,29,24Z"/></g><g class="cls-13"><path class="cls-16" d="M56.7,29.28a.34.34,0,1,1,.3-.37A.34.34,0,0,1,56.7,29.28Zm0-.51a.17.17,0,1,0,.19.16A.17.17,0,0,0,56.65,28.77Z"/></g><g class="cls-13"><path class="cls-16" d="M15.54,22a.34.34,0,1,1,.3-.37A.34.34,0,0,1,15.54,22Zm0-.51a.17.17,0,1,0,.19.16A.17.17,0,0,0,15.49,21.49Z"/></g><g class="cls-13"><path class="cls-14" d="M45.7,28.41a.78.78,0,1,1,.7-.85A.78.78,0,0,1,45.7,28.41Zm-.13-1.31a.53.53,0,1,0,.58.48A.53.53,0,0,0,45.57,27.1Z"/></g><g class="cls-13"><path class="cls-14" d="M16.53,45.27a.93.93,0,1,1,.83-1A.93.93,0,0,1,16.53,45.27Zm-.16-1.6a.68.68,0,1,0,.74.61A.68.68,0,0,0,16.37,43.67Z"/></g><g class="cls-13"><path class="cls-17" d="M22.34,36.69a.86.86,0,1,1,.77-.94A.86.86,0,0,1,22.34,36.69Zm-.14-1.47a.61.61,0,1,0,.67.55A.62.62,0,0,0,22.19,35.23Z"/></g><g class="cls-13"><path class="cls-17" d="M47.49,41.33a.86.86,0,1,1,.77-.94A.86.86,0,0,1,47.49,41.33Zm-.14-1.47a.61.61,0,1,0,.67.55A.62.62,0,0,0,47.35,39.86Z"/></g><g class="cls-13"><path class="cls-14" d="M26.74,48.53a.78.78,0,1,1,.7-.85A.78.78,0,0,1,26.74,48.53Zm-.13-1.31a.53.53,0,1,0,.58.48A.53.53,0,0,0,26.61,47.22Z"/></g><g class="cls-13"><path class="cls-17" d="M58.93,21a.93.93,0,1,1,.57-.27A.93.93,0,0,1,58.93,21Zm-.16-1.6a.68.68,0,1,0,.55.2A.68.68,0,0,0,58.77,19.4Z"/></g><g class="cls-13"><path class="cls-15" d="M54.12,25.89a.56.56,0,1,1,.34-.16A.56.56,0,0,1,54.12,25.89ZM54,25a.31.31,0,1,0,.25.09A.31.31,0,0,0,54,25Z"/></g><g class="cls-13"><path class="cls-15" d="M43.47,19.33a.56.56,0,1,1,.34-.16A.56.56,0,0,1,43.47,19.33Zm-.08-.87a.31.31,0,1,0,.25.09A.31.31,0,0,0,43.39,18.47Z"/></g><g class="cls-13"><path class="cls-14" d="M81.31,27.93a.78.78,0,1,1,.48-.23A.78.78,0,0,1,81.31,27.93Zm-.13-1.3a.53.53,0,1,0,.05,0Z"/></g><g class="cls-13"><path class="cls-14" d="M16.38,30.72a.78.78,0,1,1,.48-.23A.78.78,0,0,1,16.38,30.72Zm-.13-1.3a.53.53,0,1,0,.05,0Z"/></g><g class="cls-13"><path class="cls-17" d="M87.25,36.18h-.09a.93.93,0,1,1,.65-1.58h0a.93.93,0,0,1-.56,1.58Zm-.16-1.6a.68.68,0,1,0,.55.2A.68.68,0,0,0,87.09,34.58Z"/></g><g class="cls-13"><path class="cls-14" d="M68.66,23.87h-.08a.86.86,0,1,1,.08,0Zm-.15-1.47a.62.62,0,1,0,.06,0Z"/></g><g class="cls-13"><path class="cls-15" d="M67,42.71a.53.53,0,1,1,.47-.57A.53.53,0,0,1,67,42.71Zm-.08-.8a.28.28,0,1,0,.31.25A.28.28,0,0,0,67,41.91Z"/></g><g class="cls-13"><path class="cls-15" d="M37.48,25.95a.53.53,0,1,1,.47-.57A.53.53,0,0,1,37.48,25.95Zm-.08-.8a.28.28,0,1,0,.31.25A.28.28,0,0,0,37.4,25.15Z"/></g><g class="cls-18"><ellipse class="cls-3" cx="52.29" cy="40.73" rx="3.19" ry="4.94" transform="translate(-4.09 5.89) rotate(-6.2)"/><path class="cls-3" d="M52,47.53l.14.53a.15.15,0,0,0,.16.11l.8-.08a.15.15,0,0,0,.13-.13l.06-.56a.15.15,0,0,0-.16-.17q-.49,0-1,.11A.15.15,0,0,0,52,47.53Z"/><path class="cls-3" d="M59.94,61.69c-.05-1-.25-.79-.62-3.93h0C59.15,55.81,59,54.44,59,54c-.13-2,3-8.09,3.88-10.78.49-1.57,1.75-6.27,1.52-9.31a1.56,1.56,0,0,0-2.5-1.12,1.52,1.52,0,0,0-.58,1.14,18.37,18.37,0,0,1-4.45,12.54,2.89,2.89,0,0,1-1,.82,1.91,1.91,0,0,1-.75,0,.19.19,0,0,0-.21.14l-1,3.61a0,0,0,0,1-.07,0l-.66-2.38A.16.16,0,0,0,53,48.5l-.58.07a.15.15,0,0,0-.14.14c0,.45-.18,2-.22,2.5a0,0,0,0,1-.08,0l-1.27-3.44a.19.19,0,0,0-.22-.12l-.9.26a.88.88,0,0,1-.42,0,2.89,2.89,0,0,1-1.15-.6,18.37,18.37,0,0,1-6.85-11.4,1.52,1.52,0,0,0-.8-1,1.56,1.56,0,0,0-2.23,1.6c.37,3,2.54,7.38,3.33,8.82,1.36,2.47,5.66,7.79,5.94,9.79.06.45.6,5.81.83,7.79"/><rect class="cls-19" x="30.71" y="19.49" width="38.16" height="15.4" transform="translate(-2.46 5.09) rotate(-5.72)"/><rect class="cls-8" x="31.13" y="19.92" width="37.31" height="14.56" transform="translate(-2.46 5.09) rotate(-5.72)"/><path class="cls-7" d="M35.26,69.52a.21.21,0,0,1-.2-.09C32.74,66.1,33,62,33.37,57.76c0-.58.09-1.16.13-1.75.32-5-2-7.19-4.54-9.51-2.14-2-4.34-4-4.73-7.93a.21.21,0,1,1,.42,0c.37,3.74,2.43,5.65,4.6,7.66,2.46,2.29,5,4.65,4.68,9.85,0,.59-.08,1.17-.13,1.75C33.48,62,33.18,66,35.41,69.19a.21.21,0,0,1-.15.33Z"/><path class="cls-7" d="M65.51,69.86h0a.21.21,0,0,1-.23-.19c-.1-1,.51-2.19,1.28-3.64a19.13,19.13,0,0,0,2.6-7.86,29.38,29.38,0,0,0-.68-7.72c-.47-2.54-.87-4.74-.15-6.46a.21.21,0,0,1,.39.16c-.67,1.61-.27,3.75.18,6.22a29.72,29.72,0,0,1,.68,7.83,19.49,19.49,0,0,1-2.65,8c-.73,1.39-1.31,2.49-1.23,3.41A.21.21,0,0,1,65.51,69.86Z"/><path class="cls-7" d="M75.66,51.59h0a.21.21,0,0,1-.19-.23,16.69,16.69,0,0,1,.63-2.56A18.42,18.42,0,0,0,77.12,42c-.07-.75-.17-1.53-.26-2.28-.38-3-.77-6.05.5-8.44a.21.21,0,1,1,.37.2c-1.21,2.27-.83,5.28-.46,8.19.1.75.19,1.54.26,2.29a18.76,18.76,0,0,1-1.07,7,16.49,16.49,0,0,0-.61,2.49A.21.21,0,0,1,75.66,51.59Z"/><path class="cls-15" d="M76.83,63l-.44,1a.14.14,0,0,0,0,.16l.6.57a.14.14,0,0,0,.23-.11l-.16-1.57A.14.14,0,0,0,76.83,63Z"/><path class="cls-15" d="M72.94,56.67l-.22.67a.14.14,0,0,0,0,.15l.57.43a.14.14,0,0,0,.22-.15l-.35-1.1A.14.14,0,0,0,72.94,56.67Z"/><path class="cls-7" d="M83.84,49.28l.73.68a.14.14,0,0,1,0,.19l-.59.72a.14.14,0,0,1-.25-.07l-.14-1.41A.14.14,0,0,1,83.84,49.28Z"/><path class="cls-15" d="M70.1,38.58l1.08.22a.14.14,0,0,1,.11.14c0,.52-.13,2.56-.44,2.4a8.67,8.67,0,0,1-.92-2.6A.14.14,0,0,1,70.1,38.58Z"/><path class="cls-7" d="M28.23,66.62l-.49-1a.14.14,0,0,1,.15-.2l2.05.36A.14.14,0,0,1,30,66l-1.56.65A.14.14,0,0,1,28.23,66.62Z"/><path class="cls-15" d="M38.1,53.7l1.07-.33a.14.14,0,0,1,.17.18l-.67,2a.14.14,0,0,1-.27,0L38,53.87A.14.14,0,0,1,38.1,53.7Z"/><path class="cls-7" d="M33.09,40.91l.49,1a.14.14,0,0,1-.15.2l-2.05-.35a.14.14,0,0,1,0-.27l1.56-.65A.14.14,0,0,1,33.09,40.91Z"/><path class="cls-7" d="M81.65,34.62l.49,1a.14.14,0,0,1-.15.2l-2.05-.35a.14.14,0,0,1,0-.27l1.56-.65A.14.14,0,0,1,81.65,34.62Z"/><path class="cls-15" d="M25.23,50.39l-.53,1a.14.14,0,0,1-.25,0l-.9-1.88a.14.14,0,0,1,.2-.18l1.43.9A.14.14,0,0,1,25.23,50.39Z"/><path class="cls-7" d="M39.06,61l.79-.13a.14.14,0,0,1,.15.2l-.51,1a.14.14,0,0,1-.25,0L39,61.21A.14.14,0,0,1,39.06,61Z"/><path class="cls-19" d="M36.16,28.92l-.33,0,0-.32.36,0V28l-.34,0,0-.32.38,0,0-.74.29,0,0,.74.49,0,0-.74.29,0,0,.74.34,0,0,.32-.38,0v.55l.36,0,0,.32-.4,0v.83l-.3,0v-.83l-.49,0,0,.83-.3,0Zm.79-.4V28l-.5,0v.55Z"/><path class="cls-19" d="M38.31,28.84a1.1,1.1,0,0,0,.75.24c.31,0,.47-.19.45-.4s-.21-.28-.47-.36l-.39-.13a.79.79,0,0,1-.63-.68.84.84,0,0,1,.85-.87,1.23,1.23,0,0,1,.89.27l-.22.34a.9.9,0,0,0-.62-.18c-.26,0-.42.17-.4.37s.24.27.48.34l.39.12a.77.77,0,0,1,.63.69c0,.45-.29.86-.91.92a1.43,1.43,0,0,1-1-.31Z"/><path class="cls-19" d="M40.43,27.61l-.3,0,0-.36.32-.05v-.57l.41,0,.06.57.53-.05,0,.38-.53.05.1,1c0,.24.13.35.33.33a.6.6,0,0,0,.21-.07l.12.35a1.33,1.33,0,0,1-.41.12c-.48,0-.69-.24-.73-.69Z"/><path class="cls-19" d="M43,27.73c0-.22-.14-.4-.42-.37a1.16,1.16,0,0,0-.56.26l-.21-.31a1.61,1.61,0,0,1,.82-.35c.52-.05.8.24.86.82L43.61,29l-.4,0-.06-.22h0a1,1,0,0,1-.61.34.59.59,0,0,1-.68-.55C41.8,28.17,42.15,27.9,43,27.73Zm-.35,1a.65.65,0,0,0,.43-.27L43,28c-.55.13-.72.29-.7.5S42.46,28.78,42.64,28.77Z"/><path class="cls-19" d="M44,26.87l.4,0,.07.36h0a.71.71,0,0,1,.54-.48.53.53,0,0,1,.24,0l0,.43a.68.68,0,0,0-.22,0c-.16,0-.35.15-.45.48l.13,1.27-.49,0Z"/><path class="cls-19" d="M45.67,27.09l-.3,0,0-.36.32-.05v-.57l.41,0,.06.57.53-.05,0,.38-.53.05.1,1c0,.24.13.35.33.33a.6.6,0,0,0,.21-.07l.12.35a1.33,1.33,0,0,1-.41.12c-.48,0-.69-.24-.73-.69Z"/><path class="cls-19" d="M47.05,25.87l.49,0,.28,2.76-.49,0Z"/><path class="cls-19" d="M48.26,26.44l.4,0,.06.28h0a1,1,0,0,1,.65-.4c.44,0,.67.24.72.76l.13,1.3-.49,0-.12-1.24c0-.34-.14-.46-.37-.44s-.29.12-.45.3L49,28.47l-.49,0Z"/><path class="cls-19" d="M51.72,25.35a1.09,1.09,0,0,1,.82.27L52.3,26a.71.71,0,0,0-.53-.18c-.45,0-.74.46-.68,1.08s.4,1,.86.93a.75.75,0,0,0,.55-.33l.3.27a1.11,1.11,0,0,1-.82.49,1.27,1.27,0,0,1-1.4-1.3A1.3,1.3,0,0,1,51.72,25.35Z"/><path class="cls-19" d="M53.89,25.83A1.1,1.1,0,1,1,53,27,1,1,0,0,1,53.89,25.83Zm.18,1.78c.3,0,.46-.32.42-.74s-.25-.67-.56-.64-.46.32-.42.74S53.76,27.64,54.06,27.61Z"/><path class="cls-19" d="M55.27,24.83l.49,0L56,27.25c0,.12.07.15.12.15l.08,0,.1.36a.66.66,0,0,1-.25.07c-.35,0-.5-.18-.53-.53Z"/><path class="cls-19" d="M56.41,24.71l.49,0,.25,2.47c0,.12.07.15.12.15l.08,0,.1.36a.66.66,0,0,1-.25.07c-.35,0-.5-.18-.53-.53Z"/><path class="cls-19" d="M58.46,25.37c.56-.06.9.32,1,.9a1,1,0,0,1,0,.23l-1.32.13a.6.6,0,0,0,.67.53.87.87,0,0,0,.47-.2l.19.29a1.31,1.31,0,0,1-.69.29,1.1,1.1,0,0,1-.29-2.17Zm.53.86c0-.33-.19-.51-.47-.49a.53.53,0,0,0-.44.58Z"/><path class="cls-19" d="M60.1,27.28v0a.39.39,0,0,1-.22-.33.5.5,0,0,1,.19-.41v0a.7.7,0,0,1-.33-.52.76.76,0,0,1,.74-.82.94.94,0,0,1,.31,0l.74-.07,0,.36-.38,0a.56.56,0,0,1,.15.34.71.71,0,0,1-.71.78.77.77,0,0,1-.29,0,.24.24,0,0,0-.08.21c0,.12.1.18.36.16l.37,0c.5,0,.77.08.81.43s-.36.77-1,.84c-.49,0-.88-.09-.92-.45A.54.54,0,0,1,60.1,27.28Zm.71.6c.33,0,.55-.21.53-.39s-.15-.19-.39-.17l-.28,0a1.1,1.1,0,0,1-.29,0,.35.35,0,0,0-.13.29C60.26,27.83,60.48,27.92,60.81,27.89Zm.11-2a.37.37,0,1,0-.72.07.37.37,0,1,0,.72-.07Z"/><path class="cls-19" d="M62.68,24.95c.56-.06.9.32,1,.9a1,1,0,0,1,0,.23l-1.32.13a.6.6,0,0,0,.67.53.87.87,0,0,0,.47-.2l.19.29a1.31,1.31,0,0,1-.69.29,1.1,1.1,0,0,1-.29-2.17Zm.53.86c0-.33-.19-.51-.47-.49a.53.53,0,0,0-.44.58Z"/></g></svg>