<svg id="ab927c5f-82aa-4939-8810-dc8a0d2aed32" data-name="Layer 1" xmlns="http://www.w3.org/2000/svg" viewBox="0 0 447.47 230.13"><title>error-404</title><path d="M406.76,44.4H55A19.05,19.05,0,0,0,35.91,63.45V183.93a19,19,0,0,0,18.33,19,18,18,0,0,1-.79-3.48l51.94-16.8,9.44,4.32v-4.25a5.72,5.72,0,0,1,5.73-5.73h7.17a5.72,5.72,0,0,1,5.72,5.73v18.07A5.79,5.79,0,0,1,133,203H406.76a19.05,19.05,0,0,0,19.05-19V63.45A19.05,19.05,0,0,0,406.76,44.4Z" fill="#1e0a3c"/><path d="M59.73,201.82a18.93,18.93,0,0,0,.79,3.48c.25,0,.48,0,.73,0h60.3a5.65,5.65,0,0,1-.43-2.18V189.34L111.67,185Z" fill="#39537d"/><path d="M127.72,47.47s3.56,12.83-.26,17.79-12.8,9.52-12.8,9.52l-3,8.69-11.35-1.65L124,49Z" fill="#39537d"/><path d="M80.28,68.85s-6.75,13.38-3.79,21.52S93.94,89,93.94,89s17.73-14.76,27.18-30.76,10-25.8,8.69-28.56-4.35-9.94-18.9,1S84.56,61.68,84.56,61.68Z" fill="#fbaa19"/><path d="M79.45,98.24s.72,2.34-8.33,0,1.18,6.85,7.86,5.29,7.08-7.36,7.08-7.36Z" fill="#3a5472"/><path d="M128.2,59.23s6.26,21.37-1.53,31l-7.93,6v-15s-1.68,1.6-2.6-1.07,2.44-10.23,2.44-10.23l2.6-6.1Z" fill="#fff0b5"/><rect x="106.56" y="93.32" width="14.56" height="23.22" fill="#fff0b5"/><path d="M109.53,106.93s11.52-5.8,11.59-12.42-.24-15.3-4.79-14.47-10.75-1.91-14,1.21S90,91.81,90,91.81Z" fill="#1e0a3c"/><path d="M77.66,102.18s-.44-13,19.72-13.23c0,0,14.87,2.08,14.28,21.2l-2.06,3.35L79,104.73Z" fill="#39537d"/><path d="M77.66,116.17l5.72.83s16,.9,18.34-.41,7.12,2,5.88-5-12.45-3.29-12.45-3.29l-8,1.63Z" fill="#bc4e7f"/><path d="M59.73,201.82s30.69,10.93,48.42-5.76c0,0,7-10.07,2.22-30.91a147.73,147.73,0,0,0-15.22-38.08Z" fill="#512e91"/><rect x="105.42" y="108.1" width="26.23" height="83.61" rx="8.23" fill="#614099"/><path d="M43.9,184.64s4.92,21.87,29.55,17.83,22.88-11.17,23.66-36,0-46.56,0-46.56-8.76-12.21-13.73-2.9-18.21,27.22-22.14,28.15-22.63,1-22.63,1S36,168.9,40.18,179.37,43.9,184.64,43.9,184.64Z" fill="#e63a8f"/><path d="M127.72,44.7s5.12.07,5.12-3.31,4.24,6.14-5.12,6.08c0,0,5.74,8.2.71,13.65,0,0,1.65-7.62-2.07-10.22,0,0,1,3.6-5.24,7.33Z" fill="#39537d"/><path d="M73.93,81.82s-3.24,15,6.9,12.69l-1.38,3.73S65.24,95.89,73.93,81.82Z" fill="#2d4059"/><polygon points="98.63 117 103.87 138.11 98.63 138.11 94.21 117 98.63 117" fill="#ef5794"/><path d="M108.84,112.31s1.72,11.11,1.52,17.25,0,23.86,0,23.86v11.73s-5.05,5.93-11.33,4.14V146.11l-1.93-29.94A15.15,15.15,0,0,0,108.84,112.31Z" fill="#bc4e7f"/><path d="M90,136l18.19-3.86v5.93L90,141.7S88.26,138.52,90,136Z" fill="none" stroke="#9a5151" stroke-miterlimit="10"/><path d="M85.11,124.18,83,126.8l1,11.93L83,174.4s-1.45,9.65-6.9,12.41-30.77,10.83-37.67-11.72c0,0,15.53,19,32.7,3.45,0,0,6.76-11.8,4.14-39.81,0,0-15.31,17.73-35.59,9.45l-2.65-2.8L73,128.31l7.52-11.76,13.72.45.94,4.48Z" fill="#512e91"/><rect x="89.31" y="154.11" width="22.01" height="6.48" fill="#6d86b0"/><rect x="97.89" y="138.11" width="7.65" height="6.21" fill="#6d86b0"/><rect x="95.15" y="127.07" width="8.59" height="6.04" fill="#6d86b0"/><path d="M84.14,76.44s7.45,1.93,16.42-7.87,14.14-18.41,15.31-21,7-13-3.45-13.1c0,0-6.69-.07-9.52-1.38S77.1,65.26,77.1,65.26Z" fill="#ffce04"/><path d="M79.86,66.37s6.78,1.53,21.46-21.69c0,0,1.31-8.94-3.93-6.73S78.67,51.18,76.71,63.4C76.71,63.4,76.68,67.24,79.86,66.37Z" fill="#fff0b5"/><path d="M77.1,65.26s5.73-22.9,21.11-24.56c0,0,3.25.28-1.1,10.35,0,0,8.49-9.38,5.79-17.93,0,0-4.44-2.56-12.63,5.52S74.21,54.23,77.1,65.26Z" fill="#ffce04"/><path d="M116,69.4s-4.22,17.25-13,22.35c0,0,10.35,2.62,19-26.49Z" fill="#39537d"/><path d="M74.07,102.93s-22.9,2.34-34.49,19.87c0,0-14.14,18.14-1,23.31,0,0,17.59,6.21,33.39-14.48,0,0,9.24-14.84,9.66-18.35l7.59-.56a1.72,1.72,0,0,1,.71-2.07c1.22-.62,7.93-1.59,7.93-1.59l-20.23-6.13Z" fill="#e63a8f"/><rect x="87.18" y="134.11" width="4.28" height="9.24" fill="#fbaa19"/><rect x="108.84" y="130.38" width="4.97" height="8.35" fill="#fbaa19"/><rect x="87.18" y="152.74" width="4.28" height="8.69" fill="#fbaa19"/><rect x="109.54" y="152.05" width="4.26" height="9.38" fill="#fbaa19"/><path d="M48.82,156.74s-1.27,20.21,0,26.11" fill="none" stroke="#1e0a3c" stroke-miterlimit="10" stroke-width="0.5" stroke-dasharray="2"/><path d="M33,141s20.28,7.12,43.71-16" fill="none" stroke="#1e0a3c" stroke-miterlimit="10" stroke-width="0.5" stroke-dasharray="2"/><path d="M89.09,117s-2.41,47.92-6,57.4" fill="none" stroke="#1e0a3c" stroke-miterlimit="10" stroke-width="0.5" stroke-dasharray="2"/><path d="M97.11,116.17s6.66,47,.71,63.19" fill="none" stroke="#1e0a3c" stroke-miterlimit="10" stroke-width="0.5" stroke-dasharray="2"/><path d="M139.74,185.09a5.74,5.74,0,0,0-5.73-5.73h-7.17a5.73,5.73,0,0,0-5.72,5.73v18.07a5.65,5.65,0,0,0,.43,2.18H139.3a5.66,5.66,0,0,0,.44-2.18Z" fill="#fff0b5"/><path d="M119.21,65s1,17.73-6,25.14c0,0,10.67-.48,10.57-30.86Z" fill="#39537d"/><rect x="130.33" y="62.56" width="1.19" height="7.86" fill="#e63a8f"/><rect x="122.08" y="64.85" width="8.85" height="0.83" transform="translate(-13.28 38.35) rotate(-16.39)" fill="#e63a8f"/><polygon points="242.73 70.53 241.82 70.02 240.88 70.47 241.09 69.45 240.37 68.7 241.41 68.58 241.9 67.66 242.33 68.61 243.36 68.8 242.59 69.5 242.73 70.53" fill="#d2dae3"/><polygon points="189.99 144.28 188.63 143.51 187.24 144.19 187.55 142.66 186.47 141.54 188.02 141.37 188.75 140 189.39 141.42 190.92 141.69 189.77 142.74 189.99 144.28" fill="#d2dae3"/><polygon points="216.9 179.25 215.25 178.3 213.53 179.13 213.92 177.27 212.6 175.89 214.49 175.68 215.39 174 216.18 175.74 218.05 176.07 216.65 177.36 216.9 179.25" fill="#d2dae3"/><polygon points="190.86 74.87 191.78 76.95 194.04 76.71 192.7 78.54 194.04 80.37 191.78 80.13 190.86 82.2 189.95 80.13 187.69 80.37 189.03 78.54 187.69 76.71 189.95 76.95 190.86 74.87" fill="#d2dae3"/><polyline points="264.05 65.26 237.15 114.52 278.97 113.89" fill="none" stroke="#765ca7" stroke-miterlimit="10"/><line x1="262.4" y1="93.32" x2="262.4" y2="134.11" fill="none" stroke="#765ca7" stroke-miterlimit="10"/><polygon points="279.5 111.67 279.96 112.71 281.09 112.59 280.42 113.5 281.09 114.42 279.96 114.3 279.5 115.34 279.05 114.3 277.92 114.42 278.59 113.5 277.92 112.59 279.05 112.71 279.5 111.67" fill="#d2dae3"/><polygon points="238.22 117.09 236.94 116.36 235.61 117.01 235.91 115.56 234.89 114.5 236.35 114.33 237.05 113.03 237.66 114.38 239.11 114.64 238.02 115.63 238.22 117.09" fill="#d2dae3"/><polygon points="263.79 61.35 264.77 63.57 267.18 63.31 265.75 65.26 267.18 67.22 264.77 66.96 263.79 69.18 262.82 66.96 260.4 67.22 261.84 65.26 260.4 63.31 262.82 63.57 263.79 61.35" fill="#d2dae3"/><polygon points="263.3 95.73 262.01 95 260.69 95.64 260.98 94.2 259.96 93.14 261.43 92.97 262.12 91.67 262.73 93.02 264.18 93.28 263.09 94.27 263.3 95.73" fill="#d2dae3"/><polygon points="263.62 135.88 262.34 135.15 261.01 135.79 261.31 134.34 260.29 133.28 261.75 133.12 262.45 131.82 263.06 133.16 264.51 133.42 263.42 134.41 263.62 135.88" fill="#d2dae3"/><polygon points="290.14 90.37 290.14 131.82 311.21 139.73 324.15 126.57 317.77 76.56 290.14 90.37" fill="none" stroke="#765ca7" stroke-miterlimit="10"/><polygon points="290.87 92.88 289.22 91.94 287.5 92.77 287.89 90.9 286.57 89.53 288.46 89.32 289.36 87.64 290.14 89.37 292.02 89.71 290.61 90.99 290.87 92.88" fill="#d2dae3"/><polygon points="291.72 134.44 290.07 133.5 288.35 134.32 288.74 132.46 287.42 131.09 289.31 130.87 290.21 129.19 291 130.93 292.87 131.27 291.46 132.55 291.72 134.44" fill="#d2dae3"/><polygon points="312.79 142.35 311.14 141.41 309.42 142.24 309.81 140.38 308.49 139 310.38 138.79 311.28 137.11 312.07 138.85 313.94 139.18 312.54 140.47 312.79 142.35" fill="#d2dae3"/><polygon points="319.35 78.79 317.7 77.85 315.98 78.68 316.37 76.81 315.05 75.44 316.94 75.23 317.84 73.55 318.63 75.28 320.5 75.62 319.09 76.9 319.35 78.79" fill="#d2dae3"/><polygon points="325.73 128.56 324.07 127.62 322.36 128.45 322.74 126.59 321.42 125.21 323.31 125 324.21 123.32 325 125.06 326.87 125.39 325.47 126.68 325.73 128.56" fill="#d2dae3"/><polygon points="330.96 62.74 330.05 62.23 329.11 62.68 329.32 61.66 328.6 60.91 329.63 60.79 330.13 59.87 330.56 60.82 331.59 61.01 330.81 61.71 330.96 62.74" fill="#d2dae3"/><polygon points="291.29 173.26 289.94 172.49 288.54 173.17 288.85 171.65 287.78 170.52 289.32 170.35 290.05 168.98 290.69 170.4 292.22 170.67 291.08 171.72 291.29 173.26" fill="#d2dae3"/><polygon points="376.54 159.44 375.19 158.68 373.79 159.35 374.11 157.83 373.03 156.71 374.57 156.54 375.31 155.17 375.95 156.58 377.48 156.86 376.33 157.91 376.54 159.44" fill="#d2dae3"/><polygon points="390.36 90.37 389 89.61 387.61 90.28 387.92 88.76 386.84 87.64 388.39 87.47 389.12 86.1 389.76 87.51 391.29 87.79 390.14 88.83 390.36 90.37" fill="#d2dae3"/><polygon points="169.33 173.26 167.98 172.49 166.58 173.17 166.89 171.65 165.82 170.52 167.36 170.35 168.1 168.98 168.74 170.4 170.27 170.67 169.12 171.72 169.33 173.26" fill="#d2dae3"/><polygon points="290.59 62.74 289.24 61.98 287.84 62.65 288.15 61.13 287.07 60.01 288.62 59.84 289.35 58.47 289.99 59.88 291.52 60.16 290.38 61.21 290.59 62.74" fill="#d2dae3"/><polygon points="331.38 98.71 330.03 97.94 328.63 98.62 328.94 97.09 327.87 95.97 329.41 95.8 330.14 94.43 330.79 95.85 332.31 96.12 331.17 97.17 331.38 98.71" fill="#d2dae3"/><polygon points="169.33 104.19 167.98 103.42 166.58 104.1 166.89 102.58 165.82 101.45 167.36 101.28 168.1 99.91 168.74 101.33 170.27 101.6 169.12 102.65 169.33 104.19" fill="#d2dae3"/><polygon points="413.54 118 412.19 117.23 410.79 117.91 411.1 116.39 410.02 115.27 411.57 115.1 412.3 113.73 412.94 115.14 414.47 115.42 413.32 116.46 413.54 118" fill="#d2dae3"/><path d="M117.39,175.36c-4.93-6.72-3.07,10.87,4.69,11.38s16.46.73,19-2.69,5.2-8.86-1.38-13.17S117.39,175.36,117.39,175.36Z" fill="#39537d"/><path d="M139.74,120.8a8.49,8.49,0,0,0-8.49-8.49h-5.38a8.49,8.49,0,0,0-8.48,8.49v50.08a8.48,8.48,0,0,0,8.48,8.48h5.38a8.54,8.54,0,0,0,2.78-.48c.25-7.64,2.92-64.36,2.92-64.36Z" fill="#d2dae3"/><path d="M138.61,175.07l-.11.22Z" fill="#d2dae3"/><path d="M139.07,174.18a8.42,8.42,0,0,0,.67-3.3V120.8Z" fill="#d2dae3"/><path d="M139.07,174.18a7.49,7.49,0,0,1-.46.89C138.9,174.53,139.07,174.18,139.07,174.18Z" fill="#fff0b5"/><path d="M137,114.52s-2.67,56.72-2.92,64.36a8.5,8.5,0,0,0,4.47-3.59l.11-.22a7.49,7.49,0,0,0,.46-.89l.67-53.38Z" fill="#39537d"/><polyline points="364.4 83.32 337.5 132.57 379.32 131.95" fill="none" stroke="#765ca7" stroke-miterlimit="10"/><line x1="362.75" y1="111.38" x2="362.75" y2="152.16" fill="none" stroke="#765ca7" stroke-miterlimit="10"/><polygon points="380.24 126.7 381.15 128.78 383.41 128.53 382.07 130.36 383.41 132.19 381.15 131.95 380.24 134.03 379.32 131.95 377.06 132.19 378.4 130.36 377.06 128.53 379.32 128.78 380.24 126.7" fill="#d2dae3"/><polygon points="338.21 134.8 336.93 134.07 335.6 134.72 335.9 133.27 334.88 132.21 336.34 132.04 337.04 130.74 337.65 132.09 339.1 132.35 338.01 133.34 338.21 134.8" fill="#d2dae3"/><polygon points="366.13 78.79 367.11 81.01 369.52 80.75 368.09 82.7 369.52 84.66 367.11 84.4 366.13 86.62 365.16 84.4 362.75 84.66 364.18 82.7 362.75 80.75 365.16 81.01 366.13 78.79" fill="#d2dae3"/><polygon points="361.98 112.49 360.69 111.76 359.37 112.4 359.67 110.96 358.64 109.89 360.11 109.73 360.81 108.43 361.42 109.77 362.87 110.03 361.78 111.03 361.98 112.49" fill="#d2dae3"/><polygon points="363.97 153.93 362.69 153.2 361.36 153.84 361.66 152.4 360.63 151.34 362.1 151.17 362.8 149.87 363.4 151.22 364.86 151.47 363.77 152.47 363.97 153.93" fill="#d2dae3"/></svg>