<svg id="b92d3ad9-754b-40c6-bc07-9834df1d6f2f" data-name="ab927c5f-82aa-4939-8810-dc8a0d2aed32" xmlns="http://www.w3.org/2000/svg" viewBox="0 0 420 200"><title>error-404</title><path d="M387.4,29.33H35.64a19,19,0,0,0-19.09,19V168.86a19,19,0,0,0,18.33,19,17.36,17.36,0,0,1-.79-3.48L86,167.58l9.44,4.32v-4.25a5.71,5.71,0,0,1,5.71-5.73h7.19a5.72,5.72,0,0,1,5.72,5.72h0v18.07a6,6,0,0,1-.45,2.21H387.4a19.05,19.05,0,0,0,19.05-19V48.38A19.05,19.05,0,0,0,387.4,29.33Z" fill="#1e0a3c"/><path d="M40.37,186.75a18.25,18.25,0,0,0,.79,3.48h61a5.47,5.47,0,0,1-.43-2.18V174.27l-9.45-4.34Z" fill="#39537d"/><path d="M108.36,32.4s3.56,12.83-.26,17.79-12.8,9.52-12.8,9.52l-3,8.69L81,66.75l23.69-32.82Z" fill="#39537d"/><path d="M60.92,53.78S54.17,67.16,57.13,75.3s17.45-1.37,17.45-1.37,17.73-14.76,27.18-30.76,10-25.8,8.69-28.56-4.35-9.94-18.9,1-26.35,31-26.35,31Z" fill="#fbaa19"/><path d="M60.09,83.17s.72,2.34-8.33,0,1.18,6.85,7.86,5.29S66.7,81.1,66.7,81.1Z" fill="#3a5472"/><path d="M108.84,44.16s6.26,21.37-1.53,31l-7.93,6v-15s-1.68,1.6-2.6-1.07,2.44-10.23,2.44-10.23l2.6-6.1Z" fill="#fff0b5"/><rect x="87.2" y="78.25" width="14.56" height="23.22" fill="#fff0b5"/><path d="M90.17,91.86s11.52-5.8,11.59-12.42S101.52,64.14,97,65s-10.75-1.91-14,1.21S70.64,76.74,70.64,76.74Z" fill="#1e0a3c"/><path d="M58.3,87.11s-.44-13,19.72-13.23c0,0,14.87,2.08,14.28,21.2l-2.06,3.35-30.6-8.77Z" fill="#39537d"/><path d="M58.3,101.1l5.72.83s16,.9,18.34-.41,7.12,2,5.88-5-12.45-3.29-12.45-3.29l-8,1.63Z" fill="#bc4e7f"/><path d="M40.37,186.75S71.06,197.68,88.79,181c0,0,7-10.07,2.22-30.91A147.69,147.69,0,0,0,75.79,112Z" fill="#512e91"/><rect x="86.06" y="93.03" width="26.23" height="83.61" rx="8.23" fill="#614099"/><path d="M24.54,169.57s4.92,21.87,29.55,17.83,22.88-11.17,23.66-36,0-46.56,0-46.56S69,92.63,64,101.94s-18.21,27.22-22.14,28.15-22.63,1-22.63,1-2.61,22.74,1.57,33.21S24.54,169.57,24.54,169.57Z" fill="#e63a8f"/><path d="M108.36,29.63s5.12.07,5.12-3.31,4.24,6.14-5.12,6.08c0,0,5.74,8.2.71,13.65,0,0,1.65-7.62-2.07-10.22,0,0,1,3.6-5.24,7.33Z" fill="#39537d"/><path d="M54.57,66.75s-3.24,15,6.9,12.69l-1.38,3.73S45.88,80.82,54.57,66.75Z" fill="#2d4059"/><polygon points="79.27 101.93 84.51 123.04 79.27 123.04 74.85 101.93 79.27 101.93" fill="#ef5794"/><path d="M89.48,97.24S91.2,108.35,91,114.49s0,23.86,0,23.86v11.73s-5,5.93-11.33,4.14V131L77.74,101.1A15.19,15.19,0,0,0,89.48,97.24Z" fill="#bc4e7f"/><path d="M70.37,127.19l-.17-.32c-.08-.14-1.87-3.49,0-6.23l.12-.16,19-4v7Zm.57-5.82c-1.09,1.77-.36,3.89,0,4.69l17.41-3.47v-4.91Z" fill="#9a5151"/><path d="M65.75,109.11l-2.11,2.62,1,11.93-1,35.67s-1.45,9.65-6.9,12.41S26,182.57,19.07,160c0,0,15.53,19,32.7,3.45,0,0,6.76-11.8,4.14-39.81,0,0-15.31,17.73-35.59,9.45l-2.65-2.8,36-17.07,7.52-11.76,13.72.45.94,4.48Z" fill="#512e91"/><rect x="69.95" y="139.04" width="22.01" height="6.48" fill="#6d86b0"/><rect x="78.53" y="123.04" width="7.65" height="6.21" fill="#6d86b0"/><rect x="75.79" y="112" width="8.59" height="6.04" fill="#6d86b0"/><path d="M64.78,61.37S72.23,63.3,81.2,53.5s14.14-18.41,15.31-21,7-13-3.45-13.1c0,0-6.69-.07-9.52-1.38s-25.8,32.17-25.8,32.17Z" fill="#ffce04"/><path d="M60.5,51.3S67.28,52.83,82,29.61c0,0,1.31-8.94-3.93-6.73S59.31,36.11,57.35,48.33C57.35,48.33,57.32,52.17,60.5,51.3Z" fill="#fff0b5"/><path d="M57.74,50.19s5.73-22.9,21.11-24.56c0,0,3.25.28-1.1,10.35,0,0,8.49-9.38,5.79-17.93,0,0-4.44-2.56-12.63,5.52S54.85,39.16,57.74,50.19Z" fill="#ffce04"/><path d="M96.64,54.33s-4.22,17.25-13,22.35c0,0,10.35,2.62,19-26.49Z" fill="#39537d"/><path d="M54.71,87.86s-22.9,2.34-34.49,19.87c0,0-14.14,18.14-1,23.31,0,0,17.59,6.21,33.39-14.48,0,0,9.24-14.84,9.66-18.35l7.59-.56a1.71,1.71,0,0,1,.71-2.07C71.79,95,78.5,94,78.5,94L58.27,87.86Z" fill="#e63a8f"/><rect x="67.82" y="119.04" width="4.28" height="9.24" fill="#fbaa19"/><rect x="89.48" y="115.31" width="4.97" height="8.35" fill="#fbaa19"/><rect x="67.82" y="137.67" width="4.28" height="8.69" fill="#fbaa19"/><rect x="90.18" y="136.98" width="4.26" height="9.38" fill="#fbaa19"/><path d="M29.18,167.7c-.11-.54-.2-1.22-.28-2l.5,0a19.67,19.67,0,0,0,.28,1.95Zm-.42-4c0-.64-.06-1.31-.08-2h.5c0,.69.05,1.36.08,2Zm-.11-4c0-.43,0-.86,0-1.3v-.71h.5v.7c0,.44,0,.87,0,1.29Zm.51-4h-.5c0-.67,0-1.34,0-2h.5C29.19,154.34,29.17,155,29.16,155.68Zm.09-4-.5,0c0-.68.05-1.35.07-2l.5,0C29.3,150.33,29.27,151,29.25,151.68Zm.15-4-.5,0c0-.71.06-1.38.09-2l.5,0C29.46,146.3,29.43,147,29.4,147.68Zm.19-4-.5,0c.07-1.26.12-2,.12-2l.5,0S29.66,142.43,29.59,143.68Z" fill="#1e0a3c"/><path d="M21.54,127.21v-.5c.65,0,1.32,0,2,0l0,.5C22.87,127.19,22.2,127.21,21.54,127.21Zm-2-.06c-.67,0-1.35-.1-2-.18l.06-.49c.65.08,1.31.14,2,.17Zm6-.16,0-.5c.65-.07,1.31-.16,2-.26l.08.49C26.89,126.83,26.22,126.92,25.56,127Zm-10-.33a16,16,0,0,1-2-.5l.17-.47a15.65,15.65,0,0,0,1.9.48Zm14-.3-.11-.49c.66-.14,1.31-.29,1.94-.46l.12.49C30.86,126.06,30.2,126.22,29.54,126.36Zm3.89-1-.15-.48c.63-.19,1.26-.41,1.89-.63l.17.47C34.7,124.94,34.06,125.15,33.43,125.35ZM37.21,124l-.18-.47c.6-.24,1.21-.5,1.82-.78l.21.45C38.44,123.49,37.82,123.75,37.21,124Zm3.66-1.66-.22-.45c.58-.29,1.17-.6,1.76-.92l.24.44Zm3.53-1.93-.26-.43c.56-.33,1.12-.68,1.69-1l.27.42C45.53,119.72,45,120.07,44.4,120.41Zm3.37-2.17-.28-.41c.54-.37,1.08-.76,1.62-1.16l.3.4C48.86,117.48,48.32,117.87,47.77,118.24ZM51,115.86l-.31-.39c.51-.41,1-.82,1.55-1.25l.32.38Zm3.08-2.56-.33-.38c.5-.43,1-.87,1.48-1.33l.34.37C55.09,112.42,54.59,112.86,54.09,113.3ZM57,110.58l-.35-.36.48-.47.35.35Z" fill="#1e0a3c"/><path d="M64,159.42l-.47-.18c.16-.43.33-1,.49-1.55l.48.13A14.74,14.74,0,0,1,64,159.42Zm1-3.56-.49-.11c.13-.61.26-1.26.38-2l.5.09Q65.13,154.93,64.93,155.86Zm.72-4-.49-.08q.15-1,.3-2l.49.07C65.85,150.6,65.75,151.26,65.65,151.9Zm.58-4-.5-.06c.09-.65.17-1.31.26-2l.49.06C66.4,146.61,66.31,147.27,66.23,147.92Zm.49-4-.5-.06c.08-.65.15-1.31.23-2l.5.06C66.87,142.62,66.8,143.28,66.72,143.94Zm.44-4-.5,0c.07-.66.14-1.32.2-2l.5.05C67.29,138.63,67.23,139.29,67.16,140Zm.39-4-.5,0c.07-.67.13-1.33.19-2l.5.05C67.68,134.63,67.62,135.3,67.55,136Zm.36-4-.49,0,.17-2,.5,0Zm.34-4-.5,0,.16-2,.5,0Zm.31-4-.49,0,.14-2,.5,0Zm.3-4-.5,0,.14-2,.5,0Zm.27-4-.49,0,.13-2,.5,0Zm.26-4-.49,0,.12-2,.5,0Zm.25-4-.5,0,.12-2,.5,0Zm.23-4-.5,0,.11-2,.5,0Z" fill="#1e0a3c"/><path d="M79.17,162.92l-.48-.14c.18-.6.34-1.25.5-1.92l.48.1C79.52,161.65,79.35,162.31,79.17,162.92Zm.9-3.93-.5-.08c.12-.64.22-1.3.31-2l.5.07C80.28,157.69,80.18,158.35,80.07,159Zm.55-4-.5,0c.07-.65.13-1.31.19-2l.5,0C80.75,153.69,80.69,154.36,80.62,155Zm.33-4-.5,0c0-.65.07-1.32.1-2l.5,0C81,149.69,81,150.36,81,151Zm.17-4h-.5c0-.66,0-1.33,0-2h.5C81.15,145.68,81.14,146.35,81.12,147Zm.06-4h-.5v-.23c0-.59,0-1.17,0-1.76h.5c0,.59,0,1.18,0,1.77Zm-.54-4c0-.66,0-1.33,0-2h.5c0,.67,0,1.34,0,2Zm-.12-4c0-.67,0-1.33-.08-2l.5,0c0,.67.06,1.34.08,2Zm-.17-4-.12-2,.5,0c0,.67.08,1.33.11,2Zm-.24-4c0-.67-.09-1.34-.14-2l.5,0c0,.66.09,1.32.14,2Zm-.29-4c0-.68-.1-1.34-.16-2l.5,0c0,.66.11,1.32.16,2Zm-.33-4c-.06-.68-.12-1.34-.18-2l.5,0c.06.65.12,1.32.18,2Zm-.37-4c-.07-.68-.14-1.34-.2-2l.49,0c.07.65.14,1.31.21,2Zm-.41-4c-.08-.69-.15-1.35-.22-2l.49,0c.08.63.15,1.3.22,2Zm-.45-4c-.09-.71-.17-1.38-.24-2l.49-.06c.08.6.16,1.27.24,2Zm-.5-4c-.16-1.28-.26-2-.26-2l.49-.07s.11.71.27,2Z" fill="#1e0a3c"/><path d="M120.38,170a5.74,5.74,0,0,0-5.73-5.73h-7.17a5.73,5.73,0,0,0-5.72,5.73v18.07a5.47,5.47,0,0,0,.43,2.18h17.75a5.62,5.62,0,0,0,.44-2.18Z" fill="#fff0b5"/><path d="M99.85,49.93s1,17.73-6,25.14c0,0,10.67-.48,10.57-30.86Z" fill="#39537d"/><rect x="110.97" y="47.49" width="1.19" height="7.86" fill="#e63a8f"/><rect x="102.71" y="49.78" width="8.85" height="0.83" transform="translate(-9.81 32.27) rotate(-16.39)" fill="#e63a8f"/><polygon points="223.37 55.46 222.46 54.95 221.52 55.4 221.73 54.38 221.01 53.63 222.05 53.51 222.54 52.59 222.97 53.54 224 53.73 223.23 54.43 223.37 55.46" fill="#d2dae3"/><polygon points="170.63 129.21 169.27 128.44 167.88 129.12 168.19 127.59 167.11 126.47 168.66 126.3 169.39 124.93 170.03 126.35 171.56 126.62 170.41 127.67 170.63 129.21" fill="#d2dae3"/><polygon points="197.54 164.18 195.89 163.23 194.17 164.06 194.56 162.2 193.24 160.82 195.13 160.61 196.03 158.93 196.82 160.67 198.69 161 197.29 162.29 197.54 164.18" fill="#d2dae3"/><polygon points="171.5 59.8 172.42 61.88 174.68 61.64 173.34 63.47 174.68 65.3 172.42 65.06 171.5 67.13 170.59 65.06 168.33 65.3 169.67 63.47 168.33 61.64 170.59 61.88 171.5 59.8" fill="#d2dae3"/><polygon points="216.94 99.96 244.25 49.95 245.13 50.43 218.64 98.93 259.6 98.32 259.61 99.32 216.94 99.96" fill="#765ca7"/><rect x="242.54" y="78.25" width="1" height="40.79" fill="#765ca7"/><polygon points="260.14 96.6 260.6 97.64 261.73 97.52 261.06 98.43 261.73 99.35 260.6 99.23 260.14 100.27 259.69 99.23 258.56 99.35 259.23 98.43 258.56 97.52 259.69 97.64 260.14 96.6" fill="#d2dae3"/><polygon points="218.86 102.02 217.58 101.29 216.25 101.94 216.55 100.49 215.53 99.43 216.99 99.26 217.69 97.96 218.3 99.31 219.75 99.57 218.66 100.56 218.86 102.02" fill="#d2dae3"/><polygon points="244.43 46.28 245.41 48.5 247.82 48.24 246.39 50.19 247.82 52.15 245.41 51.89 244.43 54.11 243.46 51.89 241.04 52.15 242.48 50.19 241.04 48.24 243.46 48.5 244.43 46.28" fill="#d2dae3"/><polygon points="243.94 80.66 242.65 79.93 241.33 80.57 241.62 79.13 240.6 78.07 242.07 77.9 242.76 76.6 243.37 77.95 244.82 78.21 243.73 79.2 243.94 80.66" fill="#d2dae3"/><polygon points="244.26 120.81 242.98 120.08 241.65 120.72 241.95 119.27 240.93 118.21 242.39 118.05 243.09 116.75 243.7 118.09 245.15 118.35 244.06 119.34 244.26 120.81" fill="#d2dae3"/><path d="M292,125.24l-21.7-8.15V75l28.53-14.27,6.5,51Zm-20.7-8.84,20.44,7.68,12.54-12.76L298,62.25,271.28,75.61Z" fill="#765ca7"/><polygon points="271.51 77.81 269.86 76.87 268.14 77.7 268.53 75.83 267.21 74.46 269.1 74.25 270 72.57 270.78 74.3 272.66 74.64 271.25 75.92 271.51 77.81" fill="#d2dae3"/><polygon points="272.36 119.37 270.71 118.43 268.99 119.25 269.38 117.39 268.06 116.02 269.95 115.8 270.85 114.12 271.64 115.86 273.51 116.2 272.1 117.48 272.36 119.37" fill="#d2dae3"/><polygon points="293.43 127.28 291.78 126.34 290.06 127.17 290.45 125.31 289.13 123.93 291.02 123.72 291.92 122.04 292.71 123.78 294.58 124.11 293.18 125.4 293.43 127.28" fill="#d2dae3"/><polygon points="299.99 63.72 298.34 62.78 296.62 63.61 297.01 61.74 295.69 60.37 297.58 60.16 298.48 58.48 299.27 60.21 301.14 60.55 299.73 61.83 299.99 63.72" fill="#d2dae3"/><polygon points="306.37 113.49 304.71 112.55 303 113.38 303.38 111.52 302.06 110.14 303.95 109.93 304.85 108.25 305.64 109.99 307.51 110.32 306.11 111.61 306.37 113.49" fill="#d2dae3"/><polygon points="311.6 47.67 310.69 47.16 309.75 47.61 309.96 46.59 309.24 45.84 310.27 45.72 310.77 44.8 311.2 45.75 312.23 45.94 311.45 46.64 311.6 47.67" fill="#d2dae3"/><polygon points="271.93 158.19 270.58 157.42 269.18 158.1 269.49 156.58 268.42 155.45 269.96 155.28 270.69 153.91 271.33 155.33 272.86 155.6 271.72 156.65 271.93 158.19" fill="#d2dae3"/><polygon points="357.18 144.37 355.83 143.61 354.43 144.28 354.75 142.76 353.67 141.64 355.21 141.47 355.95 140.1 356.59 141.51 358.12 141.79 356.97 142.84 357.18 144.37" fill="#d2dae3"/><polygon points="371 75.3 369.64 74.54 368.25 75.21 368.56 73.69 367.48 72.57 369.03 72.4 369.76 71.03 370.4 72.44 371.93 72.72 370.78 73.76 371 75.3" fill="#d2dae3"/><polygon points="149.97 158.19 148.62 157.42 147.22 158.1 147.53 156.58 146.46 155.45 148 155.28 148.74 153.91 149.38 155.33 150.91 155.6 149.76 156.65 149.97 158.19" fill="#d2dae3"/><polygon points="271.23 47.67 269.88 46.91 268.48 47.58 268.79 46.06 267.71 44.94 269.26 44.77 269.99 43.4 270.63 44.81 272.16 45.09 271.02 46.14 271.23 47.67" fill="#d2dae3"/><polygon points="312.02 83.64 310.67 82.87 309.27 83.55 309.58 82.02 308.51 80.9 310.05 80.73 310.78 79.36 311.43 80.78 312.95 81.05 311.81 82.1 312.02 83.64" fill="#d2dae3"/><polygon points="149.97 89.12 148.62 88.35 147.22 89.03 147.53 87.51 146.46 86.38 148 86.21 148.74 84.84 149.38 86.26 150.91 86.53 149.76 87.58 149.97 89.12" fill="#d2dae3"/><polygon points="394.18 102.93 392.83 102.16 391.43 102.84 391.74 101.32 390.66 100.2 392.21 100.03 392.94 98.66 393.58 100.07 395.11 100.35 393.96 101.39 394.18 102.93" fill="#d2dae3"/><path d="M98,160.29c-4.93-6.72-3.07,10.87,4.69,11.38s16.46.73,19-2.69,5.2-8.86-1.38-13.17S98,160.29,98,160.29Z" fill="#39537d"/><path d="M120.38,105.73a8.49,8.49,0,0,0-8.49-8.49h-5.38A8.48,8.48,0,0,0,98,105.73v50.08a8.48,8.48,0,0,0,8.48,8.48h5.38a8.83,8.83,0,0,0,2.78-.48c.25-7.64,2.92-64.36,2.92-64.36Z" fill="#d2dae3"/><path d="M119.25,160l-.11.22Z" fill="#d2dae3"/><path d="M119.71,159.11a8.54,8.54,0,0,0,.67-3.3V105.73Z" fill="#d2dae3"/><path d="M119.71,159.11c-.14.3-.29.6-.46.89C119.54,159.46,119.71,159.11,119.71,159.11Z" fill="#fff0b5"/><path d="M117.64,99.45s-2.67,56.72-2.92,64.36a8.58,8.58,0,0,0,4.47-3.59l.11-.22c.17-.29.32-.59.46-.89l.67-53.38Z" fill="#39537d"/><polygon points="317.29 118.01 344.6 68.01 345.48 68.49 318.99 116.98 359.95 116.38 359.96 117.38 317.29 118.01" fill="#765ca7"/><rect x="342.89" y="96.31" width="1" height="40.78" fill="#765ca7"/><polygon points="360.88 111.63 361.79 113.71 364.05 113.46 362.71 115.29 364.05 117.12 361.79 116.88 360.88 118.96 359.96 116.88 357.7 117.12 359.04 115.29 357.7 113.46 359.96 113.71 360.88 111.63" fill="#d2dae3"/><polygon points="318.85 119.73 317.57 119 316.24 119.65 316.54 118.2 315.52 117.14 316.98 116.97 317.68 115.67 318.29 117.02 319.74 117.28 318.65 118.27 318.85 119.73" fill="#d2dae3"/><polygon points="346.77 63.72 347.75 65.94 350.16 65.68 348.73 67.63 350.16 69.59 347.75 69.33 346.77 71.55 345.8 69.33 343.39 69.59 344.82 67.63 343.39 65.68 345.8 65.94 346.77 63.72" fill="#d2dae3"/><polygon points="342.62 97.42 341.33 96.69 340.01 97.33 340.31 95.89 339.28 94.82 340.75 94.66 341.45 93.36 342.06 94.7 343.51 94.96 342.42 95.96 342.62 97.42" fill="#d2dae3"/><polygon points="344.61 138.86 343.33 138.13 342 138.77 342.3 137.33 341.27 136.27 342.74 136.1 343.44 134.8 344.04 136.15 345.5 136.4 344.41 137.4 344.61 138.86" fill="#d2dae3"/></svg>