<svg id="Layer_1" data-name="Layer 1" xmlns="http://www.w3.org/2000/svg" xmlns:xlink="http://www.w3.org/1999/xlink" viewBox="0 0 190 67"><defs><style>.cls-1{fill:#f0be67;}.cls-2{fill:url(#radial-gradient);}.cls-3{fill:url(#radial-gradient-2);}</style><radialGradient id="radial-gradient" cx="29.02" cy="41.03" r="25.55" gradientUnits="userSpaceOnUse"><stop offset="0" stop-color="#73bd44"/><stop offset="1" stop-color="#108040"/></radialGradient><radialGradient id="radial-gradient-2" cx="40.79" cy="12.16" r="50.36" gradientUnits="userSpaceOnUse"><stop offset="0" stop-color="#14aae2"/><stop offset="1" stop-color="#26225b"/></radialGradient></defs><title>Logo</title><g id="_Group_" data-name="&lt;Group&gt;"><path id="_Path_" data-name="&lt;Path&gt;" class="cls-1" d="M152.79,48.58l-.14.12A.26.26,0,0,0,152.79,48.58Z"/><path id="_Path_2" data-name="&lt;Path&gt;" class="cls-1" d="M73.51,49.54l.29-1.07-.57-.34C73.42,49,72.86,49.25,73.51,49.54Z"/><path id="_Path_3" data-name="&lt;Path&gt;" class="cls-1" d="M70,47.86l.22.65c-.42,0-.46.55-.48,1,.35,0,.46-.55.73-.8C70,48.76,70.35,47.33,70,47.86Z"/><path id="_Path_4" data-name="&lt;Path&gt;" class="cls-1" d="M60.17,47.51c.23.65.33,1.22,1,1.6l.3-.45-.19-.11.5-.74C61,47.71,60.77,48.07,60.17,47.51Z"/><path id="_Path_5" data-name="&lt;Path&gt;" class="cls-1" d="M81.56,48c0,.55.92.26,1.32.41C82.54,48.19,81.75,47.69,81.56,48Z"/><path id="_Path_6" data-name="&lt;Path&gt;" class="cls-1" d="M83,48.52l-.14-.1Z"/><path id="_Path_7" data-name="&lt;Path&gt;" class="cls-1" d="M96.59,49.36l.1.1A.18.18,0,0,0,96.59,49.36Z"/><path id="_Path_8" data-name="&lt;Path&gt;" class="cls-1" d="M77.24,47.3h0l0,0Z"/><path id="_Path_9" data-name="&lt;Path&gt;" class="cls-1" d="M94.09,49a.55.55,0,0,0-.27.14A.46.46,0,0,0,94.09,49Z"/><path id="_Path_10" data-name="&lt;Path&gt;" class="cls-1" d="M77.14,47.78l0,.06C77.13,47.9,77.17,47.92,77.14,47.78Z"/><path id="_Path_11" data-name="&lt;Path&gt;" class="cls-1" d="M88.55,47.51l-.06.1C88.51,47.7,88.53,47.62,88.55,47.51Z"/><path id="_Path_12" data-name="&lt;Path&gt;" class="cls-1" d="M88.44,47.36c-.2.14,0,.26,0,0Z"/><g id="_Group_2" data-name="&lt;Group&gt;"><path id="_Compound_Path_" data-name="&lt;Compound Path&gt;" d="M58.29,58.46c.08.66.74,1.09,1.68,1.09s1.51-.45,1.51-1.07-.41-.85-1.36-1.07l-1-.22c-1.35-.3-2-1-2-2.08,0-1.35,1.1-2.24,2.76-2.24A2.47,2.47,0,0,1,62.69,55H61.42A1.34,1.34,0,0,0,59.94,54c-.85,0-1.42.41-1.42,1s.38.79,1.3,1l.85.2c1.51.34,2.14,1,2.14,2.1,0,1.45-1.12,2.35-2.92,2.35s-2.83-.85-2.9-2.2Z"/><path id="_Compound_Path_2" data-name="&lt;Compound Path&gt;" d="M65.79,53.47v1.42H67v1h-1.2v2.76c0,.56.24.8.77.8a3.76,3.76,0,0,0,.43,0v1a3.61,3.61,0,0,1-.67.06c-1.29,0-1.81-.44-1.81-1.53V55.9h-.89v-1h.89V53.47Z"/><path id="_Compound_Path_3" data-name="&lt;Compound Path&gt;" d="M67.91,58.88c0-1,.77-1.61,2.14-1.69l1.45-.09v-.47c0-.55-.37-.86-1.06-.86s-1,.21-1.11.59h-1.2c.1-1,1-1.63,2.37-1.63s2.26.7,2.26,1.9v3.84H71.53v-.77h-.09a1.86,1.86,0,0,1-1.67.86A1.69,1.69,0,0,1,67.91,58.88Zm3.59-.47V58l-1.27.08c-.72,0-1,.3-1,.76s.41.76,1,.76A1.23,1.23,0,0,0,71.49,58.42Z"/><path id="_Compound_Path_4" data-name="&lt;Compound Path&gt;" d="M74.24,54.85h1.23v.88h.09a1.49,1.49,0,0,1,1.49-1,2.2,2.2,0,0,1,.53.06V56a2.91,2.91,0,0,0-.65-.07,1.29,1.29,0,0,0-1.41,1.3v3.25H74.24Z"/><path id="_Compound_Path_5" data-name="&lt;Compound Path&gt;" d="M80.5,53.47v1.42h1.2v1H80.5v2.76c0,.56.24.8.77.8a3.76,3.76,0,0,0,.43,0v1a3.61,3.61,0,0,1-.67.06c-1.29,0-1.81-.44-1.81-1.53V55.9h-.89v-1h.89V53.47Z"/><path id="_Compound_Path_6" data-name="&lt;Compound Path&gt;" d="M87.83,60.48H86.6v-.9h-.09a1.66,1.66,0,0,1-1.68,1,1.85,1.85,0,0,1-2-2.08V54.85h1.28v3.34c0,.86.36,1.28,1.12,1.28a1.2,1.2,0,0,0,1.28-1.34V54.85h1.28Z"/><path id="_Compound_Path_7" data-name="&lt;Compound Path&gt;" d="M94.73,57.66c0,1.8-.89,2.91-2.31,2.91a1.8,1.8,0,0,1-1.72-.95h-.09v2.73H89.34v-7.5h1.23v.93h.09a1.91,1.91,0,0,1,1.75-1C93.83,54.76,94.73,55.86,94.73,57.66Zm-1.31,0c0-1.14-.53-1.82-1.4-1.82s-1.42.7-1.42,1.82.55,1.82,1.42,1.82S93.42,58.8,93.42,57.66Z"/><path id="_Compound_Path_8" data-name="&lt;Compound Path&gt;" d="M100.89,60.48,98.3,53.05h1.47l1.87,5.88h.09l1.85-5.88H105l-2.57,7.43Z"/><path id="_Compound_Path_9" data-name="&lt;Compound Path&gt;" d="M105.94,53.23a.79.79,0,1,1,.79.7A.72.72,0,0,1,105.94,53.23Zm.15,1.62h1.27v5.63H106.1Z"/><path id="_Compound_Path_10" data-name="&lt;Compound Path&gt;" d="M108.95,52.67h1.28v7.81h-1.28Z"/><path id="_Compound_Path_11" data-name="&lt;Compound Path&gt;" d="M111.83,52.67h1.28v7.81h-1.28Z"/><path id="_Compound_Path_12" data-name="&lt;Compound Path&gt;" d="M114.36,58.88c0-1,.77-1.61,2.14-1.69l1.45-.09v-.47c0-.55-.37-.86-1.06-.86s-1,.21-1.11.59h-1.2c.1-1,1-1.63,2.37-1.63s2.26.7,2.26,1.9v3.84H118v-.77h-.09a1.86,1.86,0,0,1-1.67.86A1.69,1.69,0,0,1,114.36,58.88Zm3.59-.47V58l-1.27.08c-.72,0-1,.3-1,.76s.41.76,1,.76A1.23,1.23,0,0,0,117.94,58.42Z"/><path id="_Compound_Path_13" data-name="&lt;Compound Path&gt;" d="M120.61,61h1.28c.08.39.54.63,1.24.63.87,0,1.38-.41,1.38-1.12V59.47h-.09a1.84,1.84,0,0,1-1.72.93c-1.42,0-2.31-1.1-2.31-2.79s.89-2.85,2.33-2.85a1.91,1.91,0,0,1,1.74,1h.09v-.9h1.23V60.5c0,1.3-1,2.12-2.68,2.12C121.66,62.62,120.71,62,120.61,61Zm3.92-3.41c0-1.08-.54-1.76-1.43-1.76s-1.39.68-1.39,1.76.5,1.75,1.39,1.75S124.53,58.68,124.53,57.6Z"/><path id="_Compound_Path_14" data-name="&lt;Compound Path&gt;" d="M132.18,58.93a2.33,2.33,0,0,1-2.5,1.66c-1.66,0-2.66-1.1-2.66-2.91s1-2.95,2.65-2.95,2.57,1.07,2.57,2.84V58H128.3v.07a1.4,1.4,0,0,0,1.41,1.52,1.25,1.25,0,0,0,1.26-.65Zm-3.87-1.81H131a1.27,1.27,0,0,0-1.3-1.37A1.35,1.35,0,0,0,128.31,57.12Z"/><path id="_Compound_Path_15" data-name="&lt;Compound Path&gt;" d="M136,56.77c0-2.41,1.3-3.9,3.41-3.9a3,3,0,0,1,3.14,2.65h-1.31a1.8,1.8,0,0,0-1.84-1.47c-1.26,0-2,1-2,2.71s.79,2.72,2.05,2.72a1.76,1.76,0,0,0,1.84-1.36h1.31a2.94,2.94,0,0,1-3.14,2.54C137.35,60.66,136,59.17,136,56.77Z"/><path id="_Compound_Path_16" data-name="&lt;Compound Path&gt;" d="M143.6,57.66a2.72,2.72,0,1,1,5.41,0,2.72,2.72,0,1,1-5.41,0Zm4.1,0c0-1.17-.51-1.86-1.39-1.86s-1.4.68-1.4,1.86.51,1.86,1.4,1.86S147.71,58.84,147.71,57.66Z"/><path id="_Compound_Path_17" data-name="&lt;Compound Path&gt;" d="M150.3,52.67h1.28v7.81H150.3Z"/><path id="_Compound_Path_18" data-name="&lt;Compound Path&gt;" d="M153.19,52.67h1.28v7.81h-1.28Z"/><path id="_Compound_Path_19" data-name="&lt;Compound Path&gt;" d="M160.9,58.93a2.33,2.33,0,0,1-2.5,1.66c-1.66,0-2.66-1.1-2.66-2.91s1-2.95,2.65-2.95S161,55.8,161,57.58V58H157v.07a1.4,1.4,0,0,0,1.41,1.52,1.25,1.25,0,0,0,1.26-.65ZM157,57.12h2.65a1.27,1.27,0,0,0-1.3-1.37A1.35,1.35,0,0,0,157,57.12Z"/><path id="_Compound_Path_20" data-name="&lt;Compound Path&gt;" d="M165.84,56.74a1.17,1.17,0,0,0-1.24-.94c-.87,0-1.39.67-1.39,1.84s.53,1.87,1.39,1.87a1.14,1.14,0,0,0,1.24-.9h1.21a2.23,2.23,0,0,1-2.45,2c-1.69,0-2.69-1.09-2.69-2.94s1-2.91,2.69-2.91a2.24,2.24,0,0,1,2.45,2Z"/><path id="_Compound_Path_21" data-name="&lt;Compound Path&gt;" d="M170,53.47v1.42h1.2v1H170v2.76c0,.56.24.8.77.8a3.76,3.76,0,0,0,.43,0v1a3.61,3.61,0,0,1-.67.06c-1.29,0-1.81-.44-1.81-1.53V55.9h-.89v-1h.89V53.47Z"/><path id="_Compound_Path_22" data-name="&lt;Compound Path&gt;" d="M172.26,53.23a.79.79,0,1,1,.79.7A.72.72,0,0,1,172.26,53.23Zm.15,1.62h1.27v5.63h-1.27Z"/><path id="_Compound_Path_23" data-name="&lt;Compound Path&gt;" d="M178.13,60.48h-1.4l-2-5.63h1.37l1.3,4.35h.09l1.29-4.35h1.35Z"/><path id="_Compound_Path_24" data-name="&lt;Compound Path&gt;" d="M185.8,58.93a2.33,2.33,0,0,1-2.5,1.66c-1.66,0-2.66-1.1-2.66-2.91s1-2.95,2.65-2.95,2.57,1.07,2.57,2.84V58h-3.93v.07a1.4,1.4,0,0,0,1.41,1.52,1.25,1.25,0,0,0,1.26-.65Zm-3.87-1.81h2.65a1.27,1.27,0,0,0-1.3-1.37A1.35,1.35,0,0,0,181.93,57.12Z"/></g><path id="_Compound_Path_25" data-name="&lt;Compound Path&gt;" class="cls-1" d="M67.29,45.8a3.23,3.23,0,0,0,.34,1l-.49.06c0-.39-.25-.67-.55-1L65.17,46a.19.19,0,0,1-.07.08L65,46.05l-.37,0a.5.5,0,0,1,0,.08c-.14.12-.21.07-.29,0l-1.59.19a.45.45,0,0,1-.06.37c.49,1,1.37-1,1.6.52l-1.17.15c-.24-.44-.62-.49-.91-.75l-.05.28c-.25,0-.34-.17-.39-.44l-.54.07a.29.29,0,0,1-.14.06l0,0-1,.13-.06.08c.34-.13.52.49.71.91L57.93,48l-.4-.24,0,.18.25.08-.85.11v.09l4.87,0c.3.51.85.46,1.09,1.45-.15,0-.27-.06-.25.17,0-.32.5,0,.73-.09L63,49.13c.57-1.11.62.46,1.29-.07-.09-.36-.71-.58-.81-.88H64c.09,0,.17,0,.21.21l.07-.21h1.4l.18.16-.1-.16H67a1,1,0,0,1-.38.61c.23-.07.63-.66.71,0,.17-.52.47-.24.61.16.31-.34.16-.44.09-.79h1a1,1,0,0,1,.08.44c-.12.24-.63-.06-.34.63,0-.91.28.37.54.11-.49-.62.13-.83.19-1.18h.76a.64.64,0,0,0,.19.11v-.11h1.22c0,.18.09.46-.2.41.11.17.27.06.37-.09.17.2-.21.7.18.52l-.15-.85h.44l.09,0v0h.58a1.36,1.36,0,0,1-.42.75l.08-.06c.42.36-.47,1.27.27,1.1a2.08,2.08,0,0,1,.51-1.79h.5l0,.11a4.13,4.13,0,0,0,1,1.1l-.88-1.21h1.12v0c0,.32-.34.62-.1,1.19.8-1.15,1.46.61,2.17-.68,0-.09-.06-.3.19-.27l.06-.27h.2a.25.25,0,0,0,.21,0h.95l.05.08,0,0,0,0c.11.17.22.31.27.21.12.48.28.09.43-.3l2.6,0a1.31,1.31,0,0,0,1.27,0h.23c.48.74.5,1.2,1.18,1.34l-.17-.83.74-.34a.42.42,0,0,1,0-.18L88,48c.14,0,.29,0,.44.07v.06a.44.44,0,0,1,.15-.07c0,.06,0,.14,0,.23.27-.44.53.68.87-.08a.52.52,0,0,0,.15-.21h.22l-.11.08c.72.17.87,1,1.47,1,.05.21-.08.18-.15.37.33.07.55-.47.37-.81.27-.13.43.7.82.69l.13,1.23c.56.45,1.09-.32,1.49-.64-.47.09-1-.72-1.28-.71,0-2.21-1.42-.54-1.72-1.2l0-.05h2.29c.06.42.72.53.19,1.16.64.45.79,0,1.41.74-.16-.64.44-.8.47-1.39.26.06.55.73.78.19l-.44-.4A.51.51,0,0,0,95.9,48h.67a1.25,1.25,0,0,1,0,.23c.57-.27,1.18.3,1.77-.15A.34.34,0,0,1,98,48h1.2a4.72,4.72,0,0,1,1.38,2.19c1.07.58.65-1.75,2-.19-.19-.15.06-.89,0-1.22.2,0,.55-.26.79,0l-.44.69c.62.59,1.42-.06,2.08-.05-.15-.19,0-.66-.36-.91,0-.51.43-.49.63-.54.49.43.22,1.37.78,1.72,5.77-.62,11.47,0,17.27-.76v-.42c3.63.89,7.71-.07,11.59-.37l0,.29c1.23-1.84.68,2.09,2,0,.91,1.79,2.07,0,3.1,1.32l.11-.59c.71,1.53,1.7-1.14,2.55,0,.32-.55.47-1.22,1-.71.09.18-.13,1,.25.53l-.3-1a1,1,0,0,1,1.43.4l.61-.11-.17-.35a2.85,2.85,0,0,0,.47-.19h.57a.89.89,0,0,1,.25.37c0-.1-.07-.24-.1-.37h1.31a2.4,2.4,0,0,0-.21.81c.65-.41.39,1.56,1,1.1l0-.71c.46-.1.77.26,1,.7l0-.36c.85-.37,1.33.47,2-.74l.42.44a.54.54,0,0,1,.17-.67c.35-.12.82.82.61,1.18,1.2-1,1.42.51,2.71.22,0-.81.54-.27.37-1l.36.4c-.06,0,0-.22,0-.32s.2,0,.24.32l0-.13.56-.14,0,.67.44-.58c-.18-.85-.82-.32-.86-1.17l.12-.09h.56c.17.23.1.25.1.73.54-.26.27.81.79.41l-.06-.4.65.41c.22.18-.17-.5,0-.85-.27-.07-.52-.09-.75-.13l.5-.18h1.07c0,.23.07-.1-.25.19a1.85,1.85,0,0,1,.8.19c.14.58-.31.8-.11,1.21,3.66,1,6-2.6,9.34.29.46-.64,1.57-1.27,1.91-.85l-.15.21c.48.49.8-.85,1.11,0l.3,1c.25-.21.8-.21.74-.63.29.5,1.08-.21,1,1.07a6.69,6.69,0,0,1,2-.2.46.46,0,0,1,0-.21c.22-.42.26.78.55.14-.07-.28-.67-.35-.13-.71.27.91,1.16,0,1.52-.39a1.23,1.23,0,0,1,.45.65c.3-.13.8-.88.4-1.11.76.39,1-.63.9.67.84.91,1.69-.58,2.43.66,1.28-.38,2.55-.46,3.64-1.46C173.47,46.78,116.35,40.62,67.29,45.8Zm-5.73,1.65s0,.06,0,.09l-.76.1c-.21-.26-.4-.56-.25-.88.32-.53.79.36,1.31.56ZM65.76,47c.16-.31.31-.55.58-.07Zm5.06-.61a.77.77,0,0,1,.25-.68,3.24,3.24,0,0,1,.29.61Zm23.4,2.74c0-1-1.28-.6-.34-1.08L93.51,48H94C94.14,48.33,94.48,48.85,94.23,49.16Zm63.2-1.59h.48a1.59,1.59,0,0,1,.08.18A1.82,1.82,0,0,1,157.43,47.57Zm2.66,0c-.07.18,0,.22,0,.31l-.43-.35h.86a1.34,1.34,0,0,0,.2.41C160.44,48,160.26,47.73,160.09,47.59Z"/><g id="_Group_3" data-name="&lt;Group&gt;"><g id="_Group_4" data-name="&lt;Group&gt;"><path id="_Path_13" data-name="&lt;Path&gt;" class="cls-2" d="M46.79,38.68h0a12.43,12.43,0,0,1,1.84-4.51,2.19,2.19,0,0,0,.28-.53c0-.08,0-.15.06-.22.23-1.44-2.6-1.78-3.13-1.74h-.17a4.08,4.08,0,0,0-3.4,1.74c-1,1.69-.71,2.88-3.19,3.66-1.68.51-3.38-.1-5,.28-2.05.43-1.59,2.52-1.69,3.94s-.28,3.54-2.11,3.91c-2.27.51-3.95.17-4.58,2.87-.3,1.32,0,3.24-.78,4.5s-3,1.68-4.37,1.86c-2.07.27-3.07,1.14-2.83,3.62,0,.44.1.88.17,1.31h0a3.92,3.92,0,0,0,3,3.17,14.93,14.93,0,0,0,5-.37,47.1,47.1,0,0,1,8.27-.57c8.19,0,10.59-6.29,11.69-13.38C46.22,45.65,46.09,42,46.79,38.68Z"/></g><path id="_Compound_Path_26" data-name="&lt;Compound Path&gt;" class="cls-3" d="M29.81,39.58a1.34,1.34,0,0,1-.52-.13L25.4,37.62a1.76,1.76,0,0,0-2.26.33s-5.85,6.49-6.56,7.5a1,1,0,0,1-1.51.35s-3-1.86-3.71-2.21-.88.27-.88.27L10,46c-.22.55-.54-.89-.54-.89l-.79-3.63c-.21-1.15.59-.69.59-.69S14,42,14.53,42a.88.88,0,0,0,.72-.21l0,0s1.53-2.45,1.94-3.17a1.49,1.49,0,0,0,.25-1.2l-1.9-5.32c-.35-.9-1-.92-1-.92s-2.34-.3-3-.42a1.88,1.88,0,0,0-1.27.34l-2,2A7.16,7.16,0,0,0,7,37.84Q7.15,39.4,7.3,41c2.84,16.47,4.26,18.9,9.18,20,.84.19,1-.66.91-1.49-.2-1.34-.66-2.72-.23-4,.73-2.44,3.34-1.63,5.14-2.17,2.61-.84,1.59-3.33,1.81-5.52.19-3.15,2-2.76,4.34-3.36,3.08-.76,2-3.41,2.33-5.63,0-.09,0-.17,0-.25l-.32.47A1,1,0,0,1,29.81,39.58ZM47,12.78h0c0-.39-.39-.3-.55-.25-.34.15-.67.28-.87.39-.68.44-1,.83-.83,1.51.09.48.43,1,.34,1.54-.11.73-.85.06-1.08-.1a2,2,0,0,0-1.42-.38,3.25,3.25,0,0,0-1.4,1.06c-.25.32-.69,1.18-.91.24a14.91,14.91,0,0,1-.06-2.19c0-1-.87-1.2-1.77-1.66-.35-.18-1.74-.71-1.79-1.19,0-.26.25-.29.58-.23a6.16,6.16,0,0,0,1.8,0h0l.29-.06a1.48,1.48,0,0,0,1.29-1.13c.24-.56.25-1.41.74-1.85.65-.52,1,.69,1.14,1a3.33,3.33,0,0,0,1,1.45,4.46,4.46,0,0,0,2.31.45h.48a.26.26,0,0,0,.22-.38v0c-.83-2.21-2.74-3.87-6.6-4.25a24.48,24.48,0,0,0-3.89-.06,18.55,18.55,0,0,1-3.93-.34C13.78,1.73,8.06,6.56,6.87,7.93c-2.8,2.68-3,7.6-2.93,9.46a48.76,48.76,0,0,0,2.53,13c.13.55.42,1.28,1,.58l.18-.19,1.05-1.15a2.78,2.78,0,0,1,1.53-.83L15.76,28h.07L21,26.32h0c.36-.18,3-1.37,4.24-2l.26-.1h0l.11,0a4.13,4.13,0,0,1,.92-.21.63.63,0,0,1,.59.24c.24.41-.65,1.09-.65,1.09h0c-1.12.9-2.87,2.31-3.17,2.54a4,4,0,0,1-.88.52h0L19.61,29.8a.81.81,0,0,0-.22,1.06l.08.15h0l1,2a1.52,1.52,0,0,0,1.46.86l2.42-.3a2.66,2.66,0,0,1,1.89.63l2.62,2.49c.17.15.86.72,1.4.28s2.82-2.3,2.21-.6c1.16-.52,2.73-.48,4.2-.77,3.6-.64,1.72-3.93,3.76-5.89a4.49,4.49,0,0,1,3.05-.91A1.88,1.88,0,0,0,45.38,27c0-.07,0-.14,0-.21a25.47,25.47,0,0,1,.31-3.72C46.22,20.36,47.46,16.22,47,12.78ZM15.83,27c-1.31.49-3.3-.59-4.54-2.48s-1.23-3.84.26-4.22,3.72.86,4.85,2.67S17.17,26.56,15.83,27Z"/></g><g id="_Group_5" data-name="&lt;Group&gt;"><path id="_Path_14" data-name="&lt;Path&gt;" d="M78.52,23.18a10.4,10.4,0,0,0-2.6-1.68C75,21.07,74,20.69,73,20.35s-1.93-.64-2.86-.92a16.84,16.84,0,0,1-2.42-.92,5.52,5.52,0,0,1-1.63-1.13A1.94,1.94,0,0,1,65.59,16a2.53,2.53,0,0,1,1.12-2.15A5.47,5.47,0,0,1,70,13a8.73,8.73,0,0,1,2.4.29,13.07,13.07,0,0,1,1.84.67l1.46.69a2.67,2.67,0,0,0,2.48.09,2.43,2.43,0,0,0,.8-.84l1.92-3.05-.26-.25A14,14,0,0,0,76,7.63a16.35,16.35,0,0,0-6.13-1.11,16.11,16.11,0,0,0-5.32.81,11.81,11.81,0,0,0-3.89,2.19,9.21,9.21,0,0,0-2.39,3.23,9.63,9.63,0,0,0-.81,3.89,9.21,9.21,0,0,0,.7,3.77A8.08,8.08,0,0,0,60,23a10.22,10.22,0,0,0,2.62,1.76A27,27,0,0,0,65.57,26c1,.33,1.94.64,2.89.92a16.74,16.74,0,0,1,2.44.92A5.43,5.43,0,0,1,72.53,29a2.11,2.11,0,0,1,.54,1.52,3.24,3.24,0,0,1-.26,1.26,2.78,2.78,0,0,1-.8,1.05,4.56,4.56,0,0,1-1.46.77,7.05,7.05,0,0,1-2.19.3,8.26,8.26,0,0,1-2.71-.38,12.62,12.62,0,0,1-1.89-.84c-.56-.31-1-.59-1.45-.85a2.92,2.92,0,0,0-1.58-.47,2.69,2.69,0,0,0-1.4.34,3,3,0,0,0-1,1l-2,3.22.27.25a13.38,13.38,0,0,0,2.22,1.6A17,17,0,0,0,61.64,39a19.31,19.31,0,0,0,3.07.84,17.81,17.81,0,0,0,3.28.3,17.61,17.61,0,0,0,5.56-.81A11.9,11.9,0,0,0,77.67,37a9.74,9.74,0,0,0,2.56-3.5,11,11,0,0,0,.87-4.39,7.52,7.52,0,0,0-2.58-5.94"/><path id="_Path_15" data-name="&lt;Path&gt;" d="M120,31.33a5.18,5.18,0,0,0-5.65-1.08,5.33,5.33,0,0,0-1.63,1.08A4.83,4.83,0,0,0,111.61,33a5.34,5.34,0,0,0,0,4,4.86,4.86,0,0,0,1.09,1.61,5.09,5.09,0,0,0,1.64,1.07,5.28,5.28,0,0,0,2,.39,5.21,5.21,0,0,0,2-.39A4.92,4.92,0,0,0,120,38.58a5.17,5.17,0,0,0,1.08-1.6,5,5,0,0,0,.41-2,5,5,0,0,0-.41-2A5.15,5.15,0,0,0,120,31.33"/><path id="_Path_16" data-name="&lt;Path&gt;" d="M148.6,30.49A2.48,2.48,0,0,0,147,31c-.38.3-.82.62-1.32,1a8.84,8.84,0,0,1-1.81.94,7.7,7.7,0,0,1-2.79.42,7.08,7.08,0,0,1-3.08-.65,6.29,6.29,0,0,1-2.31-1.91,9.26,9.26,0,0,1-1.49-3.17,16.82,16.82,0,0,1-.52-4.4A17.3,17.3,0,0,1,134.2,19a9,9,0,0,1,1.42-3.14A6.28,6.28,0,0,1,138,13.9a7.68,7.68,0,0,1,3.33-.68,8.08,8.08,0,0,1,2.5.33,9.53,9.53,0,0,1,1.76.77c.49.28.93.55,1.31.79a2.55,2.55,0,0,0,1.38.42,1.94,1.94,0,0,0,1.21-.34,4.23,4.23,0,0,0,.74-.76l2.24-3.1-.27-.27a15.71,15.71,0,0,0-4.94-3.37,16.24,16.24,0,0,0-6.4-1.18,17.13,17.13,0,0,0-6.79,1.27,14,14,0,0,0-5,3.53,15.14,15.14,0,0,0-3,5.31,20.67,20.67,0,0,0-1,6.61,20.4,20.4,0,0,0,1.16,7.09,15.92,15.92,0,0,0,3.15,5.29A13.38,13.38,0,0,0,134,38.93a14.57,14.57,0,0,0,5.7,1.13,24,24,0,0,0,3.43-.25,16.22,16.22,0,0,0,3.38-.87,15.35,15.35,0,0,0,3.17-1.65,14.3,14.3,0,0,0,2.84-2.57l.24-.28-2.41-3.05a2,2,0,0,0-1.75-.89"/><path id="_Compound_Path_27" data-name="&lt;Compound Path&gt;" d="M184.93,16.32A14.89,14.89,0,0,0,181.68,11a14.38,14.38,0,0,0-5.08-3.35,19.19,19.19,0,0,0-13.23,0A14.5,14.5,0,0,0,158.25,11,14.93,14.93,0,0,0,155,16.32a19.8,19.8,0,0,0-1.16,6.92,19.88,19.88,0,0,0,1.16,7,15.24,15.24,0,0,0,3.28,5.31,14.31,14.31,0,0,0,5.12,3.38,19.21,19.21,0,0,0,13.23,0,14.2,14.2,0,0,0,5.09-3.38,15.2,15.2,0,0,0,3.25-5.32,20.17,20.17,0,0,0,1.14-7,20.09,20.09,0,0,0-1.14-6.92m-7.63,7c0,3.31-.61,5.84-1.82,7.53A6.24,6.24,0,0,1,170,33.31c-2.55,0-4.37-.81-5.57-2.49s-1.83-4.22-1.83-7.51.62-5.83,1.83-7.54,3-2.52,5.57-2.52a6.21,6.21,0,0,1,5.49,2.5c1.21,1.71,1.82,4.25,1.82,7.56"/><path id="_Path_17" data-name="&lt;Path&gt;" d="M108.59,7A2.65,2.65,0,0,0,107,7.5a2.52,2.52,0,0,0-.93,1.23L99.8,25.65a27.66,27.66,0,0,0-.93,3l-.2.84c-.06-.28-.13-.56-.2-.84-.24-1-.54-2-.89-2.95L91.46,8.73a2.51,2.51,0,0,0-1-1.24A2.83,2.83,0,0,0,88.84,7h-7L94.16,38h0a2.53,2.53,0,0,0,.9,1.15,2.63,2.63,0,0,0,1.48.48h4.05a2.63,2.63,0,0,0,1.49-.48A2.54,2.54,0,0,0,103,38h0L115.27,7Z"/></g></g></svg>