<svg id="Layer_1" data-name="Layer 1" xmlns="http://www.w3.org/2000/svg" xmlns:xlink="http://www.w3.org/1999/xlink" viewBox="0 0 188.56 73.73"><defs><style>.cls-1{fill:url(#radial-gradient);}.cls-2{fill:#f2c068;}.cls-3{fill:url(#radial-gradient-2);}.cls-4{fill:#231f20;}</style><radialGradient id="radial-gradient" cx="-41.83" cy="-53.72" r="8.03" gradientTransform="translate(193.13 249.92) scale(3.8)" gradientUnits="userSpaceOnUse"><stop offset="0" stop-color="#72be44"/><stop offset="1" stop-color="#118040"/></radialGradient><radialGradient id="radial-gradient-2" cx="77.02" cy="26.57" r="22.84" gradientTransform="translate(-154.54 -58.6) scale(2.63)" gradientUnits="userSpaceOnUse"><stop offset="0" stop-color="#00ace7"/><stop offset="1" stop-color="#211c5b"/></radialGradient></defs><title>SV.CO-Logo</title><path class="cls-1" d="M55.48,43.06h0a14.84,14.84,0,0,1,2.2-5.39A2.61,2.61,0,0,0,58,37c0-.09,0-0.18.07-0.27,0.28-1.72-3.1-2.13-3.74-2.08h-0.2a4.88,4.88,0,0,0-4.06,2.08c-1.21,2-.85,3.44-3.81,4.37-2,.6-4-0.12-6,0.33-2.45.51-1.9,3-2,4.7-0.12,1.86-.33,4.23-2.52,4.67-2.71.61-4.72,0.21-5.47,3.43-0.36,1.58,0,3.87-.93,5.37s-3.56,2-5.22,2.22c-2.47.32-3.67,1.37-3.38,4.32,0,0.52.11,1,.2,1.57h0a4.68,4.68,0,0,0,3.64,3.79,17.78,17.78,0,0,0,5.92-.45,56.23,56.23,0,0,1,9.88-.68c9.78,0,12.65-7.51,14-16C54.79,51.38,54.64,47,55.48,43.06Z"/><path d="M76.62,13.76c-0.72-.14-1.88-0.32-2.58-0.39a1.47,1.47,0,0,1-1.28-1.46v-0.4a27.1,27.1,0,0,1,3.36-.18c1.32,0,3.95.35,3.95,0.35a1.37,1.37,0,0,0,1.52-1.14l0.68-4.34a37.46,37.46,0,0,0-8.49-.89q-4.71,0-6.66,1.7t-2,6.22a6.92,6.92,0,0,0,1.61,5C67.84,19.34,71.39,20,71.39,20c0.72,0.14,1.9.31,2.63,0.37l0.53,0a1.49,1.49,0,0,1,1.33,1.45v0.44a33.11,33.11,0,0,1-4.19.21A30.66,30.66,0,0,1,67.14,22a1.3,1.3,0,0,0-1.53,1.06l-0.77,4.52a37.33,37.33,0,0,0,8.52.92q1.91,0,3.06-.09a14.24,14.24,0,0,0,2.67-.51,5.44,5.44,0,0,0,2.35-1.22,6.43,6.43,0,0,0,1.43-2.33,10.39,10.39,0,0,0,.6-3.77,6.54,6.54,0,0,0-1.77-4.86C80.53,14.54,76.62,13.76,76.62,13.76ZM86,14.84a1.19,1.19,0,0,1,.88,1.33v8.47a3.63,3.63,0,0,0,.28,1.48,3.56,3.56,0,0,0,2.26,1.7,31.66,31.66,0,0,0,5,.49A1.39,1.39,0,0,0,95.76,27L96,23.16l-0.78,0a1.6,1.6,0,0,1-1.31-1.53v-5.4a1.29,1.29,0,0,1,1.22-1.33,1.28,1.28,0,0,0,1.22-1.33V11.62a1.28,1.28,0,0,0-1.22-1.33,1.28,1.28,0,0,1-1.22-1.33V7a1,1,0,0,0-1.29-1L88.13,7.13a1.8,1.8,0,0,0-1.29,1.66V8.95A1.18,1.18,0,0,1,86,10.28a1.19,1.19,0,0,0-.89,1.33v1.89A1.18,1.18,0,0,0,86,14.84ZM114.54,28a1.34,1.34,0,0,0,1.33-1.33v-11q0-5.84-8.49-5.83a27.68,27.68,0,0,0-8.17,1.1l0.85,5.06a21.81,21.81,0,0,1,6.86-1h0.54a1.28,1.28,0,0,1,1.33.71,1.21,1.21,0,0,1-1.33.64h-0.08q-9.62,0-9.62,6.37,0,3.47,2,4.74a6.31,6.31,0,0,0,1.87.85,10.39,10.39,0,0,0,2.53.25,9.44,9.44,0,0,0,3.34-.67,6.27,6.27,0,0,0,1.79-1,1.44,1.44,0,0,1,1.94.06L111.4,27a3.72,3.72,0,0,0,2.28.94h0.87Zm-5.74-5.91a1.12,1.12,0,0,1-.44.92,1.36,1.36,0,0,1-.67.26c-0.73.05-1.65,0.09-2.05,0.09a1.19,1.19,0,0,1-.73-1.33V21.88a1.19,1.19,0,0,1,.58-1.22,1.85,1.85,0,0,1,.53-0.19c0.73,0,1.66-.08,2.05-0.08a1.19,1.19,0,0,1,.73,1.33v0.33Zm21-12.31a13,13,0,0,0-4.13,1.77,1.67,1.67,0,0,1-2-.21l-0.08-.08a3.67,3.67,0,0,0-2.27-1h-0.87a1.34,1.34,0,0,0-1.33,1.33v15A1.34,1.34,0,0,0,120.39,28h4.41a1.33,1.33,0,0,0,1.33-1.33V17.85a3.72,3.72,0,0,1,1.86-1l0.91-.26a1.43,1.43,0,0,0,1.22-1.5Zm2.37,5.09a1.19,1.19,0,0,1,.88,1.33v8.47a3.6,3.6,0,0,0,.28,1.48,3.57,3.57,0,0,0,2.26,1.7,31.65,31.65,0,0,0,5,.49A1.38,1.38,0,0,0,142,27l0.24-3.87-0.78,0a1.6,1.6,0,0,1-1.31-1.53v-5.4a1.29,1.29,0,0,1,1.22-1.33,1.28,1.28,0,0,0,1.22-1.33V11.62a1.29,1.29,0,0,0-1.22-1.33,1.28,1.28,0,0,1-1.22-1.33V7a1,1,0,0,0-1.29-1l-4.49,1.12A1.8,1.8,0,0,0,133,8.78V8.95a1.18,1.18,0,0,1-.88,1.33,1.19,1.19,0,0,0-.89,1.33v1.89A1.18,1.18,0,0,0,132.15,14.84Zm23.72,11.9a1.62,1.62,0,0,1,2,.14L158,27a3.78,3.78,0,0,0,2.29.93h0.87a1.34,1.34,0,0,0,1.33-1.33v-15a1.34,1.34,0,0,0-1.33-1.33h-4.41a1.34,1.34,0,0,0-1.33,1.33V21.85a1.19,1.19,0,0,1-.58,1.22,1.82,1.82,0,0,1-.53.18c-0.73,0-1.58.08-1.88,0.08a1.26,1.26,0,0,1-.55-1.33V11.62a1.34,1.34,0,0,0-1.33-1.33h-4.41a1.34,1.34,0,0,0-1.34,1.33v11q0,3.15,1.45,4.49a6.62,6.62,0,0,0,4.6,1.34A9.58,9.58,0,0,0,155.87,26.75Zm26.89-14a5.7,5.7,0,0,0-2.37-2.23,7.92,7.92,0,0,0-3.71-.81A8.29,8.29,0,0,0,172,11.23a1.2,1.2,0,0,1-1.71-.07,2.75,2.75,0,0,0-2-.88H167.4a1.34,1.34,0,0,0-1.33,1.33V32.47a1.22,1.22,0,0,0,1.33,1.23l4.42-.33a1.47,1.47,0,0,0,1.33-1.43V29.3A1.34,1.34,0,0,1,174.47,28h2.73a7.43,7.43,0,0,0,3-.58,5.93,5.93,0,0,0,2.09-1.47q1.94-2.3,1.95-6.79A12.52,12.52,0,0,0,182.76,12.79Zm-6.08,9.06a1.2,1.2,0,0,1-.58,1.22,1.86,1.86,0,0,1-.53.18c-0.73,0-1.58.08-1.88,0.08a1.26,1.26,0,0,1-.55-1.33V16.22a1.17,1.17,0,0,1,.39-0.87,1.6,1.6,0,0,1,.81-0.37l0.31,0,1.48,0a1.26,1.26,0,0,1,.55,1.33v5.6ZM82.2,31.18H78a1.52,1.52,0,0,0-1.41,1.14l-2.17,10A2.88,2.88,0,0,1,74,43.48a2.93,2.93,0,0,1-.38-1.14l-2.14-10a1.51,1.51,0,0,0-1.41-1.14h-4.2A0.87,0.87,0,0,0,65,32.32l4.24,17.1a1.58,1.58,0,0,0,1.45,1.13h6.71a1.58,1.58,0,0,0,1.45-1.13l4.24-17.1A0.87,0.87,0,0,0,82.2,31.18Zm7.79-1a4.73,4.73,0,0,0-2.76-.56,4.72,4.72,0,0,0-2.76.56,2.37,2.37,0,0,0-.7,2,2.28,2.28,0,0,0,.7,1.92,5,5,0,0,0,2.76.53A5,5,0,0,0,90,34.06a2.28,2.28,0,0,0,.7-1.92A2.37,2.37,0,0,0,90,30.19Zm-0.83,5-3.88.48A1.36,1.36,0,0,0,84.11,37V49.38a1.17,1.17,0,0,0,1.17,1.17h3.86a1.17,1.17,0,0,0,1.17-1.17V36.22A1,1,0,0,0,89.15,35.2Zm10.19,9.75V31.11A1.07,1.07,0,0,0,98.17,30l-3.87.29a1.28,1.28,0,0,0-1.16,1.26V47.64a3.17,3.17,0,0,0,.25,1.3,3.13,3.13,0,0,0,2,1.49,24.71,24.71,0,0,0,4.07.42,1.21,1.21,0,0,0,1.24-1.13l0.21-3.39-0.37,0A1.43,1.43,0,0,1,99.34,44.95Zm9.57,0V31.11A1.07,1.07,0,0,0,107.75,30l-3.87.29a1.28,1.28,0,0,0-1.16,1.26V47.64a2.66,2.66,0,0,0,2.2,2.79,24.67,24.67,0,0,0,4.07.42,1.22,1.22,0,0,0,1.24-1.13l0.21-3.39-0.37,0A1.43,1.43,0,0,1,108.91,44.95Zm11.52-10.36a24.16,24.16,0,0,0-7.16,1L114,40a19.09,19.09,0,0,1,6-.84h0.47a1.12,1.12,0,0,1,1.17.62,1.06,1.06,0,0,1-1.17.56h-0.07q-8.43,0-8.43,5.58,0,3,1.76,4.15a5.52,5.52,0,0,0,1.64.74,9.08,9.08,0,0,0,2.21.22,8.25,8.25,0,0,0,2.93-.59,5.51,5.51,0,0,0,1.57-.87,1.26,1.26,0,0,1,1.7.05l0.12,0.11a3.24,3.24,0,0,0,2,.83h0.76a1.17,1.17,0,0,0,1.17-1.17V39.7Q127.87,34.59,120.43,34.59Zm1.24,10.78a1,1,0,0,1-.39.81,1.16,1.16,0,0,1-.58.23c-0.64,0-1.45.08-1.8,0.08a1,1,0,0,1-.64-1.17v-0.1a1,1,0,0,1,.51-1.07,1.64,1.64,0,0,1,.46-0.16c0.64,0,1.45-.07,1.8-0.07a1,1,0,0,1,.63,1.17v0.29Zm22.12-11.86a1.4,1.4,0,0,0-1.77-.1l-1.77,1.36a16.64,16.64,0,0,0-2.64-.19q-4.12,0-5.95,1.36A4.76,4.76,0,0,0,129.84,40,5.77,5.77,0,0,0,131,44a6.15,6.15,0,0,0,2.28,1.32,1.13,1.13,0,0,1,.73,1.45l-0.55,1.56a1.66,1.66,0,0,0,0,.44,1,1,0,0,0,.31.38,3.09,3.09,0,0,0,1.12.46,17.93,17.93,0,0,0,2.44.2A1.17,1.17,0,0,1,138.55,51a12.17,12.17,0,0,1-1.49.06,25.82,25.82,0,0,1-5-.63,1.09,1.09,0,0,0-1.34.88l-0.6,3.47a27,27,0,0,0,6.68.93,20.13,20.13,0,0,0,4.85-.47,4.34,4.34,0,0,0,3.63-4.65,3.22,3.22,0,0,0-1.38-3,13.73,13.73,0,0,0-3.57-.87,1,1,0,0,1-1-.88q3.13-.25,4.35-1.44a4.87,4.87,0,0,0,1.22-3.64,7.87,7.87,0,0,0-.13-1.65,2.59,2.59,0,0,1,.48-2l0.25-.3a1.26,1.26,0,0,0-.08-1.7Zm-5,7.22a1,1,0,0,1-.51,1.07,1.64,1.64,0,0,1-.46.16c-0.64,0-1.38.07-1.64,0.07a1.1,1.1,0,0,1-.48-1.17V40a1,1,0,0,1,.51-1.07,1.62,1.62,0,0,1,.46-0.16c0.64,0,1.38-.07,1.64-0.07a1.1,1.1,0,0,1,.48,1.17v0.85Zm24-.56q0-3.22-1.64-4.4t-6-1.18q-4.33,0-6.26,2t-1.94,6.18q0,4.15,1.94,6.18t6.27,2a37.08,37.08,0,0,0,5.73-.7,1.22,1.22,0,0,0,1-1.38l-0.56-3.4a19,19,0,0,1-5.86.93h-0.66a1.24,1.24,0,0,1-1.16-1.17q5.2,0,7.17-1.19A4.23,4.23,0,0,0,162.72,40.17Zm-5.73.22a1,1,0,0,1-.52,1.07,1.57,1.57,0,0,1-.46.16c-0.64,0-1.45.07-1.8,0.07a1,1,0,0,1-.64-1.17v-0.1a1,1,0,0,1,.51-1.07,1.71,1.71,0,0,1,.46-0.16c0.64,0,1.45-.07,1.8-0.07a1,1,0,0,1,.64,1.17v0.1Z"/><path class="cls-2" d="M88.76,56.9l-0.13-.09Zm12,0.74,0.09,0.09A0.15,0.15,0,0,0,100.74,57.64Zm-20.39.15,0.26-.94-0.5-.3C80.27,57.28,79.78,57.54,80.35,57.79Zm7.11-1.34c0,0.48.82,0.23,1.17,0.36C88.33,56.6,87.64,56.16,87.47,56.45ZM77,57.73A1.46,1.46,0,0,0,77.69,57c-0.46.09-.14-1.18-0.42-0.71l0.19,0.57C77.1,56.85,77.06,57.37,77,57.73Zm23.7-.1a3.06,3.06,0,0,0-1-.61,0.52,0.52,0,0,0,.67.43C100.47,57.89,100.61,57.61,100.74,57.64Zm-24.41-.33c0.26-.06.54,0.33,0.6-0.28C76.8,56.62,76.57,57.16,76.34,57.31Zm-10-2,0.34,0.2-0.45-.62Zm1.62,0a0.75,0.75,0,0,0-.19-0.68l-0.28,0C67.64,55,67.71,55.35,68,55.31Zm76.45,0.92a1.1,1.1,0,0,0-.07.76c0.05-.16.15-0.09,0.2,0Zm-41.62.4c0,0.35.16,0.22,0.32,0.44C103.22,56.83,102.89,56.48,102.82,56.64ZM144.57,56c0.45,0.15.49,0.77,1,.69l-0.41-.83,0.09,0.27C145,56.38,144.78,55.79,144.57,56Zm-79.2-.8-0.18.12A0.15,0.15,0,0,0,65.38,55.23Zm78.3,1.23L143.46,56c-0.29.48-.47-0.46-0.39,0.41A0.79,0.79,0,0,0,143.68,56.46Zm-43.09-.3,0.09-.25a0.82,0.82,0,0,0-.26.2Zm49.84,0.79-0.13.11A0.24,0.24,0,0,0,150.42,56.95ZM108.37,57a0.7,0.7,0,0,0-.31-0.07A0.29,0.29,0,0,0,108.37,57ZM64.94,55.53l0.25-.17C65,55.31,64.68,54.9,64.94,55.53Zm1.44,0.24L65,55.94l4.94,0c0.26,0.45.75,0.41,1,1.28-0.13,0-.24-0.05-0.22.15,0-.28.44,0,0.64-0.08L71,56.73c0.5-1,.55.41,1.14-0.06a9.34,9.34,0,0,0-.72-0.78h0.46a0.19,0.19,0,0,1,.19.19l0.06-.19h1.24L73.57,56l-0.09-.14h1.09a0.92,0.92,0,0,1-.34.54c0.2-.06.56-0.58,0.63,0,0.16-.46.42-0.21,0.54,0.14,0.28-.3.15-0.39,0.08-0.69h0.86a0.89,0.89,0,0,1,.06.39c-0.1.21-.55-0.06-0.3,0.56,0-.8.25,0.33,0.48,0.1-0.44-.55.12-0.74,0.17-1h0.67a0.62,0.62,0,0,0,.17.1v-0.1h1.08c0,0.16.08,0.41-.17,0.36,0.09,0.15.24,0.06,0.33-.08,0.15,0.18-.19.62,0.16,0.46l-0.13-.75h0.39l0.08,0v0H79.8a1.2,1.2,0,0,1-.37.66l0.07,0c0.37,0.31-.42,1.13.24,1a1.83,1.83,0,0,1,.45-1.59h0.44l0,0.09a3.72,3.72,0,0,0,.86,1l-0.78-1.07h1v0a1.65,1.65,0,0,0-.09,1c0.7-1,1.29.54,1.92-.6a0.15,0.15,0,0,1,.17-0.24l0-.23h0.18a0.22,0.22,0,0,0,.19,0h0.84l0,0.07,0,0,0,0c0.1,0.15.19,0.27,0.24,0.19,0.11,0.42.24,0.08,0.38-.26l2.3,0a1.16,1.16,0,0,0,1.12,0h0.2c0.42,0.65.44,1.06,1,1.19l-0.15-.73,0.65-.3a0.38,0.38,0,0,1,0-.16l2.4,0,0.39,0.07v0.05a0.39,0.39,0,0,1,.13-0.06c0,0.05,0,.13,0,0.2,0.24-.39.47,0.6,0.77-0.07a0.43,0.43,0,0,0,.14-0.19h0.2l-0.09.07c0.64,0.15.77,0.89,1.29,0.93,0.05,0.19-.07.16-0.13,0.32,0.29,0.07.49-.42,0.33-0.72,0.24-.12.38,0.62,0.73,0.61L97,58c0.49,0.4,1-.28,1.31-0.57-0.42.08-.84-0.63-1.14-0.63,0-2-1.26-.48-1.52-1.06l0,0h2c0.05,0.37.64,0.47,0.17,1,0.56,0.4.7,0,1.25,0.65-0.15-.57.39-0.71,0.42-1.23,0.23,0.06.49,0.65,0.69,0.16L99.84,56a0.45,0.45,0,0,0,.27-0.27h0.59a1,1,0,0,1,0,.21c0.5-.24,1,0.26,1.57-0.13a0.29,0.29,0,0,1-.3-0.08H103a4.19,4.19,0,0,1,1.22,1.93c0.95,0.51.57-1.54,1.75-.17a5.17,5.17,0,0,1,0-1.08,0.64,0.64,0,0,1,.7,0l-0.39.61c0.55,0.52,1.26-.05,1.84,0a1.3,1.3,0,0,0-.32-0.81,0.49,0.49,0,0,1,.56-0.48c0.44,0.38.2,1.21,0.69,1.52,5.1-.55,10.14,0,15.27-0.67V56.14c3.2,0.79,6.81-.06,10.24-0.33l0,0.26c1.08-1.63.6,1.85,1.78,0,0.81,1.59,1.83,0,2.74,1.17l0.1-.52c0.63,1.36,1.5-1,2.26,0,0.28-.49.42-1.08,0.89-0.62,0.08,0.15-.11.91,0.22,0.47l-0.27-.9a0.86,0.86,0,0,1,1.26.35l0.54-.1-0.15-.31a2.49,2.49,0,0,0,.41-0.17h0.5a0.8,0.8,0,0,1,.23.33c0-.09-0.06-0.21-0.09-0.33h1.15a2.12,2.12,0,0,0-.18.71c0.57-.36.34,1.38,0.86,1l0-.63a0.93,0.93,0,0,1,.92.62l0-.32c0.75-.33,1.18.42,1.76-0.66l0.37,0.39a0.48,0.48,0,0,1,.15-0.6c0.31-.1.72,0.72,0.54,1,1.06-.88,1.25.45,2.39,0.19,0-.71.48-0.24,0.33-0.87l0.31,0.35a0.39,0.39,0,0,1,0-.28c0.14-.19.18,0,0.21,0.28l0-.12,0.49-.12,0,0.6,0.39-.51c-0.17-.75-0.73-0.28-0.77-1l0.1-.08h0.5a0.75,0.75,0,0,1,.09.64c0.48-.23.24,0.72,0.7,0.37L155.11,56l0.57,0.36c0.19,0.16-.16-0.44,0-0.75-0.24-.06-0.46-0.08-0.67-0.12l0.44-.16h0.94c0,0.21.06-.08-0.22,0.17a1.64,1.64,0,0,1,.71.17c0.12,0.51-.28.71-0.09,1.06,3.24,0.92,5.34-2.3,8.25.25,0.4-.56,1.39-1.13,1.69-0.75l-0.14.19c0.42,0.43.71-.75,1,0l0.27,0.87c0.22-.19.71-0.18,0.65-0.56,0.25,0.44,1-.18.87,0.94a5.92,5.92,0,0,1,1.78-.18,0.42,0.42,0,0,1,0-.19c0.19-.37.23,0.69,0.48,0.13-0.06-.25-0.59-0.31-0.12-0.62,0.24,0.81,1,0,1.35-.35a1.09,1.09,0,0,1,.4.58c0.26-.11.71-0.78,0.35-1,0.68,0.34.84-.56,0.8,0.6,0.75,0.81,1.49-.51,2.15.59,1.13-.34,2.25-0.41,3.22-1.29-11-1.31-61.54-6.76-104.89-2.18a2.92,2.92,0,0,0,.31.88l-0.43.05a1.12,1.12,0,0,0-.49-0.86L72.94,54a0.15,0.15,0,0,1-.06.07L72.82,54l-0.33,0a0.37,0.37,0,0,1,0,.07c-0.12.11-.19,0.06-0.26,0l-1.41.17a0.4,0.4,0,0,1-.06.33c0.43,0.87,1.21-.91,1.41.46l-1,.13a2.3,2.3,0,0,0-.81-0.66l0,0.25c-0.22,0-.3-0.15-0.35-0.39l-0.47.06a0.23,0.23,0,0,1-.13.05l0,0-0.89.11-0.06.07c0.31-.11.46,0.43,0.63,0.8l-2.46.31-0.36-.21,0,0.16Zm90-.42h0.76a1.14,1.14,0,0,0,.18.36,0.78,0.78,0,0,1-.52-0.32,1.37,1.37,0,0,0,0,.27Zm-1.93,0h0.42a1.21,1.21,0,0,1,.07.16A1.6,1.6,0,0,1,154.49,55.35Zm-56.16.45L98,55.72h0.44a1.19,1.19,0,0,1,.19,1C98.62,55.87,97.49,56.22,98.33,55.8Zm-14.68,0h0v0Zm-5.7-1.48a0.68,0.68,0,0,1,.22-0.6,2.83,2.83,0,0,1,.26.54Zm-4.48.54c0.15-.27.28-0.49,0.52-0.06Zm-4.37.54a0.72,0.72,0,0,1-.22-0.77c0.28-.47.69,0.32,1.16,0.5l-0.27.12v0.08Zm29.44,1.94a0.5,0.5,0,0,0-.24.13A0.39,0.39,0,0,0,98.54,57.35ZM68.55,56a2.15,2.15,0,0,0,.86,1.41L69.67,57l-0.17-.1,0.44-.65C69.33,56.18,69.08,56.5,68.55,56Zm15,0.24,0,0.05C83.55,56.35,83.58,56.36,83.56,56.24Zm-10.1.36L73.76,57c0.26,0,0-.48.3-0.28C74,56.25,73.64,56.25,73.45,56.6ZM93.64,56l-0.05.09C93.61,56.17,93.63,56.1,93.64,56Zm-0.1-.13c-0.18.13,0,.23,0,0h0Z"/><path class="cls-3" d="M35.19,44.12A1.59,1.59,0,0,1,34.57,44l-4.64-2.18a2.1,2.1,0,0,0-2.7.39s-7,7.75-7.83,9a1.17,1.17,0,0,1-1.8.41S14,49.33,13.16,48.91s-1.05.33-1.05,0.33l-0.62,2.5c-0.26.65-.65-1.06-0.65-1.06L9.89,46.35c-0.26-1.37.7-.82,0.7-0.82s5.7,1.48,6.35,1.53a1,1,0,0,0,.86-0.26l0,0s1.83-2.93,2.32-3.78a1.78,1.78,0,0,0,.3-1.44l-2.28-6.35A1.44,1.44,0,0,0,17,34.09s-2.8-.36-3.56-0.5a2.23,2.23,0,0,0-1.52.41l-2.4,2.42A8.55,8.55,0,0,0,8,42.05q0.16,1.86.34,3.72c3.39,19.68,5.09,22.58,11,23.91,1,0.23,1.16-.79,1.09-1.78-0.24-1.6-.79-3.25-0.27-4.75,0.87-2.91,4-1.94,6.14-2.59,3.12-1,1.9-4,2.17-6.6,0.23-3.77,2.41-3.29,5.19-4,3.68-.9,2.4-4.07,2.78-6.73,0-.1,0-0.2,0-0.3L36,43.5A1.2,1.2,0,0,1,35.19,44.12Zm20.53-32h0c-0.05-.47-0.47-0.36-0.65-0.29-0.4.18-.8,0.33-1,0.47a1.62,1.62,0,0,0-1,1.8,5.48,5.48,0,0,1,.41,1.84c-0.14.87-1,.07-1.3-0.12a2.34,2.34,0,0,0-1.69-.45,3.9,3.9,0,0,0-1.67,1.27C48.49,17,48,18,47.7,16.91a18,18,0,0,1-.07-2.61c0-1.19-1-1.44-2.12-2-0.42-.22-2.08-0.85-2.14-1.42,0-.31.3-0.34,0.7-0.28a7.38,7.38,0,0,0,2.15,0h0l0.34-.07a1.78,1.78,0,0,0,1.54-1.34c0.29-.67.3-1.69,0.89-2.22,0.77-.63,1.19.82,1.36,1.23a4,4,0,0,0,1.24,1.74,5.32,5.32,0,0,0,2.76.53h0.57A0.31,0.31,0,0,0,55.21,10v0c-1-2.64-3.28-4.62-7.88-5.08a29.19,29.19,0,0,0-4.64-.08A22.25,22.25,0,0,1,38,4.39C16-1.09,9.21,4.69,7.79,6.32c-3.34,3.2-3.55,9.07-3.5,11.3a58.28,58.28,0,0,0,3,15.55c0.15,0.66.5,1.53,1.21,0.7l0.21-.23L10,32.27a3.33,3.33,0,0,1,1.83-1l6.59-1h0.09l6.13-2h0c0.43-.21,3.55-1.64,5.06-2.39L30,25.78h0l0.13,0a5,5,0,0,1,1.1-.25,0.75,0.75,0,0,1,.71.29c0.29,0.49-.78,1.3-0.78,1.3h0c-1.34,1.08-3.42,2.76-3.79,3a4.75,4.75,0,0,1-1.05.62h0L23,32.44a1,1,0,0,0-.27,1.27l0.09,0.18h0l1.22,2.34a1.82,1.82,0,0,0,1.75,1l2.89-.36a3.18,3.18,0,0,1,2.25.75l3.14,3c0.2,0.18,1,.86,1.67.34s3.37-2.74,2.64-.72c1.39-.62,3.27-0.57,5-0.92,4.3-.76,2.06-4.69,4.49-7a5.36,5.36,0,0,1,3.64-1.09,2.24,2.24,0,0,0,2.23-2.08,2.3,2.3,0,0,1,0-.25,30.19,30.19,0,0,1,.37-4.44C54.79,21.16,56.27,16.22,55.72,12.11Zm-37.23,17c-1.57.59-3.95-.71-5.42-3s-1.47-4.59.3-5,4.45,1,5.79,3.19S20.09,28.58,18.49,29.14Z"/><path class="cls-4" d="M74.64,66.23a3.21,3.21,0,0,1-.69,2.18,2.39,2.39,0,0,1-1.9.79,1.7,1.7,0,0,1-1.17-.43,1.84,1.84,0,0,1-.06.54,0.38,0.38,0,0,1-.4.28A0.43,0.43,0,0,1,70,69.07l0-.48q0-.56,0-1.19,0-.91,0-1.94A20.35,20.35,0,0,0,70,63.17q0-.28-0.11-0.63a2.76,2.76,0,0,1-.06-0.37A0.33,0.33,0,0,1,70,61.92a0.44,0.44,0,0,1,.29-0.11,0.56,0.56,0,0,1,.49.56,13,13,0,0,1,.17,1.77,2.5,2.5,0,0,1,1.51-.53,2,2,0,0,1,1.62.7A2.88,2.88,0,0,1,74.64,66.23Zm-0.89,0a2.17,2.17,0,0,0-.39-1.37,1.26,1.26,0,0,0-1.05-.5,1.5,1.5,0,0,0-1.38.73v0.7q0,0.49,0,1.06t0,0.63h0a1.23,1.23,0,0,0,1.19.85,1.44,1.44,0,0,0,1.18-.58A2.39,2.39,0,0,0,73.76,66.26Z"/><path class="cls-4" d="M80.26,68.68a0.54,0.54,0,0,1-.13.37,0.4,0.4,0,0,1-.32.15q-0.35,0-.59-1.1a2.2,2.2,0,0,1-1.82,1q-1.78,0-1.78-2.88a15.07,15.07,0,0,1,.19-2.57A0.64,0.64,0,0,1,76.38,63a0.38,0.38,0,0,1,.28.12,0.39,0.39,0,0,1,.12.28q0,0.14-.13,1.12a13.92,13.92,0,0,0-.13,1.82q0,1.93,1,1.93a1.27,1.27,0,0,0,1.08-.54,2.49,2.49,0,0,0,.4-1.51V66A14.8,14.8,0,0,1,79.13,64a0.58,0.58,0,0,1,.5-0.61q0.37,0,.37.53,0,0.09,0,.69t0,1.08a12.44,12.44,0,0,0,.17,2.13A3.88,3.88,0,0,0,80.26,68.68Z"/><path class="cls-4" d="M82.51,64a30.45,30.45,0,0,1-.19,4,2.58,2.58,0,0,1-.17.71,0.4,0.4,0,0,1-.39.24,0.42,0.42,0,0,1-.3-0.12,0.38,0.38,0,0,1-.12-0.29s0-.09.07-0.31a8.09,8.09,0,0,0,.14-0.86,15.13,15.13,0,0,0,.07-1.54q0-.37,0-0.78c0-.27,0-0.42,0-0.45a2.41,2.41,0,0,1,.1-0.85,0.4,0.4,0,0,1,.4-0.26A0.4,0.4,0,0,1,82.51,64Zm0.19-1.72a0.56,0.56,0,0,1-.62.64,0.56,0.56,0,0,1-.42-0.18,0.59,0.59,0,0,1-.17-0.42,0.63,0.63,0,0,1,.19-0.46,0.62,0.62,0,0,1,.46-0.19,0.53,0.53,0,0,1,.41.17A0.62,0.62,0,0,1,82.7,62.27Z"/><path class="cls-4" d="M85.1,69.07a1.48,1.48,0,0,1,0,.42,0.32,0.32,0,0,1-.33.2q-0.42,0-.5-0.7a31.28,31.28,0,0,1-.13-3.22q0-2.28.06-2.81a0.51,0.51,0,0,1,.45-0.57,0.44,0.44,0,0,1,.44.55q0,0.14,0,1.08t0,1.74q0,0.7.07,1.8T85.1,69.07Z"/><path class="cls-4" d="M91.06,62.29s0,0.21-.05.68-0.07,1.12-.1,1.74q0,1.33,0,2.83c0,0.21,0,.41,0,0.63s0,0.33,0,.34q0,0.67-.42.67T90,68.42q0-.18,0-0.28A2.67,2.67,0,0,1,88,69a1.86,1.86,0,0,1-1.46-.61A2.42,2.42,0,0,1,86,66.7a3.4,3.4,0,0,1,.78-2.34,2.61,2.61,0,0,1,2.05-.89,3,3,0,0,1,1.22.28,12.54,12.54,0,0,1,.08-1.5,0.49,0.49,0,0,1,.49-0.46Q91.06,61.79,91.06,62.29Zm-1,2.35a2.16,2.16,0,0,0-1.17-.37,1.76,1.76,0,0,0-1.43.63,2.63,2.63,0,0,0-.52,1.72,1.73,1.73,0,0,0,.35,1.16,1.21,1.21,0,0,0,1,.41,1.41,1.41,0,0,0,1.19-.53l0.23-.36A0.49,0.49,0,0,1,90,67.08Q90,65.81,90.06,64.63Z"/><path class="cls-4" d="M93.7,68a0.74,0.74,0,0,1-.2.54,0.7,0.7,0,0,1-.52.2,0.62,0.62,0,0,1-.47-0.2,0.7,0.7,0,0,1-.18-0.5,0.65,0.65,0,0,1,.2-0.48,0.68,0.68,0,0,1,.5-0.2A0.58,0.58,0,0,1,93.7,68Z"/><path class="cls-4" d="M102.38,66.23a3.2,3.2,0,0,1-.69,2.18,2.39,2.39,0,0,1-1.9.79,1.7,1.7,0,0,1-1.17-.43,1.82,1.82,0,0,1-.06.54,0.39,0.39,0,0,1-.4.28,0.43,0.43,0,0,1-.42-0.53s0-.16,0-0.48,0-.77,0-1.19q0-.91,0-1.94a20.36,20.36,0,0,0-.09-2.29c0-.18-0.06-0.39-0.11-0.63a2.72,2.72,0,0,1-.06-0.37,0.32,0.32,0,0,1,.13-0.25A0.44,0.44,0,0,1,98,61.81a0.56,0.56,0,0,1,.49.56,13.06,13.06,0,0,1,.17,1.77,2.49,2.49,0,0,1,1.51-.53,2,2,0,0,1,1.62.7A2.88,2.88,0,0,1,102.38,66.23Zm-0.89,0a2.17,2.17,0,0,0-.39-1.37,1.26,1.26,0,0,0-1.05-.5,1.5,1.5,0,0,0-1.38.73v0.7q0,0.49,0,1.06t0,0.63h0a1.23,1.23,0,0,0,1.19.85,1.44,1.44,0,0,0,1.18-.58A2.39,2.39,0,0,0,101.5,66.26Z"/><path class="cls-4" d="M106.6,64.62a0.43,0.43,0,0,1-.1.29,0.31,0.31,0,0,1-.24.12,0.63,0.63,0,0,1-.32-0.16,0.65,0.65,0,0,0-.38-0.16,0.8,0.8,0,0,0-.69.38,1.75,1.75,0,0,0-.26,1v0.59a4.89,4.89,0,0,1-.2,1.57,0.64,0.64,0,0,1-.49.55,0.36,0.36,0,0,1-.41-0.41,4.87,4.87,0,0,1,.13-0.6,4.19,4.19,0,0,0,.12-1,4.81,4.81,0,0,0-.36-2l-0.24-.46A0.8,0.8,0,0,1,103,64a0.37,0.37,0,0,1,.14-0.27,0.44,0.44,0,0,1,.3-0.13q0.47,0,.78,1.17a1.46,1.46,0,0,1,1.35-.9,1.16,1.16,0,0,1,.72.21A0.64,0.64,0,0,1,106.6,64.62Z"/><path class="cls-4" d="M111.64,65.26a0.79,0.79,0,0,1-.32.7,3.48,3.48,0,0,1-.9.26,8.6,8.6,0,0,1-1.72.21c-0.22,0-.48,0-0.78,0q0,1.7,1.28,1.7a1.07,1.07,0,0,0,.64-0.2,4.43,4.43,0,0,0,.51-0.48,0.39,0.39,0,0,1,.28-0.14,0.43,0.43,0,0,1,.32.14,0.49,0.49,0,0,1,.13.35,0.47,0.47,0,0,1-.13.32,2.35,2.35,0,0,1-1.79.85q-2.13,0-2.13-2.5a3.69,3.69,0,0,1,.68-2.22,2.28,2.28,0,0,1,1.9-1.06,1.93,1.93,0,0,1,1.46.6A2.12,2.12,0,0,1,111.64,65.26Zm-0.88.05a1.66,1.66,0,0,0-.32-1,0.92,0.92,0,0,0-.74-0.37,1.43,1.43,0,0,0-1,.42,2.58,2.58,0,0,0-.68,1.2,5.89,5.89,0,0,0,.67,0A9,9,0,0,0,110.75,65.32Z"/><path class="cls-4" d="M116.23,66.38a10.16,10.16,0,0,1-.36,2.59,0.7,0.7,0,0,1-.53.68,0.35,0.35,0,0,1-.36-0.42,0.81,0.81,0,0,1,0-.14,1.93,1.93,0,0,1-.94.25,1.79,1.79,0,0,1-1.34-.49,1.89,1.89,0,0,1-.48-1.38,1.94,1.94,0,0,1,.52-1.43,1.86,1.86,0,0,1,1.38-.53,1.74,1.74,0,0,1,1.27.51q-0.08-1.78-1.3-1.78a1.24,1.24,0,0,0-.58.17,1.22,1.22,0,0,1-.4.16,0.37,0.37,0,0,1-.27-0.13,0.41,0.41,0,0,1-.12-0.29,0.63,0.63,0,0,1,.39-0.5,1.88,1.88,0,0,1,1-.25Q116.23,63.41,116.23,66.38Zm-0.9,1.06a1,1,0,0,0-1.06-1.15,1.14,1.14,0,1,0,0,2.29,1,1,0,0,0,.79-0.3A1.17,1.17,0,0,0,115.32,67.44Z"/><path class="cls-4" d="M118.74,62.71l-0.1.29a5.28,5.28,0,0,0-.18.76,8.43,8.43,0,0,0-.1,1.33c0,0.27,0,.69.06,1.24s0.06,1,.06,1.26a2.41,2.41,0,0,1-.11.85,0.42,0.42,0,0,1-.41.28,0.31,0.31,0,0,1-.32-0.19,1.22,1.22,0,0,1,0-.4c0-.15,0-0.34,0-0.56s0-.38,0-0.45q0-.47,0-1.23t0-1.07a6.59,6.59,0,0,1,.21-1.88,0.73,0.73,0,0,1,.56-0.65,0.44,0.44,0,0,1,.31.13A0.39,0.39,0,0,1,118.74,62.71Zm3.11,0.91a0.86,0.86,0,0,1-.58.59l-1.69.81A15.72,15.72,0,0,1,121.22,67a2.42,2.42,0,0,1,.52,1.1,0.48,0.48,0,0,1-.13.33,0.38,0.38,0,0,1-.29.14,0.38,0.38,0,0,1-.31-0.21q-0.33-.53-0.95-1.49a8.32,8.32,0,0,0-1.17-1.31l-0.27-.24a0.61,0.61,0,0,1-.13-0.39,0.43,0.43,0,0,1,.28-0.36l0.78-.36q0.38-.18,1.21-0.67a1.85,1.85,0,0,1,.67-0.29A0.37,0.37,0,0,1,121.85,63.62Z"/><path class="cls-4" d="M124.08,68a0.74,0.74,0,0,1-.2.54,0.7,0.7,0,0,1-.52.2,0.62,0.62,0,0,1-.47-0.2,0.7,0.7,0,0,1-.18-0.5,0.65,0.65,0,0,1,.2-0.48,0.68,0.68,0,0,1,.5-0.2A0.58,0.58,0,0,1,124.08,68Z"/><path class="cls-4" d="M129.2,64a30.55,30.55,0,0,1-.19,4,2.58,2.58,0,0,1-.17.71,0.4,0.4,0,0,1-.39.24,0.42,0.42,0,0,1-.3-0.12,0.39,0.39,0,0,1-.12-0.29s0-.09.07-0.31a8,8,0,0,0,.14-0.86,15,15,0,0,0,.07-1.54q0-.37,0-0.78c0-.27,0-0.42,0-0.45a2.43,2.43,0,0,1,.1-0.85A0.42,0.42,0,0,1,129.2,64Zm0.19-1.72a0.61,0.61,0,0,1-1,.47,0.59,0.59,0,0,1-.17-0.42,0.63,0.63,0,0,1,.19-0.46,0.62,0.62,0,0,1,.46-0.19,0.53,0.53,0,0,1,.41.17A0.63,0.63,0,0,1,129.4,62.27Z"/><path class="cls-4" d="M134.93,66a6.86,6.86,0,0,1-.35,2.14,0.74,0.74,0,0,1-.53.66,0.42,0.42,0,0,1-.29-0.11,0.33,0.33,0,0,1-.12-0.26s0.07-.3.21-0.82a5.93,5.93,0,0,0,.21-1.56q0-1.76-1.08-1.76a1.26,1.26,0,0,0-1,.47,1.89,1.89,0,0,0-.41,1.27,8.48,8.48,0,0,0,.12,1.22,8.36,8.36,0,0,1,.12,1.12q0,0.78-.44.78a0.39,0.39,0,0,1-.31-0.1,0.72,0.72,0,0,1-.11-0.32q0-.28-0.11-1.62-0.18-1.87-.18-2.66,0-1.37.52-1.37a0.43,0.43,0,0,1,.29.11,0.32,0.32,0,0,1,.12.25,2.39,2.39,0,0,1-.05.37,2.56,2.56,0,0,0-.05.47v0.1a1.93,1.93,0,0,1,1.6-.91,1.58,1.58,0,0,1,1.35.65A3.11,3.11,0,0,1,134.93,66Z"/><path class="cls-4" d="M140.37,66a6.84,6.84,0,0,1-.35,2.14,0.74,0.74,0,0,1-.53.66,0.42,0.42,0,0,1-.29-0.11,0.33,0.33,0,0,1-.12-0.26s0.07-.3.21-0.82a5.88,5.88,0,0,0,.21-1.56q0-1.76-1.08-1.76a1.26,1.26,0,0,0-1,.47,1.89,1.89,0,0,0-.41,1.27,8.49,8.49,0,0,0,.12,1.22,8.31,8.31,0,0,1,.12,1.12q0,0.78-.44.78a0.39,0.39,0,0,1-.31-0.1,0.71,0.71,0,0,1-.11-0.32q0-.28-0.11-1.62-0.18-1.87-.18-2.66,0-1.37.52-1.37a0.43,0.43,0,0,1,.29.11,0.32,0.32,0,0,1,.12.25,2.39,2.39,0,0,1-.05.37,2.55,2.55,0,0,0-.05.47v0.1a1.93,1.93,0,0,1,1.6-.91,1.58,1.58,0,0,1,1.35.65A3.11,3.11,0,0,1,140.37,66Z"/><path class="cls-4" d="M146.24,65.84a2.91,2.91,0,0,1-.77,2.12,2.71,2.71,0,0,1-2,.79,2,2,0,0,1-1.66-.73,3.13,3.13,0,0,1-.6-2,3,3,0,0,1,.72-2.13,2.6,2.6,0,0,1,2-.75,2.16,2.16,0,0,1,1.71.75A2.93,2.93,0,0,1,146.24,65.84Zm-0.88,0a2.13,2.13,0,0,0-.43-1.42,1.47,1.47,0,0,0-1.19-.51q-1.68,0-1.68,2a2.47,2.47,0,0,0,.37,1.45,1.21,1.21,0,0,0,1,.51,1.79,1.79,0,0,0,1.38-.55A2.17,2.17,0,0,0,145.36,65.85Z"/><path class="cls-4" d="M151.05,63.45a5.51,5.51,0,0,1-.19,1.16q-0.21.86-.32,1.2a14.84,14.84,0,0,1-.82,2.05,1.75,1.75,0,0,1-1,1.17,0.53,0.53,0,0,1-.39-0.51L148,67.12a18.73,18.73,0,0,0-1.34-3.34l-0.18-.32a0.57,0.57,0,0,1-.09-0.28,0.36,0.36,0,0,1,.4-0.41q0.45,0,1,1.19a27.53,27.53,0,0,1,1.2,3.56,13.71,13.71,0,0,0,1.14-3.79c0.07-.41.12-0.64,0.14-0.7a0.34,0.34,0,0,1,.35-0.24Q151.05,62.8,151.05,63.45Z"/><path class="cls-4" d="M155.76,66.38a10.16,10.16,0,0,1-.36,2.59,0.7,0.7,0,0,1-.53.68,0.35,0.35,0,0,1-.36-0.42,0.8,0.8,0,0,1,0-.14,1.93,1.93,0,0,1-.94.25,1.79,1.79,0,0,1-1.34-.49,1.89,1.89,0,0,1-.48-1.38,1.94,1.94,0,0,1,.52-1.43,1.86,1.86,0,0,1,1.38-.53,1.73,1.73,0,0,1,1.27.51q-0.08-1.78-1.3-1.78a1.24,1.24,0,0,0-.58.17,1.23,1.23,0,0,1-.4.16,0.36,0.36,0,0,1-.27-0.13,0.41,0.41,0,0,1-.12-0.29,0.63,0.63,0,0,1,.39-0.5,1.89,1.89,0,0,1,1-.25Q155.76,63.41,155.76,66.38Zm-0.9,1.06a1,1,0,0,0-1.06-1.15,1.14,1.14,0,1,0,0,2.29,1,1,0,0,0,.79-0.3A1.17,1.17,0,0,0,154.86,67.44Z"/><path class="cls-4" d="M160.6,64.91a0.39,0.39,0,0,1-.1.27,0.3,0.3,0,0,1-.23.11,2.8,2.8,0,0,1-.51-0.18,2.33,2.33,0,0,0-.86-0.18l-0.28,0a6.23,6.23,0,0,0-.16,1.35,2.33,2.33,0,0,0,.26,1.22,0.82,0.82,0,0,0,.73.42,1.09,1.09,0,0,0,.38-0.09,1.07,1.07,0,0,1,.34-0.09,0.35,0.35,0,0,1,.36.42,0.51,0.51,0,0,1-.29.45,1.59,1.59,0,0,1-.8.17q-1.89,0-1.89-2.55a6.11,6.11,0,0,1,.13-1.18l-0.54.1a2.26,2.26,0,0,1-.4.05,0.38,0.38,0,0,1-.48-0.37q0-.51,1.64-0.66a1.22,1.22,0,0,1,.83-1.09,0.34,0.34,0,0,1,.26.11,0.37,0.37,0,0,1,.11.27,0.89,0.89,0,0,1-.07.3l-0.13.36Q160.6,64.2,160.6,64.91Z"/><path class="cls-4" d="M165.56,65.26a0.79,0.79,0,0,1-.32.7,3.52,3.52,0,0,1-.9.26,8.59,8.59,0,0,1-1.72.21c-0.22,0-.48,0-0.78,0q0,1.7,1.28,1.7a1.07,1.07,0,0,0,.64-0.2,4.55,4.55,0,0,0,.51-0.48,0.39,0.39,0,0,1,.28-0.14,0.43,0.43,0,0,1,.32.14,0.49,0.49,0,0,1,.14.35,0.47,0.47,0,0,1-.13.32,2.35,2.35,0,0,1-1.79.85q-2.13,0-2.13-2.5a3.69,3.69,0,0,1,.68-2.22,2.28,2.28,0,0,1,1.9-1.06,1.93,1.93,0,0,1,1.46.6A2.12,2.12,0,0,1,165.56,65.26Zm-0.88.05a1.65,1.65,0,0,0-.32-1,0.92,0.92,0,0,0-.74-0.37,1.43,1.43,0,0,0-1,.42,2.57,2.57,0,0,0-.68,1.2,5.9,5.9,0,0,0,.67,0A9,9,0,0,0,164.68,65.32Z"/></svg>