<?xml version="1.0" encoding="utf-8"?>
<!-- Generator: Adobe Illustrator 23.0.3, SVG Export Plug-In . SVG Version: 6.00 Build 0)  -->
<svg version="1.1" id="f2bc9451-e723-465e-b620-9596b3094207"
	 xmlns="http://www.w3.org/2000/svg" xmlns:xlink="http://www.w3.org/1999/xlink" x="0px" y="0px" viewBox="0 0 768 768"
	 style="enable-background:new 0 0 768 768;" xml:space="preserve">
<style type="text/css">
	.st0{fill:#FFFFFF;}
</style>
<g>
	<circle class="st0" cx="388" cy="389" r="89.6"/>
	<path class="st0" d="M680.3,322.7l-98.8-107.2c-95.7-106.9-259.9-116-366.7-20.3c-7.1,6.4-13.9,13.2-20.3,20.3L95.7,322.7
		c-34.4,34-37.1,88.7-6.2,125.9l0.1,0.2c1.9,2.3,3.9,4.5,6,6.6l98.8,107.2c5.9,6.6,12.2,12.9,18.7,18.8V394.9
		c-0.1-2-0.1-3.9-0.1-5.9c0-96.5,78.5-174.9,174.9-174.9S563,292.5,563,389s-78.5,175-175,175c-31.5,0-62.4-8.5-89.5-24.7v94
		c99.9,36.6,212,8.6,283-70.6l98.8-107.2c2.1-2.1,4.1-4.3,6-6.6l0.1-0.1c13.9-16.7,21.6-37.8,21.5-59.6
		C708.1,364.1,698.1,340.2,680.3,322.7z"/>
</g>
</svg>
