<svg xmlns="http://www.w3.org/2000/svg" viewBox="0 0 1050 200"><path d="M252.7 55.1h16v9.2c7.1-7.9 18.3-11.1 28.7-11.1 27.9 0 43.2 22.4 43.2 47.7 0 25.6-15.2 47.7-43.6 47.7-10.8 0-21.3-3.1-28.3-11v47.1h-25.4V64.5a9.39 9.39 0 0 1 9.4-9.4zm63.2 45.8c0-15.2-7.6-27.1-24.5-27.1-17 0-24.8 11.6-24.8 27.1s7.9 27.4 24.8 27.4 24.5-12.2 24.5-27.4zm38.8 9.2V64.5a9.39 9.39 0 0 1 9.4-9.4H379v52.2c0 12 6.7 20.6 19.3 20.6 13.8 0 22.7-6.8 22.7-22.7V64.5a9.39 9.39 0 0 1 9.4-9.4h15v91.6H421V136c-8.1 9.1-19.8 12.6-29.8 12.6-26.4 0-36.5-19.3-36.5-38.5zm120.1-55h16v9.2c7.1-7.9 18.3-11.1 28.7-11.1 27.9 0 43.2 22.4 43.2 47.7 0 25.6-15.2 47.7-43.6 47.7-10.8 0-21.3-3.1-28.3-11v47.1h-25.4V64.5a9.39 9.39 0 0 1 9.4-9.4zm63.2 45.8c0-15.2-7.6-27.1-24.5-27.1s-24.8 11.6-24.8 27.1 7.9 27.4 24.8 27.4 24.4-12.2 24.5-27.4zm51.6-83.7h7a9.39 9.39 0 0 1 9.4 9.4v1.8a9.39 9.39 0 0 1-9.4 9.4h-7a9.39 9.39 0 0 1-9.4-9.4v-1.8a9.39 9.39 0 0 1 9.4-9.4zm.6 37.9h15.2v91.6h-24.7V64.5c.1-5.2 4.3-9.4 9.5-9.4zm37.4 73.4v-102a9.39 9.39 0 0 1 9.4-9.4h15.2v105.2c0 4.3 3.1 6.1 8.1 6.1 2.3 0 4.5-.2 6.7-.5v18.8c-6.1 1.1-12.2 1.7-18.4 1.8-11.6.1-21.1-3.9-21-20zm61.9-54.7H671v-9.3c0-5.2 4.2-9.3 9.3-9.4h9.2V42.8c0-17.8 15.2-27.6 32.2-27.6 6.3.1 12.5 1.3 18.3 3.8l-8 18.4c-2.4-1.4-5.1-2.2-7.9-2.3-4.9 0-9.2 2.8-9.2 10v10h23.5v18.7h-23.5v72.9h-25.4V73.8zm75.9-56.7h7a9.39 9.39 0 0 1 9.4 9.4v1.8a9.39 9.39 0 0 1-9.4 9.4h-7.1a9.39 9.39 0 0 1-9.4-9.4v-1.8c0-5.2 4.2-9.4 9.5-9.4zm.6 38h15.2v91.6h-24.6V64.5a9.39 9.39 0 0 1 9.4-9.4zm47.6 0h14.6v15.4c4.4-11.1 15.7-17.3 27-17.3 6.7 0 13.6 2.1 18.5 6.6l-11.2 18.3c-3.3-2-7.1-3.1-11-3.1-11.5 0-23.5 9.7-23.5 33v38.7h-23.9V64.5c0-5.2 4.2-9.4 9.5-9.4zm63.2 65.6l14-5.6c2.7 6.6 8.1 15 21.5 15 11.4 0 16.3-6.1 16.3-10.9 0-15.4-50.6-5-50.6-37.4 0-19.4 18-28.5 37.4-28.5 14.4 0 26 5.2 33.9 14.1 2.1 2.3 1.9 5.9-.4 8-.4.3-.8.6-1.3.9l-13 6.5c-3.4-5.7-9.1-11.6-20-11.6-8.1 0-13 3.6-13 7.9 0 13.8 51.3 5.6 51.3 39.2 0 21.2-20.3 30.5-39.4 30.5-18.1 0-32.5-8.4-39.4-19.8-1.6-2.7-.8-6.1 1.8-7.8.4-.3.7-.4.9-.5zm103.3.7V73.9h-16.2v-9.3a9.39 9.39 0 0 1 9.4-9.4h7.3V37.4c0-3.2 1.6-6.2 4.2-7.9l20-13.2v38.8h25.2v18.7h-25.2v43.7c0 8.8 4.7 11.4 11.2 11.4 4.8-.2 9.6-1.3 14-3.3v20.3c-5.9 1.8-12.1 2.8-18.4 2.8-19.7-.1-31.5-10.6-31.5-27.3zM110.6 78.9c13.6 0 24.6 11 24.6 24.6s-11 24.6-24.6 24.6C97 128 86 117 86 103.4s11-24.5 24.6-24.5zm83.6 4.6C177 61.7 146 30.1 110.6 30.1S44.1 61.7 27 83.4c-9.2 11.7-9.2 28.2 0 39.9 8.5 10.7 20.3 23.9 34.4 34.4v-54.4c0-27.2 22-49.2 49.1-49.3 27.2 0 49.2 22 49.3 49.1s-22 49.2-49.1 49.3c-8.7 0-17.2-2.3-24.7-6.6v25.9c7.8 3.1 16.1 4.8 24.6 4.9 35.4 0 66.4-31.6 83.6-53.3 9.2-11.7 9.2-28.1 0-39.8z" fill="#4d1e9a"/></svg>