<?xml version="1.0" encoding="utf-8"?>
<!-- Generator: Adobe Illustrator 23.0.3, SVG Export Plug-In . SVG Version: 6.00 Build 0)  -->
<svg version="1.1" id="bf320610-4785-4e09-ab31-1e3774acf5dc"
	 xmlns="http://www.w3.org/2000/svg" xmlns:xlink="http://www.w3.org/1999/xlink" x="0px" y="0px" viewBox="0 0 1631.4 315.9"
	 style="enable-background:new 0 0 1631.4 315.9;" xml:space="preserve">
<style type="text/css">
	.st0{fill:#FFFFFF;}
</style>
<title>pupilfirst-logo-white</title>
<g>
	<path class="st0" d="M389.2,87.7h25.1v14.4c11.1-12.4,28.6-17.4,45-17.4c43.7,0,67.7,35,67.7,74.7c0,40.1-23.8,74.7-68.3,74.7
		c-16.9,0-33.3-4.9-44.4-17.3v73.9h-39.8V102.4C374.4,94.4,381.1,87.7,389.2,87.7L389.2,87.7z M488.1,159.4
		c0-23.8-11.9-42.4-38.4-42.4s-38.8,18.3-38.8,42.4s12.3,43,38.8,43S488.1,183.2,488.1,159.4z"/>
	<path class="st0" d="M549,174v-71.5c0-8.2,6.6-14.7,14.7-14.7h23.4v81.8c0,18.8,10.4,32.3,30.2,32.3c21.6,0,35.6-10.7,35.6-35.7
		v-63.7c0-8.2,6.6-14.7,14.7-14.7h23.5v143.6h-38.3v-16.9c-12.6,14.2-31,19.7-46.7,19.7C564.8,234.1,549,204,549,174z"/>
	<path class="st0" d="M737.1,87.7h25.1v14.4c11.1-12.4,28.6-17.4,45-17.4c43.7,0,67.7,35,67.7,74.7c0,40.1-23.8,74.7-68.3,74.7
		c-16.9,0-33.4-4.9-44.4-17.3v73.9h-39.8V102.4C722.4,94.4,729,87.7,737.1,87.7z M836.1,159.4c0-23.8-11.9-42.4-38.4-42.4
		s-38.9,18.3-38.9,42.4s12.3,43,38.9,43C824.3,202.4,836.1,183.2,836.1,159.4z"/>
	<path class="st0" d="M916.9,28.2h11c8.2,0,14.7,6.6,14.7,14.7c0,0,0,0,0,0.1v2.8c0,8.2-6.6,14.7-14.7,14.7h-11
		c-8.2,0-14.7-6.6-14.7-14.7V43C902.1,34.9,908.7,28.2,916.9,28.2C916.8,28.2,916.9,28.2,916.9,28.2z M917.7,87.7h23.8v143.6h-38.5
		V102.4C903.1,94.4,909.7,87.7,917.7,87.7z"/>
	<path class="st0" d="M976.4,202.7V43c0-8.2,6.6-14.7,14.7-14.7h23.8v164.8c0,6.7,4.9,9.7,12.6,9.7c3.6-0.1,7.1-0.3,10.7-0.9v29.5
		c-9.5,1.7-19.1,2.7-28.8,2.8C991.2,234.1,976.4,227.9,976.4,202.7z"/>
	<path class="st0" d="M1073.4,117h-28.9v-14.6c0-8.2,6.6-14.7,14.7-14.7h14.5V68.5c0-27.8,23.8-43.3,50.4-43.3
		c9.8,0.1,19.6,2.1,28.6,5.9L1140,60c-3.8-2.2-7.9-3.4-12.3-3.6c-7.7,0-14.6,4.5-14.6,15.7v15.7h36.8V117h-36.7v114.2h-39.8V117z"/>
	<path class="st0" d="M1192.3,28.2h11c8.2,0,14.7,6.6,14.7,14.7c0,0,0,0,0,0.1v2.8c0,8.2-6.6,14.7-14.7,14.7l0,0h-11
		c-8.2,0-14.7-6.6-14.7-14.7l0,0V43C1177.5,34.9,1184,28.2,1192.3,28.2C1192.2,28.2,1192.3,28.2,1192.3,28.2z M1193.3,87.7h23.8
		v143.6h-38.6V102.4C1178.5,94.4,1185.1,87.7,1193.3,87.7C1193.1,87.7,1193.1,87.7,1193.3,87.7z"/>
	<path class="st0" d="M1267.8,87.7h22.8v24.1c6.7-17.4,24.7-27.2,42.3-27.2c10.4,0,21.3,3.3,28.9,10.3l-17.5,28.7
		c-5.2-3.2-11.1-4.9-17.2-4.9c-18.1,0-36.8,15.2-36.8,51.8v60.6h-37.3V102.4C1253,94.4,1259.5,87.7,1267.8,87.7
		C1267.7,87.7,1267.7,87.7,1267.8,87.7z"/>
	<path class="st0" d="M1367,190.4l22-8.8c4.2,10.3,12.6,23.6,33.7,23.6c17.8,0,25.6-9.5,25.6-17.1c0-24.1-79.3-7.9-79.3-58.6
		c0-30.3,28.2-44.7,58.6-44.7c22.6,0,40.7,8.2,53.1,22c3.3,3.6,2.9,9.2-0.7,12.5c-0.5,0.5-1.3,1-2,1.3l-20.4,10.1
		c-5.3-8.9-14.2-18.3-31.3-18.3c-12.6,0-20.3,5.5-20.3,12.4c0,21.6,80.3,8.8,80.3,61.5c0,33.2-31.8,47.9-61.7,47.9
		c-28.4,0-51-13.3-61.8-30.9c-2.6-4.1-1.2-9.7,2.9-12.2C1366.1,190.9,1366.5,190.6,1367,190.4z"/>
	<path class="st0" d="M1528.7,191.6V117h-25.5v-14.6c0-8.2,6.6-14.7,14.7-14.7l0,0h11.3V60.1c0-5,2.5-9.6,6.6-12.3l31.3-20.7v60.7
		h39.5V117h-39.5v68.4c0,13.8,7.4,17.8,17.5,17.8c8,0,16.8-2.8,22-5.2v31.8c-9.4,2.8-19,4.4-28.7,4.4
		C1547.2,234.1,1528.7,217.7,1528.7,191.6z"/>
	<circle class="st0" cx="166.5" cy="163.3" r="39.7"/>
	<path class="st0" d="M308.3,163.3c0-11-4.5-21.6-12.3-29.4l0,0l-43.7-47.5l0,0c-42.4-47.3-115.1-51.3-162.5-9c-3.2,2.8-6.2,5.9-9,9
		l0,0L36.9,134l0,0c-15.2,15.1-16.4,39.3-2.7,55.8l0,0l0.1,0.1c0.9,1,1.7,2,2.7,2.9l43.7,47.5l0,0c2.6,2.9,5.3,5.7,8.3,8.4v-82.7
		c0-0.9-0.1-1.7-0.1-2.6c0-42.9,34.7-77.7,77.6-77.7s77.7,34.7,77.7,77.6S209.4,241,166.6,241c-14,0-27.7-3.8-39.8-11v41.7
		c44.3,16.2,94,3.8,125.4-31.3l0,0l43.7-47.5c1-1,1.8-1.8,2.7-2.9v-0.1l0,0C304.9,182.4,308.3,173,308.3,163.3z"/>
</g>
</svg>
