<svg id="bf320610-4785-4e09-ab31-1e3774acf5dc" data-name="Layer 1" xmlns="http://www.w3.org/2000/svg" viewBox="0 0 1631.36 315.91"><title>pupilfirst-logo-white</title><path d="M482.68,47.14c-23.5,0-47.8,4.9-66.7,13.5l-.6.2v185.9l.7.2a90,90,0,0,0,41.3,0l.7-.2v-67.1c7.4,2.1,18.4,3.5,28.6,3.5,45.5,0,71.6-24.9,71.6-68.2C558.38,71.84,530.68,47.14,482.68,47.14Zm34.2,66.2c0,23.4-11.9,34.7-36.5,34.7a91.07,91.07,0,0,1-22.7-2.8V84.94a87.2,87.2,0,0,1,26.4-4.1c21.8.1,32.8,11,32.8,32.5Z" fill="#fff"/><path d="M675.18,99.64l-.7.2v110.5a106.94,106.94,0,0,1-31.3,4.7c-17.9,0-26.6-7.4-26.6-22.7V99.84l-.7-.2a88.91,88.91,0,0,0-40.4,0l-.7.2v99.5c0,34.4,22.3,51.8,66.2,51.8a201.39,201.39,0,0,0,75.1-14.4l.6-.2V99.84l-.7-.2A90.66,90.66,0,0,0,675.18,99.64Z" fill="#fff"/><path d="M809.68,95.54c-26.1,0-52.5,7.3-72.2,20l-.4.3v182.9l.7.2a86.63,86.63,0,0,0,40.5,0l.7-.2v-58.3c9.8,6.9,23.2,10.7,38.1,10.7,42.2,0,66.5-29,66.5-79.7C883.58,121.74,858,95.54,809.68,95.54Zm31.5,76c0,29.9-10,43.3-32.3,43.3-11.6,0-22.6-4.3-30.3-11.8v-65.9c7.4-3.8,17.7-5.9,28.3-5.9C830.68,131.34,841.18,143.74,841.18,171.54Z" fill="#fff"/><path d="M942,41.74l-.5-.1a75.05,75.05,0,0,0-39.9,0l-.5.1-.2.5a51.16,51.16,0,0,0,0,31.9l.2.5.5.1a81.24,81.24,0,0,0,39.8,0l.5-.1.2-.5a51.16,51.16,0,0,0,0-31.9Z" fill="#fff"/><path d="M901.78,97.74l-1.2-.3v149.3l.7.2a82.08,82.08,0,0,0,40.6,0l.7-.2V97.44l-1.2.3A88.24,88.24,0,0,1,901.78,97.74Z" fill="#fff"/><path d="M1036.18,211.44l-.6-.5-.6.4c-5,3.7-10.3,5.7-15.4,5.7-8.2,0-11.4-4.2-11.4-15V46l-.7-.2a86.63,86.63,0,0,0-40.5,0l-.7.2v164.9c0,26.6,13.8,40.1,41.1,40.1,15.1,0,29-5.1,38.1-14l.2-.2v-.4C1046.58,226.14,1043.08,217,1036.18,211.44Z" fill="#fff"/><path d="M1190.58,49.94h-128.3v196.8l.7.2a90,90,0,0,0,41.3,0l.7-.2v-77.5h75.7l.2-.6a54.75,54.75,0,0,0,0-33.5l-.2-.6H1105V85.84h85.6l.2-.7a58,58,0,0,0,0-34.5Z" fill="#fff"/><path d="M1253.08,41.74l-.5-.1a75.05,75.05,0,0,0-39.9,0l-.5.1-.2.5a51.16,51.16,0,0,0,0,31.9l.2.5.5.1a81.24,81.24,0,0,0,39.8,0l.5-.1.2-.5a51.16,51.16,0,0,0,0-31.9Z" fill="#fff"/><path d="M1212.78,97.74l-1.2-.3v149.3l.7.2a82.08,82.08,0,0,0,40.6,0l.7-.2V97.44l-1.2.3A88.24,88.24,0,0,1,1212.78,97.74Z" fill="#fff"/><path d="M1375.18,101.64l-.5-.2c-8.8-3.9-20.5-6.1-32.8-6.1-20.8,0-44.7,7.1-67.4,20l-.5.3v131.2l.7.2a86.63,86.63,0,0,0,40.5,0l.7-.2V141.44c9.3-5.6,19.2-8.6,28.7-8.6a39.41,39.41,0,0,1,18.7,4.8l.7.4.5-.6c7.5-9.5,11.4-22.3,10.7-35.2Z" fill="#fff"/><path d="M1448.68,154.74c-13.6-4.4-24.4-7.9-24.4-15.1,0-6.3,7.2-10.1,19.3-10.1,11.2,0,21.7,3.9,28,10.5l.4.4.6-.2c11.8-3.6,20-12,22.4-22.9l.1-.5-.3-.4c-11.2-13.3-31.3-21.2-53.8-21.2-34.9,0-58.3,17.9-58.3,44.6,0,29.7,27.4,39.3,49.4,47,13.5,4.7,25.2,8.8,25.2,16.3,0,7.7-9.9,12.3-26.6,12.3a127.45,127.45,0,0,1-43.6-8l-.6-.2-.4.4c-7.8,7.9-11.5,19.2-10.1,31l.1.5.5.2c16.7,7.3,38.2,11.5,59.2,11.5,39,0,64.2-18.5,64.2-47C1500,171.24,1470.38,161.64,1448.68,154.74Z" fill="#fff"/><path d="M1598,211.64l2-1.1h-6.4l1,.8c-7.4,3.9-14.3,5.8-20.6,5.8-10.6,0-15.1-5.7-15.1-19.1v-67.3h33.9l.3-.5a60.16,60.16,0,0,0,7.2-31.1v-.9H1559V57.64l-1.3.5a89.58,89.58,0,0,0-40.5,31.4l-.2.2v116.1c0,29.1,15.7,45.1,44.2,45.1,17,0,33.4-5.3,45.1-14.4l.3-.2v-.4C1607.38,226.74,1604,217.24,1598,211.64Z" fill="#fff"/><path d="M288.88,238.34l.2-.2,53.4-58c1-1,2-2.1,2.9-3.2l.1-.1h0a44.77,44.77,0,0,0-3-60.4h0l-53.6-58.2h0a133.62,133.62,0,0,0-188.8-8.8,142.13,142.13,0,0,0-11.5,11.8h-.1L39,115.54a49.77,49.77,0,0,0-4.9,5.4l-.1.1h0a44.65,44.65,0,0,0,4,59.1h0l48.3,52.5h0c1.1,1.4,2.3,2.7,3.4,4.1v-88.4a100.35,100.35,0,1,1,100.4,100.3,98,98,0,0,1-33.5-5.8v-36.6a66.84,66.84,0,1,0-24.5-91.3,67.7,67.7,0,0,0-9,33.4h0v115.8A133.7,133.7,0,0,0,288.18,239h0Zm-132.3-90a33.4,33.4,0,1,1,33.4,33.4h0a33.33,33.33,0,0,1-33.4-33.4Z" fill="#fff"/></svg>