<svg xmlns="http://www.w3.org/2000/svg" viewBox="0 0 768 768"><path d="M384 297.2c48 0 86.8 38.9 86.8 86.8S432 470.8 384 470.8 297.2 432 297.2 384s38.8-86.8 86.8-86.8zm295.5 16.3C618.9 236.8 509.2 125 384 125S149.1 236.8 88.5 313.5c-32.6 41.3-32.6 99.7 0 141 29.9 37.9 71.9 84.4 121.8 121.7V383.9c0-95.9 77.8-173.6 173.7-173.6S557.7 288.1 557.7 384 479.9 557.7 384 557.7c-31.7 0-61.3-8.6-86.8-23.4v91.4C324.9 636.5 354 643 384 643c125.2 0 234.9-111.8 295.5-188.5 32.6-41.3 32.6-99.7 0-141z" fill="#4d1e9a"/></svg>