<svg id="b9ab952d-cc26-4cdf-bb65-73753aec553c" data-name="Layer 1" xmlns="http://www.w3.org/2000/svg" viewBox="0 0 1280 1104"><title>Artboard 1 copy</title><path d="M914.15,802.18l.45-.49L1063,640.49q4.24-4.18,8.07-8.77l.18-.19h0a124.33,124.33,0,0,0-8.2-168h0l-149-161.81h0A370.65,370.65,0,0,0,639.35,180.37c-112.81,0-213.81,50.33-282,129.69l-.15,0L219.63,461A123.66,123.66,0,0,0,206,476l-.22.23,0,0A124.29,124.29,0,0,0,217,640.49h0l134.13,146,0-.08c3.11,3.82,6.28,7.6,9.54,11.3V552c0-153.69,125-278.72,278.72-278.72S918.08,398.31,918.08,552,793,830.72,639.35,830.72a277.25,277.25,0,0,1-92.91-16V712.9a184.93,184.93,0,0,0,92.91,24.92c102.62,0,185.82-83.2,185.82-185.82S742,366.18,639.35,366.18,453.58,449.33,453.54,551.92h0V873.79A371.39,371.39,0,0,0,912.45,804l0,.11ZM546.44,552a92.91,92.91,0,1,1,92.91,92.91A93,93,0,0,1,546.44,552Z" fill="#4519a5"/></svg>