<svg id="f2bc9451-e723-465e-b620-9596b3094207" data-name="b9ab952d-cc26-4cdf-bb65-73753aec553c" xmlns="http://www.w3.org/2000/svg" viewBox="0 0 920 768"><title>pupilfirst-logo-icon-on_dark</title><path d="M728.17,628.72l.45-.48L873.79,470.55q4.14-4.08,7.89-8.58l.18-.18h0a121.64,121.64,0,0,0-8-164.35h0L728.08,139.15h0A362.63,362.63,0,0,0,459.35,20.44C349,20.44,250.2,69.68,183.49,147.31h-.15L48.77,295a121.21,121.21,0,0,0-13.34,14.67l-.21.23h0a121.58,121.58,0,0,0,11,160.68h0L177.41,613.37v-.07c3,3.73,6.14,7.43,9.33,11.05V384c0-150.35,122.28-272.66,272.65-272.66S732,233.64,732,384,609.66,656.64,459.35,656.64A271.14,271.14,0,0,1,368.47,641v-99.6a180.82,180.82,0,0,0,90.88,24.37c100.39,0,181.78-81.39,181.78-181.77a181.77,181.77,0,0,0-363.54-.08h0V698.78A363.32,363.32,0,0,0,726.51,630.5v.11ZM368.47,384a90.89,90.89,0,1,1,90.88,90.89A90.88,90.88,0,0,1,368.47,384Z" fill="#fff"/></svg>