<svg id="Layer_1" data-name="Layer 1" xmlns="http://www.w3.org/2000/svg" viewBox="0 0 360 200"><defs><style>.cls-1{opacity:0.6;}.cls-2{fill:#414042;}.cls-3,.cls-5{opacity:0.7;}.cls-4{fill:#bcbec0;}.cls-5{fill:#e6e7e8;}.cls-6{fill:#59a1c6;}.cls-7{fill:#f9d657;}.cls-8{fill:#64cdf2;}.cls-9{fill:#bac4c6;}.cls-10{fill:#d8d8d8;}.cls-11{fill:#30241c;}.cls-12{fill:#37a0c4;}.cls-12,.cls-13{fill-rule:evenodd;}.cls-13,.cls-14{fill:#4eb9f3;}.cls-15{fill:#fff;}</style></defs><title>story-illustration</title><g class="cls-1"><path class="cls-2" d="M17.36,151.67a1.83,1.83,0,1,1,1.83-1.83,1.84,1.84,0,0,1-1.83,1.83m0-2.42a.58.58,0,1,0,.58.58.58.58,0,0,0-.58-.58"/></g><g class="cls-3"><rect class="cls-2" x="222.82" y="50.36" width="13.97" height="1.25"/></g><g class="cls-1"><rect class="cls-2" x="55.36" y="90.23" width="13.97" height="1.25"/></g><g class="cls-1"><rect class="cls-2" x="73.65" y="90.23" width="2.25" height="1.25"/></g><g class="cls-3"><path class="cls-2" d="M317.64,104.67h-.92a1.42,1.42,0,0,1-1.41-1.42v-.74a6.34,6.34,0,0,1-1-.43l-.53.52a1.4,1.4,0,0,1-1,.41h0a1.41,1.41,0,0,1-1-.42l-.64-.65a1.42,1.42,0,0,1,0-2l.53-.53a6.17,6.17,0,0,1-.43-1h-.74A1.42,1.42,0,0,1,309.06,97V96a1.41,1.41,0,0,1,.42-1,1.48,1.48,0,0,1,1-.41h.74a6.25,6.25,0,0,1,.43-1l-.52-.53a1.42,1.42,0,0,1,0-2l.65-.64a1.39,1.39,0,0,1,1-.41,1.41,1.41,0,0,1,1,.42l.52.53a6.26,6.26,0,0,1,1-.41V89.8a1.42,1.42,0,0,1,1.42-1.42h.91a1.42,1.42,0,0,1,1.42,1.42v.74a6.21,6.21,0,0,1,1,.43l.53-.53a1.42,1.42,0,0,1,2,0l.65.65a1.41,1.41,0,0,1,0,2l-.52.53a6.24,6.24,0,0,1,.43,1h.74a1.41,1.41,0,0,1,1.41,1.41V97a1.42,1.42,0,0,1-1.42,1.42h-.74a6.3,6.3,0,0,1-.43,1l.52.53a1.41,1.41,0,0,1,0,2l-.64.64a1.43,1.43,0,0,1-2,0l-.53-.53a6.11,6.11,0,0,1-1,.43v.75a1.42,1.42,0,0,1-1.42,1.41m-3.55-4.18.42.27a5,5,0,0,0,1.57.66l.49.11v1.72a.17.17,0,0,0,0,.12.16.16,0,0,0,.11,0h.92a.16.16,0,0,0,.16-.16v-1.73l.49-.11a5,5,0,0,0,1.57-.65l.42-.27,1.21,1.23a.17.17,0,0,0,.24,0l.64-.64a.16.16,0,0,0,.05-.12.15.15,0,0,0,0-.11l-1.21-1.23.26-.42a5,5,0,0,0,.65-1.57l.11-.49h1.72a.17.17,0,0,0,.16-.17v-.91a.16.16,0,0,0-.16-.16h-1.72l-.11-.49a5,5,0,0,0-.65-1.57l-.27-.42,1.22-1.22a.17.17,0,0,0,.05-.12.16.16,0,0,0,0-.11l-.65-.65a.17.17,0,0,0-.23,0l-1.22,1.22-.42-.27a5,5,0,0,0-1.56-.65l-.49-.11V89.8a.17.17,0,0,0-.17-.17h-.91a.17.17,0,0,0-.17.17v1.72l-.49.11a5,5,0,0,0-1.54.64l-.42.26-1.21-1.22c-.09-.09-.16-.08-.23,0L312,92a.17.17,0,0,0,0,.12.16.16,0,0,0,0,.11l1.21,1.23-.27.42a5,5,0,0,0-.65,1.56l-.11.49h-1.72a.11.11,0,0,0-.11,0,.16.16,0,0,0,0,.12V97a.17.17,0,0,0,.17.16h1.72l.11.49a5,5,0,0,0,.65,1.56l.27.42L312,100.83a.16.16,0,0,0,0,.23l.64.65a.16.16,0,0,0,.12.05h0a.16.16,0,0,0,.11,0Zm3.11-.83a3.13,3.13,0,1,1,3.13-3.14,3.14,3.14,0,0,1-3.13,3.14m0-5a1.88,1.88,0,1,0,1.88,1.88,1.88,1.88,0,0,0-1.88-1.88"/></g><g class="cls-3"><path class="cls-2" d="M317.2,108.23a11.69,11.69,0,0,1-11.7-11.7h1.25a10.46,10.46,0,0,0,6.38,9.63,10.55,10.55,0,0,0,8.14,0,10.43,10.43,0,0,0,3.32-2.24l.89.89a11.66,11.66,0,0,1-8.27,3.43"/></g><g class="cls-3"><path class="cls-2" d="M327.09,105.87l-.89-.88.33-.35.92.85-.36.38m.94-1-1-.78c.16-.21.32-.42.46-.63l1,.69c-.16.24-.33.48-.52.72m1-1.47-1.09-.61c.13-.23.25-.46.36-.71l1.13.54c-.13.27-.26.53-.4.78m.75-1.57-1.16-.48q.15-.36.28-.74l1.18.41c-.1.28-.2.55-.31.82m.57-1.66-1.21-.33c.07-.25.13-.51.18-.77l1.23.25c-.06.29-.13.57-.2.85m.35-1.71-1.24-.17q.05-.39.08-.79l1.25.09q0,.44-.09.87m.13-1.75h-1.25v-.12q0-.34,0-.67l1.25-.07c0,.25,0,.49,0,.74Zm-26-.13H303.6q0-.44,0-.87l1.25.08q0,.4,0,.8m24.62-1.46c0-.26-.07-.53-.12-.78l1.23-.23q.08.43.13.87ZM305,94.94l-1.24-.16c0-.29.08-.58.14-.86l1.23.24q-.08.39-.13.78m24.23-1.44q-.1-.39-.22-.76l1.19-.38c.09.28.17.56.24.84Zm-23.93-.12L304,93.07q.11-.42.25-.84l1.19.4c-.08.25-.16.5-.23.76M328.7,92l-.11-.27-.2-.46,1.13-.54.22.5.12.3Zm-22.94-.12-1.16-.47.07-.18q.13-.32.28-.63l1.13.55c-.09.19-.18.37-.26.57ZM328,90.56q-.19-.35-.41-.68l1.05-.68q.24.37.45.75Zm-21.57-.11-1.09-.62q.22-.38.45-.75l1,.68q-.22.33-.41.68m20.71-1.23q-.24-.32-.49-.62l1-.81c.19.22.37.45.54.69Zm-19.84-.1-1-.75c.18-.23.36-.46.55-.68l1,.81q-.26.3-.5.62M326.14,88l-.2-.21-.36-.35.85-.92.4.38.23.23Zm-17.79-.09-.89-.88.13-.13.5-.48.84.93-.45.43Zm16.62-1c-.21-.17-.42-.33-.63-.48l.73-1q.36.25.7.53Zm-15.44-.08-.78-1q.34-.27.7-.52l.71,1c-.22.15-.43.31-.64.47M323.68,86q-.34-.21-.69-.4l.59-1.11c.26.14.51.28.76.44Zm-12.84-.07-.65-1.07c.25-.15.5-.29.76-.43l.58,1.11-.69.39m11.44-.68-.26-.12-.47-.19.44-1.17.52.21.29.13Zm-10-.05-.5-1.15.17-.07.64-.25.43,1.18-.59.23Zm8.54-.51L320,84.5l.28-1.22c.29.07.57.14.85.23Zm-7.05,0-.35-1.2.85-.22.27,1.22-.77.2m5.51-.33-.79-.1.12-1.25c.29,0,.58.07.87.12Zm-4,0-.19-1.24L316,83l.12,1.25-.79.1m2.38-.14h-.79l0-1.25h.87Z"/></g><g class="cls-3"><path class="cls-2" d="M279.68,24.52a1.83,1.83,0,1,1,1.83-1.83,1.84,1.84,0,0,1-1.83,1.83m0-2.42a.58.58,0,1,0,.58.58.58.58,0,0,0-.58-.58"/></g><g class="cls-3"><rect class="cls-2" x="283.42" y="22.06" width="19.51" height="1.25"/></g><g class="cls-3"><rect class="cls-2" x="296.99" y="53.26" width="13.97" height="1.25"/></g><g class="cls-3"><rect class="cls-2" x="312.2" y="53.26" width="3.48" height="1.25"/></g><g class="cls-3"><rect class="cls-2" x="267.27" y="66.85" width="13.97" height="1.25"/></g><g class="cls-3"><rect class="cls-2" x="282.48" y="66.85" width="3.48" height="1.25"/></g><g class="cls-3"><path class="cls-4" d="M269.39,37.45a5.75,5.75,0,0,1,11-3.44,4.06,4.06,0,0,1,5.6,3.75,4.15,4.15,0,0,1-.05.62h.26a2.54,2.54,0,0,1,.22,5.07H270a3,3,0,0,1-.64-6"/></g><path class="cls-5" d="M286.12,92.06a3.37,3.37,0,0,1,6.43-2,2.38,2.38,0,0,1,3.29,2.2,2.42,2.42,0,0,1,0,.36H296a1.49,1.49,0,0,1,.13,3H286.5a1.78,1.78,0,0,1-.38-3.52"/><g class="cls-3"><rect class="cls-2" x="306.75" y="144.81" width="1.71" height="3.04" transform="translate(-13.38 260.37) rotate(-45)"/><rect class="cls-2" x="306.08" y="145.48" width="3.04" height="1.71" transform="translate(-13.38 260.37) rotate(-45)"/><rect class="cls-2" x="322.48" y="148.21" width="1.71" height="3.04" transform="translate(-11.17 272.49) rotate(-45)"/><rect class="cls-2" x="321.81" y="148.88" width="3.04" height="1.71" transform="translate(-11.17 272.5) rotate(-45)"/><path class="cls-2" d="M308.57,164a2.44,2.44,0,0,0-.5-.29c-.52-.26-1.4-.69-1.4-1.68s.88-1.42,1.4-1.68l.29-.15-.29-.15c-.52-.26-1.4-.69-1.4-1.68s.88-1.42,1.4-1.68a2.47,2.47,0,0,0,.5-.29.24.24,0,0,0,0,.14h1.71c0,1-.88,1.42-1.41,1.68l-.29.15.29.15c.53.26,1.41.69,1.41,1.68s-.88,1.42-1.41,1.68l-.29.15.29.15c.53.26,1.4.69,1.4,1.68h-1.71a.25.25,0,0,0,0,.14"/><path class="cls-2" d="M316.72,152.9a2.49,2.49,0,0,0-.5-.29c-.53-.26-1.41-.69-1.41-1.68s.88-1.42,1.4-1.68l.29-.15-.29-.15c-.52-.26-1.41-.69-1.41-1.68s.88-1.42,1.41-1.68a2.46,2.46,0,0,0,.5-.28.24.24,0,0,0,0,.14h1.71c0,1-.88,1.42-1.41,1.68l-.29.15.29.15c.52.26,1.41.69,1.41,1.68s-.88,1.42-1.41,1.68l-.29.15.29.15c.53.26,1.41.69,1.41,1.68h-1.71a.25.25,0,0,0,0,.14"/><path class="cls-2" d="M312.6,177.34h-7.72v-7.4h7.72Zm-6-1.71h4.31v-4h-4.31Z"/><path class="cls-2" d="M320.94,177.34h-7.72v-16h7.72Zm-6-1.71h4.31V163h-4.31Z"/><path class="cls-2" d="M329,177.34h-7.72V153.63H329Zm-6-1.71h4.31v-20.3H323Z"/><rect class="cls-2" x="300.1" y="175.67" width="34.1" height="1.71"/><rect class="cls-2" x="302" y="144.72" width="1.71" height="33.39"/><polygon class="cls-2" points="330.43 150.34 329.22 149.14 332.32 146 335.35 149.14 334.13 150.33 332.31 148.44 330.43 150.34"/><rect class="cls-2" x="331.43" y="147.58" width="1.71" height="27.19"/></g><g class="cls-3"><rect class="cls-6" x="249.51" y="31.37" width="3.07" height="9.34"/><rect class="cls-7" x="244.3" y="25.15" width="3.07" height="15.56"/><rect class="cls-8" x="239.11" y="28.26" width="3.07" height="12.45"/><rect class="cls-9" x="233.92" y="34.49" width="3.07" height="6.23"/><rect class="cls-10" x="228.73" y="38.64" width="3.07" height="2.08"/></g><g class="cls-1"><path class="cls-7" d="M109,32.68a9.36,9.36,0,1,1-9.36-9.36A9.36,9.36,0,0,1,109,32.68"/><rect class="cls-11" x="99.09" y="24.49" width="1.17" height="2.34"/><rect class="cls-11" x="99.09" y="38.53" width="1.17" height="2.34"/><rect class="cls-11" x="91.48" y="32.1" width="2.34" height="1.17"/><rect class="cls-11" x="105.52" y="32.1" width="2.34" height="1.17"/><rect class="cls-11" x="103.47" y="27.13" width="2.34" height="1.17" transform="translate(11.05 82.11) rotate(-45)"/><rect class="cls-11" x="93.54" y="37.06" width="2.34" height="1.17" transform="translate(1.12 78) rotate(-45)"/><rect class="cls-11" x="94.12" y="26.55" width="1.17" height="2.34" transform="translate(8.14 75.09) rotate(-45)"/><rect class="cls-11" x="104.05" y="36.48" width="1.17" height="2.34" transform="translate(4.03 85.02) rotate(-45)"/><polygon class="cls-11" points="99.05 33.5 99.05 28 100.22 28 100.22 31.87 103.54 30.74 103.92 31.85 99.05 33.5"/></g><path class="cls-12" d="M159.55,96.72l-1.29,10.69L150,142.05c-.14,2-10.11,1.87-9.57-1.39l5.39-33.12-.62-24.34"/><path class="cls-2" d="M146.08,144.21a9.67,9.67,0,0,1-5.42-1.36,2.37,2.37,0,0,1-1-2.32l5.37-33-.62-24.27,1.64,0,.62,24.42v.08l-5.39,33.12c-.09.56.6,1,1.19,1.19,2.48,1,6.35.57,6.77-.06l8.23-34.66,1.28-10.64,1.62.19-1.3,10.78-8.23,34.59a1.86,1.86,0,0,1-1.26,1.44A9,9,0,0,1,146.08,144.21Z"/><path class="cls-12" d="M169.54,42.17l9.91,16.77,16.85.44c2.63.29,1.88,7.87-1.17,8l-17.47.81a4.22,4.22,0,0,1-3.18-1.43l-5.93-6"/><path class="cls-2" d="M177.48,69a5.12,5.12,0,0,1-3.63-1.74l-5.89-6,1.16-1.15,5.93,6a3.49,3.49,0,0,0,2.54,1.19l17.49-.81c1.12-.05,1.94-2,2-3.88,0-1.36-.33-2.44-.87-2.5L179,59.74,168.84,42.58l1.41-.83,9.68,16.38,16.4.43c1.58.17,2.47,1.77,2.4,4.18-.08,2.64-1.33,5.36-3.55,5.47L177.7,69Z"/><path class="cls-13" d="M176.17,18a8.67,8.67,0,0,0-.77-3.52c-2.92-6.17-18.68-7.73-20.16,1.67-.42,2.68-.18,9.17,1,11.77a11.87,11.87,0,0,0,8,6c4.46.83,8.43-.61,10.18-5.11A35.92,35.92,0,0,0,176.17,18"/><path class="cls-2" d="M166.59,34.92a13.63,13.63,0,0,1-2.5-.24,12.64,12.64,0,0,1-8.56-6.45c-1.29-2.75-1.57-9.32-1.11-12.25.62-3.92,3.6-6.55,8.19-7.21,5-.72,11.53,1.12,13.52,5.32a9.53,9.53,0,0,1,.85,3.84,36.83,36.83,0,0,1-1.8,11.13A8.71,8.71,0,0,1,166.59,34.92ZM164.8,10.25a13.7,13.7,0,0,0-2,.14c-2.25.32-6.13,1.52-6.81,5.85-.42,2.68-.14,8.93,1,11.3a11,11,0,0,0,7.38,5.54c2.61.49,7.27.53,9.27-4.61A35.29,35.29,0,0,0,175.35,18h0a7.91,7.91,0,0,0-.69-3.19C173.41,12.15,169.09,10.25,164.8,10.25Z"/><path class="cls-13" d="M151,55.17,140,65.72s-7.26,16.48-8.5,18.92a2.9,2.9,0,0,1-3.4,1.77A24.8,24.8,0,0,1,125,84.7c-1.59-1-.91-3.76-.91-3.76l8.26-21.23s9.33-15.94,15.89-20.24c8.87-5.81,24.71-4,22.34,11.48l-5,27.57c-.3,1.62-.28,2.21,1.15,3.39l14.45,10.26c2.14,1.52,2.4,3.84,2,6.35l-5.42,31.53c-1,3.13-10.71,1.6-10.46-.58L170,102.9a1.81,1.81,0,0,0-.84-2.26c-4.25-1.83-15.52-6.14-19.27-7.88-4.46-2.06-4.68-7.2-4.71-10.14s2.52-24.31,2.52-24.31"/><path class="cls-2" d="M173.41,132.65a14.83,14.83,0,0,1-3-.32c-2.67-.57-4.11-1.64-4-2.95l2.79-26.66c.18-.84,0-1.08-.43-1.36-1.82-.78-4.89-2-8.13-3.3-4.4-1.75-8.94-3.56-11.1-4.56-5.09-2.36-5.16-8.32-5.18-10.87s1.6-16.53,2.26-22.14l-5.93,5.71c-.77,1.75-7.27,16.47-8.45,18.82a3.72,3.72,0,0,1-4.37,2.18l-.09,0a25.27,25.27,0,0,1-3.24-1.78c-2.05-1.34-1.29-4.51-1.25-4.64l0-.1,8.32-21.34c.38-.66,9.5-16.16,16.15-20.51,5.75-3.77,13.81-4.21,18.75-1,4,2.6,5.77,7.34,4.85,13.32l-5,27.6c-.26,1.41-.27,1.67.87,2.61l14.4,10.22c2.12,1.51,2.87,3.85,2.3,7.16l-5.44,31.64C177.94,132.07,175.68,132.65,173.41,132.65ZM170.84,103l-2.78,26.54c.15.48,2.51,1.45,5.33,1.46,1.86,0,3.25-.45,3.52-1.16l5.41-31.47c.46-2.7,0-4.41-1.64-5.55L166.23,82.58c-1.78-1.47-1.82-2.41-1.48-4.21l5-27.57c.82-5.37-.6-9.41-4.12-11.68-4.43-2.85-11.72-2.4-17,1-6.14,4-15,18.89-15.6,19.91l-8.22,21.11c-.06.3-.41,2.2.57,2.84a24.47,24.47,0,0,0,3,1.63,2.11,2.11,0,0,0,2.39-1.37c1.21-2.4,8.41-18.72,8.48-18.89l.06-.15,11.08-10.67,1.13,1.18L148.5,58.7c-.3,2.56-2.51,21.24-2.48,23.91,0,3.7.57,7.71,4.23,9.41,2.12,1,6.65,2.78,11,4.53,3.29,1.31,6.4,2.55,8.23,3.34l.11.06A2.61,2.61,0,0,1,170.84,103Z"/><polygon class="cls-7" points="178.5 47.45 193.71 47.45 193.71 38.3 178.5 38.3 180.42 42.88 178.5 47.45"/><path class="cls-2" d="M194.48,48.23H177.33l2.25-5.35-2.25-5.35h17.15Zm-14.82-1.55h13.27V39.07H179.66l1.6,3.8Z"/><rect class="cls-2" x="193.45" y="36.35" width="1.55" height="22.83"/><rect class="cls-7" x="105.27" y="161.17" width="27.41" height="26.6"/><path class="cls-2" d="M133.5,188.59h-29V160.36h29ZM106.09,187h25.78V162H106.09Z"/><rect class="cls-7" x="132.41" y="143.39" width="27.41" height="44.38"/><path class="cls-2" d="M160.64,188.59h-29v-46h29ZM133.23,187H159V144.21H133.23Z"/><rect class="cls-7" x="159.55" y="131.84" width="27.41" height="55.93"/><path class="cls-2" d="M187.78,188.59h-29V131h29ZM160.37,187h25.78v-54.3H160.37Z"/><rect class="cls-7" x="186.69" y="117.96" width="27.41" height="69.81"/><path class="cls-2" d="M214.92,188.59h-29V117.14h29ZM187.51,187h25.78V118.77H187.51Z"/><rect class="cls-7" x="213.84" y="103.03" width="27.41" height="84.74"/><path class="cls-2" d="M242.07,188.59H213V102.21h29ZM214.65,187h25.78V103.84H214.65Z"/><rect class="cls-2" x="55.97" y="186.95" width="198.54" height="1.64"/><rect class="cls-2" x="32.03" y="186.95" width="13.65" height="1.64"/><rect class="cls-2" x="266.57" y="186.95" width="13.64" height="1.64"/><rect class="cls-2" x="21.87" y="186.95" width="3.19" height="1.64"/><g class="cls-1"><path class="cls-11" d="M44.59,170.73a9,9,0,1,1-18.07,0h1a8.07,8.07,0,1,0,8.07-8.07v-1a9,9,0,0,1,9,9"/><path class="cls-11" d="M35.56,161.69v1H35.1l-.05-1h.51"/><path class="cls-11" d="M34.2,162.77a8,8,0,0,0-.88.2l-.26-.92a8.93,8.93,0,0,1,1-.22Zm-1.74.5a8,8,0,0,0-.82.39l-.47-.84a9.19,9.19,0,0,1,.91-.44Zm-1.58.88a8.25,8.25,0,0,0-.71.57l-.64-.72a9.13,9.13,0,0,1,.79-.63Zm-1.35,1.2a8.16,8.16,0,0,0-.56.71l-.78-.56a9.06,9.06,0,0,1,.63-.79Zm-1,1.47a8.14,8.14,0,0,0-.39.81l-.89-.37a9,9,0,0,1,.44-.91Zm-.69,1.67a8.06,8.06,0,0,0-.2.88l-.95-.16a9.16,9.16,0,0,1,.23-1Z"/><path class="cls-11" d="M27.5,170.27q0,.23,0,.45h-1q0-.26,0-.51Z"/><polygon class="cls-14" points="34.74 171.81 34.61 164.06 36.65 171.54 34.74 171.81"/></g><g class="cls-1"><path class="cls-10" d="M22.67,115.62A7.05,7.05,0,0,0,16,120.44l6.67,2.24Z"/></g><g class="cls-1"><path class="cls-6" d="M16,120.44a7,7,0,0,0,2.76,8.09l3.91-5.86Z"/></g><g class="cls-1"><path class="cls-7" d="M22.69,115.62h0v7.06h7.08a7.06,7.06,0,0,0-7.06-7.06"/></g><g class="cls-1"><path class="cls-8" d="M18.76,128.54a7.06,7.06,0,0,0,11-5.86H22.67Z"/></g><g class="cls-1"><path class="cls-11" d="M27,95.26a3.45,3.45,0,1,1,3.45-3.45A3.45,3.45,0,0,1,27,95.26m0-5.13a1.69,1.69,0,1,0,1.69,1.69A1.69,1.69,0,0,0,27,90.13"/></g><g class="cls-1"><path class="cls-11" d="M48.8,153.28a3.45,3.45,0,1,1,3.45-3.45,3.45,3.45,0,0,1-3.45,3.45m0-5.13a1.69,1.69,0,1,0,1.69,1.69,1.69,1.69,0,0,0-1.69-1.69"/></g><g class="cls-1"><path class="cls-14" d="M78.39,174.51a2.57,2.57,0,1,0-2.57,2.57,2.57,2.57,0,0,0,2.57-2.57"/></g><g class="cls-1"><path class="cls-11" d="M53,75.82A12.76,12.76,0,1,1,65.75,63.06,12.77,12.77,0,0,1,53,75.82m0-24.17A11.41,11.41,0,1,0,64.41,63.06,11.43,11.43,0,0,0,53,51.65"/><path class="cls-7" d="M62.4,63.06a9.4,9.4,0,1,1-9.4-9.4,9.4,9.4,0,0,1,9.4,9.4"/><path class="cls-15" d="M59.71,63.06A6.71,6.71,0,1,1,53,56.35a6.71,6.71,0,0,1,6.71,6.71"/><path class="cls-11" d="M53,67.76a4.7,4.7,0,1,1,4.7-4.7,4.7,4.7,0,0,1-4.7,4.7m0-8.06a3.36,3.36,0,1,0,3.36,3.36A3.36,3.36,0,0,0,53,59.71"/><path class="cls-14" d="M54.34,63.06A1.34,1.34,0,1,1,53,61.72a1.34,1.34,0,0,1,1.34,1.34"/></g><g class="cls-1"><path class="cls-7" d="M64.17,132.68a6,6,0,1,1,6-6,6,6,0,0,1-6,6m0-10.7a4.68,4.68,0,1,0,4.68,4.68A4.68,4.68,0,0,0,64.17,122"/></g><g class="cls-1"><rect class="cls-7" x="52.06" y="133.3" width="9.61" height="1.34" transform="translate(-78.07 79.45) rotate(-45)"/></g><g class="cls-3"><path class="cls-11" d="M290,133.26a3.45,3.45,0,1,1,3.45-3.45,3.45,3.45,0,0,1-3.45,3.45m0-5.13a1.69,1.69,0,1,0,1.69,1.69,1.69,1.69,0,0,0-1.69-1.69"/></g><g class="cls-1"><path class="cls-14" d="M103.39,109.51a2.57,2.57,0,1,0-2.57,2.57,2.57,2.57,0,0,0,2.57-2.57"/></g><g class="cls-3"><path class="cls-14" d="M253.39,69.51a2.57,2.57,0,1,0-2.57,2.57,2.57,2.57,0,0,0,2.57-2.57"/></g></svg>