<svg xmlns="http://www.w3.org/2000/svg" viewBox="0 0 30 30"><defs><style>.cls-1{fill:#0aa5e3;}</style></defs><title>engineering-icon</title><g id="Layer_2" data-name="Layer 2"><g id="Layer_1-2" data-name="Layer 1"><path class="cls-1" d="M22.85,25H7.38a2.33,2.33,0,0,1-2.33-2.33V7.19A2.33,2.33,0,0,1,7.38,4.87H22.85a2.33,2.33,0,0,1,2.33,2.33V22.66A2.33,2.33,0,0,1,22.85,25ZM7.38,5.8A1.4,1.4,0,0,0,6,7.19V22.66a1.4,1.4,0,0,0,1.4,1.4H22.85a1.4,1.4,0,0,0,1.4-1.4V7.19a1.4,1.4,0,0,0-1.4-1.4Z"/><path class="cls-1" d="M22.12,22.4h-14a.46.46,0,0,1-.47-.47v-14a.47.47,0,0,1,.47-.47h14a.47.47,0,0,1,.47.47v14A.46.46,0,0,1,22.12,22.4ZM8.58,21.47H21.66V8.39H8.58Z"/><path class="cls-1" d="M8.84,5.81a.47.47,0,0,1-.47-.47V.47a.47.47,0,1,1,.93,0V5.35A.47.47,0,0,1,8.84,5.81Z"/><path class="cls-1" d="M15.12,5.81a.47.47,0,0,1-.47-.47V.47a.47.47,0,0,1,.93,0V5.35A.47.47,0,0,1,15.12,5.81Z"/><path class="cls-1" d="M21.4,5.81a.47.47,0,0,1-.47-.47V.47a.47.47,0,0,1,.93,0V5.35A.47.47,0,0,1,21.4,5.81Z"/><path class="cls-1" d="M19.82,20.12h-5.7a.46.46,0,0,1-.47-.47V16.86a.46.46,0,0,1,.47-.47h5.7a.46.46,0,0,1,.47.47v2.79A.46.46,0,0,1,19.82,20.12Zm-5.23-.93h4.77V17.33H14.58Z"/><path class="cls-1" d="M10.69,14.36a.47.47,0,0,1-.47-.47V10.06a.47.47,0,0,1,.93,0V13.9A.47.47,0,0,1,10.69,14.36Z"/><path class="cls-1" d="M13.25,14.36a.47.47,0,0,1-.47-.47V10.06a.47.47,0,0,1,.93,0V13.9A.47.47,0,0,1,13.25,14.36Z"/><path class="cls-1" d="M15.8,14.36a.47.47,0,0,1-.47-.47V10.06a.47.47,0,0,1,.93,0V13.9A.47.47,0,0,1,15.8,14.36Z"/><path class="cls-1" d="M9.3,30a.46.46,0,0,1-.47-.47V24.65a.47.47,0,1,1,.93,0v4.88A.46.46,0,0,1,9.3,30Z"/><path class="cls-1" d="M15.58,30a.46.46,0,0,1-.47-.47V24.65a.47.47,0,1,1,.93,0v4.88A.46.46,0,0,1,15.58,30Z"/><path class="cls-1" d="M21.86,30a.46.46,0,0,1-.47-.47V24.65a.47.47,0,0,1,.93,0v4.88A.46.46,0,0,1,21.86,30Z"/><path class="cls-1" d="M5.35,21.67H.47a.47.47,0,0,1,0-.93H5.35a.47.47,0,0,1,0,.93Z"/><path class="cls-1" d="M5.35,15.39H.47a.47.47,0,0,1,0-.93H5.35a.47.47,0,0,1,0,.93Z"/><path class="cls-1" d="M5.35,9.11H.47a.47.47,0,1,1,0-.93H5.35a.47.47,0,1,1,0,.93Z"/><path class="cls-1" d="M29.53,21.67H24.65a.47.47,0,0,1,0-.93h4.88a.47.47,0,0,1,0,.93Z"/><path class="cls-1" d="M29.53,15.39H24.65a.47.47,0,0,1,0-.93h4.88a.47.47,0,0,1,0,.93Z"/><path class="cls-1" d="M29.53,9.11H24.65a.47.47,0,1,1,0-.93h4.88a.47.47,0,1,1,0,.93Z"/></g></g></svg>