<svg xmlns="http://www.w3.org/2000/svg" viewBox="0 0 27 33.15"><defs><style>.cls-1{fill:#0aa5e3;}</style></defs><title>founder-icon</title><g id="Layer_2" data-name="Layer 2"><g id="Layer_1-2" data-name="Layer 1"><path class="cls-1" d="M26.55,33.15H.45A.45.45,0,0,1,0,32.7V27.35a.45.45,0,0,1,0-.17c.08-.19,2-4.7,9.73-6.3V17.24a.45.45,0,0,1,.9,0v4a.45.45,0,0,1-.37.44C3.32,23,1.18,26.87.9,27.45v4.8H26.1V27.9c-.27-.69-2.53-5.79-10-6.3a.45.45,0,0,1-.42-.45V17.24a.45.45,0,0,1,.9,0v3.5C24.7,21.49,27,27.6,27,27.67a.45.45,0,0,1,0,.15V32.7A.45.45,0,0,1,26.55,33.15Z"/><path class="cls-1" d="M13.29,27.2c-4.28,0-5.47-5.34-5.48-5.4a.45.45,0,0,1,.88-.19s1.05,4.68,4.6,4.68,4.45-4.38,4.48-4.56a.45.45,0,0,1,.88.17C18.65,22,17.58,27.2,13.29,27.2Z"/><path class="cls-1" d="M13,18.25c-2.83,0-8.5-3.95-8.5-9.13S8.34,0,13,0s8.5,4.09,8.5,9.13S16.87,18.25,13,18.25ZM13,.9c-4.19,0-7.6,3.69-7.6,8.23s5,8.23,7.6,8.23c3.44,0,7.6-3.67,7.6-8.23S17.21.9,13,.9Z"/><path class="cls-1" d="M20.73,9.59a7,7,0,0,1-5.6-3.4c-3.36,4.21-9.52,2.7-9.8,2.64A.45.45,0,0,1,5.55,8c.06,0,6.35,1.54,9.24-2.83a.49.49,0,0,1,.4-.2.45.45,0,0,1,.38.25S17.49,8.89,21,8.68a.45.45,0,1,1,.05.9Z"/><path class="cls-1" d="M13.11,15.19H12.9A4.36,4.36,0,0,1,10,13.69a.45.45,0,0,1,.7-.57A3.49,3.49,0,0,0,13,14.29a3.5,3.5,0,0,0,2.64-1.2.45.45,0,0,1,.63.65A4.51,4.51,0,0,1,13.11,15.19Z"/></g></g></svg>