<svg xmlns="http://www.w3.org/2000/svg" viewBox="0 0 25.66 33.91"><defs><style>.cls-1{fill:#0aa5e3;}.cls-2{fill:#fff;}</style></defs><title>great-faculty-icon</title><g id="Layer_2" data-name="Layer 2"><g id="Layer_1-2" data-name="Layer 1"><path class="cls-1" d="M24.67,33.91H1a.4.4,0,0,1-.4-.35L0,30.08A.38.38,0,0,1,0,30c0-.08,1.09-7.87,12.83-7.28,11.72-.59,12.82,7.2,12.83,7.28a.38.38,0,0,1,0,.1l-.59,3.48A.4.4,0,0,1,24.67,33.91ZM1.35,33.1h23L24.85,30c-.1-.67-1.35-7-11.69-6.53l-.14,0h-.37l-.14,0C2.17,23.05.92,29.35.81,30Z"/><polyline class="cls-2" points="9.4 18.7 9.4 25.48 13.02 23.11 16.63 25.48 16.63 18.8"/><path class="cls-1" d="M16.63,25.89a.4.4,0,0,1-.22-.07L13,23.6,9.62,25.82a.4.4,0,0,1-.41,0A.4.4,0,0,1,9,25.48V18.7a.41.41,0,0,1,.81,0v6l3-2a.4.4,0,0,1,.44,0l3,2V18.8a.41.41,0,0,1,.81,0v6.68a.4.4,0,0,1-.21.36A.4.4,0,0,1,16.63,25.89Z"/><path class="cls-1" d="M13.06,19.9c-4.71,0-8.54-4.46-8.54-9.95S8.35,0,13.06,0,21.6,4.46,21.6,9.95,17.77,19.9,13.06,19.9Zm0-19.09C8.8.81,5.33,4.91,5.33,9.95s3.47,9.14,7.73,9.14,7.73-4.1,7.73-9.14S17.33.81,13.06.81Z"/><path class="cls-1" d="M5.33,7.4a.41.41,0,0,1,0-.81S10,6.44,11.46,3.91a.41.41,0,1,1,.7.4C10.49,7.24,5.55,7.39,5.34,7.4Z"/><path class="cls-1" d="M17.09,6.76a7.61,7.61,0,0,1-2.73-.49A8.55,8.55,0,0,1,9.71,1.41a.41.41,0,0,1,.74-.33,7.78,7.78,0,0,0,4.21,4.44,8,8,0,0,0,5.53-.17.4.4,0,1,1,.33.74A9,9,0,0,1,17.09,6.76Z"/><path class="cls-1" d="M10.4,12.16a2,2,0,1,1,2-2A2,2,0,0,1,10.4,12.16Zm0-3.11a1.15,1.15,0,1,0,1.15,1.15A1.15,1.15,0,0,0,10.4,9.05Z"/><path class="cls-1" d="M15.73,12.16a2,2,0,1,1,2-2A2,2,0,0,1,15.73,12.16Zm0-3.11a1.15,1.15,0,1,0,1.15,1.15A1.15,1.15,0,0,0,15.73,9.05Z"/><path class="cls-1" d="M21.31,9.6H16.87a.41.41,0,0,1,0-.81h4.44a.41.41,0,0,1,0,.81Z"/><path class="cls-1" d="M9.24,9.6H4.88a.41.41,0,1,1,0-.81H9.24a.41.41,0,1,1,0,.81Z"/><path class="cls-1" d="M11.65,9.68A.41.41,0,0,1,11.4,9a3,3,0,0,1,3.36-.11.4.4,0,1,1-.41.7,2.24,2.24,0,0,0-2.45.05A.41.41,0,0,1,11.65,9.68Z"/><path class="cls-1" d="M13,33.91a.4.4,0,0,1-.41-.41V23.11a.41.41,0,0,1,.81,0V33.5A.4.4,0,0,1,13,33.91Z"/><path class="cls-1" d="M13.3,16.65h-.09a3.65,3.65,0,0,1-2.5-1.39.41.41,0,0,1,.65-.49,2.86,2.86,0,0,0,1.88,1.07,2.7,2.7,0,0,0,2-1.09.4.4,0,1,1,.61.53A3.41,3.41,0,0,1,13.3,16.65Z"/><polyline class="cls-2" points="9.4 20.89 13.02 23.16 16.63 20.89"/><path class="cls-1" d="M13,23.57a.41.41,0,0,1-.22-.06L9.19,21.24a.41.41,0,0,1,.43-.69L13,22.68l3.4-2.14a.41.41,0,0,1,.43.69l-3.61,2.27A.41.41,0,0,1,13,23.57Z"/></g></g></svg>