<svg xmlns="http://www.w3.org/2000/svg" viewBox="0 0 26 26"><defs><style>.cls-1{fill:#0aa5e3;}</style></defs><title>help-icon</title><g id="Layer_2" data-name="Layer 2"><g id="Layer_1-2" data-name="Layer 1"><path class="cls-1" d="M14.21,25.94A13,13,0,1,1,25.94,11.79,13,13,0,0,1,14.21,25.94ZM11.87.85a12.21,12.21,0,1,0,13.29,11A12.22,12.22,0,0,0,11.87.85Z"/><path class="cls-1" d="M13.74,20.92a8,8,0,1,1,7.19-8.66A8,8,0,0,1,13.74,20.92ZM12.34,5.87a7.17,7.17,0,1,0,7.8,6.47A7.17,7.17,0,0,0,12.34,5.87Z"/><path class="cls-1" d="M13.53,18.67a5.69,5.69,0,1,1,5.14-6.19A5.7,5.7,0,0,1,13.53,18.67Zm-1-10.54a4.9,4.9,0,1,0,5.33,4.42A4.9,4.9,0,0,0,12.55,8.12Z"/><path class="cls-1" d="M23.28,20.49a.4.4,0,0,1-.34-.14l-3.28-3.83a.4.4,0,1,1,.6-.51l3.28,3.83a.4.4,0,0,1-.26.65Z"/><path class="cls-1" d="M18.45,24.62a.4.4,0,0,1-.34-.14l-3.28-3.83a.4.4,0,1,1,.6-.51L18.71,24a.4.4,0,0,1-.26.65Z"/><path class="cls-1" d="M10.9,6a.4.4,0,0,1-.34-.14L7.29,2a.4.4,0,0,1,.6-.51l3.27,3.83A.4.4,0,0,1,10.9,6Z"/><path class="cls-1" d="M6.07,10.13A.4.4,0,0,1,5.73,10L2.46,6.16a.4.4,0,0,1,.6-.51L6.33,9.48a.4.4,0,0,1-.26.65Z"/><path class="cls-1" d="M2.31,19.73A.4.4,0,0,1,2,19.06l3.54-3.59A.4.4,0,0,1,6.1,16L2.55,19.62A.4.4,0,0,1,2.31,19.73Z"/><path class="cls-1" d="M6.83,24.2a.4.4,0,0,1-.32-.67l3.54-3.59a.4.4,0,1,1,.56.56L7.07,24.08A.4.4,0,0,1,6.83,24.2Z"/><path class="cls-1" d="M15.7,6.18a.4.4,0,0,1-.32-.67l3.54-3.59a.4.4,0,0,1,.56.56L15.95,6.06A.4.4,0,0,1,15.7,6.18Z"/><path class="cls-1" d="M20.22,10.64A.4.4,0,0,1,19.9,10l3.54-3.59a.4.4,0,0,1,.56.56l-3.54,3.59A.4.4,0,0,1,20.22,10.64Z"/></g></g></svg>