<svg xmlns="http://www.w3.org/2000/svg" viewBox="0 0 27 27"><defs><style>.cls-1{fill:#0aa5e3;}</style></defs><title>leaderboard-icon</title><g id="Layer_2" data-name="Layer 2"><g id="Layer_1-2" data-name="Layer 1"><rect class="cls-1" x="3.23" y="1.85" width="1.23" height="1.23" rx="0.62" ry="0.62"/><rect class="cls-1" x="5.31" y="1.85" width="1.23" height="1.23" rx="0.62" ry="0.62"/><rect class="cls-1" x="7.38" y="1.85" width="1.23" height="1.23" rx="0.62" ry="0.62"/><path class="cls-1" d="M24.69,27H2.31A2.31,2.31,0,0,1,0,24.69V2.31A2.31,2.31,0,0,1,2.31,0H24.69A2.31,2.31,0,0,1,27,2.31V24.69A2.31,2.31,0,0,1,24.69,27ZM2.31.92A1.39,1.39,0,0,0,.92,2.31V24.69a1.39,1.39,0,0,0,1.38,1.38H24.69a1.39,1.39,0,0,0,1.38-1.38V2.31A1.39,1.39,0,0,0,24.69.92Z"/><path class="cls-1" d="M5.31,12.15A2.54,2.54,0,1,1,7.85,9.62,2.54,2.54,0,0,1,5.31,12.15ZM5.31,8A1.62,1.62,0,1,0,6.92,9.62,1.62,1.62,0,0,0,5.31,8Z"/><path class="cls-1" d="M23.46,10.08H9.69a.46.46,0,0,1,0-.92H23.46a.46.46,0,0,1,0,.92Z"/><path class="cls-1" d="M5.31,18.15a2.54,2.54,0,1,1,2.54-2.54A2.54,2.54,0,0,1,5.31,18.15Zm0-4.15a1.62,1.62,0,1,0,1.62,1.62A1.62,1.62,0,0,0,5.31,14Z"/><path class="cls-1" d="M23.46,16.08H9.69a.46.46,0,1,1,0-.92H23.46a.46.46,0,1,1,0,.92Z"/><path class="cls-1" d="M5.31,24.15a2.54,2.54,0,1,1,2.54-2.54A2.54,2.54,0,0,1,5.31,24.15Zm0-4.15a1.62,1.62,0,1,0,1.62,1.62A1.62,1.62,0,0,0,5.31,20Z"/><path class="cls-1" d="M23.46,22.08H9.69a.46.46,0,0,1,0-.92H23.46a.46.46,0,0,1,0,.92Z"/><path class="cls-1" d="M26.54,4.92H.46A.46.46,0,0,1,.46,4H26.54a.46.46,0,0,1,0,.92Z"/></g></g></svg>