<svg xmlns="http://www.w3.org/2000/svg" viewBox="0 0 27.48 24.96"><defs><style>.cls-1{fill:#0aa5e3;}</style></defs><title>library-icon</title><g id="Layer_2" data-name="Layer 2"><g id="Layer_1-2" data-name="Layer 1"><path class="cls-1" d="M4.44,24.93H2.13A2.13,2.13,0,0,1,0,22.8V2.15A2.13,2.13,0,0,1,2.13,0H4.44A2.13,2.13,0,0,1,6.57,2.15V22.8A2.13,2.13,0,0,1,4.44,24.93ZM2.13,1A1.13,1.13,0,0,0,1,2.15V22.8a1.13,1.13,0,0,0,1.13,1.13H4.44A1.13,1.13,0,0,0,5.57,22.8V2.15A1.13,1.13,0,0,0,4.44,1Z"/><path class="cls-1" d="M4.58,5.91H2a.5.5,0,0,1,0-1H4.58a.5.5,0,0,1,0,1Z"/><path class="cls-1" d="M4.58,19.36H2a.5.5,0,0,1,0-1H4.58a.5.5,0,0,1,0,1Z"/><path class="cls-1" d="M4.58,21.4H2a.5.5,0,0,1,0-1H4.58a.5.5,0,1,1,0,1Z"/><path class="cls-1" d="M12.77,24.93H10.47A2.13,2.13,0,0,1,8.33,22.8V2.15A2.13,2.13,0,0,1,10.47,0h2.31a2.13,2.13,0,0,1,2.13,2.13V22.8A2.13,2.13,0,0,1,12.77,24.93ZM10.47,1A1.13,1.13,0,0,0,9.33,2.15V22.8a1.13,1.13,0,0,0,1.13,1.13h2.31a1.13,1.13,0,0,0,1.13-1.13V2.15A1.13,1.13,0,0,0,12.77,1Z"/><path class="cls-1" d="M12.91,5.91H10.33a.5.5,0,0,1,0-1h2.58a.5.5,0,0,1,0,1Z"/><path class="cls-1" d="M12.91,19.36H10.33a.5.5,0,0,1,0-1h2.58a.5.5,0,0,1,0,1Z"/><path class="cls-1" d="M12.91,21.4H10.33a.5.5,0,0,1,0-1h2.58a.5.5,0,0,1,0,1Z"/><path class="cls-1" d="M23.09,25A2.14,2.14,0,0,1,21,23.25L16.92,3A2.14,2.14,0,0,1,18.59.5L20.85,0a2.13,2.13,0,0,1,2.51,1.67l4.08,20.24a2.14,2.14,0,0,1-1.67,2.51l-2.26.46A2.13,2.13,0,0,1,23.09,25ZM21.27,1,21,1l-2.26.46a1.14,1.14,0,0,0-.88,1.33L22,23.05a1.13,1.13,0,0,0,1.33.88l2.26-.46h0a1.14,1.14,0,0,0,.88-1.33L22.38,1.91A1.14,1.14,0,0,0,21.27,1Z"/><path class="cls-1" d="M19.52,6.31a.5.5,0,0,1-.1-1l2.53-.51a.5.5,0,0,1,.2,1l-2.53.51Z"/><path class="cls-1" d="M22.17,19.49a.5.5,0,0,1-.1-1L24.61,18a.5.5,0,1,1,.2,1l-2.53.51Z"/><path class="cls-1" d="M22.58,21.49a.5.5,0,0,1-.1-1L25,20a.5.5,0,0,1,.2,1l-2.53.51Z"/></g></g></svg>