<svg xmlns="http://www.w3.org/2000/svg" xmlns:xlink="http://www.w3.org/1999/xlink" viewBox="0 0 27 27"><defs><style>.cls-1{fill:#0aa5e3;}.cls-2{clip-path:url(#clip-path);}</style><clipPath id="clip-path"><path class="cls-1" d="M13.5,17.29a3.71,3.71,0,1,1,3.71-3.71A3.71,3.71,0,0,1,13.5,17.29Zm0-6.86a3.15,3.15,0,1,0,3.15,3.15A3.16,3.16,0,0,0,13.5,10.42Z"/></clipPath></defs><title>target-icon</title><g id="Layer_2" data-name="Layer 2"><g id="Layer_1-2" data-name="Layer 1"><path class="cls-1" d="M13.5,20.57a7,7,0,1,1,7-7A7,7,0,0,1,13.5,20.57Zm0-13.42a6.43,6.43,0,1,0,6.43,6.43A6.44,6.44,0,0,0,13.5,7.14Z"/><path class="cls-1" d="M13.5,23.79a.28.28,0,0,1-.28-.28v-20a.28.28,0,1,1,.56,0v20A.28.28,0,0,1,13.5,23.79Z"/><path class="cls-1" d="M23.52,13.78h-20a.28.28,0,1,1,0-.56h20a.28.28,0,0,1,0,.56Z"/><path class="cls-1" d="M13.5,17.29a3.71,3.71,0,1,1,3.71-3.71A3.71,3.71,0,0,1,13.5,17.29Zm0-6.86a3.15,3.15,0,1,0,3.15,3.15A3.16,3.16,0,0,0,13.5,10.42Z"/><path class="cls-1" d="M13.5,17.29a3.71,3.71,0,1,1,3.71-3.71A3.71,3.71,0,0,1,13.5,17.29Zm0-6.86a3.15,3.15,0,1,0,3.15,3.15A3.16,3.16,0,0,0,13.5,10.42Z"/><g class="cls-2"><path class="cls-1" d="M13.5,23.79a.28.28,0,0,1-.28-.28v-20a.28.28,0,1,1,.56,0v20A.28.28,0,0,1,13.5,23.79Z"/><path class="cls-1" d="M23.52,13.78h-20a.28.28,0,1,1,0-.56h20a.28.28,0,0,1,0,.56Z"/></g><path class="cls-1" d="M13.5,26.91A13.41,13.41,0,1,1,26.91,13.5,13.42,13.42,0,0,1,13.5,26.91ZM13.5.48a13,13,0,1,0,13,13A13,13,0,0,0,13.5.48Z"/><path class="cls-1" d="M13.5,27A13.5,13.5,0,1,1,27,13.5,13.52,13.52,0,0,1,13.5,27ZM13.5.18A13.32,13.32,0,1,0,26.82,13.5,13.33,13.33,0,0,0,13.5.18Zm0,26.43A13.11,13.11,0,1,1,26.61,13.5,13.12,13.12,0,0,1,13.5,26.61Zm0-26A12.93,12.93,0,1,0,26.43,13.5,12.94,12.94,0,0,0,13.5.57Z"/></g></g></svg>