<svg xmlns="http://www.w3.org/2000/svg" viewBox="0 0 25 21.8"><defs><style>.cls-1{fill:#0aa5e3;}</style></defs><title>timeline-icon</title><g id="Layer_2" data-name="Layer 2"><g id="Layer_1-2" data-name="Layer 1"><path class="cls-1" d="M6.74,9.95H.41A.41.41,0,0,1,0,9.54V3.2a.41.41,0,0,1,.41-.41H6.74a.41.41,0,0,1,.41.41V9.54A.41.41,0,0,1,6.74,9.95ZM.82,9.13H6.34V3.61H.82Z"/><path class="cls-1" d="M15.67,9.95H9.33a.41.41,0,0,1-.41-.41V3.2a.41.41,0,0,1,.41-.41h6.34a.41.41,0,0,1,.41.41V9.54A.41.41,0,0,1,15.67,9.95ZM9.74,9.13h5.52V3.61H9.74Z"/><path class="cls-1" d="M24.59,9.95H18.26a.41.41,0,0,1-.41-.41V3.2a.41.41,0,0,1,.41-.41h6.34A.41.41,0,0,1,25,3.2V9.54A.41.41,0,0,1,24.59,9.95Zm-5.93-.82h5.52V3.61H18.66Z"/><path class="cls-1" d="M24.59.82H.41A.41.41,0,0,1,.41,0H24.59a.41.41,0,0,1,0,.82Z"/><path class="cls-1" d="M6.74,21.8H.41A.41.41,0,0,1,0,21.39V15.05a.41.41,0,0,1,.41-.41H6.74a.41.41,0,0,1,.41.41v6.34A.41.41,0,0,1,6.74,21.8ZM.82,21H6.34V15.46H.82Z"/><path class="cls-1" d="M15.67,21.8H9.33a.41.41,0,0,1-.41-.41V15.05a.41.41,0,0,1,.41-.41h6.34a.41.41,0,0,1,.41.41v6.34A.41.41,0,0,1,15.67,21.8ZM9.74,21h5.52V15.46H9.74Z"/><path class="cls-1" d="M24.59,21.8H18.26a.41.41,0,0,1-.41-.41V15.05a.41.41,0,0,1,.41-.41h6.34a.41.41,0,0,1,.41.41v6.34A.41.41,0,0,1,24.59,21.8ZM18.66,21h5.52V15.46H18.66Z"/><path class="cls-1" d="M24.59,12.67H.41a.41.41,0,1,1,0-.82H24.59a.41.41,0,0,1,0,.82Z"/></g></g></svg>