<svg xmlns="http://www.w3.org/2000/svg" viewBox="0 0 28 27.38"><defs><style>.cls-1{fill:#0aa5e3;}</style></defs><title>university-icon</title><g id="Layer_2" data-name="Layer 2"><g id="Layer_1-2" data-name="Layer 1"><path class="cls-1" d="M27.39,27.38H.61A.41.41,0,0,1,.2,27V24a.41.41,0,0,1,.41-.41H27.39a.41.41,0,0,1,.41.41v3A.41.41,0,0,1,27.39,27.38ZM1,26.56H27v-2.2H1Z"/><path class="cls-1" d="M27.59,8.61l-.12,0L14,4.53.53,8.59A.41.41,0,0,1,0,8.2V4.5a.41.41,0,0,1,.29-.39L13.88,0a.39.39,0,0,1,.24,0L27.71,4.11A.41.41,0,0,1,28,4.5V8.2a.41.41,0,0,1-.41.41ZM14,3.7l.12,0L27.18,7.65V4.81L14,.84.82,4.81V7.65L13.88,3.71Z"/><path class="cls-1" d="M27.59,8.61H.41a.41.41,0,1,1,0-.82H27.59a.41.41,0,0,1,0,.82Z"/><path class="cls-1" d="M2.11,24a.41.41,0,0,1-.41-.41,2.5,2.5,0,0,1,1.48-2.46V11a1.61,1.61,0,0,1-.84-.48,3.37,3.37,0,0,1-.63-2.25.41.41,0,0,1,.81.06A2.53,2.53,0,0,0,2.94,10a.84.84,0,0,0,.65.26.41.41,0,0,1,.41.41V21.45a.41.41,0,0,1-.33.4,1.6,1.6,0,0,0-1.15,1.76A.41.41,0,0,1,2.11,24Z"/><path class="cls-1" d="M7.69,24a.41.41,0,0,1-.41-.41,1.6,1.6,0,0,0-1.15-1.76.41.41,0,0,1-.33-.4V10.65a.41.41,0,0,1,.41-.41A.84.84,0,0,0,6.86,10a2.53,2.53,0,0,0,.42-1.63.41.41,0,0,1,.38-.44.4.4,0,0,1,.44.38,3.37,3.37,0,0,1-.63,2.25,1.61,1.61,0,0,1-.84.48V21.15A2.5,2.5,0,0,1,8.1,23.61.41.41,0,0,1,7.69,24Z"/><path class="cls-1" d="M11.21,24a.41.41,0,0,1-.41-.41,2.5,2.5,0,0,1,1.48-2.46V11a1.61,1.61,0,0,1-.85-.48,3.37,3.37,0,0,1-.63-2.25.4.4,0,0,1,.44-.38.41.41,0,0,1,.38.44A2.53,2.53,0,0,0,12,10a.84.84,0,0,0,.65.26.41.41,0,0,1,.41.41V21.45a.41.41,0,0,1-.33.4,1.6,1.6,0,0,0-1.15,1.76A.41.41,0,0,1,11.21,24Z"/><path class="cls-1" d="M16.79,24a.41.41,0,0,1-.41-.41,1.6,1.6,0,0,0-1.15-1.76.41.41,0,0,1-.33-.4V10.65a.41.41,0,0,1,.41-.41A.85.85,0,0,0,16,10a2.51,2.51,0,0,0,.42-1.63.41.41,0,0,1,.38-.44.4.4,0,0,1,.44.38,3.37,3.37,0,0,1-.63,2.25,1.61,1.61,0,0,1-.85.48V21.15a2.5,2.5,0,0,1,1.48,2.46A.41.41,0,0,1,16.79,24Z"/><path class="cls-1" d="M20.31,24a.41.41,0,0,1-.41-.41,2.5,2.5,0,0,1,1.48-2.46V11a1.61,1.61,0,0,1-.84-.48,3.37,3.37,0,0,1-.63-2.25.4.4,0,0,1,.44-.38.41.41,0,0,1,.38.44A2.53,2.53,0,0,0,21.14,10a.84.84,0,0,0,.65.26.41.41,0,0,1,.41.41V21.45a.41.41,0,0,1-.33.4,1.6,1.6,0,0,0-1.15,1.76A.41.41,0,0,1,20.31,24Z"/><path class="cls-1" d="M25.89,24a.41.41,0,0,1-.41-.41,1.6,1.6,0,0,0-1.15-1.76.41.41,0,0,1-.33-.4V10.65a.41.41,0,0,1,.41-.41.84.84,0,0,0,.65-.26,2.53,2.53,0,0,0,.42-1.63.41.41,0,0,1,.81-.06,3.37,3.37,0,0,1-.63,2.25,1.61,1.61,0,0,1-.84.48V21.15a2.5,2.5,0,0,1,1.48,2.46A.41.41,0,0,1,25.89,24Z"/></g></g></svg>