<svg xmlns="http://www.w3.org/2000/svg" viewBox="0 0 320 240"><style><![CDATA[.B{fill:#cbd5e0}.C{fill-rule:evenodd}.D{fill:#4d1e9a}.E{fill:#ecc94b}.F{fill:#c69c79}]]></style><path d="M314.17 145.94c-9.9-75.17-106-21.8-153.32-88.57-49.72-70.1-136.06 24.12-78.67 102.8C126 220.22 210.42 212 210.42 212s115.43 22.66 103.75-66.06z" fill="#edf2f7"/><ellipse cx="58.51" cy="60.2" rx="3.2" ry="5.06" fill="#e2e8f0"/><ellipse cx="117.83" cy="194.17" rx="3.2" ry="5.06" class="B"/><path d="M170.28 123.18l-33.38 8.66a3 3 0 0 1-3.27-2l-2.94-7.27c-.6-1.43-.07-2.87 1.15-3.18l33.8-6.4c1.2-.3 2.67 1.06 3.26 2.5l2.53 4.55c.57 1.4.06 2.84-1.15 3.15z" fill="#2f855a" class="C"/><path fill="#276749" d="M166.22 112.92l15.76 1.05 3.9 7.24-16.36 1.46-3.3-9.75z"/><g class="B"><path d="M135.38 128l-24.6-55.25c-.88-2.13-1-3.87-.25-5a3.51 3.51 0 0 1 2.9-1.51l25.27-2.34c3.73-.4 5-.27 6.42 2.56l21.43 48.3c1.22 2.8.3 5.08-2.6 6.46l-22 9.35a5.86 5.86 0 0 1-2.36.54c-1.8-.04-3.24-1.1-4.2-3.1zm30.5-13l-21.43-48.27c-1.15-2.38-2-2.5-5.66-2.13l-25.3 2.34a2.8 2.8 0 0 0-2.32 1.16c-.6 1-.5 2.47.3 4.36l24.6 55.23c1.18 2.52 3.05 3.24 5.56 2.16l22-9.35c2.5-1.2 3.28-3.08 2.23-5.48z"/><path d="M166.5 118.72l-22 9.36c-2.8 1.2-4.83.23-6-2.34L113.84 70.5c-1.44-3.48-.68-5.8 2.34-6l25.28-2.34c3.62-.38 4.75-.3 6 2.34l21.43 48.3c1.1 2.37.42 4.56-2.38 5.92z"/></g><path d="M173.46 120.83l-22 9.36c-2.8 1.2-4.83.23-6-2.34l-24.6-55.24c-1.43-3.47-.68-5.8 2.34-6l25.28-2.34c3.63-.37 4.76-.3 6 2.34l21.43 48.3c1.02 2.38.42 4.57-2.45 5.92z" fill="#fff"/><path d="M135.65 76.38c1 2.5.6 5.3-1.6 6.12s-5.13-.53-6.18-3-.6-5.3 1.58-6.12 5.2.44 6.2 3zm2.87-.6h.1l14.26-2a.75.75 0 1 0-.2-1.48l-14.27 2a.742.742 0 0 0 .11 1.48zm1.48 2.5h.1l14.26-2a.75.75 0 0 0 .64-.84.73.73 0 0 0-.84-.63l-14.27 2a.742.742 0 0 0 .1 1.48zm2 11.86c1 2.5.6 5.28-1.6 6.1s-5.13-.53-6.2-3-.6-5.28 1.6-6.1 5.2.5 6.2 3zm2.93-.62h.1l14.27-2a.742.742 0 0 0-.21-1.47l-14.26 2a.75.75 0 0 0-.64.84.74.74 0 0 0 .74.63zm1.43 2.5h.1l14.26-2a.76.76 0 0 0 .64-.84.74.74 0 0 0-.84-.64l-14.27 2a.742.742 0 0 0 .1 1.48zm4 12.83c1 2.5.6 5.3-1.58 6.12s-5.13-.53-6.2-3-.6-5.28 1.6-6.1a5.14 5.14 0 0 1 6.18 2.99zm2.87-.53h.1l14.26-2a.742.742 0 0 0-.21-1.47l-14.26 2a.75.75 0 0 0 .1 1.49zm1.5 2.4h.1l14.27-2a.742.742 0 1 0-.21-1.47l-14.26 2a.742.742 0 0 0 .1 1.48z" class="B"/><g class="C"><path d="M130.9 120l15.85 1 6 11.93-15.6-.9c-2.33.12-3.67-1.3-4.46-3.5l-2-5.93a2.78 2.78 0 0 1 .21-2.59z" fill="#276749"/><path d="M147.65 120.4l12.35-2.33a3.21 3.21 0 0 0 1.29 2.07 3.56 3.56 0 0 0 2.1.6 4.45 4.45 0 0 0 .73 0l4.36-.7a19.24 19.24 0 0 0 4-.92 2.28 2.28 0 0 0 1.71-2 3.09 3.09 0 0 0-.62-1.63l7.86-1.5c1.2-.3 2.67 1.06 3.26 2.5l2.53 4.55c.58 1.44.06 2.87-1.16 3.18l-33.37 8.66a3 3 0 0 1-3.27-2l-2.94-7.27c-.57-1.46-.05-2.9 1.17-3.2z" fill="#68d391"/></g><g class="B"><path d="M43.2 188.8c-2.93 0-4.4-3.65-6-7.48L5.46 100a4.69 4.69 0 0 1 .16-4.39c1.23-1.92 4.24-3 9-3.3l74.78-7.15c5.64 0 6.74 1.37 9 7.2l26.12 59.32c1.9 4.94 1.14 6-6.36 9.16l-73.4 27.65a4.61 4.61 0 0 1-1.55.3zM89.4 86l-74.76 7.18c-4.35.26-7.2 1.26-8.24 2.9a3.83 3.83 0 0 0-.08 3.56L38.1 181c2 4.86 3.4 7.74 6.33 6.66L117.8 160c7.26-3 7.48-3.72 5.84-7.95L97.53 92.7c-2.2-5.7-3-6.7-8.13-6.7z"/><path d="M135.25 142.07l-26.13-59.32c-2.23-5.73-3.2-6.92-8.56-6.92L25.76 83c-7.6.44-10.27 3-8.7 7.07l31.78 81.33c1.94 4.76 3.5 8.18 6.93 6.92l73.38-27.7c7.37-3.05 7.86-4.02 6.1-8.56z"/></g><path d="M130.1 140.5L106.66 87.3c-2-5.13-2.82-6.18-7.66-6.18l-67.14 6.4c-6.84.37-9.22 2.75-7.8 6.32l28.43 72.94c1.7 4.24 3.05 7.3 6.18 6.18l65.8-24.8c6.55-2.68 7.07-3.57 5.66-7.66z" fill="#fff"/><path fill="#edf2f7" d="M45.97 150.08l65.26-18.3 12.54 4.95-47.4 16.14-30.4-2.8z"/><path d="M46.2 176.9c-2.93 0-4.4-3.65-6-7.48L8.44 88.06a4.68 4.68 0 0 1 .16-4.4c1.23-1.9 4.24-3 9-3.3l74.78-7.15c5.64 0 6.75 1.37 9 7.22l26.13 59.32c1.9 4.93 1.14 6-6.36 9.15l-73.4 27.7a4.32 4.32 0 0 1-1.56.3zM92.37 74.13l-74.75 7.15c-4.35.25-7.2 1.25-8.24 2.88a3.77 3.77 0 0 0-.08 3.56l31.78 81.35c2 4.86 3.38 7.74 6.33 6.66L120.8 148c7.25-3 7.48-3.72 5.84-7.95L100.5 80.78c-2.2-5.65-3-6.65-8.14-6.65z" class="B"/><path d="M248.52 41l1.42-5.58-1.64-4.25h-.6l-7.52-3.72c-8.93-6.32-25 3.72-25 3.72 1.64.45 5.88 1.42 7.3 1.94s2.08 3.9 2.08 3.9l.07 2.68-1.86 2.83 1.86 3.5h9.9l4.54 1.87 5.2 3z" fill="#9792a5"/><g class="D"><path d="M180.72 199h66.7l1.7 13c-33.27 8.7-68.4-1.56-68.4-1.56V199z"/><path d="M220 215.9a157.86 157.86 0 0 1-39.42-5.06l-.33-.1v-12.12l.46-.07h67.1l1.82 13.75-.4.1a115.89 115.89 0 0 1-29.23 3.5zm-38.83-5.85c3.65 1 36.5 9.52 67.43 1.57l-1.6-12.15h-65.82zm78.3-124.32l-2.15 8.4L245.9 147a90.72 90.72 0 0 0 23.15-14c11.53-9.6-5.44-42-5.44-42z"/><path d="M245.3 147.72L256.85 94l2.4-9.33 4.75 6a112.74 112.74 0 0 1 7.12 17.54c3.77 12.53 3.18 21-1.76 25.08a92.15 92.15 0 0 1-23.28 14.07zm14.4-61l-1.93 7.5-11.2 52a92.72 92.72 0 0 0 22.22-13.59c11.12-9.26-5.38-41.1-5.54-41.4z"/></g><path d="M251.35 196.18c-15.55-30 1.86-58.13 6.4-82.4l3.58-19.58C264.9 74.63 249 76.8 249 76.8s-20.65 3.8-28.9 6.2-22.92 47.78-22.92 47.78L194.8 141l4-3.72c0 6.4-21.74 60.5-21.74 60.5 64.55 22.58 74.3-1.68 74.3-1.6z" fill="#976ae2"/><path d="M224.2 78l1-5.66-14.66-9.08-1-3.5L211 58.2l-2.16-1c-2.15-1-.67-3-.67-3l3.2-7.07a7.65 7.65 0 0 0-.59-3.2c-.67-1.34 2.83-9.08 3.87-11.1s3.05-1.34 6.4-.38a4.81 4.81 0 0 1 3.42 4.39l-4 4.92 6 6.7s2.68.8 4.32-.6 5.88-1 8.26-.07 3 10.56 2.16 15.25a59.38 59.38 0 0 0-.3 11.69C239.15 77.1 224.26 78 224.2 78z" fill="#d8b28d"/><path d="M214.58 32.74a9.32 9.32 0 0 1 .67-1.64 13.16 13.16 0 0 1 4-3.5 21.79 21.79 0 0 1 10.42-3.27 28.58 28.58 0 0 1 4.54.37c-.22-.15-.52-.3-1-.6a20.71 20.71 0 0 1 11.69 5.14 9.46 9.46 0 0 1 3 3.42 10.92 10.92 0 0 0 2.1 2.68l-2.23-4.24h.6a2.14 2.14 0 0 0 2.3-1 7.8 7.8 0 0 1 8.93-3.13 1.46 1.46 0 0 0 .38.22c-3.73-.14-6.85.82-8.4 4.62.07-.15.14-.22.22-.37a1.68 1.68 0 0 0 .3-.45 6.72 6.72 0 0 1 6.77-2.83 9.2 9.2 0 0 1 3.05 1c1.94.82 2.46 2.6 2.75 4.4a7.3 7.3 0 0 1-4.76 8.11c-.15.08-.22 0-.52.08 2.46-1.8 3.65-4 3.13-6.92-.08.52 0 1-.08 1.48a6.66 6.66 0 0 1-6 5.44c-1.5 0-2.3-.9-3.27-2 1.2.37 2.23.52 3-.45a2.34 2.34 0 0 0 .07-2.75c.07.44.07.82.15 1.5a2.74 2.74 0 0 0-2.83-1.34 2.66 2.66 0 0 0-2.38 3.2l.6 3 .45 3.28c.08.15 0 .37 0 .74l-.52-1h-.07l.37 2a7.93 7.93 0 0 1-1 5.06l-1.94 3.28a9.22 9.22 0 0 1-1.33 1.63c.07-.3.07-.67.14-.9l-4.24 6.92a4 4 0 0 1-3.94-3.2c-.52-1.86-.15-3.72 0-5.58a11.22 11.22 0 0 0-.15-3.13c-1.34-5.43-8.93-6-11.4 1.72a7.87 7.87 0 0 0 .3 5.06 17 17 0 0 1 .37 2.9c.08-.52.22-1 .37-1.56a12.5 12.5 0 0 1 2.46 5 3.89 3.89 0 0 1-1.19 3.5c-.82.82-1.7 1.57-2.6 2.3a8 8 0 0 1-5.5 2.08v.23c.37.07.74.15 1.2.22a2.23 2.23 0 0 0-.52.3c-3.13 1.4-6.33 2.75-9.83 3a7.6 7.6 0 0 1-4.61-.81c-.9-.52-1-.67-.45-1.57a12 12 0 0 0 1.56-5.73 28.27 28.27 0 0 1 .52-4.17 3.62 3.62 0 0 1 .52-1 1 1 0 0 1 1.2-.52 4.17 4.17 0 0 0 2.82-.45.25.25 0 0 0 .08-.22c-1-.15-2-.37-3-.6-.37-.08-.74-.08-1.12-.15-.8-.08-1.1-.52-1-1.5s.75-1.64 1.5-1.56a12.86 12.86 0 0 1 5.66 2 9 9 0 0 1 1.93 2.23 4.72 4.72 0 0 1-.07-.52 5.78 5.78 0 0 1 2.08-5.59c.45-.37.9-.8 1.34-1.2 2.16-1.86 3.28-4.1 2.1-7.07 1.1.3 2.08.52 3.05.82.07-.07.07-.07.07-.15a2.84 2.84 0 0 0-.74-.29c-2.53-.82-4.32-2.6-6-4.47a1.58 1.58 0 0 1-.08-2.08l2.24-2.68 1.86-2.3a31 31 0 0 0 16.07-2.53 34.66 34.66 0 0 1-16.07 1.64 3.52 3.52 0 0 0-2.15-3.31 17.6 17.6 0 0 1 5.88-2.38c2.1-.37 4.1-.52 5.6-.74-.75 0-2-.15-3.35-.08a22.79 22.79 0 0 0-8.79 2.53 2.44 2.44 0 0 1-.74.15c-1-.07-1.86-.22-2.9-.37a17.52 17.52 0 0 1 9.52-5.51 19.8 19.8 0 0 1 10.95 1c-.45-.15-.9-.37-1.34-.52s-1-.3-1.5-.45a9.27 9.27 0 0 0-1.49-.37c-6.4-1-12 .6-16.52 5.3-1 1-2.1 1-3.13 1.34-.08-.08-.15-.08-.08-.15zM225.23 43c.37.15.6.3.9.44 5.88 2.4 11.24 1.42 16.15-2.6 1.7-1.4 3.35-3.05 5.66-3.72a6.27 6.27 0 0 0-2.09.59c-1.48.9-3 1.94-4.4 3A16.13 16.13 0 0 1 229.62 44a29.07 29.07 0 0 1-4.39-1zM245 35.27a3.82 3.82 0 0 0-.89.07 11.47 11.47 0 0 0-4.54 2c-1.8 1.12-3.57 2.23-5.8 2.16a3.47 3.47 0 0 0 1.27.15 8.72 8.72 0 0 0 4.41-1.65 17.86 17.86 0 0 1 5.56-2.73zm-3.42 12.95a11.74 11.74 0 0 0 5.36-6.85 22.85 22.85 0 0 1-5.41 6.85zm17-13.18c-.74-2.15-4.46-3.12-6.18-1.63a5.44 5.44 0 0 1 6.17 1.59zm-20.7-2.23l-.22-.6-6 1.4zm-26.58 12.5c.52 1.63 1.8 1 2.83.9 0 .37.07.74.07 1l4 .07a.25.25 0 0 0 .08-.22l-2.9-1c0-.08.08-.15.08-.22l4.4 1.16c-2.3-2.35-6.1-3.1-8.56-1.68z"/><path d="M233.04 50.3L211.38 48l-.6-2.97 23.96 4.76-1.7.52z" class="E"/><path d="M229.92 57.9s-.92 2.1 1.7 3.1 3.12-2 3.12-2a14 14 0 0 0 1.72-7.89c-.52-4.1-4.84.74-4.84.74.97 2.62-1.7 6.04-1.7 6.04z" class="F"/><g class="D"><path d="M226.42 75.83c-7.22 3.42-8.86 9.08-8.86 9.08s34.7-5.58 33.87-8.2-10.2-5.65-10.2-5.65c-2.9.07-7.6 1.34-14.8 4.76z"/><path d="M216.92 85.48l.2-.7c.07-.24 1.78-5.9 9.1-9.37 6.54-3.1 11.6-4.72 15-4.8h.15c1 .32 9.63 3.2 10.5 6a.81.81 0 0 1-.1.68c-.32.5-1.16 1.87-17.84 5.17-8.16 1.6-16.2 2.9-16.3 2.93zm9.7-9.23a16.64 16.64 0 0 0-8.34 8.08c15.7-2.56 32.05-6 32.7-7.55-.54-1.64-6.28-4.1-9.83-5.25-3.23.1-8.26 1.74-14.54 4.72z"/></g><path fill="#d69e2e" d="M174.1 74.27l19.87-.75.74 18.76h-19.05l-1.56-18z"/><path fill="#975a16" d="M187.42 77.84h2.9v7.3h-2.9z"/><path d="M195.38 95.26C192.7 77.7 191 84.54 187.2 79.63s-12.95 5.65-12.95 5.65a58.81 58.81 0 0 0 1.86 7.72c.8 1.93 2.68 7.07 2.68 7.07s19.27 12.75 16.6-4.8z" fill="#d8b28d"/><path d="M178.56 99.13l5.06-1.64c-5.2-.08-6.55-3.57-6.55-3.57z" class="F"/><circle cx="232.08" cy="60.2" r="1.12" class="D"/><path d="M189.42 73.5l-.88-.27a1.23 1.23 0 0 0 0-.84c-.16-.26-.68-.37-1.23-.5a3.18 3.18 0 0 1-2.47-1.41c-.58-1.14-.26-3 1-5.8 1.74-3.86 1.25-6.26.53-7.6a4.15 4.15 0 0 0-2.19-2l.15-.9a4.87 4.87 0 0 1 2.85 2.51c.82 1.52 1.4 4.2-.5 8.4-1.1 2.47-1.45 4.15-1 5 .3.6 1 .77 1.82.93a2.55 2.55 0 0 1 1.84.92 1.88 1.88 0 0 1 .08 1.55zm-9.72-.4c-3.7-4.1-3.7-4.35-.63-8.38l.53-.7c3.12-4.14-.8-7.72-1-7.87l.6-.7s4.74 4.3 1.1 9.1l-.52.7c-2.7 3.54-2.7 3.54.57 7.2z" fill="#d6c6f7"/><path d="M201.34 174.45l1.63-6.18a.77.77 0 0 1 .9-.52h.07a.76.76 0 0 1 .52.89l-1.63 6.18a.78.78 0 0 1-.9.52h-.07a.8.8 0 0 1-.52-.89z" fill="#d69e2e"/><g class="D"><path d="M191.74 172.44l14.3-.45-2.6 16.23-14.3 1.26 2.6-17.04z"/><path d="M188.6 190l2.75-18 15.23-.48-2.75 17.13zm3.54-17.1l-2.45 16.1 13.32-1.2 2.46-15.32z"/></g><path d="M201.477 175.225l1.26-5.138.893.22-1.26 5.138z" class="E"/><ellipse cx="210.64" cy="48.22" rx=".74" ry="6.4"/><path d="M191.5 82.6c-1.1-1.34-4 2.53-3.87 1.05s-1.64-5-1.64-5l5.5 3.95zm33.65-10.27l3.73 2.38c-1.56-1.2 1.4-6.25 1.4-6.25zm-16.3-15.1l2.16 1c3.28-.07 1.57-2.75 1.57-2.75-.38 1.98-3.73 1.75-3.73 1.75zm10.35.98a13.29 13.29 0 0 1-.37-3.57c0-2.46-5.73-2-4.84-3.72s5.2.82 5.2.82c4.6 1.93 0 6.47 0 6.47zm5.43-8.72l-13.25-1.26 13.25 2.6v-1.34zm16.6 13.7l-.9 8a5.54 5.54 0 0 1 .89-8z" class="F"/><g class="D"><path d="M244.2 83.5c-2.46-10.42-28-.82-28-.82a16.6 16.6 0 0 0-5.28 8.63L199.25 136s0-34.46-5.36-37.36-15.25 1.2-15.25 1.2l-2.68 39.6c-.6 7-1.7 27.3 14.2 26.42s30.67-13.92 39.9-33C246.66 98.46 246.6 94 244.2 83.5z"/><path d="M189.18 166.38a12 12 0 0 1-9-3.5c-4.1-4.23-5.7-12.12-4.73-23.45l2.68-39.6v-.3l.27-.1c.42-.17 10.24-4.14 15.66-1.16 2.4 1.3 4 7.88 4.92 20.14.4 5.45.57 10.8.63 14.17l10.82-41.4a16.87 16.87 0 0 1 5.57-8.88l.1-.06c.74-.28 18.12-6.74 25.5-2.8a5.86 5.86 0 0 1 3.09 3.94c2.43 10.7 2.4 15.32-14.18 49.65-9.64 20-24.7 32.44-40.28 33.3zm-10.1-66.2l-2.66 39.3c-.95 11.06.56 18.7 4.47 22.73 2.27 2.34 5.38 3.4 9.26 3.2 15.24-.86 30-13.1 39.5-32.8 16.43-34 16.48-38.58 14.1-49a4.88 4.88 0 0 0-2.63-3.34c-6.8-3.63-23.5 2.4-24.68 2.83a16.35 16.35 0 0 0-5.07 8.34l-12.6 48.23V136c0-9.5-.92-34.68-5.12-37-4.56-2.42-13 .58-14.6 1.2z"/></g><g fill="#976ae2"><path d="M194.7 98.68c-5.43-5.06-16.15.45-16.15.45-1.86 1.78-.3 5.88-.3 5.88 4.92-2.6 18.54 0 18.54 0 .6-3-2.1-6.33-2.1-6.33z"/><path d="M193.2 155.4a4.67 4.67 0 0 1-3.17-1.16c-8.24-7.36-6.52-22.47-3.67-47.5l.4-3.36.9.1-.38 3.37c-2.82 24.73-4.52 39.66 3.36 46.7a4 4 0 0 0 3.42.85c3.52-.57 7.7-4.4 10.9-10 9.74-17.08 15.66-50.28 15.72-50.6 2.06-7.8 21.32-13.2 22.14-13.43l.24.9c-.2.06-19.56 5.45-21.48 12.77-.05.3-6 33.66-15.82 50.88-3.4 5.9-7.7 9.78-11.56 10.4a6 6 0 0 1-1.01.09z"/></g><path d="M73.93 117.9a.85.85 0 0 1-.77-.5l-3.3-7.65a.83.83 0 0 1 1.52-.65l3.3 7.64a.83.83 0 0 1-.43 1.09.88.88 0 0 1-.32.07zm-12.35 9.46a.85.85 0 0 1-.5-.16l-8.74-6.53a.832.832 0 1 1 1-1.33l8.73 6.53a.83.83 0 0 1-.48 1.49zm27.58-7.56a.75.75 0 0 1-.48-.14.83.83 0 0 1-.22-1.15l4.72-6.85a.82.82 0 0 1 1.15-.21.81.81 0 0 1 .21 1.14l-4.7 6.86a.81.81 0 0 1-.67.35z" class="B"/><path d="M98.8 136.75L63 147.6a3.31 3.31 0 0 1-3.63-2.07l-3.5-7.74c-.7-1.53-.2-3.1 1.1-3.5l36.35-8.4c1.3-.4 3 1 3.64 2.55l2.94 4.82c.7 1.53.2 3.1-1.1 3.5z" fill="#b7791f" class="C"/><g fill="#975a16"><path d="M93.97 125.8l17.12.45 4.55 7.7-17.67 2.3-4-10.43z"/><path d="M56 135l17.22.4 7 12.68-17-.3c-2.52.22-4-1.25-5-3.6l-2.38-6.34A3 3 0 0 1 56 135z" class="C"/></g><path d="M74.17 134.72l13.25-3.07a3.53 3.53 0 0 0 1.49 2.19 3.94 3.94 0 0 0 2.31.57 4.21 4.21 0 0 0 .79-.06l4.7-.95a20.93 20.93 0 0 0 4.34-1.17 2.48 2.48 0 0 0 1.77-2.22 3.36 3.36 0 0 0-.75-1.74l8.45-2c1.3-.4 2.95 1 3.65 2.55l2.94 4.82c.7 1.53.2 3.1-1.1 3.5L80.2 148a3.3 3.3 0 0 1-3.63-2l-3.5-7.74c-.7-1.57-.2-3.14 1.1-3.54z" class="C E"/></svg>