<svg xmlns="http://www.w3.org/2000/svg" viewBox="0 0 320 240"><path d="M68.2 48.08l5.7-3.2 5-2.07h10.78l2-3.8-2-3.1.1-2.92s.78-3.7 2.24-4.23 6.2-1.64 7.94-2.15c0 0-17.5-11-27.26-4.06l-8.2 4.06h-.7l-1.73 4.65 1.56 6.13z" fill="#9792a5"/><path d="M127.2 222.05s98 7.85 147.58-62.7C339.7 67.06 237.85-40.4 181.62 41.8 128.14 120.1 15.76 60.16 5.75 147.53-6.15 250.5 127.2 222.05 127.2 222.05z" fill="#edf2f7"/><g fill="#4d1e9a"><path d="M137.54 209.63V222s-38.3 11.18-74.54 1.7l1.9-14.06z"/><path d="M94.7 228a126.28 126.28 0 0 1-31.79-3.8l-.43-.1 2-14.93H138v13.2l-.36.1A171.71 171.71 0 0 1 94.69 228zm-31.1-4.65c33.7 8.66 69.5-.65 73.46-1.74v-11.48h-71.7zM47.07 91.9s-18.55 35.36-6 45.7a100.84 100.84 0 0 0 25.23 15.27l-12.42-57.6-2.33-9.14z"/><path d="M67 153.67l-.86-.33A102.39 102.39 0 0 1 40.8 138c-5.4-4.44-6-13.6-1.9-27.27a124.71 124.71 0 0 1 7.73-19.06l.05-.08 5.1-6.6 2.58 10.14zm-19.5-61.5c-.7 1.34-18 35.23-6.06 45.05a103 103 0 0 0 24.18 14.83L53.4 95.37l-2.07-8.14z"/></g><path d="M293.9 160.12l-63.13-21c-7.07-2.33-8.7-3.28-6.38-9.84l10.26-27.16c1.3-4.5 3.7-7.85 8.2-7.34l64.6 7.77c6.13.34 8.28 3.1 7.34 7.33l-10.53 40.45c-1.55 6.26-3.1 12.12-10.35 9.8z" fill="#e2e8f0"/><path d="M287.8 153.48l-63.14-21c-7.07-2.33-8.7-3.28-6.38-9.84l10.27-27.17c1.3-4.48 3.7-7.84 8.2-7.33l64.6 7.77c6.12.34 8.28 3.1 7.33 7.33l-10.52 40.45c-1.55 6.25-3.14 12.12-10.35 9.8z" fill="#f7fafc"/><g fill="#cbd5e0"><path d="M290.74 154.5a10.27 10.27 0 0 1-3.1-.54L224.5 132.9c-3.94-1.3-6.4-2.22-7.32-4.1-.68-1.38-.5-3.24.62-6.38l10.27-27.18c1.6-5.55 4.53-8.13 8.72-7.65l64.6 7.76c3.37.2 5.72 1.12 7 2.77a6.06 6.06 0 0 1 .79 5.17l-10.53 40.46c-1 4.12-2.06 8.38-5 10a5.77 5.77 0 0 1-2.91.73zm-2.8-1.5c2.15.7 3.84.67 5.17-.07 2.58-1.45 3.58-5.5 4.54-9.4l10.53-40.46a5.09 5.09 0 0 0-.62-4.32c-1.06-1.4-3.17-2.2-6.26-2.4l-64.63-7.76c-3.67-.43-6.18 1.86-7.65 7l-10.28 27.2c-1 2.86-1.2 4.48-.66 5.6.74 1.52 3 2.36 6.73 3.58z"/><path d="M255.77 198.75a9.87 9.87 0 0 1-3.07-.55l-110.4-36.36c-3.06-1-6.22-2.07-7.27-4.28a4.48 4.48 0 0 1 .05-3.57l27.6-75.37c1.65-4.05 3.5-7.66 7.8-7.66l110.63 12.77c4.3.67 6.7 1.8 7.8 3.6 1 1.58 1 3.68 0 6.6l-25.7 97.44c-1.05 3.45-2.54 5.63-4.56 6.67a6.24 6.24 0 0 1-2.9.69zM170.43 72c-3.64 0-5.24 3.2-6.8 7L136 154.34a3.41 3.41 0 0 0-.08 2.79c.86 1.83 3.82 2.8 6.67 3.76l.43.14 110 36.22a6.58 6.58 0 0 0 5.22-.08c1.77-.9 3.1-2.9 4.06-6.06L288 93.67c.86-2.66.88-4.5.07-5.8-.95-1.55-3.13-2.52-7.1-3.14z"/><path d="M269.57 185a9.87 9.87 0 0 1-3.07-.55L156.1 148c-3.06-1-6.22-2.07-7.27-4.28a4.48 4.48 0 0 1 0-3.57l27.6-75.37c1.65-4 3.5-7.66 7.8-7.66l110.68 12.8c4.3.68 6.7 1.8 7.8 3.62 1 1.58 1 3.68 0 6.6l-25.7 97.44c-1.05 3.45-2.54 5.63-4.56 6.67a6.24 6.24 0 0 1-2.91.74zM184.23 58.15c-3.64 0-5.24 3.2-6.8 7l-27.6 75.36a3.41 3.41 0 0 0-.08 2.79c.86 1.83 3.82 2.8 6.68 3.76l.42.14 110 36.22a6.58 6.58 0 0 0 5.22-.08c1.77-.9 3.1-2.9 4.06-6.06l25.7-97.44c.86-2.66.88-4.5.07-5.8-.95-1.55-3.13-2.52-7.1-3.14z"/><path d="M247.68 186.5l-110-36.22c-4.4-1.47-9.05-2.85-7.33-7.33L158 67.58c1.56-3.8 3.28-7.34 7.33-7.34L275.9 73c7.07 1.12 9.4 3.45 7.4 9.57l-25.7 97.47c-1.46 4.84-4.22 8.37-9.92 6.47z"/></g><path d="M141.42 208.34s-23.63-59-23.63-66l4.4 4.06-2.6-11.2s-15.95-49.43-25-52.1S63 76.37 63 76.37 45.77 74 49.65 95.35l3.88 21.3c5 26.4 24 57.1 7 89.8-.01 0 10.47 26.48 80.9 1.9z" fill="#976ae2"/><path d="M71.82 74.22a67 67 0 0 0-.35-12.68c-.86-5.1-.25-15.7 2.33-16.65s7.25-1.46 9 .1 4.75.6 4.75.6l6.55-7.24L89.67 33a5.37 5.37 0 0 1 3.71-4.83c3.62-1.12 5.78-1.8 7 .34s4.9 10.7 4.22 12.08a9.52 9.52 0 0 0-.7 3.41l3.54 7.76s1.55 2.24-.78 3.28l-2.32 1 1.55 1.73-1.12 3.8L89 71.54l1 6.2s-16.2-1.03-18.18-3.53z" fill="#d8b28d"/><path d="M100.45 28.6c-1.2-.43-2.32-.43-3.36-1.47-4.92-5.08-11-6.9-18-5.7a12.26 12.26 0 0 0-1.63.43c-.52.18-1.13.35-1.64.52s-1 .43-1.47.6a21.86 21.86 0 0 1 12-1.12 18.84 18.84 0 0 1 10.35 6c-1.12.17-2.16.26-3.2.43a2 2 0 0 1-.78-.17 25 25 0 0 0-9.57-2.76c-1.47-.1-2.85.1-3.62.1 1.55.17 3.88.43 6 .86A20.61 20.61 0 0 1 92 28.94a3.87 3.87 0 0 0-2.24 3.27 37.53 37.53 0 0 1-17.51-1.81 34.23 34.23 0 0 0 17.51 2.76c.78 1 1.38 1.73 2.07 2.5.78 1 1.64 1.9 2.4 2.94a1.81 1.81 0 0 1-.08 2.32c-1.9 2-3.8 4-6.56 4.83a7.52 7.52 0 0 1-.86.26c0 .1 0 .1.1.18 1-.26 2.15-.6 3.27-.95-1.3 3.27-.08 5.7 2.33 7.67.52.43.95.87 1.47 1.3a6.33 6.33 0 0 1 2.33 6 2.84 2.84 0 0 1-.09.52 11.87 11.87 0 0 1 2.16-2.5 12.34 12.34 0 0 1 6.21-2.16c.77-.08 1.46.7 1.55 1.73s-.26 1.47-1.2 1.64c-.43.08-.77.08-1.2.17-1 .17-2.16.43-3.2.7a.31.31 0 0 0 .09.26 4.8 4.8 0 0 0 3.11.52 1.27 1.27 0 0 1 1.38.6 6.5 6.5 0 0 1 .51 1.12 42.08 42.08 0 0 1 .61 4.57 12.24 12.24 0 0 0 1.72 6.21c.52 1 .52 1.2-.52 1.73a9.2 9.2 0 0 1-5 1c-3.8-.3-7.24-1.75-10.7-3.3a4.25 4.25 0 0 1-.61-.35c.52-.08 1-.17 1.3-.25v-.18A8.36 8.36 0 0 1 86.4 70a20.07 20.07 0 0 1-2.85-2.59 4 4 0 0 1-1.29-3.79 13.39 13.39 0 0 1 2.67-5.44c.17.6.26 1.2.43 1.73a12.81 12.81 0 0 1 .43-3.19 8.74 8.74 0 0 0 .35-5.52c-2.68-8.45-11-7.85-12.42-1.8a11.18 11.18 0 0 0-.18 3.36c.18 2.07.6 4 0 6.12a4.27 4.27 0 0 1-4.31 3.45l-4.66-7.6c.1.26.1.6.18 1a7.2 7.2 0 0 1-1.47-1.81c-.7-1.2-1.47-2.33-2.07-3.62a8.79 8.79 0 0 1-1.12-5.52c.17-.78.26-1.47.43-2.24h-.1a6.71 6.71 0 0 0-.51 1.12v-.86c.17-1.2.26-2.33.5-3.54S60.87 37 61 36a2.88 2.88 0 0 0-2.59-3.45A3.05 3.05 0 0 0 55.35 34c.08-.7.08-1.12.17-1.63a2.57 2.57 0 0 0 .08 3c.87 1 1.9.87 3.2.44-1 1.2-2 2.24-3.54 2.15a7.24 7.24 0 0 1-6.56-6c-.08-.52 0-1.12-.08-1.64-.6 3.2.77 5.52 3.36 7.5-.34 0-.43 0-.52-.1a7.94 7.94 0 0 1-5.17-8.88c.34-2 1-3.9 2.93-4.75a16.87 16.87 0 0 1 3.37-1.12c2.93-.26 5.6.52 7.33 3.1l.26.5c.08.18.17.26.25.43-1.72-4.14-5.08-5.17-9.22-5 .17-.08.25-.17.43-.26a8.51 8.51 0 0 1 9.74 3.45 2.23 2.23 0 0 0 2.5 1.12h.7l-2.4 4.58a12.67 12.67 0 0 0 2.33-2.94 11.12 11.12 0 0 1 3.19-3.71 21.91 21.91 0 0 1 12.68-5.6c-.52.26-1 .52-1.12.6a30.39 30.39 0 0 1 4.91-.43 23.67 23.67 0 0 1 11.39 3.62 13.82 13.82 0 0 1 4.4 3.88 16.36 16.36 0 0 1 .77 1.73c-.08.34-.08.42-.26.5zm-16.3 12.08a17.23 17.23 0 0 1-12.85-3.54c-1.55-1.12-3.1-2.24-4.74-3.28a6.25 6.25 0 0 0-2.24-.69c2.5.7 4.3 2.5 6.2 4.06 5.34 4.4 11.2 5.43 17.68 2.84a4.66 4.66 0 0 0 1-.43c-1.87.37-3.42.86-5.06 1.04zm-10.7-6.56a9 9 0 0 0 4.83 1.81 3.85 3.85 0 0 0 1.38-.17c-2.42.1-4.4-1.12-6.3-2.33a13.16 13.16 0 0 0-4.91-2.16 4.56 4.56 0 0 0-1-.08c2.3.43 4.1 1.72 6 2.93zm-8.1 3.7a12.49 12.49 0 0 0 5.78 7.42 24.23 24.23 0 0 1-5.78-7.42zm-6-8.7c-1.9-1.64-6-.6-6.72 1.72a6 6 0 0 1 6.68-1.72zm22.6.26L75.4 27.8l-.18.6zm12.9 14.48l4.74-1.2c0 .1.1.17.1.26l-3.2 1.12a.34.34 0 0 0 .08.26l4.4-.1a5.1 5.1 0 0 1 .09-1.12c1.2.17 2.5.78 3-.95-2.66-1.55-6.7-.77-9.2 1.73z"/><path fill="#ecc94b" d="M78.55 46.96l26.13-5.17-.6 3.2-23.64 2.58-1.9-.6z"/><path d="M81.9 49.3s-4.66-5.26-5.26-.78a15 15 0 0 0 1.9 8.63s.6 3.36 3.36 2.16 1.9-3.45 1.9-3.45-2.93-3.8-1.9-6.56z" fill="#c69c79"/><g fill="#4d1e9a"><path d="M71.56 70.16s-10.18 3.37-11.13 6.13 36.92 9 36.92 9-1.8-6.13-9.66-9.92-12.94-5.12-16.13-5.2z"/><path d="M98.06 85.88l-.8-.13c-5.9-1-35.46-6-37.22-8.9a.86.86 0 0 1-.09-.74C61 73.2 70.34 70 71.4 69.7h.17c3.7.1 9 1.8 16.33 5.22 8 3.85 9.85 10 9.93 10.24zm-37.13-9.5c1 1.65 18.68 5.43 35.63 8.24a18.52 18.52 0 0 0-9.09-8.83c-7-3.28-12.34-5-15.84-5.12-2.8.93-9.87 3.67-10.7 5.7z"/></g><path fill="#d69e2e" d="M142.98 93.28h-20.8l.86-20.44 21.65.86-1.72 19.58z"/><path fill="#975a16" d="M126.93 77.58h3.1v7.93h-3.1z"/><path d="M139.6 101.73l2.93-7.76a68.35 68.35 0 0 0 2-8.37s-9.92-11.47-14.06-6.12-6-2.07-8.88 17.08 18 5.17 18 5.17z" fill="#d8b28d"/><path d="M242.42 179.6l-98.06-32.25c-3.9-1.3-8.1-2.5-6.56-6.56l24.58-67.2c1.38-3.36 2.93-6.55 6.56-6.55l98.5 11.38c6.3 1 8.37 3 6.65 8.54l-22.86 86.86c-1.3 4.4-3.7 7.6-8.8 5.77z" fill="#fff"/><path d="M141.42,95s-1.46,3.8-7.16,3.88l5.52,1.82Z" fill="#c69c79"/><ellipse cx="295.9" cy="51.88" rx="3.71" ry="5.87" fill="#e2e8f0"/><ellipse cx="219.31" cy="206.27" rx="3.71" ry="5.86" fill="#cbd5e0"/><circle cx="81.48" cy="58.35" r="1.21" fill="#4d1e9a"/><path d="M128 72.8a2 2 0 0 1 .08-1.67 2.79 2.79 0 0 1 2-1c.85-.18 1.65-.35 2-1 .47-.93.08-2.77-1.14-5.46-2-4.57-1.42-7.5-.55-9.16a5.38 5.38 0 0 1 3.07-2.75l.18 1a4.57 4.57 0 0 0-2.36 2.23c-.77 1.47-1.3 4.1.57 8.3 1.4 3.06 1.75 5.07 1.12 6.32a3.48 3.48 0 0 1-2.69 1.55c-.6.13-1.18.25-1.36.54a1.21 1.21 0 0 0 0 .88zm10.67-.48l-.82-.6c3.53-4 3.53-4 .74-7.8l-.67-.9c-3.94-5.3 1.14-9.85 1.2-9.9l.66.75c-.18.16-4.43 4-1.05 8.56l.67.9c3.2 4.25 3.17 4.5-.72 8.97z" fill="#d6c6f7"/><path d="M114.34 183.75a.87.87 0 0 1-1-.6l-1.82-6.64a.91.91 0 0 1 .61-1 .89.89 0 0 1 1 .61l1.8 6.64a.81.81 0 0 1-.6.99z" fill="#d69e2e"/><g fill="#4d1e9a"><path d="M128.3 199.28l-15.6-1.38-2.84-17.77 15.6.52 2.84 18.63z"/><path d="M128.9 199.83l-16.63-1.47-3-18.75 16.63.55zm-15.77-2.4l14.6 1.3-2.72-17.6-14.6-.5z"/></g><path fill="#ecc94b" d="M112.53 177.982l.97-.24 1.385 5.597-.97.24z"/><ellipse cx="104.85" cy="45.24" rx=".78" ry="6.99"/><path d="M131.76 78.44s-1.9 3.8-1.72 5.44-3-2.6-4.23-1.2 5.95-4.23 5.95-4.23zM83.38 67.32s3.2 5.52 1.55 6.8 4-2.6 4-2.6zM102.7 53.1s-1.8 2.93 1.72 3l2.33-1c.1-.02-3.62.24-4.05-2zm-7.16-3.98s4.74-2.76 5.7-.86S96 49.64 96 52.3a13.54 13.54 0 0 1-.43 3.88s-5.03-5-.03-7.07zm-5.94-1.04l14.5-2.84-14.5 1.46v1.38zM72.5 70.25l-1-8.7a6.17 6.17 0 0 1 1 8.71z" fill="#c69c79"/><path d="M214.43 91.743l2.415-7.68.954.3-2.415 7.68zm13.084 7.644l7.682-7.158.682.732-7.682 7.158zM194.78 89.72l.75-.663 5.344 6.034-.75.663zm36.6 51.08l4.83 1.64 8.02-30.96-64.17-7.08-1.72 5.18 59.42 6.55 6.47-4.65" fill="#b7791f"/><path fill="#d69e2e" d="M229.74 147.1l6.47-4.66 8.02-30.96-6.47 4.65-8.02 30.97z"/><path fill="#975a16" d="M180.06 104.4l-1.72 5.18-4.66-.52 6.38-4.66z"/><path fill="#ecc94b" d="M229.74 147.1l-61.84-21.13 5.78-16.9 64.08 7.07-8.02 30.97z"/><g fill="#b7791f"><ellipse cx="191.07" cy="123.45" rx="4.57" ry="3.19" transform="matrix(.27228 -.962218 .962218 .27228 20.27 273.7)"/><ellipse cx="208.63" cy="127" rx="5.52" ry="3.79" transform="matrix(.27228 -.962218 .962218 .27228 29.63 293.18)"/></g><path fill="#edf2f7" d="M229.92 147.27l-82.9-10.52-29.24 5.6 26.82-20.1 23.46 3.88 61.85 21.13z"/><g fill="#4d1e9a"><path d="M83.72 137.44c10.1 20.78 26.14 35 43.47 36.05s16.13-21.22 15.53-28.8c-.95-11-2.94-43.12-2.94-43.12s-10.86-4.5-16.64-1.3-5.87 40.8-5.87 40.8L104.6 92.24a17.64 17.64 0 0 0-5.77-9.4S71 72.32 68.37 83.8 65.6 100 83.72 137.44z"/><path d="M128.34 174h-1.18c-16.93-1-33.33-14.6-43.9-36.33-18-37.2-18-42.24-15.4-54a6.38 6.38 0 0 1 3.36-4.36c8-4.32 27 2.75 27.75 3.05l.12.07a18 18 0 0 1 6 9.67l11.73 45.18c.18-10 1.13-34.73 6.1-37.46 5.92-3.27 16.62 1.08 17.08 1.27l.28.1v.32c0 .32 2 32.3 2.93 43.1.37 4.65 1.5 18.8-5.2 25.63a13 13 0 0 1-9.69 3.74zm-44.17-36.78c10.4 21.4 26.5 34.78 43.05 35.78 4.2.25 7.6-.9 10.08-3.42 6.38-6.5 5.28-20.3 4.92-24.85-.9-10.25-2.7-39.43-2.92-42.8-1.74-.67-10.93-4-15.92-1.2-4.53 2.5-5.58 30-5.6 40.36V145l-1-3.76-12.68-48.82a17.55 17.55 0 0 0-5.54-9.09c-1.26-.46-19.47-7.06-26.86-3.08a5.35 5.35 0 0 0-2.85 3.7c-2.6 11.47-2.54 16.42 15.3 53.32z"/></g><g fill="#976ae2"><path d="M120 107.16s14.83-2.84 20.18 0c0 0 1.72-4.48-.35-6.46 0 0-11.73-6-17.6-.52-.05.08-2.98 3.62-2.24 6.98z"/><path d="M123.88 162.1a7.11 7.11 0 0 1-1.11-.09c-4.16-.7-8.86-5-12.57-11.4C99.5 131.88 93 95.54 93 95.18c-2.14-8-23.24-13.87-23.45-13.93l.27-1c.87.3 21.84 6.17 24.18 14.75.07.4 6.5 36.57 17.12 55.17 3.56 6.2 8 10.26 11.86 10.9a4.35 4.35 0 0 0 3.76-.94c8.6-7.7 6.7-24.06 3.6-51.18l-.4-3.4 1-.12.4 3.4c3.16 27.44 5.06 44-3.92 52.05a5.12 5.12 0 0 1-3.53 1.23z"/></g></svg>