<svg xmlns="http://www.w3.org/2000/svg" viewBox="0 0 320 240"><style><![CDATA[.B{fill:#976ae2}.C{fill:#4d1e9a}.D{fill:#d8b28d}.E{fill:#c69c79}.F{fill:#cbd5e0}.G{fill:#b7791f}]]></style><path d="M206.35 224.66s-85.85 3.7-126.94-59.48c-53.78-82.74 38.72-173.38 85.2-99.8C208.9 135.52 309 86.76 315 163.36c6.93 90.5-108.65 61.3-108.65 61.3z" fill="#edf2f7"/><path d="M134.65 150.63l-4.3 1.2-5.55-27.4 56.37-3.16 1.26 4.6-52.27 2.93-5.36-4.37" class="G"/><g class="F"><path d="M139.26 141.85c-2.12 0-3.82-1.3-4.9-3.78l-24.5-64c-.9-2.48-.9-4.47 0-5.77a4.07 4.07 0 0 1 3.47-1.62l28.68-1.2c4.24-.25 5.74 0 7.2 3.3l21.32 55.93c1.27 3.4.1 6-3.3 7.43l-25.5 9.2a6.81 6.81 0 0 1-2.46.51zM144 66.4l-2 .08-28.7 1.17a3.16 3.16 0 0 0-2.69 1.18c-.7 1-.65 2.7.13 4.86l24.5 64c1.25 2.87 3.3 3.8 6.06 2.7l25.5-9.2c2.88-1.2 3.8-3.26 2.72-6.14l-21.27-55.9C147.3 67 146.5 66.4 144 66.4z"/><path d="M170.16 129.43l-25.5 9.2c-3.24 1.26-5.44-.06-6.72-3l-24.5-64c-1.45-4-.48-6.6 3-6.7l28.7-1.17c4.1-.23 5.37-.1 6.7 3l21.3 55.9c1.13 2.9.3 5.44-3 6.77z"/></g><path d="M177.94 132.27l-25.5 9.2c-3.24 1.26-5.43-.07-6.7-3l-24.5-64c-1.44-4-.47-6.6 3-6.7l28.7-1.18c4.1-.23 5.37-.08 6.7 3l21.37 55.9c1.07 3 .2 5.45-3.06 6.8z" fill="#fff"/><path d="M137.87 79.65c1 2.92.36 6-2.1 6.76s-5.77-.9-6.77-3.84-.36-6 2.1-6.76 5.8.92 6.77 3.84zm3.33-.33a1.001 1.001 0 0 1-.08-2L157.35 76a1 1 0 0 1 1.07.91 1 1 0 0 1-.91 1.08l-16.24 1.32zm1.5 2.88a1.001 1.001 0 0 1-.09-2l16.24-1.4a1 1 0 0 1 1.09.91 1 1 0 0 1-.94 1.08l-16.24 1.4zm1.57 13.36c1 2.92.35 6-2.1 6.76s-5.77-.92-6.75-3.84-.35-6 2.1-6.76 5.76 1 6.74 3.84zm3.3-.26a1.001 1.001 0 0 1-.08-2l16.24-1.4a1 1 0 0 1 1.08.91 1 1 0 0 1-.91 1.08l-16.24 1.4zm1.52 2.8a1.001 1.001 0 0 1-.08-2l16.24-1.3a1.003 1.003 0 1 1 .16 2l-16.24 1.3zm3.68 14.68c1 2.93.36 6-2.1 6.76s-5.77-.9-6.74-3.83-.36-6 2.1-6.76 5.77.9 6.74 3.83zm3.32-.33a1.001 1.001 0 0 1-.08-2l16.23-1.4a1.004 1.004 0 1 1 .17 2l-16.23 1.4zm1.5 2.88a1 1 0 0 1-1-.92 1 1 0 0 1 .91-1.08l16.32-1.4a1.004 1.004 0 0 1 .17 2l-16.32 1.38z" class="F"/><path fill="#d69e2e" d="M135.8 156.2l-5.43-4.38-5.55-27.4 5.36 4.37 5.62 27.42z"/><path fill="#975a16" d="M181.18 121.26l1.26 4.6 4.1-.23-5.35-4.37z"/><path fill="#ecc94b" d="M135.8 156.2l54.92-15.55-4.18-15.03-56.36 3.16 5.62 27.42z"/><g class="G"><ellipse cx="170.61" cy="137.38" rx="2.79" ry="4" transform="matrix(.975496 -.220016 .220016 .975496 -26.05 40.91)"/><ellipse cx="155.16" cy="139.64" rx="3.32" ry="4.83" transform="matrix(.975496 -.220016 .220016 .975496 -26.93 37.57)"/></g><ellipse cx="60.91" cy="62.74" rx="5.13" ry="3.24" transform="matrix(.05373 -.998555 .998555 .05373 -5.02 120.19)" fill="#e2e8f0"/><ellipse cx="113.63" cy="201.54" rx="5.13" ry="3.24" transform="matrix(.05373 -.998555 .998555 .05373 -93.73 304.17)" class="F"/><g class="C"><path d="M208 227l32.85-67.2-29.5 5.3-9 60.7L208 227z"/><path d="M251 154.18c-3.3-1.6-7-1-8.16 1.45l-2 4.2L208 227a96.3 96.3 0 0 0 12.17 2l33.44-68.37-3.2-5.23z"/><path d="M268 191.35c-.54-6.75-2.4-21.2-14.42-30.84l-33.4 68.5c13.8 1.8 30.17 2.15 44.6-2.28l.78-4.64s3.07-23.37 2.44-30.73z"/></g><path d="M236.12 54.8s9.36-20.88-3.48-35S206.22 9.7 201.8 13s-12.9 13.88-13.4 31.3-.74 25 7.5 38.62c0 0-6.92-17.37-6.08-31.6 0 0 3.92 17.06 23.65 26.65S239 140 239 140s28-43 13.24-66.28c0 0 13.95 8.75 17.6 40.45 0 0 4.17-27-14.73-44.9 0 0 15.22 9.2 16 19.07.2-.13 3.3-18.4-35-33.52z"/><path d="M239.53 124.78l-24.36.65-5.3 42.32s31-6.7 40.33-9.7c0 0-17.2-19.66-10.67-33.28z" class="D"/><path d="M252.3 113.3s1.8 45.1-20.3 49.82c0 0-11.18-1.36-15.85 1.26s.27-10.56 2.3-13.25c7.43-10.32 30.15-26.93 33.84-37.83z" class="B"/><path d="M173 116.2s23.56 22.57 33.3 28.16-3.62-18.25-3.62-18.25l-21.83-15.38zm33.8-24.45s8.9-16.6 9.05-19.46-2.27-11.07-2.27-11.07 10-4.3 10.73-14.15c0 0 4.36 20 6.74 23.48S220.77 72 206.8 91.75z" class="D"/><path d="M239.26 124.16c.17-3.16 3.36-18.93 3.36-18.93l8.7 2.8A87 87 0 0 1 257 87.43l-16.7-13.2s-6.07-13.63-29.24 11.26c0 0-10 14.57-11.3 21.83s-3.56 14.08.75 23.83 9-24.82 6.84-7.7" class="B"/><g class="C"><path d="M239.78 73.9s-8.46-15.57-33.18 18.53a26.08 26.08 0 0 0-9.47 17.39c-.72 6.38.87 16 3.3 21.33s5.84 36 5.24 41.44 3.95 24.92 3.95 24.92 3.77-119.07 30.15-123.6z"/><path d="M210 201.3l-.87-3.7c-.2-.8-4.56-19.58-4-25.08.64-5.87-2.88-36.1-5.2-41.2-2.56-5.62-4.06-15.3-3.35-21.6a26.44 26.44 0 0 1 9.61-17.69c13.74-18.93 22.53-22.52 27.53-22.2a8 8 0 0 1 6.45 3.79l.33.6-.7.12c-25.68 4.42-29.7 122-29.73 123.13zm23.15-130.47c-4.82 0-13.15 4-26.15 21.87l-.1.1a25.87 25.87 0 0 0-9.27 17.05c-.7 6.13.78 15.58 3.27 21.06s5.86 36.45 5.3 41.7c-.42 3.88 1.83 15.1 3.1 21 .4-9 1.72-32.6 5-56.32 5.54-39.6 13.82-61 24.63-63.78a7.1 7.1 0 0 0-5.26-2.69z"/></g><path d="M222.84 180.68s-1.23 37 42.72 41.36c0 .07-31.27 1.33-42.72-41.36z" class="B"/><g class="C"><path d="M216.07 121.4l23.06.94.4 2.44-24.36.65.9-4.03z"/><path d="M214.54 126l1.13-5.06 23.9 1 .55 3.4zm1.92-4l-.66 3 23.14-.62-.24-1.47z"/><path d="M239.78 73.9s-30.6 82.94-27 119.47l-9.63 31.43 6.64-41.86a67.46 67.46 0 0 1 0-17.75c1.32-9.07 5.9-52 12.5-66.48 6.43-14.53 8.77-25.6 17.5-24.8z"/></g><path d="M198.8 26.9s8.33-10.13 21.66 3.13 15.3 17.6 15.3 17.6S212.83 9 198.8 26.9z" fill="#4a5568"/><path d="M200 23.85s15.28-13.15 28.25 8.4c-.05 0-11.78-19.37-28.25-8.4z" fill="#718096"/><g fill="#ecc94b"><path d="M234.63 55.86s-4.16 1.5-3.3 2.54 3.12-.5 3.84-1.23c-.66 1-2 2.84-1 3.5s2.7-2.13 2.8-3.1c-.18 2-.33 3.3.94 3.68 1.28 0 1.73-2.63.9-4.26.8.42 2.18 1.48 2.74 1S241 55.52 239 55.1c.92-.25 3.66-.48 3.34-1.7s-3.86.25-3.86.25 3.1-2.7 2.15-3.5-3.4 3-3.4 3 .2-3.7-1-3.68-.48 3.3 0 4-1.5-2.8-2.92-1.74c-.7.56.56 2.07 1.66 2.8-1.56-.6-3.16-1.68-3.53-.5-.3.88 2.22 1.85 3.2 1.83z"/><path d="M236.12 54.8c.16-.22.4-.44.63-.42.45 0 1.3-.1 1.4.83a1.08 1.08 0 0 1-1.43 1.2c-.3-.24-.93-.95-.6-1.6z"/></g><path d="M228 214.57s.42 1.9-.87 2.07c-1.06 0-1.5-1.52-1-3.23s4.08-2.8 3.83-1.07a1 1 0 0 1-1.17.69c.87.72 1.67 1.22 1.26 1.95-.25.6-1.3.54-2.05-.4zm16.27 10.03s.9 1.7-.26 2.1c-1 .25-1.76-1.08-1.74-2.74s3.14-3.6 3.35-1.93a.91.91 0 0 1-1 .93c1 .5 1.93.7 1.65 1.6-.06.52-1.05.77-2 .04zM215 155.8a1.86 1.86 0 0 0-.38-1.38c-.57-.64-1.72-1.6-2.84-.53a1.84 1.84 0 0 0 .58 3.2c.64.2 2.4.06 2.64-1.3zm-1.6 7.9a1.29 1.29 0 0 0-.32-1.15c-.5-.56-1.43-1.36-2.4-.43a1.59 1.59 0 0 0 .46 2.74c.52.13 2.04-.04 2.25-1.16zm2.92-16.15a1.86 1.86 0 0 0-.38-1.38c-.57-.63-1.72-1.6-2.84-.53a1.84 1.84 0 0 0 .58 3.2c.67.16 2.42.06 2.64-1.3zm6.6-25.93a1.74 1.74 0 0 0-.23-1.37c-.5-.7-1.57-1.75-2.75-.75a1.85 1.85 0 0 0 .27 3.26c.6.1 2.4.13 2.7-1.14zm-2.3 7.73a1.22 1.22 0 0 0-.24-1.14c-.42-.55-1.27-1.5-2.3-.66a1.57 1.57 0 0 0 .23 2.74c.52.1 2.03.1 2.3-.94zM225 113.5a1.74 1.74 0 0 0-.23-1.37c-.5-.7-1.57-1.75-2.75-.75a1.85 1.85 0 0 0 .27 3.26c.63.18 2.44.2 2.7-1.14zm8.13-22.75a1.51 1.51 0 0 0-.23-1.37c-.5-.7-1.5-1.82-2.75-.9a1.83 1.83 0 0 0 .13 3.26c.72.27 2.4.35 2.85-.98zm-2.68 7.63a1.47 1.47 0 0 0-.17-1.14c-.4-.62-1.2-1.57-2.3-.8a1.53 1.53 0 0 0 .08 2.72c.5.26 2.02.34 2.38-.78zm5.15-15.58a1.48 1.48 0 0 0-.22-1.37c-.5-.7-1.5-1.82-2.75-.9a1.83 1.83 0 0 0 .13 3.26c.66.22 2.4.28 2.84-.98z" class="B"/><g fill="#262323"><path d="M176 119.88a.93.93 0 0 1-.68-.34 1.35 1.35 0 0 1-.33-1c.1-1.72 2.85-4.25 5.42-6.48.9-.8 1.63-1.1 2.18-.88a1.53 1.53 0 0 1 .8 1.18l-.5.06s-.08-.62-.48-.77-.95.15-1.67.8c-1.8 1.56-5.15 4.47-5.25 6.13a.8.8 0 0 0 .21.64.41.41 0 0 0 .31.18.45.45 0 0 0 .3-.13l.36.35a1 1 0 0 1-.67.27z"/><path d="M176.55 120.36a.92.92 0 0 1-.68-.34 1.36 1.36 0 0 1-.34-1c.1-1.72 2.86-4.24 5.42-6.48.9-.8 1.63-1.08 2.18-.88a1.53 1.53 0 0 1 .8 1.18l-.5.06s-.08-.62-.47-.77-1 .15-1.67.8c-1.8 1.56-5.16 4.48-5.26 6.13a.8.8 0 0 0 .21.64.43.43 0 0 0 .31.18.64.64 0 0 0 .3-.13l.36.35a1 1 0 0 1-.66.27z"/><path d="M177.77 121.5a.93.93 0 0 1-.68-.35 1.33 1.33 0 0 1-.34-1c.1-1.72 2.86-4.24 5.43-6.47a2.7 2.7 0 0 1 2.32-.9 2.13 2.13 0 0 1 1.38 1.16l-.45.2a1.66 1.66 0 0 0-1-.88 2.27 2.27 0 0 0-1.88.78c-1.8 1.57-5.15 4.48-5.26 6.13a.91.91 0 0 0 .21.65.53.53 0 0 0 .31.18.54.54 0 0 0 .3-.14l.36.35a1 1 0 0 1-.7.28z"/></g><path d="M214.4 79.76a.63.63 0 0 1-.33-.09c-.46-.27-.73-1 .42-4.8l.52.12c-1.1 3.6-.78 4.13-.65 4.2.56.33 3.06-2.25 5.26-4.52 2.67-2.77 6-6.2 8.8-7.85.74-.4 1.12-.87 1.13-1.36 0-1-1.37-1.92-1.4-1.93l.27-.42c.07 0 1.66 1.08 1.62 2.36a2.22 2.22 0 0 1-1.38 1.78c-2.76 1.6-6 5-8.7 7.76-2.97 3.02-4.63 4.73-5.58 4.73z" class="G"/><path d="M197 27.32s-4.57.8-1 10.67l1 4.5s.25 5.3-.18 6.1-2.3 3.43.55 3.9 3.26 1.15 2.78 1.66l-.48.5 5.7 2a12.18 12.18 0 0 1-2.43 3s1.45-.15 2 2.67 5.33 1.95 6.27 1.24 6.25-5.17 8.28-5.06.64-11.75.82-13.78-1.55-7.64-4.38-8.47-4.1-3.85-6.14-3.73c-2.23-.1-11.95-3.52-12.8-5.2z" class="D"/><path fill="#fff" d="M197.73 35.6l20.18 1.1.6 1.24-20.3-.26-1 .47-.57-2.07 1.1-.47z"/><path d="M195.24 40.45a7.51 7.51 0 0 1 .34-1.67c.3-.9.74-1.75 1.06-2.64l1.1-.55s4 10.5 3.4 12.27-2.5.3-3.28-.6a9.78 9.78 0 0 1-2.64-5.77 7.36 7.36 0 0 1 .02-1.05z" class="B"/><path d="M203.68 56.83s-3.32.05-4.1-1 .06-1.2.06-1.2l5.7 2s-1.13 2.66-2.43 3-2.75-2.3.75-2.8z" fill="#c53030"/><path d="M198.14 51.85l2.38.66s-1.76.43-2.38-.66z" class="E"/><path d="M205.45 38.05s-.7 1.95-1.77 1.95a28.63 28.63 0 0 0-3.42.5l-.37 1.26.4.78 1.78-.9c.08.07 1.75-.22 3.37-3.6z"/><path d="M201.7 43.28s2.2-1.3 2.1-2.3-1.04 1.08-2.1 2.3z"/><ellipse cx="219.34" cy="42.42" rx="2.79" ry="5.28" transform="matrix(.994558 -.104181 .104181 .994558 -3.23 23.08)" class="D"/><path d="M222.13 53.67l-7.08 6.72c-.68.1 12.38 2.94 13.4 4.8s-4.23-18.13-4.23-18.13-1.38 5.82-2.1 6.6zm-4.68-14.07s3.37-2.24 3.6 3.22c0 0 .3 2.66-.3 2.85s.25-6.26-3.3-6.07z" class="E"/><path d="M206.25 172.64l-1-.1c4.45-46.43 28.6-100.8 28.83-101.33l.9.4c-.23.54-24.3 54.75-28.74 101.02z" class="B"/><path d="M196.64 36.06l1.1-.54s4 10 3.42 12.27c-.01.07-3.22-11.73-4.5-11.73z" fill="#fff"/><path d="M201.43 52.74l-.32-.38c.46-.4.67-.76.62-1.1-.1-.68-1.14-1.23-1.53-1.4l.2-.46c.07 0 1.66.68 1.83 1.77a1.72 1.72 0 0 1-.79 1.57z" class="E"/><path d="M216.37 227.46l-1-.03 1.3-44.87-3.68 44.6-1-.08 5.22-63.25 1 .06-1.84 63.58zm50.1-9.63c-35-2.57-46.43-50.2-46.54-50.7l1-.22c.1.47 11.34 47.4 45.63 49.9zm-63.86-74.46c-.13-.76-2.85-19.3 26.24-71.28l.87.5c-15.07 26.94-21.37 44.7-24 54.87-2.85 11-2.13 15.7-2.12 15.76z" class="B"/><path d="M234.2 102.82l9.9 2.65a37.09 37.09 0 0 0-3.68 7.88c-.86 3.35-6.23-10.53-6.23-10.53z" class="C"/><path d="M201 131.32l-1-.2c.07-.33 7.38-33.1 14.8-50.06l.9.4c-7.35 16.87-14.63 49.54-14.7 49.86zm-8.24 62.48c2 2.38 10-11.85 11.43-4.67s-19.2 16.94-12.65 16.1 21.46-14.4 18.1-7.7-24 20.9-10.1 16.6 15.85-12.52 18.25-13.52c4.1-1.67 8.57-35.8 7-37.92-6.36-9.1-36.2 26-32 31.13z" class="B"/><g class="C"><path d="M201 187l-9.68 16.93s11.57-8.52 12.86-12.9-1.6-7.13-3.18-4.03z"/><path d="M189.7 205.72l10.84-19c.8-1.55 1.92-1.77 2.7-1.46 1.37.55 2.27 2.9 1.4 5.86-1.33 4.5-12.56 12.8-13 13.16zm12.9-19.56c-.56 0-1 .7-1.18 1.05L193 202c3.33-2.62 9.8-8 10.7-11.13.74-2.52 0-4.32-.82-4.65a.65.65 0 0 0-.29-.06zm-7.5 27.4l4.5-12 10.2-6.93s2.6 9.37-14.7 18.93z"/><path d="M194.15 214.65l5-13.4 10.9-7.4.18.67c.1.4 2.5 9.85-14.93 19.5zM200 201.9l-4 10.55c12.77-7.47 13.5-14.67 13.35-16.94zm20.1-41.65l-.92-.4c.06-.14 6.25-13.82 19.76-20.42 13-6.37 12.38-12.8 12.38-12.86l1-.12c0 .3.73 7.2-12.93 13.88-13.2 6.44-19.23 19.8-19.3 19.93zm5.02-.15l-1-.3c4.2-13.13 24.56-22.57 25.43-23l.42.9c-.16.13-20.8 9.7-24.85 22.4z"/></g><path d="M219.498 228.5l.51-65.008 1 .008-.51 65.008z" class="B"/><g class="C"><path d="M204.46 191.4l-.6-.8c.16-.12 15.87-12.24 16.17-27.2h1c-.3 15.48-16.4 27.88-16.57 28zm5.54 6.53l-.5-.86c.1 0 8.57-5.34 15-34.58l1 .2c-6.63 29.8-15.2 35.03-15.5 35.23zm.2-22.53a.91.91 0 0 0 .21-1c-.12-.62-.45-1.54-1.52-1.3a1.32 1.32 0 0 0-.8 2.14c.36.35 1.47.87 2.1.15z"/><path d="M209.37 176.26a2.61 2.61 0 0 1-1.6-.6 1.93 1.93 0 0 1-.38-1.79 1.82 1.82 0 0 1 1.39-1.22 1.63 1.63 0 0 1 1.28.18 2.22 2.22 0 0 1 .85 1.5 1.4 1.4 0 0 1-.31 1.39 1.58 1.58 0 0 1-1.23.54zm-.14-2.66a.94.94 0 0 0-.22 0 .85.85 0 0 0-.67.54 1 1 0 0 0 .14.79c.14.12.94.57 1.36.12a.42.42 0 0 0 .1-.48 1.4 1.4 0 0 0-.43-.92.47.47 0 0 0-.28-.05zm-2.8 6.05a1 1 0 0 0 .2-.82c-.13-.46-.38-1.3-1.3-1.13a1.06 1.06 0 0 0-.62 1.78c.3.32 1.3.75 1.72.17z"/><path d="M205.78 180.43a2.12 2.12 0 0 1-1.45-.62 1.55 1.55 0 0 1 .88-2.59c.94-.2 1.58.3 1.9 1.48a1.57 1.57 0 0 1-.27 1.25 1.27 1.27 0 0 1-1 .46zm-.2-2.25h-.14a.61.61 0 0 0-.5.41.6.6 0 0 0 .11.51 1.21 1.21 0 0 0 .75.32.33.33 0 0 0 .25-.09.53.53 0 0 0 .1-.42c-.14-.57-.33-.73-.57-.73zm8.27-7.28a.91.91 0 0 0 .21-1c-.12-.6-.45-1.54-1.52-1.3a1.33 1.33 0 0 0-.8 2.15c.44.35 1.55.86 2.1.14z"/><path d="M213.06 171.78a2.91 2.91 0 0 1-1.61-.58 2 2 0 0 1-.42-1.82 1.84 1.84 0 0 1 1.39-1.22 1.63 1.63 0 0 1 1.28.18 2.24 2.24 0 0 1 .85 1.5 1.37 1.37 0 0 1-.31 1.38 1.43 1.43 0 0 1-1.18.56zm-.2-2.67h-.22a.84.84 0 0 0-.67.53 1 1 0 0 0 .14.79c.12.08 1 .58 1.34.14a.42.42 0 0 0 .11-.49 1.4 1.4 0 0 0-.43-.92.47.47 0 0 0-.27-.05z"/></g><path d="M157.46 86.15s-1.77.73.22 5.75 8 13.72 8.14 14.48-.1 2-2.84.76-7.1-3.93-10.33-.26l.08 1.3 3.1-.13s3.54.26 4.5 2.2c0 0 .46 2.6 9.15 4.05a6.82 6.82 0 0 1 3.52 1.85l7.85-5.4-4.06-4.52-1-4.28-4.36-3.18-1.52.14-1.17-.74h-2s-5.92-5.15-6.58-6.93a42.29 42.29 0 0 1-1.3-5.28zm99.48 1.35s33.7 19.5 35.23 23.35-8.48 25.68-36.44 48.27l-5.1-7.76s24.63-32.28 17.8-36c-6.38-3.44-17.2-7.28-17.2-7.28z" class="D"/><path d="M258.35 110.46s13.93 3.62 16.7 1.35-5.74 5.5-5.74 5.5 2.12-.1-10.96-6.86z" class="E"/><path d="M258 155.84s-2.3 4.94-6.63 5.3-8.38-.15-9.1.5-4.23 4.3-4.8 4.88-3.76 2.44-4.44 2.4-.78-1 .76-2.83l3.06-3.6 2.63-2.5s-4.5.66-5.2 1.38-4.74 6.62-6.65 7.12.23-3 1-4.33l2.73-4.3-4.75 5.5c-.86.64-2.1 1.17-2.3.63s1.37-3 1.37-3 2.24-5.17 2.94-5.6 5.14-2.74 5.14-2.74a8.55 8.55 0 0 0-3.21.58c-1.3.54-6.48 2.6-8.26 2s-.26-.84 1-1.6 8.45-3.93 8.68-4.07 8.1-.4 8.62-.2 7.2 1.06 10.08-.52c.2.04 7.14 3.13 7.32 5.03z" class="D"/><path d="M257.48,142.14a129.76,129.76,0,0,0-2.62,16.25c-.33,4.74-4.15-7.1-4.15-7.1Z" class="E"/><g fill="#5b4b4b"><path d="M255.6 160.88a.78.78 0 0 1-.51-.26c-1.45-1.4-4.5-10-4.1-11.62a1.91 1.91 0 0 1 .84-1.28 2 2 0 0 1 1.43-.16l-.14.48a1.48 1.48 0 0 0-1 .12 1.39 1.39 0 0 0-.61 1c-.3 1.33 2.2 8.7 3.7 10.8.3.45.46.47.46.47.76-.2.82-1.75.77-2.33h.5c0 .1.18 2.5-1.15 2.85z"/><path d="M256.4 160.17a.78.78 0 0 1-.51-.26c-1.46-1.4-4.5-10-4.12-11.62a1.88 1.88 0 0 1 .85-1.28 2 2 0 0 1 1.42-.16l-.14.48a1.42 1.42 0 0 0-1 .11 1.4 1.4 0 0 0-.61 1c-.3 1.33 2.2 8.7 3.68 10.8.32.45.46.48.46.48.9-.26.75-1.78.75-1.8l.5-.06c0 .08.22 2-1.12 2.33z"/><path d="M257.22 158.7a.76.76 0 0 1-.51-.25c-1.45-1.4-4.5-10-4.1-11.63a1.87 1.87 0 0 1 .84-1.28 2 2 0 0 1 1.43-.16l-.14.48a1.48 1.48 0 0 0-1 .12 1.39 1.39 0 0 0-.61 1c-.3 1.33 2.2 8.7 3.68 10.8.32.45.46.47.46.47a1.07 1.07 0 0 0 .86-1.11l.5-.05a1.58 1.58 0 0 1-1.24 1.64.25.25 0 0 1-.16-.03zm-2.42 2.9a.76.76 0 0 1-.51-.25c-1.45-1.4-4.5-10-4.12-11.63a1.92 1.92 0 0 1 .85-1.28 2 2 0 0 1 1.42-.16l-.14.48a1.45 1.45 0 0 0-1 .12 1.39 1.39 0 0 0-.61.95c-.3 1.33 2.2 8.7 3.68 10.8.32.45.46.47.46.47.77-.2.82-1.75.78-2.33h.5c0 .1.2 2.5-1.15 2.86z"/></g><path d="M259.5 88.92l-2.5-1.5s-7.1 17-5.72 20.62l2.3.8z" class="C"/><path d="M254.43 103.38a.73.73 0 0 0-.12-.69c-.28-.4-.78-1-1.4-.38a1 1 0 0 0 .1 1.69c.34 0 1.24.05 1.43-.62zm2.03-5.56a.71.71 0 0 0-.11-.68c-.28-.4-.78-1-1.42-.38a1 1 0 0 0 .14 1.67c.23.01 1.2.06 1.4-.6zm2-5.92a.76.76 0 0 0-.12-.69c-.28-.4-.78-1-1.4-.38a1 1 0 0 0 .13 1.67c.3.1 1.2.07 1.4-.6zm-30.67 32.17a.71.71 0 0 0-.11-.68c-.28-.4-.78-1-1.42-.38a1 1 0 0 0 .14 1.67c.3.1 1.2.06 1.4-.6zm7.57-.34a.73.73 0 0 0-.11-.69c-.28-.4-.78-1-1.4-.38a1 1 0 0 0 .13 1.67c.3.1 1.2.07 1.4-.6zm6.7 53.83s.42 1.92-.87 2.07c-1.06 0-1.5-1.5-1-3.23s4.07-2.8 3.83-1.07a1 1 0 0 1-1.17.69c.87.73 1.67 1.22 1.25 2-.2.55-1.26.5-2.04-.46zm18.7 31.24s.43 1.9-.87 2.06c-1.06 0-1.5-1.5-1-3.22s4.08-2.8 3.83-1.08c0 0-.28 1-1.17.7.87.73 1.67 1.22 1.26 2-.22.55-1.27.5-2.05-.45zm-.3-22.7s.43 1.9-.87 2.07c-1.06 0-1.5-1.52-1-3.23s4.08-2.8 3.83-1.08c0 0-.28 1-1.17.7.87.73 1.67 1.23 1.26 2-.22.56-1.27.5-2.05-.45z" class="B"/><path d="M197.43 122.5a97.68 97.68 0 0 0 2.94 9.91c1.2 2.86 2.2 9.56 2.2 9.56l-8.76-7s.63-13.2-1.77-16.34z" class="E"/><g class="F"><path d="M38.65 192.07c-3.17 0-4.55-4-5.9-7.9L5.1 100.1a4.77 4.77 0 0 1 .41-4.46c1.36-1.9 4.47-2.85 9.26-2.88l76.07-3.15c5.74.3 6.78 1.76 8.78 7.82l23.2 61.42c1.62 5.12.7 6.3-7 9l-75.8 24a4.64 4.64 0 0 1-1.35.22zM90.83 90.6l-76 3.15c-4.4 0-7.33.88-8.48 2.46a3.87 3.87 0 0 0-.27 3.57l27.62 84.05c1.73 5 3 8 6 7.06l75.76-24c7.74-2.7 7.73-3.47 6.4-7.7l-23.2-61.44c-1.9-5.82-2.67-6.87-7.84-7.15z"/><path d="M127.45 158.1l-75.77 24c-3.53 1.1-4.92-2.46-6.62-7.4l-27.73-84c-1.33-4.18 1.5-6.7 9.2-6.7l76.08-3.15c5.42.3 6.34 1.55 8.28 7.47l23.2 61.45c1.56 4.7.98 5.64-6.65 8.33z"/></g><path d="M122.84 155.36l-67.93 21.5c-3.22 1-4.4-2.2-5.9-6.6L24.2 94.9c-1.23-3.7 1.3-6 8.26-6l68.28-2.82c4.9.26 5.67 1.36 7.42 6.67L129 147.9c1.2 4.22.7 5.1-6.16 7.45z" fill="#fff"/><path d="M42.3 180.18c-3.16 0-4.55-4-5.9-7.9L8.76 88.2a4.75 4.75 0 0 1 .42-4.46c1.35-1.88 4.47-2.85 9.25-2.87l76.07-3.16c5.74.3 6.78 1.76 8.78 7.82l23.2 61.46c1.62 5.1.7 6.28-7 9l-75.8 24a4.64 4.64 0 0 1-1.36.18zM94.5 78.72l-76 3.16c-4.4 0-7.33.87-8.47 2.45a3.85 3.85 0 0 0-.28 3.57l27.66 84c1.72 5 3 8 6 7.06l75.76-24c7.74-2.7 7.74-3.47 6.4-7.7l-23.2-61.42c-1.94-5.8-2.7-6.84-7.87-7.12z" class="F"/><path fill="#2f855a" d="M58.02 155.64l-4.3 1.2-5.55-27.42 56.36-3.16 1.27 4.6-52.2 3-5.42-4.45"/><path fill="#276749" d="M59.16 161.22l-5.43-4.37-5.55-27.42 5.42 4.45 5.56 27.34z"/><path fill="#22543d" d="M104.54 126.27l1.27 4.6 4.1-.23-5.36-4.37z"/><path fill="#68d391" d="M59.16 161.22l55-15.55-4.25-15.03-56.3 3.24 5.56 27.34z"/><g fill="#2f855a"><ellipse cx="93.97" cy="142.4" rx="2.79" ry="4" transform="matrix(.975496 -.220016 .220016 .975496 -29.03 24.17)"/><ellipse cx="78.53" cy="144.65" rx="3.32" ry="4.83" transform="matrix(.975496 -.220016 .220016 .975496 -29.91 20.83)"/><path d="M74.353 108.628l.97-.245 1.744 6.893-.97.245zM58.2 115.302l.72-.694 6.368 6.612-.72.694zm30.38 3.428l4.95-5.02.712.702-4.95 5.02z"/></g><path d="M174.75 118.76a.91.91 0 0 1-.67-.35 1.29 1.29 0 0 1-.34-1c.1-1.72 2.86-4.24 5.42-6.47.9-.8 1.63-1.1 2.18-.88s.8 1.14.8 1.17l-.5.06s-.08-.62-.48-.77-.95.15-1.66.8c-1.8 1.57-5.16 4.48-5.26 6.13a.83.83 0 0 0 .21.65.51.51 0 0 0 .31.18.62.62 0 0 0 .3-.14l.36.35a1 1 0 0 1-.67.28z" fill="#262323"/><path d="M222 54.2a2 2 0 0 0-.75-1.4c-.73-.56-2.2-1.32-3.18.13a2 2 0 0 0 1.41 3.33c.63-.04 2.52-.62 2.52-2.06zm-.3-5.2a2 2 0 0 0-.75-1.4c-.73-.56-2.2-1.32-3.18.13a2 2 0 0 0 1.4 3.33c.68.07 2.6-.5 2.53-2.06zm-.14 9.63a1.15 1.15 0 0 0-.55-1c-.58-.4-1.6-1-2.34.1a1.53 1.53 0 0 0 1 2.47c.6-.05 2-.5 1.9-1.57z" fill="#fff"/></svg>